<?xml version="1.0" encoding="UTF-8" standalone="no"?>
<!DOCTYPE svg PUBLIC "-//W3C//DTD SVG 1.1//EN"
 "http://www.w3.org/Graphics/SVG/1.1/DTD/svg11.dtd">
<!-- Generated by graphviz version 14.0.1 (20251006.0113)
 -->
<!-- Title: java/com/runehive/content/skill/impl/agility/Agility.java Pages: 1 -->
<!--zoomable 147 -->

<svg id="main" version="1.1" xmlns="http://www.w3.org/2000/svg" xmlns:xlink="http://www.w3.org/1999/xlink" xml:space="preserve" onload="init(evt)">

<style type="text/css"><![CDATA[
.node, .edge {opacity: 0.7;}
.node.selected, .edge.selected {opacity: 1;}
.edge:hover path { stroke: red; }
.edge:hover polygon { stroke: red; fill: red; }
]]></style>

<defs>
  <circle id="rim" cx="0" cy="0" r="7"/>
  <circle id="rim2" cx="0" cy="0" r="3.5"/>
  <g id="zoomPlus">
    <use xlink:href="#rim" fill="#404040"><set attributeName="fill" to="#808080" begin="zoomplus.mouseover" end="zoomplus.mouseout"/></use>
    <path d="M-4,0h8M0,-4v8" fill="none" stroke="white" stroke-width="1.5" pointer-events="none"/>
  </g>
  <g id="zoomMin">
    <use xlink:href="#rim" fill="#404040"><set attributeName="fill" to="#808080" begin="zoomminus.mouseover" end="zoomminus.mouseout"/></use>
    <path d="M-4,0h8" fill="none" stroke="white" stroke-width="1.5" pointer-events="none"/>
  </g>
  <g id="arrowUp" transform="translate(30 24)">
    <use xlink:href="#rim"/>
    <path pointer-events="none" fill="none" stroke="white" stroke-width="1.5" d="M0,-3.0v7 M-2.5,-0.5L0,-3.0L2.5,-0.5"/>
  </g>
  <g id="arrowRight" transform="rotate(90) translate(36 -43)">
    <use xlink:href="#rim"/>
    <path pointer-events="none" fill="none" stroke="white" stroke-width="1.5" d="M0,-3.0v7 M-2.5,-0.5L0,-3.0L2.5,-0.5"/>
  </g>
  <g id="arrowDown" transform="rotate(180) translate(-30 -48)">
    <use xlink:href="#rim"/>
    <path pointer-events="none" fill="none" stroke="white" stroke-width="1.5" d="M0,-3.0v7 M-2.5,-0.5L0,-3.0L2.5,-0.5"/>
  </g>
  <g id="arrowLeft" transform="rotate(270) translate(-36 17)">
    <use xlink:href="#rim"/>
    <path pointer-events="none" fill="none" stroke="white" stroke-width="1.5" d="M0,-3.0v7 M-2.5,-0.5L0,-3.0L2.5,-0.5"/>
  </g>
  <g id="resetDef">
    <use xlink:href="#rim2" fill="#404040"><set attributeName="fill" to="#808080" begin="reset.mouseover" end="reset.mouseout"/></use>
  </g>
</defs>
<script type="application/ecmascript">
var viewWidth = 3454;
var viewHeight = 147;
var sectionId = 'dynsection-0';
</script>
<script type="application/ecmascript" xlink:href="svg.min.js"/>
<svg id="graph" class="graph">
<g id="viewport">
<title>java/com/runehive/content/skill/impl/agility/Agility.java</title>
<!-- Node1 -->
<g id="Node000001" class="node">
<title>Node1</title>
<g id="a_Node000001"><a xlink:title=" ">
<ellipse fill="#999999" stroke="#666666" cx="1812.29" cy="-113.43" rx="113.67" ry="25.81"/>
<text xml:space="preserve" text-anchor="start" x="1739.91" y="-116.28" font-family="Helvetica,sans-Serif" font-size="12.00">java/com/runehive/content</text>
<text xml:space="preserve" text-anchor="middle" x="1812.29" y="-102.03" font-family="Helvetica,sans-Serif" font-size="12.00">/skill/impl/agility/Agility.java</text>
</a>
</g>
</g>
<!-- Node2 -->
<g id="Node000002" class="node">
<title>Node2</title>
<g id="a_Node000002"><a xlink:title=" ">
<ellipse fill="#e0e0e0" stroke="#999999" cx="98.29" cy="-25.81" rx="98.29" ry="15.73"/>
<text xml:space="preserve" text-anchor="middle" x="98.29" y="-21.53" font-family="Helvetica,sans-Serif" font-size="12.00">com.google.gson.Gson</text>
</a>
</g>
</g>
<!-- Node1&#45;&gt;Node2 -->
<g id="edge1_Node000001_Node000002" class="edge">
<title>Node1&#45;&gt;Node2</title>
<g id="a_edge1_Node000001_Node000002"><a xlink:title=" ">
<path fill="none" stroke="#63b8ff" d="M1698.71,-110.9C1382.32,-106.21 495.25,-89.93 206.29,-51.62 190.4,-49.51 173.42,-46.15 157.74,-42.57"/>
<polygon fill="#63b8ff" stroke="#63b8ff" points="158.6,-39.18 148.06,-40.29 156.99,-45.99 158.6,-39.18"/>
</a>
</g>
</g>
<!-- Node3 -->
<g id="Node000003" class="node">
<title>Node3</title>
<g id="a_Node000003"><a xlink:title=" ">
<ellipse fill="#e0e0e0" stroke="#999999" cx="340.29" cy="-25.81" rx="125.33" ry="15.73"/>
<text xml:space="preserve" text-anchor="middle" x="340.29" y="-21.53" font-family="Helvetica,sans-Serif" font-size="12.00">com.google.gson.GsonBuilder</text>
</a>
</g>
</g>
<!-- Node1&#45;&gt;Node3 -->
<g id="edge2_Node000001_Node000003" class="edge">
<title>Node1&#45;&gt;Node3</title>
<g id="a_edge2_Node000001_Node000003"><a xlink:title=" ">
<path fill="none" stroke="#63b8ff" d="M1698.3,-112.47C1466.96,-111.4 926.04,-103.05 475.29,-51.62 455.01,-49.3 433.18,-45.76 413.12,-42.07"/>
<polygon fill="#63b8ff" stroke="#63b8ff" points="413.82,-38.64 403.34,-40.23 412.52,-45.52 413.82,-38.64"/>
</a>
</g>
</g>
<!-- Node4 -->
<g id="Node000004" class="node">
<title>Node4</title>
<g id="a_Node000004"><a xlink:title=" ">
<ellipse fill="#e0e0e0" stroke="#999999" cx="626.29" cy="-25.81" rx="142.31" ry="15.73"/>
<text xml:space="preserve" text-anchor="middle" x="626.29" y="-21.53" font-family="Helvetica,sans-Serif" font-size="12.00">com.google.gson.JsonIOException</text>
</a>
</g>
</g>
<!-- Node1&#45;&gt;Node4 -->
<g id="edge3_Node000001_Node000004" class="edge">
<title>Node1&#45;&gt;Node4</title>
<g id="a_edge3_Node000001_Node000004"><a xlink:title=" ">
<path fill="none" stroke="#63b8ff" d="M1699.39,-109.64C1508.82,-104.08 1111.37,-88.78 777.29,-51.62 754.59,-49.09 730.1,-45.47 707.59,-41.76"/>
<polygon fill="#63b8ff" stroke="#63b8ff" points="708.31,-38.33 697.87,-40.13 707.15,-45.24 708.31,-38.33"/>
</a>
</g>
</g>
<!-- Node5 -->
<g id="Node000005" class="node">
<title>Node5</title>
<g id="a_Node000005"><a xlink:title=" ">
<ellipse fill="#e0e0e0" stroke="#999999" cx="908.29" cy="-25.81" rx="122.15" ry="25.81"/>
<text xml:space="preserve" text-anchor="start" x="829.91" y="-28.66" font-family="Helvetica,sans-Serif" font-size="12.00">com.google.gson.JsonSyntax</text>
<text xml:space="preserve" text-anchor="middle" x="908.29" y="-14.41" font-family="Helvetica,sans-Serif" font-size="12.00">Exception</text>
</a>
</g>
</g>
<!-- Node1&#45;&gt;Node5 -->
<g id="edge4_Node000001_Node000005" class="edge">
<title>Node1&#45;&gt;Node5</title>
<g id="a_edge4_Node000001_Node000005"><a xlink:title=" ">
<path fill="none" stroke="#63b8ff" d="M1701.16,-107.49C1550.64,-99.92 1273.79,-82.95 1039.29,-51.62 1028.36,-50.16 1016.97,-48.38 1005.66,-46.46"/>
<polygon fill="#63b8ff" stroke="#63b8ff" points="1006.34,-43.03 995.88,-44.75 1005.13,-49.92 1006.34,-43.03"/>
</a>
</g>
</g>
<!-- Node6 -->
<g id="Node000006" class="node">
<title>Node6</title>
<g id="a_Node000006"><a xlink:title=" ">
<ellipse fill="#e0e0e0" stroke="#999999" cx="1137.29" cy="-25.81" rx="89.27" ry="15.73"/>
<text xml:space="preserve" text-anchor="middle" x="1137.29" y="-21.53" font-family="Helvetica,sans-Serif" font-size="12.00">com.runehive.Config</text>
</a>
</g>
</g>
<!-- Node1&#45;&gt;Node6 -->
<g id="edge5_Node000001_Node000006" class="edge">
<title>Node1&#45;&gt;Node6</title>
<g id="a_edge5_Node000001_Node000006"><a xlink:title=" ">
<path fill="none" stroke="#63b8ff" d="M1703.43,-105.61C1586.94,-97.24 1397.05,-80.47 1235.29,-51.62 1221.79,-49.21 1207.4,-45.96 1193.93,-42.61"/>
<polygon fill="#63b8ff" stroke="#63b8ff" points="1194.88,-39.24 1184.33,-40.16 1193.15,-46.03 1194.88,-39.24"/>
</a>
</g>
</g>
<!-- Node7 -->
<g id="Node000007" class="node">
<title>Node7</title>
<g id="a_Node000007"><a xlink:title=" ">
<ellipse fill="#e0e0e0" stroke="#999999" cx="1431.29" cy="-25.81" rx="186.85" ry="25.81"/>
<text xml:space="preserve" text-anchor="start" x="1307.16" y="-28.66" font-family="Helvetica,sans-Serif" font-size="12.00">com.runehive.content.skill.impl.agility.obstacle.</text>
<text xml:space="preserve" text-anchor="middle" x="1431.29" y="-14.41" font-family="Helvetica,sans-Serif" font-size="12.00">Obstacle</text>
</a>
</g>
</g>
<!-- Node1&#45;&gt;Node7 -->
<g id="edge6_Node000001_Node000007" class="edge">
<title>Node1&#45;&gt;Node7</title>
<g id="a_edge6_Node000001_Node000007"><a xlink:title=" ">
<path fill="none" stroke="#63b8ff" d="M1732.88,-94.58C1676.41,-81.89 1599.91,-64.7 1538.09,-50.81"/>
<polygon fill="#63b8ff" stroke="#63b8ff" points="1539.12,-47.46 1528.6,-48.68 1537.59,-54.28 1539.12,-47.46"/>
</a>
</g>
</g>
<!-- Node8 -->
<g id="Node000008" class="node">
<title>Node8</title>
<g id="a_Node000008"><a xlink:title=" ">
<ellipse fill="#e0e0e0" stroke="#999999" cx="1812.29" cy="-25.81" rx="175.72" ry="25.81"/>
<text xml:space="preserve" text-anchor="start" x="1696.04" y="-28.66" font-family="Helvetica,sans-Serif" font-size="12.00">com.runehive.game.world.entity.mob.player.</text>
<text xml:space="preserve" text-anchor="middle" x="1812.29" y="-14.41" font-family="Helvetica,sans-Serif" font-size="12.00">Player</text>
</a>
</g>
</g>
<!-- Node1&#45;&gt;Node8 -->
<g id="edge7_Node000001_Node000008" class="edge">
<title>Node1&#45;&gt;Node8</title>
<g id="a_edge7_Node000001_Node000008"><a xlink:title=" ">
<path fill="none" stroke="#63b8ff" d="M1812.29,-87.2C1812.29,-79.71 1812.29,-71.35 1812.29,-63.3"/>
<polygon fill="#63b8ff" stroke="#63b8ff" points="1815.79,-63.37 1812.29,-53.37 1808.79,-63.37 1815.79,-63.37"/>
</a>
</g>
</g>
<!-- Node9 -->
<g id="Node000009" class="node">
<title>Node9</title>
<g id="a_Node000009"><a xlink:title=" ">
<ellipse fill="#e0e0e0" stroke="#999999" cx="2155.29" cy="-25.81" rx="149.2" ry="25.81"/>
<text xml:space="preserve" text-anchor="start" x="2057.79" y="-28.66" font-family="Helvetica,sans-Serif" font-size="12.00">com.runehive.game.world.entity.skill.</text>
<text xml:space="preserve" text-anchor="middle" x="2155.29" y="-14.41" font-family="Helvetica,sans-Serif" font-size="12.00">Skill</text>
</a>
</g>
</g>
<!-- Node1&#45;&gt;Node9 -->
<g id="edge8_Node000001_Node000009" class="edge">
<title>Node1&#45;&gt;Node9</title>
<g id="a_edge8_Node000001_Node000009"><a xlink:title=" ">
<path fill="none" stroke="#63b8ff" d="M1887.14,-93.74C1938.13,-81.02 2006.04,-64.06 2060.76,-50.4"/>
<polygon fill="#63b8ff" stroke="#63b8ff" points="2061.55,-53.81 2070.41,-48 2059.86,-47.02 2061.55,-53.81"/>
</a>
</g>
</g>
<!-- Node10 -->
<g id="Node000010" class="node">
<title>Node10</title>
<g id="a_Node000010"><a xlink:title=" ">
<ellipse fill="#e0e0e0" stroke="#999999" cx="2471.29" cy="-25.81" rx="148.67" ry="15.73"/>
<text xml:space="preserve" text-anchor="middle" x="2471.29" y="-21.53" font-family="Helvetica,sans-Serif" font-size="12.00">com.runehive.game.world.items.Item</text>
</a>
</g>
</g>
<!-- Node1&#45;&gt;Node10 -->
<g id="edge9_Node000001_Node000010" class="edge">
<title>Node1&#45;&gt;Node10</title>
<g id="a_edge9_Node000001_Node000010"><a xlink:title=" ">
<path fill="none" stroke="#63b8ff" d="M1913.18,-101.23C2014.45,-89.75 2174.87,-70.88 2313.29,-51.62 2335.64,-48.51 2359.72,-44.87 2382.18,-41.36"/>
<polygon fill="#63b8ff" stroke="#63b8ff" points="2382.59,-44.84 2391.92,-39.83 2381.5,-37.92 2382.59,-44.84"/>
</a>
</g>
</g>
<!-- Node11 -->
<g id="Node000011" class="node">
<title>Node11</title>
<g id="a_Node000011"><a xlink:title=" ">
<ellipse fill="#e0e0e0" stroke="#999999" cx="2780.29" cy="-25.81" rx="142.31" ry="25.81"/>
<text xml:space="preserve" text-anchor="start" x="2687.66" y="-28.66" font-family="Helvetica,sans-Serif" font-size="12.00">com.runehive.game.world.position.</text>
<text xml:space="preserve" text-anchor="middle" x="2780.29" y="-14.41" font-family="Helvetica,sans-Serif" font-size="12.00">Position</text>
</a>
</g>
</g>
<!-- Node1&#45;&gt;Node11 -->
<g id="edge10_Node000001_Node000011" class="edge">
<title>Node1&#45;&gt;Node11</title>
<g id="a_edge10_Node000001_Node000011"><a xlink:title=" ">
<path fill="none" stroke="#63b8ff" d="M1923.26,-107.29C2080.69,-99.29 2377.71,-81.59 2629.29,-51.62 2642.17,-50.08 2655.63,-48.23 2668.98,-46.24"/>
<polygon fill="#63b8ff" stroke="#63b8ff" points="2669.3,-49.73 2678.66,-44.77 2668.24,-42.81 2669.3,-49.73"/>
</a>
</g>
</g>
<!-- Node12 -->
<g id="Node000012" class="node">
<title>Node12</title>
<g id="a_Node000012"><a xlink:title=" ">
<ellipse fill="#e0e0e0" stroke="#999999" cx="2982.29" cy="-25.81" rx="41.54" ry="15.73"/>
<text xml:space="preserve" text-anchor="middle" x="2982.29" y="-21.53" font-family="Helvetica,sans-Serif" font-size="12.00">java.io.*</text>
</a>
</g>
</g>
<!-- Node1&#45;&gt;Node12 -->
<g id="edge11_Node000001_Node000012" class="edge">
<title>Node1&#45;&gt;Node12</title>
<g id="a_edge11_Node000001_Node000012"><a xlink:title=" ">
<path fill="none" stroke="#63b8ff" d="M1926.14,-111.95C2171.67,-109.99 2743.89,-100.17 2931.29,-51.62 2937.76,-49.94 2944.39,-47.41 2950.63,-44.59"/>
<polygon fill="#63b8ff" stroke="#63b8ff" points="2951.87,-47.88 2959.32,-40.35 2948.8,-41.59 2951.87,-47.88"/>
</a>
</g>
</g>
<!-- Node13 -->
<g id="Node000013" class="node">
<title>Node13</title>
<g id="a_Node000013"><a xlink:title=" ">
<ellipse fill="#e0e0e0" stroke="#999999" cx="3121.29" cy="-25.81" rx="79.2" ry="15.73"/>
<text xml:space="preserve" text-anchor="middle" x="3121.29" y="-21.53" font-family="Helvetica,sans-Serif" font-size="12.00">java.util.HashMap</text>
</a>
</g>
</g>
<!-- Node1&#45;&gt;Node13 -->
<g id="edge12_Node000001_Node000013" class="edge">
<title>Node1&#45;&gt;Node13</title>
<g id="a_edge12_Node000001_Node000013"><a xlink:title=" ">
<path fill="none" stroke="#63b8ff" d="M1925.08,-110.05C2185.4,-104.05 2822,-86.21 3033.29,-51.62 3045.76,-49.58 3058.99,-46.4 3071.29,-43"/>
<polygon fill="#63b8ff" stroke="#63b8ff" points="3072.19,-46.39 3080.83,-40.26 3070.26,-39.66 3072.19,-46.39"/>
</a>
</g>
</g>
<!-- Node14 -->
<g id="Node000014" class="node">
<title>Node14</title>
<g id="a_Node000014"><a xlink:title=" ">
<ellipse fill="#e0e0e0" stroke="#999999" cx="3332.29" cy="-25.81" rx="113.67" ry="15.73"/>
<text xml:space="preserve" text-anchor="middle" x="3332.29" y="-21.53" font-family="Helvetica,sans-Serif" font-size="12.00">java.util.function.Consumer</text>
</a>
</g>
</g>
<!-- Node1&#45;&gt;Node14 -->
<g id="edge13_Node000001_Node000014" class="edge">
<title>Node1&#45;&gt;Node14</title>
<g id="a_edge13_Node000001_Node000014"><a xlink:title=" ">
<path fill="none" stroke="#63b8ff" d="M1925.28,-109.78C2211.85,-102.7 2961.75,-81.78 3209.29,-51.62 3227.64,-49.38 3247.35,-45.9 3265.49,-42.25"/>
<polygon fill="#63b8ff" stroke="#63b8ff" points="3265.99,-45.72 3275.08,-40.26 3264.58,-38.86 3265.99,-45.72"/>
</a>
</g>
</g>
</g>
</svg>

<g id="navigator" transform="translate(0 0)" fill="#404254">
  <rect fill="#f2f5e9" fill-opacity="0.5" stroke="#606060" stroke-width=".5" x="0" y="0" width="60" height="60"/>
  <use id="zoomplus" xlink:href="#zoomPlus" x="17" y="9" onmousedown="handleZoom(evt,'in')"/>
  <use id="zoomminus" xlink:href="#zoomMin" x="42" y="9" onmousedown="handleZoom(evt,'out')"/>
  <use id="reset" xlink:href="#resetDef" x="30" y="36" onmousedown="handleReset()"/>
   <use id="arrowup" xlink:href="#arrowUp" x="0" y="0" onmousedown="handlePan(0,-1)"/>
  <use id="arrowright" xlink:href="#arrowRight" x="0" y="0" onmousedown="handlePan(1,0)"/>
  <use id="arrowdown" xlink:href="#arrowDown" x="0" y="0" onmousedown="handlePan(0,1)"/>
  <use id="arrowleft" xlink:href="#arrowLeft" x="0" y="0" onmousedown="handlePan(-1,0)"/>
</g>
<svg viewBox="0 0 15 15" width="100%" height="30px" preserveAspectRatio="xMaxYMin meet">
 <g id="arrow_out" transform="scale(0.3 0.3)">
  <a xlink:href="_agility_8java__incl_org.svg" target="_base">
   <rect id="button" ry="5" rx="5" y="6" x="6" height="38" width="38"
        fill="#f2f5e9" fill-opacity="0.5" stroke="#606060" stroke-width="1.0"/>
   <path id="arrow"
     d="M 11.500037,31.436501 C 11.940474,20.09759 22.043105,11.32322 32.158766,21.979434 L 37.068811,17.246167 C 37.068811,17.246167 37.088388,32 37.088388,32 L 22.160133,31.978069 C 22.160133,31.978069 26.997745,27.140456 26.997745,27.140456 C 18.528582,18.264221 13.291696,25.230495 11.500037,31.436501 z"
     style="fill:#404040;"/>
  </a>
 </g>
</svg>

<style type='text/css'>
<![CDATA[
[data-mouse-over-selected='false'] { opacity: 0.7; }
[data-mouse-over-selected='true']  { opacity: 1.0; }
]]>
</style>
<script type="application/ecmascript"><![CDATA[
document.addEventListener('DOMContentLoaded', (event) => {
  highlightEdges();
  highlightAdjacentNodes();
});
]]></script>
</svg>
