<?xml version="1.0" encoding="UTF-8" standalone="no"?>
<!DOCTYPE svg PUBLIC "-//W3C//DTD SVG 1.1//EN"
 "http://www.w3.org/Graphics/SVG/1.1/DTD/svg11.dtd">
<!-- Generated by graphviz version 14.0.1 (20251006.0113)
 -->
<!-- Title: java/com/runehive/game/world/entity/combat/strategy/npc/impl/BrutalDragonfireStrategy.java Pages: 1 -->
<!--zoomable 167 -->

<svg id="main" version="1.1" xmlns="http://www.w3.org/2000/svg" xmlns:xlink="http://www.w3.org/1999/xlink" xml:space="preserve" onload="init(evt)">

<style type="text/css"><![CDATA[
.node, .edge {opacity: 0.7;}
.node.selected, .edge.selected {opacity: 1;}
.edge:hover path { stroke: red; }
.edge:hover polygon { stroke: red; fill: red; }
]]></style>

<defs>
  <circle id="rim" cx="0" cy="0" r="7"/>
  <circle id="rim2" cx="0" cy="0" r="3.5"/>
  <g id="zoomPlus">
    <use xlink:href="#rim" fill="#404040"><set attributeName="fill" to="#808080" begin="zoomplus.mouseover" end="zoomplus.mouseout"/></use>
    <path d="M-4,0h8M0,-4v8" fill="none" stroke="white" stroke-width="1.5" pointer-events="none"/>
  </g>
  <g id="zoomMin">
    <use xlink:href="#rim" fill="#404040"><set attributeName="fill" to="#808080" begin="zoomminus.mouseover" end="zoomminus.mouseout"/></use>
    <path d="M-4,0h8" fill="none" stroke="white" stroke-width="1.5" pointer-events="none"/>
  </g>
  <g id="arrowUp" transform="translate(30 24)">
    <use xlink:href="#rim"/>
    <path pointer-events="none" fill="none" stroke="white" stroke-width="1.5" d="M0,-3.0v7 M-2.5,-0.5L0,-3.0L2.5,-0.5"/>
  </g>
  <g id="arrowRight" transform="rotate(90) translate(36 -43)">
    <use xlink:href="#rim"/>
    <path pointer-events="none" fill="none" stroke="white" stroke-width="1.5" d="M0,-3.0v7 M-2.5,-0.5L0,-3.0L2.5,-0.5"/>
  </g>
  <g id="arrowDown" transform="rotate(180) translate(-30 -48)">
    <use xlink:href="#rim"/>
    <path pointer-events="none" fill="none" stroke="white" stroke-width="1.5" d="M0,-3.0v7 M-2.5,-0.5L0,-3.0L2.5,-0.5"/>
  </g>
  <g id="arrowLeft" transform="rotate(270) translate(-36 17)">
    <use xlink:href="#rim"/>
    <path pointer-events="none" fill="none" stroke="white" stroke-width="1.5" d="M0,-3.0v7 M-2.5,-0.5L0,-3.0L2.5,-0.5"/>
  </g>
  <g id="resetDef">
    <use xlink:href="#rim2" fill="#404040"><set attributeName="fill" to="#808080" begin="reset.mouseover" end="reset.mouseout"/></use>
  </g>
</defs>
<script type="application/ecmascript">
var viewWidth = 3429;
var viewHeight = 167;
var sectionId = 'dynsection-0';
</script>
<script type="application/ecmascript" xlink:href="svg.min.js"/>
<svg id="graph" class="graph">
<g id="viewport">
<title>java/com/runehive/game/world/entity/combat/strategy/npc/impl/BrutalDragonfireStrategy.java</title>
<!-- Node1 -->
<g id="Node000001" class="node">
<title>Node1</title>
<g id="a_Node000001"><a xlink:title=" ">
<ellipse fill="#999999" stroke="#666666" cx="1472.87" cy="-123.5" rx="158.22" ry="35.89"/>
<text xml:space="preserve" text-anchor="start" x="1368.99" y="-133.48" font-family="Helvetica,sans-Serif" font-size="12.00">java/com/runehive/game</text>
<text xml:space="preserve" text-anchor="start" x="1368.99" y="-119.23" font-family="Helvetica,sans-Serif" font-size="12.00">/world/entity/combat/strategy</text>
<text xml:space="preserve" text-anchor="middle" x="1472.87" y="-104.98" font-family="Helvetica,sans-Serif" font-size="12.00">/npc/impl/BrutalDragonfireStrategy.java</text>
</a>
</g>
</g>
<!-- Node2 -->
<g id="Node000002" class="node">
<title>Node2</title>
<g id="a_Node000002"><a xlink:title=" ">
<ellipse fill="#e0e0e0" stroke="#999999" cx="125.87" cy="-25.81" rx="125.87" ry="15.73"/>
<text xml:space="preserve" text-anchor="middle" x="125.87" y="-21.53" font-family="Helvetica,sans-Serif" font-size="12.00">com.runehive.game.Animation</text>
</a>
</g>
</g>
<!-- Node1&#45;&gt;Node2 -->
<g id="edge1_Node000001_Node000002" class="edge">
<title>Node1&#45;&gt;Node2</title>
<g id="a_edge1_Node000001_Node000002"><a xlink:title=" ">
<path fill="none" stroke="#63b8ff" d="M1315.42,-119.49C1083.7,-113.65 637.53,-97.07 260.87,-51.62 240.8,-49.2 219.21,-45.66 199.31,-42"/>
<polygon fill="#63b8ff" stroke="#63b8ff" points="200.09,-38.59 189.61,-40.19 198.8,-45.47 200.09,-38.59"/>
</a>
</g>
</g>
<!-- Node3 -->
<g id="Node000003" class="node">
<title>Node3</title>
<g id="a_Node000003"><a xlink:title=" ">
<ellipse fill="#e0e0e0" stroke="#999999" cx="384.87" cy="-25.81" rx="115.26" ry="25.81"/>
<text xml:space="preserve" text-anchor="start" x="311.37" y="-28.66" font-family="Helvetica,sans-Serif" font-size="12.00">com.runehive.game.Update</text>
<text xml:space="preserve" text-anchor="middle" x="384.87" y="-14.41" font-family="Helvetica,sans-Serif" font-size="12.00">Priority</text>
</a>
</g>
</g>
<!-- Node1&#45;&gt;Node3 -->
<g id="edge2_Node000001_Node000003" class="edge">
<title>Node1&#45;&gt;Node3</title>
<g id="a_edge2_Node000001_Node000003"><a xlink:title=" ">
<path fill="none" stroke="#63b8ff" d="M1317.14,-116.91C1126.22,-108.7 793.1,-90 509.87,-51.62 499.37,-50.2 488.43,-48.44 477.58,-46.52"/>
<polygon fill="#63b8ff" stroke="#63b8ff" points="478.27,-43.09 467.81,-44.74 477.02,-49.98 478.27,-43.09"/>
</a>
</g>
</g>
<!-- Node4 -->
<g id="Node000004" class="node">
<title>Node4</title>
<g id="a_Node000004"><a xlink:title=" ">
<ellipse fill="#e0e0e0" stroke="#999999" cx="628.87" cy="-25.81" rx="110.49" ry="25.81"/>
<text xml:space="preserve" text-anchor="start" x="558.74" y="-28.66" font-family="Helvetica,sans-Serif" font-size="12.00">com.runehive.game.world.</text>
<text xml:space="preserve" text-anchor="middle" x="628.87" y="-14.41" font-family="Helvetica,sans-Serif" font-size="12.00">World</text>
</a>
</g>
</g>
<!-- Node1&#45;&gt;Node4 -->
<g id="edge3_Node000001_Node000004" class="edge">
<title>Node1&#45;&gt;Node4</title>
<g id="a_edge3_Node000001_Node000004"><a xlink:title=" ">
<path fill="none" stroke="#63b8ff" d="M1321.62,-112.5C1174.54,-101.65 945.08,-81.73 747.87,-51.62 738.24,-50.15 728.22,-48.4 718.26,-46.53"/>
<polygon fill="#63b8ff" stroke="#63b8ff" points="719.03,-43.11 708.55,-44.65 717.7,-49.99 719.03,-43.11"/>
</a>
</g>
</g>
<!-- Node5 -->
<g id="Node000005" class="node">
<title>Node5</title>
<g id="a_Node000005"><a xlink:title=" ">
<ellipse fill="#e0e0e0" stroke="#999999" cx="918.87" cy="-25.81" rx="161.93" ry="25.81"/>
<text xml:space="preserve" text-anchor="start" x="812.37" y="-28.66" font-family="Helvetica,sans-Serif" font-size="12.00">com.runehive.game.world.entity.combat.</text>
<text xml:space="preserve" text-anchor="middle" x="918.87" y="-14.41" font-family="Helvetica,sans-Serif" font-size="12.00">CombatUtil</text>
</a>
</g>
</g>
<!-- Node1&#45;&gt;Node5 -->
<g id="edge4_Node000001_Node000005" class="edge">
<title>Node1&#45;&gt;Node5</title>
<g id="a_edge4_Node000001_Node000005"><a xlink:title=" ">
<path fill="none" stroke="#63b8ff" d="M1348.54,-101.03C1255.59,-84.97 1129.29,-63.16 1037.7,-47.34"/>
<polygon fill="#63b8ff" stroke="#63b8ff" points="1038.37,-43.9 1027.92,-45.65 1037.17,-50.8 1038.37,-43.9"/>
</a>
</g>
</g>
<!-- Node6 -->
<g id="Node000006" class="node">
<title>Node6</title>
<g id="a_Node000006"><a xlink:title=" ">
<ellipse fill="#e0e0e0" stroke="#999999" cx="1284.87" cy="-25.81" rx="186.32" ry="25.81"/>
<text xml:space="preserve" text-anchor="start" x="1161.12" y="-28.66" font-family="Helvetica,sans-Serif" font-size="12.00">com.runehive.game.world.entity.combat.attack.</text>
<text xml:space="preserve" text-anchor="middle" x="1284.87" y="-14.41" font-family="Helvetica,sans-Serif" font-size="12.00">FightType</text>
</a>
</g>
</g>
<!-- Node1&#45;&gt;Node6 -->
<g id="edge5_Node000001_Node000006" class="edge">
<title>Node1&#45;&gt;Node6</title>
<g id="a_edge5_Node000001_Node000006"><a xlink:title=" ">
<path fill="none" stroke="#63b8ff" d="M1409.48,-90.24C1387.95,-79.28 1364.02,-67.1 1342.93,-56.36"/>
<polygon fill="#63b8ff" stroke="#63b8ff" points="1344.67,-53.33 1334.17,-51.91 1341.5,-59.56 1344.67,-53.33"/>
</a>
</g>
</g>
<!-- Node7 -->
<g id="Node000007" class="node">
<title>Node7</title>
<g id="a_Node000007"><a xlink:title=" ">
<ellipse fill="#e0e0e0" stroke="#999999" cx="1661.87" cy="-25.81" rx="173.06" ry="25.81"/>
<text xml:space="preserve" text-anchor="start" x="1547.49" y="-28.66" font-family="Helvetica,sans-Serif" font-size="12.00">com.runehive.game.world.entity.combat.hit.</text>
<text xml:space="preserve" text-anchor="middle" x="1661.87" y="-14.41" font-family="Helvetica,sans-Serif" font-size="12.00">CombatHit</text>
</a>
</g>
</g>
<!-- Node1&#45;&gt;Node7 -->
<g id="edge6_Node000001_Node000007" class="edge">
<title>Node1&#45;&gt;Node7</title>
<g id="a_edge6_Node000001_Node000007"><a xlink:title=" ">
<path fill="none" stroke="#63b8ff" d="M1536.59,-90.24C1558.32,-79.24 1582.5,-67 1603.76,-56.23"/>
<polygon fill="#63b8ff" stroke="#63b8ff" points="1605.26,-59.39 1612.6,-51.75 1602.1,-53.15 1605.26,-59.39"/>
</a>
</g>
</g>
<!-- Node8 -->
<g id="Node000008" class="node">
<title>Node8</title>
<g id="a_Node000008"><a xlink:title=" ">
<ellipse fill="#e0e0e0" stroke="#999999" cx="2051.87" cy="-25.81" rx="198.52" ry="25.81"/>
<text xml:space="preserve" text-anchor="start" x="1919.49" y="-28.66" font-family="Helvetica,sans-Serif" font-size="12.00">com.runehive.game.world.entity.combat.projectile.</text>
<text xml:space="preserve" text-anchor="middle" x="2051.87" y="-14.41" font-family="Helvetica,sans-Serif" font-size="12.00">CombatProjectile</text>
</a>
</g>
</g>
<!-- Node1&#45;&gt;Node8 -->
<g id="edge7_Node000001_Node000008" class="edge">
<title>Node1&#45;&gt;Node8</title>
<g id="a_edge7_Node000001_Node000008"><a xlink:title=" ">
<path fill="none" stroke="#63b8ff" d="M1599.21,-101.62C1694.27,-85.91 1824.18,-64.44 1920.45,-48.53"/>
<polygon fill="#63b8ff" stroke="#63b8ff" points="1920.94,-52 1930.23,-46.91 1919.79,-45.09 1920.94,-52"/>
</a>
</g>
</g>
<!-- Node9 -->
<g id="Node000009" class="node">
<title>Node9</title>
<g id="a_Node000009"><a xlink:title=" ">
<ellipse fill="#e0e0e0" stroke="#999999" cx="2477.87" cy="-25.81" rx="209.13" ry="25.81"/>
<text xml:space="preserve" text-anchor="start" x="2337.99" y="-28.66" font-family="Helvetica,sans-Serif" font-size="12.00">com.runehive.game.world.entity.combat.strategy.npc.</text>
<text xml:space="preserve" text-anchor="middle" x="2477.87" y="-14.41" font-family="Helvetica,sans-Serif" font-size="12.00">NpcMagicStrategy</text>
</a>
</g>
</g>
<!-- Node1&#45;&gt;Node9 -->
<g id="edge8_Node000001_Node000009" class="edge">
<title>Node1&#45;&gt;Node9</title>
<g id="a_edge8_Node000001_Node000009"><a xlink:title=" ">
<path fill="none" stroke="#63b8ff" d="M1620.55,-110.24C1778.78,-96.87 2037.24,-74.31 2259.87,-51.62 2278.48,-49.72 2297.97,-47.64 2317.32,-45.51"/>
<polygon fill="#63b8ff" stroke="#63b8ff" points="2317.63,-49 2327.19,-44.42 2316.86,-42.04 2317.63,-49"/>
</a>
</g>
</g>
<!-- Node10 -->
<g id="Node000010" class="node">
<title>Node10</title>
<g id="a_Node000010"><a xlink:title=" ">
<ellipse fill="#e0e0e0" stroke="#999999" cx="2871.87" cy="-25.81" rx="167.23" ry="15.73"/>
<text xml:space="preserve" text-anchor="middle" x="2871.87" y="-21.53" font-family="Helvetica,sans-Serif" font-size="12.00">com.runehive.game.world.entity.mob.Mob</text>
</a>
</g>
</g>
<!-- Node1&#45;&gt;Node10 -->
<g id="edge9_Node000001_Node000010" class="edge">
<title>Node1&#45;&gt;Node10</title>
<g id="a_edge9_Node000001_Node000010"><a xlink:title=" ">
<path fill="none" stroke="#63b8ff" d="M1629.08,-117.56C1861.92,-109.26 2313.59,-89.58 2695.87,-51.62 2722.6,-48.96 2751.51,-45.25 2778.01,-41.49"/>
<polygon fill="#63b8ff" stroke="#63b8ff" points="2778.32,-44.99 2787.72,-40.1 2777.32,-38.06 2778.32,-44.99"/>
</a>
</g>
</g>
<!-- Node11 -->
<g id="Node000011" class="node">
<title>Node11</title>
<g id="a_Node000011"><a xlink:title=" ">
<ellipse fill="#e0e0e0" stroke="#999999" cx="3238.87" cy="-25.81" rx="182.08" ry="15.73"/>
<text xml:space="preserve" text-anchor="middle" x="3238.87" y="-21.53" font-family="Helvetica,sans-Serif" font-size="12.00">com.runehive.game.world.entity.mob.npc.Npc</text>
</a>
</g>
</g>
<!-- Node1&#45;&gt;Node11 -->
<g id="edge10_Node000001_Node000011" class="edge">
<title>Node1&#45;&gt;Node11</title>
<g id="a_edge10_Node000001_Node000011"><a xlink:title=" ">
<path fill="none" stroke="#63b8ff" d="M1630.48,-119.8C1914.37,-113.95 2530.29,-96.8 3047.87,-51.62 3077.55,-49.03 3109.71,-45.23 3139.03,-41.39"/>
<polygon fill="#63b8ff" stroke="#63b8ff" points="3139.17,-44.9 3148.62,-40.11 3138.24,-37.96 3139.17,-44.9"/>
</a>
</g>
</g>
</g>
</svg>

<g id="navigator" transform="translate(0 0)" fill="#404254">
  <rect fill="#f2f5e9" fill-opacity="0.5" stroke="#606060" stroke-width=".5" x="0" y="0" width="60" height="60"/>
  <use id="zoomplus" xlink:href="#zoomPlus" x="17" y="9" onmousedown="handleZoom(evt,'in')"/>
  <use id="zoomminus" xlink:href="#zoomMin" x="42" y="9" onmousedown="handleZoom(evt,'out')"/>
  <use id="reset" xlink:href="#resetDef" x="30" y="36" onmousedown="handleReset()"/>
   <use id="arrowup" xlink:href="#arrowUp" x="0" y="0" onmousedown="handlePan(0,-1)"/>
  <use id="arrowright" xlink:href="#arrowRight" x="0" y="0" onmousedown="handlePan(1,0)"/>
  <use id="arrowdown" xlink:href="#arrowDown" x="0" y="0" onmousedown="handlePan(0,1)"/>
  <use id="arrowleft" xlink:href="#arrowLeft" x="0" y="0" onmousedown="handlePan(-1,0)"/>
</g>
<svg viewBox="0 0 15 15" width="100%" height="30px" preserveAspectRatio="xMaxYMin meet">
 <g id="arrow_out" transform="scale(0.3 0.3)">
  <a xlink:href="_brutal_dragonfire_strategy_8java__incl_org.svg" target="_base">
   <rect id="button" ry="5" rx="5" y="6" x="6" height="38" width="38"
        fill="#f2f5e9" fill-opacity="0.5" stroke="#606060" stroke-width="1.0"/>
   <path id="arrow"
     d="M 11.500037,31.436501 C 11.940474,20.09759 22.043105,11.32322 32.158766,21.979434 L 37.068811,17.246167 C 37.068811,17.246167 37.088388,32 37.088388,32 L 22.160133,31.978069 C 22.160133,31.978069 26.997745,27.140456 26.997745,27.140456 C 18.528582,18.264221 13.291696,25.230495 11.500037,31.436501 z"
     style="fill:#404040;"/>
  </a>
 </g>
</svg>

<style type='text/css'>
<![CDATA[
[data-mouse-over-selected='false'] { opacity: 0.7; }
[data-mouse-over-selected='true']  { opacity: 1.0; }
]]>
</style>
<script type="application/ecmascript"><![CDATA[
document.addEventListener('DOMContentLoaded', (event) => {
  highlightEdges();
  highlightAdjacentNodes();
});
]]></script>
</svg>
