<?xml version="1.0" encoding="UTF-8" standalone="no"?>
<!DOCTYPE svg PUBLIC "-//W3C//DTD SVG 1.1//EN"
 "http://www.w3.org/Graphics/SVG/1.1/DTD/svg11.dtd">
<!-- Generated by graphviz version 14.0.1 (20251006.0113)
 -->
<!-- Title: java/com/runehive/game/action/impl/BuryBoneAction.java Pages: 1 -->
<svg width="3629pt" height="147pt"
 viewBox="0.00 0.00 3629.00 147.00" xmlns="http://www.w3.org/2000/svg" xmlns:xlink="http://www.w3.org/1999/xlink">
<g id="graph0" class="graph" transform="scale(1 1) rotate(0) translate(4 143.24)">
<title>java/com/runehive/game/action/impl/BuryBoneAction.java</title>
<!-- Node1 -->
<g id="Node000001" class="node">
<title>Node1</title>
<g id="a_Node000001"><a xlink:title=" ">
<ellipse fill="#999999" stroke="#666666" cx="1780.27" cy="-113.43" rx="135.94" ry="25.81"/>
<text xml:space="preserve" text-anchor="start" x="1692.15" y="-116.28" font-family="Helvetica,sans-Serif" font-size="12.00">java/com/runehive/game</text>
<text xml:space="preserve" text-anchor="middle" x="1780.27" y="-102.03" font-family="Helvetica,sans-Serif" font-size="12.00">/action/impl/BuryBoneAction.java</text>
</a>
</g>
</g>
<!-- Node2 -->
<g id="Node000002" class="node">
<title>Node2</title>
<g id="a_Node000002"><a xlink:title=" ">
<ellipse fill="#e0e0e0" stroke="#999999" cx="89.27" cy="-25.81" rx="89.27" ry="15.73"/>
<text xml:space="preserve" text-anchor="middle" x="89.27" y="-21.53" font-family="Helvetica,sans-Serif" font-size="12.00">com.runehive.Config</text>
</a>
</g>
</g>
<!-- Node1&#45;&gt;Node2 -->
<g id="edge1_Node000001_Node000002" class="edge">
<title>Node1&#45;&gt;Node2</title>
<g id="a_edge1_Node000001_Node000002"><a xlink:title=" ">
<path fill="none" stroke="#63b8ff" d="M1644.68,-110.91C1312.87,-106.59 466.77,-91.88 187.27,-51.62 173.02,-49.57 157.83,-46.28 143.78,-42.76"/>
<polygon fill="#63b8ff" stroke="#63b8ff" points="144.81,-39.41 134.25,-40.29 143.05,-46.19 144.81,-39.41"/>
</a>
</g>
</g>
<!-- Node3 -->
<g id="Node000003" class="node">
<title>Node3</title>
<g id="a_Node000003"><a xlink:title=" ">
<ellipse fill="#e0e0e0" stroke="#999999" cx="326.27" cy="-25.81" rx="129.58" ry="25.81"/>
<text xml:space="preserve" text-anchor="start" x="242.65" y="-28.66" font-family="Helvetica,sans-Serif" font-size="12.00">com.runehive.content.skillcape.</text>
<text xml:space="preserve" text-anchor="middle" x="326.27" y="-14.41" font-family="Helvetica,sans-Serif" font-size="12.00">SkillCape</text>
</a>
</g>
</g>
<!-- Node1&#45;&gt;Node3 -->
<g id="edge2_Node000001_Node000003" class="edge">
<title>Node1&#45;&gt;Node3</title>
<g id="a_edge2_Node000001_Node000003"><a xlink:title=" ">
<path fill="none" stroke="#63b8ff" d="M1644.46,-111.97C1405.36,-109.88 893.97,-99.58 465.27,-51.62 453.02,-50.25 440.23,-48.46 427.57,-46.47"/>
<polygon fill="#63b8ff" stroke="#63b8ff" points="428.42,-43.06 417.99,-44.92 427.3,-49.97 428.42,-43.06"/>
</a>
</g>
</g>
<!-- Node4 -->
<g id="Node000004" class="node">
<title>Node4</title>
<g id="a_Node000004"><a xlink:title=" ">
<ellipse fill="#e0e0e0" stroke="#999999" cx="618.27" cy="-25.81" rx="144.43" ry="25.81"/>
<text xml:space="preserve" text-anchor="start" x="524.15" y="-28.66" font-family="Helvetica,sans-Serif" font-size="12.00">com.runehive.content.achievement.</text>
<text xml:space="preserve" text-anchor="middle" x="618.27" y="-14.41" font-family="Helvetica,sans-Serif" font-size="12.00">AchievementHandler</text>
</a>
</g>
</g>
<!-- Node1&#45;&gt;Node4 -->
<g id="edge3_Node000001_Node000004" class="edge">
<title>Node1&#45;&gt;Node4</title>
<g id="a_edge3_Node000001_Node000004"><a xlink:title=" ">
<path fill="none" stroke="#63b8ff" d="M1646.21,-108.58C1452.73,-102.07 1084.2,-86.07 772.27,-51.62 758.79,-50.13 744.68,-48.27 730.71,-46.25"/>
<polygon fill="#63b8ff" stroke="#63b8ff" points="731.46,-42.82 721.05,-44.82 730.43,-49.75 731.46,-42.82"/>
</a>
</g>
</g>
<!-- Node5 -->
<g id="Node000005" class="node">
<title>Node5</title>
<g id="a_Node000005"><a xlink:title=" ">
<ellipse fill="#e0e0e0" stroke="#999999" cx="925.27" cy="-25.81" rx="144.43" ry="25.81"/>
<text xml:space="preserve" text-anchor="start" x="831.15" y="-28.66" font-family="Helvetica,sans-Serif" font-size="12.00">com.runehive.content.achievement.</text>
<text xml:space="preserve" text-anchor="middle" x="925.27" y="-14.41" font-family="Helvetica,sans-Serif" font-size="12.00">AchievementKey</text>
</a>
</g>
</g>
<!-- Node1&#45;&gt;Node5 -->
<g id="edge4_Node000001_Node000005" class="edge">
<title>Node1&#45;&gt;Node5</title>
<g id="a_edge4_Node000001_Node000005"><a xlink:title=" ">
<path fill="none" stroke="#63b8ff" d="M1652.52,-104.23C1511.6,-94.51 1278.28,-76.46 1078.27,-51.62 1065.34,-50.01 1051.82,-48.13 1038.4,-46.12"/>
<polygon fill="#63b8ff" stroke="#63b8ff" points="1039.08,-42.68 1028.67,-44.64 1038.03,-49.61 1039.08,-42.68"/>
</a>
</g>
</g>
<!-- Node6 -->
<g id="Node000006" class="node">
<title>Node6</title>
<g id="a_Node000006"><a xlink:title=" ">
<ellipse fill="#e0e0e0" stroke="#999999" cx="1198.27" cy="-25.81" rx="111.02" ry="25.81"/>
<text xml:space="preserve" text-anchor="start" x="1127.77" y="-28.66" font-family="Helvetica,sans-Serif" font-size="12.00">com.runehive.content.skill.</text>
<text xml:space="preserve" text-anchor="middle" x="1198.27" y="-14.41" font-family="Helvetica,sans-Serif" font-size="12.00">SkillAction</text>
</a>
</g>
</g>
<!-- Node1&#45;&gt;Node6 -->
<g id="edge5_Node000001_Node000006" class="edge">
<title>Node1&#45;&gt;Node6</title>
<g id="a_edge5_Node000001_Node000006"><a xlink:title=" ">
<path fill="none" stroke="#63b8ff" d="M1664.58,-99.57C1570.92,-88.6 1435.73,-71.46 1318.27,-51.62 1308.75,-50.01 1298.82,-48.19 1288.95,-46.29"/>
<polygon fill="#63b8ff" stroke="#63b8ff" points="1289.81,-42.89 1279.32,-44.4 1288.46,-49.76 1289.81,-42.89"/>
</a>
</g>
</g>
<!-- Node7 -->
<g id="Node000007" class="node">
<title>Node7</title>
<g id="a_Node000007"><a xlink:title=" ">
<ellipse fill="#e0e0e0" stroke="#999999" cx="1482.27" cy="-25.81" rx="154.5" ry="25.81"/>
<text xml:space="preserve" text-anchor="start" x="1381.02" y="-28.66" font-family="Helvetica,sans-Serif" font-size="12.00">com.runehive.content.skill.impl.prayer.</text>
<text xml:space="preserve" text-anchor="middle" x="1482.27" y="-14.41" font-family="Helvetica,sans-Serif" font-size="12.00">BoneData</text>
</a>
</g>
</g>
<!-- Node1&#45;&gt;Node7 -->
<g id="edge6_Node000001_Node000007" class="edge">
<title>Node1&#45;&gt;Node7</title>
<g id="a_edge6_Node000001_Node000007"><a xlink:title=" ">
<path fill="none" stroke="#63b8ff" d="M1706.99,-91.37C1665.37,-79.41 1613.01,-64.37 1569.3,-51.81"/>
<polygon fill="#63b8ff" stroke="#63b8ff" points="1570.42,-48.49 1559.84,-49.1 1568.49,-55.22 1570.42,-48.49"/>
</a>
</g>
</g>
<!-- Node8 -->
<g id="Node000008" class="node">
<title>Node8</title>
<g id="a_Node000008"><a xlink:title=" ">
<ellipse fill="#e0e0e0" stroke="#999999" cx="1780.27" cy="-25.81" rx="125.87" ry="15.73"/>
<text xml:space="preserve" text-anchor="middle" x="1780.27" y="-21.53" font-family="Helvetica,sans-Serif" font-size="12.00">com.runehive.game.Animation</text>
</a>
</g>
</g>
<!-- Node1&#45;&gt;Node8 -->
<g id="edge7_Node000001_Node000008" class="edge">
<title>Node1&#45;&gt;Node8</title>
<g id="a_edge7_Node000001_Node000008"><a xlink:title=" ">
<path fill="none" stroke="#63b8ff" d="M1780.27,-87.2C1780.27,-76.52 1780.27,-64.08 1780.27,-53.27"/>
<polygon fill="#63b8ff" stroke="#63b8ff" points="1783.77,-53.45 1780.27,-43.45 1776.77,-53.45 1783.77,-53.45"/>
</a>
</g>
</g>
<!-- Node9 -->
<g id="Node000009" class="node">
<title>Node9</title>
<g id="a_Node000009"><a xlink:title=" ">
<ellipse fill="#e0e0e0" stroke="#999999" cx="2060.27" cy="-25.81" rx="136.47" ry="25.81"/>
<text xml:space="preserve" text-anchor="start" x="1971.77" y="-28.66" font-family="Helvetica,sans-Serif" font-size="12.00">com.runehive.game.action.policy.</text>
<text xml:space="preserve" text-anchor="middle" x="2060.27" y="-14.41" font-family="Helvetica,sans-Serif" font-size="12.00">WalkablePolicy</text>
</a>
</g>
</g>
<!-- Node1&#45;&gt;Node9 -->
<g id="edge8_Node000001_Node000009" class="edge">
<title>Node1&#45;&gt;Node9</title>
<g id="a_edge8_Node000001_Node000009"><a xlink:title=" ">
<path fill="none" stroke="#63b8ff" d="M1850.57,-90.93C1889.59,-79 1938.32,-64.1 1978.98,-51.67"/>
<polygon fill="#63b8ff" stroke="#63b8ff" points="1979.96,-55.03 1988.5,-48.76 1977.92,-48.33 1979.96,-55.03"/>
</a>
</g>
</g>
<!-- Node10 -->
<g id="Node000010" class="node">
<title>Node10</title>
<g id="a_Node000010"><a xlink:title=" ">
<ellipse fill="#e0e0e0" stroke="#999999" cx="2390.27" cy="-25.81" rx="175.72" ry="25.81"/>
<text xml:space="preserve" text-anchor="start" x="2274.02" y="-28.66" font-family="Helvetica,sans-Serif" font-size="12.00">com.runehive.game.world.entity.mob.player.</text>
<text xml:space="preserve" text-anchor="middle" x="2390.27" y="-14.41" font-family="Helvetica,sans-Serif" font-size="12.00">Player</text>
</a>
</g>
</g>
<!-- Node1&#45;&gt;Node10 -->
<g id="edge9_Node000001_Node000010" class="edge">
<title>Node1&#45;&gt;Node10</title>
<g id="a_edge9_Node000001_Node000010"><a xlink:title=" ">
<path fill="none" stroke="#63b8ff" d="M1887.92,-97.32C1989.94,-83 2143.57,-61.44 2254.06,-45.93"/>
<polygon fill="#63b8ff" stroke="#63b8ff" points="2254.37,-49.42 2263.79,-44.56 2253.4,-42.49 2254.37,-49.42"/>
</a>
</g>
</g>
<!-- Node11 -->
<g id="Node000011" class="node">
<title>Node11</title>
<g id="a_Node000011"><a xlink:title=" ">
<ellipse fill="#e0e0e0" stroke="#999999" cx="2733.27" cy="-25.81" rx="149.2" ry="25.81"/>
<text xml:space="preserve" text-anchor="start" x="2635.77" y="-28.66" font-family="Helvetica,sans-Serif" font-size="12.00">com.runehive.game.world.entity.skill.</text>
<text xml:space="preserve" text-anchor="middle" x="2733.27" y="-14.41" font-family="Helvetica,sans-Serif" font-size="12.00">Skill</text>
</a>
</g>
</g>
<!-- Node1&#45;&gt;Node11 -->
<g id="edge10_Node000001_Node000011" class="edge">
<title>Node1&#45;&gt;Node11</title>
<g id="a_edge10_Node000001_Node000011"><a xlink:title=" ">
<path fill="none" stroke="#63b8ff" d="M1910.36,-105.66C2068.05,-96.71 2341.71,-78.85 2575.27,-51.62 2588.87,-50.03 2603.1,-48.14 2617.2,-46.11"/>
<polygon fill="#63b8ff" stroke="#63b8ff" points="2617.59,-49.59 2626.97,-44.68 2616.57,-42.67 2617.59,-49.59"/>
</a>
</g>
</g>
<!-- Node12 -->
<g id="Node000012" class="node">
<title>Node12</title>
<g id="a_Node000012"><a xlink:title=" ">
<ellipse fill="#e0e0e0" stroke="#999999" cx="3049.27" cy="-25.81" rx="148.67" ry="15.73"/>
<text xml:space="preserve" text-anchor="middle" x="3049.27" y="-21.53" font-family="Helvetica,sans-Serif" font-size="12.00">com.runehive.game.world.items.Item</text>
</a>
</g>
</g>
<!-- Node1&#45;&gt;Node12 -->
<g id="edge11_Node000001_Node000012" class="edge">
<title>Node1&#45;&gt;Node12</title>
<g id="a_edge11_Node000001_Node000012"><a xlink:title=" ">
<path fill="none" stroke="#63b8ff" d="M1914.87,-109.45C2124.2,-103.82 2540.21,-88.69 2891.27,-51.62 2915.23,-49.09 2941.1,-45.42 2964.82,-41.68"/>
<polygon fill="#63b8ff" stroke="#63b8ff" points="2965.11,-45.18 2974.43,-40.15 2964,-38.27 2965.11,-45.18"/>
</a>
</g>
</g>
<!-- Node13 -->
<g id="Node000013" class="node">
<title>Node13</title>
<g id="a_Node000013"><a xlink:title=" ">
<ellipse fill="#e0e0e0" stroke="#999999" cx="3335.27" cy="-25.81" rx="118.97" ry="25.81"/>
<text xml:space="preserve" text-anchor="start" x="3259.15" y="-28.66" font-family="Helvetica,sans-Serif" font-size="12.00">com.runehive.net.packet.out.</text>
<text xml:space="preserve" text-anchor="middle" x="3335.27" y="-14.41" font-family="Helvetica,sans-Serif" font-size="12.00">SendMessage</text>
</a>
</g>
</g>
<!-- Node1&#45;&gt;Node13 -->
<g id="edge12_Node000001_Node000013" class="edge">
<title>Node1&#45;&gt;Node13</title>
<g id="a_edge12_Node000001_Node000013"><a xlink:title=" ">
<path fill="none" stroke="#63b8ff" d="M1916.57,-113.35C2171.11,-113.58 2735.66,-107.06 3207.27,-51.62 3218.43,-50.31 3230.07,-48.57 3241.6,-46.63"/>
<polygon fill="#63b8ff" stroke="#63b8ff" points="3241.85,-50.13 3251.09,-44.96 3240.64,-43.24 3241.85,-50.13"/>
</a>
</g>
</g>
<!-- Node14 -->
<g id="Node000014" class="node">
<title>Node14</title>
<g id="a_Node000014"><a xlink:title=" ">
<ellipse fill="#e0e0e0" stroke="#999999" cx="3546.27" cy="-25.81" rx="74.42" ry="15.73"/>
<text xml:space="preserve" text-anchor="middle" x="3546.27" y="-21.53" font-family="Helvetica,sans-Serif" font-size="12.00">java.util.Optional</text>
</a>
</g>
</g>
<!-- Node1&#45;&gt;Node14 -->
<g id="edge13_Node000001_Node000014" class="edge">
<title>Node1&#45;&gt;Node14</title>
<g id="a_edge13_Node000001_Node000014"><a xlink:title=" ">
<path fill="none" stroke="#63b8ff" d="M1916.3,-111.96C2261.83,-110.07 3166.85,-100.46 3463.27,-51.62 3475.08,-49.67 3487.57,-46.54 3499.17,-43.15"/>
<polygon fill="#63b8ff" stroke="#63b8ff" points="3499.98,-46.56 3508.52,-40.28 3497.94,-39.86 3499.98,-46.56"/>
</a>
</g>
</g>
</g>
</svg>
