<?xml version="1.0" encoding="UTF-8" standalone="no"?>
<!DOCTYPE svg PUBLIC "-//W3C//DTD SVG 1.1//EN"
 "http://www.w3.org/Graphics/SVG/1.1/DTD/svg11.dtd">
<!-- Generated by graphviz version 14.0.1 (20251006.0113)
 -->
<!-- Title: java/com/runehive/content/combat/cannon/Cannon.java Pages: 1 -->
<!--zoomable 147 -->

<svg id="main" version="1.1" xmlns="http://www.w3.org/2000/svg" xmlns:xlink="http://www.w3.org/1999/xlink" xml:space="preserve" onload="init(evt)">

<style type="text/css"><![CDATA[
.node, .edge {opacity: 0.7;}
.node.selected, .edge.selected {opacity: 1;}
.edge:hover path { stroke: red; }
.edge:hover polygon { stroke: red; fill: red; }
]]></style>

<defs>
  <circle id="rim" cx="0" cy="0" r="7"/>
  <circle id="rim2" cx="0" cy="0" r="3.5"/>
  <g id="zoomPlus">
    <use xlink:href="#rim" fill="#404040"><set attributeName="fill" to="#808080" begin="zoomplus.mouseover" end="zoomplus.mouseout"/></use>
    <path d="M-4,0h8M0,-4v8" fill="none" stroke="white" stroke-width="1.5" pointer-events="none"/>
  </g>
  <g id="zoomMin">
    <use xlink:href="#rim" fill="#404040"><set attributeName="fill" to="#808080" begin="zoomminus.mouseover" end="zoomminus.mouseout"/></use>
    <path d="M-4,0h8" fill="none" stroke="white" stroke-width="1.5" pointer-events="none"/>
  </g>
  <g id="arrowUp" transform="translate(30 24)">
    <use xlink:href="#rim"/>
    <path pointer-events="none" fill="none" stroke="white" stroke-width="1.5" d="M0,-3.0v7 M-2.5,-0.5L0,-3.0L2.5,-0.5"/>
  </g>
  <g id="arrowRight" transform="rotate(90) translate(36 -43)">
    <use xlink:href="#rim"/>
    <path pointer-events="none" fill="none" stroke="white" stroke-width="1.5" d="M0,-3.0v7 M-2.5,-0.5L0,-3.0L2.5,-0.5"/>
  </g>
  <g id="arrowDown" transform="rotate(180) translate(-30 -48)">
    <use xlink:href="#rim"/>
    <path pointer-events="none" fill="none" stroke="white" stroke-width="1.5" d="M0,-3.0v7 M-2.5,-0.5L0,-3.0L2.5,-0.5"/>
  </g>
  <g id="arrowLeft" transform="rotate(270) translate(-36 17)">
    <use xlink:href="#rim"/>
    <path pointer-events="none" fill="none" stroke="white" stroke-width="1.5" d="M0,-3.0v7 M-2.5,-0.5L0,-3.0L2.5,-0.5"/>
  </g>
  <g id="resetDef">
    <use xlink:href="#rim2" fill="#404040"><set attributeName="fill" to="#808080" begin="reset.mouseover" end="reset.mouseout"/></use>
  </g>
</defs>
<script type="application/ecmascript">
var viewWidth = 2970;
var viewHeight = 147;
var sectionId = 'dynsection-0';
</script>
<script type="application/ecmascript" xlink:href="svg.min.js"/>
<svg id="graph" class="graph">
<g id="viewport">
<title>java/com/runehive/content/combat/cannon/Cannon.java</title>
<!-- Node1 -->
<g id="Node000001" class="node">
<title>Node1</title>
<g id="a_Node000001"><a xlink:title=" ">
<ellipse fill="#999999" stroke="#666666" cx="1555.97" cy="-113.43" rx="121.62" ry="25.81"/>
<text xml:space="preserve" text-anchor="start" x="1477.97" y="-116.28" font-family="Helvetica,sans-Serif" font-size="12.00">java/com/runehive/content</text>
<text xml:space="preserve" text-anchor="middle" x="1555.97" y="-102.03" font-family="Helvetica,sans-Serif" font-size="12.00">/combat/cannon/Cannon.java</text>
</a>
</g>
</g>
<!-- Node2 -->
<g id="Node000002" class="node">
<title>Node2</title>
<g id="a_Node000002"><a xlink:title=" ">
<ellipse fill="#e0e0e0" stroke="#999999" cx="153.97" cy="-25.81" rx="153.97" ry="25.81"/>
<text xml:space="preserve" text-anchor="start" x="53.1" y="-28.66" font-family="Helvetica,sans-Serif" font-size="12.00">com.runehive.content.combat.cannon.</text>
<text xml:space="preserve" text-anchor="middle" x="153.97" y="-14.41" font-family="Helvetica,sans-Serif" font-size="12.00">CannonManager.Rotation</text>
</a>
</g>
</g>
<!-- Node1&#45;&gt;Node2 -->
<g id="edge1_Node000001_Node000002" class="edge">
<title>Node1&#45;&gt;Node2</title>
<g id="a_edge1_Node000001_Node000002"><a xlink:title=" ">
<path fill="none" stroke="#63b8ff" d="M1434.76,-110.58C1212.59,-106.28 725.46,-92.62 316.97,-51.62 302.56,-50.17 287.48,-48.33 272.55,-46.3"/>
<polygon fill="#63b8ff" stroke="#63b8ff" points="273.07,-42.84 262.68,-44.93 272.1,-49.77 273.07,-42.84"/>
</a>
</g>
</g>
<!-- Node3 -->
<g id="Node000003" class="node">
<title>Node3</title>
<g id="a_Node000003"><a xlink:title=" ">
<ellipse fill="#e0e0e0" stroke="#999999" cx="479.97" cy="-25.81" rx="153.97" ry="25.81"/>
<text xml:space="preserve" text-anchor="start" x="379.1" y="-28.66" font-family="Helvetica,sans-Serif" font-size="12.00">com.runehive.content.combat.cannon.</text>
<text xml:space="preserve" text-anchor="middle" x="479.97" y="-14.41" font-family="Helvetica,sans-Serif" font-size="12.00">CannonManager.Setup</text>
</a>
</g>
</g>
<!-- Node1&#45;&gt;Node3 -->
<g id="edge2_Node000001_Node000003" class="edge">
<title>Node1&#45;&gt;Node3</title>
<g id="a_edge2_Node000001_Node000003"><a xlink:title=" ">
<path fill="none" stroke="#63b8ff" d="M1436.78,-107.71C1262.19,-100.07 926.83,-82.62 642.97,-51.62 628.8,-50.07 613.97,-48.19 599.28,-46.15"/>
<polygon fill="#63b8ff" stroke="#63b8ff" points="599.98,-42.72 589.59,-44.79 599,-49.65 599.98,-42.72"/>
</a>
</g>
</g>
<!-- Node4 -->
<g id="Node000004" class="node">
<title>Node4</title>
<g id="a_Node000004"><a xlink:title=" ">
<ellipse fill="#e0e0e0" stroke="#999999" cx="783.97" cy="-25.81" rx="132.23" ry="25.81"/>
<text xml:space="preserve" text-anchor="start" x="698.47" y="-28.66" font-family="Helvetica,sans-Serif" font-size="12.00">com.runehive.game.world.entity.</text>
<text xml:space="preserve" text-anchor="middle" x="783.97" y="-14.41" font-family="Helvetica,sans-Serif" font-size="12.00">Entity</text>
</a>
</g>
</g>
<!-- Node1&#45;&gt;Node4 -->
<g id="edge3_Node000001_Node000004" class="edge">
<title>Node1&#45;&gt;Node4</title>
<g id="a_edge3_Node000001_Node000004"><a xlink:title=" ">
<path fill="none" stroke="#63b8ff" d="M1441.96,-104.14C1315.35,-94.3 1105.05,-76.1 924.97,-51.62 913.28,-50.03 901.08,-48.18 888.95,-46.21"/>
<polygon fill="#63b8ff" stroke="#63b8ff" points="889.79,-42.8 879.35,-44.63 888.65,-49.71 889.79,-42.8"/>
</a>
</g>
</g>
<!-- Node5 -->
<g id="Node000005" class="node">
<title>Node5</title>
<g id="a_Node000005"><a xlink:title=" ">
<ellipse fill="#e0e0e0" stroke="#999999" cx="1065.97" cy="-25.81" rx="132.23" ry="25.81"/>
<text xml:space="preserve" text-anchor="start" x="980.47" y="-28.66" font-family="Helvetica,sans-Serif" font-size="12.00">com.runehive.game.world.entity.</text>
<text xml:space="preserve" text-anchor="middle" x="1065.97" y="-14.41" font-family="Helvetica,sans-Serif" font-size="12.00">EntityType</text>
</a>
</g>
</g>
<!-- Node1&#45;&gt;Node5 -->
<g id="edge4_Node000001_Node000005" class="edge">
<title>Node1&#45;&gt;Node5</title>
<g id="a_edge4_Node000001_Node000005"><a xlink:title=" ">
<path fill="none" stroke="#63b8ff" d="M1463.38,-96.34C1393.04,-84.1 1293.91,-66.84 1206.97,-51.62 1196.14,-49.72 1184.84,-47.74 1173.55,-45.76"/>
<polygon fill="#63b8ff" stroke="#63b8ff" points="1174.24,-42.32 1163.79,-44.04 1173.03,-49.22 1174.24,-42.32"/>
</a>
</g>
</g>
<!-- Node6 -->
<g id="Node000006" class="node">
<title>Node6</title>
<g id="a_Node000006"><a xlink:title=" ">
<ellipse fill="#e0e0e0" stroke="#999999" cx="1391.97" cy="-25.81" rx="175.72" ry="25.81"/>
<text xml:space="preserve" text-anchor="start" x="1275.72" y="-28.66" font-family="Helvetica,sans-Serif" font-size="12.00">com.runehive.game.world.entity.mob.player.</text>
<text xml:space="preserve" text-anchor="middle" x="1391.97" y="-14.41" font-family="Helvetica,sans-Serif" font-size="12.00">Player</text>
</a>
</g>
</g>
<!-- Node1&#45;&gt;Node6 -->
<g id="edge5_Node000001_Node000006" class="edge">
<title>Node1&#45;&gt;Node6</title>
<g id="a_edge5_Node000001_Node000006"><a xlink:title=" ">
<path fill="none" stroke="#63b8ff" d="M1511.16,-89.03C1491.85,-78.95 1469.05,-67.05 1448.59,-56.37"/>
<polygon fill="#63b8ff" stroke="#63b8ff" points="1450.27,-53.3 1439.79,-51.77 1447.03,-59.5 1450.27,-53.3"/>
</a>
</g>
</g>
<!-- Node7 -->
<g id="Node000007" class="node">
<title>Node7</title>
<g id="a_Node000007"><a xlink:title=" ">
<ellipse fill="#e0e0e0" stroke="#999999" cx="1720.97" cy="-25.81" rx="135.41" ry="25.81"/>
<text xml:space="preserve" text-anchor="start" x="1633.22" y="-28.66" font-family="Helvetica,sans-Serif" font-size="12.00">com.runehive.game.world.object.</text>
<text xml:space="preserve" text-anchor="middle" x="1720.97" y="-14.41" font-family="Helvetica,sans-Serif" font-size="12.00">CustomGameObject</text>
</a>
</g>
</g>
<!-- Node1&#45;&gt;Node7 -->
<g id="edge6_Node000001_Node000007" class="edge">
<title>Node1&#45;&gt;Node7</title>
<g id="a_edge6_Node000001_Node000007"><a xlink:title=" ">
<path fill="none" stroke="#63b8ff" d="M1601.06,-89.03C1620.9,-78.74 1644.41,-66.54 1665.33,-55.68"/>
<polygon fill="#63b8ff" stroke="#63b8ff" points="1666.76,-58.88 1674.02,-51.17 1663.54,-52.67 1666.76,-58.88"/>
</a>
</g>
</g>
<!-- Node8 -->
<g id="Node000008" class="node">
<title>Node8</title>
<g id="a_Node000008"><a xlink:title=" ">
<ellipse fill="#e0e0e0" stroke="#999999" cx="2016.97" cy="-25.81" rx="142.31" ry="25.81"/>
<text xml:space="preserve" text-anchor="start" x="1924.35" y="-28.66" font-family="Helvetica,sans-Serif" font-size="12.00">com.runehive.game.world.position.</text>
<text xml:space="preserve" text-anchor="middle" x="2016.97" y="-14.41" font-family="Helvetica,sans-Serif" font-size="12.00">Position</text>
</a>
</g>
</g>
<!-- Node1&#45;&gt;Node8 -->
<g id="edge7_Node000001_Node000008" class="edge">
<title>Node1&#45;&gt;Node8</title>
<g id="a_edge7_Node000001_Node000008"><a xlink:title=" ">
<path fill="none" stroke="#63b8ff" d="M1645.95,-95.72C1721.03,-81.77 1828.27,-61.86 1908.16,-47.02"/>
<polygon fill="#63b8ff" stroke="#63b8ff" points="1908.57,-50.5 1917.76,-45.24 1907.29,-43.62 1908.57,-50.5"/>
</a>
</g>
</g>
<!-- Node9 -->
<g id="Node000009" class="node">
<title>Node9</title>
<g id="a_Node000009"><a xlink:title=" ">
<ellipse fill="#e0e0e0" stroke="#999999" cx="2313.97" cy="-25.81" rx="136.47" ry="25.81"/>
<text xml:space="preserve" text-anchor="start" x="2225.47" y="-28.66" font-family="Helvetica,sans-Serif" font-size="12.00">com.runehive.game.world.region.</text>
<text xml:space="preserve" text-anchor="middle" x="2313.97" y="-14.41" font-family="Helvetica,sans-Serif" font-size="12.00">Region</text>
</a>
</g>
</g>
<!-- Node1&#45;&gt;Node9 -->
<g id="edge8_Node000001_Node000009" class="edge">
<title>Node1&#45;&gt;Node9</title>
<g id="a_edge8_Node000001_Node000009"><a xlink:title=" ">
<path fill="none" stroke="#63b8ff" d="M1669.04,-103.55C1792.07,-93.35 1994.43,-74.96 2167.97,-51.62 2180.19,-49.98 2192.96,-48.08 2205.63,-46.08"/>
<polygon fill="#63b8ff" stroke="#63b8ff" points="2205.92,-49.58 2215.24,-44.54 2204.81,-42.66 2205.92,-49.58"/>
</a>
</g>
</g>
<!-- Node10 -->
<g id="Node000010" class="node">
<title>Node10</title>
<g id="a_Node000010"><a xlink:title=" ">
<ellipse fill="#e0e0e0" stroke="#999999" cx="2586.97" cy="-25.81" rx="118.97" ry="25.81"/>
<text xml:space="preserve" text-anchor="start" x="2510.85" y="-28.66" font-family="Helvetica,sans-Serif" font-size="12.00">com.runehive.net.packet.out.</text>
<text xml:space="preserve" text-anchor="middle" x="2586.97" y="-14.41" font-family="Helvetica,sans-Serif" font-size="12.00">SendAddObject</text>
</a>
</g>
</g>
<!-- Node1&#45;&gt;Node10 -->
<g id="edge9_Node000001_Node000010" class="edge">
<title>Node1&#45;&gt;Node10</title>
<g id="a_edge9_Node000001_Node000010"><a xlink:title=" ">
<path fill="none" stroke="#63b8ff" d="M1676.21,-109.08C1849.71,-103.17 2180.07,-87.9 2458.97,-51.62 2469.83,-50.21 2481.16,-48.44 2492.38,-46.51"/>
<polygon fill="#63b8ff" stroke="#63b8ff" points="2492.83,-49.98 2502.07,-44.79 2491.61,-43.09 2492.83,-49.98"/>
</a>
</g>
</g>
<!-- Node11 -->
<g id="Node000011" class="node">
<title>Node11</title>
<g id="a_Node000011"><a xlink:title=" ">
<ellipse fill="#e0e0e0" stroke="#999999" cx="2842.97" cy="-25.81" rx="118.97" ry="25.81"/>
<text xml:space="preserve" text-anchor="start" x="2766.85" y="-28.66" font-family="Helvetica,sans-Serif" font-size="12.00">com.runehive.net.packet.out.</text>
<text xml:space="preserve" text-anchor="middle" x="2842.97" y="-14.41" font-family="Helvetica,sans-Serif" font-size="12.00">SendRemoveObject</text>
</a>
</g>
</g>
<!-- Node1&#45;&gt;Node11 -->
<g id="edge10_Node000001_Node000011" class="edge">
<title>Node1&#45;&gt;Node11</title>
<g id="a_edge10_Node000001_Node000011"><a xlink:title=" ">
<path fill="none" stroke="#63b8ff" d="M1677.42,-111.6C1888.98,-108.92 2338.48,-97.76 2714.97,-51.62 2725.93,-50.28 2737.35,-48.55 2748.67,-46.62"/>
<polygon fill="#63b8ff" stroke="#63b8ff" points="2749.19,-50.08 2758.44,-44.91 2747.98,-43.19 2749.19,-50.08"/>
</a>
</g>
</g>
</g>
</svg>

<g id="navigator" transform="translate(0 0)" fill="#404254">
  <rect fill="#f2f5e9" fill-opacity="0.5" stroke="#606060" stroke-width=".5" x="0" y="0" width="60" height="60"/>
  <use id="zoomplus" xlink:href="#zoomPlus" x="17" y="9" onmousedown="handleZoom(evt,'in')"/>
  <use id="zoomminus" xlink:href="#zoomMin" x="42" y="9" onmousedown="handleZoom(evt,'out')"/>
  <use id="reset" xlink:href="#resetDef" x="30" y="36" onmousedown="handleReset()"/>
   <use id="arrowup" xlink:href="#arrowUp" x="0" y="0" onmousedown="handlePan(0,-1)"/>
  <use id="arrowright" xlink:href="#arrowRight" x="0" y="0" onmousedown="handlePan(1,0)"/>
  <use id="arrowdown" xlink:href="#arrowDown" x="0" y="0" onmousedown="handlePan(0,1)"/>
  <use id="arrowleft" xlink:href="#arrowLeft" x="0" y="0" onmousedown="handlePan(-1,0)"/>
</g>
<svg viewBox="0 0 15 15" width="100%" height="30px" preserveAspectRatio="xMaxYMin meet">
 <g id="arrow_out" transform="scale(0.3 0.3)">
  <a xlink:href="_cannon_8java__incl_org.svg" target="_base">
   <rect id="button" ry="5" rx="5" y="6" x="6" height="38" width="38"
        fill="#f2f5e9" fill-opacity="0.5" stroke="#606060" stroke-width="1.0"/>
   <path id="arrow"
     d="M 11.500037,31.436501 C 11.940474,20.09759 22.043105,11.32322 32.158766,21.979434 L 37.068811,17.246167 C 37.068811,17.246167 37.088388,32 37.088388,32 L 22.160133,31.978069 C 22.160133,31.978069 26.997745,27.140456 26.997745,27.140456 C 18.528582,18.264221 13.291696,25.230495 11.500037,31.436501 z"
     style="fill:#404040;"/>
  </a>
 </g>
</svg>

<style type='text/css'>
<![CDATA[
[data-mouse-over-selected='false'] { opacity: 0.7; }
[data-mouse-over-selected='true']  { opacity: 1.0; }
]]>
</style>
<script type="application/ecmascript"><![CDATA[
document.addEventListener('DOMContentLoaded', (event) => {
  highlightEdges();
  highlightAdjacentNodes();
});
]]></script>
</svg>
