<?xml version="1.0" encoding="UTF-8" standalone="no"?>
<!DOCTYPE svg PUBLIC "-//W3C//DTD SVG 1.1//EN"
 "http://www.w3.org/Graphics/SVG/1.1/DTD/svg11.dtd">
<!-- Generated by graphviz version 14.0.1 (20251006.0113)
 -->
<!-- Title: java/com/runehive/game/task/impl/ChopVineTask.java Pages: 1 -->
<svg width="2860pt" height="147pt"
 viewBox="0.00 0.00 2860.00 147.00" xmlns="http://www.w3.org/2000/svg" xmlns:xlink="http://www.w3.org/1999/xlink">
<g id="graph0" class="graph" transform="scale(1 1) rotate(0) translate(4 143.24)">
<title>java/com/runehive/game/task/impl/ChopVineTask.java</title>
<!-- Node1 -->
<g id="Node000001" class="node">
<title>Node1</title>
<g id="a_Node000001"><a xlink:title=" ">
<ellipse fill="#999999" stroke="#666666" cx="1475.78" cy="-113.43" rx="122.15" ry="25.81"/>
<text xml:space="preserve" text-anchor="start" x="1397.4" y="-116.28" font-family="Helvetica,sans-Serif" font-size="12.00">java/com/runehive/game</text>
<text xml:space="preserve" text-anchor="middle" x="1475.78" y="-102.03" font-family="Helvetica,sans-Serif" font-size="12.00">/task/impl/ChopVineTask.java</text>
</a>
</g>
</g>
<!-- Node2 -->
<g id="Node000002" class="node">
<title>Node2</title>
<g id="a_Node000002"><a xlink:title=" ">
<ellipse fill="#e0e0e0" stroke="#999999" cx="176.78" cy="-25.81" rx="176.78" ry="25.81"/>
<text xml:space="preserve" text-anchor="start" x="59.78" y="-28.66" font-family="Helvetica,sans-Serif" font-size="12.00">com.runehive.content.skill.impl.woodcutting.</text>
<text xml:space="preserve" text-anchor="middle" x="176.78" y="-14.41" font-family="Helvetica,sans-Serif" font-size="12.00">AxeData</text>
</a>
</g>
</g>
<!-- Node1&#45;&gt;Node2 -->
<g id="edge1_Node000001_Node000002" class="edge">
<title>Node1&#45;&gt;Node2</title>
<g id="a_edge1_Node000001_Node000002"><a xlink:title=" ">
<path fill="none" stroke="#63b8ff" d="M1355.32,-108.93C1150.88,-102.3 723.07,-85.44 362.78,-51.62 346.15,-50.06 328.72,-48.13 311.48,-46.04"/>
<polygon fill="#63b8ff" stroke="#63b8ff" points="312.04,-42.58 301.69,-44.83 311.18,-49.53 312.04,-42.58"/>
</a>
</g>
</g>
<!-- Node3 -->
<g id="Node000003" class="node">
<title>Node3</title>
<g id="a_Node000003"><a xlink:title=" ">
<ellipse fill="#e0e0e0" stroke="#999999" cx="497.78" cy="-25.81" rx="125.87" ry="15.73"/>
<text xml:space="preserve" text-anchor="middle" x="497.78" y="-21.53" font-family="Helvetica,sans-Serif" font-size="12.00">com.runehive.game.Animation</text>
</a>
</g>
</g>
<!-- Node1&#45;&gt;Node3 -->
<g id="edge2_Node000001_Node000003" class="edge">
<title>Node1&#45;&gt;Node3</title>
<g id="a_edge2_Node000001_Node000003"><a xlink:title=" ">
<path fill="none" stroke="#63b8ff" d="M1356.01,-107.93C1192.2,-100.83 889.32,-84.34 632.78,-51.62 612.92,-49.09 591.57,-45.55 571.83,-41.93"/>
<polygon fill="#63b8ff" stroke="#63b8ff" points="572.7,-38.53 562.23,-40.14 571.41,-45.41 572.7,-38.53"/>
</a>
</g>
</g>
<!-- Node4 -->
<g id="Node000004" class="node">
<title>Node4</title>
<g id="a_Node000004"><a xlink:title=" ">
<ellipse fill="#e0e0e0" stroke="#999999" cx="756.78" cy="-25.81" rx="115.26" ry="25.81"/>
<text xml:space="preserve" text-anchor="start" x="683.28" y="-28.66" font-family="Helvetica,sans-Serif" font-size="12.00">com.runehive.game.Update</text>
<text xml:space="preserve" text-anchor="middle" x="756.78" y="-14.41" font-family="Helvetica,sans-Serif" font-size="12.00">Priority</text>
</a>
</g>
</g>
<!-- Node1&#45;&gt;Node4 -->
<g id="edge3_Node000001_Node000004" class="edge">
<title>Node1&#45;&gt;Node4</title>
<g id="a_edge3_Node000001_Node000004"><a xlink:title=" ">
<path fill="none" stroke="#63b8ff" d="M1361.3,-104C1241.2,-94.39 1047.11,-76.7 880.78,-51.62 870.73,-50.1 860.27,-48.33 849.87,-46.43"/>
<polygon fill="#63b8ff" stroke="#63b8ff" points="850.58,-43 840.11,-44.61 849.3,-49.89 850.58,-43"/>
</a>
</g>
</g>
<!-- Node5 -->
<g id="Node000005" class="node">
<title>Node5</title>
<g id="a_Node000005"><a xlink:title=" ">
<ellipse fill="#e0e0e0" stroke="#999999" cx="1012.78" cy="-25.81" rx="122.68" ry="15.73"/>
<text xml:space="preserve" text-anchor="middle" x="1012.78" y="-21.53" font-family="Helvetica,sans-Serif" font-size="12.00">com.runehive.game.task.Task</text>
</a>
</g>
</g>
<!-- Node1&#45;&gt;Node5 -->
<g id="edge4_Node000001_Node000005" class="edge">
<title>Node1&#45;&gt;Node5</title>
<g id="a_edge4_Node000001_Node000005"><a xlink:title=" ">
<path fill="none" stroke="#63b8ff" d="M1384.51,-95.86C1317.8,-83.72 1225.15,-66.78 1143.78,-51.62 1126.43,-48.39 1107.79,-44.88 1090.18,-41.55"/>
<polygon fill="#63b8ff" stroke="#63b8ff" points="1091.03,-38.15 1080.56,-39.73 1089.73,-45.03 1091.03,-38.15"/>
</a>
</g>
</g>
<!-- Node6 -->
<g id="Node000006" class="node">
<title>Node6</title>
<g id="a_Node000006"><a xlink:title=" ">
<ellipse fill="#e0e0e0" stroke="#999999" cx="1303.78" cy="-25.81" rx="150.79" ry="25.81"/>
<text xml:space="preserve" text-anchor="start" x="1205.15" y="-28.66" font-family="Helvetica,sans-Serif" font-size="12.00">com.runehive.game.world.entity.mob.</text>
<text xml:space="preserve" text-anchor="middle" x="1303.78" y="-14.41" font-family="Helvetica,sans-Serif" font-size="12.00">Direction</text>
</a>
</g>
</g>
<!-- Node1&#45;&gt;Node6 -->
<g id="edge5_Node000001_Node000006" class="edge">
<title>Node1&#45;&gt;Node6</title>
<g id="a_edge5_Node000001_Node000006"><a xlink:title=" ">
<path fill="none" stroke="#63b8ff" d="M1429.23,-89.26C1408.53,-78.95 1383.94,-66.71 1362.04,-55.81"/>
<polygon fill="#63b8ff" stroke="#63b8ff" points="1363.73,-52.74 1353.21,-51.42 1360.61,-59.01 1363.73,-52.74"/>
</a>
</g>
</g>
<!-- Node7 -->
<g id="Node000007" class="node">
<title>Node7</title>
<g id="a_Node000007"><a xlink:title=" ">
<ellipse fill="#e0e0e0" stroke="#999999" cx="1648.78" cy="-25.81" rx="175.72" ry="25.81"/>
<text xml:space="preserve" text-anchor="start" x="1532.53" y="-28.66" font-family="Helvetica,sans-Serif" font-size="12.00">com.runehive.game.world.entity.mob.player.</text>
<text xml:space="preserve" text-anchor="middle" x="1648.78" y="-14.41" font-family="Helvetica,sans-Serif" font-size="12.00">Player</text>
</a>
</g>
</g>
<!-- Node1&#45;&gt;Node7 -->
<g id="edge6_Node000001_Node000007" class="edge">
<title>Node1&#45;&gt;Node7</title>
<g id="a_edge6_Node000001_Node000007"><a xlink:title=" ">
<path fill="none" stroke="#63b8ff" d="M1522.59,-89.26C1543.24,-79.04 1567.74,-66.92 1589.63,-56.08"/>
<polygon fill="#63b8ff" stroke="#63b8ff" points="1591.04,-59.29 1598.45,-51.72 1587.94,-53.01 1591.04,-59.29"/>
</a>
</g>
</g>
<!-- Node8 -->
<g id="Node000008" class="node">
<title>Node8</title>
<g id="a_Node000008"><a xlink:title=" ">
<ellipse fill="#e0e0e0" stroke="#999999" cx="1991.78" cy="-25.81" rx="149.2" ry="25.81"/>
<text xml:space="preserve" text-anchor="start" x="1894.28" y="-28.66" font-family="Helvetica,sans-Serif" font-size="12.00">com.runehive.game.world.entity.skill.</text>
<text xml:space="preserve" text-anchor="middle" x="1991.78" y="-14.41" font-family="Helvetica,sans-Serif" font-size="12.00">Skill</text>
</a>
</g>
</g>
<!-- Node1&#45;&gt;Node8 -->
<g id="edge7_Node000001_Node000008" class="edge">
<title>Node1&#45;&gt;Node8</title>
<g id="a_edge7_Node000001_Node000008"><a xlink:title=" ">
<path fill="none" stroke="#63b8ff" d="M1570.42,-96.72C1656.16,-82.5 1782.8,-61.48 1874.85,-46.21"/>
<polygon fill="#63b8ff" stroke="#63b8ff" points="1875.39,-49.67 1884.69,-44.58 1874.25,-42.76 1875.39,-49.67"/>
</a>
</g>
</g>
<!-- Node9 -->
<g id="Node000009" class="node">
<title>Node9</title>
<g id="a_Node000009"><a xlink:title=" ">
<ellipse fill="#e0e0e0" stroke="#999999" cx="2294.78" cy="-25.81" rx="135.41" ry="25.81"/>
<text xml:space="preserve" text-anchor="start" x="2207.03" y="-28.66" font-family="Helvetica,sans-Serif" font-size="12.00">com.runehive.game.world.object.</text>
<text xml:space="preserve" text-anchor="middle" x="2294.78" y="-14.41" font-family="Helvetica,sans-Serif" font-size="12.00">GameObject</text>
</a>
</g>
</g>
<!-- Node1&#45;&gt;Node9 -->
<g id="edge8_Node000001_Node000009" class="edge">
<title>Node1&#45;&gt;Node9</title>
<g id="a_edge8_Node000001_Node000009"><a xlink:title=" ">
<path fill="none" stroke="#63b8ff" d="M1591.47,-104.8C1725.97,-95.28 1954.49,-77.09 2149.78,-51.62 2162.02,-50.02 2174.81,-48.14 2187.5,-46.15"/>
<polygon fill="#63b8ff" stroke="#63b8ff" points="2187.8,-49.64 2197.12,-44.61 2186.69,-42.73 2187.8,-49.64"/>
</a>
</g>
</g>
<!-- Node10 -->
<g id="Node000010" class="node">
<title>Node10</title>
<g id="a_Node000010"><a xlink:title=" ">
<ellipse fill="#e0e0e0" stroke="#999999" cx="2566.78" cy="-25.81" rx="118.97" ry="25.81"/>
<text xml:space="preserve" text-anchor="start" x="2490.65" y="-28.66" font-family="Helvetica,sans-Serif" font-size="12.00">com.runehive.net.packet.out.</text>
<text xml:space="preserve" text-anchor="middle" x="2566.78" y="-14.41" font-family="Helvetica,sans-Serif" font-size="12.00">SendMessage</text>
</a>
</g>
</g>
<!-- Node1&#45;&gt;Node10 -->
<g id="edge9_Node000001_Node000010" class="edge">
<title>Node1&#45;&gt;Node10</title>
<g id="a_edge9_Node000001_Node000010"><a xlink:title=" ">
<path fill="none" stroke="#63b8ff" d="M1597.11,-109.76C1780.17,-104.6 2137.6,-90.15 2438.78,-51.62 2449.64,-50.23 2460.97,-48.48 2472.19,-46.55"/>
<polygon fill="#63b8ff" stroke="#63b8ff" points="2472.64,-50.03 2481.88,-44.84 2471.42,-43.14 2472.64,-50.03"/>
</a>
</g>
</g>
<!-- Node11 -->
<g id="Node000011" class="node">
<title>Node11</title>
<g id="a_Node000011"><a xlink:title=" ">
<ellipse fill="#e0e0e0" stroke="#999999" cx="2777.78" cy="-25.81" rx="74.42" ry="15.73"/>
<text xml:space="preserve" text-anchor="middle" x="2777.78" y="-21.53" font-family="Helvetica,sans-Serif" font-size="12.00">java.util.Optional</text>
</a>
</g>
</g>
<!-- Node1&#45;&gt;Node11 -->
<g id="edge10_Node000001_Node000011" class="edge">
<title>Node1&#45;&gt;Node11</title>
<g id="a_edge10_Node000001_Node000011"><a xlink:title=" ">
<path fill="none" stroke="#63b8ff" d="M1597.26,-110.08C1862.52,-104.35 2486.46,-87.41 2694.78,-51.62 2706.46,-49.61 2718.81,-46.49 2730.32,-43.13"/>
<polygon fill="#63b8ff" stroke="#63b8ff" points="2731.05,-46.56 2739.6,-40.3 2729.01,-39.87 2731.05,-46.56"/>
</a>
</g>
</g>
</g>
</svg>
