<?xml version="1.0" encoding="UTF-8" standalone="no"?>
<!DOCTYPE svg PUBLIC "-//W3C//DTD SVG 1.1//EN"
 "http://www.w3.org/Graphics/SVG/1.1/DTD/svg11.dtd">
<!-- Generated by graphviz version 14.0.1 (20251006.0113)
 -->
<!-- Title: java/com/runehive/content/clanchannel/content/ClanTask.java Pages: 1 -->
<svg width="2013pt" height="147pt"
 viewBox="0.00 0.00 2013.00 147.00" xmlns="http://www.w3.org/2000/svg" xmlns:xlink="http://www.w3.org/1999/xlink">
<g id="graph0" class="graph" transform="scale(1 1) rotate(0) translate(4 143.24)">
<title>java/com/runehive/content/clanchannel/content/ClanTask.java</title>
<!-- Node1 -->
<g id="Node000001" class="node">
<title>Node1</title>
<g id="a_Node000001"><a xlink:title=" ">
<ellipse fill="#999999" stroke="#666666" cx="1133.31" cy="-113.43" rx="144.96" ry="25.81"/>
<text xml:space="preserve" text-anchor="start" x="1038.81" y="-116.28" font-family="Helvetica,sans-Serif" font-size="12.00">java/com/runehive/content</text>
<text xml:space="preserve" text-anchor="middle" x="1133.31" y="-102.03" font-family="Helvetica,sans-Serif" font-size="12.00">/clanchannel/content/ClanTask.java</text>
</a>
</g>
</g>
<!-- Node2 -->
<g id="Node000002" class="node">
<title>Node2</title>
<g id="a_Node000002"><a xlink:title=" ">
<ellipse fill="#e0e0e0" stroke="#999999" cx="142.31" cy="-25.81" rx="142.31" ry="25.81"/>
<text xml:space="preserve" text-anchor="start" x="49.68" y="-28.66" font-family="Helvetica,sans-Serif" font-size="12.00">com.runehive.content.clanchannel.</text>
<text xml:space="preserve" text-anchor="middle" x="142.31" y="-14.41" font-family="Helvetica,sans-Serif" font-size="12.00">ClanType</text>
</a>
</g>
</g>
<!-- Node1&#45;&gt;Node2 -->
<g id="edge1_Node000001_Node000002" class="edge">
<title>Node1&#45;&gt;Node2</title>
<g id="a_edge1_Node000001_Node000002"><a xlink:title=" ">
<path fill="none" stroke="#63b8ff" d="M993.6,-106.19C826.6,-97.84 538.88,-80.62 293.31,-51.62 280.42,-50.1 266.96,-48.25 253.61,-46.27"/>
<polygon fill="#63b8ff" stroke="#63b8ff" points="254.35,-42.84 243.93,-44.79 253.29,-49.76 254.35,-42.84"/>
</a>
</g>
</g>
<!-- Node3 -->
<g id="Node000003" class="node">
<title>Node3</title>
<g id="a_Node000003"><a xlink:title=" ">
<ellipse fill="#e0e0e0" stroke="#999999" cx="477.31" cy="-25.81" rx="174.66" ry="25.81"/>
<text xml:space="preserve" text-anchor="start" x="361.81" y="-28.66" font-family="Helvetica,sans-Serif" font-size="12.00">com.runehive.content.clanchannel.channel.</text>
<text xml:space="preserve" text-anchor="middle" x="477.31" y="-14.41" font-family="Helvetica,sans-Serif" font-size="12.00">ClanChannel</text>
</a>
</g>
</g>
<!-- Node1&#45;&gt;Node3 -->
<g id="edge2_Node000001_Node000003" class="edge">
<title>Node1&#45;&gt;Node3</title>
<g id="a_edge2_Node000001_Node000003"><a xlink:title=" ">
<path fill="none" stroke="#63b8ff" d="M1017.38,-97.69C921.82,-85.49 782.74,-67.63 661.31,-51.62 646.26,-49.64 630.53,-47.54 614.87,-45.45"/>
<polygon fill="#63b8ff" stroke="#63b8ff" points="615.37,-41.98 604.99,-44.12 614.44,-48.92 615.37,-41.98"/>
</a>
</g>
</g>
<!-- Node4 -->
<g id="Node000004" class="node">
<title>Node4</title>
<g id="a_Node000004"><a xlink:title=" ">
<ellipse fill="#e0e0e0" stroke="#999999" cx="780.31" cy="-25.81" rx="109.96" ry="15.73"/>
<text xml:space="preserve" text-anchor="middle" x="780.31" y="-21.53" font-family="Helvetica,sans-Serif" font-size="12.00">com.runehive.util.Difficulty</text>
</a>
</g>
</g>
<!-- Node1&#45;&gt;Node4 -->
<g id="edge3_Node000001_Node000004" class="edge">
<title>Node1&#45;&gt;Node4</title>
<g id="a_edge3_Node000001_Node000004"><a xlink:title=" ">
<path fill="none" stroke="#63b8ff" d="M1049.2,-92.03C986.78,-76.89 902.89,-56.54 845.51,-42.62"/>
<polygon fill="#63b8ff" stroke="#63b8ff" points="846.41,-39.24 835.87,-40.29 844.76,-46.05 846.41,-39.24"/>
</a>
</g>
</g>
<!-- Node5 -->
<g id="Node000005" class="node">
<title>Node5</title>
<g id="a_Node000005"><a xlink:title=" ">
<ellipse fill="#e0e0e0" stroke="#999999" cx="1019.31" cy="-25.81" rx="111.02" ry="25.81"/>
<text xml:space="preserve" text-anchor="start" x="948.81" y="-28.66" font-family="Helvetica,sans-Serif" font-size="12.00">com.runehive.util.Inclusive</text>
<text xml:space="preserve" text-anchor="middle" x="1019.31" y="-14.41" font-family="Helvetica,sans-Serif" font-size="12.00">Random</text>
</a>
</g>
</g>
<!-- Node1&#45;&gt;Node5 -->
<g id="edge4_Node000001_Node000005" class="edge">
<title>Node1&#45;&gt;Node5</title>
<g id="a_edge4_Node000001_Node000005"><a xlink:title=" ">
<path fill="none" stroke="#63b8ff" d="M1100.64,-87.89C1088.02,-78.42 1073.45,-67.47 1060.15,-57.49"/>
<polygon fill="#63b8ff" stroke="#63b8ff" points="1062.5,-54.87 1052.4,-51.67 1058.3,-60.47 1062.5,-54.87"/>
</a>
</g>
</g>
<!-- Node6 -->
<g id="Node000006" class="node">
<title>Node6</title>
<g id="a_Node000006"><a xlink:title=" ">
<ellipse fill="#e0e0e0" stroke="#999999" cx="1247.31" cy="-25.81" rx="98.82" ry="15.73"/>
<text xml:space="preserve" text-anchor="middle" x="1247.31" y="-21.53" font-family="Helvetica,sans-Serif" font-size="12.00">com.runehive.util.Utility</text>
</a>
</g>
</g>
<!-- Node1&#45;&gt;Node6 -->
<g id="edge5_Node000001_Node000006" class="edge">
<title>Node1&#45;&gt;Node6</title>
<g id="a_edge5_Node000001_Node000006"><a xlink:title=" ">
<path fill="none" stroke="#63b8ff" d="M1165.97,-87.89C1182.58,-75.42 1202.59,-60.39 1218.6,-48.37"/>
<polygon fill="#63b8ff" stroke="#63b8ff" points="1220.41,-51.39 1226.3,-42.59 1216.2,-45.79 1220.41,-51.39"/>
</a>
</g>
</g>
<!-- Node7 -->
<g id="Node000007" class="node">
<title>Node7</title>
<g id="a_Node000007"><a xlink:title=" ">
<ellipse fill="#e0e0e0" stroke="#999999" cx="1439.31" cy="-25.81" rx="75.48" ry="15.73"/>
<text xml:space="preserve" text-anchor="middle" x="1439.31" y="-21.53" font-family="Helvetica,sans-Serif" font-size="12.00">java.util.HashSet</text>
</a>
</g>
</g>
<!-- Node1&#45;&gt;Node7 -->
<g id="edge6_Node000001_Node000007" class="edge">
<title>Node1&#45;&gt;Node7</title>
<g id="a_edge6_Node000001_Node000007"><a xlink:title=" ">
<path fill="none" stroke="#63b8ff" d="M1211.75,-91.35C1254.29,-79.81 1307.74,-65.16 1355.31,-51.62 1365.4,-48.75 1376.16,-45.62 1386.49,-42.58"/>
<polygon fill="#63b8ff" stroke="#63b8ff" points="1387.43,-45.95 1396.03,-39.77 1385.45,-39.24 1387.43,-45.95"/>
</a>
</g>
</g>
<!-- Node8 -->
<g id="Node000008" class="node">
<title>Node8</title>
<g id="a_Node000008"><a xlink:title=" ">
<ellipse fill="#e0e0e0" stroke="#999999" cx="1588.31" cy="-25.81" rx="55.33" ry="15.73"/>
<text xml:space="preserve" text-anchor="middle" x="1588.31" y="-21.53" font-family="Helvetica,sans-Serif" font-size="12.00">java.util.Set</text>
</a>
</g>
</g>
<!-- Node1&#45;&gt;Node8 -->
<g id="edge7_Node000001_Node000008" class="edge">
<title>Node1&#45;&gt;Node8</title>
<g id="a_edge7_Node000001_Node000008"><a xlink:title=" ">
<path fill="none" stroke="#63b8ff" d="M1257.63,-99.79C1334.93,-90.28 1435.88,-74.84 1523.31,-51.62 1531.49,-49.44 1540.07,-46.6 1548.21,-43.61"/>
<polygon fill="#63b8ff" stroke="#63b8ff" points="1549.46,-46.89 1557.55,-40.05 1546.96,-40.35 1549.46,-46.89"/>
</a>
</g>
</g>
<!-- Node9 -->
<g id="Node000009" class="node">
<title>Node9</title>
<g id="a_Node000009"><a xlink:title=" ">
<ellipse fill="#e0e0e0" stroke="#999999" cx="1833.31" cy="-25.81" rx="172" ry="25.81"/>
<text xml:space="preserve" text-anchor="start" x="1719.68" y="-28.66" font-family="Helvetica,sans-Serif" font-size="12.00">com.runehive.content.clanchannel.content.</text>
<text xml:space="preserve" text-anchor="middle" x="1833.31" y="-14.41" font-family="Helvetica,sans-Serif" font-size="12.00">ClanTaskKey.*</text>
</a>
</g>
</g>
<!-- Node1&#45;&gt;Node9 -->
<g id="edge8_Node000001_Node000009" class="edge">
<title>Node1&#45;&gt;Node9</title>
<g id="a_edge8_Node000001_Node000009"><a xlink:title=" ">
<path fill="none" stroke="#63b8ff" d="M1254.51,-98.91C1359.74,-87 1516.19,-68.92 1652.31,-51.62 1667.24,-49.72 1682.87,-47.67 1698.41,-45.6"/>
<polygon fill="#63b8ff" stroke="#63b8ff" points="1698.75,-49.08 1708.2,-44.28 1697.82,-42.14 1698.75,-49.08"/>
</a>
</g>
</g>
</g>
</svg>
