<?xml version="1.0" encoding="UTF-8" standalone="no"?>
<!DOCTYPE svg PUBLIC "-//W3C//DTD SVG 1.1//EN"
 "http://www.w3.org/Graphics/SVG/1.1/DTD/svg11.dtd">
<!-- Generated by graphviz version 14.0.1 (20251006.0113)
 -->
<!-- Title: java/com/runehive/content/clanchannel/ClanMember.java Pages: 1 -->
<svg width="1748pt" height="147pt"
 viewBox="0.00 0.00 1748.00 147.00" xmlns="http://www.w3.org/2000/svg" xmlns:xlink="http://www.w3.org/1999/xlink">
<g id="graph0" class="graph" transform="scale(1 1) rotate(0) translate(4 143.24)">
<title>java/com/runehive/content/clanchannel/ClanMember.java</title>
<!-- Node1 -->
<g id="Node000001" class="node">
<title>Node1</title>
<g id="a_Node000001"><a xlink:title=" ">
<ellipse fill="#999999" stroke="#666666" cx="1119.66" cy="-113.43" rx="127.99" ry="25.81"/>
<text xml:space="preserve" text-anchor="start" x="1037.16" y="-116.28" font-family="Helvetica,sans-Serif" font-size="12.00">java/com/runehive/content</text>
<text xml:space="preserve" text-anchor="middle" x="1119.66" y="-102.03" font-family="Helvetica,sans-Serif" font-size="12.00">/clanchannel/ClanMember.java</text>
</a>
</g>
</g>
<!-- Node2 -->
<g id="Node000002" class="node">
<title>Node2</title>
<g id="a_Node000002"><a xlink:title=" ">
<ellipse fill="#e0e0e0" stroke="#999999" cx="174.66" cy="-25.81" rx="174.66" ry="25.81"/>
<text xml:space="preserve" text-anchor="start" x="59.16" y="-28.66" font-family="Helvetica,sans-Serif" font-size="12.00">com.runehive.content.clanchannel.channel.</text>
<text xml:space="preserve" text-anchor="middle" x="174.66" y="-14.41" font-family="Helvetica,sans-Serif" font-size="12.00">ClanChannel</text>
</a>
</g>
</g>
<!-- Node1&#45;&gt;Node2 -->
<g id="edge1_Node000001_Node000002" class="edge">
<title>Node1&#45;&gt;Node2</title>
<g id="a_edge1_Node000001_Node000002"><a xlink:title=" ">
<path fill="none" stroke="#63b8ff" d="M998.38,-104.82C847.87,-94.9 583.46,-75.92 357.66,-51.62 341.86,-49.92 325.32,-47.95 308.91,-45.87"/>
<polygon fill="#63b8ff" stroke="#63b8ff" points="309.45,-42.41 299.09,-44.61 308.56,-49.36 309.45,-42.41"/>
</a>
</g>
</g>
<!-- Node3 -->
<g id="Node000003" class="node">
<title>Node3</title>
<g id="a_Node000003"><a xlink:title=" ">
<ellipse fill="#e0e0e0" stroke="#999999" cx="542.66" cy="-25.81" rx="175.72" ry="25.81"/>
<text xml:space="preserve" text-anchor="start" x="426.41" y="-28.66" font-family="Helvetica,sans-Serif" font-size="12.00">com.runehive.game.world.entity.mob.player.</text>
<text xml:space="preserve" text-anchor="middle" x="542.66" y="-14.41" font-family="Helvetica,sans-Serif" font-size="12.00">Player</text>
</a>
</g>
</g>
<!-- Node1&#45;&gt;Node3 -->
<g id="edge2_Node000001_Node000003" class="edge">
<title>Node1&#45;&gt;Node3</title>
<g id="a_edge2_Node000001_Node000003"><a xlink:title=" ">
<path fill="none" stroke="#63b8ff" d="M1018.16,-97.37C922.84,-83.22 779.68,-61.98 675.35,-46.5"/>
<polygon fill="#63b8ff" stroke="#63b8ff" points="676,-43.06 665.6,-45.05 674.98,-49.98 676,-43.06"/>
</a>
</g>
</g>
<!-- Node4 -->
<g id="Node000004" class="node">
<title>Node4</title>
<g id="a_Node000004"><a xlink:title=" ">
<ellipse fill="#e0e0e0" stroke="#999999" cx="946.66" cy="-25.81" rx="210.19" ry="25.81"/>
<text xml:space="preserve" text-anchor="start" x="806.03" y="-28.66" font-family="Helvetica,sans-Serif" font-size="12.00">com.runehive.game.world.entity.mob.player.relations.</text>
<text xml:space="preserve" text-anchor="middle" x="946.66" y="-14.41" font-family="Helvetica,sans-Serif" font-size="12.00">PrivacyChatMode</text>
</a>
</g>
</g>
<!-- Node1&#45;&gt;Node4 -->
<g id="edge3_Node000001_Node000004" class="edge">
<title>Node1&#45;&gt;Node4</title>
<g id="a_edge3_Node000001_Node000004"><a xlink:title=" ">
<path fill="none" stroke="#63b8ff" d="M1072.38,-89.03C1052,-78.95 1027.93,-67.03 1006.34,-56.35"/>
<polygon fill="#63b8ff" stroke="#63b8ff" points="1008.16,-53.34 997.64,-52.04 1005.05,-59.62 1008.16,-53.34"/>
</a>
</g>
</g>
<!-- Node5 -->
<g id="Node000005" class="node">
<title>Node5</title>
<g id="a_Node000005"><a xlink:title=" ">
<ellipse fill="#e0e0e0" stroke="#999999" cx="1293.66" cy="-25.81" rx="118.97" ry="25.81"/>
<text xml:space="preserve" text-anchor="start" x="1217.53" y="-28.66" font-family="Helvetica,sans-Serif" font-size="12.00">com.runehive.net.packet.out.</text>
<text xml:space="preserve" text-anchor="middle" x="1293.66" y="-14.41" font-family="Helvetica,sans-Serif" font-size="12.00">SendClanDetails</text>
</a>
</g>
</g>
<!-- Node1&#45;&gt;Node5 -->
<g id="edge4_Node000001_Node000005" class="edge">
<title>Node1&#45;&gt;Node5</title>
<g id="a_edge4_Node000001_Node000005"><a xlink:title=" ">
<path fill="none" stroke="#63b8ff" d="M1167.2,-89.03C1188.67,-78.47 1214.2,-65.91 1236.68,-54.85"/>
<polygon fill="#63b8ff" stroke="#63b8ff" points="1237.98,-58.1 1245.41,-50.55 1234.89,-51.82 1237.98,-58.1"/>
</a>
</g>
</g>
<!-- Node6 -->
<g id="Node000006" class="node">
<title>Node6</title>
<g id="a_Node000006"><a xlink:title=" ">
<ellipse fill="#e0e0e0" stroke="#999999" cx="1501.66" cy="-25.81" rx="71.24" ry="15.73"/>
<text xml:space="preserve" text-anchor="middle" x="1501.66" y="-21.53" font-family="Helvetica,sans-Serif" font-size="12.00">java.util.Objects</text>
</a>
</g>
</g>
<!-- Node1&#45;&gt;Node6 -->
<g id="edge5_Node000001_Node000006" class="edge">
<title>Node1&#45;&gt;Node6</title>
<g id="a_edge5_Node000001_Node000006"><a xlink:title=" ">
<path fill="none" stroke="#63b8ff" d="M1214.75,-95.85C1274.5,-84.81 1352.99,-69.13 1421.66,-51.62 1431.8,-49.03 1442.56,-45.94 1452.79,-42.83"/>
<polygon fill="#63b8ff" stroke="#63b8ff" points="1453.67,-46.22 1462.18,-39.92 1451.6,-39.54 1453.67,-46.22"/>
</a>
</g>
</g>
<!-- Node7 -->
<g id="Node000007" class="node">
<title>Node7</title>
<g id="a_Node000007"><a xlink:title=" ">
<ellipse fill="#e0e0e0" stroke="#999999" cx="1665.66" cy="-25.81" rx="74.42" ry="15.73"/>
<text xml:space="preserve" text-anchor="middle" x="1665.66" y="-21.53" font-family="Helvetica,sans-Serif" font-size="12.00">java.util.Optional</text>
</a>
</g>
</g>
<!-- Node1&#45;&gt;Node7 -->
<g id="edge6_Node000001_Node000007" class="edge">
<title>Node1&#45;&gt;Node7</title>
<g id="a_edge6_Node000001_Node000007"><a xlink:title=" ">
<path fill="none" stroke="#63b8ff" d="M1235.85,-102.21C1329.8,-92.74 1465.12,-76.34 1581.66,-51.62 1592.92,-49.23 1604.88,-46.08 1616.13,-42.83"/>
<polygon fill="#63b8ff" stroke="#63b8ff" points="1617.05,-46.21 1625.64,-40.01 1615.05,-39.5 1617.05,-46.21"/>
</a>
</g>
</g>
</g>
</svg>
