<?xml version="1.0" encoding="UTF-8" standalone="no"?>
<!DOCTYPE svg PUBLIC "-//W3C//DTD SVG 1.1//EN"
 "http://www.w3.org/Graphics/SVG/1.1/DTD/svg11.dtd">
<!-- Generated by graphviz version 14.0.1 (20251006.0113)
 -->
<!-- Title: java/com/runehive/game/world/entity/mob/movement/waypoint/CombatWaypoint.java Pages: 1 -->
<svg width="1563pt" height="167pt"
 viewBox="0.00 0.00 1563.00 167.00" xmlns="http://www.w3.org/2000/svg" xmlns:xlink="http://www.w3.org/1999/xlink">
<g id="graph0" class="graph" transform="scale(1 1) rotate(0) translate(4 163.39)">
<title>java/com/runehive/game/world/entity/mob/movement/waypoint/CombatWaypoint.java</title>
<!-- Node1 -->
<g id="Node000001" class="node">
<title>Node1</title>
<g id="a_Node000001"><a xlink:title=" ">
<ellipse fill="#999999" stroke="#666666" cx="800.62" cy="-123.5" rx="132.76" ry="35.89"/>
<text xml:space="preserve" text-anchor="start" x="714.75" y="-133.48" font-family="Helvetica,sans-Serif" font-size="12.00">java/com/runehive/game</text>
<text xml:space="preserve" text-anchor="start" x="714.75" y="-119.23" font-family="Helvetica,sans-Serif" font-size="12.00">/world/entity/mob/movement</text>
<text xml:space="preserve" text-anchor="middle" x="800.62" y="-104.98" font-family="Helvetica,sans-Serif" font-size="12.00">/waypoint/CombatWaypoint.java</text>
</a>
</g>
</g>
<!-- Node2 -->
<g id="Node000002" class="node">
<title>Node2</title>
<g id="a_Node000002"><a xlink:title=" ">
<ellipse fill="#e0e0e0" stroke="#999999" cx="121.62" cy="-25.81" rx="121.62" ry="25.81"/>
<text xml:space="preserve" text-anchor="start" x="43.62" y="-28.66" font-family="Helvetica,sans-Serif" font-size="12.00">com.runehive.content.activity.</text>
<text xml:space="preserve" text-anchor="middle" x="121.62" y="-14.41" font-family="Helvetica,sans-Serif" font-size="12.00">Activity</text>
</a>
</g>
</g>
<!-- Node1&#45;&gt;Node2 -->
<g id="edge1_Node000001_Node000002" class="edge">
<title>Node1&#45;&gt;Node2</title>
<g id="a_edge1_Node000001_Node000002"><a xlink:title=" ">
<path fill="none" stroke="#63b8ff" d="M678.98,-108.84C567.74,-95.85 398.76,-74.89 252.62,-51.62 242.19,-49.96 231.31,-48.1 220.48,-46.17"/>
<polygon fill="#63b8ff" stroke="#63b8ff" points="221.18,-42.74 210.72,-44.4 219.94,-49.63 221.18,-42.74"/>
</a>
</g>
</g>
<!-- Node3 -->
<g id="Node000003" class="node">
<title>Node3</title>
<g id="a_Node000003"><a xlink:title=" ">
<ellipse fill="#e0e0e0" stroke="#999999" cx="428.62" cy="-25.81" rx="167.23" ry="25.81"/>
<text xml:space="preserve" text-anchor="start" x="318.37" y="-28.66" font-family="Helvetica,sans-Serif" font-size="12.00">com.runehive.content.activity.impl.kraken.</text>
<text xml:space="preserve" text-anchor="middle" x="428.62" y="-14.41" font-family="Helvetica,sans-Serif" font-size="12.00">KrakenActivity</text>
</a>
</g>
</g>
<!-- Node1&#45;&gt;Node3 -->
<g id="edge2_Node000001_Node000003" class="edge">
<title>Node1&#45;&gt;Node3</title>
<g id="a_edge2_Node000001_Node000003"><a xlink:title=" ">
<path fill="none" stroke="#63b8ff" d="M705.79,-98.11C649.99,-83.75 579.65,-65.66 523.79,-51.29"/>
<polygon fill="#63b8ff" stroke="#63b8ff" points="524.84,-47.95 514.28,-48.85 523.1,-54.73 524.84,-47.95"/>
</a>
</g>
</g>
<!-- Node4 -->
<g id="Node000004" class="node">
<title>Node4</title>
<g id="a_Node000004"><a xlink:title=" ">
<ellipse fill="#e0e0e0" stroke="#999999" cx="800.62" cy="-25.81" rx="186.32" ry="25.81"/>
<text xml:space="preserve" text-anchor="start" x="676.87" y="-28.66" font-family="Helvetica,sans-Serif" font-size="12.00">com.runehive.game.world.entity.combat.attack.</text>
<text xml:space="preserve" text-anchor="middle" x="800.62" y="-14.41" font-family="Helvetica,sans-Serif" font-size="12.00">FightType</text>
</a>
</g>
</g>
<!-- Node1&#45;&gt;Node4 -->
<g id="edge3_Node000001_Node000004" class="edge">
<title>Node1&#45;&gt;Node4</title>
<g id="a_edge3_Node000001_Node000004"><a xlink:title=" ">
<path fill="none" stroke="#63b8ff" d="M800.62,-87.14C800.62,-79.36 800.62,-71.11 800.62,-63.29"/>
<polygon fill="#63b8ff" stroke="#63b8ff" points="804.12,-63.38 800.62,-53.38 797.12,-63.38 804.12,-63.38"/>
</a>
</g>
</g>
<!-- Node5 -->
<g id="Node000005" class="node">
<title>Node5</title>
<g id="a_Node000005"><a xlink:title=" ">
<ellipse fill="#e0e0e0" stroke="#999999" cx="1172.62" cy="-25.81" rx="167.23" ry="15.73"/>
<text xml:space="preserve" text-anchor="middle" x="1172.62" y="-21.53" font-family="Helvetica,sans-Serif" font-size="12.00">com.runehive.game.world.entity.mob.Mob</text>
</a>
</g>
</g>
<!-- Node1&#45;&gt;Node5 -->
<g id="edge4_Node000001_Node000005" class="edge">
<title>Node1&#45;&gt;Node5</title>
<g id="a_edge4_Node000001_Node000005"><a xlink:title=" ">
<path fill="none" stroke="#63b8ff" d="M895.46,-98.11C961.38,-81.15 1047.61,-58.97 1106.26,-43.88"/>
<polygon fill="#63b8ff" stroke="#63b8ff" points="1106.97,-47.31 1115.78,-41.43 1105.22,-40.53 1106.97,-47.31"/>
</a>
</g>
</g>
<!-- Node6 -->
<g id="Node000006" class="node">
<title>Node6</title>
<g id="a_Node000006"><a xlink:title=" ">
<ellipse fill="#e0e0e0" stroke="#999999" cx="1456.62" cy="-25.81" rx="98.82" ry="15.73"/>
<text xml:space="preserve" text-anchor="middle" x="1456.62" y="-21.53" font-family="Helvetica,sans-Serif" font-size="12.00">com.runehive.util.Utility</text>
</a>
</g>
</g>
<!-- Node1&#45;&gt;Node6 -->
<g id="edge5_Node000001_Node000006" class="edge">
<title>Node1&#45;&gt;Node6</title>
<g id="a_edge5_Node000001_Node000006"><a xlink:title=" ">
<path fill="none" stroke="#63b8ff" d="M924.12,-110C1035.53,-97.89 1203.67,-77.58 1348.62,-51.62 1363.49,-48.96 1379.39,-45.59 1394.29,-42.21"/>
<polygon fill="#63b8ff" stroke="#63b8ff" points="1395.04,-45.63 1403.99,-39.97 1393.46,-38.81 1395.04,-45.63"/>
</a>
</g>
</g>
</g>
</svg>
