<?xml version="1.0" encoding="UTF-8" standalone="no"?>
<!DOCTYPE svg PUBLIC "-//W3C//DTD SVG 1.1//EN"
 "http://www.w3.org/Graphics/SVG/1.1/DTD/svg11.dtd">
<!-- Generated by graphviz version 14.0.1 (20251006.0113)
 -->
<!-- Title: java/com/runehive/game/world/entity/combat/strategy/CombatStrategy.java Pages: 1 -->
<svg width="5108pt" height="167pt"
 viewBox="0.00 0.00 5108.00 167.00" xmlns="http://www.w3.org/2000/svg" xmlns:xlink="http://www.w3.org/1999/xlink">
<g id="graph0" class="graph" transform="scale(1 1) rotate(0) translate(4 163.39)">
<title>java/com/runehive/game/world/entity/combat/strategy/CombatStrategy.java</title>
<!-- Node1 -->
<g id="Node000001" class="node">
<title>Node1</title>
<g id="a_Node000001"><a xlink:title=" ">
<ellipse fill="#999999" stroke="#666666" cx="2532.87" cy="-123.5" rx="117.91" ry="35.89"/>
<text xml:space="preserve" text-anchor="start" x="2457.49" y="-133.48" font-family="Helvetica,sans-Serif" font-size="12.00">java/com/runehive/game</text>
<text xml:space="preserve" text-anchor="start" x="2457.49" y="-119.23" font-family="Helvetica,sans-Serif" font-size="12.00">/world/entity/combat/strategy</text>
<text xml:space="preserve" text-anchor="middle" x="2532.87" y="-104.98" font-family="Helvetica,sans-Serif" font-size="12.00">/CombatStrategy.java</text>
</a>
</g>
</g>
<!-- Node2 -->
<g id="Node000002" class="node">
<title>Node2</title>
<g id="a_Node000002"><a xlink:title=" ">
<ellipse fill="#e0e0e0" stroke="#999999" cx="125.87" cy="-25.81" rx="125.87" ry="15.73"/>
<text xml:space="preserve" text-anchor="middle" x="125.87" y="-21.53" font-family="Helvetica,sans-Serif" font-size="12.00">com.runehive.game.Animation</text>
</a>
</g>
</g>
<!-- Node1&#45;&gt;Node2 -->
<g id="edge1_Node000001_Node000002" class="edge">
<title>Node1&#45;&gt;Node2</title>
<g id="a_edge1_Node000001_Node000002"><a xlink:title=" ">
<path fill="none" stroke="#63b8ff" d="M2414.83,-121.17C2010.77,-116.24 684.66,-96.91 260.87,-51.62 240.27,-49.42 218.1,-45.85 197.8,-42.1"/>
<polygon fill="#63b8ff" stroke="#63b8ff" points="198.7,-38.71 188.22,-40.29 197.4,-45.59 198.7,-38.71"/>
</a>
</g>
</g>
<!-- Node3 -->
<g id="Node000003" class="node">
<title>Node3</title>
<g id="a_Node000003"><a xlink:title=" ">
<ellipse fill="#e0e0e0" stroke="#999999" cx="386.87" cy="-25.81" rx="117.38" ry="15.73"/>
<text xml:space="preserve" text-anchor="middle" x="386.87" y="-21.53" font-family="Helvetica,sans-Serif" font-size="12.00">com.runehive.game.Graphic</text>
</a>
</g>
</g>
<!-- Node1&#45;&gt;Node3 -->
<g id="edge2_Node000001_Node000003" class="edge">
<title>Node1&#45;&gt;Node3</title>
<g id="a_edge2_Node000001_Node000003"><a xlink:title=" ">
<path fill="none" stroke="#63b8ff" d="M2414.83,-120.81C2040.97,-115.05 885.74,-94.2 513.87,-51.62 494.74,-49.43 474.18,-45.92 455.3,-42.23"/>
<polygon fill="#63b8ff" stroke="#63b8ff" points="456.07,-38.82 445.58,-40.28 454.7,-45.68 456.07,-38.82"/>
</a>
</g>
</g>
<!-- Node4 -->
<g id="Node000004" class="node">
<title>Node4</title>
<g id="a_Node000004"><a xlink:title=" ">
<ellipse fill="#e0e0e0" stroke="#999999" cx="645.87" cy="-25.81" rx="123.21" ry="15.73"/>
<text xml:space="preserve" text-anchor="middle" x="645.87" y="-21.53" font-family="Helvetica,sans-Serif" font-size="12.00">com.runehive.game.Projectile</text>
</a>
</g>
</g>
<!-- Node1&#45;&gt;Node4 -->
<g id="edge3_Node000001_Node000004" class="edge">
<title>Node1&#45;&gt;Node4</title>
<g id="a_edge3_Node000001_Node000004"><a xlink:title=" ">
<path fill="none" stroke="#63b8ff" d="M2415.27,-119.99C2075.48,-112.36 1096.38,-87.79 777.87,-51.62 757.92,-49.35 736.46,-45.81 716.77,-42.1"/>
<polygon fill="#63b8ff" stroke="#63b8ff" points="717.68,-38.71 707.2,-40.25 716.35,-45.58 717.68,-38.71"/>
</a>
</g>
</g>
<!-- Node5 -->
<g id="Node000005" class="node">
<title>Node5</title>
<g id="a_Node000005"><a xlink:title=" ">
<ellipse fill="#e0e0e0" stroke="#999999" cx="948.87" cy="-25.81" rx="161.93" ry="25.81"/>
<text xml:space="preserve" text-anchor="start" x="842.37" y="-28.66" font-family="Helvetica,sans-Serif" font-size="12.00">com.runehive.game.world.entity.combat.</text>
<text xml:space="preserve" text-anchor="middle" x="948.87" y="-14.41" font-family="Helvetica,sans-Serif" font-size="12.00">CombatType</text>
</a>
</g>
</g>
<!-- Node1&#45;&gt;Node5 -->
<g id="edge4_Node000001_Node000005" class="edge">
<title>Node1&#45;&gt;Node5</title>
<g id="a_edge4_Node000001_Node000005"><a xlink:title=" ">
<path fill="none" stroke="#63b8ff" d="M2415.35,-120.34C2172.74,-115.05 1599.01,-98.29 1119.87,-51.62 1104.46,-50.12 1088.32,-48.21 1072.37,-46.13"/>
<polygon fill="#63b8ff" stroke="#63b8ff" points="1073.24,-42.72 1062.86,-44.86 1072.31,-49.66 1073.24,-42.72"/>
</a>
</g>
</g>
<!-- Node6 -->
<g id="Node000006" class="node">
<title>Node6</title>
<g id="a_Node000006"><a xlink:title=" ">
<ellipse fill="#e0e0e0" stroke="#999999" cx="1314.87" cy="-25.81" rx="186.32" ry="25.81"/>
<text xml:space="preserve" text-anchor="start" x="1191.12" y="-28.66" font-family="Helvetica,sans-Serif" font-size="12.00">com.runehive.game.world.entity.combat.attack.</text>
<text xml:space="preserve" text-anchor="middle" x="1314.87" y="-14.41" font-family="Helvetica,sans-Serif" font-size="12.00">FightType</text>
</a>
</g>
</g>
<!-- Node1&#45;&gt;Node6 -->
<g id="edge5_Node000001_Node000006" class="edge">
<title>Node1&#45;&gt;Node6</title>
<g id="a_edge5_Node000001_Node000006"><a xlink:title=" ">
<path fill="none" stroke="#63b8ff" d="M2416.97,-116.61C2227.28,-106.48 1838.78,-83.72 1510.87,-51.62 1493.63,-49.93 1475.57,-47.95 1457.69,-45.84"/>
<polygon fill="#63b8ff" stroke="#63b8ff" points="1458.12,-42.37 1447.78,-44.66 1457.29,-49.32 1458.12,-42.37"/>
</a>
</g>
</g>
<!-- Node7 -->
<g id="Node000007" class="node">
<title>Node7</title>
<g id="a_Node000007"><a xlink:title=" ">
<ellipse fill="#e0e0e0" stroke="#999999" cx="1705.87" cy="-25.81" rx="186.32" ry="25.81"/>
<text xml:space="preserve" text-anchor="start" x="1582.12" y="-28.66" font-family="Helvetica,sans-Serif" font-size="12.00">com.runehive.game.world.entity.combat.attack.</text>
<text xml:space="preserve" text-anchor="middle" x="1705.87" y="-14.41" font-family="Helvetica,sans-Serif" font-size="12.00">FormulaFactory</text>
</a>
</g>
</g>
<!-- Node1&#45;&gt;Node7 -->
<g id="edge6_Node000001_Node000007" class="edge">
<title>Node1&#45;&gt;Node7</title>
<g id="a_edge6_Node000001_Node000007"><a xlink:title=" ">
<path fill="none" stroke="#63b8ff" d="M2422.24,-110.55C2296.22,-96.83 2084.12,-73.39 1901.87,-51.62 1885.52,-49.67 1868.42,-47.57 1851.41,-45.46"/>
<polygon fill="#63b8ff" stroke="#63b8ff" points="1852.12,-42.02 1841.77,-44.26 1851.26,-48.97 1852.12,-42.02"/>
</a>
</g>
</g>
<!-- Node8 -->
<g id="Node000008" class="node">
<title>Node8</title>
<g id="a_Node000008"><a xlink:title=" ">
<ellipse fill="#e0e0e0" stroke="#999999" cx="2125.87" cy="-25.81" rx="215.49" ry="25.81"/>
<text xml:space="preserve" text-anchor="start" x="1981.49" y="-28.66" font-family="Helvetica,sans-Serif" font-size="12.00">com.runehive.game.world.entity.combat.attack.listener.</text>
<text xml:space="preserve" text-anchor="middle" x="2125.87" y="-14.41" font-family="Helvetica,sans-Serif" font-size="12.00">CombatListener</text>
</a>
</g>
</g>
<!-- Node1&#45;&gt;Node8 -->
<g id="edge7_Node000001_Node000008" class="edge">
<title>Node1&#45;&gt;Node8</title>
<g id="a_edge7_Node000001_Node000008"><a xlink:title=" ">
<path fill="none" stroke="#63b8ff" d="M2440.51,-100.79C2378.76,-86.27 2297.33,-67.12 2232.77,-51.95"/>
<polygon fill="#63b8ff" stroke="#63b8ff" points="2233.75,-48.58 2223.22,-49.7 2232.15,-55.4 2233.75,-48.58"/>
</a>
</g>
</g>
<!-- Node9 -->
<g id="Node000009" class="node">
<title>Node9</title>
<g id="a_Node000009"><a xlink:title=" ">
<ellipse fill="#e0e0e0" stroke="#999999" cx="2532.87" cy="-25.81" rx="173.06" ry="25.81"/>
<text xml:space="preserve" text-anchor="start" x="2418.49" y="-28.66" font-family="Helvetica,sans-Serif" font-size="12.00">com.runehive.game.world.entity.combat.hit.</text>
<text xml:space="preserve" text-anchor="middle" x="2532.87" y="-14.41" font-family="Helvetica,sans-Serif" font-size="12.00">CombatHit</text>
</a>
</g>
</g>
<!-- Node1&#45;&gt;Node9 -->
<g id="edge8_Node000001_Node000009" class="edge">
<title>Node1&#45;&gt;Node9</title>
<g id="a_edge8_Node000001_Node000009"><a xlink:title=" ">
<path fill="none" stroke="#63b8ff" d="M2532.87,-87.14C2532.87,-79.36 2532.87,-71.11 2532.87,-63.29"/>
<polygon fill="#63b8ff" stroke="#63b8ff" points="2536.37,-63.38 2532.87,-53.38 2529.37,-63.38 2536.37,-63.38"/>
</a>
</g>
</g>
<!-- Node10 -->
<g id="Node000010" class="node">
<title>Node10</title>
<g id="a_Node000010"><a xlink:title=" ">
<ellipse fill="#e0e0e0" stroke="#999999" cx="2907.87" cy="-25.81" rx="183.67" ry="15.73"/>
<text xml:space="preserve" text-anchor="middle" x="2907.87" y="-21.53" font-family="Helvetica,sans-Serif" font-size="12.00">com.runehive.game.world.entity.combat.hit.Hit</text>
</a>
</g>
</g>
<!-- Node1&#45;&gt;Node10 -->
<g id="edge9_Node000001_Node000010" class="edge">
<title>Node1&#45;&gt;Node10</title>
<g id="a_edge9_Node000001_Node000010"><a xlink:title=" ">
<path fill="none" stroke="#63b8ff" d="M2622.21,-99.7C2689.21,-82.61 2779.48,-59.57 2840.48,-44.01"/>
<polygon fill="#63b8ff" stroke="#63b8ff" points="2841.22,-47.43 2850.05,-41.56 2839.49,-40.65 2841.22,-47.43"/>
</a>
</g>
</g>
<!-- Node11 -->
<g id="Node000011" class="node">
<title>Node11</title>
<g id="a_Node000011"><a xlink:title=" ">
<ellipse fill="#e0e0e0" stroke="#999999" cx="3307.87" cy="-25.81" rx="198.52" ry="25.81"/>
<text xml:space="preserve" text-anchor="start" x="3175.49" y="-28.66" font-family="Helvetica,sans-Serif" font-size="12.00">com.runehive.game.world.entity.combat.projectile.</text>
<text xml:space="preserve" text-anchor="middle" x="3307.87" y="-14.41" font-family="Helvetica,sans-Serif" font-size="12.00">CombatProjectile</text>
</a>
</g>
</g>
<!-- Node1&#45;&gt;Node11 -->
<g id="edge10_Node000001_Node000011" class="edge">
<title>Node1&#45;&gt;Node11</title>
<g id="a_edge10_Node000001_Node000011"><a xlink:title=" ">
<path fill="none" stroke="#63b8ff" d="M2641.44,-109.1C2775.35,-92.56 3003.81,-64.35 3155.31,-45.65"/>
<polygon fill="#63b8ff" stroke="#63b8ff" points="3155.53,-49.15 3165.03,-44.45 3154.68,-42.2 3155.53,-49.15"/>
</a>
</g>
</g>
<!-- Node12 -->
<g id="Node000012" class="node">
<title>Node12</title>
<g id="a_Node000012"><a xlink:title=" ">
<ellipse fill="#e0e0e0" stroke="#999999" cx="3691.87" cy="-25.81" rx="167.23" ry="15.73"/>
<text xml:space="preserve" text-anchor="middle" x="3691.87" y="-21.53" font-family="Helvetica,sans-Serif" font-size="12.00">com.runehive.game.world.entity.mob.Mob</text>
</a>
</g>
</g>
<!-- Node1&#45;&gt;Node12 -->
<g id="edge11_Node000001_Node000012" class="edge">
<title>Node1&#45;&gt;Node12</title>
<g id="a_edge11_Node000001_Node000012"><a xlink:title=" ">
<path fill="none" stroke="#63b8ff" d="M2648.86,-116.7C2832.96,-106.92 3203.23,-84.89 3515.87,-51.62 3542.18,-48.82 3570.61,-45.11 3596.79,-41.42"/>
<polygon fill="#63b8ff" stroke="#63b8ff" points="3596.95,-44.93 3606.36,-40.05 3595.97,-38 3596.95,-44.93"/>
</a>
</g>
</g>
<!-- Node13 -->
<g id="Node000013" class="node">
<title>Node13</title>
<g id="a_Node000013"><a xlink:title=" ">
<ellipse fill="#e0e0e0" stroke="#999999" cx="3951.87" cy="-25.81" rx="74.42" ry="15.73"/>
<text xml:space="preserve" text-anchor="middle" x="3951.87" y="-21.53" font-family="Helvetica,sans-Serif" font-size="12.00">java.util.Optional</text>
</a>
</g>
</g>
<!-- Node1&#45;&gt;Node13 -->
<g id="edge12_Node000001_Node000013" class="edge">
<title>Node1&#45;&gt;Node13</title>
<g id="a_edge12_Node000001_Node000013"><a xlink:title=" ">
<path fill="none" stroke="#63b8ff" d="M2650.46,-119.79C2931.42,-112.73 3635.54,-91.53 3867.87,-51.62 3879.68,-49.59 3892.18,-46.46 3903.82,-43.1"/>
<polygon fill="#63b8ff" stroke="#63b8ff" points="3904.66,-46.5 3913.23,-40.27 3902.64,-39.8 3904.66,-46.5"/>
</a>
</g>
</g>
<!-- Node14 -->
<g id="Node000014" class="node">
<title>Node14</title>
<g id="a_Node000014"><a xlink:title=" ">
<ellipse fill="#e0e0e0" stroke="#999999" cx="4205.87" cy="-25.81" rx="161.93" ry="25.81"/>
<text xml:space="preserve" text-anchor="start" x="4099.37" y="-28.66" font-family="Helvetica,sans-Serif" font-size="12.00">com.runehive.game.world.entity.combat.</text>
<text xml:space="preserve" text-anchor="middle" x="4205.87" y="-14.41" font-family="Helvetica,sans-Serif" font-size="12.00">CombatUtil.getHitDelay</text>
</a>
</g>
</g>
<!-- Node1&#45;&gt;Node14 -->
<g id="edge13_Node000001_Node000014" class="edge">
<title>Node1&#45;&gt;Node14</title>
<g id="a_edge13_Node000001_Node000014"><a xlink:title=" ">
<path fill="none" stroke="#63b8ff" d="M2650.47,-120.83C2903.99,-116.36 3520.66,-100.94 4034.87,-51.62 4050.27,-50.14 4066.41,-48.25 4082.37,-46.18"/>
<polygon fill="#63b8ff" stroke="#63b8ff" points="4082.42,-49.7 4091.87,-44.91 4081.5,-42.76 4082.42,-49.7"/>
</a>
</g>
</g>
<!-- Node15 -->
<g id="Node000015" class="node">
<title>Node15</title>
<g id="a_Node000015"><a xlink:title=" ">
<ellipse fill="#e0e0e0" stroke="#999999" cx="4547.87" cy="-25.81" rx="161.93" ry="25.81"/>
<text xml:space="preserve" text-anchor="start" x="4441.37" y="-28.66" font-family="Helvetica,sans-Serif" font-size="12.00">com.runehive.game.world.entity.combat.</text>
<text xml:space="preserve" text-anchor="middle" x="4547.87" y="-14.41" font-family="Helvetica,sans-Serif" font-size="12.00">CombatUtil.getHitsplatDelay</text>
</a>
</g>
</g>
<!-- Node1&#45;&gt;Node15 -->
<g id="edge14_Node000001_Node000015" class="edge">
<title>Node1&#45;&gt;Node15</title>
<g id="a_edge14_Node000001_Node000015"><a xlink:title=" ">
<path fill="none" stroke="#63b8ff" d="M2650.99,-122.28C2943.9,-120.8 3727.02,-111.08 4376.87,-51.62 4392.4,-50.2 4408.68,-48.33 4424.76,-46.26"/>
<polygon fill="#63b8ff" stroke="#63b8ff" points="4424.89,-49.77 4434.35,-44.99 4423.97,-42.83 4424.89,-49.77"/>
</a>
</g>
</g>
<!-- Node16 -->
<g id="Node000016" class="node">
<title>Node16</title>
<g id="a_Node000016"><a xlink:title=" ">
<ellipse fill="#e0e0e0" stroke="#999999" cx="4913.87" cy="-25.81" rx="186.32" ry="25.81"/>
<text xml:space="preserve" text-anchor="start" x="4790.12" y="-28.66" font-family="Helvetica,sans-Serif" font-size="12.00">com.runehive.game.world.entity.combat.attack.</text>
<text xml:space="preserve" text-anchor="middle" x="4913.87" y="-14.41" font-family="Helvetica,sans-Serif" font-size="12.00">FormulaFactory.getMaxHit</text>
</a>
</g>
</g>
<!-- Node1&#45;&gt;Node16 -->
<g id="edge15_Node000001_Node000016" class="edge">
<title>Node1&#45;&gt;Node16</title>
<g id="a_edge15_Node000001_Node000016"><a xlink:title=" ">
<path fill="none" stroke="#63b8ff" d="M2650.97,-122.58C2979.38,-121.94 3931.08,-114.37 4718.87,-51.62 4736.84,-50.19 4755.7,-48.29 4774.32,-46.18"/>
<polygon fill="#63b8ff" stroke="#63b8ff" points="4774.52,-49.68 4784.05,-45.05 4773.71,-42.73 4774.52,-49.68"/>
</a>
</g>
</g>
</g>
</svg>
