<?xml version="1.0" encoding="UTF-8" standalone="no"?>
<!DOCTYPE svg PUBLIC "-//W3C//DTD SVG 1.1//EN"
 "http://www.w3.org/Graphics/SVG/1.1/DTD/svg11.dtd">
<!-- Generated by graphviz version 14.0.1 (20251006.0113)
 -->
<!-- Title: java/com/runehive/game/world/entity/combat/projectile/CombatProjectile.java Pages: 1 -->
<svg width="2622pt" height="167pt"
 viewBox="0.00 0.00 2622.00 167.00" xmlns="http://www.w3.org/2000/svg" xmlns:xlink="http://www.w3.org/1999/xlink">
<g id="graph0" class="graph" transform="scale(1 1) rotate(0) translate(4 163.39)">
<title>java/com/runehive/game/world/entity/combat/projectile/CombatProjectile.java</title>
<!-- Node1 -->
<g id="Node000001" class="node">
<title>Node1</title>
<g id="a_Node000001"><a xlink:title=" ">
<ellipse fill="#999999" stroke="#666666" cx="1436.87" cy="-123.5" rx="122.68" ry="35.89"/>
<text xml:space="preserve" text-anchor="start" x="1358.12" y="-133.48" font-family="Helvetica,sans-Serif" font-size="12.00">java/com/runehive/game</text>
<text xml:space="preserve" text-anchor="start" x="1358.12" y="-119.23" font-family="Helvetica,sans-Serif" font-size="12.00">/world/entity/combat/projectile</text>
<text xml:space="preserve" text-anchor="middle" x="1436.87" y="-104.98" font-family="Helvetica,sans-Serif" font-size="12.00">/CombatProjectile.java</text>
</a>
</g>
</g>
<!-- Node2 -->
<g id="Node000002" class="node">
<title>Node2</title>
<g id="a_Node000002"><a xlink:title=" ">
<ellipse fill="#e0e0e0" stroke="#999999" cx="125.87" cy="-25.81" rx="125.87" ry="15.73"/>
<text xml:space="preserve" text-anchor="middle" x="125.87" y="-21.53" font-family="Helvetica,sans-Serif" font-size="12.00">com.runehive.game.Animation</text>
</a>
</g>
</g>
<!-- Node1&#45;&gt;Node2 -->
<g id="edge1_Node000001_Node000002" class="edge">
<title>Node1&#45;&gt;Node2</title>
<g id="a_edge1_Node000001_Node000002"><a xlink:title=" ">
<path fill="none" stroke="#63b8ff" d="M1314.53,-120.02C1100.3,-114.59 643.6,-98.15 260.87,-51.62 240.8,-49.18 219.21,-45.63 199.31,-41.98"/>
<polygon fill="#63b8ff" stroke="#63b8ff" points="200.09,-38.57 189.62,-40.17 198.8,-45.45 200.09,-38.57"/>
</a>
</g>
</g>
<!-- Node3 -->
<g id="Node000003" class="node">
<title>Node3</title>
<g id="a_Node000003"><a xlink:title=" ">
<ellipse fill="#e0e0e0" stroke="#999999" cx="386.87" cy="-25.81" rx="117.38" ry="15.73"/>
<text xml:space="preserve" text-anchor="middle" x="386.87" y="-21.53" font-family="Helvetica,sans-Serif" font-size="12.00">com.runehive.game.Graphic</text>
</a>
</g>
</g>
<!-- Node1&#45;&gt;Node3 -->
<g id="edge2_Node000001_Node000003" class="edge">
<title>Node1&#45;&gt;Node3</title>
<g id="a_edge2_Node000001_Node000003"><a xlink:title=" ">
<path fill="none" stroke="#63b8ff" d="M1315.44,-117.68C1138.5,-109.64 799.73,-90.38 513.87,-51.62 495.34,-49.11 475.43,-45.61 457.01,-42.02"/>
<polygon fill="#63b8ff" stroke="#63b8ff" points="457.72,-38.6 447.23,-40.09 456.36,-45.46 457.72,-38.6"/>
</a>
</g>
</g>
<!-- Node4 -->
<g id="Node000004" class="node">
<title>Node4</title>
<g id="a_Node000004"><a xlink:title=" ">
<ellipse fill="#e0e0e0" stroke="#999999" cx="645.87" cy="-25.81" rx="123.21" ry="15.73"/>
<text xml:space="preserve" text-anchor="middle" x="645.87" y="-21.53" font-family="Helvetica,sans-Serif" font-size="12.00">com.runehive.game.Projectile</text>
</a>
</g>
</g>
<!-- Node1&#45;&gt;Node4 -->
<g id="edge3_Node000001_Node000004" class="edge">
<title>Node1&#45;&gt;Node4</title>
<g id="a_edge3_Node000001_Node000004"><a xlink:title=" ">
<path fill="none" stroke="#63b8ff" d="M1319.55,-112.69C1187.49,-100.99 966.69,-79.48 777.87,-51.62 759.15,-48.86 739.04,-45.36 720.3,-41.86"/>
<polygon fill="#63b8ff" stroke="#63b8ff" points="721.11,-38.45 710.63,-40.03 719.81,-45.33 721.11,-38.45"/>
</a>
</g>
</g>
<!-- Node5 -->
<g id="Node000005" class="node">
<title>Node5</title>
<g id="a_Node000005"><a xlink:title=" ">
<ellipse fill="#e0e0e0" stroke="#999999" cx="902.87" cy="-25.81" rx="115.79" ry="25.81"/>
<text xml:space="preserve" text-anchor="start" x="828.99" y="-28.66" font-family="Helvetica,sans-Serif" font-size="12.00">com.runehive.game.engine.</text>
<text xml:space="preserve" text-anchor="middle" x="902.87" y="-14.41" font-family="Helvetica,sans-Serif" font-size="12.00">GameEngine</text>
</a>
</g>
</g>
<!-- Node1&#45;&gt;Node5 -->
<g id="edge4_Node000001_Node000005" class="edge">
<title>Node1&#45;&gt;Node5</title>
<g id="a_edge4_Node000001_Node000005"><a xlink:title=" ">
<path fill="none" stroke="#63b8ff" d="M1331.24,-104.92C1248.58,-90.99 1130.78,-70.75 1027.87,-51.62 1018.3,-49.84 1008.34,-47.94 998.39,-46.02"/>
<polygon fill="#63b8ff" stroke="#63b8ff" points="999.17,-42.6 988.68,-44.13 997.83,-49.47 999.17,-42.6"/>
</a>
</g>
</g>
<!-- Node6 -->
<g id="Node000006" class="node">
<title>Node6</title>
<g id="a_Node000006"><a xlink:title=" ">
<ellipse fill="#e0e0e0" stroke="#999999" cx="1146.87" cy="-25.81" rx="110.49" ry="25.81"/>
<text xml:space="preserve" text-anchor="start" x="1076.74" y="-28.66" font-family="Helvetica,sans-Serif" font-size="12.00">com.runehive.game.world.</text>
<text xml:space="preserve" text-anchor="middle" x="1146.87" y="-14.41" font-family="Helvetica,sans-Serif" font-size="12.00">World</text>
</a>
</g>
</g>
<!-- Node1&#45;&gt;Node6 -->
<g id="edge5_Node000001_Node000006" class="edge">
<title>Node1&#45;&gt;Node6</title>
<g id="a_edge5_Node000001_Node000006"><a xlink:title=" ">
<path fill="none" stroke="#63b8ff" d="M1356.47,-95.98C1313.85,-81.91 1261.86,-64.76 1220.33,-51.05"/>
<polygon fill="#63b8ff" stroke="#63b8ff" points="1221.49,-47.75 1210.89,-47.94 1219.29,-54.39 1221.49,-47.75"/>
</a>
</g>
</g>
<!-- Node7 -->
<g id="Node000007" class="node">
<title>Node7</title>
<g id="a_Node000007"><a xlink:title=" ">
<ellipse fill="#e0e0e0" stroke="#999999" cx="1436.87" cy="-25.81" rx="161.93" ry="25.81"/>
<text xml:space="preserve" text-anchor="start" x="1330.37" y="-28.66" font-family="Helvetica,sans-Serif" font-size="12.00">com.runehive.game.world.entity.combat.</text>
<text xml:space="preserve" text-anchor="middle" x="1436.87" y="-14.41" font-family="Helvetica,sans-Serif" font-size="12.00">CombatImpact</text>
</a>
</g>
</g>
<!-- Node1&#45;&gt;Node7 -->
<g id="edge6_Node000001_Node000007" class="edge">
<title>Node1&#45;&gt;Node7</title>
<g id="a_edge6_Node000001_Node000007"><a xlink:title=" ">
<path fill="none" stroke="#63b8ff" d="M1436.87,-87.14C1436.87,-79.36 1436.87,-71.11 1436.87,-63.29"/>
<polygon fill="#63b8ff" stroke="#63b8ff" points="1440.37,-63.38 1436.87,-53.38 1433.37,-63.38 1440.37,-63.38"/>
</a>
</g>
</g>
<!-- Node8 -->
<g id="Node000008" class="node">
<title>Node8</title>
<g id="a_Node000008"><a xlink:title=" ">
<ellipse fill="#e0e0e0" stroke="#999999" cx="1783.87" cy="-25.81" rx="167.23" ry="15.73"/>
<text xml:space="preserve" text-anchor="middle" x="1783.87" y="-21.53" font-family="Helvetica,sans-Serif" font-size="12.00">com.runehive.game.world.entity.mob.Mob</text>
</a>
</g>
</g>
<!-- Node1&#45;&gt;Node8 -->
<g id="edge7_Node000001_Node000008" class="edge">
<title>Node1&#45;&gt;Node8</title>
<g id="a_edge7_Node000001_Node000008"><a xlink:title=" ">
<path fill="none" stroke="#63b8ff" d="M1524.88,-98.23C1585.93,-81.4 1665.8,-59.37 1720.61,-44.25"/>
<polygon fill="#63b8ff" stroke="#63b8ff" points="1721.4,-47.67 1730.11,-41.63 1719.54,-40.92 1721.4,-47.67"/>
</a>
</g>
</g>
<!-- Node9 -->
<g id="Node000009" class="node">
<title>Node9</title>
<g id="a_Node000009"><a xlink:title=" ">
<ellipse fill="#e0e0e0" stroke="#999999" cx="2047.87" cy="-25.81" rx="79.2" ry="15.73"/>
<text xml:space="preserve" text-anchor="middle" x="2047.87" y="-21.53" font-family="Helvetica,sans-Serif" font-size="12.00">java.util.HashMap</text>
</a>
</g>
</g>
<!-- Node1&#45;&gt;Node9 -->
<g id="edge8_Node000001_Node000009" class="edge">
<title>Node1&#45;&gt;Node9</title>
<g id="a_edge8_Node000001_Node000009"><a xlink:title=" ">
<path fill="none" stroke="#63b8ff" d="M1552.95,-111.49C1659.46,-100.26 1821.26,-80.4 1959.87,-51.62 1971.64,-49.17 1984.16,-46 1995.94,-42.75"/>
<polygon fill="#63b8ff" stroke="#63b8ff" points="1996.85,-46.13 2005.52,-40.04 1994.94,-39.39 1996.85,-46.13"/>
</a>
</g>
</g>
<!-- Node10 -->
<g id="Node000010" class="node">
<title>Node10</title>
<g id="a_Node000010"><a xlink:title=" ">
<ellipse fill="#e0e0e0" stroke="#999999" cx="2203.87" cy="-25.81" rx="59.04" ry="15.73"/>
<text xml:space="preserve" text-anchor="middle" x="2203.87" y="-21.53" font-family="Helvetica,sans-Serif" font-size="12.00">java.util.Map</text>
</a>
</g>
</g>
<!-- Node1&#45;&gt;Node10 -->
<g id="edge9_Node000001_Node000010" class="edge">
<title>Node1&#45;&gt;Node10</title>
<g id="a_edge9_Node000001_Node000010"><a xlink:title=" ">
<path fill="none" stroke="#63b8ff" d="M1558.95,-119.3C1699.64,-113.5 1937.02,-97.22 2135.87,-51.62 2144.74,-49.58 2154.03,-46.72 2162.8,-43.65"/>
<polygon fill="#63b8ff" stroke="#63b8ff" points="2163.95,-46.95 2172.13,-40.22 2161.54,-40.38 2163.95,-46.95"/>
</a>
</g>
</g>
<!-- Node11 -->
<g id="Node000011" class="node">
<title>Node11</title>
<g id="a_Node000011"><a xlink:title=" ">
<ellipse fill="#e0e0e0" stroke="#999999" cx="2354.87" cy="-25.81" rx="74.42" ry="15.73"/>
<text xml:space="preserve" text-anchor="middle" x="2354.87" y="-21.53" font-family="Helvetica,sans-Serif" font-size="12.00">java.util.Optional</text>
</a>
</g>
</g>
<!-- Node1&#45;&gt;Node11 -->
<g id="edge10_Node000001_Node000011" class="edge">
<title>Node1&#45;&gt;Node11</title>
<g id="a_edge10_Node000001_Node000011"><a xlink:title=" ">
<path fill="none" stroke="#63b8ff" d="M1559.27,-119.98C1722.95,-114.81 2021.55,-99.13 2271.87,-51.62 2283.17,-49.47 2295.13,-46.39 2306.34,-43.13"/>
<polygon fill="#63b8ff" stroke="#63b8ff" points="2307.25,-46.52 2315.81,-40.27 2305.22,-39.81 2307.25,-46.52"/>
</a>
</g>
</g>
<!-- Node12 -->
<g id="Node000012" class="node">
<title>Node12</title>
<g id="a_Node000012"><a xlink:title=" ">
<ellipse fill="#e0e0e0" stroke="#999999" cx="2530.87" cy="-25.81" rx="83.44" ry="15.73"/>
<text xml:space="preserve" text-anchor="middle" x="2530.87" y="-21.53" font-family="Helvetica,sans-Serif" font-size="12.00">java.util.OptionalInt</text>
</a>
</g>
</g>
<!-- Node1&#45;&gt;Node12 -->
<g id="edge11_Node000001_Node000012" class="edge">
<title>Node1&#45;&gt;Node12</title>
<g id="a_edge11_Node000001_Node000012"><a xlink:title=" ">
<path fill="none" stroke="#63b8ff" d="M1559.48,-121.3C1749.07,-117.76 2124.27,-104.06 2437.87,-51.62 2451.13,-49.4 2465.24,-46.13 2478.36,-42.68"/>
<polygon fill="#63b8ff" stroke="#63b8ff" points="2478.91,-46.15 2487.65,-40.16 2477.08,-39.4 2478.91,-46.15"/>
</a>
</g>
</g>
</g>
</svg>
