<?xml version="1.0" encoding="UTF-8" standalone="no"?>
<!DOCTYPE svg PUBLIC "-//W3C//DTD SVG 1.1//EN"
 "http://www.w3.org/Graphics/SVG/1.1/DTD/svg11.dtd">
<!-- Generated by graphviz version 14.0.1 (20251006.0113)
 -->
<!-- Title: java/com/runehive/game/world/entity/combat/Combat.java Pages: 1 -->
<svg width="6675pt" height="147pt"
 viewBox="0.00 0.00 6675.00 147.00" xmlns="http://www.w3.org/2000/svg" xmlns:xlink="http://www.w3.org/1999/xlink">
<g id="graph0" class="graph" transform="scale(1 1) rotate(0) translate(4 143.24)">
<title>java/com/runehive/game/world/entity/combat/Combat.java</title>
<!-- Node1 -->
<g id="Node000001" class="node">
<title>Node1</title>
<g id="a_Node000001"><a xlink:title=" ">
<ellipse fill="#999999" stroke="#666666" cx="3865.83" cy="-113.43" rx="135.94" ry="25.81"/>
<text xml:space="preserve" text-anchor="start" x="3777.71" y="-116.28" font-family="Helvetica,sans-Serif" font-size="12.00">java/com/runehive/game</text>
<text xml:space="preserve" text-anchor="middle" x="3865.83" y="-102.03" font-family="Helvetica,sans-Serif" font-size="12.00">/world/entity/combat/Combat.java</text>
</a>
</g>
</g>
<!-- Node2 -->
<g id="Node000002" class="node">
<title>Node2</title>
<g id="a_Node000002"><a xlink:title=" ">
<ellipse fill="#e0e0e0" stroke="#999999" cx="107.83" cy="-25.81" rx="107.83" ry="25.81"/>
<text xml:space="preserve" text-anchor="start" x="39.58" y="-28.66" font-family="Helvetica,sans-Serif" font-size="12.00">com.runehive.content.bot.</text>
<text xml:space="preserve" text-anchor="middle" x="107.83" y="-14.41" font-family="Helvetica,sans-Serif" font-size="12.00">PlayerBot</text>
</a>
</g>
</g>
<!-- Node1&#45;&gt;Node2 -->
<g id="edge1_Node000001_Node000002" class="edge">
<title>Node1&#45;&gt;Node2</title>
<g id="a_edge1_Node000001_Node000002"><a xlink:title=" ">
<path fill="none" stroke="#63b8ff" d="M3729.78,-111.71C3110.99,-108.21 577.35,-91.56 224.83,-51.62 214.68,-50.47 204.11,-48.84 193.66,-46.97"/>
<polygon fill="#63b8ff" stroke="#63b8ff" points="194.34,-43.54 183.87,-45.13 193.05,-50.42 194.34,-43.54"/>
</a>
</g>
</g>
<!-- Node3 -->
<g id="Node000003" class="node">
<title>Node3</title>
<g id="a_Node000003"><a xlink:title=" ">
<ellipse fill="#e0e0e0" stroke="#999999" cx="356.83" cy="-25.81" rx="122.68" ry="15.73"/>
<text xml:space="preserve" text-anchor="middle" x="356.83" y="-21.53" font-family="Helvetica,sans-Serif" font-size="12.00">com.runehive.game.task.Task</text>
</a>
</g>
</g>
<!-- Node1&#45;&gt;Node3 -->
<g id="edge2_Node000001_Node000003" class="edge">
<title>Node1&#45;&gt;Node3</title>
<g id="a_edge2_Node000001_Node000003"><a xlink:title=" ">
<path fill="none" stroke="#63b8ff" d="M3730.16,-111.33C3140.37,-106.38 814.41,-84.91 488.83,-51.62 468.57,-49.55 446.77,-46 426.84,-42.23"/>
<polygon fill="#63b8ff" stroke="#63b8ff" points="427.63,-38.82 417.15,-40.34 426.3,-45.69 427.63,-38.82"/>
</a>
</g>
</g>
<!-- Node4 -->
<g id="Node000004" class="node">
<title>Node4</title>
<g id="a_Node000004"><a xlink:title=" ">
<ellipse fill="#e0e0e0" stroke="#999999" cx="607.83" cy="-25.81" rx="110.49" ry="25.81"/>
<text xml:space="preserve" text-anchor="start" x="537.71" y="-28.66" font-family="Helvetica,sans-Serif" font-size="12.00">com.runehive.game.world.</text>
<text xml:space="preserve" text-anchor="middle" x="607.83" y="-14.41" font-family="Helvetica,sans-Serif" font-size="12.00">World</text>
</a>
</g>
</g>
<!-- Node1&#45;&gt;Node4 -->
<g id="edge3_Node000001_Node000004" class="edge">
<title>Node1&#45;&gt;Node4</title>
<g id="a_edge3_Node000001_Node000004"><a xlink:title=" ">
<path fill="none" stroke="#63b8ff" d="M3729.91,-111.27C3166.28,-106.28 1028.28,-85.3 727.83,-51.62 717.32,-50.44 706.36,-48.78 695.53,-46.88"/>
<polygon fill="#63b8ff" stroke="#63b8ff" points="696.27,-43.46 685.8,-45.09 695.01,-50.34 696.27,-43.46"/>
</a>
</g>
</g>
<!-- Node5 -->
<g id="Node000005" class="node">
<title>Node5</title>
<g id="a_Node000005"><a xlink:title=" ">
<ellipse fill="#e0e0e0" stroke="#999999" cx="922.83" cy="-25.81" rx="186.32" ry="25.81"/>
<text xml:space="preserve" text-anchor="start" x="799.08" y="-28.66" font-family="Helvetica,sans-Serif" font-size="12.00">com.runehive.game.world.entity.combat.attack.</text>
<text xml:space="preserve" text-anchor="middle" x="922.83" y="-14.41" font-family="Helvetica,sans-Serif" font-size="12.00">FightStyle</text>
</a>
</g>
</g>
<!-- Node1&#45;&gt;Node5 -->
<g id="edge4_Node000001_Node000005" class="edge">
<title>Node1&#45;&gt;Node5</title>
<g id="a_edge4_Node000001_Node000005"><a xlink:title=" ">
<path fill="none" stroke="#63b8ff" d="M3729.93,-111.29C3249.88,-106.97 1634.99,-89.9 1118.83,-51.62 1100.39,-50.25 1081.02,-48.36 1061.94,-46.22"/>
<polygon fill="#63b8ff" stroke="#63b8ff" points="1062.58,-42.77 1052.24,-45.11 1061.78,-49.73 1062.58,-42.77"/>
</a>
</g>
</g>
<!-- Node6 -->
<g id="Node000006" class="node">
<title>Node6</title>
<g id="a_Node000006"><a xlink:title=" ">
<ellipse fill="#e0e0e0" stroke="#999999" cx="1313.83" cy="-25.81" rx="186.32" ry="25.81"/>
<text xml:space="preserve" text-anchor="start" x="1190.08" y="-28.66" font-family="Helvetica,sans-Serif" font-size="12.00">com.runehive.game.world.entity.combat.attack.</text>
<text xml:space="preserve" text-anchor="middle" x="1313.83" y="-14.41" font-family="Helvetica,sans-Serif" font-size="12.00">FightType</text>
</a>
</g>
</g>
<!-- Node1&#45;&gt;Node6 -->
<g id="edge5_Node000001_Node000006" class="edge">
<title>Node1&#45;&gt;Node6</title>
<g id="a_edge5_Node000001_Node000006"><a xlink:title=" ">
<path fill="none" stroke="#63b8ff" d="M3730.13,-110.71C3296.27,-104.95 1945.87,-84.76 1509.83,-51.62 1491.55,-50.23 1472.36,-48.34 1453.43,-46.22"/>
<polygon fill="#63b8ff" stroke="#63b8ff" points="1453.85,-42.74 1443.51,-45.08 1453.05,-49.69 1453.85,-42.74"/>
</a>
</g>
</g>
<!-- Node7 -->
<g id="Node000007" class="node">
<title>Node7</title>
<g id="a_Node000007"><a xlink:title=" ">
<ellipse fill="#e0e0e0" stroke="#999999" cx="1733.83" cy="-25.81" rx="215.49" ry="25.81"/>
<text xml:space="preserve" text-anchor="start" x="1589.46" y="-28.66" font-family="Helvetica,sans-Serif" font-size="12.00">com.runehive.game.world.entity.combat.attack.listener.</text>
<text xml:space="preserve" text-anchor="middle" x="1733.83" y="-14.41" font-family="Helvetica,sans-Serif" font-size="12.00">CombatListener</text>
</a>
</g>
</g>
<!-- Node1&#45;&gt;Node7 -->
<g id="edge6_Node000001_Node000007" class="edge">
<title>Node1&#45;&gt;Node7</title>
<g id="a_edge6_Node000001_Node000007"><a xlink:title=" ">
<path fill="none" stroke="#63b8ff" d="M3729.8,-111.73C3416.84,-109.32 2621.73,-98.66 1958.83,-51.62 1937.8,-50.13 1915.71,-48.17 1893.91,-46.01"/>
<polygon fill="#63b8ff" stroke="#63b8ff" points="1894.36,-42.54 1884.06,-45.01 1893.65,-49.5 1894.36,-42.54"/>
</a>
</g>
</g>
<!-- Node8 -->
<g id="Node000008" class="node">
<title>Node8</title>
<g id="a_Node000008"><a xlink:title=" ">
<ellipse fill="#e0e0e0" stroke="#999999" cx="2159.83" cy="-25.81" rx="192.16" ry="25.81"/>
<text xml:space="preserve" text-anchor="start" x="2031.96" y="-28.66" font-family="Helvetica,sans-Serif" font-size="12.00">com.runehive.game.world.entity.combat.formula.</text>
<text xml:space="preserve" text-anchor="middle" x="2159.83" y="-14.41" font-family="Helvetica,sans-Serif" font-size="12.00">CombatFormula</text>
</a>
</g>
</g>
<!-- Node1&#45;&gt;Node8 -->
<g id="edge7_Node000001_Node000008" class="edge">
<title>Node1&#45;&gt;Node8</title>
<g id="a_edge7_Node000001_Node000008"><a xlink:title=" ">
<path fill="none" stroke="#63b8ff" d="M3730.19,-110.69C3466.15,-106.48 2864.82,-92.83 2360.83,-51.62 2342.45,-50.12 2323.16,-48.19 2304.11,-46.07"/>
<polygon fill="#63b8ff" stroke="#63b8ff" points="2304.77,-42.62 2294.44,-44.97 2303.98,-49.58 2304.77,-42.62"/>
</a>
</g>
</g>
<!-- Node9 -->
<g id="Node000009" class="node">
<title>Node9</title>
<g id="a_Node000009"><a xlink:title=" ">
<ellipse fill="#e0e0e0" stroke="#999999" cx="2542.83" cy="-25.81" rx="173.06" ry="25.81"/>
<text xml:space="preserve" text-anchor="start" x="2428.46" y="-28.66" font-family="Helvetica,sans-Serif" font-size="12.00">com.runehive.game.world.entity.combat.hit.</text>
<text xml:space="preserve" text-anchor="middle" x="2542.83" y="-14.41" font-family="Helvetica,sans-Serif" font-size="12.00">CombatData</text>
</a>
</g>
</g>
<!-- Node1&#45;&gt;Node9 -->
<g id="edge8_Node000001_Node000009" class="edge">
<title>Node1&#45;&gt;Node9</title>
<g id="a_edge8_Node000001_Node000009"><a xlink:title=" ">
<path fill="none" stroke="#63b8ff" d="M3731.63,-108.85C3518.09,-102.36 3087.97,-85.99 2724.83,-51.62 2708.56,-50.08 2691.5,-48.16 2674.63,-46.08"/>
<polygon fill="#63b8ff" stroke="#63b8ff" points="2675.44,-42.65 2665.08,-44.87 2674.56,-49.6 2675.44,-42.65"/>
</a>
</g>
</g>
<!-- Node10 -->
<g id="Node000010" class="node">
<title>Node10</title>
<g id="a_Node000010"><a xlink:title=" ">
<ellipse fill="#e0e0e0" stroke="#999999" cx="2906.83" cy="-25.81" rx="173.06" ry="25.81"/>
<text xml:space="preserve" text-anchor="start" x="2792.46" y="-28.66" font-family="Helvetica,sans-Serif" font-size="12.00">com.runehive.game.world.entity.combat.hit.</text>
<text xml:space="preserve" text-anchor="middle" x="2906.83" y="-14.41" font-family="Helvetica,sans-Serif" font-size="12.00">CombatHit</text>
</a>
</g>
</g>
<!-- Node1&#45;&gt;Node10 -->
<g id="edge9_Node000001_Node000010" class="edge">
<title>Node1&#45;&gt;Node10</title>
<g id="a_edge9_Node000001_Node000010"><a xlink:title=" ">
<path fill="none" stroke="#63b8ff" d="M3737.42,-104.64C3583.17,-94.77 3316.71,-76.05 3088.83,-51.62 3073.12,-49.93 3056.67,-47.97 3040.35,-45.9"/>
<polygon fill="#63b8ff" stroke="#63b8ff" points="3040.96,-42.45 3030.59,-44.65 3040.06,-49.39 3040.96,-42.45"/>
</a>
</g>
</g>
<!-- Node11 -->
<g id="Node000011" class="node">
<title>Node11</title>
<g id="a_Node000011"><a xlink:title=" ">
<ellipse fill="#e0e0e0" stroke="#999999" cx="3281.83" cy="-25.81" rx="183.67" ry="15.73"/>
<text xml:space="preserve" text-anchor="middle" x="3281.83" y="-21.53" font-family="Helvetica,sans-Serif" font-size="12.00">com.runehive.game.world.entity.combat.hit.Hit</text>
</a>
</g>
</g>
<!-- Node1&#45;&gt;Node11 -->
<g id="edge10_Node000001_Node000011" class="edge">
<title>Node1&#45;&gt;Node11</title>
<g id="a_edge10_Node000001_Node000011"><a xlink:title=" ">
<path fill="none" stroke="#63b8ff" d="M3760.08,-96.92C3652.88,-81.21 3488.22,-57.07 3382.78,-41.61"/>
<polygon fill="#63b8ff" stroke="#63b8ff" points="3383.4,-38.16 3373,-40.17 3382.38,-45.09 3383.4,-38.16"/>
</a>
</g>
</g>
<!-- Node12 -->
<g id="Node000012" class="node">
<title>Node12</title>
<g id="a_Node000012"><a xlink:title=" ">
<ellipse fill="#e0e0e0" stroke="#999999" cx="3676.83" cy="-25.81" rx="193.22" ry="25.81"/>
<text xml:space="preserve" text-anchor="start" x="3548.21" y="-28.66" font-family="Helvetica,sans-Serif" font-size="12.00">com.runehive.game.world.entity.combat.strategy.</text>
<text xml:space="preserve" text-anchor="middle" x="3676.83" y="-14.41" font-family="Helvetica,sans-Serif" font-size="12.00">CombatStrategy</text>
</a>
</g>
</g>
<!-- Node1&#45;&gt;Node12 -->
<g id="edge11_Node000001_Node000012" class="edge">
<title>Node1&#45;&gt;Node12</title>
<g id="a_edge11_Node000001_Node000012"><a xlink:title=" ">
<path fill="none" stroke="#63b8ff" d="M3814.69,-89.26C3791.93,-78.95 3764.88,-66.7 3740.8,-55.79"/>
<polygon fill="#63b8ff" stroke="#63b8ff" points="3742.26,-52.61 3731.71,-51.67 3739.37,-58.98 3742.26,-52.61"/>
</a>
</g>
</g>
<!-- Node13 -->
<g id="Node000013" class="node">
<title>Node13</title>
<g id="a_Node000013"><a xlink:title=" ">
<ellipse fill="#e0e0e0" stroke="#999999" cx="4054.83" cy="-25.81" rx="167.23" ry="15.73"/>
<text xml:space="preserve" text-anchor="middle" x="4054.83" y="-21.53" font-family="Helvetica,sans-Serif" font-size="12.00">com.runehive.game.world.entity.mob.Mob</text>
</a>
</g>
</g>
<!-- Node1&#45;&gt;Node13 -->
<g id="edge12_Node000001_Node000013" class="edge">
<title>Node1&#45;&gt;Node13</title>
<g id="a_edge12_Node000001_Node000013"><a xlink:title=" ">
<path fill="none" stroke="#63b8ff" d="M3916.98,-89.26C3946.64,-75.82 3983.58,-59.09 4011.75,-46.32"/>
<polygon fill="#63b8ff" stroke="#63b8ff" points="4013.05,-49.58 4020.71,-42.27 4010.16,-43.21 4013.05,-49.58"/>
</a>
</g>
</g>
<!-- Node14 -->
<g id="Node000014" class="node">
<title>Node14</title>
<g id="a_Node000014"><a xlink:title=" ">
<ellipse fill="#e0e0e0" stroke="#999999" cx="4415.83" cy="-25.81" rx="175.72" ry="25.81"/>
<text xml:space="preserve" text-anchor="start" x="4299.58" y="-28.66" font-family="Helvetica,sans-Serif" font-size="12.00">com.runehive.game.world.entity.mob.player.</text>
<text xml:space="preserve" text-anchor="middle" x="4415.83" y="-14.41" font-family="Helvetica,sans-Serif" font-size="12.00">Player</text>
</a>
</g>
</g>
<!-- Node1&#45;&gt;Node14 -->
<g id="edge13_Node000001_Node000014" class="edge">
<title>Node1&#45;&gt;Node14</title>
<g id="a_edge13_Node000001_Node000014"><a xlink:title=" ">
<path fill="none" stroke="#63b8ff" d="M3969.28,-96.32C4059.08,-82.35 4189.51,-62.04 4286.24,-46.98"/>
<polygon fill="#63b8ff" stroke="#63b8ff" points="4286.73,-50.45 4296.08,-45.45 4285.66,-43.53 4286.73,-50.45"/>
</a>
</g>
</g>
<!-- Node15 -->
<g id="Node000015" class="node">
<title>Node15</title>
<g id="a_Node000015"><a xlink:title=" ">
<ellipse fill="#e0e0e0" stroke="#999999" cx="4751.83" cy="-25.81" rx="142.31" ry="25.81"/>
<text xml:space="preserve" text-anchor="start" x="4659.21" y="-28.66" font-family="Helvetica,sans-Serif" font-size="12.00">com.runehive.game.world.position.</text>
<text xml:space="preserve" text-anchor="middle" x="4751.83" y="-14.41" font-family="Helvetica,sans-Serif" font-size="12.00">Position</text>
</a>
</g>
</g>
<!-- Node1&#45;&gt;Node15 -->
<g id="edge14_Node000001_Node000015" class="edge">
<title>Node1&#45;&gt;Node15</title>
<g id="a_edge14_Node000001_Node000015"><a xlink:title=" ">
<path fill="none" stroke="#63b8ff" d="M3994.61,-104.92C4141.61,-95.61 4389.09,-77.73 4600.83,-51.62 4613.61,-50.04 4626.95,-48.18 4640.19,-46.18"/>
<polygon fill="#63b8ff" stroke="#63b8ff" points="4640.43,-49.69 4649.78,-44.71 4639.37,-42.77 4640.43,-49.69"/>
</a>
</g>
</g>
<!-- Node16 -->
<g id="Node000016" class="node">
<title>Node16</title>
<g id="a_Node000016"><a xlink:title=" ">
<ellipse fill="#e0e0e0" stroke="#999999" cx="5048.83" cy="-25.81" rx="136.47" ry="25.81"/>
<text xml:space="preserve" text-anchor="start" x="4960.33" y="-28.66" font-family="Helvetica,sans-Serif" font-size="12.00">com.runehive.game.world.region.</text>
<text xml:space="preserve" text-anchor="middle" x="5048.83" y="-14.41" font-family="Helvetica,sans-Serif" font-size="12.00">Region</text>
</a>
</g>
</g>
<!-- Node1&#45;&gt;Node16 -->
<g id="edge15_Node000001_Node000016" class="edge">
<title>Node1&#45;&gt;Node16</title>
<g id="a_edge15_Node000001_Node000016"><a xlink:title=" ">
<path fill="none" stroke="#63b8ff" d="M4000.48,-109.25C4198.65,-103.5 4580.3,-88.37 4902.83,-51.62 4915.61,-50.16 4928.96,-48.33 4942.18,-46.32"/>
<polygon fill="#63b8ff" stroke="#63b8ff" points="4942.4,-49.83 4951.74,-44.83 4941.32,-42.91 4942.4,-49.83"/>
</a>
</g>
</g>
<!-- Node17 -->
<g id="Node000017" class="node">
<title>Node17</title>
<g id="a_Node000017"><a xlink:title=" ">
<ellipse fill="#e0e0e0" stroke="#999999" cx="5321.83" cy="-25.81" rx="118.97" ry="25.81"/>
<text xml:space="preserve" text-anchor="start" x="5245.71" y="-28.66" font-family="Helvetica,sans-Serif" font-size="12.00">com.runehive.net.packet.out.</text>
<text xml:space="preserve" text-anchor="middle" x="5321.83" y="-14.41" font-family="Helvetica,sans-Serif" font-size="12.00">SendEntityFeed</text>
</a>
</g>
</g>
<!-- Node1&#45;&gt;Node17 -->
<g id="edge16_Node000001_Node000017" class="edge">
<title>Node1&#45;&gt;Node17</title>
<g id="a_edge16_Node000001_Node000017"><a xlink:title=" ">
<path fill="none" stroke="#63b8ff" d="M4002.1,-112.72C4243.27,-111.78 4760.69,-103.23 5193.83,-51.62 5204.99,-50.29 5216.63,-48.54 5228.15,-46.59"/>
<polygon fill="#63b8ff" stroke="#63b8ff" points="5228.41,-50.1 5237.65,-44.92 5227.2,-43.21 5228.41,-50.1"/>
</a>
</g>
</g>
<!-- Node18 -->
<g id="Node000018" class="node">
<title>Node18</title>
<g id="a_Node000018"><a xlink:title=" ">
<ellipse fill="#e0e0e0" stroke="#999999" cx="5575.83" cy="-25.81" rx="117.38" ry="15.73"/>
<text xml:space="preserve" text-anchor="middle" x="5575.83" y="-21.53" font-family="Helvetica,sans-Serif" font-size="12.00">com.runehive.util.Stopwatch</text>
</a>
</g>
</g>
<!-- Node1&#45;&gt;Node18 -->
<g id="edge17_Node000001_Node000018" class="edge">
<title>Node1&#45;&gt;Node18</title>
<g id="a_edge17_Node000001_Node000018"><a xlink:title=" ">
<path fill="none" stroke="#63b8ff" d="M4000.84,-109.96C4330.71,-103.48 5171.03,-84.22 5449.83,-51.62 5468.72,-49.41 5489.01,-45.92 5507.66,-42.25"/>
<polygon fill="#63b8ff" stroke="#63b8ff" points="5508.15,-45.72 5517.25,-40.31 5506.76,-38.86 5508.15,-45.72"/>
</a>
</g>
</g>
<!-- Node19 -->
<g id="Node000019" class="node">
<title>Node19</title>
<g id="a_Node000019"><a xlink:title=" ">
<ellipse fill="#e0e0e0" stroke="#999999" cx="5809.83" cy="-25.81" rx="98.82" ry="15.73"/>
<text xml:space="preserve" text-anchor="middle" x="5809.83" y="-21.53" font-family="Helvetica,sans-Serif" font-size="12.00">com.runehive.util.Utility</text>
</a>
</g>
</g>
<!-- Node1&#45;&gt;Node19 -->
<g id="edge18_Node000001_Node000019" class="edge">
<title>Node1&#45;&gt;Node19</title>
<g id="a_edge18_Node000001_Node000019"><a xlink:title=" ">
<path fill="none" stroke="#63b8ff" d="M4001.57,-111.32C4368.26,-107.79 5373.22,-94.4 5701.83,-51.62 5717.8,-49.54 5734.87,-46.17 5750.61,-42.57"/>
<polygon fill="#63b8ff" stroke="#63b8ff" points="5751.41,-45.98 5760.33,-40.28 5749.8,-39.17 5751.41,-45.98"/>
</a>
</g>
</g>
<!-- Node20 -->
<g id="Node000020" class="node">
<title>Node20</title>
<g id="a_Node000020"><a xlink:title=" ">
<ellipse fill="#e0e0e0" stroke="#999999" cx="6014.83" cy="-25.81" rx="88.21" ry="15.73"/>
<text xml:space="preserve" text-anchor="middle" x="6014.83" y="-21.53" font-family="Helvetica,sans-Serif" font-size="12.00">java.util.ArrayDeque</text>
</a>
</g>
</g>
<!-- Node1&#45;&gt;Node20 -->
<g id="edge19_Node000001_Node000020" class="edge">
<title>Node1&#45;&gt;Node20</title>
<g id="a_edge19_Node000001_Node000020"><a xlink:title=" ">
<path fill="none" stroke="#63b8ff" d="M4002.06,-112.31C4398.4,-111.34 5546.39,-103.97 5917.83,-51.62 5931.96,-49.63 5947,-46.36 5960.91,-42.85"/>
<polygon fill="#63b8ff" stroke="#63b8ff" points="5961.54,-46.3 5970.32,-40.38 5959.76,-39.53 5961.54,-46.3"/>
</a>
</g>
</g>
<!-- Node21 -->
<g id="Node000021" class="node">
<title>Node21</title>
<g id="a_Node000021"><a xlink:title=" ">
<ellipse fill="#e0e0e0" stroke="#999999" cx="6188.83" cy="-25.81" rx="68.06" ry="15.73"/>
<text xml:space="preserve" text-anchor="middle" x="6188.83" y="-21.53" font-family="Helvetica,sans-Serif" font-size="12.00">java.util.Deque</text>
</a>
</g>
</g>
<!-- Node1&#45;&gt;Node21 -->
<g id="edge20_Node000001_Node000021" class="edge">
<title>Node1&#45;&gt;Node21</title>
<g id="a_edge20_Node000001_Node000021"><a xlink:title=" ">
<path fill="none" stroke="#63b8ff" d="M4001.53,-111C4455.57,-105.91 5904.75,-87.03 6111.83,-51.62 6122.62,-49.77 6133.98,-46.75 6144.56,-43.44"/>
<polygon fill="#63b8ff" stroke="#63b8ff" points="6145.4,-46.85 6153.8,-40.4 6143.21,-40.2 6145.4,-46.85"/>
</a>
</g>
</g>
<!-- Node22 -->
<g id="Node000022" class="node">
<title>Node22</title>
<g id="a_Node000022"><a xlink:title=" ">
<ellipse fill="#e0e0e0" stroke="#999999" cx="6343.83" cy="-25.81" rx="68.59" ry="15.73"/>
<text xml:space="preserve" text-anchor="middle" x="6343.83" y="-21.53" font-family="Helvetica,sans-Serif" font-size="12.00">java.util.Iterator</text>
</a>
</g>
</g>
<!-- Node1&#45;&gt;Node22 -->
<g id="edge21_Node000001_Node000022" class="edge">
<title>Node1&#45;&gt;Node22</title>
<g id="a_edge21_Node000001_Node000022"><a xlink:title=" ">
<path fill="none" stroke="#63b8ff" d="M4001.67,-111.22C4476.15,-106.71 6043.04,-89.09 6265.83,-51.62 6276.86,-49.76 6288.47,-46.71 6299.27,-43.36"/>
<polygon fill="#63b8ff" stroke="#63b8ff" points="6300.32,-46.7 6308.74,-40.28 6298.15,-40.05 6300.32,-46.7"/>
</a>
</g>
</g>
<!-- Node23 -->
<g id="Node000023" class="node">
<title>Node23</title>
<g id="a_Node000023"><a xlink:title=" ">
<ellipse fill="#e0e0e0" stroke="#999999" cx="6548.83" cy="-25.81" rx="118.44" ry="15.73"/>
<text xml:space="preserve" text-anchor="middle" x="6548.83" y="-21.53" font-family="Helvetica,sans-Serif" font-size="12.00">java.util.concurrent.TimeUnit</text>
</a>
</g>
</g>
<!-- Node1&#45;&gt;Node23 -->
<g id="edge22_Node000001_Node000023" class="edge">
<title>Node1&#45;&gt;Node23</title>
<g id="a_edge22_Node000001_Node000023"><a xlink:title=" ">
<path fill="none" stroke="#63b8ff" d="M4001.81,-112.23C4460.15,-111.07 5946.36,-103.34 6421.83,-51.62 6441.07,-49.53 6461.73,-46.03 6480.69,-42.32"/>
<polygon fill="#63b8ff" stroke="#63b8ff" points="6481.34,-45.76 6490.45,-40.35 6479.96,-38.9 6481.34,-45.76"/>
</a>
</g>
</g>
</g>
</svg>
