<?xml version="1.0" encoding="UTF-8" standalone="no"?>
<!DOCTYPE svg PUBLIC "-//W3C//DTD SVG 1.1//EN"
 "http://www.w3.org/Graphics/SVG/1.1/DTD/svg11.dtd">
<!-- Generated by graphviz version 14.0.1 (20251006.0113)
 -->
<!-- Title: java/com/runehive/game/world/entity/combat/effect/impl/CombatTeleblockEffect.java Pages: 1 -->
<svg width="1980pt" height="167pt"
 viewBox="0.00 0.00 1980.00 167.00" xmlns="http://www.w3.org/2000/svg" xmlns:xlink="http://www.w3.org/1999/xlink">
<g id="graph0" class="graph" transform="scale(1 1) rotate(0) translate(4 163.39)">
<title>java/com/runehive/game/world/entity/combat/effect/impl/CombatTeleblockEffect.java</title>
<!-- Node1 -->
<g id="Node000001" class="node">
<title>Node1</title>
<g id="a_Node000001"><a xlink:title=" ">
<ellipse fill="#999999" stroke="#666666" cx="994.25" cy="-123.5" rx="136.47" ry="35.89"/>
<text xml:space="preserve" text-anchor="start" x="905.75" y="-133.48" font-family="Helvetica,sans-Serif" font-size="12.00">java/com/runehive/game</text>
<text xml:space="preserve" text-anchor="start" x="905.75" y="-119.23" font-family="Helvetica,sans-Serif" font-size="12.00">/world/entity/combat/effect</text>
<text xml:space="preserve" text-anchor="middle" x="994.25" y="-104.98" font-family="Helvetica,sans-Serif" font-size="12.00">/impl/CombatTeleblockEffect.java</text>
</a>
</g>
</g>
<!-- Node2 -->
<g id="Node000002" class="node">
<title>Node2</title>
<g id="a_Node000002"><a xlink:title=" ">
<ellipse fill="#e0e0e0" stroke="#999999" cx="176.25" cy="-25.81" rx="176.25" ry="25.81"/>
<text xml:space="preserve" text-anchor="start" x="59.62" y="-28.66" font-family="Helvetica,sans-Serif" font-size="12.00">com.runehive.game.world.entity.mob.prayer.</text>
<text xml:space="preserve" text-anchor="middle" x="176.25" y="-14.41" font-family="Helvetica,sans-Serif" font-size="12.00">Prayer</text>
</a>
</g>
</g>
<!-- Node1&#45;&gt;Node2 -->
<g id="edge1_Node000001_Node000002" class="edge">
<title>Node1&#45;&gt;Node2</title>
<g id="a_edge1_Node000001_Node000002"><a xlink:title=" ">
<path fill="none" stroke="#63b8ff" d="M868.35,-109.22C740.54,-95.55 536.99,-73.24 361.25,-51.62 345.83,-49.72 329.7,-47.67 313.66,-45.58"/>
<polygon fill="#63b8ff" stroke="#63b8ff" points="314.46,-42.15 304.09,-44.32 313.55,-49.09 314.46,-42.15"/>
</a>
</g>
</g>
<!-- Node3 -->
<g id="Node000003" class="node">
<title>Node3</title>
<g id="a_Node000003"><a xlink:title=" ">
<ellipse fill="#e0e0e0" stroke="#999999" cx="489.25" cy="-25.81" rx="118.97" ry="25.81"/>
<text xml:space="preserve" text-anchor="start" x="413.12" y="-28.66" font-family="Helvetica,sans-Serif" font-size="12.00">com.runehive.net.packet.out.</text>
<text xml:space="preserve" text-anchor="middle" x="489.25" y="-14.41" font-family="Helvetica,sans-Serif" font-size="12.00">SendMessage</text>
</a>
</g>
</g>
<!-- Node1&#45;&gt;Node3 -->
<g id="edge2_Node000001_Node000003" class="edge">
<title>Node1&#45;&gt;Node3</title>
<g id="a_edge2_Node000001_Node000003"><a xlink:title=" ">
<path fill="none" stroke="#63b8ff" d="M884.1,-101.96C808.91,-87.9 707.03,-68.76 617.25,-51.62 607.63,-49.78 597.62,-47.86 587.61,-45.93"/>
<polygon fill="#63b8ff" stroke="#63b8ff" points="588.3,-42.5 577.82,-44.04 586.98,-49.37 588.3,-42.5"/>
</a>
</g>
</g>
<!-- Node4 -->
<g id="Node000004" class="node">
<title>Node4</title>
<g id="a_Node000004"><a xlink:title=" ">
<ellipse fill="#e0e0e0" stroke="#999999" cx="810.25" cy="-25.81" rx="184.2" ry="25.81"/>
<text xml:space="preserve" text-anchor="start" x="688" y="-28.66" font-family="Helvetica,sans-Serif" font-size="12.00">com.runehive.game.world.entity.combat.effect.</text>
<text xml:space="preserve" text-anchor="middle" x="810.25" y="-14.41" font-family="Helvetica,sans-Serif" font-size="12.00">CombatEffect</text>
</a>
</g>
</g>
<!-- Node1&#45;&gt;Node4 -->
<g id="edge3_Node000001_Node000004" class="edge">
<title>Node1&#45;&gt;Node4</title>
<g id="a_edge3_Node000001_Node000004"><a xlink:title=" ">
<path fill="none" stroke="#63b8ff" d="M933.49,-90.91C912.17,-79.82 888.31,-67.41 867.3,-56.48"/>
<polygon fill="#63b8ff" stroke="#63b8ff" points="869.07,-53.46 858.59,-51.95 865.84,-59.67 869.07,-53.46"/>
</a>
</g>
</g>
<!-- Node5 -->
<g id="Node000005" class="node">
<title>Node5</title>
<g id="a_Node000005"><a xlink:title=" ">
<ellipse fill="#e0e0e0" stroke="#999999" cx="1179.25" cy="-25.81" rx="167.23" ry="15.73"/>
<text xml:space="preserve" text-anchor="middle" x="1179.25" y="-21.53" font-family="Helvetica,sans-Serif" font-size="12.00">com.runehive.game.world.entity.mob.Mob</text>
</a>
</g>
</g>
<!-- Node1&#45;&gt;Node5 -->
<g id="edge4_Node000001_Node000005" class="edge">
<title>Node1&#45;&gt;Node5</title>
<g id="a_edge4_Node000001_Node000005"><a xlink:title=" ">
<path fill="none" stroke="#63b8ff" d="M1055.08,-91.04C1083.09,-76.55 1115.51,-59.78 1140.2,-47.01"/>
<polygon fill="#63b8ff" stroke="#63b8ff" points="1141.65,-50.2 1148.93,-42.49 1138.44,-43.98 1141.65,-50.2"/>
</a>
</g>
</g>
<!-- Node6 -->
<g id="Node000006" class="node">
<title>Node6</title>
<g id="a_Node000006"><a xlink:title=" ">
<ellipse fill="#e0e0e0" stroke="#999999" cx="1540.25" cy="-25.81" rx="175.72" ry="25.81"/>
<text xml:space="preserve" text-anchor="start" x="1424" y="-28.66" font-family="Helvetica,sans-Serif" font-size="12.00">com.runehive.game.world.entity.mob.player.</text>
<text xml:space="preserve" text-anchor="middle" x="1540.25" y="-14.41" font-family="Helvetica,sans-Serif" font-size="12.00">Player</text>
</a>
</g>
</g>
<!-- Node1&#45;&gt;Node6 -->
<g id="edge5_Node000001_Node000006" class="edge">
<title>Node1&#45;&gt;Node6</title>
<g id="a_edge5_Node000001_Node000006"><a xlink:title=" ">
<path fill="none" stroke="#63b8ff" d="M1106.72,-102.79C1197.46,-86.89 1324.91,-64.55 1418.13,-48.21"/>
<polygon fill="#63b8ff" stroke="#63b8ff" points="1418.59,-51.69 1427.83,-46.51 1417.38,-44.79 1418.59,-51.69"/>
</a>
</g>
</g>
<!-- Node7 -->
<g id="Node000007" class="node">
<title>Node7</title>
<g id="a_Node000007"><a xlink:title=" ">
<ellipse fill="#e0e0e0" stroke="#999999" cx="1853.25" cy="-25.81" rx="118.97" ry="25.81"/>
<text xml:space="preserve" text-anchor="start" x="1777.12" y="-28.66" font-family="Helvetica,sans-Serif" font-size="12.00">com.runehive.net.packet.out.</text>
<text xml:space="preserve" text-anchor="middle" x="1853.25" y="-14.41" font-family="Helvetica,sans-Serif" font-size="12.00">SendWidget</text>
</a>
</g>
</g>
<!-- Node1&#45;&gt;Node7 -->
<g id="edge6_Node000001_Node000007" class="edge">
<title>Node1&#45;&gt;Node7</title>
<g id="a_edge6_Node000001_Node000007"><a xlink:title=" ">
<path fill="none" stroke="#63b8ff" d="M1125.76,-113.52C1272.45,-102.63 1516.57,-81.89 1725.25,-51.62 1735.72,-50.1 1746.64,-48.31 1757.49,-46.39"/>
<polygon fill="#63b8ff" stroke="#63b8ff" points="1758.04,-49.85 1767.26,-44.63 1756.8,-42.96 1758.04,-49.85"/>
</a>
</g>
</g>
</g>
</svg>
