<?xml version="1.0" encoding="UTF-8" standalone="no"?>
<!DOCTYPE svg PUBLIC "-//W3C//DTD SVG 1.1//EN"
 "http://www.w3.org/Graphics/SVG/1.1/DTD/svg11.dtd">
<!-- Generated by graphviz version 14.0.1 (20251006.0113)
 -->
<!-- Title: java/com/runehive/content/store/currency/CurrencyType.java Pages: 1 -->
<svg width="1507pt" height="147pt"
 viewBox="0.00 0.00 1507.00 147.00" xmlns="http://www.w3.org/2000/svg" xmlns:xlink="http://www.w3.org/1999/xlink">
<g id="graph0" class="graph" transform="scale(1 1) rotate(0) translate(4 143.24)">
<title>java/com/runehive/content/store/currency/CurrencyType.java</title>
<!-- Node1 -->
<g id="Node000001" class="node">
<title>Node1</title>
<g id="a_Node000001"><a xlink:title=" ">
<ellipse fill="#999999" stroke="#666666" cx="934.44" cy="-113.43" rx="139.65" ry="25.81"/>
<text xml:space="preserve" text-anchor="start" x="843.69" y="-116.28" font-family="Helvetica,sans-Serif" font-size="12.00">java/com/runehive/content</text>
<text xml:space="preserve" text-anchor="middle" x="934.44" y="-102.03" font-family="Helvetica,sans-Serif" font-size="12.00">/store/currency/CurrencyType.java</text>
</a>
</g>
</g>
<!-- Node2 -->
<g id="Node000002" class="node">
<title>Node2</title>
<g id="a_Node000002"><a xlink:title=" ">
<ellipse fill="#e0e0e0" stroke="#999999" cx="118.44" cy="-25.81" rx="118.44" ry="25.81"/>
<text xml:space="preserve" text-anchor="start" x="42.69" y="-28.66" font-family="Helvetica,sans-Serif" font-size="12.00">com.google.common.collect.</text>
<text xml:space="preserve" text-anchor="middle" x="118.44" y="-14.41" font-family="Helvetica,sans-Serif" font-size="12.00">ImmutableSet</text>
</a>
</g>
</g>
<!-- Node1&#45;&gt;Node2 -->
<g id="edge1_Node000001_Node000002" class="edge">
<title>Node1&#45;&gt;Node2</title>
<g id="a_edge1_Node000001_Node000002"><a xlink:title=" ">
<path fill="none" stroke="#63b8ff" d="M802.21,-104.89C663.15,-96 438.21,-78.88 245.44,-51.62 235.04,-50.15 224.2,-48.39 213.43,-46.49"/>
<polygon fill="#63b8ff" stroke="#63b8ff" points="214.21,-43.07 203.75,-44.74 212.96,-49.96 214.21,-43.07"/>
</a>
</g>
</g>
<!-- Node3 -->
<g id="Node000003" class="node">
<title>Node3</title>
<g id="a_Node000003"><a xlink:title=" ">
<ellipse fill="#e0e0e0" stroke="#999999" cx="424.44" cy="-25.81" rx="169.88" ry="15.73"/>
<text xml:space="preserve" text-anchor="middle" x="424.44" y="-21.53" font-family="Helvetica,sans-Serif" font-size="12.00">com.runehive.content.store.currency.impl.*</text>
</a>
</g>
</g>
<!-- Node1&#45;&gt;Node3 -->
<g id="edge2_Node000001_Node000003" class="edge">
<title>Node1&#45;&gt;Node3</title>
<g id="a_edge2_Node000001_Node000003"><a xlink:title=" ">
<path fill="none" stroke="#63b8ff" d="M832.77,-95.36C739.97,-79.78 604.08,-56.97 514.96,-42.01"/>
<polygon fill="#63b8ff" stroke="#63b8ff" points="515.72,-38.58 505.28,-40.38 514.56,-45.49 515.72,-38.58"/>
</a>
</g>
</g>
<!-- Node4 -->
<g id="Node000004" class="node">
<title>Node4</title>
<g id="a_Node000004"><a xlink:title=" ">
<ellipse fill="#e0e0e0" stroke="#999999" cx="788.44" cy="-25.81" rx="175.72" ry="25.81"/>
<text xml:space="preserve" text-anchor="start" x="672.19" y="-28.66" font-family="Helvetica,sans-Serif" font-size="12.00">com.runehive.game.world.entity.mob.player.</text>
<text xml:space="preserve" text-anchor="middle" x="788.44" y="-14.41" font-family="Helvetica,sans-Serif" font-size="12.00">Player</text>
</a>
</g>
</g>
<!-- Node1&#45;&gt;Node4 -->
<g id="edge3_Node000001_Node000004" class="edge">
<title>Node1&#45;&gt;Node4</title>
<g id="a_edge3_Node000001_Node000004"><a xlink:title=" ">
<path fill="none" stroke="#63b8ff" d="M893.38,-88.35C876.73,-78.59 857.32,-67.2 839.75,-56.9"/>
<polygon fill="#63b8ff" stroke="#63b8ff" points="841.91,-54.11 831.51,-52.07 838.36,-60.14 841.91,-54.11"/>
</a>
</g>
</g>
<!-- Node5 -->
<g id="Node000005" class="node">
<title>Node5</title>
<g id="a_Node000005"><a xlink:title=" ">
<ellipse fill="#e0e0e0" stroke="#999999" cx="1081.44" cy="-25.81" rx="98.82" ry="15.73"/>
<text xml:space="preserve" text-anchor="middle" x="1081.44" y="-21.53" font-family="Helvetica,sans-Serif" font-size="12.00">com.runehive.util.Utility</text>
</a>
</g>
</g>
<!-- Node1&#45;&gt;Node5 -->
<g id="edge4_Node000001_Node000005" class="edge">
<title>Node1&#45;&gt;Node5</title>
<g id="a_edge4_Node000001_Node000005"><a xlink:title=" ">
<path fill="none" stroke="#63b8ff" d="M975.78,-88.35C998.11,-75.34 1025.38,-59.46 1046.62,-47.09"/>
<polygon fill="#63b8ff" stroke="#63b8ff" points="1048.32,-50.15 1055.2,-42.09 1044.8,-44.1 1048.32,-50.15"/>
</a>
</g>
</g>
<!-- Node6 -->
<g id="Node000006" class="node">
<title>Node6</title>
<g id="a_Node000006"><a xlink:title=" ">
<ellipse fill="#e0e0e0" stroke="#999999" cx="1265.44" cy="-25.81" rx="67" ry="15.73"/>
<text xml:space="preserve" text-anchor="middle" x="1265.44" y="-21.53" font-family="Helvetica,sans-Serif" font-size="12.00">java.util.Arrays</text>
</a>
</g>
</g>
<!-- Node1&#45;&gt;Node6 -->
<g id="edge5_Node000001_Node000006" class="edge">
<title>Node1&#45;&gt;Node6</title>
<g id="a_edge5_Node000001_Node000006"><a xlink:title=" ">
<path fill="none" stroke="#63b8ff" d="M1023.11,-93.15C1072.36,-81.98 1134.58,-67.09 1189.44,-51.62 1198.75,-48.99 1208.63,-45.96 1218.07,-42.93"/>
<polygon fill="#63b8ff" stroke="#63b8ff" points="1219.04,-46.3 1227.46,-39.87 1216.87,-39.64 1219.04,-46.3"/>
</a>
</g>
</g>
<!-- Node7 -->
<g id="Node000007" class="node">
<title>Node7</title>
<g id="a_Node000007"><a xlink:title=" ">
<ellipse fill="#e0e0e0" stroke="#999999" cx="1424.44" cy="-25.81" rx="74.42" ry="15.73"/>
<text xml:space="preserve" text-anchor="middle" x="1424.44" y="-21.53" font-family="Helvetica,sans-Serif" font-size="12.00">java.util.Optional</text>
</a>
</g>
</g>
<!-- Node1&#45;&gt;Node7 -->
<g id="edge6_Node000001_Node000007" class="edge">
<title>Node1&#45;&gt;Node7</title>
<g id="a_edge6_Node000001_Node000007"><a xlink:title=" ">
<path fill="none" stroke="#63b8ff" d="M1052.36,-99.31C1134.06,-89.13 1245.04,-73.11 1341.44,-51.62 1352.45,-49.16 1364.13,-46.02 1375.15,-42.8"/>
<polygon fill="#63b8ff" stroke="#63b8ff" points="1375.87,-46.23 1384.44,-40.01 1373.86,-39.53 1375.87,-46.23"/>
</a>
</g>
</g>
</g>
</svg>
