<?xml version="1.0" encoding="UTF-8" standalone="no"?>
<!DOCTYPE svg PUBLIC "-//W3C//DTD SVG 1.1//EN"
 "http://www.w3.org/Graphics/SVG/1.1/DTD/svg11.dtd">
<!-- Generated by graphviz version 14.0.1 (20251006.0113)
 -->
<!-- Title: java/com/runehive/game/world/pathfinding/path/impl/DijkstraPathFinder.java Pages: 1 -->
<svg width="3108pt" height="167pt"
 viewBox="0.00 0.00 3108.00 167.00" xmlns="http://www.w3.org/2000/svg" xmlns:xlink="http://www.w3.org/1999/xlink">
<g id="graph0" class="graph" transform="scale(1 1) rotate(0) translate(4 163.39)">
<title>java/com/runehive/game/world/pathfinding/path/impl/DijkstraPathFinder.java</title>
<!-- Node1 -->
<g id="Node000001" class="node">
<title>Node1</title>
<g id="a_Node000001"><a xlink:title=" ">
<ellipse fill="#999999" stroke="#666666" cx="1920.49" cy="-123.5" rx="119.5" ry="35.89"/>
<text xml:space="preserve" text-anchor="start" x="1843.99" y="-133.48" font-family="Helvetica,sans-Serif" font-size="12.00">java/com/runehive/game</text>
<text xml:space="preserve" text-anchor="start" x="1843.99" y="-119.23" font-family="Helvetica,sans-Serif" font-size="12.00">/world/pathfinding/path</text>
<text xml:space="preserve" text-anchor="middle" x="1920.49" y="-104.98" font-family="Helvetica,sans-Serif" font-size="12.00">/impl/DijkstraPathFinder.java</text>
</a>
</g>
</g>
<!-- Node2 -->
<g id="Node000002" class="node">
<title>Node2</title>
<g id="a_Node000002"><a xlink:title=" ">
<ellipse fill="#e0e0e0" stroke="#999999" cx="110.49" cy="-25.81" rx="110.49" ry="25.81"/>
<text xml:space="preserve" text-anchor="start" x="40.36" y="-28.66" font-family="Helvetica,sans-Serif" font-size="12.00">com.runehive.game.world.</text>
<text xml:space="preserve" text-anchor="middle" x="110.49" y="-14.41" font-family="Helvetica,sans-Serif" font-size="12.00">Interactable</text>
</a>
</g>
</g>
<!-- Node1&#45;&gt;Node2 -->
<g id="edge1_Node000001_Node000002" class="edge">
<title>Node1&#45;&gt;Node2</title>
<g id="a_edge1_Node000001_Node000002"><a xlink:title=" ">
<path fill="none" stroke="#63b8ff" d="M1801.31,-120.02C1468.73,-112.68 535.05,-89.24 230.49,-51.62 220.14,-50.34 209.37,-48.64 198.7,-46.74"/>
<polygon fill="#63b8ff" stroke="#63b8ff" points="199.6,-43.34 189.13,-44.95 198.32,-50.23 199.6,-43.34"/>
</a>
</g>
</g>
<!-- Node3 -->
<g id="Node000003" class="node">
<title>Node3</title>
<g id="a_Node000003"><a xlink:title=" ">
<ellipse fill="#e0e0e0" stroke="#999999" cx="406.49" cy="-25.81" rx="167.23" ry="15.73"/>
<text xml:space="preserve" text-anchor="middle" x="406.49" y="-21.53" font-family="Helvetica,sans-Serif" font-size="12.00">com.runehive.game.world.entity.mob.Mob</text>
</a>
</g>
</g>
<!-- Node1&#45;&gt;Node3 -->
<g id="edge2_Node000001_Node000003" class="edge">
<title>Node1&#45;&gt;Node3</title>
<g id="a_edge2_Node000001_Node000003"><a xlink:title=" ">
<path fill="none" stroke="#63b8ff" d="M1801.19,-119.67C1567.06,-113.34 1031.09,-95.04 582.49,-51.62 555.61,-49.02 526.55,-45.3 499.93,-41.52"/>
<polygon fill="#63b8ff" stroke="#63b8ff" points="500.58,-38.08 490.18,-40.12 499.58,-45.01 500.58,-38.08"/>
</a>
</g>
</g>
<!-- Node4 -->
<g id="Node000004" class="node">
<title>Node4</title>
<g id="a_Node000004"><a xlink:title=" ">
<ellipse fill="#e0e0e0" stroke="#999999" cx="782.49" cy="-25.81" rx="190.57" ry="15.73"/>
<text xml:space="preserve" text-anchor="middle" x="782.49" y="-21.53" font-family="Helvetica,sans-Serif" font-size="12.00">com.runehive.game.world.pathfinding.path.Path</text>
</a>
</g>
</g>
<!-- Node1&#45;&gt;Node4 -->
<g id="edge3_Node000001_Node000004" class="edge">
<title>Node1&#45;&gt;Node4</title>
<g id="a_edge3_Node000001_Node000004"><a xlink:title=" ">
<path fill="none" stroke="#63b8ff" d="M1803.71,-115.49C1626.13,-104.41 1277.64,-81.06 982.49,-51.62 952.62,-48.64 920.31,-44.87 890.55,-41.18"/>
<polygon fill="#63b8ff" stroke="#63b8ff" points="891.13,-37.72 880.78,-39.95 890.26,-44.67 891.13,-37.72"/>
</a>
</g>
</g>
<!-- Node5 -->
<g id="Node000005" class="node">
<title>Node5</title>
<g id="a_Node000005"><a xlink:title=" ">
<ellipse fill="#e0e0e0" stroke="#999999" cx="1164.49" cy="-25.81" rx="173.06" ry="25.81"/>
<text xml:space="preserve" text-anchor="start" x="1050.11" y="-28.66" font-family="Helvetica,sans-Serif" font-size="12.00">com.runehive.game.world.pathfinding.path.</text>
<text xml:space="preserve" text-anchor="middle" x="1164.49" y="-14.41" font-family="Helvetica,sans-Serif" font-size="12.00">PathFinder</text>
</a>
</g>
</g>
<!-- Node1&#45;&gt;Node5 -->
<g id="edge4_Node000001_Node000005" class="edge">
<title>Node1&#45;&gt;Node5</title>
<g id="a_edge4_Node000001_Node000005"><a xlink:title=" ">
<path fill="none" stroke="#63b8ff" d="M1810.13,-109.29C1694.52,-95.36 1507.67,-72.56 1346.49,-51.62 1331.6,-49.69 1316.03,-47.62 1300.54,-45.55"/>
<polygon fill="#63b8ff" stroke="#63b8ff" points="1301.16,-42.1 1290.78,-44.24 1300.23,-49.04 1301.16,-42.1"/>
</a>
</g>
</g>
<!-- Node6 -->
<g id="Node000006" class="node">
<title>Node6</title>
<g id="a_Node000006"><a xlink:title=" ">
<ellipse fill="#e0e0e0" stroke="#999999" cx="1497.49" cy="-25.81" rx="142.31" ry="25.81"/>
<text xml:space="preserve" text-anchor="start" x="1404.86" y="-28.66" font-family="Helvetica,sans-Serif" font-size="12.00">com.runehive.game.world.position.</text>
<text xml:space="preserve" text-anchor="middle" x="1497.49" y="-14.41" font-family="Helvetica,sans-Serif" font-size="12.00">Position</text>
</a>
</g>
</g>
<!-- Node1&#45;&gt;Node6 -->
<g id="edge5_Node000001_Node000006" class="edge">
<title>Node1&#45;&gt;Node6</title>
<g id="a_edge5_Node000001_Node000006"><a xlink:title=" ">
<path fill="none" stroke="#63b8ff" d="M1826.08,-101.15C1757.55,-85.64 1665.07,-64.72 1595.68,-49.02"/>
<polygon fill="#63b8ff" stroke="#63b8ff" points="1596.75,-45.68 1586.23,-46.89 1595.21,-52.51 1596.75,-45.68"/>
</a>
</g>
</g>
<!-- Node7 -->
<g id="Node000007" class="node">
<title>Node7</title>
<g id="a_Node000007"><a xlink:title=" ">
<ellipse fill="#e0e0e0" stroke="#999999" cx="1794.49" cy="-25.81" rx="136.47" ry="25.81"/>
<text xml:space="preserve" text-anchor="start" x="1705.99" y="-28.66" font-family="Helvetica,sans-Serif" font-size="12.00">com.runehive.game.world.region.</text>
<text xml:space="preserve" text-anchor="middle" x="1794.49" y="-14.41" font-family="Helvetica,sans-Serif" font-size="12.00">Region</text>
</a>
</g>
</g>
<!-- Node1&#45;&gt;Node7 -->
<g id="edge6_Node000001_Node000007" class="edge">
<title>Node1&#45;&gt;Node7</title>
<g id="a_edge6_Node000001_Node000007"><a xlink:title=" ">
<path fill="none" stroke="#63b8ff" d="M1877.48,-89.84C1863.92,-79.55 1848.99,-68.2 1835.57,-58.01"/>
<polygon fill="#63b8ff" stroke="#63b8ff" points="1837.85,-55.35 1827.77,-52.09 1833.61,-60.92 1837.85,-55.35"/>
</a>
</g>
</g>
<!-- Node8 -->
<g id="Node000008" class="node">
<title>Node8</title>
<g id="a_Node000008"><a xlink:title=" ">
<ellipse fill="#e0e0e0" stroke="#999999" cx="2047.49" cy="-25.81" rx="98.82" ry="15.73"/>
<text xml:space="preserve" text-anchor="middle" x="2047.49" y="-21.53" font-family="Helvetica,sans-Serif" font-size="12.00">com.runehive.util.Utility</text>
</a>
</g>
</g>
<!-- Node1&#45;&gt;Node8 -->
<g id="edge7_Node000001_Node000008" class="edge">
<title>Node1&#45;&gt;Node8</title>
<g id="a_edge7_Node000001_Node000008"><a xlink:title=" ">
<path fill="none" stroke="#63b8ff" d="M1963.84,-89.84C1981.98,-76.17 2002.57,-60.66 2018.78,-48.44"/>
<polygon fill="#63b8ff" stroke="#63b8ff" points="2020.68,-51.39 2026.56,-42.58 2016.46,-45.8 2020.68,-51.39"/>
</a>
</g>
</g>
<!-- Node9 -->
<g id="Node000009" class="node">
<title>Node9</title>
<g id="a_Node000009"><a xlink:title=" ">
<ellipse fill="#e0e0e0" stroke="#999999" cx="2240.49" cy="-25.81" rx="76.01" ry="15.73"/>
<text xml:space="preserve" text-anchor="middle" x="2240.49" y="-21.53" font-family="Helvetica,sans-Serif" font-size="12.00">java.util.ArrayList</text>
</a>
</g>
</g>
<!-- Node1&#45;&gt;Node9 -->
<g id="edge8_Node000001_Node000009" class="edge">
<title>Node1&#45;&gt;Node9</title>
<g id="a_edge8_Node000001_Node000009"><a xlink:title=" ">
<path fill="none" stroke="#63b8ff" d="M2004.14,-97.49C2062.33,-80.09 2138.12,-57.42 2187.99,-42.51"/>
<polygon fill="#63b8ff" stroke="#63b8ff" points="2188.81,-45.92 2197.39,-39.7 2186.8,-39.21 2188.81,-45.92"/>
</a>
</g>
</g>
<!-- Node10 -->
<g id="Node000010" class="node">
<title>Node10</title>
<g id="a_Node000010"><a xlink:title=" ">
<ellipse fill="#e0e0e0" stroke="#999999" cx="2402.49" cy="-25.81" rx="68.06" ry="15.73"/>
<text xml:space="preserve" text-anchor="middle" x="2402.49" y="-21.53" font-family="Helvetica,sans-Serif" font-size="12.00">java.util.Deque</text>
</a>
</g>
</g>
<!-- Node1&#45;&gt;Node10 -->
<g id="edge9_Node000001_Node000010" class="edge">
<title>Node1&#45;&gt;Node10</title>
<g id="a_edge9_Node000001_Node000010"><a xlink:title=" ">
<path fill="none" stroke="#63b8ff" d="M2028.35,-107.78C2110.43,-95.58 2225.88,-76.26 2325.49,-51.62 2335.29,-49.19 2345.67,-46.17 2355.52,-43.08"/>
<polygon fill="#63b8ff" stroke="#63b8ff" points="2356.47,-46.45 2364.91,-40.05 2354.32,-39.79 2356.47,-46.45"/>
</a>
</g>
</g>
<!-- Node11 -->
<g id="Node000011" class="node">
<title>Node11</title>
<g id="a_Node000011"><a xlink:title=" ">
<ellipse fill="#e0e0e0" stroke="#999999" cx="2569.49" cy="-25.81" rx="81.32" ry="15.73"/>
<text xml:space="preserve" text-anchor="middle" x="2569.49" y="-21.53" font-family="Helvetica,sans-Serif" font-size="12.00">java.util.LinkedList</text>
</a>
</g>
</g>
<!-- Node1&#45;&gt;Node11 -->
<g id="edge10_Node000001_Node000011" class="edge">
<title>Node1&#45;&gt;Node11</title>
<g id="a_edge10_Node000001_Node000011"><a xlink:title=" ">
<path fill="none" stroke="#63b8ff" d="M2035.01,-112.81C2148.55,-102.07 2327.09,-82.12 2479.49,-51.62 2491.65,-49.18 2504.59,-45.99 2516.75,-42.7"/>
<polygon fill="#63b8ff" stroke="#63b8ff" points="2517.5,-46.12 2526.2,-40.08 2515.63,-39.38 2517.5,-46.12"/>
</a>
</g>
</g>
<!-- Node12 -->
<g id="Node000012" class="node">
<title>Node12</title>
<g id="a_Node000012"><a xlink:title=" ">
<ellipse fill="#e0e0e0" stroke="#999999" cx="2724.49" cy="-25.81" rx="55.86" ry="15.73"/>
<text xml:space="preserve" text-anchor="middle" x="2724.49" y="-21.53" font-family="Helvetica,sans-Serif" font-size="12.00">java.util.List</text>
</a>
</g>
</g>
<!-- Node1&#45;&gt;Node12 -->
<g id="edge11_Node000001_Node000012" class="edge">
<title>Node1&#45;&gt;Node12</title>
<g id="a_edge11_Node000001_Node000012"><a xlink:title=" ">
<path fill="none" stroke="#63b8ff" d="M2040.15,-120.87C2187.63,-116.61 2445.05,-101.85 2659.49,-51.62 2667.99,-49.63 2676.88,-46.78 2685.25,-43.72"/>
<polygon fill="#63b8ff" stroke="#63b8ff" points="2686.4,-47.03 2694.47,-40.17 2683.88,-40.5 2686.4,-47.03"/>
</a>
</g>
</g>
<!-- Node13 -->
<g id="Node000013" class="node">
<title>Node13</title>
<g id="a_Node000013"><a xlink:title=" ">
<ellipse fill="#e0e0e0" stroke="#999999" cx="2949.49" cy="-25.81" rx="150.79" ry="25.81"/>
<text xml:space="preserve" text-anchor="start" x="2850.86" y="-28.66" font-family="Helvetica,sans-Serif" font-size="12.00">com.runehive.game.world.entity.mob.</text>
<text xml:space="preserve" text-anchor="middle" x="2949.49" y="-14.41" font-family="Helvetica,sans-Serif" font-size="12.00">Direction.*</text>
</a>
</g>
</g>
<!-- Node1&#45;&gt;Node13 -->
<g id="edge12_Node000001_Node000013" class="edge">
<title>Node1&#45;&gt;Node13</title>
<g id="a_edge12_Node000001_Node000013"><a xlink:title=" ">
<path fill="none" stroke="#63b8ff" d="M2037.42,-115.67C2204.53,-105.28 2521.16,-83.32 2789.49,-51.62 2803.14,-50.01 2817.42,-48.1 2831.59,-46.08"/>
<polygon fill="#63b8ff" stroke="#63b8ff" points="2832.02,-49.55 2841.41,-44.65 2831.02,-42.63 2832.02,-49.55"/>
</a>
</g>
</g>
</g>
</svg>
