<?xml version="1.0" encoding="UTF-8" standalone="no"?>
<!DOCTYPE svg PUBLIC "-//W3C//DTD SVG 1.1//EN"
 "http://www.w3.org/Graphics/SVG/1.1/DTD/svg11.dtd">
<!-- Generated by graphviz version 14.0.1 (20251006.0113)
 -->
<!-- Title: java/com/runehive/game/world/cronjobs/impl/DoubleExperienceJob.java Pages: 1 -->
<svg width="1404pt" height="167pt"
 viewBox="0.00 0.00 1404.00 167.00" xmlns="http://www.w3.org/2000/svg" xmlns:xlink="http://www.w3.org/1999/xlink">
<g id="graph0" class="graph" transform="scale(1 1) rotate(0) translate(4 163.39)">
<title>java/com/runehive/game/world/cronjobs/impl/DoubleExperienceJob.java</title>
<!-- Node1 -->
<g id="Node000001" class="node">
<title>Node1</title>
<g id="a_Node000001"><a xlink:title=" ">
<ellipse fill="#999999" stroke="#666666" cx="673.27" cy="-123.5" rx="159.28" ry="35.89"/>
<text xml:space="preserve" text-anchor="start" x="568.65" y="-133.48" font-family="Helvetica,sans-Serif" font-size="12.00">java/com/runehive/game</text>
<text xml:space="preserve" text-anchor="start" x="568.65" y="-119.23" font-family="Helvetica,sans-Serif" font-size="12.00">/world/cronjobs/impl/DoubleExperience</text>
<text xml:space="preserve" text-anchor="middle" x="673.27" y="-104.98" font-family="Helvetica,sans-Serif" font-size="12.00">Job.java</text>
</a>
</g>
</g>
<!-- Node2 -->
<g id="Node000002" class="node">
<title>Node2</title>
<g id="a_Node000002"><a xlink:title=" ">
<ellipse fill="#e0e0e0" stroke="#999999" cx="89.27" cy="-25.81" rx="89.27" ry="15.73"/>
<text xml:space="preserve" text-anchor="middle" x="89.27" y="-21.53" font-family="Helvetica,sans-Serif" font-size="12.00">com.runehive.Config</text>
</a>
</g>
</g>
<!-- Node1&#45;&gt;Node2 -->
<g id="edge1_Node000001_Node000002" class="edge">
<title>Node1&#45;&gt;Node2</title>
<g id="a_edge1_Node000001_Node000002"><a xlink:title=" ">
<path fill="none" stroke="#63b8ff" d="M533.31,-105.98C435.85,-93.52 303.1,-74.66 187.27,-51.62 174.09,-49 160.03,-45.72 146.79,-42.42"/>
<polygon fill="#63b8ff" stroke="#63b8ff" points="147.93,-39.1 137.37,-40.03 146.2,-45.89 147.93,-39.1"/>
</a>
</g>
</g>
<!-- Node3 -->
<g id="Node000003" class="node">
<title>Node3</title>
<g id="a_Node000003"><a xlink:title=" ">
<ellipse fill="#e0e0e0" stroke="#999999" cx="299.27" cy="-25.81" rx="102.53" ry="15.73"/>
<text xml:space="preserve" text-anchor="middle" x="299.27" y="-21.53" font-family="Helvetica,sans-Serif" font-size="12.00">com.runehive.RuneHive</text>
</a>
</g>
</g>
<!-- Node1&#45;&gt;Node3 -->
<g id="edge2_Node000001_Node000003" class="edge">
<title>Node1&#45;&gt;Node3</title>
<g id="a_edge2_Node000001_Node000003"><a xlink:title=" ">
<path fill="none" stroke="#63b8ff" d="M569.59,-95.98C502.71,-78.86 417.96,-57.18 361.35,-42.69"/>
<polygon fill="#63b8ff" stroke="#63b8ff" points="362.44,-39.36 351.88,-40.27 360.7,-46.14 362.44,-39.36"/>
</a>
</g>
</g>
<!-- Node4 -->
<g id="Node000004" class="node">
<title>Node4</title>
<g id="a_Node000004"><a xlink:title=" ">
<ellipse fill="#e0e0e0" stroke="#999999" cx="530.27" cy="-25.81" rx="110.49" ry="25.81"/>
<text xml:space="preserve" text-anchor="start" x="460.15" y="-28.66" font-family="Helvetica,sans-Serif" font-size="12.00">com.runehive.game.world.</text>
<text xml:space="preserve" text-anchor="middle" x="530.27" y="-14.41" font-family="Helvetica,sans-Serif" font-size="12.00">World</text>
</a>
</g>
</g>
<!-- Node1&#45;&gt;Node4 -->
<g id="edge3_Node000001_Node000004" class="edge">
<title>Node1&#45;&gt;Node4</title>
<g id="a_edge3_Node000001_Node000004"><a xlink:title=" ">
<path fill="none" stroke="#63b8ff" d="M623.26,-89.03C607.52,-78.5 590.24,-66.94 574.9,-56.68"/>
<polygon fill="#63b8ff" stroke="#63b8ff" points="577.15,-53.97 566.89,-51.31 573.25,-59.78 577.15,-53.97"/>
</a>
</g>
</g>
<!-- Node5 -->
<g id="Node000005" class="node">
<title>Node5</title>
<g id="a_Node000005"><a xlink:title=" ">
<ellipse fill="#e0e0e0" stroke="#999999" cx="817.27" cy="-25.81" rx="158.75" ry="15.73"/>
<text xml:space="preserve" text-anchor="middle" x="817.27" y="-21.53" font-family="Helvetica,sans-Serif" font-size="12.00">com.runehive.game.world.cronjobs.Job</text>
</a>
</g>
</g>
<!-- Node1&#45;&gt;Node5 -->
<g id="edge4_Node000001_Node000005" class="edge">
<title>Node1&#45;&gt;Node5</title>
<g id="a_edge4_Node000001_Node000005"><a xlink:title=" ">
<path fill="none" stroke="#63b8ff" d="M723.64,-89.03C744.17,-75.39 767.28,-60.03 785.41,-47.98"/>
<polygon fill="#63b8ff" stroke="#63b8ff" points="787.27,-50.95 793.66,-42.5 783.39,-45.12 787.27,-50.95"/>
</a>
</g>
</g>
<!-- Node6 -->
<g id="Node000006" class="node">
<title>Node6</title>
<g id="a_Node000006"><a xlink:title=" ">
<ellipse fill="#e0e0e0" stroke="#999999" cx="1093.27" cy="-25.81" rx="98.82" ry="15.73"/>
<text xml:space="preserve" text-anchor="middle" x="1093.27" y="-21.53" font-family="Helvetica,sans-Serif" font-size="12.00">org.joda.time.DateTime</text>
</a>
</g>
</g>
<!-- Node1&#45;&gt;Node6 -->
<g id="edge5_Node000001_Node000006" class="edge">
<title>Node1&#45;&gt;Node6</title>
<g id="a_edge5_Node000001_Node000006"><a xlink:title=" ">
<path fill="none" stroke="#63b8ff" d="M784.11,-97.39C843.73,-83.86 918.53,-66.87 985.27,-51.62 999.04,-48.47 1013.78,-45.09 1027.82,-41.87"/>
<polygon fill="#63b8ff" stroke="#63b8ff" points="1028.45,-45.32 1037.41,-39.67 1026.88,-38.5 1028.45,-45.32"/>
</a>
</g>
</g>
<!-- Node7 -->
<g id="Node000007" class="node">
<title>Node7</title>
<g id="a_Node000007"><a xlink:title=" ">
<ellipse fill="#e0e0e0" stroke="#999999" cx="1303.27" cy="-25.81" rx="92.98" ry="15.73"/>
<text xml:space="preserve" text-anchor="middle" x="1303.27" y="-21.53" font-family="Helvetica,sans-Serif" font-size="12.00">java.time.DayOfWeek</text>
</a>
</g>
</g>
<!-- Node1&#45;&gt;Node7 -->
<g id="edge6_Node000001_Node000007" class="edge">
<title>Node1&#45;&gt;Node7</title>
<g id="a_edge6_Node000001_Node000007"><a xlink:title=" ">
<path fill="none" stroke="#63b8ff" d="M816.51,-107.4C923.08,-95.16 1071.86,-75.97 1201.27,-51.62 1215.19,-49 1230.06,-45.68 1244.02,-42.34"/>
<polygon fill="#63b8ff" stroke="#63b8ff" points="1244.63,-45.79 1253.52,-40.02 1242.97,-38.99 1244.63,-45.79"/>
</a>
</g>
</g>
</g>
</svg>
