<?xml version="1.0" encoding="UTF-8" standalone="no"?>
<!DOCTYPE svg PUBLIC "-//W3C//DTD SVG 1.1//EN"
 "http://www.w3.org/Graphics/SVG/1.1/DTD/svg11.dtd">
<!-- Generated by graphviz version 14.0.1 (20251006.0113)
 -->
<!-- Title: java/com/runehive/game/world/entity/combat/strategy/player/special/melee/DragonClaws.java Pages: 1 -->
<svg width="3783pt" height="167pt"
 viewBox="0.00 0.00 3783.00 167.00" xmlns="http://www.w3.org/2000/svg" xmlns:xlink="http://www.w3.org/1999/xlink">
<g id="graph0" class="graph" transform="scale(1 1) rotate(0) translate(4 163.39)">
<title>java/com/runehive/game/world/entity/combat/strategy/player/special/melee/DragonClaws.java</title>
<!-- Node1 -->
<g id="Node000001" class="node">
<title>Node1</title>
<g id="a_Node000001"><a xlink:title=" ">
<ellipse fill="#999999" stroke="#666666" cx="1675.87" cy="-123.5" rx="163.52" ry="35.89"/>
<text xml:space="preserve" text-anchor="start" x="1568.24" y="-133.48" font-family="Helvetica,sans-Serif" font-size="12.00">java/com/runehive/game</text>
<text xml:space="preserve" text-anchor="start" x="1568.24" y="-119.23" font-family="Helvetica,sans-Serif" font-size="12.00">/world/entity/combat/strategy</text>
<text xml:space="preserve" text-anchor="middle" x="1675.87" y="-104.98" font-family="Helvetica,sans-Serif" font-size="12.00">/player/special/melee/DragonClaws.java</text>
</a>
</g>
</g>
<!-- Node2 -->
<g id="Node000002" class="node">
<title>Node2</title>
<g id="a_Node000002"><a xlink:title=" ">
<ellipse fill="#e0e0e0" stroke="#999999" cx="125.87" cy="-25.81" rx="125.87" ry="15.73"/>
<text xml:space="preserve" text-anchor="middle" x="125.87" y="-21.53" font-family="Helvetica,sans-Serif" font-size="12.00">com.runehive.game.Animation</text>
</a>
</g>
</g>
<!-- Node1&#45;&gt;Node2 -->
<g id="edge1_Node000001_Node000002" class="edge">
<title>Node1&#45;&gt;Node2</title>
<g id="a_edge1_Node000001_Node000002"><a xlink:title=" ">
<path fill="none" stroke="#63b8ff" d="M1512.41,-121.29C1248.36,-117.77 711.94,-104.13 260.87,-51.62 240.69,-49.27 218.98,-45.73 199,-42.06"/>
<polygon fill="#63b8ff" stroke="#63b8ff" points="199.74,-38.64 189.26,-40.23 198.44,-45.52 199.74,-38.64"/>
</a>
</g>
</g>
<!-- Node3 -->
<g id="Node000003" class="node">
<title>Node3</title>
<g id="a_Node000003"><a xlink:title=" ">
<ellipse fill="#e0e0e0" stroke="#999999" cx="386.87" cy="-25.81" rx="117.38" ry="15.73"/>
<text xml:space="preserve" text-anchor="middle" x="386.87" y="-21.53" font-family="Helvetica,sans-Serif" font-size="12.00">com.runehive.game.Graphic</text>
</a>
</g>
</g>
<!-- Node1&#45;&gt;Node3 -->
<g id="edge2_Node000001_Node000003" class="edge">
<title>Node1&#45;&gt;Node3</title>
<g id="a_edge2_Node000001_Node000003"><a xlink:title=" ">
<path fill="none" stroke="#63b8ff" d="M1513.09,-119.34C1287.77,-113.43 868.47,-96.87 513.87,-51.62 495.05,-49.22 474.82,-45.7 456.17,-42.07"/>
<polygon fill="#63b8ff" stroke="#63b8ff" points="457.06,-38.67 446.57,-40.15 455.7,-45.54 457.06,-38.67"/>
</a>
</g>
</g>
<!-- Node4 -->
<g id="Node000004" class="node">
<title>Node4</title>
<g id="a_Node000004"><a xlink:title=" ">
<ellipse fill="#e0e0e0" stroke="#999999" cx="637.87" cy="-25.81" rx="115.26" ry="25.81"/>
<text xml:space="preserve" text-anchor="start" x="564.37" y="-28.66" font-family="Helvetica,sans-Serif" font-size="12.00">com.runehive.game.Update</text>
<text xml:space="preserve" text-anchor="middle" x="637.87" y="-14.41" font-family="Helvetica,sans-Serif" font-size="12.00">Priority</text>
</a>
</g>
</g>
<!-- Node1&#45;&gt;Node4 -->
<g id="edge3_Node000001_Node000004" class="edge">
<title>Node1&#45;&gt;Node4</title>
<g id="a_edge3_Node000001_Node000004"><a xlink:title=" ">
<path fill="none" stroke="#63b8ff" d="M1515.5,-115.9C1332.5,-107.02 1024.56,-87.95 761.87,-51.62 751.53,-50.19 740.77,-48.44 730.09,-46.53"/>
<polygon fill="#63b8ff" stroke="#63b8ff" points="730.96,-43.13 720.49,-44.77 729.69,-50.02 730.96,-43.13"/>
</a>
</g>
</g>
<!-- Node5 -->
<g id="Node000005" class="node">
<title>Node5</title>
<g id="a_Node000005"><a xlink:title=" ">
<ellipse fill="#e0e0e0" stroke="#999999" cx="932.87" cy="-25.81" rx="161.93" ry="25.81"/>
<text xml:space="preserve" text-anchor="start" x="826.37" y="-28.66" font-family="Helvetica,sans-Serif" font-size="12.00">com.runehive.game.world.entity.combat.</text>
<text xml:space="preserve" text-anchor="middle" x="932.87" y="-14.41" font-family="Helvetica,sans-Serif" font-size="12.00">CombatUtil</text>
</a>
</g>
</g>
<!-- Node1&#45;&gt;Node5 -->
<g id="edge4_Node000001_Node000005" class="edge">
<title>Node1&#45;&gt;Node5</title>
<g id="a_edge4_Node000001_Node000005"><a xlink:title=" ">
<path fill="none" stroke="#63b8ff" d="M1533.25,-105.66C1417.46,-91.79 1250.02,-71.28 1103.87,-51.62 1089.89,-49.74 1075.28,-47.71 1060.73,-45.66"/>
<polygon fill="#63b8ff" stroke="#63b8ff" points="1061.53,-42.24 1051.14,-44.29 1060.55,-49.17 1061.53,-42.24"/>
</a>
</g>
</g>
<!-- Node6 -->
<g id="Node000006" class="node">
<title>Node6</title>
<g id="a_Node000006"><a xlink:title=" ">
<ellipse fill="#e0e0e0" stroke="#999999" cx="1298.87" cy="-25.81" rx="186.32" ry="25.81"/>
<text xml:space="preserve" text-anchor="start" x="1175.12" y="-28.66" font-family="Helvetica,sans-Serif" font-size="12.00">com.runehive.game.world.entity.combat.attack.</text>
<text xml:space="preserve" text-anchor="middle" x="1298.87" y="-14.41" font-family="Helvetica,sans-Serif" font-size="12.00">FormulaFactory</text>
</a>
</g>
</g>
<!-- Node1&#45;&gt;Node6 -->
<g id="edge5_Node000001_Node000006" class="edge">
<title>Node1&#45;&gt;Node6</title>
<g id="a_edge5_Node000001_Node000006"><a xlink:title=" ">
<path fill="none" stroke="#63b8ff" d="M1570.35,-95.72C1516.15,-81.96 1450.52,-65.3 1397.36,-51.81"/>
<polygon fill="#63b8ff" stroke="#63b8ff" points="1398.24,-48.42 1387.69,-49.36 1396.52,-55.21 1398.24,-48.42"/>
</a>
</g>
</g>
<!-- Node7 -->
<g id="Node000007" class="node">
<title>Node7</title>
<g id="a_Node000007"><a xlink:title=" ">
<ellipse fill="#e0e0e0" stroke="#999999" cx="1675.87" cy="-25.81" rx="173.06" ry="25.81"/>
<text xml:space="preserve" text-anchor="start" x="1561.49" y="-28.66" font-family="Helvetica,sans-Serif" font-size="12.00">com.runehive.game.world.entity.combat.hit.</text>
<text xml:space="preserve" text-anchor="middle" x="1675.87" y="-14.41" font-family="Helvetica,sans-Serif" font-size="12.00">CombatHit</text>
</a>
</g>
</g>
<!-- Node1&#45;&gt;Node7 -->
<g id="edge6_Node000001_Node000007" class="edge">
<title>Node1&#45;&gt;Node7</title>
<g id="a_edge6_Node000001_Node000007"><a xlink:title=" ">
<path fill="none" stroke="#63b8ff" d="M1675.87,-87.14C1675.87,-79.36 1675.87,-71.11 1675.87,-63.29"/>
<polygon fill="#63b8ff" stroke="#63b8ff" points="1679.37,-63.38 1675.87,-53.38 1672.37,-63.38 1679.37,-63.38"/>
</a>
</g>
</g>
<!-- Node8 -->
<g id="Node000008" class="node">
<title>Node8</title>
<g id="a_Node000008"><a xlink:title=" ">
<ellipse fill="#e0e0e0" stroke="#999999" cx="2050.87" cy="-25.81" rx="183.67" ry="15.73"/>
<text xml:space="preserve" text-anchor="middle" x="2050.87" y="-21.53" font-family="Helvetica,sans-Serif" font-size="12.00">com.runehive.game.world.entity.combat.hit.Hit</text>
</a>
</g>
</g>
<!-- Node1&#45;&gt;Node8 -->
<g id="edge7_Node000001_Node000008" class="edge">
<title>Node1&#45;&gt;Node8</title>
<g id="a_edge7_Node000001_Node000008"><a xlink:title=" ">
<path fill="none" stroke="#63b8ff" d="M1780.82,-95.72C1845.72,-79.16 1927.11,-58.39 1983.48,-44.01"/>
<polygon fill="#63b8ff" stroke="#63b8ff" points="1984.12,-47.45 1992.94,-41.59 1982.39,-40.67 1984.12,-47.45"/>
</a>
</g>
</g>
<!-- Node9 -->
<g id="Node000009" class="node">
<title>Node9</title>
<g id="a_Node000009"><a xlink:title=" ">
<ellipse fill="#e0e0e0" stroke="#999999" cx="2425.87" cy="-25.81" rx="173.06" ry="25.81"/>
<text xml:space="preserve" text-anchor="start" x="2311.49" y="-28.66" font-family="Helvetica,sans-Serif" font-size="12.00">com.runehive.game.world.entity.combat.hit.</text>
<text xml:space="preserve" text-anchor="middle" x="2425.87" y="-14.41" font-family="Helvetica,sans-Serif" font-size="12.00">HitIcon</text>
</a>
</g>
</g>
<!-- Node1&#45;&gt;Node9 -->
<g id="edge8_Node000001_Node000009" class="edge">
<title>Node1&#45;&gt;Node9</title>
<g id="a_edge8_Node000001_Node000009"><a xlink:title=" ">
<path fill="none" stroke="#63b8ff" d="M1817.73,-105.25C1932.66,-91.17 2098.77,-70.56 2243.87,-51.62 2258.75,-49.68 2274.32,-47.61 2289.81,-45.53"/>
<polygon fill="#63b8ff" stroke="#63b8ff" points="2290.12,-49.02 2299.56,-44.21 2289.19,-42.08 2290.12,-49.02"/>
</a>
</g>
</g>
<!-- Node10 -->
<g id="Node000010" class="node">
<title>Node10</title>
<g id="a_Node000010"><a xlink:title=" ">
<ellipse fill="#e0e0e0" stroke="#999999" cx="2834.87" cy="-25.81" rx="218.14" ry="25.81"/>
<text xml:space="preserve" text-anchor="start" x="2688.62" y="-28.66" font-family="Helvetica,sans-Serif" font-size="12.00">com.runehive.game.world.entity.combat.strategy.player.</text>
<text xml:space="preserve" text-anchor="middle" x="2834.87" y="-14.41" font-family="Helvetica,sans-Serif" font-size="12.00">PlayerMeleeStrategy</text>
</a>
</g>
</g>
<!-- Node1&#45;&gt;Node10 -->
<g id="edge9_Node000001_Node000010" class="edge">
<title>Node1&#45;&gt;Node10</title>
<g id="a_edge9_Node000001_Node000010"><a xlink:title=" ">
<path fill="none" stroke="#63b8ff" d="M1831.42,-112.25C2016.56,-99.67 2335,-76.9 2607.87,-51.62 2627.68,-49.78 2648.46,-47.71 2669.05,-45.57"/>
<polygon fill="#63b8ff" stroke="#63b8ff" points="2669.38,-49.06 2678.96,-44.53 2668.65,-42.09 2669.38,-49.06"/>
</a>
</g>
</g>
<!-- Node11 -->
<g id="Node000011" class="node">
<title>Node11</title>
<g id="a_Node000011"><a xlink:title=" ">
<ellipse fill="#e0e0e0" stroke="#999999" cx="3237.87" cy="-25.81" rx="167.23" ry="15.73"/>
<text xml:space="preserve" text-anchor="middle" x="3237.87" y="-21.53" font-family="Helvetica,sans-Serif" font-size="12.00">com.runehive.game.world.entity.mob.Mob</text>
</a>
</g>
</g>
<!-- Node1&#45;&gt;Node11 -->
<g id="edge10_Node000001_Node000011" class="edge">
<title>Node1&#45;&gt;Node11</title>
<g id="a_edge10_Node000001_Node000011"><a xlink:title=" ">
<path fill="none" stroke="#63b8ff" d="M1838.38,-118.88C2097.62,-112.03 2620.56,-93.92 3061.87,-51.62 3088.74,-49.04 3117.81,-45.33 3144.43,-41.56"/>
<polygon fill="#63b8ff" stroke="#63b8ff" points="3144.77,-45.04 3154.17,-40.15 3143.77,-38.11 3144.77,-45.04"/>
</a>
</g>
</g>
<!-- Node12 -->
<g id="Node000012" class="node">
<title>Node12</title>
<g id="a_Node000012"><a xlink:title=" ">
<ellipse fill="#e0e0e0" stroke="#999999" cx="3598.87" cy="-25.81" rx="175.72" ry="25.81"/>
<text xml:space="preserve" text-anchor="start" x="3482.62" y="-28.66" font-family="Helvetica,sans-Serif" font-size="12.00">com.runehive.game.world.entity.mob.player.</text>
<text xml:space="preserve" text-anchor="middle" x="3598.87" y="-14.41" font-family="Helvetica,sans-Serif" font-size="12.00">Player</text>
</a>
</g>
</g>
<!-- Node1&#45;&gt;Node12 -->
<g id="edge11_Node000001_Node000012" class="edge">
<title>Node1&#45;&gt;Node12</title>
<g id="a_edge11_Node000001_Node000012"><a xlink:title=" ">
<path fill="none" stroke="#63b8ff" d="M1839.42,-120.87C2147.88,-116.68 2836.43,-102 3413.87,-51.62 3430.68,-50.15 3448.31,-48.25 3465.73,-46.16"/>
<polygon fill="#63b8ff" stroke="#63b8ff" points="3466.14,-49.64 3475.64,-44.95 3465.29,-42.69 3466.14,-49.64"/>
</a>
</g>
</g>
</g>
</svg>
