<?xml version="1.0" encoding="UTF-8" standalone="no"?>
<!DOCTYPE svg PUBLIC "-//W3C//DTD SVG 1.1//EN"
 "http://www.w3.org/Graphics/SVG/1.1/DTD/svg11.dtd">
<!-- Generated by graphviz version 14.0.1 (20251006.0113)
 -->
<!-- Title: java/com/runehive/content/emote/Emote.java Pages: 1 -->
<svg width="2212pt" height="147pt"
 viewBox="0.00 0.00 2212.00 147.00" xmlns="http://www.w3.org/2000/svg" xmlns:xlink="http://www.w3.org/1999/xlink">
<g id="graph0" class="graph" transform="scale(1 1) rotate(0) translate(4 143.24)">
<title>java/com/runehive/content/emote/Emote.java</title>
<!-- Node1 -->
<g id="Node000001" class="node">
<title>Node1</title>
<g id="a_Node000001"><a xlink:title=" ">
<ellipse fill="#999999" stroke="#666666" cx="1355.64" cy="-113.43" rx="109.96" ry="25.81"/>
<text xml:space="preserve" text-anchor="start" x="1285.89" y="-116.28" font-family="Helvetica,sans-Serif" font-size="12.00">java/com/runehive/content</text>
<text xml:space="preserve" text-anchor="middle" x="1355.64" y="-102.03" font-family="Helvetica,sans-Serif" font-size="12.00">/emote/Emote.java</text>
</a>
</g>
</g>
<!-- Node2 -->
<g id="Node000002" class="node">
<title>Node2</title>
<g id="a_Node000002"><a xlink:title=" ">
<ellipse fill="#e0e0e0" stroke="#999999" cx="130.64" cy="-25.81" rx="130.64" ry="25.81"/>
<text xml:space="preserve" text-anchor="start" x="46.26" y="-28.66" font-family="Helvetica,sans-Serif" font-size="12.00">com.runehive.game.action.impl.</text>
<text xml:space="preserve" text-anchor="middle" x="130.64" y="-14.41" font-family="Helvetica,sans-Serif" font-size="12.00">EmoteAction</text>
</a>
</g>
</g>
<!-- Node1&#45;&gt;Node2 -->
<g id="edge1_Node000001_Node000002" class="edge">
<title>Node1&#45;&gt;Node2</title>
<g id="a_edge1_Node000001_Node000002"><a xlink:title=" ">
<path fill="none" stroke="#63b8ff" d="M1245.82,-110.65C1049.37,-106.51 625.07,-93.14 269.64,-51.62 257.71,-50.23 245.25,-48.46 232.91,-46.51"/>
<polygon fill="#63b8ff" stroke="#63b8ff" points="233.55,-43.06 223.12,-44.91 232.43,-49.97 233.55,-43.06"/>
</a>
</g>
</g>
<!-- Node3 -->
<g id="Node000003" class="node">
<title>Node3</title>
<g id="a_Node000003"><a xlink:title=" ">
<ellipse fill="#e0e0e0" stroke="#999999" cx="454.64" cy="-25.81" rx="175.72" ry="25.81"/>
<text xml:space="preserve" text-anchor="start" x="338.39" y="-28.66" font-family="Helvetica,sans-Serif" font-size="12.00">com.runehive.game.world.entity.mob.player.</text>
<text xml:space="preserve" text-anchor="middle" x="454.64" y="-14.41" font-family="Helvetica,sans-Serif" font-size="12.00">Player</text>
</a>
</g>
</g>
<!-- Node1&#45;&gt;Node3 -->
<g id="edge2_Node000001_Node000003" class="edge">
<title>Node1&#45;&gt;Node3</title>
<g id="a_edge2_Node000001_Node000003"><a xlink:title=" ">
<path fill="none" stroke="#63b8ff" d="M1250.99,-105.18C1111.21,-95.13 855.95,-75.47 638.64,-51.62 622.89,-49.89 606.4,-47.91 590.04,-45.84"/>
<polygon fill="#63b8ff" stroke="#63b8ff" points="590.61,-42.38 580.25,-44.59 589.73,-49.33 590.61,-42.38"/>
</a>
</g>
</g>
<!-- Node4 -->
<g id="Node000004" class="node">
<title>Node4</title>
<g id="a_Node000004"><a xlink:title=" ">
<ellipse fill="#e0e0e0" stroke="#999999" cx="796.64" cy="-25.81" rx="148.67" ry="15.73"/>
<text xml:space="preserve" text-anchor="middle" x="796.64" y="-21.53" font-family="Helvetica,sans-Serif" font-size="12.00">com.runehive.game.world.items.Item</text>
</a>
</g>
</g>
<!-- Node1&#45;&gt;Node4 -->
<g id="edge3_Node000001_Node000004" class="edge">
<title>Node1&#45;&gt;Node4</title>
<g id="a_edge3_Node000001_Node000004"><a xlink:title=" ">
<path fill="none" stroke="#63b8ff" d="M1264.44,-98.74C1183.15,-86.5 1060.94,-68.02 954.64,-51.62 933.02,-48.28 909.75,-44.65 887.89,-41.22"/>
<polygon fill="#63b8ff" stroke="#63b8ff" points="888.52,-37.78 878.09,-39.68 887.43,-44.69 888.52,-37.78"/>
</a>
</g>
</g>
<!-- Node5 -->
<g id="Node000005" class="node">
<title>Node5</title>
<g id="a_Node000005"><a xlink:title=" ">
<ellipse fill="#e0e0e0" stroke="#999999" cx="1179.64" cy="-25.81" rx="216.02" ry="25.81"/>
<text xml:space="preserve" text-anchor="start" x="1034.89" y="-28.66" font-family="Helvetica,sans-Serif" font-size="12.00">com.runehive.game.world.items.containers.equipment.</text>
<text xml:space="preserve" text-anchor="middle" x="1179.64" y="-14.41" font-family="Helvetica,sans-Serif" font-size="12.00">Equipment</text>
</a>
</g>
</g>
<!-- Node1&#45;&gt;Node5 -->
<g id="edge4_Node000001_Node000005" class="edge">
<title>Node1&#45;&gt;Node5</title>
<g id="a_edge4_Node000001_Node000005"><a xlink:title=" ">
<path fill="none" stroke="#63b8ff" d="M1308.94,-89.71C1287.83,-79.44 1262.62,-67.18 1240.1,-56.22"/>
<polygon fill="#63b8ff" stroke="#63b8ff" points="1241.84,-53.18 1231.32,-51.95 1238.78,-59.47 1241.84,-53.18"/>
</a>
</g>
</g>
<!-- Node6 -->
<g id="Node000006" class="node">
<title>Node6</title>
<g id="a_Node000006"><a xlink:title=" ">
<ellipse fill="#e0e0e0" stroke="#999999" cx="1532.64" cy="-25.81" rx="118.97" ry="25.81"/>
<text xml:space="preserve" text-anchor="start" x="1456.51" y="-28.66" font-family="Helvetica,sans-Serif" font-size="12.00">com.runehive.net.packet.out.</text>
<text xml:space="preserve" text-anchor="middle" x="1532.64" y="-14.41" font-family="Helvetica,sans-Serif" font-size="12.00">SendMessage</text>
</a>
</g>
</g>
<!-- Node1&#45;&gt;Node6 -->
<g id="edge5_Node000001_Node000006" class="edge">
<title>Node1&#45;&gt;Node6</title>
<g id="a_edge5_Node000001_Node000006"><a xlink:title=" ">
<path fill="none" stroke="#63b8ff" d="M1402.61,-89.71C1424.82,-78.96 1451.55,-66.03 1474.98,-54.7"/>
<polygon fill="#63b8ff" stroke="#63b8ff" points="1476.3,-57.95 1483.78,-50.44 1473.25,-51.65 1476.3,-57.95"/>
</a>
</g>
</g>
<!-- Node7 -->
<g id="Node000007" class="node">
<title>Node7</title>
<g id="a_Node000007"><a xlink:title=" ">
<ellipse fill="#e0e0e0" stroke="#999999" cx="1777.64" cy="-25.81" rx="107.83" ry="25.81"/>
<text xml:space="preserve" text-anchor="start" x="1709.39" y="-28.66" font-family="Helvetica,sans-Serif" font-size="12.00">com.runehive.util.generic.</text>
<text xml:space="preserve" text-anchor="middle" x="1777.64" y="-14.41" font-family="Helvetica,sans-Serif" font-size="12.00">BooleanInterface</text>
</a>
</g>
</g>
<!-- Node1&#45;&gt;Node7 -->
<g id="edge6_Node000001_Node000007" class="edge">
<title>Node1&#45;&gt;Node7</title>
<g id="a_edge6_Node000001_Node000007"><a xlink:title=" ">
<path fill="none" stroke="#63b8ff" d="M1438.54,-96.18C1499.91,-84.09 1585.54,-67.07 1660.64,-51.62 1669.39,-49.82 1678.5,-47.92 1687.6,-46.02"/>
<polygon fill="#63b8ff" stroke="#63b8ff" points="1688.13,-49.48 1697.2,-44 1686.69,-42.63 1688.13,-49.48"/>
</a>
</g>
</g>
<!-- Node8 -->
<g id="Node000008" class="node">
<title>Node8</title>
<g id="a_Node000008"><a xlink:title=" ">
<ellipse fill="#e0e0e0" stroke="#999999" cx="1970.64" cy="-25.81" rx="67" ry="15.73"/>
<text xml:space="preserve" text-anchor="middle" x="1970.64" y="-21.53" font-family="Helvetica,sans-Serif" font-size="12.00">java.util.Arrays</text>
</a>
</g>
</g>
<!-- Node1&#45;&gt;Node8 -->
<g id="edge7_Node000001_Node000008" class="edge">
<title>Node1&#45;&gt;Node8</title>
<g id="a_edge7_Node000001_Node000008"><a xlink:title=" ">
<path fill="none" stroke="#63b8ff" d="M1462.27,-106.8C1571.76,-99.54 1746.6,-83.78 1894.64,-51.62 1904.8,-49.41 1915.52,-46.37 1925.6,-43.18"/>
<polygon fill="#63b8ff" stroke="#63b8ff" points="1926.39,-46.6 1934.8,-40.15 1924.21,-39.95 1926.39,-46.6"/>
</a>
</g>
</g>
<!-- Node9 -->
<g id="Node000009" class="node">
<title>Node9</title>
<g id="a_Node000009"><a xlink:title=" ">
<ellipse fill="#e0e0e0" stroke="#999999" cx="2129.64" cy="-25.81" rx="74.42" ry="15.73"/>
<text xml:space="preserve" text-anchor="middle" x="2129.64" y="-21.53" font-family="Helvetica,sans-Serif" font-size="12.00">java.util.Optional</text>
</a>
</g>
</g>
<!-- Node1&#45;&gt;Node9 -->
<g id="edge8_Node000001_Node000009" class="edge">
<title>Node1&#45;&gt;Node9</title>
<g id="a_edge8_Node000001_Node000009"><a xlink:title=" ">
<path fill="none" stroke="#63b8ff" d="M1464.89,-109.64C1601.9,-104.58 1843.49,-90.5 2046.64,-51.62 2057.94,-49.46 2069.9,-46.37 2081.11,-43.11"/>
<polygon fill="#63b8ff" stroke="#63b8ff" points="2082.01,-46.49 2090.58,-40.25 2079.99,-39.79 2082.01,-46.49"/>
</a>
</g>
</g>
</g>
</svg>
