<?xml version="1.0" encoding="UTF-8" standalone="no"?>
<!DOCTYPE svg PUBLIC "-//W3C//DTD SVG 1.1//EN"
 "http://www.w3.org/Graphics/SVG/1.1/DTD/svg11.dtd">
<!-- Generated by graphviz version 14.0.1 (20251006.0113)
 -->
<!-- Title: java/com/runehive/game/world/items/containers/equipment/Equipment.java Pages: 1 -->
<!--zoomable 167 -->

<svg id="main" version="1.1" xmlns="http://www.w3.org/2000/svg" xmlns:xlink="http://www.w3.org/1999/xlink" xml:space="preserve" onload="init(evt)">

<style type="text/css"><![CDATA[
.node, .edge {opacity: 0.7;}
.node.selected, .edge.selected {opacity: 1;}
.edge:hover path { stroke: red; }
.edge:hover polygon { stroke: red; fill: red; }
]]></style>

<defs>
  <circle id="rim" cx="0" cy="0" r="7"/>
  <circle id="rim2" cx="0" cy="0" r="3.5"/>
  <g id="zoomPlus">
    <use xlink:href="#rim" fill="#404040"><set attributeName="fill" to="#808080" begin="zoomplus.mouseover" end="zoomplus.mouseout"/></use>
    <path d="M-4,0h8M0,-4v8" fill="none" stroke="white" stroke-width="1.5" pointer-events="none"/>
  </g>
  <g id="zoomMin">
    <use xlink:href="#rim" fill="#404040"><set attributeName="fill" to="#808080" begin="zoomminus.mouseover" end="zoomminus.mouseout"/></use>
    <path d="M-4,0h8" fill="none" stroke="white" stroke-width="1.5" pointer-events="none"/>
  </g>
  <g id="arrowUp" transform="translate(30 24)">
    <use xlink:href="#rim"/>
    <path pointer-events="none" fill="none" stroke="white" stroke-width="1.5" d="M0,-3.0v7 M-2.5,-0.5L0,-3.0L2.5,-0.5"/>
  </g>
  <g id="arrowRight" transform="rotate(90) translate(36 -43)">
    <use xlink:href="#rim"/>
    <path pointer-events="none" fill="none" stroke="white" stroke-width="1.5" d="M0,-3.0v7 M-2.5,-0.5L0,-3.0L2.5,-0.5"/>
  </g>
  <g id="arrowDown" transform="rotate(180) translate(-30 -48)">
    <use xlink:href="#rim"/>
    <path pointer-events="none" fill="none" stroke="white" stroke-width="1.5" d="M0,-3.0v7 M-2.5,-0.5L0,-3.0L2.5,-0.5"/>
  </g>
  <g id="arrowLeft" transform="rotate(270) translate(-36 17)">
    <use xlink:href="#rim"/>
    <path pointer-events="none" fill="none" stroke="white" stroke-width="1.5" d="M0,-3.0v7 M-2.5,-0.5L0,-3.0L2.5,-0.5"/>
  </g>
  <g id="resetDef">
    <use xlink:href="#rim2" fill="#404040"><set attributeName="fill" to="#808080" begin="reset.mouseover" end="reset.mouseout"/></use>
  </g>
</defs>
<script type="application/ecmascript">
var viewWidth = 8257;
var viewHeight = 167;
var sectionId = 'dynsection-0';
</script>
<script type="application/ecmascript" xlink:href="svg.min.js"/>
<svg id="graph" class="graph">
<g id="viewport">
<title>java/com/runehive/game/world/items/containers/equipment/Equipment.java</title>
<!-- Node1 -->
<g id="Node000001" class="node">
<title>Node1</title>
<g id="a_Node000001"><a xlink:title=" ">
<ellipse fill="#999999" stroke="#666666" cx="4522.44" cy="-123.5" rx="114.2" ry="35.89"/>
<text xml:space="preserve" text-anchor="start" x="4449.69" y="-133.48" font-family="Helvetica,sans-Serif" font-size="12.00">java/com/runehive/game</text>
<text xml:space="preserve" text-anchor="start" x="4449.69" y="-119.23" font-family="Helvetica,sans-Serif" font-size="12.00">/world/items/containers</text>
<text xml:space="preserve" text-anchor="middle" x="4522.44" y="-104.98" font-family="Helvetica,sans-Serif" font-size="12.00">/equipment/Equipment.java</text>
</a>
</g>
</g>
<!-- Node2 -->
<g id="Node000002" class="node">
<title>Node2</title>
<g id="a_Node000002"><a xlink:title=" ">
<ellipse fill="#e0e0e0" stroke="#999999" cx="118.44" cy="-25.81" rx="118.44" ry="25.81"/>
<text xml:space="preserve" text-anchor="start" x="42.69" y="-28.66" font-family="Helvetica,sans-Serif" font-size="12.00">com.google.common.collect.</text>
<text xml:space="preserve" text-anchor="middle" x="118.44" y="-14.41" font-family="Helvetica,sans-Serif" font-size="12.00">ImmutableSet</text>
</a>
</g>
</g>
<!-- Node1&#45;&gt;Node2 -->
<g id="edge1_Node000001_Node000002" class="edge">
<title>Node1&#45;&gt;Node2</title>
<g id="a_edge1_Node000001_Node000002"><a xlink:title=" ">
<path fill="none" stroke="#63b8ff" d="M4408.06,-121.82C3770.53,-117.81 669.19,-96.17 245.44,-51.62 234.18,-50.44 222.43,-48.76 210.83,-46.82"/>
<polygon fill="#63b8ff" stroke="#63b8ff" points="211.7,-43.42 201.25,-45.16 210.5,-50.32 211.7,-43.42"/>
</a>
</g>
</g>
<!-- Node3 -->
<g id="Node000003" class="node">
<title>Node3</title>
<g id="a_Node000003"><a xlink:title=" ">
<ellipse fill="#e0e0e0" stroke="#999999" cx="374.44" cy="-25.81" rx="119.5" ry="25.81"/>
<text xml:space="preserve" text-anchor="start" x="297.94" y="-28.66" font-family="Helvetica,sans-Serif" font-size="12.00">com.runehive.content.emote.</text>
<text xml:space="preserve" text-anchor="middle" x="374.44" y="-14.41" font-family="Helvetica,sans-Serif" font-size="12.00">Skillcape</text>
</a>
</g>
</g>
<!-- Node1&#45;&gt;Node3 -->
<g id="edge2_Node000001_Node000003" class="edge">
<title>Node1&#45;&gt;Node3</title>
<g id="a_edge2_Node000001_Node000003"><a xlink:title=" ">
<path fill="none" stroke="#63b8ff" d="M4407.98,-121.67C3793.52,-117.06 899.23,-93.25 502.44,-51.62 491.18,-50.44 479.43,-48.77 467.82,-46.85"/>
<polygon fill="#63b8ff" stroke="#63b8ff" points="468.69,-43.45 458.24,-45.2 467.5,-50.35 468.69,-43.45"/>
</a>
</g>
</g>
<!-- Node4 -->
<g id="Node000004" class="node">
<title>Node4</title>
<g id="a_Node000004"><a xlink:title=" ">
<ellipse fill="#e0e0e0" stroke="#999999" cx="641.44" cy="-25.81" rx="129.58" ry="25.81"/>
<text xml:space="preserve" text-anchor="start" x="557.82" y="-28.66" font-family="Helvetica,sans-Serif" font-size="12.00">com.runehive.content.skillcape.</text>
<text xml:space="preserve" text-anchor="middle" x="641.44" y="-14.41" font-family="Helvetica,sans-Serif" font-size="12.00">SkillCape</text>
</a>
</g>
</g>
<!-- Node1&#45;&gt;Node4 -->
<g id="edge3_Node000001_Node000004" class="edge">
<title>Node1&#45;&gt;Node4</title>
<g id="a_edge3_Node000001_Node000004"><a xlink:title=" ">
<path fill="none" stroke="#63b8ff" d="M4408.16,-122.77C3861.55,-123.66 1510.16,-123.2 780.44,-51.62 767.99,-50.4 754.97,-48.68 742.12,-46.7"/>
<polygon fill="#63b8ff" stroke="#63b8ff" points="742.8,-43.27 732.37,-45.15 741.7,-50.18 742.8,-43.27"/>
</a>
</g>
</g>
<!-- Node5 -->
<g id="Node000005" class="node">
<title>Node5</title>
<g id="a_Node000005"><a xlink:title=" ">
<ellipse fill="#e0e0e0" stroke="#999999" cx="906.44" cy="-25.81" rx="117.38" ry="15.73"/>
<text xml:space="preserve" text-anchor="middle" x="906.44" y="-21.53" font-family="Helvetica,sans-Serif" font-size="12.00">com.runehive.game.Graphic</text>
</a>
</g>
</g>
<!-- Node1&#45;&gt;Node5 -->
<g id="edge4_Node000001_Node000005" class="edge">
<title>Node1&#45;&gt;Node5</title>
<g id="a_edge4_Node000001_Node000005"><a xlink:title=" ">
<path fill="none" stroke="#63b8ff" d="M4408.12,-122.84C3884.27,-123.94 1709.84,-124.01 1033.44,-51.62 1014.02,-49.54 993.14,-46.01 974.04,-42.26"/>
<polygon fill="#63b8ff" stroke="#63b8ff" points="975,-38.88 964.5,-40.33 973.61,-45.74 975,-38.88"/>
</a>
</g>
</g>
<!-- Node6 -->
<g id="Node000006" class="node">
<title>Node6</title>
<g id="a_Node000006"><a xlink:title=" ">
<ellipse fill="#e0e0e0" stroke="#999999" cx="1157.44" cy="-25.81" rx="115.26" ry="25.81"/>
<text xml:space="preserve" text-anchor="start" x="1083.94" y="-28.66" font-family="Helvetica,sans-Serif" font-size="12.00">com.runehive.game.Update</text>
<text xml:space="preserve" text-anchor="middle" x="1157.44" y="-14.41" font-family="Helvetica,sans-Serif" font-size="12.00">Priority</text>
</a>
</g>
</g>
<!-- Node1&#45;&gt;Node6 -->
<g id="edge5_Node000001_Node000006" class="edge">
<title>Node1&#45;&gt;Node6</title>
<g id="a_edge5_Node000001_Node000006"><a xlink:title=" ">
<path fill="none" stroke="#63b8ff" d="M4407.97,-122.7C3907.14,-123.12 1906.08,-120.4 1281.44,-51.62 1270.56,-50.42 1259.21,-48.75 1247.99,-46.83"/>
<polygon fill="#63b8ff" stroke="#63b8ff" points="1248.78,-43.42 1238.32,-45.11 1247.55,-50.31 1248.78,-43.42"/>
</a>
</g>
</g>
<!-- Node7 -->
<g id="Node000007" class="node">
<title>Node7</title>
<g id="a_Node000007"><a xlink:title=" ">
<ellipse fill="#e0e0e0" stroke="#999999" cx="1452.44" cy="-25.81" rx="161.93" ry="25.81"/>
<text xml:space="preserve" text-anchor="start" x="1345.94" y="-28.66" font-family="Helvetica,sans-Serif" font-size="12.00">com.runehive.game.world.entity.combat.</text>
<text xml:space="preserve" text-anchor="middle" x="1452.44" y="-14.41" font-family="Helvetica,sans-Serif" font-size="12.00">CombatType</text>
</a>
</g>
</g>
<!-- Node1&#45;&gt;Node7 -->
<g id="edge6_Node000001_Node000007" class="edge">
<title>Node1&#45;&gt;Node7</title>
<g id="a_edge6_Node000001_Node000007"><a xlink:title=" ">
<path fill="none" stroke="#63b8ff" d="M4408.16,-121.54C3941.48,-117.31 2178.72,-98.52 1623.44,-51.62 1607.65,-50.29 1591.1,-48.45 1574.78,-46.37"/>
<polygon fill="#63b8ff" stroke="#63b8ff" points="1575.39,-42.92 1565.02,-45.09 1574.48,-49.86 1575.39,-42.92"/>
</a>
</g>
</g>
<!-- Node8 -->
<g id="Node000008" class="node">
<title>Node8</title>
<g id="a_Node000008"><a xlink:title=" ">
<ellipse fill="#e0e0e0" stroke="#999999" cx="1847.44" cy="-25.81" rx="215.49" ry="25.81"/>
<text xml:space="preserve" text-anchor="start" x="1703.07" y="-28.66" font-family="Helvetica,sans-Serif" font-size="12.00">com.runehive.game.world.entity.combat.attack.listener.</text>
<text xml:space="preserve" text-anchor="middle" x="1847.44" y="-14.41" font-family="Helvetica,sans-Serif" font-size="12.00">CombatListenerManager</text>
</a>
</g>
</g>
<!-- Node1&#45;&gt;Node8 -->
<g id="edge7_Node000001_Node000008" class="edge">
<title>Node1&#45;&gt;Node8</title>
<g id="a_edge7_Node000001_Node000008"><a xlink:title=" ">
<path fill="none" stroke="#63b8ff" d="M4408.05,-122.5C4057.94,-121.78 2970.14,-114.28 2071.44,-51.62 2050.5,-50.16 2028.5,-48.22 2006.8,-46.07"/>
<polygon fill="#63b8ff" stroke="#63b8ff" points="2007.3,-42.6 1997,-45.08 2006.59,-49.57 2007.3,-42.6"/>
</a>
</g>
</g>
<!-- Node9 -->
<g id="Node000009" class="node">
<title>Node9</title>
<g id="a_Node000009"><a xlink:title=" ">
<ellipse fill="#e0e0e0" stroke="#999999" cx="2271.44" cy="-25.81" rx="190.57" ry="25.81"/>
<text xml:space="preserve" text-anchor="start" x="2144.69" y="-28.66" font-family="Helvetica,sans-Serif" font-size="12.00">com.runehive.game.world.entity.combat.ranged.</text>
<text xml:space="preserve" text-anchor="middle" x="2271.44" y="-14.41" font-family="Helvetica,sans-Serif" font-size="12.00">RangedAmmunition</text>
</a>
</g>
</g>
<!-- Node1&#45;&gt;Node9 -->
<g id="edge8_Node000001_Node000009" class="edge">
<title>Node1&#45;&gt;Node9</title>
<g id="a_edge8_Node000001_Node000009"><a xlink:title=" ">
<path fill="none" stroke="#63b8ff" d="M4407.94,-122.14C4096.35,-120.37 3207.11,-110.15 2470.44,-51.62 2452.25,-50.17 2433.16,-48.28 2414.31,-46.18"/>
<polygon fill="#63b8ff" stroke="#63b8ff" points="2414.77,-42.71 2404.44,-45.06 2413.98,-49.67 2414.77,-42.71"/>
</a>
</g>
</g>
<!-- Node10 -->
<g id="Node000010" class="node">
<title>Node10</title>
<g id="a_Node000010"><a xlink:title=" ">
<ellipse fill="#e0e0e0" stroke="#999999" cx="2670.44" cy="-25.81" rx="190.57" ry="25.81"/>
<text xml:space="preserve" text-anchor="start" x="2543.69" y="-28.66" font-family="Helvetica,sans-Serif" font-size="12.00">com.runehive.game.world.entity.combat.ranged.</text>
<text xml:space="preserve" text-anchor="middle" x="2670.44" y="-14.41" font-family="Helvetica,sans-Serif" font-size="12.00">RangedWeaponDefinition</text>
</a>
</g>
</g>
<!-- Node1&#45;&gt;Node10 -->
<g id="edge9_Node000001_Node000010" class="edge">
<title>Node1&#45;&gt;Node10</title>
<g id="a_edge9_Node000001_Node000010"><a xlink:title=" ">
<path fill="none" stroke="#63b8ff" d="M4408.51,-120.8C4139.98,-116.1 3446.58,-99.89 2869.44,-51.62 2851.4,-50.11 2832.47,-48.19 2813.77,-46.09"/>
<polygon fill="#63b8ff" stroke="#63b8ff" points="2814.32,-42.63 2803.99,-44.97 2813.52,-49.58 2814.32,-42.63"/>
</a>
</g>
</g>
<!-- Node11 -->
<g id="Node000011" class="node">
<title>Node11</title>
<g id="a_Node000011"><a xlink:title=" ">
<ellipse fill="#e0e0e0" stroke="#999999" cx="3069.44" cy="-25.81" rx="190.57" ry="25.81"/>
<text xml:space="preserve" text-anchor="start" x="2942.69" y="-28.66" font-family="Helvetica,sans-Serif" font-size="12.00">com.runehive.game.world.entity.combat.ranged.</text>
<text xml:space="preserve" text-anchor="middle" x="3069.44" y="-14.41" font-family="Helvetica,sans-Serif" font-size="12.00">RangedWeaponType</text>
</a>
</g>
</g>
<!-- Node1&#45;&gt;Node11 -->
<g id="edge10_Node000001_Node000011" class="edge">
<title>Node1&#45;&gt;Node11</title>
<g id="a_edge10_Node000001_Node000011"><a xlink:title=" ">
<path fill="none" stroke="#63b8ff" d="M4409.08,-118.63C4189.04,-110.56 3688.8,-89.45 3269.44,-51.62 3251.46,-50 3232.61,-48.02 3213.97,-45.9"/>
<polygon fill="#63b8ff" stroke="#63b8ff" points="3214.55,-42.44 3204.21,-44.77 3213.74,-49.4 3214.55,-42.44"/>
</a>
</g>
</g>
<!-- Node12 -->
<g id="Node000012" class="node">
<title>Node12</title>
<g id="a_Node000012"><a xlink:title=" ">
<ellipse fill="#e0e0e0" stroke="#999999" cx="3472.44" cy="-25.81" rx="194.28" ry="25.81"/>
<text xml:space="preserve" text-anchor="start" x="3343.07" y="-28.66" font-family="Helvetica,sans-Serif" font-size="12.00">com.runehive.game.world.entity.combat.weapon.</text>
<text xml:space="preserve" text-anchor="middle" x="3472.44" y="-14.41" font-family="Helvetica,sans-Serif" font-size="12.00">WeaponInterface</text>
</a>
</g>
</g>
<!-- Node1&#45;&gt;Node12 -->
<g id="edge11_Node000001_Node000012" class="edge">
<title>Node1&#45;&gt;Node12</title>
<g id="a_edge11_Node000001_Node000012"><a xlink:title=" ">
<path fill="none" stroke="#63b8ff" d="M4411.32,-114.56C4249.33,-102.68 3938.92,-78.73 3675.44,-51.62 3657.96,-49.82 3639.66,-47.79 3621.5,-45.69"/>
<polygon fill="#63b8ff" stroke="#63b8ff" points="3622.06,-42.23 3611.73,-44.54 3621.25,-49.18 3622.06,-42.23"/>
</a>
</g>
</g>
<!-- Node13 -->
<g id="Node000013" class="node">
<title>Node13</title>
<g id="a_Node000013"><a xlink:title=" ">
<ellipse fill="#e0e0e0" stroke="#999999" cx="3835.44" cy="-25.81" rx="150.79" ry="25.81"/>
<text xml:space="preserve" text-anchor="start" x="3736.82" y="-28.66" font-family="Helvetica,sans-Serif" font-size="12.00">com.runehive.game.world.entity.mob.</text>
<text xml:space="preserve" text-anchor="middle" x="3835.44" y="-14.41" font-family="Helvetica,sans-Serif" font-size="12.00">UpdateFlag</text>
</a>
</g>
</g>
<!-- Node1&#45;&gt;Node13 -->
<g id="edge12_Node000001_Node000013" class="edge">
<title>Node1&#45;&gt;Node13</title>
<g id="a_edge12_Node000001_Node000013"><a xlink:title=" ">
<path fill="none" stroke="#63b8ff" d="M4417.37,-109C4310.94,-95.18 4141.62,-72.78 3995.44,-51.62 3982.51,-49.75 3969,-47.74 3955.54,-45.7"/>
<polygon fill="#63b8ff" stroke="#63b8ff" points="3956.18,-42.26 3945.77,-44.21 3955.13,-49.18 3956.18,-42.26"/>
</a>
</g>
</g>
<!-- Node14 -->
<g id="Node000014" class="node">
<title>Node14</title>
<g id="a_Node000014"><a xlink:title=" ">
<ellipse fill="#e0e0e0" stroke="#999999" cx="4180.44" cy="-25.81" rx="175.72" ry="25.81"/>
<text xml:space="preserve" text-anchor="start" x="4064.19" y="-28.66" font-family="Helvetica,sans-Serif" font-size="12.00">com.runehive.game.world.entity.mob.player.</text>
<text xml:space="preserve" text-anchor="middle" x="4180.44" y="-14.41" font-family="Helvetica,sans-Serif" font-size="12.00">Player</text>
</a>
</g>
</g>
<!-- Node1&#45;&gt;Node14 -->
<g id="edge13_Node000001_Node000014" class="edge">
<title>Node1&#45;&gt;Node14</title>
<g id="a_edge13_Node000001_Node000014"><a xlink:title=" ">
<path fill="none" stroke="#63b8ff" d="M4438.34,-98.97C4387.65,-84.79 4323.1,-66.73 4271.25,-52.22"/>
<polygon fill="#63b8ff" stroke="#63b8ff" points="4272.42,-48.91 4261.85,-49.59 4270.54,-55.65 4272.42,-48.91"/>
</a>
</g>
</g>
<!-- Node15 -->
<g id="Node000015" class="node">
<title>Node15</title>
<g id="a_Node000015"><a xlink:title=" ">
<ellipse fill="#e0e0e0" stroke="#999999" cx="4522.44" cy="-25.81" rx="148.67" ry="15.73"/>
<text xml:space="preserve" text-anchor="middle" x="4522.44" y="-21.53" font-family="Helvetica,sans-Serif" font-size="12.00">com.runehive.game.world.items.Item</text>
</a>
</g>
</g>
<!-- Node1&#45;&gt;Node15 -->
<g id="edge14_Node000001_Node000015" class="edge">
<title>Node1&#45;&gt;Node15</title>
<g id="a_edge14_Node000001_Node000015"><a xlink:title=" ">
<path fill="none" stroke="#63b8ff" d="M4522.44,-87.14C4522.44,-75.82 4522.44,-63.48 4522.44,-52.94"/>
<polygon fill="#63b8ff" stroke="#63b8ff" points="4525.94,-53.06 4522.44,-43.06 4518.94,-53.06 4525.94,-53.06"/>
</a>
</g>
</g>
<!-- Node16 -->
<g id="Node000016" class="node">
<title>Node16</title>
<g id="a_Node000016"><a xlink:title=" ">
<ellipse fill="#e0e0e0" stroke="#999999" cx="4863.44" cy="-25.81" rx="174.13" ry="25.81"/>
<text xml:space="preserve" text-anchor="start" x="4748.32" y="-28.66" font-family="Helvetica,sans-Serif" font-size="12.00">com.runehive.game.world.items.containers.</text>
<text xml:space="preserve" text-anchor="middle" x="4863.44" y="-14.41" font-family="Helvetica,sans-Serif" font-size="12.00">ItemContainer</text>
</a>
</g>
</g>
<!-- Node1&#45;&gt;Node16 -->
<g id="edge15_Node000001_Node000016" class="edge">
<title>Node1&#45;&gt;Node16</title>
<g id="a_edge15_Node000001_Node000016"><a xlink:title=" ">
<path fill="none" stroke="#63b8ff" d="M4606.73,-98.85C4657.18,-84.69 4721.3,-66.7 4772.84,-52.24"/>
<polygon fill="#63b8ff" stroke="#63b8ff" points="4773.49,-55.69 4782.18,-49.61 4771.6,-48.95 4773.49,-55.69"/>
</a>
</g>
</g>
<!-- Node17 -->
<g id="Node000017" class="node">
<title>Node17</title>
<g id="a_Node000017"><a xlink:title=" ">
<ellipse fill="#e0e0e0" stroke="#999999" cx="5229.44" cy="-25.81" rx="174.13" ry="25.81"/>
<text xml:space="preserve" text-anchor="start" x="5114.32" y="-28.66" font-family="Helvetica,sans-Serif" font-size="12.00">com.runehive.game.world.items.containers.</text>
<text xml:space="preserve" text-anchor="middle" x="5229.44" y="-14.41" font-family="Helvetica,sans-Serif" font-size="12.00">ItemContainerAdapter</text>
</a>
</g>
</g>
<!-- Node1&#45;&gt;Node17 -->
<g id="edge16_Node000001_Node000017" class="edge">
<title>Node1&#45;&gt;Node17</title>
<g id="a_edge16_Node000001_Node000017"><a xlink:title=" ">
<path fill="none" stroke="#63b8ff" d="M4626.34,-108.46C4732.06,-94.16 4900.66,-71.36 5046.44,-51.62 5061.27,-49.61 5076.77,-47.51 5092.21,-45.42"/>
<polygon fill="#63b8ff" stroke="#63b8ff" points="5092.5,-48.91 5101.93,-44.1 5091.56,-41.97 5092.5,-48.91"/>
</a>
</g>
</g>
<!-- Node18 -->
<g id="Node000018" class="node">
<title>Node18</title>
<g id="a_Node000018"><a xlink:title=" ">
<ellipse fill="#e0e0e0" stroke="#999999" cx="5631.44" cy="-25.81" rx="210.19" ry="25.81"/>
<text xml:space="preserve" text-anchor="start" x="5490.82" y="-28.66" font-family="Helvetica,sans-Serif" font-size="12.00">com.runehive.game.world.items.containers.inventory.</text>
<text xml:space="preserve" text-anchor="middle" x="5631.44" y="-14.41" font-family="Helvetica,sans-Serif" font-size="12.00">Inventory</text>
</a>
</g>
</g>
<!-- Node1&#45;&gt;Node18 -->
<g id="edge17_Node000001_Node000018" class="edge">
<title>Node1&#45;&gt;Node18</title>
<g id="a_edge17_Node000001_Node000018"><a xlink:title=" ">
<path fill="none" stroke="#63b8ff" d="M4633.55,-114.85C4802.09,-102.97 5132.41,-78.62 5412.44,-51.62 5431.47,-49.78 5451.42,-47.72 5471.2,-45.59"/>
<polygon fill="#63b8ff" stroke="#63b8ff" points="5471.42,-49.08 5480.98,-44.52 5470.66,-42.12 5471.42,-49.08"/>
</a>
</g>
</g>
<!-- Node19 -->
<g id="Node000019" class="node">
<title>Node19</title>
<g id="a_Node000019"><a xlink:title=" ">
<ellipse fill="#e0e0e0" stroke="#999999" cx="6021.44" cy="-25.81" rx="161.4" ry="25.81"/>
<text xml:space="preserve" text-anchor="start" x="5915.32" y="-28.66" font-family="Helvetica,sans-Serif" font-size="12.00">com.runehive.game.world.items.ground.</text>
<text xml:space="preserve" text-anchor="middle" x="6021.44" y="-14.41" font-family="Helvetica,sans-Serif" font-size="12.00">GroundItem</text>
</a>
</g>
</g>
<!-- Node1&#45;&gt;Node19 -->
<g id="edge18_Node000001_Node000019" class="edge">
<title>Node1&#45;&gt;Node19</title>
<g id="a_edge18_Node000001_Node000019"><a xlink:title=" ">
<path fill="none" stroke="#63b8ff" d="M4636.4,-119.91C4866.4,-113.89 5402.41,-95.99 5850.44,-51.62 5865.84,-50.09 5881.98,-48.18 5897.94,-46.08"/>
<polygon fill="#63b8ff" stroke="#63b8ff" points="5897.99,-49.61 5907.44,-44.81 5897.06,-42.67 5897.99,-49.61"/>
</a>
</g>
</g>
<!-- Node20 -->
<g id="Node000020" class="node">
<title>Node20</title>
<g id="a_Node000020"><a xlink:title=" ">
<ellipse fill="#e0e0e0" stroke="#999999" cx="6319.44" cy="-25.81" rx="118.97" ry="25.81"/>
<text xml:space="preserve" text-anchor="start" x="6243.32" y="-28.66" font-family="Helvetica,sans-Serif" font-size="12.00">com.runehive.net.packet.out.</text>
<text xml:space="preserve" text-anchor="middle" x="6319.44" y="-14.41" font-family="Helvetica,sans-Serif" font-size="12.00">SendItemOnInterface</text>
</a>
</g>
</g>
<!-- Node1&#45;&gt;Node20 -->
<g id="edge19_Node000001_Node000020" class="edge">
<title>Node1&#45;&gt;Node20</title>
<g id="a_edge19_Node000001_Node000020"><a xlink:title=" ">
<path fill="none" stroke="#63b8ff" d="M4636.31,-119.88C4961.32,-112.04 5889.27,-87.12 6191.44,-51.62 6202.6,-50.31 6214.24,-48.57 6225.76,-46.63"/>
<polygon fill="#63b8ff" stroke="#63b8ff" points="6226.01,-50.14 6235.26,-44.96 6224.81,-43.24 6226.01,-50.14"/>
</a>
</g>
</g>
<!-- Node21 -->
<g id="Node000021" class="node">
<title>Node21</title>
<g id="a_Node000021"><a xlink:title=" ">
<ellipse fill="#e0e0e0" stroke="#999999" cx="6575.44" cy="-25.81" rx="118.97" ry="25.81"/>
<text xml:space="preserve" text-anchor="start" x="6499.32" y="-28.66" font-family="Helvetica,sans-Serif" font-size="12.00">com.runehive.net.packet.out.</text>
<text xml:space="preserve" text-anchor="middle" x="6575.44" y="-14.41" font-family="Helvetica,sans-Serif" font-size="12.00">SendMessage</text>
</a>
</g>
</g>
<!-- Node1&#45;&gt;Node21 -->
<g id="edge20_Node000001_Node000021" class="edge">
<title>Node1&#45;&gt;Node21</title>
<g id="a_edge20_Node000001_Node000021"><a xlink:title=" ">
<path fill="none" stroke="#63b8ff" d="M4636.55,-120.62C4994.65,-114.34 6093.38,-92.2 6447.44,-51.62 6458.6,-50.34 6470.25,-48.62 6481.77,-46.69"/>
<polygon fill="#63b8ff" stroke="#63b8ff" points="6482.02,-50.2 6491.27,-45.03 6480.82,-43.3 6482.02,-50.2"/>
</a>
</g>
</g>
<!-- Node22 -->
<g id="Node000022" class="node">
<title>Node22</title>
<g id="a_Node000022"><a xlink:title=" ">
<ellipse fill="#e0e0e0" stroke="#999999" cx="6831.44" cy="-25.81" rx="118.97" ry="25.81"/>
<text xml:space="preserve" text-anchor="start" x="6755.32" y="-28.66" font-family="Helvetica,sans-Serif" font-size="12.00">com.runehive.net.packet.out.</text>
<text xml:space="preserve" text-anchor="middle" x="6831.44" y="-14.41" font-family="Helvetica,sans-Serif" font-size="12.00">SendString</text>
</a>
</g>
</g>
<!-- Node1&#45;&gt;Node22 -->
<g id="edge21_Node000001_Node000022" class="edge">
<title>Node1&#45;&gt;Node22</title>
<g id="a_edge21_Node000001_Node000022"><a xlink:title=" ">
<path fill="none" stroke="#63b8ff" d="M4636.77,-121.19C5025.91,-116.34 6297.2,-97.3 6703.44,-51.62 6714.69,-50.35 6726.43,-48.64 6738.04,-46.69"/>
<polygon fill="#63b8ff" stroke="#63b8ff" points="6738.37,-50.19 6747.62,-45.02 6737.17,-43.29 6738.37,-50.19"/>
</a>
</g>
</g>
<!-- Node23 -->
<g id="Node000023" class="node">
<title>Node23</title>
<g id="a_Node000023"><a xlink:title=" ">
<ellipse fill="#e0e0e0" stroke="#999999" cx="7066.44" cy="-25.81" rx="97.76" ry="15.73"/>
<text xml:space="preserve" text-anchor="middle" x="7066.44" y="-21.53" font-family="Helvetica,sans-Serif" font-size="12.00">com.runehive.util.Items</text>
</a>
</g>
</g>
<!-- Node1&#45;&gt;Node23 -->
<g id="edge22_Node000001_Node000023" class="edge">
<title>Node1&#45;&gt;Node23</title>
<g id="a_edge22_Node000001_Node000023"><a xlink:title=" ">
<path fill="none" stroke="#63b8ff" d="M4636.98,-122.19C5055.56,-120.57 6501.75,-110.74 6959.44,-51.62 6975.27,-49.57 6992.18,-46.22 7007.78,-42.62"/>
<polygon fill="#63b8ff" stroke="#63b8ff" points="7008.48,-46.05 7017.4,-40.33 7006.86,-39.24 7008.48,-46.05"/>
</a>
</g>
</g>
<!-- Node24 -->
<g id="Node000024" class="node">
<title>Node24</title>
<g id="a_Node000024"><a xlink:title=" ">
<ellipse fill="#e0e0e0" stroke="#999999" cx="7281.44" cy="-25.81" rx="98.82" ry="15.73"/>
<text xml:space="preserve" text-anchor="middle" x="7281.44" y="-21.53" font-family="Helvetica,sans-Serif" font-size="12.00">com.runehive.util.Utility</text>
</a>
</g>
</g>
<!-- Node1&#45;&gt;Node24 -->
<g id="edge23_Node000001_Node000024" class="edge">
<title>Node1&#45;&gt;Node24</title>
<g id="a_edge23_Node000001_Node000024"><a xlink:title=" ">
<path fill="none" stroke="#63b8ff" d="M4637.04,-122.47C5078.84,-121.89 6671.74,-115.31 7173.44,-51.62 7189.41,-49.59 7206.48,-46.24 7222.23,-42.64"/>
<polygon fill="#63b8ff" stroke="#63b8ff" points="7223.02,-46.05 7231.95,-40.35 7221.41,-39.24 7223.02,-46.05"/>
</a>
</g>
</g>
<!-- Node25 -->
<g id="Node000025" class="node">
<title>Node25</title>
<g id="a_Node000025"><a xlink:title=" ">
<ellipse fill="#e0e0e0" stroke="#999999" cx="7465.44" cy="-25.81" rx="67" ry="15.73"/>
<text xml:space="preserve" text-anchor="middle" x="7465.44" y="-21.53" font-family="Helvetica,sans-Serif" font-size="12.00">java.util.Arrays</text>
</a>
</g>
</g>
<!-- Node1&#45;&gt;Node25 -->
<g id="edge24_Node000001_Node000025" class="edge">
<title>Node1&#45;&gt;Node25</title>
<g id="a_edge24_Node000001_Node000025"><a xlink:title=" ">
<path fill="none" stroke="#63b8ff" d="M4636.91,-121.64C5136.78,-117.59 7115.41,-98.69 7389.44,-51.62 7399.99,-49.81 7411.08,-46.84 7421.42,-43.57"/>
<polygon fill="#63b8ff" stroke="#63b8ff" points="7422.48,-46.9 7430.86,-40.42 7420.27,-40.26 7422.48,-46.9"/>
</a>
</g>
</g>
<!-- Node26 -->
<g id="Node000026" class="node">
<title>Node26</title>
<g id="a_Node000026"><a xlink:title=" ">
<ellipse fill="#e0e0e0" stroke="#999999" cx="7624.44" cy="-25.81" rx="74.42" ry="15.73"/>
<text xml:space="preserve" text-anchor="middle" x="7624.44" y="-21.53" font-family="Helvetica,sans-Serif" font-size="12.00">java.util.Optional</text>
</a>
</g>
</g>
<!-- Node1&#45;&gt;Node26 -->
<g id="edge25_Node000001_Node000026" class="edge">
<title>Node1&#45;&gt;Node26</title>
<g id="a_edge25_Node000001_Node000026"><a xlink:title=" ">
<path fill="none" stroke="#63b8ff" d="M4636.84,-121.62C5152.85,-117.41 7251.13,-97.57 7541.44,-51.62 7553.26,-49.75 7565.75,-46.64 7577.35,-43.25"/>
<polygon fill="#63b8ff" stroke="#63b8ff" points="7578.17,-46.66 7586.71,-40.39 7576.12,-39.97 7578.17,-46.66"/>
</a>
</g>
</g>
<!-- Node27 -->
<g id="Node000027" class="node">
<title>Node27</title>
<g id="a_Node000027"><a xlink:title=" ">
<ellipse fill="#e0e0e0" stroke="#999999" cx="7823.44" cy="-25.81" rx="106.24" ry="15.73"/>
<text xml:space="preserve" text-anchor="middle" x="7823.44" y="-21.53" font-family="Helvetica,sans-Serif" font-size="12.00">java.util.stream.IntStream</text>
</a>
</g>
</g>
<!-- Node1&#45;&gt;Node27 -->
<g id="edge26_Node000001_Node000027" class="edge">
<title>Node1&#45;&gt;Node27</title>
<g id="a_edge26_Node000001_Node000027"><a xlink:title=" ">
<path fill="none" stroke="#63b8ff" d="M4637.04,-122.85C5132.73,-123.88 7094.93,-123.29 7707.44,-51.62 7724.97,-49.57 7743.77,-46.11 7761.02,-42.41"/>
<polygon fill="#63b8ff" stroke="#63b8ff" points="7761.62,-45.87 7770.63,-40.29 7760.11,-39.03 7761.62,-45.87"/>
</a>
</g>
</g>
<!-- Node28 -->
<g id="Node000028" class="node">
<title>Node28</title>
<g id="a_Node000028"><a xlink:title=" ">
<ellipse fill="#e0e0e0" stroke="#999999" cx="8098.44" cy="-25.81" rx="150.79" ry="25.81"/>
<text xml:space="preserve" text-anchor="start" x="7999.82" y="-28.66" font-family="Helvetica,sans-Serif" font-size="12.00">com.runehive.game.world.entity.mob.</text>
<text xml:space="preserve" text-anchor="middle" x="8098.44" y="-14.41" font-family="Helvetica,sans-Serif" font-size="12.00">MobAnimation.*</text>
</a>
</g>
</g>
<!-- Node1&#45;&gt;Node28 -->
<g id="edge27_Node000001_Node000028" class="edge">
<title>Node1&#45;&gt;Node28</title>
<g id="a_edge27_Node000001_Node000028"><a xlink:title=" ">
<path fill="none" stroke="#63b8ff" d="M4636.9,-122.18C5154.06,-120.39 7276.05,-109.59 7938.44,-51.62 7953.2,-50.33 7968.66,-48.52 7983.92,-46.45"/>
<polygon fill="#63b8ff" stroke="#63b8ff" points="7984.05,-49.97 7993.47,-45.12 7983.09,-43.04 7984.05,-49.97"/>
</a>
</g>
</g>
</g>
</svg>

<g id="navigator" transform="translate(0 0)" fill="#404254">
  <rect fill="#f2f5e9" fill-opacity="0.5" stroke="#606060" stroke-width=".5" x="0" y="0" width="60" height="60"/>
  <use id="zoomplus" xlink:href="#zoomPlus" x="17" y="9" onmousedown="handleZoom(evt,'in')"/>
  <use id="zoomminus" xlink:href="#zoomMin" x="42" y="9" onmousedown="handleZoom(evt,'out')"/>
  <use id="reset" xlink:href="#resetDef" x="30" y="36" onmousedown="handleReset()"/>
   <use id="arrowup" xlink:href="#arrowUp" x="0" y="0" onmousedown="handlePan(0,-1)"/>
  <use id="arrowright" xlink:href="#arrowRight" x="0" y="0" onmousedown="handlePan(1,0)"/>
  <use id="arrowdown" xlink:href="#arrowDown" x="0" y="0" onmousedown="handlePan(0,1)"/>
  <use id="arrowleft" xlink:href="#arrowLeft" x="0" y="0" onmousedown="handlePan(-1,0)"/>
</g>
<svg viewBox="0 0 15 15" width="100%" height="30px" preserveAspectRatio="xMaxYMin meet">
 <g id="arrow_out" transform="scale(0.3 0.3)">
  <a xlink:href="_equipment_8java__incl_org.svg" target="_base">
   <rect id="button" ry="5" rx="5" y="6" x="6" height="38" width="38"
        fill="#f2f5e9" fill-opacity="0.5" stroke="#606060" stroke-width="1.0"/>
   <path id="arrow"
     d="M 11.500037,31.436501 C 11.940474,20.09759 22.043105,11.32322 32.158766,21.979434 L 37.068811,17.246167 C 37.068811,17.246167 37.088388,32 37.088388,32 L 22.160133,31.978069 C 22.160133,31.978069 26.997745,27.140456 26.997745,27.140456 C 18.528582,18.264221 13.291696,25.230495 11.500037,31.436501 z"
     style="fill:#404040;"/>
  </a>
 </g>
</svg>

<style type='text/css'>
<![CDATA[
[data-mouse-over-selected='false'] { opacity: 0.7; }
[data-mouse-over-selected='true']  { opacity: 1.0; }
]]>
</style>
<script type="application/ecmascript"><![CDATA[
document.addEventListener('DOMContentLoaded', (event) => {
  highlightEdges();
  highlightAdjacentNodes();
});
]]></script>
</svg>
