<?xml version="1.0" encoding="UTF-8" standalone="no"?>
<!DOCTYPE svg PUBLIC "-//W3C//DTD SVG 1.1//EN"
 "http://www.w3.org/Graphics/SVG/1.1/DTD/svg11.dtd">
<!-- Generated by graphviz version 14.0.1 (20251006.0113)
 -->
<!-- Title: java/com/runehive/util/parser/old/EquipmentParser.java Pages: 1 -->
<svg width="1069pt" height="147pt"
 viewBox="0.00 0.00 1069.00 147.00" xmlns="http://www.w3.org/2000/svg" xmlns:xlink="http://www.w3.org/1999/xlink">
<g id="graph0" class="graph" transform="scale(1 1) rotate(0) translate(4 143.24)">
<title>java/com/runehive/util/parser/old/EquipmentParser.java</title>
<!-- Node1 -->
<g id="Node000001" class="node">
<title>Node1</title>
<g id="a_Node000001"><a xlink:title=" ">
<ellipse fill="#999999" stroke="#666666" cx="645.56" cy="-113.43" rx="136.47" ry="25.81"/>
<text xml:space="preserve" text-anchor="start" x="557.06" y="-116.28" font-family="Helvetica,sans-Serif" font-size="12.00">java/com/runehive/util</text>
<text xml:space="preserve" text-anchor="middle" x="645.56" y="-102.03" font-family="Helvetica,sans-Serif" font-size="12.00">/parser/old/EquipmentParser.java</text>
</a>
</g>
</g>
<!-- Node2 -->
<g id="Node000002" class="node">
<title>Node2</title>
<g id="a_Node000002"><a xlink:title=" ">
<ellipse fill="#e0e0e0" stroke="#999999" cx="120.56" cy="-25.81" rx="120.56" ry="15.73"/>
<text xml:space="preserve" text-anchor="middle" x="120.56" y="-21.53" font-family="Helvetica,sans-Serif" font-size="12.00">com.google.gson.JsonObject</text>
</a>
</g>
</g>
<!-- Node1&#45;&gt;Node2 -->
<g id="edge1_Node000001_Node000002" class="edge">
<title>Node1&#45;&gt;Node2</title>
<g id="a_edge1_Node000001_Node000002"><a xlink:title=" ">
<path fill="none" stroke="#63b8ff" d="M538.66,-97.12C458.87,-85.43 347.23,-68.5 249.56,-51.62 232.06,-48.59 213.26,-45.11 195.58,-41.73"/>
<polygon fill="#63b8ff" stroke="#63b8ff" points="196.42,-38.33 185.94,-39.88 195.09,-45.2 196.42,-38.33"/>
</a>
</g>
</g>
<!-- Node3 -->
<g id="Node000003" class="node">
<title>Node3</title>
<g id="a_Node000003"><a xlink:title=" ">
<ellipse fill="#e0e0e0" stroke="#999999" cx="391.56" cy="-25.81" rx="132.76" ry="25.81"/>
<text xml:space="preserve" text-anchor="start" x="305.69" y="-28.66" font-family="Helvetica,sans-Serif" font-size="12.00">com.runehive.game.world.items.</text>
<text xml:space="preserve" text-anchor="middle" x="391.56" y="-14.41" font-family="Helvetica,sans-Serif" font-size="12.00">SkillRequirement</text>
</a>
</g>
</g>
<!-- Node1&#45;&gt;Node3 -->
<g id="edge2_Node000001_Node000003" class="edge">
<title>Node1&#45;&gt;Node3</title>
<g id="a_edge2_Node000001_Node000003"><a xlink:title=" ">
<path fill="none" stroke="#63b8ff" d="M580.15,-90.38C545.5,-78.7 502.78,-64.3 466.77,-52.16"/>
<polygon fill="#63b8ff" stroke="#63b8ff" points="468.34,-49 457.75,-49.12 466.1,-55.63 468.34,-49"/>
</a>
</g>
</g>
<!-- Node4 -->
<g id="Node000004" class="node">
<title>Node4</title>
<g id="a_Node000004"><a xlink:title=" ">
<ellipse fill="#e0e0e0" stroke="#999999" cx="645.56" cy="-25.81" rx="103.06" ry="25.81"/>
<text xml:space="preserve" text-anchor="start" x="580.69" y="-28.66" font-family="Helvetica,sans-Serif" font-size="12.00">com.runehive.util.parser.</text>
<text xml:space="preserve" text-anchor="middle" x="645.56" y="-14.41" font-family="Helvetica,sans-Serif" font-size="12.00">GsonParser</text>
</a>
</g>
</g>
<!-- Node1&#45;&gt;Node4 -->
<g id="edge3_Node000001_Node000004" class="edge">
<title>Node1&#45;&gt;Node4</title>
<g id="a_edge3_Node000001_Node000004"><a xlink:title=" ">
<path fill="none" stroke="#63b8ff" d="M645.56,-87.2C645.56,-79.71 645.56,-71.35 645.56,-63.3"/>
<polygon fill="#63b8ff" stroke="#63b8ff" points="649.06,-63.37 645.56,-53.37 642.06,-63.37 649.06,-63.37"/>
</a>
</g>
</g>
<!-- Node5 -->
<g id="Node000005" class="node">
<title>Node5</title>
<g id="a_Node000005"><a xlink:title=" ">
<ellipse fill="#e0e0e0" stroke="#999999" cx="845.56" cy="-25.81" rx="79.2" ry="15.73"/>
<text xml:space="preserve" text-anchor="middle" x="845.56" y="-21.53" font-family="Helvetica,sans-Serif" font-size="12.00">java.util.HashMap</text>
</a>
</g>
</g>
<!-- Node1&#45;&gt;Node5 -->
<g id="edge4_Node000001_Node000005" class="edge">
<title>Node1&#45;&gt;Node5</title>
<g id="a_edge4_Node000001_Node000005"><a xlink:title=" ">
<path fill="none" stroke="#63b8ff" d="M699.42,-89.37C732.02,-75.42 773,-57.87 803.27,-44.92"/>
<polygon fill="#63b8ff" stroke="#63b8ff" points="804.28,-48.29 812.1,-41.13 801.53,-41.85 804.28,-48.29"/>
</a>
</g>
</g>
<!-- Node6 -->
<g id="Node000006" class="node">
<title>Node6</title>
<g id="a_Node000006"><a xlink:title=" ">
<ellipse fill="#e0e0e0" stroke="#999999" cx="1001.56" cy="-25.81" rx="59.04" ry="15.73"/>
<text xml:space="preserve" text-anchor="middle" x="1001.56" y="-21.53" font-family="Helvetica,sans-Serif" font-size="12.00">java.util.Map</text>
</a>
</g>
</g>
<!-- Node1&#45;&gt;Node6 -->
<g id="edge5_Node000001_Node000006" class="edge">
<title>Node1&#45;&gt;Node6</title>
<g id="a_edge5_Node000001_Node000006"><a xlink:title=" ">
<path fill="none" stroke="#63b8ff" d="M744.05,-95.22C800.08,-84.54 871.29,-69.45 933.56,-51.62 941.88,-49.24 950.64,-46.34 959,-43.38"/>
<polygon fill="#63b8ff" stroke="#63b8ff" points="960.08,-46.72 968.28,-40.01 957.68,-40.14 960.08,-46.72"/>
</a>
</g>
</g>
</g>
</svg>
