<?xml version="1.0" encoding="UTF-8" standalone="no"?>
<!DOCTYPE svg PUBLIC "-//W3C//DTD SVG 1.1//EN"
 "http://www.w3.org/Graphics/SVG/1.1/DTD/svg11.dtd">
<!-- Generated by graphviz version 14.0.1 (20251006.0113)
 -->
<!-- Title: java/com/runehive/content/skill/impl/farming/patches/impl/FlowerPatch.java Pages: 1 -->
<!--zoomable 167 -->

<svg id="main" version="1.1" xmlns="http://www.w3.org/2000/svg" xmlns:xlink="http://www.w3.org/1999/xlink" xml:space="preserve" onload="init(evt)">

<style type="text/css"><![CDATA[
.node, .edge {opacity: 0.7;}
.node.selected, .edge.selected {opacity: 1;}
.edge:hover path { stroke: red; }
.edge:hover polygon { stroke: red; fill: red; }
]]></style>

<defs>
  <circle id="rim" cx="0" cy="0" r="7"/>
  <circle id="rim2" cx="0" cy="0" r="3.5"/>
  <g id="zoomPlus">
    <use xlink:href="#rim" fill="#404040"><set attributeName="fill" to="#808080" begin="zoomplus.mouseover" end="zoomplus.mouseout"/></use>
    <path d="M-4,0h8M0,-4v8" fill="none" stroke="white" stroke-width="1.5" pointer-events="none"/>
  </g>
  <g id="zoomMin">
    <use xlink:href="#rim" fill="#404040"><set attributeName="fill" to="#808080" begin="zoomminus.mouseover" end="zoomminus.mouseout"/></use>
    <path d="M-4,0h8" fill="none" stroke="white" stroke-width="1.5" pointer-events="none"/>
  </g>
  <g id="arrowUp" transform="translate(30 24)">
    <use xlink:href="#rim"/>
    <path pointer-events="none" fill="none" stroke="white" stroke-width="1.5" d="M0,-3.0v7 M-2.5,-0.5L0,-3.0L2.5,-0.5"/>
  </g>
  <g id="arrowRight" transform="rotate(90) translate(36 -43)">
    <use xlink:href="#rim"/>
    <path pointer-events="none" fill="none" stroke="white" stroke-width="1.5" d="M0,-3.0v7 M-2.5,-0.5L0,-3.0L2.5,-0.5"/>
  </g>
  <g id="arrowDown" transform="rotate(180) translate(-30 -48)">
    <use xlink:href="#rim"/>
    <path pointer-events="none" fill="none" stroke="white" stroke-width="1.5" d="M0,-3.0v7 M-2.5,-0.5L0,-3.0L2.5,-0.5"/>
  </g>
  <g id="arrowLeft" transform="rotate(270) translate(-36 17)">
    <use xlink:href="#rim"/>
    <path pointer-events="none" fill="none" stroke="white" stroke-width="1.5" d="M0,-3.0v7 M-2.5,-0.5L0,-3.0L2.5,-0.5"/>
  </g>
  <g id="resetDef">
    <use xlink:href="#rim2" fill="#404040"><set attributeName="fill" to="#808080" begin="reset.mouseover" end="reset.mouseout"/></use>
  </g>
</defs>
<script type="application/ecmascript">
var viewWidth = 3047;
var viewHeight = 167;
var sectionId = 'dynsection-0';
</script>
<script type="application/ecmascript" xlink:href="svg.min.js"/>
<svg id="graph" class="graph">
<g id="viewport">
<title>java/com/runehive/content/skill/impl/farming/patches/impl/FlowerPatch.java</title>
<!-- Node1 -->
<g id="Node000001" class="node">
<title>Node1</title>
<g id="a_Node000001"><a xlink:title=" ">
<ellipse fill="#999999" stroke="#666666" cx="1692.28" cy="-123.5" rx="109.96" ry="35.89"/>
<text xml:space="preserve" text-anchor="start" x="1622.53" y="-133.48" font-family="Helvetica,sans-Serif" font-size="12.00">java/com/runehive/content</text>
<text xml:space="preserve" text-anchor="start" x="1622.53" y="-119.23" font-family="Helvetica,sans-Serif" font-size="12.00">/skill/impl/farming/patches</text>
<text xml:space="preserve" text-anchor="middle" x="1692.28" y="-104.98" font-family="Helvetica,sans-Serif" font-size="12.00">/impl/FlowerPatch.java</text>
</a>
</g>
</g>
<!-- Node2 -->
<g id="Node000002" class="node">
<title>Node2</title>
<g id="a_Node000002"><a xlink:title=" ">
<ellipse fill="#e0e0e0" stroke="#999999" cx="159.28" cy="-25.81" rx="159.28" ry="25.81"/>
<text xml:space="preserve" text-anchor="start" x="54.65" y="-28.66" font-family="Helvetica,sans-Serif" font-size="12.00">com.runehive.content.skill.impl.farming.</text>
<text xml:space="preserve" text-anchor="middle" x="159.28" y="-14.41" font-family="Helvetica,sans-Serif" font-size="12.00">FarmingConstants</text>
</a>
</g>
</g>
<!-- Node1&#45;&gt;Node2 -->
<g id="edge1_Node000001_Node000002" class="edge">
<title>Node1&#45;&gt;Node2</title>
<g id="a_edge1_Node000001_Node000002"><a xlink:title=" ">
<path fill="none" stroke="#63b8ff" d="M1582.31,-120.33C1350.02,-114.95 792.45,-97.94 327.28,-51.62 312.4,-50.14 296.83,-48.27 281.42,-46.23"/>
<polygon fill="#63b8ff" stroke="#63b8ff" points="282.12,-42.79 271.74,-44.92 281.18,-49.73 282.12,-42.79"/>
</a>
</g>
</g>
<!-- Node3 -->
<g id="Node000003" class="node">
<title>Node3</title>
<g id="a_Node000003"><a xlink:title=" ">
<ellipse fill="#e0e0e0" stroke="#999999" cx="527.28" cy="-25.81" rx="191.1" ry="25.81"/>
<text xml:space="preserve" text-anchor="start" x="400.15" y="-28.66" font-family="Helvetica,sans-Serif" font-size="12.00">com.runehive.content.skill.impl.farming.patches.</text>
<text xml:space="preserve" text-anchor="middle" x="527.28" y="-14.41" font-family="Helvetica,sans-Serif" font-size="12.00">WaterablePatch</text>
</a>
</g>
</g>
<!-- Node1&#45;&gt;Node3 -->
<g id="edge2_Node000001_Node000003" class="edge">
<title>Node1&#45;&gt;Node3</title>
<g id="a_edge2_Node000001_Node000003"><a xlink:title=" ">
<path fill="none" stroke="#63b8ff" d="M1584.31,-116.34C1405.75,-105.76 1037.8,-82.26 727.28,-51.62 709.83,-49.9 691.55,-47.9 673.44,-45.8"/>
<polygon fill="#63b8ff" stroke="#63b8ff" points="674.03,-42.34 663.69,-44.66 673.22,-49.3 674.03,-42.34"/>
</a>
</g>
</g>
<!-- Node4 -->
<g id="Node000004" class="node">
<title>Node4</title>
<g id="a_Node000004"><a xlink:title=" ">
<ellipse fill="#e0e0e0" stroke="#999999" cx="920.28" cy="-25.81" rx="184.2" ry="25.81"/>
<text xml:space="preserve" text-anchor="start" x="798.03" y="-28.66" font-family="Helvetica,sans-Serif" font-size="12.00">com.runehive.content.skill.impl.farming.plants.</text>
<text xml:space="preserve" text-anchor="middle" x="920.28" y="-14.41" font-family="Helvetica,sans-Serif" font-size="12.00">Flower</text>
</a>
</g>
</g>
<!-- Node1&#45;&gt;Node4 -->
<g id="edge3_Node000001_Node000004" class="edge">
<title>Node1&#45;&gt;Node4</title>
<g id="a_edge3_Node000001_Node000004"><a xlink:title=" ">
<path fill="none" stroke="#63b8ff" d="M1589.75,-110.14C1474.01,-96.14 1280.08,-72.55 1113.28,-51.62 1097.55,-49.65 1081.1,-47.56 1064.73,-45.47"/>
<polygon fill="#63b8ff" stroke="#63b8ff" points="1065.28,-42.02 1054.92,-44.22 1064.39,-48.96 1065.28,-42.02"/>
</a>
</g>
</g>
<!-- Node5 -->
<g id="Node000005" class="node">
<title>Node5</title>
<g id="a_Node000005"><a xlink:title=" ">
<ellipse fill="#e0e0e0" stroke="#999999" cx="1306.28" cy="-25.81" rx="184.2" ry="25.81"/>
<text xml:space="preserve" text-anchor="start" x="1184.03" y="-28.66" font-family="Helvetica,sans-Serif" font-size="12.00">com.runehive.content.skill.impl.farming.plants.</text>
<text xml:space="preserve" text-anchor="middle" x="1306.28" y="-14.41" font-family="Helvetica,sans-Serif" font-size="12.00">Plant</text>
</a>
</g>
</g>
<!-- Node1&#45;&gt;Node5 -->
<g id="edge4_Node000001_Node000005" class="edge">
<title>Node1&#45;&gt;Node5</title>
<g id="a_edge4_Node000001_Node000005"><a xlink:title=" ">
<path fill="none" stroke="#63b8ff" d="M1605.65,-101.03C1546.41,-86.34 1467.73,-66.84 1405.9,-51.51"/>
<polygon fill="#63b8ff" stroke="#63b8ff" points="1406.97,-48.17 1396.42,-49.16 1405.29,-54.96 1406.97,-48.17"/>
</a>
</g>
</g>
<!-- Node6 -->
<g id="Node000006" class="node">
<title>Node6</title>
<g id="a_Node000006"><a xlink:title=" ">
<ellipse fill="#e0e0e0" stroke="#999999" cx="1692.28" cy="-25.81" rx="184.2" ry="25.81"/>
<text xml:space="preserve" text-anchor="start" x="1570.03" y="-28.66" font-family="Helvetica,sans-Serif" font-size="12.00">com.runehive.content.skill.impl.farming.zones.</text>
<text xml:space="preserve" text-anchor="middle" x="1692.28" y="-14.41" font-family="Helvetica,sans-Serif" font-size="12.00">FarmingZone</text>
</a>
</g>
</g>
<!-- Node1&#45;&gt;Node6 -->
<g id="edge5_Node000001_Node000006" class="edge">
<title>Node1&#45;&gt;Node6</title>
<g id="a_edge5_Node000001_Node000006"><a xlink:title=" ">
<path fill="none" stroke="#63b8ff" d="M1692.28,-87.14C1692.28,-79.36 1692.28,-71.11 1692.28,-63.29"/>
<polygon fill="#63b8ff" stroke="#63b8ff" points="1695.78,-63.38 1692.28,-53.38 1688.78,-63.38 1695.78,-63.38"/>
</a>
</g>
</g>
<!-- Node7 -->
<g id="Node000007" class="node">
<title>Node7</title>
<g id="a_Node000007"><a xlink:title=" ">
<ellipse fill="#e0e0e0" stroke="#999999" cx="2005.28" cy="-25.81" rx="110.49" ry="25.81"/>
<text xml:space="preserve" text-anchor="start" x="1935.15" y="-28.66" font-family="Helvetica,sans-Serif" font-size="12.00">com.runehive.game.world.</text>
<text xml:space="preserve" text-anchor="middle" x="2005.28" y="-14.41" font-family="Helvetica,sans-Serif" font-size="12.00">Interactable</text>
</a>
</g>
</g>
<!-- Node1&#45;&gt;Node7 -->
<g id="edge6_Node000001_Node000007" class="edge">
<title>Node1&#45;&gt;Node7</title>
<g id="a_edge6_Node000001_Node000007"><a xlink:title=" ">
<path fill="none" stroke="#63b8ff" d="M1771.66,-98.23C1819.8,-83.52 1880.92,-64.83 1928.56,-50.26"/>
<polygon fill="#63b8ff" stroke="#63b8ff" points="1929.45,-53.65 1937.99,-47.38 1927.41,-46.96 1929.45,-53.65"/>
</a>
</g>
</g>
<!-- Node8 -->
<g id="Node000008" class="node">
<title>Node8</title>
<g id="a_Node000008"><a xlink:title=" ">
<ellipse fill="#e0e0e0" stroke="#999999" cx="2244.28" cy="-25.81" rx="110.49" ry="25.81"/>
<text xml:space="preserve" text-anchor="start" x="2174.15" y="-28.66" font-family="Helvetica,sans-Serif" font-size="12.00">com.runehive.game.world.</text>
<text xml:space="preserve" text-anchor="middle" x="2244.28" y="-14.41" font-family="Helvetica,sans-Serif" font-size="12.00">World</text>
</a>
</g>
</g>
<!-- Node1&#45;&gt;Node8 -->
<g id="edge7_Node000001_Node000008" class="edge">
<title>Node1&#45;&gt;Node8</title>
<g id="a_edge7_Node000001_Node000008"><a xlink:title=" ">
<path fill="none" stroke="#63b8ff" d="M1791.13,-107.47C1878.82,-93.85 2010.31,-72.74 2124.28,-51.62 2133.52,-49.91 2143.15,-48.04 2152.76,-46.14"/>
<polygon fill="#63b8ff" stroke="#63b8ff" points="2153.4,-49.58 2162.52,-44.18 2152.03,-42.71 2153.4,-49.58"/>
</a>
</g>
</g>
<!-- Node9 -->
<g id="Node000009" class="node">
<title>Node9</title>
<g id="a_Node000009"><a xlink:title=" ">
<ellipse fill="#e0e0e0" stroke="#999999" cx="2548.28" cy="-25.81" rx="175.72" ry="25.81"/>
<text xml:space="preserve" text-anchor="start" x="2432.03" y="-28.66" font-family="Helvetica,sans-Serif" font-size="12.00">com.runehive.game.world.entity.mob.player.</text>
<text xml:space="preserve" text-anchor="middle" x="2548.28" y="-14.41" font-family="Helvetica,sans-Serif" font-size="12.00">Player</text>
</a>
</g>
</g>
<!-- Node1&#45;&gt;Node9 -->
<g id="edge8_Node000001_Node000009" class="edge">
<title>Node1&#45;&gt;Node9</title>
<g id="a_edge8_Node000001_Node000009"><a xlink:title=" ">
<path fill="none" stroke="#63b8ff" d="M1797.27,-112.33C1929.43,-99.32 2163.37,-75.58 2363.28,-51.62 2378.83,-49.75 2395.11,-47.71 2411.28,-45.62"/>
<polygon fill="#63b8ff" stroke="#63b8ff" points="2411.48,-49.12 2420.95,-44.36 2410.58,-42.18 2411.48,-49.12"/>
</a>
</g>
</g>
<!-- Node10 -->
<g id="Node000010" class="node">
<title>Node10</title>
<g id="a_Node000010"><a xlink:title=" ">
<ellipse fill="#e0e0e0" stroke="#999999" cx="2890.28" cy="-25.81" rx="148.67" ry="15.73"/>
<text xml:space="preserve" text-anchor="middle" x="2890.28" y="-21.53" font-family="Helvetica,sans-Serif" font-size="12.00">com.runehive.game.world.items.Item</text>
</a>
</g>
</g>
<!-- Node1&#45;&gt;Node10 -->
<g id="edge9_Node000001_Node000010" class="edge">
<title>Node1&#45;&gt;Node10</title>
<g id="a_edge9_Node000001_Node000010"><a xlink:title=" ">
<path fill="none" stroke="#63b8ff" d="M1801.22,-118.27C1991.01,-110.19 2394.42,-89.85 2733.28,-51.62 2756.72,-48.97 2782.02,-45.33 2805.32,-41.64"/>
<polygon fill="#63b8ff" stroke="#63b8ff" points="2805.77,-45.12 2815.09,-40.08 2804.66,-38.21 2805.77,-45.12"/>
</a>
</g>
</g>
</g>
</svg>

<g id="navigator" transform="translate(0 0)" fill="#404254">
  <rect fill="#f2f5e9" fill-opacity="0.5" stroke="#606060" stroke-width=".5" x="0" y="0" width="60" height="60"/>
  <use id="zoomplus" xlink:href="#zoomPlus" x="17" y="9" onmousedown="handleZoom(evt,'in')"/>
  <use id="zoomminus" xlink:href="#zoomMin" x="42" y="9" onmousedown="handleZoom(evt,'out')"/>
  <use id="reset" xlink:href="#resetDef" x="30" y="36" onmousedown="handleReset()"/>
   <use id="arrowup" xlink:href="#arrowUp" x="0" y="0" onmousedown="handlePan(0,-1)"/>
  <use id="arrowright" xlink:href="#arrowRight" x="0" y="0" onmousedown="handlePan(1,0)"/>
  <use id="arrowdown" xlink:href="#arrowDown" x="0" y="0" onmousedown="handlePan(0,1)"/>
  <use id="arrowleft" xlink:href="#arrowLeft" x="0" y="0" onmousedown="handlePan(-1,0)"/>
</g>
<svg viewBox="0 0 15 15" width="100%" height="30px" preserveAspectRatio="xMaxYMin meet">
 <g id="arrow_out" transform="scale(0.3 0.3)">
  <a xlink:href="_flower_patch_8java__incl_org.svg" target="_base">
   <rect id="button" ry="5" rx="5" y="6" x="6" height="38" width="38"
        fill="#f2f5e9" fill-opacity="0.5" stroke="#606060" stroke-width="1.0"/>
   <path id="arrow"
     d="M 11.500037,31.436501 C 11.940474,20.09759 22.043105,11.32322 32.158766,21.979434 L 37.068811,17.246167 C 37.068811,17.246167 37.088388,32 37.088388,32 L 22.160133,31.978069 C 22.160133,31.978069 26.997745,27.140456 26.997745,27.140456 C 18.528582,18.264221 13.291696,25.230495 11.500037,31.436501 z"
     style="fill:#404040;"/>
  </a>
 </g>
</svg>

<style type='text/css'>
<![CDATA[
[data-mouse-over-selected='false'] { opacity: 0.7; }
[data-mouse-over-selected='true']  { opacity: 1.0; }
]]>
</style>
<script type="application/ecmascript"><![CDATA[
document.addEventListener('DOMContentLoaded', (event) => {
  highlightEdges();
  highlightAdjacentNodes();
});
]]></script>
</svg>
