<?xml version="1.0" encoding="UTF-8" standalone="no"?>
<!DOCTYPE svg PUBLIC "-//W3C//DTD SVG 1.1//EN"
 "http://www.w3.org/Graphics/SVG/1.1/DTD/svg11.dtd">
<!-- Generated by graphviz version 14.0.1 (20251006.0113)
 -->
<!-- Title: java/com/runehive/content/gambling/GambleManager.java Pages: 1 -->
<svg width="4914pt" height="147pt"
 viewBox="0.00 0.00 4914.00 147.00" xmlns="http://www.w3.org/2000/svg" xmlns:xlink="http://www.w3.org/1999/xlink">
<g id="graph0" class="graph" transform="scale(1 1) rotate(0) translate(4 143.24)">
<title>java/com/runehive/content/gambling/GambleManager.java</title>
<!-- Node1 -->
<g id="Node000001" class="node">
<title>Node1</title>
<g id="a_Node000001"><a xlink:title=" ">
<ellipse fill="#999999" stroke="#666666" cx="2702.2" cy="-113.43" rx="131.17" ry="25.81"/>
<text xml:space="preserve" text-anchor="start" x="2617.45" y="-116.28" font-family="Helvetica,sans-Serif" font-size="12.00">java/com/runehive/content</text>
<text xml:space="preserve" text-anchor="middle" x="2702.2" y="-102.03" font-family="Helvetica,sans-Serif" font-size="12.00">/gambling/GambleManager.java</text>
</a>
</g>
</g>
<!-- Node2 -->
<g id="Node000002" class="node">
<title>Node2</title>
<g id="a_Node000002"><a xlink:title=" ">
<ellipse fill="#e0e0e0" stroke="#999999" cx="149.2" cy="-25.81" rx="149.2" ry="25.81"/>
<text xml:space="preserve" text-anchor="start" x="51.7" y="-28.66" font-family="Helvetica,sans-Serif" font-size="12.00">com.runehive.content.gambling.impl.</text>
<text xml:space="preserve" text-anchor="middle" x="149.2" y="-14.41" font-family="Helvetica,sans-Serif" font-size="12.00">FiftyFive</text>
</a>
</g>
</g>
<!-- Node1&#45;&gt;Node2 -->
<g id="edge1_Node000001_Node000002" class="edge">
<title>Node1&#45;&gt;Node2</title>
<g id="a_edge1_Node000001_Node000002"><a xlink:title=" ">
<path fill="none" stroke="#63b8ff" d="M2571.09,-111.35C2137.5,-107.45 752.24,-92.04 307.2,-51.62 292.88,-50.32 277.88,-48.53 263.07,-46.5"/>
<polygon fill="#63b8ff" stroke="#63b8ff" points="263.69,-43.05 253.3,-45.12 262.71,-49.98 263.69,-43.05"/>
</a>
</g>
</g>
<!-- Node3 -->
<g id="Node000003" class="node">
<title>Node3</title>
<g id="a_Node000003"><a xlink:title=" ">
<ellipse fill="#e0e0e0" stroke="#999999" cx="465.2" cy="-25.81" rx="149.2" ry="25.81"/>
<text xml:space="preserve" text-anchor="start" x="367.7" y="-28.66" font-family="Helvetica,sans-Serif" font-size="12.00">com.runehive.content.gambling.impl.</text>
<text xml:space="preserve" text-anchor="middle" x="465.2" y="-14.41" font-family="Helvetica,sans-Serif" font-size="12.00">FlowerPoker</text>
</a>
</g>
</g>
<!-- Node1&#45;&gt;Node3 -->
<g id="edge2_Node000001_Node000003" class="edge">
<title>Node1&#45;&gt;Node3</title>
<g id="a_edge2_Node000001_Node000003"><a xlink:title=" ">
<path fill="none" stroke="#63b8ff" d="M2571.51,-110.75C2177.46,-105.36 1004.71,-86.73 624.2,-51.62 609.79,-50.29 594.7,-48.48 579.8,-46.44"/>
<polygon fill="#63b8ff" stroke="#63b8ff" points="580.34,-42.99 569.95,-45.06 579.37,-49.92 580.34,-42.99"/>
</a>
</g>
</g>
<!-- Node4 -->
<g id="Node000004" class="node">
<title>Node4</title>
<g id="a_Node000004"><a xlink:title=" ">
<ellipse fill="#e0e0e0" stroke="#999999" cx="743.2" cy="-25.81" rx="110.49" ry="25.81"/>
<text xml:space="preserve" text-anchor="start" x="673.07" y="-28.66" font-family="Helvetica,sans-Serif" font-size="12.00">com.runehive.game.world.</text>
<text xml:space="preserve" text-anchor="middle" x="743.2" y="-14.41" font-family="Helvetica,sans-Serif" font-size="12.00">World</text>
</a>
</g>
</g>
<!-- Node1&#45;&gt;Node4 -->
<g id="edge3_Node000001_Node000004" class="edge">
<title>Node1&#45;&gt;Node4</title>
<g id="a_edge3_Node000001_Node000004"><a xlink:title=" ">
<path fill="none" stroke="#63b8ff" d="M2571.14,-111.04C2207.93,-106.71 1193.43,-91.32 862.2,-51.62 852.04,-50.4 841.47,-48.76 830.99,-46.89"/>
<polygon fill="#63b8ff" stroke="#63b8ff" points="831.66,-43.45 821.18,-45.06 830.37,-50.33 831.66,-43.45"/>
</a>
</g>
</g>
<!-- Node5 -->
<g id="Node000005" class="node">
<title>Node5</title>
<g id="a_Node000005"><a xlink:title=" ">
<ellipse fill="#e0e0e0" stroke="#999999" cx="1022.2" cy="-25.81" rx="150.79" ry="25.81"/>
<text xml:space="preserve" text-anchor="start" x="923.57" y="-28.66" font-family="Helvetica,sans-Serif" font-size="12.00">com.runehive.game.world.entity.mob.</text>
<text xml:space="preserve" text-anchor="middle" x="1022.2" y="-14.41" font-family="Helvetica,sans-Serif" font-size="12.00">Direction</text>
</a>
</g>
</g>
<!-- Node1&#45;&gt;Node5 -->
<g id="edge4_Node000001_Node000005" class="edge">
<title>Node1&#45;&gt;Node5</title>
<g id="a_edge4_Node000001_Node000005"><a xlink:title=" ">
<path fill="none" stroke="#63b8ff" d="M2570.72,-112.2C2306.83,-110.62 1694.12,-101.38 1182.2,-51.62 1167.82,-50.22 1152.76,-48.38 1137.88,-46.34"/>
<polygon fill="#63b8ff" stroke="#63b8ff" points="1138.44,-42.89 1128.05,-44.95 1137.46,-49.82 1138.44,-42.89"/>
</a>
</g>
</g>
<!-- Node6 -->
<g id="Node000006" class="node">
<title>Node6</title>
<g id="a_Node000006"><a xlink:title=" ">
<ellipse fill="#e0e0e0" stroke="#999999" cx="1367.2" cy="-25.81" rx="175.72" ry="25.81"/>
<text xml:space="preserve" text-anchor="start" x="1250.95" y="-28.66" font-family="Helvetica,sans-Serif" font-size="12.00">com.runehive.game.world.entity.mob.player.</text>
<text xml:space="preserve" text-anchor="middle" x="1367.2" y="-14.41" font-family="Helvetica,sans-Serif" font-size="12.00">Player</text>
</a>
</g>
</g>
<!-- Node1&#45;&gt;Node6 -->
<g id="edge5_Node000001_Node000006" class="edge">
<title>Node1&#45;&gt;Node6</title>
<g id="a_edge5_Node000001_Node000006"><a xlink:title=" ">
<path fill="none" stroke="#63b8ff" d="M2572.49,-109.01C2359.1,-102.62 1920.78,-86.24 1551.2,-51.62 1534.75,-50.08 1517.5,-48.16 1500.45,-46.07"/>
<polygon fill="#63b8ff" stroke="#63b8ff" points="1501.13,-42.63 1490.78,-44.87 1500.27,-49.58 1501.13,-42.63"/>
</a>
</g>
</g>
<!-- Node7 -->
<g id="Node000007" class="node">
<title>Node7</title>
<g id="a_Node000007"><a xlink:title=" ">
<ellipse fill="#e0e0e0" stroke="#999999" cx="1736.2" cy="-25.81" rx="175.72" ry="25.81"/>
<text xml:space="preserve" text-anchor="start" x="1619.95" y="-28.66" font-family="Helvetica,sans-Serif" font-size="12.00">com.runehive.game.world.entity.mob.player.</text>
<text xml:space="preserve" text-anchor="middle" x="1736.2" y="-14.41" font-family="Helvetica,sans-Serif" font-size="12.00">PlayerRight</text>
</a>
</g>
</g>
<!-- Node1&#45;&gt;Node7 -->
<g id="edge6_Node000001_Node000007" class="edge">
<title>Node1&#45;&gt;Node7</title>
<g id="a_edge6_Node000001_Node000007"><a xlink:title=" ">
<path fill="none" stroke="#63b8ff" d="M2577.74,-104.92C2423.28,-95.11 2151.92,-76.23 1920.2,-51.62 1904.31,-49.93 1887.68,-47.97 1871.19,-45.9"/>
<polygon fill="#63b8ff" stroke="#63b8ff" points="1871.67,-42.43 1861.3,-44.64 1870.78,-49.37 1871.67,-42.43"/>
</a>
</g>
</g>
<!-- Node8 -->
<g id="Node000008" class="node">
<title>Node8</title>
<g id="a_Node000008"><a xlink:title=" ">
<ellipse fill="#e0e0e0" stroke="#999999" cx="2078.2" cy="-25.81" rx="148.67" ry="15.73"/>
<text xml:space="preserve" text-anchor="middle" x="2078.2" y="-21.53" font-family="Helvetica,sans-Serif" font-size="12.00">com.runehive.game.world.items.Item</text>
</a>
</g>
</g>
<!-- Node1&#45;&gt;Node8 -->
<g id="edge7_Node000001_Node000008" class="edge">
<title>Node1&#45;&gt;Node8</title>
<g id="a_edge7_Node000001_Node000008"><a xlink:title=" ">
<path fill="none" stroke="#63b8ff" d="M2592.63,-99.02C2497.92,-87.22 2357.4,-69.23 2235.2,-51.62 2213.34,-48.47 2189.8,-44.86 2167.76,-41.39"/>
<polygon fill="#63b8ff" stroke="#63b8ff" points="2168.32,-37.94 2157.89,-39.83 2167.22,-44.85 2168.32,-37.94"/>
</a>
</g>
</g>
<!-- Node9 -->
<g id="Node000009" class="node">
<title>Node9</title>
<g id="a_Node000009"><a xlink:title=" ">
<ellipse fill="#e0e0e0" stroke="#999999" cx="2377.2" cy="-25.81" rx="132.76" ry="25.81"/>
<text xml:space="preserve" text-anchor="start" x="2291.32" y="-28.66" font-family="Helvetica,sans-Serif" font-size="12.00">com.runehive.game.world.items.</text>
<text xml:space="preserve" text-anchor="middle" x="2377.2" y="-14.41" font-family="Helvetica,sans-Serif" font-size="12.00">ItemDefinition</text>
</a>
</g>
</g>
<!-- Node1&#45;&gt;Node9 -->
<g id="edge8_Node000001_Node000009" class="edge">
<title>Node1&#45;&gt;Node9</title>
<g id="a_edge8_Node000001_Node000009"><a xlink:title=" ">
<path fill="none" stroke="#63b8ff" d="M2625.18,-92.14C2577.28,-79.52 2515.52,-63.25 2465.62,-50.1"/>
<polygon fill="#63b8ff" stroke="#63b8ff" points="2466.54,-46.73 2455.97,-47.56 2464.75,-53.49 2466.54,-46.73"/>
</a>
</g>
</g>
<!-- Node10 -->
<g id="Node000010" class="node">
<title>Node10</title>
<g id="a_Node000010"><a xlink:title=" ">
<ellipse fill="#e0e0e0" stroke="#999999" cx="2702.2" cy="-25.81" rx="174.13" ry="25.81"/>
<text xml:space="preserve" text-anchor="start" x="2587.07" y="-28.66" font-family="Helvetica,sans-Serif" font-size="12.00">com.runehive.game.world.items.containers.</text>
<text xml:space="preserve" text-anchor="middle" x="2702.2" y="-14.41" font-family="Helvetica,sans-Serif" font-size="12.00">ItemContainer</text>
</a>
</g>
</g>
<!-- Node1&#45;&gt;Node10 -->
<g id="edge9_Node000001_Node000010" class="edge">
<title>Node1&#45;&gt;Node10</title>
<g id="a_edge9_Node000001_Node000010"><a xlink:title=" ">
<path fill="none" stroke="#63b8ff" d="M2702.2,-87.2C2702.2,-79.71 2702.2,-71.35 2702.2,-63.3"/>
<polygon fill="#63b8ff" stroke="#63b8ff" points="2705.7,-63.37 2702.2,-53.37 2698.7,-63.37 2705.7,-63.37"/>
</a>
</g>
</g>
<!-- Node11 -->
<g id="Node000011" class="node">
<title>Node11</title>
<g id="a_Node000011"><a xlink:title=" ">
<ellipse fill="#e0e0e0" stroke="#999999" cx="3030.2" cy="-25.81" rx="135.41" ry="25.81"/>
<text xml:space="preserve" text-anchor="start" x="2942.45" y="-28.66" font-family="Helvetica,sans-Serif" font-size="12.00">com.runehive.game.world.object.</text>
<text xml:space="preserve" text-anchor="middle" x="3030.2" y="-14.41" font-family="Helvetica,sans-Serif" font-size="12.00">CustomGameObject</text>
</a>
</g>
</g>
<!-- Node1&#45;&gt;Node11 -->
<g id="edge10_Node000001_Node000011" class="edge">
<title>Node1&#45;&gt;Node11</title>
<g id="a_edge10_Node000001_Node000011"><a xlink:title=" ">
<path fill="none" stroke="#63b8ff" d="M2779.52,-92.25C2827.95,-79.6 2890.54,-63.26 2941.06,-50.08"/>
<polygon fill="#63b8ff" stroke="#63b8ff" points="2941.72,-53.52 2950.52,-47.61 2939.96,-46.75 2941.72,-53.52"/>
</a>
</g>
</g>
<!-- Node12 -->
<g id="Node000012" class="node">
<title>Node12</title>
<g id="a_Node000012"><a xlink:title=" ">
<ellipse fill="#e0e0e0" stroke="#999999" cx="3338.2" cy="-25.81" rx="154.5" ry="25.81"/>
<text xml:space="preserve" text-anchor="start" x="3236.95" y="-28.66" font-family="Helvetica,sans-Serif" font-size="12.00">com.runehive.game.world.pathfinding.</text>
<text xml:space="preserve" text-anchor="middle" x="3338.2" y="-14.41" font-family="Helvetica,sans-Serif" font-size="12.00">TraversalMap</text>
</a>
</g>
</g>
<!-- Node1&#45;&gt;Node12 -->
<g id="edge11_Node000001_Node000012" class="edge">
<title>Node1&#45;&gt;Node12</title>
<g id="a_edge11_Node000001_Node000012"><a xlink:title=" ">
<path fill="none" stroke="#63b8ff" d="M2811.97,-98.98C2907.69,-87.09 3050.24,-68.98 3174.2,-51.62 3187.59,-49.74 3201.58,-47.72 3215.51,-45.67"/>
<polygon fill="#63b8ff" stroke="#63b8ff" points="3215.77,-49.17 3225.15,-44.24 3214.75,-42.25 3215.77,-49.17"/>
</a>
</g>
</g>
<!-- Node13 -->
<g id="Node000013" class="node">
<title>Node13</title>
<g id="a_Node000013"><a xlink:title=" ">
<ellipse fill="#e0e0e0" stroke="#999999" cx="3653.2" cy="-25.81" rx="142.31" ry="25.81"/>
<text xml:space="preserve" text-anchor="start" x="3560.57" y="-28.66" font-family="Helvetica,sans-Serif" font-size="12.00">com.runehive.game.world.position.</text>
<text xml:space="preserve" text-anchor="middle" x="3653.2" y="-14.41" font-family="Helvetica,sans-Serif" font-size="12.00">Boundary</text>
</a>
</g>
</g>
<!-- Node1&#45;&gt;Node13 -->
<g id="edge12_Node000001_Node000013" class="edge">
<title>Node1&#45;&gt;Node13</title>
<g id="a_edge12_Node000001_Node000013"><a xlink:title=" ">
<path fill="none" stroke="#63b8ff" d="M2828.62,-106.22C2986.59,-97.69 3265.02,-80.06 3502.2,-51.62 3515.08,-50.07 3528.54,-48.22 3541.89,-46.22"/>
<polygon fill="#63b8ff" stroke="#63b8ff" points="3542.21,-49.71 3551.57,-44.74 3541.15,-42.79 3542.21,-49.71"/>
</a>
</g>
</g>
<!-- Node14 -->
<g id="Node000014" class="node">
<title>Node14</title>
<g id="a_Node000014"><a xlink:title=" ">
<ellipse fill="#e0e0e0" stroke="#999999" cx="3956.2" cy="-25.81" rx="142.31" ry="25.81"/>
<text xml:space="preserve" text-anchor="start" x="3863.57" y="-28.66" font-family="Helvetica,sans-Serif" font-size="12.00">com.runehive.game.world.position.</text>
<text xml:space="preserve" text-anchor="middle" x="3956.2" y="-14.41" font-family="Helvetica,sans-Serif" font-size="12.00">Position</text>
</a>
</g>
</g>
<!-- Node1&#45;&gt;Node14 -->
<g id="edge13_Node000001_Node000014" class="edge">
<title>Node1&#45;&gt;Node14</title>
<g id="a_edge13_Node000001_Node000014"><a xlink:title=" ">
<path fill="none" stroke="#63b8ff" d="M2832.34,-109.74C3038.88,-104.46 3454.18,-89.73 3804.2,-51.62 3817.62,-50.16 3831.67,-48.31 3845.56,-46.28"/>
<polygon fill="#63b8ff" stroke="#63b8ff" points="3845.79,-49.78 3855.16,-44.84 3844.75,-42.86 3845.79,-49.78"/>
</a>
</g>
</g>
<!-- Node15 -->
<g id="Node000015" class="node">
<title>Node15</title>
<g id="a_Node000015"><a xlink:title=" ">
<ellipse fill="#e0e0e0" stroke="#999999" cx="4238.2" cy="-25.81" rx="122.15" ry="15.73"/>
<text xml:space="preserve" text-anchor="middle" x="4238.2" y="-21.53" font-family="Helvetica,sans-Serif" font-size="12.00">com.runehive.net.packet.out.*</text>
</a>
</g>
</g>
<!-- Node1&#45;&gt;Node15 -->
<g id="edge14_Node000001_Node000015" class="edge">
<title>Node1&#45;&gt;Node15</title>
<g id="a_edge14_Node000001_Node000015"><a xlink:title=" ">
<path fill="none" stroke="#63b8ff" d="M2833.45,-113.03C3082.6,-112.79 3640.93,-105.58 4107.2,-51.62 4126.9,-49.34 4148.09,-45.81 4167.56,-42.11"/>
<polygon fill="#63b8ff" stroke="#63b8ff" points="4168.17,-45.56 4177.32,-40.22 4166.84,-38.69 4168.17,-45.56"/>
</a>
</g>
</g>
<!-- Node16 -->
<g id="Node000016" class="node">
<title>Node16</title>
<g id="a_Node000016"><a xlink:title=" ">
<ellipse fill="#e0e0e0" stroke="#999999" cx="4477.2" cy="-25.81" rx="98.82" ry="15.73"/>
<text xml:space="preserve" text-anchor="middle" x="4477.2" y="-21.53" font-family="Helvetica,sans-Serif" font-size="12.00">com.runehive.util.Utility</text>
</a>
</g>
</g>
<!-- Node1&#45;&gt;Node16 -->
<g id="edge15_Node000001_Node000016" class="edge">
<title>Node1&#45;&gt;Node16</title>
<g id="a_edge15_Node000001_Node000016"><a xlink:title=" ">
<path fill="none" stroke="#63b8ff" d="M2833.05,-110.86C3172.08,-106.27 4073.11,-90.67 4369.2,-51.62 4385.08,-49.52 4402.06,-46.17 4417.75,-42.59"/>
<polygon fill="#63b8ff" stroke="#63b8ff" points="4418.5,-46.01 4427.43,-40.31 4416.89,-39.19 4418.5,-46.01"/>
</a>
</g>
</g>
<!-- Node17 -->
<g id="Node000017" class="node">
<title>Node17</title>
<g id="a_Node000017"><a xlink:title=" ">
<ellipse fill="#e0e0e0" stroke="#999999" cx="4670.2" cy="-25.81" rx="76.01" ry="15.73"/>
<text xml:space="preserve" text-anchor="middle" x="4670.2" y="-21.53" font-family="Helvetica,sans-Serif" font-size="12.00">java.util.ArrayList</text>
</a>
</g>
</g>
<!-- Node1&#45;&gt;Node17 -->
<g id="edge16_Node000001_Node000017" class="edge">
<title>Node1&#45;&gt;Node17</title>
<g id="a_edge16_Node000001_Node000017"><a xlink:title=" ">
<path fill="none" stroke="#63b8ff" d="M2833.51,-112.48C3203.09,-111.93 4247.16,-105.52 4585.2,-51.62 4597.4,-49.67 4610.32,-46.5 4622.31,-43.07"/>
<polygon fill="#63b8ff" stroke="#63b8ff" points="4622.98,-46.52 4631.55,-40.3 4620.97,-39.82 4622.98,-46.52"/>
</a>
</g>
</g>
<!-- Node18 -->
<g id="Node000018" class="node">
<title>Node18</title>
<g id="a_Node000018"><a xlink:title=" ">
<ellipse fill="#e0e0e0" stroke="#999999" cx="4835.2" cy="-25.81" rx="71.24" ry="15.73"/>
<text xml:space="preserve" text-anchor="middle" x="4835.2" y="-21.53" font-family="Helvetica,sans-Serif" font-size="12.00">java.util.Objects</text>
</a>
</g>
</g>
<!-- Node1&#45;&gt;Node18 -->
<g id="edge17_Node000001_Node000018" class="edge">
<title>Node1&#45;&gt;Node18</title>
<g id="a_edge17_Node000001_Node000018"><a xlink:title=" ">
<path fill="none" stroke="#63b8ff" d="M2832.8,-110.61C3255.01,-104.47 4566.75,-83.03 4755.2,-51.62 4766.5,-49.74 4778.41,-46.66 4789.5,-43.31"/>
<polygon fill="#63b8ff" stroke="#63b8ff" points="4790.34,-46.72 4798.81,-40.36 4788.22,-40.05 4790.34,-46.72"/>
</a>
</g>
</g>
</g>
</svg>
