<?xml version="1.0" encoding="UTF-8" standalone="no"?>
<!DOCTYPE svg PUBLIC "-//W3C//DTD SVG 1.1//EN"
 "http://www.w3.org/Graphics/SVG/1.1/DTD/svg11.dtd">
<!-- Generated by graphviz version 14.0.1 (20251006.0113)
 -->
<!-- Title: java/com/runehive/content/skill/impl/construction/House.java Pages: 1 -->
<!--zoomable 167 -->

<svg id="main" version="1.1" xmlns="http://www.w3.org/2000/svg" xmlns:xlink="http://www.w3.org/1999/xlink" xml:space="preserve" onload="init(evt)">

<style type="text/css"><![CDATA[
.node, .edge {opacity: 0.7;}
.node.selected, .edge.selected {opacity: 1;}
.edge:hover path { stroke: red; }
.edge:hover polygon { stroke: red; fill: red; }
]]></style>

<defs>
  <circle id="rim" cx="0" cy="0" r="7"/>
  <circle id="rim2" cx="0" cy="0" r="3.5"/>
  <g id="zoomPlus">
    <use xlink:href="#rim" fill="#404040"><set attributeName="fill" to="#808080" begin="zoomplus.mouseover" end="zoomplus.mouseout"/></use>
    <path d="M-4,0h8M0,-4v8" fill="none" stroke="white" stroke-width="1.5" pointer-events="none"/>
  </g>
  <g id="zoomMin">
    <use xlink:href="#rim" fill="#404040"><set attributeName="fill" to="#808080" begin="zoomminus.mouseover" end="zoomminus.mouseout"/></use>
    <path d="M-4,0h8" fill="none" stroke="white" stroke-width="1.5" pointer-events="none"/>
  </g>
  <g id="arrowUp" transform="translate(30 24)">
    <use xlink:href="#rim"/>
    <path pointer-events="none" fill="none" stroke="white" stroke-width="1.5" d="M0,-3.0v7 M-2.5,-0.5L0,-3.0L2.5,-0.5"/>
  </g>
  <g id="arrowRight" transform="rotate(90) translate(36 -43)">
    <use xlink:href="#rim"/>
    <path pointer-events="none" fill="none" stroke="white" stroke-width="1.5" d="M0,-3.0v7 M-2.5,-0.5L0,-3.0L2.5,-0.5"/>
  </g>
  <g id="arrowDown" transform="rotate(180) translate(-30 -48)">
    <use xlink:href="#rim"/>
    <path pointer-events="none" fill="none" stroke="white" stroke-width="1.5" d="M0,-3.0v7 M-2.5,-0.5L0,-3.0L2.5,-0.5"/>
  </g>
  <g id="arrowLeft" transform="rotate(270) translate(-36 17)">
    <use xlink:href="#rim"/>
    <path pointer-events="none" fill="none" stroke="white" stroke-width="1.5" d="M0,-3.0v7 M-2.5,-0.5L0,-3.0L2.5,-0.5"/>
  </g>
  <g id="resetDef">
    <use xlink:href="#rim2" fill="#404040"><set attributeName="fill" to="#808080" begin="reset.mouseover" end="reset.mouseout"/></use>
  </g>
</defs>
<script type="application/ecmascript">
var viewWidth = 5198;
var viewHeight = 167;
var sectionId = 'dynsection-0';
</script>
<script type="application/ecmascript" xlink:href="svg.min.js"/>
<svg id="graph" class="graph">
<g id="viewport">
<title>java/com/runehive/content/skill/impl/construction/House.java</title>
<!-- Node1 -->
<g id="Node000001" class="node">
<title>Node1</title>
<g id="a_Node000001"><a xlink:title=" ">
<ellipse fill="#999999" stroke="#666666" cx="2931.87" cy="-123.5" rx="109.96" ry="35.89"/>
<text xml:space="preserve" text-anchor="start" x="2862.12" y="-133.48" font-family="Helvetica,sans-Serif" font-size="12.00">java/com/runehive/content</text>
<text xml:space="preserve" text-anchor="start" x="2862.12" y="-119.23" font-family="Helvetica,sans-Serif" font-size="12.00">/skill/impl/construction</text>
<text xml:space="preserve" text-anchor="middle" x="2931.87" y="-104.98" font-family="Helvetica,sans-Serif" font-size="12.00">/House.java</text>
</a>
</g>
</g>
<!-- Node2 -->
<g id="Node000002" class="node">
<title>Node2</title>
<g id="a_Node000002"><a xlink:title=" ">
<ellipse fill="#e0e0e0" stroke="#999999" cx="125.87" cy="-25.81" rx="125.87" ry="15.73"/>
<text xml:space="preserve" text-anchor="middle" x="125.87" y="-21.53" font-family="Helvetica,sans-Serif" font-size="12.00">com.runehive.game.Animation</text>
</a>
</g>
</g>
<!-- Node1&#45;&gt;Node2 -->
<g id="edge1_Node000001_Node000002" class="edge">
<title>Node1&#45;&gt;Node2</title>
<g id="a_edge1_Node000001_Node000002"><a xlink:title=" ">
<path fill="none" stroke="#63b8ff" d="M2821.74,-121.86C2384.43,-118.96 769.66,-104.8 260.87,-51.62 240.17,-49.46 217.88,-45.88 197.5,-42.11"/>
<polygon fill="#63b8ff" stroke="#63b8ff" points="198.36,-38.71 187.88,-40.28 197.05,-45.59 198.36,-38.71"/>
</a>
</g>
</g>
<!-- Node3 -->
<g id="Node000003" class="node">
<title>Node3</title>
<g id="a_Node000003"><a xlink:title=" ">
<ellipse fill="#e0e0e0" stroke="#999999" cx="379.87" cy="-25.81" rx="110.49" ry="25.81"/>
<text xml:space="preserve" text-anchor="start" x="309.74" y="-28.66" font-family="Helvetica,sans-Serif" font-size="12.00">com.runehive.game.world.</text>
<text xml:space="preserve" text-anchor="middle" x="379.87" y="-14.41" font-family="Helvetica,sans-Serif" font-size="12.00">World</text>
</a>
</g>
</g>
<!-- Node1&#45;&gt;Node3 -->
<g id="edge2_Node000001_Node000003" class="edge">
<title>Node1&#45;&gt;Node3</title>
<g id="a_edge2_Node000001_Node000003"><a xlink:title=" ">
<path fill="none" stroke="#63b8ff" d="M2821.83,-121.88C2409.75,-119.13 958.01,-105.74 498.87,-51.62 488.71,-50.42 478.13,-48.79 467.66,-46.93"/>
<polygon fill="#63b8ff" stroke="#63b8ff" points="468.31,-43.49 457.84,-45.1 467.04,-50.37 468.31,-43.49"/>
</a>
</g>
</g>
<!-- Node4 -->
<g id="Node000004" class="node">
<title>Node4</title>
<g id="a_Node000004"><a xlink:title=" ">
<ellipse fill="#e0e0e0" stroke="#999999" cx="683.87" cy="-25.81" rx="175.72" ry="25.81"/>
<text xml:space="preserve" text-anchor="start" x="567.62" y="-28.66" font-family="Helvetica,sans-Serif" font-size="12.00">com.runehive.game.world.entity.mob.player.</text>
<text xml:space="preserve" text-anchor="middle" x="683.87" y="-14.41" font-family="Helvetica,sans-Serif" font-size="12.00">Player</text>
</a>
</g>
</g>
<!-- Node1&#45;&gt;Node4 -->
<g id="edge3_Node000001_Node000004" class="edge">
<title>Node1&#45;&gt;Node4</title>
<g id="a_edge3_Node000001_Node000004"><a xlink:title=" ">
<path fill="none" stroke="#63b8ff" d="M2821.5,-122.55C2512.55,-121.85 1613,-114.14 868.87,-51.62 851.83,-50.19 833.96,-48.29 816.33,-46.19"/>
<polygon fill="#63b8ff" stroke="#63b8ff" points="816.94,-42.73 806.59,-45 816.09,-49.68 816.94,-42.73"/>
</a>
</g>
</g>
<!-- Node5 -->
<g id="Node000005" class="node">
<title>Node5</title>
<g id="a_Node000005"><a xlink:title=" ">
<ellipse fill="#e0e0e0" stroke="#999999" cx="1078.87" cy="-25.81" rx="201.17" ry="25.81"/>
<text xml:space="preserve" text-anchor="start" x="944.62" y="-28.66" font-family="Helvetica,sans-Serif" font-size="12.00">com.runehive.game.world.entity.mob.player.profile.</text>
<text xml:space="preserve" text-anchor="middle" x="1078.87" y="-14.41" font-family="Helvetica,sans-Serif" font-size="12.00">ProfileRepository</text>
</a>
</g>
</g>
<!-- Node1&#45;&gt;Node5 -->
<g id="edge4_Node000001_Node000005" class="edge">
<title>Node1&#45;&gt;Node5</title>
<g id="a_edge4_Node000001_Node000005"><a xlink:title=" ">
<path fill="none" stroke="#63b8ff" d="M2822.09,-120.59C2557.77,-115.37 1865.15,-98.03 1288.87,-51.62 1269.73,-50.08 1249.66,-48.13 1229.82,-46.01"/>
<polygon fill="#63b8ff" stroke="#63b8ff" points="1230.33,-42.55 1220.01,-44.94 1229.58,-49.5 1230.33,-42.55"/>
</a>
</g>
</g>
<!-- Node6 -->
<g id="Node000006" class="node">
<title>Node6</title>
<g id="a_Node000006"><a xlink:title=" ">
<ellipse fill="#e0e0e0" stroke="#999999" cx="1446.87" cy="-25.81" rx="149.2" ry="25.81"/>
<text xml:space="preserve" text-anchor="start" x="1349.37" y="-28.66" font-family="Helvetica,sans-Serif" font-size="12.00">com.runehive.game.world.entity.skill.</text>
<text xml:space="preserve" text-anchor="middle" x="1446.87" y="-14.41" font-family="Helvetica,sans-Serif" font-size="12.00">Skill</text>
</a>
</g>
</g>
<!-- Node1&#45;&gt;Node6 -->
<g id="edge5_Node000001_Node000006" class="edge">
<title>Node1&#45;&gt;Node6</title>
<g id="a_edge5_Node000001_Node000006"><a xlink:title=" ">
<path fill="none" stroke="#63b8ff" d="M2821.9,-120.44C2594.22,-115.31 2054.87,-98.84 1604.87,-51.62 1590.89,-50.15 1576.27,-48.3 1561.8,-46.26"/>
<polygon fill="#63b8ff" stroke="#63b8ff" points="1562.67,-42.85 1552.28,-44.89 1561.68,-49.78 1562.67,-42.85"/>
</a>
</g>
</g>
<!-- Node7 -->
<g id="Node000007" class="node">
<title>Node7</title>
<g id="a_Node000007"><a xlink:title=" ">
<ellipse fill="#e0e0e0" stroke="#999999" cx="1762.87" cy="-25.81" rx="148.67" ry="15.73"/>
<text xml:space="preserve" text-anchor="middle" x="1762.87" y="-21.53" font-family="Helvetica,sans-Serif" font-size="12.00">com.runehive.game.world.items.Item</text>
</a>
</g>
</g>
<!-- Node1&#45;&gt;Node7 -->
<g id="edge6_Node000001_Node000007" class="edge">
<title>Node1&#45;&gt;Node7</title>
<g id="a_edge6_Node000001_Node000007"><a xlink:title=" ">
<path fill="none" stroke="#63b8ff" d="M2822.74,-117.93C2637.08,-109.45 2248.02,-88.7 1920.87,-51.62 1897.39,-48.96 1872.07,-45.33 1848.72,-41.66"/>
<polygon fill="#63b8ff" stroke="#63b8ff" points="1849.35,-38.22 1838.93,-40.1 1848.25,-45.13 1849.35,-38.22"/>
</a>
</g>
</g>
<!-- Node8 -->
<g id="Node000008" class="node">
<title>Node8</title>
<g id="a_Node000008"><a xlink:title=" ">
<ellipse fill="#e0e0e0" stroke="#999999" cx="2064.87" cy="-25.81" rx="135.41" ry="25.81"/>
<text xml:space="preserve" text-anchor="start" x="1977.12" y="-28.66" font-family="Helvetica,sans-Serif" font-size="12.00">com.runehive.game.world.object.</text>
<text xml:space="preserve" text-anchor="middle" x="2064.87" y="-14.41" font-family="Helvetica,sans-Serif" font-size="12.00">CustomGameObject</text>
</a>
</g>
</g>
<!-- Node1&#45;&gt;Node8 -->
<g id="edge7_Node000001_Node000008" class="edge">
<title>Node1&#45;&gt;Node8</title>
<g id="a_edge7_Node000001_Node000008"><a xlink:title=" ">
<path fill="none" stroke="#63b8ff" d="M2825.16,-114.43C2684.02,-103.2 2427.69,-80.91 2209.87,-51.62 2197.73,-49.99 2185.05,-48.1 2172.46,-46.1"/>
<polygon fill="#63b8ff" stroke="#63b8ff" points="2173.36,-42.7 2162.93,-44.56 2172.24,-49.61 2173.36,-42.7"/>
</a>
</g>
</g>
<!-- Node9 -->
<g id="Node000009" class="node">
<title>Node9</title>
<g id="a_Node000009"><a xlink:title=" ">
<ellipse fill="#e0e0e0" stroke="#999999" cx="2353.87" cy="-25.81" rx="135.41" ry="25.81"/>
<text xml:space="preserve" text-anchor="start" x="2266.12" y="-28.66" font-family="Helvetica,sans-Serif" font-size="12.00">com.runehive.game.world.object.</text>
<text xml:space="preserve" text-anchor="middle" x="2353.87" y="-14.41" font-family="Helvetica,sans-Serif" font-size="12.00">GameObject</text>
</a>
</g>
</g>
<!-- Node1&#45;&gt;Node9 -->
<g id="edge8_Node000001_Node000009" class="edge">
<title>Node1&#45;&gt;Node9</title>
<g id="a_edge8_Node000001_Node000009"><a xlink:title=" ">
<path fill="none" stroke="#63b8ff" d="M2834.24,-106.73C2746.46,-92.49 2614,-70.89 2498.87,-51.62 2487.51,-49.72 2475.65,-47.72 2463.83,-45.71"/>
<polygon fill="#63b8ff" stroke="#63b8ff" points="2464.45,-42.27 2454.01,-44.04 2463.28,-49.17 2464.45,-42.27"/>
</a>
</g>
</g>
<!-- Node10 -->
<g id="Node000010" class="node">
<title>Node10</title>
<g id="a_Node000010"><a xlink:title=" ">
<ellipse fill="#e0e0e0" stroke="#999999" cx="2642.87" cy="-25.81" rx="135.41" ry="25.81"/>
<text xml:space="preserve" text-anchor="start" x="2555.12" y="-28.66" font-family="Helvetica,sans-Serif" font-size="12.00">com.runehive.game.world.object.</text>
<text xml:space="preserve" text-anchor="middle" x="2642.87" y="-14.41" font-family="Helvetica,sans-Serif" font-size="12.00">ObjectDirection</text>
</a>
</g>
</g>
<!-- Node1&#45;&gt;Node10 -->
<g id="edge9_Node000001_Node000010" class="edge">
<title>Node1&#45;&gt;Node10</title>
<g id="a_edge9_Node000001_Node000010"><a xlink:title=" ">
<path fill="none" stroke="#63b8ff" d="M2855.56,-97.24C2813.56,-83.33 2761.59,-66.12 2719.53,-52.2"/>
<polygon fill="#63b8ff" stroke="#63b8ff" points="2720.82,-48.94 2710.23,-49.11 2718.62,-55.58 2720.82,-48.94"/>
</a>
</g>
</g>
<!-- Node11 -->
<g id="Node000011" class="node">
<title>Node11</title>
<g id="a_Node000011"><a xlink:title=" ">
<ellipse fill="#e0e0e0" stroke="#999999" cx="2931.87" cy="-25.81" rx="135.41" ry="25.81"/>
<text xml:space="preserve" text-anchor="start" x="2844.12" y="-28.66" font-family="Helvetica,sans-Serif" font-size="12.00">com.runehive.game.world.object.</text>
<text xml:space="preserve" text-anchor="middle" x="2931.87" y="-14.41" font-family="Helvetica,sans-Serif" font-size="12.00">ObjectType</text>
</a>
</g>
</g>
<!-- Node1&#45;&gt;Node11 -->
<g id="edge10_Node000001_Node000011" class="edge">
<title>Node1&#45;&gt;Node11</title>
<g id="a_edge10_Node000001_Node000011"><a xlink:title=" ">
<path fill="none" stroke="#63b8ff" d="M2931.87,-87.14C2931.87,-79.36 2931.87,-71.11 2931.87,-63.29"/>
<polygon fill="#63b8ff" stroke="#63b8ff" points="2935.37,-63.38 2931.87,-53.38 2928.37,-63.38 2935.37,-63.38"/>
</a>
</g>
</g>
<!-- Node12 -->
<g id="Node000012" class="node">
<title>Node12</title>
<g id="a_Node000012"><a xlink:title=" ">
<ellipse fill="#e0e0e0" stroke="#999999" cx="3227.87" cy="-25.81" rx="142.31" ry="25.81"/>
<text xml:space="preserve" text-anchor="start" x="3135.24" y="-28.66" font-family="Helvetica,sans-Serif" font-size="12.00">com.runehive.game.world.position.</text>
<text xml:space="preserve" text-anchor="middle" x="3227.87" y="-14.41" font-family="Helvetica,sans-Serif" font-size="12.00">Position</text>
</a>
</g>
</g>
<!-- Node1&#45;&gt;Node12 -->
<g id="edge11_Node000001_Node000012" class="edge">
<title>Node1&#45;&gt;Node12</title>
<g id="a_edge11_Node000001_Node000012"><a xlink:title=" ">
<path fill="none" stroke="#63b8ff" d="M3008.86,-97.61C3051.97,-83.67 3105.62,-66.33 3149.02,-52.3"/>
<polygon fill="#63b8ff" stroke="#63b8ff" points="3149.95,-55.68 3158.38,-49.27 3147.79,-49.02 3149.95,-55.68"/>
</a>
</g>
</g>
<!-- Node13 -->
<g id="Node000013" class="node">
<title>Node13</title>
<g id="a_Node000013"><a xlink:title=" ">
<ellipse fill="#e0e0e0" stroke="#999999" cx="3506.87" cy="-25.81" rx="118.97" ry="25.81"/>
<text xml:space="preserve" text-anchor="start" x="3430.74" y="-28.66" font-family="Helvetica,sans-Serif" font-size="12.00">com.runehive.net.packet.out.</text>
<text xml:space="preserve" text-anchor="middle" x="3506.87" y="-14.41" font-family="Helvetica,sans-Serif" font-size="12.00">SendMessage</text>
</a>
</g>
</g>
<!-- Node1&#45;&gt;Node13 -->
<g id="edge12_Node000001_Node000013" class="edge">
<title>Node1&#45;&gt;Node13</title>
<g id="a_edge12_Node000001_Node000013"><a xlink:title=" ">
<path fill="none" stroke="#63b8ff" d="M3031.01,-107.78C3121.7,-94.07 3259.5,-72.64 3378.87,-51.62 3388.77,-49.87 3399.09,-47.99 3409.39,-46.06"/>
<polygon fill="#63b8ff" stroke="#63b8ff" points="3409.86,-49.53 3419.04,-44.24 3408.57,-42.65 3409.86,-49.53"/>
</a>
</g>
</g>
<!-- Node14 -->
<g id="Node000014" class="node">
<title>Node14</title>
<g id="a_Node000014"><a xlink:title=" ">
<ellipse fill="#e0e0e0" stroke="#999999" cx="3762.87" cy="-25.81" rx="118.97" ry="25.81"/>
<text xml:space="preserve" text-anchor="start" x="3686.74" y="-28.66" font-family="Helvetica,sans-Serif" font-size="12.00">com.runehive.net.packet.out.</text>
<text xml:space="preserve" text-anchor="middle" x="3762.87" y="-14.41" font-family="Helvetica,sans-Serif" font-size="12.00">SendMinimapState</text>
</a>
</g>
</g>
<!-- Node1&#45;&gt;Node14 -->
<g id="edge13_Node000001_Node000014" class="edge">
<title>Node1&#45;&gt;Node14</title>
<g id="a_edge13_Node000001_Node000014"><a xlink:title=" ">
<path fill="none" stroke="#63b8ff" d="M3038.83,-114.76C3176.96,-104.07 3424.6,-82.53 3634.87,-51.62 3645.34,-50.08 3656.25,-48.27 3667.1,-46.35"/>
<polygon fill="#63b8ff" stroke="#63b8ff" points="3667.66,-49.81 3676.87,-44.58 3666.41,-42.92 3667.66,-49.81"/>
</a>
</g>
</g>
<!-- Node15 -->
<g id="Node000015" class="node">
<title>Node15</title>
<g id="a_Node000015"><a xlink:title=" ">
<ellipse fill="#e0e0e0" stroke="#999999" cx="4037.87" cy="-25.81" rx="137.53" ry="25.81"/>
<text xml:space="preserve" text-anchor="start" x="3948.62" y="-28.66" font-family="Helvetica,sans-Serif" font-size="12.00">com.runehive.net.packet.out.</text>
<text xml:space="preserve" text-anchor="middle" x="4037.87" y="-14.41" font-family="Helvetica,sans-Serif" font-size="12.00">SendMinimapState.MinimapState</text>
</a>
</g>
</g>
<!-- Node1&#45;&gt;Node15 -->
<g id="edge14_Node000001_Node000015" class="edge">
<title>Node1&#45;&gt;Node15</title>
<g id="a_edge14_Node000001_Node000015"><a xlink:title=" ">
<path fill="none" stroke="#63b8ff" d="M3040.77,-117.77C3218.99,-109.28 3583.84,-88.79 3890.87,-51.62 3903.38,-50.1 3916.46,-48.27 3929.44,-46.28"/>
<polygon fill="#63b8ff" stroke="#63b8ff" points="3929.96,-49.74 3939.3,-44.74 3928.88,-42.83 3929.96,-49.74"/>
</a>
</g>
</g>
<!-- Node16 -->
<g id="Node000016" class="node">
<title>Node16</title>
<g id="a_Node000016"><a xlink:title=" ">
<ellipse fill="#e0e0e0" stroke="#999999" cx="4312.87" cy="-25.81" rx="118.97" ry="25.81"/>
<text xml:space="preserve" text-anchor="start" x="4236.74" y="-28.66" font-family="Helvetica,sans-Serif" font-size="12.00">com.runehive.net.packet.out.</text>
<text xml:space="preserve" text-anchor="middle" x="4312.87" y="-14.41" font-family="Helvetica,sans-Serif" font-size="12.00">SendString</text>
</a>
</g>
</g>
<!-- Node1&#45;&gt;Node16 -->
<g id="edge15_Node000001_Node000016" class="edge">
<title>Node1&#45;&gt;Node16</title>
<g id="a_edge15_Node000001_Node000016"><a xlink:title=" ">
<path fill="none" stroke="#63b8ff" d="M3042.1,-121.26C3260.83,-117.68 3764.88,-103.96 4184.87,-51.62 4195.82,-50.25 4207.24,-48.51 4218.55,-46.58"/>
<polygon fill="#63b8ff" stroke="#63b8ff" points="4219.08,-50.04 4228.32,-44.86 4217.87,-43.15 4219.08,-50.04"/>
</a>
</g>
</g>
<!-- Node17 -->
<g id="Node000017" class="node">
<title>Node17</title>
<g id="a_Node000017"><a xlink:title=" ">
<ellipse fill="#e0e0e0" stroke="#999999" cx="4561.87" cy="-25.81" rx="112.08" ry="25.81"/>
<text xml:space="preserve" text-anchor="start" x="4490.62" y="-28.66" font-family="Helvetica,sans-Serif" font-size="12.00">com.runehive.util.Message</text>
<text xml:space="preserve" text-anchor="middle" x="4561.87" y="-14.41" font-family="Helvetica,sans-Serif" font-size="12.00">Color</text>
</a>
</g>
</g>
<!-- Node1&#45;&gt;Node17 -->
<g id="edge16_Node000001_Node000017" class="edge">
<title>Node1&#45;&gt;Node17</title>
<g id="a_edge16_Node000001_Node000017"><a xlink:title=" ">
<path fill="none" stroke="#63b8ff" d="M3042.18,-123.17C3292.14,-123.4 3920.39,-116.8 4440.87,-51.62 4451.21,-50.32 4461.99,-48.63 4472.66,-46.72"/>
<polygon fill="#63b8ff" stroke="#63b8ff" points="4473.04,-50.21 4482.24,-44.95 4471.77,-43.33 4473.04,-50.21"/>
</a>
</g>
</g>
<!-- Node18 -->
<g id="Node000018" class="node">
<title>Node18</title>
<g id="a_Node000018"><a xlink:title=" ">
<ellipse fill="#e0e0e0" stroke="#999999" cx="4790.87" cy="-25.81" rx="98.82" ry="15.73"/>
<text xml:space="preserve" text-anchor="middle" x="4790.87" y="-21.53" font-family="Helvetica,sans-Serif" font-size="12.00">com.runehive.util.Utility</text>
</a>
</g>
</g>
<!-- Node1&#45;&gt;Node18 -->
<g id="edge17_Node000001_Node000018" class="edge">
<title>Node1&#45;&gt;Node18</title>
<g id="a_edge17_Node000001_Node000018"><a xlink:title=" ">
<path fill="none" stroke="#63b8ff" d="M3041.82,-120.72C3373.92,-114.91 4363.5,-94.39 4682.87,-51.62 4698.75,-49.49 4715.72,-46.12 4731.41,-42.55"/>
<polygon fill="#63b8ff" stroke="#63b8ff" points="4732.16,-45.96 4741.09,-40.27 4730.55,-39.15 4732.16,-45.96"/>
</a>
</g>
</g>
<!-- Node19 -->
<g id="Node000019" class="node">
<title>Node19</title>
<g id="a_Node000019"><a xlink:title=" ">
<ellipse fill="#e0e0e0" stroke="#999999" cx="4983.87" cy="-25.81" rx="76.01" ry="15.73"/>
<text xml:space="preserve" text-anchor="middle" x="4983.87" y="-21.53" font-family="Helvetica,sans-Serif" font-size="12.00">java.util.ArrayList</text>
</a>
</g>
</g>
<!-- Node1&#45;&gt;Node19 -->
<g id="edge18_Node000001_Node000019" class="edge">
<title>Node1&#45;&gt;Node19</title>
<g id="a_edge18_Node000001_Node000019"><a xlink:title=" ">
<path fill="none" stroke="#63b8ff" d="M3041.97,-122.12C3401.27,-120.31 4537.16,-109.99 4898.87,-51.62 4911.07,-49.65 4923.99,-46.47 4935.97,-43.04"/>
<polygon fill="#63b8ff" stroke="#63b8ff" points="4936.64,-46.49 4945.22,-40.27 4934.63,-39.78 4936.64,-46.49"/>
</a>
</g>
</g>
<!-- Node20 -->
<g id="Node000020" class="node">
<title>Node20</title>
<g id="a_Node000020"><a xlink:title=" ">
<ellipse fill="#e0e0e0" stroke="#999999" cx="5133.87" cy="-25.81" rx="55.86" ry="15.73"/>
<text xml:space="preserve" text-anchor="middle" x="5133.87" y="-21.53" font-family="Helvetica,sans-Serif" font-size="12.00">java.util.List</text>
</a>
</g>
</g>
<!-- Node1&#45;&gt;Node20 -->
<g id="edge19_Node000001_Node000020" class="edge">
<title>Node1&#45;&gt;Node20</title>
<g id="a_edge19_Node000001_Node000020"><a xlink:title=" ">
<path fill="none" stroke="#63b8ff" d="M3041.79,-120.99C3450.61,-115.05 4869.86,-91.73 5068.87,-51.62 5077.69,-49.84 5086.89,-46.99 5095.49,-43.85"/>
<polygon fill="#63b8ff" stroke="#63b8ff" points="5096.53,-47.2 5104.58,-40.32 5094,-40.68 5096.53,-47.2"/>
</a>
</g>
</g>
</g>
</svg>

<g id="navigator" transform="translate(0 0)" fill="#404254">
  <rect fill="#f2f5e9" fill-opacity="0.5" stroke="#606060" stroke-width=".5" x="0" y="0" width="60" height="60"/>
  <use id="zoomplus" xlink:href="#zoomPlus" x="17" y="9" onmousedown="handleZoom(evt,'in')"/>
  <use id="zoomminus" xlink:href="#zoomMin" x="42" y="9" onmousedown="handleZoom(evt,'out')"/>
  <use id="reset" xlink:href="#resetDef" x="30" y="36" onmousedown="handleReset()"/>
   <use id="arrowup" xlink:href="#arrowUp" x="0" y="0" onmousedown="handlePan(0,-1)"/>
  <use id="arrowright" xlink:href="#arrowRight" x="0" y="0" onmousedown="handlePan(1,0)"/>
  <use id="arrowdown" xlink:href="#arrowDown" x="0" y="0" onmousedown="handlePan(0,1)"/>
  <use id="arrowleft" xlink:href="#arrowLeft" x="0" y="0" onmousedown="handlePan(-1,0)"/>
</g>
<svg viewBox="0 0 15 15" width="100%" height="30px" preserveAspectRatio="xMaxYMin meet">
 <g id="arrow_out" transform="scale(0.3 0.3)">
  <a xlink:href="_house_8java__incl_org.svg" target="_base">
   <rect id="button" ry="5" rx="5" y="6" x="6" height="38" width="38"
        fill="#f2f5e9" fill-opacity="0.5" stroke="#606060" stroke-width="1.0"/>
   <path id="arrow"
     d="M 11.500037,31.436501 C 11.940474,20.09759 22.043105,11.32322 32.158766,21.979434 L 37.068811,17.246167 C 37.068811,17.246167 37.088388,32 37.088388,32 L 22.160133,31.978069 C 22.160133,31.978069 26.997745,27.140456 26.997745,27.140456 C 18.528582,18.264221 13.291696,25.230495 11.500037,31.436501 z"
     style="fill:#404040;"/>
  </a>
 </g>
</svg>

<style type='text/css'>
<![CDATA[
[data-mouse-over-selected='false'] { opacity: 0.7; }
[data-mouse-over-selected='true']  { opacity: 1.0; }
]]>
</style>
<script type="application/ecmascript"><![CDATA[
document.addEventListener('DOMContentLoaded', (event) => {
  highlightEdges();
  highlightAdjacentNodes();
});
]]></script>
</svg>
