<?xml version="1.0" encoding="UTF-8" standalone="no"?>
<!DOCTYPE svg PUBLIC "-//W3C//DTD SVG 1.1//EN"
 "http://www.w3.org/Graphics/SVG/1.1/DTD/svg11.dtd">
<!-- Generated by graphviz version 14.0.1 (20251006.0113)
 -->
<!-- Title: java/com/runehive/game/task/impl/HunterTask.java Pages: 1 -->
<svg width="1762pt" height="147pt"
 viewBox="0.00 0.00 1762.00 147.00" xmlns="http://www.w3.org/2000/svg" xmlns:xlink="http://www.w3.org/1999/xlink">
<g id="graph0" class="graph" transform="scale(1 1) rotate(0) translate(4 143.24)">
<title>java/com/runehive/game/task/impl/HunterTask.java</title>
<!-- Node1 -->
<g id="Node000001" class="node">
<title>Node1</title>
<g id="a_Node000001"><a xlink:title=" ">
<ellipse fill="#999999" stroke="#666666" cx="1080.91" cy="-113.43" rx="109.96" ry="25.81"/>
<text xml:space="preserve" text-anchor="start" x="1011.16" y="-116.28" font-family="Helvetica,sans-Serif" font-size="12.00">java/com/runehive/game</text>
<text xml:space="preserve" text-anchor="middle" x="1080.91" y="-102.03" font-family="Helvetica,sans-Serif" font-size="12.00">/task/impl/HunterTask.java</text>
</a>
</g>
</g>
<!-- Node2 -->
<g id="Node000002" class="node">
<title>Node2</title>
<g id="a_Node000002"><a xlink:title=" ">
<ellipse fill="#e0e0e0" stroke="#999999" cx="187.91" cy="-25.81" rx="187.91" ry="15.73"/>
<text xml:space="preserve" text-anchor="middle" x="187.91" y="-21.53" font-family="Helvetica,sans-Serif" font-size="12.00">com.runehive.content.skill.impl.hunter.trap.Trap</text>
</a>
</g>
</g>
<!-- Node1&#45;&gt;Node2 -->
<g id="edge1_Node000001_Node000002" class="edge">
<title>Node1&#45;&gt;Node2</title>
<g id="a_edge1_Node000001_Node000002"><a xlink:title=" ">
<path fill="none" stroke="#63b8ff" d="M977.03,-104.59C840.89,-94.04 594.78,-73.99 384.91,-51.62 356.01,-48.54 324.78,-44.8 295.89,-41.16"/>
<polygon fill="#63b8ff" stroke="#63b8ff" points="296.38,-37.7 286.02,-39.91 295.5,-44.64 296.38,-37.7"/>
</a>
</g>
</g>
<!-- Node3 -->
<g id="Node000003" class="node">
<title>Node3</title>
<g id="a_Node000003"><a xlink:title=" ">
<ellipse fill="#e0e0e0" stroke="#999999" cx="564.91" cy="-25.81" rx="170.94" ry="25.81"/>
<text xml:space="preserve" text-anchor="start" x="452.04" y="-28.66" font-family="Helvetica,sans-Serif" font-size="12.00">com.runehive.content.skill.impl.hunter.trap.</text>
<text xml:space="preserve" text-anchor="middle" x="564.91" y="-14.41" font-family="Helvetica,sans-Serif" font-size="12.00">TrapExecution</text>
</a>
</g>
</g>
<!-- Node1&#45;&gt;Node3 -->
<g id="edge2_Node000001_Node000003" class="edge">
<title>Node1&#45;&gt;Node3</title>
<g id="a_edge2_Node000001_Node000003"><a xlink:title=" ">
<path fill="none" stroke="#63b8ff" d="M992.5,-97.76C908.93,-83.89 782.72,-62.95 689.06,-47.41"/>
<polygon fill="#63b8ff" stroke="#63b8ff" points="689.74,-43.97 679.3,-45.79 688.59,-50.88 689.74,-43.97"/>
</a>
</g>
</g>
<!-- Node4 -->
<g id="Node000004" class="node">
<title>Node4</title>
<g id="a_Node000004"><a xlink:title=" ">
<ellipse fill="#e0e0e0" stroke="#999999" cx="924.91" cy="-25.81" rx="170.94" ry="25.81"/>
<text xml:space="preserve" text-anchor="start" x="812.04" y="-28.66" font-family="Helvetica,sans-Serif" font-size="12.00">com.runehive.content.skill.impl.hunter.trap.</text>
<text xml:space="preserve" text-anchor="middle" x="924.91" y="-14.41" font-family="Helvetica,sans-Serif" font-size="12.00">TrapManager</text>
</a>
</g>
</g>
<!-- Node1&#45;&gt;Node4 -->
<g id="edge3_Node000001_Node000004" class="edge">
<title>Node1&#45;&gt;Node4</title>
<g id="a_edge3_Node000001_Node000004"><a xlink:title=" ">
<path fill="none" stroke="#63b8ff" d="M1038.7,-89.26C1020.41,-79.22 998.77,-67.35 979.3,-56.66"/>
<polygon fill="#63b8ff" stroke="#63b8ff" points="981.12,-53.67 970.67,-51.92 977.75,-59.8 981.12,-53.67"/>
</a>
</g>
</g>
<!-- Node5 -->
<g id="Node000005" class="node">
<title>Node5</title>
<g id="a_Node000005"><a xlink:title=" ">
<ellipse fill="#e0e0e0" stroke="#999999" cx="1236.91" cy="-25.81" rx="122.68" ry="15.73"/>
<text xml:space="preserve" text-anchor="middle" x="1236.91" y="-21.53" font-family="Helvetica,sans-Serif" font-size="12.00">com.runehive.game.task.Task</text>
</a>
</g>
</g>
<!-- Node1&#45;&gt;Node5 -->
<g id="edge4_Node000001_Node000005" class="edge">
<title>Node1&#45;&gt;Node5</title>
<g id="a_edge4_Node000001_Node000005"><a xlink:title=" ">
<path fill="none" stroke="#63b8ff" d="M1123.13,-89.26C1147.07,-76.12 1176.76,-59.82 1199.81,-47.17"/>
<polygon fill="#63b8ff" stroke="#63b8ff" points="1201.48,-50.25 1208.56,-42.37 1198.11,-44.11 1201.48,-50.25"/>
</a>
</g>
</g>
<!-- Node6 -->
<g id="Node000006" class="node">
<title>Node6</title>
<g id="a_Node000006"><a xlink:title=" ">
<ellipse fill="#e0e0e0" stroke="#999999" cx="1487.91" cy="-25.81" rx="110.49" ry="25.81"/>
<text xml:space="preserve" text-anchor="start" x="1417.79" y="-28.66" font-family="Helvetica,sans-Serif" font-size="12.00">com.runehive.game.world.</text>
<text xml:space="preserve" text-anchor="middle" x="1487.91" y="-14.41" font-family="Helvetica,sans-Serif" font-size="12.00">World</text>
</a>
</g>
</g>
<!-- Node1&#45;&gt;Node6 -->
<g id="edge5_Node000001_Node000006" class="edge">
<title>Node1&#45;&gt;Node6</title>
<g id="a_edge5_Node000001_Node000006"><a xlink:title=" ">
<path fill="none" stroke="#63b8ff" d="M1161.32,-95.51C1228.94,-81.29 1325.61,-60.95 1396.22,-46.1"/>
<polygon fill="#63b8ff" stroke="#63b8ff" points="1396.78,-49.56 1405.84,-44.07 1395.34,-42.71 1396.78,-49.56"/>
</a>
</g>
</g>
<!-- Node7 -->
<g id="Node000007" class="node">
<title>Node7</title>
<g id="a_Node000007"><a xlink:title=" ">
<ellipse fill="#e0e0e0" stroke="#999999" cx="1684.91" cy="-25.81" rx="68.59" ry="15.73"/>
<text xml:space="preserve" text-anchor="middle" x="1684.91" y="-21.53" font-family="Helvetica,sans-Serif" font-size="12.00">java.util.Iterator</text>
</a>
</g>
</g>
<!-- Node1&#45;&gt;Node7 -->
<g id="edge6_Node000001_Node000007" class="edge">
<title>Node1&#45;&gt;Node7</title>
<g id="a_edge6_Node000001_Node000007"><a xlink:title=" ">
<path fill="none" stroke="#63b8ff" d="M1186.93,-106.2C1293.86,-98.51 1463.22,-82.47 1606.91,-51.62 1617.32,-49.38 1628.32,-46.33 1638.66,-43.13"/>
<polygon fill="#63b8ff" stroke="#63b8ff" points="1639.68,-46.48 1648.14,-40.1 1637.55,-39.82 1639.68,-46.48"/>
</a>
</g>
</g>
</g>
</svg>
