<?xml version="1.0" encoding="UTF-8" standalone="no"?>
<!DOCTYPE svg PUBLIC "-//W3C//DTD SVG 1.1//EN"
 "http://www.w3.org/Graphics/SVG/1.1/DTD/svg11.dtd">
<!-- Generated by graphviz version 14.0.1 (20251006.0113)
 -->
<!-- Title: java/com/runehive/game/world/items/containers/ItemContainer.java Pages: 1 -->
<!--zoomable 167 -->

<svg id="main" version="1.1" xmlns="http://www.w3.org/2000/svg" xmlns:xlink="http://www.w3.org/1999/xlink" xml:space="preserve" onload="init(evt)">

<style type="text/css"><![CDATA[
.node, .edge {opacity: 0.7;}
.node.selected, .edge.selected {opacity: 1;}
.edge:hover path { stroke: red; }
.edge:hover polygon { stroke: red; fill: red; }
]]></style>

<defs>
  <circle id="rim" cx="0" cy="0" r="7"/>
  <circle id="rim2" cx="0" cy="0" r="3.5"/>
  <g id="zoomPlus">
    <use xlink:href="#rim" fill="#404040"><set attributeName="fill" to="#808080" begin="zoomplus.mouseover" end="zoomplus.mouseout"/></use>
    <path d="M-4,0h8M0,-4v8" fill="none" stroke="white" stroke-width="1.5" pointer-events="none"/>
  </g>
  <g id="zoomMin">
    <use xlink:href="#rim" fill="#404040"><set attributeName="fill" to="#808080" begin="zoomminus.mouseover" end="zoomminus.mouseout"/></use>
    <path d="M-4,0h8" fill="none" stroke="white" stroke-width="1.5" pointer-events="none"/>
  </g>
  <g id="arrowUp" transform="translate(30 24)">
    <use xlink:href="#rim"/>
    <path pointer-events="none" fill="none" stroke="white" stroke-width="1.5" d="M0,-3.0v7 M-2.5,-0.5L0,-3.0L2.5,-0.5"/>
  </g>
  <g id="arrowRight" transform="rotate(90) translate(36 -43)">
    <use xlink:href="#rim"/>
    <path pointer-events="none" fill="none" stroke="white" stroke-width="1.5" d="M0,-3.0v7 M-2.5,-0.5L0,-3.0L2.5,-0.5"/>
  </g>
  <g id="arrowDown" transform="rotate(180) translate(-30 -48)">
    <use xlink:href="#rim"/>
    <path pointer-events="none" fill="none" stroke="white" stroke-width="1.5" d="M0,-3.0v7 M-2.5,-0.5L0,-3.0L2.5,-0.5"/>
  </g>
  <g id="arrowLeft" transform="rotate(270) translate(-36 17)">
    <use xlink:href="#rim"/>
    <path pointer-events="none" fill="none" stroke="white" stroke-width="1.5" d="M0,-3.0v7 M-2.5,-0.5L0,-3.0L2.5,-0.5"/>
  </g>
  <g id="resetDef">
    <use xlink:href="#rim2" fill="#404040"><set attributeName="fill" to="#808080" begin="reset.mouseover" end="reset.mouseout"/></use>
  </g>
</defs>
<script type="application/ecmascript">
var viewWidth = 3658;
var viewHeight = 167;
var sectionId = 'dynsection-0';
</script>
<script type="application/ecmascript" xlink:href="svg.min.js"/>
<svg id="graph" class="graph">
<g id="viewport">
<title>java/com/runehive/game/world/items/containers/ItemContainer.java</title>
<!-- Node1 -->
<g id="Node000001" class="node">
<title>Node1</title>
<g id="a_Node000001"><a xlink:title=" ">
<ellipse fill="#999999" stroke="#666666" cx="1990.58" cy="-123.5" rx="103.59" ry="35.89"/>
<text xml:space="preserve" text-anchor="start" x="1925.33" y="-133.48" font-family="Helvetica,sans-Serif" font-size="12.00">java/com/runehive/game</text>
<text xml:space="preserve" text-anchor="start" x="1925.33" y="-119.23" font-family="Helvetica,sans-Serif" font-size="12.00">/world/items/containers</text>
<text xml:space="preserve" text-anchor="middle" x="1990.58" y="-104.98" font-family="Helvetica,sans-Serif" font-size="12.00">/ItemContainer.java</text>
</a>
</g>
</g>
<!-- Node2 -->
<g id="Node000002" class="node">
<title>Node2</title>
<g id="a_Node000002"><a xlink:title=" ">
<ellipse fill="#e0e0e0" stroke="#999999" cx="164.58" cy="-25.81" rx="164.58" ry="15.73"/>
<text xml:space="preserve" text-anchor="middle" x="164.58" y="-21.53" font-family="Helvetica,sans-Serif" font-size="12.00">com.google.common.base.Preconditions</text>
</a>
</g>
</g>
<!-- Node1&#45;&gt;Node2 -->
<g id="edge1_Node000001_Node000002" class="edge">
<title>Node1&#45;&gt;Node2</title>
<g id="a_edge1_Node000001_Node000002"><a xlink:title=" ">
<path fill="none" stroke="#63b8ff" d="M1886.86,-121.64C1626.01,-118.69 921.76,-105.9 337.58,-51.62 310.88,-49.14 282,-45.41 255.62,-41.6"/>
<polygon fill="#63b8ff" stroke="#63b8ff" points="256.38,-38.17 245.98,-40.18 255.37,-45.1 256.38,-38.17"/>
</a>
</g>
</g>
<!-- Node3 -->
<g id="Node000003" class="node">
<title>Node3</title>
<g id="a_Node000003"><a xlink:title=" ">
<ellipse fill="#e0e0e0" stroke="#999999" cx="522.58" cy="-25.81" rx="175.72" ry="25.81"/>
<text xml:space="preserve" text-anchor="start" x="406.33" y="-28.66" font-family="Helvetica,sans-Serif" font-size="12.00">com.runehive.game.world.entity.mob.player.</text>
<text xml:space="preserve" text-anchor="middle" x="522.58" y="-14.41" font-family="Helvetica,sans-Serif" font-size="12.00">Player</text>
</a>
</g>
</g>
<!-- Node1&#45;&gt;Node3 -->
<g id="edge2_Node000001_Node000003" class="edge">
<title>Node1&#45;&gt;Node3</title>
<g id="a_edge2_Node000001_Node000003"><a xlink:title=" ">
<path fill="none" stroke="#63b8ff" d="M1887.18,-119.56C1668.76,-112.74 1144.43,-93.16 706.58,-51.62 690.26,-50.07 673.16,-48.16 656.24,-46.09"/>
<polygon fill="#63b8ff" stroke="#63b8ff" points="657.01,-42.66 646.65,-44.89 656.15,-49.6 657.01,-42.66"/>
</a>
</g>
</g>
<!-- Node4 -->
<g id="Node000004" class="node">
<title>Node4</title>
<g id="a_Node000004"><a xlink:title=" ">
<ellipse fill="#e0e0e0" stroke="#999999" cx="864.58" cy="-25.81" rx="148.67" ry="15.73"/>
<text xml:space="preserve" text-anchor="middle" x="864.58" y="-21.53" font-family="Helvetica,sans-Serif" font-size="12.00">com.runehive.game.world.items.Item</text>
</a>
</g>
</g>
<!-- Node1&#45;&gt;Node4 -->
<g id="edge3_Node000001_Node000004" class="edge">
<title>Node1&#45;&gt;Node4</title>
<g id="a_edge3_Node000001_Node000004"><a xlink:title=" ">
<path fill="none" stroke="#63b8ff" d="M1888.12,-117.83C1711.03,-109.13 1336.4,-87.94 1021.58,-51.62 998.26,-48.93 973.1,-45.29 949.89,-41.62"/>
<polygon fill="#63b8ff" stroke="#63b8ff" points="950.6,-38.19 940.17,-40.06 949.49,-45.1 950.6,-38.19"/>
</a>
</g>
</g>
<!-- Node5 -->
<g id="Node000005" class="node">
<title>Node5</title>
<g id="a_Node000005"><a xlink:title=" ">
<ellipse fill="#e0e0e0" stroke="#999999" cx="1163.58" cy="-25.81" rx="132.76" ry="25.81"/>
<text xml:space="preserve" text-anchor="start" x="1077.7" y="-28.66" font-family="Helvetica,sans-Serif" font-size="12.00">com.runehive.game.world.items.</text>
<text xml:space="preserve" text-anchor="middle" x="1163.58" y="-14.41" font-family="Helvetica,sans-Serif" font-size="12.00">ItemDefinition</text>
</a>
</g>
</g>
<!-- Node1&#45;&gt;Node5 -->
<g id="edge4_Node000001_Node000005" class="edge">
<title>Node1&#45;&gt;Node5</title>
<g id="a_edge4_Node000001_Node000005"><a xlink:title=" ">
<path fill="none" stroke="#63b8ff" d="M1889.91,-114.3C1756.13,-102.9 1512.52,-80.37 1305.58,-51.62 1293.81,-49.98 1281.53,-48.1 1269.32,-46.12"/>
<polygon fill="#63b8ff" stroke="#63b8ff" points="1270.08,-42.7 1259.64,-44.53 1268.94,-49.61 1270.08,-42.7"/>
</a>
</g>
</g>
<!-- Node6 -->
<g id="Node000006" class="node">
<title>Node6</title>
<g id="a_Node000006"><a xlink:title=" ">
<ellipse fill="#e0e0e0" stroke="#999999" cx="1538.58" cy="-25.81" rx="223.98" ry="25.81"/>
<text xml:space="preserve" text-anchor="start" x="1388.2" y="-28.66" font-family="Helvetica,sans-Serif" font-size="12.00">com.runehive.game.world.items.containers.pricechecker.</text>
<text xml:space="preserve" text-anchor="middle" x="1538.58" y="-14.41" font-family="Helvetica,sans-Serif" font-size="12.00">PriceType</text>
</a>
</g>
</g>
<!-- Node1&#45;&gt;Node6 -->
<g id="edge5_Node000001_Node000006" class="edge">
<title>Node1&#45;&gt;Node6</title>
<g id="a_edge5_Node000001_Node000006"><a xlink:title=" ">
<path fill="none" stroke="#63b8ff" d="M1902.89,-103.94C1832.18,-88.97 1732.1,-67.78 1654.73,-51.4"/>
<polygon fill="#63b8ff" stroke="#63b8ff" points="1655.47,-47.98 1644.97,-49.33 1654.02,-54.83 1655.47,-47.98"/>
</a>
</g>
</g>
<!-- Node7 -->
<g id="Node000007" class="node">
<title>Node7</title>
<g id="a_Node000007"><a xlink:title=" ">
<ellipse fill="#e0e0e0" stroke="#999999" cx="1899.58" cy="-25.81" rx="118.97" ry="25.81"/>
<text xml:space="preserve" text-anchor="start" x="1823.45" y="-28.66" font-family="Helvetica,sans-Serif" font-size="12.00">com.runehive.net.packet.out.</text>
<text xml:space="preserve" text-anchor="middle" x="1899.58" y="-14.41" font-family="Helvetica,sans-Serif" font-size="12.00">SendItemOnInterface</text>
</a>
</g>
</g>
<!-- Node1&#45;&gt;Node7 -->
<g id="edge6_Node000001_Node000007" class="edge">
<title>Node1&#45;&gt;Node7</title>
<g id="a_edge6_Node000001_Node000007"><a xlink:title=" ">
<path fill="none" stroke="#63b8ff" d="M1958.75,-89.03C1949.63,-79.45 1939.71,-69.01 1930.64,-59.47"/>
<polygon fill="#63b8ff" stroke="#63b8ff" points="1933.4,-57.3 1923.97,-52.46 1928.33,-62.12 1933.4,-57.3"/>
</a>
</g>
</g>
<!-- Node8 -->
<g id="Node000008" class="node">
<title>Node8</title>
<g id="a_Node000008"><a xlink:title=" ">
<ellipse fill="#e0e0e0" stroke="#999999" cx="2082.58" cy="-25.81" rx="45.79" ry="15.73"/>
<text xml:space="preserve" text-anchor="middle" x="2082.58" y="-21.53" font-family="Helvetica,sans-Serif" font-size="12.00">java.util.*</text>
</a>
</g>
</g>
<!-- Node1&#45;&gt;Node8 -->
<g id="edge7_Node000001_Node000008" class="edge">
<title>Node1&#45;&gt;Node8</title>
<g id="a_edge7_Node000001_Node000008"><a xlink:title=" ">
<path fill="none" stroke="#63b8ff" d="M2022.76,-89.03C2035.43,-75.85 2049.65,-61.06 2061.05,-49.21"/>
<polygon fill="#63b8ff" stroke="#63b8ff" points="2063.32,-51.89 2067.73,-42.25 2058.28,-47.04 2063.32,-51.89"/>
</a>
</g>
</g>
<!-- Node9 -->
<g id="Node000009" class="node">
<title>Node9</title>
<g id="a_Node000009"><a xlink:title=" ">
<ellipse fill="#e0e0e0" stroke="#999999" cx="2259.58" cy="-25.81" rx="113.67" ry="15.73"/>
<text xml:space="preserve" text-anchor="middle" x="2259.58" y="-21.53" font-family="Helvetica,sans-Serif" font-size="12.00">java.util.function.Consumer</text>
</a>
</g>
</g>
<!-- Node1&#45;&gt;Node9 -->
<g id="edge8_Node000001_Node000009" class="edge">
<title>Node1&#45;&gt;Node9</title>
<g id="a_edge8_Node000001_Node000009"><a xlink:title=" ">
<path fill="none" stroke="#63b8ff" d="M2061.96,-97.11C2108.4,-80.59 2167.81,-59.45 2209.32,-44.69"/>
<polygon fill="#63b8ff" stroke="#63b8ff" points="2210.32,-48.05 2218.57,-41.4 2207.97,-41.45 2210.32,-48.05"/>
</a>
</g>
</g>
<!-- Node10 -->
<g id="Node000010" class="node">
<title>Node10</title>
<g id="a_Node000010"><a xlink:title=" ">
<ellipse fill="#e0e0e0" stroke="#999999" cx="2488.58" cy="-25.81" rx="97.23" ry="15.73"/>
<text xml:space="preserve" text-anchor="middle" x="2488.58" y="-21.53" font-family="Helvetica,sans-Serif" font-size="12.00">java.util.stream.Stream</text>
</a>
</g>
</g>
<!-- Node1&#45;&gt;Node10 -->
<g id="edge9_Node000001_Node000010" class="edge">
<title>Node1&#45;&gt;Node10</title>
<g id="a_edge9_Node000001_Node000010"><a xlink:title=" ">
<path fill="none" stroke="#63b8ff" d="M2083.11,-107.14C2162.7,-93.6 2280.49,-72.78 2382.58,-51.62 2396.52,-48.73 2411.45,-45.39 2425.56,-42.12"/>
<polygon fill="#63b8ff" stroke="#63b8ff" points="2426.26,-45.55 2435.19,-39.86 2424.66,-38.73 2426.26,-45.55"/>
</a>
</g>
</g>
<!-- Node11 -->
<g id="Node000011" class="node">
<title>Node11</title>
<g id="a_Node000011"><a xlink:title=" ">
<ellipse fill="#e0e0e0" stroke="#999999" cx="2730.58" cy="-25.81" rx="126.93" ry="15.73"/>
<text xml:space="preserve" text-anchor="middle" x="2730.58" y="-21.53" font-family="Helvetica,sans-Serif" font-size="12.00">java.util.stream.StreamSupport</text>
</a>
</g>
</g>
<!-- Node1&#45;&gt;Node11 -->
<g id="edge10_Node000001_Node000011" class="edge">
<title>Node1&#45;&gt;Node11</title>
<g id="a_edge10_Node000001_Node000011"><a xlink:title=" ">
<path fill="none" stroke="#63b8ff" d="M2089.97,-112.8C2209.88,-100.64 2417.46,-78.14 2594.58,-51.62 2613.83,-48.74 2634.52,-45.19 2653.82,-41.69"/>
<polygon fill="#63b8ff" stroke="#63b8ff" points="2654.31,-45.16 2663.52,-39.92 2653.05,-38.28 2654.31,-45.16"/>
</a>
</g>
</g>
<!-- Node12 -->
<g id="Node000012" class="node">
<title>Node12</title>
<g id="a_Node000012"><a xlink:title=" ">
<ellipse fill="#e0e0e0" stroke="#999999" cx="3064.58" cy="-25.81" rx="188.97" ry="25.81"/>
<text xml:space="preserve" text-anchor="start" x="2938.95" y="-28.66" font-family="Helvetica,sans-Serif" font-size="12.00">com.google.common.base.Preconditions.check</text>
<text xml:space="preserve" text-anchor="middle" x="3064.58" y="-14.41" font-family="Helvetica,sans-Serif" font-size="12.00">Argument</text>
</a>
</g>
</g>
<!-- Node1&#45;&gt;Node12 -->
<g id="edge11_Node000001_Node000012" class="edge">
<title>Node1&#45;&gt;Node12</title>
<g id="a_edge11_Node000001_Node000012"><a xlink:title=" ">
<path fill="none" stroke="#63b8ff" d="M2092.21,-115.74C2255.6,-104.53 2586.74,-80.46 2866.58,-51.62 2883.69,-49.86 2901.62,-47.84 2919.39,-45.74"/>
<polygon fill="#63b8ff" stroke="#63b8ff" points="2919.72,-49.23 2929.24,-44.57 2918.89,-42.28 2919.72,-49.23"/>
</a>
</g>
</g>
<!-- Node13 -->
<g id="Node000013" class="node">
<title>Node13</title>
<g id="a_Node000013"><a xlink:title=" ">
<ellipse fill="#e0e0e0" stroke="#999999" cx="3460.58" cy="-25.81" rx="188.97" ry="25.81"/>
<text xml:space="preserve" text-anchor="start" x="3334.95" y="-28.66" font-family="Helvetica,sans-Serif" font-size="12.00">com.google.common.base.Preconditions.check</text>
<text xml:space="preserve" text-anchor="middle" x="3460.58" y="-14.41" font-family="Helvetica,sans-Serif" font-size="12.00">State</text>
</a>
</g>
</g>
<!-- Node1&#45;&gt;Node13 -->
<g id="edge12_Node000001_Node000013" class="edge">
<title>Node1&#45;&gt;Node13</title>
<g id="a_edge12_Node000001_Node000013"><a xlink:title=" ">
<path fill="none" stroke="#63b8ff" d="M2093.8,-119.17C2310.62,-111.63 2829.18,-90.8 3262.58,-51.62 3280.29,-50.02 3298.87,-48.06 3317.24,-45.95"/>
<polygon fill="#63b8ff" stroke="#63b8ff" points="3317.62,-49.43 3327.15,-44.8 3316.81,-42.48 3317.62,-49.43"/>
</a>
</g>
</g>
</g>
</svg>

<g id="navigator" transform="translate(0 0)" fill="#404254">
  <rect fill="#f2f5e9" fill-opacity="0.5" stroke="#606060" stroke-width=".5" x="0" y="0" width="60" height="60"/>
  <use id="zoomplus" xlink:href="#zoomPlus" x="17" y="9" onmousedown="handleZoom(evt,'in')"/>
  <use id="zoomminus" xlink:href="#zoomMin" x="42" y="9" onmousedown="handleZoom(evt,'out')"/>
  <use id="reset" xlink:href="#resetDef" x="30" y="36" onmousedown="handleReset()"/>
   <use id="arrowup" xlink:href="#arrowUp" x="0" y="0" onmousedown="handlePan(0,-1)"/>
  <use id="arrowright" xlink:href="#arrowRight" x="0" y="0" onmousedown="handlePan(1,0)"/>
  <use id="arrowdown" xlink:href="#arrowDown" x="0" y="0" onmousedown="handlePan(0,1)"/>
  <use id="arrowleft" xlink:href="#arrowLeft" x="0" y="0" onmousedown="handlePan(-1,0)"/>
</g>
<svg viewBox="0 0 15 15" width="100%" height="30px" preserveAspectRatio="xMaxYMin meet">
 <g id="arrow_out" transform="scale(0.3 0.3)">
  <a xlink:href="_item_container_8java__incl_org.svg" target="_base">
   <rect id="button" ry="5" rx="5" y="6" x="6" height="38" width="38"
        fill="#f2f5e9" fill-opacity="0.5" stroke="#606060" stroke-width="1.0"/>
   <path id="arrow"
     d="M 11.500037,31.436501 C 11.940474,20.09759 22.043105,11.32322 32.158766,21.979434 L 37.068811,17.246167 C 37.068811,17.246167 37.088388,32 37.088388,32 L 22.160133,31.978069 C 22.160133,31.978069 26.997745,27.140456 26.997745,27.140456 C 18.528582,18.264221 13.291696,25.230495 11.500037,31.436501 z"
     style="fill:#404040;"/>
  </a>
 </g>
</svg>

<style type='text/css'>
<![CDATA[
[data-mouse-over-selected='false'] { opacity: 0.7; }
[data-mouse-over-selected='true']  { opacity: 1.0; }
]]>
</style>
<script type="application/ecmascript"><![CDATA[
document.addEventListener('DOMContentLoaded', (event) => {
  highlightEdges();
  highlightAdjacentNodes();
});
]]></script>
</svg>
