<?xml version="1.0" encoding="UTF-8" standalone="no"?>
<!DOCTYPE svg PUBLIC "-//W3C//DTD SVG 1.1//EN"
 "http://www.w3.org/Graphics/SVG/1.1/DTD/svg11.dtd">
<!-- Generated by graphviz version 14.0.1 (20251006.0113)
 -->
<!-- Title: java/com/runehive/content/activity/infernomobs/JalTokJad.java Pages: 1 -->
<svg width="9882pt" height="147pt"
 viewBox="0.00 0.00 9882.00 147.00" xmlns="http://www.w3.org/2000/svg" xmlns:xlink="http://www.w3.org/1999/xlink">
<g id="graph0" class="graph" transform="scale(1 1) rotate(0) translate(4 143.24)">
<title>java/com/runehive/content/activity/infernomobs/JalTokJad.java</title>
<!-- Node1 -->
<g id="Node000001" class="node">
<title>Node1</title>
<g id="a_Node000001"><a xlink:title=" ">
<ellipse fill="#999999" stroke="#666666" cx="4919.87" cy="-113.43" rx="146.55" ry="25.81"/>
<text xml:space="preserve" text-anchor="start" x="4824.24" y="-116.28" font-family="Helvetica,sans-Serif" font-size="12.00">java/com/runehive/content</text>
<text xml:space="preserve" text-anchor="middle" x="4919.87" y="-102.03" font-family="Helvetica,sans-Serif" font-size="12.00">/activity/infernomobs/JalTokJad.java</text>
</a>
</g>
</g>
<!-- Node2 -->
<g id="Node000002" class="node">
<title>Node2</title>
<g id="a_Node000002"><a xlink:title=" ">
<ellipse fill="#e0e0e0" stroke="#999999" cx="125.87" cy="-25.81" rx="125.87" ry="15.73"/>
<text xml:space="preserve" text-anchor="middle" x="125.87" y="-21.53" font-family="Helvetica,sans-Serif" font-size="12.00">com.runehive.game.Animation</text>
</a>
</g>
</g>
<!-- Node1&#45;&gt;Node2 -->
<g id="edge1_Node000001_Node000002" class="edge">
<title>Node1&#45;&gt;Node2</title>
<g id="a_edge1_Node000001_Node000002"><a xlink:title=" ">
<path fill="none" stroke="#63b8ff" d="M4773.17,-111.99C4032.17,-109.56 718.07,-96.29 260.87,-51.62 239.95,-49.58 217.43,-46 196.89,-42.18"/>
<polygon fill="#63b8ff" stroke="#63b8ff" points="197.67,-38.77 187.19,-40.33 196.36,-45.64 197.67,-38.77"/>
</a>
</g>
</g>
<!-- Node3 -->
<g id="Node000003" class="node">
<title>Node3</title>
<g id="a_Node000003"><a xlink:title=" ">
<ellipse fill="#e0e0e0" stroke="#999999" cx="386.87" cy="-25.81" rx="117.38" ry="15.73"/>
<text xml:space="preserve" text-anchor="middle" x="386.87" y="-21.53" font-family="Helvetica,sans-Serif" font-size="12.00">com.runehive.game.Graphic</text>
</a>
</g>
</g>
<!-- Node1&#45;&gt;Node3 -->
<g id="edge2_Node000001_Node000003" class="edge">
<title>Node1&#45;&gt;Node3</title>
<g id="a_edge2_Node000001_Node000003"><a xlink:title=" ">
<path fill="none" stroke="#63b8ff" d="M4773.22,-111.97C4057.07,-109.5 944.38,-96.28 513.87,-51.62 494.35,-49.59 473.36,-46.06 454.18,-42.29"/>
<polygon fill="#63b8ff" stroke="#63b8ff" points="455.1,-38.9 444.6,-40.35 453.71,-45.76 455.1,-38.9"/>
</a>
</g>
</g>
<!-- Node4 -->
<g id="Node000004" class="node">
<title>Node4</title>
<g id="a_Node000004"><a xlink:title=" ">
<ellipse fill="#e0e0e0" stroke="#999999" cx="637.87" cy="-25.81" rx="115.26" ry="25.81"/>
<text xml:space="preserve" text-anchor="start" x="564.37" y="-28.66" font-family="Helvetica,sans-Serif" font-size="12.00">com.runehive.game.Update</text>
<text xml:space="preserve" text-anchor="middle" x="637.87" y="-14.41" font-family="Helvetica,sans-Serif" font-size="12.00">Priority</text>
</a>
</g>
</g>
<!-- Node1&#45;&gt;Node4 -->
<g id="edge3_Node000001_Node000004" class="edge">
<title>Node1&#45;&gt;Node4</title>
<g id="a_edge3_Node000001_Node000004"><a xlink:title=" ">
<path fill="none" stroke="#63b8ff" d="M4773.24,-111.88C4082.12,-109.05 1166.41,-94.68 761.87,-51.62 750.98,-50.46 739.62,-48.81 728.4,-46.91"/>
<polygon fill="#63b8ff" stroke="#63b8ff" points="729.19,-43.49 718.74,-45.19 727.97,-50.38 729.19,-43.49"/>
</a>
</g>
</g>
<!-- Node5 -->
<g id="Node000005" class="node">
<title>Node5</title>
<g id="a_Node000005"><a xlink:title=" ">
<ellipse fill="#e0e0e0" stroke="#999999" cx="893.87" cy="-25.81" rx="122.68" ry="15.73"/>
<text xml:space="preserve" text-anchor="middle" x="893.87" y="-21.53" font-family="Helvetica,sans-Serif" font-size="12.00">com.runehive.game.task.Task</text>
</a>
</g>
</g>
<!-- Node1&#45;&gt;Node5 -->
<g id="edge4_Node000001_Node000005" class="edge">
<title>Node1&#45;&gt;Node5</title>
<g id="a_edge4_Node000001_Node000005"><a xlink:title=" ">
<path fill="none" stroke="#63b8ff" d="M4773.27,-111.62C4109.68,-107.75 1403.15,-89.74 1025.87,-51.62 1005.5,-49.56 983.59,-46 963.58,-42.21"/>
<polygon fill="#63b8ff" stroke="#63b8ff" points="964.33,-38.79 953.85,-40.31 963,-45.66 964.33,-38.79"/>
</a>
</g>
</g>
<!-- Node6 -->
<g id="Node000006" class="node">
<title>Node6</title>
<g id="a_Node000006"><a xlink:title=" ">
<ellipse fill="#e0e0e0" stroke="#999999" cx="1157.87" cy="-25.81" rx="123.21" ry="25.81"/>
<text xml:space="preserve" text-anchor="start" x="1078.74" y="-28.66" font-family="Helvetica,sans-Serif" font-size="12.00">com.runehive.game.task.impl.</text>
<text xml:space="preserve" text-anchor="middle" x="1157.87" y="-14.41" font-family="Helvetica,sans-Serif" font-size="12.00">CeillingCollapseTask</text>
</a>
</g>
</g>
<!-- Node1&#45;&gt;Node6 -->
<g id="edge5_Node000001_Node000006" class="edge">
<title>Node1&#45;&gt;Node6</title>
<g id="a_edge5_Node000001_Node000006"><a xlink:title=" ">
<path fill="none" stroke="#63b8ff" d="M4773.26,-111.43C4138.17,-106.88 1640.63,-86.92 1290.87,-51.62 1278.88,-50.41 1266.35,-48.69 1253.99,-46.71"/>
<polygon fill="#63b8ff" stroke="#63b8ff" points="1254.63,-43.27 1244.19,-45.08 1253.48,-50.17 1254.63,-43.27"/>
</a>
</g>
</g>
<!-- Node7 -->
<g id="Node000007" class="node">
<title>Node7</title>
<g id="a_Node000007"><a xlink:title=" ">
<ellipse fill="#e0e0e0" stroke="#999999" cx="1409.87" cy="-25.81" rx="110.49" ry="25.81"/>
<text xml:space="preserve" text-anchor="start" x="1339.74" y="-28.66" font-family="Helvetica,sans-Serif" font-size="12.00">com.runehive.game.world.</text>
<text xml:space="preserve" text-anchor="middle" x="1409.87" y="-14.41" font-family="Helvetica,sans-Serif" font-size="12.00">World</text>
</a>
</g>
</g>
<!-- Node1&#45;&gt;Node7 -->
<g id="edge6_Node000001_Node000007" class="edge">
<title>Node1&#45;&gt;Node7</title>
<g id="a_edge6_Node000001_Node000007"><a xlink:title=" ">
<path fill="none" stroke="#63b8ff" d="M4773.5,-111.42C4165.21,-107.03 1853.62,-88.06 1528.87,-51.62 1518.51,-50.46 1507.73,-48.82 1497.07,-46.94"/>
<polygon fill="#63b8ff" stroke="#63b8ff" points="1497.98,-43.55 1487.51,-45.17 1496.71,-50.43 1497.98,-43.55"/>
</a>
</g>
</g>
<!-- Node8 -->
<g id="Node000008" class="node">
<title>Node8</title>
<g id="a_Node000008"><a xlink:title=" ">
<ellipse fill="#e0e0e0" stroke="#999999" cx="1699.87" cy="-25.81" rx="161.93" ry="25.81"/>
<text xml:space="preserve" text-anchor="start" x="1593.37" y="-28.66" font-family="Helvetica,sans-Serif" font-size="12.00">com.runehive.game.world.entity.combat.</text>
<text xml:space="preserve" text-anchor="middle" x="1699.87" y="-14.41" font-family="Helvetica,sans-Serif" font-size="12.00">CombatType</text>
</a>
</g>
</g>
<!-- Node1&#45;&gt;Node8 -->
<g id="edge7_Node000001_Node000008" class="edge">
<title>Node1&#45;&gt;Node8</title>
<g id="a_edge7_Node000001_Node000008"><a xlink:title=" ">
<path fill="none" stroke="#63b8ff" d="M4773.12,-111.92C4245.38,-109.71 2444.87,-98.8 1870.87,-51.62 1855.08,-50.32 1838.52,-48.5 1822.19,-46.43"/>
<polygon fill="#63b8ff" stroke="#63b8ff" points="1822.81,-42.98 1812.44,-45.16 1821.9,-49.93 1822.81,-42.98"/>
</a>
</g>
</g>
<!-- Node9 -->
<g id="Node000009" class="node">
<title>Node9</title>
<g id="a_Node000009"><a xlink:title=" ">
<ellipse fill="#e0e0e0" stroke="#999999" cx="2065.87" cy="-25.81" rx="186.32" ry="25.81"/>
<text xml:space="preserve" text-anchor="start" x="1942.12" y="-28.66" font-family="Helvetica,sans-Serif" font-size="12.00">com.runehive.game.world.entity.combat.attack.</text>
<text xml:space="preserve" text-anchor="middle" x="2065.87" y="-14.41" font-family="Helvetica,sans-Serif" font-size="12.00">FightType</text>
</a>
</g>
</g>
<!-- Node1&#45;&gt;Node9 -->
<g id="edge8_Node000001_Node000009" class="edge">
<title>Node1&#45;&gt;Node9</title>
<g id="a_edge8_Node000001_Node000009"><a xlink:title=" ">
<path fill="none" stroke="#63b8ff" d="M4773.51,-111.08C4291.33,-106.34 2755.29,-88.62 2260.87,-51.62 2242.74,-50.26 2223.72,-48.4 2204.96,-46.29"/>
<polygon fill="#63b8ff" stroke="#63b8ff" points="2205.48,-42.83 2195.15,-45.16 2204.68,-49.78 2205.48,-42.83"/>
</a>
</g>
</g>
<!-- Node10 -->
<g id="Node000010" class="node">
<title>Node10</title>
<g id="a_Node000010"><a xlink:title=" ">
<ellipse fill="#e0e0e0" stroke="#999999" cx="2442.87" cy="-25.81" rx="173.06" ry="25.81"/>
<text xml:space="preserve" text-anchor="start" x="2328.49" y="-28.66" font-family="Helvetica,sans-Serif" font-size="12.00">com.runehive.game.world.entity.combat.hit.</text>
<text xml:space="preserve" text-anchor="middle" x="2442.87" y="-14.41" font-family="Helvetica,sans-Serif" font-size="12.00">CombatHit</text>
</a>
</g>
</g>
<!-- Node1&#45;&gt;Node10 -->
<g id="edge9_Node000001_Node000010" class="edge">
<title>Node1&#45;&gt;Node10</title>
<g id="a_edge9_Node000001_Node000010"><a xlink:title=" ">
<path fill="none" stroke="#63b8ff" d="M4774.02,-110.65C4337.4,-104.98 3044.98,-85.72 2624.87,-51.62 2608.05,-50.25 2590.41,-48.39 2573,-46.3"/>
<polygon fill="#63b8ff" stroke="#63b8ff" points="2573.47,-42.83 2563.11,-45.08 2572.61,-49.78 2573.47,-42.83"/>
</a>
</g>
</g>
<!-- Node11 -->
<g id="Node000011" class="node">
<title>Node11</title>
<g id="a_Node000011"><a xlink:title=" ">
<ellipse fill="#e0e0e0" stroke="#999999" cx="2817.87" cy="-25.81" rx="183.67" ry="15.73"/>
<text xml:space="preserve" text-anchor="middle" x="2817.87" y="-21.53" font-family="Helvetica,sans-Serif" font-size="12.00">com.runehive.game.world.entity.combat.hit.Hit</text>
</a>
</g>
</g>
<!-- Node1&#45;&gt;Node11 -->
<g id="edge10_Node000001_Node000011" class="edge">
<title>Node1&#45;&gt;Node11</title>
<g id="a_edge10_Node000001_Node000011"><a xlink:title=" ">
<path fill="none" stroke="#63b8ff" d="M4773.12,-112.58C4452.6,-111.86 3666.1,-104.34 3009.87,-51.62 2979.71,-49.2 2947.03,-45.41 2917.32,-41.52"/>
<polygon fill="#63b8ff" stroke="#63b8ff" points="2917.97,-38.08 2907.59,-40.23 2917.05,-45.01 2917.97,-38.08"/>
</a>
</g>
</g>
<!-- Node12 -->
<g id="Node000012" class="node">
<title>Node12</title>
<g id="a_Node000012"><a xlink:title=" ">
<ellipse fill="#e0e0e0" stroke="#999999" cx="3217.87" cy="-25.81" rx="198.52" ry="25.81"/>
<text xml:space="preserve" text-anchor="start" x="3085.49" y="-28.66" font-family="Helvetica,sans-Serif" font-size="12.00">com.runehive.game.world.entity.combat.projectile.</text>
<text xml:space="preserve" text-anchor="middle" x="3217.87" y="-14.41" font-family="Helvetica,sans-Serif" font-size="12.00">CombatProjectile</text>
</a>
</g>
</g>
<!-- Node1&#45;&gt;Node12 -->
<g id="edge11_Node000001_Node000012" class="edge">
<title>Node1&#45;&gt;Node12</title>
<g id="a_edge11_Node000001_Node000012"><a xlink:title=" ">
<path fill="none" stroke="#63b8ff" d="M4774.1,-110.27C4506.57,-105.47 3919.3,-91.03 3425.87,-51.62 3406.76,-50.09 3386.71,-48.14 3366.9,-46.01"/>
<polygon fill="#63b8ff" stroke="#63b8ff" points="3367.44,-42.55 3357.12,-44.94 3366.67,-49.51 3367.44,-42.55"/>
</a>
</g>
</g>
<!-- Node13 -->
<g id="Node000013" class="node">
<title>Node13</title>
<g id="a_Node000013"><a xlink:title=" ">
<ellipse fill="#e0e0e0" stroke="#999999" cx="3627.87" cy="-25.81" rx="193.22" ry="25.81"/>
<text xml:space="preserve" text-anchor="start" x="3499.24" y="-28.66" font-family="Helvetica,sans-Serif" font-size="12.00">com.runehive.game.world.entity.combat.strategy.</text>
<text xml:space="preserve" text-anchor="middle" x="3627.87" y="-14.41" font-family="Helvetica,sans-Serif" font-size="12.00">CombatStrategy</text>
</a>
</g>
</g>
<!-- Node1&#45;&gt;Node13 -->
<g id="edge12_Node000001_Node000013" class="edge">
<title>Node1&#45;&gt;Node13</title>
<g id="a_edge12_Node000001_Node000013"><a xlink:title=" ">
<path fill="none" stroke="#63b8ff" d="M4776.81,-107.48C4568.28,-99.58 4168.73,-81.85 3829.87,-51.62 3811.78,-50.01 3792.82,-48.04 3774.07,-45.93"/>
<polygon fill="#63b8ff" stroke="#63b8ff" points="3774.58,-42.47 3764.24,-44.81 3773.78,-49.42 3774.58,-42.47"/>
</a>
</g>
</g>
<!-- Node14 -->
<g id="Node000014" class="node">
<title>Node14</title>
<g id="a_Node000014"><a xlink:title=" ">
<ellipse fill="#e0e0e0" stroke="#999999" cx="4047.87" cy="-25.81" rx="209.13" ry="25.81"/>
<text xml:space="preserve" text-anchor="start" x="3907.99" y="-28.66" font-family="Helvetica,sans-Serif" font-size="12.00">com.runehive.game.world.entity.combat.strategy.npc.</text>
<text xml:space="preserve" text-anchor="middle" x="4047.87" y="-14.41" font-family="Helvetica,sans-Serif" font-size="12.00">MultiStrategy</text>
</a>
</g>
</g>
<!-- Node1&#45;&gt;Node14 -->
<g id="edge13_Node000001_Node000014" class="edge">
<title>Node1&#45;&gt;Node14</title>
<g id="a_edge13_Node000001_Node000014"><a xlink:title=" ">
<path fill="none" stroke="#63b8ff" d="M4790.12,-101.16C4658.1,-89.5 4447.63,-70.41 4265.87,-51.62 4247.34,-49.7 4227.93,-47.61 4208.66,-45.49"/>
<polygon fill="#63b8ff" stroke="#63b8ff" points="4209.17,-42.02 4198.84,-44.4 4208.4,-48.98 4209.17,-42.02"/>
</a>
</g>
</g>
<!-- Node15 -->
<g id="Node000015" class="node">
<title>Node15</title>
<g id="a_Node000015"><a xlink:title=" ">
<ellipse fill="#e0e0e0" stroke="#999999" cx="4483.87" cy="-25.81" rx="209.13" ry="25.81"/>
<text xml:space="preserve" text-anchor="start" x="4343.99" y="-28.66" font-family="Helvetica,sans-Serif" font-size="12.00">com.runehive.game.world.entity.combat.strategy.npc.</text>
<text xml:space="preserve" text-anchor="middle" x="4483.87" y="-14.41" font-family="Helvetica,sans-Serif" font-size="12.00">NpcMagicStrategy</text>
</a>
</g>
</g>
<!-- Node1&#45;&gt;Node15 -->
<g id="edge14_Node000001_Node000015" class="edge">
<title>Node1&#45;&gt;Node15</title>
<g id="a_edge14_Node000001_Node000015"><a xlink:title=" ">
<path fill="none" stroke="#63b8ff" d="M4823.91,-93.59C4759.18,-80.87 4673.26,-64 4603.99,-50.4"/>
<polygon fill="#63b8ff" stroke="#63b8ff" points="4604.99,-47.03 4594.5,-48.54 4603.64,-53.9 4604.99,-47.03"/>
</a>
</g>
</g>
<!-- Node16 -->
<g id="Node000016" class="node">
<title>Node16</title>
<g id="a_Node000016"><a xlink:title=" ">
<ellipse fill="#e0e0e0" stroke="#999999" cx="4919.87" cy="-25.81" rx="209.13" ry="25.81"/>
<text xml:space="preserve" text-anchor="start" x="4779.99" y="-28.66" font-family="Helvetica,sans-Serif" font-size="12.00">com.runehive.game.world.entity.combat.strategy.npc.</text>
<text xml:space="preserve" text-anchor="middle" x="4919.87" y="-14.41" font-family="Helvetica,sans-Serif" font-size="12.00">NpcMeleeStrategy</text>
</a>
</g>
</g>
<!-- Node1&#45;&gt;Node16 -->
<g id="edge15_Node000001_Node000016" class="edge">
<title>Node1&#45;&gt;Node16</title>
<g id="a_edge15_Node000001_Node000016"><a xlink:title=" ">
<path fill="none" stroke="#63b8ff" d="M4919.87,-87.2C4919.87,-79.71 4919.87,-71.35 4919.87,-63.3"/>
<polygon fill="#63b8ff" stroke="#63b8ff" points="4923.37,-63.37 4919.87,-53.37 4916.37,-63.37 4923.37,-63.37"/>
</a>
</g>
</g>
<!-- Node17 -->
<g id="Node000017" class="node">
<title>Node17</title>
<g id="a_Node000017"><a xlink:title=" ">
<ellipse fill="#e0e0e0" stroke="#999999" cx="5355.87" cy="-25.81" rx="209.13" ry="25.81"/>
<text xml:space="preserve" text-anchor="start" x="5215.99" y="-28.66" font-family="Helvetica,sans-Serif" font-size="12.00">com.runehive.game.world.entity.combat.strategy.npc.</text>
<text xml:space="preserve" text-anchor="middle" x="5355.87" y="-14.41" font-family="Helvetica,sans-Serif" font-size="12.00">NpcRangedStrategy</text>
</a>
</g>
</g>
<!-- Node1&#45;&gt;Node17 -->
<g id="edge16_Node000001_Node000017" class="edge">
<title>Node1&#45;&gt;Node17</title>
<g id="a_edge16_Node000001_Node000017"><a xlink:title=" ">
<path fill="none" stroke="#63b8ff" d="M5015.82,-93.59C5080.55,-80.87 5166.47,-64 5235.74,-50.4"/>
<polygon fill="#63b8ff" stroke="#63b8ff" points="5236.09,-53.9 5245.23,-48.54 5234.74,-47.03 5236.09,-53.9"/>
</a>
</g>
</g>
<!-- Node18 -->
<g id="Node000018" class="node">
<title>Node18</title>
<g id="a_Node000018"><a xlink:title=" ">
<ellipse fill="#e0e0e0" stroke="#999999" cx="5749.87" cy="-25.81" rx="167.23" ry="15.73"/>
<text xml:space="preserve" text-anchor="middle" x="5749.87" y="-21.53" font-family="Helvetica,sans-Serif" font-size="12.00">com.runehive.game.world.entity.mob.Mob</text>
</a>
</g>
</g>
<!-- Node1&#45;&gt;Node18 -->
<g id="edge17_Node000001_Node000018" class="edge">
<title>Node1&#45;&gt;Node18</title>
<g id="a_edge17_Node000001_Node000018"><a xlink:title=" ">
<path fill="none" stroke="#63b8ff" d="M5052.21,-101.97C5184.45,-91.09 5393.5,-72.7 5573.87,-51.62 5599.5,-48.62 5627.16,-44.94 5652.8,-41.33"/>
<polygon fill="#63b8ff" stroke="#63b8ff" points="5653.12,-44.82 5662.53,-39.95 5652.14,-37.89 5653.12,-44.82"/>
</a>
</g>
</g>
<!-- Node19 -->
<g id="Node000019" class="node">
<title>Node19</title>
<g id="a_Node000019"><a xlink:title=" ">
<ellipse fill="#e0e0e0" stroke="#999999" cx="6162.87" cy="-25.81" rx="228.22" ry="25.81"/>
<text xml:space="preserve" text-anchor="start" x="6009.49" y="-28.66" font-family="Helvetica,sans-Serif" font-size="12.00">com.runehive.game.world.entity.mob.movement.waypoint.</text>
<text xml:space="preserve" text-anchor="middle" x="6162.87" y="-14.41" font-family="Helvetica,sans-Serif" font-size="12.00">Waypoint</text>
</a>
</g>
</g>
<!-- Node1&#45;&gt;Node19 -->
<g id="edge18_Node000001_Node000019" class="edge">
<title>Node1&#45;&gt;Node19</title>
<g id="a_edge18_Node000001_Node000019"><a xlink:title=" ">
<path fill="none" stroke="#63b8ff" d="M5060.38,-105.89C5254.97,-96.38 5617.43,-77.07 5925.87,-51.62 5947.12,-49.87 5969.42,-47.81 5991.48,-45.65"/>
<polygon fill="#63b8ff" stroke="#63b8ff" points="5991.53,-49.16 6001.14,-44.7 5990.84,-42.2 5991.53,-49.16"/>
</a>
</g>
</g>
<!-- Node20 -->
<g id="Node000020" class="node">
<title>Node20</title>
<g id="a_Node000020"><a xlink:title=" ">
<ellipse fill="#e0e0e0" stroke="#999999" cx="6590.87" cy="-25.81" rx="182.08" ry="15.73"/>
<text xml:space="preserve" text-anchor="middle" x="6590.87" y="-21.53" font-family="Helvetica,sans-Serif" font-size="12.00">com.runehive.game.world.entity.mob.npc.Npc</text>
</a>
</g>
</g>
<!-- Node1&#45;&gt;Node20 -->
<g id="edge19_Node000001_Node000020" class="edge">
<title>Node1&#45;&gt;Node20</title>
<g id="a_edge19_Node000001_Node000020"><a xlink:title=" ">
<path fill="none" stroke="#63b8ff" d="M5065.87,-110.69C5331.69,-106.58 5912.23,-93.23 6399.87,-51.62 6429.56,-49.09 6461.72,-45.31 6491.04,-41.46"/>
<polygon fill="#63b8ff" stroke="#63b8ff" points="6491.17,-44.98 6500.62,-40.19 6490.25,-38.04 6491.17,-44.98"/>
</a>
</g>
</g>
<!-- Node21 -->
<g id="Node000021" class="node">
<title>Node21</title>
<g id="a_Node000021"><a xlink:title=" ">
<ellipse fill="#e0e0e0" stroke="#999999" cx="6966.87" cy="-25.81" rx="175.72" ry="25.81"/>
<text xml:space="preserve" text-anchor="start" x="6850.62" y="-28.66" font-family="Helvetica,sans-Serif" font-size="12.00">com.runehive.game.world.entity.mob.player.</text>
<text xml:space="preserve" text-anchor="middle" x="6966.87" y="-14.41" font-family="Helvetica,sans-Serif" font-size="12.00">Player</text>
</a>
</g>
</g>
<!-- Node1&#45;&gt;Node21 -->
<g id="edge20_Node000001_Node000021" class="edge">
<title>Node1&#45;&gt;Node21</title>
<g id="a_edge20_Node000001_Node000021"><a xlink:title=" ">
<path fill="none" stroke="#63b8ff" d="M5066.8,-112.65C5381.72,-112.02 6144.87,-104.6 6781.87,-51.62 6798.9,-50.2 6816.77,-48.32 6834.41,-46.21"/>
<polygon fill="#63b8ff" stroke="#63b8ff" points="6834.64,-49.71 6844.15,-45.02 6833.8,-42.76 6834.64,-49.71"/>
</a>
</g>
</g>
<!-- Node22 -->
<g id="Node000022" class="node">
<title>Node22</title>
<g id="a_Node000022"><a xlink:title=" ">
<ellipse fill="#e0e0e0" stroke="#999999" cx="7336.87" cy="-25.81" rx="176.25" ry="25.81"/>
<text xml:space="preserve" text-anchor="start" x="7220.24" y="-28.66" font-family="Helvetica,sans-Serif" font-size="12.00">com.runehive.game.world.entity.mob.prayer.</text>
<text xml:space="preserve" text-anchor="middle" x="7336.87" y="-14.41" font-family="Helvetica,sans-Serif" font-size="12.00">Prayer</text>
</a>
</g>
</g>
<!-- Node1&#45;&gt;Node22 -->
<g id="edge21_Node000001_Node000022" class="edge">
<title>Node1&#45;&gt;Node22</title>
<g id="a_edge21_Node000001_Node000022"><a xlink:title=" ">
<path fill="none" stroke="#63b8ff" d="M5065.87,-110.48C5494.5,-104.42 6744.58,-84.38 7151.87,-51.62 7168.9,-50.25 7186.78,-48.39 7204.41,-46.3"/>
<polygon fill="#63b8ff" stroke="#63b8ff" points="7204.65,-49.8 7214.15,-45.12 7203.81,-42.85 7204.65,-49.8"/>
</a>
</g>
</g>
<!-- Node23 -->
<g id="Node000023" class="node">
<title>Node23</title>
<g id="a_Node000023"><a xlink:title=" ">
<ellipse fill="#e0e0e0" stroke="#999999" cx="7673.87" cy="-25.81" rx="142.31" ry="25.81"/>
<text xml:space="preserve" text-anchor="start" x="7581.24" y="-28.66" font-family="Helvetica,sans-Serif" font-size="12.00">com.runehive.game.world.position.</text>
<text xml:space="preserve" text-anchor="middle" x="7673.87" y="-14.41" font-family="Helvetica,sans-Serif" font-size="12.00">Position</text>
</a>
</g>
</g>
<!-- Node1&#45;&gt;Node23 -->
<g id="edge22_Node000001_Node000023" class="edge">
<title>Node1&#45;&gt;Node23</title>
<g id="a_edge22_Node000001_Node000023"><a xlink:title=" ">
<path fill="none" stroke="#63b8ff" d="M5066.45,-111.67C5542.15,-108.81 7039.88,-96.37 7521.87,-51.62 7535.63,-50.34 7550.02,-48.57 7564.24,-46.55"/>
<polygon fill="#63b8ff" stroke="#63b8ff" points="7564.71,-50.02 7574.1,-45.11 7563.69,-43.1 7564.71,-50.02"/>
</a>
</g>
</g>
<!-- Node24 -->
<g id="Node000024" class="node">
<title>Node24</title>
<g id="a_Node000024"><a xlink:title=" ">
<ellipse fill="#e0e0e0" stroke="#999999" cx="7943.87" cy="-25.81" rx="109.96" ry="25.81"/>
<text xml:space="preserve" text-anchor="start" x="7874.12" y="-28.66" font-family="Helvetica,sans-Serif" font-size="12.00">com.runehive.util.Random</text>
<text xml:space="preserve" text-anchor="middle" x="7943.87" y="-14.41" font-family="Helvetica,sans-Serif" font-size="12.00">Utils</text>
</a>
</g>
</g>
<!-- Node1&#45;&gt;Node24 -->
<g id="edge23_Node000001_Node000024" class="edge">
<title>Node1&#45;&gt;Node24</title>
<g id="a_edge23_Node000001_Node000024"><a xlink:title=" ">
<path fill="none" stroke="#63b8ff" d="M5066.81,-112.94C5578.75,-114.15 7282.14,-113.34 7824.87,-51.62 7835.21,-50.44 7846,-48.8 7856.66,-46.91"/>
<polygon fill="#63b8ff" stroke="#63b8ff" points="7857.02,-50.4 7866.22,-45.14 7855.75,-43.52 7857.02,-50.4"/>
</a>
</g>
</g>
<!-- Node25 -->
<g id="Node000025" class="node">
<title>Node25</title>
<g id="a_Node000025"><a xlink:title=" ">
<ellipse fill="#e0e0e0" stroke="#999999" cx="8188.87" cy="-25.81" rx="117.38" ry="15.73"/>
<text xml:space="preserve" text-anchor="middle" x="8188.87" y="-21.53" font-family="Helvetica,sans-Serif" font-size="12.00">com.runehive.util.Stopwatch</text>
</a>
</g>
</g>
<!-- Node1&#45;&gt;Node25 -->
<g id="edge24_Node000001_Node000025" class="edge">
<title>Node1&#45;&gt;Node25</title>
<g id="a_edge24_Node000001_Node000025"><a xlink:title=" ">
<path fill="none" stroke="#63b8ff" d="M5066.57,-113C5604.89,-114.55 7470.87,-115.13 8062.87,-51.62 8082.05,-49.56 8102.66,-46.06 8121.54,-42.33"/>
<polygon fill="#63b8ff" stroke="#63b8ff" points="8122.15,-45.77 8131.25,-40.35 8120.76,-38.91 8122.15,-45.77"/>
</a>
</g>
</g>
<!-- Node26 -->
<g id="Node000026" class="node">
<title>Node26</title>
<g id="a_Node000026"><a xlink:title=" ">
<ellipse fill="#e0e0e0" stroke="#999999" cx="8422.87" cy="-25.81" rx="98.82" ry="15.73"/>
<text xml:space="preserve" text-anchor="middle" x="8422.87" y="-21.53" font-family="Helvetica,sans-Serif" font-size="12.00">com.runehive.util.Utility</text>
</a>
</g>
</g>
<!-- Node1&#45;&gt;Node26 -->
<g id="edge25_Node000001_Node000026" class="edge">
<title>Node1&#45;&gt;Node26</title>
<g id="a_edge25_Node000001_Node000026"><a xlink:title=" ">
<path fill="none" stroke="#63b8ff" d="M5066.43,-111.6C5675.52,-107.91 7990.12,-91.39 8314.87,-51.62 8331.08,-49.63 8348.42,-46.24 8364.35,-42.58"/>
<polygon fill="#63b8ff" stroke="#63b8ff" points="8364.73,-46.09 8373.65,-40.37 8363.12,-39.28 8364.73,-46.09"/>
</a>
</g>
</g>
<!-- Node27 -->
<g id="Node000027" class="node">
<title>Node27</title>
<g id="a_Node000027"><a xlink:title=" ">
<ellipse fill="#e0e0e0" stroke="#999999" cx="8657.87" cy="-25.81" rx="118.44" ry="15.73"/>
<text xml:space="preserve" text-anchor="middle" x="8657.87" y="-21.53" font-family="Helvetica,sans-Serif" font-size="12.00">java.util.concurrent.TimeUnit</text>
</a>
</g>
</g>
<!-- Node1&#45;&gt;Node27 -->
<g id="edge26_Node000001_Node000027" class="edge">
<title>Node1&#45;&gt;Node27</title>
<g id="a_edge26_Node000001_Node000027"><a xlink:title=" ">
<path fill="none" stroke="#63b8ff" d="M5066.28,-111.49C5699.11,-107.21 8183.09,-88.23 8530.87,-51.62 8550.29,-49.57 8571.17,-46.06 8590.27,-42.3"/>
<polygon fill="#63b8ff" stroke="#63b8ff" points="8590.7,-45.79 8599.81,-40.38 8589.31,-38.93 8590.7,-45.79"/>
</a>
</g>
</g>
<!-- Node28 -->
<g id="Node000028" class="node">
<title>Node28</title>
<g id="a_Node000028"><a xlink:title=" ">
<ellipse fill="#e0e0e0" stroke="#999999" cx="8955.87" cy="-25.81" rx="161.93" ry="25.81"/>
<text xml:space="preserve" text-anchor="start" x="8849.37" y="-28.66" font-family="Helvetica,sans-Serif" font-size="12.00">com.runehive.game.world.entity.combat.</text>
<text xml:space="preserve" text-anchor="middle" x="8955.87" y="-14.41" font-family="Helvetica,sans-Serif" font-size="12.00">CombatUtil.createStrategyArray</text>
</a>
</g>
</g>
<!-- Node1&#45;&gt;Node28 -->
<g id="edge27_Node000001_Node000028" class="edge">
<title>Node1&#45;&gt;Node28</title>
<g id="a_edge27_Node000001_Node000028"><a xlink:title=" ">
<path fill="none" stroke="#63b8ff" d="M5066.73,-112.64C5680.43,-113.14 8042.23,-111.09 8784.87,-51.62 8800.78,-50.34 8817.47,-48.53 8833.92,-46.45"/>
<polygon fill="#63b8ff" stroke="#63b8ff" points="8834.29,-49.93 8843.76,-45.17 8833.39,-42.99 8834.29,-49.93"/>
</a>
</g>
</g>
<!-- Node29 -->
<g id="Node000029" class="node">
<title>Node29</title>
<g id="a_Node000029"><a xlink:title=" ">
<ellipse fill="#e0e0e0" stroke="#999999" cx="9297.87" cy="-25.81" rx="161.93" ry="25.81"/>
<text xml:space="preserve" text-anchor="start" x="9191.37" y="-28.66" font-family="Helvetica,sans-Serif" font-size="12.00">com.runehive.game.world.entity.combat.</text>
<text xml:space="preserve" text-anchor="middle" x="9297.87" y="-14.41" font-family="Helvetica,sans-Serif" font-size="12.00">CombatUtil.randomStrategy</text>
</a>
</g>
</g>
<!-- Node1&#45;&gt;Node29 -->
<g id="edge28_Node000001_Node000029" class="edge">
<title>Node1&#45;&gt;Node29</title>
<g id="a_edge28_Node000001_Node000029"><a xlink:title=" ">
<path fill="none" stroke="#63b8ff" d="M5066.72,-112.86C5713.63,-114.38 8313.14,-116.25 9126.87,-51.62 9142.78,-50.35 9159.47,-48.54 9175.92,-46.47"/>
<polygon fill="#63b8ff" stroke="#63b8ff" points="9176.29,-49.95 9185.76,-45.19 9175.39,-43.01 9176.29,-49.95"/>
</a>
</g>
</g>
<!-- Node30 -->
<g id="Node000030" class="node">
<title>Node30</title>
<g id="a_Node000030"><a xlink:title=" ">
<ellipse fill="#e0e0e0" stroke="#999999" cx="9675.87" cy="-25.81" rx="198.52" ry="25.81"/>
<text xml:space="preserve" text-anchor="start" x="9543.49" y="-28.66" font-family="Helvetica,sans-Serif" font-size="12.00">com.runehive.game.world.entity.combat.projectile.</text>
<text xml:space="preserve" text-anchor="middle" x="9675.87" y="-14.41" font-family="Helvetica,sans-Serif" font-size="12.00">CombatProjectile.getDefinition</text>
</a>
</g>
</g>
<!-- Node1&#45;&gt;Node30 -->
<g id="edge29_Node000001_Node000030" class="edge">
<title>Node1&#45;&gt;Node30</title>
<g id="a_edge29_Node000001_Node000030"><a xlink:title=" ">
<path fill="none" stroke="#63b8ff" d="M5066.8,-112.56C5745.67,-112.85 8583.12,-110.45 9468.87,-51.62 9488.52,-50.31 9509.17,-48.44 9529.51,-46.3"/>
<polygon fill="#63b8ff" stroke="#63b8ff" points="9529.7,-49.8 9539.26,-45.25 9528.95,-42.84 9529.7,-49.8"/>
</a>
</g>
</g>
</g>
</svg>
