<?xml version="1.0" encoding="UTF-8" standalone="no"?>
<!DOCTYPE svg PUBLIC "-//W3C//DTD SVG 1.1//EN"
 "http://www.w3.org/Graphics/SVG/1.1/DTD/svg11.dtd">
<!-- Generated by graphviz version 14.0.1 (20251006.0113)
 -->
<!-- Title: java/com/runehive/game/world/entity/combat/strategy/npc/boss/magearena/Justiciar.java Pages: 1 -->
<!--zoomable 167 -->

<svg id="main" version="1.1" xmlns="http://www.w3.org/2000/svg" xmlns:xlink="http://www.w3.org/1999/xlink" xml:space="preserve" onload="init(evt)">

<style type="text/css"><![CDATA[
.node, .edge {opacity: 0.7;}
.node.selected, .edge.selected {opacity: 1;}
.edge:hover path { stroke: red; }
.edge:hover polygon { stroke: red; fill: red; }
]]></style>

<defs>
  <circle id="rim" cx="0" cy="0" r="7"/>
  <circle id="rim2" cx="0" cy="0" r="3.5"/>
  <g id="zoomPlus">
    <use xlink:href="#rim" fill="#404040"><set attributeName="fill" to="#808080" begin="zoomplus.mouseover" end="zoomplus.mouseout"/></use>
    <path d="M-4,0h8M0,-4v8" fill="none" stroke="white" stroke-width="1.5" pointer-events="none"/>
  </g>
  <g id="zoomMin">
    <use xlink:href="#rim" fill="#404040"><set attributeName="fill" to="#808080" begin="zoomminus.mouseover" end="zoomminus.mouseout"/></use>
    <path d="M-4,0h8" fill="none" stroke="white" stroke-width="1.5" pointer-events="none"/>
  </g>
  <g id="arrowUp" transform="translate(30 24)">
    <use xlink:href="#rim"/>
    <path pointer-events="none" fill="none" stroke="white" stroke-width="1.5" d="M0,-3.0v7 M-2.5,-0.5L0,-3.0L2.5,-0.5"/>
  </g>
  <g id="arrowRight" transform="rotate(90) translate(36 -43)">
    <use xlink:href="#rim"/>
    <path pointer-events="none" fill="none" stroke="white" stroke-width="1.5" d="M0,-3.0v7 M-2.5,-0.5L0,-3.0L2.5,-0.5"/>
  </g>
  <g id="arrowDown" transform="rotate(180) translate(-30 -48)">
    <use xlink:href="#rim"/>
    <path pointer-events="none" fill="none" stroke="white" stroke-width="1.5" d="M0,-3.0v7 M-2.5,-0.5L0,-3.0L2.5,-0.5"/>
  </g>
  <g id="arrowLeft" transform="rotate(270) translate(-36 17)">
    <use xlink:href="#rim"/>
    <path pointer-events="none" fill="none" stroke="white" stroke-width="1.5" d="M0,-3.0v7 M-2.5,-0.5L0,-3.0L2.5,-0.5"/>
  </g>
  <g id="resetDef">
    <use xlink:href="#rim2" fill="#404040"><set attributeName="fill" to="#808080" begin="reset.mouseover" end="reset.mouseout"/></use>
  </g>
</defs>
<script type="application/ecmascript">
var viewWidth = 9399;
var viewHeight = 167;
var sectionId = 'dynsection-0';
</script>
<script type="application/ecmascript" xlink:href="svg.min.js"/>
<svg id="graph" class="graph">
<g id="viewport">
<title>java/com/runehive/game/world/entity/combat/strategy/npc/boss/magearena/Justiciar.java</title>
<!-- Node1 -->
<g id="Node000001" class="node">
<title>Node1</title>
<g id="a_Node000001"><a xlink:title=" ">
<ellipse fill="#999999" stroke="#666666" cx="4607.87" cy="-123.5" rx="143.37" ry="35.89"/>
<text xml:space="preserve" text-anchor="start" x="4514.49" y="-133.48" font-family="Helvetica,sans-Serif" font-size="12.00">java/com/runehive/game</text>
<text xml:space="preserve" text-anchor="start" x="4514.49" y="-119.23" font-family="Helvetica,sans-Serif" font-size="12.00">/world/entity/combat/strategy</text>
<text xml:space="preserve" text-anchor="middle" x="4607.87" y="-104.98" font-family="Helvetica,sans-Serif" font-size="12.00">/npc/boss/magearena/Justiciar.java</text>
</a>
</g>
</g>
<!-- Node2 -->
<g id="Node000002" class="node">
<title>Node2</title>
<g id="a_Node000002"><a xlink:title=" ">
<ellipse fill="#e0e0e0" stroke="#999999" cx="125.87" cy="-25.81" rx="125.87" ry="15.73"/>
<text xml:space="preserve" text-anchor="middle" x="125.87" y="-21.53" font-family="Helvetica,sans-Serif" font-size="12.00">com.runehive.game.Animation</text>
</a>
</g>
</g>
<!-- Node1&#45;&gt;Node2 -->
<g id="edge1_Node000001_Node000002" class="edge">
<title>Node1&#45;&gt;Node2</title>
<g id="a_edge1_Node000001_Node000002"><a xlink:title=" ">
<path fill="none" stroke="#63b8ff" d="M4464.36,-121.58C3760.06,-116.83 686.05,-93.86 260.87,-51.62 240.06,-49.55 217.65,-45.99 197.19,-42.19"/>
<polygon fill="#63b8ff" stroke="#63b8ff" points="198.01,-38.79 187.53,-40.35 196.7,-45.66 198.01,-38.79"/>
</a>
</g>
</g>
<!-- Node3 -->
<g id="Node000003" class="node">
<title>Node3</title>
<g id="a_Node000003"><a xlink:title=" ">
<ellipse fill="#e0e0e0" stroke="#999999" cx="386.87" cy="-25.81" rx="117.38" ry="15.73"/>
<text xml:space="preserve" text-anchor="middle" x="386.87" y="-21.53" font-family="Helvetica,sans-Serif" font-size="12.00">com.runehive.game.Graphic</text>
</a>
</g>
</g>
<!-- Node1&#45;&gt;Node3 -->
<g id="edge2_Node000001_Node000003" class="edge">
<title>Node1&#45;&gt;Node3</title>
<g id="a_edge2_Node000001_Node000003"><a xlink:title=" ">
<path fill="none" stroke="#63b8ff" d="M4464.35,-121.52C3785.42,-116.64 912.41,-93.67 513.87,-51.62 494.35,-49.56 473.36,-46.02 454.18,-42.24"/>
<polygon fill="#63b8ff" stroke="#63b8ff" points="455.11,-38.86 444.61,-40.3 453.72,-45.72 455.11,-38.86"/>
</a>
</g>
</g>
<!-- Node4 -->
<g id="Node000004" class="node">
<title>Node4</title>
<g id="a_Node000004"><a xlink:title=" ">
<ellipse fill="#e0e0e0" stroke="#999999" cx="645.87" cy="-25.81" rx="123.21" ry="15.73"/>
<text xml:space="preserve" text-anchor="middle" x="645.87" y="-21.53" font-family="Helvetica,sans-Serif" font-size="12.00">com.runehive.game.Projectile</text>
</a>
</g>
</g>
<!-- Node1&#45;&gt;Node4 -->
<g id="edge3_Node000001_Node000004" class="edge">
<title>Node1&#45;&gt;Node4</title>
<g id="a_edge3_Node000001_Node000004"><a xlink:title=" ">
<path fill="none" stroke="#63b8ff" d="M4464.49,-121.27C3813.21,-115.49 1149.07,-89.67 777.87,-51.62 757.6,-49.54 735.8,-45.99 715.87,-42.22"/>
<polygon fill="#63b8ff" stroke="#63b8ff" points="716.67,-38.81 706.18,-40.34 715.33,-45.68 716.67,-38.81"/>
</a>
</g>
</g>
<!-- Node5 -->
<g id="Node000005" class="node">
<title>Node5</title>
<g id="a_Node000005"><a xlink:title=" ">
<ellipse fill="#e0e0e0" stroke="#999999" cx="901.87" cy="-25.81" rx="115.26" ry="25.81"/>
<text xml:space="preserve" text-anchor="start" x="828.37" y="-28.66" font-family="Helvetica,sans-Serif" font-size="12.00">com.runehive.game.Update</text>
<text xml:space="preserve" text-anchor="middle" x="901.87" y="-14.41" font-family="Helvetica,sans-Serif" font-size="12.00">Priority</text>
</a>
</g>
</g>
<!-- Node1&#45;&gt;Node5 -->
<g id="edge4_Node000001_Node000005" class="edge">
<title>Node1&#45;&gt;Node5</title>
<g id="a_edge4_Node000001_Node000005"><a xlink:title=" ">
<path fill="none" stroke="#63b8ff" d="M4464.46,-121.17C3839.68,-115.17 1371.07,-89.27 1025.87,-51.62 1014.98,-50.43 1003.63,-48.77 992.41,-46.85"/>
<polygon fill="#63b8ff" stroke="#63b8ff" points="993.2,-43.44 982.74,-45.13 991.97,-50.33 993.2,-43.44"/>
</a>
</g>
</g>
<!-- Node6 -->
<g id="Node000006" class="node">
<title>Node6</title>
<g id="a_Node000006"><a xlink:title=" ">
<ellipse fill="#e0e0e0" stroke="#999999" cx="1157.87" cy="-25.81" rx="123.21" ry="25.81"/>
<text xml:space="preserve" text-anchor="start" x="1078.74" y="-28.66" font-family="Helvetica,sans-Serif" font-size="12.00">com.runehive.game.task.impl.</text>
<text xml:space="preserve" text-anchor="middle" x="1157.87" y="-14.41" font-family="Helvetica,sans-Serif" font-size="12.00">ForceMovementTask</text>
</a>
</g>
</g>
<!-- Node1&#45;&gt;Node6 -->
<g id="edge5_Node000001_Node000006" class="edge">
<title>Node1&#45;&gt;Node6</title>
<g id="a_edge5_Node000001_Node000006"><a xlink:title=" ">
<path fill="none" stroke="#63b8ff" d="M4464.1,-122.55C3911.01,-122.25 1920.04,-116.59 1290.87,-51.62 1278.97,-50.39 1266.54,-48.67 1254.27,-46.7"/>
<polygon fill="#63b8ff" stroke="#63b8ff" points="1255,-43.27 1244.56,-45.08 1253.84,-50.18 1255,-43.27"/>
</a>
</g>
</g>
<!-- Node7 -->
<g id="Node000007" class="node">
<title>Node7</title>
<g id="a_Node000007"><a xlink:title=" ">
<ellipse fill="#e0e0e0" stroke="#999999" cx="1409.87" cy="-25.81" rx="110.49" ry="25.81"/>
<text xml:space="preserve" text-anchor="start" x="1339.74" y="-28.66" font-family="Helvetica,sans-Serif" font-size="12.00">com.runehive.game.world.</text>
<text xml:space="preserve" text-anchor="middle" x="1409.87" y="-14.41" font-family="Helvetica,sans-Serif" font-size="12.00">World</text>
</a>
</g>
</g>
<!-- Node1&#45;&gt;Node7 -->
<g id="edge6_Node000001_Node000007" class="edge">
<title>Node1&#45;&gt;Node7</title>
<g id="a_edge6_Node000001_Node000007"><a xlink:title=" ">
<path fill="none" stroke="#63b8ff" d="M4464.12,-122.68C3936.66,-122.76 2108.37,-118.13 1528.87,-51.62 1518.52,-50.43 1507.74,-48.78 1497.07,-46.89"/>
<polygon fill="#63b8ff" stroke="#63b8ff" points="1497.99,-43.5 1487.52,-45.11 1496.71,-50.38 1497.99,-43.5"/>
</a>
</g>
</g>
<!-- Node8 -->
<g id="Node000008" class="node">
<title>Node8</title>
<g id="a_Node000008"><a xlink:title=" ">
<ellipse fill="#e0e0e0" stroke="#999999" cx="1699.87" cy="-25.81" rx="161.93" ry="25.81"/>
<text xml:space="preserve" text-anchor="start" x="1593.37" y="-28.66" font-family="Helvetica,sans-Serif" font-size="12.00">com.runehive.game.world.entity.combat.</text>
<text xml:space="preserve" text-anchor="middle" x="1699.87" y="-14.41" font-family="Helvetica,sans-Serif" font-size="12.00">CombatType</text>
</a>
</g>
</g>
<!-- Node1&#45;&gt;Node8 -->
<g id="edge7_Node000001_Node000008" class="edge">
<title>Node1&#45;&gt;Node8</title>
<g id="a_edge7_Node000001_Node000008"><a xlink:title=" ">
<path fill="none" stroke="#63b8ff" d="M4464.48,-121.03C3976.45,-115.67 2381.93,-95.16 1870.87,-51.62 1855.2,-50.28 1838.78,-48.46 1822.58,-46.39"/>
<polygon fill="#63b8ff" stroke="#63b8ff" points="1823.28,-42.95 1812.91,-45.13 1822.37,-49.9 1823.28,-42.95"/>
</a>
</g>
</g>
<!-- Node9 -->
<g id="Node000009" class="node">
<title>Node9</title>
<g id="a_Node000009"><a xlink:title=" ">
<ellipse fill="#e0e0e0" stroke="#999999" cx="2041.87" cy="-25.81" rx="161.93" ry="25.81"/>
<text xml:space="preserve" text-anchor="start" x="1935.37" y="-28.66" font-family="Helvetica,sans-Serif" font-size="12.00">com.runehive.game.world.entity.combat.</text>
<text xml:space="preserve" text-anchor="middle" x="2041.87" y="-14.41" font-family="Helvetica,sans-Serif" font-size="12.00">CombatUtil</text>
</a>
</g>
</g>
<!-- Node1&#45;&gt;Node9 -->
<g id="edge8_Node000001_Node000009" class="edge">
<title>Node1&#45;&gt;Node9</title>
<g id="a_edge8_Node000001_Node000009"><a xlink:title=" ">
<path fill="none" stroke="#63b8ff" d="M4464.81,-120.42C4018.33,-113.58 2654.09,-90.03 2212.87,-51.62 2197.2,-50.26 2180.79,-48.41 2164.58,-46.34"/>
<polygon fill="#63b8ff" stroke="#63b8ff" points="2165.28,-42.9 2154.91,-45.07 2164.37,-49.84 2165.28,-42.9"/>
</a>
</g>
</g>
<!-- Node10 -->
<g id="Node000010" class="node">
<title>Node10</title>
<g id="a_Node000010"><a xlink:title=" ">
<ellipse fill="#e0e0e0" stroke="#999999" cx="2407.87" cy="-25.81" rx="186.32" ry="25.81"/>
<text xml:space="preserve" text-anchor="start" x="2284.12" y="-28.66" font-family="Helvetica,sans-Serif" font-size="12.00">com.runehive.game.world.entity.combat.attack.</text>
<text xml:space="preserve" text-anchor="middle" x="2407.87" y="-14.41" font-family="Helvetica,sans-Serif" font-size="12.00">FightType</text>
</a>
</g>
</g>
<!-- Node1&#45;&gt;Node10 -->
<g id="edge9_Node000001_Node000010" class="edge">
<title>Node1&#45;&gt;Node10</title>
<g id="a_edge9_Node000001_Node000010"><a xlink:title=" ">
<path fill="none" stroke="#63b8ff" d="M4464.16,-121.92C4134.56,-119.58 3298.94,-108.08 2602.87,-51.62 2584.96,-50.17 2566.18,-48.26 2547.64,-46.16"/>
<polygon fill="#63b8ff" stroke="#63b8ff" points="2548.29,-42.71 2537.95,-45.03 2547.48,-49.66 2548.29,-42.71"/>
</a>
</g>
</g>
<!-- Node11 -->
<g id="Node000011" class="node">
<title>Node11</title>
<g id="a_Node000011"><a xlink:title=" ">
<ellipse fill="#e0e0e0" stroke="#999999" cx="2784.87" cy="-25.81" rx="173.06" ry="25.81"/>
<text xml:space="preserve" text-anchor="start" x="2670.49" y="-28.66" font-family="Helvetica,sans-Serif" font-size="12.00">com.runehive.game.world.entity.combat.hit.</text>
<text xml:space="preserve" text-anchor="middle" x="2784.87" y="-14.41" font-family="Helvetica,sans-Serif" font-size="12.00">CombatHit</text>
</a>
</g>
</g>
<!-- Node1&#45;&gt;Node11 -->
<g id="edge10_Node000001_Node000011" class="edge">
<title>Node1&#45;&gt;Node11</title>
<g id="a_edge10_Node000001_Node000011"><a xlink:title=" ">
<path fill="none" stroke="#63b8ff" d="M4464.62,-120.76C4179.12,-116.3 3519.12,-101.08 2966.87,-51.62 2950.32,-50.14 2932.97,-48.23 2915.83,-46.13"/>
<polygon fill="#63b8ff" stroke="#63b8ff" points="2916.47,-42.69 2906.12,-44.92 2915.6,-49.63 2916.47,-42.69"/>
</a>
</g>
</g>
<!-- Node12 -->
<g id="Node000012" class="node">
<title>Node12</title>
<g id="a_Node000012"><a xlink:title=" ">
<ellipse fill="#e0e0e0" stroke="#999999" cx="3159.87" cy="-25.81" rx="183.67" ry="15.73"/>
<text xml:space="preserve" text-anchor="middle" x="3159.87" y="-21.53" font-family="Helvetica,sans-Serif" font-size="12.00">com.runehive.game.world.entity.combat.hit.Hit</text>
</a>
</g>
</g>
<!-- Node1&#45;&gt;Node12 -->
<g id="edge11_Node000001_Node000012" class="edge">
<title>Node1&#45;&gt;Node12</title>
<g id="a_edge11_Node000001_Node000012"><a xlink:title=" ">
<path fill="none" stroke="#63b8ff" d="M4465.88,-117.83C4232.88,-109.41 3755,-88.99 3351.87,-51.62 3322.62,-48.91 3290.96,-45.16 3261.95,-41.39"/>
<polygon fill="#63b8ff" stroke="#63b8ff" points="3262.42,-37.92 3252.05,-40.09 3261.51,-44.86 3262.42,-37.92"/>
</a>
</g>
</g>
<!-- Node13 -->
<g id="Node000013" class="node">
<title>Node13</title>
<g id="a_Node000013"><a xlink:title=" ">
<ellipse fill="#e0e0e0" stroke="#999999" cx="3559.87" cy="-25.81" rx="198.52" ry="25.81"/>
<text xml:space="preserve" text-anchor="start" x="3427.49" y="-28.66" font-family="Helvetica,sans-Serif" font-size="12.00">com.runehive.game.world.entity.combat.projectile.</text>
<text xml:space="preserve" text-anchor="middle" x="3559.87" y="-14.41" font-family="Helvetica,sans-Serif" font-size="12.00">CombatProjectile</text>
</a>
</g>
</g>
<!-- Node1&#45;&gt;Node13 -->
<g id="edge12_Node000001_Node000013" class="edge">
<title>Node1&#45;&gt;Node13</title>
<g id="a_edge12_Node000001_Node000013"><a xlink:title=" ">
<path fill="none" stroke="#63b8ff" d="M4470.97,-112.41C4304.59,-99.81 4015.38,-76.82 3767.87,-51.62 3749.88,-49.79 3731.03,-47.73 3712.34,-45.61"/>
<polygon fill="#63b8ff" stroke="#63b8ff" points="3712.89,-42.15 3702.55,-44.49 3712.09,-49.1 3712.89,-42.15"/>
</a>
</g>
</g>
<!-- Node14 -->
<g id="Node000014" class="node">
<title>Node14</title>
<g id="a_Node000014"><a xlink:title=" ">
<ellipse fill="#e0e0e0" stroke="#999999" cx="3969.87" cy="-25.81" rx="193.22" ry="25.81"/>
<text xml:space="preserve" text-anchor="start" x="3841.24" y="-28.66" font-family="Helvetica,sans-Serif" font-size="12.00">com.runehive.game.world.entity.combat.strategy.</text>
<text xml:space="preserve" text-anchor="middle" x="3969.87" y="-14.41" font-family="Helvetica,sans-Serif" font-size="12.00">CombatStrategy</text>
</a>
</g>
</g>
<!-- Node1&#45;&gt;Node14 -->
<g id="edge13_Node000001_Node000014" class="edge">
<title>Node1&#45;&gt;Node14</title>
<g id="a_edge13_Node000001_Node000014"><a xlink:title=" ">
<path fill="none" stroke="#63b8ff" d="M4485.98,-104.22C4377.74,-87.99 4219.69,-64.28 4107.05,-47.39"/>
<polygon fill="#63b8ff" stroke="#63b8ff" points="4107.85,-43.97 4097.45,-45.95 4106.82,-50.89 4107.85,-43.97"/>
</a>
</g>
</g>
<!-- Node15 -->
<g id="Node000015" class="node">
<title>Node15</title>
<g id="a_Node000015"><a xlink:title=" ">
<ellipse fill="#e0e0e0" stroke="#999999" cx="4389.87" cy="-25.81" rx="209.13" ry="25.81"/>
<text xml:space="preserve" text-anchor="start" x="4249.99" y="-28.66" font-family="Helvetica,sans-Serif" font-size="12.00">com.runehive.game.world.entity.combat.strategy.npc.</text>
<text xml:space="preserve" text-anchor="middle" x="4389.87" y="-14.41" font-family="Helvetica,sans-Serif" font-size="12.00">MultiStrategy</text>
</a>
</g>
</g>
<!-- Node1&#45;&gt;Node15 -->
<g id="edge14_Node000001_Node000015" class="edge">
<title>Node1&#45;&gt;Node15</title>
<g id="a_edge14_Node000001_Node000015"><a xlink:title=" ">
<path fill="none" stroke="#63b8ff" d="M4537.99,-91.83C4511.61,-80.25 4481.71,-67.12 4455.71,-55.71"/>
<polygon fill="#63b8ff" stroke="#63b8ff" points="4457.15,-52.52 4446.59,-51.71 4454.34,-58.93 4457.15,-52.52"/>
</a>
</g>
</g>
<!-- Node16 -->
<g id="Node000016" class="node">
<title>Node16</title>
<g id="a_Node000016"><a xlink:title=" ">
<ellipse fill="#e0e0e0" stroke="#999999" cx="4825.87" cy="-25.81" rx="209.13" ry="25.81"/>
<text xml:space="preserve" text-anchor="start" x="4685.99" y="-28.66" font-family="Helvetica,sans-Serif" font-size="12.00">com.runehive.game.world.entity.combat.strategy.npc.</text>
<text xml:space="preserve" text-anchor="middle" x="4825.87" y="-14.41" font-family="Helvetica,sans-Serif" font-size="12.00">NpcMagicStrategy</text>
</a>
</g>
</g>
<!-- Node1&#45;&gt;Node16 -->
<g id="edge15_Node000001_Node000016" class="edge">
<title>Node1&#45;&gt;Node16</title>
<g id="a_edge15_Node000001_Node000016"><a xlink:title=" ">
<path fill="none" stroke="#63b8ff" d="M4677.74,-91.83C4704.12,-80.25 4734.03,-67.12 4760.02,-55.71"/>
<polygon fill="#63b8ff" stroke="#63b8ff" points="4761.39,-58.93 4769.14,-51.71 4758.58,-52.52 4761.39,-58.93"/>
</a>
</g>
</g>
<!-- Node17 -->
<g id="Node000017" class="node">
<title>Node17</title>
<g id="a_Node000017"><a xlink:title=" ">
<ellipse fill="#e0e0e0" stroke="#999999" cx="5261.87" cy="-25.81" rx="209.13" ry="25.81"/>
<text xml:space="preserve" text-anchor="start" x="5121.99" y="-28.66" font-family="Helvetica,sans-Serif" font-size="12.00">com.runehive.game.world.entity.combat.strategy.npc.</text>
<text xml:space="preserve" text-anchor="middle" x="5261.87" y="-14.41" font-family="Helvetica,sans-Serif" font-size="12.00">NpcMeleeStrategy</text>
</a>
</g>
</g>
<!-- Node1&#45;&gt;Node17 -->
<g id="edge16_Node000001_Node000017" class="edge">
<title>Node1&#45;&gt;Node17</title>
<g id="a_edge16_Node000001_Node000017"><a xlink:title=" ">
<path fill="none" stroke="#63b8ff" d="M4730.49,-104.56C4840.58,-88.45 5002.26,-64.8 5118.33,-47.81"/>
<polygon fill="#63b8ff" stroke="#63b8ff" points="5118.53,-51.32 5127.92,-46.41 5117.52,-44.39 5118.53,-51.32"/>
</a>
</g>
</g>
<!-- Node18 -->
<g id="Node000018" class="node">
<title>Node18</title>
<g id="a_Node000018"><a xlink:title=" ">
<ellipse fill="#e0e0e0" stroke="#999999" cx="5697.87" cy="-25.81" rx="209.13" ry="25.81"/>
<text xml:space="preserve" text-anchor="start" x="5557.99" y="-28.66" font-family="Helvetica,sans-Serif" font-size="12.00">com.runehive.game.world.entity.combat.strategy.npc.</text>
<text xml:space="preserve" text-anchor="middle" x="5697.87" y="-14.41" font-family="Helvetica,sans-Serif" font-size="12.00">NpcRangedStrategy</text>
</a>
</g>
</g>
<!-- Node1&#45;&gt;Node18 -->
<g id="edge17_Node000001_Node000018" class="edge">
<title>Node1&#45;&gt;Node18</title>
<g id="a_edge17_Node000001_Node000018"><a xlink:title=" ">
<path fill="none" stroke="#63b8ff" d="M4745.05,-112.73C4916.92,-100.16 5220.42,-76.92 5479.87,-51.62 5498.73,-49.78 5518.5,-47.72 5538.1,-45.59"/>
<polygon fill="#63b8ff" stroke="#63b8ff" points="5538.23,-49.1 5547.79,-44.53 5537.47,-42.14 5538.23,-49.1"/>
</a>
</g>
</g>
<!-- Node19 -->
<g id="Node000019" class="node">
<title>Node19</title>
<g id="a_Node000019"><a xlink:title=" ">
<ellipse fill="#e0e0e0" stroke="#999999" cx="6075.87" cy="-25.81" rx="150.79" ry="25.81"/>
<text xml:space="preserve" text-anchor="start" x="5977.24" y="-28.66" font-family="Helvetica,sans-Serif" font-size="12.00">com.runehive.game.world.entity.mob.</text>
<text xml:space="preserve" text-anchor="middle" x="6075.87" y="-14.41" font-family="Helvetica,sans-Serif" font-size="12.00">Direction</text>
</a>
</g>
</g>
<!-- Node1&#45;&gt;Node19 -->
<g id="edge18_Node000001_Node000019" class="edge">
<title>Node1&#45;&gt;Node19</title>
<g id="a_edge18_Node000001_Node000019"><a xlink:title=" ">
<path fill="none" stroke="#63b8ff" d="M4750.49,-119.43C4991.27,-113.19 5493.46,-95.7 5915.87,-51.62 5930.01,-50.14 5944.82,-48.28 5959.47,-46.24"/>
<polygon fill="#63b8ff" stroke="#63b8ff" points="5959.72,-49.74 5969.13,-44.87 5958.74,-42.81 5959.72,-49.74"/>
</a>
</g>
</g>
<!-- Node20 -->
<g id="Node000020" class="node">
<title>Node20</title>
<g id="a_Node000020"><a xlink:title=" ">
<ellipse fill="#e0e0e0" stroke="#999999" cx="6411.87" cy="-25.81" rx="167.23" ry="15.73"/>
<text xml:space="preserve" text-anchor="middle" x="6411.87" y="-21.53" font-family="Helvetica,sans-Serif" font-size="12.00">com.runehive.game.world.entity.mob.Mob</text>
</a>
</g>
</g>
<!-- Node1&#45;&gt;Node20 -->
<g id="edge19_Node000001_Node000020" class="edge">
<title>Node1&#45;&gt;Node20</title>
<g id="a_edge19_Node000001_Node000020"><a xlink:title=" ">
<path fill="none" stroke="#63b8ff" d="M4751.09,-120.91C5034.95,-116.72 5688.81,-101.97 6235.87,-51.62 6263.02,-49.12 6292.4,-45.39 6319.24,-41.58"/>
<polygon fill="#63b8ff" stroke="#63b8ff" points="6319.67,-45.05 6329.07,-40.16 6318.67,-38.12 6319.67,-45.05"/>
</a>
</g>
</g>
<!-- Node21 -->
<g id="Node000021" class="node">
<title>Node21</title>
<g id="a_Node000021"><a xlink:title=" ">
<ellipse fill="#e0e0e0" stroke="#999999" cx="6778.87" cy="-25.81" rx="182.08" ry="15.73"/>
<text xml:space="preserve" text-anchor="middle" x="6778.87" y="-21.53" font-family="Helvetica,sans-Serif" font-size="12.00">com.runehive.game.world.entity.mob.npc.Npc</text>
</a>
</g>
</g>
<!-- Node1&#45;&gt;Node21 -->
<g id="edge20_Node000001_Node000021" class="edge">
<title>Node1&#45;&gt;Node21</title>
<g id="a_edge20_Node000001_Node000021"><a xlink:title=" ">
<path fill="none" stroke="#63b8ff" d="M4751.31,-121.95C5077.88,-119.7 5901.62,-108.35 6587.87,-51.62 6617.86,-49.14 6650.37,-45.34 6679.92,-41.45"/>
<polygon fill="#63b8ff" stroke="#63b8ff" points="6680.14,-44.95 6689.59,-40.16 6679.22,-38.01 6680.14,-44.95"/>
</a>
</g>
</g>
<!-- Node22 -->
<g id="Node000022" class="node">
<title>Node22</title>
<g id="a_Node000022"><a xlink:title=" ">
<ellipse fill="#e0e0e0" stroke="#999999" cx="7154.87" cy="-25.81" rx="175.72" ry="25.81"/>
<text xml:space="preserve" text-anchor="start" x="7038.62" y="-28.66" font-family="Helvetica,sans-Serif" font-size="12.00">com.runehive.game.world.entity.mob.player.</text>
<text xml:space="preserve" text-anchor="middle" x="7154.87" y="-14.41" font-family="Helvetica,sans-Serif" font-size="12.00">ForceMovement</text>
</a>
</g>
</g>
<!-- Node1&#45;&gt;Node22 -->
<g id="edge21_Node000001_Node000022" class="edge">
<title>Node1&#45;&gt;Node22</title>
<g id="a_edge21_Node000001_Node000022"><a xlink:title=" ">
<path fill="none" stroke="#63b8ff" d="M4751.6,-123.35C5120.64,-124.41 6131.39,-120.24 6969.87,-51.62 6986.9,-50.22 7004.77,-48.35 7022.41,-46.26"/>
<polygon fill="#63b8ff" stroke="#63b8ff" points="7022.65,-49.75 7032.15,-45.07 7021.8,-42.8 7022.65,-49.75"/>
</a>
</g>
</g>
<!-- Node23 -->
<g id="Node000023" class="node">
<title>Node23</title>
<g id="a_Node000023"><a xlink:title=" ">
<ellipse fill="#e0e0e0" stroke="#999999" cx="7521.87" cy="-25.81" rx="173.06" ry="25.81"/>
<text xml:space="preserve" text-anchor="start" x="7407.49" y="-28.66" font-family="Helvetica,sans-Serif" font-size="12.00">com.runehive.game.world.pathfinding.path.</text>
<text xml:space="preserve" text-anchor="middle" x="7521.87" y="-14.41" font-family="Helvetica,sans-Serif" font-size="12.00">SimplePathChecker</text>
</a>
</g>
</g>
<!-- Node1&#45;&gt;Node23 -->
<g id="edge22_Node000001_Node000023" class="edge">
<title>Node1&#45;&gt;Node23</title>
<g id="a_edge22_Node000001_Node000023"><a xlink:title=" ">
<path fill="none" stroke="#63b8ff" d="M4750.98,-120.86C5238.07,-114.96 6829.55,-92.9 7339.87,-51.62 7356.68,-50.26 7374.32,-48.4 7391.73,-46.31"/>
<polygon fill="#63b8ff" stroke="#63b8ff" points="7392.12,-49.79 7401.62,-45.09 7391.26,-42.84 7392.12,-49.79"/>
</a>
</g>
</g>
<!-- Node24 -->
<g id="Node000024" class="node">
<title>Node24</title>
<g id="a_Node000024"><a xlink:title=" ">
<ellipse fill="#e0e0e0" stroke="#999999" cx="7854.87" cy="-25.81" rx="142.31" ry="25.81"/>
<text xml:space="preserve" text-anchor="start" x="7762.24" y="-28.66" font-family="Helvetica,sans-Serif" font-size="12.00">com.runehive.game.world.position.</text>
<text xml:space="preserve" text-anchor="middle" x="7854.87" y="-14.41" font-family="Helvetica,sans-Serif" font-size="12.00">Position</text>
</a>
</g>
</g>
<!-- Node1&#45;&gt;Node24 -->
<g id="edge23_Node000001_Node000024" class="edge">
<title>Node1&#45;&gt;Node24</title>
<g id="a_edge23_Node000001_Node000024"><a xlink:title=" ">
<path fill="none" stroke="#63b8ff" d="M4751.41,-121.89C5280.28,-119.19 7119.53,-106.04 7703.87,-51.62 7717.54,-50.35 7731.84,-48.58 7745.97,-46.56"/>
<polygon fill="#63b8ff" stroke="#63b8ff" points="7746.37,-50.04 7755.75,-45.12 7745.34,-43.11 7746.37,-50.04"/>
</a>
</g>
</g>
<!-- Node25 -->
<g id="Node000025" class="node">
<title>Node25</title>
<g id="a_Node000025"><a xlink:title=" ">
<ellipse fill="#e0e0e0" stroke="#999999" cx="8133.87" cy="-25.81" rx="118.97" ry="25.81"/>
<text xml:space="preserve" text-anchor="start" x="8057.74" y="-28.66" font-family="Helvetica,sans-Serif" font-size="12.00">com.runehive.net.packet.out.</text>
<text xml:space="preserve" text-anchor="middle" x="8133.87" y="-14.41" font-family="Helvetica,sans-Serif" font-size="12.00">SendMessage</text>
</a>
</g>
</g>
<!-- Node1&#45;&gt;Node25 -->
<g id="edge24_Node000001_Node000025" class="edge">
<title>Node1&#45;&gt;Node25</title>
<g id="a_edge24_Node000001_Node000025"><a xlink:title=" ">
<path fill="none" stroke="#63b8ff" d="M4751.31,-122.77C5312.51,-123.31 7360.09,-120.43 8005.87,-51.62 8017.21,-50.41 8029.05,-48.72 8040.74,-46.77"/>
<polygon fill="#63b8ff" stroke="#63b8ff" points="8041.15,-50.26 8050.4,-45.1 8039.95,-43.36 8041.15,-50.26"/>
</a>
</g>
</g>
<!-- Node26 -->
<g id="Node000026" class="node">
<title>Node26</title>
<g id="a_Node000026"><a xlink:title=" ">
<ellipse fill="#e0e0e0" stroke="#999999" cx="8380.87" cy="-25.81" rx="109.96" ry="25.81"/>
<text xml:space="preserve" text-anchor="start" x="8311.12" y="-28.66" font-family="Helvetica,sans-Serif" font-size="12.00">com.runehive.util.Random</text>
<text xml:space="preserve" text-anchor="middle" x="8380.87" y="-14.41" font-family="Helvetica,sans-Serif" font-size="12.00">Utils</text>
</a>
</g>
</g>
<!-- Node1&#45;&gt;Node26 -->
<g id="edge25_Node000001_Node000026" class="edge">
<title>Node1&#45;&gt;Node26</title>
<g id="a_edge25_Node000001_Node000026"><a xlink:title=" ">
<path fill="none" stroke="#63b8ff" d="M4751.23,-121.3C5383.77,-115.79 7909.33,-91.44 8261.87,-51.62 8272.29,-50.44 8283.16,-48.78 8293.9,-46.88"/>
<polygon fill="#63b8ff" stroke="#63b8ff" points="8294.35,-50.36 8303.54,-45.09 8293.07,-43.48 8294.35,-50.36"/>
</a>
</g>
</g>
<!-- Node27 -->
<g id="Node000027" class="node">
<title>Node27</title>
<g id="a_Node000027"><a xlink:title=" ">
<ellipse fill="#e0e0e0" stroke="#999999" cx="8607.87" cy="-25.81" rx="98.82" ry="15.73"/>
<text xml:space="preserve" text-anchor="middle" x="8607.87" y="-21.53" font-family="Helvetica,sans-Serif" font-size="12.00">com.runehive.util.Utility</text>
</a>
</g>
</g>
<!-- Node1&#45;&gt;Node27 -->
<g id="edge26_Node000001_Node000027" class="edge">
<title>Node1&#45;&gt;Node27</title>
<g id="a_edge26_Node000001_Node000027"><a xlink:title=" ">
<path fill="none" stroke="#63b8ff" d="M4751.39,-121.66C5409.56,-117.53 8123.07,-97.82 8499.87,-51.62 8516.08,-49.63 8533.42,-46.23 8549.35,-42.58"/>
<polygon fill="#63b8ff" stroke="#63b8ff" points="8549.73,-46.08 8558.65,-40.37 8548.12,-39.27 8549.73,-46.08"/>
</a>
</g>
</g>
<!-- Node28 -->
<g id="Node000028" class="node">
<title>Node28</title>
<g id="a_Node000028"><a xlink:title=" ">
<ellipse fill="#e0e0e0" stroke="#999999" cx="8886.87" cy="-25.81" rx="161.93" ry="25.81"/>
<text xml:space="preserve" text-anchor="start" x="8780.37" y="-28.66" font-family="Helvetica,sans-Serif" font-size="12.00">com.runehive.game.world.entity.combat.</text>
<text xml:space="preserve" text-anchor="middle" x="8886.87" y="-14.41" font-family="Helvetica,sans-Serif" font-size="12.00">CombatUtil.createStrategyArray</text>
</a>
</g>
</g>
<!-- Node1&#45;&gt;Node28 -->
<g id="edge27_Node000001_Node000028" class="edge">
<title>Node1&#45;&gt;Node28</title>
<g id="a_edge27_Node000001_Node000028"><a xlink:title=" ">
<path fill="none" stroke="#63b8ff" d="M4751.53,-122.47C5383.68,-121.96 7921.45,-115.84 8715.87,-51.62 8731.78,-50.33 8748.46,-48.51 8764.92,-46.43"/>
<polygon fill="#63b8ff" stroke="#63b8ff" points="8765.29,-49.91 8774.75,-45.14 8764.39,-42.97 8765.29,-49.91"/>
</a>
</g>
</g>
<!-- Node29 -->
<g id="Node000029" class="node">
<title>Node29</title>
<g id="a_Node000029"><a xlink:title=" ">
<ellipse fill="#e0e0e0" stroke="#999999" cx="9228.87" cy="-25.81" rx="161.93" ry="25.81"/>
<text xml:space="preserve" text-anchor="start" x="9122.37" y="-28.66" font-family="Helvetica,sans-Serif" font-size="12.00">com.runehive.game.world.entity.combat.</text>
<text xml:space="preserve" text-anchor="middle" x="9228.87" y="-14.41" font-family="Helvetica,sans-Serif" font-size="12.00">CombatUtil.randomStrategy</text>
</a>
</g>
</g>
<!-- Node1&#45;&gt;Node29 -->
<g id="edge28_Node000001_Node000029" class="edge">
<title>Node1&#45;&gt;Node29</title>
<g id="a_edge28_Node000001_Node000029"><a xlink:title=" ">
<path fill="none" stroke="#63b8ff" d="M4751.64,-122.7C5415.9,-123.2 8192.24,-121.02 9057.87,-51.62 9073.78,-50.34 9090.47,-48.53 9106.92,-46.45"/>
<polygon fill="#63b8ff" stroke="#63b8ff" points="9107.29,-49.93 9116.76,-45.16 9106.39,-42.99 9107.29,-49.93"/>
</a>
</g>
</g>
</g>
</svg>

<g id="navigator" transform="translate(0 0)" fill="#404254">
  <rect fill="#f2f5e9" fill-opacity="0.5" stroke="#606060" stroke-width=".5" x="0" y="0" width="60" height="60"/>
  <use id="zoomplus" xlink:href="#zoomPlus" x="17" y="9" onmousedown="handleZoom(evt,'in')"/>
  <use id="zoomminus" xlink:href="#zoomMin" x="42" y="9" onmousedown="handleZoom(evt,'out')"/>
  <use id="reset" xlink:href="#resetDef" x="30" y="36" onmousedown="handleReset()"/>
   <use id="arrowup" xlink:href="#arrowUp" x="0" y="0" onmousedown="handlePan(0,-1)"/>
  <use id="arrowright" xlink:href="#arrowRight" x="0" y="0" onmousedown="handlePan(1,0)"/>
  <use id="arrowdown" xlink:href="#arrowDown" x="0" y="0" onmousedown="handlePan(0,1)"/>
  <use id="arrowleft" xlink:href="#arrowLeft" x="0" y="0" onmousedown="handlePan(-1,0)"/>
</g>
<svg viewBox="0 0 15 15" width="100%" height="30px" preserveAspectRatio="xMaxYMin meet">
 <g id="arrow_out" transform="scale(0.3 0.3)">
  <a xlink:href="_justiciar_8java__incl_org.svg" target="_base">
   <rect id="button" ry="5" rx="5" y="6" x="6" height="38" width="38"
        fill="#f2f5e9" fill-opacity="0.5" stroke="#606060" stroke-width="1.0"/>
   <path id="arrow"
     d="M 11.500037,31.436501 C 11.940474,20.09759 22.043105,11.32322 32.158766,21.979434 L 37.068811,17.246167 C 37.068811,17.246167 37.088388,32 37.088388,32 L 22.160133,31.978069 C 22.160133,31.978069 26.997745,27.140456 26.997745,27.140456 C 18.528582,18.264221 13.291696,25.230495 11.500037,31.436501 z"
     style="fill:#404040;"/>
  </a>
 </g>
</svg>

<style type='text/css'>
<![CDATA[
[data-mouse-over-selected='false'] { opacity: 0.7; }
[data-mouse-over-selected='true']  { opacity: 1.0; }
]]>
</style>
<script type="application/ecmascript"><![CDATA[
document.addEventListener('DOMContentLoaded', (event) => {
  highlightEdges();
  highlightAdjacentNodes();
});
]]></script>
</svg>
