<?xml version="1.0" encoding="UTF-8" standalone="no"?>
<!DOCTYPE svg PUBLIC "-//W3C//DTD SVG 1.1//EN"
 "http://www.w3.org/Graphics/SVG/1.1/DTD/svg11.dtd">
<!-- Generated by graphviz version 14.0.1 (20251006.0113)
 -->
<!-- Title: java/com/runehive/content/activity/impl/kraken/KrakenActivityListener.java Pages: 1 -->
<svg width="2393pt" height="167pt"
 viewBox="0.00 0.00 2393.00 167.00" xmlns="http://www.w3.org/2000/svg" xmlns:xlink="http://www.w3.org/1999/xlink">
<g id="graph0" class="graph" transform="scale(1 1) rotate(0) translate(4 163.39)">
<title>java/com/runehive/content/activity/impl/kraken/KrakenActivityListener.java</title>
<!-- Node1 -->
<g id="Node000001" class="node">
<title>Node1</title>
<g id="a_Node000001"><a xlink:title=" ">
<ellipse fill="#999999" stroke="#666666" cx="1258.62" cy="-123.5" rx="141.24" ry="35.89"/>
<text xml:space="preserve" text-anchor="start" x="1166.75" y="-133.48" font-family="Helvetica,sans-Serif" font-size="12.00">java/com/runehive/content</text>
<text xml:space="preserve" text-anchor="start" x="1166.75" y="-119.23" font-family="Helvetica,sans-Serif" font-size="12.00">/activity/impl/kraken/KrakenActivity</text>
<text xml:space="preserve" text-anchor="middle" x="1258.62" y="-104.98" font-family="Helvetica,sans-Serif" font-size="12.00">Listener.java</text>
</a>
</g>
</g>
<!-- Node2 -->
<g id="Node000002" class="node">
<title>Node2</title>
<g id="a_Node000002"><a xlink:title=" ">
<ellipse fill="#e0e0e0" stroke="#999999" cx="121.62" cy="-25.81" rx="121.62" ry="25.81"/>
<text xml:space="preserve" text-anchor="start" x="43.62" y="-28.66" font-family="Helvetica,sans-Serif" font-size="12.00">com.runehive.content.activity.</text>
<text xml:space="preserve" text-anchor="middle" x="121.62" y="-14.41" font-family="Helvetica,sans-Serif" font-size="12.00">ActivityListener</text>
</a>
</g>
</g>
<!-- Node1&#45;&gt;Node2 -->
<g id="edge1_Node000001_Node000002" class="edge">
<title>Node1&#45;&gt;Node2</title>
<g id="a_edge1_Node000001_Node000002"><a xlink:title=" ">
<path fill="none" stroke="#63b8ff" d="M1118.97,-117.82C924.24,-110.12 560.39,-91.47 252.62,-51.62 241.49,-50.18 229.87,-48.39 218.35,-46.44"/>
<polygon fill="#63b8ff" stroke="#63b8ff" points="219.3,-43.06 208.85,-44.79 218.11,-49.95 219.3,-43.06"/>
</a>
</g>
</g>
<!-- Node3 -->
<g id="Node000003" class="node">
<title>Node3</title>
<g id="a_Node000003"><a xlink:title=" ">
<ellipse fill="#e0e0e0" stroke="#999999" cx="371.62" cy="-25.81" rx="110.49" ry="25.81"/>
<text xml:space="preserve" text-anchor="start" x="301.5" y="-28.66" font-family="Helvetica,sans-Serif" font-size="12.00">com.runehive.game.world.</text>
<text xml:space="preserve" text-anchor="middle" x="371.62" y="-14.41" font-family="Helvetica,sans-Serif" font-size="12.00">Interactable</text>
</a>
</g>
</g>
<!-- Node1&#45;&gt;Node3 -->
<g id="edge2_Node000001_Node000003" class="edge">
<title>Node1&#45;&gt;Node3</title>
<g id="a_edge2_Node000001_Node000003"><a xlink:title=" ">
<path fill="none" stroke="#63b8ff" d="M1121.6,-114.47C967.73,-104.38 710.85,-84.31 491.62,-51.62 481.73,-50.14 471.43,-48.37 461.2,-46.47"/>
<polygon fill="#63b8ff" stroke="#63b8ff" points="462.11,-43.08 451.63,-44.64 460.8,-49.96 462.11,-43.08"/>
</a>
</g>
</g>
<!-- Node4 -->
<g id="Node000004" class="node">
<title>Node4</title>
<g id="a_Node000004"><a xlink:title=" ">
<ellipse fill="#e0e0e0" stroke="#999999" cx="686.62" cy="-25.81" rx="186.32" ry="25.81"/>
<text xml:space="preserve" text-anchor="start" x="562.87" y="-28.66" font-family="Helvetica,sans-Serif" font-size="12.00">com.runehive.game.world.entity.combat.attack.</text>
<text xml:space="preserve" text-anchor="middle" x="686.62" y="-14.41" font-family="Helvetica,sans-Serif" font-size="12.00">FightType</text>
</a>
</g>
</g>
<!-- Node1&#45;&gt;Node4 -->
<g id="edge3_Node000001_Node000004" class="edge">
<title>Node1&#45;&gt;Node4</title>
<g id="a_edge3_Node000001_Node000004"><a xlink:title=" ">
<path fill="none" stroke="#63b8ff" d="M1141.83,-102.97C1046.66,-87.04 912.45,-64.59 814.42,-48.19"/>
<polygon fill="#63b8ff" stroke="#63b8ff" points="815.18,-44.77 804.74,-46.57 814.03,-51.67 815.18,-44.77"/>
</a>
</g>
</g>
<!-- Node5 -->
<g id="Node000005" class="node">
<title>Node5</title>
<g id="a_Node000005"><a xlink:title=" ">
<ellipse fill="#e0e0e0" stroke="#999999" cx="1074.62" cy="-25.81" rx="183.67" ry="15.73"/>
<text xml:space="preserve" text-anchor="middle" x="1074.62" y="-21.53" font-family="Helvetica,sans-Serif" font-size="12.00">com.runehive.game.world.entity.combat.hit.Hit</text>
</a>
</g>
</g>
<!-- Node1&#45;&gt;Node5 -->
<g id="edge4_Node000001_Node000005" class="edge">
<title>Node1&#45;&gt;Node5</title>
<g id="a_edge4_Node000001_Node000005"><a xlink:title=" ">
<path fill="none" stroke="#63b8ff" d="M1197.61,-90.77C1169.78,-76.3 1137.67,-59.6 1113.24,-46.9"/>
<polygon fill="#63b8ff" stroke="#63b8ff" points="1115.11,-43.92 1104.62,-42.41 1111.88,-50.13 1115.11,-43.92"/>
</a>
</g>
</g>
<!-- Node6 -->
<g id="Node000006" class="node">
<title>Node6</title>
<g id="a_Node000006"><a xlink:title=" ">
<ellipse fill="#e0e0e0" stroke="#999999" cx="1443.62" cy="-25.81" rx="167.23" ry="15.73"/>
<text xml:space="preserve" text-anchor="middle" x="1443.62" y="-21.53" font-family="Helvetica,sans-Serif" font-size="12.00">com.runehive.game.world.entity.mob.Mob</text>
</a>
</g>
</g>
<!-- Node1&#45;&gt;Node6 -->
<g id="edge5_Node000001_Node000006" class="edge">
<title>Node1&#45;&gt;Node6</title>
<g id="a_edge5_Node000001_Node000006"><a xlink:title=" ">
<path fill="none" stroke="#63b8ff" d="M1319.97,-90.77C1347.95,-76.3 1380.23,-59.6 1404.79,-46.9"/>
<polygon fill="#63b8ff" stroke="#63b8ff" points="1406.19,-50.11 1413.47,-42.41 1402.98,-43.89 1406.19,-50.11"/>
</a>
</g>
</g>
<!-- Node7 -->
<g id="Node000007" class="node">
<title>Node7</title>
<g id="a_Node000007"><a xlink:title=" ">
<ellipse fill="#e0e0e0" stroke="#999999" cx="1771.62" cy="-25.81" rx="142.31" ry="25.81"/>
<text xml:space="preserve" text-anchor="start" x="1679" y="-28.66" font-family="Helvetica,sans-Serif" font-size="12.00">com.runehive.game.world.position.</text>
<text xml:space="preserve" text-anchor="middle" x="1771.62" y="-14.41" font-family="Helvetica,sans-Serif" font-size="12.00">Position</text>
</a>
</g>
</g>
<!-- Node1&#45;&gt;Node7 -->
<g id="edge6_Node000001_Node000007" class="edge">
<title>Node1&#45;&gt;Node7</title>
<g id="a_edge6_Node000001_Node000007"><a xlink:title=" ">
<path fill="none" stroke="#63b8ff" d="M1371.2,-101.5C1458.09,-85.3 1577.55,-63.01 1663.34,-47.01"/>
<polygon fill="#63b8ff" stroke="#63b8ff" points="1663.74,-50.49 1672.93,-45.22 1662.46,-43.61 1663.74,-50.49"/>
</a>
</g>
</g>
<!-- Node8 -->
<g id="Node000008" class="node">
<title>Node8</title>
<g id="a_Node000008"><a xlink:title=" ">
<ellipse fill="#e0e0e0" stroke="#999999" cx="2050.62" cy="-25.81" rx="118.97" ry="25.81"/>
<text xml:space="preserve" text-anchor="start" x="1974.5" y="-28.66" font-family="Helvetica,sans-Serif" font-size="12.00">com.runehive.net.packet.out.</text>
<text xml:space="preserve" text-anchor="middle" x="2050.62" y="-14.41" font-family="Helvetica,sans-Serif" font-size="12.00">SendMessage</text>
</a>
</g>
</g>
<!-- Node1&#45;&gt;Node8 -->
<g id="edge7_Node000001_Node000008" class="edge">
<title>Node1&#45;&gt;Node8</title>
<g id="a_edge7_Node000001_Node000008"><a xlink:title=" ">
<path fill="none" stroke="#63b8ff" d="M1392.27,-111.6C1526.67,-99.85 1739.61,-79.07 1922.62,-51.62 1933.01,-50.06 1943.83,-48.25 1954.59,-46.34"/>
<polygon fill="#63b8ff" stroke="#63b8ff" points="1955.06,-49.81 1964.28,-44.58 1953.81,-42.92 1955.06,-49.81"/>
</a>
</g>
</g>
<!-- Node9 -->
<g id="Node000009" class="node">
<title>Node9</title>
<g id="a_Node000009"><a xlink:title=" ">
<ellipse fill="#e0e0e0" stroke="#999999" cx="2286.62" cy="-25.81" rx="98.82" ry="15.73"/>
<text xml:space="preserve" text-anchor="middle" x="2286.62" y="-21.53" font-family="Helvetica,sans-Serif" font-size="12.00">com.runehive.util.Utility</text>
</a>
</g>
</g>
<!-- Node1&#45;&gt;Node9 -->
<g id="edge8_Node000001_Node000009" class="edge">
<title>Node1&#45;&gt;Node9</title>
<g id="a_edge8_Node000001_Node000009"><a xlink:title=" ">
<path fill="none" stroke="#63b8ff" d="M1398.46,-118.2C1579.42,-111.16 1904.06,-93.49 2178.62,-51.62 2194.08,-49.26 2210.61,-45.9 2225.97,-42.41"/>
<polygon fill="#63b8ff" stroke="#63b8ff" points="2226.5,-45.88 2235.44,-40.2 2224.91,-39.06 2226.5,-45.88"/>
</a>
</g>
</g>
</g>
</svg>
