<?xml version="1.0" encoding="UTF-8" standalone="no"?>
<!DOCTYPE svg PUBLIC "-//W3C//DTD SVG 1.1//EN"
 "http://www.w3.org/Graphics/SVG/1.1/DTD/svg11.dtd">
<!-- Generated by graphviz version 14.0.1 (20251006.0113)
 -->
<!-- Title: java/com/runehive/content/lms/crate/LMSCrate.java Pages: 1 -->
<svg width="1451pt" height="147pt"
 viewBox="0.00 0.00 1451.00 147.00" xmlns="http://www.w3.org/2000/svg" xmlns:xlink="http://www.w3.org/1999/xlink">
<g id="graph0" class="graph" transform="scale(1 1) rotate(0) translate(4 143.24)">
<title>java/com/runehive/content/lms/crate/LMSCrate.java</title>
<!-- Node1 -->
<g id="Node000001" class="node">
<title>Node1</title>
<g id="a_Node000001"><a xlink:title=" ">
<ellipse fill="#999999" stroke="#666666" cx="807.42" cy="-113.43" rx="109.96" ry="25.81"/>
<text xml:space="preserve" text-anchor="start" x="737.67" y="-116.28" font-family="Helvetica,sans-Serif" font-size="12.00">java/com/runehive/content</text>
<text xml:space="preserve" text-anchor="middle" x="807.42" y="-102.03" font-family="Helvetica,sans-Serif" font-size="12.00">/lms/crate/LMSCrate.java</text>
</a>
</g>
</g>
<!-- Node2 -->
<g id="Node000002" class="node">
<title>Node2</title>
<g id="a_Node000002"><a xlink:title=" ">
<ellipse fill="#e0e0e0" stroke="#999999" cx="109.42" cy="-25.81" rx="109.42" ry="25.81"/>
<text xml:space="preserve" text-anchor="start" x="40.05" y="-28.66" font-family="Helvetica,sans-Serif" font-size="12.00">com.runehive.content.lms.</text>
<text xml:space="preserve" text-anchor="middle" x="109.42" y="-14.41" font-family="Helvetica,sans-Serif" font-size="12.00">LMSGame</text>
</a>
</g>
</g>
<!-- Node1&#45;&gt;Node2 -->
<g id="edge1_Node000001_Node000002" class="edge">
<title>Node1&#45;&gt;Node2</title>
<g id="a_edge1_Node000001_Node000002"><a xlink:title=" ">
<path fill="none" stroke="#63b8ff" d="M703.47,-104.69C587.26,-95.3 393.69,-77.46 228.42,-51.62 218.8,-50.11 208.79,-48.35 198.83,-46.46"/>
<polygon fill="#63b8ff" stroke="#63b8ff" points="199.6,-43.04 189.12,-44.57 198.27,-49.92 199.6,-43.04"/>
</a>
</g>
</g>
<!-- Node3 -->
<g id="Node000003" class="node">
<title>Node3</title>
<g id="a_Node000003"><a xlink:title=" ">
<ellipse fill="#e0e0e0" stroke="#999999" cx="372.42" cy="-25.81" rx="135.41" ry="25.81"/>
<text xml:space="preserve" text-anchor="start" x="284.67" y="-28.66" font-family="Helvetica,sans-Serif" font-size="12.00">com.runehive.game.world.object.</text>
<text xml:space="preserve" text-anchor="middle" x="372.42" y="-14.41" font-family="Helvetica,sans-Serif" font-size="12.00">CustomGameObject</text>
</a>
</g>
</g>
<!-- Node1&#45;&gt;Node3 -->
<g id="edge2_Node000001_Node000003" class="edge">
<title>Node1&#45;&gt;Node3</title>
<g id="a_edge2_Node000001_Node000003"><a xlink:title=" ">
<path fill="none" stroke="#63b8ff" d="M724.58,-96.12C653.86,-82.2 551.83,-62.12 475.78,-47.15"/>
<polygon fill="#63b8ff" stroke="#63b8ff" points="476.72,-43.77 466.23,-45.27 475.37,-50.64 476.72,-43.77"/>
</a>
</g>
</g>
<!-- Node4 -->
<g id="Node000004" class="node">
<title>Node4</title>
<g id="a_Node000004"><a xlink:title=" ">
<ellipse fill="#e0e0e0" stroke="#999999" cx="668.42" cy="-25.81" rx="142.31" ry="25.81"/>
<text xml:space="preserve" text-anchor="start" x="575.8" y="-28.66" font-family="Helvetica,sans-Serif" font-size="12.00">com.runehive.game.world.position.</text>
<text xml:space="preserve" text-anchor="middle" x="668.42" y="-14.41" font-family="Helvetica,sans-Serif" font-size="12.00">Position</text>
</a>
</g>
</g>
<!-- Node1&#45;&gt;Node4 -->
<g id="edge3_Node000001_Node000004" class="edge">
<title>Node1&#45;&gt;Node4</title>
<g id="a_edge3_Node000001_Node000004"><a xlink:title=" ">
<path fill="none" stroke="#63b8ff" d="M769.07,-88.81C753.09,-78.96 734.33,-67.4 717.36,-56.95"/>
<polygon fill="#63b8ff" stroke="#63b8ff" points="719.26,-54.01 708.91,-51.74 715.58,-59.97 719.26,-54.01"/>
</a>
</g>
</g>
<!-- Node5 -->
<g id="Node000005" class="node">
<title>Node5</title>
<g id="a_Node000005"><a xlink:title=" ">
<ellipse fill="#e0e0e0" stroke="#999999" cx="947.42" cy="-25.81" rx="118.97" ry="25.81"/>
<text xml:space="preserve" text-anchor="start" x="871.3" y="-28.66" font-family="Helvetica,sans-Serif" font-size="12.00">com.runehive.net.packet.out.</text>
<text xml:space="preserve" text-anchor="middle" x="947.42" y="-14.41" font-family="Helvetica,sans-Serif" font-size="12.00">SendHintArrow</text>
</a>
</g>
</g>
<!-- Node1&#45;&gt;Node5 -->
<g id="edge4_Node000001_Node000005" class="edge">
<title>Node1&#45;&gt;Node5</title>
<g id="a_edge4_Node000001_Node000005"><a xlink:title=" ">
<path fill="none" stroke="#63b8ff" d="M846.05,-88.81C862.44,-78.78 881.72,-66.99 899.05,-56.4"/>
<polygon fill="#63b8ff" stroke="#63b8ff" points="900.44,-59.64 907.15,-51.44 896.79,-53.67 900.44,-59.64"/>
</a>
</g>
</g>
<!-- Node6 -->
<g id="Node000006" class="node">
<title>Node6</title>
<g id="a_Node000006"><a xlink:title=" ">
<ellipse fill="#e0e0e0" stroke="#999999" cx="1183.42" cy="-25.81" rx="98.82" ry="15.73"/>
<text xml:space="preserve" text-anchor="middle" x="1183.42" y="-21.53" font-family="Helvetica,sans-Serif" font-size="12.00">com.runehive.util.Utility</text>
</a>
</g>
</g>
<!-- Node1&#45;&gt;Node6 -->
<g id="edge5_Node000001_Node000006" class="edge">
<title>Node1&#45;&gt;Node6</title>
<g id="a_edge5_Node000001_Node000006"><a xlink:title=" ">
<path fill="none" stroke="#63b8ff" d="M885.13,-94.85C938.64,-82.74 1011.35,-66.25 1075.42,-51.62 1089.19,-48.48 1103.94,-45.1 1117.97,-41.87"/>
<polygon fill="#63b8ff" stroke="#63b8ff" points="1118.61,-45.32 1127.57,-39.67 1117.04,-38.5 1118.61,-45.32"/>
</a>
</g>
</g>
<!-- Node7 -->
<g id="Node000007" class="node">
<title>Node7</title>
<g id="a_Node000007"><a xlink:title=" ">
<ellipse fill="#e0e0e0" stroke="#999999" cx="1371.42" cy="-25.81" rx="71.24" ry="15.73"/>
<text xml:space="preserve" text-anchor="middle" x="1371.42" y="-21.53" font-family="Helvetica,sans-Serif" font-size="12.00">java.util.Objects</text>
</a>
</g>
</g>
<!-- Node1&#45;&gt;Node7 -->
<g id="edge6_Node000001_Node000007" class="edge">
<title>Node1&#45;&gt;Node7</title>
<g id="a_edge6_Node000001_Node000007"><a xlink:title=" ">
<path fill="none" stroke="#63b8ff" d="M911.23,-104.7C1009.84,-96.11 1161.88,-79.62 1291.42,-51.62 1302.08,-49.32 1313.35,-46.23 1323.97,-43.03"/>
<polygon fill="#63b8ff" stroke="#63b8ff" points="1324.79,-46.44 1333.3,-40.12 1322.71,-39.76 1324.79,-46.44"/>
</a>
</g>
</g>
</g>
</svg>
