<?xml version="1.0" encoding="UTF-8" standalone="no"?>
<!DOCTYPE svg PUBLIC "-//W3C//DTD SVG 1.1//EN"
 "http://www.w3.org/Graphics/SVG/1.1/DTD/svg11.dtd">
<!-- Generated by graphviz version 14.0.1 (20251006.0113)
 -->
<!-- Title: java/com/runehive/util/tools/LogPrinter.java Pages: 1 -->
<svg width="1252pt" height="147pt"
 viewBox="0.00 0.00 1252.00 147.00" xmlns="http://www.w3.org/2000/svg" xmlns:xlink="http://www.w3.org/1999/xlink">
<g id="graph0" class="graph" transform="scale(1 1) rotate(0) translate(4 143.24)">
<title>java/com/runehive/util/tools/LogPrinter.java</title>
<!-- Node1 -->
<g id="Node000001" class="node">
<title>Node1</title>
<g id="a_Node000001"><a xlink:title=" ">
<ellipse fill="#999999" stroke="#666666" cx="734.72" cy="-113.43" rx="93.51" ry="25.81"/>
<text xml:space="preserve" text-anchor="start" x="676.59" y="-116.28" font-family="Helvetica,sans-Serif" font-size="12.00">java/com/runehive/util</text>
<text xml:space="preserve" text-anchor="middle" x="734.72" y="-102.03" font-family="Helvetica,sans-Serif" font-size="12.00">/tools/LogPrinter.java</text>
</a>
</g>
</g>
<!-- Node2 -->
<g id="Node000002" class="node">
<title>Node2</title>
<g id="a_Node000002"><a xlink:title=" ">
<ellipse fill="#e0e0e0" stroke="#999999" cx="175.72" cy="-25.81" rx="175.72" ry="25.81"/>
<text xml:space="preserve" text-anchor="start" x="59.47" y="-28.66" font-family="Helvetica,sans-Serif" font-size="12.00">com.runehive.game.world.entity.mob.player.</text>
<text xml:space="preserve" text-anchor="middle" x="175.72" y="-14.41" font-family="Helvetica,sans-Serif" font-size="12.00">Player</text>
</a>
</g>
</g>
<!-- Node1&#45;&gt;Node2 -->
<g id="edge1_Node000001_Node000002" class="edge">
<title>Node1&#45;&gt;Node2</title>
<g id="a_edge1_Node000001_Node000002"><a xlink:title=" ">
<path fill="none" stroke="#63b8ff" d="M654.03,-100.07C563.14,-86.15 414.09,-63.32 306.51,-46.84"/>
<polygon fill="#63b8ff" stroke="#63b8ff" points="307.16,-43.4 296.75,-45.35 306.1,-50.32 307.16,-43.4"/>
</a>
</g>
</g>
<!-- Node3 -->
<g id="Node000003" class="node">
<title>Node3</title>
<g id="a_Node000003"><a xlink:title=" ">
<ellipse fill="#e0e0e0" stroke="#999999" cx="461.72" cy="-25.81" rx="92.45" ry="15.73"/>
<text xml:space="preserve" text-anchor="middle" x="461.72" y="-21.53" font-family="Helvetica,sans-Serif" font-size="12.00">java.io.BufferedWriter</text>
</a>
</g>
</g>
<!-- Node1&#45;&gt;Node3 -->
<g id="edge2_Node000001_Node000003" class="edge">
<title>Node1&#45;&gt;Node3</title>
<g id="a_edge2_Node000001_Node000003"><a xlink:title=" ">
<path fill="none" stroke="#63b8ff" d="M674.13,-93.43C626.53,-78.5 560.87,-57.91 515.2,-43.58"/>
<polygon fill="#63b8ff" stroke="#63b8ff" points="516.37,-40.28 505.78,-40.63 514.27,-46.96 516.37,-40.28"/>
</a>
</g>
</g>
<!-- Node4 -->
<g id="Node000004" class="node">
<title>Node4</title>
<g id="a_Node000004"><a xlink:title=" ">
<ellipse fill="#e0e0e0" stroke="#999999" cx="646.72" cy="-25.81" rx="74.95" ry="15.73"/>
<text xml:space="preserve" text-anchor="middle" x="646.72" y="-21.53" font-family="Helvetica,sans-Serif" font-size="12.00">java.io.FileWriter</text>
</a>
</g>
</g>
<!-- Node1&#45;&gt;Node4 -->
<g id="edge3_Node000001_Node000004" class="edge">
<title>Node1&#45;&gt;Node4</title>
<g id="a_edge3_Node000001_Node000004"><a xlink:title=" ">
<path fill="none" stroke="#63b8ff" d="M709.73,-88.12C697.18,-75.91 682.08,-61.21 669.8,-49.27"/>
<polygon fill="#63b8ff" stroke="#63b8ff" points="672.51,-47.02 662.9,-42.56 667.63,-52.04 672.51,-47.02"/>
</a>
</g>
</g>
<!-- Node5 -->
<g id="Node000005" class="node">
<title>Node5</title>
<g id="a_Node000005"><a xlink:title=" ">
<ellipse fill="#e0e0e0" stroke="#999999" cx="823.72" cy="-25.81" rx="84.5" ry="15.73"/>
<text xml:space="preserve" text-anchor="middle" x="823.72" y="-21.53" font-family="Helvetica,sans-Serif" font-size="12.00">java.io.IOException</text>
</a>
</g>
</g>
<!-- Node1&#45;&gt;Node5 -->
<g id="edge4_Node000001_Node000005" class="edge">
<title>Node1&#45;&gt;Node5</title>
<g id="a_edge4_Node000001_Node000005"><a xlink:title=" ">
<path fill="none" stroke="#63b8ff" d="M759.98,-88.12C772.59,-75.99 787.75,-61.41 800.13,-49.5"/>
<polygon fill="#63b8ff" stroke="#63b8ff" points="802.31,-52.26 807.09,-42.81 797.45,-47.22 802.31,-52.26"/>
</a>
</g>
</g>
<!-- Node6 -->
<g id="Node000006" class="node">
<title>Node6</title>
<g id="a_Node000006"><a xlink:title=" ">
<ellipse fill="#e0e0e0" stroke="#999999" cx="1015.72" cy="-25.81" rx="89.27" ry="15.73"/>
<text xml:space="preserve" text-anchor="middle" x="1015.72" y="-21.53" font-family="Helvetica,sans-Serif" font-size="12.00">java.text.DateFormat</text>
</a>
</g>
</g>
<!-- Node1&#45;&gt;Node6 -->
<g id="edge5_Node000001_Node000006" class="edge">
<title>Node1&#45;&gt;Node6</title>
<g id="a_edge5_Node000001_Node000006"><a xlink:title=" ">
<path fill="none" stroke="#63b8ff" d="M796.38,-93.64C845.74,-78.6 914.29,-57.71 961.55,-43.31"/>
<polygon fill="#63b8ff" stroke="#63b8ff" points="962.49,-46.69 971.04,-40.42 960.45,-39.99 962.49,-46.69"/>
</a>
</g>
</g>
<!-- Node7 -->
<g id="Node000007" class="node">
<title>Node7</title>
<g id="a_Node000007"><a xlink:title=" ">
<ellipse fill="#e0e0e0" stroke="#999999" cx="1183.72" cy="-25.81" rx="60.63" ry="15.73"/>
<text xml:space="preserve" text-anchor="middle" x="1183.72" y="-21.53" font-family="Helvetica,sans-Serif" font-size="12.00">java.util.Date</text>
</a>
</g>
</g>
<!-- Node1&#45;&gt;Node7 -->
<g id="edge6_Node000001_Node000007" class="edge">
<title>Node1&#45;&gt;Node7</title>
<g id="a_edge6_Node000001_Node000007"><a xlink:title=" ">
<path fill="none" stroke="#63b8ff" d="M821.05,-103.11C898.46,-93.68 1014.76,-76.87 1113.72,-51.62 1122.69,-49.33 1132.13,-46.37 1141.08,-43.3"/>
<polygon fill="#63b8ff" stroke="#63b8ff" points="1142,-46.69 1150.26,-40.05 1139.66,-40.09 1142,-46.69"/>
</a>
</g>
</g>
</g>
</svg>
