<?xml version="1.0" encoding="UTF-8" standalone="no"?>
<!DOCTYPE svg PUBLIC "-//W3C//DTD SVG 1.1//EN"
 "http://www.w3.org/Graphics/SVG/1.1/DTD/svg11.dtd">
<!-- Generated by graphviz version 14.0.1 (20251006.0113)
 -->
<!-- Title: java/com/runehive/game/world/entity/combat/magic/MagicSpell.java Pages: 1 -->
<svg width="1766pt" height="167pt"
 viewBox="0.00 0.00 1766.00 167.00" xmlns="http://www.w3.org/2000/svg" xmlns:xlink="http://www.w3.org/1999/xlink">
<g id="graph0" class="graph" transform="scale(1 1) rotate(0) translate(4 163.39)">
<title>java/com/runehive/game/world/entity/combat/magic/MagicSpell.java</title>
<!-- Node1 -->
<g id="Node000001" class="node">
<title>Node1</title>
<g id="a_Node000001"><a xlink:title=" ">
<ellipse fill="#999999" stroke="#666666" cx="954.97" cy="-123.5" rx="111.02" ry="35.89"/>
<text xml:space="preserve" text-anchor="start" x="884.47" y="-133.48" font-family="Helvetica,sans-Serif" font-size="12.00">java/com/runehive/game</text>
<text xml:space="preserve" text-anchor="start" x="884.47" y="-119.23" font-family="Helvetica,sans-Serif" font-size="12.00">/world/entity/combat/magic</text>
<text xml:space="preserve" text-anchor="middle" x="954.97" y="-104.98" font-family="Helvetica,sans-Serif" font-size="12.00">/MagicSpell.java</text>
</a>
</g>
</g>
<!-- Node2 -->
<g id="Node000002" class="node">
<title>Node2</title>
<g id="a_Node000002"><a xlink:title=" ">
<ellipse fill="#e0e0e0" stroke="#999999" cx="118.97" cy="-25.81" rx="118.97" ry="25.81"/>
<text xml:space="preserve" text-anchor="start" x="42.85" y="-28.66" font-family="Helvetica,sans-Serif" font-size="12.00">com.runehive.net.packet.out.</text>
<text xml:space="preserve" text-anchor="middle" x="118.97" y="-14.41" font-family="Helvetica,sans-Serif" font-size="12.00">SendMessage</text>
</a>
</g>
</g>
<!-- Node1&#45;&gt;Node2 -->
<g id="edge1_Node000001_Node000002" class="edge">
<title>Node1&#45;&gt;Node2</title>
<g id="a_edge1_Node000001_Node000002"><a xlink:title=" ">
<path fill="none" stroke="#63b8ff" d="M846.94,-114.78C707.77,-104.13 458.57,-82.65 246.97,-51.62 236.5,-50.08 225.58,-48.28 214.73,-46.36"/>
<polygon fill="#63b8ff" stroke="#63b8ff" points="215.42,-42.93 204.96,-44.59 214.18,-49.82 215.42,-42.93"/>
</a>
</g>
</g>
<!-- Node3 -->
<g id="Node000003" class="node">
<title>Node3</title>
<g id="a_Node000003"><a xlink:title=" ">
<ellipse fill="#e0e0e0" stroke="#999999" cx="422.97" cy="-25.81" rx="167.23" ry="15.73"/>
<text xml:space="preserve" text-anchor="middle" x="422.97" y="-21.53" font-family="Helvetica,sans-Serif" font-size="12.00">com.runehive.game.world.entity.mob.Mob</text>
</a>
</g>
</g>
<!-- Node1&#45;&gt;Node3 -->
<g id="edge2_Node000001_Node000003" class="edge">
<title>Node1&#45;&gt;Node3</title>
<g id="a_edge2_Node000001_Node000003"><a xlink:title=" ">
<path fill="none" stroke="#63b8ff" d="M858.94,-105.23C759.33,-87.31 605,-59.55 509.18,-42.32"/>
<polygon fill="#63b8ff" stroke="#63b8ff" points="510.03,-38.91 499.57,-40.59 508.79,-45.8 510.03,-38.91"/>
</a>
</g>
</g>
<!-- Node4 -->
<g id="Node000004" class="node">
<title>Node4</title>
<g id="a_Node000004"><a xlink:title=" ">
<ellipse fill="#e0e0e0" stroke="#999999" cx="783.97" cy="-25.81" rx="175.72" ry="25.81"/>
<text xml:space="preserve" text-anchor="start" x="667.72" y="-28.66" font-family="Helvetica,sans-Serif" font-size="12.00">com.runehive.game.world.entity.mob.player.</text>
<text xml:space="preserve" text-anchor="middle" x="783.97" y="-14.41" font-family="Helvetica,sans-Serif" font-size="12.00">Player</text>
</a>
</g>
</g>
<!-- Node1&#45;&gt;Node4 -->
<g id="edge3_Node000001_Node000004" class="edge">
<title>Node1&#45;&gt;Node4</title>
<g id="a_edge3_Node000001_Node000004"><a xlink:title=" ">
<path fill="none" stroke="#63b8ff" d="M900.4,-91.96C880.24,-80.69 857.44,-67.93 837.4,-56.71"/>
<polygon fill="#63b8ff" stroke="#63b8ff" points="839.25,-53.74 828.82,-51.91 835.83,-59.84 839.25,-53.74"/>
</a>
</g>
</g>
<!-- Node5 -->
<g id="Node000005" class="node">
<title>Node5</title>
<g id="a_Node000005"><a xlink:title=" ">
<ellipse fill="#e0e0e0" stroke="#999999" cx="1126.97" cy="-25.81" rx="149.2" ry="25.81"/>
<text xml:space="preserve" text-anchor="start" x="1029.47" y="-28.66" font-family="Helvetica,sans-Serif" font-size="12.00">com.runehive.game.world.entity.skill.</text>
<text xml:space="preserve" text-anchor="middle" x="1126.97" y="-14.41" font-family="Helvetica,sans-Serif" font-size="12.00">Skill</text>
</a>
</g>
</g>
<!-- Node1&#45;&gt;Node5 -->
<g id="edge4_Node000001_Node000005" class="edge">
<title>Node1&#45;&gt;Node5</title>
<g id="a_edge4_Node000001_Node000005"><a xlink:title=" ">
<path fill="none" stroke="#63b8ff" d="M1009.87,-91.96C1030.3,-80.59 1053.45,-67.71 1073.74,-56.43"/>
<polygon fill="#63b8ff" stroke="#63b8ff" points="1075.39,-59.51 1082.42,-51.59 1071.98,-53.4 1075.39,-59.51"/>
</a>
</g>
</g>
<!-- Node6 -->
<g id="Node000006" class="node">
<title>Node6</title>
<g id="a_Node000006"><a xlink:title=" ">
<ellipse fill="#e0e0e0" stroke="#999999" cx="1442.97" cy="-25.81" rx="148.67" ry="15.73"/>
<text xml:space="preserve" text-anchor="middle" x="1442.97" y="-21.53" font-family="Helvetica,sans-Serif" font-size="12.00">com.runehive.game.world.items.Item</text>
</a>
</g>
</g>
<!-- Node1&#45;&gt;Node6 -->
<g id="edge5_Node000001_Node000006" class="edge">
<title>Node1&#45;&gt;Node6</title>
<g id="a_edge5_Node000001_Node000006"><a xlink:title=" ">
<path fill="none" stroke="#63b8ff" d="M1049.06,-104.05C1140.38,-86.15 1277.43,-59.27 1363.45,-42.4"/>
<polygon fill="#63b8ff" stroke="#63b8ff" points="1364.09,-45.84 1373.23,-40.49 1362.74,-38.98 1364.09,-45.84"/>
</a>
</g>
</g>
<!-- Node7 -->
<g id="Node000007" class="node">
<title>Node7</title>
<g id="a_Node000007"><a xlink:title=" ">
<ellipse fill="#e0e0e0" stroke="#999999" cx="1683.97" cy="-25.81" rx="74.42" ry="15.73"/>
<text xml:space="preserve" text-anchor="middle" x="1683.97" y="-21.53" font-family="Helvetica,sans-Serif" font-size="12.00">java.util.Optional</text>
</a>
</g>
</g>
<!-- Node1&#45;&gt;Node7 -->
<g id="edge6_Node000001_Node000007" class="edge">
<title>Node1&#45;&gt;Node7</title>
<g id="a_edge6_Node000001_Node000007"><a xlink:title=" ">
<path fill="none" stroke="#63b8ff" d="M1064.2,-116.57C1193.4,-108.16 1414.51,-89.39 1600.97,-51.62 1612.14,-49.36 1623.96,-46.26 1635.08,-43.02"/>
<polygon fill="#63b8ff" stroke="#63b8ff" points="1635.89,-46.43 1644.46,-40.2 1633.87,-39.73 1635.89,-46.43"/>
</a>
</g>
</g>
</g>
</svg>
