<?xml version="1.0" encoding="UTF-8" standalone="no"?>
<!DOCTYPE svg PUBLIC "-//W3C//DTD SVG 1.1//EN"
 "http://www.w3.org/Graphics/SVG/1.1/DTD/svg11.dtd">
<!-- Generated by graphviz version 14.0.1 (20251006.0113)
 -->
<!-- Title: java/com/runehive/content/itemaction/impl/MagmaHelm.java Pages: 1 -->
<svg width="2660pt" height="147pt"
 viewBox="0.00 0.00 2660.00 147.00" xmlns="http://www.w3.org/2000/svg" xmlns:xlink="http://www.w3.org/1999/xlink">
<g id="graph0" class="graph" transform="scale(1 1) rotate(0) translate(4 143.24)">
<title>java/com/runehive/content/itemaction/impl/MagmaHelm.java</title>
<!-- Node1 -->
<g id="Node000001" class="node">
<title>Node1</title>
<g id="a_Node000001"><a xlink:title=" ">
<ellipse fill="#999999" stroke="#666666" cx="1475.88" cy="-113.43" rx="138.59" ry="25.81"/>
<text xml:space="preserve" text-anchor="start" x="1385.88" y="-116.28" font-family="Helvetica,sans-Serif" font-size="12.00">java/com/runehive/content</text>
<text xml:space="preserve" text-anchor="middle" x="1475.88" y="-102.03" font-family="Helvetica,sans-Serif" font-size="12.00">/itemaction/impl/MagmaHelm.java</text>
</a>
</g>
</g>
<!-- Node2 -->
<g id="Node000002" class="node">
<title>Node2</title>
<g id="a_Node000002"><a xlink:title=" ">
<ellipse fill="#e0e0e0" stroke="#999999" cx="134.88" cy="-25.81" rx="134.88" ry="25.81"/>
<text xml:space="preserve" text-anchor="start" x="47.51" y="-28.66" font-family="Helvetica,sans-Serif" font-size="12.00">com.runehive.content.itemaction.</text>
<text xml:space="preserve" text-anchor="middle" x="134.88" y="-14.41" font-family="Helvetica,sans-Serif" font-size="12.00">ItemAction</text>
</a>
</g>
</g>
<!-- Node1&#45;&gt;Node2 -->
<g id="edge1_Node000001_Node000002" class="edge">
<title>Node1&#45;&gt;Node2</title>
<g id="a_edge1_Node000001_Node000002"><a xlink:title=" ">
<path fill="none" stroke="#63b8ff" d="M1337.66,-110.78C1114.37,-106.91 660.7,-94.05 278.88,-51.62 266.18,-50.21 252.89,-48.39 239.75,-46.38"/>
<polygon fill="#63b8ff" stroke="#63b8ff" points="240.68,-42.98 230.26,-44.89 239.59,-49.9 240.68,-42.98"/>
</a>
</g>
</g>
<!-- Node3 -->
<g id="Node000003" class="node">
<title>Node3</title>
<g id="a_Node000003"><a xlink:title=" ">
<ellipse fill="#e0e0e0" stroke="#999999" cx="463.88" cy="-25.81" rx="175.72" ry="25.81"/>
<text xml:space="preserve" text-anchor="start" x="347.63" y="-28.66" font-family="Helvetica,sans-Serif" font-size="12.00">com.runehive.game.world.entity.mob.player.</text>
<text xml:space="preserve" text-anchor="middle" x="463.88" y="-14.41" font-family="Helvetica,sans-Serif" font-size="12.00">Player</text>
</a>
</g>
</g>
<!-- Node1&#45;&gt;Node3 -->
<g id="edge2_Node000001_Node000003" class="edge">
<title>Node1&#45;&gt;Node3</title>
<g id="a_edge2_Node000001_Node000003"><a xlink:title=" ">
<path fill="none" stroke="#63b8ff" d="M1344.09,-105.22C1180.54,-95.72 893.21,-77.14 647.88,-51.62 631.99,-49.97 615.36,-48.02 598.86,-45.96"/>
<polygon fill="#63b8ff" stroke="#63b8ff" points="599.34,-42.5 588.98,-44.71 598.46,-49.44 599.34,-42.5"/>
</a>
</g>
</g>
<!-- Node4 -->
<g id="Node000004" class="node">
<title>Node4</title>
<g id="a_Node000004"><a xlink:title=" ">
<ellipse fill="#e0e0e0" stroke="#999999" cx="805.88" cy="-25.81" rx="148.67" ry="15.73"/>
<text xml:space="preserve" text-anchor="middle" x="805.88" y="-21.53" font-family="Helvetica,sans-Serif" font-size="12.00">com.runehive.game.world.items.Item</text>
</a>
</g>
</g>
<!-- Node1&#45;&gt;Node4 -->
<g id="edge3_Node000001_Node000004" class="edge">
<title>Node1&#45;&gt;Node4</title>
<g id="a_edge3_Node000001_Node000004"><a xlink:title=" ">
<path fill="none" stroke="#63b8ff" d="M1357.52,-99.65C1253.64,-88.12 1098.56,-70.18 963.88,-51.62 941.53,-48.54 917.44,-44.91 894.98,-41.4"/>
<polygon fill="#63b8ff" stroke="#63b8ff" points="895.67,-37.96 885.24,-39.87 894.58,-44.88 895.67,-37.96"/>
</a>
</g>
</g>
<!-- Node5 -->
<g id="Node000005" class="node">
<title>Node5</title>
<g id="a_Node000005"><a xlink:title=" ">
<ellipse fill="#e0e0e0" stroke="#999999" cx="1091.88" cy="-25.81" rx="118.97" ry="25.81"/>
<text xml:space="preserve" text-anchor="start" x="1015.76" y="-28.66" font-family="Helvetica,sans-Serif" font-size="12.00">com.runehive.net.packet.out.</text>
<text xml:space="preserve" text-anchor="middle" x="1091.88" y="-14.41" font-family="Helvetica,sans-Serif" font-size="12.00">SendChatBoxInterface</text>
</a>
</g>
</g>
<!-- Node1&#45;&gt;Node5 -->
<g id="edge4_Node000001_Node000005" class="edge">
<title>Node1&#45;&gt;Node5</title>
<g id="a_edge4_Node000001_Node000005"><a xlink:title=" ">
<path fill="none" stroke="#63b8ff" d="M1388.75,-93C1327.79,-79.41 1246.5,-61.28 1184.39,-47.44"/>
<polygon fill="#63b8ff" stroke="#63b8ff" points="1185.42,-44.08 1174.9,-45.32 1183.9,-50.91 1185.42,-44.08"/>
</a>
</g>
</g>
<!-- Node6 -->
<g id="Node000006" class="node">
<title>Node6</title>
<g id="a_Node000006"><a xlink:title=" ">
<ellipse fill="#e0e0e0" stroke="#999999" cx="1347.88" cy="-25.81" rx="118.97" ry="25.81"/>
<text xml:space="preserve" text-anchor="start" x="1271.76" y="-28.66" font-family="Helvetica,sans-Serif" font-size="12.00">com.runehive.net.packet.out.</text>
<text xml:space="preserve" text-anchor="middle" x="1347.88" y="-14.41" font-family="Helvetica,sans-Serif" font-size="12.00">SendItemOnInterfaceSlot</text>
</a>
</g>
</g>
<!-- Node1&#45;&gt;Node6 -->
<g id="edge5_Node000001_Node000006" class="edge">
<title>Node1&#45;&gt;Node6</title>
<g id="a_edge5_Node000001_Node000006"><a xlink:title=" ">
<path fill="none" stroke="#63b8ff" d="M1439.54,-88.12C1425.1,-78.46 1408.33,-67.24 1393.11,-57.06"/>
<polygon fill="#63b8ff" stroke="#63b8ff" points="1395.38,-54.37 1385.12,-51.72 1391.49,-60.19 1395.38,-54.37"/>
</a>
</g>
</g>
<!-- Node7 -->
<g id="Node000007" class="node">
<title>Node7</title>
<g id="a_Node000007"><a xlink:title=" ">
<ellipse fill="#e0e0e0" stroke="#999999" cx="1603.88" cy="-25.81" rx="118.97" ry="25.81"/>
<text xml:space="preserve" text-anchor="start" x="1527.76" y="-28.66" font-family="Helvetica,sans-Serif" font-size="12.00">com.runehive.net.packet.out.</text>
<text xml:space="preserve" text-anchor="middle" x="1603.88" y="-14.41" font-family="Helvetica,sans-Serif" font-size="12.00">SendMessage</text>
</a>
</g>
</g>
<!-- Node1&#45;&gt;Node7 -->
<g id="edge6_Node000001_Node000007" class="edge">
<title>Node1&#45;&gt;Node7</title>
<g id="a_edge6_Node000001_Node000007"><a xlink:title=" ">
<path fill="none" stroke="#63b8ff" d="M1512.22,-88.12C1526.66,-78.46 1543.44,-67.24 1558.65,-57.06"/>
<polygon fill="#63b8ff" stroke="#63b8ff" points="1560.27,-60.19 1566.64,-51.72 1556.38,-54.37 1560.27,-60.19"/>
</a>
</g>
</g>
<!-- Node8 -->
<g id="Node000008" class="node">
<title>Node8</title>
<g id="a_Node000008"><a xlink:title=" ">
<ellipse fill="#e0e0e0" stroke="#999999" cx="1859.88" cy="-25.81" rx="118.97" ry="25.81"/>
<text xml:space="preserve" text-anchor="start" x="1783.76" y="-28.66" font-family="Helvetica,sans-Serif" font-size="12.00">com.runehive.net.packet.out.</text>
<text xml:space="preserve" text-anchor="middle" x="1859.88" y="-14.41" font-family="Helvetica,sans-Serif" font-size="12.00">SendString</text>
</a>
</g>
</g>
<!-- Node1&#45;&gt;Node8 -->
<g id="edge7_Node000001_Node000008" class="edge">
<title>Node1&#45;&gt;Node8</title>
<g id="a_edge7_Node000001_Node000008"><a xlink:title=" ">
<path fill="none" stroke="#63b8ff" d="M1563.02,-93C1623.97,-79.41 1705.27,-61.28 1767.37,-47.44"/>
<polygon fill="#63b8ff" stroke="#63b8ff" points="1767.87,-50.91 1776.86,-45.32 1766.34,-44.08 1767.87,-50.91"/>
</a>
</g>
</g>
<!-- Node9 -->
<g id="Node000009" class="node">
<title>Node9</title>
<g id="a_Node000009"><a xlink:title=" ">
<ellipse fill="#e0e0e0" stroke="#999999" cx="2095.88" cy="-25.81" rx="98.82" ry="15.73"/>
<text xml:space="preserve" text-anchor="middle" x="2095.88" y="-21.53" font-family="Helvetica,sans-Serif" font-size="12.00">com.runehive.util.Utility</text>
</a>
</g>
</g>
<!-- Node1&#45;&gt;Node9 -->
<g id="edge8_Node000001_Node000009" class="edge">
<title>Node1&#45;&gt;Node9</title>
<g id="a_edge8_Node000001_Node000009"><a xlink:title=" ">
<path fill="none" stroke="#63b8ff" d="M1599.79,-101.48C1703.82,-91.39 1856.14,-74.5 1987.88,-51.62 2002.83,-49.02 2018.83,-45.67 2033.8,-42.27"/>
<polygon fill="#63b8ff" stroke="#63b8ff" points="2034.59,-45.68 2043.54,-40.02 2033.01,-38.86 2034.59,-45.68"/>
</a>
</g>
</g>
<!-- Node10 -->
<g id="Node000010" class="node">
<title>Node10</title>
<g id="a_Node000010"><a xlink:title=" ">
<ellipse fill="#e0e0e0" stroke="#999999" cx="2320.88" cy="-25.81" rx="108.36" ry="15.73"/>
<text xml:space="preserve" text-anchor="middle" x="2320.88" y="-21.53" font-family="Helvetica,sans-Serif" font-size="12.00">java.math.RoundingMode</text>
</a>
</g>
</g>
<!-- Node1&#45;&gt;Node10 -->
<g id="edge9_Node000001_Node000010" class="edge">
<title>Node1&#45;&gt;Node10</title>
<g id="a_edge9_Node000001_Node000010"><a xlink:title=" ">
<path fill="none" stroke="#63b8ff" d="M1609.63,-106.3C1756.1,-98.42 1997.63,-81.98 2203.88,-51.62 2220.73,-49.14 2238.8,-45.7 2255.57,-42.17"/>
<polygon fill="#63b8ff" stroke="#63b8ff" points="2255.85,-45.69 2264.9,-40.17 2254.38,-38.85 2255.85,-45.69"/>
</a>
</g>
</g>
<!-- Node11 -->
<g id="Node000011" class="node">
<title>Node11</title>
<g id="a_Node000011"><a xlink:title=" ">
<ellipse fill="#e0e0e0" stroke="#999999" cx="2549.88" cy="-25.81" rx="102.53" ry="15.73"/>
<text xml:space="preserve" text-anchor="middle" x="2549.88" y="-21.53" font-family="Helvetica,sans-Serif" font-size="12.00">java.text.DecimalFormat</text>
</a>
</g>
</g>
<!-- Node1&#45;&gt;Node11 -->
<g id="edge10_Node000001_Node000011" class="edge">
<title>Node1&#45;&gt;Node11</title>
<g id="a_edge10_Node000001_Node000011"><a xlink:title=" ">
<path fill="none" stroke="#63b8ff" d="M1613.96,-110.4C1801.41,-106.13 2146.46,-92.85 2437.88,-51.62 2454.22,-49.31 2471.72,-45.89 2487.92,-42.33"/>
<polygon fill="#63b8ff" stroke="#63b8ff" points="2488.43,-45.8 2497.41,-40.19 2486.89,-38.97 2488.43,-45.8"/>
</a>
</g>
</g>
</g>
</svg>
