<?xml version="1.0" encoding="UTF-8" standalone="no"?>
<!DOCTYPE svg PUBLIC "-//W3C//DTD SVG 1.1//EN"
 "http://www.w3.org/Graphics/SVG/1.1/DTD/svg11.dtd">
<!-- Generated by graphviz version 14.0.1 (20251006.0113)
 -->
<!-- Title: java/com/runehive/game/world/entity/combat/magic/MagicImpact.java Pages: 1 -->
<!--zoomable 167 -->

<svg id="main" version="1.1" xmlns="http://www.w3.org/2000/svg" xmlns:xlink="http://www.w3.org/1999/xlink" xml:space="preserve" onload="init(evt)">

<style type="text/css"><![CDATA[
.node, .edge {opacity: 0.7;}
.node.selected, .edge.selected {opacity: 1;}
.edge:hover path { stroke: red; }
.edge:hover polygon { stroke: red; fill: red; }
]]></style>

<defs>
  <circle id="rim" cx="0" cy="0" r="7"/>
  <circle id="rim2" cx="0" cy="0" r="3.5"/>
  <g id="zoomPlus">
    <use xlink:href="#rim" fill="#404040"><set attributeName="fill" to="#808080" begin="zoomplus.mouseover" end="zoomplus.mouseout"/></use>
    <path d="M-4,0h8M0,-4v8" fill="none" stroke="white" stroke-width="1.5" pointer-events="none"/>
  </g>
  <g id="zoomMin">
    <use xlink:href="#rim" fill="#404040"><set attributeName="fill" to="#808080" begin="zoomminus.mouseover" end="zoomminus.mouseout"/></use>
    <path d="M-4,0h8" fill="none" stroke="white" stroke-width="1.5" pointer-events="none"/>
  </g>
  <g id="arrowUp" transform="translate(30 24)">
    <use xlink:href="#rim"/>
    <path pointer-events="none" fill="none" stroke="white" stroke-width="1.5" d="M0,-3.0v7 M-2.5,-0.5L0,-3.0L2.5,-0.5"/>
  </g>
  <g id="arrowRight" transform="rotate(90) translate(36 -43)">
    <use xlink:href="#rim"/>
    <path pointer-events="none" fill="none" stroke="white" stroke-width="1.5" d="M0,-3.0v7 M-2.5,-0.5L0,-3.0L2.5,-0.5"/>
  </g>
  <g id="arrowDown" transform="rotate(180) translate(-30 -48)">
    <use xlink:href="#rim"/>
    <path pointer-events="none" fill="none" stroke="white" stroke-width="1.5" d="M0,-3.0v7 M-2.5,-0.5L0,-3.0L2.5,-0.5"/>
  </g>
  <g id="arrowLeft" transform="rotate(270) translate(-36 17)">
    <use xlink:href="#rim"/>
    <path pointer-events="none" fill="none" stroke="white" stroke-width="1.5" d="M0,-3.0v7 M-2.5,-0.5L0,-3.0L2.5,-0.5"/>
  </g>
  <g id="resetDef">
    <use xlink:href="#rim2" fill="#404040"><set attributeName="fill" to="#808080" begin="reset.mouseover" end="reset.mouseout"/></use>
  </g>
</defs>
<script type="application/ecmascript">
var viewWidth = 5284;
var viewHeight = 167;
var sectionId = 'dynsection-0';
</script>
<script type="application/ecmascript" xlink:href="svg.min.js"/>
<svg id="graph" class="graph">
<g id="viewport">
<title>java/com/runehive/game/world/entity/combat/magic/MagicImpact.java</title>
<!-- Node1 -->
<g id="Node000001" class="node">
<title>Node1</title>
<g id="a_Node000001"><a xlink:title=" ">
<ellipse fill="#999999" stroke="#666666" cx="2876.93" cy="-123.5" rx="111.02" ry="35.89"/>
<text xml:space="preserve" text-anchor="start" x="2806.43" y="-133.48" font-family="Helvetica,sans-Serif" font-size="12.00">java/com/runehive/game</text>
<text xml:space="preserve" text-anchor="start" x="2806.43" y="-119.23" font-family="Helvetica,sans-Serif" font-size="12.00">/world/entity/combat/magic</text>
<text xml:space="preserve" text-anchor="middle" x="2876.93" y="-104.98" font-family="Helvetica,sans-Serif" font-size="12.00">/MagicImpact.java</text>
</a>
</g>
</g>
<!-- Node2 -->
<g id="Node000002" class="node">
<title>Node2</title>
<g id="a_Node000002"><a xlink:title=" ">
<ellipse fill="#e0e0e0" stroke="#999999" cx="161.93" cy="-25.81" rx="161.93" ry="25.81"/>
<text xml:space="preserve" text-anchor="start" x="55.43" y="-28.66" font-family="Helvetica,sans-Serif" font-size="12.00">com.runehive.game.world.entity.combat.</text>
<text xml:space="preserve" text-anchor="middle" x="161.93" y="-14.41" font-family="Helvetica,sans-Serif" font-size="12.00">CombatImpact</text>
</a>
</g>
</g>
<!-- Node1&#45;&gt;Node2 -->
<g id="edge1_Node000001_Node000002" class="edge">
<title>Node1&#45;&gt;Node2</title>
<g id="a_edge1_Node000001_Node000002"><a xlink:title=" ">
<path fill="none" stroke="#63b8ff" d="M2765.99,-121.13C2340.97,-115.6 816.05,-93.25 332.93,-51.62 317.26,-50.27 300.85,-48.43 284.64,-46.36"/>
<polygon fill="#63b8ff" stroke="#63b8ff" points="285.34,-42.93 274.97,-45.1 284.43,-49.87 285.34,-42.93"/>
</a>
</g>
</g>
<!-- Node3 -->
<g id="Node000003" class="node">
<title>Node3</title>
<g id="a_Node000003"><a xlink:title=" ">
<ellipse fill="#e0e0e0" stroke="#999999" cx="503.93" cy="-25.81" rx="161.93" ry="25.81"/>
<text xml:space="preserve" text-anchor="start" x="397.43" y="-28.66" font-family="Helvetica,sans-Serif" font-size="12.00">com.runehive.game.world.entity.combat.</text>
<text xml:space="preserve" text-anchor="middle" x="503.93" y="-14.41" font-family="Helvetica,sans-Serif" font-size="12.00">CombatType</text>
</a>
</g>
</g>
<!-- Node1&#45;&gt;Node3 -->
<g id="edge2_Node000001_Node000003" class="edge">
<title>Node1&#45;&gt;Node3</title>
<g id="a_edge2_Node000001_Node000003"><a xlink:title=" ">
<path fill="none" stroke="#63b8ff" d="M2765.96,-120.58C2378.59,-113.59 1087.6,-88.08 674.93,-51.62 659.27,-50.24 642.85,-48.38 626.65,-46.3"/>
<polygon fill="#63b8ff" stroke="#63b8ff" points="627.35,-42.86 616.98,-45.03 626.43,-49.8 627.35,-42.86"/>
</a>
</g>
</g>
<!-- Node4 -->
<g id="Node000004" class="node">
<title>Node4</title>
<g id="a_Node000004"><a xlink:title=" ">
<ellipse fill="#e0e0e0" stroke="#999999" cx="845.93" cy="-25.81" rx="161.93" ry="25.81"/>
<text xml:space="preserve" text-anchor="start" x="739.43" y="-28.66" font-family="Helvetica,sans-Serif" font-size="12.00">com.runehive.game.world.entity.combat.</text>
<text xml:space="preserve" text-anchor="middle" x="845.93" y="-14.41" font-family="Helvetica,sans-Serif" font-size="12.00">CombatUtil</text>
</a>
</g>
</g>
<!-- Node1&#45;&gt;Node4 -->
<g id="edge3_Node000001_Node000004" class="edge">
<title>Node1&#45;&gt;Node4</title>
<g id="a_edge3_Node000001_Node000004"><a xlink:title=" ">
<path fill="none" stroke="#63b8ff" d="M2765.55,-122.37C2476.39,-121.13 1678.25,-112.02 1016.93,-51.62 1001.39,-50.2 985.11,-48.33 969.03,-46.26"/>
<polygon fill="#63b8ff" stroke="#63b8ff" points="969.82,-42.83 959.45,-44.99 968.9,-49.77 969.82,-42.83"/>
</a>
</g>
</g>
<!-- Node5 -->
<g id="Node000005" class="node">
<title>Node5</title>
<g id="a_Node000005"><a xlink:title=" ">
<ellipse fill="#e0e0e0" stroke="#999999" cx="1187.93" cy="-25.81" rx="161.93" ry="25.81"/>
<text xml:space="preserve" text-anchor="start" x="1081.43" y="-28.66" font-family="Helvetica,sans-Serif" font-size="12.00">com.runehive.game.world.entity.combat.</text>
<text xml:space="preserve" text-anchor="middle" x="1187.93" y="-14.41" font-family="Helvetica,sans-Serif" font-size="12.00">PoisonType</text>
</a>
</g>
</g>
<!-- Node1&#45;&gt;Node5 -->
<g id="edge4_Node000001_Node000005" class="edge">
<title>Node1&#45;&gt;Node5</title>
<g id="a_edge4_Node000001_Node000005"><a xlink:title=" ">
<path fill="none" stroke="#63b8ff" d="M2765.72,-121.02C2514.45,-116.85 1883.86,-101.83 1358.93,-51.62 1343.52,-50.14 1327.38,-48.26 1311.42,-46.18"/>
<polygon fill="#63b8ff" stroke="#63b8ff" points="1312.29,-42.77 1301.92,-44.92 1311.37,-49.71 1312.29,-42.77"/>
</a>
</g>
</g>
<!-- Node6 -->
<g id="Node000006" class="node">
<title>Node6</title>
<g id="a_Node000006"><a xlink:title=" ">
<ellipse fill="#e0e0e0" stroke="#999999" cx="1553.93" cy="-25.81" rx="186.32" ry="25.81"/>
<text xml:space="preserve" text-anchor="start" x="1430.18" y="-28.66" font-family="Helvetica,sans-Serif" font-size="12.00">com.runehive.game.world.entity.combat.attack.</text>
<text xml:space="preserve" text-anchor="middle" x="1553.93" y="-14.41" font-family="Helvetica,sans-Serif" font-size="12.00">FormulaFactory</text>
</a>
</g>
</g>
<!-- Node1&#45;&gt;Node6 -->
<g id="edge5_Node000001_Node000006" class="edge">
<title>Node1&#45;&gt;Node6</title>
<g id="a_edge5_Node000001_Node000006"><a xlink:title=" ">
<path fill="none" stroke="#63b8ff" d="M2766.76,-117.89C2564.84,-108.91 2121.98,-86.83 1749.93,-51.62 1732.47,-49.97 1714.16,-47.98 1696.04,-45.87"/>
<polygon fill="#63b8ff" stroke="#63b8ff" points="1696.64,-42.42 1686.3,-44.72 1695.82,-49.37 1696.64,-42.42"/>
</a>
</g>
</g>
<!-- Node7 -->
<g id="Node000007" class="node">
<title>Node7</title>
<g id="a_Node000007"><a xlink:title=" ">
<ellipse fill="#e0e0e0" stroke="#999999" cx="1942.93" cy="-25.81" rx="184.2" ry="25.81"/>
<text xml:space="preserve" text-anchor="start" x="1820.68" y="-28.66" font-family="Helvetica,sans-Serif" font-size="12.00">com.runehive.game.world.entity.combat.effect.</text>
<text xml:space="preserve" text-anchor="middle" x="1942.93" y="-14.41" font-family="Helvetica,sans-Serif" font-size="12.00">CombatEffectType</text>
</a>
</g>
</g>
<!-- Node1&#45;&gt;Node7 -->
<g id="edge6_Node000001_Node000007" class="edge">
<title>Node1&#45;&gt;Node7</title>
<g id="a_edge6_Node000001_Node000007"><a xlink:title=" ">
<path fill="none" stroke="#63b8ff" d="M2770.06,-113.38C2625.93,-100.82 2361.32,-76.88 2135.93,-51.62 2119.54,-49.78 2102.39,-47.74 2085.35,-45.65"/>
<polygon fill="#63b8ff" stroke="#63b8ff" points="2086.05,-42.21 2075.69,-44.45 2085.18,-49.15 2086.05,-42.21"/>
</a>
</g>
</g>
<!-- Node8 -->
<g id="Node000008" class="node">
<title>Node8</title>
<g id="a_Node000008"><a xlink:title=" ">
<ellipse fill="#e0e0e0" stroke="#999999" cx="2317.93" cy="-25.81" rx="173.06" ry="25.81"/>
<text xml:space="preserve" text-anchor="start" x="2203.55" y="-28.66" font-family="Helvetica,sans-Serif" font-size="12.00">com.runehive.game.world.entity.combat.hit.</text>
<text xml:space="preserve" text-anchor="middle" x="2317.93" y="-14.41" font-family="Helvetica,sans-Serif" font-size="12.00">CombatHit</text>
</a>
</g>
</g>
<!-- Node1&#45;&gt;Node8 -->
<g id="edge7_Node000001_Node000008" class="edge">
<title>Node1&#45;&gt;Node8</title>
<g id="a_edge7_Node000001_Node000008"><a xlink:title=" ">
<path fill="none" stroke="#63b8ff" d="M2779.56,-105.84C2685.49,-89.73 2542.67,-65.28 2440.82,-47.85"/>
<polygon fill="#63b8ff" stroke="#63b8ff" points="2441.48,-44.41 2431.03,-46.17 2440.3,-51.31 2441.48,-44.41"/>
</a>
</g>
</g>
<!-- Node9 -->
<g id="Node000009" class="node">
<title>Node9</title>
<g id="a_Node000009"><a xlink:title=" ">
<ellipse fill="#e0e0e0" stroke="#999999" cx="2692.93" cy="-25.81" rx="183.67" ry="15.73"/>
<text xml:space="preserve" text-anchor="middle" x="2692.93" y="-21.53" font-family="Helvetica,sans-Serif" font-size="12.00">com.runehive.game.world.entity.combat.hit.Hit</text>
</a>
</g>
</g>
<!-- Node1&#45;&gt;Node9 -->
<g id="edge8_Node000001_Node000009" class="edge">
<title>Node1&#45;&gt;Node9</title>
<g id="a_edge8_Node000001_Node000009"><a xlink:title=" ">
<path fill="none" stroke="#63b8ff" d="M2819.21,-92.49C2790.68,-77.65 2757.02,-60.14 2731.63,-46.94"/>
<polygon fill="#63b8ff" stroke="#63b8ff" points="2733.47,-43.95 2722.98,-42.44 2730.24,-50.16 2733.47,-43.95"/>
</a>
</g>
</g>
<!-- Node10 -->
<g id="Node000010" class="node">
<title>Node10</title>
<g id="a_Node000010"><a xlink:title=" ">
<ellipse fill="#e0e0e0" stroke="#999999" cx="3061.93" cy="-25.81" rx="167.23" ry="15.73"/>
<text xml:space="preserve" text-anchor="middle" x="3061.93" y="-21.53" font-family="Helvetica,sans-Serif" font-size="12.00">com.runehive.game.world.entity.mob.Mob</text>
</a>
</g>
</g>
<!-- Node1&#45;&gt;Node10 -->
<g id="edge9_Node000001_Node000010" class="edge">
<title>Node1&#45;&gt;Node10</title>
<g id="a_edge9_Node000001_Node000010"><a xlink:title=" ">
<path fill="none" stroke="#63b8ff" d="M2934.96,-92.49C2963.64,-77.65 2997.49,-60.14 3023.02,-46.94"/>
<polygon fill="#63b8ff" stroke="#63b8ff" points="3024.44,-50.14 3031.72,-42.44 3021.23,-43.92 3024.44,-50.14"/>
</a>
</g>
</g>
<!-- Node11 -->
<g id="Node000011" class="node">
<title>Node11</title>
<g id="a_Node000011"><a xlink:title=" ">
<ellipse fill="#e0e0e0" stroke="#999999" cx="3416.93" cy="-25.81" rx="169.35" ry="25.81"/>
<text xml:space="preserve" text-anchor="start" x="3305.18" y="-28.66" font-family="Helvetica,sans-Serif" font-size="12.00">com.runehive.game.world.entity.mob.data.</text>
<text xml:space="preserve" text-anchor="middle" x="3416.93" y="-14.41" font-family="Helvetica,sans-Serif" font-size="12.00">LockType</text>
</a>
</g>
</g>
<!-- Node1&#45;&gt;Node11 -->
<g id="edge10_Node000001_Node000011" class="edge">
<title>Node1&#45;&gt;Node11</title>
<g id="a_edge10_Node000001_Node000011"><a xlink:title=" ">
<path fill="none" stroke="#63b8ff" d="M2973.47,-105.4C3064.17,-89.32 3200.15,-65.22 3297.61,-47.95"/>
<polygon fill="#63b8ff" stroke="#63b8ff" points="3297.98,-51.44 3307.21,-46.25 3296.76,-44.55 3297.98,-51.44"/>
</a>
</g>
</g>
<!-- Node12 -->
<g id="Node000012" class="node">
<title>Node12</title>
<g id="a_Node000012"><a xlink:title=" ">
<ellipse fill="#e0e0e0" stroke="#999999" cx="3785.93" cy="-25.81" rx="182.08" ry="15.73"/>
<text xml:space="preserve" text-anchor="middle" x="3785.93" y="-21.53" font-family="Helvetica,sans-Serif" font-size="12.00">com.runehive.game.world.entity.mob.npc.Npc</text>
</a>
</g>
</g>
<!-- Node1&#45;&gt;Node12 -->
<g id="edge11_Node000001_Node000012" class="edge">
<title>Node1&#45;&gt;Node12</title>
<g id="a_edge11_Node000001_Node000012"><a xlink:title=" ">
<path fill="none" stroke="#63b8ff" d="M2983.48,-113.02C3123.78,-100.29 3378.08,-76.4 3594.93,-51.62 3622.52,-48.47 3652.31,-44.75 3679.98,-41.16"/>
<polygon fill="#63b8ff" stroke="#63b8ff" points="3680.31,-44.65 3689.78,-39.88 3679.41,-37.71 3680.31,-44.65"/>
</a>
</g>
</g>
<!-- Node13 -->
<g id="Node000013" class="node">
<title>Node13</title>
<g id="a_Node000013"><a xlink:title=" ">
<ellipse fill="#e0e0e0" stroke="#999999" cx="4161.93" cy="-25.81" rx="175.72" ry="25.81"/>
<text xml:space="preserve" text-anchor="start" x="4045.68" y="-28.66" font-family="Helvetica,sans-Serif" font-size="12.00">com.runehive.game.world.entity.mob.player.</text>
<text xml:space="preserve" text-anchor="middle" x="4161.93" y="-14.41" font-family="Helvetica,sans-Serif" font-size="12.00">Player</text>
</a>
</g>
</g>
<!-- Node1&#45;&gt;Node13 -->
<g id="edge12_Node000001_Node000013" class="edge">
<title>Node1&#45;&gt;Node13</title>
<g id="a_edge12_Node000001_Node000013"><a xlink:title=" ">
<path fill="none" stroke="#63b8ff" d="M2986.81,-117.94C3185,-109.14 3615.34,-87.47 3976.93,-51.62 3993.33,-49.99 4010.51,-48.03 4027.53,-45.94"/>
<polygon fill="#63b8ff" stroke="#63b8ff" points="4027.68,-49.45 4037.17,-44.73 4026.81,-42.5 4027.68,-49.45"/>
</a>
</g>
</g>
<!-- Node14 -->
<g id="Node000014" class="node">
<title>Node14</title>
<g id="a_Node000014"><a xlink:title=" ">
<ellipse fill="#e0e0e0" stroke="#999999" cx="4504.93" cy="-25.81" rx="149.2" ry="25.81"/>
<text xml:space="preserve" text-anchor="start" x="4407.43" y="-28.66" font-family="Helvetica,sans-Serif" font-size="12.00">com.runehive.game.world.entity.skill.</text>
<text xml:space="preserve" text-anchor="middle" x="4504.93" y="-14.41" font-family="Helvetica,sans-Serif" font-size="12.00">Skill</text>
</a>
</g>
</g>
<!-- Node1&#45;&gt;Node14 -->
<g id="edge13_Node000001_Node000014" class="edge">
<title>Node1&#45;&gt;Node14</title>
<g id="a_edge13_Node000001_Node000014"><a xlink:title=" ">
<path fill="none" stroke="#63b8ff" d="M2987.88,-121.22C3233.42,-117.5 3841.11,-103.37 4346.93,-51.62 4361.01,-50.18 4375.76,-48.33 4390.34,-46.28"/>
<polygon fill="#63b8ff" stroke="#63b8ff" points="4390.55,-49.79 4399.95,-44.9 4389.55,-42.86 4390.55,-49.79"/>
</a>
</g>
</g>
<!-- Node15 -->
<g id="Node000015" class="node">
<title>Node15</title>
<g id="a_Node000015"><a xlink:title=" ">
<ellipse fill="#e0e0e0" stroke="#999999" cx="4781.93" cy="-25.81" rx="109.96" ry="25.81"/>
<text xml:space="preserve" text-anchor="start" x="4712.18" y="-28.66" font-family="Helvetica,sans-Serif" font-size="12.00">com.runehive.util.Random</text>
<text xml:space="preserve" text-anchor="middle" x="4781.93" y="-14.41" font-family="Helvetica,sans-Serif" font-size="12.00">Utils</text>
</a>
</g>
</g>
<!-- Node1&#45;&gt;Node15 -->
<g id="edge14_Node000001_Node000015" class="edge">
<title>Node1&#45;&gt;Node15</title>
<g id="a_edge14_Node000001_Node000015"><a xlink:title=" ">
<path fill="none" stroke="#63b8ff" d="M2987.84,-120.51C3325.29,-114.07 4336.37,-91.86 4662.93,-51.62 4673.08,-50.37 4683.65,-48.7 4694.12,-46.82"/>
<polygon fill="#63b8ff" stroke="#63b8ff" points="4694.75,-50.27 4703.93,-44.99 4693.46,-43.38 4694.75,-50.27"/>
</a>
</g>
</g>
<!-- Node16 -->
<g id="Node000016" class="node">
<title>Node16</title>
<g id="a_Node000016"><a xlink:title=" ">
<ellipse fill="#e0e0e0" stroke="#999999" cx="4965.93" cy="-25.81" rx="55.86" ry="15.73"/>
<text xml:space="preserve" text-anchor="middle" x="4965.93" y="-21.53" font-family="Helvetica,sans-Serif" font-size="12.00">java.util.List</text>
</a>
</g>
</g>
<!-- Node1&#45;&gt;Node16 -->
<g id="edge15_Node000001_Node000016" class="edge">
<title>Node1&#45;&gt;Node16</title>
<g id="a_edge15_Node000001_Node000016"><a xlink:title=" ">
<path fill="none" stroke="#63b8ff" d="M2988.12,-120.75C3384.33,-114.19 4713.6,-89.56 4900.93,-51.62 4909.75,-49.83 4918.95,-46.98 4927.55,-43.84"/>
<polygon fill="#63b8ff" stroke="#63b8ff" points="4928.59,-47.19 4936.64,-40.31 4926.06,-40.67 4928.59,-47.19"/>
</a>
</g>
</g>
<!-- Node17 -->
<g id="Node000017" class="node">
<title>Node17</title>
<g id="a_Node000017"><a xlink:title=" ">
<ellipse fill="#e0e0e0" stroke="#999999" cx="5157.93" cy="-25.81" rx="118.44" ry="15.73"/>
<text xml:space="preserve" text-anchor="middle" x="5157.93" y="-21.53" font-family="Helvetica,sans-Serif" font-size="12.00">java.util.concurrent.TimeUnit</text>
</a>
</g>
</g>
<!-- Node1&#45;&gt;Node17 -->
<g id="edge16_Node000001_Node000017" class="edge">
<title>Node1&#45;&gt;Node17</title>
<g id="a_edge16_Node000001_Node000017"><a xlink:title=" ">
<path fill="none" stroke="#63b8ff" d="M2988.18,-121.2C3370.53,-116.33 4629.17,-97.17 5030.93,-51.62 5050.06,-49.45 5070.61,-45.95 5089.49,-42.26"/>
<polygon fill="#63b8ff" stroke="#63b8ff" points="5090.1,-45.71 5099.21,-40.31 5088.72,-38.84 5090.1,-45.71"/>
</a>
</g>
</g>
</g>
</svg>

<g id="navigator" transform="translate(0 0)" fill="#404254">
  <rect fill="#f2f5e9" fill-opacity="0.5" stroke="#606060" stroke-width=".5" x="0" y="0" width="60" height="60"/>
  <use id="zoomplus" xlink:href="#zoomPlus" x="17" y="9" onmousedown="handleZoom(evt,'in')"/>
  <use id="zoomminus" xlink:href="#zoomMin" x="42" y="9" onmousedown="handleZoom(evt,'out')"/>
  <use id="reset" xlink:href="#resetDef" x="30" y="36" onmousedown="handleReset()"/>
   <use id="arrowup" xlink:href="#arrowUp" x="0" y="0" onmousedown="handlePan(0,-1)"/>
  <use id="arrowright" xlink:href="#arrowRight" x="0" y="0" onmousedown="handlePan(1,0)"/>
  <use id="arrowdown" xlink:href="#arrowDown" x="0" y="0" onmousedown="handlePan(0,1)"/>
  <use id="arrowleft" xlink:href="#arrowLeft" x="0" y="0" onmousedown="handlePan(-1,0)"/>
</g>
<svg viewBox="0 0 15 15" width="100%" height="30px" preserveAspectRatio="xMaxYMin meet">
 <g id="arrow_out" transform="scale(0.3 0.3)">
  <a xlink:href="_magic_impact_8java__incl_org.svg" target="_base">
   <rect id="button" ry="5" rx="5" y="6" x="6" height="38" width="38"
        fill="#f2f5e9" fill-opacity="0.5" stroke="#606060" stroke-width="1.0"/>
   <path id="arrow"
     d="M 11.500037,31.436501 C 11.940474,20.09759 22.043105,11.32322 32.158766,21.979434 L 37.068811,17.246167 C 37.068811,17.246167 37.088388,32 37.088388,32 L 22.160133,31.978069 C 22.160133,31.978069 26.997745,27.140456 26.997745,27.140456 C 18.528582,18.264221 13.291696,25.230495 11.500037,31.436501 z"
     style="fill:#404040;"/>
  </a>
 </g>
</svg>

<style type='text/css'>
<![CDATA[
[data-mouse-over-selected='false'] { opacity: 0.7; }
[data-mouse-over-selected='true']  { opacity: 1.0; }
]]>
</style>
<script type="application/ecmascript"><![CDATA[
document.addEventListener('DOMContentLoaded', (event) => {
  highlightEdges();
  highlightAdjacentNodes();
});
]]></script>
</svg>
