<?xml version="1.0" encoding="UTF-8" standalone="no"?>
<!DOCTYPE svg PUBLIC "-//W3C//DTD SVG 1.1//EN"
 "http://www.w3.org/Graphics/SVG/1.1/DTD/svg11.dtd">
<!-- Generated by graphviz version 14.0.1 (20251006.0113)
 -->
<!-- Title: java/com/runehive/fs/cache/decoder/MapDefinitionDecoder.java Pages: 1 -->
<svg width="1442pt" height="167pt"
 viewBox="0.00 0.00 1442.00 167.00" xmlns="http://www.w3.org/2000/svg" xmlns:xlink="http://www.w3.org/1999/xlink">
<g id="graph0" class="graph" transform="scale(1 1) rotate(0) translate(4 163.39)">
<title>java/com/runehive/fs/cache/decoder/MapDefinitionDecoder.java</title>
<!-- Node1 -->
<g id="Node000001" class="node">
<title>Node1</title>
<g id="a_Node000001"><a xlink:title=" ">
<ellipse fill="#999999" stroke="#666666" cx="782.08" cy="-123.5" rx="123.74" ry="35.89"/>
<text xml:space="preserve" text-anchor="start" x="702.58" y="-133.48" font-family="Helvetica,sans-Serif" font-size="12.00">java/com/runehive/fs</text>
<text xml:space="preserve" text-anchor="start" x="702.58" y="-119.23" font-family="Helvetica,sans-Serif" font-size="12.00">/cache/decoder/MapDefinition</text>
<text xml:space="preserve" text-anchor="middle" x="782.08" y="-104.98" font-family="Helvetica,sans-Serif" font-size="12.00">Decoder.java</text>
</a>
</g>
</g>
<!-- Node2 -->
<g id="Node000002" class="node">
<title>Node2</title>
<g id="a_Node000002"><a xlink:title=" ">
<ellipse fill="#e0e0e0" stroke="#999999" cx="112.08" cy="-25.81" rx="112.08" ry="25.81"/>
<text xml:space="preserve" text-anchor="start" x="40.83" y="-28.66" font-family="Helvetica,sans-Serif" font-size="12.00">com.runehive.fs.cache.File</text>
<text xml:space="preserve" text-anchor="middle" x="112.08" y="-14.41" font-family="Helvetica,sans-Serif" font-size="12.00">System</text>
</a>
</g>
</g>
<!-- Node1&#45;&gt;Node2 -->
<g id="edge1_Node000001_Node000002" class="edge">
<title>Node1&#45;&gt;Node2</title>
<g id="a_edge1_Node000001_Node000002"><a xlink:title=" ">
<path fill="none" stroke="#63b8ff" d="M666.79,-110.04C555.65,-97.44 382.89,-76.34 234.08,-51.62 224.21,-49.98 213.93,-48.12 203.7,-46.18"/>
<polygon fill="#63b8ff" stroke="#63b8ff" points="204.61,-42.79 194.13,-44.33 203.28,-49.67 204.61,-42.79"/>
</a>
</g>
</g>
<!-- Node3 -->
<g id="Node000003" class="node">
<title>Node3</title>
<g id="a_Node000003"><a xlink:title=" ">
<ellipse fill="#e0e0e0" stroke="#999999" cx="370.08" cy="-25.81" rx="127.46" ry="25.81"/>
<text xml:space="preserve" text-anchor="start" x="287.95" y="-28.66" font-family="Helvetica,sans-Serif" font-size="12.00">com.runehive.fs.cache.archive.</text>
<text xml:space="preserve" text-anchor="middle" x="370.08" y="-14.41" font-family="Helvetica,sans-Serif" font-size="12.00">Archive</text>
</a>
</g>
</g>
<!-- Node1&#45;&gt;Node3 -->
<g id="edge2_Node000001_Node000003" class="edge">
<title>Node1&#45;&gt;Node3</title>
<g id="a_edge2_Node000001_Node000003"><a xlink:title=" ">
<path fill="none" stroke="#63b8ff" d="M686.52,-100.31C619.3,-84.7 529.82,-63.91 463.16,-48.43"/>
<polygon fill="#63b8ff" stroke="#63b8ff" points="464.25,-45.09 453.72,-46.24 462.67,-51.91 464.25,-45.09"/>
</a>
</g>
</g>
<!-- Node4 -->
<g id="Node000004" class="node">
<title>Node4</title>
<g id="a_Node000004"><a xlink:title=" ">
<ellipse fill="#e0e0e0" stroke="#999999" cx="652.08" cy="-25.81" rx="136.47" ry="25.81"/>
<text xml:space="preserve" text-anchor="start" x="563.58" y="-28.66" font-family="Helvetica,sans-Serif" font-size="12.00">com.runehive.game.world.region.</text>
<text xml:space="preserve" text-anchor="middle" x="652.08" y="-14.41" font-family="Helvetica,sans-Serif" font-size="12.00">RegionDefinition</text>
</a>
</g>
</g>
<!-- Node1&#45;&gt;Node4 -->
<g id="edge3_Node000001_Node000004" class="edge">
<title>Node1&#45;&gt;Node4</title>
<g id="a_edge3_Node000001_Node000004"><a xlink:title=" ">
<path fill="none" stroke="#63b8ff" d="M737.34,-89.57C723.37,-79.29 708.02,-67.99 694.24,-57.85"/>
<polygon fill="#63b8ff" stroke="#63b8ff" points="696.34,-55.04 686.21,-51.93 692.19,-60.68 696.34,-55.04"/>
</a>
</g>
</g>
<!-- Node5 -->
<g id="Node000005" class="node">
<title>Node5</title>
<g id="a_Node000005"><a xlink:title=" ">
<ellipse fill="#e0e0e0" stroke="#999999" cx="913.08" cy="-25.81" rx="106.77" ry="25.81"/>
<text xml:space="preserve" text-anchor="start" x="845.58" y="-28.66" font-family="Helvetica,sans-Serif" font-size="12.00">org.apache.logging.log4j.</text>
<text xml:space="preserve" text-anchor="middle" x="913.08" y="-14.41" font-family="Helvetica,sans-Serif" font-size="12.00">LogManager</text>
</a>
</g>
</g>
<!-- Node1&#45;&gt;Node5 -->
<g id="edge4_Node000001_Node000005" class="edge">
<title>Node1&#45;&gt;Node5</title>
<g id="a_edge4_Node000001_Node000005"><a xlink:title=" ">
<path fill="none" stroke="#63b8ff" d="M826.79,-89.84C841.26,-79.27 857.24,-67.59 871.48,-57.2"/>
<polygon fill="#63b8ff" stroke="#63b8ff" points="873.32,-60.19 879.33,-51.46 869.19,-54.54 873.32,-60.19"/>
</a>
</g>
</g>
<!-- Node6 -->
<g id="Node000006" class="node">
<title>Node6</title>
<g id="a_Node000006"><a xlink:title=" ">
<ellipse fill="#e0e0e0" stroke="#999999" cx="1145.08" cy="-25.81" rx="106.77" ry="25.81"/>
<text xml:space="preserve" text-anchor="start" x="1077.58" y="-28.66" font-family="Helvetica,sans-Serif" font-size="12.00">org.apache.logging.log4j.</text>
<text xml:space="preserve" text-anchor="middle" x="1145.08" y="-14.41" font-family="Helvetica,sans-Serif" font-size="12.00">Logger</text>
</a>
</g>
</g>
<!-- Node1&#45;&gt;Node6 -->
<g id="edge5_Node000001_Node000006" class="edge">
<title>Node1&#45;&gt;Node6</title>
<g id="a_edge5_Node000001_Node000006"><a xlink:title=" ">
<path fill="none" stroke="#63b8ff" d="M872.27,-98.73C930.74,-83.31 1006.29,-63.4 1063.06,-48.43"/>
<polygon fill="#63b8ff" stroke="#63b8ff" points="1063.91,-51.83 1072.69,-45.89 1062.13,-45.06 1063.91,-51.83"/>
</a>
</g>
</g>
<!-- Node7 -->
<g id="Node000007" class="node">
<title>Node7</title>
<g id="a_Node000007"><a xlink:title=" ">
<ellipse fill="#e0e0e0" stroke="#999999" cx="1352.08" cy="-25.81" rx="82.38" ry="15.73"/>
<text xml:space="preserve" text-anchor="middle" x="1352.08" y="-21.53" font-family="Helvetica,sans-Serif" font-size="12.00">java.nio.ByteBuffer</text>
</a>
</g>
</g>
<!-- Node1&#45;&gt;Node7 -->
<g id="edge6_Node000001_Node000007" class="edge">
<title>Node1&#45;&gt;Node7</title>
<g id="a_edge6_Node000001_Node000007"><a xlink:title=" ">
<path fill="none" stroke="#63b8ff" d="M896.47,-109.47C993.94,-97.44 1137.45,-77.52 1261.08,-51.62 1273.22,-49.07 1286.16,-45.86 1298.34,-42.6"/>
<polygon fill="#63b8ff" stroke="#63b8ff" points="1299.1,-46.02 1307.82,-40.01 1297.25,-39.27 1299.1,-46.02"/>
</a>
</g>
</g>
</g>
</svg>
