<?xml version="1.0" encoding="UTF-8" standalone="no"?>
<!DOCTYPE svg PUBLIC "-//W3C//DTD SVG 1.1//EN"
 "http://www.w3.org/Graphics/SVG/1.1/DTD/svg11.dtd">
<!-- Generated by graphviz version 14.0.1 (20251006.0113)
 -->
<!-- Title: java/com/runehive/game/world/entity/combat/accuracy/MeleeAccuracy.java Pages: 1 -->
<svg width="1997pt" height="167pt"
 viewBox="0.00 0.00 1997.00 167.00" xmlns="http://www.w3.org/2000/svg" xmlns:xlink="http://www.w3.org/1999/xlink">
<g id="graph0" class="graph" transform="scale(1 1) rotate(0) translate(4 163.39)">
<title>java/com/runehive/game/world/entity/combat/accuracy/MeleeAccuracy.java</title>
<!-- Node1 -->
<g id="Node000001" class="node">
<title>Node1</title>
<g id="a_Node000001"><a xlink:title=" ">
<ellipse fill="#999999" stroke="#666666" cx="1054.93" cy="-123.5" rx="122.15" ry="35.89"/>
<text xml:space="preserve" text-anchor="start" x="976.55" y="-133.48" font-family="Helvetica,sans-Serif" font-size="12.00">java/com/runehive/game</text>
<text xml:space="preserve" text-anchor="start" x="976.55" y="-119.23" font-family="Helvetica,sans-Serif" font-size="12.00">/world/entity/combat/accuracy</text>
<text xml:space="preserve" text-anchor="middle" x="1054.93" y="-104.98" font-family="Helvetica,sans-Serif" font-size="12.00">/MeleeAccuracy.java</text>
</a>
</g>
</g>
<!-- Node2 -->
<g id="Node000002" class="node">
<title>Node2</title>
<g id="a_Node000002"><a xlink:title=" ">
<ellipse fill="#e0e0e0" stroke="#999999" cx="161.93" cy="-25.81" rx="161.93" ry="25.81"/>
<text xml:space="preserve" text-anchor="start" x="55.43" y="-28.66" font-family="Helvetica,sans-Serif" font-size="12.00">com.runehive.game.world.entity.combat.</text>
<text xml:space="preserve" text-anchor="middle" x="161.93" y="-14.41" font-family="Helvetica,sans-Serif" font-size="12.00">FormulaUtils</text>
</a>
</g>
</g>
<!-- Node1&#45;&gt;Node2 -->
<g id="edge1_Node000001_Node000002" class="edge">
<title>Node1&#45;&gt;Node2</title>
<g id="a_edge1_Node000001_Node000002"><a xlink:title=" ">
<path fill="none" stroke="#63b8ff" d="M938.14,-112.71C795.22,-100.34 545.95,-77.51 332.93,-51.62 318.57,-49.87 303.56,-47.91 288.64,-45.86"/>
<polygon fill="#63b8ff" stroke="#63b8ff" points="289.15,-42.4 278.77,-44.49 288.19,-49.33 289.15,-42.4"/>
</a>
</g>
</g>
<!-- Node3 -->
<g id="Node000003" class="node">
<title>Node3</title>
<g id="a_Node000003"><a xlink:title=" ">
<ellipse fill="#e0e0e0" stroke="#999999" cx="508.93" cy="-25.81" rx="167.23" ry="15.73"/>
<text xml:space="preserve" text-anchor="middle" x="508.93" y="-21.53" font-family="Helvetica,sans-Serif" font-size="12.00">com.runehive.game.world.entity.mob.Mob</text>
</a>
</g>
</g>
<!-- Node1&#45;&gt;Node3 -->
<g id="edge2_Node000001_Node000003" class="edge">
<title>Node1&#45;&gt;Node3</title>
<g id="a_edge2_Node000001_Node000003"><a xlink:title=" ">
<path fill="none" stroke="#63b8ff" d="M950.94,-104.28C848.26,-86.28 692.99,-59.07 596.44,-42.15"/>
<polygon fill="#63b8ff" stroke="#63b8ff" points="597.2,-38.73 586.75,-40.45 595.99,-45.62 597.2,-38.73"/>
</a>
</g>
</g>
<!-- Node4 -->
<g id="Node000004" class="node">
<title>Node4</title>
<g id="a_Node000004"><a xlink:title=" ">
<ellipse fill="#e0e0e0" stroke="#999999" cx="869.93" cy="-25.81" rx="175.72" ry="25.81"/>
<text xml:space="preserve" text-anchor="start" x="753.68" y="-28.66" font-family="Helvetica,sans-Serif" font-size="12.00">com.runehive.game.world.entity.mob.player.</text>
<text xml:space="preserve" text-anchor="middle" x="869.93" y="-14.41" font-family="Helvetica,sans-Serif" font-size="12.00">Player</text>
</a>
</g>
</g>
<!-- Node1&#45;&gt;Node4 -->
<g id="edge3_Node000001_Node000004" class="edge">
<title>Node1&#45;&gt;Node4</title>
<g id="a_edge3_Node000001_Node000004"><a xlink:title=" ">
<path fill="none" stroke="#63b8ff" d="M995.37,-91.7C973.4,-80.33 948.57,-67.49 926.83,-56.24"/>
<polygon fill="#63b8ff" stroke="#63b8ff" points="928.6,-53.22 918.11,-51.73 925.38,-59.43 928.6,-53.22"/>
</a>
</g>
</g>
<!-- Node5 -->
<g id="Node000005" class="node">
<title>Node5</title>
<g id="a_Node000005"><a xlink:title=" ">
<ellipse fill="#e0e0e0" stroke="#999999" cx="1239.93" cy="-25.81" rx="176.25" ry="25.81"/>
<text xml:space="preserve" text-anchor="start" x="1123.3" y="-28.66" font-family="Helvetica,sans-Serif" font-size="12.00">com.runehive.game.world.entity.mob.prayer.</text>
<text xml:space="preserve" text-anchor="middle" x="1239.93" y="-14.41" font-family="Helvetica,sans-Serif" font-size="12.00">Prayer</text>
</a>
</g>
</g>
<!-- Node1&#45;&gt;Node5 -->
<g id="edge4_Node000001_Node000005" class="edge">
<title>Node1&#45;&gt;Node5</title>
<g id="a_edge4_Node000001_Node000005"><a xlink:title=" ">
<path fill="none" stroke="#63b8ff" d="M1114.48,-91.7C1136.46,-80.33 1161.29,-67.49 1183.02,-56.24"/>
<polygon fill="#63b8ff" stroke="#63b8ff" points="1184.47,-59.43 1191.75,-51.73 1181.26,-53.22 1184.47,-59.43"/>
</a>
</g>
</g>
<!-- Node6 -->
<g id="Node000006" class="node">
<title>Node6</title>
<g id="a_Node000006"><a xlink:title=" ">
<ellipse fill="#e0e0e0" stroke="#999999" cx="1582.93" cy="-25.81" rx="149.2" ry="25.81"/>
<text xml:space="preserve" text-anchor="start" x="1485.43" y="-28.66" font-family="Helvetica,sans-Serif" font-size="12.00">com.runehive.game.world.entity.skill.</text>
<text xml:space="preserve" text-anchor="middle" x="1582.93" y="-14.41" font-family="Helvetica,sans-Serif" font-size="12.00">Skill</text>
</a>
</g>
</g>
<!-- Node1&#45;&gt;Node6 -->
<g id="edge5_Node000001_Node000006" class="edge">
<title>Node1&#45;&gt;Node6</title>
<g id="a_edge5_Node000001_Node000006"><a xlink:title=" ">
<path fill="none" stroke="#63b8ff" d="M1157.98,-103.83C1247.96,-87.52 1378.27,-63.9 1470.83,-47.13"/>
<polygon fill="#63b8ff" stroke="#63b8ff" points="1471.22,-50.61 1480.43,-45.39 1469.97,-43.72 1471.22,-50.61"/>
</a>
</g>
</g>
<!-- Node7 -->
<g id="Node000007" class="node">
<title>Node7</title>
<g id="a_Node000007"><a xlink:title=" ">
<ellipse fill="#e0e0e0" stroke="#999999" cx="1869.93" cy="-25.81" rx="119.5" ry="15.73"/>
<text xml:space="preserve" text-anchor="middle" x="1869.93" y="-21.53" font-family="Helvetica,sans-Serif" font-size="12.00">java.security.SecureRandom</text>
</a>
</g>
</g>
<!-- Node1&#45;&gt;Node7 -->
<g id="edge6_Node000001_Node000007" class="edge">
<title>Node1&#45;&gt;Node7</title>
<g id="a_edge6_Node000001_Node000007"><a xlink:title=" ">
<path fill="none" stroke="#63b8ff" d="M1172.76,-113.47C1309.72,-102.24 1542.38,-80.91 1740.93,-51.62 1759.33,-48.9 1779.1,-45.4 1797.5,-41.89"/>
<polygon fill="#63b8ff" stroke="#63b8ff" points="1798.12,-45.33 1807.27,-39.99 1796.79,-38.46 1798.12,-45.33"/>
</a>
</g>
</g>
</g>
</svg>
