<?xml version="1.0" encoding="UTF-8" standalone="no"?>
<!DOCTYPE svg PUBLIC "-//W3C//DTD SVG 1.1//EN"
 "http://www.w3.org/Graphics/SVG/1.1/DTD/svg11.dtd">
<!-- Generated by graphviz version 14.0.1 (20251006.0113)
 -->
<!-- Title: java/com/runehive/game/world/entity/combat/strategy/npc/NpcRangedStrategy.java Pages: 1 -->
<!--zoomable 167 -->

<svg id="main" version="1.1" xmlns="http://www.w3.org/2000/svg" xmlns:xlink="http://www.w3.org/1999/xlink" xml:space="preserve" onload="init(evt)">

<style type="text/css"><![CDATA[
.node, .edge {opacity: 0.7;}
.node.selected, .edge.selected {opacity: 1;}
.edge:hover path { stroke: red; }
.edge:hover polygon { stroke: red; fill: red; }
]]></style>

<defs>
  <circle id="rim" cx="0" cy="0" r="7"/>
  <circle id="rim2" cx="0" cy="0" r="3.5"/>
  <g id="zoomPlus">
    <use xlink:href="#rim" fill="#404040"><set attributeName="fill" to="#808080" begin="zoomplus.mouseover" end="zoomplus.mouseout"/></use>
    <path d="M-4,0h8M0,-4v8" fill="none" stroke="white" stroke-width="1.5" pointer-events="none"/>
  </g>
  <g id="zoomMin">
    <use xlink:href="#rim" fill="#404040"><set attributeName="fill" to="#808080" begin="zoomminus.mouseover" end="zoomminus.mouseout"/></use>
    <path d="M-4,0h8" fill="none" stroke="white" stroke-width="1.5" pointer-events="none"/>
  </g>
  <g id="arrowUp" transform="translate(30 24)">
    <use xlink:href="#rim"/>
    <path pointer-events="none" fill="none" stroke="white" stroke-width="1.5" d="M0,-3.0v7 M-2.5,-0.5L0,-3.0L2.5,-0.5"/>
  </g>
  <g id="arrowRight" transform="rotate(90) translate(36 -43)">
    <use xlink:href="#rim"/>
    <path pointer-events="none" fill="none" stroke="white" stroke-width="1.5" d="M0,-3.0v7 M-2.5,-0.5L0,-3.0L2.5,-0.5"/>
  </g>
  <g id="arrowDown" transform="rotate(180) translate(-30 -48)">
    <use xlink:href="#rim"/>
    <path pointer-events="none" fill="none" stroke="white" stroke-width="1.5" d="M0,-3.0v7 M-2.5,-0.5L0,-3.0L2.5,-0.5"/>
  </g>
  <g id="arrowLeft" transform="rotate(270) translate(-36 17)">
    <use xlink:href="#rim"/>
    <path pointer-events="none" fill="none" stroke="white" stroke-width="1.5" d="M0,-3.0v7 M-2.5,-0.5L0,-3.0L2.5,-0.5"/>
  </g>
  <g id="resetDef">
    <use xlink:href="#rim2" fill="#404040"><set attributeName="fill" to="#808080" begin="reset.mouseover" end="reset.mouseout"/></use>
  </g>
</defs>
<script type="application/ecmascript">
var viewWidth = 7055;
var viewHeight = 167;
var sectionId = 'dynsection-0';
</script>
<script type="application/ecmascript" xlink:href="svg.min.js"/>
<svg id="graph" class="graph">
<g id="viewport">
<title>java/com/runehive/game/world/entity/combat/strategy/npc/NpcRangedStrategy.java</title>
<!-- Node1 -->
<g id="Node000001" class="node">
<title>Node1</title>
<g id="a_Node000001"><a xlink:title=" ">
<ellipse fill="#999999" stroke="#666666" cx="3690.87" cy="-123.5" rx="123.74" ry="35.89"/>
<text xml:space="preserve" text-anchor="start" x="3611.37" y="-133.48" font-family="Helvetica,sans-Serif" font-size="12.00">java/com/runehive/game</text>
<text xml:space="preserve" text-anchor="start" x="3611.37" y="-119.23" font-family="Helvetica,sans-Serif" font-size="12.00">/world/entity/combat/strategy</text>
<text xml:space="preserve" text-anchor="middle" x="3690.87" y="-104.98" font-family="Helvetica,sans-Serif" font-size="12.00">/npc/NpcRangedStrategy.java</text>
</a>
</g>
</g>
<!-- Node2 -->
<g id="Node000002" class="node">
<title>Node2</title>
<g id="a_Node000002"><a xlink:title=" ">
<ellipse fill="#e0e0e0" stroke="#999999" cx="125.87" cy="-25.81" rx="125.87" ry="15.73"/>
<text xml:space="preserve" text-anchor="middle" x="125.87" y="-21.53" font-family="Helvetica,sans-Serif" font-size="12.00">com.runehive.game.Animation</text>
</a>
</g>
</g>
<!-- Node1&#45;&gt;Node2 -->
<g id="edge1_Node000001_Node000002" class="edge">
<title>Node1&#45;&gt;Node2</title>
<g id="a_edge1_Node000001_Node000002"><a xlink:title=" ">
<path fill="none" stroke="#63b8ff" d="M3567.06,-122.62C3032.72,-122.7 921.39,-118.7 260.87,-51.62 240.06,-49.51 217.66,-45.93 197.2,-42.13"/>
<polygon fill="#63b8ff" stroke="#63b8ff" points="198.01,-38.73 187.54,-40.3 196.71,-45.6 198.01,-38.73"/>
</a>
</g>
</g>
<!-- Node3 -->
<g id="Node000003" class="node">
<title>Node3</title>
<g id="a_Node000003"><a xlink:title=" ">
<ellipse fill="#e0e0e0" stroke="#999999" cx="386.87" cy="-25.81" rx="117.38" ry="15.73"/>
<text xml:space="preserve" text-anchor="middle" x="386.87" y="-21.53" font-family="Helvetica,sans-Serif" font-size="12.00">com.runehive.game.Graphic</text>
</a>
</g>
</g>
<!-- Node1&#45;&gt;Node3 -->
<g id="edge2_Node000001_Node000003" class="edge">
<title>Node1&#45;&gt;Node3</title>
<g id="a_edge2_Node000001_Node000003"><a xlink:title=" ">
<path fill="none" stroke="#63b8ff" d="M3566.85,-122.57C3057.09,-122.38 1121.51,-117.26 513.87,-51.62 494.45,-49.52 473.57,-45.99 454.47,-42.23"/>
<polygon fill="#63b8ff" stroke="#63b8ff" points="455.43,-38.86 444.93,-40.31 454.04,-45.72 455.43,-38.86"/>
</a>
</g>
</g>
<!-- Node4 -->
<g id="Node000004" class="node">
<title>Node4</title>
<g id="a_Node000004"><a xlink:title=" ">
<ellipse fill="#e0e0e0" stroke="#999999" cx="637.87" cy="-25.81" rx="115.26" ry="25.81"/>
<text xml:space="preserve" text-anchor="start" x="564.37" y="-28.66" font-family="Helvetica,sans-Serif" font-size="12.00">com.runehive.game.Update</text>
<text xml:space="preserve" text-anchor="middle" x="637.87" y="-14.41" font-family="Helvetica,sans-Serif" font-size="12.00">Priority</text>
</a>
</g>
</g>
<!-- Node1&#45;&gt;Node4 -->
<g id="edge3_Node000001_Node000004" class="edge">
<title>Node1&#45;&gt;Node4</title>
<g id="a_edge3_Node000001_Node000004"><a xlink:title=" ">
<path fill="none" stroke="#63b8ff" d="M3566.79,-122.37C3082.41,-121.38 1318.11,-113.52 761.87,-51.62 751.06,-50.42 739.8,-48.75 728.67,-46.85"/>
<polygon fill="#63b8ff" stroke="#63b8ff" points="729.54,-43.45 719.08,-45.14 728.31,-50.34 729.54,-43.45"/>
</a>
</g>
</g>
<!-- Node5 -->
<g id="Node000005" class="node">
<title>Node5</title>
<g id="a_Node000005"><a xlink:title=" ">
<ellipse fill="#e0e0e0" stroke="#999999" cx="886.87" cy="-25.81" rx="115.79" ry="25.81"/>
<text xml:space="preserve" text-anchor="start" x="812.99" y="-28.66" font-family="Helvetica,sans-Serif" font-size="12.00">com.runehive.game.engine.</text>
<text xml:space="preserve" text-anchor="middle" x="886.87" y="-14.41" font-family="Helvetica,sans-Serif" font-size="12.00">GameEngine</text>
</a>
</g>
</g>
<!-- Node1&#45;&gt;Node5 -->
<g id="edge4_Node000001_Node000005" class="edge">
<title>Node1&#45;&gt;Node5</title>
<g id="a_edge4_Node000001_Node000005"><a xlink:title=" ">
<path fill="none" stroke="#63b8ff" d="M3566.99,-122.01C3109.66,-119.77 1516.74,-107.99 1011.87,-51.62 1000.9,-50.39 989.46,-48.71 978.15,-46.78"/>
<polygon fill="#63b8ff" stroke="#63b8ff" points="978.85,-43.35 968.4,-45.05 977.63,-50.24 978.85,-43.35"/>
</a>
</g>
</g>
<!-- Node6 -->
<g id="Node000006" class="node">
<title>Node6</title>
<g id="a_Node000006"><a xlink:title=" ">
<ellipse fill="#e0e0e0" stroke="#999999" cx="1182.87" cy="-25.81" rx="161.93" ry="25.81"/>
<text xml:space="preserve" text-anchor="start" x="1076.37" y="-28.66" font-family="Helvetica,sans-Serif" font-size="12.00">com.runehive.game.world.entity.combat.</text>
<text xml:space="preserve" text-anchor="middle" x="1182.87" y="-14.41" font-family="Helvetica,sans-Serif" font-size="12.00">CombatImpact</text>
</a>
</g>
</g>
<!-- Node1&#45;&gt;Node6 -->
<g id="edge5_Node000001_Node000006" class="edge">
<title>Node1&#45;&gt;Node6</title>
<g id="a_edge5_Node000001_Node000006"><a xlink:title=" ">
<path fill="none" stroke="#63b8ff" d="M3567.34,-120.62C3149.35,-113.93 1789.83,-89.73 1353.87,-51.62 1338.2,-50.25 1321.79,-48.4 1305.58,-46.33"/>
<polygon fill="#63b8ff" stroke="#63b8ff" points="1306.28,-42.89 1295.91,-45.06 1305.37,-49.83 1306.28,-42.89"/>
</a>
</g>
</g>
<!-- Node7 -->
<g id="Node000007" class="node">
<title>Node7</title>
<g id="a_Node000007"><a xlink:title=" ">
<ellipse fill="#e0e0e0" stroke="#999999" cx="1524.87" cy="-25.81" rx="161.93" ry="25.81"/>
<text xml:space="preserve" text-anchor="start" x="1418.37" y="-28.66" font-family="Helvetica,sans-Serif" font-size="12.00">com.runehive.game.world.entity.combat.</text>
<text xml:space="preserve" text-anchor="middle" x="1524.87" y="-14.41" font-family="Helvetica,sans-Serif" font-size="12.00">CombatType</text>
</a>
</g>
</g>
<!-- Node1&#45;&gt;Node7 -->
<g id="edge6_Node000001_Node000007" class="edge">
<title>Node1&#45;&gt;Node7</title>
<g id="a_edge6_Node000001_Node000007"><a xlink:title=" ">
<path fill="none" stroke="#63b8ff" d="M3566.84,-122.77C3252.94,-122.42 2401.75,-115.18 1695.87,-51.62 1680.33,-50.22 1664.05,-48.37 1647.97,-46.3"/>
<polygon fill="#63b8ff" stroke="#63b8ff" points="1648.75,-42.87 1638.38,-45.03 1647.84,-49.81 1648.75,-42.87"/>
</a>
</g>
</g>
<!-- Node8 -->
<g id="Node000008" class="node">
<title>Node8</title>
<g id="a_Node000008"><a xlink:title=" ">
<ellipse fill="#e0e0e0" stroke="#999999" cx="1890.87" cy="-25.81" rx="186.32" ry="25.81"/>
<text xml:space="preserve" text-anchor="start" x="1767.12" y="-28.66" font-family="Helvetica,sans-Serif" font-size="12.00">com.runehive.game.world.entity.combat.attack.</text>
<text xml:space="preserve" text-anchor="middle" x="1890.87" y="-14.41" font-family="Helvetica,sans-Serif" font-size="12.00">FightType</text>
</a>
</g>
</g>
<!-- Node1&#45;&gt;Node8 -->
<g id="edge7_Node000001_Node000008" class="edge">
<title>Node1&#45;&gt;Node8</title>
<g id="a_edge7_Node000001_Node000008"><a xlink:title=" ">
<path fill="none" stroke="#63b8ff" d="M3567.13,-120.48C3297.65,-115.32 2637.65,-98.57 2086.87,-51.62 2068.95,-50.09 2050.16,-48.15 2031.59,-46.03"/>
<polygon fill="#63b8ff" stroke="#63b8ff" points="2032.23,-42.58 2021.89,-44.9 2031.42,-49.53 2032.23,-42.58"/>
</a>
</g>
</g>
<!-- Node9 -->
<g id="Node000009" class="node">
<title>Node9</title>
<g id="a_Node000009"><a xlink:title=" ">
<ellipse fill="#e0e0e0" stroke="#999999" cx="2281.87" cy="-25.81" rx="186.32" ry="25.81"/>
<text xml:space="preserve" text-anchor="start" x="2158.12" y="-28.66" font-family="Helvetica,sans-Serif" font-size="12.00">com.runehive.game.world.entity.combat.attack.</text>
<text xml:space="preserve" text-anchor="middle" x="2281.87" y="-14.41" font-family="Helvetica,sans-Serif" font-size="12.00">FormulaFactory</text>
</a>
</g>
</g>
<!-- Node1&#45;&gt;Node9 -->
<g id="edge8_Node000001_Node000009" class="edge">
<title>Node1&#45;&gt;Node9</title>
<g id="a_edge8_Node000001_Node000009"><a xlink:title=" ">
<path fill="none" stroke="#63b8ff" d="M3568.42,-118.09C3349.33,-109.57 2875.92,-88.4 2477.87,-51.62 2460.33,-50 2441.94,-48.03 2423.75,-45.92"/>
<polygon fill="#63b8ff" stroke="#63b8ff" points="2424.31,-42.46 2413.97,-44.76 2423.49,-49.41 2424.31,-42.46"/>
</a>
</g>
</g>
<!-- Node10 -->
<g id="Node000010" class="node">
<title>Node10</title>
<g id="a_Node000010"><a xlink:title=" ">
<ellipse fill="#e0e0e0" stroke="#999999" cx="2688.87" cy="-25.81" rx="202.23" ry="25.81"/>
<text xml:space="preserve" text-anchor="start" x="2553.87" y="-28.66" font-family="Helvetica,sans-Serif" font-size="12.00">com.runehive.game.world.entity.combat.effect.impl.</text>
<text xml:space="preserve" text-anchor="middle" x="2688.87" y="-14.41" font-family="Helvetica,sans-Serif" font-size="12.00">CombatPoisonEffect</text>
</a>
</g>
</g>
<!-- Node1&#45;&gt;Node10 -->
<g id="edge9_Node000001_Node000010" class="edge">
<title>Node1&#45;&gt;Node10</title>
<g id="a_edge9_Node000001_Node000010"><a xlink:title=" ">
<path fill="none" stroke="#63b8ff" d="M3572.17,-112.9C3417.36,-100.13 3138.15,-76.3 2899.87,-51.62 2881.85,-49.75 2862.99,-47.69 2844.27,-45.58"/>
<polygon fill="#63b8ff" stroke="#63b8ff" points="2844.79,-42.11 2834.46,-44.46 2844,-49.07 2844.79,-42.11"/>
</a>
</g>
</g>
<!-- Node11 -->
<g id="Node000011" class="node">
<title>Node11</title>
<g id="a_Node000011"><a xlink:title=" ">
<ellipse fill="#e0e0e0" stroke="#999999" cx="3110.87" cy="-25.81" rx="202.23" ry="25.81"/>
<text xml:space="preserve" text-anchor="start" x="2975.87" y="-28.66" font-family="Helvetica,sans-Serif" font-size="12.00">com.runehive.game.world.entity.combat.effect.impl.</text>
<text xml:space="preserve" text-anchor="middle" x="3110.87" y="-14.41" font-family="Helvetica,sans-Serif" font-size="12.00">CombatVenomEffect</text>
</a>
</g>
</g>
<!-- Node1&#45;&gt;Node11 -->
<g id="edge10_Node000001_Node000011" class="edge">
<title>Node1&#45;&gt;Node11</title>
<g id="a_edge10_Node000001_Node000011"><a xlink:title=" ">
<path fill="none" stroke="#63b8ff" d="M3584.15,-104.9C3488.1,-89.05 3346.61,-65.71 3243.36,-48.67"/>
<polygon fill="#63b8ff" stroke="#63b8ff" points="3244.16,-45.25 3233.72,-47.08 3243.02,-52.16 3244.16,-45.25"/>
</a>
</g>
</g>
<!-- Node12 -->
<g id="Node000012" class="node">
<title>Node12</title>
<g id="a_Node000012"><a xlink:title=" ">
<ellipse fill="#e0e0e0" stroke="#999999" cx="3503.87" cy="-25.81" rx="173.06" ry="25.81"/>
<text xml:space="preserve" text-anchor="start" x="3389.49" y="-28.66" font-family="Helvetica,sans-Serif" font-size="12.00">com.runehive.game.world.entity.combat.hit.</text>
<text xml:space="preserve" text-anchor="middle" x="3503.87" y="-14.41" font-family="Helvetica,sans-Serif" font-size="12.00">CombatHit</text>
</a>
</g>
</g>
<!-- Node1&#45;&gt;Node12 -->
<g id="edge11_Node000001_Node000012" class="edge">
<title>Node1&#45;&gt;Node12</title>
<g id="a_edge11_Node000001_Node000012"><a xlink:title=" ">
<path fill="none" stroke="#63b8ff" d="M3630.67,-91.7C3608.45,-80.33 3583.36,-67.49 3561.39,-56.24"/>
<polygon fill="#63b8ff" stroke="#63b8ff" points="3563.05,-53.16 3552.55,-51.73 3559.86,-59.4 3563.05,-53.16"/>
</a>
</g>
</g>
<!-- Node13 -->
<g id="Node000013" class="node">
<title>Node13</title>
<g id="a_Node000013"><a xlink:title=" ">
<ellipse fill="#e0e0e0" stroke="#999999" cx="3878.87" cy="-25.81" rx="183.67" ry="15.73"/>
<text xml:space="preserve" text-anchor="middle" x="3878.87" y="-21.53" font-family="Helvetica,sans-Serif" font-size="12.00">com.runehive.game.world.entity.combat.hit.Hit</text>
</a>
</g>
</g>
<!-- Node1&#45;&gt;Node13 -->
<g id="edge12_Node000001_Node000013" class="edge">
<title>Node1&#45;&gt;Node13</title>
<g id="a_edge12_Node000001_Node000013"><a xlink:title=" ">
<path fill="none" stroke="#63b8ff" d="M3751.13,-91.83C3780.01,-77.13 3813.8,-59.93 3839.36,-46.92"/>
<polygon fill="#63b8ff" stroke="#63b8ff" points="3840.76,-50.13 3848.08,-42.48 3837.58,-43.9 3840.76,-50.13"/>
</a>
</g>
</g>
<!-- Node14 -->
<g id="Node000014" class="node">
<title>Node14</title>
<g id="a_Node000014"><a xlink:title=" ">
<ellipse fill="#e0e0e0" stroke="#999999" cx="4278.87" cy="-25.81" rx="198.52" ry="25.81"/>
<text xml:space="preserve" text-anchor="start" x="4146.49" y="-28.66" font-family="Helvetica,sans-Serif" font-size="12.00">com.runehive.game.world.entity.combat.projectile.</text>
<text xml:space="preserve" text-anchor="middle" x="4278.87" y="-14.41" font-family="Helvetica,sans-Serif" font-size="12.00">CombatProjectile</text>
</a>
</g>
</g>
<!-- Node1&#45;&gt;Node14 -->
<g id="edge13_Node000001_Node000014" class="edge">
<title>Node1&#45;&gt;Node14</title>
<g id="a_edge13_Node000001_Node000014"><a xlink:title=" ">
<path fill="none" stroke="#63b8ff" d="M3797.69,-105.12C3895.52,-89.2 4040.7,-65.57 4145.98,-48.44"/>
<polygon fill="#63b8ff" stroke="#63b8ff" points="4146.53,-51.89 4155.83,-46.83 4145.4,-44.98 4146.53,-51.89"/>
</a>
</g>
</g>
<!-- Node15 -->
<g id="Node000015" class="node">
<title>Node15</title>
<g id="a_Node000015"><a xlink:title=" ">
<ellipse fill="#e0e0e0" stroke="#999999" cx="4710.87" cy="-25.81" rx="215.49" ry="25.81"/>
<text xml:space="preserve" text-anchor="start" x="4566.49" y="-28.66" font-family="Helvetica,sans-Serif" font-size="12.00">com.runehive.game.world.entity.combat.strategy.basic.</text>
<text xml:space="preserve" text-anchor="middle" x="4710.87" y="-14.41" font-family="Helvetica,sans-Serif" font-size="12.00">RangedStrategy</text>
</a>
</g>
</g>
<!-- Node1&#45;&gt;Node15 -->
<g id="edge14_Node000001_Node000015" class="edge">
<title>Node1&#45;&gt;Node15</title>
<g id="a_edge14_Node000001_Node000015"><a xlink:title=" ">
<path fill="none" stroke="#63b8ff" d="M3809.28,-112.76C3964.84,-99.77 4246.48,-75.63 4486.87,-51.62 4505.99,-49.71 4526.03,-47.62 4545.92,-45.49"/>
<polygon fill="#63b8ff" stroke="#63b8ff" points="4546.21,-48.97 4555.77,-44.42 4545.46,-42.01 4546.21,-48.97"/>
</a>
</g>
</g>
<!-- Node16 -->
<g id="Node000016" class="node">
<title>Node16</title>
<g id="a_Node000016"><a xlink:title=" ">
<ellipse fill="#e0e0e0" stroke="#999999" cx="5111.87" cy="-25.81" rx="167.23" ry="15.73"/>
<text xml:space="preserve" text-anchor="middle" x="5111.87" y="-21.53" font-family="Helvetica,sans-Serif" font-size="12.00">com.runehive.game.world.entity.mob.Mob</text>
</a>
</g>
</g>
<!-- Node1&#45;&gt;Node16 -->
<g id="edge15_Node000001_Node000016" class="edge">
<title>Node1&#45;&gt;Node16</title>
<g id="a_edge15_Node000001_Node000016"><a xlink:title=" ">
<path fill="none" stroke="#63b8ff" d="M3813.84,-118.85C4037.43,-111.47 4525.29,-91.92 4934.87,-51.62 4961.75,-48.97 4990.82,-45.26 5017.48,-41.51"/>
<polygon fill="#63b8ff" stroke="#63b8ff" points="5017.84,-44.99 5027.25,-40.11 5016.85,-38.06 5017.84,-44.99"/>
</a>
</g>
</g>
<!-- Node17 -->
<g id="Node000017" class="node">
<title>Node17</title>
<g id="a_Node000017"><a xlink:title=" ">
<ellipse fill="#e0e0e0" stroke="#999999" cx="5478.87" cy="-25.81" rx="182.08" ry="15.73"/>
<text xml:space="preserve" text-anchor="middle" x="5478.87" y="-21.53" font-family="Helvetica,sans-Serif" font-size="12.00">com.runehive.game.world.entity.mob.npc.Npc</text>
</a>
</g>
</g>
<!-- Node1&#45;&gt;Node17 -->
<g id="edge16_Node000001_Node000017" class="edge">
<title>Node1&#45;&gt;Node17</title>
<g id="a_edge16_Node000001_Node000017"><a xlink:title=" ">
<path fill="none" stroke="#63b8ff" d="M3814.58,-120.58C4083.23,-115.63 4739.9,-99.28 5287.87,-51.62 5317.55,-49.04 5349.71,-45.25 5379.03,-41.4"/>
<polygon fill="#63b8ff" stroke="#63b8ff" points="5379.17,-44.91 5388.62,-40.13 5378.25,-37.97 5379.17,-44.91"/>
</a>
</g>
</g>
<!-- Node18 -->
<g id="Node000018" class="node">
<title>Node18</title>
<g id="a_Node000018"><a xlink:title=" ">
<ellipse fill="#e0e0e0" stroke="#999999" cx="5788.87" cy="-25.81" rx="109.96" ry="25.81"/>
<text xml:space="preserve" text-anchor="start" x="5719.12" y="-28.66" font-family="Helvetica,sans-Serif" font-size="12.00">com.runehive.util.Random</text>
<text xml:space="preserve" text-anchor="middle" x="5788.87" y="-14.41" font-family="Helvetica,sans-Serif" font-size="12.00">Utils</text>
</a>
</g>
</g>
<!-- Node1&#45;&gt;Node18 -->
<g id="edge17_Node000001_Node000018" class="edge">
<title>Node1&#45;&gt;Node18</title>
<g id="a_edge17_Node000001_Node000018"><a xlink:title=" ">
<path fill="none" stroke="#63b8ff" d="M3814.76,-120.82C4189.64,-115.29 5308.3,-95.46 5669.87,-51.62 5680.02,-50.39 5690.59,-48.73 5701.07,-46.86"/>
<polygon fill="#63b8ff" stroke="#63b8ff" points="5701.69,-50.3 5710.88,-45.03 5700.41,-43.42 5701.69,-50.3"/>
</a>
</g>
</g>
<!-- Node19 -->
<g id="Node000019" class="node">
<title>Node19</title>
<g id="a_Node000019"><a xlink:title=" ">
<ellipse fill="#e0e0e0" stroke="#999999" cx="6039.87" cy="-25.81" rx="123.21" ry="15.73"/>
<text xml:space="preserve" text-anchor="middle" x="6039.87" y="-21.53" font-family="Helvetica,sans-Serif" font-size="12.00">org.jire.runehiveps.WorldTask</text>
</a>
</g>
</g>
<!-- Node1&#45;&gt;Node19 -->
<g id="edge18_Node000001_Node000019" class="edge">
<title>Node1&#45;&gt;Node19</title>
<g id="a_edge18_Node000001_Node000019"><a xlink:title=" ">
<path fill="none" stroke="#63b8ff" d="M3814.75,-121.05C4219.03,-115.92 5497.42,-96.48 5907.87,-51.62 5927.92,-49.43 5949.49,-45.88 5969.26,-42.15"/>
<polygon fill="#63b8ff" stroke="#63b8ff" points="5969.72,-45.63 5978.87,-40.29 5968.39,-38.76 5969.72,-45.63"/>
</a>
</g>
</g>
<!-- Node20 -->
<g id="Node000020" class="node">
<title>Node20</title>
<g id="a_Node000020"><a xlink:title=" ">
<ellipse fill="#e0e0e0" stroke="#999999" cx="6288.87" cy="-25.81" rx="107.3" ry="15.73"/>
<text xml:space="preserve" text-anchor="middle" x="6288.87" y="-21.53" font-family="Helvetica,sans-Serif" font-size="12.00">javax.annotation.Nullable</text>
</a>
</g>
</g>
<!-- Node1&#45;&gt;Node20 -->
<g id="edge19_Node000001_Node000020" class="edge">
<title>Node1&#45;&gt;Node20</title>
<g id="a_edge19_Node000001_Node000020"><a xlink:title=" ">
<path fill="none" stroke="#63b8ff" d="M3814.87,-121.92C4250.29,-119.41 5708.03,-106.96 6171.87,-51.62 6189.45,-49.52 6208.31,-46.06 6225.64,-42.39"/>
<polygon fill="#63b8ff" stroke="#63b8ff" points="6226.28,-45.83 6235.3,-40.28 6224.79,-39 6226.28,-45.83"/>
</a>
</g>
</g>
<!-- Node21 -->
<g id="Node000021" class="node">
<title>Node21</title>
<g id="a_Node000021"><a xlink:title=" ">
<ellipse fill="#e0e0e0" stroke="#999999" cx="6488.87" cy="-25.81" rx="74.42" ry="15.73"/>
<text xml:space="preserve" text-anchor="middle" x="6488.87" y="-21.53" font-family="Helvetica,sans-Serif" font-size="12.00">java.util.Optional</text>
</a>
</g>
</g>
<!-- Node1&#45;&gt;Node21 -->
<g id="edge20_Node000001_Node000021" class="edge">
<title>Node1&#45;&gt;Node21</title>
<g id="a_edge20_Node000001_Node000021"><a xlink:title=" ">
<path fill="none" stroke="#63b8ff" d="M3814.76,-121.17C4311.91,-115.56 6147.64,-92.25 6404.87,-51.62 6416.82,-49.73 6429.45,-46.62 6441.2,-43.23"/>
<polygon fill="#63b8ff" stroke="#63b8ff" points="6442.12,-46.61 6450.68,-40.36 6440.09,-39.91 6442.12,-46.61"/>
</a>
</g>
</g>
<!-- Node22 -->
<g id="Node000022" class="node">
<title>Node22</title>
<g id="a_Node000022"><a xlink:title=" ">
<ellipse fill="#e0e0e0" stroke="#999999" cx="6694.87" cy="-25.81" rx="113.67" ry="15.73"/>
<text xml:space="preserve" text-anchor="middle" x="6694.87" y="-21.53" font-family="Helvetica,sans-Serif" font-size="12.00">java.util.function.Consumer</text>
</a>
</g>
</g>
<!-- Node1&#45;&gt;Node22 -->
<g id="edge21_Node000001_Node000022" class="edge">
<title>Node1&#45;&gt;Node22</title>
<g id="a_edge21_Node000001_Node000022"><a xlink:title=" ">
<path fill="none" stroke="#63b8ff" d="M3814.94,-122.33C4294.29,-121.22 6025.57,-112.96 6571.87,-51.62 6590.51,-49.53 6610.53,-46.03 6628.89,-42.32"/>
<polygon fill="#63b8ff" stroke="#63b8ff" points="6629.52,-45.76 6638.6,-40.3 6628.1,-38.91 6629.52,-45.76"/>
</a>
</g>
</g>
<!-- Node23 -->
<g id="Node000023" class="node">
<title>Node23</title>
<g id="a_Node000023"><a xlink:title=" ">
<ellipse fill="#e0e0e0" stroke="#999999" cx="6936.87" cy="-25.81" rx="110.49" ry="15.73"/>
<text xml:space="preserve" text-anchor="middle" x="6936.87" y="-21.53" font-family="Helvetica,sans-Serif" font-size="12.00">java.util.function.Predicate</text>
</a>
</g>
</g>
<!-- Node1&#45;&gt;Node23 -->
<g id="edge22_Node000001_Node000023" class="edge">
<title>Node1&#45;&gt;Node23</title>
<g id="a_edge22_Node000001_Node000023"><a xlink:title=" ">
<path fill="none" stroke="#63b8ff" d="M3814.66,-122.72C4319.08,-123.14 6220.89,-120.03 6817.87,-51.62 6835.84,-49.56 6855.12,-46.1 6872.81,-42.4"/>
<polygon fill="#63b8ff" stroke="#63b8ff" points="6873.37,-45.86 6882.41,-40.34 6871.9,-39.02 6873.37,-45.86"/>
</a>
</g>
</g>
</g>
</svg>

<g id="navigator" transform="translate(0 0)" fill="#404254">
  <rect fill="#f2f5e9" fill-opacity="0.5" stroke="#606060" stroke-width=".5" x="0" y="0" width="60" height="60"/>
  <use id="zoomplus" xlink:href="#zoomPlus" x="17" y="9" onmousedown="handleZoom(evt,'in')"/>
  <use id="zoomminus" xlink:href="#zoomMin" x="42" y="9" onmousedown="handleZoom(evt,'out')"/>
  <use id="reset" xlink:href="#resetDef" x="30" y="36" onmousedown="handleReset()"/>
   <use id="arrowup" xlink:href="#arrowUp" x="0" y="0" onmousedown="handlePan(0,-1)"/>
  <use id="arrowright" xlink:href="#arrowRight" x="0" y="0" onmousedown="handlePan(1,0)"/>
  <use id="arrowdown" xlink:href="#arrowDown" x="0" y="0" onmousedown="handlePan(0,1)"/>
  <use id="arrowleft" xlink:href="#arrowLeft" x="0" y="0" onmousedown="handlePan(-1,0)"/>
</g>
<svg viewBox="0 0 15 15" width="100%" height="30px" preserveAspectRatio="xMaxYMin meet">
 <g id="arrow_out" transform="scale(0.3 0.3)">
  <a xlink:href="_npc_ranged_strategy_8java__incl_org.svg" target="_base">
   <rect id="button" ry="5" rx="5" y="6" x="6" height="38" width="38"
        fill="#f2f5e9" fill-opacity="0.5" stroke="#606060" stroke-width="1.0"/>
   <path id="arrow"
     d="M 11.500037,31.436501 C 11.940474,20.09759 22.043105,11.32322 32.158766,21.979434 L 37.068811,17.246167 C 37.068811,17.246167 37.088388,32 37.088388,32 L 22.160133,31.978069 C 22.160133,31.978069 26.997745,27.140456 26.997745,27.140456 C 18.528582,18.264221 13.291696,25.230495 11.500037,31.436501 z"
     style="fill:#404040;"/>
  </a>
 </g>
</svg>

<style type='text/css'>
<![CDATA[
[data-mouse-over-selected='false'] { opacity: 0.7; }
[data-mouse-over-selected='true']  { opacity: 1.0; }
]]>
</style>
<script type="application/ecmascript"><![CDATA[
document.addEventListener('DOMContentLoaded', (event) => {
  highlightEdges();
  highlightAdjacentNodes();
});
]]></script>
</svg>
