<?xml version="1.0" encoding="UTF-8" standalone="no"?>
<!DOCTYPE svg PUBLIC "-//W3C//DTD SVG 1.1//EN"
 "http://www.w3.org/Graphics/SVG/1.1/DTD/svg11.dtd">
<!-- Generated by graphviz version 14.0.1 (20251006.0113)
 -->
<!-- Title: java/com/runehive/content/pet/Pets.java Pages: 1 -->
<svg width="4693pt" height="147pt"
 viewBox="0.00 0.00 4693.00 147.00" xmlns="http://www.w3.org/2000/svg" xmlns:xlink="http://www.w3.org/1999/xlink">
<g id="graph0" class="graph" transform="scale(1 1) rotate(0) translate(4 143.24)">
<title>java/com/runehive/content/pet/Pets.java</title>
<!-- Node1 -->
<g id="Node000001" class="node">
<title>Node1</title>
<g id="a_Node000001"><a xlink:title=" ">
<ellipse fill="#999999" stroke="#666666" cx="2556.43" cy="-113.43" rx="109.96" ry="25.81"/>
<text xml:space="preserve" text-anchor="start" x="2486.68" y="-116.28" font-family="Helvetica,sans-Serif" font-size="12.00">java/com/runehive/content</text>
<text xml:space="preserve" text-anchor="middle" x="2556.43" y="-102.03" font-family="Helvetica,sans-Serif" font-size="12.00">/pet/Pets.java</text>
</a>
</g>
</g>
<!-- Node2 -->
<g id="Node000002" class="node">
<title>Node2</title>
<g id="a_Node000002"><a xlink:title=" ">
<ellipse fill="#e0e0e0" stroke="#999999" cx="144.43" cy="-25.81" rx="144.43" ry="25.81"/>
<text xml:space="preserve" text-anchor="start" x="50.3" y="-28.66" font-family="Helvetica,sans-Serif" font-size="12.00">com.runehive.content.achievement.</text>
<text xml:space="preserve" text-anchor="middle" x="144.43" y="-14.41" font-family="Helvetica,sans-Serif" font-size="12.00">AchievementHandler</text>
</a>
</g>
</g>
<!-- Node1&#45;&gt;Node2 -->
<g id="edge1_Node000001_Node000002" class="edge">
<title>Node1&#45;&gt;Node2</title>
<g id="a_edge1_Node000001_Node000002"><a xlink:title=" ">
<path fill="none" stroke="#63b8ff" d="M2446.37,-111.4C2053.75,-107.44 722.67,-91.33 298.43,-51.62 284.35,-50.3 269.62,-48.49 255.07,-46.44"/>
<polygon fill="#63b8ff" stroke="#63b8ff" points="255.9,-43.02 245.5,-45.05 254.89,-49.95 255.9,-43.02"/>
</a>
</g>
</g>
<!-- Node3 -->
<g id="Node000003" class="node">
<title>Node3</title>
<g id="a_Node000003"><a xlink:title=" ">
<ellipse fill="#e0e0e0" stroke="#999999" cx="451.43" cy="-25.81" rx="144.43" ry="25.81"/>
<text xml:space="preserve" text-anchor="start" x="357.3" y="-28.66" font-family="Helvetica,sans-Serif" font-size="12.00">com.runehive.content.achievement.</text>
<text xml:space="preserve" text-anchor="middle" x="451.43" y="-14.41" font-family="Helvetica,sans-Serif" font-size="12.00">AchievementKey</text>
</a>
</g>
</g>
<!-- Node1&#45;&gt;Node3 -->
<g id="edge2_Node000001_Node000003" class="edge">
<title>Node1&#45;&gt;Node3</title>
<g id="a_edge2_Node000001_Node000003"><a xlink:title=" ">
<path fill="none" stroke="#63b8ff" d="M2446.77,-110.88C2090.24,-105.57 966.07,-86.42 604.43,-51.62 590.69,-50.3 576.31,-48.51 562.11,-46.49"/>
<polygon fill="#63b8ff" stroke="#63b8ff" points="562.67,-43.04 552.27,-45.05 561.65,-49.96 562.67,-43.04"/>
</a>
</g>
</g>
<!-- Node4 -->
<g id="Node000004" class="node">
<title>Node4</title>
<g id="a_Node000004"><a xlink:title=" ">
<ellipse fill="#e0e0e0" stroke="#999999" cx="757.43" cy="-25.81" rx="143.9" ry="25.81"/>
<text xml:space="preserve" text-anchor="start" x="663.68" y="-28.66" font-family="Helvetica,sans-Serif" font-size="12.00">com.runehive.content.collectionlog.</text>
<text xml:space="preserve" text-anchor="middle" x="757.43" y="-14.41" font-family="Helvetica,sans-Serif" font-size="12.00">CollectionLog</text>
</a>
</g>
</g>
<!-- Node1&#45;&gt;Node4 -->
<g id="edge3_Node000001_Node000004" class="edge">
<title>Node1&#45;&gt;Node4</title>
<g id="a_edge3_Node000001_Node000004"><a xlink:title=" ">
<path fill="none" stroke="#63b8ff" d="M2446.31,-113.06C2181.19,-113.55 1486.67,-108.76 910.43,-51.62 896.8,-50.27 882.54,-48.47 868.44,-46.46"/>
<polygon fill="#63b8ff" stroke="#63b8ff" points="869.09,-43.02 858.69,-45.03 868.07,-49.95 869.09,-43.02"/>
</a>
</g>
</g>
<!-- Node5 -->
<g id="Node000005" class="node">
<title>Node5</title>
<g id="a_Node000005"><a xlink:title=" ">
<ellipse fill="#e0e0e0" stroke="#999999" cx="1063.43" cy="-25.81" rx="143.9" ry="25.81"/>
<text xml:space="preserve" text-anchor="start" x="969.68" y="-28.66" font-family="Helvetica,sans-Serif" font-size="12.00">com.runehive.content.collectionlog.</text>
<text xml:space="preserve" text-anchor="middle" x="1063.43" y="-14.41" font-family="Helvetica,sans-Serif" font-size="12.00">CollectionLogData</text>
</a>
</g>
</g>
<!-- Node1&#45;&gt;Node5 -->
<g id="edge4_Node000001_Node000005" class="edge">
<title>Node1&#45;&gt;Node5</title>
<g id="a_edge4_Node000001_Node000005"><a xlink:title=" ">
<path fill="none" stroke="#63b8ff" d="M2446.24,-111.72C2216.81,-109.31 1671.32,-98.66 1216.43,-51.62 1202.91,-50.22 1188.77,-48.41 1174.78,-46.4"/>
<polygon fill="#63b8ff" stroke="#63b8ff" points="1175.51,-42.97 1165.11,-44.97 1174.49,-49.9 1175.51,-42.97"/>
</a>
</g>
</g>
<!-- Node6 -->
<g id="Node000006" class="node">
<title>Node6</title>
<g id="a_Node000006"><a xlink:title=" ">
<ellipse fill="#e0e0e0" stroke="#999999" cx="1351.43" cy="-25.81" rx="125.87" ry="15.73"/>
<text xml:space="preserve" text-anchor="middle" x="1351.43" y="-21.53" font-family="Helvetica,sans-Serif" font-size="12.00">com.runehive.game.Animation</text>
</a>
</g>
</g>
<!-- Node1&#45;&gt;Node6 -->
<g id="edge5_Node000001_Node000006" class="edge">
<title>Node1&#45;&gt;Node6</title>
<g id="a_edge5_Node000001_Node000006"><a xlink:title=" ">
<path fill="none" stroke="#63b8ff" d="M2446.67,-110.71C2252.4,-106.66 1835.59,-93.46 1486.43,-51.62 1466.36,-49.21 1444.77,-45.68 1424.86,-42.03"/>
<polygon fill="#63b8ff" stroke="#63b8ff" points="1425.65,-38.61 1415.17,-40.21 1424.36,-45.49 1425.65,-38.61"/>
</a>
</g>
</g>
<!-- Node7 -->
<g id="Node000007" class="node">
<title>Node7</title>
<g id="a_Node000007"><a xlink:title=" ">
<ellipse fill="#e0e0e0" stroke="#999999" cx="1618.43" cy="-25.81" rx="122.68" ry="15.73"/>
<text xml:space="preserve" text-anchor="middle" x="1618.43" y="-21.53" font-family="Helvetica,sans-Serif" font-size="12.00">com.runehive.game.task.Task</text>
</a>
</g>
</g>
<!-- Node1&#45;&gt;Node7 -->
<g id="edge6_Node000001_Node000007" class="edge">
<title>Node1&#45;&gt;Node7</title>
<g id="a_edge6_Node000001_Node000007"><a xlink:title=" ">
<path fill="none" stroke="#63b8ff" d="M2448.48,-108.08C2293.48,-100.97 1999.13,-84.27 1750.43,-51.62 1731.1,-49.08 1710.32,-45.56 1691.1,-41.96"/>
<polygon fill="#63b8ff" stroke="#63b8ff" points="1691.95,-38.56 1681.47,-40.12 1690.64,-45.43 1691.95,-38.56"/>
</a>
</g>
</g>
<!-- Node8 -->
<g id="Node000008" class="node">
<title>Node8</title>
<g id="a_Node000008"><a xlink:title=" ">
<ellipse fill="#e0e0e0" stroke="#999999" cx="1869.43" cy="-25.81" rx="110.49" ry="25.81"/>
<text xml:space="preserve" text-anchor="start" x="1799.3" y="-28.66" font-family="Helvetica,sans-Serif" font-size="12.00">com.runehive.game.world.</text>
<text xml:space="preserve" text-anchor="middle" x="1869.43" y="-14.41" font-family="Helvetica,sans-Serif" font-size="12.00">World</text>
</a>
</g>
</g>
<!-- Node1&#45;&gt;Node8 -->
<g id="edge7_Node000001_Node000008" class="edge">
<title>Node1&#45;&gt;Node8</title>
<g id="a_edge7_Node000001_Node000008"><a xlink:title=" ">
<path fill="none" stroke="#63b8ff" d="M2452.83,-104.36C2338.85,-94.77 2150.45,-76.84 1989.43,-51.62 1979.73,-50.1 1969.63,-48.32 1959.59,-46.43"/>
<polygon fill="#63b8ff" stroke="#63b8ff" points="1960.27,-43 1949.79,-44.54 1958.94,-49.87 1960.27,-43"/>
</a>
</g>
</g>
<!-- Node9 -->
<g id="Node000009" class="node">
<title>Node9</title>
<g id="a_Node000009"><a xlink:title=" ">
<ellipse fill="#e0e0e0" stroke="#999999" cx="2180.43" cy="-25.81" rx="182.08" ry="15.73"/>
<text xml:space="preserve" text-anchor="middle" x="2180.43" y="-21.53" font-family="Helvetica,sans-Serif" font-size="12.00">com.runehive.game.world.entity.mob.npc.Npc</text>
</a>
</g>
</g>
<!-- Node1&#45;&gt;Node9 -->
<g id="edge8_Node000001_Node000009" class="edge">
<title>Node1&#45;&gt;Node9</title>
<g id="a_edge8_Node000001_Node000009"><a xlink:title=" ">
<path fill="none" stroke="#63b8ff" d="M2478.98,-94.79C2412.93,-79.75 2318.65,-58.28 2253.8,-43.52"/>
<polygon fill="#63b8ff" stroke="#63b8ff" points="2254.85,-40.17 2244.33,-41.36 2253.3,-46.99 2254.85,-40.17"/>
</a>
</g>
</g>
<!-- Node10 -->
<g id="Node000010" class="node">
<title>Node10</title>
<g id="a_Node000010"><a xlink:title=" ">
<ellipse fill="#e0e0e0" stroke="#999999" cx="2556.43" cy="-25.81" rx="175.72" ry="25.81"/>
<text xml:space="preserve" text-anchor="start" x="2440.18" y="-28.66" font-family="Helvetica,sans-Serif" font-size="12.00">com.runehive.game.world.entity.mob.player.</text>
<text xml:space="preserve" text-anchor="middle" x="2556.43" y="-14.41" font-family="Helvetica,sans-Serif" font-size="12.00">Player</text>
</a>
</g>
</g>
<!-- Node1&#45;&gt;Node10 -->
<g id="edge9_Node000001_Node000010" class="edge">
<title>Node1&#45;&gt;Node10</title>
<g id="a_edge9_Node000001_Node000010"><a xlink:title=" ">
<path fill="none" stroke="#63b8ff" d="M2556.43,-87.2C2556.43,-79.71 2556.43,-71.35 2556.43,-63.3"/>
<polygon fill="#63b8ff" stroke="#63b8ff" points="2559.93,-63.37 2556.43,-53.37 2552.93,-63.37 2559.93,-63.37"/>
</a>
</g>
</g>
<!-- Node11 -->
<g id="Node000011" class="node">
<title>Node11</title>
<g id="a_Node000011"><a xlink:title=" ">
<ellipse fill="#e0e0e0" stroke="#999999" cx="2898.43" cy="-25.81" rx="148.67" ry="15.73"/>
<text xml:space="preserve" text-anchor="middle" x="2898.43" y="-21.53" font-family="Helvetica,sans-Serif" font-size="12.00">com.runehive.game.world.items.Item</text>
</a>
</g>
</g>
<!-- Node1&#45;&gt;Node11 -->
<g id="edge10_Node000001_Node000011" class="edge">
<title>Node1&#45;&gt;Node11</title>
<g id="a_edge10_Node000001_Node000011"><a xlink:title=" ">
<path fill="none" stroke="#63b8ff" d="M2630.21,-93.96C2690.08,-78.97 2773.74,-58.02 2831.64,-43.53"/>
<polygon fill="#63b8ff" stroke="#63b8ff" points="2832.18,-47 2841.03,-41.18 2830.48,-40.21 2832.18,-47"/>
</a>
</g>
</g>
<!-- Node12 -->
<g id="Node000012" class="node">
<title>Node12</title>
<g id="a_Node000012"><a xlink:title=" ">
<ellipse fill="#e0e0e0" stroke="#999999" cx="3207.43" cy="-25.81" rx="142.31" ry="25.81"/>
<text xml:space="preserve" text-anchor="start" x="3114.8" y="-28.66" font-family="Helvetica,sans-Serif" font-size="12.00">com.runehive.game.world.position.</text>
<text xml:space="preserve" text-anchor="middle" x="3207.43" y="-14.41" font-family="Helvetica,sans-Serif" font-size="12.00">Position</text>
</a>
</g>
</g>
<!-- Node1&#45;&gt;Node12 -->
<g id="edge11_Node000001_Node000012" class="edge">
<title>Node1&#45;&gt;Node12</title>
<g id="a_edge11_Node000001_Node000012"><a xlink:title=" ">
<path fill="none" stroke="#63b8ff" d="M2654.78,-101.7C2755.73,-90.39 2917.27,-71.5 3056.43,-51.62 3068.73,-49.86 3081.59,-47.92 3094.37,-45.91"/>
<polygon fill="#63b8ff" stroke="#63b8ff" points="3094.75,-49.4 3104.08,-44.38 3093.66,-42.48 3094.75,-49.4"/>
</a>
</g>
</g>
<!-- Node13 -->
<g id="Node000013" class="node">
<title>Node13</title>
<g id="a_Node000013"><a xlink:title=" ">
<ellipse fill="#e0e0e0" stroke="#999999" cx="3486.43" cy="-25.81" rx="118.97" ry="25.81"/>
<text xml:space="preserve" text-anchor="start" x="3410.3" y="-28.66" font-family="Helvetica,sans-Serif" font-size="12.00">com.runehive.net.packet.out.</text>
<text xml:space="preserve" text-anchor="middle" x="3486.43" y="-14.41" font-family="Helvetica,sans-Serif" font-size="12.00">SendMessage</text>
</a>
</g>
</g>
<!-- Node1&#45;&gt;Node13 -->
<g id="edge12_Node000001_Node000013" class="edge">
<title>Node1&#45;&gt;Node13</title>
<g id="a_edge12_Node000001_Node000013"><a xlink:title=" ">
<path fill="none" stroke="#63b8ff" d="M2664.51,-108.21C2818.94,-101.28 3111.4,-84.81 3358.43,-51.62 3369.19,-50.17 3380.43,-48.4 3391.57,-46.46"/>
<polygon fill="#63b8ff" stroke="#63b8ff" points="3391.93,-49.95 3401.17,-44.75 3390.71,-43.06 3391.93,-49.95"/>
</a>
</g>
</g>
<!-- Node14 -->
<g id="Node000014" class="node">
<title>Node14</title>
<g id="a_Node000014"><a xlink:title=" ">
<ellipse fill="#e0e0e0" stroke="#999999" cx="3742.43" cy="-25.81" rx="118.97" ry="25.81"/>
<text xml:space="preserve" text-anchor="start" x="3666.3" y="-28.66" font-family="Helvetica,sans-Serif" font-size="12.00">com.runehive.net.packet.out.</text>
<text xml:space="preserve" text-anchor="middle" x="3742.43" y="-14.41" font-family="Helvetica,sans-Serif" font-size="12.00">SendScrollbar</text>
</a>
</g>
</g>
<!-- Node1&#45;&gt;Node14 -->
<g id="edge13_Node000001_Node000014" class="edge">
<title>Node1&#45;&gt;Node14</title>
<g id="a_edge13_Node000001_Node000014"><a xlink:title=" ">
<path fill="none" stroke="#63b8ff" d="M2666.15,-110.96C2858.78,-107.3 3270.07,-94.69 3614.43,-51.62 3625.29,-50.26 3636.62,-48.53 3647.85,-46.61"/>
<polygon fill="#63b8ff" stroke="#63b8ff" points="3648.3,-50.09 3657.54,-44.91 3647.08,-43.2 3648.3,-50.09"/>
</a>
</g>
</g>
<!-- Node15 -->
<g id="Node000015" class="node">
<title>Node15</title>
<g id="a_Node000015"><a xlink:title=" ">
<ellipse fill="#e0e0e0" stroke="#999999" cx="3998.43" cy="-25.81" rx="118.97" ry="25.81"/>
<text xml:space="preserve" text-anchor="start" x="3922.3" y="-28.66" font-family="Helvetica,sans-Serif" font-size="12.00">com.runehive.net.packet.out.</text>
<text xml:space="preserve" text-anchor="middle" x="3998.43" y="-14.41" font-family="Helvetica,sans-Serif" font-size="12.00">SendString</text>
</a>
</g>
</g>
<!-- Node1&#45;&gt;Node15 -->
<g id="edge14_Node000001_Node000015" class="edge">
<title>Node1&#45;&gt;Node15</title>
<g id="a_edge14_Node000001_Node000015"><a xlink:title=" ">
<path fill="none" stroke="#63b8ff" d="M2666.76,-112.72C2893.21,-112.12 3426.55,-104.62 3870.43,-51.62 3881.38,-50.31 3892.81,-48.6 3904.13,-46.69"/>
<polygon fill="#63b8ff" stroke="#63b8ff" points="3904.65,-50.15 3913.9,-44.98 3903.44,-43.26 3904.65,-50.15"/>
</a>
</g>
</g>
<!-- Node16 -->
<g id="Node000016" class="node">
<title>Node16</title>
<g id="a_Node000016"><a xlink:title=" ">
<ellipse fill="#e0e0e0" stroke="#999999" cx="4247.43" cy="-25.81" rx="112.08" ry="25.81"/>
<text xml:space="preserve" text-anchor="start" x="4176.18" y="-28.66" font-family="Helvetica,sans-Serif" font-size="12.00">com.runehive.util.Message</text>
<text xml:space="preserve" text-anchor="middle" x="4247.43" y="-14.41" font-family="Helvetica,sans-Serif" font-size="12.00">Color</text>
</a>
</g>
</g>
<!-- Node1&#45;&gt;Node16 -->
<g id="edge15_Node000001_Node000016" class="edge">
<title>Node1&#45;&gt;Node16</title>
<g id="a_edge15_Node000001_Node000016"><a xlink:title=" ">
<path fill="none" stroke="#63b8ff" d="M2666.03,-110.52C2974.01,-104.77 3843.11,-85.92 4126.43,-51.62 4136.85,-50.36 4147.72,-48.67 4158.48,-46.76"/>
<polygon fill="#63b8ff" stroke="#63b8ff" points="4158.94,-50.24 4168.14,-44.99 4157.67,-43.36 4158.94,-50.24"/>
</a>
</g>
</g>
<!-- Node17 -->
<g id="Node000017" class="node">
<title>Node17</title>
<g id="a_Node000017"><a xlink:title=" ">
<ellipse fill="#e0e0e0" stroke="#999999" cx="4476.43" cy="-25.81" rx="98.82" ry="15.73"/>
<text xml:space="preserve" text-anchor="middle" x="4476.43" y="-21.53" font-family="Helvetica,sans-Serif" font-size="12.00">com.runehive.util.Utility</text>
</a>
</g>
</g>
<!-- Node1&#45;&gt;Node17 -->
<g id="edge16_Node000001_Node000017" class="edge">
<title>Node1&#45;&gt;Node17</title>
<g id="a_edge16_Node000001_Node000017"><a xlink:title=" ">
<path fill="none" stroke="#63b8ff" d="M2666.58,-111.51C3006.6,-108.22 4036.7,-94.88 4368.43,-51.62 4384.31,-49.55 4401.3,-46.2 4416.98,-42.62"/>
<polygon fill="#63b8ff" stroke="#63b8ff" points="4417.73,-46.04 4426.66,-40.34 4416.12,-39.23 4417.73,-46.04"/>
</a>
</g>
</g>
<!-- Node18 -->
<g id="Node000018" class="node">
<title>Node18</title>
<g id="a_Node000018"><a xlink:title=" ">
<ellipse fill="#e0e0e0" stroke="#999999" cx="4639.43" cy="-25.81" rx="45.79" ry="15.73"/>
<text xml:space="preserve" text-anchor="middle" x="4639.43" y="-21.53" font-family="Helvetica,sans-Serif" font-size="12.00">java.util.*</text>
</a>
</g>
</g>
<!-- Node1&#45;&gt;Node18 -->
<g id="edge17_Node000001_Node000018" class="edge">
<title>Node1&#45;&gt;Node18</title>
<g id="a_edge17_Node000001_Node000018"><a xlink:title=" ">
<path fill="none" stroke="#63b8ff" d="M2666.55,-111.65C3062.11,-108.49 4397.64,-94.74 4584.43,-51.62 4591.53,-49.98 4598.83,-47.4 4605.7,-44.51"/>
<polygon fill="#63b8ff" stroke="#63b8ff" points="4607.02,-47.76 4614.67,-40.43 4604.12,-41.38 4607.02,-47.76"/>
</a>
</g>
</g>
</g>
</svg>
