<?xml version="1.0" encoding="UTF-8" standalone="no"?>
<!DOCTYPE svg PUBLIC "-//W3C//DTD SVG 1.1//EN"
 "http://www.w3.org/Graphics/SVG/1.1/DTD/svg11.dtd">
<!-- Generated by graphviz version 14.0.1 (20251006.0113)
 -->
<!-- Title: java/com/runehive/content/activity/record/PlayerRecord.java Pages: 1 -->
<svg width="1577pt" height="147pt"
 viewBox="0.00 0.00 1577.00 147.00" xmlns="http://www.w3.org/2000/svg" xmlns:xlink="http://www.w3.org/1999/xlink">
<g id="graph0" class="graph" transform="scale(1 1) rotate(0) translate(4 143.24)">
<title>java/com/runehive/content/activity/record/PlayerRecord.java</title>
<!-- Node1 -->
<g id="Node000001" class="node">
<title>Node1</title>
<g id="a_Node000001"><a xlink:title=" ">
<ellipse fill="#999999" stroke="#666666" cx="963.62" cy="-113.43" rx="137.53" ry="25.81"/>
<text xml:space="preserve" text-anchor="start" x="874.37" y="-116.28" font-family="Helvetica,sans-Serif" font-size="12.00">java/com/runehive/content</text>
<text xml:space="preserve" text-anchor="middle" x="963.62" y="-102.03" font-family="Helvetica,sans-Serif" font-size="12.00">/activity/record/PlayerRecord.java</text>
</a>
</g>
</g>
<!-- Node2 -->
<g id="Node000002" class="node">
<title>Node2</title>
<g id="a_Node000002"><a xlink:title=" ">
<ellipse fill="#e0e0e0" stroke="#999999" cx="121.62" cy="-25.81" rx="121.62" ry="25.81"/>
<text xml:space="preserve" text-anchor="start" x="43.62" y="-28.66" font-family="Helvetica,sans-Serif" font-size="12.00">com.runehive.content.activity.</text>
<text xml:space="preserve" text-anchor="middle" x="121.62" y="-14.41" font-family="Helvetica,sans-Serif" font-size="12.00">ActivityType</text>
</a>
</g>
</g>
<!-- Node1&#45;&gt;Node2 -->
<g id="edge1_Node000001_Node000002" class="edge">
<title>Node1&#45;&gt;Node2</title>
<g id="a_edge1_Node000001_Node000002"><a xlink:title=" ">
<path fill="none" stroke="#63b8ff" d="M832.6,-105.31C689.41,-96.58 453.49,-79.43 251.62,-51.62 240.87,-50.14 229.65,-48.36 218.52,-46.44"/>
<polygon fill="#63b8ff" stroke="#63b8ff" points="219.37,-43.04 208.92,-44.75 218.16,-49.93 219.37,-43.04"/>
</a>
</g>
</g>
<!-- Node3 -->
<g id="Node000003" class="node">
<title>Node3</title>
<g id="a_Node000003"><a xlink:title=" ">
<ellipse fill="#e0e0e0" stroke="#999999" cx="436.62" cy="-25.81" rx="175.72" ry="25.81"/>
<text xml:space="preserve" text-anchor="start" x="320.37" y="-28.66" font-family="Helvetica,sans-Serif" font-size="12.00">com.runehive.game.world.entity.mob.player.</text>
<text xml:space="preserve" text-anchor="middle" x="436.62" y="-14.41" font-family="Helvetica,sans-Serif" font-size="12.00">Player</text>
</a>
</g>
</g>
<!-- Node1&#45;&gt;Node3 -->
<g id="edge2_Node000001_Node000003" class="edge">
<title>Node1&#45;&gt;Node3</title>
<g id="a_edge2_Node000001_Node000003"><a xlink:title=" ">
<path fill="none" stroke="#63b8ff" d="M861.39,-95.82C776.33,-82 654.86,-62.27 563.58,-47.44"/>
<polygon fill="#63b8ff" stroke="#63b8ff" points="564.25,-44 553.82,-45.85 563.13,-50.91 564.25,-44"/>
</a>
</g>
</g>
<!-- Node4 -->
<g id="Node000004" class="node">
<title>Node4</title>
<g id="a_Node000004"><a xlink:title=" ">
<ellipse fill="#e0e0e0" stroke="#999999" cx="805.62" cy="-25.81" rx="175.72" ry="25.81"/>
<text xml:space="preserve" text-anchor="start" x="689.37" y="-28.66" font-family="Helvetica,sans-Serif" font-size="12.00">com.runehive.game.world.entity.mob.player.</text>
<text xml:space="preserve" text-anchor="middle" x="805.62" y="-14.41" font-family="Helvetica,sans-Serif" font-size="12.00">PlayerRight</text>
</a>
</g>
</g>
<!-- Node1&#45;&gt;Node4 -->
<g id="edge3_Node000001_Node000004" class="edge">
<title>Node1&#45;&gt;Node4</title>
<g id="a_edge3_Node000001_Node000004"><a xlink:title=" ">
<path fill="none" stroke="#63b8ff" d="M919.61,-88.58C901.26,-78.63 879.75,-66.98 860.4,-56.49"/>
<polygon fill="#63b8ff" stroke="#63b8ff" points="862.29,-53.53 851.83,-51.85 858.95,-59.69 862.29,-53.53"/>
</a>
</g>
</g>
<!-- Node5 -->
<g id="Node000005" class="node">
<title>Node5</title>
<g id="a_Node000005"><a xlink:title=" ">
<ellipse fill="#e0e0e0" stroke="#999999" cx="1121.62" cy="-25.81" rx="122.15" ry="15.73"/>
<text xml:space="preserve" text-anchor="middle" x="1121.62" y="-21.53" font-family="Helvetica,sans-Serif" font-size="12.00">com.runehive.net.packet.out.*</text>
</a>
</g>
</g>
<!-- Node1&#45;&gt;Node5 -->
<g id="edge4_Node000001_Node000005" class="edge">
<title>Node1&#45;&gt;Node5</title>
<g id="a_edge4_Node000001_Node000005"><a xlink:title=" ">
<path fill="none" stroke="#63b8ff" d="M1007.63,-88.58C1031.86,-75.45 1061.6,-59.34 1084.62,-46.86"/>
<polygon fill="#63b8ff" stroke="#63b8ff" points="1086.23,-49.97 1093.35,-42.13 1082.89,-43.82 1086.23,-49.97"/>
</a>
</g>
</g>
<!-- Node6 -->
<g id="Node000006" class="node">
<title>Node6</title>
<g id="a_Node000006"><a xlink:title=" ">
<ellipse fill="#e0e0e0" stroke="#999999" cx="1360.62" cy="-25.81" rx="98.82" ry="15.73"/>
<text xml:space="preserve" text-anchor="middle" x="1360.62" y="-21.53" font-family="Helvetica,sans-Serif" font-size="12.00">com.runehive.util.Utility</text>
</a>
</g>
</g>
<!-- Node1&#45;&gt;Node6 -->
<g id="edge5_Node000001_Node000006" class="edge">
<title>Node1&#45;&gt;Node6</title>
<g id="a_edge5_Node000001_Node000006"><a xlink:title=" ">
<path fill="none" stroke="#63b8ff" d="M1054.83,-93.69C1111.75,-81.88 1186.52,-66.16 1252.62,-51.62 1266.56,-48.55 1281.49,-45.18 1295.66,-41.94"/>
<polygon fill="#63b8ff" stroke="#63b8ff" points="1296.39,-45.36 1305.36,-39.71 1294.83,-38.54 1296.39,-45.36"/>
</a>
</g>
</g>
<!-- Node7 -->
<g id="Node000007" class="node">
<title>Node7</title>
<g id="a_Node000007"><a xlink:title=" ">
<ellipse fill="#e0e0e0" stroke="#999999" cx="1523.62" cy="-25.81" rx="45.79" ry="15.73"/>
<text xml:space="preserve" text-anchor="middle" x="1523.62" y="-21.53" font-family="Helvetica,sans-Serif" font-size="12.00">java.util.*</text>
</a>
</g>
</g>
<!-- Node1&#45;&gt;Node7 -->
<g id="edge6_Node000001_Node000007" class="edge">
<title>Node1&#45;&gt;Node7</title>
<g id="a_edge6_Node000001_Node000007"><a xlink:title=" ">
<path fill="none" stroke="#63b8ff" d="M1097.88,-107.35C1200.9,-100.81 1345.81,-85.85 1468.62,-51.62 1475.51,-49.7 1482.63,-47.04 1489.38,-44.17"/>
<polygon fill="#63b8ff" stroke="#63b8ff" points="1490.52,-47.5 1498.2,-40.19 1487.64,-41.12 1490.52,-47.5"/>
</a>
</g>
</g>
</g>
</svg>
