<?xml version="1.0" encoding="UTF-8" standalone="no"?>
<!DOCTYPE svg PUBLIC "-//W3C//DTD SVG 1.1//EN"
 "http://www.w3.org/Graphics/SVG/1.1/DTD/svg11.dtd">
<!-- Generated by graphviz version 14.0.1 (20251006.0113)
 -->
<!-- Title: java/com/runehive/game/world/entity/mob/player/PlayerKilling.java Pages: 1 -->
<svg width="2588pt" height="167pt"
 viewBox="0.00 0.00 2588.00 167.00" xmlns="http://www.w3.org/2000/svg" xmlns:xlink="http://www.w3.org/1999/xlink">
<g id="graph0" class="graph" transform="scale(1 1) rotate(0) translate(4 163.39)">
<title>java/com/runehive/game/world/entity/mob/player/PlayerKilling.java</title>
<!-- Node1 -->
<g id="Node000001" class="node">
<title>Node1</title>
<g id="a_Node000001"><a xlink:title=" ">
<ellipse fill="#999999" stroke="#666666" cx="1284.37" cy="-123.5" rx="103.59" ry="35.89"/>
<text xml:space="preserve" text-anchor="start" x="1219.12" y="-133.48" font-family="Helvetica,sans-Serif" font-size="12.00">java/com/runehive/game</text>
<text xml:space="preserve" text-anchor="start" x="1219.12" y="-119.23" font-family="Helvetica,sans-Serif" font-size="12.00">/world/entity/mob/player</text>
<text xml:space="preserve" text-anchor="middle" x="1284.37" y="-104.98" font-family="Helvetica,sans-Serif" font-size="12.00">/PlayerKilling.java</text>
</a>
</g>
</g>
<!-- Node2 -->
<g id="Node000002" class="node">
<title>Node2</title>
<g id="a_Node000002"><a xlink:title=" ">
<ellipse fill="#e0e0e0" stroke="#999999" cx="143.37" cy="-25.81" rx="143.37" ry="15.73"/>
<text xml:space="preserve" text-anchor="middle" x="143.37" y="-21.53" font-family="Helvetica,sans-Serif" font-size="12.00">com.runehive.content.EmblemData</text>
</a>
</g>
</g>
<!-- Node1&#45;&gt;Node2 -->
<g id="edge1_Node000001_Node000002" class="edge">
<title>Node1&#45;&gt;Node2</title>
<g id="a_edge1_Node000001_Node000002"><a xlink:title=" ">
<path fill="none" stroke="#63b8ff" d="M1181.57,-118.2C1001.53,-109.97 617.65,-89.39 295.37,-51.62 272.87,-48.98 248.63,-45.38 226.25,-41.73"/>
<polygon fill="#63b8ff" stroke="#63b8ff" points="227.02,-38.31 216.58,-40.13 225.87,-45.21 227.02,-38.31"/>
</a>
</g>
</g>
<!-- Node3 -->
<g id="Node000003" class="node">
<title>Node3</title>
<g id="a_Node000003"><a xlink:title=" ">
<ellipse fill="#e0e0e0" stroke="#999999" cx="476.37" cy="-25.81" rx="172" ry="25.81"/>
<text xml:space="preserve" text-anchor="start" x="362.74" y="-28.66" font-family="Helvetica,sans-Serif" font-size="12.00">com.runehive.content.clanchannel.content.</text>
<text xml:space="preserve" text-anchor="middle" x="476.37" y="-14.41" font-family="Helvetica,sans-Serif" font-size="12.00">ClanAchievement</text>
</a>
</g>
</g>
<!-- Node1&#45;&gt;Node3 -->
<g id="edge2_Node000001_Node000003" class="edge">
<title>Node1&#45;&gt;Node3</title>
<g id="a_edge2_Node000001_Node000003"><a xlink:title=" ">
<path fill="none" stroke="#63b8ff" d="M1185.73,-112.08C1062.15,-98.86 843.92,-74.95 657.37,-51.62 642.42,-49.75 626.8,-47.72 611.26,-45.66"/>
<polygon fill="#63b8ff" stroke="#63b8ff" points="611.84,-42.2 601.47,-44.35 610.92,-49.14 611.84,-42.2"/>
</a>
</g>
</g>
<!-- Node4 -->
<g id="Node000004" class="node">
<title>Node4</title>
<g id="a_Node000004"><a xlink:title=" ">
<ellipse fill="#e0e0e0" stroke="#999999" cx="774.37" cy="-25.81" rx="107.83" ry="25.81"/>
<text xml:space="preserve" text-anchor="start" x="706.12" y="-28.66" font-family="Helvetica,sans-Serif" font-size="12.00">com.runehive.content.pet.</text>
<text xml:space="preserve" text-anchor="middle" x="774.37" y="-14.41" font-family="Helvetica,sans-Serif" font-size="12.00">PetData</text>
</a>
</g>
</g>
<!-- Node1&#45;&gt;Node4 -->
<g id="edge3_Node000001_Node000004" class="edge">
<title>Node1&#45;&gt;Node4</title>
<g id="a_edge3_Node000001_Node000004"><a xlink:title=" ">
<path fill="none" stroke="#63b8ff" d="M1192.11,-106.68C1112.37,-92.81 994.1,-71.77 891.37,-51.62 882.53,-49.89 873.33,-48.03 864.14,-46.14"/>
<polygon fill="#63b8ff" stroke="#63b8ff" points="864.95,-42.73 854.45,-44.13 863.53,-49.58 864.95,-42.73"/>
</a>
</g>
</g>
<!-- Node5 -->
<g id="Node000005" class="node">
<title>Node5</title>
<g id="a_Node000005"><a xlink:title=" ">
<ellipse fill="#e0e0e0" stroke="#999999" cx="1025.37" cy="-25.81" rx="124.8" ry="15.73"/>
<text xml:space="preserve" text-anchor="middle" x="1025.37" y="-21.53" font-family="Helvetica,sans-Serif" font-size="12.00">com.runehive.content.pet.Pets</text>
</a>
</g>
</g>
<!-- Node1&#45;&gt;Node5 -->
<g id="edge4_Node000001_Node000005" class="edge">
<title>Node1&#45;&gt;Node5</title>
<g id="a_edge4_Node000001_Node000005"><a xlink:title=" ">
<path fill="none" stroke="#63b8ff" d="M1214.28,-96.61C1170.18,-80.32 1114.36,-59.69 1074.86,-45.1"/>
<polygon fill="#63b8ff" stroke="#63b8ff" points="1076.19,-41.86 1065.59,-41.67 1073.76,-48.42 1076.19,-41.86"/>
</a>
</g>
</g>
<!-- Node6 -->
<g id="Node000006" class="node">
<title>Node6</title>
<g id="a_Node000006"><a xlink:title=" ">
<ellipse fill="#e0e0e0" stroke="#999999" cx="1284.37" cy="-25.81" rx="116.32" ry="25.81"/>
<text xml:space="preserve" text-anchor="start" x="1210.12" y="-28.66" font-family="Helvetica,sans-Serif" font-size="12.00">com.runehive.content.writer.</text>
<text xml:space="preserve" text-anchor="middle" x="1284.37" y="-14.41" font-family="Helvetica,sans-Serif" font-size="12.00">InterfaceWriter</text>
</a>
</g>
</g>
<!-- Node1&#45;&gt;Node6 -->
<g id="edge5_Node000001_Node000006" class="edge">
<title>Node1&#45;&gt;Node6</title>
<g id="a_edge5_Node000001_Node000006"><a xlink:title=" ">
<path fill="none" stroke="#63b8ff" d="M1284.37,-87.14C1284.37,-79.36 1284.37,-71.11 1284.37,-63.29"/>
<polygon fill="#63b8ff" stroke="#63b8ff" points="1287.87,-63.38 1284.37,-53.38 1280.87,-63.38 1287.87,-63.38"/>
</a>
</g>
</g>
<!-- Node7 -->
<g id="Node000007" class="node">
<title>Node7</title>
<g id="a_Node000007"><a xlink:title=" ">
<ellipse fill="#e0e0e0" stroke="#999999" cx="1553.37" cy="-25.81" rx="134.35" ry="25.81"/>
<text xml:space="preserve" text-anchor="start" x="1466.37" y="-28.66" font-family="Helvetica,sans-Serif" font-size="12.00">com.runehive.content.writer.impl.</text>
<text xml:space="preserve" text-anchor="middle" x="1553.37" y="-14.41" font-family="Helvetica,sans-Serif" font-size="12.00">InformationWriter</text>
</a>
</g>
</g>
<!-- Node1&#45;&gt;Node7 -->
<g id="edge6_Node000001_Node000007" class="edge">
<title>Node1&#45;&gt;Node7</title>
<g id="a_edge6_Node000001_Node000007"><a xlink:title=" ">
<path fill="none" stroke="#63b8ff" d="M1355.75,-97.11C1394.16,-83.45 1441.46,-66.62 1480.15,-52.86"/>
<polygon fill="#63b8ff" stroke="#63b8ff" points="1481.15,-56.22 1489.39,-49.57 1478.8,-49.62 1481.15,-56.22"/>
</a>
</g>
</g>
<!-- Node8 -->
<g id="Node000008" class="node">
<title>Node8</title>
<g id="a_Node000008"><a xlink:title=" ">
<ellipse fill="#e0e0e0" stroke="#999999" cx="1854.37" cy="-25.81" rx="148.67" ry="15.73"/>
<text xml:space="preserve" text-anchor="middle" x="1854.37" y="-21.53" font-family="Helvetica,sans-Serif" font-size="12.00">com.runehive.game.world.items.Item</text>
</a>
</g>
</g>
<!-- Node1&#45;&gt;Node8 -->
<g id="edge7_Node000001_Node000008" class="edge">
<title>Node1&#45;&gt;Node8</title>
<g id="a_edge7_Node000001_Node000008"><a xlink:title=" ">
<path fill="none" stroke="#63b8ff" d="M1376.9,-106.97C1484.58,-88.89 1661.08,-59.26 1766.65,-41.53"/>
<polygon fill="#63b8ff" stroke="#63b8ff" points="1767.13,-45 1776.41,-39.9 1765.97,-38.1 1767.13,-45"/>
</a>
</g>
</g>
<!-- Node9 -->
<g id="Node000009" class="node">
<title>Node9</title>
<g id="a_Node000009"><a xlink:title=" ">
<ellipse fill="#e0e0e0" stroke="#999999" cx="2119.37" cy="-25.81" rx="98.82" ry="15.73"/>
<text xml:space="preserve" text-anchor="middle" x="2119.37" y="-21.53" font-family="Helvetica,sans-Serif" font-size="12.00">com.runehive.util.Utility</text>
</a>
</g>
</g>
<!-- Node1&#45;&gt;Node9 -->
<g id="edge8_Node000001_Node000009" class="edge">
<title>Node1&#45;&gt;Node9</title>
<g id="a_edge8_Node000001_Node000009"><a xlink:title=" ">
<path fill="none" stroke="#63b8ff" d="M1386.49,-116.79C1527.83,-107.91 1790.72,-87.95 2012.37,-51.62 2027.36,-49.16 2043.39,-45.83 2058.35,-42.41"/>
<polygon fill="#63b8ff" stroke="#63b8ff" points="2059.14,-45.82 2068.08,-40.13 2057.55,-39 2059.14,-45.82"/>
</a>
</g>
</g>
<!-- Node10 -->
<g id="Node000010" class="node">
<title>Node10</title>
<g id="a_Node000010"><a xlink:title=" ">
<ellipse fill="#e0e0e0" stroke="#999999" cx="2408.37" cy="-25.81" rx="172" ry="25.81"/>
<text xml:space="preserve" text-anchor="start" x="2294.74" y="-28.66" font-family="Helvetica,sans-Serif" font-size="12.00">com.runehive.content.clanchannel.content.</text>
<text xml:space="preserve" text-anchor="middle" x="2408.37" y="-14.41" font-family="Helvetica,sans-Serif" font-size="12.00">ClanTaskKey.PLAYER_KILLING</text>
</a>
</g>
</g>
<!-- Node1&#45;&gt;Node10 -->
<g id="edge9_Node000001_Node000010" class="edge">
<title>Node1&#45;&gt;Node10</title>
<g id="a_edge9_Node000001_Node000010"><a xlink:title=" ">
<path fill="none" stroke="#63b8ff" d="M1386.42,-116.89C1559.62,-106.89 1922.07,-83.99 2227.37,-51.62 2243.13,-49.95 2259.63,-47.98 2275.99,-45.91"/>
<polygon fill="#63b8ff" stroke="#63b8ff" points="2276.3,-49.39 2285.78,-44.64 2275.41,-42.45 2276.3,-49.39"/>
</a>
</g>
</g>
</g>
</svg>
