<?xml version="1.0" encoding="UTF-8" standalone="no"?>
<!DOCTYPE svg PUBLIC "-//W3C//DTD SVG 1.1//EN"
 "http://www.w3.org/Graphics/SVG/1.1/DTD/svg11.dtd">
<!-- Generated by graphviz version 14.0.1 (20251006.0113)
 -->
<!-- Title: java/com/runehive/game/world/entity/mob/player/requests/PlayerPunishment.java Pages: 1 -->
<svg width="1735pt" height="167pt"
 viewBox="0.00 0.00 1735.00 167.00" xmlns="http://www.w3.org/2000/svg" xmlns:xlink="http://www.w3.org/1999/xlink">
<g id="graph0" class="graph" transform="scale(1 1) rotate(0) translate(4 163.39)">
<title>java/com/runehive/game/world/entity/mob/player/requests/PlayerPunishment.java</title>
<!-- Node1 -->
<g id="Node000001" class="node">
<title>Node1</title>
<g id="a_Node000001"><a xlink:title=" ">
<ellipse fill="#999999" stroke="#666666" cx="895.65" cy="-123.5" rx="135.41" ry="35.89"/>
<text xml:space="preserve" text-anchor="start" x="807.9" y="-133.48" font-family="Helvetica,sans-Serif" font-size="12.00">java/com/runehive/game</text>
<text xml:space="preserve" text-anchor="start" x="807.9" y="-119.23" font-family="Helvetica,sans-Serif" font-size="12.00">/world/entity/mob/player</text>
<text xml:space="preserve" text-anchor="middle" x="895.65" y="-104.98" font-family="Helvetica,sans-Serif" font-size="12.00">/requests/PlayerPunishment.java</text>
</a>
</g>
</g>
<!-- Node2 -->
<g id="Node000002" class="node">
<title>Node2</title>
<g id="a_Node000002"><a xlink:title=" ">
<ellipse fill="#e0e0e0" stroke="#999999" cx="139.65" cy="-25.81" rx="139.65" ry="25.81"/>
<text xml:space="preserve" text-anchor="start" x="48.9" y="-28.66" font-family="Helvetica,sans-Serif" font-size="12.00">com.runehive.content.activity.impl.</text>
<text xml:space="preserve" text-anchor="middle" x="139.65" y="-14.41" font-family="Helvetica,sans-Serif" font-size="12.00">JailActivity</text>
</a>
</g>
</g>
<!-- Node1&#45;&gt;Node2 -->
<g id="edge1_Node000001_Node000002" class="edge">
<title>Node1&#45;&gt;Node2</title>
<g id="a_edge1_Node000001_Node000002"><a xlink:title=" ">
<path fill="none" stroke="#63b8ff" d="M770.16,-109.65C647.26,-96.64 454.77,-75.13 288.65,-51.62 276.4,-49.88 263.61,-47.95 250.88,-45.94"/>
<polygon fill="#63b8ff" stroke="#63b8ff" points="251.66,-42.52 241.23,-44.4 250.55,-49.43 251.66,-42.52"/>
</a>
</g>
</g>
<!-- Node3 -->
<g id="Node000003" class="node">
<title>Node3</title>
<g id="a_Node000003"><a xlink:title=" ">
<ellipse fill="#e0e0e0" stroke="#999999" cx="407.65" cy="-25.81" rx="110.49" ry="25.81"/>
<text xml:space="preserve" text-anchor="start" x="337.53" y="-28.66" font-family="Helvetica,sans-Serif" font-size="12.00">com.runehive.game.world.</text>
<text xml:space="preserve" text-anchor="middle" x="407.65" y="-14.41" font-family="Helvetica,sans-Serif" font-size="12.00">World</text>
</a>
</g>
</g>
<!-- Node1&#45;&gt;Node3 -->
<g id="edge2_Node000001_Node000003" class="edge">
<title>Node1&#45;&gt;Node3</title>
<g id="a_edge2_Node000001_Node000003"><a xlink:title=" ">
<path fill="none" stroke="#63b8ff" d="M786.58,-102.02C713.07,-88.1 613.96,-69.11 526.65,-51.62 517.83,-49.85 508.64,-47.98 499.45,-46.1"/>
<polygon fill="#63b8ff" stroke="#63b8ff" points="500.26,-42.69 489.76,-44.1 498.84,-49.55 500.26,-42.69"/>
</a>
</g>
</g>
<!-- Node4 -->
<g id="Node000004" class="node">
<title>Node4</title>
<g id="a_Node000004"><a xlink:title=" ">
<ellipse fill="#e0e0e0" stroke="#999999" cx="711.65" cy="-25.81" rx="175.72" ry="25.81"/>
<text xml:space="preserve" text-anchor="start" x="595.4" y="-28.66" font-family="Helvetica,sans-Serif" font-size="12.00">com.runehive.game.world.entity.mob.player.</text>
<text xml:space="preserve" text-anchor="middle" x="711.65" y="-14.41" font-family="Helvetica,sans-Serif" font-size="12.00">IPMutedPlayers</text>
</a>
</g>
</g>
<!-- Node1&#45;&gt;Node4 -->
<g id="edge3_Node000001_Node000004" class="edge">
<title>Node1&#45;&gt;Node4</title>
<g id="a_edge3_Node000001_Node000004"><a xlink:title=" ">
<path fill="none" stroke="#63b8ff" d="M835.15,-91.04C813.73,-79.9 789.71,-67.41 768.59,-56.42"/>
<polygon fill="#63b8ff" stroke="#63b8ff" points="770.31,-53.37 759.83,-51.86 767.08,-59.58 770.31,-53.37"/>
</a>
</g>
</g>
<!-- Node5 -->
<g id="Node000005" class="node">
<title>Node5</title>
<g id="a_Node000005"><a xlink:title=" ">
<ellipse fill="#e0e0e0" stroke="#999999" cx="1080.65" cy="-25.81" rx="175.72" ry="25.81"/>
<text xml:space="preserve" text-anchor="start" x="964.4" y="-28.66" font-family="Helvetica,sans-Serif" font-size="12.00">com.runehive.game.world.entity.mob.player.</text>
<text xml:space="preserve" text-anchor="middle" x="1080.65" y="-14.41" font-family="Helvetica,sans-Serif" font-size="12.00">Player</text>
</a>
</g>
</g>
<!-- Node1&#45;&gt;Node5 -->
<g id="edge4_Node000001_Node000005" class="edge">
<title>Node1&#45;&gt;Node5</title>
<g id="a_edge4_Node000001_Node000005"><a xlink:title=" ">
<path fill="none" stroke="#63b8ff" d="M956.49,-91.04C978.12,-79.85 1002.37,-67.3 1023.67,-56.29"/>
<polygon fill="#63b8ff" stroke="#63b8ff" points="1025.24,-59.41 1032.52,-51.71 1022.03,-53.19 1025.24,-59.41"/>
</a>
</g>
</g>
<!-- Node6 -->
<g id="Node000006" class="node">
<title>Node6</title>
<g id="a_Node000006"><a xlink:title=" ">
<ellipse fill="#e0e0e0" stroke="#999999" cx="1373.65" cy="-25.81" rx="98.82" ry="15.73"/>
<text xml:space="preserve" text-anchor="middle" x="1373.65" y="-21.53" font-family="Helvetica,sans-Serif" font-size="12.00">com.runehive.util.Utility</text>
</a>
</g>
</g>
<!-- Node1&#45;&gt;Node6 -->
<g id="edge5_Node000001_Node000006" class="edge">
<title>Node1&#45;&gt;Node6</title>
<g id="a_edge5_Node000001_Node000006"><a xlink:title=" ">
<path fill="none" stroke="#63b8ff" d="M1005.96,-102.46C1079.63,-88.81 1178.61,-69.95 1265.65,-51.62 1279.91,-48.62 1295.17,-45.22 1309.61,-41.93"/>
<polygon fill="#63b8ff" stroke="#63b8ff" points="1310.02,-45.43 1318.98,-39.78 1308.45,-38.6 1310.02,-45.43"/>
</a>
</g>
</g>
<!-- Node7 -->
<g id="Node000007" class="node">
<title>Node7</title>
<g id="a_Node000007"><a xlink:title=" ">
<ellipse fill="#e0e0e0" stroke="#999999" cx="1608.65" cy="-25.81" rx="118.44" ry="15.73"/>
<text xml:space="preserve" text-anchor="middle" x="1608.65" y="-21.53" font-family="Helvetica,sans-Serif" font-size="12.00">java.util.concurrent.TimeUnit</text>
</a>
</g>
</g>
<!-- Node1&#45;&gt;Node7 -->
<g id="edge6_Node000001_Node000007" class="edge">
<title>Node1&#45;&gt;Node7</title>
<g id="a_edge6_Node000001_Node000007"><a xlink:title=" ">
<path fill="none" stroke="#63b8ff" d="M1021.48,-109.95C1140.39,-97.46 1323.62,-76.58 1481.65,-51.62 1499.39,-48.82 1518.44,-45.35 1536.25,-41.9"/>
<polygon fill="#63b8ff" stroke="#63b8ff" points="1536.82,-45.35 1545.96,-39.99 1535.47,-38.48 1536.82,-45.35"/>
</a>
</g>
</g>
</g>
</svg>
