<?xml version="1.0" encoding="UTF-8" standalone="no"?>
<!DOCTYPE svg PUBLIC "-//W3C//DTD SVG 1.1//EN"
 "http://www.w3.org/Graphics/SVG/1.1/DTD/svg11.dtd">
<!-- Generated by graphviz version 14.0.1 (20251006.0113)
 -->
<!-- Title: java/com/runehive/game/plugin/PluginManager.java Pages: 1 -->
<svg width="1476pt" height="147pt"
 viewBox="0.00 0.00 1476.00 147.00" xmlns="http://www.w3.org/2000/svg" xmlns:xlink="http://www.w3.org/1999/xlink">
<g id="graph0" class="graph" transform="scale(1 1) rotate(0) translate(4 143.24)">
<title>java/com/runehive/game/plugin/PluginManager.java</title>
<!-- Node1 -->
<g id="Node000001" class="node">
<title>Node1</title>
<g id="a_Node000001"><a xlink:title=" ">
<ellipse fill="#999999" stroke="#666666" cx="812.4" cy="-113.43" rx="114.2" ry="25.81"/>
<text xml:space="preserve" text-anchor="start" x="739.65" y="-116.28" font-family="Helvetica,sans-Serif" font-size="12.00">java/com/runehive/game</text>
<text xml:space="preserve" text-anchor="middle" x="812.4" y="-102.03" font-family="Helvetica,sans-Serif" font-size="12.00">/plugin/PluginManager.java</text>
</a>
</g>
</g>
<!-- Node2 -->
<g id="Node000002" class="node">
<title>Node2</title>
<g id="a_Node000002"><a xlink:title=" ">
<ellipse fill="#e0e0e0" stroke="#999999" cx="126.4" cy="-25.81" rx="126.4" ry="25.81"/>
<text xml:space="preserve" text-anchor="start" x="45.02" y="-28.66" font-family="Helvetica,sans-Serif" font-size="12.00">com.runehive.game.event.bus.</text>
<text xml:space="preserve" text-anchor="middle" x="126.4" y="-14.41" font-family="Helvetica,sans-Serif" font-size="12.00">PlayerDataBus</text>
</a>
</g>
</g>
<!-- Node1&#45;&gt;Node2 -->
<g id="edge1_Node000001_Node000002" class="edge">
<title>Node1&#45;&gt;Node2</title>
<g id="a_edge1_Node000001_Node000002"><a xlink:title=" ">
<path fill="none" stroke="#63b8ff" d="M707.19,-103.01C596.28,-92.57 416.62,-74.18 262.4,-51.62 251.15,-49.97 239.41,-48.09 227.74,-46.11"/>
<polygon fill="#63b8ff" stroke="#63b8ff" points="228.54,-42.69 218.09,-44.44 227.35,-49.59 228.54,-42.69"/>
</a>
</g>
</g>
<!-- Node3 -->
<g id="Node000003" class="node">
<title>Node3</title>
<g id="a_Node000003"><a xlink:title=" ">
<ellipse fill="#e0e0e0" stroke="#999999" cx="363.4" cy="-25.81" rx="92.45" ry="15.73"/>
<text xml:space="preserve" text-anchor="middle" x="363.4" y="-21.53" font-family="Helvetica,sans-Serif" font-size="12.00">io.github.classgraph.*</text>
</a>
</g>
</g>
<!-- Node1&#45;&gt;Node3 -->
<g id="edge2_Node000001_Node000003" class="edge">
<title>Node1&#45;&gt;Node3</title>
<g id="a_edge2_Node000001_Node000003"><a xlink:title=" ">
<path fill="none" stroke="#63b8ff" d="M719.75,-98C649.45,-86.62 550.53,-69.7 464.4,-51.62 451.07,-48.82 436.84,-45.52 423.38,-42.25"/>
<polygon fill="#63b8ff" stroke="#63b8ff" points="424.32,-38.88 413.77,-39.89 422.65,-45.68 424.32,-38.88"/>
</a>
</g>
</g>
<!-- Node4 -->
<g id="Node000004" class="node">
<title>Node4</title>
<g id="a_Node000004"><a xlink:title=" ">
<ellipse fill="#e0e0e0" stroke="#999999" cx="580.4" cy="-25.81" rx="106.77" ry="25.81"/>
<text xml:space="preserve" text-anchor="start" x="512.9" y="-28.66" font-family="Helvetica,sans-Serif" font-size="12.00">org.apache.logging.log4j.</text>
<text xml:space="preserve" text-anchor="middle" x="580.4" y="-14.41" font-family="Helvetica,sans-Serif" font-size="12.00">LogManager</text>
</a>
</g>
</g>
<!-- Node1&#45;&gt;Node4 -->
<g id="edge3_Node000001_Node000004" class="edge">
<title>Node1&#45;&gt;Node4</title>
<g id="a_edge3_Node000001_Node000004"><a xlink:title=" ">
<path fill="none" stroke="#63b8ff" d="M753.85,-90.82C721.75,-78.98 681.8,-64.23 648.34,-51.88"/>
<polygon fill="#63b8ff" stroke="#63b8ff" points="649.73,-48.67 639.14,-48.49 647.31,-55.23 649.73,-48.67"/>
</a>
</g>
</g>
<!-- Node5 -->
<g id="Node000005" class="node">
<title>Node5</title>
<g id="a_Node000005"><a xlink:title=" ">
<ellipse fill="#e0e0e0" stroke="#999999" cx="812.4" cy="-25.81" rx="106.77" ry="25.81"/>
<text xml:space="preserve" text-anchor="start" x="744.9" y="-28.66" font-family="Helvetica,sans-Serif" font-size="12.00">org.apache.logging.log4j.</text>
<text xml:space="preserve" text-anchor="middle" x="812.4" y="-14.41" font-family="Helvetica,sans-Serif" font-size="12.00">Logger</text>
</a>
</g>
</g>
<!-- Node1&#45;&gt;Node5 -->
<g id="edge4_Node000001_Node000005" class="edge">
<title>Node1&#45;&gt;Node5</title>
<g id="a_edge4_Node000001_Node000005"><a xlink:title=" ">
<path fill="none" stroke="#63b8ff" d="M812.4,-87.2C812.4,-79.71 812.4,-71.35 812.4,-63.3"/>
<polygon fill="#63b8ff" stroke="#63b8ff" points="815.9,-63.37 812.4,-53.37 808.9,-63.37 815.9,-63.37"/>
</a>
</g>
</g>
<!-- Node6 -->
<g id="Node000006" class="node">
<title>Node6</title>
<g id="a_Node000006"><a xlink:title=" ">
<ellipse fill="#e0e0e0" stroke="#999999" cx="1053.4" cy="-25.81" rx="116.32" ry="15.73"/>
<text xml:space="preserve" text-anchor="middle" x="1053.4" y="-21.53" font-family="Helvetica,sans-Serif" font-size="12.00">java.lang.reflect.Constructor</text>
</a>
</g>
</g>
<!-- Node1&#45;&gt;Node6 -->
<g id="edge5_Node000001_Node000006" class="edge">
<title>Node1&#45;&gt;Node6</title>
<g id="a_edge5_Node000001_Node000006"><a xlink:title=" ">
<path fill="none" stroke="#63b8ff" d="M872.59,-91.04C912.69,-76.8 964.79,-58.29 1002.76,-44.8"/>
<polygon fill="#63b8ff" stroke="#63b8ff" points="1003.88,-48.11 1012.13,-41.47 1001.54,-41.52 1003.88,-48.11"/>
</a>
</g>
</g>
<!-- Node7 -->
<g id="Node000007" class="node">
<title>Node7</title>
<g id="a_Node000007"><a xlink:title=" ">
<ellipse fill="#e0e0e0" stroke="#999999" cx="1263.4" cy="-25.81" rx="75.48" ry="15.73"/>
<text xml:space="preserve" text-anchor="middle" x="1263.4" y="-21.53" font-family="Helvetica,sans-Serif" font-size="12.00">java.util.HashSet</text>
</a>
</g>
</g>
<!-- Node1&#45;&gt;Node7 -->
<g id="edge6_Node000001_Node000007" class="edge">
<title>Node1&#45;&gt;Node7</title>
<g id="a_edge6_Node000001_Node000007"><a xlink:title=" ">
<path fill="none" stroke="#63b8ff" d="M909.33,-99.54C983.46,-88.91 1087.96,-72.25 1178.4,-51.62 1189.52,-49.08 1201.35,-45.93 1212.53,-42.73"/>
<polygon fill="#63b8ff" stroke="#63b8ff" points="1213.37,-46.13 1221.99,-39.96 1211.41,-39.41 1213.37,-46.13"/>
</a>
</g>
</g>
<!-- Node8 -->
<g id="Node000008" class="node">
<title>Node8</title>
<g id="a_Node000008"><a xlink:title=" ">
<ellipse fill="#e0e0e0" stroke="#999999" cx="1412.4" cy="-25.81" rx="55.33" ry="15.73"/>
<text xml:space="preserve" text-anchor="middle" x="1412.4" y="-21.53" font-family="Helvetica,sans-Serif" font-size="12.00">java.util.Set</text>
</a>
</g>
</g>
<!-- Node1&#45;&gt;Node8 -->
<g id="edge7_Node000001_Node000008" class="edge">
<title>Node1&#45;&gt;Node8</title>
<g id="a_edge7_Node000001_Node000008"><a xlink:title=" ">
<path fill="none" stroke="#63b8ff" d="M924.48,-107.88C1033.73,-101.54 1203.89,-86.57 1347.4,-51.62 1355.8,-49.57 1364.59,-46.73 1372.89,-43.69"/>
<polygon fill="#63b8ff" stroke="#63b8ff" points="1373.95,-47.04 1382.03,-40.19 1371.44,-40.5 1373.95,-47.04"/>
</a>
</g>
</g>
</g>
</svg>
