<?xml version="1.0" encoding="UTF-8" standalone="no"?>
<!DOCTYPE svg PUBLIC "-//W3C//DTD SVG 1.1//EN"
 "http://www.w3.org/Graphics/SVG/1.1/DTD/svg11.dtd">
<!-- Generated by graphviz version 14.0.1 (20251006.0113)
 -->
<!-- Title: java/com/runehive/game/task/impl/PvPTimerTask.java Pages: 1 -->
<svg width="2096pt" height="147pt"
 viewBox="0.00 0.00 2096.00 147.00" xmlns="http://www.w3.org/2000/svg" xmlns:xlink="http://www.w3.org/1999/xlink">
<g id="graph0" class="graph" transform="scale(1 1) rotate(0) translate(4 143.24)">
<title>java/com/runehive/game/task/impl/PvPTimerTask.java</title>
<!-- Node1 -->
<g id="Node000001" class="node">
<title>Node1</title>
<g id="a_Node000001"><a xlink:title=" ">
<ellipse fill="#999999" stroke="#666666" cx="1161.68" cy="-113.43" rx="121.62" ry="25.81"/>
<text xml:space="preserve" text-anchor="start" x="1083.68" y="-116.28" font-family="Helvetica,sans-Serif" font-size="12.00">java/com/runehive/game</text>
<text xml:space="preserve" text-anchor="middle" x="1161.68" y="-102.03" font-family="Helvetica,sans-Serif" font-size="12.00">/task/impl/PvPTimerTask.java</text>
</a>
</g>
</g>
<!-- Node2 -->
<g id="Node000002" class="node">
<title>Node2</title>
<g id="a_Node000002"><a xlink:title=" ">
<ellipse fill="#e0e0e0" stroke="#999999" cx="122.68" cy="-25.81" rx="122.68" ry="15.73"/>
<text xml:space="preserve" text-anchor="middle" x="122.68" y="-21.53" font-family="Helvetica,sans-Serif" font-size="12.00">com.runehive.game.task.Task</text>
</a>
</g>
</g>
<!-- Node1&#45;&gt;Node2 -->
<g id="edge1_Node000001_Node000002" class="edge">
<title>Node1&#45;&gt;Node2</title>
<g id="a_edge1_Node000001_Node000002"><a xlink:title=" ">
<path fill="none" stroke="#63b8ff" d="M1041.53,-108.98C867.29,-102.94 534.6,-87.49 253.68,-51.62 234.39,-49.16 213.66,-45.64 194.5,-42.02"/>
<polygon fill="#63b8ff" stroke="#63b8ff" points="195.39,-38.63 184.91,-40.17 194.07,-45.5 195.39,-38.63"/>
</a>
</g>
</g>
<!-- Node3 -->
<g id="Node000003" class="node">
<title>Node3</title>
<g id="a_Node000003"><a xlink:title=" ">
<ellipse fill="#e0e0e0" stroke="#999999" cx="438.68" cy="-25.81" rx="175.72" ry="25.81"/>
<text xml:space="preserve" text-anchor="start" x="322.43" y="-28.66" font-family="Helvetica,sans-Serif" font-size="12.00">com.runehive.game.world.entity.mob.player.</text>
<text xml:space="preserve" text-anchor="middle" x="438.68" y="-14.41" font-family="Helvetica,sans-Serif" font-size="12.00">Player</text>
</a>
</g>
</g>
<!-- Node1&#45;&gt;Node3 -->
<g id="edge2_Node000001_Node000003" class="edge">
<title>Node1&#45;&gt;Node3</title>
<g id="a_edge2_Node000001_Node000003"><a xlink:title=" ">
<path fill="none" stroke="#63b8ff" d="M1054.22,-101C945.38,-89.26 772.21,-70.13 622.68,-51.62 607.35,-49.72 591.3,-47.66 575.36,-45.57"/>
<polygon fill="#63b8ff" stroke="#63b8ff" points="576.21,-42.15 565.84,-44.32 575.3,-49.09 576.21,-42.15"/>
</a>
</g>
</g>
<!-- Node4 -->
<g id="Node000004" class="node">
<title>Node4</title>
<g id="a_Node000004"><a xlink:title=" ">
<ellipse fill="#e0e0e0" stroke="#999999" cx="807.68" cy="-25.81" rx="175.72" ry="25.81"/>
<text xml:space="preserve" text-anchor="start" x="691.43" y="-28.66" font-family="Helvetica,sans-Serif" font-size="12.00">com.runehive.game.world.entity.mob.player.</text>
<text xml:space="preserve" text-anchor="middle" x="807.68" y="-14.41" font-family="Helvetica,sans-Serif" font-size="12.00">PlayerOption</text>
</a>
</g>
</g>
<!-- Node1&#45;&gt;Node4 -->
<g id="edge3_Node000001_Node000004" class="edge">
<title>Node1&#45;&gt;Node4</title>
<g id="a_edge3_Node000001_Node000004"><a xlink:title=" ">
<path fill="none" stroke="#63b8ff" d="M1083.12,-93.43C1031.46,-80.93 963.41,-64.47 907.87,-51.04"/>
<polygon fill="#63b8ff" stroke="#63b8ff" points="908.95,-47.7 898.41,-48.75 907.31,-54.51 908.95,-47.7"/>
</a>
</g>
</g>
<!-- Node5 -->
<g id="Node000005" class="node">
<title>Node5</title>
<g id="a_Node000005"><a xlink:title=" ">
<ellipse fill="#e0e0e0" stroke="#999999" cx="1161.68" cy="-25.81" rx="160.34" ry="15.73"/>
<text xml:space="preserve" text-anchor="middle" x="1161.68" y="-21.53" font-family="Helvetica,sans-Serif" font-size="12.00">com.runehive.game.world.position.Area</text>
</a>
</g>
</g>
<!-- Node1&#45;&gt;Node5 -->
<g id="edge4_Node000001_Node000005" class="edge">
<title>Node1&#45;&gt;Node5</title>
<g id="a_edge4_Node000001_Node000005"><a xlink:title=" ">
<path fill="none" stroke="#63b8ff" d="M1161.68,-87.2C1161.68,-76.52 1161.68,-64.08 1161.68,-53.27"/>
<polygon fill="#63b8ff" stroke="#63b8ff" points="1165.18,-53.45 1161.68,-43.45 1158.18,-53.45 1165.18,-53.45"/>
</a>
</g>
</g>
<!-- Node6 -->
<g id="Node000006" class="node">
<title>Node6</title>
<g id="a_Node000006"><a xlink:title=" ">
<ellipse fill="#e0e0e0" stroke="#999999" cx="1458.68" cy="-25.81" rx="118.97" ry="25.81"/>
<text xml:space="preserve" text-anchor="start" x="1382.56" y="-28.66" font-family="Helvetica,sans-Serif" font-size="12.00">com.runehive.net.packet.out.</text>
<text xml:space="preserve" text-anchor="middle" x="1458.68" y="-14.41" font-family="Helvetica,sans-Serif" font-size="12.00">SendPlayerOption</text>
</a>
</g>
</g>
<!-- Node1&#45;&gt;Node6 -->
<g id="edge5_Node000001_Node000006" class="edge">
<title>Node1&#45;&gt;Node6</title>
<g id="a_edge5_Node000001_Node000006"><a xlink:title=" ">
<path fill="none" stroke="#63b8ff" d="M1232.44,-92.03C1276.03,-79.46 1332.07,-63.31 1377.46,-50.22"/>
<polygon fill="#63b8ff" stroke="#63b8ff" points="1378.37,-53.6 1387.01,-47.47 1376.43,-46.88 1378.37,-53.6"/>
</a>
</g>
</g>
<!-- Node7 -->
<g id="Node000007" class="node">
<title>Node7</title>
<g id="a_Node000007"><a xlink:title=" ">
<ellipse fill="#e0e0e0" stroke="#999999" cx="1714.68" cy="-25.81" rx="118.97" ry="25.81"/>
<text xml:space="preserve" text-anchor="start" x="1638.56" y="-28.66" font-family="Helvetica,sans-Serif" font-size="12.00">com.runehive.net.packet.out.</text>
<text xml:space="preserve" text-anchor="middle" x="1714.68" y="-14.41" font-family="Helvetica,sans-Serif" font-size="12.00">SendString</text>
</a>
</g>
</g>
<!-- Node1&#45;&gt;Node7 -->
<g id="edge6_Node000001_Node000007" class="edge">
<title>Node1&#45;&gt;Node7</title>
<g id="a_edge6_Node000001_Node000007"><a xlink:title=" ">
<path fill="none" stroke="#63b8ff" d="M1264.09,-99.22C1350.31,-87.75 1476.8,-70.12 1586.68,-51.62 1596.68,-49.94 1607.1,-48.08 1617.49,-46.17"/>
<polygon fill="#63b8ff" stroke="#63b8ff" points="1618.05,-49.62 1627.24,-44.35 1616.76,-42.74 1618.05,-49.62"/>
</a>
</g>
</g>
<!-- Node8 -->
<g id="Node000008" class="node">
<title>Node8</title>
<g id="a_Node000008"><a xlink:title=" ">
<ellipse fill="#e0e0e0" stroke="#999999" cx="1969.68" cy="-25.81" rx="118.44" ry="15.73"/>
<text xml:space="preserve" text-anchor="middle" x="1969.68" y="-21.53" font-family="Helvetica,sans-Serif" font-size="12.00">java.util.concurrent.TimeUnit</text>
</a>
</g>
</g>
<!-- Node1&#45;&gt;Node8 -->
<g id="edge7_Node000001_Node000008" class="edge">
<title>Node1&#45;&gt;Node8</title>
<g id="a_edge7_Node000001_Node000008"><a xlink:title=" ">
<path fill="none" stroke="#63b8ff" d="M1278.39,-105.71C1414.35,-97.02 1645.54,-79.6 1842.68,-51.62 1860.92,-49.03 1880.5,-45.56 1898.69,-42.03"/>
<polygon fill="#63b8ff" stroke="#63b8ff" points="1899.2,-45.49 1908.33,-40.12 1897.84,-38.63 1899.2,-45.49"/>
</a>
</g>
</g>
</g>
</svg>
