<?xml version="1.0" encoding="UTF-8" standalone="no"?>
<!DOCTYPE svg PUBLIC "-//W3C//DTD SVG 1.1//EN"
 "http://www.w3.org/Graphics/SVG/1.1/DTD/svg11.dtd">
<!-- Generated by graphviz version 14.0.1 (20251006.0113)
 -->
<!-- Title: java/com/runehive/game/world/region/Region.java Pages: 1 -->
<svg width="2869pt" height="147pt"
 viewBox="0.00 0.00 2869.00 147.00" xmlns="http://www.w3.org/2000/svg" xmlns:xlink="http://www.w3.org/1999/xlink">
<g id="graph0" class="graph" transform="scale(1 1) rotate(0) translate(4 143.24)">
<title>java/com/runehive/game/world/region/Region.java</title>
<!-- Node1 -->
<g id="Node000001" class="node">
<title>Node1</title>
<g id="a_Node000001"><a xlink:title=" ">
<ellipse fill="#999999" stroke="#666666" cx="1621.49" cy="-113.43" rx="107.83" ry="25.81"/>
<text xml:space="preserve" text-anchor="start" x="1553.24" y="-116.28" font-family="Helvetica,sans-Serif" font-size="12.00">java/com/runehive/game</text>
<text xml:space="preserve" text-anchor="middle" x="1621.49" y="-102.03" font-family="Helvetica,sans-Serif" font-size="12.00">/world/region/Region.java</text>
</a>
</g>
</g>
<!-- Node2 -->
<g id="Node000002" class="node">
<title>Node2</title>
<g id="a_Node000002"><a xlink:title=" ">
<ellipse fill="#e0e0e0" stroke="#999999" cx="110.49" cy="-25.81" rx="110.49" ry="25.81"/>
<text xml:space="preserve" text-anchor="start" x="40.36" y="-28.66" font-family="Helvetica,sans-Serif" font-size="12.00">com.runehive.game.world.</text>
<text xml:space="preserve" text-anchor="middle" x="110.49" y="-14.41" font-family="Helvetica,sans-Serif" font-size="12.00">Interactable</text>
</a>
</g>
</g>
<!-- Node1&#45;&gt;Node2 -->
<g id="edge1_Node000001_Node000002" class="edge">
<title>Node1&#45;&gt;Node2</title>
<g id="a_edge1_Node000001_Node000002"><a xlink:title=" ">
<path fill="none" stroke="#63b8ff" d="M1514.12,-109.96C1232.71,-103.14 478.38,-82.46 230.49,-51.62 220.14,-50.33 209.37,-48.63 198.7,-46.72"/>
<polygon fill="#63b8ff" stroke="#63b8ff" points="199.6,-43.33 189.13,-44.93 198.32,-50.21 199.6,-43.33"/>
</a>
</g>
</g>
<!-- Node3 -->
<g id="Node000003" class="node">
<title>Node3</title>
<g id="a_Node000003"><a xlink:title=" ">
<ellipse fill="#e0e0e0" stroke="#999999" cx="421.49" cy="-25.81" rx="182.08" ry="15.73"/>
<text xml:space="preserve" text-anchor="middle" x="421.49" y="-21.53" font-family="Helvetica,sans-Serif" font-size="12.00">com.runehive.game.world.entity.mob.npc.Npc</text>
</a>
</g>
</g>
<!-- Node1&#45;&gt;Node3 -->
<g id="edge2_Node000001_Node000003" class="edge">
<title>Node1&#45;&gt;Node3</title>
<g id="a_edge2_Node000001_Node000003"><a xlink:title=" ">
<path fill="none" stroke="#63b8ff" d="M1515.25,-108.44C1331.13,-100.98 940.93,-82.81 612.49,-51.62 583.54,-48.87 552.22,-45.13 523.48,-41.38"/>
<polygon fill="#63b8ff" stroke="#63b8ff" points="524.05,-37.93 513.68,-40.09 523.14,-44.87 524.05,-37.93"/>
</a>
</g>
</g>
<!-- Node4 -->
<g id="Node000004" class="node">
<title>Node4</title>
<g id="a_Node000004"><a xlink:title=" ">
<ellipse fill="#e0e0e0" stroke="#999999" cx="797.49" cy="-25.81" rx="175.72" ry="25.81"/>
<text xml:space="preserve" text-anchor="start" x="681.24" y="-28.66" font-family="Helvetica,sans-Serif" font-size="12.00">com.runehive.game.world.entity.mob.player.</text>
<text xml:space="preserve" text-anchor="middle" x="797.49" y="-14.41" font-family="Helvetica,sans-Serif" font-size="12.00">Player</text>
</a>
</g>
</g>
<!-- Node1&#45;&gt;Node4 -->
<g id="edge3_Node000001_Node000004" class="edge">
<title>Node1&#45;&gt;Node4</title>
<g id="a_edge3_Node000001_Node000004"><a xlink:title=" ">
<path fill="none" stroke="#63b8ff" d="M1520.37,-104.01C1394.29,-93.24 1172.22,-73.36 982.49,-51.62 966.79,-49.82 950.36,-47.81 934.05,-45.73"/>
<polygon fill="#63b8ff" stroke="#63b8ff" points="934.66,-42.28 924.29,-44.47 933.76,-49.22 934.66,-42.28"/>
</a>
</g>
</g>
<!-- Node5 -->
<g id="Node000005" class="node">
<title>Node5</title>
<g id="a_Node000005"><a xlink:title=" ">
<ellipse fill="#e0e0e0" stroke="#999999" cx="1152.49" cy="-25.81" rx="161.4" ry="25.81"/>
<text xml:space="preserve" text-anchor="start" x="1046.36" y="-28.66" font-family="Helvetica,sans-Serif" font-size="12.00">com.runehive.game.world.items.ground.</text>
<text xml:space="preserve" text-anchor="middle" x="1152.49" y="-14.41" font-family="Helvetica,sans-Serif" font-size="12.00">GroundItem</text>
</a>
</g>
</g>
<!-- Node1&#45;&gt;Node5 -->
<g id="edge4_Node000001_Node000005" class="edge">
<title>Node1&#45;&gt;Node5</title>
<g id="a_edge4_Node000001_Node000005"><a xlink:title=" ">
<path fill="none" stroke="#63b8ff" d="M1537.1,-97.02C1461.96,-83.31 1351.35,-63.11 1268.01,-47.9"/>
<polygon fill="#63b8ff" stroke="#63b8ff" points="1268.66,-44.46 1258.19,-46.11 1267.4,-51.35 1268.66,-44.46"/>
</a>
</g>
</g>
<!-- Node6 -->
<g id="Node000006" class="node">
<title>Node6</title>
<g id="a_Node000006"><a xlink:title=" ">
<ellipse fill="#e0e0e0" stroke="#999999" cx="1467.49" cy="-25.81" rx="135.41" ry="25.81"/>
<text xml:space="preserve" text-anchor="start" x="1379.74" y="-28.66" font-family="Helvetica,sans-Serif" font-size="12.00">com.runehive.game.world.object.</text>
<text xml:space="preserve" text-anchor="middle" x="1467.49" y="-14.41" font-family="Helvetica,sans-Serif" font-size="12.00">GameObject</text>
</a>
</g>
</g>
<!-- Node1&#45;&gt;Node6 -->
<g id="edge5_Node000001_Node000006" class="edge">
<title>Node1&#45;&gt;Node6</title>
<g id="a_edge5_Node000001_Node000006"><a xlink:title=" ">
<path fill="none" stroke="#63b8ff" d="M1579.81,-89.26C1561.53,-79.09 1539.86,-67.05 1520.45,-56.26"/>
<polygon fill="#63b8ff" stroke="#63b8ff" points="1522.3,-53.28 1511.86,-51.48 1518.9,-59.4 1522.3,-53.28"/>
</a>
</g>
</g>
<!-- Node7 -->
<g id="Node000007" class="node">
<title>Node7</title>
<g id="a_Node000007"><a xlink:title=" ">
<ellipse fill="#e0e0e0" stroke="#999999" cx="1775.49" cy="-25.81" rx="154.5" ry="25.81"/>
<text xml:space="preserve" text-anchor="start" x="1674.24" y="-28.66" font-family="Helvetica,sans-Serif" font-size="12.00">com.runehive.game.world.pathfinding.</text>
<text xml:space="preserve" text-anchor="middle" x="1775.49" y="-14.41" font-family="Helvetica,sans-Serif" font-size="12.00">TraversalMap</text>
</a>
</g>
</g>
<!-- Node1&#45;&gt;Node7 -->
<g id="edge6_Node000001_Node000007" class="edge">
<title>Node1&#45;&gt;Node7</title>
<g id="a_edge6_Node000001_Node000007"><a xlink:title=" ">
<path fill="none" stroke="#63b8ff" d="M1663.16,-89.26C1681.29,-79.18 1702.75,-67.25 1722.04,-56.52"/>
<polygon fill="#63b8ff" stroke="#63b8ff" points="1723.53,-59.7 1730.57,-51.78 1720.13,-53.58 1723.53,-59.7"/>
</a>
</g>
</g>
<!-- Node8 -->
<g id="Node000008" class="node">
<title>Node8</title>
<g id="a_Node000008"><a xlink:title=" ">
<ellipse fill="#e0e0e0" stroke="#999999" cx="2090.49" cy="-25.81" rx="142.31" ry="25.81"/>
<text xml:space="preserve" text-anchor="start" x="1997.86" y="-28.66" font-family="Helvetica,sans-Serif" font-size="12.00">com.runehive.game.world.position.</text>
<text xml:space="preserve" text-anchor="middle" x="2090.49" y="-14.41" font-family="Helvetica,sans-Serif" font-size="12.00">Position</text>
</a>
</g>
</g>
<!-- Node1&#45;&gt;Node8 -->
<g id="edge7_Node000001_Node000008" class="edge">
<title>Node1&#45;&gt;Node8</title>
<g id="a_edge7_Node000001_Node000008"><a xlink:title=" ">
<path fill="none" stroke="#63b8ff" d="M1705.87,-97.02C1782.86,-82.97 1897.07,-62.12 1981.04,-46.79"/>
<polygon fill="#63b8ff" stroke="#63b8ff" points="1981.46,-50.27 1990.67,-45.03 1980.21,-43.38 1981.46,-50.27"/>
</a>
</g>
</g>
<!-- Node9 -->
<g id="Node000009" class="node">
<title>Node9</title>
<g id="a_Node000009"><a xlink:title=" ">
<ellipse fill="#e0e0e0" stroke="#999999" cx="2349.49" cy="-25.81" rx="98.82" ry="15.73"/>
<text xml:space="preserve" text-anchor="middle" x="2349.49" y="-21.53" font-family="Helvetica,sans-Serif" font-size="12.00">com.runehive.util.Utility</text>
</a>
</g>
</g>
<!-- Node1&#45;&gt;Node9 -->
<g id="edge8_Node000001_Node000009" class="edge">
<title>Node1&#45;&gt;Node9</title>
<g id="a_edge8_Node000001_Node000009"><a xlink:title=" ">
<path fill="none" stroke="#63b8ff" d="M1725.68,-106.3C1849.3,-98.08 2061.36,-81.02 2241.49,-51.62 2256.76,-49.13 2273.11,-45.75 2288.34,-42.29"/>
<polygon fill="#63b8ff" stroke="#63b8ff" points="2288.78,-45.78 2297.73,-40.11 2287.19,-38.96 2288.78,-45.78"/>
</a>
</g>
</g>
<!-- Node10 -->
<g id="Node000010" class="node">
<title>Node10</title>
<g id="a_Node000010"><a xlink:title=" ">
<ellipse fill="#e0e0e0" stroke="#999999" cx="2512.49" cy="-25.81" rx="45.79" ry="15.73"/>
<text xml:space="preserve" text-anchor="middle" x="2512.49" y="-21.53" font-family="Helvetica,sans-Serif" font-size="12.00">java.util.*</text>
</a>
</g>
</g>
<!-- Node1&#45;&gt;Node10 -->
<g id="edge9_Node000001_Node000010" class="edge">
<title>Node1&#45;&gt;Node10</title>
<g id="a_edge9_Node000001_Node000010"><a xlink:title=" ">
<path fill="none" stroke="#63b8ff" d="M1728.23,-109.31C1921.62,-102.89 2322.42,-85.85 2457.49,-51.62 2464.48,-49.85 2471.7,-47.23 2478.51,-44.35"/>
<polygon fill="#63b8ff" stroke="#63b8ff" points="2479.74,-47.64 2487.4,-40.33 2476.85,-41.26 2479.74,-47.64"/>
</a>
</g>
</g>
<!-- Node11 -->
<g id="Node000011" class="node">
<title>Node11</title>
<g id="a_Node000011"><a xlink:title=" ">
<ellipse fill="#e0e0e0" stroke="#999999" cx="2718.49" cy="-25.81" rx="142.31" ry="25.81"/>
<text xml:space="preserve" text-anchor="start" x="2625.86" y="-28.66" font-family="Helvetica,sans-Serif" font-size="12.00">com.runehive.game.world.position.</text>
<text xml:space="preserve" text-anchor="middle" x="2718.49" y="-14.41" font-family="Helvetica,sans-Serif" font-size="12.00">Position.HEIGHT_LEVELS</text>
</a>
</g>
</g>
<!-- Node1&#45;&gt;Node11 -->
<g id="edge10_Node000001_Node000011" class="edge">
<title>Node1&#45;&gt;Node11</title>
<g id="a_edge10_Node000001_Node000011"><a xlink:title=" ">
<path fill="none" stroke="#63b8ff" d="M1728.19,-109C1903.72,-102.59 2264.16,-86.2 2567.49,-51.62 2580.48,-50.14 2594.05,-48.31 2607.51,-46.32"/>
<polygon fill="#63b8ff" stroke="#63b8ff" points="2607.91,-49.8 2617.28,-44.84 2606.87,-42.88 2607.91,-49.8"/>
</a>
</g>
</g>
</g>
</svg>
