<?xml version="1.0" encoding="UTF-8" standalone="no"?>
<!DOCTYPE svg PUBLIC "-//W3C//DTD SVG 1.1//EN"
 "http://www.w3.org/Graphics/SVG/1.1/DTD/svg11.dtd">
<!-- Generated by graphviz version 14.0.1 (20251006.0113)
 -->
<!-- Title: java/com/runehive/content/skill/impl/runecrafting/Runecraft.java Pages: 1 -->
<svg width="5127pt" height="167pt"
 viewBox="0.00 0.00 5127.00 167.00" xmlns="http://www.w3.org/2000/svg" xmlns:xlink="http://www.w3.org/1999/xlink">
<g id="graph0" class="graph" transform="scale(1 1) rotate(0) translate(4 163.39)">
<title>java/com/runehive/content/skill/impl/runecrafting/Runecraft.java</title>
<!-- Node1 -->
<g id="Node000001" class="node">
<title>Node1</title>
<g id="a_Node000001"><a xlink:title=" ">
<ellipse fill="#999999" stroke="#666666" cx="2605.27" cy="-123.5" rx="109.96" ry="35.89"/>
<text xml:space="preserve" text-anchor="start" x="2535.52" y="-133.48" font-family="Helvetica,sans-Serif" font-size="12.00">java/com/runehive/content</text>
<text xml:space="preserve" text-anchor="start" x="2535.52" y="-119.23" font-family="Helvetica,sans-Serif" font-size="12.00">/skill/impl/runecrafting</text>
<text xml:space="preserve" text-anchor="middle" x="2605.27" y="-104.98" font-family="Helvetica,sans-Serif" font-size="12.00">/Runecraft.java</text>
</a>
</g>
</g>
<!-- Node2 -->
<g id="Node000002" class="node">
<title>Node2</title>
<g id="a_Node000002"><a xlink:title=" ">
<ellipse fill="#e0e0e0" stroke="#999999" cx="89.27" cy="-25.81" rx="89.27" ry="15.73"/>
<text xml:space="preserve" text-anchor="middle" x="89.27" y="-21.53" font-family="Helvetica,sans-Serif" font-size="12.00">com.runehive.Config</text>
</a>
</g>
</g>
<!-- Node1&#45;&gt;Node2 -->
<g id="edge1_Node000001_Node000002" class="edge">
<title>Node1&#45;&gt;Node2</title>
<g id="a_edge1_Node000001_Node000002"><a xlink:title=" ">
<path fill="none" stroke="#63b8ff" d="M2495.18,-122.43C2084.6,-121.68 642.97,-114.5 188.27,-51.62 173.59,-49.59 157.92,-46.23 143.49,-42.64"/>
<polygon fill="#63b8ff" stroke="#63b8ff" points="144.76,-39.35 134.2,-40.24 143.01,-46.13 144.76,-39.35"/>
</a>
</g>
</g>
<!-- Node3 -->
<g id="Node000003" class="node">
<title>Node3</title>
<g id="a_Node000003"><a xlink:title=" ">
<ellipse fill="#e0e0e0" stroke="#999999" cx="341.27" cy="-25.81" rx="144.43" ry="25.81"/>
<text xml:space="preserve" text-anchor="start" x="247.15" y="-28.66" font-family="Helvetica,sans-Serif" font-size="12.00">com.runehive.content.achievement.</text>
<text xml:space="preserve" text-anchor="middle" x="341.27" y="-14.41" font-family="Helvetica,sans-Serif" font-size="12.00">AchievementHandler</text>
</a>
</g>
</g>
<!-- Node1&#45;&gt;Node3 -->
<g id="edge2_Node000001_Node000003" class="edge">
<title>Node1&#45;&gt;Node3</title>
<g id="a_edge2_Node000001_Node000003"><a xlink:title=" ">
<path fill="none" stroke="#63b8ff" d="M2495.36,-120.65C2119.82,-114.01 889.16,-89.81 495.27,-51.62 481.31,-50.27 466.69,-48.44 452.26,-46.4"/>
<polygon fill="#63b8ff" stroke="#63b8ff" points="453.17,-42.99 442.77,-45.01 452.16,-49.92 453.17,-42.99"/>
</a>
</g>
</g>
<!-- Node4 -->
<g id="Node000004" class="node">
<title>Node4</title>
<g id="a_Node000004"><a xlink:title=" ">
<ellipse fill="#e0e0e0" stroke="#999999" cx="648.27" cy="-25.81" rx="144.43" ry="25.81"/>
<text xml:space="preserve" text-anchor="start" x="554.15" y="-28.66" font-family="Helvetica,sans-Serif" font-size="12.00">com.runehive.content.achievement.</text>
<text xml:space="preserve" text-anchor="middle" x="648.27" y="-14.41" font-family="Helvetica,sans-Serif" font-size="12.00">AchievementKey</text>
</a>
</g>
</g>
<!-- Node1&#45;&gt;Node4 -->
<g id="edge3_Node000001_Node000004" class="edge">
<title>Node1&#45;&gt;Node4</title>
<g id="a_edge3_Node000001_Node000004"><a xlink:title=" ">
<path fill="none" stroke="#63b8ff" d="M2494.87,-122.82C2212.35,-122.63 1440.41,-115.76 801.27,-51.62 787.65,-50.25 773.39,-48.45 759.29,-46.43"/>
<polygon fill="#63b8ff" stroke="#63b8ff" points="759.94,-42.99 749.54,-45 758.92,-49.92 759.94,-42.99"/>
</a>
</g>
</g>
<!-- Node5 -->
<g id="Node000005" class="node">
<title>Node5</title>
<g id="a_Node000005"><a xlink:title=" ">
<ellipse fill="#e0e0e0" stroke="#999999" cx="983.27" cy="-25.81" rx="173.06" ry="25.81"/>
<text xml:space="preserve" text-anchor="start" x="868.9" y="-28.66" font-family="Helvetica,sans-Serif" font-size="12.00">com.runehive.content.activity.randomevent.</text>
<text xml:space="preserve" text-anchor="middle" x="983.27" y="-14.41" font-family="Helvetica,sans-Serif" font-size="12.00">RandomEventHandler</text>
</a>
</g>
</g>
<!-- Node1&#45;&gt;Node5 -->
<g id="edge4_Node000001_Node000005" class="edge">
<title>Node1&#45;&gt;Node5</title>
<g id="a_edge4_Node000001_Node000005"><a xlink:title=" ">
<path fill="none" stroke="#63b8ff" d="M2495.3,-120.33C2254.04,-114.84 1660.32,-97.46 1165.27,-51.62 1148.86,-50.1 1131.66,-48.18 1114.66,-46.09"/>
<polygon fill="#63b8ff" stroke="#63b8ff" points="1115.38,-42.65 1105.02,-44.88 1114.51,-49.6 1115.38,-42.65"/>
</a>
</g>
</g>
<!-- Node6 -->
<g id="Node000006" class="node">
<title>Node6</title>
<g id="a_Node000006"><a xlink:title=" ">
<ellipse fill="#e0e0e0" stroke="#999999" cx="1346.27" cy="-25.81" rx="172" ry="25.81"/>
<text xml:space="preserve" text-anchor="start" x="1232.65" y="-28.66" font-family="Helvetica,sans-Serif" font-size="12.00">com.runehive.content.clanchannel.content.</text>
<text xml:space="preserve" text-anchor="middle" x="1346.27" y="-14.41" font-family="Helvetica,sans-Serif" font-size="12.00">ClanTaskKey</text>
</a>
</g>
</g>
<!-- Node1&#45;&gt;Node6 -->
<g id="edge5_Node000001_Node000006" class="edge">
<title>Node1&#45;&gt;Node6</title>
<g id="a_edge5_Node000001_Node000006"><a xlink:title=" ">
<path fill="none" stroke="#63b8ff" d="M2496.42,-117.89C2301.67,-109.07 1880.88,-87.43 1527.27,-51.62 1511.38,-50.01 1494.73,-48.07 1478.24,-46"/>
<polygon fill="#63b8ff" stroke="#63b8ff" points="1478.72,-42.53 1468.36,-44.74 1477.84,-49.48 1478.72,-42.53"/>
</a>
</g>
</g>
<!-- Node7 -->
<g id="Node000007" class="node">
<title>Node7</title>
<g id="a_Node000007"><a xlink:title=" ">
<ellipse fill="#e0e0e0" stroke="#999999" cx="1671.27" cy="-25.81" rx="134.88" ry="25.81"/>
<text xml:space="preserve" text-anchor="start" x="1583.9" y="-28.66" font-family="Helvetica,sans-Serif" font-size="12.00">com.runehive.content.event.impl.</text>
<text xml:space="preserve" text-anchor="middle" x="1671.27" y="-14.41" font-family="Helvetica,sans-Serif" font-size="12.00">ItemInteractionEvent</text>
</a>
</g>
</g>
<!-- Node1&#45;&gt;Node7 -->
<g id="edge6_Node000001_Node000007" class="edge">
<title>Node1&#45;&gt;Node7</title>
<g id="a_edge6_Node000001_Node000007"><a xlink:title=" ">
<path fill="none" stroke="#63b8ff" d="M2497.63,-115.63C2345.31,-105.26 2058.32,-83.41 1815.27,-51.62 1803.11,-50.03 1790.41,-48.15 1777.81,-46.16"/>
<polygon fill="#63b8ff" stroke="#63b8ff" points="1778.69,-42.76 1768.26,-44.62 1777.58,-49.67 1778.69,-42.76"/>
</a>
</g>
</g>
<!-- Node8 -->
<g id="Node000008" class="node">
<title>Node8</title>
<g id="a_Node000008"><a xlink:title=" ">
<ellipse fill="#e0e0e0" stroke="#999999" cx="1959.27" cy="-25.81" rx="134.88" ry="25.81"/>
<text xml:space="preserve" text-anchor="start" x="1871.9" y="-28.66" font-family="Helvetica,sans-Serif" font-size="12.00">com.runehive.content.event.impl.</text>
<text xml:space="preserve" text-anchor="middle" x="1959.27" y="-14.41" font-family="Helvetica,sans-Serif" font-size="12.00">ObjectInteractionEvent</text>
</a>
</g>
</g>
<!-- Node1&#45;&gt;Node8 -->
<g id="edge7_Node000001_Node000008" class="edge">
<title>Node1&#45;&gt;Node8</title>
<g id="a_edge7_Node000001_Node000008"><a xlink:title=" ">
<path fill="none" stroke="#63b8ff" d="M2504.18,-109.15C2402.71,-95.52 2241.97,-73.35 2103.27,-51.62 2091.88,-49.83 2079.99,-47.9 2068.14,-45.93"/>
<polygon fill="#63b8ff" stroke="#63b8ff" points="2068.74,-42.48 2058.3,-44.28 2067.58,-49.38 2068.74,-42.48"/>
</a>
</g>
</g>
<!-- Node9 -->
<g id="Node000009" class="node">
<title>Node9</title>
<g id="a_Node000009"><a xlink:title=" ">
<ellipse fill="#e0e0e0" stroke="#999999" cx="2220.27" cy="-25.81" rx="107.83" ry="25.81"/>
<text xml:space="preserve" text-anchor="start" x="2152.02" y="-28.66" font-family="Helvetica,sans-Serif" font-size="12.00">com.runehive.content.pet.</text>
<text xml:space="preserve" text-anchor="middle" x="2220.27" y="-14.41" font-family="Helvetica,sans-Serif" font-size="12.00">PetData</text>
</a>
</g>
</g>
<!-- Node1&#45;&gt;Node9 -->
<g id="edge8_Node000001_Node000009" class="edge">
<title>Node1&#45;&gt;Node9</title>
<g id="a_edge8_Node000001_Node000009"><a xlink:title=" ">
<path fill="none" stroke="#63b8ff" d="M2518.87,-101.03C2454.85,-85.11 2368.05,-63.54 2304.54,-47.75"/>
<polygon fill="#63b8ff" stroke="#63b8ff" points="2305.77,-44.46 2295.23,-45.44 2304.09,-51.25 2305.77,-44.46"/>
</a>
</g>
</g>
<!-- Node10 -->
<g id="Node000010" class="node">
<title>Node10</title>
<g id="a_Node000010"><a xlink:title=" ">
<ellipse fill="#e0e0e0" stroke="#999999" cx="2471.27" cy="-25.81" rx="124.8" ry="15.73"/>
<text xml:space="preserve" text-anchor="middle" x="2471.27" y="-21.53" font-family="Helvetica,sans-Serif" font-size="12.00">com.runehive.content.pet.Pets</text>
</a>
</g>
</g>
<!-- Node1&#45;&gt;Node10 -->
<g id="edge9_Node000001_Node000010" class="edge">
<title>Node1&#45;&gt;Node10</title>
<g id="a_edge9_Node000001_Node000010"><a xlink:title=" ">
<path fill="none" stroke="#63b8ff" d="M2560.28,-90.37C2540.78,-76.45 2518.48,-60.52 2501.08,-48.09"/>
<polygon fill="#63b8ff" stroke="#63b8ff" points="2503.37,-45.43 2493.19,-42.46 2499.3,-51.12 2503.37,-45.43"/>
</a>
</g>
</g>
<!-- Node11 -->
<g id="Node000011" class="node">
<title>Node11</title>
<g id="a_Node000011"><a xlink:title=" ">
<ellipse fill="#e0e0e0" stroke="#999999" cx="2740.27" cy="-25.81" rx="125.87" ry="15.73"/>
<text xml:space="preserve" text-anchor="middle" x="2740.27" y="-21.53" font-family="Helvetica,sans-Serif" font-size="12.00">com.runehive.game.Animation</text>
</a>
</g>
</g>
<!-- Node1&#45;&gt;Node11 -->
<g id="edge10_Node000001_Node000011" class="edge">
<title>Node1&#45;&gt;Node11</title>
<g id="a_edge10_Node000001_Node000011"><a xlink:title=" ">
<path fill="none" stroke="#63b8ff" d="M2650.6,-90.37C2670.25,-76.45 2692.72,-60.52 2710.25,-48.09"/>
<polygon fill="#63b8ff" stroke="#63b8ff" points="2712.06,-51.1 2718.19,-42.46 2708.01,-45.39 2712.06,-51.1"/>
</a>
</g>
</g>
<!-- Node12 -->
<g id="Node000012" class="node">
<title>Node12</title>
<g id="a_Node000012"><a xlink:title=" ">
<ellipse fill="#e0e0e0" stroke="#999999" cx="3001.27" cy="-25.81" rx="117.38" ry="15.73"/>
<text xml:space="preserve" text-anchor="middle" x="3001.27" y="-21.53" font-family="Helvetica,sans-Serif" font-size="12.00">com.runehive.game.Graphic</text>
</a>
</g>
</g>
<!-- Node1&#45;&gt;Node12 -->
<g id="edge11_Node000001_Node000012" class="edge">
<title>Node1&#45;&gt;Node12</title>
<g id="a_edge11_Node000001_Node000012"><a xlink:title=" ">
<path fill="none" stroke="#63b8ff" d="M2692.67,-101.39C2765.77,-83.72 2868.48,-58.9 2934.96,-42.83"/>
<polygon fill="#63b8ff" stroke="#63b8ff" points="2935.75,-46.24 2944.65,-40.49 2934.11,-39.44 2935.75,-46.24"/>
</a>
</g>
</g>
<!-- Node13 -->
<g id="Node000013" class="node">
<title>Node13</title>
<g id="a_Node000013"><a xlink:title=" ">
<ellipse fill="#e0e0e0" stroke="#999999" cx="3247.27" cy="-25.81" rx="110.49" ry="25.81"/>
<text xml:space="preserve" text-anchor="start" x="3177.15" y="-28.66" font-family="Helvetica,sans-Serif" font-size="12.00">com.runehive.game.world.</text>
<text xml:space="preserve" text-anchor="middle" x="3247.27" y="-14.41" font-family="Helvetica,sans-Serif" font-size="12.00">World</text>
</a>
</g>
</g>
<!-- Node1&#45;&gt;Node13 -->
<g id="edge12_Node000001_Node000013" class="edge">
<title>Node1&#45;&gt;Node13</title>
<g id="a_edge12_Node000001_Node000013"><a xlink:title=" ">
<path fill="none" stroke="#63b8ff" d="M2708.11,-110.66C2813.62,-98.02 2982.36,-76.41 3127.27,-51.62 3136.79,-49.99 3146.71,-48.16 3156.59,-46.25"/>
<polygon fill="#63b8ff" stroke="#63b8ff" points="3157.08,-49.72 3166.22,-44.35 3155.73,-42.85 3157.08,-49.72"/>
</a>
</g>
</g>
<!-- Node14 -->
<g id="Node000014" class="node">
<title>Node14</title>
<g id="a_Node000014"><a xlink:title=" ">
<ellipse fill="#e0e0e0" stroke="#999999" cx="3551.27" cy="-25.81" rx="175.72" ry="25.81"/>
<text xml:space="preserve" text-anchor="start" x="3435.02" y="-28.66" font-family="Helvetica,sans-Serif" font-size="12.00">com.runehive.game.world.entity.mob.player.</text>
<text xml:space="preserve" text-anchor="middle" x="3551.27" y="-14.41" font-family="Helvetica,sans-Serif" font-size="12.00">Player</text>
</a>
</g>
</g>
<!-- Node1&#45;&gt;Node14 -->
<g id="edge13_Node000001_Node000014" class="edge">
<title>Node1&#45;&gt;Node14</title>
<g id="a_edge13_Node000001_Node000014"><a xlink:title=" ">
<path fill="none" stroke="#63b8ff" d="M2711.6,-113.97C2858.84,-101.83 3133.08,-78.11 3366.27,-51.62 3382.1,-49.82 3398.67,-47.8 3415.11,-45.71"/>
<polygon fill="#63b8ff" stroke="#63b8ff" points="3415.49,-49.19 3424.97,-44.44 3414.6,-42.24 3415.49,-49.19"/>
</a>
</g>
</g>
<!-- Node15 -->
<g id="Node000015" class="node">
<title>Node15</title>
<g id="a_Node000015"><a xlink:title=" ">
<ellipse fill="#e0e0e0" stroke="#999999" cx="3894.27" cy="-25.81" rx="149.2" ry="25.81"/>
<text xml:space="preserve" text-anchor="start" x="3796.77" y="-28.66" font-family="Helvetica,sans-Serif" font-size="12.00">com.runehive.game.world.entity.skill.</text>
<text xml:space="preserve" text-anchor="middle" x="3894.27" y="-14.41" font-family="Helvetica,sans-Serif" font-size="12.00">Skill</text>
</a>
</g>
</g>
<!-- Node1&#45;&gt;Node15 -->
<g id="edge14_Node000001_Node000015" class="edge">
<title>Node1&#45;&gt;Node15</title>
<g id="a_edge14_Node000001_Node000015"><a xlink:title=" ">
<path fill="none" stroke="#63b8ff" d="M2714.74,-119.03C2917.01,-111.87 3362.74,-92.56 3736.27,-51.62 3749.99,-50.11 3764.34,-48.26 3778.56,-46.25"/>
<polygon fill="#63b8ff" stroke="#63b8ff" points="3779.03,-49.72 3788.42,-44.82 3778.02,-42.79 3779.03,-49.72"/>
</a>
</g>
</g>
<!-- Node16 -->
<g id="Node000016" class="node">
<title>Node16</title>
<g id="a_Node000016"><a xlink:title=" ">
<ellipse fill="#e0e0e0" stroke="#999999" cx="4210.27" cy="-25.81" rx="148.67" ry="15.73"/>
<text xml:space="preserve" text-anchor="middle" x="4210.27" y="-21.53" font-family="Helvetica,sans-Serif" font-size="12.00">com.runehive.game.world.items.Item</text>
</a>
</g>
</g>
<!-- Node1&#45;&gt;Node16 -->
<g id="edge15_Node000001_Node000016" class="edge">
<title>Node1&#45;&gt;Node16</title>
<g id="a_edge15_Node000001_Node000016"><a xlink:title=" ">
<path fill="none" stroke="#63b8ff" d="M2715.4,-121.12C2957.69,-117.19 3555,-102.69 4052.27,-51.62 4076.36,-49.15 4102.36,-45.48 4126.19,-41.72"/>
<polygon fill="#63b8ff" stroke="#63b8ff" points="4126.52,-45.21 4135.83,-40.17 4125.41,-38.3 4126.52,-45.21"/>
</a>
</g>
</g>
<!-- Node17 -->
<g id="Node000017" class="node">
<title>Node17</title>
<g id="a_Node000017"><a xlink:title=" ">
<ellipse fill="#e0e0e0" stroke="#999999" cx="4512.27" cy="-25.81" rx="135.41" ry="25.81"/>
<text xml:space="preserve" text-anchor="start" x="4424.52" y="-28.66" font-family="Helvetica,sans-Serif" font-size="12.00">com.runehive.game.world.object.</text>
<text xml:space="preserve" text-anchor="middle" x="4512.27" y="-14.41" font-family="Helvetica,sans-Serif" font-size="12.00">GameObject</text>
</a>
</g>
</g>
<!-- Node1&#45;&gt;Node17 -->
<g id="edge16_Node000001_Node000017" class="edge">
<title>Node1&#45;&gt;Node17</title>
<g id="a_edge16_Node000001_Node000017"><a xlink:title=" ">
<path fill="none" stroke="#63b8ff" d="M2715.49,-123.05C2993.53,-123.36 3745.7,-117.48 4368.27,-51.62 4380.98,-50.27 4394.27,-48.5 4407.41,-46.51"/>
<polygon fill="#63b8ff" stroke="#63b8ff" points="4407.57,-50.03 4416.91,-45.03 4406.49,-43.11 4407.57,-50.03"/>
</a>
</g>
</g>
<!-- Node18 -->
<g id="Node000018" class="node">
<title>Node18</title>
<g id="a_Node000018"><a xlink:title=" ">
<ellipse fill="#e0e0e0" stroke="#999999" cx="4784.27" cy="-25.81" rx="118.97" ry="25.81"/>
<text xml:space="preserve" text-anchor="start" x="4708.15" y="-28.66" font-family="Helvetica,sans-Serif" font-size="12.00">com.runehive.net.packet.out.</text>
<text xml:space="preserve" text-anchor="middle" x="4784.27" y="-14.41" font-family="Helvetica,sans-Serif" font-size="12.00">SendMessage</text>
</a>
</g>
</g>
<!-- Node1&#45;&gt;Node18 -->
<g id="edge17_Node000001_Node000018" class="edge">
<title>Node1&#45;&gt;Node18</title>
<g id="a_edge17_Node000001_Node000018"><a xlink:title=" ">
<path fill="none" stroke="#63b8ff" d="M2715.35,-120.98C3084.27,-115.51 4275.15,-94.87 4656.27,-51.62 4667.44,-50.35 4679.08,-48.64 4690.61,-46.71"/>
<polygon fill="#63b8ff" stroke="#63b8ff" points="4690.85,-50.22 4700.1,-45.06 4689.65,-43.33 4690.85,-50.22"/>
</a>
</g>
</g>
<!-- Node19 -->
<g id="Node000019" class="node">
<title>Node19</title>
<g id="a_Node000019"><a xlink:title=" ">
<ellipse fill="#e0e0e0" stroke="#999999" cx="5020.27" cy="-25.81" rx="98.82" ry="15.73"/>
<text xml:space="preserve" text-anchor="middle" x="5020.27" y="-21.53" font-family="Helvetica,sans-Serif" font-size="12.00">com.runehive.util.Utility</text>
</a>
</g>
</g>
<!-- Node1&#45;&gt;Node19 -->
<g id="edge18_Node000001_Node000019" class="edge">
<title>Node1&#45;&gt;Node19</title>
<g id="a_edge18_Node000001_Node000019"><a xlink:title=" ">
<path fill="none" stroke="#63b8ff" d="M2715.41,-121.97C3113.87,-119.58 4479.58,-107.42 4912.27,-51.62 4928.24,-49.56 4945.31,-46.2 4961.05,-42.6"/>
<polygon fill="#63b8ff" stroke="#63b8ff" points="4961.85,-46.01 4970.78,-40.3 4960.24,-39.2 4961.85,-46.01"/>
</a>
</g>
</g>
</g>
</svg>
