<?xml version="1.0" encoding="UTF-8" standalone="no"?>
<!DOCTYPE svg PUBLIC "-//W3C//DTD SVG 1.1//EN"
 "http://www.w3.org/Graphics/SVG/1.1/DTD/svg11.dtd">
<!-- Generated by graphviz version 14.0.1 (20251006.0113)
 -->
<!-- Title: java/com/runehive/RuneHive.java Pages: 1 -->
<svg width="14268pt" height="127pt"
 viewBox="0.00 0.00 14268.00 127.00" xmlns="http://www.w3.org/2000/svg" xmlns:xlink="http://www.w3.org/1999/xlink">
<g id="graph0" class="graph" transform="scale(1 1) rotate(0) translate(4 123.09)">
<title>java/com/runehive/RuneHive.java</title>
<!-- Node1 -->
<g id="Node000001" class="node">
<title>Node1</title>
<g id="a_Node000001"><a xlink:title=" ">
<ellipse fill="#999999" stroke="#666666" cx="6748.02" cy="-103.35" rx="138.59" ry="15.73"/>
<text xml:space="preserve" text-anchor="middle" x="6748.02" y="-99.08" font-family="Helvetica,sans-Serif" font-size="12.00">java/com/runehive/RuneHive.java</text>
</a>
</g>
</g>
<!-- Node2 -->
<g id="Node000002" class="node">
<title>Node2</title>
<g id="a_Node000002"><a xlink:title=" ">
<ellipse fill="#e0e0e0" stroke="#999999" cx="111.02" cy="-25.81" rx="111.02" ry="25.81"/>
<text xml:space="preserve" text-anchor="start" x="40.52" y="-28.66" font-family="Helvetica,sans-Serif" font-size="12.00">com.runehive.content.Well</text>
<text xml:space="preserve" text-anchor="middle" x="111.02" y="-14.41" font-family="Helvetica,sans-Serif" font-size="12.00">OfGoodwill</text>
</a>
</g>
</g>
<!-- Node1&#45;&gt;Node2 -->
<g id="edge1_Node000001_Node000002" class="edge">
<title>Node1&#45;&gt;Node2</title>
<g id="a_edge1_Node000001_Node000002"><a xlink:title=" ">
<path fill="none" stroke="#63b8ff" d="M6609.43,-102.04C5695.36,-99.92 558.93,-86.45 231.02,-51.62 220.5,-50.5 209.54,-48.88 198.7,-47"/>
<polygon fill="#63b8ff" stroke="#63b8ff" points="199.44,-43.57 188.97,-45.22 198.18,-50.46 199.44,-43.57"/>
</a>
</g>
</g>
<!-- Node3 -->
<g id="Node000003" class="node">
<title>Node3</title>
<g id="a_Node000003"><a xlink:title=" ">
<ellipse fill="#e0e0e0" stroke="#999999" cx="382.02" cy="-25.81" rx="142.31" ry="25.81"/>
<text xml:space="preserve" text-anchor="start" x="289.39" y="-28.66" font-family="Helvetica,sans-Serif" font-size="12.00">com.runehive.content.bloodmoney.</text>
<text xml:space="preserve" text-anchor="middle" x="382.02" y="-14.41" font-family="Helvetica,sans-Serif" font-size="12.00">BloodChestEvent</text>
</a>
</g>
</g>
<!-- Node1&#45;&gt;Node3 -->
<g id="edge2_Node000001_Node000003" class="edge">
<title>Node1&#45;&gt;Node3</title>
<g id="a_edge2_Node000001_Node000003"><a xlink:title=" ">
<path fill="none" stroke="#63b8ff" d="M6609.46,-102.5C5749.46,-103.25 1157.16,-104.7 534.02,-51.62 519.9,-50.42 505.11,-48.65 490.54,-46.6"/>
<polygon fill="#63b8ff" stroke="#63b8ff" points="491.35,-43.18 480.95,-45.2 490.34,-50.11 491.35,-43.18"/>
</a>
</g>
</g>
<!-- Node4 -->
<g id="Node000004" class="node">
<title>Node4</title>
<g id="a_Node000004"><a xlink:title=" ">
<ellipse fill="#e0e0e0" stroke="#999999" cx="685.02" cy="-25.81" rx="142.31" ry="25.81"/>
<text xml:space="preserve" text-anchor="start" x="592.39" y="-28.66" font-family="Helvetica,sans-Serif" font-size="12.00">com.runehive.content.clanchannel.</text>
<text xml:space="preserve" text-anchor="middle" x="685.02" y="-14.41" font-family="Helvetica,sans-Serif" font-size="12.00">ClanRepository</text>
</a>
</g>
</g>
<!-- Node1&#45;&gt;Node4 -->
<g id="edge3_Node000001_Node000004" class="edge">
<title>Node1&#45;&gt;Node4</title>
<g id="a_edge3_Node000001_Node000004"><a xlink:title=" ">
<path fill="none" stroke="#63b8ff" d="M6609.16,-102.45C5773.28,-102.84 1427.16,-102.41 836.02,-51.62 822.23,-50.43 807.81,-48.71 793.57,-46.7"/>
<polygon fill="#63b8ff" stroke="#63b8ff" points="794.11,-43.24 783.71,-45.26 793.1,-50.17 794.11,-43.24"/>
</a>
</g>
</g>
<!-- Node5 -->
<g id="Node000005" class="node">
<title>Node5</title>
<g id="a_Node000005"><a xlink:title=" ">
<ellipse fill="#e0e0e0" stroke="#999999" cx="980.02" cy="-25.81" rx="134.88" ry="25.81"/>
<text xml:space="preserve" text-anchor="start" x="892.64" y="-28.66" font-family="Helvetica,sans-Serif" font-size="12.00">com.runehive.content.itemaction.</text>
<text xml:space="preserve" text-anchor="middle" x="980.02" y="-14.41" font-family="Helvetica,sans-Serif" font-size="12.00">ItemActionRepository</text>
</a>
</g>
</g>
<!-- Node1&#45;&gt;Node5 -->
<g id="edge4_Node000001_Node000005" class="edge">
<title>Node1&#45;&gt;Node5</title>
<g id="a_edge4_Node000001_Node000005"><a xlink:title=" ">
<path fill="none" stroke="#63b8ff" d="M6609.4,-102.44C5798.4,-102.8 1684.64,-102.11 1124.02,-51.62 1110.89,-50.44 1097.16,-48.71 1083.61,-46.72"/>
<polygon fill="#63b8ff" stroke="#63b8ff" points="1084.2,-43.27 1073.79,-45.21 1083.14,-50.18 1084.2,-43.27"/>
</a>
</g>
</g>
<!-- Node6 -->
<g id="Node000006" class="node">
<title>Node6</title>
<g id="a_Node000006"><a xlink:title=" ">
<ellipse fill="#e0e0e0" stroke="#999999" cx="1242.02" cy="-25.81" rx="109.42" ry="25.81"/>
<text xml:space="preserve" text-anchor="start" x="1172.64" y="-28.66" font-family="Helvetica,sans-Serif" font-size="12.00">com.runehive.content.lms.</text>
<text xml:space="preserve" text-anchor="middle" x="1242.02" y="-14.41" font-family="Helvetica,sans-Serif" font-size="12.00">LMSGameEvent</text>
</a>
</g>
</g>
<!-- Node1&#45;&gt;Node6 -->
<g id="edge5_Node000001_Node000006" class="edge">
<title>Node1&#45;&gt;Node6</title>
<g id="a_edge5_Node000001_Node000006"><a xlink:title=" ">
<path fill="none" stroke="#63b8ff" d="M6609.6,-101.82C5792.73,-98.6 1628.33,-80.8 1360.02,-51.62 1349.67,-50.49 1338.89,-48.87 1328.23,-46.98"/>
<polygon fill="#63b8ff" stroke="#63b8ff" points="1329.16,-43.59 1318.69,-45.21 1327.88,-50.48 1329.16,-43.59"/>
</a>
</g>
</g>
<!-- Node7 -->
<g id="Node000007" class="node">
<title>Node7</title>
<g id="a_Node000007"><a xlink:title=" ">
<ellipse fill="#e0e0e0" stroke="#999999" cx="1513.02" cy="-25.81" rx="143.9" ry="25.81"/>
<text xml:space="preserve" text-anchor="start" x="1419.27" y="-28.66" font-family="Helvetica,sans-Serif" font-size="12.00">com.runehive.content.lms.loadouts.</text>
<text xml:space="preserve" text-anchor="middle" x="1513.02" y="-14.41" font-family="Helvetica,sans-Serif" font-size="12.00">LMSLoadoutManager</text>
</a>
</g>
</g>
<!-- Node1&#45;&gt;Node7 -->
<g id="edge6_Node000001_Node000007" class="edge">
<title>Node1&#45;&gt;Node7</title>
<g id="a_edge6_Node000001_Node000007"><a xlink:title=" ">
<path fill="none" stroke="#63b8ff" d="M6609.34,-102.22C5845.74,-101.31 2169.79,-94.73 1666.02,-51.62 1651.91,-50.41 1637.15,-48.65 1622.59,-46.62"/>
<polygon fill="#63b8ff" stroke="#63b8ff" points="1623.4,-43.2 1613.01,-45.24 1622.4,-50.13 1623.4,-43.2"/>
</a>
</g>
</g>
<!-- Node8 -->
<g id="Node000008" class="node">
<title>Node8</title>
<g id="a_Node000008"><a xlink:title=" ">
<ellipse fill="#e0e0e0" stroke="#999999" cx="1807.02" cy="-25.81" rx="131.7" ry="25.81"/>
<text xml:space="preserve" text-anchor="start" x="1721.89" y="-28.66" font-family="Helvetica,sans-Serif" font-size="12.00">com.runehive.content.lms.lobby.</text>
<text xml:space="preserve" text-anchor="middle" x="1807.02" y="-14.41" font-family="Helvetica,sans-Serif" font-size="12.00">LMSLobbyEvent</text>
</a>
</g>
</g>
<!-- Node1&#45;&gt;Node8 -->
<g id="edge7_Node000001_Node000008" class="edge">
<title>Node1&#45;&gt;Node8</title>
<g id="a_edge7_Node000001_Node000008"><a xlink:title=" ">
<path fill="none" stroke="#63b8ff" d="M6609.25,-102.24C5871.17,-101.47 2421.86,-95.51 1948.02,-51.62 1935.16,-50.43 1921.71,-48.7 1908.45,-46.7"/>
<polygon fill="#63b8ff" stroke="#63b8ff" points="1909.28,-43.29 1898.86,-45.19 1908.19,-50.2 1909.28,-43.29"/>
</a>
</g>
</g>
<!-- Node9 -->
<g id="Node000009" class="node">
<title>Node9</title>
<g id="a_Node000009"><a xlink:title=" ">
<ellipse fill="#e0e0e0" stroke="#999999" cx="2096.02" cy="-25.81" rx="139.12" ry="25.81"/>
<text xml:space="preserve" text-anchor="start" x="2005.64" y="-28.66" font-family="Helvetica,sans-Serif" font-size="12.00">com.runehive.content.mysterybox.</text>
<text xml:space="preserve" text-anchor="middle" x="2096.02" y="-14.41" font-family="Helvetica,sans-Serif" font-size="12.00">MysteryBox</text>
</a>
</g>
</g>
<!-- Node1&#45;&gt;Node9 -->
<g id="edge8_Node000001_Node000009" class="edge">
<title>Node1&#45;&gt;Node9</title>
<g id="a_edge8_Node000001_Node000009"><a xlink:title=" ">
<path fill="none" stroke="#63b8ff" d="M6609.45,-102.07C5899.63,-100.45 2687.03,-91.01 2244.02,-51.62 2230.5,-50.42 2216.36,-48.68 2202.41,-46.67"/>
<polygon fill="#63b8ff" stroke="#63b8ff" points="2203.18,-43.25 2192.77,-45.23 2202.14,-50.17 2203.18,-43.25"/>
</a>
</g>
</g>
<!-- Node10 -->
<g id="Node000010" class="node">
<title>Node10</title>
<g id="a_Node000010"><a xlink:title=" ">
<ellipse fill="#e0e0e0" stroke="#999999" cx="2382.02" cy="-25.81" rx="129.05" ry="25.81"/>
<text xml:space="preserve" text-anchor="start" x="2298.77" y="-28.66" font-family="Helvetica,sans-Serif" font-size="12.00">com.runehive.content.preloads.</text>
<text xml:space="preserve" text-anchor="middle" x="2382.02" y="-14.41" font-family="Helvetica,sans-Serif" font-size="12.00">PreloadRepository</text>
</a>
</g>
</g>
<!-- Node1&#45;&gt;Node10 -->
<g id="edge9_Node000001_Node000010" class="edge">
<title>Node1&#45;&gt;Node10</title>
<g id="a_edge9_Node000001_Node000010"><a xlink:title=" ">
<path fill="none" stroke="#63b8ff" d="M6609.57,-102.06C5926.76,-100.42 2933.93,-91.03 2520.02,-51.62 2507.55,-50.43 2494.53,-48.72 2481.67,-46.74"/>
<polygon fill="#63b8ff" stroke="#63b8ff" points="2482.35,-43.31 2471.92,-45.18 2481.24,-50.22 2482.35,-43.31"/>
</a>
</g>
</g>
<!-- Node11 -->
<g id="Node000011" class="node">
<title>Node11</title>
<g id="a_Node000011"><a xlink:title=" ">
<ellipse fill="#e0e0e0" stroke="#999999" cx="2671.02" cy="-25.81" rx="141.77" ry="25.81"/>
<text xml:space="preserve" text-anchor="start" x="2578.77" y="-28.66" font-family="Helvetica,sans-Serif" font-size="12.00">com.runehive.content.shootingstar.</text>
<text xml:space="preserve" text-anchor="middle" x="2671.02" y="-14.41" font-family="Helvetica,sans-Serif" font-size="12.00">ShootingStar</text>
</a>
</g>
</g>
<!-- Node1&#45;&gt;Node11 -->
<g id="edge10_Node000001_Node000011" class="edge">
<title>Node1&#45;&gt;Node11</title>
<g id="a_edge10_Node000001_Node000011"><a xlink:title=" ">
<path fill="none" stroke="#63b8ff" d="M6609.6,-101.8C5957.18,-99.01 3204.66,-85.33 2822.02,-51.62 2808.23,-50.4 2793.81,-48.66 2779.58,-46.64"/>
<polygon fill="#63b8ff" stroke="#63b8ff" points="2780.12,-43.19 2769.72,-45.2 2779.1,-50.11 2780.12,-43.19"/>
</a>
</g>
</g>
<!-- Node12 -->
<g id="Node000012" class="node">
<title>Node12</title>
<g id="a_Node000012"><a xlink:title=" ">
<ellipse fill="#e0e0e0" stroke="#999999" cx="2942.02" cy="-25.81" rx="111.02" ry="25.81"/>
<text xml:space="preserve" text-anchor="start" x="2871.52" y="-28.66" font-family="Helvetica,sans-Serif" font-size="12.00">com.runehive.content.skill.</text>
<text xml:space="preserve" text-anchor="middle" x="2942.02" y="-14.41" font-family="Helvetica,sans-Serif" font-size="12.00">SkillRepository</text>
</a>
</g>
</g>
<!-- Node1&#45;&gt;Node12 -->
<g id="edge11_Node000001_Node000012" class="edge">
<title>Node1&#45;&gt;Node12</title>
<g id="a_edge11_Node000001_Node000012"><a xlink:title=" ">
<path fill="none" stroke="#63b8ff" d="M6609.5,-102.01C5981.74,-100.22 3418.89,-90.61 3062.02,-51.62 3051.5,-50.47 3040.54,-48.83 3029.71,-46.94"/>
<polygon fill="#63b8ff" stroke="#63b8ff" points="3030.45,-43.51 3019.98,-45.15 3029.18,-50.4 3030.45,-43.51"/>
</a>
</g>
</g>
<!-- Node13 -->
<g id="Node000013" class="node">
<title>Node13</title>
<g id="a_Node000013"><a xlink:title=" ">
<ellipse fill="#e0e0e0" stroke="#999999" cx="3209.02" cy="-25.81" rx="138.06" ry="25.81"/>
<text xml:space="preserve" text-anchor="start" x="3119.39" y="-28.66" font-family="Helvetica,sans-Serif" font-size="12.00">com.runehive.content.tradingpost.</text>
<text xml:space="preserve" text-anchor="middle" x="3209.02" y="-14.41" font-family="Helvetica,sans-Serif" font-size="12.00">TradingPost</text>
</a>
</g>
</g>
<!-- Node1&#45;&gt;Node13 -->
<g id="edge12_Node000001_Node000013" class="edge">
<title>Node1&#45;&gt;Node13</title>
<g id="a_edge12_Node000001_Node000013"><a xlink:title=" ">
<path fill="none" stroke="#63b8ff" d="M6610.25,-101.53C6015.49,-97.82 3683.09,-81.49 3356.02,-51.62 3342.59,-50.39 3328.55,-48.64 3314.69,-46.62"/>
<polygon fill="#63b8ff" stroke="#63b8ff" points="3315.54,-43.21 3305.13,-45.18 3314.49,-50.13 3315.54,-43.21"/>
</a>
</g>
</g>
<!-- Node14 -->
<g id="Node000014" class="node">
<title>Node14</title>
<g id="a_Node000014"><a xlink:title=" ">
<ellipse fill="#e0e0e0" stroke="#999999" cx="3491.02" cy="-25.81" rx="125.87" ry="25.81"/>
<text xml:space="preserve" text-anchor="start" x="3410.02" y="-28.66" font-family="Helvetica,sans-Serif" font-size="12.00">com.runehive.content.triviabot.</text>
<text xml:space="preserve" text-anchor="middle" x="3491.02" y="-14.41" font-family="Helvetica,sans-Serif" font-size="12.00">TriviaBot</text>
</a>
</g>
</g>
<!-- Node1&#45;&gt;Node14 -->
<g id="edge13_Node000001_Node000014" class="edge">
<title>Node1&#45;&gt;Node14</title>
<g id="a_edge13_Node000001_Node000014"><a xlink:title=" ">
<path fill="none" stroke="#63b8ff" d="M6609.95,-101.46C6044.95,-97.6 3924.81,-81.3 3626.02,-51.62 3613.82,-50.41 3601.07,-48.68 3588.49,-46.7"/>
<polygon fill="#63b8ff" stroke="#63b8ff" points="3589.43,-43.3 3578.99,-45.14 3588.29,-50.21 3589.43,-43.3"/>
</a>
</g>
</g>
<!-- Node15 -->
<g id="Node000015" class="node">
<title>Node15</title>
<g id="a_Node000015"><a xlink:title=" ">
<ellipse fill="#e0e0e0" stroke="#999999" cx="3768.02" cy="-25.81" rx="132.76" ry="25.81"/>
<text xml:space="preserve" text-anchor="start" x="3682.14" y="-28.66" font-family="Helvetica,sans-Serif" font-size="12.00">com.runehive.content.wintertodt.</text>
<text xml:space="preserve" text-anchor="middle" x="3768.02" y="-14.41" font-family="Helvetica,sans-Serif" font-size="12.00">Wintertodt</text>
</a>
</g>
</g>
<!-- Node1&#45;&gt;Node15 -->
<g id="edge14_Node000001_Node000015" class="edge">
<title>Node1&#45;&gt;Node15</title>
<g id="a_edge14_Node000001_Node000015"><a xlink:title=" ">
<path fill="none" stroke="#63b8ff" d="M6609.25,-102.72C6115.19,-103.6 4442.87,-102.62 3910.02,-51.62 3897.17,-50.39 3883.74,-48.65 3870.48,-46.65"/>
<polygon fill="#63b8ff" stroke="#63b8ff" points="3871.31,-43.24 3860.89,-45.16 3870.23,-50.16 3871.31,-43.24"/>
</a>
</g>
</g>
<!-- Node16 -->
<g id="Node000016" class="node">
<title>Node16</title>
<g id="a_Node000016"><a xlink:title=" ">
<ellipse fill="#e0e0e0" stroke="#999999" cx="4031.02" cy="-25.81" rx="112.08" ry="25.81"/>
<text xml:space="preserve" text-anchor="start" x="3959.77" y="-28.66" font-family="Helvetica,sans-Serif" font-size="12.00">com.runehive.fs.cache.File</text>
<text xml:space="preserve" text-anchor="middle" x="4031.02" y="-14.41" font-family="Helvetica,sans-Serif" font-size="12.00">System</text>
</a>
</g>
</g>
<!-- Node1&#45;&gt;Node16 -->
<g id="edge15_Node000001_Node000016" class="edge">
<title>Node1&#45;&gt;Node16</title>
<g id="a_edge15_Node000001_Node000016"><a xlink:title=" ">
<path fill="none" stroke="#63b8ff" d="M6610.4,-101.14C6108.98,-96.5 4396.32,-78.82 4152.02,-51.62 4141.5,-50.45 4130.54,-48.81 4119.7,-46.92"/>
<polygon fill="#63b8ff" stroke="#63b8ff" points="4120.42,-43.49 4109.95,-45.14 4119.17,-50.38 4120.42,-43.49"/>
</a>
</g>
</g>
<!-- Node17 -->
<g id="Node000017" class="node">
<title>Node17</title>
<g id="a_Node000017"><a xlink:title=" ">
<ellipse fill="#e0e0e0" stroke="#999999" cx="4294.02" cy="-25.81" rx="133.29" ry="15.73"/>
<text xml:space="preserve" text-anchor="middle" x="4294.02" y="-21.53" font-family="Helvetica,sans-Serif" font-size="12.00">com.runehive.fs.cache.decoder.*</text>
</a>
</g>
</g>
<!-- Node1&#45;&gt;Node17 -->
<g id="edge16_Node000001_Node000017" class="edge">
<title>Node1&#45;&gt;Node17</title>
<g id="a_edge16_Node000001_Node000017"><a xlink:title=" ">
<path fill="none" stroke="#63b8ff" d="M6609.5,-102.06C6177.97,-100.71 4861.32,-93.2 4436.02,-51.62 4414.06,-49.47 4390.39,-45.86 4368.79,-42.05"/>
<polygon fill="#63b8ff" stroke="#63b8ff" points="4369.66,-38.65 4359.2,-40.32 4368.41,-45.54 4369.66,-38.65"/>
</a>
</g>
</g>
<!-- Node18 -->
<g id="Node000018" class="node">
<title>Node18</title>
<g id="a_Node000018"><a xlink:title=" ">
<ellipse fill="#e0e0e0" stroke="#999999" cx="4561.02" cy="-25.81" rx="115.79" ry="25.81"/>
<text xml:space="preserve" text-anchor="start" x="4487.14" y="-28.66" font-family="Helvetica,sans-Serif" font-size="12.00">com.runehive.game.engine.</text>
<text xml:space="preserve" text-anchor="middle" x="4561.02" y="-14.41" font-family="Helvetica,sans-Serif" font-size="12.00">GameEngine</text>
</a>
</g>
</g>
<!-- Node1&#45;&gt;Node18 -->
<g id="edge17_Node000001_Node000018" class="edge">
<title>Node1&#45;&gt;Node18</title>
<g id="a_edge17_Node000001_Node000018"><a xlink:title=" ">
<path fill="none" stroke="#63b8ff" d="M6609.48,-102.04C6209.92,-100.64 5060.07,-93.03 4686.02,-51.62 4675.05,-50.4 4663.61,-48.72 4652.3,-46.8"/>
<polygon fill="#63b8ff" stroke="#63b8ff" points="4653,-43.37 4642.55,-45.07 4651.78,-50.26 4653,-43.37"/>
</a>
</g>
</g>
<!-- Node19 -->
<g id="Node000019" class="node">
<title>Node19</title>
<g id="a_Node000019"><a xlink:title=" ">
<ellipse fill="#e0e0e0" stroke="#999999" cx="4808.02" cy="-25.81" rx="113.14" ry="25.81"/>
<text xml:space="preserve" text-anchor="start" x="4736.02" y="-28.66" font-family="Helvetica,sans-Serif" font-size="12.00">com.runehive.game.plugin.</text>
<text xml:space="preserve" text-anchor="middle" x="4808.02" y="-14.41" font-family="Helvetica,sans-Serif" font-size="12.00">PluginManager</text>
</a>
</g>
</g>
<!-- Node1&#45;&gt;Node19 -->
<g id="edge18_Node000001_Node000019" class="edge">
<title>Node1&#45;&gt;Node19</title>
<g id="a_edge18_Node000001_Node000019"><a xlink:title=" ">
<path fill="none" stroke="#63b8ff" d="M6610.05,-101.59C6244.15,-99.06 5254.88,-88.9 4930.02,-51.62 4919.5,-50.41 4908.54,-48.76 4897.69,-46.87"/>
<polygon fill="#63b8ff" stroke="#63b8ff" points="4898.4,-43.45 4887.94,-45.1 4897.15,-50.33 4898.4,-43.45"/>
</a>
</g>
</g>
<!-- Node20 -->
<g id="Node000020" class="node">
<title>Node20</title>
<g id="a_Node000020"><a xlink:title=" ">
<ellipse fill="#e0e0e0" stroke="#999999" cx="5059.02" cy="-25.81" rx="120.03" ry="15.73"/>
<text xml:space="preserve" text-anchor="middle" x="5059.02" y="-21.53" font-family="Helvetica,sans-Serif" font-size="12.00">com.runehive.game.service.*</text>
</a>
</g>
</g>
<!-- Node1&#45;&gt;Node20 -->
<g id="edge19_Node000001_Node000020" class="edge">
<title>Node1&#45;&gt;Node20</title>
<g id="a_edge19_Node000001_Node000020"><a xlink:title=" ">
<path fill="none" stroke="#63b8ff" d="M6610.86,-100.66C6283.13,-96.18 5461.52,-82.17 5188.02,-51.62 5168.5,-49.44 5147.52,-45.92 5128.27,-42.21"/>
<polygon fill="#63b8ff" stroke="#63b8ff" points="5129.13,-38.81 5118.64,-40.3 5127.77,-45.68 5129.13,-38.81"/>
</a>
</g>
</g>
<!-- Node21 -->
<g id="Node000021" class="node">
<title>Node21</title>
<g id="a_Node000021"><a xlink:title=" ">
<ellipse fill="#e0e0e0" stroke="#999999" cx="5320.02" cy="-25.81" rx="123.21" ry="25.81"/>
<text xml:space="preserve" text-anchor="start" x="5240.89" y="-28.66" font-family="Helvetica,sans-Serif" font-size="12.00">com.runehive.game.task.impl.</text>
<text xml:space="preserve" text-anchor="middle" x="5320.02" y="-14.41" font-family="Helvetica,sans-Serif" font-size="12.00">ClanUpdateEvent</text>
</a>
</g>
</g>
<!-- Node1&#45;&gt;Node21 -->
<g id="edge20_Node000001_Node000021" class="edge">
<title>Node1&#45;&gt;Node21</title>
<g id="a_edge20_Node000001_Node000021"><a xlink:title=" ">
<path fill="none" stroke="#63b8ff" d="M6612.97,-99.58C6328.08,-93.31 5673.6,-76.64 5452.02,-51.62 5440.6,-50.33 5428.69,-48.62 5416.9,-46.69"/>
<polygon fill="#63b8ff" stroke="#63b8ff" points="5417.59,-43.26 5407.15,-45.04 5416.43,-50.16 5417.59,-43.26"/>
</a>
</g>
</g>
<!-- Node22 -->
<g id="Node000022" class="node">
<title>Node22</title>
<g id="a_Node000022"><a xlink:title=" ">
<ellipse fill="#e0e0e0" stroke="#999999" cx="5584.02" cy="-25.81" rx="123.21" ry="25.81"/>
<text xml:space="preserve" text-anchor="start" x="5504.89" y="-28.66" font-family="Helvetica,sans-Serif" font-size="12.00">com.runehive.game.task.impl.</text>
<text xml:space="preserve" text-anchor="middle" x="5584.02" y="-14.41" font-family="Helvetica,sans-Serif" font-size="12.00">DoubleExperienceEvent</text>
</a>
</g>
</g>
<!-- Node1&#45;&gt;Node22 -->
<g id="edge21_Node000001_Node000022" class="edge">
<title>Node1&#45;&gt;Node22</title>
<g id="a_edge21_Node000001_Node000022"><a xlink:title=" ">
<path fill="none" stroke="#63b8ff" d="M6609.8,-101.55C6411.34,-99.03 6034.45,-89.19 5716.02,-51.62 5704.61,-50.27 5692.7,-48.53 5680.92,-46.58"/>
<polygon fill="#63b8ff" stroke="#63b8ff" points="5681.61,-43.15 5671.16,-44.92 5680.43,-50.05 5681.61,-43.15"/>
</a>
</g>
</g>
<!-- Node23 -->
<g id="Node000023" class="node">
<title>Node23</title>
<g id="a_Node000023"><a xlink:title=" ">
<ellipse fill="#e0e0e0" stroke="#999999" cx="5848.02" cy="-25.81" rx="123.21" ry="25.81"/>
<text xml:space="preserve" text-anchor="start" x="5768.89" y="-28.66" font-family="Helvetica,sans-Serif" font-size="12.00">com.runehive.game.task.impl.</text>
<text xml:space="preserve" text-anchor="middle" x="5848.02" y="-14.41" font-family="Helvetica,sans-Serif" font-size="12.00">MessageEvent</text>
</a>
</g>
</g>
<!-- Node1&#45;&gt;Node23 -->
<g id="edge22_Node000001_Node000023" class="edge">
<title>Node1&#45;&gt;Node23</title>
<g id="a_edge22_Node000001_Node000023"><a xlink:title=" ">
<path fill="none" stroke="#63b8ff" d="M6615.74,-98.43C6462.33,-92.77 6202.07,-79.72 5980.02,-51.62 5968.8,-50.2 5957.09,-48.43 5945.48,-46.49"/>
<polygon fill="#63b8ff" stroke="#63b8ff" points="5946.35,-43.08 5935.9,-44.84 5945.16,-49.98 5946.35,-43.08"/>
</a>
</g>
</g>
<!-- Node24 -->
<g id="Node000024" class="node">
<title>Node24</title>
<g id="a_Node000024"><a xlink:title=" ">
<ellipse fill="#e0e0e0" stroke="#999999" cx="6112.02" cy="-25.81" rx="123.21" ry="25.81"/>
<text xml:space="preserve" text-anchor="start" x="6032.89" y="-28.66" font-family="Helvetica,sans-Serif" font-size="12.00">com.runehive.game.task.impl.</text>
<text xml:space="preserve" text-anchor="middle" x="6112.02" y="-14.41" font-family="Helvetica,sans-Serif" font-size="12.00">PlayerSaveEvent</text>
</a>
</g>
</g>
<!-- Node1&#45;&gt;Node24 -->
<g id="edge23_Node000001_Node000024" class="edge">
<title>Node1&#45;&gt;Node24</title>
<g id="a_edge23_Node000001_Node000024"><a xlink:title=" ">
<path fill="none" stroke="#63b8ff" d="M6636.31,-93.79C6534.16,-85.32 6379.03,-70.84 6245.02,-51.62 6233.92,-50.03 6222.33,-48.17 6210.83,-46.19"/>
<polygon fill="#63b8ff" stroke="#63b8ff" points="6211.78,-42.81 6201.33,-44.53 6210.58,-49.7 6211.78,-42.81"/>
</a>
</g>
</g>
<!-- Node25 -->
<g id="Node000025" class="node">
<title>Node25</title>
<g id="a_Node000025"><a xlink:title=" ">
<ellipse fill="#e0e0e0" stroke="#999999" cx="6364.02" cy="-25.81" rx="110.49" ry="25.81"/>
<text xml:space="preserve" text-anchor="start" x="6293.89" y="-28.66" font-family="Helvetica,sans-Serif" font-size="12.00">com.runehive.game.world.</text>
<text xml:space="preserve" text-anchor="middle" x="6364.02" y="-14.41" font-family="Helvetica,sans-Serif" font-size="12.00">World</text>
</a>
</g>
</g>
<!-- Node1&#45;&gt;Node25 -->
<g id="edge24_Node000001_Node000025" class="edge">
<title>Node1&#45;&gt;Node25</title>
<g id="a_edge24_Node000001_Node000025"><a xlink:title=" ">
<path fill="none" stroke="#63b8ff" d="M6678.76,-89.32C6625.48,-79.22 6550.04,-64.79 6484.02,-51.62 6474.94,-49.81 6465.49,-47.9 6456.05,-45.97"/>
<polygon fill="#63b8ff" stroke="#63b8ff" points="6456.98,-42.59 6446.48,-44.02 6455.57,-49.45 6456.98,-42.59"/>
</a>
</g>
</g>
<!-- Node26 -->
<g id="Node000026" class="node">
<title>Node26</title>
<g id="a_Node000026"><a xlink:title=" ">
<ellipse fill="#e0e0e0" stroke="#999999" cx="6603.02" cy="-25.81" rx="110.49" ry="25.81"/>
<text xml:space="preserve" text-anchor="start" x="6532.89" y="-28.66" font-family="Helvetica,sans-Serif" font-size="12.00">com.runehive.game.world.</text>
<text xml:space="preserve" text-anchor="middle" x="6603.02" y="-14.41" font-family="Helvetica,sans-Serif" font-size="12.00">WorldType</text>
</a>
</g>
</g>
<!-- Node1&#45;&gt;Node26 -->
<g id="edge25_Node000001_Node000026" class="edge">
<title>Node1&#45;&gt;Node26</title>
<g id="a_edge25_Node000001_Node000026"><a xlink:title=" ">
<path fill="none" stroke="#63b8ff" d="M6719.71,-87.61C6702.01,-78.38 6678.61,-66.19 6657.42,-55.15"/>
<polygon fill="#63b8ff" stroke="#63b8ff" points="6659.06,-52.06 6648.57,-50.54 6655.82,-58.27 6659.06,-52.06"/>
</a>
</g>
</g>
<!-- Node27 -->
<g id="Node000027" class="node">
<title>Node27</title>
<g id="a_Node000027"><a xlink:title=" ">
<ellipse fill="#e0e0e0" stroke="#999999" cx="6894.02" cy="-25.81" rx="162.99" ry="15.73"/>
<text xml:space="preserve" text-anchor="middle" x="6894.02" y="-21.53" font-family="Helvetica,sans-Serif" font-size="12.00">com.runehive.game.world.cronjobs.Jobs</text>
</a>
</g>
</g>
<!-- Node1&#45;&gt;Node27 -->
<g id="edge26_Node000001_Node000027" class="edge">
<title>Node1&#45;&gt;Node27</title>
<g id="a_edge26_Node000001_Node000027"><a xlink:title=" ">
<path fill="none" stroke="#63b8ff" d="M6776.51,-87.61C6798.88,-76.04 6830.25,-59.8 6854.96,-47.02"/>
<polygon fill="#63b8ff" stroke="#63b8ff" points="6856.47,-50.17 6863.75,-42.47 6853.26,-43.96 6856.47,-50.17"/>
</a>
</g>
</g>
<!-- Node28 -->
<g id="Node000028" class="node">
<title>Node28</title>
<g id="a_Node000028"><a xlink:title=" ">
<ellipse fill="#e0e0e0" stroke="#999999" cx="7290.02" cy="-25.81" rx="215.49" ry="25.81"/>
<text xml:space="preserve" text-anchor="start" x="7145.64" y="-28.66" font-family="Helvetica,sans-Serif" font-size="12.00">com.runehive.game.world.entity.combat.attack.listener.</text>
<text xml:space="preserve" text-anchor="middle" x="7290.02" y="-14.41" font-family="Helvetica,sans-Serif" font-size="12.00">CombatListenerManager</text>
</a>
</g>
</g>
<!-- Node1&#45;&gt;Node28 -->
<g id="edge27_Node000001_Node000028" class="edge">
<title>Node1&#45;&gt;Node28</title>
<g id="a_edge27_Node000001_Node000028"><a xlink:title=" ">
<path fill="none" stroke="#63b8ff" d="M6833,-90.51C6915.26,-79.04 7041.71,-61.42 7140.76,-47.61"/>
<polygon fill="#63b8ff" stroke="#63b8ff" points="7141.17,-51.09 7150.59,-46.24 7140.2,-44.16 7141.17,-51.09"/>
</a>
</g>
</g>
<!-- Node29 -->
<g id="Node000029" class="node">
<title>Node29</title>
<g id="a_Node000029"><a xlink:title=" ">
<ellipse fill="#e0e0e0" stroke="#999999" cx="7781.02" cy="-25.81" rx="257.92" ry="25.81"/>
<text xml:space="preserve" text-anchor="start" x="7606.64" y="-28.66" font-family="Helvetica,sans-Serif" font-size="12.00">com.runehive.game.world.entity.combat.strategy.npc.boss.skotizo.</text>
<text xml:space="preserve" text-anchor="middle" x="7781.02" y="-14.41" font-family="Helvetica,sans-Serif" font-size="12.00">SkotizoEvent</text>
</a>
</g>
</g>
<!-- Node1&#45;&gt;Node29 -->
<g id="edge28_Node000001_Node000029" class="edge">
<title>Node1&#45;&gt;Node29</title>
<g id="a_edge28_Node000001_Node000029"><a xlink:title=" ">
<path fill="none" stroke="#63b8ff" d="M6868.82,-95.34C7019.82,-86.35 7286.16,-69.75 7514.02,-51.62 7537.76,-49.73 7562.68,-47.6 7587.35,-45.41"/>
<polygon fill="#63b8ff" stroke="#63b8ff" points="7587.51,-48.91 7597.16,-44.54 7586.89,-41.94 7587.51,-48.91"/>
</a>
</g>
</g>
<!-- Node30 -->
<g id="Node000030" class="node">
<title>Node30</title>
<g id="a_Node000030"><a xlink:title=" ">
<ellipse fill="#e0e0e0" stroke="#999999" cx="8260.02" cy="-25.81" rx="203.29" ry="25.81"/>
<text xml:space="preserve" text-anchor="start" x="8124.27" y="-28.66" font-family="Helvetica,sans-Serif" font-size="12.00">com.runehive.game.world.entity.mob.npc.definition.</text>
<text xml:space="preserve" text-anchor="middle" x="8260.02" y="-14.41" font-family="Helvetica,sans-Serif" font-size="12.00">NpcDefinition</text>
</a>
</g>
</g>
<!-- Node1&#45;&gt;Node30 -->
<g id="edge29_Node000001_Node000030" class="edge">
<title>Node1&#45;&gt;Node30</title>
<g id="a_edge29_Node000001_Node000030"><a xlink:title=" ">
<path fill="none" stroke="#63b8ff" d="M6884.85,-100.5C7122.01,-96.5 7624.67,-84.6 8048.02,-51.62 8067.5,-50.1 8087.95,-48.16 8108.15,-46.02"/>
<polygon fill="#63b8ff" stroke="#63b8ff" points="8108.26,-49.53 8117.83,-44.98 8107.51,-42.57 8108.26,-49.53"/>
</a>
</g>
</g>
<!-- Node31 -->
<g id="Node000031" class="node">
<title>Node31</title>
<g id="a_Node000031"><a xlink:title=" ">
<ellipse fill="#e0e0e0" stroke="#999999" cx="8657.02" cy="-25.81" rx="175.72" ry="25.81"/>
<text xml:space="preserve" text-anchor="start" x="8540.77" y="-28.66" font-family="Helvetica,sans-Serif" font-size="12.00">com.runehive.game.world.entity.mob.player.</text>
<text xml:space="preserve" text-anchor="middle" x="8657.02" y="-14.41" font-family="Helvetica,sans-Serif" font-size="12.00">BannedPlayers</text>
</a>
</g>
</g>
<!-- Node1&#45;&gt;Node31 -->
<g id="edge30_Node000001_Node000031" class="edge">
<title>Node1&#45;&gt;Node31</title>
<g id="a_edge30_Node000001_Node000031"><a xlink:title=" ">
<path fill="none" stroke="#63b8ff" d="M6886.84,-103.15C7180.1,-103.76 7884.08,-99.56 8472.02,-51.62 8489.05,-50.23 8506.92,-48.36 8524.56,-46.27"/>
<polygon fill="#63b8ff" stroke="#63b8ff" points="8524.8,-49.76 8534.3,-45.08 8523.95,-42.81 8524.8,-49.76"/>
</a>
</g>
</g>
<!-- Node32 -->
<g id="Node000032" class="node">
<title>Node32</title>
<g id="a_Node000032"><a xlink:title=" ">
<ellipse fill="#e0e0e0" stroke="#999999" cx="9026.02" cy="-25.81" rx="175.72" ry="25.81"/>
<text xml:space="preserve" text-anchor="start" x="8909.77" y="-28.66" font-family="Helvetica,sans-Serif" font-size="12.00">com.runehive.game.world.entity.mob.player.</text>
<text xml:space="preserve" text-anchor="middle" x="9026.02" y="-14.41" font-family="Helvetica,sans-Serif" font-size="12.00">IPBannedPlayers</text>
</a>
</g>
</g>
<!-- Node1&#45;&gt;Node32 -->
<g id="edge31_Node000001_Node000032" class="edge">
<title>Node1&#45;&gt;Node32</title>
<g id="a_edge31_Node000001_Node000032"><a xlink:title=" ">
<path fill="none" stroke="#63b8ff" d="M6885.35,-101C7287.81,-96.71 8460.02,-81.91 8842.02,-51.62 8859.05,-50.27 8876.91,-48.41 8894.54,-46.32"/>
<polygon fill="#63b8ff" stroke="#63b8ff" points="8894.46,-49.86 8903.97,-45.17 8893.62,-42.91 8894.46,-49.86"/>
</a>
</g>
</g>
<!-- Node33 -->
<g id="Node000033" class="node">
<title>Node33</title>
<g id="a_Node000033"><a xlink:title=" ">
<ellipse fill="#e0e0e0" stroke="#999999" cx="9395.02" cy="-25.81" rx="175.72" ry="25.81"/>
<text xml:space="preserve" text-anchor="start" x="9278.77" y="-28.66" font-family="Helvetica,sans-Serif" font-size="12.00">com.runehive.game.world.entity.mob.player.</text>
<text xml:space="preserve" text-anchor="middle" x="9395.02" y="-14.41" font-family="Helvetica,sans-Serif" font-size="12.00">IPMutedPlayers</text>
</a>
</g>
</g>
<!-- Node1&#45;&gt;Node33 -->
<g id="edge32_Node000001_Node000033" class="edge">
<title>Node1&#45;&gt;Node33</title>
<g id="a_edge32_Node000001_Node000033"><a xlink:title=" ">
<path fill="none" stroke="#63b8ff" d="M6885.94,-101.57C7335.22,-98.71 8753.95,-87.03 9211.02,-51.62 9228.1,-50.3 9246.02,-48.45 9263.7,-46.36"/>
<polygon fill="#63b8ff" stroke="#63b8ff" points="9263.96,-49.86 9273.47,-45.17 9263.12,-42.91 9263.96,-49.86"/>
</a>
</g>
</g>
<!-- Node34 -->
<g id="Node000034" class="node">
<title>Node34</title>
<g id="a_Node000034"><a xlink:title=" ">
<ellipse fill="#e0e0e0" stroke="#999999" cx="9790.02" cy="-25.81" rx="201.17" ry="25.81"/>
<text xml:space="preserve" text-anchor="start" x="9655.77" y="-28.66" font-family="Helvetica,sans-Serif" font-size="12.00">com.runehive.game.world.entity.mob.player.profile.</text>
<text xml:space="preserve" text-anchor="middle" x="9790.02" y="-14.41" font-family="Helvetica,sans-Serif" font-size="12.00">ProfileRepository</text>
</a>
</g>
</g>
<!-- Node1&#45;&gt;Node34 -->
<g id="edge33_Node000001_Node000034" class="edge">
<title>Node1&#45;&gt;Node34</title>
<g id="a_edge33_Node000001_Node000034"><a xlink:title=" ">
<path fill="none" stroke="#63b8ff" d="M6885.98,-101.7C7378.18,-99.11 9046.93,-87.79 9580.02,-51.62 9599.87,-50.27 9620.74,-48.38 9641.29,-46.24"/>
<polygon fill="#63b8ff" stroke="#63b8ff" points="9641.59,-49.73 9651.16,-45.19 9640.85,-42.77 9641.59,-49.73"/>
</a>
</g>
</g>
<!-- Node35 -->
<g id="Node000035" class="node">
<title>Node35</title>
<g id="a_Node000035"><a xlink:title=" ">
<ellipse fill="#e0e0e0" stroke="#999999" cx="10142.02" cy="-25.81" rx="132.76" ry="25.81"/>
<text xml:space="preserve" text-anchor="start" x="10056.14" y="-28.66" font-family="Helvetica,sans-Serif" font-size="12.00">com.runehive.game.world.items.</text>
<text xml:space="preserve" text-anchor="middle" x="10142.02" y="-14.41" font-family="Helvetica,sans-Serif" font-size="12.00">ItemDefinition</text>
</a>
</g>
</g>
<!-- Node1&#45;&gt;Node35 -->
<g id="edge34_Node000001_Node000035" class="edge">
<title>Node1&#45;&gt;Node35</title>
<g id="a_edge34_Node000001_Node000035"><a xlink:title=" ">
<path fill="none" stroke="#63b8ff" d="M6885.9,-101.48C7465.35,-97.65 9687.59,-81.16 10000.02,-51.62 10012.86,-50.4 10026.3,-48.67 10039.56,-46.68"/>
<polygon fill="#63b8ff" stroke="#63b8ff" points="10039.8,-50.18 10049.14,-45.19 10038.72,-43.27 10039.8,-50.18"/>
</a>
</g>
</g>
<!-- Node36 -->
<g id="Node000036" class="node">
<title>Node36</title>
<g id="a_Node000036"><a xlink:title=" ">
<ellipse fill="#e0e0e0" stroke="#999999" cx="10422.02" cy="-25.81" rx="129.58" ry="25.81"/>
<text xml:space="preserve" text-anchor="start" x="10338.39" y="-28.66" font-family="Helvetica,sans-Serif" font-size="12.00">com.runehive.io.PacketListener</text>
<text xml:space="preserve" text-anchor="middle" x="10422.02" y="-14.41" font-family="Helvetica,sans-Serif" font-size="12.00">Loader</text>
</a>
</g>
</g>
<!-- Node1&#45;&gt;Node36 -->
<g id="edge35_Node000001_Node000036" class="edge">
<title>Node1&#45;&gt;Node36</title>
<g id="a_edge35_Node000001_Node000036"><a xlink:title=" ">
<path fill="none" stroke="#63b8ff" d="M6886.21,-101.71C7497.36,-98.67 9942.22,-84.57 10284.02,-51.62 10296.38,-50.43 10309.31,-48.72 10322.07,-46.76"/>
<polygon fill="#63b8ff" stroke="#63b8ff" points="10322.41,-50.25 10331.74,-45.21 10321.31,-43.34 10322.41,-50.25"/>
</a>
</g>
</g>
<!-- Node37 -->
<g id="Node000037" class="node">
<title>Node37</title>
<g id="a_Node000037"><a xlink:title=" ">
<ellipse fill="#e0e0e0" stroke="#999999" cx="10702.02" cy="-25.81" rx="132.76" ry="25.81"/>
<text xml:space="preserve" text-anchor="start" x="10616.14" y="-28.66" font-family="Helvetica,sans-Serif" font-size="12.00">com.runehive.net.LoginExecutor</text>
<text xml:space="preserve" text-anchor="middle" x="10702.02" y="-14.41" font-family="Helvetica,sans-Serif" font-size="12.00">Service</text>
</a>
</g>
</g>
<!-- Node1&#45;&gt;Node37 -->
<g id="edge36_Node000001_Node000037" class="edge">
<title>Node1&#45;&gt;Node37</title>
<g id="a_edge36_Node000001_Node000037"><a xlink:title=" ">
<path fill="none" stroke="#63b8ff" d="M6886.44,-101.83C7527.25,-99.24 10190.36,-86.47 10561.02,-51.62 10573.78,-50.42 10587.12,-48.7 10600.28,-46.71"/>
<polygon fill="#63b8ff" stroke="#63b8ff" points="10600.46,-50.23 10609.79,-45.22 10599.37,-43.31 10600.46,-50.23"/>
</a>
</g>
</g>
<!-- Node38 -->
<g id="Node000038" class="node">
<title>Node38</title>
<g id="a_Node000038"><a xlink:title=" ">
<ellipse fill="#e0e0e0" stroke="#999999" cx="10975.02" cy="-25.81" rx="122.68" ry="15.73"/>
<text xml:space="preserve" text-anchor="middle" x="10975.02" y="-21.53" font-family="Helvetica,sans-Serif" font-size="12.00">com.runehive.util.GameSaver</text>
</a>
</g>
</g>
<!-- Node1&#45;&gt;Node38 -->
<g id="edge37_Node000001_Node000038" class="edge">
<title>Node1&#45;&gt;Node38</title>
<g id="a_edge37_Node000001_Node000038"><a xlink:title=" ">
<path fill="none" stroke="#63b8ff" d="M6886.55,-102.08C7556.46,-100.54 10444.1,-91.65 10844.02,-51.62 10864.23,-49.6 10885.98,-46.04 10905.84,-42.25"/>
<polygon fill="#63b8ff" stroke="#63b8ff" points="10906.35,-45.72 10915.48,-40.35 10905,-38.85 10906.35,-45.72"/>
</a>
</g>
</g>
<!-- Node39 -->
<g id="Node000039" class="node">
<title>Node39</title>
<g id="a_Node000039"><a xlink:title=" ">
<ellipse fill="#e0e0e0" stroke="#999999" cx="11233.02" cy="-25.81" rx="117.38" ry="15.73"/>
<text xml:space="preserve" text-anchor="middle" x="11233.02" y="-21.53" font-family="Helvetica,sans-Serif" font-size="12.00">com.runehive.util.Stopwatch</text>
</a>
</g>
</g>
<!-- Node1&#45;&gt;Node39 -->
<g id="edge38_Node000001_Node000039" class="edge">
<title>Node1&#45;&gt;Node39</title>
<g id="a_edge38_Node000001_Node000039"><a xlink:title=" ">
<path fill="none" stroke="#63b8ff" d="M6886.71,-102.25C7582.87,-101.52 10679.8,-95.79 11107.02,-51.62 11126.3,-49.63 11147.02,-46.12 11165.97,-42.37"/>
<polygon fill="#63b8ff" stroke="#63b8ff" points="11166.63,-45.81 11175.73,-40.38 11165.23,-38.95 11166.63,-45.81"/>
</a>
</g>
</g>
<!-- Node40 -->
<g id="Node000040" class="node">
<title>Node40</title>
<g id="a_Node000040"><a xlink:title=" ">
<ellipse fill="#e0e0e0" stroke="#999999" cx="11493.02" cy="-25.81" rx="124.27" ry="15.73"/>
<text xml:space="preserve" text-anchor="middle" x="11493.02" y="-21.53" font-family="Helvetica,sans-Serif" font-size="12.00">com.runehive.util.parser.impl.*</text>
</a>
</g>
</g>
<!-- Node1&#45;&gt;Node40 -->
<g id="edge39_Node000001_Node000040" class="edge">
<title>Node1&#45;&gt;Node40</title>
<g id="a_edge39_Node000001_Node000040"><a xlink:title=" ">
<path fill="none" stroke="#63b8ff" d="M6886.61,-102.25C7606.69,-101.52 10905.15,-95.8 11359.02,-51.62 11379.78,-49.6 11402.13,-46.03 11422.52,-42.21"/>
<polygon fill="#63b8ff" stroke="#63b8ff" points="11422.98,-45.69 11432.14,-40.36 11421.66,-38.81 11422.98,-45.69"/>
</a>
</g>
</g>
<!-- Node41 -->
<g id="Node000041" class="node">
<title>Node41</title>
<g id="a_Node000041"><a xlink:title=" ">
<ellipse fill="#e0e0e0" stroke="#999999" cx="11730.02" cy="-25.81" rx="95.11" ry="15.73"/>
<text xml:space="preserve" text-anchor="middle" x="11730.02" y="-21.53" font-family="Helvetica,sans-Serif" font-size="12.00">dev.advo.fs.FileServer</text>
</a>
</g>
</g>
<!-- Node1&#45;&gt;Node41 -->
<g id="edge40_Node000001_Node000041" class="edge">
<title>Node1&#45;&gt;Node41</title>
<g id="a_edge40_Node000001_Node000041"><a xlink:title=" ">
<path fill="none" stroke="#63b8ff" d="M6886.25,-101.79C7655.72,-98.53 11384.87,-81.26 11626.02,-51.62 11641.58,-49.71 11658.2,-46.35 11673.48,-42.72"/>
<polygon fill="#63b8ff" stroke="#63b8ff" points="11674,-46.2 11682.87,-40.4 11672.33,-39.4 11674,-46.2"/>
</a>
</g>
</g>
<!-- Node42 -->
<g id="Node000042" class="node">
<title>Node42</title>
<g id="a_Node000042"><a xlink:title=" ">
<ellipse fill="#e0e0e0" stroke="#999999" cx="11950.02" cy="-25.81" rx="106.77" ry="25.81"/>
<text xml:space="preserve" text-anchor="start" x="11882.52" y="-28.66" font-family="Helvetica,sans-Serif" font-size="12.00">org.apache.logging.log4j.</text>
<text xml:space="preserve" text-anchor="middle" x="11950.02" y="-14.41" font-family="Helvetica,sans-Serif" font-size="12.00">LogManager</text>
</a>
</g>
</g>
<!-- Node1&#45;&gt;Node42 -->
<g id="edge41_Node000001_Node000042" class="edge">
<title>Node1&#45;&gt;Node42</title>
<g id="a_edge41_Node000001_Node000042"><a xlink:title=" ">
<path fill="none" stroke="#63b8ff" d="M6886.84,-102.63C7651.26,-103.95 11331.08,-107.34 11834.02,-51.62 11844.16,-50.49 11854.73,-48.88 11865.17,-47"/>
<polygon fill="#63b8ff" stroke="#63b8ff" points="11865.77,-50.44 11874.94,-45.15 11864.47,-43.57 11865.77,-50.44"/>
</a>
</g>
</g>
<!-- Node43 -->
<g id="Node000043" class="node">
<title>Node43</title>
<g id="a_Node000043"><a xlink:title=" ">
<ellipse fill="#e0e0e0" stroke="#999999" cx="12182.02" cy="-25.81" rx="106.77" ry="25.81"/>
<text xml:space="preserve" text-anchor="start" x="12114.52" y="-28.66" font-family="Helvetica,sans-Serif" font-size="12.00">org.apache.logging.log4j.</text>
<text xml:space="preserve" text-anchor="middle" x="12182.02" y="-14.41" font-family="Helvetica,sans-Serif" font-size="12.00">Logger</text>
</a>
</g>
</g>
<!-- Node1&#45;&gt;Node43 -->
<g id="edge42_Node000001_Node000043" class="edge">
<title>Node1&#45;&gt;Node43</title>
<g id="a_edge42_Node000001_Node000043"><a xlink:title=" ">
<path fill="none" stroke="#63b8ff" d="M6886.28,-101.82C7696.46,-98.6 11801.42,-80.87 12066.02,-51.62 12076.16,-50.5 12086.73,-48.88 12097.17,-47"/>
<polygon fill="#63b8ff" stroke="#63b8ff" points="12097.77,-50.45 12106.94,-45.15 12096.47,-43.57 12097.77,-50.45"/>
</a>
</g>
</g>
<!-- Node44 -->
<g id="Node000044" class="node">
<title>Node44</title>
<g id="a_Node000044"><a xlink:title=" ">
<ellipse fill="#e0e0e0" stroke="#999999" cx="12430.02" cy="-25.81" rx="123.21" ry="15.73"/>
<text xml:space="preserve" text-anchor="middle" x="12430.02" y="-21.53" font-family="Helvetica,sans-Serif" font-size="12.00">org.jire.runehiveps.OldToNew</text>
</a>
</g>
</g>
<!-- Node1&#45;&gt;Node44 -->
<g id="edge43_Node000001_Node000044" class="edge">
<title>Node1&#45;&gt;Node44</title>
<g id="a_edge43_Node000001_Node000044"><a xlink:title=" ">
<path fill="none" stroke="#63b8ff" d="M6886.78,-102.55C7691.82,-103.51 11745.61,-105.63 12298.02,-51.62 12318.38,-49.63 12340.3,-46.09 12360.31,-42.29"/>
<polygon fill="#63b8ff" stroke="#63b8ff" points="12360.9,-45.74 12370.04,-40.39 12359.55,-38.87 12360.9,-45.74"/>
</a>
</g>
</g>
<!-- Node45 -->
<g id="Node000045" class="node">
<title>Node45</title>
<g id="a_Node000045"><a xlink:title=" ">
<ellipse fill="#e0e0e0" stroke="#999999" cx="12716.02" cy="-25.81" rx="144.96" ry="25.81"/>
<text xml:space="preserve" text-anchor="start" x="12621.52" y="-28.66" font-family="Helvetica,sans-Serif" font-size="12.00">org.jire.runehiveps.objectexamines.</text>
<text xml:space="preserve" text-anchor="middle" x="12716.02" y="-14.41" font-family="Helvetica,sans-Serif" font-size="12.00">ObjectExamines</text>
</a>
</g>
</g>
<!-- Node1&#45;&gt;Node45 -->
<g id="edge44_Node000001_Node000045" class="edge">
<title>Node1&#45;&gt;Node45</title>
<g id="a_edge44_Node000001_Node000045"><a xlink:title=" ">
<path fill="none" stroke="#63b8ff" d="M6886.57,-102.4C7713.51,-102.51 11981.07,-100.67 12562.02,-51.62 12576.21,-50.42 12591.07,-48.67 12605.72,-46.64"/>
<polygon fill="#63b8ff" stroke="#63b8ff" points="12605.98,-50.14 12615.38,-45.25 12604.98,-43.21 12605.98,-50.14"/>
</a>
</g>
</g>
<!-- Node46 -->
<g id="Node000046" class="node">
<title>Node46</title>
<g id="a_Node000046"><a xlink:title=" ">
<ellipse fill="#e0e0e0" stroke="#999999" cx="12978.02" cy="-25.81" rx="98.82" ry="15.73"/>
<text xml:space="preserve" text-anchor="middle" x="12978.02" y="-21.53" font-family="Helvetica,sans-Serif" font-size="12.00">org.joda.time.DateTime</text>
</a>
</g>
</g>
<!-- Node1&#45;&gt;Node46 -->
<g id="edge45_Node000001_Node000046" class="edge">
<title>Node1&#45;&gt;Node46</title>
<g id="a_edge45_Node000001_Node000046"><a xlink:title=" ">
<path fill="none" stroke="#63b8ff" d="M6886.62,-102.06C7767.93,-100.08 12563.35,-87.68 12870.02,-51.62 12886.32,-49.7 12903.75,-46.31 12919.74,-42.63"/>
<polygon fill="#63b8ff" stroke="#63b8ff" points="12920.17,-46.13 12929.09,-40.41 12918.55,-39.32 12920.17,-46.13"/>
</a>
</g>
</g>
<!-- Node47 -->
<g id="Node000047" class="node">
<title>Node47</title>
<g id="a_Node000047"><a xlink:title=" ">
<ellipse fill="#e0e0e0" stroke="#999999" cx="13213.02" cy="-25.81" rx="118.44" ry="15.73"/>
<text xml:space="preserve" text-anchor="middle" x="13213.02" y="-21.53" font-family="Helvetica,sans-Serif" font-size="12.00">org.joda.time.DateTimeZone</text>
</a>
</g>
</g>
<!-- Node1&#45;&gt;Node47 -->
<g id="edge46_Node000001_Node000047" class="edge">
<title>Node1&#45;&gt;Node47</title>
<g id="a_edge46_Node000001_Node000047"><a xlink:title=" ">
<path fill="none" stroke="#63b8ff" d="M6886.38,-101.97C7785.11,-99.4 12767.36,-83.74 13086.02,-51.62 13105.63,-49.64 13126.73,-46.1 13145.98,-42.31"/>
<polygon fill="#63b8ff" stroke="#63b8ff" points="13146.5,-45.77 13155.6,-40.35 13145.1,-38.92 13146.5,-45.77"/>
</a>
</g>
</g>
<!-- Node48 -->
<g id="Node000048" class="node">
<title>Node48</title>
<g id="a_Node000048"><a xlink:title=" ">
<ellipse fill="#e0e0e0" stroke="#999999" cx="13463.02" cy="-25.81" rx="113.67" ry="25.81"/>
<text xml:space="preserve" text-anchor="start" x="13390.64" y="-28.66" font-family="Helvetica,sans-Serif" font-size="12.00">plugin.click.item.ClueScroll</text>
<text xml:space="preserve" text-anchor="middle" x="13463.02" y="-14.41" font-family="Helvetica,sans-Serif" font-size="12.00">Plugin</text>
</a>
</g>
</g>
<!-- Node1&#45;&gt;Node48 -->
<g id="edge47_Node000001_Node000048" class="edge">
<title>Node1&#45;&gt;Node48</title>
<g id="a_edge47_Node000001_Node000048"><a xlink:title=" ">
<path fill="none" stroke="#63b8ff" d="M6886.34,-102.04C7805.8,-99.86 13008.02,-86.06 13340.02,-51.62 13350.99,-50.48 13362.43,-48.82 13373.72,-46.89"/>
<polygon fill="#63b8ff" stroke="#63b8ff" points="13374.23,-50.36 13383.46,-45.15 13373,-43.47 13374.23,-50.36"/>
</a>
</g>
</g>
<!-- Node49 -->
<g id="Node000049" class="node">
<title>Node49</title>
<g id="a_Node000049"><a xlink:title=" ">
<ellipse fill="#e0e0e0" stroke="#999999" cx="13679.02" cy="-25.81" rx="84.5" ry="15.73"/>
<text xml:space="preserve" text-anchor="middle" x="13679.02" y="-21.53" font-family="Helvetica,sans-Serif" font-size="12.00">java.io.IOException</text>
</a>
</g>
</g>
<!-- Node1&#45;&gt;Node49 -->
<g id="edge48_Node000001_Node000049" class="edge">
<title>Node1&#45;&gt;Node49</title>
<g id="a_edge48_Node000001_Node000049"><a xlink:title=" ">
<path fill="none" stroke="#63b8ff" d="M6886.59,-102.32C7826.69,-101.97 13242.29,-97.98 13586.02,-51.62 13599.73,-49.77 13614.3,-46.52 13627.74,-42.97"/>
<polygon fill="#63b8ff" stroke="#63b8ff" points="13628.56,-46.38 13637.27,-40.34 13626.7,-39.63 13628.56,-46.38"/>
</a>
</g>
</g>
<!-- Node50 -->
<g id="Node000050" class="node">
<title>Node50</title>
<g id="a_Node000050"><a xlink:title=" ">
<ellipse fill="#e0e0e0" stroke="#999999" cx="13900.02" cy="-25.81" rx="118.44" ry="15.73"/>
<text xml:space="preserve" text-anchor="middle" x="13900.02" y="-21.53" font-family="Helvetica,sans-Serif" font-size="12.00">java.util.concurrent.TimeUnit</text>
</a>
</g>
</g>
<!-- Node1&#45;&gt;Node50 -->
<g id="edge49_Node000001_Node000050" class="edge">
<title>Node1&#45;&gt;Node50</title>
<g id="a_edge49_Node000001_Node000050"><a xlink:title=" ">
<path fill="none" stroke="#63b8ff" d="M6886.48,-102.08C7840.9,-100.09 13417.03,-87 13772.02,-51.62 13791.79,-49.65 13813.05,-46.11 13832.45,-42.32"/>
<polygon fill="#63b8ff" stroke="#63b8ff" points="13833.04,-45.77 13842.15,-40.36 13831.66,-38.91 13833.04,-45.77"/>
</a>
</g>
</g>
<!-- Node51 -->
<g id="Node000051" class="node">
<title>Node51</title>
<g id="a_Node000051"><a xlink:title=" ">
<ellipse fill="#e0e0e0" stroke="#999999" cx="14148.02" cy="-25.81" rx="111.55" ry="25.81"/>
<text xml:space="preserve" text-anchor="start" x="14077.14" y="-28.66" font-family="Helvetica,sans-Serif" font-size="12.00">java.util.concurrent.atomic.</text>
<text xml:space="preserve" text-anchor="middle" x="14148.02" y="-14.41" font-family="Helvetica,sans-Serif" font-size="12.00">AtomicBoolean</text>
</a>
</g>
</g>
<!-- Node1&#45;&gt;Node51 -->
<g id="edge50_Node000001_Node000051" class="edge">
<title>Node1&#45;&gt;Node51</title>
<g id="a_edge50_Node000001_Node000051"><a xlink:title=" ">
<path fill="none" stroke="#63b8ff" d="M6886.4,-102.16C7860.53,-100.68 13658.7,-90.29 14027.02,-51.62 14037.81,-50.49 14049.07,-48.83 14060.19,-46.9"/>
<polygon fill="#63b8ff" stroke="#63b8ff" points="14060.53,-50.4 14069.74,-45.17 14059.28,-43.51 14060.53,-50.4"/>
</a>
</g>
</g>
</g>
</svg>
