<?xml version="1.0" encoding="UTF-8" standalone="no"?>
<!DOCTYPE svg PUBLIC "-//W3C//DTD SVG 1.1//EN"
 "http://www.w3.org/Graphics/SVG/1.1/DTD/svg11.dtd">
<!-- Generated by graphviz version 14.0.1 (20251006.0113)
 -->
<!-- Title: java/com/runehive/net/packet/out/SendPlayerOption.java Pages: 1 -->
<svg width="1443pt" height="147pt"
 viewBox="0.00 0.00 1443.00 147.00" xmlns="http://www.w3.org/2000/svg" xmlns:xlink="http://www.w3.org/1999/xlink">
<g id="graph0" class="graph" transform="scale(1 1) rotate(0) translate(4 143.24)">
<title>java/com/runehive/net/packet/out/SendPlayerOption.java</title>
<!-- Node1 -->
<g id="Node000001" class="node">
<title>Node1</title>
<g id="a_Node000001"><a xlink:title=" ">
<ellipse fill="#999999" stroke="#666666" cx="576.18" cy="-113.43" rx="141.77" ry="25.81"/>
<text xml:space="preserve" text-anchor="start" x="483.93" y="-116.28" font-family="Helvetica,sans-Serif" font-size="12.00">java/com/runehive/net</text>
<text xml:space="preserve" text-anchor="middle" x="576.18" y="-102.03" font-family="Helvetica,sans-Serif" font-size="12.00">/packet/out/SendPlayerOption.java</text>
</a>
</g>
</g>
<!-- Node2 -->
<g id="Node000002" class="node">
<title>Node2</title>
<g id="a_Node000002"><a xlink:title=" ">
<ellipse fill="#e0e0e0" stroke="#999999" cx="105.18" cy="-25.81" rx="105.18" ry="25.81"/>
<text xml:space="preserve" text-anchor="start" x="38.81" y="-28.66" font-family="Helvetica,sans-Serif" font-size="12.00">com.runehive.net.packet.</text>
<text xml:space="preserve" text-anchor="middle" x="105.18" y="-14.41" font-family="Helvetica,sans-Serif" font-size="12.00">OutgoingPacket</text>
</a>
</g>
</g>
<!-- Node1&#45;&gt;Node2 -->
<g id="edge1_Node000001_Node000002" class="edge">
<title>Node1&#45;&gt;Node2</title>
<g id="a_edge1_Node000001_Node000002"><a xlink:title=" ">
<path fill="none" stroke="#63b8ff" d="M470.9,-95.79C399.69,-84.22 303.59,-67.98 219.18,-51.62 210.49,-49.93 201.44,-48.1 192.41,-46.22"/>
<polygon fill="#63b8ff" stroke="#63b8ff" points="193.42,-42.85 182.91,-44.22 191.97,-49.7 193.42,-42.85"/>
</a>
</g>
</g>
<!-- Node3 -->
<g id="Node000003" class="node">
<title>Node3</title>
<g id="a_Node000003"><a xlink:title=" ">
<ellipse fill="#e0e0e0" stroke="#999999" cx="333.18" cy="-25.81" rx="105.18" ry="25.81"/>
<text xml:space="preserve" text-anchor="start" x="266.81" y="-28.66" font-family="Helvetica,sans-Serif" font-size="12.00">com.runehive.net.packet.</text>
<text xml:space="preserve" text-anchor="middle" x="333.18" y="-14.41" font-family="Helvetica,sans-Serif" font-size="12.00">PacketType</text>
</a>
</g>
</g>
<!-- Node1&#45;&gt;Node3 -->
<g id="edge2_Node000001_Node000003" class="edge">
<title>Node1&#45;&gt;Node3</title>
<g id="a_edge2_Node000001_Node000003"><a xlink:title=" ">
<path fill="none" stroke="#63b8ff" d="M512.34,-89.93C478.57,-78.03 437.06,-63.41 402.5,-51.23"/>
<polygon fill="#63b8ff" stroke="#63b8ff" points="404.04,-48.07 393.45,-48.04 401.72,-54.67 404.04,-48.07"/>
</a>
</g>
</g>
<!-- Node4 -->
<g id="Node000004" class="node">
<title>Node4</title>
<g id="a_Node000004"><a xlink:title=" ">
<ellipse fill="#e0e0e0" stroke="#999999" cx="576.18" cy="-25.81" rx="120.03" ry="25.81"/>
<text xml:space="preserve" text-anchor="start" x="499.31" y="-28.66" font-family="Helvetica,sans-Serif" font-size="12.00">com.runehive.net.codec.Byte</text>
<text xml:space="preserve" text-anchor="middle" x="576.18" y="-14.41" font-family="Helvetica,sans-Serif" font-size="12.00">Modification</text>
</a>
</g>
</g>
<!-- Node1&#45;&gt;Node4 -->
<g id="edge3_Node000001_Node000004" class="edge">
<title>Node1&#45;&gt;Node4</title>
<g id="a_edge3_Node000001_Node000004"><a xlink:title=" ">
<path fill="none" stroke="#63b8ff" d="M576.18,-87.2C576.18,-79.71 576.18,-71.35 576.18,-63.3"/>
<polygon fill="#63b8ff" stroke="#63b8ff" points="579.68,-63.37 576.18,-53.37 572.68,-63.37 579.68,-63.37"/>
</a>
</g>
</g>
<!-- Node5 -->
<g id="Node000005" class="node">
<title>Node5</title>
<g id="a_Node000005"><a xlink:title=" ">
<ellipse fill="#e0e0e0" stroke="#999999" cx="890.18" cy="-25.81" rx="175.72" ry="25.81"/>
<text xml:space="preserve" text-anchor="start" x="773.93" y="-28.66" font-family="Helvetica,sans-Serif" font-size="12.00">com.runehive.game.world.entity.mob.player.</text>
<text xml:space="preserve" text-anchor="middle" x="890.18" y="-14.41" font-family="Helvetica,sans-Serif" font-size="12.00">Player</text>
</a>
</g>
</g>
<!-- Node1&#45;&gt;Node5 -->
<g id="edge4_Node000001_Node000005" class="edge">
<title>Node1&#45;&gt;Node5</title>
<g id="a_edge4_Node000001_Node000005"><a xlink:title=" ">
<path fill="none" stroke="#63b8ff" d="M653.4,-91.37C697.02,-79.48 751.84,-64.53 797.74,-52.02"/>
<polygon fill="#63b8ff" stroke="#63b8ff" points="798.41,-55.46 807.14,-49.45 796.57,-48.71 798.41,-55.46"/>
</a>
</g>
</g>
<!-- Node6 -->
<g id="Node000006" class="node">
<title>Node6</title>
<g id="a_Node000006"><a xlink:title=" ">
<ellipse fill="#e0e0e0" stroke="#999999" cx="1259.18" cy="-25.81" rx="175.72" ry="25.81"/>
<text xml:space="preserve" text-anchor="start" x="1142.93" y="-28.66" font-family="Helvetica,sans-Serif" font-size="12.00">com.runehive.game.world.entity.mob.player.</text>
<text xml:space="preserve" text-anchor="middle" x="1259.18" y="-14.41" font-family="Helvetica,sans-Serif" font-size="12.00">PlayerOption</text>
</a>
</g>
</g>
<!-- Node1&#45;&gt;Node6 -->
<g id="edge5_Node000001_Node000006" class="edge">
<title>Node1&#45;&gt;Node6</title>
<g id="a_edge5_Node000001_Node000006"><a xlink:title=" ">
<path fill="none" stroke="#63b8ff" d="M693.44,-98.57C794.6,-86.51 944.58,-68.38 1075.18,-51.62 1090.23,-49.69 1105.97,-47.63 1121.63,-45.55"/>
<polygon fill="#63b8ff" stroke="#63b8ff" points="1122.06,-49.02 1131.51,-44.24 1121.14,-42.09 1122.06,-49.02"/>
</a>
</g>
</g>
</g>
</svg>
