<?xml version="1.0" encoding="UTF-8" standalone="no"?>
<!DOCTYPE svg PUBLIC "-//W3C//DTD SVG 1.1//EN"
 "http://www.w3.org/Graphics/SVG/1.1/DTD/svg11.dtd">
<!-- Generated by graphviz version 14.0.1 (20251006.0113)
 -->
<!-- Title: java/dev/advo/fs/net/service/ServiceRequestDecoder.java Pages: 1 -->
<svg width="1487pt" height="147pt"
 viewBox="0.00 0.00 1487.00 147.00" xmlns="http://www.w3.org/2000/svg" xmlns:xlink="http://www.w3.org/1999/xlink">
<g id="graph0" class="graph" transform="scale(1 1) rotate(0) translate(4 143.24)">
<title>java/dev/advo/fs/net/service/ServiceRequestDecoder.java</title>
<!-- Node1 -->
<g id="Node000001" class="node">
<title>Node1</title>
<g id="a_Node000001"><a xlink:title=" ">
<ellipse fill="#999999" stroke="#666666" cx="736.68" cy="-113.43" rx="152.91" ry="25.81"/>
<text xml:space="preserve" text-anchor="start" x="636.56" y="-116.28" font-family="Helvetica,sans-Serif" font-size="12.00">java/dev/advo/fs/net</text>
<text xml:space="preserve" text-anchor="middle" x="736.68" y="-102.03" font-family="Helvetica,sans-Serif" font-size="12.00">/service/ServiceRequestDecoder.java</text>
</a>
</g>
</g>
<!-- Node2 -->
<g id="Node000002" class="node">
<title>Node2</title>
<g id="a_Node000002"><a xlink:title=" ">
<ellipse fill="#e0e0e0" stroke="#999999" cx="122.68" cy="-25.81" rx="122.68" ry="25.81"/>
<text xml:space="preserve" text-anchor="start" x="43.93" y="-28.66" font-family="Helvetica,sans-Serif" font-size="12.00">org.jboss.netty.buffer.Channel</text>
<text xml:space="preserve" text-anchor="middle" x="122.68" y="-14.41" font-family="Helvetica,sans-Serif" font-size="12.00">Buffer</text>
</a>
</g>
</g>
<!-- Node1&#45;&gt;Node2 -->
<g id="edge1_Node000001_Node000002" class="edge">
<title>Node1&#45;&gt;Node2</title>
<g id="a_edge1_Node000001_Node000002"><a xlink:title=" ">
<path fill="none" stroke="#63b8ff" d="M610.02,-98.65C512.42,-87.51 374.22,-70.6 253.68,-51.62 243.25,-49.98 232.37,-48.13 221.53,-46.2"/>
<polygon fill="#63b8ff" stroke="#63b8ff" points="222.23,-42.77 211.77,-44.44 220.99,-49.66 222.23,-42.77"/>
</a>
</g>
</g>
<!-- Node3 -->
<g id="Node000003" class="node">
<title>Node3</title>
<g id="a_Node000003"><a xlink:title=" ">
<ellipse fill="#e0e0e0" stroke="#999999" cx="385.68" cy="-25.81" rx="122.68" ry="25.81"/>
<text xml:space="preserve" text-anchor="start" x="306.93" y="-28.66" font-family="Helvetica,sans-Serif" font-size="12.00">org.jboss.netty.buffer.Channel</text>
<text xml:space="preserve" text-anchor="middle" x="385.68" y="-14.41" font-family="Helvetica,sans-Serif" font-size="12.00">Buffers</text>
</a>
</g>
</g>
<!-- Node1&#45;&gt;Node3 -->
<g id="edge2_Node000001_Node000003" class="edge">
<title>Node1&#45;&gt;Node3</title>
<g id="a_edge2_Node000001_Node000003"><a xlink:title=" ">
<path fill="none" stroke="#63b8ff" d="M651.27,-91.59C597.92,-78.58 529.34,-61.85 475.23,-48.65"/>
<polygon fill="#63b8ff" stroke="#63b8ff" points="476.28,-45.31 465.73,-46.34 474.62,-52.11 476.28,-45.31"/>
</a>
</g>
</g>
<!-- Node4 -->
<g id="Node000004" class="node">
<title>Node4</title>
<g id="a_Node000004"><a xlink:title=" ">
<ellipse fill="#e0e0e0" stroke="#999999" cx="626.68" cy="-25.81" rx="99.88" ry="25.81"/>
<text xml:space="preserve" text-anchor="start" x="564.06" y="-28.66" font-family="Helvetica,sans-Serif" font-size="12.00">org.jboss.netty.channel.</text>
<text xml:space="preserve" text-anchor="middle" x="626.68" y="-14.41" font-family="Helvetica,sans-Serif" font-size="12.00">Channel</text>
</a>
</g>
</g>
<!-- Node1&#45;&gt;Node4 -->
<g id="edge3_Node000001_Node000004" class="edge">
<title>Node1&#45;&gt;Node4</title>
<g id="a_edge3_Node000001_Node000004"><a xlink:title=" ">
<path fill="none" stroke="#63b8ff" d="M705.16,-87.89C693.11,-78.51 679.2,-67.68 666.47,-57.78"/>
<polygon fill="#63b8ff" stroke="#63b8ff" points="668.69,-55.07 658.64,-51.69 664.39,-60.59 668.69,-55.07"/>
</a>
</g>
</g>
<!-- Node5 -->
<g id="Node000005" class="node">
<title>Node5</title>
<g id="a_Node000005"><a xlink:title=" ">
<ellipse fill="#e0e0e0" stroke="#999999" cx="847.68" cy="-25.81" rx="103.06" ry="25.81"/>
<text xml:space="preserve" text-anchor="start" x="782.81" y="-28.66" font-family="Helvetica,sans-Serif" font-size="12.00">org.jboss.netty.channel.</text>
<text xml:space="preserve" text-anchor="middle" x="847.68" y="-14.41" font-family="Helvetica,sans-Serif" font-size="12.00">ChannelHandlerContext</text>
</a>
</g>
</g>
<!-- Node1&#45;&gt;Node5 -->
<g id="edge4_Node000001_Node000005" class="edge">
<title>Node1&#45;&gt;Node5</title>
<g id="a_edge4_Node000001_Node000005"><a xlink:title=" ">
<path fill="none" stroke="#63b8ff" d="M768.49,-87.89C780.66,-78.51 794.69,-67.68 807.54,-57.78"/>
<polygon fill="#63b8ff" stroke="#63b8ff" points="809.66,-60.56 815.44,-51.68 805.38,-55.02 809.66,-60.56"/>
</a>
</g>
</g>
<!-- Node6 -->
<g id="Node000006" class="node">
<title>Node6</title>
<g id="a_Node000006"><a xlink:title=" ">
<ellipse fill="#e0e0e0" stroke="#999999" cx="1068.68" cy="-25.81" rx="99.88" ry="25.81"/>
<text xml:space="preserve" text-anchor="start" x="1006.06" y="-28.66" font-family="Helvetica,sans-Serif" font-size="12.00">org.jboss.netty.channel.</text>
<text xml:space="preserve" text-anchor="middle" x="1068.68" y="-14.41" font-family="Helvetica,sans-Serif" font-size="12.00">ChannelPipeline</text>
</a>
</g>
</g>
<!-- Node1&#45;&gt;Node6 -->
<g id="edge5_Node000001_Node000006" class="edge">
<title>Node1&#45;&gt;Node6</title>
<g id="a_edge5_Node000001_Node000006"><a xlink:title=" ">
<path fill="none" stroke="#63b8ff" d="M818.75,-91.26C870.45,-77.93 936.89,-60.8 988.27,-47.55"/>
<polygon fill="#63b8ff" stroke="#63b8ff" points="989.05,-50.96 997.86,-45.07 987.31,-44.18 989.05,-50.96"/>
</a>
</g>
</g>
<!-- Node7 -->
<g id="Node000007" class="node">
<title>Node7</title>
<g id="a_Node000007"><a xlink:title=" ">
<ellipse fill="#e0e0e0" stroke="#999999" cx="1332.68" cy="-25.81" rx="146.02" ry="25.81"/>
<text xml:space="preserve" text-anchor="start" x="1237.43" y="-28.66" font-family="Helvetica,sans-Serif" font-size="12.00">org.jboss.netty.handler.codec.frame.</text>
<text xml:space="preserve" text-anchor="middle" x="1332.68" y="-14.41" font-family="Helvetica,sans-Serif" font-size="12.00">FrameDecoder</text>
</a>
</g>
</g>
<!-- Node1&#45;&gt;Node7 -->
<g id="edge6_Node000001_Node000007" class="edge">
<title>Node1&#45;&gt;Node7</title>
<g id="a_edge6_Node000001_Node000007"><a xlink:title=" ">
<path fill="none" stroke="#63b8ff" d="M855.17,-96.8C944.01,-84.91 1068.56,-67.87 1177.68,-51.62 1190.09,-49.77 1203.04,-47.79 1215.95,-45.77"/>
<polygon fill="#63b8ff" stroke="#63b8ff" points="1216.43,-49.24 1225.76,-44.23 1215.34,-42.32 1216.43,-49.24"/>
</a>
</g>
</g>
</g>
</svg>
