<?xml version="1.0" encoding="UTF-8" standalone="no"?>
<!DOCTYPE svg PUBLIC "-//W3C//DTD SVG 1.1//EN"
 "http://www.w3.org/Graphics/SVG/1.1/DTD/svg11.dtd">
<!-- Generated by graphviz version 14.0.1 (20251006.0113)
 -->
<!-- Title: java/com/runehive/game/world/entity/combat/attack/listener/npc/dragon/SkeletalWyvern.java Pages: 1 -->
<svg width="5306pt" height="167pt"
 viewBox="0.00 0.00 5306.00 167.00" xmlns="http://www.w3.org/2000/svg" xmlns:xlink="http://www.w3.org/1999/xlink">
<g id="graph0" class="graph" transform="scale(1 1) rotate(0) translate(4 163.39)">
<title>java/com/runehive/game/world/entity/combat/attack/listener/npc/dragon/SkeletalWyvern.java</title>
<!-- Node1 -->
<g id="Node000001" class="node">
<title>Node1</title>
<g id="a_Node000001"><a xlink:title=" ">
<ellipse fill="#999999" stroke="#666666" cx="2574.87" cy="-123.5" rx="165.11" ry="35.89"/>
<text xml:space="preserve" text-anchor="start" x="2466.12" y="-133.48" font-family="Helvetica,sans-Serif" font-size="12.00">java/com/runehive/game</text>
<text xml:space="preserve" text-anchor="start" x="2466.12" y="-119.23" font-family="Helvetica,sans-Serif" font-size="12.00">/world/entity/combat/attack</text>
<text xml:space="preserve" text-anchor="middle" x="2574.87" y="-104.98" font-family="Helvetica,sans-Serif" font-size="12.00">/listener/npc/dragon/SkeletalWyvern.java</text>
</a>
</g>
</g>
<!-- Node2 -->
<g id="Node000002" class="node">
<title>Node2</title>
<g id="a_Node000002"><a xlink:title=" ">
<ellipse fill="#e0e0e0" stroke="#999999" cx="125.87" cy="-25.81" rx="125.87" ry="15.73"/>
<text xml:space="preserve" text-anchor="middle" x="125.87" y="-21.53" font-family="Helvetica,sans-Serif" font-size="12.00">com.runehive.game.Animation</text>
</a>
</g>
</g>
<!-- Node1&#45;&gt;Node2 -->
<g id="edge1_Node000001_Node000002" class="edge">
<title>Node1&#45;&gt;Node2</title>
<g id="a_edge1_Node000001_Node000002"><a xlink:title=" ">
<path fill="none" stroke="#63b8ff" d="M2410.11,-120.7C1953.49,-115.17 678.01,-96.08 260.87,-51.62 240.27,-49.42 218.1,-45.86 197.8,-42.11"/>
<polygon fill="#63b8ff" stroke="#63b8ff" points="198.7,-38.72 188.22,-40.3 197.4,-45.6 198.7,-38.72"/>
</a>
</g>
</g>
<!-- Node3 -->
<g id="Node000003" class="node">
<title>Node3</title>
<g id="a_Node000003"><a xlink:title=" ">
<ellipse fill="#e0e0e0" stroke="#999999" cx="384.87" cy="-25.81" rx="115.26" ry="25.81"/>
<text xml:space="preserve" text-anchor="start" x="311.37" y="-28.66" font-family="Helvetica,sans-Serif" font-size="12.00">com.runehive.game.Update</text>
<text xml:space="preserve" text-anchor="middle" x="384.87" y="-14.41" font-family="Helvetica,sans-Serif" font-size="12.00">Priority</text>
</a>
</g>
</g>
<!-- Node1&#45;&gt;Node3 -->
<g id="edge2_Node000001_Node000003" class="edge">
<title>Node1&#45;&gt;Node3</title>
<g id="a_edge2_Node000001_Node000003"><a xlink:title=" ">
<path fill="none" stroke="#63b8ff" d="M2410.17,-120.29C1988.34,-114.06 876.56,-94.02 509.87,-51.62 498.9,-50.35 487.47,-48.64 476.16,-46.7"/>
<polygon fill="#63b8ff" stroke="#63b8ff" points="476.87,-43.27 466.41,-44.95 475.64,-50.16 476.87,-43.27"/>
</a>
</g>
</g>
<!-- Node4 -->
<g id="Node000004" class="node">
<title>Node4</title>
<g id="a_Node000004"><a xlink:title=" ">
<ellipse fill="#e0e0e0" stroke="#999999" cx="704.87" cy="-25.81" rx="186.32" ry="25.81"/>
<text xml:space="preserve" text-anchor="start" x="581.12" y="-28.66" font-family="Helvetica,sans-Serif" font-size="12.00">com.runehive.game.world.entity.combat.attack.</text>
<text xml:space="preserve" text-anchor="middle" x="704.87" y="-14.41" font-family="Helvetica,sans-Serif" font-size="12.00">FightType</text>
</a>
</g>
</g>
<!-- Node1&#45;&gt;Node4 -->
<g id="edge3_Node000001_Node000004" class="edge">
<title>Node1&#45;&gt;Node4</title>
<g id="a_edge3_Node000001_Node000004"><a xlink:title=" ">
<path fill="none" stroke="#63b8ff" d="M2410.03,-120.09C2109.53,-114.67 1452.68,-98.14 900.87,-51.62 882.95,-50.11 864.15,-48.18 845.59,-46.06"/>
<polygon fill="#63b8ff" stroke="#63b8ff" points="846.22,-42.61 835.89,-44.93 845.41,-49.56 846.22,-42.61"/>
</a>
</g>
</g>
<!-- Node5 -->
<g id="Node000005" class="node">
<title>Node5</title>
<g id="a_Node000005"><a xlink:title=" ">
<ellipse fill="#e0e0e0" stroke="#999999" cx="1124.87" cy="-25.81" rx="215.49" ry="25.81"/>
<text xml:space="preserve" text-anchor="start" x="980.49" y="-28.66" font-family="Helvetica,sans-Serif" font-size="12.00">com.runehive.game.world.entity.combat.attack.listener.</text>
<text xml:space="preserve" text-anchor="middle" x="1124.87" y="-14.41" font-family="Helvetica,sans-Serif" font-size="12.00">NpcCombatListenerSignature</text>
</a>
</g>
</g>
<!-- Node1&#45;&gt;Node5 -->
<g id="edge4_Node000001_Node000005" class="edge">
<title>Node1&#45;&gt;Node5</title>
<g id="a_edge4_Node000001_Node000005"><a xlink:title=" ">
<path fill="none" stroke="#63b8ff" d="M2413.17,-115.83C2178.61,-105.54 1730.38,-83.58 1349.87,-51.62 1329.62,-49.92 1308.37,-47.89 1287.35,-45.74"/>
<polygon fill="#63b8ff" stroke="#63b8ff" points="1287.86,-42.28 1277.55,-44.73 1287.14,-49.24 1287.86,-42.28"/>
</a>
</g>
</g>
<!-- Node6 -->
<g id="Node000006" class="node">
<title>Node6</title>
<g id="a_Node000006"><a xlink:title=" ">
<ellipse fill="#e0e0e0" stroke="#999999" cx="1573.87" cy="-25.81" rx="215.49" ry="25.81"/>
<text xml:space="preserve" text-anchor="start" x="1429.49" y="-28.66" font-family="Helvetica,sans-Serif" font-size="12.00">com.runehive.game.world.entity.combat.attack.listener.</text>
<text xml:space="preserve" text-anchor="middle" x="1573.87" y="-14.41" font-family="Helvetica,sans-Serif" font-size="12.00">SimplifiedListener</text>
</a>
</g>
</g>
<!-- Node1&#45;&gt;Node6 -->
<g id="edge5_Node000001_Node000006" class="edge">
<title>Node1&#45;&gt;Node6</title>
<g id="a_edge5_Node000001_Node000006"><a xlink:title=" ">
<path fill="none" stroke="#63b8ff" d="M2422.39,-109.43C2265.85,-95.8 2015.24,-73.43 1798.87,-51.62 1779.65,-49.68 1759.53,-47.58 1739.55,-45.43"/>
<polygon fill="#63b8ff" stroke="#63b8ff" points="1739.97,-41.96 1729.65,-44.37 1739.22,-48.92 1739.97,-41.96"/>
</a>
</g>
</g>
<!-- Node7 -->
<g id="Node000007" class="node">
<title>Node7</title>
<g id="a_Node000007"><a xlink:title=" ">
<ellipse fill="#e0e0e0" stroke="#999999" cx="1980.87" cy="-25.81" rx="173.06" ry="25.81"/>
<text xml:space="preserve" text-anchor="start" x="1866.49" y="-28.66" font-family="Helvetica,sans-Serif" font-size="12.00">com.runehive.game.world.entity.combat.hit.</text>
<text xml:space="preserve" text-anchor="middle" x="1980.87" y="-14.41" font-family="Helvetica,sans-Serif" font-size="12.00">CombatHit</text>
</a>
</g>
</g>
<!-- Node1&#45;&gt;Node7 -->
<g id="edge6_Node000001_Node000007" class="edge">
<title>Node1&#45;&gt;Node7</title>
<g id="a_edge6_Node000001_Node000007"><a xlink:title=" ">
<path fill="none" stroke="#63b8ff" d="M2443.77,-101.39C2343.6,-85.25 2206.35,-63.14 2107.34,-47.19"/>
<polygon fill="#63b8ff" stroke="#63b8ff" points="2107.99,-43.75 2097.56,-45.61 2106.88,-50.66 2107.99,-43.75"/>
</a>
</g>
</g>
<!-- Node8 -->
<g id="Node000008" class="node">
<title>Node8</title>
<g id="a_Node000008"><a xlink:title=" ">
<ellipse fill="#e0e0e0" stroke="#999999" cx="2364.87" cy="-25.81" rx="193.22" ry="25.81"/>
<text xml:space="preserve" text-anchor="start" x="2236.24" y="-28.66" font-family="Helvetica,sans-Serif" font-size="12.00">com.runehive.game.world.entity.combat.strategy.</text>
<text xml:space="preserve" text-anchor="middle" x="2364.87" y="-14.41" font-family="Helvetica,sans-Serif" font-size="12.00">CombatStrategy</text>
</a>
</g>
</g>
<!-- Node1&#45;&gt;Node8 -->
<g id="edge7_Node000001_Node000008" class="edge">
<title>Node1&#45;&gt;Node8</title>
<g id="a_edge7_Node000001_Node000008"><a xlink:title=" ">
<path fill="none" stroke="#63b8ff" d="M2504.94,-90.64C2480.09,-79.32 2452.28,-66.64 2428.03,-55.59"/>
<polygon fill="#63b8ff" stroke="#63b8ff" points="2429.81,-52.56 2419.26,-51.59 2426.9,-58.93 2429.81,-52.56"/>
</a>
</g>
</g>
<!-- Node9 -->
<g id="Node000009" class="node">
<title>Node9</title>
<g id="a_Node000009"><a xlink:title=" ">
<ellipse fill="#e0e0e0" stroke="#999999" cx="2784.87" cy="-25.81" rx="209.13" ry="25.81"/>
<text xml:space="preserve" text-anchor="start" x="2644.99" y="-28.66" font-family="Helvetica,sans-Serif" font-size="12.00">com.runehive.game.world.entity.combat.strategy.npc.</text>
<text xml:space="preserve" text-anchor="middle" x="2784.87" y="-14.41" font-family="Helvetica,sans-Serif" font-size="12.00">NpcMeleeStrategy</text>
</a>
</g>
</g>
<!-- Node1&#45;&gt;Node9 -->
<g id="edge8_Node000001_Node000009" class="edge">
<title>Node1&#45;&gt;Node9</title>
<g id="a_edge8_Node000001_Node000009"><a xlink:title=" ">
<path fill="none" stroke="#63b8ff" d="M2644.79,-90.64C2669.42,-79.41 2696.97,-66.86 2721.07,-55.88"/>
<polygon fill="#63b8ff" stroke="#63b8ff" points="2722.49,-59.08 2730.14,-51.75 2719.59,-52.71 2722.49,-59.08"/>
</a>
</g>
</g>
<!-- Node10 -->
<g id="Node000010" class="node">
<title>Node10</title>
<g id="a_Node000010"><a xlink:title=" ">
<ellipse fill="#e0e0e0" stroke="#999999" cx="3238.87" cy="-25.81" rx="227.16" ry="25.81"/>
<text xml:space="preserve" text-anchor="start" x="3086.24" y="-28.66" font-family="Helvetica,sans-Serif" font-size="12.00">com.runehive.game.world.entity.combat.strategy.npc.impl.</text>
<text xml:space="preserve" text-anchor="middle" x="3238.87" y="-14.41" font-family="Helvetica,sans-Serif" font-size="12.00">DragonfireStrategy</text>
</a>
</g>
</g>
<!-- Node1&#45;&gt;Node10 -->
<g id="edge9_Node000001_Node000010" class="edge">
<title>Node1&#45;&gt;Node10</title>
<g id="a_edge9_Node000001_Node000010"><a xlink:title=" ">
<path fill="none" stroke="#63b8ff" d="M2710.84,-102.91C2820.99,-87.03 2976.01,-64.69 3089.59,-48.32"/>
<polygon fill="#63b8ff" stroke="#63b8ff" points="3089.9,-51.81 3099.29,-46.92 3088.9,-44.89 3089.9,-51.81"/>
</a>
</g>
</g>
<!-- Node11 -->
<g id="Node000011" class="node">
<title>Node11</title>
<g id="a_Node000011"><a xlink:title=" ">
<ellipse fill="#e0e0e0" stroke="#999999" cx="3650.87" cy="-25.81" rx="167.23" ry="15.73"/>
<text xml:space="preserve" text-anchor="middle" x="3650.87" y="-21.53" font-family="Helvetica,sans-Serif" font-size="12.00">com.runehive.game.world.entity.mob.Mob</text>
</a>
</g>
</g>
<!-- Node1&#45;&gt;Node11 -->
<g id="edge10_Node000001_Node000011" class="edge">
<title>Node1&#45;&gt;Node11</title>
<g id="a_edge10_Node000001_Node000011"><a xlink:title=" ">
<path fill="none" stroke="#63b8ff" d="M2733.25,-112.98C2913.23,-101.48 3215.66,-80.07 3474.87,-51.62 3500.92,-48.76 3529.05,-45.07 3555.03,-41.41"/>
<polygon fill="#63b8ff" stroke="#63b8ff" points="3555.49,-44.88 3564.9,-40 3554.51,-37.95 3555.49,-44.88"/>
</a>
</g>
</g>
<!-- Node12 -->
<g id="Node000012" class="node">
<title>Node12</title>
<g id="a_Node000012"><a xlink:title=" ">
<ellipse fill="#e0e0e0" stroke="#999999" cx="4017.87" cy="-25.81" rx="182.08" ry="15.73"/>
<text xml:space="preserve" text-anchor="middle" x="4017.87" y="-21.53" font-family="Helvetica,sans-Serif" font-size="12.00">com.runehive.game.world.entity.mob.npc.Npc</text>
</a>
</g>
</g>
<!-- Node1&#45;&gt;Node12 -->
<g id="edge11_Node000001_Node000012" class="edge">
<title>Node1&#45;&gt;Node12</title>
<g id="a_edge11_Node000001_Node000012"><a xlink:title=" ">
<path fill="none" stroke="#63b8ff" d="M2737.71,-117.06C2976.86,-108.21 3436.95,-87.93 3826.87,-51.62 3855.96,-48.91 3887.46,-45.16 3916.32,-41.39"/>
<polygon fill="#63b8ff" stroke="#63b8ff" points="3916.7,-44.87 3926.16,-40.09 3915.78,-37.93 3916.7,-44.87"/>
</a>
</g>
</g>
<!-- Node13 -->
<g id="Node000013" class="node">
<title>Node13</title>
<g id="a_Node000013"><a xlink:title=" ">
<ellipse fill="#e0e0e0" stroke="#999999" cx="4379.87" cy="-25.81" rx="161.93" ry="25.81"/>
<text xml:space="preserve" text-anchor="start" x="4273.37" y="-28.66" font-family="Helvetica,sans-Serif" font-size="12.00">com.runehive.game.world.entity.combat.</text>
<text xml:space="preserve" text-anchor="middle" x="4379.87" y="-14.41" font-family="Helvetica,sans-Serif" font-size="12.00">CombatUtil.createStrategyArray</text>
</a>
</g>
</g>
<!-- Node1&#45;&gt;Node13 -->
<g id="edge12_Node000001_Node000013" class="edge">
<title>Node1&#45;&gt;Node13</title>
<g id="a_edge12_Node000001_Node000013"><a xlink:title=" ">
<path fill="none" stroke="#63b8ff" d="M2739.91,-120.83C3035.2,-116.62 3673.15,-101.97 4208.87,-51.62 4224.27,-50.17 4240.42,-48.3 4256.37,-46.23"/>
<polygon fill="#63b8ff" stroke="#63b8ff" points="4256.43,-49.76 4265.88,-44.97 4255.51,-42.82 4256.43,-49.76"/>
</a>
</g>
</g>
<!-- Node14 -->
<g id="Node000014" class="node">
<title>Node14</title>
<g id="a_Node000014"><a xlink:title=" ">
<ellipse fill="#e0e0e0" stroke="#999999" cx="4721.87" cy="-25.81" rx="161.93" ry="25.81"/>
<text xml:space="preserve" text-anchor="start" x="4615.37" y="-28.66" font-family="Helvetica,sans-Serif" font-size="12.00">com.runehive.game.world.entity.combat.</text>
<text xml:space="preserve" text-anchor="middle" x="4721.87" y="-14.41" font-family="Helvetica,sans-Serif" font-size="12.00">CombatUtil.randomStrategy</text>
</a>
</g>
</g>
<!-- Node1&#45;&gt;Node14 -->
<g id="edge13_Node000001_Node000014" class="edge">
<title>Node1&#45;&gt;Node14</title>
<g id="a_edge13_Node000001_Node000014"><a xlink:title=" ">
<path fill="none" stroke="#63b8ff" d="M2740.17,-122.61C3080,-121.49 3881.41,-112.01 4550.87,-51.62 4566.4,-50.22 4582.68,-48.36 4598.76,-46.29"/>
<polygon fill="#63b8ff" stroke="#63b8ff" points="4598.89,-49.81 4608.35,-45.03 4597.98,-42.87 4598.89,-49.81"/>
</a>
</g>
</g>
<!-- Node15 -->
<g id="Node000015" class="node">
<title>Node15</title>
<g id="a_Node000015"><a xlink:title=" ">
<ellipse fill="#e0e0e0" stroke="#999999" cx="5099.87" cy="-25.81" rx="198.52" ry="25.81"/>
<text xml:space="preserve" text-anchor="start" x="4967.49" y="-28.66" font-family="Helvetica,sans-Serif" font-size="12.00">com.runehive.game.world.entity.combat.projectile.</text>
<text xml:space="preserve" text-anchor="middle" x="5099.87" y="-14.41" font-family="Helvetica,sans-Serif" font-size="12.00">CombatProjectile.getDefinition</text>
</a>
</g>
</g>
<!-- Node1&#45;&gt;Node15 -->
<g id="edge14_Node000001_Node000015" class="edge">
<title>Node1&#45;&gt;Node15</title>
<g id="a_edge14_Node000001_Node000015"><a xlink:title=" ">
<path fill="none" stroke="#63b8ff" d="M2740.25,-122.48C3120.75,-121.31 4087.38,-112.08 4892.87,-51.62 4912.04,-50.18 4932.17,-48.27 4952.03,-46.15"/>
<polygon fill="#63b8ff" stroke="#63b8ff" points="4952.29,-49.64 4961.85,-45.07 4951.53,-42.68 4952.29,-49.64"/>
</a>
</g>
</g>
</g>
</svg>
