<?xml version="1.0" encoding="UTF-8" standalone="no"?>
<!DOCTYPE svg PUBLIC "-//W3C//DTD SVG 1.1//EN"
 "http://www.w3.org/Graphics/SVG/1.1/DTD/svg11.dtd">
<!-- Generated by graphviz version 14.0.1 (20251006.0113)
 -->
<!-- Title: java/com/runehive/content/combat/Skulling.java Pages: 1 -->
<svg width="1927pt" height="147pt"
 viewBox="0.00 0.00 1927.00 147.00" xmlns="http://www.w3.org/2000/svg" xmlns:xlink="http://www.w3.org/1999/xlink">
<g id="graph0" class="graph" transform="scale(1 1) rotate(0) translate(4 143.24)">
<title>java/com/runehive/content/combat/Skulling.java</title>
<!-- Node1 -->
<g id="Node000001" class="node">
<title>Node1</title>
<g id="a_Node000001"><a xlink:title=" ">
<ellipse fill="#999999" stroke="#666666" cx="948.27" cy="-113.43" rx="109.96" ry="25.81"/>
<text xml:space="preserve" text-anchor="start" x="878.52" y="-116.28" font-family="Helvetica,sans-Serif" font-size="12.00">java/com/runehive/content</text>
<text xml:space="preserve" text-anchor="middle" x="948.27" y="-102.03" font-family="Helvetica,sans-Serif" font-size="12.00">/combat/Skulling.java</text>
</a>
</g>
</g>
<!-- Node2 -->
<g id="Node000002" class="node">
<title>Node2</title>
<g id="a_Node000002"><a xlink:title=" ">
<ellipse fill="#e0e0e0" stroke="#999999" cx="89.27" cy="-25.81" rx="89.27" ry="15.73"/>
<text xml:space="preserve" text-anchor="middle" x="89.27" y="-21.53" font-family="Helvetica,sans-Serif" font-size="12.00">com.runehive.Config</text>
</a>
</g>
</g>
<!-- Node1&#45;&gt;Node2 -->
<g id="edge1_Node000001_Node000002" class="edge">
<title>Node1&#45;&gt;Node2</title>
<g id="a_edge1_Node000001_Node000002"><a xlink:title=" ">
<path fill="none" stroke="#63b8ff" d="M839.35,-109.38C691.17,-103.94 418.16,-89.35 188.27,-51.62 174.2,-49.31 159.19,-46 145.22,-42.55"/>
<polygon fill="#63b8ff" stroke="#63b8ff" points="146.31,-39.21 135.75,-40.14 144.58,-45.99 146.31,-39.21"/>
</a>
</g>
</g>
<!-- Node3 -->
<g id="Node000003" class="node">
<title>Node3</title>
<g id="a_Node000003"><a xlink:title=" ">
<ellipse fill="#e0e0e0" stroke="#999999" cx="306.27" cy="-25.81" rx="109.42" ry="25.81"/>
<text xml:space="preserve" text-anchor="start" x="236.9" y="-28.66" font-family="Helvetica,sans-Serif" font-size="12.00">com.runehive.content.lms.</text>
<text xml:space="preserve" text-anchor="middle" x="306.27" y="-14.41" font-family="Helvetica,sans-Serif" font-size="12.00">LMSGame</text>
</a>
</g>
</g>
<!-- Node1&#45;&gt;Node3 -->
<g id="edge2_Node000001_Node000003" class="edge">
<title>Node1&#45;&gt;Node3</title>
<g id="a_edge2_Node000001_Node000003"><a xlink:title=" ">
<path fill="none" stroke="#63b8ff" d="M846.66,-103.34C741.01,-93.25 571,-75.23 425.27,-51.62 415.66,-50.06 405.65,-48.26 395.69,-46.35"/>
<polygon fill="#63b8ff" stroke="#63b8ff" points="396.47,-42.94 385.99,-44.45 395.13,-49.81 396.47,-42.94"/>
</a>
</g>
</g>
<!-- Node4 -->
<g id="Node000004" class="node">
<title>Node4</title>
<g id="a_Node000004"><a xlink:title=" ">
<ellipse fill="#e0e0e0" stroke="#999999" cx="557.27" cy="-25.81" rx="123.21" ry="25.81"/>
<text xml:space="preserve" text-anchor="start" x="478.15" y="-28.66" font-family="Helvetica,sans-Serif" font-size="12.00">com.runehive.game.task.impl.</text>
<text xml:space="preserve" text-anchor="middle" x="557.27" y="-14.41" font-family="Helvetica,sans-Serif" font-size="12.00">SkullRemoveTask</text>
</a>
</g>
</g>
<!-- Node1&#45;&gt;Node4 -->
<g id="edge3_Node000001_Node000004" class="edge">
<title>Node1&#45;&gt;Node4</title>
<g id="a_edge3_Node000001_Node000004"><a xlink:title=" ">
<path fill="none" stroke="#63b8ff" d="M869.15,-95.1C806.37,-81.35 718.41,-62.1 651.91,-47.53"/>
<polygon fill="#63b8ff" stroke="#63b8ff" points="653,-44.19 642.49,-45.47 651.51,-51.03 653,-44.19"/>
</a>
</g>
</g>
<!-- Node5 -->
<g id="Node000005" class="node">
<title>Node5</title>
<g id="a_Node000005"><a xlink:title=" ">
<ellipse fill="#e0e0e0" stroke="#999999" cx="809.27" cy="-25.81" rx="110.49" ry="25.81"/>
<text xml:space="preserve" text-anchor="start" x="739.15" y="-28.66" font-family="Helvetica,sans-Serif" font-size="12.00">com.runehive.game.world.</text>
<text xml:space="preserve" text-anchor="middle" x="809.27" y="-14.41" font-family="Helvetica,sans-Serif" font-size="12.00">World</text>
</a>
</g>
</g>
<!-- Node1&#45;&gt;Node5 -->
<g id="edge4_Node000001_Node000005" class="edge">
<title>Node1&#45;&gt;Node5</title>
<g id="a_edge4_Node000001_Node000005"><a xlink:title=" ">
<path fill="none" stroke="#63b8ff" d="M909.92,-88.81C893.51,-78.7 874.19,-66.79 856.88,-56.13"/>
<polygon fill="#63b8ff" stroke="#63b8ff" points="859.14,-53.41 848.79,-51.15 855.46,-59.37 859.14,-53.41"/>
</a>
</g>
</g>
<!-- Node6 -->
<g id="Node000006" class="node">
<title>Node6</title>
<g id="a_Node000006"><a xlink:title=" ">
<ellipse fill="#e0e0e0" stroke="#999999" cx="1088.27" cy="-25.81" rx="150.79" ry="25.81"/>
<text xml:space="preserve" text-anchor="start" x="989.65" y="-28.66" font-family="Helvetica,sans-Serif" font-size="12.00">com.runehive.game.world.entity.mob.</text>
<text xml:space="preserve" text-anchor="middle" x="1088.27" y="-14.41" font-family="Helvetica,sans-Serif" font-size="12.00">UpdateFlag</text>
</a>
</g>
</g>
<!-- Node1&#45;&gt;Node6 -->
<g id="edge5_Node000001_Node000006" class="edge">
<title>Node1&#45;&gt;Node6</title>
<g id="a_edge5_Node000001_Node000006"><a xlink:title=" ">
<path fill="none" stroke="#63b8ff" d="M986.9,-88.81C1003,-78.96 1021.9,-67.4 1038.98,-56.95"/>
<polygon fill="#63b8ff" stroke="#63b8ff" points="1040.8,-59.94 1047.51,-51.74 1037.15,-53.97 1040.8,-59.94"/>
</a>
</g>
</g>
<!-- Node7 -->
<g id="Node000007" class="node">
<title>Node7</title>
<g id="a_Node000007"><a xlink:title=" ">
<ellipse fill="#e0e0e0" stroke="#999999" cx="1433.27" cy="-25.81" rx="175.72" ry="25.81"/>
<text xml:space="preserve" text-anchor="start" x="1317.02" y="-28.66" font-family="Helvetica,sans-Serif" font-size="12.00">com.runehive.game.world.entity.mob.player.</text>
<text xml:space="preserve" text-anchor="middle" x="1433.27" y="-14.41" font-family="Helvetica,sans-Serif" font-size="12.00">Player</text>
</a>
</g>
</g>
<!-- Node1&#45;&gt;Node7 -->
<g id="edge6_Node000001_Node000007" class="edge">
<title>Node1&#45;&gt;Node7</title>
<g id="a_edge6_Node000001_Node000007"><a xlink:title=" ">
<path fill="none" stroke="#63b8ff" d="M1034.7,-97.17C1111.8,-83.56 1225.49,-63.49 1311.73,-48.26"/>
<polygon fill="#63b8ff" stroke="#63b8ff" points="1312.18,-51.74 1321.42,-46.55 1310.97,-44.85 1312.18,-51.74"/>
</a>
</g>
</g>
<!-- Node8 -->
<g id="Node000008" class="node">
<title>Node8</title>
<g id="a_Node000008"><a xlink:title=" ">
<ellipse fill="#e0e0e0" stroke="#999999" cx="1708.27" cy="-25.81" rx="81.32" ry="15.73"/>
<text xml:space="preserve" text-anchor="middle" x="1708.27" y="-21.53" font-family="Helvetica,sans-Serif" font-size="12.00">java.util.LinkedList</text>
</a>
</g>
</g>
<!-- Node1&#45;&gt;Node8 -->
<g id="edge7_Node000001_Node000008" class="edge">
<title>Node1&#45;&gt;Node8</title>
<g id="a_edge7_Node000001_Node000008"><a xlink:title=" ">
<path fill="none" stroke="#63b8ff" d="M1056.7,-108.54C1189.86,-102.4 1422.2,-87.25 1618.27,-51.62 1630.73,-49.36 1643.96,-46.16 1656.33,-42.82"/>
<polygon fill="#63b8ff" stroke="#63b8ff" points="1657.26,-46.2 1665.95,-40.14 1655.38,-39.46 1657.26,-46.2"/>
</a>
</g>
</g>
<!-- Node9 -->
<g id="Node000009" class="node">
<title>Node9</title>
<g id="a_Node000009"><a xlink:title=" ">
<ellipse fill="#e0e0e0" stroke="#999999" cx="1863.27" cy="-25.81" rx="55.86" ry="15.73"/>
<text xml:space="preserve" text-anchor="middle" x="1863.27" y="-21.53" font-family="Helvetica,sans-Serif" font-size="12.00">java.util.List</text>
</a>
</g>
</g>
<!-- Node1&#45;&gt;Node9 -->
<g id="edge8_Node000001_Node000009" class="edge">
<title>Node1&#45;&gt;Node9</title>
<g id="a_edge8_Node000001_Node000009"><a xlink:title=" ">
<path fill="none" stroke="#63b8ff" d="M1056.62,-108.63C1252.94,-101.09 1659.97,-82.26 1798.27,-51.62 1806.8,-49.73 1815.7,-46.93 1824.07,-43.88"/>
<polygon fill="#63b8ff" stroke="#63b8ff" points="1825.22,-47.19 1833.3,-40.33 1822.71,-40.66 1825.22,-47.19"/>
</a>
</g>
</g>
</g>
</svg>
