<?xml version="1.0" encoding="UTF-8" standalone="no"?>
<!DOCTYPE svg PUBLIC "-//W3C//DTD SVG 1.1//EN"
 "http://www.w3.org/Graphics/SVG/1.1/DTD/svg11.dtd">
<!-- Generated by graphviz version 14.0.1 (20251006.0113)
 -->
<!-- Title: java/com/runehive/content/skill/impl/smithing/Smithing.java Pages: 1 -->
<svg width="2656pt" height="147pt"
 viewBox="0.00 0.00 2656.00 147.00" xmlns="http://www.w3.org/2000/svg" xmlns:xlink="http://www.w3.org/1999/xlink">
<g id="graph0" class="graph" transform="scale(1 1) rotate(0) translate(4 143.24)">
<title>java/com/runehive/content/skill/impl/smithing/Smithing.java</title>
<!-- Node1 -->
<g id="Node000001" class="node">
<title>Node1</title>
<g id="a_Node000001"><a xlink:title=" ">
<ellipse fill="#999999" stroke="#666666" cx="1368.72" cy="-113.43" rx="133.82" ry="25.81"/>
<text xml:space="preserve" text-anchor="start" x="1282.09" y="-116.28" font-family="Helvetica,sans-Serif" font-size="12.00">java/com/runehive/content</text>
<text xml:space="preserve" text-anchor="middle" x="1368.72" y="-102.03" font-family="Helvetica,sans-Serif" font-size="12.00">/skill/impl/smithing/Smithing.java</text>
</a>
</g>
</g>
<!-- Node2 -->
<g id="Node000002" class="node">
<title>Node2</title>
<g id="a_Node000002"><a xlink:title=" ">
<ellipse fill="#e0e0e0" stroke="#999999" cx="175.72" cy="-25.81" rx="175.72" ry="25.81"/>
<text xml:space="preserve" text-anchor="start" x="59.47" y="-28.66" font-family="Helvetica,sans-Serif" font-size="12.00">com.runehive.game.world.entity.mob.player.</text>
<text xml:space="preserve" text-anchor="middle" x="175.72" y="-14.41" font-family="Helvetica,sans-Serif" font-size="12.00">Player</text>
</a>
</g>
</g>
<!-- Node1&#45;&gt;Node2 -->
<g id="edge1_Node000001_Node000002" class="edge">
<title>Node1&#45;&gt;Node2</title>
<g id="a_edge1_Node000001_Node000002"><a xlink:title=" ">
<path fill="none" stroke="#63b8ff" d="M1237.99,-107.59C1045.55,-99.79 674.81,-82.11 360.72,-51.62 344.18,-50.01 326.85,-48.06 309.7,-45.95"/>
<polygon fill="#63b8ff" stroke="#63b8ff" points="310.33,-42.5 299.97,-44.74 309.46,-49.45 310.33,-42.5"/>
</a>
</g>
</g>
<!-- Node3 -->
<g id="Node000003" class="node">
<title>Node3</title>
<g id="a_Node000003"><a xlink:title=" ">
<ellipse fill="#e0e0e0" stroke="#999999" cx="504.72" cy="-25.81" rx="134.88" ry="25.81"/>
<text xml:space="preserve" text-anchor="start" x="417.34" y="-28.66" font-family="Helvetica,sans-Serif" font-size="12.00">com.runehive.content.event.impl.</text>
<text xml:space="preserve" text-anchor="middle" x="504.72" y="-14.41" font-family="Helvetica,sans-Serif" font-size="12.00">ClickButtonInteractionEvent</text>
</a>
</g>
</g>
<!-- Node1&#45;&gt;Node3 -->
<g id="edge2_Node000001_Node000003" class="edge">
<title>Node1&#45;&gt;Node3</title>
<g id="a_edge2_Node000001_Node000003"><a xlink:title=" ">
<path fill="none" stroke="#63b8ff" d="M1241.56,-105.02C1097.41,-95.85 855.58,-78.12 648.72,-51.62 636.55,-50.06 623.85,-48.21 611.24,-46.22"/>
<polygon fill="#63b8ff" stroke="#63b8ff" points="612.13,-42.82 601.7,-44.69 611.02,-49.73 612.13,-42.82"/>
</a>
</g>
</g>
<!-- Node4 -->
<g id="Node000004" class="node">
<title>Node4</title>
<g id="a_Node000004"><a xlink:title=" ">
<ellipse fill="#e0e0e0" stroke="#999999" cx="792.72" cy="-25.81" rx="134.88" ry="25.81"/>
<text xml:space="preserve" text-anchor="start" x="705.34" y="-28.66" font-family="Helvetica,sans-Serif" font-size="12.00">com.runehive.content.event.impl.</text>
<text xml:space="preserve" text-anchor="middle" x="792.72" y="-14.41" font-family="Helvetica,sans-Serif" font-size="12.00">ItemContainerInteractionEvent</text>
</a>
</g>
</g>
<!-- Node1&#45;&gt;Node4 -->
<g id="edge3_Node000001_Node000004" class="edge">
<title>Node1&#45;&gt;Node4</title>
<g id="a_edge3_Node000001_Node000004"><a xlink:title=" ">
<path fill="none" stroke="#63b8ff" d="M1259.83,-98.05C1172.4,-86.27 1046.53,-68.8 936.72,-51.62 925.32,-49.84 913.43,-47.9 901.58,-45.93"/>
<polygon fill="#63b8ff" stroke="#63b8ff" points="902.18,-42.48 891.74,-44.28 901.02,-49.39 902.18,-42.48"/>
</a>
</g>
</g>
<!-- Node5 -->
<g id="Node000005" class="node">
<title>Node5</title>
<g id="a_Node000005"><a xlink:title=" ">
<ellipse fill="#e0e0e0" stroke="#999999" cx="1080.72" cy="-25.81" rx="134.88" ry="25.81"/>
<text xml:space="preserve" text-anchor="start" x="993.34" y="-28.66" font-family="Helvetica,sans-Serif" font-size="12.00">com.runehive.content.event.impl.</text>
<text xml:space="preserve" text-anchor="middle" x="1080.72" y="-14.41" font-family="Helvetica,sans-Serif" font-size="12.00">ItemOnObjectInteractionEvent</text>
</a>
</g>
</g>
<!-- Node1&#45;&gt;Node5 -->
<g id="edge4_Node000001_Node000005" class="edge">
<title>Node1&#45;&gt;Node5</title>
<g id="a_edge4_Node000001_Node000005"><a xlink:title=" ">
<path fill="none" stroke="#63b8ff" d="M1297.53,-91.26C1256.84,-79.17 1205.64,-63.95 1163.2,-51.33"/>
<polygon fill="#63b8ff" stroke="#63b8ff" points="1164.37,-48.03 1153.79,-48.53 1162.38,-54.74 1164.37,-48.03"/>
</a>
</g>
</g>
<!-- Node6 -->
<g id="Node000006" class="node">
<title>Node6</title>
<g id="a_Node000006"><a xlink:title=" ">
<ellipse fill="#e0e0e0" stroke="#999999" cx="1368.72" cy="-25.81" rx="134.88" ry="25.81"/>
<text xml:space="preserve" text-anchor="start" x="1281.34" y="-28.66" font-family="Helvetica,sans-Serif" font-size="12.00">com.runehive.content.event.impl.</text>
<text xml:space="preserve" text-anchor="middle" x="1368.72" y="-14.41" font-family="Helvetica,sans-Serif" font-size="12.00">ObjectInteractionEvent</text>
</a>
</g>
</g>
<!-- Node1&#45;&gt;Node6 -->
<g id="edge5_Node000001_Node000006" class="edge">
<title>Node1&#45;&gt;Node6</title>
<g id="a_edge5_Node000001_Node000006"><a xlink:title=" ">
<path fill="none" stroke="#63b8ff" d="M1368.72,-87.2C1368.72,-79.71 1368.72,-71.35 1368.72,-63.3"/>
<polygon fill="#63b8ff" stroke="#63b8ff" points="1372.22,-63.37 1368.72,-53.37 1365.22,-63.37 1372.22,-63.37"/>
</a>
</g>
</g>
<!-- Node7 -->
<g id="Node000007" class="node">
<title>Node7</title>
<g id="a_Node000007"><a xlink:title=" ">
<ellipse fill="#e0e0e0" stroke="#999999" cx="1670.72" cy="-25.81" rx="149.2" ry="25.81"/>
<text xml:space="preserve" text-anchor="start" x="1573.22" y="-28.66" font-family="Helvetica,sans-Serif" font-size="12.00">com.runehive.game.world.entity.skill.</text>
<text xml:space="preserve" text-anchor="middle" x="1670.72" y="-14.41" font-family="Helvetica,sans-Serif" font-size="12.00">Skill</text>
</a>
</g>
</g>
<!-- Node1&#45;&gt;Node7 -->
<g id="edge6_Node000001_Node000007" class="edge">
<title>Node1&#45;&gt;Node7</title>
<g id="a_edge6_Node000001_Node000007"><a xlink:title=" ">
<path fill="none" stroke="#63b8ff" d="M1442.59,-91.48C1485.18,-79.41 1538.96,-64.16 1583.6,-51.51"/>
<polygon fill="#63b8ff" stroke="#63b8ff" points="1584.33,-54.94 1592.99,-48.84 1582.42,-48.21 1584.33,-54.94"/>
</a>
</g>
</g>
<!-- Node8 -->
<g id="Node000008" class="node">
<title>Node8</title>
<g id="a_Node000008"><a xlink:title=" ">
<ellipse fill="#e0e0e0" stroke="#999999" cx="1986.72" cy="-25.81" rx="148.67" ry="15.73"/>
<text xml:space="preserve" text-anchor="middle" x="1986.72" y="-21.53" font-family="Helvetica,sans-Serif" font-size="12.00">com.runehive.game.world.items.Item</text>
</a>
</g>
</g>
<!-- Node1&#45;&gt;Node8 -->
<g id="edge7_Node000001_Node000008" class="edge">
<title>Node1&#45;&gt;Node8</title>
<g id="a_edge7_Node000001_Node000008"><a xlink:title=" ">
<path fill="none" stroke="#63b8ff" d="M1479.43,-98.56C1572.67,-86.7 1709.52,-68.85 1828.72,-51.62 1850.81,-48.42 1874.62,-44.79 1896.88,-41.3"/>
<polygon fill="#63b8ff" stroke="#63b8ff" points="1897.18,-44.8 1906.52,-39.79 1896.1,-37.88 1897.18,-44.8"/>
</a>
</g>
</g>
<!-- Node9 -->
<g id="Node000009" class="node">
<title>Node9</title>
<g id="a_Node000009"><a xlink:title=" ">
<ellipse fill="#e0e0e0" stroke="#999999" cx="2272.72" cy="-25.81" rx="118.97" ry="25.81"/>
<text xml:space="preserve" text-anchor="start" x="2196.59" y="-28.66" font-family="Helvetica,sans-Serif" font-size="12.00">com.runehive.net.packet.out.</text>
<text xml:space="preserve" text-anchor="middle" x="2272.72" y="-14.41" font-family="Helvetica,sans-Serif" font-size="12.00">SendInputAmount</text>
</a>
</g>
</g>
<!-- Node1&#45;&gt;Node9 -->
<g id="edge8_Node000001_Node000009" class="edge">
<title>Node1&#45;&gt;Node9</title>
<g id="a_edge8_Node000001_Node000009"><a xlink:title=" ">
<path fill="none" stroke="#63b8ff" d="M1498.6,-106.75C1653.11,-98.96 1918.58,-82.29 2144.72,-51.62 2155.48,-50.16 2166.71,-48.37 2177.85,-46.44"/>
<polygon fill="#63b8ff" stroke="#63b8ff" points="2178.22,-49.93 2187.45,-44.72 2176.99,-43.04 2178.22,-49.93"/>
</a>
</g>
</g>
<!-- Node10 -->
<g id="Node000010" class="node">
<title>Node10</title>
<g id="a_Node000010"><a xlink:title=" ">
<ellipse fill="#e0e0e0" stroke="#999999" cx="2528.72" cy="-25.81" rx="118.97" ry="25.81"/>
<text xml:space="preserve" text-anchor="start" x="2452.59" y="-28.66" font-family="Helvetica,sans-Serif" font-size="12.00">com.runehive.net.packet.out.</text>
<text xml:space="preserve" text-anchor="middle" x="2528.72" y="-14.41" font-family="Helvetica,sans-Serif" font-size="12.00">SendMessage</text>
</a>
</g>
</g>
<!-- Node1&#45;&gt;Node10 -->
<g id="edge9_Node000001_Node000010" class="edge">
<title>Node1&#45;&gt;Node10</title>
<g id="a_edge9_Node000001_Node000010"><a xlink:title=" ">
<path fill="none" stroke="#63b8ff" d="M1502.01,-110.21C1699.14,-105.66 2079.74,-92 2400.72,-51.62 2411.58,-50.25 2422.91,-48.52 2434.14,-46.6"/>
<polygon fill="#63b8ff" stroke="#63b8ff" points="2434.58,-50.07 2443.83,-44.89 2433.37,-43.18 2434.58,-50.07"/>
</a>
</g>
</g>
</g>
</svg>
