<?xml version="1.0" encoding="UTF-8" standalone="no"?>
<!DOCTYPE svg PUBLIC "-//W3C//DTD SVG 1.1//EN"
 "http://www.w3.org/Graphics/SVG/1.1/DTD/svg11.dtd">
<!-- Generated by graphviz version 14.0.1 (20251006.0113)
 -->
<!-- Title: java/com/runehive/game/action/impl/SpadeAction.java Pages: 1 -->
<svg width="1781pt" height="147pt"
 viewBox="0.00 0.00 1781.00 147.00" xmlns="http://www.w3.org/2000/svg" xmlns:xlink="http://www.w3.org/1999/xlink">
<g id="graph0" class="graph" transform="scale(1 1) rotate(0) translate(4 143.24)">
<title>java/com/runehive/game/action/impl/SpadeAction.java</title>
<!-- Node1 -->
<g id="Node000001" class="node">
<title>Node1</title>
<g id="a_Node000001"><a xlink:title=" ">
<ellipse fill="#999999" stroke="#666666" cx="770.97" cy="-113.43" rx="123.21" ry="25.81"/>
<text xml:space="preserve" text-anchor="start" x="691.85" y="-116.28" font-family="Helvetica,sans-Serif" font-size="12.00">java/com/runehive/game</text>
<text xml:space="preserve" text-anchor="middle" x="770.97" y="-102.03" font-family="Helvetica,sans-Serif" font-size="12.00">/action/impl/SpadeAction.java</text>
</a>
</g>
</g>
<!-- Node2 -->
<g id="Node000002" class="node">
<title>Node2</title>
<g id="a_Node000002"><a xlink:title=" ">
<ellipse fill="#e0e0e0" stroke="#999999" cx="118.97" cy="-25.81" rx="118.97" ry="25.81"/>
<text xml:space="preserve" text-anchor="start" x="42.85" y="-28.66" font-family="Helvetica,sans-Serif" font-size="12.00">com.runehive.net.packet.out.</text>
<text xml:space="preserve" text-anchor="middle" x="118.97" y="-14.41" font-family="Helvetica,sans-Serif" font-size="12.00">SendMessage</text>
</a>
</g>
</g>
<!-- Node1&#45;&gt;Node2 -->
<g id="edge1_Node000001_Node000002" class="edge">
<title>Node1&#45;&gt;Node2</title>
<g id="a_edge1_Node000001_Node000002"><a xlink:title=" ">
<path fill="none" stroke="#63b8ff" d="M659.73,-101.99C553.43,-91.44 388.84,-73.57 246.97,-51.62 236.59,-50.01 225.78,-48.18 215.02,-46.24"/>
<polygon fill="#63b8ff" stroke="#63b8ff" points="215.8,-42.83 205.33,-44.47 214.54,-49.71 215.8,-42.83"/>
</a>
</g>
</g>
<!-- Node3 -->
<g id="Node000003" class="node">
<title>Node3</title>
<g id="a_Node000003"><a xlink:title=" ">
<ellipse fill="#e0e0e0" stroke="#999999" cx="381.97" cy="-25.81" rx="125.87" ry="15.73"/>
<text xml:space="preserve" text-anchor="middle" x="381.97" y="-21.53" font-family="Helvetica,sans-Serif" font-size="12.00">com.runehive.game.Animation</text>
</a>
</g>
</g>
<!-- Node1&#45;&gt;Node3 -->
<g id="edge2_Node000001_Node000003" class="edge">
<title>Node1&#45;&gt;Node3</title>
<g id="a_edge2_Node000001_Node000003"><a xlink:title=" ">
<path fill="none" stroke="#63b8ff" d="M687.52,-94.06C617.77,-78.71 519.37,-57.05 453.26,-42.5"/>
<polygon fill="#63b8ff" stroke="#63b8ff" points="454.12,-39.11 443.6,-40.37 452.62,-45.94 454.12,-39.11"/>
</a>
</g>
</g>
<!-- Node4 -->
<g id="Node000004" class="node">
<title>Node4</title>
<g id="a_Node000004"><a xlink:title=" ">
<ellipse fill="#e0e0e0" stroke="#999999" cx="637.97" cy="-25.81" rx="112.61" ry="25.81"/>
<text xml:space="preserve" text-anchor="start" x="566.35" y="-28.66" font-family="Helvetica,sans-Serif" font-size="12.00">com.runehive.game.action.</text>
<text xml:space="preserve" text-anchor="middle" x="637.97" y="-14.41" font-family="Helvetica,sans-Serif" font-size="12.00">Action</text>
</a>
</g>
</g>
<!-- Node1&#45;&gt;Node4 -->
<g id="edge3_Node000001_Node000004" class="edge">
<title>Node1&#45;&gt;Node4</title>
<g id="a_edge3_Node000001_Node000004"><a xlink:title=" ">
<path fill="none" stroke="#63b8ff" d="M733.57,-88.35C718.15,-78.43 700.14,-66.83 683.93,-56.4"/>
<polygon fill="#63b8ff" stroke="#63b8ff" points="686.21,-53.7 675.91,-51.23 682.42,-59.59 686.21,-53.7"/>
</a>
</g>
</g>
<!-- Node5 -->
<g id="Node000005" class="node">
<title>Node5</title>
<g id="a_Node000005"><a xlink:title=" ">
<ellipse fill="#e0e0e0" stroke="#999999" cx="904.97" cy="-25.81" rx="136.47" ry="25.81"/>
<text xml:space="preserve" text-anchor="start" x="816.47" y="-28.66" font-family="Helvetica,sans-Serif" font-size="12.00">com.runehive.game.action.policy.</text>
<text xml:space="preserve" text-anchor="middle" x="904.97" y="-14.41" font-family="Helvetica,sans-Serif" font-size="12.00">WalkablePolicy</text>
</a>
</g>
</g>
<!-- Node1&#45;&gt;Node5 -->
<g id="edge4_Node000001_Node000005" class="edge">
<title>Node1&#45;&gt;Node5</title>
<g id="a_edge4_Node000001_Node000005"><a xlink:title=" ">
<path fill="none" stroke="#63b8ff" d="M808.3,-88.58C823.7,-78.73 841.73,-67.21 858.02,-56.81"/>
<polygon fill="#63b8ff" stroke="#63b8ff" points="859.56,-59.98 866.1,-51.64 855.79,-54.08 859.56,-59.98"/>
</a>
</g>
</g>
<!-- Node6 -->
<g id="Node000006" class="node">
<title>Node6</title>
<g id="a_Node000006"><a xlink:title=" ">
<ellipse fill="#e0e0e0" stroke="#999999" cx="1234.97" cy="-25.81" rx="175.72" ry="25.81"/>
<text xml:space="preserve" text-anchor="start" x="1118.72" y="-28.66" font-family="Helvetica,sans-Serif" font-size="12.00">com.runehive.game.world.entity.mob.player.</text>
<text xml:space="preserve" text-anchor="middle" x="1234.97" y="-14.41" font-family="Helvetica,sans-Serif" font-size="12.00">Player</text>
</a>
</g>
</g>
<!-- Node1&#45;&gt;Node6 -->
<g id="edge5_Node000001_Node000006" class="edge">
<title>Node1&#45;&gt;Node6</title>
<g id="a_edge5_Node000001_Node000006"><a xlink:title=" ">
<path fill="none" stroke="#63b8ff" d="M861.81,-95.67C934.63,-82.23 1037.39,-63.27 1116.64,-48.64"/>
<polygon fill="#63b8ff" stroke="#63b8ff" points="1116.97,-52.14 1126.17,-46.89 1115.7,-45.26 1116.97,-52.14"/>
</a>
</g>
</g>
<!-- Node7 -->
<g id="Node000007" class="node">
<title>Node7</title>
<g id="a_Node000007"><a xlink:title=" ">
<ellipse fill="#e0e0e0" stroke="#999999" cx="1600.97" cy="-25.81" rx="172" ry="25.81"/>
<text xml:space="preserve" text-anchor="start" x="1487.35" y="-28.66" font-family="Helvetica,sans-Serif" font-size="12.00">com.runehive.content.activity.impl.barrows.</text>
<text xml:space="preserve" text-anchor="middle" x="1600.97" y="-14.41" font-family="Helvetica,sans-Serif" font-size="12.00">BarrowsUtility</text>
</a>
</g>
</g>
<!-- Node1&#45;&gt;Node7 -->
<g id="edge6_Node000001_Node000007" class="edge">
<title>Node1&#45;&gt;Node7</title>
<g id="a_edge6_Node000001_Node000007"><a xlink:title=" ">
<path fill="none" stroke="#63b8ff" d="M884.84,-103.24C1014.56,-92.44 1232.79,-73.21 1419.97,-51.62 1435.46,-49.83 1451.67,-47.82 1467.76,-45.73"/>
<polygon fill="#63b8ff" stroke="#63b8ff" points="1467.91,-49.24 1477.37,-44.47 1467,-42.3 1467.91,-49.24"/>
</a>
</g>
</g>
</g>
</svg>
