<?xml version="1.0" encoding="UTF-8" standalone="no"?>
<!DOCTYPE svg PUBLIC "-//W3C//DTD SVG 1.1//EN"
 "http://www.w3.org/Graphics/SVG/1.1/DTD/svg11.dtd">
<!-- Generated by graphviz version 14.0.1 (20251006.0113)
 -->
<!-- Title: java/com/runehive/content/skill/impl/thieving/Thieving.java Pages: 1 -->
<svg width="6644pt" height="147pt"
 viewBox="0.00 0.00 6644.00 147.00" xmlns="http://www.w3.org/2000/svg" xmlns:xlink="http://www.w3.org/1999/xlink">
<g id="graph0" class="graph" transform="scale(1 1) rotate(0) translate(4 143.24)">
<title>java/com/runehive/content/skill/impl/thieving/Thieving.java</title>
<!-- Node1 -->
<g id="Node000001" class="node">
<title>Node1</title>
<g id="a_Node000001"><a xlink:title=" ">
<ellipse fill="#999999" stroke="#666666" cx="3088.27" cy="-113.43" rx="131.17" ry="25.81"/>
<text xml:space="preserve" text-anchor="start" x="3003.52" y="-116.28" font-family="Helvetica,sans-Serif" font-size="12.00">java/com/runehive/content</text>
<text xml:space="preserve" text-anchor="middle" x="3088.27" y="-102.03" font-family="Helvetica,sans-Serif" font-size="12.00">/skill/impl/thieving/Thieving.java</text>
</a>
</g>
</g>
<!-- Node2 -->
<g id="Node000002" class="node">
<title>Node2</title>
<g id="a_Node000002"><a xlink:title=" ">
<ellipse fill="#e0e0e0" stroke="#999999" cx="89.27" cy="-25.81" rx="89.27" ry="15.73"/>
<text xml:space="preserve" text-anchor="middle" x="89.27" y="-21.53" font-family="Helvetica,sans-Serif" font-size="12.00">com.runehive.Config</text>
</a>
</g>
</g>
<!-- Node1&#45;&gt;Node2 -->
<g id="edge1_Node000001_Node000002" class="edge">
<title>Node1&#45;&gt;Node2</title>
<g id="a_edge1_Node000001_Node000002"><a xlink:title=" ">
<path fill="none" stroke="#63b8ff" d="M2957.24,-111.43C2428,-107.17 463.32,-88.96 187.27,-51.62 172.86,-49.67 157.52,-46.38 143.35,-42.83"/>
<polygon fill="#63b8ff" stroke="#63b8ff" points="144.3,-39.46 133.74,-40.33 142.53,-46.24 144.3,-39.46"/>
</a>
</g>
</g>
<!-- Node3 -->
<g id="Node000003" class="node">
<title>Node3</title>
<g id="a_Node000003"><a xlink:title=" ">
<ellipse fill="#e0e0e0" stroke="#999999" cx="369.27" cy="-25.81" rx="173.06" ry="25.81"/>
<text xml:space="preserve" text-anchor="start" x="254.9" y="-28.66" font-family="Helvetica,sans-Serif" font-size="12.00">com.runehive.content.activity.randomevent.</text>
<text xml:space="preserve" text-anchor="middle" x="369.27" y="-14.41" font-family="Helvetica,sans-Serif" font-size="12.00">RandomEventHandler</text>
</a>
</g>
</g>
<!-- Node1&#45;&gt;Node3 -->
<g id="edge2_Node000001_Node000003" class="edge">
<title>Node1&#45;&gt;Node3</title>
<g id="a_edge2_Node000001_Node000003"><a xlink:title=" ">
<path fill="none" stroke="#63b8ff" d="M2957.33,-111.22C2507.33,-106.77 1025.86,-89.53 551.27,-51.62 534.45,-50.28 516.81,-48.43 499.41,-46.34"/>
<polygon fill="#63b8ff" stroke="#63b8ff" points="499.87,-42.87 489.52,-45.12 499.01,-49.82 499.87,-42.87"/>
</a>
</g>
</g>
<!-- Node4 -->
<g id="Node000004" class="node">
<title>Node4</title>
<g id="a_Node000004"><a xlink:title=" ">
<ellipse fill="#e0e0e0" stroke="#999999" cx="732.27" cy="-25.81" rx="172" ry="25.81"/>
<text xml:space="preserve" text-anchor="start" x="618.65" y="-28.66" font-family="Helvetica,sans-Serif" font-size="12.00">com.runehive.content.clanchannel.content.</text>
<text xml:space="preserve" text-anchor="middle" x="732.27" y="-14.41" font-family="Helvetica,sans-Serif" font-size="12.00">ClanTaskKey</text>
</a>
</g>
</g>
<!-- Node1&#45;&gt;Node4 -->
<g id="edge3_Node000001_Node000004" class="edge">
<title>Node1&#45;&gt;Node4</title>
<g id="a_edge3_Node000001_Node000004"><a xlink:title=" ">
<path fill="none" stroke="#63b8ff" d="M2957.66,-110.63C2551.49,-104.76 1313.87,-84.58 913.27,-51.62 896.55,-50.24 879,-48.38 861.69,-46.28"/>
<polygon fill="#63b8ff" stroke="#63b8ff" points="862.22,-42.82 851.87,-45.06 861.36,-49.76 862.22,-42.82"/>
</a>
</g>
</g>
<!-- Node5 -->
<g id="Node000005" class="node">
<title>Node5</title>
<g id="a_Node000005"><a xlink:title=" ">
<ellipse fill="#e0e0e0" stroke="#999999" cx="1051.27" cy="-25.81" rx="129.05" ry="25.81"/>
<text xml:space="preserve" text-anchor="start" x="968.02" y="-28.66" font-family="Helvetica,sans-Serif" font-size="12.00">com.runehive.content.dialogue.</text>
<text xml:space="preserve" text-anchor="middle" x="1051.27" y="-14.41" font-family="Helvetica,sans-Serif" font-size="12.00">Expression</text>
</a>
</g>
</g>
<!-- Node1&#45;&gt;Node5 -->
<g id="edge4_Node000001_Node000005" class="edge">
<title>Node1&#45;&gt;Node5</title>
<g id="a_edge4_Node000001_Node000005"><a xlink:title=" ">
<path fill="none" stroke="#63b8ff" d="M2957.41,-110.73C2586.52,-105.5 1533,-87.82 1189.27,-51.62 1177.01,-50.33 1164.19,-48.57 1151.53,-46.6"/>
<polygon fill="#63b8ff" stroke="#63b8ff" points="1152.38,-43.19 1141.95,-45.04 1151.26,-50.1 1152.38,-43.19"/>
</a>
</g>
</g>
<!-- Node6 -->
<g id="Node000006" class="node">
<title>Node6</title>
<g id="a_Node000006"><a xlink:title=" ">
<ellipse fill="#e0e0e0" stroke="#999999" cx="1333.27" cy="-25.81" rx="134.88" ry="25.81"/>
<text xml:space="preserve" text-anchor="start" x="1245.9" y="-28.66" font-family="Helvetica,sans-Serif" font-size="12.00">com.runehive.content.event.impl.</text>
<text xml:space="preserve" text-anchor="middle" x="1333.27" y="-14.41" font-family="Helvetica,sans-Serif" font-size="12.00">NpcInteractionEvent</text>
</a>
</g>
</g>
<!-- Node1&#45;&gt;Node6 -->
<g id="edge5_Node000001_Node000006" class="edge">
<title>Node1&#45;&gt;Node6</title>
<g id="a_edge5_Node000001_Node000006"><a xlink:title=" ">
<path fill="none" stroke="#63b8ff" d="M2956.82,-113.37C2681.54,-114.04 2024.62,-108.84 1477.27,-51.62 1464.46,-50.28 1451.06,-48.49 1437.82,-46.5"/>
<polygon fill="#63b8ff" stroke="#63b8ff" points="1438.66,-43.08 1428.24,-45 1437.59,-50 1438.66,-43.08"/>
</a>
</g>
</g>
<!-- Node7 -->
<g id="Node000007" class="node">
<title>Node7</title>
<g id="a_Node000007"><a xlink:title=" ">
<ellipse fill="#e0e0e0" stroke="#999999" cx="1621.27" cy="-25.81" rx="134.88" ry="25.81"/>
<text xml:space="preserve" text-anchor="start" x="1533.9" y="-28.66" font-family="Helvetica,sans-Serif" font-size="12.00">com.runehive.content.event.impl.</text>
<text xml:space="preserve" text-anchor="middle" x="1621.27" y="-14.41" font-family="Helvetica,sans-Serif" font-size="12.00">ObjectInteractionEvent</text>
</a>
</g>
</g>
<!-- Node1&#45;&gt;Node7 -->
<g id="edge6_Node000001_Node000007" class="edge">
<title>Node1&#45;&gt;Node7</title>
<g id="a_edge6_Node000001_Node000007"><a xlink:title=" ">
<path fill="none" stroke="#63b8ff" d="M2956.88,-111.8C2718.66,-109.47 2199.87,-98.86 1765.27,-51.62 1752.56,-50.24 1739.28,-48.44 1726.14,-46.44"/>
<polygon fill="#63b8ff" stroke="#63b8ff" points="1727.06,-43.04 1716.64,-44.95 1725.98,-49.96 1727.06,-43.04"/>
</a>
</g>
</g>
<!-- Node8 -->
<g id="Node000008" class="node">
<title>Node8</title>
<g id="a_Node000008"><a xlink:title=" ">
<ellipse fill="#e0e0e0" stroke="#999999" cx="1882.27" cy="-25.81" rx="107.83" ry="25.81"/>
<text xml:space="preserve" text-anchor="start" x="1814.02" y="-28.66" font-family="Helvetica,sans-Serif" font-size="12.00">com.runehive.content.pet.</text>
<text xml:space="preserve" text-anchor="middle" x="1882.27" y="-14.41" font-family="Helvetica,sans-Serif" font-size="12.00">PetData</text>
</a>
</g>
</g>
<!-- Node1&#45;&gt;Node8 -->
<g id="edge7_Node000001_Node000008" class="edge">
<title>Node1&#45;&gt;Node8</title>
<g id="a_edge7_Node000001_Node000008"><a xlink:title=" ">
<path fill="none" stroke="#63b8ff" d="M2957.33,-111.58C2752.21,-108.79 2343,-97.38 1999.27,-51.62 1989.37,-50.3 1979.06,-48.6 1968.84,-46.71"/>
<polygon fill="#63b8ff" stroke="#63b8ff" points="1969.78,-43.33 1959.3,-44.88 1968.47,-50.2 1969.78,-43.33"/>
</a>
</g>
</g>
<!-- Node9 -->
<g id="Node000009" class="node">
<title>Node9</title>
<g id="a_Node000009"><a xlink:title=" ">
<ellipse fill="#e0e0e0" stroke="#999999" cx="2133.27" cy="-25.81" rx="124.8" ry="15.73"/>
<text xml:space="preserve" text-anchor="middle" x="2133.27" y="-21.53" font-family="Helvetica,sans-Serif" font-size="12.00">com.runehive.content.pet.Pets</text>
</a>
</g>
</g>
<!-- Node1&#45;&gt;Node9 -->
<g id="edge8_Node000001_Node000009" class="edge">
<title>Node1&#45;&gt;Node9</title>
<g id="a_edge8_Node000001_Node000009"><a xlink:title=" ">
<path fill="none" stroke="#63b8ff" d="M2960.39,-107.35C2798.35,-99.92 2510.71,-83.36 2266.27,-51.62 2246.8,-49.09 2225.86,-45.57 2206.5,-41.97"/>
<polygon fill="#63b8ff" stroke="#63b8ff" points="2207.26,-38.55 2196.78,-40.13 2205.96,-45.43 2207.26,-38.55"/>
</a>
</g>
</g>
<!-- Node10 -->
<g id="Node000010" class="node">
<title>Node10</title>
<g id="a_Node000010"><a xlink:title=" ">
<ellipse fill="#e0e0e0" stroke="#999999" cx="2405.27" cy="-25.81" rx="129.58" ry="25.81"/>
<text xml:space="preserve" text-anchor="start" x="2321.65" y="-28.66" font-family="Helvetica,sans-Serif" font-size="12.00">com.runehive.content.skillcape.</text>
<text xml:space="preserve" text-anchor="middle" x="2405.27" y="-14.41" font-family="Helvetica,sans-Serif" font-size="12.00">SkillCape</text>
</a>
</g>
</g>
<!-- Node1&#45;&gt;Node10 -->
<g id="edge9_Node000001_Node000010" class="edge">
<title>Node1&#45;&gt;Node10</title>
<g id="a_edge9_Node000001_Node000010"><a xlink:title=" ">
<path fill="none" stroke="#63b8ff" d="M2970.77,-101.6C2860.2,-90.88 2690.13,-72.99 2543.27,-51.62 2532.05,-49.99 2520.33,-48.12 2508.68,-46.17"/>
<polygon fill="#63b8ff" stroke="#63b8ff" points="2509.49,-42.76 2499.04,-44.53 2508.31,-49.66 2509.49,-42.76"/>
</a>
</g>
</g>
<!-- Node11 -->
<g id="Node000011" class="node">
<title>Node11</title>
<g id="a_Node000011"><a xlink:title=" ">
<ellipse fill="#e0e0e0" stroke="#999999" cx="2678.27" cy="-25.81" rx="125.87" ry="15.73"/>
<text xml:space="preserve" text-anchor="middle" x="2678.27" y="-21.53" font-family="Helvetica,sans-Serif" font-size="12.00">com.runehive.game.Animation</text>
</a>
</g>
</g>
<!-- Node1&#45;&gt;Node11 -->
<g id="edge10_Node000001_Node000011" class="edge">
<title>Node1&#45;&gt;Node11</title>
<g id="a_edge10_Node000001_Node000011"><a xlink:title=" ">
<path fill="none" stroke="#63b8ff" d="M2999.81,-93.96C2925.74,-78.49 2821.26,-56.67 2751.74,-42.15"/>
<polygon fill="#63b8ff" stroke="#63b8ff" points="2752.87,-38.81 2742.37,-40.19 2751.44,-45.66 2752.87,-38.81"/>
</a>
</g>
</g>
<!-- Node12 -->
<g id="Node000012" class="node">
<title>Node12</title>
<g id="a_Node000012"><a xlink:title=" ">
<ellipse fill="#e0e0e0" stroke="#999999" cx="2932.27" cy="-25.81" rx="110.49" ry="25.81"/>
<text xml:space="preserve" text-anchor="start" x="2862.15" y="-28.66" font-family="Helvetica,sans-Serif" font-size="12.00">com.runehive.game.world.</text>
<text xml:space="preserve" text-anchor="middle" x="2932.27" y="-14.41" font-family="Helvetica,sans-Serif" font-size="12.00">World</text>
</a>
</g>
</g>
<!-- Node1&#45;&gt;Node12 -->
<g id="edge11_Node000001_Node000012" class="edge">
<title>Node1&#45;&gt;Node12</title>
<g id="a_edge11_Node000001_Node000012"><a xlink:title=" ">
<path fill="none" stroke="#63b8ff" d="M3045.23,-88.81C3026.49,-78.52 3004.36,-66.37 2984.67,-55.57"/>
<polygon fill="#63b8ff" stroke="#63b8ff" points="2986.41,-52.53 2975.96,-50.79 2983.04,-58.67 2986.41,-52.53"/>
</a>
</g>
</g>
<!-- Node13 -->
<g id="Node000013" class="node">
<title>Node13</title>
<g id="a_Node000013"><a xlink:title=" ">
<ellipse fill="#e0e0e0" stroke="#999999" cx="3244.27" cy="-25.81" rx="183.67" ry="15.73"/>
<text xml:space="preserve" text-anchor="middle" x="3244.27" y="-21.53" font-family="Helvetica,sans-Serif" font-size="12.00">com.runehive.game.world.entity.combat.hit.Hit</text>
</a>
</g>
</g>
<!-- Node1&#45;&gt;Node13 -->
<g id="edge12_Node000001_Node000013" class="edge">
<title>Node1&#45;&gt;Node13</title>
<g id="a_edge12_Node000001_Node000013"><a xlink:title=" ">
<path fill="none" stroke="#63b8ff" d="M3131.31,-88.81C3155.09,-75.76 3184.33,-59.71 3207.1,-47.21"/>
<polygon fill="#63b8ff" stroke="#63b8ff" points="3208.66,-50.35 3215.74,-42.47 3205.29,-44.21 3208.66,-50.35"/>
</a>
</g>
</g>
<!-- Node14 -->
<g id="Node000014" class="node">
<title>Node14</title>
<g id="a_Node000014"><a xlink:title=" ">
<ellipse fill="#e0e0e0" stroke="#999999" cx="3615.27" cy="-25.81" rx="169.35" ry="25.81"/>
<text xml:space="preserve" text-anchor="start" x="3503.52" y="-28.66" font-family="Helvetica,sans-Serif" font-size="12.00">com.runehive.game.world.entity.mob.data.</text>
<text xml:space="preserve" text-anchor="middle" x="3615.27" y="-14.41" font-family="Helvetica,sans-Serif" font-size="12.00">LockType</text>
</a>
</g>
</g>
<!-- Node1&#45;&gt;Node14 -->
<g id="edge13_Node000001_Node000014" class="edge">
<title>Node1&#45;&gt;Node14</title>
<g id="a_edge13_Node000001_Node000014"><a xlink:title=" ">
<path fill="none" stroke="#63b8ff" d="M3187.71,-96.27C3273.55,-82.33 3397.99,-62.11 3490.5,-47.08"/>
<polygon fill="#63b8ff" stroke="#63b8ff" points="3490.82,-50.57 3500.13,-45.52 3489.7,-43.67 3490.82,-50.57"/>
</a>
</g>
</g>
<!-- Node15 -->
<g id="Node000015" class="node">
<title>Node15</title>
<g id="a_Node000015"><a xlink:title=" ">
<ellipse fill="#e0e0e0" stroke="#999999" cx="3984.27" cy="-25.81" rx="182.08" ry="15.73"/>
<text xml:space="preserve" text-anchor="middle" x="3984.27" y="-21.53" font-family="Helvetica,sans-Serif" font-size="12.00">com.runehive.game.world.entity.mob.npc.Npc</text>
</a>
</g>
</g>
<!-- Node1&#45;&gt;Node15 -->
<g id="edge14_Node000001_Node000015" class="edge">
<title>Node1&#45;&gt;Node15</title>
<g id="a_edge14_Node000001_Node000015"><a xlink:title=" ">
<path fill="none" stroke="#63b8ff" d="M3210.06,-103.53C3350.72,-92.87 3588.99,-73.69 3793.27,-51.62 3821.45,-48.58 3851.9,-44.83 3880.04,-41.18"/>
<polygon fill="#63b8ff" stroke="#63b8ff" points="3880.14,-44.69 3889.61,-39.93 3879.24,-37.75 3880.14,-44.69"/>
</a>
</g>
</g>
<!-- Node16 -->
<g id="Node000016" class="node">
<title>Node16</title>
<g id="a_Node000016"><a xlink:title=" ">
<ellipse fill="#e0e0e0" stroke="#999999" cx="4360.27" cy="-25.81" rx="175.72" ry="25.81"/>
<text xml:space="preserve" text-anchor="start" x="4244.02" y="-28.66" font-family="Helvetica,sans-Serif" font-size="12.00">com.runehive.game.world.entity.mob.player.</text>
<text xml:space="preserve" text-anchor="middle" x="4360.27" y="-14.41" font-family="Helvetica,sans-Serif" font-size="12.00">Player</text>
</a>
</g>
</g>
<!-- Node1&#45;&gt;Node16 -->
<g id="edge15_Node000001_Node000016" class="edge">
<title>Node1&#45;&gt;Node16</title>
<g id="a_edge15_Node000001_Node000016"><a xlink:title=" ">
<path fill="none" stroke="#63b8ff" d="M3217.36,-108.44C3421.2,-101.42 3829.99,-84.38 4175.27,-51.62 4191.81,-50.05 4209.15,-48.11 4226.3,-46.02"/>
<polygon fill="#63b8ff" stroke="#63b8ff" points="4226.53,-49.52 4236.03,-44.81 4225.67,-42.57 4226.53,-49.52"/>
</a>
</g>
</g>
<!-- Node17 -->
<g id="Node000017" class="node">
<title>Node17</title>
<g id="a_Node000017"><a xlink:title=" ">
<ellipse fill="#e0e0e0" stroke="#999999" cx="4729.27" cy="-25.81" rx="175.72" ry="25.81"/>
<text xml:space="preserve" text-anchor="start" x="4613.02" y="-28.66" font-family="Helvetica,sans-Serif" font-size="12.00">com.runehive.game.world.entity.mob.player.</text>
<text xml:space="preserve" text-anchor="middle" x="4729.27" y="-14.41" font-family="Helvetica,sans-Serif" font-size="12.00">PlayerRight</text>
</a>
</g>
</g>
<!-- Node1&#45;&gt;Node17 -->
<g id="edge16_Node000001_Node000017" class="edge">
<title>Node1&#45;&gt;Node17</title>
<g id="a_edge16_Node000001_Node000017"><a xlink:title=" ">
<path fill="none" stroke="#63b8ff" d="M3219.14,-111.01C3474.57,-107.35 4057.28,-94.61 4545.27,-51.62 4561.87,-50.16 4579.26,-48.27 4596.45,-46.2"/>
<polygon fill="#63b8ff" stroke="#63b8ff" points="4596.71,-49.69 4606.21,-45 4595.86,-42.75 4596.71,-49.69"/>
</a>
</g>
</g>
<!-- Node18 -->
<g id="Node000018" class="node">
<title>Node18</title>
<g id="a_Node000018"><a xlink:title=" ">
<ellipse fill="#e0e0e0" stroke="#999999" cx="5072.27" cy="-25.81" rx="149.2" ry="25.81"/>
<text xml:space="preserve" text-anchor="start" x="4974.77" y="-28.66" font-family="Helvetica,sans-Serif" font-size="12.00">com.runehive.game.world.entity.skill.</text>
<text xml:space="preserve" text-anchor="middle" x="5072.27" y="-14.41" font-family="Helvetica,sans-Serif" font-size="12.00">Skill</text>
</a>
</g>
</g>
<!-- Node1&#45;&gt;Node18 -->
<g id="edge17_Node000001_Node000018" class="edge">
<title>Node1&#45;&gt;Node18</title>
<g id="a_edge17_Node000001_Node000018"><a xlink:title=" ">
<path fill="none" stroke="#63b8ff" d="M3218.89,-110.16C3579.66,-103.56 4584.88,-82.85 4914.27,-51.62 4928.48,-50.27 4943.35,-48.47 4958.05,-46.44"/>
<polygon fill="#63b8ff" stroke="#63b8ff" points="4958.33,-49.93 4967.74,-45.06 4957.35,-43 4958.33,-49.93"/>
</a>
</g>
</g>
<!-- Node19 -->
<g id="Node000019" class="node">
<title>Node19</title>
<g id="a_Node000019"><a xlink:title=" ">
<ellipse fill="#e0e0e0" stroke="#999999" cx="5388.27" cy="-25.81" rx="148.67" ry="15.73"/>
<text xml:space="preserve" text-anchor="middle" x="5388.27" y="-21.53" font-family="Helvetica,sans-Serif" font-size="12.00">com.runehive.game.world.items.Item</text>
</a>
</g>
</g>
<!-- Node1&#45;&gt;Node19 -->
<g id="edge18_Node000001_Node000019" class="edge">
<title>Node1&#45;&gt;Node19</title>
<g id="a_edge18_Node000001_Node000019"><a xlink:title=" ">
<path fill="none" stroke="#63b8ff" d="M3219.06,-110.9C3621.32,-105.86 4836.79,-87.95 5230.27,-51.62 5254.86,-49.35 5281.43,-45.66 5305.63,-41.82"/>
<polygon fill="#63b8ff" stroke="#63b8ff" points="5306.13,-45.28 5315.44,-40.23 5305.01,-38.37 5306.13,-45.28"/>
</a>
</g>
</g>
<!-- Node20 -->
<g id="Node000020" class="node">
<title>Node20</title>
<g id="a_Node000020"><a xlink:title=" ">
<ellipse fill="#e0e0e0" stroke="#999999" cx="5690.27" cy="-25.81" rx="135.41" ry="25.81"/>
<text xml:space="preserve" text-anchor="start" x="5602.52" y="-28.66" font-family="Helvetica,sans-Serif" font-size="12.00">com.runehive.game.world.object.</text>
<text xml:space="preserve" text-anchor="middle" x="5690.27" y="-14.41" font-family="Helvetica,sans-Serif" font-size="12.00">GameObject</text>
</a>
</g>
</g>
<!-- Node1&#45;&gt;Node20 -->
<g id="edge19_Node000001_Node000020" class="edge">
<title>Node1&#45;&gt;Node20</title>
<g id="a_edge19_Node000001_Node000020"><a xlink:title=" ">
<path fill="none" stroke="#63b8ff" d="M3219.38,-111.71C3660.47,-108.89 5088.65,-96.46 5546.27,-51.62 5559.19,-50.35 5572.7,-48.6 5586.05,-46.61"/>
<polygon fill="#63b8ff" stroke="#63b8ff" points="5586.36,-50.1 5595.7,-45.12 5585.29,-43.19 5586.36,-50.1"/>
</a>
</g>
</g>
<!-- Node21 -->
<g id="Node000021" class="node">
<title>Node21</title>
<g id="a_Node000021"><a xlink:title=" ">
<ellipse fill="#e0e0e0" stroke="#999999" cx="6004.27" cy="-25.81" rx="160.34" ry="15.73"/>
<text xml:space="preserve" text-anchor="middle" x="6004.27" y="-21.53" font-family="Helvetica,sans-Serif" font-size="12.00">com.runehive.game.world.position.Area</text>
</a>
</g>
</g>
<!-- Node1&#45;&gt;Node21 -->
<g id="edge20_Node000001_Node000021" class="edge">
<title>Node1&#45;&gt;Node21</title>
<g id="a_edge20_Node000001_Node000021"><a xlink:title=" ">
<path fill="none" stroke="#63b8ff" d="M3219.62,-111.66C3693.88,-108.55 5317.06,-94.92 5834.27,-51.62 5861.06,-49.38 5890.06,-45.64 5916.39,-41.73"/>
<polygon fill="#63b8ff" stroke="#63b8ff" points="5916.63,-45.24 5926,-40.28 5915.58,-38.32 5916.63,-45.24"/>
</a>
</g>
</g>
<!-- Node22 -->
<g id="Node000022" class="node">
<title>Node22</title>
<g id="a_Node000022"><a xlink:title=" ">
<ellipse fill="#e0e0e0" stroke="#999999" cx="6301.27" cy="-25.81" rx="118.97" ry="25.81"/>
<text xml:space="preserve" text-anchor="start" x="6225.15" y="-28.66" font-family="Helvetica,sans-Serif" font-size="12.00">com.runehive.net.packet.out.</text>
<text xml:space="preserve" text-anchor="middle" x="6301.27" y="-14.41" font-family="Helvetica,sans-Serif" font-size="12.00">SendMessage</text>
</a>
</g>
</g>
<!-- Node1&#45;&gt;Node22 -->
<g id="edge21_Node000001_Node000022" class="edge">
<title>Node1&#45;&gt;Node22</title>
<g id="a_edge21_Node000001_Node000022"><a xlink:title=" ">
<path fill="none" stroke="#63b8ff" d="M3219.81,-112.84C3731.17,-113.99 5587.46,-113.7 6173.27,-51.62 6184.62,-50.42 6196.45,-48.73 6208.15,-46.79"/>
<polygon fill="#63b8ff" stroke="#63b8ff" points="6208.55,-50.27 6217.81,-45.12 6207.36,-43.37 6208.55,-50.27"/>
</a>
</g>
</g>
<!-- Node23 -->
<g id="Node000023" class="node">
<title>Node23</title>
<g id="a_Node000023"><a xlink:title=" ">
<ellipse fill="#e0e0e0" stroke="#999999" cx="6537.27" cy="-25.81" rx="98.82" ry="15.73"/>
<text xml:space="preserve" text-anchor="middle" x="6537.27" y="-21.53" font-family="Helvetica,sans-Serif" font-size="12.00">com.runehive.util.Utility</text>
</a>
</g>
</g>
<!-- Node1&#45;&gt;Node23 -->
<g id="edge22_Node000001_Node000023" class="edge">
<title>Node1&#45;&gt;Node23</title>
<g id="a_edge22_Node000001_Node000023"><a xlink:title=" ">
<path fill="none" stroke="#63b8ff" d="M3219.61,-111.65C3798.45,-108 6107.35,-91.09 6429.27,-51.62 6445.49,-49.63 6462.82,-46.23 6478.76,-42.58"/>
<polygon fill="#63b8ff" stroke="#63b8ff" points="6479.14,-46.08 6488.06,-40.37 6477.52,-39.27 6479.14,-46.08"/>
</a>
</g>
</g>
</g>
</svg>
