<?xml version="1.0" encoding="UTF-8" standalone="no"?>
<!DOCTYPE svg PUBLIC "-//W3C//DTD SVG 1.1//EN"
 "http://www.w3.org/Graphics/SVG/1.1/DTD/svg11.dtd">
<!-- Generated by graphviz version 14.0.1 (20251006.0113)
 -->
<!-- Title: java/com/runehive/content/activity/impl/VorkathActivity.java Pages: 1 -->
<svg width="4515pt" height="147pt"
 viewBox="0.00 0.00 4515.00 147.00" xmlns="http://www.w3.org/2000/svg" xmlns:xlink="http://www.w3.org/1999/xlink">
<g id="graph0" class="graph" transform="scale(1 1) rotate(0) translate(4 143.24)">
<title>java/com/runehive/content/activity/impl/VorkathActivity.java</title>
<!-- Node1 -->
<g id="Node000001" class="node">
<title>Node1</title>
<g id="a_Node000001"><a xlink:title=" ">
<ellipse fill="#999999" stroke="#666666" cx="2084.41" cy="-113.43" rx="132.76" ry="25.81"/>
<text xml:space="preserve" text-anchor="start" x="1998.54" y="-116.28" font-family="Helvetica,sans-Serif" font-size="12.00">java/com/runehive/content</text>
<text xml:space="preserve" text-anchor="middle" x="2084.41" y="-102.03" font-family="Helvetica,sans-Serif" font-size="12.00">/activity/impl/VorkathActivity.java</text>
</a>
</g>
</g>
<!-- Node2 -->
<g id="Node000002" class="node">
<title>Node2</title>
<g id="a_Node000002"><a xlink:title=" ">
<ellipse fill="#e0e0e0" stroke="#999999" cx="135.41" cy="-25.81" rx="135.41" ry="15.73"/>
<text xml:space="preserve" text-anchor="middle" x="135.41" y="-21.53" font-family="Helvetica,sans-Serif" font-size="12.00">com.runehive.content.ActivityLog</text>
</a>
</g>
</g>
<!-- Node1&#45;&gt;Node2 -->
<g id="edge1_Node000001_Node000002" class="edge">
<title>Node1&#45;&gt;Node2</title>
<g id="a_edge1_Node000001_Node000002"><a xlink:title=" ">
<path fill="none" stroke="#63b8ff" d="M1952.12,-110.3C1592.92,-104.16 604.64,-84.67 280.41,-51.62 258.23,-49.36 234.32,-45.76 212.44,-41.99"/>
<polygon fill="#63b8ff" stroke="#63b8ff" points="213.15,-38.56 202.69,-40.27 211.93,-45.45 213.15,-38.56"/>
</a>
</g>
</g>
<!-- Node3 -->
<g id="Node000003" class="node">
<title>Node3</title>
<g id="a_Node000003"><a xlink:title=" ">
<ellipse fill="#e0e0e0" stroke="#999999" cx="433.41" cy="-25.81" rx="144.43" ry="25.81"/>
<text xml:space="preserve" text-anchor="start" x="339.29" y="-28.66" font-family="Helvetica,sans-Serif" font-size="12.00">com.runehive.content.achievement.</text>
<text xml:space="preserve" text-anchor="middle" x="433.41" y="-14.41" font-family="Helvetica,sans-Serif" font-size="12.00">AchievementHandler</text>
</a>
</g>
</g>
<!-- Node1&#45;&gt;Node3 -->
<g id="edge2_Node000001_Node000003" class="edge">
<title>Node1&#45;&gt;Node3</title>
<g id="a_edge2_Node000001_Node000003"><a xlink:title=" ">
<path fill="none" stroke="#63b8ff" d="M1951.37,-112.33C1689.53,-110.97 1089.17,-102.05 587.41,-51.62 573.7,-50.24 559.35,-48.43 545.16,-46.41"/>
<polygon fill="#63b8ff" stroke="#63b8ff" points="545.73,-42.96 535.33,-44.97 544.72,-49.89 545.73,-42.96"/>
</a>
</g>
</g>
<!-- Node4 -->
<g id="Node000004" class="node">
<title>Node4</title>
<g id="a_Node000004"><a xlink:title=" ">
<ellipse fill="#e0e0e0" stroke="#999999" cx="740.41" cy="-25.81" rx="144.43" ry="25.81"/>
<text xml:space="preserve" text-anchor="start" x="646.29" y="-28.66" font-family="Helvetica,sans-Serif" font-size="12.00">com.runehive.content.achievement.</text>
<text xml:space="preserve" text-anchor="middle" x="740.41" y="-14.41" font-family="Helvetica,sans-Serif" font-size="12.00">AchievementKey</text>
</a>
</g>
</g>
<!-- Node1&#45;&gt;Node4 -->
<g id="edge3_Node000001_Node000004" class="edge">
<title>Node1&#45;&gt;Node4</title>
<g id="a_edge3_Node000001_Node000004"><a xlink:title=" ">
<path fill="none" stroke="#63b8ff" d="M1952.3,-110.41C1732.16,-106 1276.61,-92.35 893.41,-51.62 880,-50.19 865.98,-48.38 852.1,-46.37"/>
<polygon fill="#63b8ff" stroke="#63b8ff" points="852.92,-42.96 842.51,-44.95 851.89,-49.88 852.92,-42.96"/>
</a>
</g>
</g>
<!-- Node5 -->
<g id="Node000005" class="node">
<title>Node5</title>
<g id="a_Node000005"><a xlink:title=" ">
<ellipse fill="#e0e0e0" stroke="#999999" cx="1024.41" cy="-25.81" rx="121.62" ry="25.81"/>
<text xml:space="preserve" text-anchor="start" x="946.41" y="-28.66" font-family="Helvetica,sans-Serif" font-size="12.00">com.runehive.content.activity.</text>
<text xml:space="preserve" text-anchor="middle" x="1024.41" y="-14.41" font-family="Helvetica,sans-Serif" font-size="12.00">Activity</text>
</a>
</g>
</g>
<!-- Node1&#45;&gt;Node5 -->
<g id="edge4_Node000001_Node000005" class="edge">
<title>Node1&#45;&gt;Node5</title>
<g id="a_edge4_Node000001_Node000005"><a xlink:title=" ">
<path fill="none" stroke="#63b8ff" d="M1953.39,-108.95C1772.9,-103 1437.9,-87.8 1154.41,-51.62 1143.47,-50.22 1132.06,-48.48 1120.75,-46.56"/>
<polygon fill="#63b8ff" stroke="#63b8ff" points="1121.43,-43.13 1110.97,-44.86 1120.22,-50.03 1121.43,-43.13"/>
</a>
</g>
</g>
<!-- Node6 -->
<g id="Node000006" class="node">
<title>Node6</title>
<g id="a_Node000006"><a xlink:title=" ">
<ellipse fill="#e0e0e0" stroke="#999999" cx="1285.41" cy="-25.81" rx="121.62" ry="25.81"/>
<text xml:space="preserve" text-anchor="start" x="1207.41" y="-28.66" font-family="Helvetica,sans-Serif" font-size="12.00">com.runehive.content.activity.</text>
<text xml:space="preserve" text-anchor="middle" x="1285.41" y="-14.41" font-family="Helvetica,sans-Serif" font-size="12.00">ActivityDeathType</text>
</a>
</g>
</g>
<!-- Node1&#45;&gt;Node6 -->
<g id="edge5_Node000001_Node000006" class="edge">
<title>Node1&#45;&gt;Node6</title>
<g id="a_edge5_Node000001_Node000006"><a xlink:title=" ">
<path fill="none" stroke="#63b8ff" d="M1958.84,-104.7C1824.08,-95.55 1603.95,-78.11 1415.41,-51.62 1404.66,-50.11 1393.45,-48.31 1382.31,-46.38"/>
<polygon fill="#63b8ff" stroke="#63b8ff" points="1383.17,-42.98 1372.71,-44.68 1381.95,-49.87 1383.17,-42.98"/>
</a>
</g>
</g>
<!-- Node7 -->
<g id="Node000007" class="node">
<title>Node7</title>
<g id="a_Node000007"><a xlink:title=" ">
<ellipse fill="#e0e0e0" stroke="#999999" cx="1546.41" cy="-25.81" rx="121.62" ry="25.81"/>
<text xml:space="preserve" text-anchor="start" x="1468.41" y="-28.66" font-family="Helvetica,sans-Serif" font-size="12.00">com.runehive.content.activity.</text>
<text xml:space="preserve" text-anchor="middle" x="1546.41" y="-14.41" font-family="Helvetica,sans-Serif" font-size="12.00">ActivityType</text>
</a>
</g>
</g>
<!-- Node1&#45;&gt;Node7 -->
<g id="edge6_Node000001_Node000007" class="edge">
<title>Node1&#45;&gt;Node7</title>
<g id="a_edge6_Node000001_Node000007"><a xlink:title=" ">
<path fill="none" stroke="#63b8ff" d="M1977.97,-97.68C1895.75,-86.01 1779.2,-68.85 1677.41,-51.62 1667.08,-49.87 1656.3,-47.96 1645.57,-46.01"/>
<polygon fill="#63b8ff" stroke="#63b8ff" points="1646.37,-42.6 1635.9,-44.23 1645.1,-49.48 1646.37,-42.6"/>
</a>
</g>
</g>
<!-- Node8 -->
<g id="Node000008" class="node">
<title>Node8</title>
<g id="a_Node000008"><a xlink:title=" ">
<ellipse fill="#e0e0e0" stroke="#999999" cx="1821.41" cy="-25.81" rx="134.88" ry="25.81"/>
<text xml:space="preserve" text-anchor="start" x="1734.04" y="-28.66" font-family="Helvetica,sans-Serif" font-size="12.00">com.runehive.content.event.impl.</text>
<text xml:space="preserve" text-anchor="middle" x="1821.41" y="-14.41" font-family="Helvetica,sans-Serif" font-size="12.00">NpcInteractionEvent</text>
</a>
</g>
</g>
<!-- Node1&#45;&gt;Node8 -->
<g id="edge7_Node000001_Node000008" class="edge">
<title>Node1&#45;&gt;Node8</title>
<g id="a_edge7_Node000001_Node000008"><a xlink:title=" ">
<path fill="none" stroke="#63b8ff" d="M2017.7,-90.71C1981.69,-78.99 1937.04,-64.45 1899.42,-52.21"/>
<polygon fill="#63b8ff" stroke="#63b8ff" points="1900.53,-48.89 1889.94,-49.12 1898.37,-55.54 1900.53,-48.89"/>
</a>
</g>
</g>
<!-- Node9 -->
<g id="Node000009" class="node">
<title>Node9</title>
<g id="a_Node000009"><a xlink:title=" ">
<ellipse fill="#e0e0e0" stroke="#999999" cx="2084.41" cy="-25.81" rx="110.49" ry="25.81"/>
<text xml:space="preserve" text-anchor="start" x="2014.29" y="-28.66" font-family="Helvetica,sans-Serif" font-size="12.00">com.runehive.game.world.</text>
<text xml:space="preserve" text-anchor="middle" x="2084.41" y="-14.41" font-family="Helvetica,sans-Serif" font-size="12.00">World</text>
</a>
</g>
</g>
<!-- Node1&#45;&gt;Node9 -->
<g id="edge8_Node000001_Node000009" class="edge">
<title>Node1&#45;&gt;Node9</title>
<g id="a_edge8_Node000001_Node000009"><a xlink:title=" ">
<path fill="none" stroke="#63b8ff" d="M2084.41,-87.2C2084.41,-79.71 2084.41,-71.35 2084.41,-63.3"/>
<polygon fill="#63b8ff" stroke="#63b8ff" points="2087.91,-63.37 2084.41,-53.37 2080.91,-63.37 2087.91,-63.37"/>
</a>
</g>
</g>
<!-- Node10 -->
<g id="Node000010" class="node">
<title>Node10</title>
<g id="a_Node000010"><a xlink:title=" ">
<ellipse fill="#e0e0e0" stroke="#999999" cx="2380.41" cy="-25.81" rx="167.23" ry="15.73"/>
<text xml:space="preserve" text-anchor="middle" x="2380.41" y="-21.53" font-family="Helvetica,sans-Serif" font-size="12.00">com.runehive.game.world.entity.mob.Mob</text>
</a>
</g>
</g>
<!-- Node1&#45;&gt;Node10 -->
<g id="edge9_Node000001_Node000010" class="edge">
<title>Node1&#45;&gt;Node10</title>
<g id="a_edge9_Node000001_Node000010"><a xlink:title=" ">
<path fill="none" stroke="#63b8ff" d="M2156.82,-91.48C2206.73,-77.05 2272.32,-58.07 2319.54,-44.42"/>
<polygon fill="#63b8ff" stroke="#63b8ff" points="2320.44,-47.8 2329.07,-41.66 2318.49,-41.08 2320.44,-47.8"/>
</a>
</g>
</g>
<!-- Node11 -->
<g id="Node000011" class="node">
<title>Node11</title>
<g id="a_Node000011"><a xlink:title=" ">
<ellipse fill="#e0e0e0" stroke="#999999" cx="2747.41" cy="-25.81" rx="182.08" ry="15.73"/>
<text xml:space="preserve" text-anchor="middle" x="2747.41" y="-21.53" font-family="Helvetica,sans-Serif" font-size="12.00">com.runehive.game.world.entity.mob.npc.Npc</text>
</a>
</g>
</g>
<!-- Node1&#45;&gt;Node11 -->
<g id="edge10_Node000001_Node000011" class="edge">
<title>Node1&#45;&gt;Node11</title>
<g id="a_edge10_Node000001_Node000011"><a xlink:title=" ">
<path fill="none" stroke="#63b8ff" d="M2193.62,-98.39C2289.29,-86.09 2432.07,-67.7 2556.41,-51.62 2582.96,-48.18 2611.59,-44.47 2638.39,-40.99"/>
<polygon fill="#63b8ff" stroke="#63b8ff" points="2638.79,-44.47 2648.26,-39.71 2637.89,-37.53 2638.79,-44.47"/>
</a>
</g>
</g>
<!-- Node12 -->
<g id="Node000012" class="node">
<title>Node12</title>
<g id="a_Node000012"><a xlink:title=" ">
<ellipse fill="#e0e0e0" stroke="#999999" cx="3114.41" cy="-25.81" rx="166.7" ry="25.81"/>
<text xml:space="preserve" text-anchor="start" x="3004.54" y="-28.66" font-family="Helvetica,sans-Serif" font-size="12.00">com.runehive.game.world.entity.mob.npc.</text>
<text xml:space="preserve" text-anchor="middle" x="3114.41" y="-14.41" font-family="Helvetica,sans-Serif" font-size="12.00">NpcDeath</text>
</a>
</g>
</g>
<!-- Node1&#45;&gt;Node12 -->
<g id="edge11_Node000001_Node000012" class="edge">
<title>Node1&#45;&gt;Node12</title>
<g id="a_edge11_Node000001_Node000012"><a xlink:title=" ">
<path fill="none" stroke="#63b8ff" d="M2212.34,-106.08C2379.55,-97.14 2681.4,-78.85 2938.41,-51.62 2953.87,-49.98 2970.06,-48.03 2986.09,-45.94"/>
<polygon fill="#63b8ff" stroke="#63b8ff" points="2986.2,-49.46 2995.66,-44.68 2985.29,-42.52 2986.2,-49.46"/>
</a>
</g>
</g>
<!-- Node13 -->
<g id="Node000013" class="node">
<title>Node13</title>
<g id="a_Node000013"><a xlink:title=" ">
<ellipse fill="#e0e0e0" stroke="#999999" cx="3474.41" cy="-25.81" rx="175.72" ry="25.81"/>
<text xml:space="preserve" text-anchor="start" x="3358.16" y="-28.66" font-family="Helvetica,sans-Serif" font-size="12.00">com.runehive.game.world.entity.mob.player.</text>
<text xml:space="preserve" text-anchor="middle" x="3474.41" y="-14.41" font-family="Helvetica,sans-Serif" font-size="12.00">Player</text>
</a>
</g>
</g>
<!-- Node1&#45;&gt;Node13 -->
<g id="edge12_Node000001_Node000013" class="edge">
<title>Node1&#45;&gt;Node13</title>
<g id="a_edge12_Node000001_Node000013"><a xlink:title=" ">
<path fill="none" stroke="#63b8ff" d="M2215.83,-109.4C2437.72,-103.48 2900.57,-87.67 3290.41,-51.62 3306.87,-50.1 3324.11,-48.19 3341.17,-46.11"/>
<polygon fill="#63b8ff" stroke="#63b8ff" points="3341.35,-49.62 3350.84,-44.91 3340.48,-42.67 3341.35,-49.62"/>
</a>
</g>
</g>
<!-- Node14 -->
<g id="Node000014" class="node">
<title>Node14</title>
<g id="a_Node000014"><a xlink:title=" ">
<ellipse fill="#e0e0e0" stroke="#999999" cx="3828.41" cy="-25.81" rx="160.34" ry="15.73"/>
<text xml:space="preserve" text-anchor="middle" x="3828.41" y="-21.53" font-family="Helvetica,sans-Serif" font-size="12.00">com.runehive.game.world.position.Area</text>
</a>
</g>
</g>
<!-- Node1&#45;&gt;Node14 -->
<g id="edge13_Node000001_Node000014" class="edge">
<title>Node1&#45;&gt;Node14</title>
<g id="a_edge13_Node000001_Node000014"><a xlink:title=" ">
<path fill="none" stroke="#63b8ff" d="M2217.47,-112.1C2489.1,-110.36 3126.71,-100.86 3659.41,-51.62 3685.52,-49.21 3713.75,-45.5 3739.53,-41.68"/>
<polygon fill="#63b8ff" stroke="#63b8ff" points="3739.93,-45.16 3749.3,-40.21 3738.89,-38.24 3739.93,-45.16"/>
</a>
</g>
</g>
<!-- Node15 -->
<g id="Node000015" class="node">
<title>Node15</title>
<g id="a_Node000015"><a xlink:title=" ">
<ellipse fill="#e0e0e0" stroke="#999999" cx="4149.41" cy="-25.81" rx="142.31" ry="25.81"/>
<text xml:space="preserve" text-anchor="start" x="4056.79" y="-28.66" font-family="Helvetica,sans-Serif" font-size="12.00">com.runehive.game.world.position.</text>
<text xml:space="preserve" text-anchor="middle" x="4149.41" y="-14.41" font-family="Helvetica,sans-Serif" font-size="12.00">Position</text>
</a>
</g>
</g>
<!-- Node1&#45;&gt;Node15 -->
<g id="edge14_Node000001_Node000015" class="edge">
<title>Node1&#45;&gt;Node15</title>
<g id="a_edge14_Node000001_Node000015"><a xlink:title=" ">
<path fill="none" stroke="#63b8ff" d="M2216.54,-110.47C2590.4,-104.56 3650.97,-85.25 3997.41,-51.62 4011.17,-50.28 4025.56,-48.48 4039.78,-46.44"/>
<polygon fill="#63b8ff" stroke="#63b8ff" points="4040.25,-49.91 4049.63,-44.99 4039.23,-42.99 4040.25,-49.91"/>
</a>
</g>
</g>
<!-- Node16 -->
<g id="Node000016" class="node">
<title>Node16</title>
<g id="a_Node000016"><a xlink:title=" ">
<ellipse fill="#e0e0e0" stroke="#999999" cx="4408.41" cy="-25.81" rx="98.82" ry="15.73"/>
<text xml:space="preserve" text-anchor="middle" x="4408.41" y="-21.53" font-family="Helvetica,sans-Serif" font-size="12.00">com.runehive.util.Utility</text>
</a>
</g>
</g>
<!-- Node1&#45;&gt;Node16 -->
<g id="edge15_Node000001_Node000016" class="edge">
<title>Node1&#45;&gt;Node16</title>
<g id="a_edge15_Node000001_Node000016"><a xlink:title=" ">
<path fill="none" stroke="#63b8ff" d="M2217.28,-112.24C2631.22,-111.09 3894.05,-103.35 4300.41,-51.62 4316.38,-49.59 4333.45,-46.23 4349.2,-42.64"/>
<polygon fill="#63b8ff" stroke="#63b8ff" points="4349.99,-46.04 4358.92,-40.34 4348.38,-39.23 4349.99,-46.04"/>
</a>
</g>
</g>
</g>
</svg>
