<?xml version="1.0" encoding="UTF-8" standalone="no"?>
<!DOCTYPE svg PUBLIC "-//W3C//DTD SVG 1.1//EN"
 "http://www.w3.org/Graphics/SVG/1.1/DTD/svg11.dtd">
<!-- Generated by graphviz version 14.0.1 (20251006.0113)
 -->
<!-- Title: java/com/runehive/content/dialogue/impl/VoteDialogue.java Pages: 1 -->
<svg width="2402pt" height="147pt"
 viewBox="0.00 0.00 2402.00 147.00" xmlns="http://www.w3.org/2000/svg" xmlns:xlink="http://www.w3.org/1999/xlink">
<g id="graph0" class="graph" transform="scale(1 1) rotate(0) translate(4 143.24)">
<title>java/com/runehive/content/dialogue/impl/VoteDialogue.java</title>
<!-- Node1 -->
<g id="Node000001" class="node">
<title>Node1</title>
<g id="a_Node000001"><a xlink:title=" ">
<ellipse fill="#999999" stroke="#666666" cx="1186.05" cy="-113.43" rx="135.94" ry="25.81"/>
<text xml:space="preserve" text-anchor="start" x="1097.92" y="-116.28" font-family="Helvetica,sans-Serif" font-size="12.00">java/com/runehive/content</text>
<text xml:space="preserve" text-anchor="middle" x="1186.05" y="-102.03" font-family="Helvetica,sans-Serif" font-size="12.00">/dialogue/impl/VoteDialogue.java</text>
</a>
</g>
</g>
<!-- Node2 -->
<g id="Node000002" class="node">
<title>Node2</title>
<g id="a_Node000002"><a xlink:title=" ">
<ellipse fill="#e0e0e0" stroke="#999999" cx="129.05" cy="-25.81" rx="129.05" ry="25.81"/>
<text xml:space="preserve" text-anchor="start" x="45.8" y="-28.66" font-family="Helvetica,sans-Serif" font-size="12.00">com.runehive.content.dialogue.</text>
<text xml:space="preserve" text-anchor="middle" x="129.05" y="-14.41" font-family="Helvetica,sans-Serif" font-size="12.00">Dialogue</text>
</a>
</g>
</g>
<!-- Node1&#45;&gt;Node2 -->
<g id="edge1_Node000001_Node000002" class="edge">
<title>Node1&#45;&gt;Node2</title>
<g id="a_edge1_Node000001_Node000002"><a xlink:title=" ">
<path fill="none" stroke="#63b8ff" d="M1052.44,-108.27C873.19,-101.63 545.19,-85.71 267.05,-51.62 255.21,-50.17 242.85,-48.36 230.59,-46.39"/>
<polygon fill="#63b8ff" stroke="#63b8ff" points="231.32,-42.97 220.88,-44.79 230.18,-49.87 231.32,-42.97"/>
</a>
</g>
</g>
<!-- Node3 -->
<g id="Node000003" class="node">
<title>Node3</title>
<g id="a_Node000003"><a xlink:title=" ">
<ellipse fill="#e0e0e0" stroke="#999999" cx="405.05" cy="-25.81" rx="129.05" ry="25.81"/>
<text xml:space="preserve" text-anchor="start" x="321.8" y="-28.66" font-family="Helvetica,sans-Serif" font-size="12.00">com.runehive.content.dialogue.</text>
<text xml:space="preserve" text-anchor="middle" x="405.05" y="-14.41" font-family="Helvetica,sans-Serif" font-size="12.00">DialogueFactory</text>
</a>
</g>
</g>
<!-- Node1&#45;&gt;Node3 -->
<g id="edge2_Node000001_Node000003" class="edge">
<title>Node1&#45;&gt;Node3</title>
<g id="a_edge2_Node000001_Node000003"><a xlink:title=" ">
<path fill="none" stroke="#63b8ff" d="M1059.71,-103.62C929.79,-93.82 721.77,-76.09 543.05,-51.62 531.62,-50.05 519.7,-48.22 507.86,-46.27"/>
<polygon fill="#63b8ff" stroke="#63b8ff" points="508.49,-42.82 498.04,-44.62 507.33,-49.73 508.49,-42.82"/>
</a>
</g>
</g>
<!-- Node4 -->
<g id="Node000004" class="node">
<title>Node4</title>
<g id="a_Node000004"><a xlink:title=" ">
<ellipse fill="#e0e0e0" stroke="#999999" cx="681.05" cy="-25.81" rx="129.05" ry="25.81"/>
<text xml:space="preserve" text-anchor="start" x="597.8" y="-28.66" font-family="Helvetica,sans-Serif" font-size="12.00">com.runehive.content.dialogue.</text>
<text xml:space="preserve" text-anchor="middle" x="681.05" y="-14.41" font-family="Helvetica,sans-Serif" font-size="12.00">Expression</text>
</a>
</g>
</g>
<!-- Node1&#45;&gt;Node4 -->
<g id="edge3_Node000001_Node000004" class="edge">
<title>Node1&#45;&gt;Node4</title>
<g id="a_edge3_Node000001_Node000004"><a xlink:title=" ">
<path fill="none" stroke="#63b8ff" d="M1084.34,-95.96C1010.64,-83.93 908.62,-67.09 819.05,-51.62 808.34,-49.77 797.18,-47.81 786.04,-45.84"/>
<polygon fill="#63b8ff" stroke="#63b8ff" points="786.87,-42.43 776.41,-44.13 785.64,-49.32 786.87,-42.43"/>
</a>
</g>
</g>
<!-- Node5 -->
<g id="Node000005" class="node">
<title>Node5</title>
<g id="a_Node000005"><a xlink:title=" ">
<ellipse fill="#e0e0e0" stroke="#999999" cx="943.05" cy="-25.81" rx="114.73" ry="25.81"/>
<text xml:space="preserve" text-anchor="start" x="869.92" y="-28.66" font-family="Helvetica,sans-Serif" font-size="12.00">com.runehive.content.store.</text>
<text xml:space="preserve" text-anchor="middle" x="943.05" y="-14.41" font-family="Helvetica,sans-Serif" font-size="12.00">Store</text>
</a>
</g>
</g>
<!-- Node1&#45;&gt;Node5 -->
<g id="edge4_Node000001_Node000005" class="edge">
<title>Node1&#45;&gt;Node5</title>
<g id="a_edge4_Node000001_Node000005"><a xlink:title=" ">
<path fill="none" stroke="#63b8ff" d="M1122.84,-90.16C1089.45,-78.39 1048.36,-63.92 1013.9,-51.77"/>
<polygon fill="#63b8ff" stroke="#63b8ff" points="1015.45,-48.61 1004.86,-48.59 1013.13,-55.21 1015.45,-48.61"/>
</a>
</g>
</g>
<!-- Node6 -->
<g id="Node000006" class="node">
<title>Node6</title>
<g id="a_Node000006"><a xlink:title=" ">
<ellipse fill="#e0e0e0" stroke="#999999" cx="1186.05" cy="-25.81" rx="110.49" ry="25.81"/>
<text xml:space="preserve" text-anchor="start" x="1115.92" y="-28.66" font-family="Helvetica,sans-Serif" font-size="12.00">com.runehive.game.world.</text>
<text xml:space="preserve" text-anchor="middle" x="1186.05" y="-14.41" font-family="Helvetica,sans-Serif" font-size="12.00">World</text>
</a>
</g>
</g>
<!-- Node1&#45;&gt;Node6 -->
<g id="edge5_Node000001_Node000006" class="edge">
<title>Node1&#45;&gt;Node6</title>
<g id="a_edge5_Node000001_Node000006"><a xlink:title=" ">
<path fill="none" stroke="#63b8ff" d="M1186.05,-87.2C1186.05,-79.71 1186.05,-71.35 1186.05,-63.3"/>
<polygon fill="#63b8ff" stroke="#63b8ff" points="1189.55,-63.37 1186.05,-53.37 1182.55,-63.37 1189.55,-63.37"/>
</a>
</g>
</g>
<!-- Node7 -->
<g id="Node000007" class="node">
<title>Node7</title>
<g id="a_Node000007"><a xlink:title=" ">
<ellipse fill="#e0e0e0" stroke="#999999" cx="1490.05" cy="-25.81" rx="175.72" ry="25.81"/>
<text xml:space="preserve" text-anchor="start" x="1373.8" y="-28.66" font-family="Helvetica,sans-Serif" font-size="12.00">com.runehive.game.world.entity.mob.player.</text>
<text xml:space="preserve" text-anchor="middle" x="1490.05" y="-14.41" font-family="Helvetica,sans-Serif" font-size="12.00">Player</text>
</a>
</g>
</g>
<!-- Node1&#45;&gt;Node7 -->
<g id="edge6_Node000001_Node000007" class="edge">
<title>Node1&#45;&gt;Node7</title>
<g id="a_edge6_Node000001_Node000007"><a xlink:title=" ">
<path fill="none" stroke="#63b8ff" d="M1260.41,-91.48C1302.3,-79.69 1354.94,-64.86 1399.25,-52.38"/>
<polygon fill="#63b8ff" stroke="#63b8ff" points="1400.2,-55.75 1408.87,-49.67 1398.3,-49.01 1400.2,-55.75"/>
</a>
</g>
</g>
<!-- Node8 -->
<g id="Node000008" class="node">
<title>Node8</title>
<g id="a_Node000008"><a xlink:title=" ">
<ellipse fill="#e0e0e0" stroke="#999999" cx="1803.05" cy="-25.81" rx="118.97" ry="25.81"/>
<text xml:space="preserve" text-anchor="start" x="1726.92" y="-28.66" font-family="Helvetica,sans-Serif" font-size="12.00">com.runehive.net.packet.out.</text>
<text xml:space="preserve" text-anchor="middle" x="1803.05" y="-14.41" font-family="Helvetica,sans-Serif" font-size="12.00">SendInputAmount</text>
</a>
</g>
</g>
<!-- Node1&#45;&gt;Node8 -->
<g id="edge7_Node000001_Node000008" class="edge">
<title>Node1&#45;&gt;Node8</title>
<g id="a_edge7_Node000001_Node000008"><a xlink:title=" ">
<path fill="none" stroke="#63b8ff" d="M1303.44,-100.09C1402.7,-89.12 1548.52,-71.72 1675.05,-51.62 1685.33,-49.98 1696.06,-48.14 1706.73,-46.2"/>
<polygon fill="#63b8ff" stroke="#63b8ff" points="1707.12,-49.69 1716.32,-44.44 1705.86,-42.81 1707.12,-49.69"/>
</a>
</g>
</g>
<!-- Node9 -->
<g id="Node000009" class="node">
<title>Node9</title>
<g id="a_Node000009"><a xlink:title=" ">
<ellipse fill="#e0e0e0" stroke="#999999" cx="2059.05" cy="-25.81" rx="118.97" ry="25.81"/>
<text xml:space="preserve" text-anchor="start" x="1982.92" y="-28.66" font-family="Helvetica,sans-Serif" font-size="12.00">com.runehive.net.packet.out.</text>
<text xml:space="preserve" text-anchor="middle" x="2059.05" y="-14.41" font-family="Helvetica,sans-Serif" font-size="12.00">SendURL</text>
</a>
</g>
</g>
<!-- Node1&#45;&gt;Node9 -->
<g id="edge8_Node000001_Node000009" class="edge">
<title>Node1&#45;&gt;Node9</title>
<g id="a_edge8_Node000001_Node000009"><a xlink:title=" ">
<path fill="none" stroke="#63b8ff" d="M1317.06,-106.1C1466.23,-97.89 1716.99,-81.01 1931.05,-51.62 1941.73,-50.15 1952.86,-48.37 1963.92,-46.45"/>
<polygon fill="#63b8ff" stroke="#63b8ff" points="1964.2,-49.95 1973.43,-44.75 1962.97,-43.06 1964.2,-49.95"/>
</a>
</g>
</g>
<!-- Node10 -->
<g id="Node000010" class="node">
<title>Node10</title>
<g id="a_Node000010"><a xlink:title=" ">
<ellipse fill="#e0e0e0" stroke="#999999" cx="2295.05" cy="-25.81" rx="98.82" ry="15.73"/>
<text xml:space="preserve" text-anchor="middle" x="2295.05" y="-21.53" font-family="Helvetica,sans-Serif" font-size="12.00">com.runehive.util.Utility</text>
</a>
</g>
</g>
<!-- Node1&#45;&gt;Node10 -->
<g id="edge9_Node000001_Node000010" class="edge">
<title>Node1&#45;&gt;Node10</title>
<g id="a_edge9_Node000001_Node000010"><a xlink:title=" ">
<path fill="none" stroke="#63b8ff" d="M1321.96,-111.27C1515.17,-108.01 1879.88,-95.92 2187.05,-51.62 2202.68,-49.36 2219.38,-46.01 2234.87,-42.48"/>
<polygon fill="#63b8ff" stroke="#63b8ff" points="2235.49,-45.93 2244.43,-40.25 2233.9,-39.12 2235.49,-45.93"/>
</a>
</g>
</g>
</g>
</svg>
