<?xml version="1.0" encoding="UTF-8" standalone="no"?>
<!DOCTYPE svg PUBLIC "-//W3C//DTD SVG 1.1//EN"
 "http://www.w3.org/Graphics/SVG/1.1/DTD/svg11.dtd">
<!-- Generated by graphviz version 14.0.1 (20251006.0113)
 -->
<!-- Title: java/com/runehive/content/skill/impl/woodcutting/Woodcutting.java Pages: 1 -->
<svg width="1994pt" height="167pt"
 viewBox="0.00 0.00 1994.00 167.00" xmlns="http://www.w3.org/2000/svg" xmlns:xlink="http://www.w3.org/1999/xlink">
<g id="graph0" class="graph" transform="scale(1 1) rotate(0) translate(4 163.39)">
<title>java/com/runehive/content/skill/impl/woodcutting/Woodcutting.java</title>
<!-- Node1 -->
<g id="Node000001" class="node">
<title>Node1</title>
<g id="a_Node000001"><a xlink:title=" ">
<ellipse fill="#999999" stroke="#666666" cx="1046.88" cy="-123.5" rx="109.96" ry="35.89"/>
<text xml:space="preserve" text-anchor="start" x="977.13" y="-133.48" font-family="Helvetica,sans-Serif" font-size="12.00">java/com/runehive/content</text>
<text xml:space="preserve" text-anchor="start" x="977.13" y="-119.23" font-family="Helvetica,sans-Serif" font-size="12.00">/skill/impl/woodcutting</text>
<text xml:space="preserve" text-anchor="middle" x="1046.88" y="-104.98" font-family="Helvetica,sans-Serif" font-size="12.00">/Woodcutting.java</text>
</a>
</g>
</g>
<!-- Node2 -->
<g id="Node000002" class="node">
<title>Node2</title>
<g id="a_Node000002"><a xlink:title=" ">
<ellipse fill="#e0e0e0" stroke="#999999" cx="134.88" cy="-25.81" rx="134.88" ry="25.81"/>
<text xml:space="preserve" text-anchor="start" x="47.51" y="-28.66" font-family="Helvetica,sans-Serif" font-size="12.00">com.runehive.content.event.impl.</text>
<text xml:space="preserve" text-anchor="middle" x="134.88" y="-14.41" font-family="Helvetica,sans-Serif" font-size="12.00">ObjectInteractionEvent</text>
</a>
</g>
</g>
<!-- Node1&#45;&gt;Node2 -->
<g id="edge1_Node000001_Node000002" class="edge">
<title>Node1&#45;&gt;Node2</title>
<g id="a_edge1_Node000001_Node000002"><a xlink:title=" ">
<path fill="none" stroke="#63b8ff" d="M939.42,-115.26C790.64,-104.63 513.68,-82.63 278.88,-51.62 266.72,-50.01 254.02,-48.13 241.42,-46.13"/>
<polygon fill="#63b8ff" stroke="#63b8ff" points="242.31,-42.73 231.88,-44.59 241.19,-49.64 242.31,-42.73"/>
</a>
</g>
</g>
<!-- Node3 -->
<g id="Node000003" class="node">
<title>Node3</title>
<g id="a_Node000003"><a xlink:title=" ">
<ellipse fill="#e0e0e0" stroke="#999999" cx="398.88" cy="-25.81" rx="111.02" ry="25.81"/>
<text xml:space="preserve" text-anchor="start" x="328.38" y="-28.66" font-family="Helvetica,sans-Serif" font-size="12.00">com.runehive.content.skill.</text>
<text xml:space="preserve" text-anchor="middle" x="398.88" y="-14.41" font-family="Helvetica,sans-Serif" font-size="12.00">SkillRepository</text>
</a>
</g>
</g>
<!-- Node1&#45;&gt;Node3 -->
<g id="edge2_Node000001_Node000003" class="edge">
<title>Node1&#45;&gt;Node3</title>
<g id="a_edge2_Node000001_Node000003"><a xlink:title=" ">
<path fill="none" stroke="#63b8ff" d="M943.85,-110.85C837.2,-98.27 665.9,-76.65 518.88,-51.62 509.43,-50.01 499.6,-48.2 489.8,-46.31"/>
<polygon fill="#63b8ff" stroke="#63b8ff" points="490.74,-42.93 480.26,-44.44 489.4,-49.8 490.74,-42.93"/>
</a>
</g>
</g>
<!-- Node4 -->
<g id="Node000004" class="node">
<title>Node4</title>
<g id="a_Node000004"><a xlink:title=" ">
<ellipse fill="#e0e0e0" stroke="#999999" cx="703.88" cy="-25.81" rx="175.72" ry="25.81"/>
<text xml:space="preserve" text-anchor="start" x="587.63" y="-28.66" font-family="Helvetica,sans-Serif" font-size="12.00">com.runehive.game.world.entity.mob.player.</text>
<text xml:space="preserve" text-anchor="middle" x="703.88" y="-14.41" font-family="Helvetica,sans-Serif" font-size="12.00">Player</text>
</a>
</g>
</g>
<!-- Node1&#45;&gt;Node4 -->
<g id="edge3_Node000001_Node000004" class="edge">
<title>Node1&#45;&gt;Node4</title>
<g id="a_edge3_Node000001_Node000004"><a xlink:title=" ">
<path fill="none" stroke="#63b8ff" d="M964.29,-99.46C913.21,-85.21 847.59,-66.9 795,-52.23"/>
<polygon fill="#63b8ff" stroke="#63b8ff" points="796.01,-48.88 785.44,-49.56 794.13,-55.62 796.01,-48.88"/>
</a>
</g>
</g>
<!-- Node5 -->
<g id="Node000005" class="node">
<title>Node5</title>
<g id="a_Node000005"><a xlink:title=" ">
<ellipse fill="#e0e0e0" stroke="#999999" cx="1046.88" cy="-25.81" rx="149.2" ry="25.81"/>
<text xml:space="preserve" text-anchor="start" x="949.38" y="-28.66" font-family="Helvetica,sans-Serif" font-size="12.00">com.runehive.game.world.entity.skill.</text>
<text xml:space="preserve" text-anchor="middle" x="1046.88" y="-14.41" font-family="Helvetica,sans-Serif" font-size="12.00">Skill</text>
</a>
</g>
</g>
<!-- Node1&#45;&gt;Node5 -->
<g id="edge4_Node000001_Node000005" class="edge">
<title>Node1&#45;&gt;Node5</title>
<g id="a_edge4_Node000001_Node000005"><a xlink:title=" ">
<path fill="none" stroke="#63b8ff" d="M1046.88,-87.14C1046.88,-79.36 1046.88,-71.11 1046.88,-63.29"/>
<polygon fill="#63b8ff" stroke="#63b8ff" points="1050.38,-63.38 1046.88,-53.38 1043.38,-63.38 1050.38,-63.38"/>
</a>
</g>
</g>
<!-- Node6 -->
<g id="Node000006" class="node">
<title>Node6</title>
<g id="a_Node000006"><a xlink:title=" ">
<ellipse fill="#e0e0e0" stroke="#999999" cx="1362.88" cy="-25.81" rx="148.67" ry="15.73"/>
<text xml:space="preserve" text-anchor="middle" x="1362.88" y="-21.53" font-family="Helvetica,sans-Serif" font-size="12.00">com.runehive.game.world.items.Item</text>
</a>
</g>
</g>
<!-- Node1&#45;&gt;Node6 -->
<g id="edge5_Node000001_Node000006" class="edge">
<title>Node1&#45;&gt;Node6</title>
<g id="a_edge5_Node000001_Node000006"><a xlink:title=" ">
<path fill="none" stroke="#63b8ff" d="M1126.62,-98.36C1182.03,-81.58 1254.63,-59.59 1304.65,-44.44"/>
<polygon fill="#63b8ff" stroke="#63b8ff" points="1305.59,-47.82 1314.15,-41.57 1303.56,-41.12 1305.59,-47.82"/>
</a>
</g>
</g>
<!-- Node7 -->
<g id="Node000007" class="node">
<title>Node7</title>
<g id="a_Node000007"><a xlink:title=" ">
<ellipse fill="#e0e0e0" stroke="#999999" cx="1648.88" cy="-25.81" rx="118.97" ry="25.81"/>
<text xml:space="preserve" text-anchor="start" x="1572.76" y="-28.66" font-family="Helvetica,sans-Serif" font-size="12.00">com.runehive.net.packet.out.</text>
<text xml:space="preserve" text-anchor="middle" x="1648.88" y="-14.41" font-family="Helvetica,sans-Serif" font-size="12.00">SendMessage</text>
</a>
</g>
</g>
<!-- Node1&#45;&gt;Node7 -->
<g id="edge6_Node000001_Node000007" class="edge">
<title>Node1&#45;&gt;Node7</title>
<g id="a_edge6_Node000001_Node000007"><a xlink:title=" ">
<path fill="none" stroke="#63b8ff" d="M1147.41,-108.75C1243.5,-95.3 1392.33,-73.68 1520.88,-51.62 1530.87,-49.9 1541.29,-48.03 1551.67,-46.1"/>
<polygon fill="#63b8ff" stroke="#63b8ff" points="1552.24,-49.56 1561.42,-44.28 1550.95,-42.68 1552.24,-49.56"/>
</a>
</g>
</g>
<!-- Node8 -->
<g id="Node000008" class="node">
<title>Node8</title>
<g id="a_Node000008"><a xlink:title=" ">
<ellipse fill="#e0e0e0" stroke="#999999" cx="1885.88" cy="-25.81" rx="99.88" ry="25.81"/>
<text xml:space="preserve" text-anchor="start" x="1823.26" y="-28.66" font-family="Helvetica,sans-Serif" font-size="12.00">com.runehive.util.String</text>
<text xml:space="preserve" text-anchor="middle" x="1885.88" y="-14.41" font-family="Helvetica,sans-Serif" font-size="12.00">Utils</text>
</a>
</g>
</g>
<!-- Node1&#45;&gt;Node8 -->
<g id="edge7_Node000001_Node000008" class="edge">
<title>Node1&#45;&gt;Node8</title>
<g id="a_edge7_Node000001_Node000008"><a xlink:title=" ">
<path fill="none" stroke="#63b8ff" d="M1155.04,-116.31C1298.04,-107.14 1557.53,-87.08 1776.88,-51.62 1785.67,-50.2 1794.8,-48.49 1803.88,-46.64"/>
<polygon fill="#63b8ff" stroke="#63b8ff" points="1804.35,-50.12 1813.42,-44.64 1802.91,-43.27 1804.35,-50.12"/>
</a>
</g>
</g>
</g>
</svg>
