<?xml version="1.0" encoding="UTF-8" standalone="no"?>
<!DOCTYPE svg PUBLIC "-//W3C//DTD SVG 1.1//EN"
 "http://www.w3.org/Graphics/SVG/1.1/DTD/svg11.dtd">
<!-- Generated by graphviz version 14.0.1 (20251006.0113)
 -->
<!-- Title: java/com/runehive/content/bot/botclass/impl/ZerkerMelee.java Pages: 1 -->
<svg width="6165pt" height="147pt"
 viewBox="0.00 0.00 6165.00 147.00" xmlns="http://www.w3.org/2000/svg" xmlns:xlink="http://www.w3.org/1999/xlink">
<g id="graph0" class="graph" transform="scale(1 1) rotate(0) translate(4 143.24)">
<title>java/com/runehive/content/bot/botclass/impl/ZerkerMelee.java</title>
<!-- Node1 -->
<g id="Node000001" class="node">
<title>Node1</title>
<g id="a_Node000001"><a xlink:title=" ">
<ellipse fill="#999999" stroke="#666666" cx="3134.83" cy="-113.43" rx="144.43" ry="25.81"/>
<text xml:space="preserve" text-anchor="start" x="3040.71" y="-116.28" font-family="Helvetica,sans-Serif" font-size="12.00">java/com/runehive/content</text>
<text xml:space="preserve" text-anchor="middle" x="3134.83" y="-102.03" font-family="Helvetica,sans-Serif" font-size="12.00">/bot/botclass/impl/ZerkerMelee.java</text>
</a>
</g>
</g>
<!-- Node2 -->
<g id="Node000002" class="node">
<title>Node2</title>
<g id="a_Node000002"><a xlink:title=" ">
<ellipse fill="#e0e0e0" stroke="#999999" cx="107.83" cy="-25.81" rx="107.83" ry="25.81"/>
<text xml:space="preserve" text-anchor="start" x="39.58" y="-28.66" font-family="Helvetica,sans-Serif" font-size="12.00">com.runehive.content.bot.</text>
<text xml:space="preserve" text-anchor="middle" x="107.83" y="-14.41" font-family="Helvetica,sans-Serif" font-size="12.00">PlayerBot</text>
</a>
</g>
</g>
<!-- Node1&#45;&gt;Node2 -->
<g id="edge1_Node000001_Node000002" class="edge">
<title>Node1&#45;&gt;Node2</title>
<g id="a_edge1_Node000001_Node000002"><a xlink:title=" ">
<path fill="none" stroke="#63b8ff" d="M2990.28,-113C2480.69,-114.47 769.33,-114.47 224.83,-51.62 214.68,-50.45 204.11,-48.81 193.66,-46.93"/>
<polygon fill="#63b8ff" stroke="#63b8ff" points="194.35,-43.5 183.88,-45.08 193.05,-50.38 194.35,-43.5"/>
</a>
</g>
</g>
<!-- Node3 -->
<g id="Node000003" class="node">
<title>Node3</title>
<g id="a_Node000003"><a xlink:title=" ">
<ellipse fill="#e0e0e0" stroke="#999999" cx="374.83" cy="-25.81" rx="141.24" ry="25.81"/>
<text xml:space="preserve" text-anchor="start" x="282.96" y="-28.66" font-family="Helvetica,sans-Serif" font-size="12.00">com.runehive.content.bot.botclass.</text>
<text xml:space="preserve" text-anchor="middle" x="374.83" y="-14.41" font-family="Helvetica,sans-Serif" font-size="12.00">BotClass</text>
</a>
</g>
</g>
<!-- Node1&#45;&gt;Node3 -->
<g id="edge2_Node000001_Node000003" class="edge">
<title>Node1&#45;&gt;Node3</title>
<g id="a_edge2_Node000001_Node000003"><a xlink:title=" ">
<path fill="none" stroke="#63b8ff" d="M2990.29,-111.74C2515.88,-109.06 1009.1,-97.08 524.83,-51.62 511.25,-50.34 497.04,-48.57 483.01,-46.56"/>
<polygon fill="#63b8ff" stroke="#63b8ff" points="483.71,-43.12 473.3,-45.12 482.68,-50.05 483.71,-43.12"/>
</a>
</g>
</g>
<!-- Node4 -->
<g id="Node000004" class="node">
<title>Node4</title>
<g id="a_Node000004"><a xlink:title=" ">
<ellipse fill="#e0e0e0" stroke="#999999" cx="664.83" cy="-25.81" rx="130.64" ry="25.81"/>
<text xml:space="preserve" text-anchor="start" x="580.46" y="-28.66" font-family="Helvetica,sans-Serif" font-size="12.00">com.runehive.content.consume.</text>
<text xml:space="preserve" text-anchor="middle" x="664.83" y="-14.41" font-family="Helvetica,sans-Serif" font-size="12.00">FoodData</text>
</a>
</g>
</g>
<!-- Node1&#45;&gt;Node4 -->
<g id="edge3_Node000001_Node000004" class="edge">
<title>Node1&#45;&gt;Node4</title>
<g id="a_edge3_Node000001_Node000004"><a xlink:title=" ">
<path fill="none" stroke="#63b8ff" d="M2990.54,-111.51C2550.72,-108.26 1231,-95.06 803.83,-51.62 791.48,-50.36 778.57,-48.63 765.81,-46.66"/>
<polygon fill="#63b8ff" stroke="#63b8ff" points="766.58,-43.24 756.15,-45.12 765.47,-50.15 766.58,-43.24"/>
</a>
</g>
</g>
<!-- Node5 -->
<g id="Node000005" class="node">
<title>Node5</title>
<g id="a_Node000005"><a xlink:title=" ">
<ellipse fill="#e0e0e0" stroke="#999999" cx="943.83" cy="-25.81" rx="130.64" ry="25.81"/>
<text xml:space="preserve" text-anchor="start" x="859.46" y="-28.66" font-family="Helvetica,sans-Serif" font-size="12.00">com.runehive.content.consume.</text>
<text xml:space="preserve" text-anchor="middle" x="943.83" y="-14.41" font-family="Helvetica,sans-Serif" font-size="12.00">PotionData</text>
</a>
</g>
</g>
<!-- Node1&#45;&gt;Node5 -->
<g id="edge4_Node000001_Node000005" class="edge">
<title>Node1&#45;&gt;Node5</title>
<g id="a_edge4_Node000001_Node000005"><a xlink:title=" ">
<path fill="none" stroke="#63b8ff" d="M2990.63,-110.89C2587.51,-106.15 1454.25,-89.73 1083.83,-51.62 1071.39,-50.34 1058.4,-48.59 1045.55,-46.62"/>
<polygon fill="#63b8ff" stroke="#63b8ff" points="1046.23,-43.18 1035.81,-45.07 1045.13,-50.1 1046.23,-43.18"/>
</a>
</g>
</g>
<!-- Node6 -->
<g id="Node000006" class="node">
<title>Node6</title>
<g id="a_Node000006"><a xlink:title=" ">
<ellipse fill="#e0e0e0" stroke="#999999" cx="1284.83" cy="-25.81" rx="192.16" ry="25.81"/>
<text xml:space="preserve" text-anchor="start" x="1156.96" y="-28.66" font-family="Helvetica,sans-Serif" font-size="12.00">com.runehive.content.skill.impl.magic.spell.impl.</text>
<text xml:space="preserve" text-anchor="middle" x="1284.83" y="-14.41" font-family="Helvetica,sans-Serif" font-size="12.00">Vengeance</text>
</a>
</g>
</g>
<!-- Node1&#45;&gt;Node6 -->
<g id="edge5_Node000001_Node000006" class="edge">
<title>Node1&#45;&gt;Node6</title>
<g id="a_edge5_Node000001_Node000006"><a xlink:title=" ">
<path fill="none" stroke="#63b8ff" d="M2990.67,-111.27C2703.72,-108.06 2040.9,-96.03 1485.83,-51.62 1467.38,-50.14 1448.01,-48.22 1428.88,-46.11"/>
<polygon fill="#63b8ff" stroke="#63b8ff" points="1429.49,-42.65 1419.16,-45.01 1428.7,-49.61 1429.49,-42.65"/>
</a>
</g>
</g>
<!-- Node7 -->
<g id="Node000007" class="node">
<title>Node7</title>
<g id="a_Node000007"><a xlink:title=" ">
<ellipse fill="#e0e0e0" stroke="#999999" cx="1623.83" cy="-25.81" rx="128.52" ry="25.81"/>
<text xml:space="preserve" text-anchor="start" x="1540.96" y="-28.66" font-family="Helvetica,sans-Serif" font-size="12.00">com.runehive.game.event.impl.</text>
<text xml:space="preserve" text-anchor="middle" x="1623.83" y="-14.41" font-family="Helvetica,sans-Serif" font-size="12.00">ItemClickEvent</text>
</a>
</g>
</g>
<!-- Node1&#45;&gt;Node7 -->
<g id="edge6_Node000001_Node000007" class="edge">
<title>Node1&#45;&gt;Node7</title>
<g id="a_edge6_Node000001_Node000007"><a xlink:title=" ">
<path fill="none" stroke="#63b8ff" d="M2990.43,-112.43C2739.54,-111.01 2207.23,-101.68 1760.83,-51.62 1748.97,-50.29 1736.59,-48.55 1724.33,-46.61"/>
<polygon fill="#63b8ff" stroke="#63b8ff" points="1725.04,-43.18 1714.61,-45.02 1723.91,-50.08 1725.04,-43.18"/>
</a>
</g>
</g>
<!-- Node8 -->
<g id="Node000008" class="node">
<title>Node8</title>
<g id="a_Node000008"><a xlink:title=" ">
<ellipse fill="#e0e0e0" stroke="#999999" cx="1931.83" cy="-25.81" rx="161.93" ry="25.81"/>
<text xml:space="preserve" text-anchor="start" x="1825.33" y="-28.66" font-family="Helvetica,sans-Serif" font-size="12.00">com.runehive.game.world.entity.combat.</text>
<text xml:space="preserve" text-anchor="middle" x="1931.83" y="-14.41" font-family="Helvetica,sans-Serif" font-size="12.00">CombatType</text>
</a>
</g>
</g>
<!-- Node1&#45;&gt;Node8 -->
<g id="edge7_Node000001_Node000008" class="edge">
<title>Node1&#45;&gt;Node8</title>
<g id="a_edge7_Node000001_Node000008"><a xlink:title=" ">
<path fill="none" stroke="#63b8ff" d="M2993.48,-107.91C2794.39,-100.69 2420.21,-83.93 2102.83,-51.62 2087.7,-50.08 2071.86,-48.18 2056.18,-46.11"/>
<polygon fill="#63b8ff" stroke="#63b8ff" points="2056.68,-42.65 2046.3,-44.79 2055.75,-49.59 2056.68,-42.65"/>
</a>
</g>
</g>
<!-- Node9 -->
<g id="Node000009" class="node">
<title>Node9</title>
<g id="a_Node000009"><a xlink:title=" ">
<ellipse fill="#e0e0e0" stroke="#999999" cx="2297.83" cy="-25.81" rx="186.32" ry="25.81"/>
<text xml:space="preserve" text-anchor="start" x="2174.08" y="-28.66" font-family="Helvetica,sans-Serif" font-size="12.00">com.runehive.game.world.entity.combat.attack.</text>
<text xml:space="preserve" text-anchor="middle" x="2297.83" y="-14.41" font-family="Helvetica,sans-Serif" font-size="12.00">FightType</text>
</a>
</g>
</g>
<!-- Node1&#45;&gt;Node9 -->
<g id="edge8_Node000001_Node000009" class="edge">
<title>Node1&#45;&gt;Node9</title>
<g id="a_edge8_Node000001_Node000009"><a xlink:title=" ">
<path fill="none" stroke="#63b8ff" d="M3006.1,-101.41C2876.59,-90.04 2671.19,-71.25 2493.83,-51.62 2477.12,-49.77 2459.63,-47.72 2442.26,-45.61"/>
<polygon fill="#63b8ff" stroke="#63b8ff" points="2442.73,-42.14 2432.38,-44.4 2441.88,-49.09 2442.73,-42.14"/>
</a>
</g>
</g>
<!-- Node10 -->
<g id="Node000010" class="node">
<title>Node10</title>
<g id="a_Node000010"><a xlink:title=" ">
<ellipse fill="#e0e0e0" stroke="#999999" cx="2717.83" cy="-25.81" rx="215.49" ry="25.81"/>
<text xml:space="preserve" text-anchor="start" x="2573.46" y="-28.66" font-family="Helvetica,sans-Serif" font-size="12.00">com.runehive.game.world.entity.combat.attack.listener.</text>
<text xml:space="preserve" text-anchor="middle" x="2717.83" y="-14.41" font-family="Helvetica,sans-Serif" font-size="12.00">SimplifiedListener</text>
</a>
</g>
</g>
<!-- Node1&#45;&gt;Node10 -->
<g id="edge9_Node000001_Node000010" class="edge">
<title>Node1&#45;&gt;Node10</title>
<g id="a_edge9_Node000001_Node000010"><a xlink:title=" ">
<path fill="none" stroke="#63b8ff" d="M3041.77,-93.32C2980.84,-80.81 2900.72,-64.36 2835.4,-50.95"/>
<polygon fill="#63b8ff" stroke="#63b8ff" points="2836.2,-47.54 2825.7,-48.96 2834.79,-54.4 2836.2,-47.54"/>
</a>
</g>
</g>
<!-- Node11 -->
<g id="Node000011" class="node">
<title>Node11</title>
<g id="a_Node000011"><a xlink:title=" ">
<ellipse fill="#e0e0e0" stroke="#999999" cx="3134.83" cy="-25.81" rx="183.67" ry="15.73"/>
<text xml:space="preserve" text-anchor="middle" x="3134.83" y="-21.53" font-family="Helvetica,sans-Serif" font-size="12.00">com.runehive.game.world.entity.combat.hit.Hit</text>
</a>
</g>
</g>
<!-- Node1&#45;&gt;Node11 -->
<g id="edge10_Node000001_Node000011" class="edge">
<title>Node1&#45;&gt;Node11</title>
<g id="a_edge10_Node000001_Node000011"><a xlink:title=" ">
<path fill="none" stroke="#63b8ff" d="M3134.83,-87.2C3134.83,-76.52 3134.83,-64.08 3134.83,-53.27"/>
<polygon fill="#63b8ff" stroke="#63b8ff" points="3138.33,-53.45 3134.83,-43.45 3131.33,-53.45 3138.33,-53.45"/>
</a>
</g>
</g>
<!-- Node12 -->
<g id="Node000012" class="node">
<title>Node12</title>
<g id="a_Node000012"><a xlink:title=" ">
<ellipse fill="#e0e0e0" stroke="#999999" cx="3503.83" cy="-25.81" rx="167.23" ry="15.73"/>
<text xml:space="preserve" text-anchor="middle" x="3503.83" y="-21.53" font-family="Helvetica,sans-Serif" font-size="12.00">com.runehive.game.world.entity.mob.Mob</text>
</a>
</g>
</g>
<!-- Node1&#45;&gt;Node12 -->
<g id="edge11_Node000001_Node000012" class="edge">
<title>Node1&#45;&gt;Node12</title>
<g id="a_edge11_Node000001_Node000012"><a xlink:title=" ">
<path fill="none" stroke="#63b8ff" d="M3221.35,-92.35C3285.52,-77.46 3371.97,-57.41 3432.27,-43.41"/>
<polygon fill="#63b8ff" stroke="#63b8ff" points="3432.79,-46.89 3441.74,-41.22 3431.2,-40.07 3432.79,-46.89"/>
</a>
</g>
</g>
<!-- Node13 -->
<g id="Node000013" class="node">
<title>Node13</title>
<g id="a_Node000013"><a xlink:title=" ">
<ellipse fill="#e0e0e0" stroke="#999999" cx="3864.83" cy="-25.81" rx="175.72" ry="25.81"/>
<text xml:space="preserve" text-anchor="start" x="3748.58" y="-28.66" font-family="Helvetica,sans-Serif" font-size="12.00">com.runehive.game.world.entity.mob.player.</text>
<text xml:space="preserve" text-anchor="middle" x="3864.83" y="-14.41" font-family="Helvetica,sans-Serif" font-size="12.00">Player</text>
</a>
</g>
</g>
<!-- Node1&#45;&gt;Node13 -->
<g id="edge12_Node000001_Node000013" class="edge">
<title>Node1&#45;&gt;Node13</title>
<g id="a_edge12_Node000001_Node000013"><a xlink:title=" ">
<path fill="none" stroke="#63b8ff" d="M3257.76,-99.5C3368.28,-87.69 3535.02,-69.41 3679.83,-51.62 3695.25,-49.73 3711.38,-47.67 3727.42,-45.58"/>
<polygon fill="#63b8ff" stroke="#63b8ff" points="3727.53,-49.1 3737,-44.33 3726.63,-42.16 3727.53,-49.1"/>
</a>
</g>
</g>
<!-- Node14 -->
<g id="Node000014" class="node">
<title>Node14</title>
<g id="a_Node000014"><a xlink:title=" ">
<ellipse fill="#e0e0e0" stroke="#999999" cx="4234.83" cy="-25.81" rx="176.25" ry="25.81"/>
<text xml:space="preserve" text-anchor="start" x="4118.21" y="-28.66" font-family="Helvetica,sans-Serif" font-size="12.00">com.runehive.game.world.entity.mob.prayer.</text>
<text xml:space="preserve" text-anchor="middle" x="4234.83" y="-14.41" font-family="Helvetica,sans-Serif" font-size="12.00">Prayer</text>
</a>
</g>
</g>
<!-- Node1&#45;&gt;Node14 -->
<g id="edge13_Node000001_Node000014" class="edge">
<title>Node1&#45;&gt;Node14</title>
<g id="a_edge13_Node000001_Node000014"><a xlink:title=" ">
<path fill="none" stroke="#63b8ff" d="M3273.81,-106.09C3453.34,-97.24 3775.39,-79.11 4049.83,-51.62 4066.1,-49.99 4083.14,-48.04 4100.02,-45.96"/>
<polygon fill="#63b8ff" stroke="#63b8ff" points="4100.09,-49.48 4109.57,-44.76 4099.22,-42.53 4100.09,-49.48"/>
</a>
</g>
</g>
<!-- Node15 -->
<g id="Node000015" class="node">
<title>Node15</title>
<g id="a_Node000015"><a xlink:title=" ">
<ellipse fill="#e0e0e0" stroke="#999999" cx="4577.83" cy="-25.81" rx="149.2" ry="25.81"/>
<text xml:space="preserve" text-anchor="start" x="4480.33" y="-28.66" font-family="Helvetica,sans-Serif" font-size="12.00">com.runehive.game.world.entity.skill.</text>
<text xml:space="preserve" text-anchor="middle" x="4577.83" y="-14.41" font-family="Helvetica,sans-Serif" font-size="12.00">Skill</text>
</a>
</g>
</g>
<!-- Node1&#45;&gt;Node15 -->
<g id="edge14_Node000001_Node000015" class="edge">
<title>Node1&#45;&gt;Node15</title>
<g id="a_edge14_Node000001_Node000015"><a xlink:title=" ">
<path fill="none" stroke="#63b8ff" d="M3278.78,-110.7C3516.8,-106.71 4007.12,-93.66 4419.83,-51.62 4433.92,-50.18 4448.67,-48.34 4463.25,-46.3"/>
<polygon fill="#63b8ff" stroke="#63b8ff" points="4463.46,-49.8 4472.86,-44.92 4462.46,-42.87 4463.46,-49.8"/>
</a>
</g>
</g>
<!-- Node16 -->
<g id="Node000016" class="node">
<title>Node16</title>
<g id="a_Node000016"><a xlink:title=" ">
<ellipse fill="#e0e0e0" stroke="#999999" cx="4893.83" cy="-25.81" rx="148.67" ry="15.73"/>
<text xml:space="preserve" text-anchor="middle" x="4893.83" y="-21.53" font-family="Helvetica,sans-Serif" font-size="12.00">com.runehive.game.world.items.Item</text>
</a>
</g>
</g>
<!-- Node1&#45;&gt;Node16 -->
<g id="edge15_Node000001_Node000016" class="edge">
<title>Node1&#45;&gt;Node16</title>
<g id="a_edge15_Node000001_Node000016"><a xlink:title=" ">
<path fill="none" stroke="#63b8ff" d="M3279.55,-112.63C3560.81,-111.76 4200.65,-103.62 4735.83,-51.62 4760.17,-49.25 4786.46,-45.58 4810.47,-41.78"/>
<polygon fill="#63b8ff" stroke="#63b8ff" points="4810.89,-45.26 4820.2,-40.21 4809.77,-38.35 4810.89,-45.26"/>
</a>
</g>
</g>
<!-- Node17 -->
<g id="Node000017" class="node">
<title>Node17</title>
<g id="a_Node000017"><a xlink:title=" ">
<ellipse fill="#e0e0e0" stroke="#999999" cx="5170.83" cy="-25.81" rx="109.96" ry="25.81"/>
<text xml:space="preserve" text-anchor="start" x="5101.08" y="-28.66" font-family="Helvetica,sans-Serif" font-size="12.00">com.runehive.util.Random</text>
<text xml:space="preserve" text-anchor="middle" x="5170.83" y="-14.41" font-family="Helvetica,sans-Serif" font-size="12.00">Utils</text>
</a>
</g>
</g>
<!-- Node1&#45;&gt;Node17 -->
<g id="edge16_Node000001_Node000017" class="edge">
<title>Node1&#45;&gt;Node17</title>
<g id="a_edge16_Node000001_Node000017"><a xlink:title=" ">
<path fill="none" stroke="#63b8ff" d="M3278.94,-111.1C3663.67,-107.04 4709,-92.48 5051.83,-51.62 5062.18,-50.39 5072.95,-48.71 5083.62,-46.8"/>
<polygon fill="#63b8ff" stroke="#63b8ff" points="5083.98,-50.29 5093.17,-45.01 5082.7,-43.41 5083.98,-50.29"/>
</a>
</g>
</g>
<!-- Node18 -->
<g id="Node000018" class="node">
<title>Node18</title>
<g id="a_Node000018"><a xlink:title=" ">
<ellipse fill="#e0e0e0" stroke="#999999" cx="5404.83" cy="-25.81" rx="106.24" ry="25.81"/>
<text xml:space="preserve" text-anchor="start" x="5337.71" y="-28.66" font-family="Helvetica,sans-Serif" font-size="12.00">plugin.click.item.EatFood</text>
<text xml:space="preserve" text-anchor="middle" x="5404.83" y="-14.41" font-family="Helvetica,sans-Serif" font-size="12.00">Plugin</text>
</a>
</g>
</g>
<!-- Node1&#45;&gt;Node18 -->
<g id="edge17_Node000001_Node000018" class="edge">
<title>Node1&#45;&gt;Node18</title>
<g id="a_edge17_Node000001_Node000018"><a xlink:title=" ">
<path fill="none" stroke="#63b8ff" d="M3279.28,-111.82C3696.64,-109.52 4899.22,-98.86 5289.83,-51.62 5299.74,-50.42 5310.05,-48.78 5320.25,-46.9"/>
<polygon fill="#63b8ff" stroke="#63b8ff" points="5320.6,-50.4 5329.76,-45.07 5319.28,-43.52 5320.6,-50.4"/>
</a>
</g>
</g>
<!-- Node19 -->
<g id="Node000019" class="node">
<title>Node19</title>
<g id="a_Node000019"><a xlink:title=" ">
<ellipse fill="#e0e0e0" stroke="#999999" cx="5647.83" cy="-25.81" rx="118.44" ry="15.73"/>
<text xml:space="preserve" text-anchor="middle" x="5647.83" y="-21.53" font-family="Helvetica,sans-Serif" font-size="12.00">java.util.concurrent.TimeUnit</text>
</a>
</g>
</g>
<!-- Node1&#45;&gt;Node19 -->
<g id="edge18_Node000001_Node000019" class="edge">
<title>Node1&#45;&gt;Node19</title>
<g id="a_edge18_Node000001_Node000019"><a xlink:title=" ">
<path fill="none" stroke="#63b8ff" d="M3279.34,-111.89C3726.22,-109.72 5082.08,-99.29 5519.83,-51.62 5539.4,-49.49 5560.44,-45.94 5579.69,-42.19"/>
<polygon fill="#63b8ff" stroke="#63b8ff" points="5580.19,-45.66 5589.31,-40.26 5578.82,-38.8 5580.19,-45.66"/>
</a>
</g>
</g>
<!-- Node20 -->
<g id="Node000020" class="node">
<title>Node20</title>
<g id="a_Node000020"><a xlink:title=" ">
<ellipse fill="#e0e0e0" stroke="#999999" cx="5970.83" cy="-25.81" rx="186.32" ry="25.81"/>
<text xml:space="preserve" text-anchor="start" x="5847.08" y="-28.66" font-family="Helvetica,sans-Serif" font-size="12.00">com.runehive.game.world.entity.combat.attack.</text>
<text xml:space="preserve" text-anchor="middle" x="5970.83" y="-14.41" font-family="Helvetica,sans-Serif" font-size="12.00">FormulaFactory.getModifiedMaxHit</text>
</a>
</g>
</g>
<!-- Node1&#45;&gt;Node20 -->
<g id="edge19_Node000001_Node000020" class="edge">
<title>Node1&#45;&gt;Node20</title>
<g id="a_edge19_Node000001_Node000020"><a xlink:title=" ">
<path fill="none" stroke="#63b8ff" d="M3278.89,-111.07C3756.21,-106.24 5283.5,-88.28 5774.83,-51.62 5793.28,-50.24 5812.64,-48.35 5831.73,-46.21"/>
<polygon fill="#63b8ff" stroke="#63b8ff" points="5831.89,-49.71 5841.42,-45.1 5831.09,-42.76 5831.89,-49.71"/>
</a>
</g>
</g>
</g>
</svg>
