<?xml version="1.0" encoding="UTF-8" standalone="no"?>
<!DOCTYPE svg PUBLIC "-//W3C//DTD SVG 1.1//EN"
 "http://www.w3.org/Graphics/SVG/1.1/DTD/svg11.dtd">
<!-- Generated by graphviz version 14.0.1 (20251006.0113)
 -->
<!-- Title: com.runehive.game.Projectile.Projectile Pages: 1 -->
<svg width="581pt" height="600pt"
 viewBox="0.00 0.00 581.00 600.00" xmlns="http://www.w3.org/2000/svg" xmlns:xlink="http://www.w3.org/1999/xlink">
<g id="graph0" class="graph" transform="scale(1 1) rotate(0) translate(4 595.62)">
<title>com.runehive.game.Projectile.Projectile</title>
<!-- Node1 -->
<g id="Node000001" class="node">
<title>Node1</title>
<g id="a_Node000001"><a xlink:title=" ">
<ellipse fill="#999999" stroke="#666666" cx="125.33" cy="-285.81" rx="125.33" ry="25.81"/>
<text xml:space="preserve" text-anchor="start" x="44.71" y="-288.66" font-family="Helvetica,sans-Serif" font-size="12.00">com.runehive.game.Projectile.</text>
<text xml:space="preserve" text-anchor="middle" x="125.33" y="-274.41" font-family="Helvetica,sans-Serif" font-size="12.00">Projectile</text>
</a>
</g>
</g>
<!-- Node2 -->
<g id="Node000002" class="node">
<title>Node2</title>
<g id="a_Node000002"><a xlink:href="classcom_1_1runehive_1_1game_1_1_projectile.html#a2adc47207a82128245860e55d271d427" target="_top" xlink:title=" ">
<ellipse fill="white" stroke="#666666" cx="430.04" cy="-565.81" rx="136.47" ry="25.81"/>
<text xml:space="preserve" text-anchor="start" x="341.54" y="-568.66" font-family="Helvetica,sans-Serif" font-size="12.00">com.runehive.game.Projectile.set</text>
<text xml:space="preserve" text-anchor="middle" x="430.04" y="-554.41" font-family="Helvetica,sans-Serif" font-size="12.00">Curve</text>
</a>
</g>
</g>
<!-- Node1&#45;&gt;Node2 -->
<g id="edge1_Node000001_Node000002" class="edge">
<title>Node1&#45;&gt;Node2</title>
<g id="a_edge1_Node000001_Node000002"><a xlink:title=" ">
<path fill="none" stroke="#63b8ff" d="M135.83,-311.93C155.61,-362.5 206.19,-473.82 286.67,-530.81 294.67,-536.47 303.48,-541.23 312.68,-545.21"/>
<polygon fill="#63b8ff" stroke="#63b8ff" points="311.22,-548.4 321.81,-548.84 313.81,-541.89 311.22,-548.4"/>
</a>
</g>
</g>
<!-- Node3 -->
<g id="Node000003" class="node">
<title>Node3</title>
<g id="a_Node000003"><a xlink:href="classcom_1_1runehive_1_1game_1_1_projectile.html#a5af072fc57e7d3bd6e058abbc1e74991" target="_top" xlink:title=" ">
<ellipse fill="white" stroke="#666666" cx="430.04" cy="-495.81" rx="136.47" ry="25.81"/>
<text xml:space="preserve" text-anchor="start" x="341.54" y="-498.66" font-family="Helvetica,sans-Serif" font-size="12.00">com.runehive.game.Projectile.set</text>
<text xml:space="preserve" text-anchor="middle" x="430.04" y="-484.41" font-family="Helvetica,sans-Serif" font-size="12.00">Delay</text>
</a>
</g>
</g>
<!-- Node1&#45;&gt;Node3 -->
<g id="edge2_Node000001_Node000003" class="edge">
<title>Node1&#45;&gt;Node3</title>
<g id="a_edge2_Node000001_Node000003"><a xlink:title=" ">
<path fill="none" stroke="#63b8ff" d="M142.61,-311.64C168.34,-350.25 222.16,-422.57 286.67,-460.81 295.85,-466.25 305.84,-470.85 316.14,-474.74"/>
<polygon fill="#63b8ff" stroke="#63b8ff" points="314.93,-478.02 325.52,-478.03 317.25,-471.42 314.93,-478.02"/>
</a>
</g>
</g>
<!-- Node4 -->
<g id="Node000004" class="node">
<title>Node4</title>
<g id="a_Node000004"><a xlink:href="classcom_1_1runehive_1_1game_1_1_projectile.html#a9cb368346d30d2fab7c7d1ea13963f51" target="_top" xlink:title=" ">
<ellipse fill="white" stroke="#666666" cx="430.04" cy="-425.81" rx="136.47" ry="25.81"/>
<text xml:space="preserve" text-anchor="start" x="341.54" y="-428.66" font-family="Helvetica,sans-Serif" font-size="12.00">com.runehive.game.Projectile.set</text>
<text xml:space="preserve" text-anchor="middle" x="430.04" y="-414.41" font-family="Helvetica,sans-Serif" font-size="12.00">Distance</text>
</a>
</g>
</g>
<!-- Node1&#45;&gt;Node4 -->
<g id="edge3_Node000001_Node000004" class="edge">
<title>Node1&#45;&gt;Node4</title>
<g id="a_edge3_Node000001_Node000004"><a xlink:title=" ">
<path fill="none" stroke="#63b8ff" d="M157.94,-311.19C189,-334.97 238.62,-369.9 286.67,-390.81 298.13,-395.8 310.44,-400.16 322.84,-403.95"/>
<polygon fill="#63b8ff" stroke="#63b8ff" points="321.71,-407.27 332.29,-406.72 323.67,-400.55 321.71,-407.27"/>
</a>
</g>
</g>
<!-- Node5 -->
<g id="Node000005" class="node">
<title>Node5</title>
<g id="a_Node000005"><a xlink:href="classcom_1_1runehive_1_1game_1_1_projectile.html#a95a47ba5e67c8ffcc95cd7ebfe173847" target="_top" xlink:title=" ">
<ellipse fill="white" stroke="#666666" cx="430.04" cy="-355.81" rx="136.47" ry="25.81"/>
<text xml:space="preserve" text-anchor="start" x="341.54" y="-358.66" font-family="Helvetica,sans-Serif" font-size="12.00">com.runehive.game.Projectile.set</text>
<text xml:space="preserve" text-anchor="middle" x="430.04" y="-344.41" font-family="Helvetica,sans-Serif" font-size="12.00">Duration</text>
</a>
</g>
</g>
<!-- Node1&#45;&gt;Node5 -->
<g id="edge4_Node000001_Node000005" class="edge">
<title>Node1&#45;&gt;Node5</title>
<g id="a_edge4_Node000001_Node000005"><a xlink:title=" ">
<path fill="none" stroke="#63b8ff" d="M210.25,-305.22C247.68,-313.87 292.01,-324.12 330.96,-333.13"/>
<polygon fill="#63b8ff" stroke="#63b8ff" points="330.05,-336.51 340.58,-335.35 331.62,-329.69 330.05,-336.51"/>
</a>
</g>
</g>
<!-- Node6 -->
<g id="Node000006" class="node">
<title>Node6</title>
<g id="a_Node000006"><a xlink:href="classcom_1_1runehive_1_1game_1_1_projectile.html#a34d764716259ce36db6f1063493b33c6" target="_top" xlink:title=" ">
<ellipse fill="white" stroke="#666666" cx="430.04" cy="-285.81" rx="136.47" ry="25.81"/>
<text xml:space="preserve" text-anchor="start" x="341.54" y="-288.66" font-family="Helvetica,sans-Serif" font-size="12.00">com.runehive.game.Projectile.set</text>
<text xml:space="preserve" text-anchor="middle" x="430.04" y="-274.41" font-family="Helvetica,sans-Serif" font-size="12.00">EndHeight</text>
</a>
</g>
</g>
<!-- Node1&#45;&gt;Node6 -->
<g id="edge5_Node000001_Node000006" class="edge">
<title>Node1&#45;&gt;Node6</title>
<g id="a_edge5_Node000001_Node000006"><a xlink:title=" ">
<path fill="none" stroke="#63b8ff" d="M250.76,-285.81C261.06,-285.81 271.53,-285.81 281.98,-285.81"/>
<polygon fill="#63b8ff" stroke="#63b8ff" points="281.78,-289.31 291.78,-285.81 281.78,-282.31 281.78,-289.31"/>
</a>
</g>
</g>
<!-- Node7 -->
<g id="Node000007" class="node">
<title>Node7</title>
<g id="a_Node000007"><a xlink:href="classcom_1_1runehive_1_1game_1_1_projectile.html#ac265ae967f5bb244529daca7b42c5e51" target="_top" xlink:title=" ">
<ellipse fill="white" stroke="#666666" cx="430.04" cy="-225.81" rx="143.37" ry="15.73"/>
<text xml:space="preserve" text-anchor="middle" x="430.04" y="-221.53" font-family="Helvetica,sans-Serif" font-size="12.00">com.runehive.game.Projectile.setId</text>
</a>
</g>
</g>
<!-- Node1&#45;&gt;Node7 -->
<g id="edge6_Node000001_Node000007" class="edge">
<title>Node1&#45;&gt;Node7</title>
<g id="a_edge6_Node000001_Node000007"><a xlink:title=" ">
<path fill="none" stroke="#63b8ff" d="M211.07,-266.63C235.44,-261.3 262.07,-255.65 286.67,-250.81 303.33,-247.53 321.13,-244.24 338.31,-241.17"/>
<polygon fill="#63b8ff" stroke="#63b8ff" points="338.76,-244.64 348,-239.45 337.54,-237.75 338.76,-244.64"/>
</a>
</g>
</g>
<!-- Node8 -->
<g id="Node000008" class="node">
<title>Node8</title>
<g id="a_Node000008"><a xlink:href="classcom_1_1runehive_1_1game_1_1_projectile.html#a48b94e52b04b9e68ee5f97b97adaf641" target="_top" xlink:title=" ">
<ellipse fill="white" stroke="#666666" cx="430.04" cy="-165.81" rx="136.47" ry="25.81"/>
<text xml:space="preserve" text-anchor="start" x="341.54" y="-168.66" font-family="Helvetica,sans-Serif" font-size="12.00">com.runehive.game.Projectile.set</text>
<text xml:space="preserve" text-anchor="middle" x="430.04" y="-154.41" font-family="Helvetica,sans-Serif" font-size="12.00">OffsetX</text>
</a>
</g>
</g>
<!-- Node1&#45;&gt;Node8 -->
<g id="edge7_Node000001_Node000008" class="edge">
<title>Node1&#45;&gt;Node8</title>
<g id="a_edge7_Node000001_Node000008"><a xlink:title=" ">
<path fill="none" stroke="#63b8ff" d="M166.22,-261.1C197.9,-242.37 243.84,-217.14 286.67,-200.81 299.24,-196.02 312.69,-191.71 326.12,-187.89"/>
<polygon fill="#63b8ff" stroke="#63b8ff" points="326.7,-191.36 335.42,-185.34 324.85,-184.61 326.7,-191.36"/>
</a>
</g>
</g>
<!-- Node9 -->
<g id="Node000009" class="node">
<title>Node9</title>
<g id="a_Node000009"><a xlink:href="classcom_1_1runehive_1_1game_1_1_projectile.html#a3c713d4b9e19a0dc912f4687fec2c171" target="_top" xlink:title=" ">
<ellipse fill="white" stroke="#666666" cx="430.04" cy="-95.81" rx="136.47" ry="25.81"/>
<text xml:space="preserve" text-anchor="start" x="341.54" y="-98.66" font-family="Helvetica,sans-Serif" font-size="12.00">com.runehive.game.Projectile.set</text>
<text xml:space="preserve" text-anchor="middle" x="430.04" y="-84.41" font-family="Helvetica,sans-Serif" font-size="12.00">OffsetY</text>
</a>
</g>
</g>
<!-- Node1&#45;&gt;Node9 -->
<g id="edge8_Node000001_Node000009" class="edge">
<title>Node1&#45;&gt;Node9</title>
<g id="a_edge8_Node000001_Node000009"><a xlink:title=" ">
<path fill="none" stroke="#63b8ff" d="M145.58,-260.11C173,-225.36 226.69,-163.95 286.67,-130.81 296.36,-125.46 306.87,-120.91 317.64,-117.05"/>
<polygon fill="#63b8ff" stroke="#63b8ff" points="318.67,-120.4 327.03,-113.9 316.44,-113.76 318.67,-120.4"/>
</a>
</g>
</g>
<!-- Node10 -->
<g id="Node000010" class="node">
<title>Node10</title>
<g id="a_Node000010"><a xlink:href="classcom_1_1runehive_1_1game_1_1_projectile.html#a0b6536f389be347d389bc2d480a44059" target="_top" xlink:title=" ">
<ellipse fill="white" stroke="#666666" cx="430.04" cy="-25.81" rx="136.47" ry="25.81"/>
<text xml:space="preserve" text-anchor="start" x="341.54" y="-28.66" font-family="Helvetica,sans-Serif" font-size="12.00">com.runehive.game.Projectile.set</text>
<text xml:space="preserve" text-anchor="middle" x="430.04" y="-14.41" font-family="Helvetica,sans-Serif" font-size="12.00">StartHeight</text>
</a>
</g>
</g>
<!-- Node1&#45;&gt;Node10 -->
<g id="edge9_Node000001_Node000010" class="edge">
<title>Node1&#45;&gt;Node10</title>
<g id="a_edge9_Node000001_Node000010"><a xlink:title=" ">
<path fill="none" stroke="#63b8ff" d="M137.27,-259.98C158.65,-212.71 210.67,-112.4 286.67,-60.81 295.02,-55.14 304.2,-50.39 313.75,-46.4"/>
<polygon fill="#63b8ff" stroke="#63b8ff" points="314.75,-49.77 322.83,-42.92 312.24,-43.24 314.75,-49.77"/>
</a>
</g>
</g>
</g>
</svg>
