<?xml version="1.0" encoding="UTF-8" standalone="no"?>
<!DOCTYPE svg PUBLIC "-//W3C//DTD SVG 1.1//EN"
 "http://www.w3.org/Graphics/SVG/1.1/DTD/svg11.dtd">
<!-- Generated by graphviz version 14.0.1 (20251006.0113)
 -->
<!-- Title: com.runehive.content.overrides.Overrides.drawText Pages: 1 -->
<!--zoomable 362 -->

<svg id="main" version="1.1" xmlns="http://www.w3.org/2000/svg" xmlns:xlink="http://www.w3.org/1999/xlink" xml:space="preserve" onload="init(evt)">

<style type="text/css"><![CDATA[
.node, .edge {opacity: 0.7;}
.node.selected, .edge.selected {opacity: 1;}
.edge:hover path { stroke: red; }
.edge:hover polygon { stroke: red; fill: red; }
]]></style>

<defs>
  <circle id="rim" cx="0" cy="0" r="7"/>
  <circle id="rim2" cx="0" cy="0" r="3.5"/>
  <g id="zoomPlus">
    <use xlink:href="#rim" fill="#404040"><set attributeName="fill" to="#808080" begin="zoomplus.mouseover" end="zoomplus.mouseout"/></use>
    <path d="M-4,0h8M0,-4v8" fill="none" stroke="white" stroke-width="1.5" pointer-events="none"/>
  </g>
  <g id="zoomMin">
    <use xlink:href="#rim" fill="#404040"><set attributeName="fill" to="#808080" begin="zoomminus.mouseover" end="zoomminus.mouseout"/></use>
    <path d="M-4,0h8" fill="none" stroke="white" stroke-width="1.5" pointer-events="none"/>
  </g>
  <g id="arrowUp" transform="translate(30 24)">
    <use xlink:href="#rim"/>
    <path pointer-events="none" fill="none" stroke="white" stroke-width="1.5" d="M0,-3.0v7 M-2.5,-0.5L0,-3.0L2.5,-0.5"/>
  </g>
  <g id="arrowRight" transform="rotate(90) translate(36 -43)">
    <use xlink:href="#rim"/>
    <path pointer-events="none" fill="none" stroke="white" stroke-width="1.5" d="M0,-3.0v7 M-2.5,-0.5L0,-3.0L2.5,-0.5"/>
  </g>
  <g id="arrowDown" transform="rotate(180) translate(-30 -48)">
    <use xlink:href="#rim"/>
    <path pointer-events="none" fill="none" stroke="white" stroke-width="1.5" d="M0,-3.0v7 M-2.5,-0.5L0,-3.0L2.5,-0.5"/>
  </g>
  <g id="arrowLeft" transform="rotate(270) translate(-36 17)">
    <use xlink:href="#rim"/>
    <path pointer-events="none" fill="none" stroke="white" stroke-width="1.5" d="M0,-3.0v7 M-2.5,-0.5L0,-3.0L2.5,-0.5"/>
  </g>
  <g id="resetDef">
    <use xlink:href="#rim2" fill="#404040"><set attributeName="fill" to="#808080" begin="reset.mouseover" end="reset.mouseout"/></use>
  </g>
</defs>
<script type="application/ecmascript">
var viewWidth = 1182;
var viewHeight = 362;
var sectionId = 'dynsection-11';
</script>
<script type="application/ecmascript" xlink:href="svg.min.js"/>
<svg id="graph" class="graph">
<g id="viewport">
<title>com.runehive.content.overrides.Overrides.drawText</title>
<!-- Node1 -->
<g id="Node000001" class="node">
<title>Node1</title>
<g id="a_Node000001"><a xlink:title=" ">
<ellipse fill="#999999" stroke="#666666" cx="1043.15" cy="-152.81" rx="131.17" ry="25.81"/>
<text xml:space="preserve" text-anchor="start" x="958.4" y="-155.66" font-family="Helvetica,sans-Serif" font-size="12.00">com.runehive.content.overrides.</text>
<text xml:space="preserve" text-anchor="middle" x="1043.15" y="-141.41" font-family="Helvetica,sans-Serif" font-size="12.00">Overrides.drawText</text>
</a>
</g>
</g>
<!-- Node2 -->
<g id="Node000002" class="node">
<title>Node2</title>
<g id="a_Node000002"><a xlink:href="classcom_1_1runehive_1_1content_1_1overrides_1_1_overrides.html#af349b277942142d594051bdc642e4075" target="_top" xlink:title=" ">
<ellipse fill="white" stroke="#666666" cx="744.81" cy="-327.81" rx="131.17" ry="25.81"/>
<text xml:space="preserve" text-anchor="start" x="660.06" y="-330.66" font-family="Helvetica,sans-Serif" font-size="12.00">com.runehive.content.overrides.</text>
<text xml:space="preserve" text-anchor="middle" x="744.81" y="-316.41" font-family="Helvetica,sans-Serif" font-size="12.00">Overrides.createPreset</text>
</a>
</g>
</g>
<!-- Node1&#45;&gt;Node2 -->
<g id="edge1_Node000001_Node000002" class="edge">
<title>Node1&#45;&gt;Node2</title>
<g id="a_edge1_Node000001_Node000002"><a xlink:title=" ">
<path fill="none" stroke="#63b8ff" d="M1010.9,-186.58C979.65,-218.42 928.77,-265.23 875.98,-292.81 863.64,-299.26 850,-304.6 836.34,-309"/>
<polygon fill="#63b8ff" stroke="#63b8ff" points="1013.3,-189.14 1017.74,-179.52 1008.27,-184.27 1013.3,-189.14"/>
</a>
</g>
</g>
<!-- Node3 -->
<g id="Node000003" class="node">
<title>Node3</title>
<g id="a_Node000003"><a xlink:href="classcom_1_1runehive_1_1content_1_1overrides_1_1_overrides.html#ac821f81fc48965f85b28d3f89f553352" target="_top" xlink:title=" ">
<ellipse fill="white" stroke="#666666" cx="744.81" cy="-257.81" rx="131.17" ry="25.81"/>
<text xml:space="preserve" text-anchor="start" x="660.06" y="-260.66" font-family="Helvetica,sans-Serif" font-size="12.00">com.runehive.content.overrides.</text>
<text xml:space="preserve" text-anchor="middle" x="744.81" y="-246.41" font-family="Helvetica,sans-Serif" font-size="12.00">Overrides.deleteOverride</text>
</a>
</g>
</g>
<!-- Node1&#45;&gt;Node3 -->
<g id="edge2_Node000001_Node000003" class="edge">
<title>Node1&#45;&gt;Node3</title>
<g id="a_edge2_Node000001_Node000003"><a xlink:title=" ">
<path fill="none" stroke="#63b8ff" d="M980.27,-181.24C949.33,-194.85 911.09,-210.76 875.98,-222.81 860.71,-228.05 844.21,-233.01 828.26,-237.46"/>
<polygon fill="#63b8ff" stroke="#63b8ff" points="981.36,-184.59 989.08,-177.34 978.52,-178.19 981.36,-184.59"/>
</a>
</g>
</g>
<!-- Node6 -->
<g id="Node000006" class="node">
<title>Node6</title>
<g id="a_Node000006"><a xlink:href="classcom_1_1runehive_1_1content_1_1overrides_1_1_overrides.html#a122e8c94611e03ed0b6e47ecdbfa903d" target="_top" xlink:title=" ">
<ellipse fill="white" stroke="#666666" cx="744.81" cy="-187.81" rx="131.17" ry="25.81"/>
<text xml:space="preserve" text-anchor="start" x="660.06" y="-190.66" font-family="Helvetica,sans-Serif" font-size="12.00">com.runehive.content.overrides.</text>
<text xml:space="preserve" text-anchor="middle" x="744.81" y="-176.41" font-family="Helvetica,sans-Serif" font-size="12.00">Overrides.deletePreset</text>
</a>
</g>
</g>
<!-- Node1&#45;&gt;Node6 -->
<g id="edge5_Node000001_Node000006" class="edge">
<title>Node1&#45;&gt;Node6</title>
<g id="a_edge5_Node000001_Node000006"><a xlink:title=" ">
<path fill="none" stroke="#63b8ff" d="M918.36,-167.43C898.41,-169.79 877.85,-172.21 858.19,-174.54"/>
<polygon fill="#63b8ff" stroke="#63b8ff" points="918.67,-170.92 928.19,-166.27 917.85,-163.97 918.67,-170.92"/>
</a>
</g>
</g>
<!-- Node8 -->
<g id="Node000008" class="node">
<title>Node8</title>
<g id="a_Node000008"><a xlink:href="classcom_1_1runehive_1_1content_1_1overrides_1_1_overrides.html#a37beb02c6920804a7be865b5304882f8" target="_top" xlink:title=" ">
<ellipse fill="white" stroke="#666666" cx="437.99" cy="-95.81" rx="131.17" ry="25.81"/>
<text xml:space="preserve" text-anchor="start" x="353.24" y="-98.66" font-family="Helvetica,sans-Serif" font-size="12.00">com.runehive.content.overrides.</text>
<text xml:space="preserve" text-anchor="middle" x="437.99" y="-84.41" font-family="Helvetica,sans-Serif" font-size="12.00">Overrides.openInterface</text>
</a>
</g>
</g>
<!-- Node1&#45;&gt;Node8 -->
<g id="edge8_Node000001_Node000008" class="edge">
<title>Node1&#45;&gt;Node8</title>
<g id="a_edge8_Node000001_Node000008"><a xlink:title=" ">
<path fill="none" stroke="#63b8ff" d="M987.61,-123.32C956.01,-107.91 914.88,-90.67 875.98,-82.81 763.27,-60.04 630.92,-68.77 541.65,-79.7"/>
<polygon fill="#63b8ff" stroke="#63b8ff" points="985.65,-126.25 996.17,-127.57 988.77,-119.98 985.65,-126.25"/>
</a>
</g>
</g>
<!-- Node9 -->
<g id="Node000009" class="node">
<title>Node9</title>
<g id="a_Node000009"><a xlink:href="classcom_1_1runehive_1_1content_1_1overrides_1_1_overrides.html#a5f5d0217fea62da67d14652e3f024f13" target="_top" xlink:title=" ">
<ellipse fill="white" stroke="#666666" cx="744.81" cy="-117.81" rx="131.17" ry="25.81"/>
<text xml:space="preserve" text-anchor="start" x="660.06" y="-120.66" font-family="Helvetica,sans-Serif" font-size="12.00">com.runehive.content.overrides.</text>
<text xml:space="preserve" text-anchor="middle" x="744.81" y="-106.41" font-family="Helvetica,sans-Serif" font-size="12.00">Overrides.renamePreset</text>
</a>
</g>
</g>
<!-- Node1&#45;&gt;Node9 -->
<g id="edge10_Node000001_Node000009" class="edge">
<title>Node1&#45;&gt;Node9</title>
<g id="a_edge10_Node000001_Node000009"><a xlink:title=" ">
<path fill="none" stroke="#63b8ff" d="M918.36,-138.19C898.41,-135.83 877.85,-133.4 858.19,-131.08"/>
<polygon fill="#63b8ff" stroke="#63b8ff" points="917.85,-141.65 928.19,-139.35 918.67,-134.7 917.85,-141.65"/>
</a>
</g>
</g>
<!-- Node10 -->
<g id="Node000010" class="node">
<title>Node10</title>
<g id="a_Node000010"><a xlink:href="classcom_1_1runehive_1_1content_1_1overrides_1_1_overrides.html#aca0655643ca761aaafafc205ba028c75" target="_top" xlink:title=" ">
<ellipse fill="white" stroke="#666666" cx="437.99" cy="-25.81" rx="131.17" ry="25.81"/>
<text xml:space="preserve" text-anchor="start" x="353.24" y="-28.66" font-family="Helvetica,sans-Serif" font-size="12.00">com.runehive.content.overrides.</text>
<text xml:space="preserve" text-anchor="middle" x="437.99" y="-14.41" font-family="Helvetica,sans-Serif" font-size="12.00">Overrides.setFilter</text>
</a>
</g>
</g>
<!-- Node1&#45;&gt;Node10 -->
<g id="edge12_Node000001_Node000010" class="edge">
<title>Node1&#45;&gt;Node10</title>
<g id="a_edge12_Node000001_Node000010"><a xlink:title=" ">
<path fill="none" stroke="#63b8ff" d="M995.82,-121.81C963.63,-101.93 918.95,-77.54 875.98,-64.81 775.75,-35.11 657.38,-26.05 569.14,-24.03"/>
<polygon fill="#63b8ff" stroke="#63b8ff" points="993.78,-124.66 1004.11,-127.01 997.5,-118.73 993.78,-124.66"/>
</a>
</g>
</g>
<!-- Node4 -->
<g id="Node000004" class="node">
<title>Node4</title>
<g id="a_Node000004"><a xlink:href="classcom_1_1runehive_1_1content_1_1overrides_1_1_overrides.html#abf0a4dda05eace6736b836313da7059d" target="_top" xlink:title=" ">
<ellipse fill="white" stroke="#666666" cx="437.99" cy="-246.81" rx="131.17" ry="25.81"/>
<text xml:space="preserve" text-anchor="start" x="353.24" y="-249.66" font-family="Helvetica,sans-Serif" font-size="12.00">com.runehive.content.overrides.</text>
<text xml:space="preserve" text-anchor="middle" x="437.99" y="-235.41" font-family="Helvetica,sans-Serif" font-size="12.00">Overrides.manageItemDialogue</text>
</a>
</g>
</g>
<!-- Node3&#45;&gt;Node4 -->
<g id="edge3_Node000003_Node000004" class="edge">
<title>Node3&#45;&gt;Node4</title>
<g id="a_edge3_Node000003_Node000004"><a xlink:title=" ">
<path fill="none" stroke="#63b8ff" d="M604.16,-252.77C591.86,-252.33 579.44,-251.88 567.23,-251.44"/>
<polygon fill="#63b8ff" stroke="#63b8ff" points="603.79,-256.26 613.91,-253.12 604.04,-249.26 603.79,-256.26"/>
</a>
</g>
</g>
<!-- Node5 -->
<g id="Node000005" class="node">
<title>Node5</title>
<g id="a_Node000005"><a xlink:href="classcom_1_1runehive_1_1content_1_1overrides_1_1_overrides.html#aa8be30f3fce445d77dc8e590a8c9a545" target="_top" xlink:title=" ">
<ellipse fill="white" stroke="#666666" cx="131.17" cy="-130.81" rx="131.17" ry="25.81"/>
<text xml:space="preserve" text-anchor="start" x="46.42" y="-133.66" font-family="Helvetica,sans-Serif" font-size="12.00">com.runehive.content.overrides.</text>
<text xml:space="preserve" text-anchor="middle" x="131.17" y="-119.41" font-family="Helvetica,sans-Serif" font-size="12.00">Overrides.handleButtons</text>
</a>
</g>
</g>
<!-- Node4&#45;&gt;Node5 -->
<g id="edge4_Node000004_Node000005" class="edge">
<title>Node4&#45;&gt;Node5</title>
<g id="a_edge4_Node000004_Node000005"><a xlink:title=" ">
<path fill="none" stroke="#63b8ff" d="M356.04,-221.14C337.01,-214.78 316.88,-207.78 298.34,-200.81 260.24,-186.49 217.99,-168.66 185.62,-154.58"/>
<polygon fill="#63b8ff" stroke="#63b8ff" points="354.76,-224.4 365.35,-224.23 356.96,-217.76 354.76,-224.4"/>
</a>
</g>
</g>
<!-- Node7 -->
<g id="Node000007" class="node">
<title>Node7</title>
<g id="a_Node000007"><a xlink:href="classcom_1_1runehive_1_1content_1_1overrides_1_1_overrides.html#a7a08d79defd71435ce299853059c462f" target="_top" xlink:title=" ">
<ellipse fill="white" stroke="#666666" cx="437.99" cy="-165.81" rx="139.65" ry="25.81"/>
<text xml:space="preserve" text-anchor="start" x="347.24" y="-168.66" font-family="Helvetica,sans-Serif" font-size="12.00">com.runehive.content.overrides.</text>
<text xml:space="preserve" text-anchor="middle" x="437.99" y="-154.41" font-family="Helvetica,sans-Serif" font-size="12.00">Overrides.managePresetDialogue</text>
</a>
</g>
</g>
<!-- Node6&#45;&gt;Node7 -->
<g id="edge6_Node000006_Node000007" class="edge">
<title>Node6&#45;&gt;Node7</title>
<g id="a_edge6_Node000006_Node000007"><a xlink:title=" ">
<path fill="none" stroke="#63b8ff" d="M609.79,-178.14C596.2,-177.16 582.42,-176.16 568.88,-175.18"/>
<polygon fill="#63b8ff" stroke="#63b8ff" points="609.41,-181.62 619.64,-178.85 609.92,-174.64 609.41,-181.62"/>
</a>
</g>
</g>
<!-- Node7&#45;&gt;Node5 -->
<g id="edge7_Node000007_Node000005" class="edge">
<title>Node7&#45;&gt;Node5</title>
<g id="a_edge7_Node000007_Node000005"><a xlink:title=" ">
<path fill="none" stroke="#63b8ff" d="M306.98,-150.88C286.56,-148.54 265.59,-146.13 245.57,-143.83"/>
<polygon fill="#63b8ff" stroke="#63b8ff" points="306.43,-154.34 316.76,-152 307.23,-147.39 306.43,-154.34"/>
</a>
</g>
</g>
<!-- Node8&#45;&gt;Node5 -->
<g id="edge9_Node000008_Node000005" class="edge">
<title>Node8&#45;&gt;Node5</title>
<g id="a_edge9_Node000008_Node000005"><a xlink:title=" ">
<path fill="none" stroke="#63b8ff" d="M312.74,-110.08C290.51,-112.63 267.46,-115.27 245.57,-117.79"/>
<polygon fill="#63b8ff" stroke="#63b8ff" points="312.88,-113.58 322.42,-108.97 312.08,-106.63 312.88,-113.58"/>
</a>
</g>
</g>
<!-- Node9&#45;&gt;Node7 -->
<g id="edge11_Node000009_Node000007" class="edge">
<title>Node9&#45;&gt;Node7</title>
<g id="a_edge11_Node000009_Node000007"><a xlink:title=" ">
<path fill="none" stroke="#63b8ff" d="M629.77,-135.77C602.24,-140.1 572.92,-144.72 545.74,-149"/>
<polygon fill="#63b8ff" stroke="#63b8ff" points="630.21,-139.24 639.54,-134.23 629.12,-132.33 630.21,-139.24"/>
</a>
</g>
</g>
<!-- Node10&#45;&gt;Node5 -->
<g id="edge13_Node000010_Node000005" class="edge">
<title>Node10&#45;&gt;Node5</title>
<g id="a_edge13_Node000010_Node000005"><a xlink:title=" ">
<path fill="none" stroke="#63b8ff" d="M339.5,-48.43C325.58,-52.24 311.53,-56.39 298.34,-60.81 259,-73.97 215.87,-92.26 183.41,-106.85"/>
<polygon fill="#63b8ff" stroke="#63b8ff" points="340.39,-51.82 349.14,-45.85 338.58,-45.06 340.39,-51.82"/>
</a>
</g>
</g>
</g>
</svg>

<g id="navigator" transform="translate(0 0)" fill="#404254">
  <rect fill="#f2f5e9" fill-opacity="0.5" stroke="#606060" stroke-width=".5" x="0" y="0" width="60" height="60"/>
  <use id="zoomplus" xlink:href="#zoomPlus" x="17" y="9" onmousedown="handleZoom(evt,'in')"/>
  <use id="zoomminus" xlink:href="#zoomMin" x="42" y="9" onmousedown="handleZoom(evt,'out')"/>
  <use id="reset" xlink:href="#resetDef" x="30" y="36" onmousedown="handleReset()"/>
   <use id="arrowup" xlink:href="#arrowUp" x="0" y="0" onmousedown="handlePan(0,-1)"/>
  <use id="arrowright" xlink:href="#arrowRight" x="0" y="0" onmousedown="handlePan(1,0)"/>
  <use id="arrowdown" xlink:href="#arrowDown" x="0" y="0" onmousedown="handlePan(0,1)"/>
  <use id="arrowleft" xlink:href="#arrowLeft" x="0" y="0" onmousedown="handlePan(-1,0)"/>
</g>
<svg viewBox="0 0 15 15" width="100%" height="30px" preserveAspectRatio="xMaxYMin meet">
 <g id="arrow_out" transform="scale(0.3 0.3)">
  <a xlink:href="classcom_1_1runehive_1_1content_1_1overrides_1_1_overrides_aa77c45ab88069f39f70fd0dc017eba40_icgraph_org.svg" target="_base">
   <rect id="button" ry="5" rx="5" y="6" x="6" height="38" width="38"
        fill="#f2f5e9" fill-opacity="0.5" stroke="#606060" stroke-width="1.0"/>
   <path id="arrow"
     d="M 11.500037,31.436501 C 11.940474,20.09759 22.043105,11.32322 32.158766,21.979434 L 37.068811,17.246167 C 37.068811,17.246167 37.088388,32 37.088388,32 L 22.160133,31.978069 C 22.160133,31.978069 26.997745,27.140456 26.997745,27.140456 C 18.528582,18.264221 13.291696,25.230495 11.500037,31.436501 z"
     style="fill:#404040;"/>
  </a>
 </g>
</svg>

<style type='text/css'>
<![CDATA[
[data-mouse-over-selected='false'] { opacity: 0.7; }
[data-mouse-over-selected='true']  { opacity: 1.0; }
]]>
</style>
<script type="application/ecmascript"><![CDATA[
document.addEventListener('DOMContentLoaded', (event) => {
  highlightEdges();
  highlightAdjacentNodes();
});
]]></script>
</svg>
