<?xml version="1.0" encoding="UTF-8" standalone="no"?>
<!DOCTYPE svg PUBLIC "-//W3C//DTD SVG 1.1//EN"
 "http://www.w3.org/Graphics/SVG/1.1/DTD/svg11.dtd">
<!-- Generated by graphviz version 14.0.1 (20251006.0113)
 -->
<!-- Title: com.runehive.content.dialogue.DialogueFactory.sendItem Pages: 1 -->
<!--zoomable 168 -->

<svg id="main" version="1.1" xmlns="http://www.w3.org/2000/svg" xmlns:xlink="http://www.w3.org/1999/xlink" xml:space="preserve" onload="init(evt)">

<style type="text/css"><![CDATA[
.node, .edge {opacity: 0.7;}
.node.selected, .edge.selected {opacity: 1;}
.edge:hover path { stroke: red; }
.edge:hover polygon { stroke: red; fill: red; }
]]></style>

<defs>
  <circle id="rim" cx="0" cy="0" r="7"/>
  <circle id="rim2" cx="0" cy="0" r="3.5"/>
  <g id="zoomPlus">
    <use xlink:href="#rim" fill="#404040"><set attributeName="fill" to="#808080" begin="zoomplus.mouseover" end="zoomplus.mouseout"/></use>
    <path d="M-4,0h8M0,-4v8" fill="none" stroke="white" stroke-width="1.5" pointer-events="none"/>
  </g>
  <g id="zoomMin">
    <use xlink:href="#rim" fill="#404040"><set attributeName="fill" to="#808080" begin="zoomminus.mouseover" end="zoomminus.mouseout"/></use>
    <path d="M-4,0h8" fill="none" stroke="white" stroke-width="1.5" pointer-events="none"/>
  </g>
  <g id="arrowUp" transform="translate(30 24)">
    <use xlink:href="#rim"/>
    <path pointer-events="none" fill="none" stroke="white" stroke-width="1.5" d="M0,-3.0v7 M-2.5,-0.5L0,-3.0L2.5,-0.5"/>
  </g>
  <g id="arrowRight" transform="rotate(90) translate(36 -43)">
    <use xlink:href="#rim"/>
    <path pointer-events="none" fill="none" stroke="white" stroke-width="1.5" d="M0,-3.0v7 M-2.5,-0.5L0,-3.0L2.5,-0.5"/>
  </g>
  <g id="arrowDown" transform="rotate(180) translate(-30 -48)">
    <use xlink:href="#rim"/>
    <path pointer-events="none" fill="none" stroke="white" stroke-width="1.5" d="M0,-3.0v7 M-2.5,-0.5L0,-3.0L2.5,-0.5"/>
  </g>
  <g id="arrowLeft" transform="rotate(270) translate(-36 17)">
    <use xlink:href="#rim"/>
    <path pointer-events="none" fill="none" stroke="white" stroke-width="1.5" d="M0,-3.0v7 M-2.5,-0.5L0,-3.0L2.5,-0.5"/>
  </g>
  <g id="resetDef">
    <use xlink:href="#rim2" fill="#404040"><set attributeName="fill" to="#808080" begin="reset.mouseover" end="reset.mouseout"/></use>
  </g>
</defs>
<script type="application/ecmascript">
var viewWidth = 877;
var viewHeight = 168;
var sectionId = 'dynsection-26';
</script>
<script type="application/ecmascript" xlink:href="svg.min.js"/>
<svg id="graph" class="graph">
<g id="viewport">
<title>com.runehive.content.dialogue.DialogueFactory.sendItem</title>
<!-- Node1 -->
<g id="Node000001" class="node">
<title>Node1</title>
<g id="a_Node000001"><a xlink:title=" ">
<ellipse fill="#999999" stroke="#666666" cx="129.05" cy="-79.81" rx="129.05" ry="25.81"/>
<text xml:space="preserve" text-anchor="start" x="45.8" y="-82.66" font-family="Helvetica,sans-Serif" font-size="12.00">com.runehive.content.dialogue.</text>
<text xml:space="preserve" text-anchor="middle" x="129.05" y="-68.41" font-family="Helvetica,sans-Serif" font-size="12.00">DialogueFactory.sendItem</text>
</a>
</g>
</g>
<!-- Node2 -->
<g id="Node000002" class="node">
<title>Node2</title>
<g id="a_Node000002"><a xlink:href="classcom_1_1runehive_1_1content_1_1dialogue_1_1_dialogue_factory.html#a8979431ba1fa2913a9ed65bbf8e4dd3f" target="_top" xlink:title="Appends a chain to this factory.">
<ellipse fill="white" stroke="#666666" cx="425.26" cy="-133.81" rx="129.05" ry="25.81"/>
<text xml:space="preserve" text-anchor="start" x="342.01" y="-136.66" font-family="Helvetica,sans-Serif" font-size="12.00">com.runehive.content.dialogue.</text>
<text xml:space="preserve" text-anchor="middle" x="425.26" y="-122.41" font-family="Helvetica,sans-Serif" font-size="12.00">DialogueFactory.append</text>
</a>
</g>
</g>
<!-- Node1&#45;&gt;Node2 -->
<g id="edge1_Node000001_Node000002" class="edge">
<title>Node1&#45;&gt;Node2</title>
<g id="a_edge1_Node000001_Node000002"><a xlink:title=" ">
<path fill="none" stroke="#63b8ff" d="M225.57,-97.34C255.01,-102.74 287.61,-108.73 317.74,-114.26"/>
<polygon fill="#63b8ff" stroke="#63b8ff" points="316.76,-117.64 327.23,-116 318.02,-110.75 316.76,-117.64"/>
</a>
</g>
</g>
<!-- Node3 -->
<g id="Node000003" class="node">
<title>Node3</title>
<g id="a_Node000003"><a xlink:href="classcom_1_1runehive_1_1content_1_1dialogue_1_1_dialogue_factory.html#aec64ffdeed4c31dfe340a41430f50892" target="_top" xlink:title="Creates a new DialogueFactory.">
<ellipse fill="white" stroke="#666666" cx="730.49" cy="-106.81" rx="138.06" ry="25.81"/>
<text xml:space="preserve" text-anchor="start" x="640.87" y="-109.66" font-family="Helvetica,sans-Serif" font-size="12.00">com.runehive.content.dialogue.</text>
<text xml:space="preserve" text-anchor="middle" x="730.49" y="-95.41" font-family="Helvetica,sans-Serif" font-size="12.00">DialogueFactory.DialogueFactory</text>
</a>
</g>
</g>
<!-- Node1&#45;&gt;Node3 -->
<g id="edge3_Node000001_Node000003" class="edge">
<title>Node1&#45;&gt;Node3</title>
<g id="a_edge3_Node000001_Node000003"><a xlink:title=" ">
<path fill="none" stroke="#63b8ff" d="M255.52,-85.35C340.46,-89.11 455.21,-94.21 556.43,-98.81 565.72,-99.23 575.28,-99.67 584.93,-100.11"/>
<polygon fill="#63b8ff" stroke="#63b8ff" points="584.61,-103.6 594.76,-100.56 584.93,-96.61 584.61,-103.6"/>
</a>
</g>
</g>
<!-- Node4 -->
<g id="Node000004" class="node">
<title>Node4</title>
<g id="a_Node000004"><a xlink:href="classcom_1_1runehive_1_1content_1_1dialogue_1_1_dialogue_factory.html#ab2aefcffbd4c555eebf5439f4c437d25" target="_top" xlink:title="The method that validates the length of text.">
<ellipse fill="white" stroke="#666666" cx="425.26" cy="-25.81" rx="131.17" ry="25.81"/>
<text xml:space="preserve" text-anchor="start" x="340.51" y="-28.66" font-family="Helvetica,sans-Serif" font-size="12.00">com.runehive.content.dialogue.</text>
<text xml:space="preserve" text-anchor="middle" x="425.26" y="-14.41" font-family="Helvetica,sans-Serif" font-size="12.00">DialogueFactory.validateLength</text>
</a>
</g>
</g>
<!-- Node1&#45;&gt;Node4 -->
<g id="edge4_Node000001_Node000004" class="edge">
<title>Node1&#45;&gt;Node4</title>
<g id="a_edge4_Node000001_Node000004"><a xlink:title=" ">
<path fill="none" stroke="#63b8ff" d="M225.57,-62.28C254.66,-56.94 286.83,-51.03 316.65,-45.56"/>
<polygon fill="#63b8ff" stroke="#63b8ff" points="317.27,-49.01 326.47,-43.76 316,-42.12 317.27,-49.01"/>
</a>
</g>
</g>
<!-- Node2&#45;&gt;Node3 -->
<g id="edge2_Node000002_Node000003" class="edge">
<title>Node2&#45;&gt;Node3</title>
<g id="a_edge2_Node000002_Node000003"><a xlink:title=" ">
<path fill="none" stroke="#63b8ff" d="M543.93,-123.33C560.16,-121.89 576.94,-120.39 593.47,-118.92"/>
<polygon fill="#63b8ff" stroke="#63b8ff" points="593.71,-122.41 603.36,-118.04 593.09,-115.44 593.71,-122.41"/>
</a>
</g>
</g>
</g>
</svg>

<g id="navigator" transform="translate(0 0)" fill="#404254">
  <rect fill="#f2f5e9" fill-opacity="0.5" stroke="#606060" stroke-width=".5" x="0" y="0" width="60" height="60"/>
  <use id="zoomplus" xlink:href="#zoomPlus" x="17" y="9" onmousedown="handleZoom(evt,'in')"/>
  <use id="zoomminus" xlink:href="#zoomMin" x="42" y="9" onmousedown="handleZoom(evt,'out')"/>
  <use id="reset" xlink:href="#resetDef" x="30" y="36" onmousedown="handleReset()"/>
   <use id="arrowup" xlink:href="#arrowUp" x="0" y="0" onmousedown="handlePan(0,-1)"/>
  <use id="arrowright" xlink:href="#arrowRight" x="0" y="0" onmousedown="handlePan(1,0)"/>
  <use id="arrowdown" xlink:href="#arrowDown" x="0" y="0" onmousedown="handlePan(0,1)"/>
  <use id="arrowleft" xlink:href="#arrowLeft" x="0" y="0" onmousedown="handlePan(-1,0)"/>
</g>
<svg viewBox="0 0 15 15" width="100%" height="30px" preserveAspectRatio="xMaxYMin meet">
 <g id="arrow_out" transform="scale(0.3 0.3)">
  <a xlink:href="classcom_1_1runehive_1_1content_1_1dialogue_1_1_dialogue_factory_a5e47acd4794466697e97f1d5f7fab1e7_cgraph_org.svg" target="_base">
   <rect id="button" ry="5" rx="5" y="6" x="6" height="38" width="38"
        fill="#f2f5e9" fill-opacity="0.5" stroke="#606060" stroke-width="1.0"/>
   <path id="arrow"
     d="M 11.500037,31.436501 C 11.940474,20.09759 22.043105,11.32322 32.158766,21.979434 L 37.068811,17.246167 C 37.068811,17.246167 37.088388,32 37.088388,32 L 22.160133,31.978069 C 22.160133,31.978069 26.997745,27.140456 26.997745,27.140456 C 18.528582,18.264221 13.291696,25.230495 11.500037,31.436501 z"
     style="fill:#404040;"/>
  </a>
 </g>
</svg>

<style type='text/css'>
<![CDATA[
[data-mouse-over-selected='false'] { opacity: 0.7; }
[data-mouse-over-selected='true']  { opacity: 1.0; }
]]>
</style>
<script type="application/ecmascript"><![CDATA[
document.addEventListener('DOMContentLoaded', (event) => {
  highlightEdges();
  highlightAdjacentNodes();
});
]]></script>
</svg>
