<?xml version="1.0" encoding="UTF-8" standalone="no"?>
<!DOCTYPE svg PUBLIC "-//W3C//DTD SVG 1.1//EN"
 "http://www.w3.org/Graphics/SVG/1.1/DTD/svg11.dtd">
<!-- Generated by graphviz version 14.0.1 (20251006.0113)
 -->
<!-- Title: com.runehive.game.task.impl.SystemUpdateEvent.tick Pages: 1 -->
<!--zoomable 390 -->

<svg id="main" version="1.1" xmlns="http://www.w3.org/2000/svg" xmlns:xlink="http://www.w3.org/1999/xlink" xml:space="preserve" onload="init(evt)">

<style type="text/css"><![CDATA[
.node, .edge {opacity: 0.7;}
.node.selected, .edge.selected {opacity: 1;}
.edge:hover path { stroke: red; }
.edge:hover polygon { stroke: red; fill: red; }
]]></style>

<defs>
  <circle id="rim" cx="0" cy="0" r="7"/>
  <circle id="rim2" cx="0" cy="0" r="3.5"/>
  <g id="zoomPlus">
    <use xlink:href="#rim" fill="#404040"><set attributeName="fill" to="#808080" begin="zoomplus.mouseover" end="zoomplus.mouseout"/></use>
    <path d="M-4,0h8M0,-4v8" fill="none" stroke="white" stroke-width="1.5" pointer-events="none"/>
  </g>
  <g id="zoomMin">
    <use xlink:href="#rim" fill="#404040"><set attributeName="fill" to="#808080" begin="zoomminus.mouseover" end="zoomminus.mouseout"/></use>
    <path d="M-4,0h8" fill="none" stroke="white" stroke-width="1.5" pointer-events="none"/>
  </g>
  <g id="arrowUp" transform="translate(30 24)">
    <use xlink:href="#rim"/>
    <path pointer-events="none" fill="none" stroke="white" stroke-width="1.5" d="M0,-3.0v7 M-2.5,-0.5L0,-3.0L2.5,-0.5"/>
  </g>
  <g id="arrowRight" transform="rotate(90) translate(36 -43)">
    <use xlink:href="#rim"/>
    <path pointer-events="none" fill="none" stroke="white" stroke-width="1.5" d="M0,-3.0v7 M-2.5,-0.5L0,-3.0L2.5,-0.5"/>
  </g>
  <g id="arrowDown" transform="rotate(180) translate(-30 -48)">
    <use xlink:href="#rim"/>
    <path pointer-events="none" fill="none" stroke="white" stroke-width="1.5" d="M0,-3.0v7 M-2.5,-0.5L0,-3.0L2.5,-0.5"/>
  </g>
  <g id="arrowLeft" transform="rotate(270) translate(-36 17)">
    <use xlink:href="#rim"/>
    <path pointer-events="none" fill="none" stroke="white" stroke-width="1.5" d="M0,-3.0v7 M-2.5,-0.5L0,-3.0L2.5,-0.5"/>
  </g>
  <g id="resetDef">
    <use xlink:href="#rim2" fill="#404040"><set attributeName="fill" to="#808080" begin="reset.mouseover" end="reset.mouseout"/></use>
  </g>
</defs>
<script type="application/ecmascript">
var viewWidth = 1753;
var viewHeight = 390;
var sectionId = 'dynsection-3';
</script>
<script type="application/ecmascript" xlink:href="svg.min.js"/>
<svg id="graph" class="graph">
<g id="viewport">
<title>com.runehive.game.task.impl.SystemUpdateEvent.tick</title>
<!-- Node1 -->
<g id="Node000001" class="node">
<title>Node1</title>
<g id="a_Node000001"><a xlink:title=" ">
<ellipse fill="#999999" stroke="#666666" cx="123.21" cy="-225.81" rx="123.21" ry="25.81"/>
<text xml:space="preserve" text-anchor="start" x="44.09" y="-228.66" font-family="Helvetica,sans-Serif" font-size="12.00">com.runehive.game.task.impl.</text>
<text xml:space="preserve" text-anchor="middle" x="123.21" y="-214.41" font-family="Helvetica,sans-Serif" font-size="12.00">SystemUpdateEvent.tick</text>
</a>
</g>
</g>
<!-- Node1&#45;&gt;Node1 -->
<g id="edge13_Node000001_Node000001" class="edge">
<title>Node1&#45;&gt;Node1</title>
<g id="a_edge13_Node000001_Node000001"><a xlink:title=" ">
<path fill="none" stroke="#63b8ff" d="M66.7,-248.8C59.72,-259.86 78.56,-269.62 123.21,-269.62 151.82,-269.62 169.83,-265.61 177.25,-259.83"/>
<polygon fill="#63b8ff" stroke="#63b8ff" points="180.61,-260.8 179.39,-250.28 173.78,-259.26 180.61,-260.8"/>
</a>
</g>
</g>
<!-- Node2 -->
<g id="Node000002" class="node">
<title>Node2</title>
<g id="a_Node000002"><a xlink:href="classcom_1_1runehive_1_1game_1_1task_1_1_task.html#a2fc8d15b55a8f0a55a20c0b78f77007c" target="_top" xlink:title="Cancels all subsequent executions.">
<ellipse fill="white" stroke="#666666" cx="432.16" cy="-305.81" rx="149.73" ry="15.73"/>
<text xml:space="preserve" text-anchor="middle" x="432.16" y="-301.53" font-family="Helvetica,sans-Serif" font-size="12.00">com.runehive.game.task.Task.cancel</text>
</a>
</g>
</g>
<!-- Node1&#45;&gt;Node2 -->
<g id="edge1_Node000001_Node000002" class="edge">
<title>Node1&#45;&gt;Node2</title>
<g id="a_edge1_Node000001_Node000002"><a xlink:title=" ">
<path fill="none" stroke="#63b8ff" d="M201.67,-246C251.43,-258.97 315.45,-275.65 363.22,-288.1"/>
<polygon fill="#63b8ff" stroke="#63b8ff" points="362.05,-291.41 372.61,-290.55 363.82,-284.64 362.05,-291.41"/>
</a>
</g>
</g>
<!-- Node4 -->
<g id="Node000004" class="node">
<title>Node4</title>
<g id="a_Node000004"><a xlink:href="classcom_1_1runehive_1_1game_1_1world_1_1_world.html#aed754a350053923b183118ac9a780a28" target="_top" xlink:title="Saves all the game data.">
<ellipse fill="white" stroke="#666666" cx="432.16" cy="-195.81" rx="110.49" ry="25.81"/>
<text xml:space="preserve" text-anchor="start" x="362.03" y="-198.66" font-family="Helvetica,sans-Serif" font-size="12.00">com.runehive.game.world.</text>
<text xml:space="preserve" text-anchor="middle" x="432.16" y="-184.41" font-family="Helvetica,sans-Serif" font-size="12.00">World.save</text>
</a>
</g>
</g>
<!-- Node1&#45;&gt;Node4 -->
<g id="edge3_Node000001_Node000004" class="edge">
<title>Node1&#45;&gt;Node4</title>
<g id="a_edge3_Node000001_Node000004"><a xlink:title=" ">
<path fill="none" stroke="#63b8ff" d="M235.46,-214.94C262.33,-212.31 291.08,-209.5 318.03,-206.87"/>
<polygon fill="#63b8ff" stroke="#63b8ff" points="318.35,-210.35 327.96,-205.9 317.67,-203.39 318.35,-210.35"/>
</a>
</g>
</g>
<!-- Node3 -->
<g id="Node000003" class="node">
<title>Node3</title>
<g id="a_Node000003"><a xlink:href="classcom_1_1runehive_1_1game_1_1task_1_1_task.html#aef9b4245ff3b594dd844c44da99d51a3" target="_top" xlink:title="A function executed on cancellation.">
<ellipse fill="white" stroke="#666666" cx="820.65" cy="-355.81" rx="134.35" ry="25.81"/>
<text xml:space="preserve" text-anchor="start" x="733.65" y="-358.66" font-family="Helvetica,sans-Serif" font-size="12.00">com.runehive.game.task.Task.on</text>
<text xml:space="preserve" text-anchor="middle" x="820.65" y="-344.41" font-family="Helvetica,sans-Serif" font-size="12.00">Cancel</text>
</a>
</g>
</g>
<!-- Node2&#45;&gt;Node3 -->
<g id="edge2_Node000002_Node000003" class="edge">
<title>Node2&#45;&gt;Node3</title>
<g id="a_edge2_Node000002_Node000003"><a xlink:title=" ">
<path fill="none" stroke="#63b8ff" d="M528.69,-318.17C579.51,-324.74 642.57,-332.9 696.97,-339.94"/>
<polygon fill="#63b8ff" stroke="#63b8ff" points="696.22,-343.37 706.58,-341.18 697.11,-336.43 696.22,-343.37"/>
</a>
</g>
</g>
<!-- Node5 -->
<g id="Node000005" class="node">
<title>Node5</title>
<g id="a_Node000005"><a xlink:href="classcom_1_1runehive_1_1game_1_1world_1_1entity_1_1mob_1_1player_1_1persist_1_1_player_serializer.html#a3b19efe7bf5d296b921410fd3dcce096" target="_top" xlink:title=" ">
<ellipse fill="white" stroke="#666666" cx="820.65" cy="-285.81" rx="202.76" ry="25.81"/>
<text xml:space="preserve" text-anchor="start" x="685.27" y="-288.66" font-family="Helvetica,sans-Serif" font-size="12.00">com.runehive.game.world.entity.mob.player.persist.</text>
<text xml:space="preserve" text-anchor="middle" x="820.65" y="-274.41" font-family="Helvetica,sans-Serif" font-size="12.00">PlayerSerializer.save</text>
</a>
</g>
</g>
<!-- Node4&#45;&gt;Node5 -->
<g id="edge4_Node000004_Node000005" class="edge">
<title>Node4&#45;&gt;Node5</title>
<g id="a_edge4_Node000004_Node000005"><a xlink:title=" ">
<path fill="none" stroke="#63b8ff" d="M497.63,-217.03C532.89,-228.13 577.49,-241.33 617.89,-250.81 637.62,-255.44 658.56,-259.75 679.21,-263.64"/>
<polygon fill="#63b8ff" stroke="#63b8ff" points="678.34,-267.04 688.81,-265.42 679.62,-260.15 678.34,-267.04"/>
</a>
</g>
</g>
<!-- Node6 -->
<g id="Node000006" class="node">
<title>Node6</title>
<g id="a_Node000006"><a xlink:href="classcom_1_1runehive_1_1util_1_1_game_saver.html#a4c423861db66e5f3a41973aca3dc46e8" target="_top" xlink:title=" ">
<ellipse fill="white" stroke="#666666" cx="820.65" cy="-225.81" rx="142.31" ry="15.73"/>
<text xml:space="preserve" text-anchor="middle" x="820.65" y="-221.53" font-family="Helvetica,sans-Serif" font-size="12.00">com.runehive.util.GameSaver.save</text>
</a>
</g>
</g>
<!-- Node4&#45;&gt;Node6 -->
<g id="edge5_Node000004_Node000006" class="edge">
<title>Node4&#45;&gt;Node6</title>
<g id="a_edge5_Node000004_Node000006"><a xlink:title=" ">
<path fill="none" stroke="#63b8ff" d="M537.49,-203.91C584.88,-207.59 641.39,-211.97 691.35,-215.85"/>
<polygon fill="#63b8ff" stroke="#63b8ff" points="690.82,-219.32 701.06,-216.6 691.36,-212.34 690.82,-219.32"/>
</a>
</g>
</g>
<!-- Node9 -->
<g id="Node000009" class="node">
<title>Node9</title>
<g id="a_Node000009"><a xlink:href="classcom_1_1runehive_1_1content_1_1clanchannel_1_1_clan_repository.html#a53d0767a1dd64115a7430ace6bf3b188" target="_top" xlink:title=" ">
<ellipse fill="white" stroke="#666666" cx="820.65" cy="-165.81" rx="145.49" ry="25.81"/>
<text xml:space="preserve" text-anchor="start" x="725.77" y="-168.66" font-family="Helvetica,sans-Serif" font-size="12.00">com.runehive.content.clanchannel.</text>
<text xml:space="preserve" text-anchor="middle" x="820.65" y="-154.41" font-family="Helvetica,sans-Serif" font-size="12.00">ClanRepository.saveAllActiveClans</text>
</a>
</g>
</g>
<!-- Node4&#45;&gt;Node9 -->
<g id="edge9_Node000004_Node000009" class="edge">
<title>Node4&#45;&gt;Node9</title>
<g id="a_edge9_Node000004_Node000009"><a xlink:title=" ">
<path fill="none" stroke="#63b8ff" d="M537.49,-187.71C579.94,-184.42 629.7,-180.55 675.51,-177"/>
<polygon fill="#63b8ff" stroke="#63b8ff" points="675.55,-180.5 685.25,-176.24 675.01,-173.53 675.55,-180.5"/>
</a>
</g>
</g>
<!-- Node11 -->
<g id="Node000011" class="node">
<title>Node11</title>
<g id="a_Node000011"><a xlink:href="classcom_1_1runehive_1_1content_1_1tradingpost_1_1_trading_post.html#a7e9c408eb74a71f1d396df8f39dad837" target="_top" xlink:title=" ">
<ellipse fill="white" stroke="#666666" cx="820.65" cy="-95.81" rx="138.06" ry="25.81"/>
<text xml:space="preserve" text-anchor="start" x="731.02" y="-98.66" font-family="Helvetica,sans-Serif" font-size="12.00">com.runehive.content.tradingpost.</text>
<text xml:space="preserve" text-anchor="middle" x="820.65" y="-84.41" font-family="Helvetica,sans-Serif" font-size="12.00">TradingPost.saveAllItemHistory</text>
</a>
</g>
</g>
<!-- Node4&#45;&gt;Node11 -->
<g id="edge11_Node000004_Node000011" class="edge">
<title>Node4&#45;&gt;Node11</title>
<g id="a_edge11_Node000004_Node000011"><a xlink:title=" ">
<path fill="none" stroke="#63b8ff" d="M489,-173.42C525.25,-159.57 573.8,-142.3 617.89,-130.81 643.62,-124.1 671.55,-118.32 698.18,-113.51"/>
<polygon fill="#63b8ff" stroke="#63b8ff" points="698.78,-116.95 708.02,-111.76 697.56,-110.06 698.78,-116.95"/>
</a>
</g>
</g>
<!-- Node12 -->
<g id="Node000012" class="node">
<title>Node12</title>
<g id="a_Node000012"><a xlink:href="classcom_1_1runehive_1_1content_1_1tradingpost_1_1_trading_post.html#a4f7ad4f762ffa65ceb5154a525bd05ef" target="_top" xlink:title=" ">
<ellipse fill="white" stroke="#666666" cx="820.65" cy="-25.81" rx="138.06" ry="25.81"/>
<text xml:space="preserve" text-anchor="start" x="731.02" y="-28.66" font-family="Helvetica,sans-Serif" font-size="12.00">com.runehive.content.tradingpost.</text>
<text xml:space="preserve" text-anchor="middle" x="820.65" y="-14.41" font-family="Helvetica,sans-Serif" font-size="12.00">TradingPost.saveRecentHistory</text>
</a>
</g>
</g>
<!-- Node4&#45;&gt;Node12 -->
<g id="edge12_Node000004_Node000012" class="edge">
<title>Node4&#45;&gt;Node12</title>
<g id="a_edge12_Node000004_Node000012"><a xlink:title=" ">
<path fill="none" stroke="#63b8ff" d="M459.46,-170.37C493.22,-139.27 555,-87.51 617.89,-60.81 639.29,-51.73 662.92,-45 686.25,-40.02"/>
<polygon fill="#63b8ff" stroke="#63b8ff" points="686.71,-43.5 695.81,-38.08 685.32,-36.63 686.71,-43.5"/>
</a>
</g>
</g>
<!-- Node7 -->
<g id="Node000007" class="node">
<title>Node7</title>
<g id="a_Node000007"><a xlink:href="classcom_1_1runehive_1_1util_1_1_game_saver.html#a76e8d0845c5f27ace715cecd3a66fa96" target="_top" xlink:title=" ">
<ellipse fill="white" stroke="#666666" cx="1208.61" cy="-225.81" rx="149.2" ry="15.73"/>
<text xml:space="preserve" text-anchor="middle" x="1208.61" y="-221.53" font-family="Helvetica,sans-Serif" font-size="12.00">com.runehive.util.GameSaver.toJson</text>
</a>
</g>
</g>
<!-- Node6&#45;&gt;Node7 -->
<g id="edge6_Node000006_Node000007" class="edge">
<title>Node6&#45;&gt;Node7</title>
<g id="a_edge6_Node000006_Node000007"><a xlink:title=" ">
<path fill="none" stroke="#63b8ff" d="M963.45,-225.81C990.85,-225.81 1019.74,-225.81 1047.68,-225.81"/>
<polygon fill="#63b8ff" stroke="#63b8ff" points="1047.66,-229.31 1057.66,-225.81 1047.66,-222.31 1047.66,-229.31"/>
</a>
</g>
</g>
<!-- Node8 -->
<g id="Node000008" class="node">
<title>Node8</title>
<g id="a_Node000008"><a xlink:href="enumcom_1_1runehive_1_1game_1_1world_1_1entity_1_1mob_1_1player_1_1_player_right.html#aab09dcf8fa6041ddf475dfcc61b2fc15" target="_top" xlink:title="Gets the crown display.">
<ellipse fill="white" stroke="#666666" cx="1569.53" cy="-225.81" rx="175.72" ry="25.81"/>
<text xml:space="preserve" text-anchor="start" x="1453.28" y="-228.66" font-family="Helvetica,sans-Serif" font-size="12.00">com.runehive.game.world.entity.mob.player.</text>
<text xml:space="preserve" text-anchor="middle" x="1569.53" y="-214.41" font-family="Helvetica,sans-Serif" font-size="12.00">PlayerRight.getCrown</text>
</a>
</g>
</g>
<!-- Node7&#45;&gt;Node8 -->
<g id="edge7_Node000007_Node000008" class="edge">
<title>Node7&#45;&gt;Node8</title>
<g id="a_edge7_Node000007_Node000008"><a xlink:title=" ">
<path fill="none" stroke="#63b8ff" d="M1358.19,-225.81C1366.12,-225.81 1374.13,-225.81 1382.16,-225.81"/>
<polygon fill="#63b8ff" stroke="#63b8ff" points="1382.01,-229.31 1392.01,-225.81 1382.01,-222.31 1382.01,-229.31"/>
</a>
</g>
</g>
<!-- Node8&#45;&gt;Node8 -->
<g id="edge8_Node000008_Node000008" class="edge">
<title>Node8&#45;&gt;Node8</title>
<g id="a_edge8_Node000008_Node000008"><a xlink:title=" ">
<path fill="none" stroke="#63b8ff" d="M1502.67,-250.14C1497.19,-260.63 1519.48,-269.62 1569.53,-269.62 1601.59,-269.62 1622.26,-265.93 1631.53,-260.52"/>
<polygon fill="#63b8ff" stroke="#63b8ff" points="1634.68,-262.05 1635.75,-251.51 1628.34,-259.08 1634.68,-262.05"/>
</a>
</g>
</g>
<!-- Node10 -->
<g id="Node000010" class="node">
<title>Node10</title>
<g id="a_Node000010"><a xlink:href="classcom_1_1runehive_1_1content_1_1clanchannel_1_1_clan_repository.html#a2298eec45a8d61bbf90cfe05bf2a561b" target="_top" xlink:title=" ">
<ellipse fill="white" stroke="#666666" cx="1208.61" cy="-165.81" rx="142.31" ry="25.81"/>
<text xml:space="preserve" text-anchor="start" x="1115.99" y="-168.66" font-family="Helvetica,sans-Serif" font-size="12.00">com.runehive.content.clanchannel.</text>
<text xml:space="preserve" text-anchor="middle" x="1208.61" y="-154.41" font-family="Helvetica,sans-Serif" font-size="12.00">ClanRepository.saveClan</text>
</a>
</g>
</g>
<!-- Node9&#45;&gt;Node10 -->
<g id="edge10_Node000009_Node000010" class="edge">
<title>Node9&#45;&gt;Node10</title>
<g id="a_edge10_Node000009_Node000010"><a xlink:title=" ">
<path fill="none" stroke="#63b8ff" d="M966.47,-165.81C995.17,-165.81 1025.39,-165.81 1054.36,-165.81"/>
<polygon fill="#63b8ff" stroke="#63b8ff" points="1054.32,-169.31 1064.32,-165.81 1054.32,-162.31 1054.32,-169.31"/>
</a>
</g>
</g>
</g>
</svg>

<g id="navigator" transform="translate(0 0)" fill="#404254">
  <rect fill="#f2f5e9" fill-opacity="0.5" stroke="#606060" stroke-width=".5" x="0" y="0" width="60" height="60"/>
  <use id="zoomplus" xlink:href="#zoomPlus" x="17" y="9" onmousedown="handleZoom(evt,'in')"/>
  <use id="zoomminus" xlink:href="#zoomMin" x="42" y="9" onmousedown="handleZoom(evt,'out')"/>
  <use id="reset" xlink:href="#resetDef" x="30" y="36" onmousedown="handleReset()"/>
   <use id="arrowup" xlink:href="#arrowUp" x="0" y="0" onmousedown="handlePan(0,-1)"/>
  <use id="arrowright" xlink:href="#arrowRight" x="0" y="0" onmousedown="handlePan(1,0)"/>
  <use id="arrowdown" xlink:href="#arrowDown" x="0" y="0" onmousedown="handlePan(0,1)"/>
  <use id="arrowleft" xlink:href="#arrowLeft" x="0" y="0" onmousedown="handlePan(-1,0)"/>
</g>
<svg viewBox="0 0 15 15" width="100%" height="30px" preserveAspectRatio="xMaxYMin meet">
 <g id="arrow_out" transform="scale(0.3 0.3)">
  <a xlink:href="classcom_1_1runehive_1_1game_1_1task_1_1impl_1_1_system_update_event_a3b4d854d004b6225441a180b6f290d5c_cgraph_org.svg" target="_base">
   <rect id="button" ry="5" rx="5" y="6" x="6" height="38" width="38"
        fill="#f2f5e9" fill-opacity="0.5" stroke="#606060" stroke-width="1.0"/>
   <path id="arrow"
     d="M 11.500037,31.436501 C 11.940474,20.09759 22.043105,11.32322 32.158766,21.979434 L 37.068811,17.246167 C 37.068811,17.246167 37.088388,32 37.088388,32 L 22.160133,31.978069 C 22.160133,31.978069 26.997745,27.140456 26.997745,27.140456 C 18.528582,18.264221 13.291696,25.230495 11.500037,31.436501 z"
     style="fill:#404040;"/>
  </a>
 </g>
</svg>

<style type='text/css'>
<![CDATA[
[data-mouse-over-selected='false'] { opacity: 0.7; }
[data-mouse-over-selected='true']  { opacity: 1.0; }
]]>
</style>
<script type="application/ecmascript"><![CDATA[
document.addEventListener('DOMContentLoaded', (event) => {
  highlightEdges();
  highlightAdjacentNodes();
});
]]></script>
</svg>
