<?xml version="1.0" encoding="UTF-8" standalone="no"?>
<!DOCTYPE svg PUBLIC "-//W3C//DTD SVG 1.1//EN"
 "http://www.w3.org/Graphics/SVG/1.1/DTD/svg11.dtd">
<!-- Generated by graphviz version 14.0.1 (20251006.0113)
 -->
<!-- Title: com.runehive.game.world.entity.mob.player.exchange.ExchangeSession.getSession Pages: 1 -->
<!--zoomable 144 -->

<svg id="main" version="1.1" xmlns="http://www.w3.org/2000/svg" xmlns:xlink="http://www.w3.org/1999/xlink" xml:space="preserve" onload="init(evt)">

<style type="text/css"><![CDATA[
.node, .edge {opacity: 0.7;}
.node.selected, .edge.selected {opacity: 1;}
.edge:hover path { stroke: red; }
.edge:hover polygon { stroke: red; fill: red; }
]]></style>

<defs>
  <circle id="rim" cx="0" cy="0" r="7"/>
  <circle id="rim2" cx="0" cy="0" r="3.5"/>
  <g id="zoomPlus">
    <use xlink:href="#rim" fill="#404040"><set attributeName="fill" to="#808080" begin="zoomplus.mouseover" end="zoomplus.mouseout"/></use>
    <path d="M-4,0h8M0,-4v8" fill="none" stroke="white" stroke-width="1.5" pointer-events="none"/>
  </g>
  <g id="zoomMin">
    <use xlink:href="#rim" fill="#404040"><set attributeName="fill" to="#808080" begin="zoomminus.mouseover" end="zoomminus.mouseout"/></use>
    <path d="M-4,0h8" fill="none" stroke="white" stroke-width="1.5" pointer-events="none"/>
  </g>
  <g id="arrowUp" transform="translate(30 24)">
    <use xlink:href="#rim"/>
    <path pointer-events="none" fill="none" stroke="white" stroke-width="1.5" d="M0,-3.0v7 M-2.5,-0.5L0,-3.0L2.5,-0.5"/>
  </g>
  <g id="arrowRight" transform="rotate(90) translate(36 -43)">
    <use xlink:href="#rim"/>
    <path pointer-events="none" fill="none" stroke="white" stroke-width="1.5" d="M0,-3.0v7 M-2.5,-0.5L0,-3.0L2.5,-0.5"/>
  </g>
  <g id="arrowDown" transform="rotate(180) translate(-30 -48)">
    <use xlink:href="#rim"/>
    <path pointer-events="none" fill="none" stroke="white" stroke-width="1.5" d="M0,-3.0v7 M-2.5,-0.5L0,-3.0L2.5,-0.5"/>
  </g>
  <g id="arrowLeft" transform="rotate(270) translate(-36 17)">
    <use xlink:href="#rim"/>
    <path pointer-events="none" fill="none" stroke="white" stroke-width="1.5" d="M0,-3.0v7 M-2.5,-0.5L0,-3.0L2.5,-0.5"/>
  </g>
  <g id="resetDef">
    <use xlink:href="#rim2" fill="#404040"><set attributeName="fill" to="#808080" begin="reset.mouseover" end="reset.mouseout"/></use>
  </g>
</defs>
<script type="application/ecmascript">
var viewWidth = 2302;
var viewHeight = 144;
var sectionId = 'dynsection-24';
</script>
<script type="application/ecmascript" xlink:href="svg.min.js"/>
<svg id="graph" class="graph">
<g id="viewport">
<title>com.runehive.game.world.entity.mob.player.exchange.ExchangeSession.getSession</title>
<!-- Node1 -->
<g id="Node000001" class="node">
<title>Node1</title>
<g id="a_Node000001"><a xlink:title="Gets the session if applicable the player is in.">
<ellipse fill="#999999" stroke="#666666" cx="214.96" cy="-52.81" rx="214.96" ry="25.81"/>
<text xml:space="preserve" text-anchor="start" x="70.96" y="-55.66" font-family="Helvetica,sans-Serif" font-size="12.00">com.runehive.game.world.entity.mob.player.exchange.</text>
<text xml:space="preserve" text-anchor="middle" x="214.96" y="-41.41" font-family="Helvetica,sans-Serif" font-size="12.00">ExchangeSession.getSession</text>
</a>
</g>
</g>
<!-- Node2 -->
<g id="Node000002" class="node">
<title>Node2</title>
<g id="a_Node000002"><a xlink:href="classcom_1_1runehive_1_1game_1_1world_1_1entity_1_1mob_1_1player_1_1exchange_1_1_exchange_session.html#add67673a0d2ad71d4d9bf8e528905872" target="_top" xlink:title=" ">
<ellipse fill="white" stroke="#666666" cx="680.88" cy="-52.81" rx="214.96" ry="25.81"/>
<text xml:space="preserve" text-anchor="start" x="536.88" y="-55.66" font-family="Helvetica,sans-Serif" font-size="12.00">com.runehive.game.world.entity.mob.player.exchange.</text>
<text xml:space="preserve" text-anchor="middle" x="680.88" y="-41.41" font-family="Helvetica,sans-Serif" font-size="12.00">ExchangeSession.allMatch</text>
</a>
</g>
</g>
<!-- Node1&#45;&gt;Node2 -->
<g id="edge1_Node000001_Node000002" class="edge">
<title>Node1&#45;&gt;Node2</title>
<g id="a_edge1_Node000001_Node000002"><a xlink:title=" ">
<path fill="none" stroke="#63b8ff" d="M430.27,-52.81C438.25,-52.81 446.27,-52.81 454.28,-52.81"/>
<polygon fill="#63b8ff" stroke="#63b8ff" points="454.07,-56.31 464.07,-52.81 454.07,-49.31 454.07,-56.31"/>
</a>
</g>
</g>
<!-- Node3 -->
<g id="Node000003" class="node">
<title>Node3</title>
<g id="a_Node000003"><a xlink:href="classcom_1_1runehive_1_1game_1_1world_1_1entity_1_1mob_1_1player_1_1exchange_1_1_exchange_session.html#af7a93a001cc48e0f260add81c71274b2" target="_top" xlink:title=" ">
<ellipse fill="white" stroke="#666666" cx="1146.8" cy="-52.81" rx="214.96" ry="25.81"/>
<text xml:space="preserve" text-anchor="start" x="1002.8" y="-55.66" font-family="Helvetica,sans-Serif" font-size="12.00">com.runehive.game.world.entity.mob.player.exchange.</text>
<text xml:space="preserve" text-anchor="middle" x="1146.8" y="-41.41" font-family="Helvetica,sans-Serif" font-size="12.00">ExchangeSession.anyMatch</text>
</a>
</g>
</g>
<!-- Node2&#45;&gt;Node3 -->
<g id="edge2_Node000002_Node000003" class="edge">
<title>Node2&#45;&gt;Node3</title>
<g id="a_edge2_Node000002_Node000003"><a xlink:title=" ">
<path fill="none" stroke="#63b8ff" d="M896.19,-52.81C904.18,-52.81 912.19,-52.81 920.2,-52.81"/>
<polygon fill="#63b8ff" stroke="#63b8ff" points="919.99,-56.31 929.99,-52.81 919.99,-49.31 919.99,-56.31"/>
</a>
</g>
</g>
<!-- Node4 -->
<g id="Node000004" class="node">
<title>Node4</title>
<g id="a_Node000004"><a xlink:href="classcom_1_1runehive_1_1game_1_1world_1_1entity_1_1mob_1_1player_1_1exchange_1_1_exchange_session.html#aaa0093dd867b19cd52bb04681335e212" target="_top" xlink:title="Constructs a new ExchangeSession.">
<ellipse fill="white" stroke="#666666" cx="1612.72" cy="-109.81" rx="214.96" ry="25.81"/>
<text xml:space="preserve" text-anchor="start" x="1468.72" y="-112.66" font-family="Helvetica,sans-Serif" font-size="12.00">com.runehive.game.world.entity.mob.player.exchange.</text>
<text xml:space="preserve" text-anchor="middle" x="1612.72" y="-98.41" font-family="Helvetica,sans-Serif" font-size="12.00">ExchangeSession.ExchangeSession</text>
</a>
</g>
</g>
<!-- Node2&#45;&gt;Node4 -->
<g id="edge8_Node000002_Node000004" class="edge">
<title>Node2&#45;&gt;Node4</title>
<g id="a_edge8_Node000002_Node000004"><a xlink:title=" ">
<path fill="none" stroke="#63b8ff" d="M772.29,-76.61C819.47,-87.85 878.36,-100.04 931.84,-105.81 1088.22,-122.67 1266.02,-123.06 1400.56,-119.56"/>
<polygon fill="#63b8ff" stroke="#63b8ff" points="1400.39,-123.07 1410.29,-119.3 1400.2,-116.07 1400.39,-123.07"/>
</a>
</g>
</g>
<!-- Node6 -->
<g id="Node000006" class="node">
<title>Node6</title>
<g id="a_Node000006"><a xlink:href="classcom_1_1runehive_1_1game_1_1world_1_1entity_1_1mob_1_1player_1_1_player.html#a448ed37dd7d81845d5493c3b63cad6f3" target="_top" xlink:title="Gets the name of this entity.">
<ellipse fill="white" stroke="#666666" cx="1612.72" cy="-25.81" rx="175.72" ry="25.81"/>
<text xml:space="preserve" text-anchor="start" x="1496.47" y="-28.66" font-family="Helvetica,sans-Serif" font-size="12.00">com.runehive.game.world.entity.mob.player.</text>
<text xml:space="preserve" text-anchor="middle" x="1612.72" y="-14.41" font-family="Helvetica,sans-Serif" font-size="12.00">Player.getName</text>
</a>
</g>
</g>
<!-- Node2&#45;&gt;Node6 -->
<g id="edge9_Node000002_Node000006" class="edge">
<title>Node2&#45;&gt;Node6</title>
<g id="a_edge9_Node000002_Node000006"><a xlink:title=" ">
<path fill="none" stroke="#63b8ff" d="M808.36,-31.62C847.8,-25.95 891.52,-20.62 931.84,-17.81 1103.22,-5.87 1299.47,-10.09 1436.93,-15.96"/>
<polygon fill="#63b8ff" stroke="#63b8ff" points="1436.72,-19.45 1446.86,-16.39 1437.03,-12.46 1436.72,-19.45"/>
</a>
</g>
</g>
<!-- Node3&#45;&gt;Node3 -->
<g id="edge3_Node000003_Node000003" class="edge">
<title>Node3&#45;&gt;Node3</title>
<g id="a_edge3_Node000003_Node000003"><a xlink:title=" ">
<path fill="none" stroke="#63b8ff" d="M1060.81,-76.69C1052.62,-87.38 1081.28,-96.62 1146.8,-96.62 1189.8,-96.62 1216.93,-92.64 1228.18,-86.88"/>
<polygon fill="#63b8ff" stroke="#63b8ff" points="1231.23,-88.62 1232.17,-78.07 1224.86,-85.73 1231.23,-88.62"/>
</a>
</g>
</g>
<!-- Node3&#45;&gt;Node4 -->
<g id="edge4_Node000003_Node000004" class="edge">
<title>Node3&#45;&gt;Node4</title>
<g id="a_edge4_Node000003_Node000004"><a xlink:title=" ">
<path fill="none" stroke="#63b8ff" d="M1299.07,-71.39C1347.15,-77.3 1400.51,-83.86 1449.34,-89.86"/>
<polygon fill="#63b8ff" stroke="#63b8ff" points="1448.81,-93.32 1459.16,-91.06 1449.66,-86.37 1448.81,-93.32"/>
</a>
</g>
</g>
<!-- Node3&#45;&gt;Node6 -->
<g id="edge6_Node000003_Node000006" class="edge">
<title>Node3&#45;&gt;Node6</title>
<g id="a_edge6_Node000003_Node000006"><a xlink:title=" ">
<path fill="none" stroke="#63b8ff" d="M1341.19,-41.55C1372.96,-39.71 1405.73,-37.8 1437.02,-35.98"/>
<polygon fill="#63b8ff" stroke="#63b8ff" points="1437.18,-39.47 1446.96,-35.4 1436.77,-32.49 1437.18,-39.47"/>
</a>
</g>
</g>
<!-- Node5 -->
<g id="Node000005" class="node">
<title>Node5</title>
<g id="a_Node000005"><a xlink:href="classcom_1_1runehive_1_1game_1_1world_1_1entity_1_1mob_1_1player_1_1exchange_1_1_exchange_session.html#ac1d0de35c73a1a1bdd366b2599c0d905" target="_top" xlink:title="Executes the specified action for every player in this session.">
<ellipse fill="white" stroke="#666666" cx="2078.64" cy="-109.81" rx="214.96" ry="25.81"/>
<text xml:space="preserve" text-anchor="start" x="1934.64" y="-112.66" font-family="Helvetica,sans-Serif" font-size="12.00">com.runehive.game.world.entity.mob.player.exchange.</text>
<text xml:space="preserve" text-anchor="middle" x="2078.64" y="-98.41" font-family="Helvetica,sans-Serif" font-size="12.00">ExchangeSession.forEach</text>
</a>
</g>
</g>
<!-- Node4&#45;&gt;Node5 -->
<g id="edge5_Node000004_Node000005" class="edge">
<title>Node4&#45;&gt;Node5</title>
<g id="a_edge5_Node000004_Node000005"><a xlink:title=" ">
<path fill="none" stroke="#63b8ff" d="M1828.03,-109.81C1836.02,-109.81 1844.03,-109.81 1852.04,-109.81"/>
<polygon fill="#63b8ff" stroke="#63b8ff" points="1851.83,-113.31 1861.83,-109.81 1851.83,-106.31 1851.83,-113.31"/>
</a>
</g>
</g>
<!-- Node7 -->
<g id="Node000007" class="node">
<title>Node7</title>
<g id="a_Node000007"><a xlink:href="classcom_1_1runehive_1_1util_1_1_utility.html#a04d5eb201f824f0f367a9fb60f2f2814" target="_top" xlink:title=" ">
<ellipse fill="white" stroke="#666666" cx="2078.64" cy="-25.81" rx="146.55" ry="15.73"/>
<text xml:space="preserve" text-anchor="middle" x="2078.64" y="-21.53" font-family="Helvetica,sans-Serif" font-size="12.00">com.runehive.util.Utility.formatName</text>
</a>
</g>
</g>
<!-- Node6&#45;&gt;Node7 -->
<g id="edge7_Node000006_Node000007" class="edge">
<title>Node6&#45;&gt;Node7</title>
<g id="a_edge7_Node000006_Node000007"><a xlink:title=" ">
<path fill="none" stroke="#63b8ff" d="M1788.78,-25.81C1832.03,-25.81 1878.08,-25.81 1920.42,-25.81"/>
<polygon fill="#63b8ff" stroke="#63b8ff" points="1920.16,-29.31 1930.16,-25.81 1920.16,-22.31 1920.16,-29.31"/>
</a>
</g>
</g>
</g>
</svg>

<g id="navigator" transform="translate(0 0)" fill="#404254">
  <rect fill="#f2f5e9" fill-opacity="0.5" stroke="#606060" stroke-width=".5" x="0" y="0" width="60" height="60"/>
  <use id="zoomplus" xlink:href="#zoomPlus" x="17" y="9" onmousedown="handleZoom(evt,'in')"/>
  <use id="zoomminus" xlink:href="#zoomMin" x="42" y="9" onmousedown="handleZoom(evt,'out')"/>
  <use id="reset" xlink:href="#resetDef" x="30" y="36" onmousedown="handleReset()"/>
   <use id="arrowup" xlink:href="#arrowUp" x="0" y="0" onmousedown="handlePan(0,-1)"/>
  <use id="arrowright" xlink:href="#arrowRight" x="0" y="0" onmousedown="handlePan(1,0)"/>
  <use id="arrowdown" xlink:href="#arrowDown" x="0" y="0" onmousedown="handlePan(0,1)"/>
  <use id="arrowleft" xlink:href="#arrowLeft" x="0" y="0" onmousedown="handlePan(-1,0)"/>
</g>
<svg viewBox="0 0 15 15" width="100%" height="30px" preserveAspectRatio="xMaxYMin meet">
 <g id="arrow_out" transform="scale(0.3 0.3)">
  <a xlink:href="classcom_1_1runehive_1_1game_1_1world_1_1entity_1_1mob_1_1player_1_1exchange_1_1_exchange_session_a29dc9f5ce6f62ade61bd917d5eae25c0_cgraph_org.svg" target="_base">
   <rect id="button" ry="5" rx="5" y="6" x="6" height="38" width="38"
        fill="#f2f5e9" fill-opacity="0.5" stroke="#606060" stroke-width="1.0"/>
   <path id="arrow"
     d="M 11.500037,31.436501 C 11.940474,20.09759 22.043105,11.32322 32.158766,21.979434 L 37.068811,17.246167 C 37.068811,17.246167 37.088388,32 37.088388,32 L 22.160133,31.978069 C 22.160133,31.978069 26.997745,27.140456 26.997745,27.140456 C 18.528582,18.264221 13.291696,25.230495 11.500037,31.436501 z"
     style="fill:#404040;"/>
  </a>
 </g>
</svg>

<style type='text/css'>
<![CDATA[
[data-mouse-over-selected='false'] { opacity: 0.7; }
[data-mouse-over-selected='true']  { opacity: 1.0; }
]]>
</style>
<script type="application/ecmascript"><![CDATA[
document.addEventListener('DOMContentLoaded', (event) => {
  highlightEdges();
  highlightAdjacentNodes();
});
]]></script>
</svg>
