<?xml version="1.0" encoding="UTF-8" standalone="no"?>
<!DOCTYPE svg PUBLIC "-//W3C//DTD SVG 1.1//EN"
 "http://www.w3.org/Graphics/SVG/1.1/DTD/svg11.dtd">
<!-- Generated by graphviz version 14.0.1 (20251006.0113)
 -->
<!-- Title: com.runehive.game.world.entity.combat.hit.Hit Pages: 1 -->
<svg width="1256pt" height="146pt"
 viewBox="0.00 0.00 1256.00 146.00" xmlns="http://www.w3.org/2000/svg" xmlns:xlink="http://www.w3.org/1999/xlink">
<g id="graph0" class="graph" transform="scale(1 1) rotate(0) translate(4 142.46)">
<title>com.runehive.game.world.entity.combat.hit.Hit</title>
<!-- Node1 -->
<g id="Node000001" class="node">
<title>Node1</title>
<g id="a_Node000001"><a xlink:title="A Hit object holds the damage amount and hitsplat data.">
<ellipse fill="#999999" stroke="#666666" cx="1064.39" cy="-50.89" rx="183.67" ry="15.73"/>
<text xml:space="preserve" text-anchor="middle" x="1064.39" y="-46.61" font-family="Helvetica,sans-Serif" font-size="12.00">com.runehive.game.world.entity.combat.hit.Hit</text>
</a>
</g>
</g>
<!-- Node2 -->
<g id="Node000002" class="node">
<title>Node2</title>
<g id="a_Node000002"><a xlink:href="enumcom_1_1runehive_1_1game_1_1world_1_1entity_1_1combat_1_1hit_1_1_hitsplat.html" target="_top" xlink:title=" ">
<ellipse fill="white" stroke="#666666" cx="173.06" cy="-102.89" rx="173.06" ry="25.81"/>
<text xml:space="preserve" text-anchor="start" x="58.69" y="-105.74" font-family="Helvetica,sans-Serif" font-size="12.00">com.runehive.game.world.entity.combat.hit.</text>
<text xml:space="preserve" text-anchor="middle" x="173.06" y="-91.49" font-family="Helvetica,sans-Serif" font-size="12.00">Hitsplat</text>
</a>
</g>
</g>
<!-- Node2&#45;&gt;Node1 -->
<g id="edge1_Node000001_Node000002" class="edge">
<title>Node2&#45;&gt;Node1</title>
<g id="a_edge1_Node000001_Node000002"><a xlink:title=" ">
<path fill="none" stroke="#9a32cd" stroke-dasharray="5,2" d="M351.68,-110.17C374.54,-110.88 397.64,-111.48 419.63,-111.89 582.86,-114.88 624.67,-129.58 786.97,-111.89 865.5,-103.33 954.4,-81.46 1009.68,-66.38"/>
<polygon fill="#9a32cd" stroke="#9a32cd" points="352.1,-106.68 341.99,-109.86 351.87,-113.68 352.1,-106.68"/>
</a>
</g>
<text xml:space="preserve" text-anchor="start" x="587.55" y="-125.96" font-family="Helvetica,sans-Serif" font-size="10.00" fill="grey">hitsplat</text>
</g>
<!-- Node4 -->
<g id="Node000004" class="node">
<title>Node4</title>
<g id="a_Node000004"><a xlink:href="classcom_1_1runehive_1_1game_1_1world_1_1entity_1_1combat_1_1hit_1_1_hit.html" target="_top" xlink:title="A Hit object holds the damage amount and hitsplat data.">
<ellipse fill="white" stroke="#666666" cx="603.3" cy="-50.89" rx="183.67" ry="15.73"/>
<text xml:space="preserve" text-anchor="middle" x="603.3" y="-46.61" font-family="Helvetica,sans-Serif" font-size="12.00">com.runehive.game.world.entity.combat.hit.Hit</text>
</a>
</g>
</g>
<!-- Node2&#45;&gt;Node4 -->
<g id="edge4_Node000004_Node000002" class="edge">
<title>Node2&#45;&gt;Node4</title>
<g id="a_edge4_Node000004_Node000002"><a xlink:title=" ">
<path fill="none" stroke="#9a32cd" stroke-dasharray="5,2" d="M320.03,-85.16C377.29,-78.21 441.81,-70.37 494.7,-63.95"/>
<polygon fill="#9a32cd" stroke="#9a32cd" points="319.69,-81.68 310.18,-86.36 320.53,-88.63 319.69,-81.68"/>
</a>
</g>
<text xml:space="preserve" text-anchor="start" x="367.13" y="-83.95" font-family="Helvetica,sans-Serif" font-size="10.00" fill="grey">hitsplat</text>
</g>
<!-- Node3 -->
<g id="Node000003" class="node">
<title>Node3</title>
<g id="a_Node000003"><a xlink:href="enumcom_1_1runehive_1_1game_1_1world_1_1entity_1_1combat_1_1hit_1_1_hit_icon.html" target="_top" xlink:title="The enumerated type whose elements represent the hit icon of a Hit.">
<ellipse fill="white" stroke="#666666" cx="173.06" cy="-30.89" rx="173.06" ry="25.81"/>
<text xml:space="preserve" text-anchor="start" x="58.69" y="-33.74" font-family="Helvetica,sans-Serif" font-size="12.00">com.runehive.game.world.entity.combat.hit.</text>
<text xml:space="preserve" text-anchor="middle" x="173.06" y="-19.49" font-family="Helvetica,sans-Serif" font-size="12.00">HitIcon</text>
</a>
</g>
</g>
<!-- Node3&#45;&gt;Node1 -->
<g id="edge2_Node000001_Node000003" class="edge">
<title>Node3&#45;&gt;Node1</title>
<g id="a_edge2_Node000001_Node000003"><a xlink:title=" ">
<path fill="none" stroke="#9a32cd" stroke-dasharray="5,2" d="M325.24,-14.49C356.42,-11.74 389.06,-9.32 419.63,-7.89 582.71,-0.27 624.19,4.7 786.97,-7.89 855.85,-13.21 933.53,-25.9 988.96,-36.12"/>
<polygon fill="#9a32cd" stroke="#9a32cd" points="324.98,-11 315.34,-15.38 325.61,-17.97 324.98,-11"/>
</a>
</g>
<text xml:space="preserve" text-anchor="start" x="588.67" y="-13.39" font-family="Helvetica,sans-Serif" font-size="10.00" fill="grey">hitIcon</text>
</g>
<!-- Node3&#45;&gt;Node4 -->
<g id="edge5_Node000004_Node000003" class="edge">
<title>Node3&#45;&gt;Node4</title>
<g id="a_edge5_Node000004_Node000003"><a xlink:title=" ">
<path fill="none" stroke="#9a32cd" stroke-dasharray="5,2" d="M350.41,-39.12C380.27,-40.52 411.14,-41.96 440.61,-43.34"/>
<polygon fill="#9a32cd" stroke="#9a32cd" points="350.68,-35.63 340.53,-38.66 350.36,-42.62 350.68,-35.63"/>
</a>
</g>
<text xml:space="preserve" text-anchor="start" x="368.25" y="-46.99" font-family="Helvetica,sans-Serif" font-size="10.00" fill="grey">hitIcon</text>
</g>
<!-- Node4&#45;&gt;Node1 -->
<g id="edge3_Node000001_Node000004" class="edge">
<title>Node4&#45;&gt;Node1</title>
<g id="a_edge3_Node000001_Node000004"><a xlink:title=" ">
<path fill="none" stroke="#9a32cd" stroke-dasharray="5,2" d="M798.56,-50.89C825.68,-50.89 853.48,-50.89 880.38,-50.89"/>
<polygon fill="#9a32cd" stroke="#9a32cd" points="798.91,-47.39 788.91,-50.89 798.91,-54.39 798.91,-47.39"/>
</a>
</g>
<text xml:space="preserve" text-anchor="start" x="807.97" y="-56.39" font-family="Helvetica,sans-Serif" font-size="10.00" fill="grey">multipleHits</text>
</g>
<!-- Node4&#45;&gt;Node4 -->
<g id="edge6_Node000004_Node000004" class="edge">
<title>Node4&#45;&gt;Node4</title>
<g id="a_edge6_Node000004_Node000004"><a xlink:title=" ">
<path fill="none" stroke="#9a32cd" stroke-dasharray="5,2" d="M565.86,-77.92C571.71,-81.92 584.2,-84.62 603.3,-84.62 637.74,-84.62 650.66,-75.84 642.05,-66.5"/>
<polygon fill="#9a32cd" stroke="#9a32cd" points="569.34,-77.54 564.73,-68.01 562.38,-78.34 569.34,-77.54"/>
</a>
</g>
<text xml:space="preserve" text-anchor="start" x="577.42" y="-90.12" font-family="Helvetica,sans-Serif" font-size="10.00" fill="grey">multipleHits</text>
</g>
</g>
</svg>
