<?xml version="1.0" encoding="UTF-8" standalone="no"?>
<!DOCTYPE svg PUBLIC "-//W3C//DTD SVG 1.1//EN"
 "http://www.w3.org/Graphics/SVG/1.1/DTD/svg11.dtd">
<!-- Generated by graphviz version 14.0.1 (20251006.0113)
 -->
<!-- Title: com.runehive.content.skill.impl.mining.Mining.success Pages: 1 -->
<svg width="1424pt" height="286pt"
 viewBox="0.00 0.00 1424.00 286.00" xmlns="http://www.w3.org/2000/svg" xmlns:xlink="http://www.w3.org/1999/xlink">
<g id="graph0" class="graph" transform="scale(1 1) rotate(0) translate(4 281.62)">
<title>com.runehive.content.skill.impl.mining.Mining.success</title>
<!-- Node1 -->
<g id="Node000001" class="node">
<title>Node1</title>
<g id="a_Node000001"><a xlink:title=" ">
<ellipse fill="#999999" stroke="#666666" cx="156.62" cy="-124.81" rx="156.62" ry="25.81"/>
<text xml:space="preserve" text-anchor="start" x="53.87" y="-127.66" font-family="Helvetica,sans-Serif" font-size="12.00">com.runehive.content.skill.impl.mining.</text>
<text xml:space="preserve" text-anchor="middle" x="156.62" y="-113.41" font-family="Helvetica,sans-Serif" font-size="12.00">Mining.success</text>
</a>
</g>
</g>
<!-- Node2 -->
<g id="Node000002" class="node">
<title>Node2</title>
<g id="a_Node000002"><a xlink:href="classcom_1_1runehive_1_1game_1_1world_1_1items_1_1containers_1_1_item_container.html#ab45e9f23a35f49a620b43fa8508efa55" target="_top" xlink:title="Determines if this container contains any identifiers.">
<ellipse fill="white" stroke="#666666" cx="523.37" cy="-251.81" rx="174.13" ry="25.81"/>
<text xml:space="preserve" text-anchor="start" x="408.25" y="-254.66" font-family="Helvetica,sans-Serif" font-size="12.00">com.runehive.game.world.items.containers.</text>
<text xml:space="preserve" text-anchor="middle" x="523.37" y="-240.41" font-family="Helvetica,sans-Serif" font-size="12.00">ItemContainer.containsAny</text>
</a>
</g>
</g>
<!-- Node1&#45;&gt;Node2 -->
<g id="edge1_Node000001_Node000002" class="edge">
<title>Node1&#45;&gt;Node2</title>
<g id="a_edge1_Node000001_Node000002"><a xlink:title=" ">
<path fill="none" stroke="#63b8ff" d="M201.6,-149.81C239.62,-170.46 296.59,-199.15 349.25,-216.81 363.89,-221.72 379.48,-226.05 395.07,-229.85"/>
<polygon fill="#63b8ff" stroke="#63b8ff" points="393.84,-233.15 404.38,-232.04 395.44,-226.34 393.84,-233.15"/>
</a>
</g>
</g>
<!-- Node4 -->
<g id="Node000004" class="node">
<title>Node4</title>
<g id="a_Node000004"><a xlink:href="classcom_1_1runehive_1_1game_1_1world_1_1entity_1_1skill_1_1_skill_manager.html#a5ff60aaa9a37a00040b2c69073326d1e" target="_top" xlink:title="Gets the highest possible level of a skill.">
<ellipse fill="white" stroke="#666666" cx="523.37" cy="-163.81" rx="149.2" ry="25.81"/>
<text xml:space="preserve" text-anchor="start" x="425.87" y="-166.66" font-family="Helvetica,sans-Serif" font-size="12.00">com.runehive.game.world.entity.skill.</text>
<text xml:space="preserve" text-anchor="middle" x="523.37" y="-152.41" font-family="Helvetica,sans-Serif" font-size="12.00">SkillManager.getMaxLevel</text>
</a>
</g>
</g>
<!-- Node1&#45;&gt;Node4 -->
<g id="edge3_Node000001_Node000004" class="edge">
<title>Node1&#45;&gt;Node4</title>
<g id="a_edge3_Node000001_Node000004"><a xlink:title=" ">
<path fill="none" stroke="#63b8ff" d="M289.31,-138.89C320.11,-142.18 353.01,-145.7 384.1,-149.02"/>
<polygon fill="#63b8ff" stroke="#63b8ff" points="383.64,-152.5 393.95,-150.08 384.38,-145.53 383.64,-152.5"/>
</a>
</g>
</g>
<!-- Node5 -->
<g id="Node000005" class="node">
<title>Node5</title>
<g id="a_Node000005"><a xlink:href="classcom_1_1runehive_1_1util_1_1_utility.html#a0961417523881e9a3bef6e9da541942a" target="_top" xlink:title=" ">
<ellipse fill="white" stroke="#666666" cx="523.37" cy="-85.81" rx="129.05" ry="15.73"/>
<text xml:space="preserve" text-anchor="middle" x="523.37" y="-81.53" font-family="Helvetica,sans-Serif" font-size="12.00">com.runehive.util.Utility.random</text>
</a>
</g>
</g>
<!-- Node1&#45;&gt;Node5 -->
<g id="edge5_Node000001_Node000005" class="edge">
<title>Node1&#45;&gt;Node5</title>
<g id="a_edge5_Node000001_Node000005"><a xlink:title=" ">
<path fill="none" stroke="#63b8ff" d="M289.31,-110.73C329.98,-106.38 374.31,-101.64 413.28,-97.47"/>
<polygon fill="#63b8ff" stroke="#63b8ff" points="413.58,-100.96 423.15,-96.42 412.84,-94 413.58,-100.96"/>
</a>
</g>
</g>
<!-- Node6 -->
<g id="Node000006" class="node">
<title>Node6</title>
<g id="a_Node000006"><a xlink:href="classcom_1_1runehive_1_1game_1_1world_1_1entity_1_1skill_1_1_skill.html#af7d5922b9dc2d188abf081584f1d7ef0" target="_top" xlink:title="Constructs a new Skill.">
<ellipse fill="white" stroke="#666666" cx="523.37" cy="-25.81" rx="149.2" ry="25.81"/>
<text xml:space="preserve" text-anchor="start" x="425.87" y="-28.66" font-family="Helvetica,sans-Serif" font-size="12.00">com.runehive.game.world.entity.skill.</text>
<text xml:space="preserve" text-anchor="middle" x="523.37" y="-14.41" font-family="Helvetica,sans-Serif" font-size="12.00">Skill.Skill</text>
</a>
</g>
</g>
<!-- Node1&#45;&gt;Node6 -->
<g id="edge7_Node000001_Node000006" class="edge">
<title>Node1&#45;&gt;Node6</title>
<g id="a_edge7_Node000001_Node000006"><a xlink:title=" ">
<path fill="none" stroke="#63b8ff" d="M222.21,-101.03C259.09,-88.02 306.38,-72.25 349.25,-60.81 368.03,-55.79 388.13,-51.12 407.75,-46.92"/>
<polygon fill="#63b8ff" stroke="#63b8ff" points="408.36,-50.36 417.42,-44.88 406.91,-43.51 408.36,-50.36"/>
</a>
</g>
</g>
<!-- Node3 -->
<g id="Node000003" class="node">
<title>Node3</title>
<g id="a_Node000003"><a xlink:href="classcom_1_1runehive_1_1game_1_1world_1_1items_1_1containers_1_1_item_container.html#a8acf6f1c920076daea6c80e5afbe3404" target="_top" xlink:title="Determines if this container contains id.">
<ellipse fill="white" stroke="#666666" cx="907.62" cy="-251.81" rx="174.13" ry="25.81"/>
<text xml:space="preserve" text-anchor="start" x="792.5" y="-254.66" font-family="Helvetica,sans-Serif" font-size="12.00">com.runehive.game.world.items.containers.</text>
<text xml:space="preserve" text-anchor="middle" x="907.62" y="-240.41" font-family="Helvetica,sans-Serif" font-size="12.00">ItemContainer.contains</text>
</a>
</g>
</g>
<!-- Node2&#45;&gt;Node3 -->
<g id="edge2_Node000002_Node000003" class="edge">
<title>Node2&#45;&gt;Node3</title>
<g id="a_edge2_Node000002_Node000003"><a xlink:title=" ">
<path fill="none" stroke="#63b8ff" d="M697.88,-251.81C705.86,-251.81 713.89,-251.81 721.9,-251.81"/>
<polygon fill="#63b8ff" stroke="#63b8ff" points="721.69,-255.31 731.69,-251.81 721.69,-248.31 721.69,-255.31"/>
</a>
</g>
</g>
<!-- Node4&#45;&gt;Node4 -->
<g id="edge4_Node000004_Node000004" class="edge">
<title>Node4&#45;&gt;Node4</title>
<g id="a_edge4_Node000004_Node000004"><a xlink:title=" ">
<path fill="none" stroke="#63b8ff" d="M455.97,-187.25C448.61,-198.12 471.08,-207.62 523.37,-207.62 556.87,-207.62 578.13,-203.72 587.15,-198.06"/>
<polygon fill="#63b8ff" stroke="#63b8ff" points="590.44,-199.28 590.3,-188.68 583.8,-197.05 590.44,-199.28"/>
</a>
</g>
</g>
<!-- Node5&#45;&gt;Node5 -->
<g id="edge6_Node000005_Node000005" class="edge">
<title>Node5&#45;&gt;Node5</title>
<g id="a_edge6_Node000005_Node000005"><a xlink:title=" ">
<path fill="none" stroke="#63b8ff" d="M461.32,-100.02C442.52,-109.86 463.2,-119.54 523.37,-119.54 560.51,-119.54 582.6,-115.85 589.66,-110.72"/>
<polygon fill="#63b8ff" stroke="#63b8ff" points="592.92,-109.44 585.98,-101.43 586.41,-112.01 592.92,-109.44"/>
</a>
</g>
</g>
<!-- Node7 -->
<g id="Node000007" class="node">
<title>Node7</title>
<g id="a_Node000007"><a xlink:href="classcom_1_1runehive_1_1game_1_1world_1_1entity_1_1skill_1_1_skill.html#a36501346a8b435a10918cd89a7677cc0" target="_top" xlink:title="Gets the level for a given experience amount.">
<ellipse fill="white" stroke="#666666" cx="907.62" cy="-25.81" rx="149.2" ry="25.81"/>
<text xml:space="preserve" text-anchor="start" x="810.12" y="-28.66" font-family="Helvetica,sans-Serif" font-size="12.00">com.runehive.game.world.entity.skill.</text>
<text xml:space="preserve" text-anchor="middle" x="907.62" y="-14.41" font-family="Helvetica,sans-Serif" font-size="12.00">Skill.getLevelForExperience</text>
</a>
</g>
</g>
<!-- Node6&#45;&gt;Node7 -->
<g id="edge8_Node000006_Node000007" class="edge">
<title>Node6&#45;&gt;Node7</title>
<g id="a_edge8_Node000006_Node000007"><a xlink:title=" ">
<path fill="none" stroke="#63b8ff" d="M672.98,-25.81C697.06,-25.81 722.09,-25.81 746.44,-25.81"/>
<polygon fill="#63b8ff" stroke="#63b8ff" points="746.43,-29.31 756.43,-25.81 746.43,-22.31 746.43,-29.31"/>
</a>
</g>
</g>
<!-- Node8 -->
<g id="Node000008" class="node">
<title>Node8</title>
<g id="a_Node000008"><a xlink:href="classcom_1_1runehive_1_1game_1_1world_1_1entity_1_1skill_1_1_skill.html#a8ccd3bb8873995593a36bebea52b5b9a" target="_top" xlink:title="Performs a binary search to quickly search for the level at the given experience.">
<ellipse fill="white" stroke="#666666" cx="1266.95" cy="-25.81" rx="149.2" ry="25.81"/>
<text xml:space="preserve" text-anchor="start" x="1169.45" y="-28.66" font-family="Helvetica,sans-Serif" font-size="12.00">com.runehive.game.world.entity.skill.</text>
<text xml:space="preserve" text-anchor="middle" x="1266.95" y="-14.41" font-family="Helvetica,sans-Serif" font-size="12.00">Skill.binarySearch</text>
</a>
</g>
</g>
<!-- Node7&#45;&gt;Node8 -->
<g id="edge9_Node000007_Node000008" class="edge">
<title>Node7&#45;&gt;Node8</title>
<g id="a_edge9_Node000007_Node000008"><a xlink:title=" ">
<path fill="none" stroke="#63b8ff" d="M1057.32,-25.81C1073.43,-25.81 1089.88,-25.81 1106.12,-25.81"/>
<polygon fill="#63b8ff" stroke="#63b8ff" points="1105.81,-29.31 1115.81,-25.81 1105.81,-22.31 1105.81,-29.31"/>
</a>
</g>
</g>
<!-- Node8&#45;&gt;Node8 -->
<g id="edge10_Node000008_Node000008" class="edge">
<title>Node8&#45;&gt;Node8</title>
<g id="a_edge10_Node000008_Node000008"><a xlink:title=" ">
<path fill="none" stroke="#63b8ff" d="M1200.91,-49.25C1193.7,-60.12 1215.72,-69.62 1266.95,-69.62 1299.77,-69.62 1320.6,-65.72 1329.44,-60.06"/>
<polygon fill="#63b8ff" stroke="#63b8ff" points="1332.72,-61.28 1332.52,-50.68 1326.07,-59.09 1332.72,-61.28"/>
</a>
</g>
</g>
</g>
</svg>
