<?xml version="1.0" encoding="UTF-8" standalone="no"?>
<!DOCTYPE svg PUBLIC "-//W3C//DTD SVG 1.1//EN"
 "http://www.w3.org/Graphics/SVG/1.1/DTD/svg11.dtd">
<!-- Generated by graphviz version 14.0.1 (20251006.0113)
 -->
<!-- Title: com.runehive.content.activity.Activity.forActivity Pages: 1 -->
<!--zoomable 472 -->

<svg id="main" version="1.1" xmlns="http://www.w3.org/2000/svg" xmlns:xlink="http://www.w3.org/1999/xlink" xml:space="preserve" onload="init(evt)">

<style type="text/css"><![CDATA[
.node, .edge {opacity: 0.7;}
.node.selected, .edge.selected {opacity: 1;}
.edge:hover path { stroke: red; }
.edge:hover polygon { stroke: red; fill: red; }
]]></style>

<defs>
  <circle id="rim" cx="0" cy="0" r="7"/>
  <circle id="rim2" cx="0" cy="0" r="3.5"/>
  <g id="zoomPlus">
    <use xlink:href="#rim" fill="#404040"><set attributeName="fill" to="#808080" begin="zoomplus.mouseover" end="zoomplus.mouseout"/></use>
    <path d="M-4,0h8M0,-4v8" fill="none" stroke="white" stroke-width="1.5" pointer-events="none"/>
  </g>
  <g id="zoomMin">
    <use xlink:href="#rim" fill="#404040"><set attributeName="fill" to="#808080" begin="zoomminus.mouseover" end="zoomminus.mouseout"/></use>
    <path d="M-4,0h8" fill="none" stroke="white" stroke-width="1.5" pointer-events="none"/>
  </g>
  <g id="arrowUp" transform="translate(30 24)">
    <use xlink:href="#rim"/>
    <path pointer-events="none" fill="none" stroke="white" stroke-width="1.5" d="M0,-3.0v7 M-2.5,-0.5L0,-3.0L2.5,-0.5"/>
  </g>
  <g id="arrowRight" transform="rotate(90) translate(36 -43)">
    <use xlink:href="#rim"/>
    <path pointer-events="none" fill="none" stroke="white" stroke-width="1.5" d="M0,-3.0v7 M-2.5,-0.5L0,-3.0L2.5,-0.5"/>
  </g>
  <g id="arrowDown" transform="rotate(180) translate(-30 -48)">
    <use xlink:href="#rim"/>
    <path pointer-events="none" fill="none" stroke="white" stroke-width="1.5" d="M0,-3.0v7 M-2.5,-0.5L0,-3.0L2.5,-0.5"/>
  </g>
  <g id="arrowLeft" transform="rotate(270) translate(-36 17)">
    <use xlink:href="#rim"/>
    <path pointer-events="none" fill="none" stroke="white" stroke-width="1.5" d="M0,-3.0v7 M-2.5,-0.5L0,-3.0L2.5,-0.5"/>
  </g>
  <g id="resetDef">
    <use xlink:href="#rim2" fill="#404040"><set attributeName="fill" to="#808080" begin="reset.mouseover" end="reset.mouseout"/></use>
  </g>
</defs>
<script type="application/ecmascript">
var viewWidth = 1794;
var viewHeight = 472;
var sectionId = 'dynsection-13';
</script>
<script type="application/ecmascript" xlink:href="svg.min.js"/>
<svg id="graph" class="graph">
<g id="viewport">
<title>com.runehive.content.activity.Activity.forActivity</title>
<!-- Node1 -->
<g id="Node000001" class="node">
<title>Node1</title>
<g id="a_Node000001"><a xlink:title=" ">
<ellipse fill="#999999" stroke="#666666" cx="1663.93" cy="-165.81" rx="121.62" ry="25.81"/>
<text xml:space="preserve" text-anchor="start" x="1585.93" y="-168.66" font-family="Helvetica,sans-Serif" font-size="12.00">com.runehive.content.activity.</text>
<text xml:space="preserve" text-anchor="middle" x="1663.93" y="-154.41" font-family="Helvetica,sans-Serif" font-size="12.00">Activity.forActivity</text>
</a>
</g>
</g>
<!-- Node2 -->
<g id="Node000002" class="node">
<title>Node2</title>
<g id="a_Node000002"><a xlink:href="classcom_1_1runehive_1_1game_1_1world_1_1entity_1_1mob_1_1npc_1_1_npc.html#a4ce51cc4d17afeedf988537d0cc10bba" target="_top" xlink:title="Handles the mob death.">
<ellipse fill="white" stroke="#666666" cx="1330.59" cy="-323.81" rx="166.7" ry="25.81"/>
<text xml:space="preserve" text-anchor="start" x="1220.71" y="-326.66" font-family="Helvetica,sans-Serif" font-size="12.00">com.runehive.game.world.entity.mob.npc.</text>
<text xml:space="preserve" text-anchor="middle" x="1330.59" y="-312.41" font-family="Helvetica,sans-Serif" font-size="12.00">Npc.appendDeath</text>
</a>
</g>
</g>
<!-- Node1&#45;&gt;Node2 -->
<g id="edge1_Node000001_Node000002" class="edge">
<title>Node1&#45;&gt;Node2</title>
<g id="a_edge1_Node000001_Node000002"><a xlink:title=" ">
<path fill="none" stroke="#63b8ff" d="M1630.39,-198.97C1600.7,-227.25 1554.24,-266.73 1506.3,-288.81 1490.43,-296.12 1473.05,-301.91 1455.61,-306.5"/>
<polygon fill="#63b8ff" stroke="#63b8ff" points="1632.47,-201.83 1637.22,-192.36 1627.6,-196.8 1632.47,-201.83"/>
</a>
</g>
</g>
<!-- Node9 -->
<g id="Node000009" class="node">
<title>Node9</title>
<g id="a_Node000009"><a xlink:href="classcom_1_1runehive_1_1game_1_1world_1_1entity_1_1mob_1_1player_1_1_player.html#a287dc74fae0270ac1ef7b8c4e118d142" target="_top" xlink:title=" ">
<ellipse fill="white" stroke="#666666" cx="1330.59" cy="-253.81" rx="175.72" ry="25.81"/>
<text xml:space="preserve" text-anchor="start" x="1214.34" y="-256.66" font-family="Helvetica,sans-Serif" font-size="12.00">com.runehive.game.world.entity.mob.player.</text>
<text xml:space="preserve" text-anchor="middle" x="1330.59" y="-242.41" font-family="Helvetica,sans-Serif" font-size="12.00">Player.loadRegion</text>
</a>
</g>
</g>
<!-- Node1&#45;&gt;Node9 -->
<g id="edge10_Node000001_Node000009" class="edge">
<title>Node1&#45;&gt;Node9</title>
<g id="a_edge10_Node000001_Node000009"><a xlink:title=" ">
<path fill="none" stroke="#63b8ff" d="M1591.4,-192.17C1564.9,-201.37 1534.45,-211.26 1506.3,-218.81 1486.13,-224.22 1464.46,-229.21 1443.46,-233.62"/>
<polygon fill="#63b8ff" stroke="#63b8ff" points="1592.41,-195.53 1600.69,-188.92 1590.09,-188.92 1592.41,-195.53"/>
</a>
</g>
</g>
<!-- Node10 -->
<g id="Node000010" class="node">
<title>Node10</title>
<g id="a_Node000010"><a xlink:href="classcom_1_1runehive_1_1game_1_1world_1_1entity_1_1mob_1_1player_1_1_player_death.html#a74447daa1d6fbc229699e4b383cdd8e0" target="_top" xlink:title="The last part of the death process where the character is reset.">
<ellipse fill="white" stroke="#666666" cx="1330.59" cy="-165.81" rx="175.72" ry="25.81"/>
<text xml:space="preserve" text-anchor="start" x="1214.34" y="-168.66" font-family="Helvetica,sans-Serif" font-size="12.00">com.runehive.game.world.entity.mob.player.</text>
<text xml:space="preserve" text-anchor="middle" x="1330.59" y="-154.41" font-family="Helvetica,sans-Serif" font-size="12.00">PlayerDeath.postDeath</text>
</a>
</g>
</g>
<!-- Node1&#45;&gt;Node10 -->
<g id="edge11_Node000001_Node000010" class="edge">
<title>Node1&#45;&gt;Node10</title>
<g id="a_edge11_Node000001_Node000010"><a xlink:title=" ">
<path fill="none" stroke="#63b8ff" d="M1530.43,-165.81C1522.55,-165.81 1514.56,-165.81 1506.55,-165.81"/>
<polygon fill="#63b8ff" stroke="#63b8ff" points="1530.39,-169.31 1540.39,-165.81 1530.39,-162.31 1530.39,-169.31"/>
</a>
</g>
</g>
<!-- Node11 -->
<g id="Node000011" class="node">
<title>Node11</title>
<g id="a_Node000011"><a xlink:href="classcom_1_1runehive_1_1game_1_1world_1_1entity_1_1mob_1_1player_1_1_player_assistant.html#aa2a8d1d161c8fa16ccca973178cb87d8" target="_top" xlink:title="Handles the method that will occur on sequence.">
<ellipse fill="white" stroke="#666666" cx="1330.59" cy="-95.81" rx="175.72" ry="25.81"/>
<text xml:space="preserve" text-anchor="start" x="1214.34" y="-98.66" font-family="Helvetica,sans-Serif" font-size="12.00">com.runehive.game.world.entity.mob.player.</text>
<text xml:space="preserve" text-anchor="middle" x="1330.59" y="-84.41" font-family="Helvetica,sans-Serif" font-size="12.00">PlayerAssistant.sequence</text>
</a>
</g>
</g>
<!-- Node1&#45;&gt;Node11 -->
<g id="edge13_Node000001_Node000011" class="edge">
<title>Node1&#45;&gt;Node11</title>
<g id="a_edge13_Node000001_Node000011"><a xlink:title=" ">
<path fill="none" stroke="#63b8ff" d="M1568.72,-144.4C1548.17,-139.83 1526.52,-135.09 1506.3,-130.81 1484.06,-126.1 1460.19,-121.2 1437.45,-116.63"/>
<polygon fill="#63b8ff" stroke="#63b8ff" points="1567.69,-147.76 1578.21,-146.52 1569.21,-140.93 1567.69,-147.76"/>
</a>
</g>
</g>
<!-- Node12 -->
<g id="Node000012" class="node">
<title>Node12</title>
<g id="a_Node000012"><a xlink:href="classcom_1_1runehive_1_1game_1_1world_1_1entity_1_1mob_1_1player_1_1_player.html#a2f63e67e6e58a4919fd1140aff2d91a6" target="_top" xlink:title="Unregisters an entity from the World.">
<ellipse fill="white" stroke="#666666" cx="1330.59" cy="-25.81" rx="175.72" ry="25.81"/>
<text xml:space="preserve" text-anchor="start" x="1214.34" y="-28.66" font-family="Helvetica,sans-Serif" font-size="12.00">com.runehive.game.world.entity.mob.player.</text>
<text xml:space="preserve" text-anchor="middle" x="1330.59" y="-14.41" font-family="Helvetica,sans-Serif" font-size="12.00">Player.unregister</text>
</a>
</g>
</g>
<!-- Node1&#45;&gt;Node12 -->
<g id="edge14_Node000001_Node000012" class="edge">
<title>Node1&#45;&gt;Node12</title>
<g id="a_edge14_Node000001_Node000012"><a xlink:title=" ">
<path fill="none" stroke="#63b8ff" d="M1623.99,-133.32C1593.72,-109.72 1549.72,-78.87 1506.3,-60.81 1490.31,-54.16 1472.95,-48.74 1455.59,-44.34"/>
<polygon fill="#63b8ff" stroke="#63b8ff" points="1621.72,-135.99 1631.74,-139.45 1626.07,-130.5 1621.72,-135.99"/>
</a>
</g>
</g>
<!-- Node3 -->
<g id="Node000003" class="node">
<title>Node3</title>
<g id="a_Node000003"><a xlink:href="classcom_1_1runehive_1_1content_1_1skill_1_1impl_1_1hunter_1_1trap_1_1_trap_manager.html#aecbd8120f7e4659e820edc8f678ef581" target="_top" xlink:title=" ">
<ellipse fill="white" stroke="#666666" cx="889.59" cy="-437.81" rx="170.94" ry="25.81"/>
<text xml:space="preserve" text-anchor="start" x="776.72" y="-440.66" font-family="Helvetica,sans-Serif" font-size="12.00">com.runehive.content.skill.impl.hunter.trap.</text>
<text xml:space="preserve" text-anchor="middle" x="889.59" y="-426.41" font-family="Helvetica,sans-Serif" font-size="12.00">TrapManager.catchNPC</text>
</a>
</g>
</g>
<!-- Node2&#45;&gt;Node3 -->
<g id="edge2_Node000002_Node000003" class="edge">
<title>Node2&#45;&gt;Node3</title>
<g id="a_edge2_Node000002_Node000003"><a xlink:title=" ">
<path fill="none" stroke="#63b8ff" d="M1262.74,-352.92C1221.87,-369.7 1168.15,-389.94 1118.87,-402.81 1089,-410.61 1056.45,-416.88 1025.53,-421.84"/>
<polygon fill="#63b8ff" stroke="#63b8ff" points="1264.08,-356.16 1271.98,-349.1 1261.4,-349.69 1264.08,-356.16"/>
</a>
</g>
</g>
<!-- Node6 -->
<g id="Node000006" class="node">
<title>Node6</title>
<g id="a_Node000006"><a xlink:href="classcom_1_1runehive_1_1game_1_1world_1_1entity_1_1combat_1_1strategy_1_1npc_1_1boss_1_1_vetion.html#a9e975ae3fff5b6203abea94b8b7361cb" target="_top" xlink:title=" ">
<ellipse fill="white" stroke="#666666" cx="889.59" cy="-367.81" rx="229.28" ry="25.81"/>
<text xml:space="preserve" text-anchor="start" x="735.47" y="-370.66" font-family="Helvetica,sans-Serif" font-size="12.00">com.runehive.game.world.entity.combat.strategy.npc.boss.</text>
<text xml:space="preserve" text-anchor="middle" x="889.59" y="-356.41" font-family="Helvetica,sans-Serif" font-size="12.00">Vetion.finishIncoming</text>
</a>
</g>
</g>
<!-- Node2&#45;&gt;Node6 -->
<g id="edge5_Node000002_Node000006" class="edge">
<title>Node2&#45;&gt;Node6</title>
<g id="a_edge5_Node000002_Node000006"><a xlink:title=" ">
<path fill="none" stroke="#63b8ff" d="M1178.05,-339C1140.9,-342.72 1100.88,-346.73 1062.84,-350.55"/>
<polygon fill="#63b8ff" stroke="#63b8ff" points="1178.37,-342.48 1187.97,-338 1177.67,-335.52 1178.37,-342.48"/>
</a>
</g>
</g>
<!-- Node7 -->
<g id="Node000007" class="node">
<title>Node7</title>
<g id="a_Node000007"><a xlink:href="classcom_1_1runehive_1_1game_1_1world_1_1entity_1_1combat_1_1strategy_1_1npc_1_1boss_1_1_mutant_tarn_1_1_frozen_special.html#a939e19462b758f263cdaa8e779bf3457" target="_top" xlink:title=" ">
<ellipse fill="white" stroke="#666666" cx="889.59" cy="-279.81" rx="229.28" ry="25.81"/>
<text xml:space="preserve" text-anchor="start" x="735.47" y="-282.66" font-family="Helvetica,sans-Serif" font-size="12.00">com.runehive.game.world.entity.combat.strategy.npc.boss.</text>
<text xml:space="preserve" text-anchor="middle" x="889.59" y="-268.41" font-family="Helvetica,sans-Serif" font-size="12.00">MutantTarn.FrozenSpecial.hit</text>
</a>
</g>
</g>
<!-- Node2&#45;&gt;Node7 -->
<g id="edge6_Node000002_Node000007" class="edge">
<title>Node2&#45;&gt;Node7</title>
<g id="a_edge6_Node000002_Node000007"><a xlink:title=" ">
<path fill="none" stroke="#63b8ff" d="M1178.05,-308.62C1140.9,-304.9 1100.88,-300.89 1062.84,-297.07"/>
<polygon fill="#63b8ff" stroke="#63b8ff" points="1177.67,-312.1 1187.97,-309.62 1178.37,-305.14 1177.67,-312.1"/>
</a>
</g>
</g>
<!-- Node8 -->
<g id="Node000008" class="node">
<title>Node8</title>
<g id="a_Node000008"><a xlink:href="classcom_1_1runehive_1_1game_1_1world_1_1entity_1_1combat_1_1strategy_1_1npc_1_1boss_1_1_vorkath_1_1_frozen_special.html#ad96277352cf2038147c6fba2449cd8e5" target="_top" xlink:title=" ">
<ellipse fill="white" stroke="#666666" cx="889.59" cy="-191.81" rx="229.28" ry="25.81"/>
<text xml:space="preserve" text-anchor="start" x="735.47" y="-194.66" font-family="Helvetica,sans-Serif" font-size="12.00">com.runehive.game.world.entity.combat.strategy.npc.boss.</text>
<text xml:space="preserve" text-anchor="middle" x="889.59" y="-180.41" font-family="Helvetica,sans-Serif" font-size="12.00">Vorkath.FrozenSpecial.hit</text>
</a>
</g>
</g>
<!-- Node2&#45;&gt;Node8 -->
<g id="edge8_Node000002_Node000008" class="edge">
<title>Node2&#45;&gt;Node8</title>
<g id="a_edge8_Node000002_Node000008"><a xlink:title=" ">
<path fill="none" stroke="#63b8ff" d="M1187.79,-304.29C1176.26,-300.07 1165.12,-294.97 1154.87,-288.81 1133.22,-275.79 1140.32,-258.16 1118.87,-244.81 1095.12,-230.03 1067.66,-219.37 1040.2,-211.68"/>
<polygon fill="#63b8ff" stroke="#63b8ff" points="1186.44,-307.53 1197.03,-307.43 1188.69,-300.9 1186.44,-307.53"/>
</a>
</g>
</g>
<!-- Node4 -->
<g id="Node000004" class="node">
<title>Node4</title>
<g id="a_Node000004"><a xlink:href="classcom_1_1runehive_1_1content_1_1skill_1_1impl_1_1hunter_1_1trap_1_1_trap_execution.html#afe397cf636ddfeb46fcc0f2d0449e5ea" target="_top" xlink:title=" ">
<ellipse fill="white" stroke="#666666" cx="453.37" cy="-437.81" rx="170.94" ry="25.81"/>
<text xml:space="preserve" text-anchor="start" x="340.49" y="-440.66" font-family="Helvetica,sans-Serif" font-size="12.00">com.runehive.content.skill.impl.hunter.trap.</text>
<text xml:space="preserve" text-anchor="middle" x="453.37" y="-426.41" font-family="Helvetica,sans-Serif" font-size="12.00">TrapExecution.setTrapProcess</text>
</a>
</g>
</g>
<!-- Node3&#45;&gt;Node4 -->
<g id="edge3_Node000003_Node000004" class="edge">
<title>Node3&#45;&gt;Node4</title>
<g id="a_edge3_Node000003_Node000004"><a xlink:title=" ">
<path fill="none" stroke="#63b8ff" d="M706.99,-437.81C679.7,-437.81 651.64,-437.81 624.6,-437.81"/>
<polygon fill="#63b8ff" stroke="#63b8ff" points="706.71,-441.31 716.71,-437.81 706.71,-434.31 706.71,-441.31"/>
</a>
</g>
</g>
<!-- Node5 -->
<g id="Node000005" class="node">
<title>Node5</title>
<g id="a_Node000005"><a xlink:href="classcom_1_1runehive_1_1game_1_1task_1_1impl_1_1_hunter_task.html#ae657c5fe06bd9d5adf0cfcf2df82bbc4" target="_top" xlink:title="A function representing the unit of work that will be carried out.">
<ellipse fill="white" stroke="#666666" cx="123.21" cy="-437.81" rx="123.21" ry="25.81"/>
<text xml:space="preserve" text-anchor="start" x="44.09" y="-440.66" font-family="Helvetica,sans-Serif" font-size="12.00">com.runehive.game.task.impl.</text>
<text xml:space="preserve" text-anchor="middle" x="123.21" y="-426.41" font-family="Helvetica,sans-Serif" font-size="12.00">HunterTask.execute</text>
</a>
</g>
</g>
<!-- Node4&#45;&gt;Node5 -->
<g id="edge4_Node000004_Node000005" class="edge">
<title>Node4&#45;&gt;Node5</title>
<g id="a_edge4_Node000004_Node000005"><a xlink:title=" ">
<path fill="none" stroke="#63b8ff" d="M270.67,-437.81C262.64,-437.81 254.67,-437.81 246.84,-437.81"/>
<polygon fill="#63b8ff" stroke="#63b8ff" points="270.53,-441.31 280.53,-437.81 270.53,-434.31 270.53,-441.31"/>
</a>
</g>
</g>
<!-- Node7&#45;&gt;Node7 -->
<g id="edge7_Node000007_Node000007" class="edge">
<title>Node7&#45;&gt;Node7</title>
<g id="a_edge7_Node000007_Node000007"><a xlink:title=" ">
<path fill="none" stroke="#63b8ff" d="M965.33,-314.12C954.54,-319.75 929.29,-323.62 889.59,-323.62 829.1,-323.62 802.16,-314.63 808.78,-304.14"/>
<polygon fill="#63b8ff" stroke="#63b8ff" points="968.31,-315.99 969.72,-305.49 962.07,-312.82 968.31,-315.99"/>
</a>
</g>
</g>
<!-- Node8&#45;&gt;Node8 -->
<g id="edge9_Node000008_Node000008" class="edge">
<title>Node8&#45;&gt;Node8</title>
<g id="a_edge9_Node000008_Node000008"><a xlink:title=" ">
<path fill="none" stroke="#63b8ff" d="M965.33,-226.12C954.54,-231.75 929.29,-235.62 889.59,-235.62 829.1,-235.62 802.16,-226.63 808.78,-216.14"/>
<polygon fill="#63b8ff" stroke="#63b8ff" points="968.31,-227.99 969.72,-217.49 962.07,-224.82 968.31,-227.99"/>
</a>
</g>
</g>
<!-- Node10&#45;&gt;Node10 -->
<g id="edge12_Node000010_Node000010" class="edge">
<title>Node10&#45;&gt;Node10</title>
<g id="a_edge12_Node000010_Node000010"><a xlink:title=" ">
<path fill="none" stroke="#63b8ff" d="M1387.86,-200.52C1379.29,-205.93 1360.2,-209.62 1330.59,-209.62 1284.36,-209.62 1263.78,-200.63 1268.83,-190.14"/>
<polygon fill="#63b8ff" stroke="#63b8ff" points="1390.99,-202.09 1391.74,-191.53 1384.56,-199.32 1390.99,-202.09"/>
</a>
</g>
</g>
</g>
</svg>

<g id="navigator" transform="translate(0 0)" fill="#404254">
  <rect fill="#f2f5e9" fill-opacity="0.5" stroke="#606060" stroke-width=".5" x="0" y="0" width="60" height="60"/>
  <use id="zoomplus" xlink:href="#zoomPlus" x="17" y="9" onmousedown="handleZoom(evt,'in')"/>
  <use id="zoomminus" xlink:href="#zoomMin" x="42" y="9" onmousedown="handleZoom(evt,'out')"/>
  <use id="reset" xlink:href="#resetDef" x="30" y="36" onmousedown="handleReset()"/>
   <use id="arrowup" xlink:href="#arrowUp" x="0" y="0" onmousedown="handlePan(0,-1)"/>
  <use id="arrowright" xlink:href="#arrowRight" x="0" y="0" onmousedown="handlePan(1,0)"/>
  <use id="arrowdown" xlink:href="#arrowDown" x="0" y="0" onmousedown="handlePan(0,1)"/>
  <use id="arrowleft" xlink:href="#arrowLeft" x="0" y="0" onmousedown="handlePan(-1,0)"/>
</g>
<svg viewBox="0 0 15 15" width="100%" height="30px" preserveAspectRatio="xMaxYMin meet">
 <g id="arrow_out" transform="scale(0.3 0.3)">
  <a xlink:href="classcom_1_1runehive_1_1content_1_1activity_1_1_activity_aff6a224597d39a4c83b3b1d1cd884b20_icgraph_org.svg" target="_base">
   <rect id="button" ry="5" rx="5" y="6" x="6" height="38" width="38"
        fill="#f2f5e9" fill-opacity="0.5" stroke="#606060" stroke-width="1.0"/>
   <path id="arrow"
     d="M 11.500037,31.436501 C 11.940474,20.09759 22.043105,11.32322 32.158766,21.979434 L 37.068811,17.246167 C 37.068811,17.246167 37.088388,32 37.088388,32 L 22.160133,31.978069 C 22.160133,31.978069 26.997745,27.140456 26.997745,27.140456 C 18.528582,18.264221 13.291696,25.230495 11.500037,31.436501 z"
     style="fill:#404040;"/>
  </a>
 </g>
</svg>

<style type='text/css'>
<![CDATA[
[data-mouse-over-selected='false'] { opacity: 0.7; }
[data-mouse-over-selected='true']  { opacity: 1.0; }
]]>
</style>
<script type="application/ecmascript"><![CDATA[
document.addEventListener('DOMContentLoaded', (event) => {
  highlightEdges();
  highlightAdjacentNodes();
});
]]></script>
</svg>
