<?xml version="1.0" encoding="UTF-8" standalone="no"?>
<!DOCTYPE svg PUBLIC "-//W3C//DTD SVG 1.1//EN"
 "http://www.w3.org/Graphics/SVG/1.1/DTD/svg11.dtd">
<!-- Generated by graphviz version 14.0.1 (20251006.0113)
 -->
<!-- Title: com.runehive.game.world.entity.skill.Skill Pages: 1 -->
<!--zoomable 900 -->

<svg id="main" version="1.1" xmlns="http://www.w3.org/2000/svg" xmlns:xlink="http://www.w3.org/1999/xlink" xml:space="preserve" onload="init(evt)">

<style type="text/css"><![CDATA[
.node, .edge {opacity: 0.7;}
.node.selected, .edge.selected {opacity: 1;}
.edge:hover path { stroke: red; }
.edge:hover polygon { stroke: red; fill: red; }
]]></style>

<defs>
  <circle id="rim" cx="0" cy="0" r="7"/>
  <circle id="rim2" cx="0" cy="0" r="3.5"/>
  <g id="zoomPlus">
    <use xlink:href="#rim" fill="#404040"><set attributeName="fill" to="#808080" begin="zoomplus.mouseover" end="zoomplus.mouseout"/></use>
    <path d="M-4,0h8M0,-4v8" fill="none" stroke="white" stroke-width="1.5" pointer-events="none"/>
  </g>
  <g id="zoomMin">
    <use xlink:href="#rim" fill="#404040"><set attributeName="fill" to="#808080" begin="zoomminus.mouseover" end="zoomminus.mouseout"/></use>
    <path d="M-4,0h8" fill="none" stroke="white" stroke-width="1.5" pointer-events="none"/>
  </g>
  <g id="arrowUp" transform="translate(30 24)">
    <use xlink:href="#rim"/>
    <path pointer-events="none" fill="none" stroke="white" stroke-width="1.5" d="M0,-3.0v7 M-2.5,-0.5L0,-3.0L2.5,-0.5"/>
  </g>
  <g id="arrowRight" transform="rotate(90) translate(36 -43)">
    <use xlink:href="#rim"/>
    <path pointer-events="none" fill="none" stroke="white" stroke-width="1.5" d="M0,-3.0v7 M-2.5,-0.5L0,-3.0L2.5,-0.5"/>
  </g>
  <g id="arrowDown" transform="rotate(180) translate(-30 -48)">
    <use xlink:href="#rim"/>
    <path pointer-events="none" fill="none" stroke="white" stroke-width="1.5" d="M0,-3.0v7 M-2.5,-0.5L0,-3.0L2.5,-0.5"/>
  </g>
  <g id="arrowLeft" transform="rotate(270) translate(-36 17)">
    <use xlink:href="#rim"/>
    <path pointer-events="none" fill="none" stroke="white" stroke-width="1.5" d="M0,-3.0v7 M-2.5,-0.5L0,-3.0L2.5,-0.5"/>
  </g>
  <g id="resetDef">
    <use xlink:href="#rim2" fill="#404040"><set attributeName="fill" to="#808080" begin="reset.mouseover" end="reset.mouseout"/></use>
  </g>
</defs>
<script type="application/ecmascript">
var viewWidth = 966;
var viewHeight = 900;
var sectionId = 'dynsection-0';
</script>
<script type="application/ecmascript" xlink:href="svg.min.js"/>
<svg id="graph" class="graph">
<g id="viewport">
<title>com.runehive.game.world.entity.skill.Skill</title>
<!-- Node1 -->
<g id="Node000001" class="node">
<title>Node1</title>
<g id="a_Node000001"><a xlink:title="Represents a trainable and usable skill.">
<ellipse fill="#999999" stroke="#666666" cx="418.9" cy="-445.81" rx="149.2" ry="25.81"/>
<text xml:space="preserve" text-anchor="start" x="321.4" y="-448.66" font-family="Helvetica,sans-Serif" font-size="12.00">com.runehive.game.world.entity.skill.</text>
<text xml:space="preserve" text-anchor="middle" x="418.9" y="-434.41" font-family="Helvetica,sans-Serif" font-size="12.00">Skill</text>
</a>
</g>
</g>
<!-- Node3 -->
<g id="Node000003" class="node">
<title>Node3</title>
<g id="a_Node000003"><a xlink:href="classcom_1_1runehive_1_1content_1_1skill_1_1impl_1_1cooking_1_1_cooking.html" target="_top" xlink:title="Handles the cooking skill.">
<ellipse fill="white" stroke="#666666" cx="780.87" cy="-865.81" rx="160.87" ry="25.81"/>
<text xml:space="preserve" text-anchor="start" x="675.12" y="-868.66" font-family="Helvetica,sans-Serif" font-size="12.00">com.runehive.content.skill.impl.cooking.</text>
<text xml:space="preserve" text-anchor="middle" x="780.87" y="-854.41" font-family="Helvetica,sans-Serif" font-size="12.00">Cooking</text>
</a>
</g>
</g>
<!-- Node1&#45;&gt;Node3 -->
<g id="edge2_Node000001_Node000003" class="edge">
<title>Node1&#45;&gt;Node3</title>
<g id="a_edge2_Node000001_Node000003"><a xlink:title=" ">
<path fill="none" stroke="#63b8ff" d="M426.29,-483.02C441.71,-560.87 488.62,-741.08 604.1,-830.81 615.89,-839.97 629.44,-846.93 643.68,-852.19"/>
<polygon fill="#63b8ff" stroke="#63b8ff" points="429.75,-482.52 424.44,-473.36 422.88,-483.84 429.75,-482.52"/>
</a>
</g>
</g>
<!-- Node4 -->
<g id="Node000004" class="node">
<title>Node4</title>
<g id="a_Node000004"><a xlink:href="classcom_1_1runehive_1_1content_1_1skill_1_1impl_1_1crafting_1_1_crafting.html" target="_top" xlink:title="Handles the crafting skill.">
<ellipse fill="white" stroke="#666666" cx="780.87" cy="-795.81" rx="158.75" ry="25.81"/>
<text xml:space="preserve" text-anchor="start" x="676.62" y="-798.66" font-family="Helvetica,sans-Serif" font-size="12.00">com.runehive.content.skill.impl.crafting.</text>
<text xml:space="preserve" text-anchor="middle" x="780.87" y="-784.41" font-family="Helvetica,sans-Serif" font-size="12.00">Crafting</text>
</a>
</g>
</g>
<!-- Node1&#45;&gt;Node4 -->
<g id="edge3_Node000001_Node000004" class="edge">
<title>Node1&#45;&gt;Node4</title>
<g id="a_edge3_Node000001_Node000004"><a xlink:title=" ">
<path fill="none" stroke="#63b8ff" d="M430.45,-482.89C451.55,-549.87 505.58,-690.61 604.1,-760.81 616.77,-769.84 631.19,-776.67 646.21,-781.83"/>
<polygon fill="#63b8ff" stroke="#63b8ff" points="433.84,-482.01 427.56,-473.48 427.15,-484.06 433.84,-482.01"/>
</a>
</g>
</g>
<!-- Node5 -->
<g id="Node000005" class="node">
<title>Node5</title>
<g id="a_Node000005"><a xlink:href="classcom_1_1runehive_1_1content_1_1skill_1_1impl_1_1firemaking_1_1_firemaking.html" target="_top" xlink:title="The firemaking skill.">
<ellipse fill="white" stroke="#666666" cx="780.87" cy="-725.81" rx="170.41" ry="25.81"/>
<text xml:space="preserve" text-anchor="start" x="668.37" y="-728.66" font-family="Helvetica,sans-Serif" font-size="12.00">com.runehive.content.skill.impl.firemaking.</text>
<text xml:space="preserve" text-anchor="middle" x="780.87" y="-714.41" font-family="Helvetica,sans-Serif" font-size="12.00">Firemaking</text>
</a>
</g>
</g>
<!-- Node1&#45;&gt;Node5 -->
<g id="edge4_Node000001_Node000005" class="edge">
<title>Node1&#45;&gt;Node5</title>
<g id="a_edge4_Node000001_Node000005"><a xlink:title=" ">
<path fill="none" stroke="#63b8ff" d="M436.47,-482.16C463.38,-536.79 521.95,-639.16 604.1,-690.81 616.74,-698.76 630.82,-704.96 645.36,-709.79"/>
<polygon fill="#63b8ff" stroke="#63b8ff" points="439.67,-480.74 432.17,-473.26 433.37,-483.78 439.67,-480.74"/>
</a>
</g>
</g>
<!-- Node6 -->
<g id="Node000006" class="node">
<title>Node6</title>
<g id="a_Node000006"><a xlink:href="classcom_1_1runehive_1_1content_1_1skill_1_1impl_1_1fishing_1_1_fishing.html" target="_top" xlink:title="Handles the fishing skill.">
<ellipse fill="white" stroke="#666666" cx="780.87" cy="-655.81" rx="156.09" ry="25.81"/>
<text xml:space="preserve" text-anchor="start" x="678.5" y="-658.66" font-family="Helvetica,sans-Serif" font-size="12.00">com.runehive.content.skill.impl.fishing.</text>
<text xml:space="preserve" text-anchor="middle" x="780.87" y="-644.41" font-family="Helvetica,sans-Serif" font-size="12.00">Fishing</text>
</a>
</g>
</g>
<!-- Node1&#45;&gt;Node6 -->
<g id="edge5_Node000001_Node000006" class="edge">
<title>Node1&#45;&gt;Node6</title>
<g id="a_edge5_Node000001_Node000006"><a xlink:title=" ">
<path fill="none" stroke="#63b8ff" d="M446.15,-480.6C478.62,-520.99 537.79,-586.44 604.1,-620.81 619.98,-629.04 637.6,-635.34 655.37,-640.16"/>
<polygon fill="#63b8ff" stroke="#63b8ff" points="448.95,-478.49 440,-472.83 443.46,-482.84 448.95,-478.49"/>
</a>
</g>
</g>
<!-- Node7 -->
<g id="Node000007" class="node">
<title>Node7</title>
<g id="a_Node000007"><a xlink:href="classcom_1_1runehive_1_1content_1_1skill_1_1impl_1_1fletching_1_1_fletching.html" target="_top" xlink:title="Handles the fletching skill.">
<ellipse fill="white" stroke="#666666" cx="780.87" cy="-585.81" rx="162.99" ry="25.81"/>
<text xml:space="preserve" text-anchor="start" x="673.62" y="-588.66" font-family="Helvetica,sans-Serif" font-size="12.00">com.runehive.content.skill.impl.fletching.</text>
<text xml:space="preserve" text-anchor="middle" x="780.87" y="-574.41" font-family="Helvetica,sans-Serif" font-size="12.00">Fletching</text>
</a>
</g>
</g>
<!-- Node1&#45;&gt;Node7 -->
<g id="edge6_Node000001_Node000007" class="edge">
<title>Node1&#45;&gt;Node7</title>
<g id="a_edge6_Node000001_Node000007"><a xlink:title=" ">
<path fill="none" stroke="#63b8ff" d="M465.53,-477.36C501.61,-500.92 554.08,-532.14 604.1,-550.81 622.46,-557.67 642.43,-563.27 662.11,-567.82"/>
<polygon fill="#63b8ff" stroke="#63b8ff" points="467.8,-474.67 457.52,-472.08 463.94,-480.51 467.8,-474.67"/>
</a>
</g>
</g>
<!-- Node8 -->
<g id="Node000008" class="node">
<title>Node8</title>
<g id="a_Node000008"><a xlink:href="classcom_1_1runehive_1_1content_1_1skill_1_1impl_1_1herblore_1_1_herblore.html" target="_top" xlink:title="Handles the herblore skill.">
<ellipse fill="white" stroke="#666666" cx="780.87" cy="-515.81" rx="162.46" ry="25.81"/>
<text xml:space="preserve" text-anchor="start" x="674" y="-518.66" font-family="Helvetica,sans-Serif" font-size="12.00">com.runehive.content.skill.impl.herblore.</text>
<text xml:space="preserve" text-anchor="middle" x="780.87" y="-504.41" font-family="Helvetica,sans-Serif" font-size="12.00">Herblore</text>
</a>
</g>
</g>
<!-- Node1&#45;&gt;Node8 -->
<g id="edge7_Node000001_Node000008" class="edge">
<title>Node1&#45;&gt;Node8</title>
<g id="a_edge7_Node000001_Node000008"><a xlink:title=" ">
<path fill="none" stroke="#63b8ff" d="M530.71,-467.36C577.14,-476.39 630.82,-486.82 676.43,-495.69"/>
<polygon fill="#63b8ff" stroke="#63b8ff" points="531.66,-463.98 521.18,-465.5 530.33,-470.85 531.66,-463.98"/>
</a>
</g>
</g>
<!-- Node9 -->
<g id="Node000009" class="node">
<title>Node9</title>
<g id="a_Node000009"><a xlink:href="classcom_1_1runehive_1_1content_1_1skill_1_1impl_1_1hunter_1_1_hunter.html" target="_top" xlink:title="Handles the hunter skill.">
<ellipse fill="white" stroke="#666666" cx="780.87" cy="-445.81" rx="154.5" ry="25.81"/>
<text xml:space="preserve" text-anchor="start" x="679.62" y="-448.66" font-family="Helvetica,sans-Serif" font-size="12.00">com.runehive.content.skill.impl.hunter.</text>
<text xml:space="preserve" text-anchor="middle" x="780.87" y="-434.41" font-family="Helvetica,sans-Serif" font-size="12.00">Hunter</text>
</a>
</g>
</g>
<!-- Node1&#45;&gt;Node9 -->
<g id="edge8_Node000001_Node000009" class="edge">
<title>Node1&#45;&gt;Node9</title>
<g id="a_edge8_Node000001_Node000009"><a xlink:title=" ">
<path fill="none" stroke="#63b8ff" d="M579.56,-445.81C594.96,-445.81 610.56,-445.81 625.9,-445.81"/>
<polygon fill="#63b8ff" stroke="#63b8ff" points="579.91,-442.31 569.91,-445.81 579.91,-449.31 579.91,-442.31"/>
</a>
</g>
</g>
<!-- Node10 -->
<g id="Node000010" class="node">
<title>Node10</title>
<g id="a_Node000010"><a xlink:href="classcom_1_1runehive_1_1content_1_1skill_1_1impl_1_1mining_1_1_mining.html" target="_top" xlink:title="Handles the mining skill.">
<ellipse fill="white" stroke="#666666" cx="780.87" cy="-375.81" rx="156.62" ry="25.81"/>
<text xml:space="preserve" text-anchor="start" x="678.12" y="-378.66" font-family="Helvetica,sans-Serif" font-size="12.00">com.runehive.content.skill.impl.mining.</text>
<text xml:space="preserve" text-anchor="middle" x="780.87" y="-364.41" font-family="Helvetica,sans-Serif" font-size="12.00">Mining</text>
</a>
</g>
</g>
<!-- Node1&#45;&gt;Node10 -->
<g id="edge9_Node000001_Node000010" class="edge">
<title>Node1&#45;&gt;Node10</title>
<g id="a_edge9_Node000001_Node000010"><a xlink:title=" ">
<path fill="none" stroke="#63b8ff" d="M530.83,-424.24C577.77,-415.11 632.1,-404.55 678.01,-395.62"/>
<polygon fill="#63b8ff" stroke="#63b8ff" points="530.33,-420.77 521.18,-426.11 531.66,-427.64 530.33,-420.77"/>
</a>
</g>
</g>
<!-- Node11 -->
<g id="Node000011" class="node">
<title>Node11</title>
<g id="a_Node000011"><a xlink:href="classcom_1_1runehive_1_1content_1_1skill_1_1impl_1_1prayer_1_1_bone_sacrifice.html" target="_top" xlink:title="Handles sacrificing bones to an altar.">
<ellipse fill="white" stroke="#666666" cx="780.87" cy="-305.81" rx="154.5" ry="25.81"/>
<text xml:space="preserve" text-anchor="start" x="679.62" y="-308.66" font-family="Helvetica,sans-Serif" font-size="12.00">com.runehive.content.skill.impl.prayer.</text>
<text xml:space="preserve" text-anchor="middle" x="780.87" y="-294.41" font-family="Helvetica,sans-Serif" font-size="12.00">BoneSacrifice</text>
</a>
</g>
</g>
<!-- Node1&#45;&gt;Node11 -->
<g id="edge10_Node000001_Node000011" class="edge">
<title>Node1&#45;&gt;Node11</title>
<g id="a_edge10_Node000001_Node000011"><a xlink:title=" ">
<path fill="none" stroke="#63b8ff" d="M465.53,-414.26C501.61,-390.7 554.08,-359.48 604.1,-340.81 623.34,-333.63 644.34,-327.82 664.92,-323.16"/>
<polygon fill="#63b8ff" stroke="#63b8ff" points="463.94,-411.11 457.52,-419.54 467.8,-416.95 463.94,-411.11"/>
</a>
</g>
</g>
<!-- Node12 -->
<g id="Node000012" class="node">
<title>Node12</title>
<g id="a_Node000012"><a xlink:href="classcom_1_1runehive_1_1content_1_1skill_1_1impl_1_1runecrafting_1_1_runecraft.html" target="_top" xlink:title="Handles the runecrafting skill.">
<ellipse fill="white" stroke="#666666" cx="780.87" cy="-235.81" rx="175.72" ry="25.81"/>
<text xml:space="preserve" text-anchor="start" x="664.62" y="-238.66" font-family="Helvetica,sans-Serif" font-size="12.00">com.runehive.content.skill.impl.runecrafting.</text>
<text xml:space="preserve" text-anchor="middle" x="780.87" y="-224.41" font-family="Helvetica,sans-Serif" font-size="12.00">Runecraft</text>
</a>
</g>
</g>
<!-- Node1&#45;&gt;Node12 -->
<g id="edge11_Node000001_Node000012" class="edge">
<title>Node1&#45;&gt;Node12</title>
<g id="a_edge11_Node000001_Node000012"><a xlink:title=" ">
<path fill="none" stroke="#63b8ff" d="M446.15,-411.02C478.62,-370.63 537.79,-305.18 604.1,-270.81 618.19,-263.51 633.64,-257.73 649.35,-253.15"/>
<polygon fill="#63b8ff" stroke="#63b8ff" points="443.46,-408.78 440,-418.79 448.95,-413.12 443.46,-408.78"/>
</a>
</g>
</g>
<!-- Node13 -->
<g id="Node000013" class="node">
<title>Node13</title>
<g id="a_Node000013"><a xlink:href="classcom_1_1runehive_1_1content_1_1skill_1_1impl_1_1smithing_1_1_smithing.html" target="_top" xlink:title=" ">
<ellipse fill="white" stroke="#666666" cx="780.87" cy="-165.81" rx="162.99" ry="25.81"/>
<text xml:space="preserve" text-anchor="start" x="673.62" y="-168.66" font-family="Helvetica,sans-Serif" font-size="12.00">com.runehive.content.skill.impl.smithing.</text>
<text xml:space="preserve" text-anchor="middle" x="780.87" y="-154.41" font-family="Helvetica,sans-Serif" font-size="12.00">Smithing</text>
</a>
</g>
</g>
<!-- Node1&#45;&gt;Node13 -->
<g id="edge12_Node000001_Node000013" class="edge">
<title>Node1&#45;&gt;Node13</title>
<g id="a_edge12_Node000001_Node000013"><a xlink:title=" ">
<path fill="none" stroke="#63b8ff" d="M436.47,-409.46C463.38,-354.83 521.95,-252.46 604.1,-200.81 617.53,-192.36 632.59,-185.89 648.09,-180.94"/>
<polygon fill="#63b8ff" stroke="#63b8ff" points="433.37,-407.83 432.17,-418.36 439.67,-410.88 433.37,-407.83"/>
</a>
</g>
</g>
<!-- Node14 -->
<g id="Node000014" class="node">
<title>Node14</title>
<g id="a_Node000014"><a xlink:href="classcom_1_1runehive_1_1content_1_1skill_1_1impl_1_1thieving_1_1_thieving.html" target="_top" xlink:title="Handles the thieving skill.">
<ellipse fill="white" stroke="#666666" cx="780.87" cy="-95.81" rx="160.87" ry="25.81"/>
<text xml:space="preserve" text-anchor="start" x="675.12" y="-98.66" font-family="Helvetica,sans-Serif" font-size="12.00">com.runehive.content.skill.impl.thieving.</text>
<text xml:space="preserve" text-anchor="middle" x="780.87" y="-84.41" font-family="Helvetica,sans-Serif" font-size="12.00">Thieving</text>
</a>
</g>
</g>
<!-- Node1&#45;&gt;Node14 -->
<g id="edge13_Node000001_Node000014" class="edge">
<title>Node1&#45;&gt;Node14</title>
<g id="a_edge13_Node000001_Node000014"><a xlink:title=" ">
<path fill="none" stroke="#63b8ff" d="M430.45,-408.73C451.55,-341.74 505.58,-201.01 604.1,-130.81 616.64,-121.87 630.91,-115.08 645.76,-109.94"/>
<polygon fill="#63b8ff" stroke="#63b8ff" points="427.15,-407.55 427.56,-418.14 433.84,-409.61 427.15,-407.55"/>
</a>
</g>
</g>
<!-- Node15 -->
<g id="Node000015" class="node">
<title>Node15</title>
<g id="a_Node000015"><a xlink:href="classcom_1_1runehive_1_1content_1_1skill_1_1impl_1_1woodcutting_1_1_woodcutting.html" target="_top" xlink:title=" ">
<ellipse fill="white" stroke="#666666" cx="780.87" cy="-25.81" rx="176.78" ry="25.81"/>
<text xml:space="preserve" text-anchor="start" x="663.87" y="-28.66" font-family="Helvetica,sans-Serif" font-size="12.00">com.runehive.content.skill.impl.woodcutting.</text>
<text xml:space="preserve" text-anchor="middle" x="780.87" y="-14.41" font-family="Helvetica,sans-Serif" font-size="12.00">Woodcutting</text>
</a>
</g>
</g>
<!-- Node1&#45;&gt;Node15 -->
<g id="edge14_Node000001_Node000015" class="edge">
<title>Node1&#45;&gt;Node15</title>
<g id="a_edge14_Node000001_Node000015"><a xlink:title=" ">
<path fill="none" stroke="#63b8ff" d="M426.29,-408.59C441.71,-330.75 488.62,-150.54 604.1,-60.81 614.54,-52.7 626.36,-46.31 638.81,-41.31"/>
<polygon fill="#63b8ff" stroke="#63b8ff" points="422.88,-407.78 424.44,-418.26 429.75,-409.1 422.88,-407.78"/>
</a>
</g>
</g>
<!-- Node2 -->
<g id="Node000002" class="node">
<title>Node2</title>
<g id="a_Node000002"><a xlink:href="interfacecom_1_1runehive_1_1content_1_1event_1_1_interaction_event_listener.html" target="_top" xlink:title=" ">
<ellipse fill="white" stroke="#666666" cx="116.85" cy="-445.81" rx="116.85" ry="25.81"/>
<text xml:space="preserve" text-anchor="start" x="42.22" y="-448.66" font-family="Helvetica,sans-Serif" font-size="12.00">com.runehive.content.event.</text>
<text xml:space="preserve" text-anchor="middle" x="116.85" y="-434.41" font-family="Helvetica,sans-Serif" font-size="12.00">InteractionEventListener</text>
</a>
</g>
</g>
<!-- Node2&#45;&gt;Node1 -->
<g id="edge1_Node000001_Node000002" class="edge">
<title>Node2&#45;&gt;Node1</title>
<g id="a_edge1_Node000001_Node000002"><a xlink:title=" ">
<path fill="none" stroke="#63b8ff" d="M245.11,-445.81C253.11,-445.81 261.21,-445.81 269.3,-445.81"/>
<polygon fill="#63b8ff" stroke="#63b8ff" points="245.37,-442.31 235.37,-445.81 245.37,-449.31 245.37,-442.31"/>
</a>
</g>
</g>
</g>
</svg>

<g id="navigator" transform="translate(0 0)" fill="#404254">
  <rect fill="#f2f5e9" fill-opacity="0.5" stroke="#606060" stroke-width=".5" x="0" y="0" width="60" height="60"/>
  <use id="zoomplus" xlink:href="#zoomPlus" x="17" y="9" onmousedown="handleZoom(evt,'in')"/>
  <use id="zoomminus" xlink:href="#zoomMin" x="42" y="9" onmousedown="handleZoom(evt,'out')"/>
  <use id="reset" xlink:href="#resetDef" x="30" y="36" onmousedown="handleReset()"/>
   <use id="arrowup" xlink:href="#arrowUp" x="0" y="0" onmousedown="handlePan(0,-1)"/>
  <use id="arrowright" xlink:href="#arrowRight" x="0" y="0" onmousedown="handlePan(1,0)"/>
  <use id="arrowdown" xlink:href="#arrowDown" x="0" y="0" onmousedown="handlePan(0,1)"/>
  <use id="arrowleft" xlink:href="#arrowLeft" x="0" y="0" onmousedown="handlePan(-1,0)"/>
</g>
<svg viewBox="0 0 15 15" width="100%" height="30px" preserveAspectRatio="xMaxYMin meet">
 <g id="arrow_out" transform="scale(0.3 0.3)">
  <a xlink:href="classcom_1_1runehive_1_1game_1_1world_1_1entity_1_1skill_1_1_skill__inherit__graph_org.svg" target="_base">
   <rect id="button" ry="5" rx="5" y="6" x="6" height="38" width="38"
        fill="#f2f5e9" fill-opacity="0.5" stroke="#606060" stroke-width="1.0"/>
   <path id="arrow"
     d="M 11.500037,31.436501 C 11.940474,20.09759 22.043105,11.32322 32.158766,21.979434 L 37.068811,17.246167 C 37.068811,17.246167 37.088388,32 37.088388,32 L 22.160133,31.978069 C 22.160133,31.978069 26.997745,27.140456 26.997745,27.140456 C 18.528582,18.264221 13.291696,25.230495 11.500037,31.436501 z"
     style="fill:#404040;"/>
  </a>
 </g>
</svg>

<style type='text/css'>
<![CDATA[
[data-mouse-over-selected='false'] { opacity: 0.7; }
[data-mouse-over-selected='true']  { opacity: 1.0; }
]]>
</style>
<script type="application/ecmascript"><![CDATA[
document.addEventListener('DOMContentLoaded', (event) => {
  highlightEdges();
  highlightAdjacentNodes();
});
]]></script>
</svg>
