<?xml version="1.0" encoding="UTF-8" standalone="no"?>
<!DOCTYPE svg PUBLIC "-//W3C//DTD SVG 1.1//EN"
 "http://www.w3.org/Graphics/SVG/1.1/DTD/svg11.dtd">
<!-- Generated by graphviz version 14.0.1 (20251006.0113)
 -->
<!-- Title: com.runehive.game.world.entity.skill.SkillManager.regress Pages: 1 -->
<svg width="641pt" height="306pt"
 viewBox="0.00 0.00 641.00 306.00" xmlns="http://www.w3.org/2000/svg" xmlns:xlink="http://www.w3.org/1999/xlink">
<g id="graph0" class="graph" transform="scale(1 1) rotate(0) translate(4 301.62)">
<title>com.runehive.game.world.entity.skill.SkillManager.regress</title>
<!-- Node1 -->
<g id="Node000001" class="node">
<title>Node1</title>
<g id="a_Node000001"><a xlink:title="Handles regressing the skills.">
<ellipse fill="#999999" stroke="#666666" cx="149.2" cy="-157.81" rx="149.2" ry="25.81"/>
<text xml:space="preserve" text-anchor="start" x="51.7" y="-160.66" font-family="Helvetica,sans-Serif" font-size="12.00">com.runehive.game.world.entity.skill.</text>
<text xml:space="preserve" text-anchor="middle" x="149.2" y="-146.41" font-family="Helvetica,sans-Serif" font-size="12.00">SkillManager.regress</text>
</a>
</g>
</g>
<!-- Node2 -->
<g id="Node000002" class="node">
<title>Node2</title>
<g id="a_Node000002"><a xlink:href="classcom_1_1runehive_1_1game_1_1world_1_1entity_1_1skill_1_1_skill.html#a635cfacdd28d86af90cf45a3f4df39b9" target="_top" xlink:title="Gets the current skill level.">
<ellipse fill="white" stroke="#666666" cx="483.6" cy="-271.81" rx="149.2" ry="25.81"/>
<text xml:space="preserve" text-anchor="start" x="386.1" y="-274.66" font-family="Helvetica,sans-Serif" font-size="12.00">com.runehive.game.world.entity.skill.</text>
<text xml:space="preserve" text-anchor="middle" x="483.6" y="-260.41" font-family="Helvetica,sans-Serif" font-size="12.00">Skill.getLevel</text>
</a>
</g>
</g>
<!-- Node1&#45;&gt;Node2 -->
<g id="edge1_Node000001_Node000002" class="edge">
<title>Node1&#45;&gt;Node2</title>
<g id="a_edge1_Node000001_Node000002"><a xlink:title=" ">
<path fill="none" stroke="#63b8ff" d="M200.89,-182.37C237.38,-199.36 288.14,-221.55 334.4,-236.81 347.8,-241.23 362.06,-245.33 376.24,-249.05"/>
<polygon fill="#63b8ff" stroke="#63b8ff" points="375.02,-252.35 385.58,-251.44 376.76,-245.57 375.02,-252.35"/>
</a>
</g>
</g>
<!-- Node3 -->
<g id="Node000003" class="node">
<title>Node3</title>
<g id="a_Node000003"><a xlink:href="classcom_1_1runehive_1_1game_1_1world_1_1entity_1_1skill_1_1_skill.html#af32f0e457bf38ac0e56bb3b789db7725" target="_top" xlink:title="Gets the maximum skill level.">
<ellipse fill="white" stroke="#666666" cx="483.6" cy="-201.81" rx="149.2" ry="25.81"/>
<text xml:space="preserve" text-anchor="start" x="386.1" y="-204.66" font-family="Helvetica,sans-Serif" font-size="12.00">com.runehive.game.world.entity.skill.</text>
<text xml:space="preserve" text-anchor="middle" x="483.6" y="-190.41" font-family="Helvetica,sans-Serif" font-size="12.00">Skill.getMaxLevel</text>
</a>
</g>
</g>
<!-- Node1&#45;&gt;Node3 -->
<g id="edge2_Node000001_Node000003" class="edge">
<title>Node1&#45;&gt;Node3</title>
<g id="a_edge2_Node000001_Node000003"><a xlink:title=" ">
<path fill="none" stroke="#63b8ff" d="M268.8,-173.51C295.92,-177.1 324.88,-180.93 352.46,-184.58"/>
<polygon fill="#63b8ff" stroke="#63b8ff" points="351.9,-188.04 362.27,-185.88 352.81,-181.1 351.9,-188.04"/>
</a>
</g>
</g>
<!-- Node4 -->
<g id="Node000004" class="node">
<title>Node4</title>
<g id="a_Node000004"><a xlink:href="classcom_1_1runehive_1_1game_1_1world_1_1entity_1_1skill_1_1_skill.html#a3c8eb963f046bbc4188f6e76d93fa17b" target="_top" xlink:title="Modifies the current level with a given function.">
<ellipse fill="white" stroke="#666666" cx="483.6" cy="-113.81" rx="149.2" ry="25.81"/>
<text xml:space="preserve" text-anchor="start" x="386.1" y="-116.66" font-family="Helvetica,sans-Serif" font-size="12.00">com.runehive.game.world.entity.skill.</text>
<text xml:space="preserve" text-anchor="middle" x="483.6" y="-102.41" font-family="Helvetica,sans-Serif" font-size="12.00">Skill.modifyLevel</text>
</a>
</g>
</g>
<!-- Node1&#45;&gt;Node4 -->
<g id="edge3_Node000001_Node000004" class="edge">
<title>Node1&#45;&gt;Node4</title>
<g id="a_edge3_Node000001_Node000004"><a xlink:title=" ">
<path fill="none" stroke="#63b8ff" d="M268.8,-142.11C295.92,-138.52 324.88,-134.69 352.46,-131.04"/>
<polygon fill="#63b8ff" stroke="#63b8ff" points="352.81,-134.52 362.27,-129.74 351.9,-127.58 352.81,-134.52"/>
</a>
</g>
</g>
<!-- Node5 -->
<g id="Node000005" class="node">
<title>Node5</title>
<g id="a_Node000005"><a xlink:href="classcom_1_1runehive_1_1game_1_1world_1_1entity_1_1skill_1_1_skill_manager.html#a9d2f706cb24e30ca8451a4f49401df4c" target="_top" xlink:title="Refreshes all the skills for the mob.">
<ellipse fill="white" stroke="#666666" cx="483.6" cy="-25.81" rx="149.2" ry="25.81"/>
<text xml:space="preserve" text-anchor="start" x="386.1" y="-28.66" font-family="Helvetica,sans-Serif" font-size="12.00">com.runehive.game.world.entity.skill.</text>
<text xml:space="preserve" text-anchor="middle" x="483.6" y="-14.41" font-family="Helvetica,sans-Serif" font-size="12.00">SkillManager.refresh</text>
</a>
</g>
</g>
<!-- Node1&#45;&gt;Node5 -->
<g id="edge5_Node000001_Node000005" class="edge">
<title>Node1&#45;&gt;Node5</title>
<g id="a_edge5_Node000001_Node000005"><a xlink:title=" ">
<path fill="none" stroke="#63b8ff" d="M204.64,-133.41C241.12,-117.33 290.35,-96.11 334.4,-78.81 356.9,-69.97 381.56,-60.91 404.18,-52.83"/>
<polygon fill="#63b8ff" stroke="#63b8ff" points="405.09,-56.23 413.34,-49.58 402.75,-49.63 405.09,-56.23"/>
</a>
</g>
</g>
<!-- Node4&#45;&gt;Node4 -->
<g id="edge4_Node000004_Node000004" class="edge">
<title>Node4&#45;&gt;Node4</title>
<g id="a_edge4_Node000004_Node000004"><a xlink:title=" ">
<path fill="none" stroke="#63b8ff" d="M421.88,-137.69C416,-148.38 436.57,-157.62 483.6,-157.62 513.72,-157.62 532.99,-153.83 541.41,-148.29"/>
<polygon fill="#63b8ff" stroke="#63b8ff" points="544.62,-149.71 544.79,-139.11 538.05,-147.28 544.62,-149.71"/>
</a>
</g>
</g>
<!-- Node5&#45;&gt;Node5 -->
<g id="edge6_Node000005_Node000005" class="edge">
<title>Node5&#45;&gt;Node5</title>
<g id="a_edge6_Node000005_Node000005"><a xlink:title=" ">
<path fill="none" stroke="#63b8ff" d="M421.88,-49.69C416,-60.38 436.57,-69.62 483.6,-69.62 513.72,-69.62 532.99,-65.83 541.41,-60.29"/>
<polygon fill="#63b8ff" stroke="#63b8ff" points="544.62,-61.71 544.79,-51.11 538.05,-59.28 544.62,-61.71"/>
</a>
</g>
</g>
</g>
</svg>
