<?xml version="1.0" encoding="UTF-8" standalone="no"?>
<!DOCTYPE svg PUBLIC "-//W3C//DTD SVG 1.1//EN"
 "http://www.w3.org/Graphics/SVG/1.1/DTD/svg11.dtd">
<!-- Generated by graphviz version 14.0.1 (20251006.0113)
 -->
<!-- Title: com.runehive.game.world.entity.combat.strategy.CombatStrategy.hit Pages: 1 -->
<!--zoomable 1736 -->

<svg id="main" version="1.1" xmlns="http://www.w3.org/2000/svg" xmlns:xlink="http://www.w3.org/1999/xlink" xml:space="preserve" onload="init(evt)">

<style type="text/css"><![CDATA[
.node, .edge {opacity: 0.7;}
.node.selected, .edge.selected {opacity: 1;}
.edge:hover path { stroke: red; }
.edge:hover polygon { stroke: red; fill: red; }
]]></style>

<defs>
  <circle id="rim" cx="0" cy="0" r="7"/>
  <circle id="rim2" cx="0" cy="0" r="3.5"/>
  <g id="zoomPlus">
    <use xlink:href="#rim" fill="#404040"><set attributeName="fill" to="#808080" begin="zoomplus.mouseover" end="zoomplus.mouseout"/></use>
    <path d="M-4,0h8M0,-4v8" fill="none" stroke="white" stroke-width="1.5" pointer-events="none"/>
  </g>
  <g id="zoomMin">
    <use xlink:href="#rim" fill="#404040"><set attributeName="fill" to="#808080" begin="zoomminus.mouseover" end="zoomminus.mouseout"/></use>
    <path d="M-4,0h8" fill="none" stroke="white" stroke-width="1.5" pointer-events="none"/>
  </g>
  <g id="arrowUp" transform="translate(30 24)">
    <use xlink:href="#rim"/>
    <path pointer-events="none" fill="none" stroke="white" stroke-width="1.5" d="M0,-3.0v7 M-2.5,-0.5L0,-3.0L2.5,-0.5"/>
  </g>
  <g id="arrowRight" transform="rotate(90) translate(36 -43)">
    <use xlink:href="#rim"/>
    <path pointer-events="none" fill="none" stroke="white" stroke-width="1.5" d="M0,-3.0v7 M-2.5,-0.5L0,-3.0L2.5,-0.5"/>
  </g>
  <g id="arrowDown" transform="rotate(180) translate(-30 -48)">
    <use xlink:href="#rim"/>
    <path pointer-events="none" fill="none" stroke="white" stroke-width="1.5" d="M0,-3.0v7 M-2.5,-0.5L0,-3.0L2.5,-0.5"/>
  </g>
  <g id="arrowLeft" transform="rotate(270) translate(-36 17)">
    <use xlink:href="#rim"/>
    <path pointer-events="none" fill="none" stroke="white" stroke-width="1.5" d="M0,-3.0v7 M-2.5,-0.5L0,-3.0L2.5,-0.5"/>
  </g>
  <g id="resetDef">
    <use xlink:href="#rim2" fill="#404040"><set attributeName="fill" to="#808080" begin="reset.mouseover" end="reset.mouseout"/></use>
  </g>
</defs>
<script type="application/ecmascript">
var viewWidth = 2085;
var viewHeight = 1736;
var sectionId = 'dynsection-13';
</script>
<script type="application/ecmascript" xlink:href="svg.min.js"/>
<svg id="graph" class="graph">
<g id="viewport">
<title>com.runehive.game.world.entity.combat.strategy.CombatStrategy.hit</title>
<!-- Node1 -->
<g id="Node000001" class="node">
<title>Node1</title>
<g id="a_Node000001"><a xlink:title="Called when the attacking mob performs an attack on the defender.">
<ellipse fill="#999999" stroke="#666666" cx="1883.72" cy="-779.81" rx="193.22" ry="25.81"/>
<text xml:space="preserve" text-anchor="start" x="1755.1" y="-782.66" font-family="Helvetica,sans-Serif" font-size="12.00">com.runehive.game.world.entity.combat.strategy.</text>
<text xml:space="preserve" text-anchor="middle" x="1883.72" y="-768.41" font-family="Helvetica,sans-Serif" font-size="12.00">CombatStrategy.hit</text>
</a>
</g>
</g>
<!-- Node1&#45;&gt;Node1 -->
<g id="edge24_Node000001_Node000001" class="edge">
<title>Node1&#45;&gt;Node1</title>
<g id="a_edge24_Node000001_Node000001"><a xlink:title=" ">
<path fill="none" stroke="#63b8ff" d="M1967.01,-813.85C1955.54,-819.62 1927.78,-823.62 1883.72,-823.62 1815.78,-823.62 1786.59,-814.12 1796.14,-803.25"/>
<polygon fill="#63b8ff" stroke="#63b8ff" points="1970.23,-815.23 1970.74,-804.65 1963.74,-812.61 1970.23,-815.23"/>
</a>
</g>
</g>
<!-- Node2 -->
<g id="Node000002" class="node">
<title>Node2</title>
<g id="a_Node000002"><a xlink:href="classcom_1_1runehive_1_1game_1_1world_1_1entity_1_1combat_1_1strategy_1_1basic_1_1_magic_strategy.html#ad5864eb60938132e9a825ba6cc8b8434" target="_top" xlink:title=" ">
<ellipse fill="white" stroke="#666666" cx="1407.19" cy="-1561.81" rx="215.49" ry="25.81"/>
<text xml:space="preserve" text-anchor="start" x="1262.82" y="-1564.66" font-family="Helvetica,sans-Serif" font-size="12.00">com.runehive.game.world.entity.combat.strategy.basic.</text>
<text xml:space="preserve" text-anchor="middle" x="1407.19" y="-1550.41" font-family="Helvetica,sans-Serif" font-size="12.00">MagicStrategy.addCombatExperience</text>
</a>
</g>
</g>
<!-- Node1&#45;&gt;Node2 -->
<g id="edge1_Node000001_Node000002" class="edge">
<title>Node1&#45;&gt;Node2</title>
<g id="a_edge1_Node000001_Node000002"><a xlink:title=" ">
<path fill="none" stroke="#63b8ff" d="M1881.81,-817.39C1876.94,-933.22 1846.3,-1288.44 1654.5,-1480.81 1624.71,-1510.69 1583.7,-1529.55 1543.69,-1541.46"/>
<polygon fill="#63b8ff" stroke="#63b8ff" points="1885.3,-817.65 1882.18,-807.53 1878.31,-817.39 1885.3,-817.65"/>
</a>
</g>
</g>
<!-- Node3 -->
<g id="Node000003" class="node">
<title>Node3</title>
<g id="a_Node000003"><a xlink:href="classcom_1_1runehive_1_1game_1_1world_1_1entity_1_1combat_1_1strategy_1_1basic_1_1_melee_strategy.html#a37aad77a85302d5b16901acd185c476b" target="_top" xlink:title=" ">
<ellipse fill="white" stroke="#666666" cx="852.71" cy="-1631.81" rx="215.49" ry="25.81"/>
<text xml:space="preserve" text-anchor="start" x="708.33" y="-1634.66" font-family="Helvetica,sans-Serif" font-size="12.00">com.runehive.game.world.entity.combat.strategy.basic.</text>
<text xml:space="preserve" text-anchor="middle" x="852.71" y="-1620.41" font-family="Helvetica,sans-Serif" font-size="12.00">MeleeStrategy.addCombatExperience</text>
</a>
</g>
</g>
<!-- Node1&#45;&gt;Node3 -->
<g id="edge7_Node000001_Node000003" class="edge">
<title>Node1&#45;&gt;Node3</title>
<g id="a_edge7_Node000001_Node000003"><a xlink:title=" ">
<path fill="none" stroke="#63b8ff" d="M1878.12,-816.71C1859.1,-962.55 1781.68,-1495.84 1654.5,-1596.81 1442.93,-1764.79 1091.76,-1698.13 934.36,-1656.1"/>
<polygon fill="#63b8ff" stroke="#63b8ff" points="1881.53,-817.59 1879.34,-807.23 1874.59,-816.7 1881.53,-817.59"/>
</a>
</g>
</g>
<!-- Node8 -->
<g id="Node000008" class="node">
<title>Node8</title>
<g id="a_Node000008"><a xlink:href="classcom_1_1runehive_1_1game_1_1world_1_1entity_1_1combat_1_1strategy_1_1basic_1_1_ranged_strategy.html#adc88476bd848db7d1d9cb6234f5f9b6f" target="_top" xlink:title=" ">
<ellipse fill="white" stroke="#666666" cx="1407.19" cy="-1221.81" rx="215.49" ry="25.81"/>
<text xml:space="preserve" text-anchor="start" x="1262.82" y="-1224.66" font-family="Helvetica,sans-Serif" font-size="12.00">com.runehive.game.world.entity.combat.strategy.basic.</text>
<text xml:space="preserve" text-anchor="middle" x="1407.19" y="-1210.41" font-family="Helvetica,sans-Serif" font-size="12.00">RangedStrategy.addCombatExperience</text>
</a>
</g>
</g>
<!-- Node1&#45;&gt;Node8 -->
<g id="edge8_Node000001_Node000008" class="edge">
<title>Node1&#45;&gt;Node8</title>
<g id="a_edge8_Node000001_Node000008"><a xlink:title=" ">
<path fill="none" stroke="#63b8ff" d="M1873.44,-816.71C1851.04,-897.57 1785.86,-1090.45 1654.5,-1181.81 1637.17,-1193.87 1617.5,-1202.79 1597.02,-1209.32"/>
<polygon fill="#63b8ff" stroke="#63b8ff" points="1876.7,-818.09 1875.93,-807.52 1869.94,-816.26 1876.7,-818.09"/>
</a>
</g>
</g>
<!-- Node11 -->
<g id="Node000011" class="node">
<title>Node11</title>
<g id="a_Node000011"><a xlink:href="classcom_1_1runehive_1_1game_1_1world_1_1entity_1_1combat_1_1strategy_1_1player_1_1special_1_1range_1_1_blowpipe.html#a94c350b5f94cdbe9874cd38d24278e2d" target="_top" xlink:title=" ">
<ellipse fill="white" stroke="#666666" cx="852.71" cy="-1071.81" rx="271.18" ry="25.81"/>
<text xml:space="preserve" text-anchor="start" x="668.96" y="-1074.66" font-family="Helvetica,sans-Serif" font-size="12.00">com.runehive.game.world.entity.combat.strategy.player.special.range.</text>
<text xml:space="preserve" text-anchor="middle" x="852.71" y="-1060.41" font-family="Helvetica,sans-Serif" font-size="12.00">Blowpipe.start</text>
</a>
</g>
</g>
<!-- Node1&#45;&gt;Node11 -->
<g id="edge42_Node000001_Node000011" class="edge">
<title>Node1&#45;&gt;Node11</title>
<g id="a_edge42_Node000001_Node000011"><a xlink:title=" ">
<path fill="none" stroke="#63b8ff" d="M1872.95,-816.85C1850.06,-895.15 1784.79,-1076.2 1654.5,-1148.81 1558.49,-1202.32 1259.74,-1194.74 1159.88,-1148.81 1137.55,-1138.54 1145.51,-1118.5 1123.88,-1106.81 1108.7,-1098.6 1092.35,-1092.02 1075.48,-1086.77"/>
<polygon fill="#63b8ff" stroke="#63b8ff" points="1876.23,-818.11 1875.61,-807.53 1869.5,-816.19 1876.23,-818.11"/>
</a>
</g>
</g>
<!-- Node12 -->
<g id="Node000012" class="node">
<title>Node12</title>
<g id="a_Node000012"><a xlink:href="classcom_1_1runehive_1_1game_1_1world_1_1entity_1_1combat_1_1strategy_1_1_combat_strategy.html#a66648e20beb0a8a0d53aefa01515f3af" target="_top" xlink:title="Called when the attacking hit executes on the defender.">
<ellipse fill="white" stroke="#666666" cx="1407.19" cy="-1113.81" rx="193.22" ry="25.81"/>
<text xml:space="preserve" text-anchor="start" x="1278.57" y="-1116.66" font-family="Helvetica,sans-Serif" font-size="12.00">com.runehive.game.world.entity.combat.strategy.</text>
<text xml:space="preserve" text-anchor="middle" x="1407.19" y="-1102.41" font-family="Helvetica,sans-Serif" font-size="12.00">CombatStrategy.attack</text>
</a>
</g>
</g>
<!-- Node1&#45;&gt;Node12 -->
<g id="edge12_Node000001_Node000012" class="edge">
<title>Node1&#45;&gt;Node12</title>
<g id="a_edge12_Node000001_Node000012"><a xlink:title=" ">
<path fill="none" stroke="#63b8ff" d="M1866.81,-815.78C1836.09,-880.53 1762.05,-1015.8 1654.5,-1078.81 1634.47,-1090.55 1612,-1098.9 1588.98,-1104.77"/>
<polygon fill="#63b8ff" stroke="#63b8ff" points="1869.84,-817.56 1870.89,-807.02 1863.49,-814.6 1869.84,-817.56"/>
</a>
</g>
</g>
<!-- Node13 -->
<g id="Node000013" class="node">
<title>Node13</title>
<g id="a_Node000013"><a xlink:href="classcom_1_1runehive_1_1game_1_1world_1_1entity_1_1combat_1_1strategy_1_1npc_1_1_npc_melee_strategy.html#a7284865b73d3ec173a0dfdae9acc81e0" target="_top" xlink:title=" ">
<ellipse fill="white" stroke="#666666" cx="1407.19" cy="-1043.81" rx="209.13" ry="25.81"/>
<text xml:space="preserve" text-anchor="start" x="1267.32" y="-1046.66" font-family="Helvetica,sans-Serif" font-size="12.00">com.runehive.game.world.entity.combat.strategy.npc.</text>
<text xml:space="preserve" text-anchor="middle" x="1407.19" y="-1032.41" font-family="Helvetica,sans-Serif" font-size="12.00">NpcMeleeStrategy.attack</text>
</a>
</g>
</g>
<!-- Node1&#45;&gt;Node13 -->
<g id="edge13_Node000001_Node000013" class="edge">
<title>Node1&#45;&gt;Node13</title>
<g id="a_edge13_Node000001_Node000013"><a xlink:title=" ">
<path fill="none" stroke="#63b8ff" d="M1859.25,-814.95C1822.4,-866.96 1745.7,-963.16 1654.5,-1008.81 1634.9,-1018.62 1613.39,-1025.92 1591.5,-1031.31"/>
<polygon fill="#63b8ff" stroke="#63b8ff" points="1861.93,-817.22 1864.79,-807.02 1856.2,-813.21 1861.93,-817.22"/>
</a>
</g>
</g>
<!-- Node14 -->
<g id="Node000014" class="node">
<title>Node14</title>
<g id="a_Node000014"><a xlink:href="classcom_1_1runehive_1_1game_1_1world_1_1entity_1_1combat_1_1strategy_1_1npc_1_1_npc_ranged_strategy.html#a1a0633ca2dd1caff2ac37e6aff60bc7e" target="_top" xlink:title=" ">
<ellipse fill="white" stroke="#666666" cx="1407.19" cy="-973.81" rx="209.13" ry="25.81"/>
<text xml:space="preserve" text-anchor="start" x="1267.32" y="-976.66" font-family="Helvetica,sans-Serif" font-size="12.00">com.runehive.game.world.entity.combat.strategy.npc.</text>
<text xml:space="preserve" text-anchor="middle" x="1407.19" y="-962.41" font-family="Helvetica,sans-Serif" font-size="12.00">NpcRangedStrategy.attack</text>
</a>
</g>
</g>
<!-- Node1&#45;&gt;Node14 -->
<g id="edge14_Node000001_Node000014" class="edge">
<title>Node1&#45;&gt;Node14</title>
<g id="a_edge14_Node000001_Node000014"><a xlink:title=" ">
<path fill="none" stroke="#63b8ff" d="M1846.45,-813.32C1803.9,-850.54 1729.6,-909.26 1654.5,-938.81 1631.8,-947.74 1607.11,-954.44 1582.43,-959.45"/>
<polygon fill="#63b8ff" stroke="#63b8ff" points="1848.73,-815.97 1853.9,-806.72 1844.09,-810.73 1848.73,-815.97"/>
</a>
</g>
</g>
<!-- Node16 -->
<g id="Node000016" class="node">
<title>Node16</title>
<g id="a_Node000016"><a xlink:href="classcom_1_1runehive_1_1game_1_1world_1_1entity_1_1combat_1_1strategy_1_1player_1_1custom_1_1_scythe_of_vitur_strategy.html#a20abc0ae90827b77f5e6ce48066b12ab" target="_top" xlink:title=" ">
<ellipse fill="white" stroke="#666666" cx="1407.19" cy="-903.81" rx="247.31" ry="25.81"/>
<text xml:space="preserve" text-anchor="start" x="1240.32" y="-906.66" font-family="Helvetica,sans-Serif" font-size="12.00">com.runehive.game.world.entity.combat.strategy.player.custom.</text>
<text xml:space="preserve" text-anchor="middle" x="1407.19" y="-892.41" font-family="Helvetica,sans-Serif" font-size="12.00">ScytheOfViturStrategy.attack</text>
</a>
</g>
</g>
<!-- Node1&#45;&gt;Node16 -->
<g id="edge17_Node000001_Node000016" class="edge">
<title>Node1&#45;&gt;Node16</title>
<g id="a_edge17_Node000001_Node000016"><a xlink:title=" ">
<path fill="none" stroke="#63b8ff" d="M1818.54,-809.44C1773.52,-829.08 1711.44,-853.88 1654.5,-868.81 1630.17,-875.19 1604.16,-880.48 1578.49,-884.85"/>
<polygon fill="#63b8ff" stroke="#63b8ff" points="1819.89,-812.67 1827.64,-805.44 1817.08,-806.26 1819.89,-812.67"/>
</a>
</g>
</g>
<!-- Node17 -->
<g id="Node000017" class="node">
<title>Node17</title>
<g id="a_Node000017"><a xlink:href="classcom_1_1runehive_1_1game_1_1world_1_1entity_1_1combat_1_1strategy_1_1player_1_1custom_1_1_toxic_blowpipe_strategy.html#a799c041b3c0db5efecf835c3502541bb" target="_top" xlink:title=" ">
<ellipse fill="white" stroke="#666666" cx="1407.19" cy="-833.81" rx="247.31" ry="25.81"/>
<text xml:space="preserve" text-anchor="start" x="1240.32" y="-836.66" font-family="Helvetica,sans-Serif" font-size="12.00">com.runehive.game.world.entity.combat.strategy.player.custom.</text>
<text xml:space="preserve" text-anchor="middle" x="1407.19" y="-822.41" font-family="Helvetica,sans-Serif" font-size="12.00">ToxicBlowpipeStrategy.attack</text>
</a>
</g>
</g>
<!-- Node1&#45;&gt;Node17 -->
<g id="edge18_Node000001_Node000017" class="edge">
<title>Node1&#45;&gt;Node17</title>
<g id="a_edge18_Node000001_Node000017"><a xlink:title=" ">
<path fill="none" stroke="#63b8ff" d="M1723.58,-797.92C1676.32,-803.3 1624.4,-809.21 1576.57,-814.65"/>
<polygon fill="#63b8ff" stroke="#63b8ff" points="1723.81,-801.42 1733.35,-796.81 1723.02,-794.46 1723.81,-801.42"/>
</a>
</g>
</g>
<!-- Node18 -->
<g id="Node000018" class="node">
<title>Node18</title>
<g id="a_Node000018"><a xlink:href="classcom_1_1runehive_1_1game_1_1world_1_1entity_1_1combat_1_1strategy_1_1player_1_1special_1_1range_1_1_blowpipe.html#acb5f3cf5f40c4ba10861b488ee991287" target="_top" xlink:title=" ">
<ellipse fill="white" stroke="#666666" cx="852.71" cy="-806.81" rx="271.18" ry="25.81"/>
<text xml:space="preserve" text-anchor="start" x="668.96" y="-809.66" font-family="Helvetica,sans-Serif" font-size="12.00">com.runehive.game.world.entity.combat.strategy.player.special.range.</text>
<text xml:space="preserve" text-anchor="middle" x="852.71" y="-795.41" font-family="Helvetica,sans-Serif" font-size="12.00">Blowpipe.attack</text>
</a>
</g>
</g>
<!-- Node1&#45;&gt;Node18 -->
<g id="edge20_Node000001_Node000018" class="edge">
<title>Node1&#45;&gt;Node18</title>
<g id="a_edge20_Node000001_Node000018"><a xlink:title=" ">
<path fill="none" stroke="#63b8ff" d="M1682.63,-785.06C1520.62,-789.31 1291.16,-795.33 1114.72,-799.96"/>
<polygon fill="#63b8ff" stroke="#63b8ff" points="1682.27,-788.57 1692.17,-784.81 1682.08,-781.57 1682.27,-788.57"/>
</a>
</g>
</g>
<!-- Node19 -->
<g id="Node000019" class="node">
<title>Node19</title>
<g id="a_Node000019"><a xlink:href="classcom_1_1runehive_1_1game_1_1world_1_1entity_1_1combat_1_1strategy_1_1_combat_strategy.html#acfa6243b563d88f4c7cf986b005c2dee" target="_top" xlink:title="Called when the defending mob blocks a hit from the attacker.">
<ellipse fill="white" stroke="#666666" cx="1407.19" cy="-725.81" rx="193.22" ry="25.81"/>
<text xml:space="preserve" text-anchor="start" x="1278.57" y="-728.66" font-family="Helvetica,sans-Serif" font-size="12.00">com.runehive.game.world.entity.combat.strategy.</text>
<text xml:space="preserve" text-anchor="middle" x="1407.19" y="-714.41" font-family="Helvetica,sans-Serif" font-size="12.00">CombatStrategy.block</text>
</a>
</g>
</g>
<!-- Node1&#45;&gt;Node19 -->
<g id="edge21_Node000001_Node000019" class="edge">
<title>Node1&#45;&gt;Node19</title>
<g id="a_edge21_Node000001_Node000019"><a xlink:title=" ">
<path fill="none" stroke="#63b8ff" d="M1723.74,-761.72C1669.52,-755.55 1609.16,-748.68 1555.86,-742.61"/>
<polygon fill="#63b8ff" stroke="#63b8ff" points="1723.02,-765.16 1733.35,-762.81 1723.81,-758.2 1723.02,-765.16"/>
</a>
</g>
</g>
<!-- Node20 -->
<g id="Node000020" class="node">
<title>Node20</title>
<g id="a_Node000020"><a xlink:href="classcom_1_1runehive_1_1game_1_1world_1_1entity_1_1combat_1_1strategy_1_1npc_1_1boss_1_1_stone_guardian_1_1_magic.html#a084ae62f72bf6b79a8be4f86b51a65c8" target="_top" xlink:title=" ">
<ellipse fill="white" stroke="#666666" cx="1407.19" cy="-655.81" rx="229.28" ry="25.81"/>
<text xml:space="preserve" text-anchor="start" x="1253.07" y="-658.66" font-family="Helvetica,sans-Serif" font-size="12.00">com.runehive.game.world.entity.combat.strategy.npc.boss.</text>
<text xml:space="preserve" text-anchor="middle" x="1407.19" y="-644.41" font-family="Helvetica,sans-Serif" font-size="12.00">StoneGuardian.Magic.getHits</text>
</a>
</g>
</g>
<!-- Node1&#45;&gt;Node20 -->
<g id="edge22_Node000001_Node000020" class="edge">
<title>Node1&#45;&gt;Node20</title>
<g id="a_edge22_Node000001_Node000020"><a xlink:title=" ">
<path fill="none" stroke="#63b8ff" d="M1818.54,-750.18C1773.52,-730.54 1711.44,-705.74 1654.5,-690.81 1628.6,-684.02 1600.8,-678.46 1573.53,-673.94"/>
<polygon fill="#63b8ff" stroke="#63b8ff" points="1817.08,-753.36 1827.64,-754.18 1819.89,-746.95 1817.08,-753.36"/>
</a>
</g>
</g>
<!-- Node21 -->
<g id="Node000021" class="node">
<title>Node21</title>
<g id="a_Node000021"><a xlink:href="classcom_1_1runehive_1_1game_1_1world_1_1entity_1_1combat_1_1strategy_1_1npc_1_1boss_1_1_stone_guardian_1_1_ranged.html#ae3ccd3f2c8573825e9472772babd4f80" target="_top" xlink:title=" ">
<ellipse fill="white" stroke="#666666" cx="1407.19" cy="-585.81" rx="229.28" ry="25.81"/>
<text xml:space="preserve" text-anchor="start" x="1253.07" y="-588.66" font-family="Helvetica,sans-Serif" font-size="12.00">com.runehive.game.world.entity.combat.strategy.npc.boss.</text>
<text xml:space="preserve" text-anchor="middle" x="1407.19" y="-574.41" font-family="Helvetica,sans-Serif" font-size="12.00">StoneGuardian.Ranged.getHits</text>
</a>
</g>
</g>
<!-- Node1&#45;&gt;Node21 -->
<g id="edge23_Node000001_Node000021" class="edge">
<title>Node1&#45;&gt;Node21</title>
<g id="a_edge23_Node000001_Node000021"><a xlink:title=" ">
<path fill="none" stroke="#63b8ff" d="M1846.45,-746.3C1803.9,-709.08 1729.6,-650.35 1654.5,-620.81 1634.11,-612.78 1612.12,-606.57 1589.97,-601.75"/>
<polygon fill="#63b8ff" stroke="#63b8ff" points="1844.09,-748.89 1853.9,-752.89 1848.73,-743.65 1844.09,-748.89"/>
</a>
</g>
</g>
<!-- Node22 -->
<g id="Node000022" class="node">
<title>Node22</title>
<g id="a_Node000022"><a xlink:href="classcom_1_1runehive_1_1game_1_1world_1_1entity_1_1combat_1_1strategy_1_1player_1_1custom_1_1_scythe_of_vitur_strategy.html#a22796b170e17acdb37434ab5d34ee273" target="_top" xlink:title=" ">
<ellipse fill="white" stroke="#666666" cx="1407.19" cy="-515.81" rx="247.31" ry="25.81"/>
<text xml:space="preserve" text-anchor="start" x="1240.32" y="-518.66" font-family="Helvetica,sans-Serif" font-size="12.00">com.runehive.game.world.entity.combat.strategy.player.custom.</text>
<text xml:space="preserve" text-anchor="middle" x="1407.19" y="-504.41" font-family="Helvetica,sans-Serif" font-size="12.00">ScytheOfViturStrategy.hitEvent</text>
</a>
</g>
</g>
<!-- Node1&#45;&gt;Node22 -->
<g id="edge25_Node000001_Node000022" class="edge">
<title>Node1&#45;&gt;Node22</title>
<g id="a_edge25_Node000001_Node000022"><a xlink:title=" ">
<path fill="none" stroke="#63b8ff" d="M1859.25,-744.67C1822.4,-692.66 1745.7,-596.46 1654.5,-550.81 1638.77,-542.93 1621.8,-536.67 1604.39,-531.72"/>
<polygon fill="#63b8ff" stroke="#63b8ff" points="1856.2,-746.41 1864.79,-752.6 1861.93,-742.4 1856.2,-746.41"/>
</a>
</g>
</g>
<!-- Node24 -->
<g id="Node000024" class="node">
<title>Node24</title>
<g id="a_Node000024"><a xlink:href="classcom_1_1runehive_1_1game_1_1world_1_1entity_1_1combat_1_1strategy_1_1_combat_strategy.html#adb21dbc5856903921ca503f2a1b1c65c" target="_top" xlink:title="Called when attacker does the hitsplat.">
<ellipse fill="white" stroke="#666666" cx="1407.19" cy="-445.81" rx="193.22" ry="25.81"/>
<text xml:space="preserve" text-anchor="start" x="1278.57" y="-448.66" font-family="Helvetica,sans-Serif" font-size="12.00">com.runehive.game.world.entity.combat.strategy.</text>
<text xml:space="preserve" text-anchor="middle" x="1407.19" y="-434.41" font-family="Helvetica,sans-Serif" font-size="12.00">CombatStrategy.hitsplat</text>
</a>
</g>
</g>
<!-- Node1&#45;&gt;Node24 -->
<g id="edge27_Node000001_Node000024" class="edge">
<title>Node1&#45;&gt;Node24</title>
<g id="a_edge27_Node000001_Node000024"><a xlink:title=" ">
<path fill="none" stroke="#63b8ff" d="M1866.81,-743.84C1836.09,-679.09 1762.05,-543.82 1654.5,-480.81 1634.47,-469.07 1612,-460.72 1588.98,-454.85"/>
<polygon fill="#63b8ff" stroke="#63b8ff" points="1863.49,-745.01 1870.89,-752.6 1869.84,-742.06 1863.49,-745.01"/>
</a>
</g>
</g>
<!-- Node25 -->
<g id="Node000025" class="node">
<title>Node25</title>
<g id="a_Node000025"><a xlink:href="classcom_1_1runehive_1_1game_1_1world_1_1entity_1_1combat_1_1strategy_1_1_combat_strategy.html#acc07493727ff2af0d0e525a83f22aa5b" target="_top" xlink:title=" ">
<ellipse fill="white" stroke="#666666" cx="1407.19" cy="-1386.81" rx="193.22" ry="25.81"/>
<text xml:space="preserve" text-anchor="start" x="1278.57" y="-1389.66" font-family="Helvetica,sans-Serif" font-size="12.00">com.runehive.game.world.entity.combat.strategy.</text>
<text xml:space="preserve" text-anchor="middle" x="1407.19" y="-1375.41" font-family="Helvetica,sans-Serif" font-size="12.00">CombatStrategy.missed</text>
</a>
</g>
</g>
<!-- Node1&#45;&gt;Node25 -->
<g id="edge28_Node000001_Node000025" class="edge">
<title>Node1&#45;&gt;Node25</title>
<g id="a_edge28_Node000001_Node000025"><a xlink:title=" ">
<path fill="none" stroke="#63b8ff" d="M1873.61,-817.03C1850.63,-904.01 1782.85,-1123.31 1654.5,-1256.81 1606.42,-1306.83 1534.85,-1341.62 1481.23,-1362.54"/>
<polygon fill="#63b8ff" stroke="#63b8ff" points="1876.99,-817.92 1876.11,-807.37 1870.21,-816.17 1876.99,-817.92"/>
</a>
</g>
</g>
<!-- Node26 -->
<g id="Node000026" class="node">
<title>Node26</title>
<g id="a_Node000026"><a xlink:href="classcom_1_1runehive_1_1game_1_1world_1_1entity_1_1combat_1_1strategy_1_1npc_1_1_npc_magic_strategy.html#a4a3c8709c7613be200ac69266a562a71" target="_top" xlink:title=" ">
<ellipse fill="white" stroke="#666666" cx="852.71" cy="-1491.81" rx="209.13" ry="25.81"/>
<text xml:space="preserve" text-anchor="start" x="712.83" y="-1494.66" font-family="Helvetica,sans-Serif" font-size="12.00">com.runehive.game.world.entity.combat.strategy.npc.</text>
<text xml:space="preserve" text-anchor="middle" x="852.71" y="-1480.41" font-family="Helvetica,sans-Serif" font-size="12.00">NpcMagicStrategy.sendProjectile</text>
</a>
</g>
</g>
<!-- Node1&#45;&gt;Node26 -->
<g id="edge41_Node000001_Node000026" class="edge">
<title>Node1&#45;&gt;Node26</title>
<g id="a_edge41_Node000001_Node000026"><a xlink:title=" ">
<path fill="none" stroke="#63b8ff" d="M1882.37,-817.32C1879.09,-930.27 1852.46,-1268.74 1654.5,-1421.81 1564.11,-1491.7 1261.71,-1500.82 1055.51,-1498.32"/>
<polygon fill="#63b8ff" stroke="#63b8ff" points="1885.87,-817.49 1882.61,-807.41 1878.87,-817.32 1885.87,-817.49"/>
</a>
</g>
</g>
<!-- Node31 -->
<g id="Node000031" class="node">
<title>Node31</title>
<g id="a_Node000031"><a xlink:href="classcom_1_1runehive_1_1game_1_1world_1_1entity_1_1combat_1_1strategy_1_1_combat_strategy.html#a24fa35c6d983ece2c7b260adab8bd49d" target="_top" xlink:title=" ">
<ellipse fill="white" stroke="#666666" cx="1407.19" cy="-375.81" rx="193.22" ry="25.81"/>
<text xml:space="preserve" text-anchor="start" x="1278.57" y="-378.66" font-family="Helvetica,sans-Serif" font-size="12.00">com.runehive.game.world.entity.combat.strategy.</text>
<text xml:space="preserve" text-anchor="middle" x="1407.19" y="-364.41" font-family="Helvetica,sans-Serif" font-size="12.00">CombatStrategy.nextMeleeHit</text>
</a>
</g>
</g>
<!-- Node1&#45;&gt;Node31 -->
<g id="edge35_Node000001_Node000031" class="edge">
<title>Node1&#45;&gt;Node31</title>
<g id="a_edge35_Node000001_Node000031"><a xlink:title=" ">
<path fill="none" stroke="#63b8ff" d="M1871.76,-743.05C1846.94,-666.86 1778.74,-492.03 1654.5,-410.81 1635.62,-398.46 1614.18,-389.69 1592.02,-383.56"/>
<polygon fill="#63b8ff" stroke="#63b8ff" points="1868.27,-743.65 1874.65,-752.11 1874.94,-741.52 1868.27,-743.65"/>
</a>
</g>
</g>
<!-- Node32 -->
<g id="Node000032" class="node">
<title>Node32</title>
<g id="a_Node000032"><a xlink:href="classcom_1_1runehive_1_1game_1_1world_1_1entity_1_1combat_1_1strategy_1_1_combat_strategy.html#a6c43dc49d299f3e2c0823b4a90fe0f84" target="_top" xlink:title=" ">
<ellipse fill="white" stroke="#666666" cx="1407.19" cy="-305.81" rx="193.22" ry="25.81"/>
<text xml:space="preserve" text-anchor="start" x="1278.57" y="-308.66" font-family="Helvetica,sans-Serif" font-size="12.00">com.runehive.game.world.entity.combat.strategy.</text>
<text xml:space="preserve" text-anchor="middle" x="1407.19" y="-294.41" font-family="Helvetica,sans-Serif" font-size="12.00">CombatStrategy.onDamage</text>
</a>
</g>
</g>
<!-- Node1&#45;&gt;Node32 -->
<g id="edge36_Node000001_Node000032" class="edge">
<title>Node1&#45;&gt;Node32</title>
<g id="a_edge36_Node000001_Node000032"><a xlink:title=" ">
<path fill="none" stroke="#63b8ff" d="M1875.37,-742.49C1856.17,-655.87 1795.91,-440.97 1654.5,-340.81 1636.44,-328.01 1615.74,-318.94 1594.18,-312.61"/>
<polygon fill="#63b8ff" stroke="#63b8ff" points="1871.91,-743.08 1877.44,-752.12 1878.76,-741.6 1871.91,-743.08"/>
</a>
</g>
</g>
<!-- Node33 -->
<g id="Node000033" class="node">
<title>Node33</title>
<g id="a_Node000033"><a xlink:href="classcom_1_1runehive_1_1game_1_1world_1_1entity_1_1combat_1_1strategy_1_1_combat_strategy.html#a24c2710d3d18bd4718c9e2a9e5832b8e" target="_top" xlink:title="Called when the defending mob dies.">
<ellipse fill="white" stroke="#666666" cx="1407.19" cy="-235.81" rx="193.22" ry="25.81"/>
<text xml:space="preserve" text-anchor="start" x="1278.57" y="-238.66" font-family="Helvetica,sans-Serif" font-size="12.00">com.runehive.game.world.entity.combat.strategy.</text>
<text xml:space="preserve" text-anchor="middle" x="1407.19" y="-224.41" font-family="Helvetica,sans-Serif" font-size="12.00">CombatStrategy.onDeath</text>
</a>
</g>
</g>
<!-- Node1&#45;&gt;Node33 -->
<g id="edge37_Node000001_Node000033" class="edge">
<title>Node1&#45;&gt;Node33</title>
<g id="a_edge37_Node000001_Node000033"><a xlink:title=" ">
<path fill="none" stroke="#63b8ff" d="M1878.18,-742.42C1864.38,-646.45 1813.64,-390.59 1654.5,-270.81 1636.99,-257.63 1616.74,-248.3 1595.53,-241.81"/>
<polygon fill="#63b8ff" stroke="#63b8ff" points="1874.68,-742.64 1879.51,-752.07 1881.61,-741.68 1874.68,-742.64"/>
</a>
</g>
</g>
<!-- Node34 -->
<g id="Node000034" class="node">
<title>Node34</title>
<g id="a_Node000034"><a xlink:href="classcom_1_1runehive_1_1game_1_1world_1_1entity_1_1combat_1_1strategy_1_1_combat_strategy.html#af1ab5f53b504f21d84999c36b484bfdf" target="_top" xlink:title="Called when attacker killed defender.">
<ellipse fill="white" stroke="#666666" cx="1407.19" cy="-165.81" rx="193.22" ry="25.81"/>
<text xml:space="preserve" text-anchor="start" x="1278.57" y="-168.66" font-family="Helvetica,sans-Serif" font-size="12.00">com.runehive.game.world.entity.combat.strategy.</text>
<text xml:space="preserve" text-anchor="middle" x="1407.19" y="-154.41" font-family="Helvetica,sans-Serif" font-size="12.00">CombatStrategy.onKill</text>
</a>
</g>
</g>
<!-- Node1&#45;&gt;Node34 -->
<g id="edge38_Node000001_Node000034" class="edge">
<title>Node1&#45;&gt;Node34</title>
<g id="a_edge38_Node000001_Node000034"><a xlink:title=" ">
<path fill="none" stroke="#63b8ff" d="M1880.39,-742.5C1871.68,-637.95 1831.71,-340.69 1654.5,-200.81 1637.47,-187.36 1617.63,-177.84 1596.75,-171.23"/>
<polygon fill="#63b8ff" stroke="#63b8ff" points="1876.88,-742.5 1881.14,-752.2 1883.85,-741.95 1876.88,-742.5"/>
</a>
</g>
</g>
<!-- Node35 -->
<g id="Node000035" class="node">
<title>Node35</title>
<g id="a_Node000035"><a xlink:href="classcom_1_1runehive_1_1game_1_1world_1_1entity_1_1combat_1_1strategy_1_1_combat_strategy.html#a4db974cf3799d28d25b7330258bda505" target="_top" xlink:title="Called right before the defending mob dies.">
<ellipse fill="white" stroke="#666666" cx="1407.19" cy="-95.81" rx="193.22" ry="25.81"/>
<text xml:space="preserve" text-anchor="start" x="1278.57" y="-98.66" font-family="Helvetica,sans-Serif" font-size="12.00">com.runehive.game.world.entity.combat.strategy.</text>
<text xml:space="preserve" text-anchor="middle" x="1407.19" y="-84.41" font-family="Helvetica,sans-Serif" font-size="12.00">CombatStrategy.preDeath</text>
</a>
</g>
</g>
<!-- Node1&#45;&gt;Node35 -->
<g id="edge39_Node000001_Node000035" class="edge">
<title>Node1&#45;&gt;Node35</title>
<g id="a_edge39_Node000001_Node000035"><a xlink:title=" ">
<path fill="none" stroke="#63b8ff" d="M1882.14,-742.38C1878.19,-629.62 1849.86,-291.03 1654.5,-130.81 1637.72,-117.05 1618.04,-107.34 1597.24,-100.62"/>
<polygon fill="#63b8ff" stroke="#63b8ff" points="1878.64,-742.39 1882.44,-752.28 1885.63,-742.18 1878.64,-742.39"/>
</a>
</g>
</g>
<!-- Node36 -->
<g id="Node000036" class="node">
<title>Node36</title>
<g id="a_Node000036"><a xlink:href="classcom_1_1runehive_1_1game_1_1world_1_1entity_1_1combat_1_1strategy_1_1_combat_strategy.html#a029054e8eb813f4de93e2498def303f6" target="_top" xlink:title="Called before attacker killed defender.">
<ellipse fill="white" stroke="#666666" cx="1407.19" cy="-25.81" rx="193.22" ry="25.81"/>
<text xml:space="preserve" text-anchor="start" x="1278.57" y="-28.66" font-family="Helvetica,sans-Serif" font-size="12.00">com.runehive.game.world.entity.combat.strategy.</text>
<text xml:space="preserve" text-anchor="middle" x="1407.19" y="-14.41" font-family="Helvetica,sans-Serif" font-size="12.00">CombatStrategy.preKill</text>
</a>
</g>
</g>
<!-- Node1&#45;&gt;Node36 -->
<g id="edge40_Node000001_Node000036" class="edge">
<title>Node1&#45;&gt;Node36</title>
<g id="a_edge40_Node000001_Node000036"><a xlink:title=" ">
<path fill="none" stroke="#63b8ff" d="M1883.59,-742.15C1884.13,-621.44 1868.11,-241.57 1654.5,-60.81 1638.02,-46.86 1618.58,-37.02 1597.96,-30.23"/>
<polygon fill="#63b8ff" stroke="#63b8ff" points="1880.09,-742.1 1883.49,-752.14 1887.09,-742.17 1880.09,-742.1"/>
</a>
</g>
</g>
<!-- Node2&#45;&gt;Node3 -->
<g id="edge2_Node000002_Node000003" class="edge">
<title>Node2&#45;&gt;Node3</title>
<g id="a_edge2_Node000002_Node000003"><a xlink:title=" ">
<path fill="none" stroke="#63b8ff" d="M1245.83,-1582.13C1169.09,-1591.85 1077.77,-1603.42 1002.57,-1612.95"/>
<polygon fill="#63b8ff" stroke="#63b8ff" points="1246.07,-1585.63 1255.55,-1580.9 1245.19,-1578.68 1246.07,-1585.63"/>
</a>
</g>
</g>
<!-- Node7 -->
<g id="Node000007" class="node">
<title>Node7</title>
<g id="a_Node000007"><a xlink:href="classcom_1_1runehive_1_1game_1_1world_1_1entity_1_1combat_1_1strategy_1_1player_1_1_player_magic_strategy.html#a9ed23335699a53de8d4ae2eada6d488a" target="_top" xlink:title=" ">
<ellipse fill="white" stroke="#666666" cx="852.71" cy="-1561.81" rx="218.14" ry="25.81"/>
<text xml:space="preserve" text-anchor="start" x="706.46" y="-1564.66" font-family="Helvetica,sans-Serif" font-size="12.00">com.runehive.game.world.entity.combat.strategy.player.</text>
<text xml:space="preserve" text-anchor="middle" x="852.71" y="-1550.41" font-family="Helvetica,sans-Serif" font-size="12.00">PlayerMagicStrategy.start</text>
</a>
</g>
</g>
<!-- Node2&#45;&gt;Node7 -->
<g id="edge6_Node000002_Node000007" class="edge">
<title>Node2&#45;&gt;Node7</title>
<g id="a_edge6_Node000002_Node000007"><a xlink:title=" ">
<path fill="none" stroke="#63b8ff" d="M1180.27,-1561.81C1144.29,-1561.81 1107.12,-1561.81 1071.33,-1561.81"/>
<polygon fill="#63b8ff" stroke="#63b8ff" points="1179.89,-1565.31 1189.89,-1561.81 1179.89,-1558.31 1179.89,-1565.31"/>
</a>
</g>
</g>
<!-- Node4 -->
<g id="Node000004" class="node">
<title>Node4</title>
<g id="a_Node000004"><a xlink:href="classcom_1_1runehive_1_1game_1_1world_1_1entity_1_1combat_1_1strategy_1_1player_1_1_player_melee_strategy.html#a7824ece3ce0087a8e5100a73018097b3" target="_top" xlink:title=" ">
<ellipse fill="white" stroke="#666666" cx="272.77" cy="-1701.81" rx="218.14" ry="25.81"/>
<text xml:space="preserve" text-anchor="start" x="126.52" y="-1704.66" font-family="Helvetica,sans-Serif" font-size="12.00">com.runehive.game.world.entity.combat.strategy.player.</text>
<text xml:space="preserve" text-anchor="middle" x="272.77" y="-1690.41" font-family="Helvetica,sans-Serif" font-size="12.00">PlayerMeleeStrategy.start</text>
</a>
</g>
</g>
<!-- Node3&#45;&gt;Node4 -->
<g id="edge3_Node000003_Node000004" class="edge">
<title>Node3&#45;&gt;Node4</title>
<g id="a_edge3_Node000003_Node000004"><a xlink:title=" ">
<path fill="none" stroke="#63b8ff" d="M687.68,-1651.68C605.87,-1661.58 507.53,-1673.5 427.23,-1683.22"/>
<polygon fill="#63b8ff" stroke="#63b8ff" points="688.1,-1655.15 697.6,-1650.47 687.25,-1648.2 688.1,-1655.15"/>
</a>
</g>
</g>
<!-- Node5 -->
<g id="Node000005" class="node">
<title>Node5</title>
<g id="a_Node000005"><a xlink:href="classcom_1_1runehive_1_1game_1_1world_1_1entity_1_1combat_1_1strategy_1_1player_1_1special_1_1melee_1_1_dinhs_bulwark.html#ad24c0f34ed3d400b6c22343dd7e1d6e4" target="_top" xlink:title=" ">
<ellipse fill="white" stroke="#666666" cx="272.77" cy="-1631.81" rx="272.77" ry="25.81"/>
<text xml:space="preserve" text-anchor="start" x="87.89" y="-1634.66" font-family="Helvetica,sans-Serif" font-size="12.00">com.runehive.game.world.entity.combat.strategy.player.special.melee.</text>
<text xml:space="preserve" text-anchor="middle" x="272.77" y="-1620.41" font-family="Helvetica,sans-Serif" font-size="12.00">DinhsBulwark.start</text>
</a>
</g>
</g>
<!-- Node3&#45;&gt;Node5 -->
<g id="edge4_Node000003_Node000005" class="edge">
<title>Node3&#45;&gt;Node5</title>
<g id="a_edge4_Node000003_Node000005"><a xlink:title=" ">
<path fill="none" stroke="#63b8ff" d="M625.73,-1631.81C599.51,-1631.81 572.57,-1631.81 545.82,-1631.81"/>
<polygon fill="#63b8ff" stroke="#63b8ff" points="625.4,-1635.31 635.4,-1631.81 625.4,-1628.31 625.4,-1635.31"/>
</a>
</g>
</g>
<!-- Node6 -->
<g id="Node000006" class="node">
<title>Node6</title>
<g id="a_Node000006"><a xlink:href="classcom_1_1runehive_1_1game_1_1world_1_1entity_1_1combat_1_1strategy_1_1player_1_1special_1_1melee_1_1_dragon2h.html#a99ce20edbadf311fa3cc9400a0995aac" target="_top" xlink:title=" ">
<ellipse fill="white" stroke="#666666" cx="272.77" cy="-1561.81" rx="272.77" ry="25.81"/>
<text xml:space="preserve" text-anchor="start" x="87.89" y="-1564.66" font-family="Helvetica,sans-Serif" font-size="12.00">com.runehive.game.world.entity.combat.strategy.player.special.melee.</text>
<text xml:space="preserve" text-anchor="middle" x="272.77" y="-1550.41" font-family="Helvetica,sans-Serif" font-size="12.00">Dragon2h.start</text>
</a>
</g>
</g>
<!-- Node3&#45;&gt;Node6 -->
<g id="edge5_Node000003_Node000006" class="edge">
<title>Node3&#45;&gt;Node6</title>
<g id="a_edge5_Node000003_Node000006"><a xlink:title=" ">
<path fill="none" stroke="#63b8ff" d="M687.93,-1611.97C611.45,-1602.71 520.46,-1591.69 443.28,-1582.34"/>
<polygon fill="#63b8ff" stroke="#63b8ff" points="687.25,-1615.42 697.6,-1613.14 688.1,-1608.47 687.25,-1615.42"/>
</a>
</g>
</g>
<!-- Node9 -->
<g id="Node000009" class="node">
<title>Node9</title>
<g id="a_Node000009"><a xlink:href="classcom_1_1runehive_1_1game_1_1world_1_1entity_1_1combat_1_1strategy_1_1player_1_1custom_1_1_toxic_blowpipe_strategy.html#a54651eeed167672d81ac661783217bb7" target="_top" xlink:title=" ">
<ellipse fill="white" stroke="#666666" cx="852.71" cy="-1211.81" rx="247.31" ry="25.81"/>
<text xml:space="preserve" text-anchor="start" x="685.83" y="-1214.66" font-family="Helvetica,sans-Serif" font-size="12.00">com.runehive.game.world.entity.combat.strategy.player.custom.</text>
<text xml:space="preserve" text-anchor="middle" x="852.71" y="-1200.41" font-family="Helvetica,sans-Serif" font-size="12.00">ToxicBlowpipeStrategy.start</text>
</a>
</g>
</g>
<!-- Node8&#45;&gt;Node9 -->
<g id="edge9_Node000008_Node000009" class="edge">
<title>Node8&#45;&gt;Node9</title>
<g id="a_edge9_Node000008_Node000009"><a xlink:title=" ">
<path fill="none" stroke="#63b8ff" d="M1182.55,-1217.76C1154.27,-1217.25 1125.22,-1216.72 1096.66,-1216.21"/>
<polygon fill="#63b8ff" stroke="#63b8ff" points="1182.2,-1221.26 1192.26,-1217.94 1182.33,-1214.26 1182.2,-1221.26"/>
</a>
</g>
</g>
<!-- Node10 -->
<g id="Node000010" class="node">
<title>Node10</title>
<g id="a_Node000010"><a xlink:href="classcom_1_1runehive_1_1game_1_1world_1_1entity_1_1combat_1_1strategy_1_1player_1_1_player_ranged_strategy.html#aa7f52cd37bfd20a543955d00fe6e2962" target="_top" xlink:title=" ">
<ellipse fill="white" stroke="#666666" cx="852.71" cy="-1141.81" rx="218.14" ry="25.81"/>
<text xml:space="preserve" text-anchor="start" x="706.46" y="-1144.66" font-family="Helvetica,sans-Serif" font-size="12.00">com.runehive.game.world.entity.combat.strategy.player.</text>
<text xml:space="preserve" text-anchor="middle" x="852.71" y="-1130.41" font-family="Helvetica,sans-Serif" font-size="12.00">PlayerRangedStrategy.start</text>
</a>
</g>
</g>
<!-- Node8&#45;&gt;Node10 -->
<g id="edge10_Node000008_Node000010" class="edge">
<title>Node8&#45;&gt;Node10</title>
<g id="a_edge10_Node000008_Node000010"><a xlink:title=" ">
<path fill="none" stroke="#63b8ff" d="M1267.59,-1198.89C1221.87,-1191.55 1170.74,-1183.58 1123.88,-1176.81 1085.5,-1171.26 1043.98,-1165.68 1005.28,-1160.65"/>
<polygon fill="#63b8ff" stroke="#63b8ff" points="1266.86,-1202.32 1277.28,-1200.45 1267.97,-1195.4 1266.86,-1202.32"/>
</a>
</g>
</g>
<!-- Node8&#45;&gt;Node11 -->
<g id="edge11_Node000008_Node000011" class="edge">
<title>Node8&#45;&gt;Node11</title>
<g id="a_edge11_Node000008_Node000011"><a xlink:title=" ">
<path fill="none" stroke="#63b8ff" d="M1204.41,-1206.11C1188.51,-1199.88 1173.4,-1191.92 1159.88,-1181.81 1130.27,-1159.67 1153.85,-1128.47 1123.88,-1106.81 1111.91,-1098.15 1098.83,-1091.08 1085.09,-1085.35"/>
<polygon fill="#63b8ff" stroke="#63b8ff" points="1202.95,-1209.3 1213.55,-1209.44 1205.35,-1202.72 1202.95,-1209.3"/>
</a>
</g>
</g>
<!-- Node15 -->
<g id="Node000015" class="node">
<title>Node15</title>
<g id="a_Node000015"><a xlink:href="classcom_1_1runehive_1_1content_1_1activity_1_1infernomobs_1_1_mej_rah_1_1_ranged.html#ab5938aa8817fe8d82f293c4b27af113b" target="_top" xlink:title=" ">
<ellipse fill="white" stroke="#666666" cx="852.71" cy="-973.81" rx="170.41" ry="25.81"/>
<text xml:space="preserve" text-anchor="start" x="740.21" y="-976.66" font-family="Helvetica,sans-Serif" font-size="12.00">com.runehive.content.activity.infernomobs.</text>
<text xml:space="preserve" text-anchor="middle" x="852.71" y="-962.41" font-family="Helvetica,sans-Serif" font-size="12.00">MejRah.Ranged.hit</text>
</a>
</g>
</g>
<!-- Node14&#45;&gt;Node15 -->
<g id="edge15_Node000014_Node000015" class="edge">
<title>Node14&#45;&gt;Node15</title>
<g id="a_edge15_Node000014_Node000015"><a xlink:title=" ">
<path fill="none" stroke="#63b8ff" d="M1186.21,-973.81C1132.08,-973.81 1074.94,-973.81 1023.58,-973.81"/>
<polygon fill="#63b8ff" stroke="#63b8ff" points="1186.2,-977.31 1196.2,-973.81 1186.2,-970.31 1186.2,-977.31"/>
</a>
</g>
</g>
<!-- Node15&#45;&gt;Node15 -->
<g id="edge16_Node000015_Node000015" class="edge">
<title>Node15&#45;&gt;Node15</title>
<g id="a_edge16_Node000015_Node000015"><a xlink:title=" ">
<path fill="none" stroke="#63b8ff" d="M952.51,-1006.41C941.41,-1012.95 908.14,-1017.62 852.71,-1017.62 768.24,-1017.62 735.24,-1006.77 753.72,-995"/>
<polygon fill="#63b8ff" stroke="#63b8ff" points="956,-1006.23 951.81,-996.51 949.02,-1006.73 956,-1006.23"/>
</a>
</g>
</g>
<!-- Node17&#45;&gt;Node18 -->
<g id="edge19_Node000017_Node000018" class="edge">
<title>Node17&#45;&gt;Node18</title>
<g id="a_edge19_Node000017_Node000018"><a xlink:title=" ">
<path fill="none" stroke="#63b8ff" d="M1170.79,-822.31C1145.73,-821.08 1120.21,-819.83 1095.08,-818.61"/>
<polygon fill="#63b8ff" stroke="#63b8ff" points="1170.6,-825.8 1180.76,-822.79 1170.94,-818.81 1170.6,-825.8"/>
</a>
</g>
</g>
<!-- Node23 -->
<g id="Node000023" class="node">
<title>Node23</title>
<g id="a_Node000023"><a xlink:href="classcom_1_1runehive_1_1game_1_1world_1_1entity_1_1combat_1_1strategy_1_1player_1_1custom_1_1_scythe_of_vitur_strategy.html#a42e99b6318d1585539044c89d44fa4a2" target="_top" xlink:title=" ">
<ellipse fill="white" stroke="#666666" cx="852.71" cy="-515.81" rx="247.31" ry="25.81"/>
<text xml:space="preserve" text-anchor="start" x="685.83" y="-518.66" font-family="Helvetica,sans-Serif" font-size="12.00">com.runehive.game.world.entity.combat.strategy.player.custom.</text>
<text xml:space="preserve" text-anchor="middle" x="852.71" y="-504.41" font-family="Helvetica,sans-Serif" font-size="12.00">ScytheOfViturStrategy.start</text>
</a>
</g>
</g>
<!-- Node22&#45;&gt;Node23 -->
<g id="edge26_Node000022_Node000023" class="edge">
<title>Node22&#45;&gt;Node23</title>
<g id="a_edge26_Node000022_Node000023"><a xlink:title=" ">
<path fill="none" stroke="#63b8ff" d="M1148.34,-515.81C1132.29,-515.81 1116.15,-515.81 1100.15,-515.81"/>
<polygon fill="#63b8ff" stroke="#63b8ff" points="1147.93,-519.31 1157.93,-515.81 1147.93,-512.31 1147.93,-519.31"/>
</a>
</g>
</g>
<!-- Node25&#45;&gt;Node7 -->
<g id="edge34_Node000025_Node000007" class="edge">
<title>Node25&#45;&gt;Node7</title>
<g id="a_edge34_Node000025_Node000007"><a xlink:title=" ">
<path fill="none" stroke="#63b8ff" d="M1355.61,-1418.36C1300.71,-1451.04 1209.39,-1500.86 1123.88,-1526.81 1095.03,-1535.56 1063.79,-1542.13 1033.15,-1547.05"/>
<polygon fill="#63b8ff" stroke="#63b8ff" points="1357.36,-1421.4 1364.13,-1413.25 1353.76,-1415.39 1357.36,-1421.4"/>
</a>
</g>
</g>
<!-- Node25&#45;&gt;Node26 -->
<g id="edge29_Node000025_Node000026" class="edge">
<title>Node25&#45;&gt;Node26</title>
<g id="a_edge29_Node000025_Node000026"><a xlink:title=" ">
<path fill="none" stroke="#63b8ff" d="M1310.79,-1413.35C1256.37,-1427.76 1186.68,-1445 1123.88,-1456.81 1087.4,-1463.67 1047.88,-1469.62 1010.63,-1474.56"/>
<polygon fill="#63b8ff" stroke="#63b8ff" points="1311.59,-1416.76 1320.35,-1410.8 1309.79,-1409.99 1311.59,-1416.76"/>
</a>
</g>
</g>
<!-- Node28 -->
<g id="Node000028" class="node">
<title>Node28</title>
<g id="a_Node000028"><a xlink:href="classcom_1_1runehive_1_1game_1_1world_1_1entity_1_1combat_1_1strategy_1_1player_1_1custom_1_1_trident_of_the_seas_strategy.html#ab80067bbfc5ceeb3cc5bcfbd8e951f9a" target="_top" xlink:title=" ">
<ellipse fill="white" stroke="#666666" cx="852.71" cy="-1421.81" rx="247.31" ry="25.81"/>
<text xml:space="preserve" text-anchor="start" x="685.83" y="-1424.66" font-family="Helvetica,sans-Serif" font-size="12.00">com.runehive.game.world.entity.combat.strategy.player.custom.</text>
<text xml:space="preserve" text-anchor="middle" x="852.71" y="-1410.41" font-family="Helvetica,sans-Serif" font-size="12.00">TridentOfTheSeasStrategy.start</text>
</a>
</g>
</g>
<!-- Node25&#45;&gt;Node28 -->
<g id="edge31_Node000025_Node000028" class="edge">
<title>Node25&#45;&gt;Node28</title>
<g id="a_edge31_Node000025_Node000028"><a xlink:title=" ">
<path fill="none" stroke="#63b8ff" d="M1220.54,-1398.57C1170.74,-1401.73 1116.51,-1405.16 1065.41,-1408.4"/>
<polygon fill="#63b8ff" stroke="#63b8ff" points="1220.49,-1402.08 1230.25,-1397.96 1220.05,-1395.09 1220.49,-1402.08"/>
</a>
</g>
</g>
<!-- Node29 -->
<g id="Node000029" class="node">
<title>Node29</title>
<g id="a_Node000029"><a xlink:href="classcom_1_1runehive_1_1game_1_1world_1_1entity_1_1combat_1_1strategy_1_1player_1_1custom_1_1_trident_of_the_swamp_strategy.html#ac873dde053078357bac84bc2dc1c183f" target="_top" xlink:title=" ">
<ellipse fill="white" stroke="#666666" cx="852.71" cy="-1351.81" rx="247.31" ry="25.81"/>
<text xml:space="preserve" text-anchor="start" x="685.83" y="-1354.66" font-family="Helvetica,sans-Serif" font-size="12.00">com.runehive.game.world.entity.combat.strategy.player.custom.</text>
<text xml:space="preserve" text-anchor="middle" x="852.71" y="-1340.41" font-family="Helvetica,sans-Serif" font-size="12.00">TridentOfTheSwampStrategy.start</text>
</a>
</g>
</g>
<!-- Node25&#45;&gt;Node29 -->
<g id="edge32_Node000025_Node000029" class="edge">
<title>Node25&#45;&gt;Node29</title>
<g id="a_edge32_Node000025_Node000029"><a xlink:title=" ">
<path fill="none" stroke="#63b8ff" d="M1220.54,-1375.05C1170.74,-1371.89 1116.51,-1368.46 1065.41,-1365.22"/>
<polygon fill="#63b8ff" stroke="#63b8ff" points="1220.05,-1378.52 1230.25,-1375.66 1220.49,-1371.54 1220.05,-1378.52"/>
</a>
</g>
</g>
<!-- Node30 -->
<g id="Node000030" class="node">
<title>Node30</title>
<g id="a_Node000030"><a xlink:href="classcom_1_1runehive_1_1game_1_1world_1_1entity_1_1combat_1_1strategy_1_1player_1_1custom_1_1_tumeken_strategy.html#a515f87941c1fc67c9ae850f851281b2a" target="_top" xlink:title=" ">
<ellipse fill="white" stroke="#666666" cx="852.71" cy="-1281.81" rx="247.31" ry="25.81"/>
<text xml:space="preserve" text-anchor="start" x="685.83" y="-1284.66" font-family="Helvetica,sans-Serif" font-size="12.00">com.runehive.game.world.entity.combat.strategy.player.custom.</text>
<text xml:space="preserve" text-anchor="middle" x="852.71" y="-1270.41" font-family="Helvetica,sans-Serif" font-size="12.00">TumekenStrategy.start</text>
</a>
</g>
</g>
<!-- Node25&#45;&gt;Node30 -->
<g id="edge33_Node000025_Node000030" class="edge">
<title>Node25&#45;&gt;Node30</title>
<g id="a_edge33_Node000025_Node000030"><a xlink:title=" ">
<path fill="none" stroke="#63b8ff" d="M1310.79,-1360.27C1256.37,-1345.86 1186.68,-1328.62 1123.88,-1316.81 1091.58,-1310.73 1056.9,-1305.38 1023.52,-1300.8"/>
<polygon fill="#63b8ff" stroke="#63b8ff" points="1309.79,-1363.63 1320.35,-1362.82 1311.59,-1356.86 1309.79,-1363.63"/>
</a>
</g>
</g>
<!-- Node27 -->
<g id="Node000027" class="node">
<title>Node27</title>
<g id="a_Node000027"><a xlink:href="classcom_1_1runehive_1_1game_1_1world_1_1entity_1_1combat_1_1strategy_1_1npc_1_1_npc_magic_strategy.html#ac8527e6e2bb7ddeea1c7f686eee03960" target="_top" xlink:title=" ">
<ellipse fill="white" stroke="#666666" cx="272.77" cy="-1491.81" rx="209.13" ry="25.81"/>
<text xml:space="preserve" text-anchor="start" x="132.89" y="-1494.66" font-family="Helvetica,sans-Serif" font-size="12.00">com.runehive.game.world.entity.combat.strategy.npc.</text>
<text xml:space="preserve" text-anchor="middle" x="272.77" y="-1480.41" font-family="Helvetica,sans-Serif" font-size="12.00">NpcMagicStrategy.start</text>
</a>
</g>
</g>
<!-- Node26&#45;&gt;Node27 -->
<g id="edge30_Node000026_Node000027" class="edge">
<title>Node26&#45;&gt;Node27</title>
<g id="a_edge30_Node000026_Node000027"><a xlink:title=" ">
<path fill="none" stroke="#63b8ff" d="M632.05,-1491.81C582.95,-1491.81 531.02,-1491.81 482.39,-1491.81"/>
<polygon fill="#63b8ff" stroke="#63b8ff" points="631.95,-1495.31 641.95,-1491.81 631.95,-1488.31 631.95,-1495.31"/>
</a>
</g>
</g>
</g>
</svg>

<g id="navigator" transform="translate(0 0)" fill="#404254">
  <rect fill="#f2f5e9" fill-opacity="0.5" stroke="#606060" stroke-width=".5" x="0" y="0" width="60" height="60"/>
  <use id="zoomplus" xlink:href="#zoomPlus" x="17" y="9" onmousedown="handleZoom(evt,'in')"/>
  <use id="zoomminus" xlink:href="#zoomMin" x="42" y="9" onmousedown="handleZoom(evt,'out')"/>
  <use id="reset" xlink:href="#resetDef" x="30" y="36" onmousedown="handleReset()"/>
   <use id="arrowup" xlink:href="#arrowUp" x="0" y="0" onmousedown="handlePan(0,-1)"/>
  <use id="arrowright" xlink:href="#arrowRight" x="0" y="0" onmousedown="handlePan(1,0)"/>
  <use id="arrowdown" xlink:href="#arrowDown" x="0" y="0" onmousedown="handlePan(0,1)"/>
  <use id="arrowleft" xlink:href="#arrowLeft" x="0" y="0" onmousedown="handlePan(-1,0)"/>
</g>
<svg viewBox="0 0 15 15" width="100%" height="30px" preserveAspectRatio="xMaxYMin meet">
 <g id="arrow_out" transform="scale(0.3 0.3)">
  <a xlink:href="classcom_1_1runehive_1_1game_1_1world_1_1entity_1_1combat_1_1strategy_1_1_combat_strategy_ae0fc15223ccd357a69095846f176bc22_icgraph_org.svg" target="_base">
   <rect id="button" ry="5" rx="5" y="6" x="6" height="38" width="38"
        fill="#f2f5e9" fill-opacity="0.5" stroke="#606060" stroke-width="1.0"/>
   <path id="arrow"
     d="M 11.500037,31.436501 C 11.940474,20.09759 22.043105,11.32322 32.158766,21.979434 L 37.068811,17.246167 C 37.068811,17.246167 37.088388,32 37.088388,32 L 22.160133,31.978069 C 22.160133,31.978069 26.997745,27.140456 26.997745,27.140456 C 18.528582,18.264221 13.291696,25.230495 11.500037,31.436501 z"
     style="fill:#404040;"/>
  </a>
 </g>
</svg>

<style type='text/css'>
<![CDATA[
[data-mouse-over-selected='false'] { opacity: 0.7; }
[data-mouse-over-selected='true']  { opacity: 1.0; }
]]>
</style>
<script type="application/ecmascript"><![CDATA[
document.addEventListener('DOMContentLoaded', (event) => {
  highlightEdges();
  highlightAdjacentNodes();
});
]]></script>
</svg>
