<?xml version="1.0" encoding="UTF-8" standalone="no"?>
<!DOCTYPE svg PUBLIC "-//W3C//DTD SVG 1.1//EN"
 "http://www.w3.org/Graphics/SVG/1.1/DTD/svg11.dtd">
<!-- Generated by graphviz version 14.0.1 (20251006.0113)
 -->
<!-- Title: com.runehive.game.world.entity.combat.projectile.CombatProjectile.getEnd Pages: 1 -->
<!--zoomable 482 -->

<svg id="main" version="1.1" xmlns="http://www.w3.org/2000/svg" xmlns:xlink="http://www.w3.org/1999/xlink" xml:space="preserve" onload="init(evt)">

<style type="text/css"><![CDATA[
.node, .edge {opacity: 0.7;}
.node.selected, .edge.selected {opacity: 1;}
.edge:hover path { stroke: red; }
.edge:hover polygon { stroke: red; fill: red; }
]]></style>

<defs>
  <circle id="rim" cx="0" cy="0" r="7"/>
  <circle id="rim2" cx="0" cy="0" r="3.5"/>
  <g id="zoomPlus">
    <use xlink:href="#rim" fill="#404040"><set attributeName="fill" to="#808080" begin="zoomplus.mouseover" end="zoomplus.mouseout"/></use>
    <path d="M-4,0h8M0,-4v8" fill="none" stroke="white" stroke-width="1.5" pointer-events="none"/>
  </g>
  <g id="zoomMin">
    <use xlink:href="#rim" fill="#404040"><set attributeName="fill" to="#808080" begin="zoomminus.mouseover" end="zoomminus.mouseout"/></use>
    <path d="M-4,0h8" fill="none" stroke="white" stroke-width="1.5" pointer-events="none"/>
  </g>
  <g id="arrowUp" transform="translate(30 24)">
    <use xlink:href="#rim"/>
    <path pointer-events="none" fill="none" stroke="white" stroke-width="1.5" d="M0,-3.0v7 M-2.5,-0.5L0,-3.0L2.5,-0.5"/>
  </g>
  <g id="arrowRight" transform="rotate(90) translate(36 -43)">
    <use xlink:href="#rim"/>
    <path pointer-events="none" fill="none" stroke="white" stroke-width="1.5" d="M0,-3.0v7 M-2.5,-0.5L0,-3.0L2.5,-0.5"/>
  </g>
  <g id="arrowDown" transform="rotate(180) translate(-30 -48)">
    <use xlink:href="#rim"/>
    <path pointer-events="none" fill="none" stroke="white" stroke-width="1.5" d="M0,-3.0v7 M-2.5,-0.5L0,-3.0L2.5,-0.5"/>
  </g>
  <g id="arrowLeft" transform="rotate(270) translate(-36 17)">
    <use xlink:href="#rim"/>
    <path pointer-events="none" fill="none" stroke="white" stroke-width="1.5" d="M0,-3.0v7 M-2.5,-0.5L0,-3.0L2.5,-0.5"/>
  </g>
  <g id="resetDef">
    <use xlink:href="#rim2" fill="#404040"><set attributeName="fill" to="#808080" begin="reset.mouseover" end="reset.mouseout"/></use>
  </g>
</defs>
<script type="application/ecmascript">
var viewWidth = 1812;
var viewHeight = 482;
var sectionId = 'dynsection-6';
</script>
<script type="application/ecmascript" xlink:href="svg.min.js"/>
<svg id="graph" class="graph">
<g id="viewport">
<title>com.runehive.game.world.entity.combat.projectile.CombatProjectile.getEnd</title>
<!-- Node1 -->
<g id="Node000001" class="node">
<title>Node1</title>
<g id="a_Node000001"><a xlink:title=" ">
<ellipse fill="#999999" stroke="#666666" cx="1605.83" cy="-393.81" rx="198.52" ry="25.81"/>
<text xml:space="preserve" text-anchor="start" x="1473.45" y="-396.66" font-family="Helvetica,sans-Serif" font-size="12.00">com.runehive.game.world.entity.combat.projectile.</text>
<text xml:space="preserve" text-anchor="middle" x="1605.83" y="-382.41" font-family="Helvetica,sans-Serif" font-size="12.00">CombatProjectile.getEnd</text>
</a>
</g>
</g>
<!-- Node2 -->
<g id="Node000002" class="node">
<title>Node2</title>
<g id="a_Node000002"><a xlink:href="enumcom_1_1runehive_1_1game_1_1world_1_1entity_1_1combat_1_1magic_1_1_combat_spell.html#ae27f4f84fc0db98f7bf03bd448b0749f" target="_top" xlink:title=" ">
<ellipse fill="white" stroke="#666666" cx="1178.09" cy="-447.81" rx="186.85" ry="25.81"/>
<text xml:space="preserve" text-anchor="start" x="1053.97" y="-450.66" font-family="Helvetica,sans-Serif" font-size="12.00">com.runehive.game.world.entity.combat.magic.</text>
<text xml:space="preserve" text-anchor="middle" x="1178.09" y="-436.41" font-family="Helvetica,sans-Serif" font-size="12.00">CombatSpell.getEnd</text>
</a>
</g>
</g>
<!-- Node1&#45;&gt;Node2 -->
<g id="edge1_Node000001_Node000002" class="edge">
<title>Node1&#45;&gt;Node2</title>
<g id="a_edge1_Node000001_Node000002"><a xlink:title=" ">
<path fill="none" stroke="#63b8ff" d="M1450.59,-413.37C1407.02,-418.9 1359.9,-424.88 1317.33,-430.28"/>
<polygon fill="#63b8ff" stroke="#63b8ff" points="1450.9,-416.86 1460.38,-412.13 1450.02,-409.92 1450.9,-416.86"/>
</a>
</g>
</g>
<!-- Node3 -->
<g id="Node000003" class="node">
<title>Node3</title>
<g id="a_Node000003"><a xlink:href="classcom_1_1runehive_1_1game_1_1world_1_1entity_1_1combat_1_1strategy_1_1_combat_strategy.html#afde3d648f64107418b12d7022e9a1db8" target="_top" xlink:title=" ">
<ellipse fill="white" stroke="#666666" cx="1178.09" cy="-270.81" rx="193.22" ry="25.81"/>
<text xml:space="preserve" text-anchor="start" x="1049.47" y="-273.66" font-family="Helvetica,sans-Serif" font-size="12.00">com.runehive.game.world.entity.combat.strategy.</text>
<text xml:space="preserve" text-anchor="middle" x="1178.09" y="-259.41" font-family="Helvetica,sans-Serif" font-size="12.00">CombatStrategy.getEndGraphic</text>
</a>
</g>
</g>
<!-- Node1&#45;&gt;Node3 -->
<g id="edge2_Node000001_Node000003" class="edge">
<title>Node1&#45;&gt;Node3</title>
<g id="a_edge2_Node000001_Node000003"><a xlink:title=" ">
<path fill="none" stroke="#63b8ff" d="M1511.42,-366.82C1436.62,-345.21 1332.71,-315.19 1261.09,-294.5"/>
<polygon fill="#63b8ff" stroke="#63b8ff" points="1510.21,-370.11 1520.78,-369.53 1512.15,-363.39 1510.21,-370.11"/>
</a>
</g>
</g>
<!-- Node4 -->
<g id="Node000004" class="node">
<title>Node4</title>
<g id="a_Node000004"><a xlink:href="classcom_1_1runehive_1_1game_1_1world_1_1entity_1_1combat_1_1strategy_1_1_combat_strategy.html#a67408d891137eab6ac02400136c32ac7" target="_top" xlink:title=" ">
<ellipse fill="white" stroke="#666666" cx="701.56" cy="-445.81" rx="193.22" ry="25.81"/>
<text xml:space="preserve" text-anchor="start" x="572.94" y="-448.66" font-family="Helvetica,sans-Serif" font-size="12.00">com.runehive.game.world.entity.combat.strategy.</text>
<text xml:space="preserve" text-anchor="middle" x="701.56" y="-434.41" font-family="Helvetica,sans-Serif" font-size="12.00">CombatStrategy.getEndGraphic</text>
</a>
</g>
</g>
<!-- Node1&#45;&gt;Node4 -->
<g id="edge13_Node000001_Node000004" class="edge">
<title>Node1&#45;&gt;Node4</title>
<g id="a_edge13_Node000001_Node000004"><a xlink:title=" ">
<path fill="none" stroke="#63b8ff" d="M1396.24,-395.75C1275.87,-397.98 1121.69,-402.74 984.87,-412.81 937.38,-416.31 885.58,-421.86 839.47,-427.41"/>
<polygon fill="#63b8ff" stroke="#63b8ff" points="1395.97,-399.26 1405.9,-395.58 1395.84,-392.26 1395.97,-399.26"/>
</a>
</g>
</g>
<!-- Node3&#45;&gt;Node3 -->
<g id="edge3_Node000003_Node000003" class="edge">
<title>Node3&#45;&gt;Node3</title>
<g id="a_edge3_Node000003_Node000003"><a xlink:title=" ">
<path fill="none" stroke="#63b8ff" d="M1252.42,-305.09C1241.87,-310.73 1217.1,-314.62 1178.09,-314.62 1117.94,-314.62 1091.63,-305.38 1099.14,-294.69"/>
<polygon fill="#63b8ff" stroke="#63b8ff" points="1255.57,-306.64 1256.43,-296.08 1249.17,-303.8 1255.57,-306.64"/>
</a>
</g>
</g>
<!-- Node3&#45;&gt;Node4 -->
<g id="edge4_Node000003_Node000004" class="edge">
<title>Node3&#45;&gt;Node4</title>
<g id="a_edge4_Node000003_Node000004"><a xlink:title=" ">
<path fill="none" stroke="#63b8ff" d="M1116.4,-301.31C1077.62,-321.73 1026.92,-350.21 984.87,-379.81 967.61,-391.96 968.1,-402.08 948.87,-410.81 925.77,-421.3 900.29,-428.81 874.76,-434.17"/>
<polygon fill="#63b8ff" stroke="#63b8ff" points="1117.91,-304.47 1125.15,-296.73 1114.67,-298.26 1117.91,-304.47"/>
</a>
</g>
</g>
<!-- Node5 -->
<g id="Node000005" class="node">
<title>Node5</title>
<g id="a_Node000005"><a xlink:href="classcom_1_1runehive_1_1game_1_1world_1_1entity_1_1combat_1_1strategy_1_1npc_1_1_npc_magic_strategy.html#a4a3c8709c7613be200ac69266a562a71" target="_top" xlink:title=" ">
<ellipse fill="white" stroke="#666666" cx="701.56" cy="-375.81" rx="209.13" ry="25.81"/>
<text xml:space="preserve" text-anchor="start" x="561.69" y="-378.66" font-family="Helvetica,sans-Serif" font-size="12.00">com.runehive.game.world.entity.combat.strategy.npc.</text>
<text xml:space="preserve" text-anchor="middle" x="701.56" y="-364.41" font-family="Helvetica,sans-Serif" font-size="12.00">NpcMagicStrategy.sendProjectile</text>
</a>
</g>
</g>
<!-- Node3&#45;&gt;Node5 -->
<g id="edge5_Node000003_Node000005" class="edge">
<title>Node3&#45;&gt;Node5</title>
<g id="a_edge5_Node000003_Node000005"><a xlink:title=" ">
<path fill="none" stroke="#63b8ff" d="M1096.66,-298.85C1053.32,-313.1 998.66,-329.71 948.87,-340.81 918.73,-347.53 886.21,-353.23 855,-357.95"/>
<polygon fill="#63b8ff" stroke="#63b8ff" points="1097.6,-302.23 1105.99,-295.76 1095.4,-295.58 1097.6,-302.23"/>
</a>
</g>
</g>
<!-- Node7 -->
<g id="Node000007" class="node">
<title>Node7</title>
<g id="a_Node000007"><a xlink:href="classcom_1_1runehive_1_1game_1_1world_1_1entity_1_1combat_1_1strategy_1_1npc_1_1_npc_ranged_strategy.html#a49d63ec0ee1b5f4fc9261faec3818793" target="_top" xlink:title=" ">
<ellipse fill="white" stroke="#666666" cx="701.56" cy="-305.81" rx="209.13" ry="25.81"/>
<text xml:space="preserve" text-anchor="start" x="561.69" y="-308.66" font-family="Helvetica,sans-Serif" font-size="12.00">com.runehive.game.world.entity.combat.strategy.npc.</text>
<text xml:space="preserve" text-anchor="middle" x="701.56" y="-294.41" font-family="Helvetica,sans-Serif" font-size="12.00">NpcRangedStrategy.sendProjectile</text>
</a>
</g>
</g>
<!-- Node3&#45;&gt;Node7 -->
<g id="edge7_Node000003_Node000007" class="edge">
<title>Node3&#45;&gt;Node7</title>
<g id="a_edge7_Node000003_Node000007"><a xlink:title=" ">
<path fill="none" stroke="#63b8ff" d="M996.74,-284.11C959.24,-286.88 919.72,-289.79 882.24,-292.56"/>
<polygon fill="#63b8ff" stroke="#63b8ff" points="996.56,-287.63 1006.28,-283.41 996.05,-280.65 996.56,-287.63"/>
</a>
</g>
</g>
<!-- Node9 -->
<g id="Node000009" class="node">
<title>Node9</title>
<g id="a_Node000009"><a xlink:href="classcom_1_1runehive_1_1game_1_1world_1_1entity_1_1combat_1_1strategy_1_1player_1_1custom_1_1_trident_of_the_seas_strategy.html#ab80067bbfc5ceeb3cc5bcfbd8e951f9a" target="_top" xlink:title=" ">
<ellipse fill="white" stroke="#666666" cx="701.56" cy="-235.81" rx="247.31" ry="25.81"/>
<text xml:space="preserve" text-anchor="start" x="534.69" y="-238.66" font-family="Helvetica,sans-Serif" font-size="12.00">com.runehive.game.world.entity.combat.strategy.player.custom.</text>
<text xml:space="preserve" text-anchor="middle" x="701.56" y="-224.41" font-family="Helvetica,sans-Serif" font-size="12.00">TridentOfTheSeasStrategy.start</text>
</a>
</g>
</g>
<!-- Node3&#45;&gt;Node9 -->
<g id="edge9_Node000003_Node000009" class="edge">
<title>Node3&#45;&gt;Node9</title>
<g id="a_edge9_Node000003_Node000009"><a xlink:title=" ">
<path fill="none" stroke="#63b8ff" d="M996.41,-257.48C966.55,-255.28 935.42,-252.98 905.07,-250.75"/>
<polygon fill="#63b8ff" stroke="#63b8ff" points="996.05,-260.97 1006.28,-258.21 996.56,-253.98 996.05,-260.97"/>
</a>
</g>
</g>
<!-- Node10 -->
<g id="Node000010" class="node">
<title>Node10</title>
<g id="a_Node000010"><a xlink:href="classcom_1_1runehive_1_1game_1_1world_1_1entity_1_1combat_1_1strategy_1_1player_1_1custom_1_1_trident_of_the_swamp_strategy.html#ac873dde053078357bac84bc2dc1c183f" target="_top" xlink:title=" ">
<ellipse fill="white" stroke="#666666" cx="701.56" cy="-165.81" rx="247.31" ry="25.81"/>
<text xml:space="preserve" text-anchor="start" x="534.69" y="-168.66" font-family="Helvetica,sans-Serif" font-size="12.00">com.runehive.game.world.entity.combat.strategy.player.custom.</text>
<text xml:space="preserve" text-anchor="middle" x="701.56" y="-154.41" font-family="Helvetica,sans-Serif" font-size="12.00">TridentOfTheSwampStrategy.start</text>
</a>
</g>
</g>
<!-- Node3&#45;&gt;Node10 -->
<g id="edge10_Node000003_Node000010" class="edge">
<title>Node3&#45;&gt;Node10</title>
<g id="a_edge10_Node000003_Node000010"><a xlink:title=" ">
<path fill="none" stroke="#63b8ff" d="M1096.66,-242.77C1053.32,-228.51 998.66,-211.91 948.87,-200.81 922.32,-194.89 893.91,-189.76 866.18,-185.4"/>
<polygon fill="#63b8ff" stroke="#63b8ff" points="1095.4,-246.04 1105.99,-245.86 1097.6,-239.39 1095.4,-246.04"/>
</a>
</g>
</g>
<!-- Node11 -->
<g id="Node000011" class="node">
<title>Node11</title>
<g id="a_Node000011"><a xlink:href="classcom_1_1runehive_1_1game_1_1world_1_1entity_1_1combat_1_1strategy_1_1player_1_1custom_1_1_tumeken_strategy.html#a515f87941c1fc67c9ae850f851281b2a" target="_top" xlink:title=" ">
<ellipse fill="white" stroke="#666666" cx="701.56" cy="-95.81" rx="247.31" ry="25.81"/>
<text xml:space="preserve" text-anchor="start" x="534.69" y="-98.66" font-family="Helvetica,sans-Serif" font-size="12.00">com.runehive.game.world.entity.combat.strategy.player.custom.</text>
<text xml:space="preserve" text-anchor="middle" x="701.56" y="-84.41" font-family="Helvetica,sans-Serif" font-size="12.00">TumekenStrategy.start</text>
</a>
</g>
</g>
<!-- Node3&#45;&gt;Node11 -->
<g id="edge11_Node000003_Node000011" class="edge">
<title>Node3&#45;&gt;Node11</title>
<g id="a_edge11_Node000003_Node000011"><a xlink:title=" ">
<path fill="none" stroke="#63b8ff" d="M1135.74,-238.15C1091.97,-205.39 1019.56,-156.27 948.87,-130.81 928.86,-123.6 907.43,-117.87 885.87,-113.32"/>
<polygon fill="#63b8ff" stroke="#63b8ff" points="1133.61,-240.92 1143.7,-244.16 1137.83,-235.34 1133.61,-240.92"/>
</a>
</g>
</g>
<!-- Node12 -->
<g id="Node000012" class="node">
<title>Node12</title>
<g id="a_Node000012"><a xlink:href="classcom_1_1runehive_1_1game_1_1world_1_1entity_1_1combat_1_1strategy_1_1player_1_1_player_magic_strategy.html#a9ed23335699a53de8d4ae2eada6d488a" target="_top" xlink:title=" ">
<ellipse fill="white" stroke="#666666" cx="701.56" cy="-25.81" rx="218.14" ry="25.81"/>
<text xml:space="preserve" text-anchor="start" x="555.31" y="-28.66" font-family="Helvetica,sans-Serif" font-size="12.00">com.runehive.game.world.entity.combat.strategy.player.</text>
<text xml:space="preserve" text-anchor="middle" x="701.56" y="-14.41" font-family="Helvetica,sans-Serif" font-size="12.00">PlayerMagicStrategy.start</text>
</a>
</g>
</g>
<!-- Node3&#45;&gt;Node12 -->
<g id="edge12_Node000003_Node000012" class="edge">
<title>Node3&#45;&gt;Node12</title>
<g id="a_edge12_Node000003_Node000012"><a xlink:title=" ">
<path fill="none" stroke="#63b8ff" d="M1150.89,-236.04C1112.41,-187.82 1035.73,-101.96 948.87,-60.81 929.65,-51.7 908.71,-44.8 887.42,-39.6"/>
<polygon fill="#63b8ff" stroke="#63b8ff" points="1147.97,-237.99 1156.9,-243.68 1153.47,-233.66 1147.97,-237.99"/>
</a>
</g>
</g>
<!-- Node6 -->
<g id="Node000006" class="node">
<title>Node6</title>
<g id="a_Node000006"><a xlink:href="classcom_1_1runehive_1_1game_1_1world_1_1entity_1_1combat_1_1strategy_1_1npc_1_1_npc_magic_strategy.html#ac8527e6e2bb7ddeea1c7f686eee03960" target="_top" xlink:title=" ">
<ellipse fill="white" stroke="#666666" cx="209.13" cy="-375.81" rx="209.13" ry="25.81"/>
<text xml:space="preserve" text-anchor="start" x="69.25" y="-378.66" font-family="Helvetica,sans-Serif" font-size="12.00">com.runehive.game.world.entity.combat.strategy.npc.</text>
<text xml:space="preserve" text-anchor="middle" x="209.13" y="-364.41" font-family="Helvetica,sans-Serif" font-size="12.00">NpcMagicStrategy.start</text>
</a>
</g>
</g>
<!-- Node5&#45;&gt;Node6 -->
<g id="edge6_Node000005_Node000006" class="edge">
<title>Node5&#45;&gt;Node6</title>
<g id="a_edge6_Node000005_Node000006"><a xlink:title=" ">
<path fill="none" stroke="#63b8ff" d="M480.75,-375.81C460.06,-375.81 439.12,-375.81 418.54,-375.81"/>
<polygon fill="#63b8ff" stroke="#63b8ff" points="480.71,-379.31 490.71,-375.81 480.71,-372.31 480.71,-379.31"/>
</a>
</g>
</g>
<!-- Node8 -->
<g id="Node000008" class="node">
<title>Node8</title>
<g id="a_Node000008"><a xlink:href="classcom_1_1runehive_1_1game_1_1world_1_1entity_1_1combat_1_1strategy_1_1npc_1_1_npc_ranged_strategy.html#abfdf4b2a81563340733b17e318422c3b" target="_top" xlink:title=" ">
<ellipse fill="white" stroke="#666666" cx="209.13" cy="-305.81" rx="209.13" ry="25.81"/>
<text xml:space="preserve" text-anchor="start" x="69.25" y="-308.66" font-family="Helvetica,sans-Serif" font-size="12.00">com.runehive.game.world.entity.combat.strategy.npc.</text>
<text xml:space="preserve" text-anchor="middle" x="209.13" y="-294.41" font-family="Helvetica,sans-Serif" font-size="12.00">NpcRangedStrategy.start</text>
</a>
</g>
</g>
<!-- Node7&#45;&gt;Node8 -->
<g id="edge8_Node000007_Node000008" class="edge">
<title>Node7&#45;&gt;Node8</title>
<g id="a_edge8_Node000007_Node000008"><a xlink:title=" ">
<path fill="none" stroke="#63b8ff" d="M480.75,-305.81C460.06,-305.81 439.12,-305.81 418.54,-305.81"/>
<polygon fill="#63b8ff" stroke="#63b8ff" points="480.71,-309.31 490.71,-305.81 480.71,-302.31 480.71,-309.31"/>
</a>
</g>
</g>
</g>
</svg>

<g id="navigator" transform="translate(0 0)" fill="#404254">
  <rect fill="#f2f5e9" fill-opacity="0.5" stroke="#606060" stroke-width=".5" x="0" y="0" width="60" height="60"/>
  <use id="zoomplus" xlink:href="#zoomPlus" x="17" y="9" onmousedown="handleZoom(evt,'in')"/>
  <use id="zoomminus" xlink:href="#zoomMin" x="42" y="9" onmousedown="handleZoom(evt,'out')"/>
  <use id="reset" xlink:href="#resetDef" x="30" y="36" onmousedown="handleReset()"/>
   <use id="arrowup" xlink:href="#arrowUp" x="0" y="0" onmousedown="handlePan(0,-1)"/>
  <use id="arrowright" xlink:href="#arrowRight" x="0" y="0" onmousedown="handlePan(1,0)"/>
  <use id="arrowdown" xlink:href="#arrowDown" x="0" y="0" onmousedown="handlePan(0,1)"/>
  <use id="arrowleft" xlink:href="#arrowLeft" x="0" y="0" onmousedown="handlePan(-1,0)"/>
</g>
<svg viewBox="0 0 15 15" width="100%" height="30px" preserveAspectRatio="xMaxYMin meet">
 <g id="arrow_out" transform="scale(0.3 0.3)">
  <a xlink:href="classcom_1_1runehive_1_1game_1_1world_1_1entity_1_1combat_1_1projectile_1_1_combat_projectile_ad549cfa59140deb74925de85701d1179_icgraph_org.svg" target="_base">
   <rect id="button" ry="5" rx="5" y="6" x="6" height="38" width="38"
        fill="#f2f5e9" fill-opacity="0.5" stroke="#606060" stroke-width="1.0"/>
   <path id="arrow"
     d="M 11.500037,31.436501 C 11.940474,20.09759 22.043105,11.32322 32.158766,21.979434 L 37.068811,17.246167 C 37.068811,17.246167 37.088388,32 37.088388,32 L 22.160133,31.978069 C 22.160133,31.978069 26.997745,27.140456 26.997745,27.140456 C 18.528582,18.264221 13.291696,25.230495 11.500037,31.436501 z"
     style="fill:#404040;"/>
  </a>
 </g>
</svg>

<style type='text/css'>
<![CDATA[
[data-mouse-over-selected='false'] { opacity: 0.7; }
[data-mouse-over-selected='true']  { opacity: 1.0; }
]]>
</style>
<script type="application/ecmascript"><![CDATA[
document.addEventListener('DOMContentLoaded', (event) => {
  highlightEdges();
  highlightAdjacentNodes();
});
]]></script>
</svg>
