<?xml version="1.0" encoding="UTF-8" standalone="no"?>
<!DOCTYPE svg PUBLIC "-//W3C//DTD SVG 1.1//EN"
 "http://www.w3.org/Graphics/SVG/1.1/DTD/svg11.dtd">
<!-- Generated by graphviz version 14.0.1 (20251006.0113)
 -->
<!-- Title: com.runehive.game.task.impl.BotStartupEvent.tick Pages: 1 -->
<!--zoomable 410 -->

<svg id="main" version="1.1" xmlns="http://www.w3.org/2000/svg" xmlns:xlink="http://www.w3.org/1999/xlink" xml:space="preserve" onload="init(evt)">

<style type="text/css"><![CDATA[
.node, .edge {opacity: 0.7;}
.node.selected, .edge.selected {opacity: 1;}
.edge:hover path { stroke: red; }
.edge:hover polygon { stroke: red; fill: red; }
]]></style>

<defs>
  <circle id="rim" cx="0" cy="0" r="7"/>
  <circle id="rim2" cx="0" cy="0" r="3.5"/>
  <g id="zoomPlus">
    <use xlink:href="#rim" fill="#404040"><set attributeName="fill" to="#808080" begin="zoomplus.mouseover" end="zoomplus.mouseout"/></use>
    <path d="M-4,0h8M0,-4v8" fill="none" stroke="white" stroke-width="1.5" pointer-events="none"/>
  </g>
  <g id="zoomMin">
    <use xlink:href="#rim" fill="#404040"><set attributeName="fill" to="#808080" begin="zoomminus.mouseover" end="zoomminus.mouseout"/></use>
    <path d="M-4,0h8" fill="none" stroke="white" stroke-width="1.5" pointer-events="none"/>
  </g>
  <g id="arrowUp" transform="translate(30 24)">
    <use xlink:href="#rim"/>
    <path pointer-events="none" fill="none" stroke="white" stroke-width="1.5" d="M0,-3.0v7 M-2.5,-0.5L0,-3.0L2.5,-0.5"/>
  </g>
  <g id="arrowRight" transform="rotate(90) translate(36 -43)">
    <use xlink:href="#rim"/>
    <path pointer-events="none" fill="none" stroke="white" stroke-width="1.5" d="M0,-3.0v7 M-2.5,-0.5L0,-3.0L2.5,-0.5"/>
  </g>
  <g id="arrowDown" transform="rotate(180) translate(-30 -48)">
    <use xlink:href="#rim"/>
    <path pointer-events="none" fill="none" stroke="white" stroke-width="1.5" d="M0,-3.0v7 M-2.5,-0.5L0,-3.0L2.5,-0.5"/>
  </g>
  <g id="arrowLeft" transform="rotate(270) translate(-36 17)">
    <use xlink:href="#rim"/>
    <path pointer-events="none" fill="none" stroke="white" stroke-width="1.5" d="M0,-3.0v7 M-2.5,-0.5L0,-3.0L2.5,-0.5"/>
  </g>
  <g id="resetDef">
    <use xlink:href="#rim2" fill="#404040"><set attributeName="fill" to="#808080" begin="reset.mouseover" end="reset.mouseout"/></use>
  </g>
</defs>
<script type="application/ecmascript">
var viewWidth = 1195;
var viewHeight = 410;
var sectionId = 'dynsection-2';
</script>
<script type="application/ecmascript" xlink:href="svg.min.js"/>
<svg id="graph" class="graph">
<g id="viewport">
<title>com.runehive.game.task.impl.BotStartupEvent.tick</title>
<!-- Node1 -->
<g id="Node000001" class="node">
<title>Node1</title>
<g id="a_Node000001"><a xlink:title=" ">
<ellipse fill="#999999" stroke="#666666" cx="123.21" cy="-230.81" rx="123.21" ry="25.81"/>
<text xml:space="preserve" text-anchor="start" x="44.09" y="-233.66" font-family="Helvetica,sans-Serif" font-size="12.00">com.runehive.game.task.impl.</text>
<text xml:space="preserve" text-anchor="middle" x="123.21" y="-219.41" font-family="Helvetica,sans-Serif" font-size="12.00">BotStartupEvent.tick</text>
</a>
</g>
</g>
<!-- Node1&#45;&gt;Node1 -->
<g id="edge12_Node000001_Node000001" class="edge">
<title>Node1&#45;&gt;Node1</title>
<g id="a_edge12_Node000001_Node000001"><a xlink:title=" ">
<path fill="none" stroke="#63b8ff" d="M66.7,-253.8C59.72,-264.86 78.56,-274.62 123.21,-274.62 151.82,-274.62 169.83,-270.61 177.25,-264.83"/>
<polygon fill="#63b8ff" stroke="#63b8ff" points="180.61,-265.8 179.39,-255.28 173.78,-264.26 180.61,-265.8"/>
</a>
</g>
</g>
<!-- Node2 -->
<g id="Node000002" class="node">
<title>Node2</title>
<g id="a_Node000002"><a xlink:href="classcom_1_1runehive_1_1game_1_1task_1_1_task.html#a2fc8d15b55a8f0a55a20c0b78f77007c" target="_top" xlink:title="Cancels all subsequent executions.">
<ellipse fill="white" stroke="#666666" cx="432.16" cy="-317.81" rx="149.73" ry="15.73"/>
<text xml:space="preserve" text-anchor="middle" x="432.16" y="-313.53" font-family="Helvetica,sans-Serif" font-size="12.00">com.runehive.game.task.Task.cancel</text>
</a>
</g>
</g>
<!-- Node1&#45;&gt;Node2 -->
<g id="edge1_Node000001_Node000002" class="edge">
<title>Node1&#45;&gt;Node2</title>
<g id="a_edge1_Node000001_Node000002"><a xlink:title=" ">
<path fill="none" stroke="#63b8ff" d="M197.73,-251.65C249.34,-266.28 317.69,-285.65 367.07,-299.65"/>
<polygon fill="#63b8ff" stroke="#63b8ff" points="365.91,-302.95 376.48,-302.31 367.82,-296.22 365.91,-302.95"/>
</a>
</g>
</g>
<!-- Node4 -->
<g id="Node000004" class="node">
<title>Node4</title>
<g id="a_Node000004"><a xlink:href="classcom_1_1runehive_1_1content_1_1bot_1_1_player_bot.html#a57b0653723c292da02d22ea48809cfd1" target="_top" xlink:title="Registers an entity to the World.">
<ellipse fill="white" stroke="#666666" cx="432.16" cy="-200.81" rx="107.83" ry="25.81"/>
<text xml:space="preserve" text-anchor="start" x="363.91" y="-203.66" font-family="Helvetica,sans-Serif" font-size="12.00">com.runehive.content.bot.</text>
<text xml:space="preserve" text-anchor="middle" x="432.16" y="-189.41" font-family="Helvetica,sans-Serif" font-size="12.00">PlayerBot.register</text>
</a>
</g>
</g>
<!-- Node1&#45;&gt;Node4 -->
<g id="edge3_Node000001_Node000004" class="edge">
<title>Node1&#45;&gt;Node4</title>
<g id="a_edge3_Node000001_Node000004"><a xlink:title=" ">
<path fill="none" stroke="#63b8ff" d="M235.46,-219.94C263.13,-217.23 292.79,-214.33 320.43,-211.63"/>
<polygon fill="#63b8ff" stroke="#63b8ff" points="320.61,-215.13 330.23,-210.67 319.93,-208.16 320.61,-215.13"/>
</a>
</g>
</g>
<!-- Node3 -->
<g id="Node000003" class="node">
<title>Node3</title>
<g id="a_Node000003"><a xlink:href="classcom_1_1runehive_1_1game_1_1task_1_1_task.html#aef9b4245ff3b594dd844c44da99d51a3" target="_top" xlink:title="A function executed on cancellation.">
<ellipse fill="white" stroke="#666666" cx="752.24" cy="-375.81" rx="134.35" ry="25.81"/>
<text xml:space="preserve" text-anchor="start" x="665.24" y="-378.66" font-family="Helvetica,sans-Serif" font-size="12.00">com.runehive.game.task.Task.on</text>
<text xml:space="preserve" text-anchor="middle" x="752.24" y="-364.41" font-family="Helvetica,sans-Serif" font-size="12.00">Cancel</text>
</a>
</g>
</g>
<!-- Node2&#45;&gt;Node3 -->
<g id="edge2_Node000002_Node000003" class="edge">
<title>Node2&#45;&gt;Node3</title>
<g id="a_edge2_Node000002_Node000003"><a xlink:title=" ">
<path fill="none" stroke="#63b8ff" d="M509.34,-331.7C549.08,-338.95 598.38,-347.94 642.09,-355.91"/>
<polygon fill="#63b8ff" stroke="#63b8ff" points="641.41,-359.34 651.88,-357.69 642.67,-352.45 641.41,-359.34"/>
</a>
</g>
</g>
<!-- Node5 -->
<g id="Node000005" class="node">
<title>Node5</title>
<g id="a_Node000005"><a xlink:href="classcom_1_1runehive_1_1game_1_1world_1_1_world.html#aea9414faed608c5daf7defab8f0a1f07" target="_top" xlink:title=" ">
<ellipse fill="white" stroke="#666666" cx="752.24" cy="-305.81" rx="110.49" ry="25.81"/>
<text xml:space="preserve" text-anchor="start" x="682.11" y="-308.66" font-family="Helvetica,sans-Serif" font-size="12.00">com.runehive.game.world.</text>
<text xml:space="preserve" text-anchor="middle" x="752.24" y="-294.41" font-family="Helvetica,sans-Serif" font-size="12.00">World.getPlayers</text>
</a>
</g>
</g>
<!-- Node4&#45;&gt;Node5 -->
<g id="edge4_Node000004_Node000005" class="edge">
<title>Node4&#45;&gt;Node5</title>
<g id="a_edge4_Node000004_Node000005"><a xlink:title=" ">
<path fill="none" stroke="#63b8ff" d="M487.99,-223.33C524.46,-237.88 573.62,-256.66 617.89,-270.81 632.47,-275.47 648.09,-279.99 663.33,-284.14"/>
<polygon fill="#63b8ff" stroke="#63b8ff" points="662.3,-287.49 672.86,-286.71 664.12,-280.73 662.3,-287.49"/>
</a>
</g>
</g>
<!-- Node6 -->
<g id="Node000006" class="node">
<title>Node6</title>
<g id="a_Node000006"><a xlink:href="classcom_1_1runehive_1_1game_1_1world_1_1entity_1_1_entity.html#a8afdd0de68f242bf7082076dfbfffe37" target="_top" xlink:title=" ">
<ellipse fill="white" stroke="#666666" cx="752.24" cy="-235.81" rx="132.23" ry="25.81"/>
<text xml:space="preserve" text-anchor="start" x="666.74" y="-238.66" font-family="Helvetica,sans-Serif" font-size="12.00">com.runehive.game.world.entity.</text>
<text xml:space="preserve" text-anchor="middle" x="752.24" y="-224.41" font-family="Helvetica,sans-Serif" font-size="12.00">Entity.getPosition</text>
</a>
</g>
</g>
<!-- Node4&#45;&gt;Node6 -->
<g id="edge5_Node000004_Node000006" class="edge">
<title>Node4&#45;&gt;Node6</title>
<g id="a_edge5_Node000004_Node000006"><a xlink:title=" ">
<path fill="none" stroke="#63b8ff" d="M530.75,-211.55C560.44,-214.81 593.49,-218.45 624.79,-221.9"/>
<polygon fill="#63b8ff" stroke="#63b8ff" points="624.4,-225.37 634.73,-222.99 625.17,-218.42 624.4,-225.37"/>
</a>
</g>
</g>
<!-- Node7 -->
<g id="Node000007" class="node">
<title>Node7</title>
<g id="a_Node000007"><a xlink:href="classcom_1_1runehive_1_1game_1_1world_1_1entity_1_1_entity.html#a6fbe05d5095666dd6a6ce87d3176c8dc" target="_top" xlink:title=" ">
<ellipse fill="white" stroke="#666666" cx="752.24" cy="-165.81" rx="132.23" ry="25.81"/>
<text xml:space="preserve" text-anchor="start" x="666.74" y="-168.66" font-family="Helvetica,sans-Serif" font-size="12.00">com.runehive.game.world.entity.</text>
<text xml:space="preserve" text-anchor="middle" x="752.24" y="-154.41" font-family="Helvetica,sans-Serif" font-size="12.00">Entity.isRegistered</text>
</a>
</g>
</g>
<!-- Node4&#45;&gt;Node7 -->
<g id="edge6_Node000004_Node000007" class="edge">
<title>Node4&#45;&gt;Node7</title>
<g id="a_edge6_Node000004_Node000007"><a xlink:title=" ">
<path fill="none" stroke="#63b8ff" d="M530.75,-190.07C560.44,-186.8 593.49,-183.17 624.79,-179.72"/>
<polygon fill="#63b8ff" stroke="#63b8ff" points="625.17,-183.2 634.73,-178.63 624.4,-176.24 625.17,-183.2"/>
</a>
</g>
</g>
<!-- Node8 -->
<g id="Node000008" class="node">
<title>Node8</title>
<g id="a_Node000008"><a xlink:href="classcom_1_1runehive_1_1game_1_1world_1_1entity_1_1_entity.html#afdf83a2e020bbacd7b805a8823fe662b" target="_top" xlink:title=" ">
<ellipse fill="white" stroke="#666666" cx="752.24" cy="-95.81" rx="132.23" ry="25.81"/>
<text xml:space="preserve" text-anchor="start" x="666.74" y="-98.66" font-family="Helvetica,sans-Serif" font-size="12.00">com.runehive.game.world.entity.</text>
<text xml:space="preserve" text-anchor="middle" x="752.24" y="-84.41" font-family="Helvetica,sans-Serif" font-size="12.00">Entity.setPosition</text>
</a>
</g>
</g>
<!-- Node4&#45;&gt;Node8 -->
<g id="edge7_Node000004_Node000008" class="edge">
<title>Node4&#45;&gt;Node8</title>
<g id="a_edge7_Node000004_Node000008"><a xlink:title=" ">
<path fill="none" stroke="#63b8ff" d="M487.99,-178.29C524.46,-163.74 573.62,-144.96 617.89,-130.81 630.53,-126.77 643.96,-122.83 657.23,-119.15"/>
<polygon fill="#63b8ff" stroke="#63b8ff" points="658.14,-122.53 666.87,-116.52 656.3,-115.78 658.14,-122.53"/>
</a>
</g>
</g>
<!-- Node12 -->
<g id="Node000012" class="node">
<title>Node12</title>
<g id="a_Node000012"><a xlink:href="classcom_1_1runehive_1_1game_1_1world_1_1entity_1_1_entity.html#a34b9b877cdc7ee49b14d42b45ef38d22" target="_top" xlink:title=" ">
<ellipse fill="white" stroke="#666666" cx="752.24" cy="-25.81" rx="132.23" ry="25.81"/>
<text xml:space="preserve" text-anchor="start" x="666.74" y="-28.66" font-family="Helvetica,sans-Serif" font-size="12.00">com.runehive.game.world.entity.</text>
<text xml:space="preserve" text-anchor="middle" x="752.24" y="-14.41" font-family="Helvetica,sans-Serif" font-size="12.00">Entity.setRegistered</text>
</a>
</g>
</g>
<!-- Node4&#45;&gt;Node12 -->
<g id="edge11_Node000004_Node000012" class="edge">
<title>Node4&#45;&gt;Node12</title>
<g id="a_edge11_Node000004_Node000012"><a xlink:title=" ">
<path fill="none" stroke="#63b8ff" d="M459.37,-175.53C493.29,-144.18 555.46,-91.16 617.89,-60.81 627.73,-56.02 638.32,-51.83 649.07,-48.17"/>
<polygon fill="#63b8ff" stroke="#63b8ff" points="649.97,-51.55 658.41,-45.15 647.82,-44.89 649.97,-51.55"/>
</a>
</g>
</g>
<!-- Node9 -->
<g id="Node000009" class="node">
<title>Node9</title>
<g id="a_Node000009"><a xlink:href="classcom_1_1runehive_1_1game_1_1world_1_1entity_1_1_entity.html#a4d41d635e97c6677d22dd90f57e45ba5" target="_top" xlink:title="Adds this entity to the specified region.">
<ellipse fill="white" stroke="#666666" cx="1054.82" cy="-165.81" rx="132.23" ry="25.81"/>
<text xml:space="preserve" text-anchor="start" x="969.32" y="-168.66" font-family="Helvetica,sans-Serif" font-size="12.00">com.runehive.game.world.entity.</text>
<text xml:space="preserve" text-anchor="middle" x="1054.82" y="-154.41" font-family="Helvetica,sans-Serif" font-size="12.00">Entity.addToRegion</text>
</a>
</g>
</g>
<!-- Node8&#45;&gt;Node9 -->
<g id="edge8_Node000008_Node000009" class="edge">
<title>Node8&#45;&gt;Node9</title>
<g id="a_edge8_Node000008_Node000009"><a xlink:title=" ">
<path fill="none" stroke="#63b8ff" d="M838.57,-115.68C875.53,-124.29 918.99,-134.41 957.14,-143.3"/>
<polygon fill="#63b8ff" stroke="#63b8ff" points="956.27,-146.69 966.8,-145.54 957.85,-139.87 956.27,-146.69"/>
</a>
</g>
</g>
<!-- Node10 -->
<g id="Node000010" class="node">
<title>Node10</title>
<g id="a_Node000010"><a xlink:href="classcom_1_1runehive_1_1game_1_1world_1_1entity_1_1_entity.html#a561452a2370cad1b551c6f717121ab31" target="_top" xlink:title=" ">
<ellipse fill="white" stroke="#666666" cx="1054.82" cy="-95.81" rx="132.23" ry="25.81"/>
<text xml:space="preserve" text-anchor="start" x="969.32" y="-98.66" font-family="Helvetica,sans-Serif" font-size="12.00">com.runehive.game.world.entity.</text>
<text xml:space="preserve" text-anchor="middle" x="1054.82" y="-84.41" font-family="Helvetica,sans-Serif" font-size="12.00">Entity.getHeight</text>
</a>
</g>
</g>
<!-- Node8&#45;&gt;Node10 -->
<g id="edge9_Node000008_Node000010" class="edge">
<title>Node8&#45;&gt;Node10</title>
<g id="a_edge9_Node000008_Node000010"><a xlink:title=" ">
<path fill="none" stroke="#63b8ff" d="M884.64,-95.81C893.32,-95.81 902.08,-95.81 910.81,-95.81"/>
<polygon fill="#63b8ff" stroke="#63b8ff" points="910.74,-99.31 920.74,-95.81 910.74,-92.31 910.74,-99.31"/>
</a>
</g>
</g>
<!-- Node11 -->
<g id="Node000011" class="node">
<title>Node11</title>
<g id="a_Node000011"><a xlink:href="classcom_1_1runehive_1_1game_1_1world_1_1entity_1_1_entity.html#a63126d915af5d3fb24dc111c0a5d6d63" target="_top" xlink:title="Removes this entity from the specified region.">
<ellipse fill="white" stroke="#666666" cx="1054.82" cy="-25.81" rx="132.23" ry="25.81"/>
<text xml:space="preserve" text-anchor="start" x="969.32" y="-28.66" font-family="Helvetica,sans-Serif" font-size="12.00">com.runehive.game.world.entity.</text>
<text xml:space="preserve" text-anchor="middle" x="1054.82" y="-14.41" font-family="Helvetica,sans-Serif" font-size="12.00">Entity.removeFromRegion</text>
</a>
</g>
</g>
<!-- Node8&#45;&gt;Node11 -->
<g id="edge10_Node000008_Node000011" class="edge">
<title>Node8&#45;&gt;Node11</title>
<g id="a_edge10_Node000008_Node000011"><a xlink:title=" ">
<path fill="none" stroke="#63b8ff" d="M838.57,-75.94C875.53,-67.33 918.99,-57.21 957.14,-48.32"/>
<polygon fill="#63b8ff" stroke="#63b8ff" points="957.85,-51.75 966.8,-46.07 956.27,-44.93 957.85,-51.75"/>
</a>
</g>
</g>
</g>
</svg>

<g id="navigator" transform="translate(0 0)" fill="#404254">
  <rect fill="#f2f5e9" fill-opacity="0.5" stroke="#606060" stroke-width=".5" x="0" y="0" width="60" height="60"/>
  <use id="zoomplus" xlink:href="#zoomPlus" x="17" y="9" onmousedown="handleZoom(evt,'in')"/>
  <use id="zoomminus" xlink:href="#zoomMin" x="42" y="9" onmousedown="handleZoom(evt,'out')"/>
  <use id="reset" xlink:href="#resetDef" x="30" y="36" onmousedown="handleReset()"/>
   <use id="arrowup" xlink:href="#arrowUp" x="0" y="0" onmousedown="handlePan(0,-1)"/>
  <use id="arrowright" xlink:href="#arrowRight" x="0" y="0" onmousedown="handlePan(1,0)"/>
  <use id="arrowdown" xlink:href="#arrowDown" x="0" y="0" onmousedown="handlePan(0,1)"/>
  <use id="arrowleft" xlink:href="#arrowLeft" x="0" y="0" onmousedown="handlePan(-1,0)"/>
</g>
<svg viewBox="0 0 15 15" width="100%" height="30px" preserveAspectRatio="xMaxYMin meet">
 <g id="arrow_out" transform="scale(0.3 0.3)">
  <a xlink:href="classcom_1_1runehive_1_1game_1_1task_1_1impl_1_1_bot_startup_event_aa9dc5cc7ab7e9045f6d799854a8b5715_cgraph_org.svg" target="_base">
   <rect id="button" ry="5" rx="5" y="6" x="6" height="38" width="38"
        fill="#f2f5e9" fill-opacity="0.5" stroke="#606060" stroke-width="1.0"/>
   <path id="arrow"
     d="M 11.500037,31.436501 C 11.940474,20.09759 22.043105,11.32322 32.158766,21.979434 L 37.068811,17.246167 C 37.068811,17.246167 37.088388,32 37.088388,32 L 22.160133,31.978069 C 22.160133,31.978069 26.997745,27.140456 26.997745,27.140456 C 18.528582,18.264221 13.291696,25.230495 11.500037,31.436501 z"
     style="fill:#404040;"/>
  </a>
 </g>
</svg>

<style type='text/css'>
<![CDATA[
[data-mouse-over-selected='false'] { opacity: 0.7; }
[data-mouse-over-selected='true']  { opacity: 1.0; }
]]>
</style>
<script type="application/ecmascript"><![CDATA[
document.addEventListener('DOMContentLoaded', (event) => {
  highlightEdges();
  highlightAdjacentNodes();
});
]]></script>
</svg>
