<?xml version="1.0" encoding="UTF-8" standalone="no"?>
<!DOCTYPE svg PUBLIC "-//W3C//DTD SVG 1.1//EN"
 "http://www.w3.org/Graphics/SVG/1.1/DTD/svg11.dtd">
<!-- Generated by graphviz version 14.0.1 (20251006.0113)
 -->
<!-- Title: com.runehive.game.world.items.ItemDefinition.dump Pages: 1 -->
<!--zoomable 232 -->

<svg id="main" version="1.1" xmlns="http://www.w3.org/2000/svg" xmlns:xlink="http://www.w3.org/1999/xlink" xml:space="preserve" onload="init(evt)">

<style type="text/css"><![CDATA[
.node, .edge {opacity: 0.7;}
.node.selected, .edge.selected {opacity: 1;}
.edge:hover path { stroke: red; }
.edge:hover polygon { stroke: red; fill: red; }
]]></style>

<defs>
  <circle id="rim" cx="0" cy="0" r="7"/>
  <circle id="rim2" cx="0" cy="0" r="3.5"/>
  <g id="zoomPlus">
    <use xlink:href="#rim" fill="#404040"><set attributeName="fill" to="#808080" begin="zoomplus.mouseover" end="zoomplus.mouseout"/></use>
    <path d="M-4,0h8M0,-4v8" fill="none" stroke="white" stroke-width="1.5" pointer-events="none"/>
  </g>
  <g id="zoomMin">
    <use xlink:href="#rim" fill="#404040"><set attributeName="fill" to="#808080" begin="zoomminus.mouseover" end="zoomminus.mouseout"/></use>
    <path d="M-4,0h8" fill="none" stroke="white" stroke-width="1.5" pointer-events="none"/>
  </g>
  <g id="arrowUp" transform="translate(30 24)">
    <use xlink:href="#rim"/>
    <path pointer-events="none" fill="none" stroke="white" stroke-width="1.5" d="M0,-3.0v7 M-2.5,-0.5L0,-3.0L2.5,-0.5"/>
  </g>
  <g id="arrowRight" transform="rotate(90) translate(36 -43)">
    <use xlink:href="#rim"/>
    <path pointer-events="none" fill="none" stroke="white" stroke-width="1.5" d="M0,-3.0v7 M-2.5,-0.5L0,-3.0L2.5,-0.5"/>
  </g>
  <g id="arrowDown" transform="rotate(180) translate(-30 -48)">
    <use xlink:href="#rim"/>
    <path pointer-events="none" fill="none" stroke="white" stroke-width="1.5" d="M0,-3.0v7 M-2.5,-0.5L0,-3.0L2.5,-0.5"/>
  </g>
  <g id="arrowLeft" transform="rotate(270) translate(-36 17)">
    <use xlink:href="#rim"/>
    <path pointer-events="none" fill="none" stroke="white" stroke-width="1.5" d="M0,-3.0v7 M-2.5,-0.5L0,-3.0L2.5,-0.5"/>
  </g>
  <g id="resetDef">
    <use xlink:href="#rim2" fill="#404040"><set attributeName="fill" to="#808080" begin="reset.mouseover" end="reset.mouseout"/></use>
  </g>
</defs>
<script type="application/ecmascript">
var viewWidth = 1059;
var viewHeight = 232;
var sectionId = 'dynsection-6';
</script>
<script type="application/ecmascript" xlink:href="svg.min.js"/>
<svg id="graph" class="graph">
<g id="viewport">
<title>com.runehive.game.world.items.ItemDefinition.dump</title>
<!-- Node1 -->
<g id="Node000001" class="node">
<title>Node1</title>
<g id="a_Node000001"><a xlink:title=" ">
<ellipse fill="#999999" stroke="#666666" cx="132.76" cy="-93.27" rx="132.76" ry="25.81"/>
<text xml:space="preserve" text-anchor="start" x="46.88" y="-96.12" font-family="Helvetica,sans-Serif" font-size="12.00">com.runehive.game.world.items.</text>
<text xml:space="preserve" text-anchor="middle" x="132.76" y="-81.87" font-family="Helvetica,sans-Serif" font-size="12.00">ItemDefinition.dump</text>
</a>
</g>
</g>
<!-- Node2 -->
<g id="Node000002" class="node">
<title>Node2</title>
<g id="a_Node000002"><a xlink:href="classcom_1_1runehive_1_1util_1_1parser_1_1_json_saver.html#a6cd9b2e3347c4f9cc12975f96e87b71b" target="_top" xlink:title=" ">
<ellipse fill="white" stroke="#666666" cx="434.28" cy="-198.27" rx="103.06" ry="25.81"/>
<text xml:space="preserve" text-anchor="start" x="369.4" y="-201.12" font-family="Helvetica,sans-Serif" font-size="12.00">com.runehive.util.parser.</text>
<text xml:space="preserve" text-anchor="middle" x="434.28" y="-186.87" font-family="Helvetica,sans-Serif" font-size="12.00">JsonSaver.current</text>
</a>
</g>
</g>
<!-- Node1&#45;&gt;Node2 -->
<g id="edge1_Node000001_Node000002" class="edge">
<title>Node1&#45;&gt;Node2</title>
<g id="a_edge1_Node000001_Node000002"><a xlink:title=" ">
<path fill="none" stroke="#63b8ff" d="M185.95,-117.2C218.71,-131.68 262.07,-149.87 301.52,-163.27 316.45,-168.34 332.53,-173.14 348.16,-177.47"/>
<polygon fill="#63b8ff" stroke="#63b8ff" points="346.85,-180.74 357.42,-179.99 348.69,-173.99 346.85,-180.74"/>
</a>
</g>
</g>
<!-- Node3 -->
<g id="Node000003" class="node">
<title>Node3</title>
<g id="a_Node000003"><a xlink:href="classcom_1_1runehive_1_1game_1_1world_1_1items_1_1_item_definition.html#a4fafaf641c0490165d697a73006e76bf" target="_top" xlink:title=" ">
<ellipse fill="white" stroke="#666666" cx="434.28" cy="-128.27" rx="132.76" ry="25.81"/>
<text xml:space="preserve" text-anchor="start" x="348.4" y="-131.12" font-family="Helvetica,sans-Serif" font-size="12.00">com.runehive.game.world.items.</text>
<text xml:space="preserve" text-anchor="middle" x="434.28" y="-116.87" font-family="Helvetica,sans-Serif" font-size="12.00">ItemDefinition.ItemDefinition</text>
</a>
</g>
</g>
<!-- Node1&#45;&gt;Node3 -->
<g id="edge2_Node000001_Node000003" class="edge">
<title>Node1&#45;&gt;Node3</title>
<g id="a_edge2_Node000001_Node000003"><a xlink:title=" ">
<path fill="none" stroke="#63b8ff" d="M247.42,-106.55C267.39,-108.88 288.27,-111.32 308.52,-113.69"/>
<polygon fill="#63b8ff" stroke="#63b8ff" points="307.85,-117.13 318.19,-114.82 308.66,-110.18 307.85,-117.13"/>
</a>
</g>
</g>
<!-- Node4 -->
<g id="Node000004" class="node">
<title>Node4</title>
<g id="a_Node000004"><a xlink:href="classcom_1_1runehive_1_1util_1_1parser_1_1_json_saver.html#a23ba1214d21439feabf7dc41b9efd9c2" target="_top" xlink:title="Publishes the contents of this JsonSaver to the file at path.">
<ellipse fill="white" stroke="#666666" cx="434.28" cy="-58.27" rx="103.06" ry="25.81"/>
<text xml:space="preserve" text-anchor="start" x="369.4" y="-61.12" font-family="Helvetica,sans-Serif" font-size="12.00">com.runehive.util.parser.</text>
<text xml:space="preserve" text-anchor="middle" x="434.28" y="-46.87" font-family="Helvetica,sans-Serif" font-size="12.00">JsonSaver.publish</text>
</a>
</g>
</g>
<!-- Node1&#45;&gt;Node4 -->
<g id="edge3_Node000001_Node000004" class="edge">
<title>Node1&#45;&gt;Node4</title>
<g id="a_edge3_Node000001_Node000004"><a xlink:title=" ">
<path fill="none" stroke="#63b8ff" d="M247.42,-79.99C274.21,-76.86 302.64,-73.53 328.99,-70.45"/>
<polygon fill="#63b8ff" stroke="#63b8ff" points="329.12,-73.96 338.64,-69.33 328.3,-67.01 329.12,-73.96"/>
</a>
</g>
</g>
<!-- Node6 -->
<g id="Node000006" class="node">
<title>Node6</title>
<g id="a_Node000006"><a xlink:href="classcom_1_1runehive_1_1util_1_1parser_1_1_json_saver.html#a023b142424f0b3bf27f0587e8f8baac2" target="_top" xlink:title="Adds the data within currentWriter to the internal JsonArray then instantiates a new writer,...">
<ellipse fill="white" stroke="#666666" cx="948.22" cy="-31.27" rx="103.06" ry="25.81"/>
<text xml:space="preserve" text-anchor="start" x="883.34" y="-34.12" font-family="Helvetica,sans-Serif" font-size="12.00">com.runehive.util.parser.</text>
<text xml:space="preserve" text-anchor="middle" x="948.22" y="-19.87" font-family="Helvetica,sans-Serif" font-size="12.00">JsonSaver.split</text>
</a>
</g>
</g>
<!-- Node1&#45;&gt;Node6 -->
<g id="edge6_Node000001_Node000006" class="edge">
<title>Node1&#45;&gt;Node6</title>
<g id="a_edge6_Node000001_Node000006"><a xlink:title=" ">
<path fill="none" stroke="#63b8ff" d="M178.84,-68.7C211.76,-52.21 258.04,-31.97 301.52,-23.27 491.19,14.72 718.51,-2.14 846.56,-17.16"/>
<polygon fill="#63b8ff" stroke="#63b8ff" points="846.04,-20.62 856.38,-18.33 846.87,-13.67 846.04,-20.62"/>
</a>
</g>
</g>
<!-- Node5 -->
<g id="Node000005" class="node">
<title>Node5</title>
<g id="a_Node000005"><a xlink:href="classcom_1_1runehive_1_1util_1_1parser_1_1_json_saver.html#a2daa06b67ed4015846e34b1ea7e2812a" target="_top" xlink:title="Invocation of this function is expensive and should be cached or avoided whenever possible.">
<ellipse fill="white" stroke="#666666" cx="706.1" cy="-58.27" rx="103.06" ry="25.81"/>
<text xml:space="preserve" text-anchor="start" x="641.22" y="-61.12" font-family="Helvetica,sans-Serif" font-size="12.00">com.runehive.util.parser.</text>
<text xml:space="preserve" text-anchor="middle" x="706.1" y="-46.87" font-family="Helvetica,sans-Serif" font-size="12.00">JsonSaver.toString</text>
</a>
</g>
</g>
<!-- Node4&#45;&gt;Node5 -->
<g id="edge4_Node000004_Node000005" class="edge">
<title>Node4&#45;&gt;Node5</title>
<g id="a_edge4_Node000004_Node000005"><a xlink:title=" ">
<path fill="none" stroke="#63b8ff" d="M537.67,-58.27C555.24,-58.27 573.6,-58.27 591.44,-58.27"/>
<polygon fill="#63b8ff" stroke="#63b8ff" points="591.26,-61.77 601.26,-58.27 591.26,-54.77 591.26,-61.77"/>
</a>
</g>
</g>
<!-- Node5&#45;&gt;Node6 -->
<g id="edge5_Node000005_Node000006" class="edge">
<title>Node5&#45;&gt;Node6</title>
<g id="a_edge5_Node000005_Node000006"><a xlink:title=" ">
<path fill="none" stroke="#63b8ff" d="M800.62,-47.75C814.34,-46.21 828.54,-44.61 842.46,-43.05"/>
<polygon fill="#63b8ff" stroke="#63b8ff" points="842.5,-46.56 852.05,-41.97 841.72,-39.61 842.5,-46.56"/>
</a>
</g>
</g>
</g>
</svg>

<g id="navigator" transform="translate(0 0)" fill="#404254">
  <rect fill="#f2f5e9" fill-opacity="0.5" stroke="#606060" stroke-width=".5" x="0" y="0" width="60" height="60"/>
  <use id="zoomplus" xlink:href="#zoomPlus" x="17" y="9" onmousedown="handleZoom(evt,'in')"/>
  <use id="zoomminus" xlink:href="#zoomMin" x="42" y="9" onmousedown="handleZoom(evt,'out')"/>
  <use id="reset" xlink:href="#resetDef" x="30" y="36" onmousedown="handleReset()"/>
   <use id="arrowup" xlink:href="#arrowUp" x="0" y="0" onmousedown="handlePan(0,-1)"/>
  <use id="arrowright" xlink:href="#arrowRight" x="0" y="0" onmousedown="handlePan(1,0)"/>
  <use id="arrowdown" xlink:href="#arrowDown" x="0" y="0" onmousedown="handlePan(0,1)"/>
  <use id="arrowleft" xlink:href="#arrowLeft" x="0" y="0" onmousedown="handlePan(-1,0)"/>
</g>
<svg viewBox="0 0 15 15" width="100%" height="30px" preserveAspectRatio="xMaxYMin meet">
 <g id="arrow_out" transform="scale(0.3 0.3)">
  <a xlink:href="classcom_1_1runehive_1_1game_1_1world_1_1items_1_1_item_definition_a1387070cb1794a3966e2ca05b1b33c14_cgraph_org.svg" target="_base">
   <rect id="button" ry="5" rx="5" y="6" x="6" height="38" width="38"
        fill="#f2f5e9" fill-opacity="0.5" stroke="#606060" stroke-width="1.0"/>
   <path id="arrow"
     d="M 11.500037,31.436501 C 11.940474,20.09759 22.043105,11.32322 32.158766,21.979434 L 37.068811,17.246167 C 37.068811,17.246167 37.088388,32 37.088388,32 L 22.160133,31.978069 C 22.160133,31.978069 26.997745,27.140456 26.997745,27.140456 C 18.528582,18.264221 13.291696,25.230495 11.500037,31.436501 z"
     style="fill:#404040;"/>
  </a>
 </g>
</svg>

<style type='text/css'>
<![CDATA[
[data-mouse-over-selected='false'] { opacity: 0.7; }
[data-mouse-over-selected='true']  { opacity: 1.0; }
]]>
</style>
<script type="application/ecmascript"><![CDATA[
document.addEventListener('DOMContentLoaded', (event) => {
  highlightEdges();
  highlightAdjacentNodes();
});
]]></script>
</svg>
