<?xml version="1.0" encoding="UTF-8" standalone="no"?>
<!DOCTYPE svg PUBLIC "-//W3C//DTD SVG 1.1//EN"
 "http://www.w3.org/Graphics/SVG/1.1/DTD/svg11.dtd">
<!-- Generated by graphviz version 14.0.1 (20251006.0113)
 -->
<!-- Title: com.runehive.content.collectionlog.CollectionLog.loadPage Pages: 1 -->
<!--zoomable 734 -->

<svg id="main" version="1.1" xmlns="http://www.w3.org/2000/svg" xmlns:xlink="http://www.w3.org/1999/xlink" xml:space="preserve" onload="init(evt)">

<style type="text/css"><![CDATA[
.node, .edge {opacity: 0.7;}
.node.selected, .edge.selected {opacity: 1;}
.edge:hover path { stroke: red; }
.edge:hover polygon { stroke: red; fill: red; }
]]></style>

<defs>
  <circle id="rim" cx="0" cy="0" r="7"/>
  <circle id="rim2" cx="0" cy="0" r="3.5"/>
  <g id="zoomPlus">
    <use xlink:href="#rim" fill="#404040"><set attributeName="fill" to="#808080" begin="zoomplus.mouseover" end="zoomplus.mouseout"/></use>
    <path d="M-4,0h8M0,-4v8" fill="none" stroke="white" stroke-width="1.5" pointer-events="none"/>
  </g>
  <g id="zoomMin">
    <use xlink:href="#rim" fill="#404040"><set attributeName="fill" to="#808080" begin="zoomminus.mouseover" end="zoomminus.mouseout"/></use>
    <path d="M-4,0h8" fill="none" stroke="white" stroke-width="1.5" pointer-events="none"/>
  </g>
  <g id="arrowUp" transform="translate(30 24)">
    <use xlink:href="#rim"/>
    <path pointer-events="none" fill="none" stroke="white" stroke-width="1.5" d="M0,-3.0v7 M-2.5,-0.5L0,-3.0L2.5,-0.5"/>
  </g>
  <g id="arrowRight" transform="rotate(90) translate(36 -43)">
    <use xlink:href="#rim"/>
    <path pointer-events="none" fill="none" stroke="white" stroke-width="1.5" d="M0,-3.0v7 M-2.5,-0.5L0,-3.0L2.5,-0.5"/>
  </g>
  <g id="arrowDown" transform="rotate(180) translate(-30 -48)">
    <use xlink:href="#rim"/>
    <path pointer-events="none" fill="none" stroke="white" stroke-width="1.5" d="M0,-3.0v7 M-2.5,-0.5L0,-3.0L2.5,-0.5"/>
  </g>
  <g id="arrowLeft" transform="rotate(270) translate(-36 17)">
    <use xlink:href="#rim"/>
    <path pointer-events="none" fill="none" stroke="white" stroke-width="1.5" d="M0,-3.0v7 M-2.5,-0.5L0,-3.0L2.5,-0.5"/>
  </g>
  <g id="resetDef">
    <use xlink:href="#rim2" fill="#404040"><set attributeName="fill" to="#808080" begin="reset.mouseover" end="reset.mouseout"/></use>
  </g>
</defs>
<script type="application/ecmascript">
var viewWidth = 1782;
var viewHeight = 734;
var sectionId = 'dynsection-11';
</script>
<script type="application/ecmascript" xlink:href="svg.min.js"/>
<svg id="graph" class="graph">
<g id="viewport">
<title>com.runehive.content.collectionlog.CollectionLog.loadPage</title>
<!-- Node1 -->
<g id="Node000001" class="node">
<title>Node1</title>
<g id="a_Node000001"><a xlink:title=" ">
<ellipse fill="#999999" stroke="#666666" cx="143.9" cy="-192.81" rx="143.9" ry="25.81"/>
<text xml:space="preserve" text-anchor="start" x="50.15" y="-195.66" font-family="Helvetica,sans-Serif" font-size="12.00">com.runehive.content.collectionlog.</text>
<text xml:space="preserve" text-anchor="middle" x="143.9" y="-181.41" font-family="Helvetica,sans-Serif" font-size="12.00">CollectionLog.loadPage</text>
</a>
</g>
</g>
<!-- Node2 -->
<g id="Node000002" class="node">
<title>Node2</title>
<g id="a_Node000002"><a xlink:href="enumcom_1_1runehive_1_1content_1_1collectionlog_1_1_collection_log_data.html#a2f3513ab5f20cf2e6da1a2ce34b96803" target="_top" xlink:title=" ">
<ellipse fill="white" stroke="#666666" cx="823.3" cy="-95.81" rx="143.9" ry="25.81"/>
<text xml:space="preserve" text-anchor="start" x="729.55" y="-98.66" font-family="Helvetica,sans-Serif" font-size="12.00">com.runehive.content.collectionlog.</text>
<text xml:space="preserve" text-anchor="middle" x="823.3" y="-84.41" font-family="Helvetica,sans-Serif" font-size="12.00">CollectionLogData.getPageList</text>
</a>
</g>
</g>
<!-- Node1&#45;&gt;Node2 -->
<g id="edge1_Node000001_Node000002" class="edge">
<title>Node1&#45;&gt;Node2</title>
<g id="a_edge1_Node000001_Node000002"><a xlink:title=" ">
<path fill="none" stroke="#63b8ff" d="M257.52,-176.68C379.13,-159.27 572.3,-131.61 698.2,-113.58"/>
<polygon fill="#63b8ff" stroke="#63b8ff" points="698.51,-117.07 707.91,-112.19 697.52,-110.14 698.51,-117.07"/>
</a>
</g>
</g>
<!-- Node5 -->
<g id="Node000005" class="node">
<title>Node5</title>
<g id="a_Node000005"><a xlink:href="classcom_1_1runehive_1_1content_1_1collectionlog_1_1_collection_log.html#a99597826d89074ce9440f833a8dcb78b" target="_top" xlink:title=" ">
<ellipse fill="white" stroke="#666666" cx="467.69" cy="-419.81" rx="143.9" ry="25.81"/>
<text xml:space="preserve" text-anchor="start" x="373.94" y="-422.66" font-family="Helvetica,sans-Serif" font-size="12.00">com.runehive.content.collectionlog.</text>
<text xml:space="preserve" text-anchor="middle" x="467.69" y="-408.41" font-family="Helvetica,sans-Serif" font-size="12.00">CollectionLog.selectLog</text>
</a>
</g>
</g>
<!-- Node1&#45;&gt;Node5 -->
<g id="edge4_Node000001_Node000005" class="edge">
<title>Node1&#45;&gt;Node5</title>
<g id="a_edge4_Node000001_Node000005"><a xlink:title=" ">
<path fill="none" stroke="#63b8ff" d="M180.87,-218.19C239.96,-259.87 357.42,-342.73 421.84,-388.17"/>
<polygon fill="#63b8ff" stroke="#63b8ff" points="419.52,-390.82 429.71,-393.72 423.55,-385.1 419.52,-390.82"/>
</a>
</g>
</g>
<!-- Node15 -->
<g id="Node000015" class="node">
<title>Node15</title>
<g id="a_Node000015"><a xlink:href="classcom_1_1runehive_1_1game_1_1world_1_1entity_1_1mob_1_1player_1_1_player.html#ab8309e5d532b7540f48bf25f8dea92a8" target="_top" xlink:title=" ">
<ellipse fill="white" stroke="#666666" cx="823.3" cy="-165.81" rx="175.72" ry="25.81"/>
<text xml:space="preserve" text-anchor="start" x="707.05" y="-168.66" font-family="Helvetica,sans-Serif" font-size="12.00">com.runehive.game.world.entity.mob.player.</text>
<text xml:space="preserve" text-anchor="middle" x="823.3" y="-154.41" font-family="Helvetica,sans-Serif" font-size="12.00">Player.send</text>
</a>
</g>
</g>
<!-- Node1&#45;&gt;Node15 -->
<g id="edge20_Node000001_Node000015" class="edge">
<title>Node1&#45;&gt;Node15</title>
<g id="a_edge20_Node000001_Node000015"><a xlink:title=" ">
<path fill="none" stroke="#63b8ff" d="M284.06,-186.5C297.49,-185.91 310.9,-185.34 323.79,-184.81 428.78,-180.46 546.21,-175.97 640.72,-172.44"/>
<polygon fill="#63b8ff" stroke="#63b8ff" points="640.75,-175.94 650.62,-172.07 640.49,-168.95 640.75,-175.94"/>
</a>
</g>
</g>
<!-- Node19 -->
<g id="Node000019" class="node">
<title>Node19</title>
<g id="a_Node000019"><a xlink:href="classcom_1_1runehive_1_1content_1_1collectionlog_1_1_collection_log.html#a64c4fc187a17e866d646d24feeefdea9" target="_top" xlink:title=" ">
<ellipse fill="white" stroke="#666666" cx="467.69" cy="-219.81" rx="143.9" ry="25.81"/>
<text xml:space="preserve" text-anchor="start" x="373.94" y="-222.66" font-family="Helvetica,sans-Serif" font-size="12.00">com.runehive.content.collectionlog.</text>
<text xml:space="preserve" text-anchor="middle" x="467.69" y="-208.41" font-family="Helvetica,sans-Serif" font-size="12.00">CollectionLog.sendButtons</text>
</a>
</g>
</g>
<!-- Node1&#45;&gt;Node19 -->
<g id="edge21_Node000001_Node000019" class="edge">
<title>Node1&#45;&gt;Node19</title>
<g id="a_edge21_Node000001_Node000019"><a xlink:title=" ">
<path fill="none" stroke="#63b8ff" d="M274.85,-203.71C291.52,-205.11 308.65,-206.55 325.49,-207.96"/>
<polygon fill="#63b8ff" stroke="#63b8ff" points="324.74,-211.41 335,-208.76 325.33,-204.44 324.74,-211.41"/>
</a>
</g>
</g>
<!-- Node3 -->
<g id="Node000003" class="node">
<title>Node3</title>
<g id="a_Node000003"><a xlink:href="enumcom_1_1runehive_1_1content_1_1collectionlog_1_1_collection_log_data.html#a5844e530be55c681fd3c8803f8a4867f" target="_top" xlink:title=" ">
<ellipse fill="white" stroke="#666666" cx="1210.73" cy="-25.81" rx="154.5" ry="25.81"/>
<text xml:space="preserve" text-anchor="start" x="1109.48" y="-28.66" font-family="Helvetica,sans-Serif" font-size="12.00">com.runehive.content.collectionlog.</text>
<text xml:space="preserve" text-anchor="middle" x="1210.73" y="-14.41" font-family="Helvetica,sans-Serif" font-size="12.00">CollectionLogData.CollectionLogData</text>
</a>
</g>
</g>
<!-- Node2&#45;&gt;Node3 -->
<g id="edge2_Node000002_Node000003" class="edge">
<title>Node2&#45;&gt;Node3</title>
<g id="a_edge2_Node000002_Node000003"><a xlink:title=" ">
<path fill="none" stroke="#63b8ff" d="M925.82,-77.37C977.25,-68.03 1039.95,-56.65 1093.33,-46.95"/>
<polygon fill="#63b8ff" stroke="#63b8ff" points="1093.86,-50.41 1103.08,-45.18 1092.61,-43.52 1093.86,-50.41"/>
</a>
</g>
</g>
<!-- Node4 -->
<g id="Node000004" class="node">
<title>Node4</title>
<g id="a_Node000004"><a xlink:href="enumcom_1_1runehive_1_1content_1_1collectionlog_1_1_collection_log_page.html#af04cca6cca64a4d71c8b609f79048e5d" target="_top" xlink:title=" ">
<ellipse fill="white" stroke="#666666" cx="1210.73" cy="-95.81" rx="143.9" ry="25.81"/>
<text xml:space="preserve" text-anchor="start" x="1116.98" y="-98.66" font-family="Helvetica,sans-Serif" font-size="12.00">com.runehive.content.collectionlog.</text>
<text xml:space="preserve" text-anchor="middle" x="1210.73" y="-84.41" font-family="Helvetica,sans-Serif" font-size="12.00">CollectionLogPage.getCategory</text>
</a>
</g>
</g>
<!-- Node2&#45;&gt;Node4 -->
<g id="edge3_Node000002_Node000004" class="edge">
<title>Node2&#45;&gt;Node4</title>
<g id="a_edge3_Node000002_Node000004"><a xlink:title=" ">
<path fill="none" stroke="#63b8ff" d="M967.55,-95.81C996.09,-95.81 1026.19,-95.81 1055.1,-95.81"/>
<polygon fill="#63b8ff" stroke="#63b8ff" points="1055.03,-99.31 1065.03,-95.81 1055.03,-92.31 1055.03,-99.31"/>
</a>
</g>
</g>
<!-- Node6 -->
<g id="Node000006" class="node">
<title>Node6</title>
<g id="a_Node000006"><a xlink:href="classcom_1_1runehive_1_1game_1_1world_1_1entity_1_1mob_1_1player_1_1_player.html#ad161ee8145da645f610de820095d5bc3" target="_top" xlink:title=" ">
<ellipse fill="white" stroke="#666666" cx="1210.73" cy="-295.81" rx="175.72" ry="25.81"/>
<text xml:space="preserve" text-anchor="start" x="1094.48" y="-298.66" font-family="Helvetica,sans-Serif" font-size="12.00">com.runehive.game.world.entity.mob.player.</text>
<text xml:space="preserve" text-anchor="middle" x="1210.73" y="-284.41" font-family="Helvetica,sans-Serif" font-size="12.00">Player.getCollectionLog</text>
</a>
</g>
</g>
<!-- Node5&#45;&gt;Node6 -->
<g id="edge5_Node000005_Node000006" class="edge">
<title>Node5&#45;&gt;Node6</title>
<g id="a_edge5_Node000005_Node000006"><a xlink:title=" ">
<path fill="none" stroke="#63b8ff" d="M500.67,-394.31C534.8,-368.79 591.55,-331.06 647.58,-314.81 780.21,-276.35 937.85,-274.58 1052.4,-280.7"/>
<polygon fill="#63b8ff" stroke="#63b8ff" points="1052,-284.19 1062.19,-281.26 1052.4,-277.2 1052,-284.19"/>
</a>
</g>
</g>
<!-- Node7 -->
<g id="Node000007" class="node">
<title>Node7</title>
<g id="a_Node000007"><a xlink:href="classcom_1_1runehive_1_1content_1_1collectionlog_1_1_collection_log.html#a2b6f2eda8b2edf7f6db96e14427010d9" target="_top" xlink:title=" ">
<ellipse fill="white" stroke="#666666" cx="823.3" cy="-559.81" rx="143.9" ry="25.81"/>
<text xml:space="preserve" text-anchor="start" x="729.55" y="-562.66" font-family="Helvetica,sans-Serif" font-size="12.00">com.runehive.content.collectionlog.</text>
<text xml:space="preserve" text-anchor="middle" x="823.3" y="-548.41" font-family="Helvetica,sans-Serif" font-size="12.00">CollectionLog.getCounter</text>
</a>
</g>
</g>
<!-- Node5&#45;&gt;Node7 -->
<g id="edge6_Node000005_Node000007" class="edge">
<title>Node5&#45;&gt;Node7</title>
<g id="a_edge6_Node000005_Node000007"><a xlink:title=" ">
<path fill="none" stroke="#63b8ff" d="M503.56,-445.05C538.38,-469.07 594.25,-504.48 647.58,-524.81 664.22,-531.15 682.21,-536.41 700.1,-540.75"/>
<polygon fill="#63b8ff" stroke="#63b8ff" points="699.2,-544.14 709.74,-543 700.79,-537.32 699.2,-544.14"/>
</a>
</g>
</g>
<!-- Node10 -->
<g id="Node000010" class="node">
<title>Node10</title>
<g id="a_Node000010"><a xlink:href="enumcom_1_1runehive_1_1content_1_1collectionlog_1_1_collection_log_data.html#a6967422beca198ced699eedb9b90d4e6" target="_top" xlink:title=" ">
<ellipse fill="white" stroke="#666666" cx="823.3" cy="-419.81" rx="143.9" ry="25.81"/>
<text xml:space="preserve" text-anchor="start" x="729.55" y="-422.66" font-family="Helvetica,sans-Serif" font-size="12.00">com.runehive.content.collectionlog.</text>
<text xml:space="preserve" text-anchor="middle" x="823.3" y="-408.41" font-family="Helvetica,sans-Serif" font-size="12.00">CollectionLogData.getCounterText</text>
</a>
</g>
</g>
<!-- Node5&#45;&gt;Node10 -->
<g id="edge9_Node000005_Node000010" class="edge">
<title>Node5&#45;&gt;Node10</title>
<g id="a_edge9_Node000005_Node000010"><a xlink:title=" ">
<path fill="none" stroke="#63b8ff" d="M612.01,-419.81C630.32,-419.81 649.13,-419.81 667.61,-419.81"/>
<polygon fill="#63b8ff" stroke="#63b8ff" points="667.55,-423.31 677.55,-419.81 667.55,-416.31 667.55,-423.31"/>
</a>
</g>
</g>
<!-- Node11 -->
<g id="Node000011" class="node">
<title>Node11</title>
<g id="a_Node000011"><a xlink:href="enumcom_1_1runehive_1_1content_1_1collectionlog_1_1_collection_log_data.html#aba0cc1c5cf02201bfd85a0f3a1757fbb" target="_top" xlink:title=" ">
<ellipse fill="white" stroke="#666666" cx="823.3" cy="-349.81" rx="143.9" ry="25.81"/>
<text xml:space="preserve" text-anchor="start" x="729.55" y="-352.66" font-family="Helvetica,sans-Serif" font-size="12.00">com.runehive.content.collectionlog.</text>
<text xml:space="preserve" text-anchor="middle" x="823.3" y="-338.41" font-family="Helvetica,sans-Serif" font-size="12.00">CollectionLogData.getItems</text>
</a>
</g>
</g>
<!-- Node5&#45;&gt;Node11 -->
<g id="edge10_Node000005_Node000011" class="edge">
<title>Node5&#45;&gt;Node11</title>
<g id="a_edge10_Node000005_Node000011"><a xlink:title=" ">
<path fill="none" stroke="#63b8ff" d="M565.78,-400.59C611.68,-391.5 666.65,-380.62 713.91,-371.27"/>
<polygon fill="#63b8ff" stroke="#63b8ff" points="714.5,-374.72 723.63,-369.34 713.14,-367.85 714.5,-374.72"/>
</a>
</g>
</g>
<!-- Node12 -->
<g id="Node000012" class="node">
<title>Node12</title>
<g id="a_Node000012"><a xlink:href="classcom_1_1runehive_1_1content_1_1collectionlog_1_1_collection_log.html#a3d3335b75e1c6a1230b067ce592cc310" target="_top" xlink:title=" ">
<ellipse fill="white" stroke="#666666" cx="823.3" cy="-489.81" rx="143.9" ry="25.81"/>
<text xml:space="preserve" text-anchor="start" x="729.55" y="-492.66" font-family="Helvetica,sans-Serif" font-size="12.00">com.runehive.content.collectionlog.</text>
<text xml:space="preserve" text-anchor="middle" x="823.3" y="-478.41" font-family="Helvetica,sans-Serif" font-size="12.00">CollectionLog.getLogItemAmount</text>
</a>
</g>
</g>
<!-- Node5&#45;&gt;Node12 -->
<g id="edge11_Node000005_Node000012" class="edge">
<title>Node5&#45;&gt;Node12</title>
<g id="a_edge11_Node000005_Node000012"><a xlink:title=" ">
<path fill="none" stroke="#63b8ff" d="M565.78,-439.03C611.68,-448.12 666.65,-459 713.91,-468.35"/>
<polygon fill="#63b8ff" stroke="#63b8ff" points="713.14,-471.77 723.63,-470.28 714.5,-464.9 713.14,-471.77"/>
</a>
</g>
</g>
<!-- Node13 -->
<g id="Node000013" class="node">
<title>Node13</title>
<g id="a_Node000013"><a xlink:href="enumcom_1_1runehive_1_1content_1_1collectionlog_1_1_collection_log_data.html#a6970faf7d4d4d4cb7ebf8c2642f88a9d" target="_top" xlink:title=" ">
<ellipse fill="white" stroke="#666666" cx="823.3" cy="-699.81" rx="143.9" ry="25.81"/>
<text xml:space="preserve" text-anchor="start" x="729.55" y="-702.66" font-family="Helvetica,sans-Serif" font-size="12.00">com.runehive.content.collectionlog.</text>
<text xml:space="preserve" text-anchor="middle" x="823.3" y="-688.41" font-family="Helvetica,sans-Serif" font-size="12.00">CollectionLogData.getName</text>
</a>
</g>
</g>
<!-- Node5&#45;&gt;Node13 -->
<g id="edge14_Node000005_Node000013" class="edge">
<title>Node5&#45;&gt;Node13</title>
<g id="a_edge14_Node000005_Node000013"><a xlink:title=" ">
<path fill="none" stroke="#63b8ff" d="M479.76,-445.88C502.85,-496.87 561.28,-609.63 647.58,-664.81 659.73,-672.58 673.25,-678.68 687.24,-683.46"/>
<polygon fill="#63b8ff" stroke="#63b8ff" points="685.98,-686.73 696.57,-686.41 688.09,-680.06 685.98,-686.73"/>
</a>
</g>
</g>
<!-- Node14 -->
<g id="Node000014" class="node">
<title>Node14</title>
<g id="a_Node000014"><a xlink:href="enumcom_1_1runehive_1_1content_1_1collectionlog_1_1_collection_log_data.html#a9917f0a52793f979f06ef0167dee8a6c" target="_top" xlink:title=" ">
<ellipse fill="white" stroke="#666666" cx="823.3" cy="-629.81" rx="143.9" ry="25.81"/>
<text xml:space="preserve" text-anchor="start" x="729.55" y="-632.66" font-family="Helvetica,sans-Serif" font-size="12.00">com.runehive.content.collectionlog.</text>
<text xml:space="preserve" text-anchor="middle" x="823.3" y="-618.41" font-family="Helvetica,sans-Serif" font-size="12.00">CollectionLogData.getType</text>
</a>
</g>
</g>
<!-- Node5&#45;&gt;Node14 -->
<g id="edge15_Node000005_Node000014" class="edge">
<title>Node5&#45;&gt;Node14</title>
<g id="a_edge15_Node000005_Node000014"><a xlink:title=" ">
<path fill="none" stroke="#63b8ff" d="M487.12,-445.64C516.41,-484.6 577.48,-557.77 647.58,-594.81 661.36,-602.09 676.49,-607.86 691.89,-612.43"/>
<polygon fill="#63b8ff" stroke="#63b8ff" points="690.55,-615.69 701.12,-615 692.43,-608.95 690.55,-615.69"/>
</a>
</g>
</g>
<!-- Node5&#45;&gt;Node15 -->
<g id="edge16_Node000005_Node000015" class="edge">
<title>Node5&#45;&gt;Node15</title>
<g id="a_edge16_Node000005_Node000015"><a xlink:title=" ">
<path fill="none" stroke="#63b8ff" d="M500.17,-394.44C535.5,-366.21 594.81,-319.61 647.58,-281.81 688.98,-252.16 737.29,-220.28 772.6,-197.47"/>
<polygon fill="#63b8ff" stroke="#63b8ff" points="774.42,-200.46 780.93,-192.1 770.63,-194.57 774.42,-200.46"/>
</a>
</g>
</g>
<!-- Node8 -->
<g id="Node000008" class="node">
<title>Node8</title>
<g id="a_Node000008"><a xlink:href="classcom_1_1runehive_1_1content_1_1collectionlog_1_1_collection_log.html#ac620a328a50b8abf635a244cba1654b7" target="_top" xlink:title=" ">
<ellipse fill="white" stroke="#666666" cx="1210.73" cy="-559.81" rx="143.9" ry="25.81"/>
<text xml:space="preserve" text-anchor="start" x="1116.98" y="-562.66" font-family="Helvetica,sans-Serif" font-size="12.00">com.runehive.content.collectionlog.</text>
<text xml:space="preserve" text-anchor="middle" x="1210.73" y="-548.41" font-family="Helvetica,sans-Serif" font-size="12.00">CollectionLog.CollectionLog</text>
</a>
</g>
</g>
<!-- Node7&#45;&gt;Node8 -->
<g id="edge7_Node000007_Node000008" class="edge">
<title>Node7&#45;&gt;Node8</title>
<g id="a_edge7_Node000007_Node000008"><a xlink:title=" ">
<path fill="none" stroke="#63b8ff" d="M967.55,-559.81C996.09,-559.81 1026.19,-559.81 1055.1,-559.81"/>
<polygon fill="#63b8ff" stroke="#63b8ff" points="1055.03,-563.31 1065.03,-559.81 1055.03,-556.31 1055.03,-563.31"/>
</a>
</g>
</g>
<!-- Node9 -->
<g id="Node000009" class="node">
<title>Node9</title>
<g id="a_Node000009"><a xlink:href="classcom_1_1runehive_1_1content_1_1collectionlog_1_1_collection_log.html#a62ca05dd09aa1cd3e999b4a1ed1cbc8d" target="_top" xlink:title=" ">
<ellipse fill="white" stroke="#666666" cx="1210.73" cy="-489.81" rx="143.9" ry="25.81"/>
<text xml:space="preserve" text-anchor="start" x="1116.98" y="-492.66" font-family="Helvetica,sans-Serif" font-size="12.00">com.runehive.content.collectionlog.</text>
<text xml:space="preserve" text-anchor="middle" x="1210.73" y="-478.41" font-family="Helvetica,sans-Serif" font-size="12.00">CollectionLog.getLog</text>
</a>
</g>
</g>
<!-- Node7&#45;&gt;Node9 -->
<g id="edge8_Node000007_Node000009" class="edge">
<title>Node7&#45;&gt;Node9</title>
<g id="a_edge8_Node000007_Node000009"><a xlink:title=" ">
<path fill="none" stroke="#63b8ff" d="M925.82,-541.37C978.51,-531.8 1043.01,-520.09 1097.22,-510.24"/>
<polygon fill="#63b8ff" stroke="#63b8ff" points="1097.56,-513.74 1106.78,-508.51 1096.31,-506.85 1097.56,-513.74"/>
</a>
</g>
</g>
<!-- Node12&#45;&gt;Node6 -->
<g id="edge12_Node000012_Node000006" class="edge">
<title>Node12&#45;&gt;Node6</title>
<g id="a_edge12_Node000012_Node000006"><a xlink:title=" ">
<path fill="none" stroke="#63b8ff" d="M939.85,-474.3C960.07,-469.45 980.53,-463.11 999.02,-454.81 1068.49,-423.61 1136.56,-365.92 1175.77,-329.27"/>
<polygon fill="#63b8ff" stroke="#63b8ff" points="1177.73,-332.24 1182.59,-322.83 1172.92,-327.15 1177.73,-332.24"/>
</a>
</g>
</g>
<!-- Node12&#45;&gt;Node9 -->
<g id="edge13_Node000012_Node000009" class="edge">
<title>Node12&#45;&gt;Node9</title>
<g id="a_edge13_Node000012_Node000009"><a xlink:title=" ">
<path fill="none" stroke="#63b8ff" d="M967.55,-489.81C996.09,-489.81 1026.19,-489.81 1055.1,-489.81"/>
<polygon fill="#63b8ff" stroke="#63b8ff" points="1055.03,-493.31 1065.03,-489.81 1055.03,-486.31 1055.03,-493.31"/>
</a>
</g>
</g>
<!-- Node16 -->
<g id="Node000016" class="node">
<title>Node16</title>
<g id="a_Node000016"><a xlink:href="classcom_1_1runehive_1_1net_1_1packet_1_1_outgoing_packet.html#a3dde4d77b8c8bbd686b8e121fd6514a7" target="_top" xlink:title=" ">
<ellipse fill="white" stroke="#666666" cx="1210.73" cy="-165.81" rx="105.18" ry="25.81"/>
<text xml:space="preserve" text-anchor="start" x="1144.36" y="-168.66" font-family="Helvetica,sans-Serif" font-size="12.00">com.runehive.net.packet.</text>
<text xml:space="preserve" text-anchor="middle" x="1210.73" y="-154.41" font-family="Helvetica,sans-Serif" font-size="12.00">OutgoingPacket.execute</text>
</a>
</g>
</g>
<!-- Node15&#45;&gt;Node16 -->
<g id="edge17_Node000015_Node000016" class="edge">
<title>Node15&#45;&gt;Node16</title>
<g id="a_edge17_Node000015_Node000016"><a xlink:title=" ">
<path fill="none" stroke="#63b8ff" d="M999.25,-165.81C1031.37,-165.81 1064.16,-165.81 1093.99,-165.81"/>
<polygon fill="#63b8ff" stroke="#63b8ff" points="1093.76,-169.31 1103.76,-165.81 1093.76,-162.31 1093.76,-169.31"/>
</a>
</g>
</g>
<!-- Node17 -->
<g id="Node000017" class="node">
<title>Node17</title>
<g id="a_Node000017"><a xlink:href="classcom_1_1runehive_1_1net_1_1packet_1_1_outgoing_packet.html#a74fc13c106ab76f87daec1e8bab6a2a1" target="_top" xlink:title=" ">
<ellipse fill="white" stroke="#666666" cx="1598.17" cy="-200.81" rx="105.18" ry="25.81"/>
<text xml:space="preserve" text-anchor="start" x="1531.79" y="-203.66" font-family="Helvetica,sans-Serif" font-size="12.00">com.runehive.net.packet.</text>
<text xml:space="preserve" text-anchor="middle" x="1598.17" y="-189.41" font-family="Helvetica,sans-Serif" font-size="12.00">OutgoingPacket.encode</text>
</a>
</g>
</g>
<!-- Node16&#45;&gt;Node17 -->
<g id="edge18_Node000016_Node000017" class="edge">
<title>Node16&#45;&gt;Node17</title>
<g id="a_edge18_Node000016_Node000017"><a xlink:title=" ">
<path fill="none" stroke="#63b8ff" d="M1309.99,-174.73C1364.24,-179.66 1431.76,-185.79 1487.7,-190.87"/>
<polygon fill="#63b8ff" stroke="#63b8ff" points="1487.3,-194.35 1497.58,-191.77 1487.94,-187.38 1487.3,-194.35"/>
</a>
</g>
</g>
<!-- Node18 -->
<g id="Node000018" class="node">
<title>Node18</title>
<g id="a_Node000018"><a xlink:href="classcom_1_1runehive_1_1game_1_1world_1_1entity_1_1mob_1_1player_1_1_player.html#a908fb61974719a74180d6300b838bfe1" target="_top" xlink:title=" ">
<ellipse fill="white" stroke="#666666" cx="1598.17" cy="-130.81" rx="175.72" ry="25.81"/>
<text xml:space="preserve" text-anchor="start" x="1481.92" y="-133.66" font-family="Helvetica,sans-Serif" font-size="12.00">com.runehive.game.world.entity.mob.player.</text>
<text xml:space="preserve" text-anchor="middle" x="1598.17" y="-119.41" font-family="Helvetica,sans-Serif" font-size="12.00">Player.getSession</text>
</a>
</g>
</g>
<!-- Node16&#45;&gt;Node18 -->
<g id="edge19_Node000016_Node000018" class="edge">
<title>Node16&#45;&gt;Node18</title>
<g id="a_edge19_Node000016_Node000018"><a xlink:title=" ">
<path fill="none" stroke="#63b8ff" d="M1309.99,-156.89C1348.28,-153.41 1393.17,-149.33 1435.94,-145.45"/>
<polygon fill="#63b8ff" stroke="#63b8ff" points="1436.2,-148.94 1445.84,-144.55 1435.56,-141.97 1436.2,-148.94"/>
</a>
</g>
</g>
<!-- Node19&#45;&gt;Node2 -->
<g id="edge24_Node000019_Node000002" class="edge">
<title>Node19&#45;&gt;Node2</title>
<g id="a_edge24_Node000019_Node000002"><a xlink:title=" ">
<path fill="none" stroke="#63b8ff" d="M511.05,-194.73C546.45,-174.76 598.85,-147.49 647.58,-130.81 665.2,-124.78 684.19,-119.65 702.94,-115.34"/>
<polygon fill="#63b8ff" stroke="#63b8ff" points="703.46,-118.81 712.46,-113.22 701.93,-111.97 703.46,-118.81"/>
</a>
</g>
</g>
<!-- Node19&#45;&gt;Node6 -->
<g id="edge22_Node000019_Node000006" class="edge">
<title>Node19&#45;&gt;Node6</title>
<g id="a_edge22_Node000019_Node000006"><a xlink:title=" ">
<path fill="none" stroke="#63b8ff" d="M611.77,-218.69C718.91,-219.69 868.81,-224.98 999.02,-243.81 1039.24,-249.62 1082.97,-259.77 1120.12,-269.56"/>
<polygon fill="#63b8ff" stroke="#63b8ff" points="1118.89,-272.86 1129.45,-272.06 1120.69,-266.1 1118.89,-272.86"/>
</a>
</g>
</g>
<!-- Node19&#45;&gt;Node9 -->
<g id="edge23_Node000019_Node000009" class="edge">
<title>Node19&#45;&gt;Node9</title>
<g id="a_edge23_Node000019_Node000009"><a xlink:title=" ">
<path fill="none" stroke="#63b8ff" d="M578.92,-236.48C723.01,-258.74 961.54,-297.39 999.02,-314.81 1072.49,-348.96 1141.5,-415.17 1179.44,-455.64"/>
<polygon fill="#63b8ff" stroke="#63b8ff" points="1176.67,-457.79 1186.03,-462.75 1181.8,-453.04 1176.67,-457.79"/>
</a>
</g>
</g>
<!-- Node19&#45;&gt;Node15 -->
<g id="edge25_Node000019_Node000015" class="edge">
<title>Node19&#45;&gt;Node15</title>
<g id="a_edge25_Node000019_Node000015"><a xlink:title=" ">
<path fill="none" stroke="#63b8ff" d="M578.64,-203.02C613.45,-197.7 652.33,-191.77 688.62,-186.22"/>
<polygon fill="#63b8ff" stroke="#63b8ff" points="688.94,-189.72 698.3,-184.75 687.88,-182.8 688.94,-189.72"/>
</a>
</g>
</g>
</g>
</svg>

<g id="navigator" transform="translate(0 0)" fill="#404254">
  <rect fill="#f2f5e9" fill-opacity="0.5" stroke="#606060" stroke-width=".5" x="0" y="0" width="60" height="60"/>
  <use id="zoomplus" xlink:href="#zoomPlus" x="17" y="9" onmousedown="handleZoom(evt,'in')"/>
  <use id="zoomminus" xlink:href="#zoomMin" x="42" y="9" onmousedown="handleZoom(evt,'out')"/>
  <use id="reset" xlink:href="#resetDef" x="30" y="36" onmousedown="handleReset()"/>
   <use id="arrowup" xlink:href="#arrowUp" x="0" y="0" onmousedown="handlePan(0,-1)"/>
  <use id="arrowright" xlink:href="#arrowRight" x="0" y="0" onmousedown="handlePan(1,0)"/>
  <use id="arrowdown" xlink:href="#arrowDown" x="0" y="0" onmousedown="handlePan(0,1)"/>
  <use id="arrowleft" xlink:href="#arrowLeft" x="0" y="0" onmousedown="handlePan(-1,0)"/>
</g>
<svg viewBox="0 0 15 15" width="100%" height="30px" preserveAspectRatio="xMaxYMin meet">
 <g id="arrow_out" transform="scale(0.3 0.3)">
  <a xlink:href="classcom_1_1runehive_1_1content_1_1collectionlog_1_1_collection_log_ad814b6a2dc37133c3ece8b62e734c73e_cgraph_org.svg" target="_base">
   <rect id="button" ry="5" rx="5" y="6" x="6" height="38" width="38"
        fill="#f2f5e9" fill-opacity="0.5" stroke="#606060" stroke-width="1.0"/>
   <path id="arrow"
     d="M 11.500037,31.436501 C 11.940474,20.09759 22.043105,11.32322 32.158766,21.979434 L 37.068811,17.246167 C 37.068811,17.246167 37.088388,32 37.088388,32 L 22.160133,31.978069 C 22.160133,31.978069 26.997745,27.140456 26.997745,27.140456 C 18.528582,18.264221 13.291696,25.230495 11.500037,31.436501 z"
     style="fill:#404040;"/>
  </a>
 </g>
</svg>

<style type='text/css'>
<![CDATA[
[data-mouse-over-selected='false'] { opacity: 0.7; }
[data-mouse-over-selected='true']  { opacity: 1.0; }
]]>
</style>
<script type="application/ecmascript"><![CDATA[
document.addEventListener('DOMContentLoaded', (event) => {
  highlightEdges();
  highlightAdjacentNodes();
});
]]></script>
</svg>
