<?xml version="1.0" encoding="UTF-8" standalone="no"?>
<!DOCTYPE svg PUBLIC "-//W3C//DTD SVG 1.1//EN"
 "http://www.w3.org/Graphics/SVG/1.1/DTD/svg11.dtd">
<!-- Generated by graphviz version 14.0.1 (20251006.0113)
 -->
<!-- Title: com.runehive.fs.cache.decoder.CacheNpcDefinition.decode Pages: 1 -->
<svg width="940pt" height="596pt"
 viewBox="0.00 0.00 940.00 596.00" xmlns="http://www.w3.org/2000/svg" xmlns:xlink="http://www.w3.org/1999/xlink">
<g id="graph0" class="graph" transform="scale(1 1) rotate(0) translate(4 591.62)">
<title>com.runehive.fs.cache.decoder.CacheNpcDefinition.decode</title>
<!-- Node1 -->
<g id="Node000001" class="node">
<title>Node1</title>
<g id="a_Node000001"><a xlink:title=" ">
<ellipse fill="#999999" stroke="#666666" cx="130.11" cy="-305.81" rx="130.11" ry="25.81"/>
<text xml:space="preserve" text-anchor="start" x="46.11" y="-308.66" font-family="Helvetica,sans-Serif" font-size="12.00">com.runehive.fs.cache.decoder.</text>
<text xml:space="preserve" text-anchor="middle" x="130.11" y="-294.41" font-family="Helvetica,sans-Serif" font-size="12.00">CacheNpcDefinition.decode</text>
</a>
</g>
</g>
<!-- Node2 -->
<g id="Node000002" class="node">
<title>Node2</title>
<g id="a_Node000002"><a xlink:href="classcom_1_1runehive_1_1fs_1_1cache_1_1decoder_1_1_buffer.html#aaec16ae77955405c51e4923779d637bf" target="_top" xlink:title=" ">
<ellipse fill="white" stroke="#666666" cx="466.1" cy="-483.81" rx="130.11" ry="25.81"/>
<text xml:space="preserve" text-anchor="start" x="382.1" y="-486.66" font-family="Helvetica,sans-Serif" font-size="12.00">com.runehive.fs.cache.decoder.</text>
<text xml:space="preserve" text-anchor="middle" x="466.1" y="-472.41" font-family="Helvetica,sans-Serif" font-size="12.00">Buffer.readBigSmart2</text>
</a>
</g>
</g>
<!-- Node1&#45;&gt;Node2 -->
<g id="edge1_Node000001_Node000002" class="edge">
<title>Node1&#45;&gt;Node2</title>
<g id="a_edge1_Node000001_Node000002"><a xlink:title=" ">
<path fill="none" stroke="#63b8ff" d="M152.87,-331.43C182.05,-364.02 237.06,-419.57 296.22,-448.81 311.41,-456.32 328.14,-462.22 344.99,-466.85"/>
<polygon fill="#63b8ff" stroke="#63b8ff" points="344.03,-470.22 354.59,-469.34 345.79,-463.45 344.03,-470.22"/>
</a>
</g>
</g>
<!-- Node5 -->
<g id="Node000005" class="node">
<title>Node5</title>
<g id="a_Node000005"><a xlink:href="classcom_1_1runehive_1_1fs_1_1cache_1_1decoder_1_1_buffer.html#aa913740e120d65fd11af59b5077663d6" target="_top" xlink:title=" ">
<ellipse fill="white" stroke="#666666" cx="802.09" cy="-491.81" rx="130.11" ry="25.81"/>
<text xml:space="preserve" text-anchor="start" x="718.09" y="-494.66" font-family="Helvetica,sans-Serif" font-size="12.00">com.runehive.fs.cache.decoder.</text>
<text xml:space="preserve" text-anchor="middle" x="802.09" y="-480.41" font-family="Helvetica,sans-Serif" font-size="12.00">Buffer.readUnsignedShort</text>
</a>
</g>
</g>
<!-- Node1&#45;&gt;Node5 -->
<g id="edge11_Node000001_Node000005" class="edge">
<title>Node1&#45;&gt;Node5</title>
<g id="a_edge11_Node000001_Node000005"><a xlink:title=" ">
<path fill="none" stroke="#63b8ff" d="M141.78,-331.68C163.01,-379.23 215.55,-479.28 296.22,-518.81 431.81,-585.27 485.47,-531.03 635.98,-518.81 655.55,-517.22 676.3,-514.59 696.24,-511.57"/>
<polygon fill="#63b8ff" stroke="#63b8ff" points="696.71,-515.04 706.05,-510.04 695.63,-508.12 696.71,-515.04"/>
</a>
</g>
</g>
<!-- Node6 -->
<g id="Node000006" class="node">
<title>Node6</title>
<g id="a_Node000006"><a xlink:href="classcom_1_1runehive_1_1fs_1_1cache_1_1decoder_1_1_buffer.html#adccd5f72ec13d8e8b439e0d2f293c5d4" target="_top" xlink:title=" ">
<ellipse fill="white" stroke="#666666" cx="466.1" cy="-305.81" rx="130.11" ry="25.81"/>
<text xml:space="preserve" text-anchor="start" x="382.1" y="-308.66" font-family="Helvetica,sans-Serif" font-size="12.00">com.runehive.fs.cache.decoder.</text>
<text xml:space="preserve" text-anchor="middle" x="466.1" y="-294.41" font-family="Helvetica,sans-Serif" font-size="12.00">Buffer.readBytes</text>
</a>
</g>
</g>
<!-- Node1&#45;&gt;Node6 -->
<g id="edge5_Node000001_Node000006" class="edge">
<title>Node1&#45;&gt;Node6</title>
<g id="a_edge5_Node000001_Node000006"><a xlink:title=" ">
<path fill="none" stroke="#63b8ff" d="M260.71,-305.81C281.54,-305.81 303.19,-305.81 324.26,-305.81"/>
<polygon fill="#63b8ff" stroke="#63b8ff" points="324.05,-309.31 334.05,-305.81 324.05,-302.31 324.05,-309.31"/>
</a>
</g>
</g>
<!-- Node7 -->
<g id="Node000007" class="node">
<title>Node7</title>
<g id="a_Node000007"><a xlink:href="classcom_1_1runehive_1_1fs_1_1cache_1_1decoder_1_1_buffer.html#a84871f91eb241f66fb3ae61064995ff1" target="_top" xlink:title=" ">
<ellipse fill="white" stroke="#666666" cx="466.1" cy="-235.81" rx="130.11" ry="25.81"/>
<text xml:space="preserve" text-anchor="start" x="382.1" y="-238.66" font-family="Helvetica,sans-Serif" font-size="12.00">com.runehive.fs.cache.decoder.</text>
<text xml:space="preserve" text-anchor="middle" x="466.1" y="-224.41" font-family="Helvetica,sans-Serif" font-size="12.00">Buffer.readSignedByte</text>
</a>
</g>
</g>
<!-- Node1&#45;&gt;Node7 -->
<g id="edge6_Node000001_Node000007" class="edge">
<title>Node1&#45;&gt;Node7</title>
<g id="a_edge6_Node000001_Node000007"><a xlink:title=" ">
<path fill="none" stroke="#63b8ff" d="M220.21,-286.84C244.83,-281.63 271.55,-275.98 296.22,-270.81 317.9,-266.26 341.16,-261.42 363.27,-256.83"/>
<polygon fill="#63b8ff" stroke="#63b8ff" points="363.81,-260.3 372.89,-254.84 362.38,-253.44 363.81,-260.3"/>
</a>
</g>
</g>
<!-- Node8 -->
<g id="Node000008" class="node">
<title>Node8</title>
<g id="a_Node000008"><a xlink:href="classcom_1_1runehive_1_1fs_1_1cache_1_1decoder_1_1_buffer.html#a05b6f9bbca3a0bf3f1a2623d8db18597" target="_top" xlink:title=" ">
<ellipse fill="white" stroke="#666666" cx="466.1" cy="-165.81" rx="161.93" ry="25.81"/>
<text xml:space="preserve" text-anchor="start" x="359.6" y="-168.66" font-family="Helvetica,sans-Serif" font-size="12.00">com.runehive.fs.cache.decoder.</text>
<text xml:space="preserve" text-anchor="middle" x="466.1" y="-154.41" font-family="Helvetica,sans-Serif" font-size="12.00">Buffer.readStringCp1252NullTerminated</text>
</a>
</g>
</g>
<!-- Node1&#45;&gt;Node8 -->
<g id="edge7_Node000001_Node000008" class="edge">
<title>Node1&#45;&gt;Node8</title>
<g id="a_edge7_Node000001_Node000008"><a xlink:title=" ">
<path fill="none" stroke="#63b8ff" d="M163,-280.53C194.92,-256.48 246.32,-221.05 296.22,-200.81 309.59,-195.38 323.92,-190.76 338.37,-186.83"/>
<polygon fill="#63b8ff" stroke="#63b8ff" points="339.16,-190.24 347.96,-184.33 337.4,-183.46 339.16,-190.24"/>
</a>
</g>
</g>
<!-- Node10 -->
<g id="Node000010" class="node">
<title>Node10</title>
<g id="a_Node000010"><a xlink:href="classcom_1_1runehive_1_1fs_1_1cache_1_1decoder_1_1_buffer.html#a2569ce7721aaef40dba5f6569ff8e746" target="_top" xlink:title=" ">
<ellipse fill="white" stroke="#666666" cx="802.09" cy="-351.81" rx="130.11" ry="25.81"/>
<text xml:space="preserve" text-anchor="start" x="718.09" y="-354.66" font-family="Helvetica,sans-Serif" font-size="12.00">com.runehive.fs.cache.decoder.</text>
<text xml:space="preserve" text-anchor="middle" x="802.09" y="-340.41" font-family="Helvetica,sans-Serif" font-size="12.00">Buffer.readUnsignedByte</text>
</a>
</g>
</g>
<!-- Node1&#45;&gt;Node10 -->
<g id="edge9_Node000001_Node000010" class="edge">
<title>Node1&#45;&gt;Node10</title>
<g id="a_edge9_Node000001_Node000010"><a xlink:title=" ">
<path fill="none" stroke="#63b8ff" d="M212.49,-326.22C239.01,-332.02 268.71,-337.62 296.22,-340.81 419.19,-355.06 560.11,-356.93 661.76,-355.75"/>
<polygon fill="#63b8ff" stroke="#63b8ff" points="661.56,-359.25 671.51,-355.63 661.47,-352.26 661.56,-359.25"/>
</a>
</g>
</g>
<!-- Node11 -->
<g id="Node000011" class="node">
<title>Node11</title>
<g id="a_Node000011"><a xlink:href="classcom_1_1runehive_1_1fs_1_1cache_1_1decoder_1_1_buffer.html#a8c0cb2707d12ffaea27f58327b67ad18" target="_top" xlink:title=" ">
<ellipse fill="white" stroke="#666666" cx="466.1" cy="-95.81" rx="130.11" ry="25.81"/>
<text xml:space="preserve" text-anchor="start" x="382.1" y="-98.66" font-family="Helvetica,sans-Serif" font-size="12.00">com.runehive.fs.cache.decoder.</text>
<text xml:space="preserve" text-anchor="middle" x="466.1" y="-84.41" font-family="Helvetica,sans-Serif" font-size="12.00">Buffer.readUnsignedInt</text>
</a>
</g>
</g>
<!-- Node1&#45;&gt;Node11 -->
<g id="edge10_Node000001_Node000011" class="edge">
<title>Node1&#45;&gt;Node11</title>
<g id="a_edge10_Node000001_Node000011"><a xlink:title=" ">
<path fill="none" stroke="#63b8ff" d="M147.67,-280.01C174.09,-241.09 229.66,-167.98 296.22,-130.81 310.58,-122.78 326.57,-116.59 342.81,-111.81"/>
<polygon fill="#63b8ff" stroke="#63b8ff" points="343.33,-115.3 352.04,-109.28 341.47,-108.55 343.33,-115.3"/>
</a>
</g>
</g>
<!-- Node12 -->
<g id="Node000012" class="node">
<title>Node12</title>
<g id="a_Node000012"><a xlink:href="classcom_1_1runehive_1_1fs_1_1cache_1_1decoder_1_1_buffer.html#ae4de491dd432dbf0bd92adfb3bbda73e" target="_top" xlink:title=" ">
<ellipse fill="white" stroke="#666666" cx="466.1" cy="-413.81" rx="169.88" ry="25.81"/>
<text xml:space="preserve" text-anchor="start" x="353.97" y="-416.66" font-family="Helvetica,sans-Serif" font-size="12.00">com.runehive.fs.cache.decoder.</text>
<text xml:space="preserve" text-anchor="middle" x="466.1" y="-402.41" font-family="Helvetica,sans-Serif" font-size="12.00">Buffer.readUnsignedShortSmartMinusOne</text>
</a>
</g>
</g>
<!-- Node1&#45;&gt;Node12 -->
<g id="edge12_Node000001_Node000012" class="edge">
<title>Node1&#45;&gt;Node12</title>
<g id="a_edge12_Node000001_Node000012"><a xlink:title=" ">
<path fill="none" stroke="#63b8ff" d="M183.11,-329.71C215.23,-343.84 257.56,-361.36 296.22,-373.81 314.52,-379.71 334.2,-385.15 353.42,-390"/>
<polygon fill="#63b8ff" stroke="#63b8ff" points="352.34,-393.34 362.89,-392.34 354.02,-386.54 352.34,-393.34"/>
</a>
</g>
</g>
<!-- Node13 -->
<g id="Node000013" class="node">
<title>Node13</title>
<g id="a_Node000013"><a xlink:href="classcom_1_1runehive_1_1fs_1_1cache_1_1decoder_1_1_buffer.html#ae3fc2efecc4a4bf9dba7996444c62a54" target="_top" xlink:title=" ">
<ellipse fill="white" stroke="#666666" cx="466.1" cy="-25.81" rx="130.11" ry="25.81"/>
<text xml:space="preserve" text-anchor="start" x="382.1" y="-28.66" font-family="Helvetica,sans-Serif" font-size="12.00">com.runehive.fs.cache.decoder.</text>
<text xml:space="preserve" text-anchor="middle" x="466.1" y="-14.41" font-family="Helvetica,sans-Serif" font-size="12.00">Buffer.readUnsignedTriByte</text>
</a>
</g>
</g>
<!-- Node1&#45;&gt;Node13 -->
<g id="edge16_Node000001_Node000013" class="edge">
<title>Node1&#45;&gt;Node13</title>
<g id="a_edge16_Node000001_Node000013"><a xlink:title=" ">
<path fill="none" stroke="#63b8ff" d="M140.77,-279.81C161.11,-228.94 213.38,-116.4 296.22,-60.81 308.92,-52.28 323.28,-45.77 338.13,-40.8"/>
<polygon fill="#63b8ff" stroke="#63b8ff" points="339.04,-44.18 347.57,-37.89 336.98,-37.49 339.04,-44.18"/>
</a>
</g>
</g>
<!-- Node3 -->
<g id="Node000003" class="node">
<title>Node3</title>
<g id="a_Node000003"><a xlink:href="classcom_1_1runehive_1_1fs_1_1cache_1_1decoder_1_1_buffer.html#a99f36525007deb9e811991d6fbd81b34" target="_top" xlink:title=" ">
<ellipse fill="white" stroke="#666666" cx="802.09" cy="-421.81" rx="130.11" ry="25.81"/>
<text xml:space="preserve" text-anchor="start" x="718.09" y="-424.66" font-family="Helvetica,sans-Serif" font-size="12.00">com.runehive.fs.cache.decoder.</text>
<text xml:space="preserve" text-anchor="middle" x="802.09" y="-410.41" font-family="Helvetica,sans-Serif" font-size="12.00">Buffer.peek</text>
</a>
</g>
</g>
<!-- Node2&#45;&gt;Node3 -->
<g id="edge2_Node000002_Node000003" class="edge">
<title>Node2&#45;&gt;Node3</title>
<g id="a_edge2_Node000002_Node000003"><a xlink:title=" ">
<path fill="none" stroke="#63b8ff" d="M562.36,-466.13C603.6,-458.47 652.04,-449.48 694.48,-441.6"/>
<polygon fill="#63b8ff" stroke="#63b8ff" points="695.02,-445.06 704.21,-439.79 693.74,-438.18 695.02,-445.06"/>
</a>
</g>
</g>
<!-- Node4 -->
<g id="Node000004" class="node">
<title>Node4</title>
<g id="a_Node000004"><a xlink:href="classcom_1_1runehive_1_1fs_1_1cache_1_1decoder_1_1_buffer.html#a4fc2b56eb3318d4e6b7742289aeac7ac" target="_top" xlink:title=" ">
<ellipse fill="white" stroke="#666666" cx="802.09" cy="-561.81" rx="130.11" ry="25.81"/>
<text xml:space="preserve" text-anchor="start" x="718.09" y="-564.66" font-family="Helvetica,sans-Serif" font-size="12.00">com.runehive.fs.cache.decoder.</text>
<text xml:space="preserve" text-anchor="middle" x="802.09" y="-550.41" font-family="Helvetica,sans-Serif" font-size="12.00">Buffer.readInt</text>
</a>
</g>
</g>
<!-- Node2&#45;&gt;Node4 -->
<g id="edge3_Node000002_Node000004" class="edge">
<title>Node2&#45;&gt;Node4</title>
<g id="a_edge3_Node000002_Node000004"><a xlink:title=" ">
<path fill="none" stroke="#63b8ff" d="M551.81,-503.59C598.6,-514.52 656.89,-528.13 705.34,-539.45"/>
<polygon fill="#63b8ff" stroke="#63b8ff" points="704.46,-542.84 714.99,-541.7 706.05,-536.02 704.46,-542.84"/>
</a>
</g>
</g>
<!-- Node2&#45;&gt;Node5 -->
<g id="edge4_Node000002_Node000005" class="edge">
<title>Node2&#45;&gt;Node5</title>
<g id="a_edge4_Node000002_Node000005"><a xlink:title=" ">
<path fill="none" stroke="#63b8ff" d="M595.75,-486.89C617.19,-487.4 639.52,-487.94 661.22,-488.46"/>
<polygon fill="#63b8ff" stroke="#63b8ff" points="660.91,-491.95 670.99,-488.69 661.08,-484.95 660.91,-491.95"/>
</a>
</g>
</g>
<!-- Node9 -->
<g id="Node000009" class="node">
<title>Node9</title>
<g id="a_Node000009"><a xlink:href="classcom_1_1runehive_1_1fs_1_1cache_1_1decoder_1_1_buffer.html#a7192141e3437c8190dddef4017769307" target="_top" xlink:title=" ">
<ellipse fill="white" stroke="#666666" cx="802.09" cy="-165.81" rx="130.11" ry="25.81"/>
<text xml:space="preserve" text-anchor="start" x="718.09" y="-168.66" font-family="Helvetica,sans-Serif" font-size="12.00">com.runehive.fs.cache.decoder.</text>
<text xml:space="preserve" text-anchor="middle" x="802.09" y="-154.41" font-family="Helvetica,sans-Serif" font-size="12.00">Buffer.decodeStringCp1252</text>
</a>
</g>
</g>
<!-- Node8&#45;&gt;Node9 -->
<g id="edge8_Node000008_Node000009" class="edge">
<title>Node8&#45;&gt;Node9</title>
<g id="a_edge8_Node000008_Node000009"><a xlink:title=" ">
<path fill="none" stroke="#63b8ff" d="M628.22,-165.81C638.88,-165.81 649.57,-165.81 660.12,-165.81"/>
<polygon fill="#63b8ff" stroke="#63b8ff" points="659.99,-169.31 669.99,-165.81 659.99,-162.31 659.99,-169.31"/>
</a>
</g>
</g>
<!-- Node12&#45;&gt;Node3 -->
<g id="edge13_Node000012_Node000003" class="edge">
<title>Node12&#45;&gt;Node3</title>
<g id="a_edge13_Node000012_Node000003"><a xlink:title=" ">
<path fill="none" stroke="#63b8ff" d="M634.09,-417.81C643.15,-418.03 652.21,-418.24 661.16,-418.46"/>
<polygon fill="#63b8ff" stroke="#63b8ff" points="660.84,-421.95 670.92,-418.69 661.01,-414.95 660.84,-421.95"/>
</a>
</g>
</g>
<!-- Node12&#45;&gt;Node5 -->
<g id="edge15_Node000012_Node000005" class="edge">
<title>Node12&#45;&gt;Node5</title>
<g id="a_edge15_Node000012_Node000005"><a xlink:title=" ">
<path fill="none" stroke="#63b8ff" d="M570.88,-434.46C592.44,-438.99 614.99,-443.9 635.98,-448.81 661.11,-454.68 688.25,-461.54 713.13,-468.02"/>
<polygon fill="#63b8ff" stroke="#63b8ff" points="711.99,-471.34 722.55,-470.49 713.76,-464.57 711.99,-471.34"/>
</a>
</g>
</g>
<!-- Node12&#45;&gt;Node10 -->
<g id="edge14_Node000012_Node000010" class="edge">
<title>Node12&#45;&gt;Node10</title>
<g id="a_edge14_Node000012_Node000010"><a xlink:title=" ">
<path fill="none" stroke="#63b8ff" d="M575.53,-393.68C613.76,-386.58 656.67,-378.62 694.73,-371.55"/>
<polygon fill="#63b8ff" stroke="#63b8ff" points="695.16,-375.03 704.36,-369.77 693.89,-368.15 695.16,-375.03"/>
</a>
</g>
</g>
</g>
</svg>
