<?xml version="1.0" encoding="UTF-8" standalone="no"?>
<!DOCTYPE svg PUBLIC "-//W3C//DTD SVG 1.1//EN"
 "http://www.w3.org/Graphics/SVG/1.1/DTD/svg11.dtd">
<!-- Generated by graphviz version 14.0.1 (20251006.0113)
 -->
<!-- Title: com.runehive.game.world.object.StaticGameObject.rotate Pages: 1 -->
<!--zoomable 1172 -->

<svg id="main" version="1.1" xmlns="http://www.w3.org/2000/svg" xmlns:xlink="http://www.w3.org/1999/xlink" xml:space="preserve" onload="init(evt)">

<style type="text/css"><![CDATA[
.node, .edge {opacity: 0.7;}
.node.selected, .edge.selected {opacity: 1;}
.edge:hover path { stroke: red; }
.edge:hover polygon { stroke: red; fill: red; }
]]></style>

<defs>
  <circle id="rim" cx="0" cy="0" r="7"/>
  <circle id="rim2" cx="0" cy="0" r="3.5"/>
  <g id="zoomPlus">
    <use xlink:href="#rim" fill="#404040"><set attributeName="fill" to="#808080" begin="zoomplus.mouseover" end="zoomplus.mouseout"/></use>
    <path d="M-4,0h8M0,-4v8" fill="none" stroke="white" stroke-width="1.5" pointer-events="none"/>
  </g>
  <g id="zoomMin">
    <use xlink:href="#rim" fill="#404040"><set attributeName="fill" to="#808080" begin="zoomminus.mouseover" end="zoomminus.mouseout"/></use>
    <path d="M-4,0h8" fill="none" stroke="white" stroke-width="1.5" pointer-events="none"/>
  </g>
  <g id="arrowUp" transform="translate(30 24)">
    <use xlink:href="#rim"/>
    <path pointer-events="none" fill="none" stroke="white" stroke-width="1.5" d="M0,-3.0v7 M-2.5,-0.5L0,-3.0L2.5,-0.5"/>
  </g>
  <g id="arrowRight" transform="rotate(90) translate(36 -43)">
    <use xlink:href="#rim"/>
    <path pointer-events="none" fill="none" stroke="white" stroke-width="1.5" d="M0,-3.0v7 M-2.5,-0.5L0,-3.0L2.5,-0.5"/>
  </g>
  <g id="arrowDown" transform="rotate(180) translate(-30 -48)">
    <use xlink:href="#rim"/>
    <path pointer-events="none" fill="none" stroke="white" stroke-width="1.5" d="M0,-3.0v7 M-2.5,-0.5L0,-3.0L2.5,-0.5"/>
  </g>
  <g id="arrowLeft" transform="rotate(270) translate(-36 17)">
    <use xlink:href="#rim"/>
    <path pointer-events="none" fill="none" stroke="white" stroke-width="1.5" d="M0,-3.0v7 M-2.5,-0.5L0,-3.0L2.5,-0.5"/>
  </g>
  <g id="resetDef">
    <use xlink:href="#rim2" fill="#404040"><set attributeName="fill" to="#808080" begin="reset.mouseover" end="reset.mouseout"/></use>
  </g>
</defs>
<script type="application/ecmascript">
var viewWidth = 1640;
var viewHeight = 1172;
var sectionId = 'dynsection-11';
</script>
<script type="application/ecmascript" xlink:href="svg.min.js"/>
<svg id="graph" class="graph">
<g id="viewport">
<title>com.runehive.game.world.object.StaticGameObject.rotate</title>
<!-- Node1 -->
<g id="Node000001" class="node">
<title>Node1</title>
<g id="a_Node000001"><a xlink:title=" ">
<ellipse fill="#999999" stroke="#666666" cx="135.41" cy="-463.81" rx="135.41" ry="25.81"/>
<text xml:space="preserve" text-anchor="start" x="47.66" y="-466.66" font-family="Helvetica,sans-Serif" font-size="12.00">com.runehive.game.world.object.</text>
<text xml:space="preserve" text-anchor="middle" x="135.41" y="-452.41" font-family="Helvetica,sans-Serif" font-size="12.00">StaticGameObject.rotate</text>
</a>
</g>
</g>
<!-- Node2 -->
<g id="Node000002" class="node">
<title>Node2</title>
<g id="a_Node000002"><a xlink:href="classcom_1_1runehive_1_1game_1_1world_1_1object_1_1_static_game_object.html#a48ff5faaf88c0c04a65e5d4823299967" target="_top" xlink:title="Registers the game object.">
<ellipse fill="white" stroke="#666666" cx="442.23" cy="-428.81" rx="135.41" ry="25.81"/>
<text xml:space="preserve" text-anchor="start" x="354.48" y="-431.66" font-family="Helvetica,sans-Serif" font-size="12.00">com.runehive.game.world.object.</text>
<text xml:space="preserve" text-anchor="middle" x="442.23" y="-417.41" font-family="Helvetica,sans-Serif" font-size="12.00">StaticGameObject.register</text>
</a>
</g>
</g>
<!-- Node1&#45;&gt;Node2 -->
<g id="edge1_Node000001_Node000002" class="edge">
<title>Node1&#45;&gt;Node2</title>
<g id="a_edge1_Node000001_Node000002"><a xlink:title=" ">
<path fill="none" stroke="#63b8ff" d="M252.52,-450.48C272.61,-448.17 293.59,-445.76 313.95,-443.42"/>
<polygon fill="#63b8ff" stroke="#63b8ff" points="314.15,-446.92 323.69,-442.31 313.36,-439.97 314.15,-446.92"/>
</a>
</g>
</g>
<!-- Node33 -->
<g id="Node000033" class="node">
<title>Node33</title>
<g id="a_Node000033"><a xlink:href="classcom_1_1runehive_1_1game_1_1world_1_1object_1_1_static_game_object.html#ac2beaa1d1261e166d410fcfe43fc8c81" target="_top" xlink:title="Unregisters the game object.">
<ellipse fill="white" stroke="#666666" cx="442.23" cy="-498.81" rx="135.41" ry="25.81"/>
<text xml:space="preserve" text-anchor="start" x="354.48" y="-501.66" font-family="Helvetica,sans-Serif" font-size="12.00">com.runehive.game.world.object.</text>
<text xml:space="preserve" text-anchor="middle" x="442.23" y="-487.41" font-family="Helvetica,sans-Serif" font-size="12.00">StaticGameObject.unregister</text>
</a>
</g>
</g>
<!-- Node1&#45;&gt;Node33 -->
<g id="edge42_Node000001_Node000033" class="edge">
<title>Node1&#45;&gt;Node33</title>
<g id="a_edge42_Node000001_Node000033"><a xlink:title=" ">
<path fill="none" stroke="#63b8ff" d="M252.52,-477.14C272.61,-479.45 293.59,-481.86 313.95,-484.19"/>
<polygon fill="#63b8ff" stroke="#63b8ff" points="313.36,-487.65 323.69,-485.31 314.15,-480.7 313.36,-487.65"/>
</a>
</g>
</g>
<!-- Node3 -->
<g id="Node000003" class="node">
<title>Node3</title>
<g id="a_Node000003"><a xlink:href="classcom_1_1runehive_1_1game_1_1world_1_1region_1_1_region.html#a04dffe98ee5a4d758d8b96c69f65791f" target="_top" xlink:title=" ">
<ellipse fill="white" stroke="#666666" cx="777.69" cy="-463.81" rx="136.47" ry="25.81"/>
<text xml:space="preserve" text-anchor="start" x="689.19" y="-466.66" font-family="Helvetica,sans-Serif" font-size="12.00">com.runehive.game.world.region.</text>
<text xml:space="preserve" text-anchor="middle" x="777.69" y="-452.41" font-family="Helvetica,sans-Serif" font-size="12.00">Region.containsObject</text>
</a>
</g>
</g>
<!-- Node2&#45;&gt;Node3 -->
<g id="edge2_Node000002_Node000003" class="edge">
<title>Node2&#45;&gt;Node3</title>
<g id="a_edge2_Node000002_Node000003"><a xlink:title=" ">
<path fill="none" stroke="#63b8ff" d="M561.74,-441.25C589.05,-444.11 618.25,-447.18 646.05,-450.1"/>
<polygon fill="#63b8ff" stroke="#63b8ff" points="645.63,-453.57 655.94,-451.14 646.36,-446.61 645.63,-453.57"/>
</a>
</g>
</g>
<!-- Node7 -->
<g id="Node000007" class="node">
<title>Node7</title>
<g id="a_Node000007"><a xlink:href="interfacecom_1_1runehive_1_1game_1_1world_1_1_interactable.html#a75ae27b999348cc0ab5445f2cd34b3b6" target="_top" xlink:title=" ">
<ellipse fill="white" stroke="#666666" cx="1132.24" cy="-1137.81" rx="110.49" ry="25.81"/>
<text xml:space="preserve" text-anchor="start" x="1062.12" y="-1140.66" font-family="Helvetica,sans-Serif" font-size="12.00">com.runehive.game.world.</text>
<text xml:space="preserve" text-anchor="middle" x="1132.24" y="-1126.41" font-family="Helvetica,sans-Serif" font-size="12.00">Interactable.getHeight</text>
</a>
</g>
</g>
<!-- Node2&#45;&gt;Node7 -->
<g id="edge6_Node000002_Node000007" class="edge">
<title>Node2&#45;&gt;Node7</title>
<g id="a_edge6_Node000002_Node000007"><a xlink:title=" ">
<path fill="none" stroke="#63b8ff" d="M552.21,-444.19C561.81,-449.18 570.56,-455.59 577.64,-463.81 626.81,-520.86 560.63,-747.32 613.64,-800.81 716.98,-905.07 836.9,-736.06 941.74,-838.81 1026.32,-921.69 897.8,-1015.45 977.74,-1102.81 987.81,-1113.82 1000.57,-1121.72 1014.41,-1127.35"/>
<polygon fill="#63b8ff" stroke="#63b8ff" points="1013.15,-1130.61 1023.75,-1130.7 1015.52,-1124.03 1013.15,-1130.61"/>
</a>
</g>
</g>
<!-- Node10 -->
<g id="Node000010" class="node">
<title>Node10</title>
<g id="a_Node000010"><a xlink:href="interfacecom_1_1runehive_1_1game_1_1world_1_1object_1_1_game_object.html#aa51cfc0586ee178e4601ac39a3f05e26" target="_top" xlink:title=" ">
<ellipse fill="white" stroke="#666666" cx="777.69" cy="-873.81" rx="135.41" ry="25.81"/>
<text xml:space="preserve" text-anchor="start" x="689.94" y="-876.66" font-family="Helvetica,sans-Serif" font-size="12.00">com.runehive.game.world.object.</text>
<text xml:space="preserve" text-anchor="middle" x="777.69" y="-862.41" font-family="Helvetica,sans-Serif" font-size="12.00">GameObject.getInstancedHeight</text>
</a>
</g>
</g>
<!-- Node2&#45;&gt;Node10 -->
<g id="edge9_Node000002_Node000010" class="edge">
<title>Node2&#45;&gt;Node10</title>
<g id="a_edge9_Node000002_Node000010"><a xlink:title=" ">
<path fill="none" stroke="#63b8ff" d="M552.29,-444.12C561.88,-449.12 570.6,-455.56 577.64,-463.81 631.27,-526.64 559.57,-771.36 613.64,-833.81 622.44,-843.97 633.35,-851.76 645.33,-857.72"/>
<polygon fill="#63b8ff" stroke="#63b8ff" points="643.69,-860.82 654.25,-861.68 646.53,-854.42 643.69,-860.82"/>
</a>
</g>
</g>
<!-- Node11 -->
<g id="Node000011" class="node">
<title>Node11</title>
<g id="a_Node000011"><a xlink:href="classcom_1_1runehive_1_1game_1_1world_1_1object_1_1_static_game_object.html#ae9174ff6642035a3ed8183d68208d216" target="_top" xlink:title="Gets the regional location.">
<ellipse fill="white" stroke="#666666" cx="777.69" cy="-355.81" rx="135.41" ry="25.81"/>
<text xml:space="preserve" text-anchor="start" x="689.94" y="-358.66" font-family="Helvetica,sans-Serif" font-size="12.00">com.runehive.game.world.object.</text>
<text xml:space="preserve" text-anchor="middle" x="777.69" y="-344.41" font-family="Helvetica,sans-Serif" font-size="12.00">StaticGameObject.getPosition</text>
</a>
</g>
</g>
<!-- Node2&#45;&gt;Node11 -->
<g id="edge10_Node000002_Node000011" class="edge">
<title>Node2&#45;&gt;Node11</title>
<g id="a_edge10_Node000002_Node000011"><a xlink:title=" ">
<path fill="none" stroke="#63b8ff" d="M532.59,-409.25C576.88,-399.55 630.53,-387.81 676.24,-377.8"/>
<polygon fill="#63b8ff" stroke="#63b8ff" points="676.88,-381.24 685.9,-375.69 675.38,-374.41 676.88,-381.24"/>
</a>
</g>
</g>
<!-- Node12 -->
<g id="Node000012" class="node">
<title>Node12</title>
<g id="a_Node000012"><a xlink:href="classcom_1_1runehive_1_1game_1_1world_1_1position_1_1_position.html#ab16b5fa340dc6057756d0fb7aadf53ac" target="_top" xlink:title=" ">
<ellipse fill="white" stroke="#666666" cx="777.69" cy="-247.81" rx="142.31" ry="25.81"/>
<text xml:space="preserve" text-anchor="start" x="685.07" y="-250.66" font-family="Helvetica,sans-Serif" font-size="12.00">com.runehive.game.world.position.</text>
<text xml:space="preserve" text-anchor="middle" x="777.69" y="-236.41" font-family="Helvetica,sans-Serif" font-size="12.00">Position.getRegion</text>
</a>
</g>
</g>
<!-- Node2&#45;&gt;Node12 -->
<g id="edge11_Node000002_Node000012" class="edge">
<title>Node2&#45;&gt;Node12</title>
<g id="a_edge11_Node000002_Node000012"><a xlink:title=" ">
<path fill="none" stroke="#63b8ff" d="M466.91,-403.09C497.66,-371.24 554.46,-317.57 613.64,-287.81 628.81,-280.18 645.51,-273.96 662.27,-268.89"/>
<polygon fill="#63b8ff" stroke="#63b8ff" points="663.18,-272.27 671.82,-266.14 661.25,-265.54 663.18,-272.27"/>
</a>
</g>
</g>
<!-- Node14 -->
<g id="Node000014" class="node">
<title>Node14</title>
<g id="a_Node000014"><a xlink:href="classcom_1_1runehive_1_1game_1_1world_1_1_world.html#af3702492a0bfe700e150763e8e976efe" target="_top" xlink:title=" ">
<ellipse fill="white" stroke="#666666" cx="1132.24" cy="-253.81" rx="110.49" ry="25.81"/>
<text xml:space="preserve" text-anchor="start" x="1062.12" y="-256.66" font-family="Helvetica,sans-Serif" font-size="12.00">com.runehive.game.world.</text>
<text xml:space="preserve" text-anchor="middle" x="1132.24" y="-242.41" font-family="Helvetica,sans-Serif" font-size="12.00">World.getRegions</text>
</a>
</g>
</g>
<!-- Node2&#45;&gt;Node14 -->
<g id="edge15_Node000002_Node000014" class="edge">
<title>Node2&#45;&gt;Node14</title>
<g id="a_edge15_Node000002_Node000014"><a xlink:title=" ">
<path fill="none" stroke="#63b8ff" d="M473.95,-403.24C506.45,-377.72 560.32,-339.68 613.64,-320.81 752.03,-271.84 796.25,-302.36 941.74,-282.81 970.13,-278.99 1000.86,-274.47 1029.13,-270.14"/>
<polygon fill="#63b8ff" stroke="#63b8ff" points="1029.41,-273.63 1038.76,-268.65 1028.34,-266.72 1029.41,-273.63"/>
</a>
</g>
</g>
<!-- Node15 -->
<g id="Node000015" class="node">
<title>Node15</title>
<g id="a_Node000015"><a xlink:href="classcom_1_1runehive_1_1game_1_1world_1_1region_1_1_region_manager.html#af7f277787498291d1a833af5ece5a0e8" target="_top" xlink:title="Gets the regions surrounding a position.">
<ellipse fill="white" stroke="#666666" cx="777.69" cy="-165.81" rx="164.05" ry="25.81"/>
<text xml:space="preserve" text-anchor="start" x="669.69" y="-168.66" font-family="Helvetica,sans-Serif" font-size="12.00">com.runehive.game.world.region.</text>
<text xml:space="preserve" text-anchor="middle" x="777.69" y="-154.41" font-family="Helvetica,sans-Serif" font-size="12.00">RegionManager.getSurroundingRegions</text>
</a>
</g>
</g>
<!-- Node2&#45;&gt;Node15 -->
<g id="edge16_Node000002_Node000015" class="edge">
<title>Node2&#45;&gt;Node15</title>
<g id="a_edge16_Node000002_Node000015"><a xlink:title=" ">
<path fill="none" stroke="#63b8ff" d="M456.55,-402.88C481.24,-357.4 538.52,-263.3 613.64,-212.81 627.78,-203.31 643.86,-195.7 660.27,-189.61"/>
<polygon fill="#63b8ff" stroke="#63b8ff" points="661.37,-192.94 669.65,-186.33 659.06,-186.33 661.37,-192.94"/>
</a>
</g>
</g>
<!-- Node19 -->
<g id="Node000019" class="node">
<title>Node19</title>
<g id="a_Node000019"><a xlink:href="classcom_1_1runehive_1_1game_1_1world_1_1pathfinding_1_1_traversal_map.html#a2af790bd2ef1961ce45530ec8fd5ddd3" target="_top" xlink:title="Marks a GameObject with the specified attributes on the specified Position to the TraversalMap.">
<ellipse fill="white" stroke="#666666" cx="777.69" cy="-533.81" rx="154.5" ry="25.81"/>
<text xml:space="preserve" text-anchor="start" x="676.44" y="-536.66" font-family="Helvetica,sans-Serif" font-size="12.00">com.runehive.game.world.pathfinding.</text>
<text xml:space="preserve" text-anchor="middle" x="777.69" y="-522.41" font-family="Helvetica,sans-Serif" font-size="12.00">TraversalMap.markObject</text>
</a>
</g>
</g>
<!-- Node2&#45;&gt;Node19 -->
<g id="edge21_Node000002_Node000019" class="edge">
<title>Node2&#45;&gt;Node19</title>
<g id="a_edge21_Node000002_Node000019"><a xlink:title=" ">
<path fill="none" stroke="#63b8ff" d="M538.91,-447.15C552.36,-451.59 565.67,-457.06 577.64,-463.81 597.09,-474.76 593.97,-488.28 613.64,-498.81 624.6,-504.67 636.47,-509.55 648.63,-513.62"/>
<polygon fill="#63b8ff" stroke="#63b8ff" points="647.35,-516.88 657.94,-516.53 649.44,-510.2 647.35,-516.88"/>
</a>
</g>
</g>
<!-- Node24 -->
<g id="Node000024" class="node">
<title>Node24</title>
<g id="a_Node000024"><a xlink:href="classcom_1_1runehive_1_1util_1_1_utility.html#a9a7b551fc7feeef234d0becd8db5e363" target="_top" xlink:title=" ">
<ellipse fill="white" stroke="#666666" cx="777.69" cy="-765.81" rx="122.68" ry="25.81"/>
<text xml:space="preserve" text-anchor="start" x="698.94" y="-768.66" font-family="Helvetica,sans-Serif" font-size="12.00">com.runehive.util.Utility.within</text>
<text xml:space="preserve" text-anchor="middle" x="777.69" y="-754.41" font-family="Helvetica,sans-Serif" font-size="12.00">ViewingDistance</text>
</a>
</g>
</g>
<!-- Node2&#45;&gt;Node24 -->
<g id="edge27_Node000002_Node000024" class="edge">
<title>Node2&#45;&gt;Node24</title>
<g id="a_edge27_Node000002_Node000024"><a xlink:title=" ">
<path fill="none" stroke="#63b8ff" d="M548.76,-445.14C559.33,-449.92 569.24,-456.02 577.64,-463.81 613.82,-497.35 589.52,-525.77 613.64,-568.81 649.26,-632.36 706.21,-695.38 742.51,-732.44"/>
<polygon fill="#63b8ff" stroke="#63b8ff" points="739.79,-734.66 749.31,-739.31 744.76,-729.74 739.79,-734.66"/>
</a>
</g>
</g>
<!-- Node4 -->
<g id="Node000004" class="node">
<title>Node4</title>
<g id="a_Node000004"><a xlink:href="classcom_1_1runehive_1_1game_1_1world_1_1region_1_1_region_block.html#afc101f7d38ea300345b4223dc446b9fa" target="_top" xlink:title=" ">
<ellipse fill="white" stroke="#666666" cx="1132.24" cy="-393.81" rx="136.47" ry="25.81"/>
<text xml:space="preserve" text-anchor="start" x="1043.74" y="-396.66" font-family="Helvetica,sans-Serif" font-size="12.00">com.runehive.game.world.region.</text>
<text xml:space="preserve" text-anchor="middle" x="1132.24" y="-382.41" font-family="Helvetica,sans-Serif" font-size="12.00">RegionBlock.containsObject</text>
</a>
</g>
</g>
<!-- Node3&#45;&gt;Node4 -->
<g id="edge3_Node000003_Node000004" class="edge">
<title>Node3&#45;&gt;Node4</title>
<g id="a_edge3_Node000003_Node000004"><a xlink:title=" ">
<path fill="none" stroke="#63b8ff" d="M873.17,-445.05C920.1,-435.73 976.96,-424.44 1025.36,-414.83"/>
<polygon fill="#63b8ff" stroke="#63b8ff" points="1025.89,-418.3 1035.02,-412.91 1024.53,-411.43 1025.89,-418.3"/>
</a>
</g>
</g>
<!-- Node6 -->
<g id="Node000006" class="node">
<title>Node6</title>
<g id="a_Node000006"><a xlink:href="classcom_1_1runehive_1_1game_1_1world_1_1region_1_1_region.html#a1f0b74f12f68256ec8da477a64a1482c" target="_top" xlink:title=" ">
<ellipse fill="white" stroke="#666666" cx="1132.24" cy="-323.81" rx="136.47" ry="25.81"/>
<text xml:space="preserve" text-anchor="start" x="1043.74" y="-326.66" font-family="Helvetica,sans-Serif" font-size="12.00">com.runehive.game.world.region.</text>
<text xml:space="preserve" text-anchor="middle" x="1132.24" y="-312.41" font-family="Helvetica,sans-Serif" font-size="12.00">Region.getBlock</text>
</a>
</g>
</g>
<!-- Node3&#45;&gt;Node6 -->
<g id="edge5_Node000003_Node000006" class="edge">
<title>Node3&#45;&gt;Node6</title>
<g id="a_edge5_Node000003_Node000006"><a xlink:title=" ">
<path fill="none" stroke="#63b8ff" d="M891.26,-449.18C909.32,-443.3 926.92,-435.14 941.74,-423.81 967.98,-403.75 951.34,-378.65 977.74,-358.81 986.67,-352.1 996.66,-346.63 1007.15,-342.2"/>
<polygon fill="#63b8ff" stroke="#63b8ff" points="1008.3,-345.5 1016.37,-338.63 1005.78,-338.97 1008.3,-345.5"/>
</a>
</g>
</g>
<!-- Node5 -->
<g id="Node000005" class="node">
<title>Node5</title>
<g id="a_Node000005"><a xlink:href="classcom_1_1runehive_1_1game_1_1world_1_1region_1_1_region_block.html#a1ee4e51dfd0c6a0be0135543c5b674e5" target="_top" xlink:title=" ">
<ellipse fill="white" stroke="#666666" cx="1477.25" cy="-393.81" rx="136.47" ry="25.81"/>
<text xml:space="preserve" text-anchor="start" x="1388.75" y="-396.66" font-family="Helvetica,sans-Serif" font-size="12.00">com.runehive.game.world.region.</text>
<text xml:space="preserve" text-anchor="middle" x="1477.25" y="-382.41" font-family="Helvetica,sans-Serif" font-size="12.00">RegionBlock.getObjects</text>
</a>
</g>
</g>
<!-- Node4&#45;&gt;Node5 -->
<g id="edge4_Node000004_Node000005" class="edge">
<title>Node4&#45;&gt;Node5</title>
<g id="a_edge4_Node000004_Node000005"><a xlink:title=" ">
<path fill="none" stroke="#63b8ff" d="M1268.81,-393.81C1288.62,-393.81 1309.11,-393.81 1329.14,-393.81"/>
<polygon fill="#63b8ff" stroke="#63b8ff" points="1329.03,-397.31 1339.03,-393.81 1329.03,-390.31 1329.03,-397.31"/>
</a>
</g>
</g>
<!-- Node8 -->
<g id="Node000008" class="node">
<title>Node8</title>
<g id="a_Node000008"><a xlink:href="classcom_1_1runehive_1_1game_1_1world_1_1position_1_1_position.html#a2fcda274378da97b14a6c4f7d3b08095" target="_top" xlink:title="Gets the height coordinate, or height.">
<ellipse fill="white" stroke="#666666" cx="1477.25" cy="-1137.81" rx="142.31" ry="25.81"/>
<text xml:space="preserve" text-anchor="start" x="1384.62" y="-1140.66" font-family="Helvetica,sans-Serif" font-size="12.00">com.runehive.game.world.position.</text>
<text xml:space="preserve" text-anchor="middle" x="1477.25" y="-1126.41" font-family="Helvetica,sans-Serif" font-size="12.00">Position.getHeight</text>
</a>
</g>
</g>
<!-- Node7&#45;&gt;Node8 -->
<g id="edge7_Node000007_Node000008" class="edge">
<title>Node7&#45;&gt;Node8</title>
<g id="a_edge7_Node000007_Node000008"><a xlink:title=" ">
<path fill="none" stroke="#63b8ff" d="M1243.19,-1137.81C1268.65,-1137.81 1296.2,-1137.81 1323.14,-1137.81"/>
<polygon fill="#63b8ff" stroke="#63b8ff" points="1323.12,-1141.31 1333.12,-1137.81 1323.12,-1134.31 1323.12,-1141.31"/>
</a>
</g>
</g>
<!-- Node9 -->
<g id="Node000009" class="node">
<title>Node9</title>
<g id="a_Node000009"><a xlink:href="interfacecom_1_1runehive_1_1game_1_1world_1_1_interactable.html#a49e07a60c6643c0ba33bc9754305c352" target="_top" xlink:title=" ">
<ellipse fill="white" stroke="#666666" cx="1477.25" cy="-916.81" rx="110.49" ry="25.81"/>
<text xml:space="preserve" text-anchor="start" x="1407.12" y="-919.66" font-family="Helvetica,sans-Serif" font-size="12.00">com.runehive.game.world.</text>
<text xml:space="preserve" text-anchor="middle" x="1477.25" y="-905.41" font-family="Helvetica,sans-Serif" font-size="12.00">Interactable.getPosition</text>
</a>
</g>
</g>
<!-- Node7&#45;&gt;Node9 -->
<g id="edge8_Node000007_Node000009" class="edge">
<title>Node7&#45;&gt;Node9</title>
<g id="a_edge8_Node000007_Node000009"><a xlink:title=" ">
<path fill="none" stroke="#63b8ff" d="M1234.65,-1127.81C1253.3,-1122.47 1271.63,-1114.54 1286.75,-1102.81 1314.38,-1081.36 1300.23,-1059.58 1322.75,-1032.81 1351.81,-998.26 1392.97,-967.86 1425.36,-946.85"/>
<polygon fill="#63b8ff" stroke="#63b8ff" points="1426.85,-950.06 1433.39,-941.73 1423.08,-944.15 1426.85,-950.06"/>
</a>
</g>
</g>
<!-- Node13 -->
<g id="Node000013" class="node">
<title>Node13</title>
<g id="a_Node000013"><a xlink:href="classcom_1_1runehive_1_1game_1_1world_1_1region_1_1_region_manager.html#a47cc7e1ea2d7610c5d496d5b659c7d53" target="_top" xlink:title="Gets a region by position.">
<ellipse fill="white" stroke="#666666" cx="1132.24" cy="-165.81" rx="136.47" ry="25.81"/>
<text xml:space="preserve" text-anchor="start" x="1043.74" y="-168.66" font-family="Helvetica,sans-Serif" font-size="12.00">com.runehive.game.world.region.</text>
<text xml:space="preserve" text-anchor="middle" x="1132.24" y="-154.41" font-family="Helvetica,sans-Serif" font-size="12.00">RegionManager.getRegion</text>
</a>
</g>
</g>
<!-- Node12&#45;&gt;Node13 -->
<g id="edge12_Node000012_Node000013" class="edge">
<title>Node12&#45;&gt;Node13</title>
<g id="a_edge12_Node000012_Node000013"><a xlink:title=" ">
<path fill="none" stroke="#63b8ff" d="M866.75,-227.33C917.49,-215.53 981.38,-200.67 1033.65,-188.51"/>
<polygon fill="#63b8ff" stroke="#63b8ff" points="1034.2,-191.98 1043.14,-186.3 1032.61,-185.16 1034.2,-191.98"/>
</a>
</g>
</g>
<!-- Node12&#45;&gt;Node14 -->
<g id="edge14_Node000012_Node000014" class="edge">
<title>Node12&#45;&gt;Node14</title>
<g id="a_edge14_Node000012_Node000014"><a xlink:title=" ">
<path fill="none" stroke="#63b8ff" d="M919.8,-250.21C949.76,-250.72 981.12,-251.25 1010.24,-251.75"/>
<polygon fill="#63b8ff" stroke="#63b8ff" points="1010.14,-255.25 1020.2,-251.92 1010.26,-248.25 1010.14,-255.25"/>
</a>
</g>
</g>
<!-- Node13&#45;&gt;Node13 -->
<g id="edge13_Node000013_Node000013" class="edge">
<title>Node13&#45;&gt;Node13</title>
<g id="a_edge13_Node000013_Node000013"><a xlink:title=" ">
<path fill="none" stroke="#63b8ff" d="M1069.13,-188.8C1061.34,-199.86 1082.38,-209.62 1132.24,-209.62 1164.19,-209.62 1184.3,-205.61 1192.58,-199.83"/>
<polygon fill="#63b8ff" stroke="#63b8ff" points="1195.94,-200.82 1194.98,-190.27 1189.15,-199.11 1195.94,-200.82"/>
</a>
</g>
</g>
<!-- Node15&#45;&gt;Node13 -->
<g id="edge17_Node000015_Node000013" class="edge">
<title>Node15&#45;&gt;Node13</title>
<g id="a_edge17_Node000015_Node000013"><a xlink:title=" ">
<path fill="none" stroke="#63b8ff" d="M942.07,-165.81C956.14,-165.81 970.32,-165.81 984.25,-165.81"/>
<polygon fill="#63b8ff" stroke="#63b8ff" points="983.85,-169.31 993.85,-165.81 983.85,-162.31 983.85,-169.31"/>
</a>
</g>
</g>
<!-- Node16 -->
<g id="Node000016" class="node">
<title>Node16</title>
<g id="a_Node000016"><a xlink:href="classcom_1_1runehive_1_1game_1_1world_1_1region_1_1_region.html#ae6ee1ad3798088cfea31cc90c3573ad2" target="_top" xlink:title=" ">
<ellipse fill="white" stroke="#666666" cx="1132.24" cy="-95.81" rx="136.47" ry="25.81"/>
<text xml:space="preserve" text-anchor="start" x="1043.74" y="-98.66" font-family="Helvetica,sans-Serif" font-size="12.00">com.runehive.game.world.region.</text>
<text xml:space="preserve" text-anchor="middle" x="1132.24" y="-84.41" font-family="Helvetica,sans-Serif" font-size="12.00">Region.getSurroundingRegions</text>
</a>
</g>
</g>
<!-- Node15&#45;&gt;Node16 -->
<g id="edge18_Node000015_Node000016" class="edge">
<title>Node15&#45;&gt;Node16</title>
<g id="a_edge18_Node000015_Node000016"><a xlink:title=" ">
<path fill="none" stroke="#63b8ff" d="M881.14,-145.47C926.5,-136.46 979.81,-125.88 1025.54,-116.8"/>
<polygon fill="#63b8ff" stroke="#63b8ff" points="1026.08,-120.26 1035.21,-114.88 1024.72,-113.39 1026.08,-120.26"/>
</a>
</g>
</g>
<!-- Node17 -->
<g id="Node000017" class="node">
<title>Node17</title>
<g id="a_Node000017"><a xlink:href="classcom_1_1runehive_1_1game_1_1world_1_1region_1_1_region.html#ad12f8bca35c18ec9caacbc6843895a1c" target="_top" xlink:title=" ">
<ellipse fill="white" stroke="#666666" cx="1132.24" cy="-25.81" rx="136.47" ry="25.81"/>
<text xml:space="preserve" text-anchor="start" x="1043.74" y="-28.66" font-family="Helvetica,sans-Serif" font-size="12.00">com.runehive.game.world.region.</text>
<text xml:space="preserve" text-anchor="middle" x="1132.24" y="-14.41" font-family="Helvetica,sans-Serif" font-size="12.00">Region.setSurroundingRegions</text>
</a>
</g>
</g>
<!-- Node15&#45;&gt;Node17 -->
<g id="edge19_Node000015_Node000017" class="edge">
<title>Node15&#45;&gt;Node17</title>
<g id="a_edge19_Node000015_Node000017"><a xlink:title=" ">
<path fill="none" stroke="#63b8ff" d="M819.17,-140.41C858.39,-116.78 920.22,-82.12 977.74,-60.81 992.08,-55.5 1007.47,-50.84 1022.78,-46.8"/>
<polygon fill="#63b8ff" stroke="#63b8ff" points="1023.61,-50.2 1032.44,-44.34 1021.88,-43.42 1023.61,-50.2"/>
</a>
</g>
</g>
<!-- Node18 -->
<g id="Node000018" class="node">
<title>Node18</title>
<g id="a_Node000018"><a xlink:href="classcom_1_1runehive_1_1game_1_1world_1_1region_1_1_region.html#ad4c470f0d3f8e4cd7fede6740d6468e7" target="_top" xlink:title="Creates a region.">
<ellipse fill="white" stroke="#666666" cx="1477.25" cy="-25.81" rx="136.47" ry="25.81"/>
<text xml:space="preserve" text-anchor="start" x="1388.75" y="-28.66" font-family="Helvetica,sans-Serif" font-size="12.00">com.runehive.game.world.region.</text>
<text xml:space="preserve" text-anchor="middle" x="1477.25" y="-14.41" font-family="Helvetica,sans-Serif" font-size="12.00">Region.Region</text>
</a>
</g>
</g>
<!-- Node17&#45;&gt;Node18 -->
<g id="edge20_Node000017_Node000018" class="edge">
<title>Node17&#45;&gt;Node18</title>
<g id="a_edge20_Node000017_Node000018"><a xlink:title=" ">
<path fill="none" stroke="#63b8ff" d="M1268.81,-25.81C1288.62,-25.81 1309.11,-25.81 1329.14,-25.81"/>
<polygon fill="#63b8ff" stroke="#63b8ff" points="1329.03,-29.31 1339.03,-25.81 1329.03,-22.31 1329.03,-29.31"/>
</a>
</g>
</g>
<!-- Node20 -->
<g id="Node000020" class="node">
<title>Node20</title>
<g id="a_Node000020"><a xlink:href="classcom_1_1runehive_1_1game_1_1world_1_1pathfinding_1_1_traversal_map.html#ad640cb52b419921b71e984ae796ef4af" target="_top" xlink:title="Marks the specified coordinates occupied by some object.">
<ellipse fill="white" stroke="#666666" cx="1132.24" cy="-463.81" rx="154.5" ry="25.81"/>
<text xml:space="preserve" text-anchor="start" x="1030.99" y="-466.66" font-family="Helvetica,sans-Serif" font-size="12.00">com.runehive.game.world.pathfinding.</text>
<text xml:space="preserve" text-anchor="middle" x="1132.24" y="-452.41" font-family="Helvetica,sans-Serif" font-size="12.00">TraversalMap.markOccupant</text>
</a>
</g>
</g>
<!-- Node19&#45;&gt;Node20 -->
<g id="edge22_Node000019_Node000020" class="edge">
<title>Node19&#45;&gt;Node20</title>
<g id="a_edge22_Node000019_Node000020"><a xlink:title=" ">
<path fill="none" stroke="#63b8ff" d="M878.78,-513.94C922.88,-505.18 974.86,-494.86 1020.16,-485.87"/>
<polygon fill="#63b8ff" stroke="#63b8ff" points="1020.6,-489.35 1029.73,-483.97 1019.24,-482.48 1020.6,-489.35"/>
</a>
</g>
</g>
<!-- Node22 -->
<g id="Node000022" class="node">
<title>Node22</title>
<g id="a_Node000022"><a xlink:href="classcom_1_1runehive_1_1game_1_1world_1_1pathfinding_1_1_traversal_map.html#ab9e0de1d8780593774974152f2e42765" target="_top" xlink:title="Informs the region of an existing wall.">
<ellipse fill="white" stroke="#666666" cx="1132.24" cy="-533.81" rx="154.5" ry="25.81"/>
<text xml:space="preserve" text-anchor="start" x="1030.99" y="-536.66" font-family="Helvetica,sans-Serif" font-size="12.00">com.runehive.game.world.pathfinding.</text>
<text xml:space="preserve" text-anchor="middle" x="1132.24" y="-522.41" font-family="Helvetica,sans-Serif" font-size="12.00">TraversalMap.markWall</text>
</a>
</g>
</g>
<!-- Node19&#45;&gt;Node22 -->
<g id="edge24_Node000019_Node000022" class="edge">
<title>Node19&#45;&gt;Node22</title>
<g id="a_edge24_Node000019_Node000022"><a xlink:title=" ">
<path fill="none" stroke="#63b8ff" d="M932.56,-533.81C943.57,-533.81 954.69,-533.81 965.77,-533.81"/>
<polygon fill="#63b8ff" stroke="#63b8ff" points="965.76,-537.31 975.76,-533.81 965.76,-530.31 965.76,-537.31"/>
</a>
</g>
</g>
<!-- Node23 -->
<g id="Node000023" class="node">
<title>Node23</title>
<g id="a_Node000023"><a xlink:href="classcom_1_1runehive_1_1game_1_1world_1_1pathfinding_1_1_traversal_map.html#acb9cebf6ef660b3f43b097013cd8d69d" target="_top" xlink:title="Informs the region of an existing wall being removed.">
<ellipse fill="white" stroke="#666666" cx="1132.24" cy="-603.81" rx="154.5" ry="25.81"/>
<text xml:space="preserve" text-anchor="start" x="1030.99" y="-606.66" font-family="Helvetica,sans-Serif" font-size="12.00">com.runehive.game.world.pathfinding.</text>
<text xml:space="preserve" text-anchor="middle" x="1132.24" y="-592.41" font-family="Helvetica,sans-Serif" font-size="12.00">TraversalMap.unmarkWall</text>
</a>
</g>
</g>
<!-- Node19&#45;&gt;Node23 -->
<g id="edge25_Node000019_Node000023" class="edge">
<title>Node19&#45;&gt;Node23</title>
<g id="a_edge25_Node000019_Node000023"><a xlink:title=" ">
<path fill="none" stroke="#63b8ff" d="M878.78,-553.68C922.88,-562.44 974.86,-572.76 1020.16,-581.75"/>
<polygon fill="#63b8ff" stroke="#63b8ff" points="1019.24,-585.14 1029.73,-583.65 1020.6,-578.27 1019.24,-585.14"/>
</a>
</g>
</g>
<!-- Node21 -->
<g id="Node000021" class="node">
<title>Node21</title>
<g id="a_Node000021"><a xlink:href="classcom_1_1runehive_1_1game_1_1world_1_1pathfinding_1_1_traversal_map.html#a9b155eeee0f84b0b97125e24a6302b60" target="_top" xlink:title="Unsets the specified flag from the specified position.">
<ellipse fill="white" stroke="#666666" cx="1477.25" cy="-533.81" rx="154.5" ry="25.81"/>
<text xml:space="preserve" text-anchor="start" x="1376" y="-536.66" font-family="Helvetica,sans-Serif" font-size="12.00">com.runehive.game.world.pathfinding.</text>
<text xml:space="preserve" text-anchor="middle" x="1477.25" y="-522.41" font-family="Helvetica,sans-Serif" font-size="12.00">TraversalMap.unset</text>
</a>
</g>
</g>
<!-- Node20&#45;&gt;Node21 -->
<g id="edge23_Node000020_Node000021" class="edge">
<title>Node20&#45;&gt;Node21</title>
<g id="a_edge23_Node000020_Node000021"><a xlink:title=" ">
<path fill="none" stroke="#63b8ff" d="M1231.54,-483.87C1273.69,-492.47 1323.12,-502.56 1366.47,-511.41"/>
<polygon fill="#63b8ff" stroke="#63b8ff" points="1365.67,-514.81 1376.16,-513.38 1367.07,-507.96 1365.67,-514.81"/>
</a>
</g>
</g>
<!-- Node23&#45;&gt;Node21 -->
<g id="edge26_Node000023_Node000021" class="edge">
<title>Node23&#45;&gt;Node21</title>
<g id="a_edge26_Node000023_Node000021"><a xlink:title=" ">
<path fill="none" stroke="#63b8ff" d="M1231.54,-583.75C1273.69,-575.15 1323.12,-565.06 1366.47,-556.21"/>
<polygon fill="#63b8ff" stroke="#63b8ff" points="1367.07,-559.66 1376.16,-554.23 1365.67,-552.81 1367.07,-559.66"/>
</a>
</g>
</g>
<!-- Node24&#45;&gt;Node7 -->
<g id="edge28_Node000024_Node000007" class="edge">
<title>Node24&#45;&gt;Node7</title>
<g id="a_edge28_Node000024_Node000007"><a xlink:title=" ">
<path fill="none" stroke="#63b8ff" d="M892.48,-774.99C911.18,-781.35 928.69,-791.09 941.74,-805.81 1029.96,-905.3 888.71,-1004.05 977.74,-1102.81 987.73,-1113.89 1000.44,-1121.84 1014.25,-1127.48"/>
<polygon fill="#63b8ff" stroke="#63b8ff" points="1012.99,-1130.75 1023.58,-1130.85 1015.37,-1124.16 1012.99,-1130.75"/>
</a>
</g>
</g>
<!-- Node24&#45;&gt;Node9 -->
<g id="edge29_Node000024_Node000009" class="edge">
<title>Node24&#45;&gt;Node9</title>
<g id="a_edge29_Node000024_Node000009"><a xlink:title=" ">
<path fill="none" stroke="#63b8ff" d="M889.65,-776.64C908.84,-782.82 927.25,-792.07 941.74,-805.81 981.84,-843.83 933.37,-891.88 977.74,-924.81 1038.04,-969.57 1245.61,-949.98 1373.12,-932.71"/>
<polygon fill="#63b8ff" stroke="#63b8ff" points="1373.51,-936.19 1382.94,-931.36 1372.55,-929.25 1373.51,-936.19"/>
</a>
</g>
</g>
<!-- Node25 -->
<g id="Node000025" class="node">
<title>Node25</title>
<g id="a_Node000025"><a xlink:href="interfacecom_1_1runehive_1_1game_1_1world_1_1_interactable.html#a709f3328972af0a98047591417fd5d4b" target="_top" xlink:title=" ">
<ellipse fill="white" stroke="#666666" cx="1132.24" cy="-889.81" rx="110.49" ry="25.81"/>
<text xml:space="preserve" text-anchor="start" x="1062.12" y="-892.66" font-family="Helvetica,sans-Serif" font-size="12.00">com.runehive.game.world.</text>
<text xml:space="preserve" text-anchor="middle" x="1132.24" y="-878.41" font-family="Helvetica,sans-Serif" font-size="12.00">Interactable.getX</text>
</a>
</g>
</g>
<!-- Node24&#45;&gt;Node25 -->
<g id="edge30_Node000024_Node000025" class="edge">
<title>Node24&#45;&gt;Node25</title>
<g id="a_edge30_Node000024_Node000025"><a xlink:title=" ">
<path fill="none" stroke="#63b8ff" d="M881.98,-779.67C902.9,-785.55 923.93,-793.91 941.74,-805.81 964.21,-820.82 955.15,-839.98 977.74,-854.81 991.11,-863.58 1006.39,-870.17 1022,-875.12"/>
<polygon fill="#63b8ff" stroke="#63b8ff" points="1020.81,-878.42 1031.39,-877.87 1022.77,-871.7 1020.81,-878.42"/>
</a>
</g>
</g>
<!-- Node26 -->
<g id="Node000026" class="node">
<title>Node26</title>
<g id="a_Node000026"><a xlink:href="classcom_1_1runehive_1_1game_1_1world_1_1position_1_1_position.html#a7bfa5292d8c3f79100a6bc85ea27b5ea" target="_top" xlink:title="Gets the absolute x coordinate.">
<ellipse fill="white" stroke="#666666" cx="1477.25" cy="-835.81" rx="142.31" ry="25.81"/>
<text xml:space="preserve" text-anchor="start" x="1384.62" y="-838.66" font-family="Helvetica,sans-Serif" font-size="12.00">com.runehive.game.world.position.</text>
<text xml:space="preserve" text-anchor="middle" x="1477.25" y="-824.41" font-family="Helvetica,sans-Serif" font-size="12.00">Position.getX</text>
</a>
</g>
</g>
<!-- Node24&#45;&gt;Node26 -->
<g id="edge33_Node000024_Node000026" class="edge">
<title>Node24&#45;&gt;Node26</title>
<g id="a_edge33_Node000024_Node000026"><a xlink:title=" ">
<path fill="none" stroke="#63b8ff" d="M899.77,-762.7C1003.15,-761.87 1155.51,-764.96 1286.75,-784.81 1323.07,-790.3 1362.42,-800.22 1395.79,-809.85"/>
<polygon fill="#63b8ff" stroke="#63b8ff" points="1394.38,-813.09 1404.96,-812.54 1396.35,-806.37 1394.38,-813.09"/>
</a>
</g>
</g>
<!-- Node27 -->
<g id="Node000027" class="node">
<title>Node27</title>
<g id="a_Node000027"><a xlink:href="interfacecom_1_1runehive_1_1game_1_1world_1_1_interactable.html#a4fe2dfd0c67da8fd088077795154e218" target="_top" xlink:title=" ">
<ellipse fill="white" stroke="#666666" cx="1132.24" cy="-819.81" rx="110.49" ry="25.81"/>
<text xml:space="preserve" text-anchor="start" x="1062.12" y="-822.66" font-family="Helvetica,sans-Serif" font-size="12.00">com.runehive.game.world.</text>
<text xml:space="preserve" text-anchor="middle" x="1132.24" y="-808.41" font-family="Helvetica,sans-Serif" font-size="12.00">Interactable.getY</text>
</a>
</g>
</g>
<!-- Node24&#45;&gt;Node27 -->
<g id="edge34_Node000024_Node000027" class="edge">
<title>Node24&#45;&gt;Node27</title>
<g id="a_edge34_Node000024_Node000027"><a xlink:title=" ">
<path fill="none" stroke="#63b8ff" d="M877.84,-781C924.6,-788.16 980.38,-796.7 1027.68,-803.95"/>
<polygon fill="#63b8ff" stroke="#63b8ff" points="1026.98,-807.38 1037.39,-805.43 1028.04,-800.46 1026.98,-807.38"/>
</a>
</g>
</g>
<!-- Node28 -->
<g id="Node000028" class="node">
<title>Node28</title>
<g id="a_Node000028"><a xlink:href="classcom_1_1runehive_1_1game_1_1world_1_1position_1_1_position.html#a55498d0fafce9fdeedca16984d79aee5" target="_top" xlink:title="Gets the absolute y coordinate.">
<ellipse fill="white" stroke="#666666" cx="1477.25" cy="-746.81" rx="142.31" ry="25.81"/>
<text xml:space="preserve" text-anchor="start" x="1384.62" y="-749.66" font-family="Helvetica,sans-Serif" font-size="12.00">com.runehive.game.world.position.</text>
<text xml:space="preserve" text-anchor="middle" x="1477.25" y="-735.41" font-family="Helvetica,sans-Serif" font-size="12.00">Position.getY</text>
</a>
</g>
</g>
<!-- Node24&#45;&gt;Node28 -->
<g id="edge37_Node000024_Node000028" class="edge">
<title>Node24&#45;&gt;Node28</title>
<g id="a_edge37_Node000024_Node000028"><a xlink:title=" ">
<path fill="none" stroke="#63b8ff" d="M892.83,-756.6C920.6,-754.68 950.22,-752.91 977.74,-751.81 1093.59,-747.16 1224.7,-746.01 1323.38,-745.96"/>
<polygon fill="#63b8ff" stroke="#63b8ff" points="1323.13,-749.46 1333.13,-745.96 1323.13,-742.46 1323.13,-749.46"/>
</a>
</g>
</g>
<!-- Node29 -->
<g id="Node000029" class="node">
<title>Node29</title>
<g id="a_Node000029"><a xlink:href="interfacecom_1_1runehive_1_1game_1_1world_1_1_interactable.html#a9513e5e63159a738b417ceba87cd1de8" target="_top" xlink:title=" ">
<ellipse fill="white" stroke="#666666" cx="1132.24" cy="-673.81" rx="110.49" ry="25.81"/>
<text xml:space="preserve" text-anchor="start" x="1062.12" y="-676.66" font-family="Helvetica,sans-Serif" font-size="12.00">com.runehive.game.world.</text>
<text xml:space="preserve" text-anchor="middle" x="1132.24" y="-662.41" font-family="Helvetica,sans-Serif" font-size="12.00">Interactable.length</text>
</a>
</g>
</g>
<!-- Node24&#45;&gt;Node29 -->
<g id="edge38_Node000024_Node000029" class="edge">
<title>Node24&#45;&gt;Node29</title>
<g id="a_edge38_Node000024_Node000029"><a xlink:title=" ">
<path fill="none" stroke="#63b8ff" d="M856.2,-745.55C893.02,-735.93 937.65,-724.27 977.74,-713.81 999.85,-708.04 1023.76,-701.81 1045.97,-696.02"/>
<polygon fill="#63b8ff" stroke="#63b8ff" points="1046.81,-699.42 1055.6,-693.51 1045.04,-692.64 1046.81,-699.42"/>
</a>
</g>
</g>
<!-- Node30 -->
<g id="Node000030" class="node">
<title>Node30</title>
<g id="a_Node000030"><a xlink:href="classcom_1_1runehive_1_1game_1_1world_1_1position_1_1_position.html#a92154563715ed156b00ee6220e2991ff" target="_top" xlink:title="Creates a new location based on this location.">
<ellipse fill="white" stroke="#666666" cx="1132.24" cy="-1067.81" rx="142.31" ry="25.81"/>
<text xml:space="preserve" text-anchor="start" x="1039.62" y="-1070.66" font-family="Helvetica,sans-Serif" font-size="12.00">com.runehive.game.world.position.</text>
<text xml:space="preserve" text-anchor="middle" x="1132.24" y="-1056.41" font-family="Helvetica,sans-Serif" font-size="12.00">Position.transform</text>
</a>
</g>
</g>
<!-- Node24&#45;&gt;Node30 -->
<g id="edge39_Node000024_Node000030" class="edge">
<title>Node24&#45;&gt;Node30</title>
<g id="a_edge39_Node000024_Node000030"><a xlink:title=" ">
<path fill="none" stroke="#63b8ff" d="M892.05,-775.38C910.79,-781.71 928.42,-791.33 941.74,-805.81 1010.9,-880.98 907.97,-958.2 977.74,-1032.81 983.91,-1039.41 991.05,-1044.88 998.79,-1049.42"/>
<polygon fill="#63b8ff" stroke="#63b8ff" points="997.08,-1052.47 1007.57,-1053.98 1000.31,-1046.26 997.08,-1052.47"/>
</a>
</g>
</g>
<!-- Node32 -->
<g id="Node000032" class="node">
<title>Node32</title>
<g id="a_Node000032"><a xlink:href="interfacecom_1_1runehive_1_1game_1_1world_1_1_interactable.html#ad7eb47dad8c89c478cedc32ea6fe3a5b" target="_top" xlink:title=" ">
<ellipse fill="white" stroke="#666666" cx="1132.24" cy="-997.81" rx="110.49" ry="25.81"/>
<text xml:space="preserve" text-anchor="start" x="1062.12" y="-1000.66" font-family="Helvetica,sans-Serif" font-size="12.00">com.runehive.game.world.</text>
<text xml:space="preserve" text-anchor="middle" x="1132.24" y="-986.41" font-family="Helvetica,sans-Serif" font-size="12.00">Interactable.width</text>
</a>
</g>
</g>
<!-- Node24&#45;&gt;Node32 -->
<g id="edge41_Node000024_Node000032" class="edge">
<title>Node24&#45;&gt;Node32</title>
<g id="a_edge41_Node000024_Node000032"><a xlink:title=" ">
<path fill="none" stroke="#63b8ff" d="M890.76,-776.08C909.74,-782.32 927.78,-791.74 941.74,-805.81 990.63,-855.1 929.2,-908.17 977.74,-957.81 989.24,-969.57 1003.73,-978.02 1019.18,-984.06"/>
<polygon fill="#63b8ff" stroke="#63b8ff" points="1017.99,-987.35 1028.59,-987.37 1020.31,-980.75 1017.99,-987.35"/>
</a>
</g>
</g>
<!-- Node25&#45;&gt;Node9 -->
<g id="edge31_Node000025_Node000009" class="edge">
<title>Node25&#45;&gt;Node9</title>
<g id="a_edge31_Node000025_Node000009"><a xlink:title=" ">
<path fill="none" stroke="#63b8ff" d="M1237.55,-898.02C1276.39,-901.08 1320.68,-904.56 1360.47,-907.7"/>
<polygon fill="#63b8ff" stroke="#63b8ff" points="1360.09,-911.18 1370.34,-908.47 1360.64,-904.2 1360.09,-911.18"/>
</a>
</g>
</g>
<!-- Node25&#45;&gt;Node26 -->
<g id="edge32_Node000025_Node000026" class="edge">
<title>Node25&#45;&gt;Node26</title>
<g id="a_edge32_Node000025_Node000026"><a xlink:title=" ">
<path fill="none" stroke="#63b8ff" d="M1224.71,-875.41C1265.33,-869.01 1313.68,-861.4 1357.07,-854.57"/>
<polygon fill="#63b8ff" stroke="#63b8ff" points="1357.46,-858.05 1366.79,-853.04 1356.37,-851.14 1357.46,-858.05"/>
</a>
</g>
</g>
<!-- Node27&#45;&gt;Node9 -->
<g id="edge35_Node000027_Node000009" class="edge">
<title>Node27&#45;&gt;Node9</title>
<g id="a_edge35_Node000027_Node000009"><a xlink:title=" ">
<path fill="none" stroke="#63b8ff" d="M1218.51,-836.16C1240.94,-841.3 1264.96,-847.56 1286.75,-854.81 1303.36,-860.34 1306.33,-864.73 1322.75,-870.81 1345.27,-879.15 1370.06,-887.1 1393.02,-893.97"/>
<polygon fill="#63b8ff" stroke="#63b8ff" points="1391.75,-897.24 1402.33,-896.72 1393.73,-890.53 1391.75,-897.24"/>
</a>
</g>
</g>
<!-- Node27&#45;&gt;Node28 -->
<g id="edge36_Node000027_Node000028" class="edge">
<title>Node27&#45;&gt;Node28</title>
<g id="a_edge36_Node000027_Node000028"><a xlink:title=" ">
<path fill="none" stroke="#63b8ff" d="M1214.97,-802.42C1262.13,-792.38 1321.92,-779.65 1372.39,-768.91"/>
<polygon fill="#63b8ff" stroke="#63b8ff" points="1372.81,-772.4 1381.86,-766.9 1371.36,-765.56 1372.81,-772.4"/>
</a>
</g>
</g>
<!-- Node31 -->
<g id="Node000031" class="node">
<title>Node31</title>
<g id="a_Node000031"><a xlink:href="classcom_1_1runehive_1_1game_1_1world_1_1position_1_1_position.html#a7803ff05a7b4b99d2883898ade9427f7" target="_top" xlink:title="Creates a location with a default height of 0.">
<ellipse fill="white" stroke="#666666" cx="1477.25" cy="-1067.81" rx="142.31" ry="25.81"/>
<text xml:space="preserve" text-anchor="start" x="1384.62" y="-1070.66" font-family="Helvetica,sans-Serif" font-size="12.00">com.runehive.game.world.position.</text>
<text xml:space="preserve" text-anchor="middle" x="1477.25" y="-1056.41" font-family="Helvetica,sans-Serif" font-size="12.00">Position.Position</text>
</a>
</g>
</g>
<!-- Node30&#45;&gt;Node31 -->
<g id="edge40_Node000030_Node000031" class="edge">
<title>Node30&#45;&gt;Node31</title>
<g id="a_edge40_Node000030_Node000031"><a xlink:title=" ">
<path fill="none" stroke="#63b8ff" d="M1274.74,-1067.81C1290.78,-1067.81 1307.19,-1067.81 1323.37,-1067.81"/>
<polygon fill="#63b8ff" stroke="#63b8ff" points="1323.01,-1071.31 1333.01,-1067.81 1323.01,-1064.31 1323.01,-1071.31"/>
</a>
</g>
</g>
<!-- Node33&#45;&gt;Node3 -->
<g id="edge43_Node000033_Node000003" class="edge">
<title>Node33&#45;&gt;Node3</title>
<g id="a_edge43_Node000033_Node000003"><a xlink:title=" ">
<path fill="none" stroke="#63b8ff" d="M561.74,-486.37C589.05,-483.5 618.25,-480.44 646.05,-477.52"/>
<polygon fill="#63b8ff" stroke="#63b8ff" points="646.36,-481.01 655.94,-476.48 645.63,-474.05 646.36,-481.01"/>
</a>
</g>
</g>
<!-- Node33&#45;&gt;Node7 -->
<g id="edge44_Node000033_Node000007" class="edge">
<title>Node33&#45;&gt;Node7</title>
<g id="a_edge44_Node000033_Node000007"><a xlink:title=" ">
<path fill="none" stroke="#63b8ff" d="M447.73,-524.89C461.04,-595.06 506.21,-790.57 613.64,-908.81 725.99,-1032.45 917.41,-1092.87 1033.32,-1119.51"/>
<polygon fill="#63b8ff" stroke="#63b8ff" points="1032.29,-1122.86 1042.82,-1121.65 1033.83,-1116.03 1032.29,-1122.86"/>
</a>
</g>
</g>
<!-- Node33&#45;&gt;Node10 -->
<g id="edge45_Node000033_Node000010" class="edge">
<title>Node33&#45;&gt;Node10</title>
<g id="a_edge45_Node000033_Node000010"><a xlink:title=" ">
<path fill="none" stroke="#63b8ff" d="M448.67,-524.89C463.28,-588.28 509.59,-751.31 613.64,-833.81 625.41,-843.14 639.03,-850.33 653.3,-855.87"/>
<polygon fill="#63b8ff" stroke="#63b8ff" points="651.77,-859.04 662.36,-859.11 654.12,-852.44 651.77,-859.04"/>
</a>
</g>
</g>
<!-- Node33&#45;&gt;Node11 -->
<g id="edge46_Node000033_Node000011" class="edge">
<title>Node33&#45;&gt;Node11</title>
<g id="a_edge46_Node000033_Node000011"><a xlink:title=" ">
<path fill="none" stroke="#63b8ff" d="M545.9,-481.82C557.3,-477.18 568.19,-471.29 577.64,-463.81 604.46,-442.59 586.68,-416.84 613.64,-395.81 625.48,-386.58 639.15,-379.44 653.45,-373.94"/>
<polygon fill="#63b8ff" stroke="#63b8ff" points="654.27,-377.36 662.52,-370.71 651.92,-370.76 654.27,-377.36"/>
</a>
</g>
</g>
<!-- Node33&#45;&gt;Node12 -->
<g id="edge47_Node000033_Node000012" class="edge">
<title>Node33&#45;&gt;Node12</title>
<g id="a_edge47_Node000033_Node000012"><a xlink:title=" ">
<path fill="none" stroke="#63b8ff" d="M550.09,-482.85C560.29,-477.99 569.75,-471.77 577.64,-463.81 623.8,-417.28 571.51,-371.01 613.64,-320.81 631.61,-299.41 657.12,-284.03 682.64,-273.08"/>
<polygon fill="#63b8ff" stroke="#63b8ff" points="683.82,-276.38 691.77,-269.38 681.19,-269.9 683.82,-276.38"/>
</a>
</g>
</g>
<!-- Node33&#45;&gt;Node14 -->
<g id="edge48_Node000033_Node000014" class="edge">
<title>Node33&#45;&gt;Node14</title>
<g id="a_edge48_Node000033_Node000014"><a xlink:title=" ">
<path fill="none" stroke="#63b8ff" d="M538.91,-480.47C552.36,-476.03 565.67,-470.56 577.64,-463.81 597.09,-452.86 593.49,-438.38 613.64,-428.81 746.25,-365.84 826.99,-482.36 941.74,-390.81 979.32,-360.83 941.85,-320.79 977.74,-288.81 989.07,-278.71 1002.71,-271.35 1017.12,-266.01"/>
<polygon fill="#63b8ff" stroke="#63b8ff" points="1017.91,-269.43 1026.29,-262.95 1015.7,-262.79 1017.91,-269.43"/>
</a>
</g>
</g>
<!-- Node33&#45;&gt;Node15 -->
<g id="edge49_Node000033_Node000015" class="edge">
<title>Node33&#45;&gt;Node15</title>
<g id="a_edge49_Node000033_Node000015"><a xlink:title=" ">
<path fill="none" stroke="#63b8ff" d="M551.59,-483.33C561.38,-478.37 570.33,-471.99 577.64,-463.81 652.74,-379.77 539.65,-297.81 613.64,-212.81 622.48,-202.65 633.36,-194.63 645.28,-188.29"/>
<polygon fill="#63b8ff" stroke="#63b8ff" points="646.65,-191.51 654.14,-184.02 643.61,-185.21 646.65,-191.51"/>
</a>
</g>
</g>
<!-- Node33&#45;&gt;Node19 -->
<g id="edge50_Node000033_Node000019" class="edge">
<title>Node33&#45;&gt;Node19</title>
<g id="a_edge50_Node000033_Node000019"><a xlink:title=" ">
<path fill="none" stroke="#63b8ff" d="M561.74,-511.25C585.25,-513.72 610.16,-516.33 634.38,-518.87"/>
<polygon fill="#63b8ff" stroke="#63b8ff" points="634,-522.35 644.31,-519.91 634.73,-515.39 634,-522.35"/>
</a>
</g>
</g>
<!-- Node33&#45;&gt;Node24 -->
<g id="edge51_Node000033_Node000024" class="edge">
<title>Node33&#45;&gt;Node24</title>
<g id="a_edge51_Node000033_Node000024"><a xlink:title=" ">
<path fill="none" stroke="#63b8ff" d="M474.9,-524.17C535.89,-573 669.53,-680.01 736.61,-733.72"/>
<polygon fill="#63b8ff" stroke="#63b8ff" points="734.06,-736.16 744.05,-739.67 738.43,-730.69 734.06,-736.16"/>
</a>
</g>
</g>
</g>
</svg>

<g id="navigator" transform="translate(0 0)" fill="#404254">
  <rect fill="#f2f5e9" fill-opacity="0.5" stroke="#606060" stroke-width=".5" x="0" y="0" width="60" height="60"/>
  <use id="zoomplus" xlink:href="#zoomPlus" x="17" y="9" onmousedown="handleZoom(evt,'in')"/>
  <use id="zoomminus" xlink:href="#zoomMin" x="42" y="9" onmousedown="handleZoom(evt,'out')"/>
  <use id="reset" xlink:href="#resetDef" x="30" y="36" onmousedown="handleReset()"/>
   <use id="arrowup" xlink:href="#arrowUp" x="0" y="0" onmousedown="handlePan(0,-1)"/>
  <use id="arrowright" xlink:href="#arrowRight" x="0" y="0" onmousedown="handlePan(1,0)"/>
  <use id="arrowdown" xlink:href="#arrowDown" x="0" y="0" onmousedown="handlePan(0,1)"/>
  <use id="arrowleft" xlink:href="#arrowLeft" x="0" y="0" onmousedown="handlePan(-1,0)"/>
</g>
<svg viewBox="0 0 15 15" width="100%" height="30px" preserveAspectRatio="xMaxYMin meet">
 <g id="arrow_out" transform="scale(0.3 0.3)">
  <a xlink:href="classcom_1_1runehive_1_1game_1_1world_1_1object_1_1_static_game_object_a9e5015f175ac2d29f110afa38e66dc27_cgraph_org.svg" target="_base">
   <rect id="button" ry="5" rx="5" y="6" x="6" height="38" width="38"
        fill="#f2f5e9" fill-opacity="0.5" stroke="#606060" stroke-width="1.0"/>
   <path id="arrow"
     d="M 11.500037,31.436501 C 11.940474,20.09759 22.043105,11.32322 32.158766,21.979434 L 37.068811,17.246167 C 37.068811,17.246167 37.088388,32 37.088388,32 L 22.160133,31.978069 C 22.160133,31.978069 26.997745,27.140456 26.997745,27.140456 C 18.528582,18.264221 13.291696,25.230495 11.500037,31.436501 z"
     style="fill:#404040;"/>
  </a>
 </g>
</svg>

<style type='text/css'>
<![CDATA[
[data-mouse-over-selected='false'] { opacity: 0.7; }
[data-mouse-over-selected='true']  { opacity: 1.0; }
]]>
</style>
<script type="application/ecmascript"><![CDATA[
document.addEventListener('DOMContentLoaded', (event) => {
  highlightEdges();
  highlightAdjacentNodes();
});
]]></script>
</svg>
