<?xml version="1.0" encoding="UTF-8" standalone="no"?>
<!DOCTYPE svg PUBLIC "-//W3C//DTD SVG 1.1//EN"
 "http://www.w3.org/Graphics/SVG/1.1/DTD/svg11.dtd">
<!-- Generated by graphviz version 14.0.1 (20251006.0113)
 -->
<!-- Title: com.runehive.content.CrystalChest.createKey Pages: 1 -->
<svg width="1330pt" height="626pt"
 viewBox="0.00 0.00 1330.00 626.00" xmlns="http://www.w3.org/2000/svg" xmlns:xlink="http://www.w3.org/1999/xlink">
<g id="graph0" class="graph" transform="scale(1 1) rotate(0) translate(4 621.62)">
<title>com.runehive.content.CrystalChest.createKey</title>
<!-- Node1 -->
<g id="Node000001" class="node">
<title>Node1</title>
<g id="a_Node000001"><a xlink:title="Handles creating a key.">
<ellipse fill="#999999" stroke="#666666" cx="120.56" cy="-413.81" rx="120.56" ry="25.81"/>
<text xml:space="preserve" text-anchor="start" x="43.31" y="-416.66" font-family="Helvetica,sans-Serif" font-size="12.00">com.runehive.content.Crystal</text>
<text xml:space="preserve" text-anchor="middle" x="120.56" y="-402.41" font-family="Helvetica,sans-Serif" font-size="12.00">Chest.createKey</text>
</a>
</g>
</g>
<!-- Node2 -->
<g id="Node000002" class="node">
<title>Node2</title>
<g id="a_Node000002"><a xlink:href="classcom_1_1runehive_1_1game_1_1world_1_1items_1_1containers_1_1_item_container.html#a34ef6eb550fba45ee27cbd55cd1b1c26" target="_top" xlink:title="Attempts to deposit item into this container.">
<ellipse fill="white" stroke="#666666" cx="451.25" cy="-553.81" rx="174.13" ry="25.81"/>
<text xml:space="preserve" text-anchor="start" x="336.12" y="-556.66" font-family="Helvetica,sans-Serif" font-size="12.00">com.runehive.game.world.items.containers.</text>
<text xml:space="preserve" text-anchor="middle" x="451.25" y="-542.41" font-family="Helvetica,sans-Serif" font-size="12.00">ItemContainer.add</text>
</a>
</g>
</g>
<!-- Node1&#45;&gt;Node2 -->
<g id="edge1_Node000001_Node000002" class="edge">
<title>Node1&#45;&gt;Node2</title>
<g id="a_edge1_Node000001_Node000002"><a xlink:title=" ">
<path fill="none" stroke="#63b8ff" d="M151.34,-439.22C181.21,-463.36 229.49,-498.86 277.12,-518.81 289.73,-524.09 303.2,-528.59 316.85,-532.43"/>
<polygon fill="#63b8ff" stroke="#63b8ff" points="315.79,-535.77 326.35,-534.97 317.6,-529.01 315.79,-535.77"/>
</a>
</g>
</g>
<!-- Node3 -->
<g id="Node000003" class="node">
<title>Node3</title>
<g id="a_Node000003"><a xlink:href="classcom_1_1runehive_1_1game_1_1world_1_1items_1_1containers_1_1_item_container.html#aebdab14dd029dc2f4e35b60e677dfb97" target="_top" xlink:title="Determines if this container contains all identifiers.">
<ellipse fill="white" stroke="#666666" cx="451.25" cy="-483.81" rx="174.13" ry="25.81"/>
<text xml:space="preserve" text-anchor="start" x="336.12" y="-486.66" font-family="Helvetica,sans-Serif" font-size="12.00">com.runehive.game.world.items.containers.</text>
<text xml:space="preserve" text-anchor="middle" x="451.25" y="-472.41" font-family="Helvetica,sans-Serif" font-size="12.00">ItemContainer.containsAll</text>
</a>
</g>
</g>
<!-- Node1&#45;&gt;Node3 -->
<g id="edge3_Node000001_Node000003" class="edge">
<title>Node1&#45;&gt;Node3</title>
<g id="a_edge3_Node000001_Node000003"><a xlink:title=" ">
<path fill="none" stroke="#63b8ff" d="M204.24,-432.76C227.77,-438.06 253.44,-443.75 277.12,-448.81 295.55,-452.74 315.1,-456.81 334.18,-460.71"/>
<polygon fill="#63b8ff" stroke="#63b8ff" points="333.37,-464.11 343.86,-462.68 334.76,-457.25 333.37,-464.11"/>
</a>
</g>
</g>
<!-- Node5 -->
<g id="Node000005" class="node">
<title>Node5</title>
<g id="a_Node000005"><a xlink:href="classcom_1_1runehive_1_1content_1_1dialogue_1_1_dialogue_factory.html#a2487170811b723c8a8e3759c94896bd9" target="_top" xlink:title="Retrieves the next dialogue in the chain and executes it.">
<ellipse fill="white" stroke="#666666" cx="451.25" cy="-413.81" rx="129.05" ry="25.81"/>
<text xml:space="preserve" text-anchor="start" x="368" y="-416.66" font-family="Helvetica,sans-Serif" font-size="12.00">com.runehive.content.dialogue.</text>
<text xml:space="preserve" text-anchor="middle" x="451.25" y="-402.41" font-family="Helvetica,sans-Serif" font-size="12.00">DialogueFactory.execute</text>
</a>
</g>
</g>
<!-- Node1&#45;&gt;Node5 -->
<g id="edge5_Node000001_Node000005" class="edge">
<title>Node1&#45;&gt;Node5</title>
<g id="a_edge5_Node000001_Node000005"><a xlink:title=" ">
<path fill="none" stroke="#63b8ff" d="M241.62,-413.81C264.08,-413.81 287.73,-413.81 310.72,-413.81"/>
<polygon fill="#63b8ff" stroke="#63b8ff" points="310.42,-417.31 320.42,-413.81 310.42,-410.31 310.42,-417.31"/>
</a>
</g>
</g>
<!-- Node11 -->
<g id="Node000011" class="node">
<title>Node11</title>
<g id="a_Node000011"><a xlink:href="classcom_1_1runehive_1_1game_1_1world_1_1items_1_1containers_1_1_item_container.html#a2326fe5cc05022e98fbb7a1d85b45ce6" target="_top" xlink:title="Attempts to withdraw item from this container.">
<ellipse fill="white" stroke="#666666" cx="451.25" cy="-343.81" rx="174.13" ry="25.81"/>
<text xml:space="preserve" text-anchor="start" x="336.12" y="-346.66" font-family="Helvetica,sans-Serif" font-size="12.00">com.runehive.game.world.items.containers.</text>
<text xml:space="preserve" text-anchor="middle" x="451.25" y="-332.41" font-family="Helvetica,sans-Serif" font-size="12.00">ItemContainer.remove</text>
</a>
</g>
</g>
<!-- Node1&#45;&gt;Node11 -->
<g id="edge11_Node000001_Node000011" class="edge">
<title>Node1&#45;&gt;Node11</title>
<g id="a_edge11_Node000001_Node000011"><a xlink:title=" ">
<path fill="none" stroke="#63b8ff" d="M204.24,-394.86C227.77,-389.56 253.44,-383.87 277.12,-378.81 295.55,-374.87 315.1,-370.81 334.18,-366.91"/>
<polygon fill="#63b8ff" stroke="#63b8ff" points="334.76,-370.36 343.86,-364.94 333.37,-363.5 334.76,-370.36"/>
</a>
</g>
</g>
<!-- Node12 -->
<g id="Node000012" class="node">
<title>Node12</title>
<g id="a_Node000012"><a xlink:href="classcom_1_1runehive_1_1content_1_1dialogue_1_1_dialogue_factory.html#ac2094fbcec4025c0240d318d76711226" target="_top" xlink:title=" ">
<ellipse fill="white" stroke="#666666" cx="451.25" cy="-165.81" rx="129.05" ry="25.81"/>
<text xml:space="preserve" text-anchor="start" x="368" y="-168.66" font-family="Helvetica,sans-Serif" font-size="12.00">com.runehive.content.dialogue.</text>
<text xml:space="preserve" text-anchor="middle" x="451.25" y="-154.41" font-family="Helvetica,sans-Serif" font-size="12.00">DialogueFactory.sendItem</text>
</a>
</g>
</g>
<!-- Node1&#45;&gt;Node12 -->
<g id="edge12_Node000001_Node000012" class="edge">
<title>Node1&#45;&gt;Node12</title>
<g id="a_edge12_Node000001_Node000012"><a xlink:title=" ">
<path fill="none" stroke="#63b8ff" d="M154.89,-388.67C215.05,-343.27 341.71,-247.7 407.91,-197.76"/>
<polygon fill="#63b8ff" stroke="#63b8ff" points="409.75,-200.75 415.63,-191.93 405.54,-195.16 409.75,-200.75"/>
</a>
</g>
</g>
<!-- Node2&#45;&gt;Node2 -->
<g id="edge2_Node000002_Node000002" class="edge">
<title>Node2&#45;&gt;Node2</title>
<g id="a_edge2_Node000002_Node000002"><a xlink:title=" ">
<path fill="none" stroke="#63b8ff" d="M389.99,-578.14C384.97,-588.63 405.39,-597.62 451.25,-597.62 480.63,-597.62 499.56,-593.93 508.06,-588.52"/>
<polygon fill="#63b8ff" stroke="#63b8ff" points="511.19,-590.1 511.91,-579.53 504.76,-587.34 511.19,-590.1"/>
</a>
</g>
</g>
<!-- Node4 -->
<g id="Node000004" class="node">
<title>Node4</title>
<g id="a_Node000004"><a xlink:href="classcom_1_1runehive_1_1game_1_1world_1_1items_1_1containers_1_1_item_container.html#a8acf6f1c920076daea6c80e5afbe3404" target="_top" xlink:title="Determines if this container contains id.">
<ellipse fill="white" stroke="#666666" cx="835.5" cy="-591.81" rx="174.13" ry="25.81"/>
<text xml:space="preserve" text-anchor="start" x="720.37" y="-594.66" font-family="Helvetica,sans-Serif" font-size="12.00">com.runehive.game.world.items.containers.</text>
<text xml:space="preserve" text-anchor="middle" x="835.5" y="-580.41" font-family="Helvetica,sans-Serif" font-size="12.00">ItemContainer.contains</text>
</a>
</g>
</g>
<!-- Node3&#45;&gt;Node4 -->
<g id="edge4_Node000003_Node000004" class="edge">
<title>Node3&#45;&gt;Node4</title>
<g id="a_edge4_Node000003_Node000004"><a xlink:title=" ">
<path fill="none" stroke="#63b8ff" d="M580.23,-501.42C595.88,-505.95 611.3,-511.65 625.37,-518.81 644.72,-528.65 642.17,-541.7 661.37,-551.81 674.77,-558.86 689.4,-564.68 704.29,-569.48"/>
<polygon fill="#63b8ff" stroke="#63b8ff" points="703.13,-572.79 713.72,-572.35 705.17,-566.09 703.13,-572.79"/>
</a>
</g>
</g>
<!-- Node6 -->
<g id="Node000006" class="node">
<title>Node6</title>
<g id="a_Node000006"><a xlink:href="classcom_1_1runehive_1_1content_1_1dialogue_1_1_dialogue_factory.html#aec64ffdeed4c31dfe340a41430f50892" target="_top" xlink:title="Creates a new DialogueFactory.">
<ellipse fill="white" stroke="#666666" cx="1183.69" cy="-219.81" rx="138.06" ry="25.81"/>
<text xml:space="preserve" text-anchor="start" x="1094.06" y="-222.66" font-family="Helvetica,sans-Serif" font-size="12.00">com.runehive.content.dialogue.</text>
<text xml:space="preserve" text-anchor="middle" x="1183.69" y="-208.41" font-family="Helvetica,sans-Serif" font-size="12.00">DialogueFactory.DialogueFactory</text>
</a>
</g>
</g>
<!-- Node5&#45;&gt;Node6 -->
<g id="edge6_Node000005_Node000006" class="edge">
<title>Node5&#45;&gt;Node6</title>
<g id="a_edge6_Node000005_Node000006"><a xlink:title=" ">
<path fill="none" stroke="#63b8ff" d="M571.91,-423.36C591.08,-428.86 609.72,-436.97 625.37,-448.81 653.27,-469.92 631.51,-500.59 661.37,-518.81 727.43,-559.12 942.58,-557.47 1009.62,-518.81 1108.84,-461.6 1156.33,-323.38 1174.06,-256.83"/>
<polygon fill="#63b8ff" stroke="#63b8ff" points="1177.36,-258.05 1176.47,-247.5 1170.58,-256.31 1177.36,-258.05"/>
</a>
</g>
</g>
<!-- Node7 -->
<g id="Node000007" class="node">
<title>Node7</title>
<g id="a_Node000007"><a xlink:href="classcom_1_1runehive_1_1content_1_1dialogue_1_1_dialogue_factory.html#a5f56390c19e58a8e3390f46449e6c6cf" target="_top" xlink:title="Gets the current chain.">
<ellipse fill="white" stroke="#666666" cx="835.5" cy="-483.81" rx="129.05" ry="25.81"/>
<text xml:space="preserve" text-anchor="start" x="752.25" y="-486.66" font-family="Helvetica,sans-Serif" font-size="12.00">com.runehive.content.dialogue.</text>
<text xml:space="preserve" text-anchor="middle" x="835.5" y="-472.41" font-family="Helvetica,sans-Serif" font-size="12.00">DialogueFactory.getChain</text>
</a>
</g>
</g>
<!-- Node5&#45;&gt;Node7 -->
<g id="edge7_Node000005_Node000007" class="edge">
<title>Node5&#45;&gt;Node7</title>
<g id="a_edge7_Node000005_Node000007"><a xlink:title=" ">
<path fill="none" stroke="#63b8ff" d="M547.72,-431.29C602.45,-441.32 671.28,-453.92 727.79,-464.27"/>
<polygon fill="#63b8ff" stroke="#63b8ff" points="726.96,-467.68 737.43,-466.03 728.22,-460.79 726.96,-467.68"/>
</a>
</g>
</g>
<!-- Node8 -->
<g id="Node000008" class="node">
<title>Node8</title>
<g id="a_Node000008"><a xlink:href="classcom_1_1runehive_1_1content_1_1dialogue_1_1_dialogue_factory.html#a79b8587c2aac2f5cb6ef6f5e1069ab3f" target="_top" xlink:title="Gets the Optional describing the next action in the dialogue chain.">
<ellipse fill="white" stroke="#666666" cx="835.5" cy="-413.81" rx="129.05" ry="25.81"/>
<text xml:space="preserve" text-anchor="start" x="752.25" y="-416.66" font-family="Helvetica,sans-Serif" font-size="12.00">com.runehive.content.dialogue.</text>
<text xml:space="preserve" text-anchor="middle" x="835.5" y="-402.41" font-family="Helvetica,sans-Serif" font-size="12.00">DialogueFactory.getNextAction</text>
</a>
</g>
</g>
<!-- Node5&#45;&gt;Node8 -->
<g id="edge8_Node000005_Node000008" class="edge">
<title>Node5&#45;&gt;Node8</title>
<g id="a_edge8_Node000005_Node000008"><a xlink:title=" ">
<path fill="none" stroke="#63b8ff" d="M580.6,-413.81C617.25,-413.81 657.38,-413.81 694.68,-413.81"/>
<polygon fill="#63b8ff" stroke="#63b8ff" points="694.65,-417.31 704.65,-413.81 694.65,-410.31 694.65,-417.31"/>
</a>
</g>
</g>
<!-- Node9 -->
<g id="Node000009" class="node">
<title>Node9</title>
<g id="a_Node000009"><a xlink:href="classcom_1_1runehive_1_1content_1_1dialogue_1_1_dialogue_factory.html#a6ce434d7d06968060ccb0f0a624358ee" target="_top" xlink:title=" ">
<ellipse fill="white" stroke="#666666" cx="835.5" cy="-343.81" rx="129.05" ry="25.81"/>
<text xml:space="preserve" text-anchor="start" x="752.25" y="-346.66" font-family="Helvetica,sans-Serif" font-size="12.00">com.runehive.content.dialogue.</text>
<text xml:space="preserve" text-anchor="middle" x="835.5" y="-332.41" font-family="Helvetica,sans-Serif" font-size="12.00">DialogueFactory.setActive</text>
</a>
</g>
</g>
<!-- Node5&#45;&gt;Node9 -->
<g id="edge9_Node000005_Node000009" class="edge">
<title>Node5&#45;&gt;Node9</title>
<g id="a_edge9_Node000005_Node000009"><a xlink:title=" ">
<path fill="none" stroke="#63b8ff" d="M547.72,-396.33C602.45,-386.3 671.28,-373.7 727.79,-363.35"/>
<polygon fill="#63b8ff" stroke="#63b8ff" points="728.22,-366.83 737.43,-361.59 726.96,-359.94 728.22,-366.83"/>
</a>
</g>
</g>
<!-- Node10 -->
<g id="Node000010" class="node">
<title>Node10</title>
<g id="a_Node000010"><a xlink:href="classcom_1_1runehive_1_1content_1_1dialogue_1_1_dialogue_factory.html#a0b658967f161f2b4d870c947ae7851cb" target="_top" xlink:title="Sets the next action in the dialogue chain.">
<ellipse fill="white" stroke="#666666" cx="835.5" cy="-273.81" rx="129.05" ry="25.81"/>
<text xml:space="preserve" text-anchor="start" x="752.25" y="-276.66" font-family="Helvetica,sans-Serif" font-size="12.00">com.runehive.content.dialogue.</text>
<text xml:space="preserve" text-anchor="middle" x="835.5" y="-262.41" font-family="Helvetica,sans-Serif" font-size="12.00">DialogueFactory.setNextAction</text>
</a>
</g>
</g>
<!-- Node5&#45;&gt;Node10 -->
<g id="edge10_Node000005_Node000010" class="edge">
<title>Node5&#45;&gt;Node10</title>
<g id="a_edge10_Node000005_Node000010"><a xlink:title=" ">
<path fill="none" stroke="#63b8ff" d="M571.91,-404.26C591.08,-398.76 609.72,-390.65 625.37,-378.81 653.27,-357.7 633.47,-329.92 661.37,-308.81 674.09,-299.19 688.78,-292.03 704.13,-286.74"/>
<polygon fill="#63b8ff" stroke="#63b8ff" points="704.91,-290.16 713.39,-283.82 702.8,-283.49 704.91,-290.16"/>
</a>
</g>
</g>
<!-- Node12&#45;&gt;Node6 -->
<g id="edge15_Node000012_Node000006" class="edge">
<title>Node12&#45;&gt;Node6</title>
<g id="a_edge15_Node000012_Node000006"><a xlink:title=" ">
<path fill="none" stroke="#63b8ff" d="M544.81,-183.95C581.03,-190.35 623.01,-196.92 661.37,-200.81 786.56,-213.51 929.42,-218.02 1033.89,-219.49"/>
<polygon fill="#63b8ff" stroke="#63b8ff" points="1033.59,-222.99 1043.64,-219.62 1033.69,-215.99 1033.59,-222.99"/>
</a>
</g>
</g>
<!-- Node13 -->
<g id="Node000013" class="node">
<title>Node13</title>
<g id="a_Node000013"><a xlink:href="classcom_1_1runehive_1_1content_1_1dialogue_1_1_dialogue_factory.html#a8979431ba1fa2913a9ed65bbf8e4dd3f" target="_top" xlink:title="Appends a chain to this factory.">
<ellipse fill="white" stroke="#666666" cx="835.5" cy="-165.81" rx="129.05" ry="25.81"/>
<text xml:space="preserve" text-anchor="start" x="752.25" y="-168.66" font-family="Helvetica,sans-Serif" font-size="12.00">com.runehive.content.dialogue.</text>
<text xml:space="preserve" text-anchor="middle" x="835.5" y="-154.41" font-family="Helvetica,sans-Serif" font-size="12.00">DialogueFactory.append</text>
</a>
</g>
</g>
<!-- Node12&#45;&gt;Node13 -->
<g id="edge13_Node000012_Node000013" class="edge">
<title>Node12&#45;&gt;Node13</title>
<g id="a_edge13_Node000012_Node000013"><a xlink:title=" ">
<path fill="none" stroke="#63b8ff" d="M580.6,-165.81C617.25,-165.81 657.38,-165.81 694.68,-165.81"/>
<polygon fill="#63b8ff" stroke="#63b8ff" points="694.65,-169.31 704.65,-165.81 694.65,-162.31 694.65,-169.31"/>
</a>
</g>
</g>
<!-- Node14 -->
<g id="Node000014" class="node">
<title>Node14</title>
<g id="a_Node000014"><a xlink:href="classcom_1_1runehive_1_1game_1_1world_1_1items_1_1_item.html#a1cec21ca5ef1783808d4ca9de1051a29" target="_top" xlink:title="Gets the identification of this item.">
<ellipse fill="white" stroke="#666666" cx="835.5" cy="-95.81" rx="132.76" ry="25.81"/>
<text xml:space="preserve" text-anchor="start" x="749.62" y="-98.66" font-family="Helvetica,sans-Serif" font-size="12.00">com.runehive.game.world.items.</text>
<text xml:space="preserve" text-anchor="middle" x="835.5" y="-84.41" font-family="Helvetica,sans-Serif" font-size="12.00">Item.getId</text>
</a>
</g>
</g>
<!-- Node12&#45;&gt;Node14 -->
<g id="edge16_Node000012_Node000014" class="edge">
<title>Node12&#45;&gt;Node14</title>
<g id="a_edge16_Node000012_Node000014"><a xlink:title=" ">
<path fill="none" stroke="#63b8ff" d="M547.72,-148.33C602.04,-138.38 670.24,-125.89 726.5,-115.59"/>
<polygon fill="#63b8ff" stroke="#63b8ff" points="726.89,-119.07 736.1,-113.83 725.63,-112.19 726.89,-119.07"/>
</a>
</g>
</g>
<!-- Node15 -->
<g id="Node000015" class="node">
<title>Node15</title>
<g id="a_Node000015"><a xlink:href="classcom_1_1runehive_1_1content_1_1dialogue_1_1_dialogue_factory.html#ab2aefcffbd4c555eebf5439f4c437d25" target="_top" xlink:title="The method that validates the length of text.">
<ellipse fill="white" stroke="#666666" cx="835.5" cy="-25.81" rx="131.17" ry="25.81"/>
<text xml:space="preserve" text-anchor="start" x="750.75" y="-28.66" font-family="Helvetica,sans-Serif" font-size="12.00">com.runehive.content.dialogue.</text>
<text xml:space="preserve" text-anchor="middle" x="835.5" y="-14.41" font-family="Helvetica,sans-Serif" font-size="12.00">DialogueFactory.validateLength</text>
</a>
</g>
</g>
<!-- Node12&#45;&gt;Node15 -->
<g id="edge17_Node000012_Node000015" class="edge">
<title>Node12&#45;&gt;Node15</title>
<g id="a_edge17_Node000012_Node000015"><a xlink:title=" ">
<path fill="none" stroke="#63b8ff" d="M493.27,-141.09C534.43,-117.29 600.31,-81.89 661.37,-60.81 680.21,-54.31 700.63,-48.85 720.62,-44.33"/>
<polygon fill="#63b8ff" stroke="#63b8ff" points="721.18,-47.79 730.2,-42.24 719.68,-40.95 721.18,-47.79"/>
</a>
</g>
</g>
<!-- Node13&#45;&gt;Node6 -->
<g id="edge14_Node000013_Node000006" class="edge">
<title>Node13&#45;&gt;Node6</title>
<g id="a_edge14_Node000013_Node000006"><a xlink:title=" ">
<path fill="none" stroke="#63b8ff" d="M938.49,-181.72C978.23,-187.92 1024.02,-195.06 1065.13,-201.47"/>
<polygon fill="#63b8ff" stroke="#63b8ff" points="1064.4,-204.9 1074.82,-202.98 1065.47,-197.98 1064.4,-204.9"/>
</a>
</g>
</g>
</g>
</svg>
