<?xml version="1.0" encoding="UTF-8" standalone="no"?>
<!DOCTYPE svg PUBLIC "-//W3C//DTD SVG 1.1//EN"
 "http://www.w3.org/Graphics/SVG/1.1/DTD/svg11.dtd">
<!-- Generated by graphviz version 14.0.1 (20251006.0113)
 -->
<!-- Title: com.runehive.content.clanchannel.channel.ClanChannel.message Pages: 1 -->
<!--zoomable 564 -->

<svg id="main" version="1.1" xmlns="http://www.w3.org/2000/svg" xmlns:xlink="http://www.w3.org/1999/xlink" xml:space="preserve" onload="init(evt)">

<style type="text/css"><![CDATA[
.node, .edge {opacity: 0.7;}
.node.selected, .edge.selected {opacity: 1;}
.edge:hover path { stroke: red; }
.edge:hover polygon { stroke: red; fill: red; }
]]></style>

<defs>
  <circle id="rim" cx="0" cy="0" r="7"/>
  <circle id="rim2" cx="0" cy="0" r="3.5"/>
  <g id="zoomPlus">
    <use xlink:href="#rim" fill="#404040"><set attributeName="fill" to="#808080" begin="zoomplus.mouseover" end="zoomplus.mouseout"/></use>
    <path d="M-4,0h8M0,-4v8" fill="none" stroke="white" stroke-width="1.5" pointer-events="none"/>
  </g>
  <g id="zoomMin">
    <use xlink:href="#rim" fill="#404040"><set attributeName="fill" to="#808080" begin="zoomminus.mouseover" end="zoomminus.mouseout"/></use>
    <path d="M-4,0h8" fill="none" stroke="white" stroke-width="1.5" pointer-events="none"/>
  </g>
  <g id="arrowUp" transform="translate(30 24)">
    <use xlink:href="#rim"/>
    <path pointer-events="none" fill="none" stroke="white" stroke-width="1.5" d="M0,-3.0v7 M-2.5,-0.5L0,-3.0L2.5,-0.5"/>
  </g>
  <g id="arrowRight" transform="rotate(90) translate(36 -43)">
    <use xlink:href="#rim"/>
    <path pointer-events="none" fill="none" stroke="white" stroke-width="1.5" d="M0,-3.0v7 M-2.5,-0.5L0,-3.0L2.5,-0.5"/>
  </g>
  <g id="arrowDown" transform="rotate(180) translate(-30 -48)">
    <use xlink:href="#rim"/>
    <path pointer-events="none" fill="none" stroke="white" stroke-width="1.5" d="M0,-3.0v7 M-2.5,-0.5L0,-3.0L2.5,-0.5"/>
  </g>
  <g id="arrowLeft" transform="rotate(270) translate(-36 17)">
    <use xlink:href="#rim"/>
    <path pointer-events="none" fill="none" stroke="white" stroke-width="1.5" d="M0,-3.0v7 M-2.5,-0.5L0,-3.0L2.5,-0.5"/>
  </g>
  <g id="resetDef">
    <use xlink:href="#rim2" fill="#404040"><set attributeName="fill" to="#808080" begin="reset.mouseover" end="reset.mouseout"/></use>
  </g>
</defs>
<script type="application/ecmascript">
var viewWidth = 1847;
var viewHeight = 564;
var sectionId = 'dynsection-42';
</script>
<script type="application/ecmascript" xlink:href="svg.min.js"/>
<svg id="graph" class="graph">
<g id="viewport">
<title>com.runehive.content.clanchannel.channel.ClanChannel.message</title>
<!-- Node1 -->
<g id="Node000001" class="node">
<title>Node1</title>
<g id="a_Node000001"><a xlink:title="Handles messaging all the members in the clan channel.">
<ellipse fill="#999999" stroke="#666666" cx="1663.93" cy="-289.81" rx="174.66" ry="25.81"/>
<text xml:space="preserve" text-anchor="start" x="1548.43" y="-292.66" font-family="Helvetica,sans-Serif" font-size="12.00">com.runehive.content.clanchannel.channel.</text>
<text xml:space="preserve" text-anchor="middle" x="1663.93" y="-278.41" font-family="Helvetica,sans-Serif" font-size="12.00">ClanChannel.message</text>
</a>
</g>
</g>
<!-- Node2 -->
<g id="Node000002" class="node">
<title>Node2</title>
<g id="a_Node000002"><a xlink:href="classcom_1_1runehive_1_1content_1_1clanchannel_1_1channel_1_1_clan_channel.html#a866af341cf1495a66fa21703cb22229c" target="_top" xlink:title=" ">
<ellipse fill="white" stroke="#666666" cx="1278.62" cy="-413.81" rx="174.66" ry="25.81"/>
<text xml:space="preserve" text-anchor="start" x="1163.12" y="-416.66" font-family="Helvetica,sans-Serif" font-size="12.00">com.runehive.content.clanchannel.channel.</text>
<text xml:space="preserve" text-anchor="middle" x="1278.62" y="-402.41" font-family="Helvetica,sans-Serif" font-size="12.00">ClanChannel.activateAchievement</text>
</a>
</g>
</g>
<!-- Node1&#45;&gt;Node2 -->
<g id="edge1_Node000001_Node000002" class="edge">
<title>Node1&#45;&gt;Node2</title>
<g id="a_edge1_Node000001_Node000002"><a xlink:title=" ">
<path fill="none" stroke="#63b8ff" d="M1601.49,-319.79C1560.35,-338.89 1504.53,-362.94 1453.27,-378.81 1434.47,-384.63 1414.21,-389.73 1394.41,-394.1"/>
<polygon fill="#63b8ff" stroke="#63b8ff" points="1602.95,-322.98 1610.52,-315.57 1599.98,-316.64 1602.95,-322.98"/>
</a>
</g>
</g>
<!-- Node3 -->
<g id="Node000003" class="node">
<title>Node3</title>
<g id="a_Node000003"><a xlink:href="classcom_1_1runehive_1_1content_1_1clanchannel_1_1channel_1_1_clan_channel.html#a3b8b43c69fe9abbb5f1f8560b54d23ec" target="_top" xlink:title=" ">
<ellipse fill="white" stroke="#666666" cx="893.3" cy="-483.81" rx="174.66" ry="25.81"/>
<text xml:space="preserve" text-anchor="start" x="777.8" y="-486.66" font-family="Helvetica,sans-Serif" font-size="12.00">com.runehive.content.clanchannel.channel.</text>
<text xml:space="preserve" text-anchor="middle" x="893.3" y="-472.41" font-family="Helvetica,sans-Serif" font-size="12.00">ClanChannel.activateTask</text>
</a>
</g>
</g>
<!-- Node1&#45;&gt;Node3 -->
<g id="edge5_Node000001_Node000003" class="edge">
<title>Node1&#45;&gt;Node3</title>
<g id="a_edge5_Node000001_Node000003"><a xlink:title=" ">
<path fill="none" stroke="#63b8ff" d="M1643.38,-325.6C1611.69,-379.42 1543.41,-479.12 1453.27,-518.81 1289.75,-590.8 1072.99,-541.41 963.67,-507.8"/>
<polygon fill="#63b8ff" stroke="#63b8ff" points="1646.32,-327.51 1648.3,-317.1 1640.26,-324.01 1646.32,-327.51"/>
</a>
</g>
</g>
<!-- Node6 -->
<g id="Node000006" class="node">
<title>Node6</title>
<g id="a_Node000006"><a xlink:href="classcom_1_1runehive_1_1content_1_1clanchannel_1_1channel_1_1_clan_channel.html#a3be1a0782318db62036df558084e77e1" target="_top" xlink:title=" ">
<ellipse fill="white" stroke="#666666" cx="1278.62" cy="-483.81" rx="174.66" ry="25.81"/>
<text xml:space="preserve" text-anchor="start" x="1163.12" y="-486.66" font-family="Helvetica,sans-Serif" font-size="12.00">com.runehive.content.clanchannel.channel.</text>
<text xml:space="preserve" text-anchor="middle" x="1278.62" y="-472.41" font-family="Helvetica,sans-Serif" font-size="12.00">ClanChannel.addExperience</text>
</a>
</g>
</g>
<!-- Node1&#45;&gt;Node6 -->
<g id="edge6_Node000001_Node000006" class="edge">
<title>Node1&#45;&gt;Node6</title>
<g id="a_edge6_Node000001_Node000006"><a xlink:title=" ">
<path fill="none" stroke="#63b8ff" d="M1629.16,-323.26C1590.17,-359.9 1522.47,-417.59 1453.27,-448.81 1437.99,-455.7 1421.35,-461.25 1404.61,-465.71"/>
<polygon fill="#63b8ff" stroke="#63b8ff" points="1631.1,-326.25 1635.94,-316.83 1626.28,-321.18 1631.1,-326.25"/>
</a>
</g>
</g>
<!-- Node7 -->
<g id="Node000007" class="node">
<title>Node7</title>
<g id="a_Node000007"><a xlink:href="classcom_1_1runehive_1_1content_1_1clanchannel_1_1channel_1_1_clan_channel.html#a5723a22a278ffa27872335582b270321" target="_top" xlink:title=" ">
<ellipse fill="white" stroke="#666666" cx="1278.62" cy="-343.81" rx="174.66" ry="25.81"/>
<text xml:space="preserve" text-anchor="start" x="1163.12" y="-346.66" font-family="Helvetica,sans-Serif" font-size="12.00">com.runehive.content.clanchannel.channel.</text>
<text xml:space="preserve" text-anchor="middle" x="1278.62" y="-332.41" font-family="Helvetica,sans-Serif" font-size="12.00">ClanChannel.chat</text>
</a>
</g>
</g>
<!-- Node1&#45;&gt;Node7 -->
<g id="edge8_Node000001_Node000007" class="edge">
<title>Node1&#45;&gt;Node7</title>
<g id="a_edge8_Node000001_Node000007"><a xlink:title=" ">
<path fill="none" stroke="#63b8ff" d="M1524.53,-309.31C1486.06,-314.73 1444.49,-320.58 1406.7,-325.91"/>
<polygon fill="#63b8ff" stroke="#63b8ff" points="1524.91,-312.79 1534.32,-307.93 1523.93,-305.86 1524.91,-312.79"/>
</a>
</g>
</g>
<!-- Node8 -->
<g id="Node000008" class="node">
<title>Node8</title>
<g id="a_Node000008"><a xlink:href="classcom_1_1runehive_1_1content_1_1dialogue_1_1impl_1_1_clanmaster_dialogue.html#ae4c87b567adc13aa8bcec18ff4fad1b6" target="_top" xlink:title="The clan task dialogue.">
<ellipse fill="white" stroke="#666666" cx="893.3" cy="-227.81" rx="147.08" ry="25.81"/>
<text xml:space="preserve" text-anchor="start" x="797.3" y="-230.66" font-family="Helvetica,sans-Serif" font-size="12.00">com.runehive.content.dialogue.impl.</text>
<text xml:space="preserve" text-anchor="middle" x="893.3" y="-216.41" font-family="Helvetica,sans-Serif" font-size="12.00">ClanmasterDialogue.clanTask</text>
</a>
</g>
</g>
<!-- Node1&#45;&gt;Node8 -->
<g id="edge9_Node000001_Node000008" class="edge">
<title>Node1&#45;&gt;Node8</title>
<g id="a_edge9_Node000001_Node000008"><a xlink:title=" ">
<path fill="none" stroke="#63b8ff" d="M1477.78,-291.31C1368.64,-290.26 1228.05,-285.54 1103.96,-270.81 1063.1,-265.96 1018.35,-257.26 980.73,-248.95"/>
<polygon fill="#63b8ff" stroke="#63b8ff" points="1477.7,-294.81 1487.73,-291.4 1477.76,-287.81 1477.7,-294.81"/>
</a>
</g>
</g>
<!-- Node11 -->
<g id="Node000011" class="node">
<title>Node11</title>
<g id="a_Node000011"><a xlink:href="classcom_1_1runehive_1_1content_1_1itemaction_1_1impl_1_1_clan_showcase_box.html#a3e4dc5749f843fb28948a30275aded60" target="_top" xlink:title="The execution method of the action.">
<ellipse fill="white" stroke="#666666" cx="1278.62" cy="-235.81" rx="152.91" ry="25.81"/>
<text xml:space="preserve" text-anchor="start" x="1178.49" y="-238.66" font-family="Helvetica,sans-Serif" font-size="12.00">com.runehive.content.itemaction.impl.</text>
<text xml:space="preserve" text-anchor="middle" x="1278.62" y="-224.41" font-family="Helvetica,sans-Serif" font-size="12.00">ClanShowcaseBox.inventory</text>
</a>
</g>
</g>
<!-- Node1&#45;&gt;Node11 -->
<g id="edge12_Node000001_Node000011" class="edge">
<title>Node1&#45;&gt;Node11</title>
<g id="a_edge12_Node000001_Node000011"><a xlink:title=" ">
<path fill="none" stroke="#63b8ff" d="M1524.46,-270.3C1482.8,-264.43 1437.49,-258.05 1397.31,-252.39"/>
<polygon fill="#63b8ff" stroke="#63b8ff" points="1523.93,-273.76 1534.32,-271.69 1524.91,-266.83 1523.93,-273.76"/>
</a>
</g>
</g>
<!-- Node12 -->
<g id="Node000012" class="node">
<title>Node12</title>
<g id="a_Node000012"><a xlink:href="classcom_1_1runehive_1_1content_1_1clanchannel_1_1channel_1_1_clan_channel.html#ac270a933ab134c99885bc1b119d3bb4a" target="_top" xlink:title=" ">
<ellipse fill="white" stroke="#666666" cx="1278.62" cy="-165.81" rx="174.66" ry="25.81"/>
<text xml:space="preserve" text-anchor="start" x="1163.12" y="-168.66" font-family="Helvetica,sans-Serif" font-size="12.00">com.runehive.content.clanchannel.channel.</text>
<text xml:space="preserve" text-anchor="middle" x="1278.62" y="-154.41" font-family="Helvetica,sans-Serif" font-size="12.00">ClanChannel.receiveTask</text>
</a>
</g>
</g>
<!-- Node1&#45;&gt;Node12 -->
<g id="edge13_Node000001_Node000012" class="edge">
<title>Node1&#45;&gt;Node12</title>
<g id="a_edge13_Node000001_Node000012"><a xlink:title=" ">
<path fill="none" stroke="#63b8ff" d="M1601.49,-259.83C1560.35,-240.72 1504.53,-216.67 1453.27,-200.81 1434.47,-194.99 1414.21,-189.89 1394.41,-185.52"/>
<polygon fill="#63b8ff" stroke="#63b8ff" points="1599.98,-262.98 1610.52,-264.05 1602.95,-256.64 1599.98,-262.98"/>
</a>
</g>
</g>
<!-- Node13 -->
<g id="Node000013" class="node">
<title>Node13</title>
<g id="a_Node000013"><a xlink:href="classcom_1_1runehive_1_1content_1_1clanchannel_1_1channel_1_1_clan_channel.html#af8bb82f9bf9f3a3bd9c2d0dbed770728" target="_top" xlink:title=" ">
<ellipse fill="white" stroke="#666666" cx="1278.62" cy="-95.81" rx="174.66" ry="25.81"/>
<text xml:space="preserve" text-anchor="start" x="1163.12" y="-98.66" font-family="Helvetica,sans-Serif" font-size="12.00">com.runehive.content.clanchannel.channel.</text>
<text xml:space="preserve" text-anchor="middle" x="1278.62" y="-84.41" font-family="Helvetica,sans-Serif" font-size="12.00">ClanChannel.setName</text>
</a>
</g>
</g>
<!-- Node1&#45;&gt;Node13 -->
<g id="edge15_Node000001_Node000013" class="edge">
<title>Node1&#45;&gt;Node13</title>
<g id="a_edge15_Node000001_Node000013"><a xlink:title=" ">
<path fill="none" stroke="#63b8ff" d="M1629.16,-256.36C1590.17,-219.72 1522.47,-162.03 1453.27,-130.81 1437.99,-123.92 1421.35,-118.37 1404.61,-113.91"/>
<polygon fill="#63b8ff" stroke="#63b8ff" points="1626.28,-258.44 1635.94,-262.79 1631.1,-253.37 1626.28,-258.44"/>
</a>
</g>
</g>
<!-- Node14 -->
<g id="Node000014" class="node">
<title>Node14</title>
<g id="a_Node000014"><a xlink:href="classcom_1_1runehive_1_1content_1_1clanchannel_1_1channel_1_1_clan_channel.html#adba4773e20b878281137bcc3c061915c" target="_top" xlink:title=" ">
<ellipse fill="white" stroke="#666666" cx="1278.62" cy="-25.81" rx="174.66" ry="25.81"/>
<text xml:space="preserve" text-anchor="start" x="1163.12" y="-28.66" font-family="Helvetica,sans-Serif" font-size="12.00">com.runehive.content.clanchannel.channel.</text>
<text xml:space="preserve" text-anchor="middle" x="1278.62" y="-14.41" font-family="Helvetica,sans-Serif" font-size="12.00">ClanChannel.setTag</text>
</a>
</g>
</g>
<!-- Node1&#45;&gt;Node14 -->
<g id="edge16_Node000001_Node000014" class="edge">
<title>Node1&#45;&gt;Node14</title>
<g id="a_edge16_Node000001_Node000014"><a xlink:title=" ">
<path fill="none" stroke="#63b8ff" d="M1641.27,-254.58C1607.73,-203.24 1538.15,-108.75 1453.27,-60.81 1440.15,-53.4 1425.69,-47.54 1410.88,-42.92"/>
<polygon fill="#63b8ff" stroke="#63b8ff" points="1638.13,-256.16 1646.48,-262.68 1644.01,-252.37 1638.13,-256.16"/>
</a>
</g>
</g>
<!-- Node2&#45;&gt;Node3 -->
<g id="edge2_Node000002_Node000003" class="edge">
<title>Node2&#45;&gt;Node3</title>
<g id="a_edge2_Node000002_Node000003"><a xlink:title=" ">
<path fill="none" stroke="#63b8ff" d="M1155.84,-436.05C1107.49,-444.88 1052.27,-454.96 1005.07,-463.58"/>
<polygon fill="#63b8ff" stroke="#63b8ff" points="1156.31,-439.52 1165.51,-434.28 1155.05,-432.63 1156.31,-439.52"/>
</a>
</g>
</g>
<!-- Node4 -->
<g id="Node000004" class="node">
<title>Node4</title>
<g id="a_Node000004"><a xlink:href="classcom_1_1runehive_1_1content_1_1clanchannel_1_1channel_1_1_clan_channel.html#a140312e1182f1d8459766e63e80051e3" target="_top" xlink:title=" ">
<ellipse fill="white" stroke="#666666" cx="893.3" cy="-413.81" rx="174.66" ry="25.81"/>
<text xml:space="preserve" text-anchor="start" x="777.8" y="-416.66" font-family="Helvetica,sans-Serif" font-size="12.00">com.runehive.content.clanchannel.channel.</text>
<text xml:space="preserve" text-anchor="middle" x="893.3" y="-402.41" font-family="Helvetica,sans-Serif" font-size="12.00">ClanChannel.add</text>
</a>
</g>
</g>
<!-- Node2&#45;&gt;Node4 -->
<g id="edge3_Node000002_Node000004" class="edge">
<title>Node2&#45;&gt;Node4</title>
<g id="a_edge3_Node000002_Node000004"><a xlink:title=" ">
<path fill="none" stroke="#63b8ff" d="M1092.29,-413.81C1084.26,-413.81 1076.21,-413.81 1068.21,-413.81"/>
<polygon fill="#63b8ff" stroke="#63b8ff" points="1092.11,-417.31 1102.11,-413.81 1092.11,-410.31 1092.11,-417.31"/>
</a>
</g>
</g>
<!-- Node5 -->
<g id="Node000005" class="node">
<title>Node5</title>
<g id="a_Node000005"><a xlink:href="classcom_1_1runehive_1_1content_1_1clanchannel_1_1channel_1_1_clan_channel.html#a440d02802c6c36553ef741103d82d243" target="_top" xlink:title="Handles a player connecting to the clan channel.">
<ellipse fill="white" stroke="#666666" cx="507.99" cy="-413.81" rx="174.66" ry="25.81"/>
<text xml:space="preserve" text-anchor="start" x="392.49" y="-416.66" font-family="Helvetica,sans-Serif" font-size="12.00">com.runehive.content.clanchannel.channel.</text>
<text xml:space="preserve" text-anchor="middle" x="507.99" y="-402.41" font-family="Helvetica,sans-Serif" font-size="12.00">ClanChannel.connect</text>
</a>
</g>
</g>
<!-- Node4&#45;&gt;Node5 -->
<g id="edge4_Node000004_Node000005" class="edge">
<title>Node4&#45;&gt;Node5</title>
<g id="a_edge4_Node000004_Node000005"><a xlink:title=" ">
<path fill="none" stroke="#63b8ff" d="M706.98,-413.81C698.94,-413.81 690.9,-413.81 682.89,-413.81"/>
<polygon fill="#63b8ff" stroke="#63b8ff" points="706.8,-417.31 716.8,-413.81 706.8,-410.31 706.8,-417.31"/>
</a>
</g>
</g>
<!-- Node6&#45;&gt;Node3 -->
<g id="edge7_Node000006_Node000003" class="edge">
<title>Node6&#45;&gt;Node3</title>
<g id="a_edge7_Node000006_Node000003"><a xlink:title=" ">
<path fill="none" stroke="#63b8ff" d="M1092.29,-483.81C1084.26,-483.81 1076.21,-483.81 1068.21,-483.81"/>
<polygon fill="#63b8ff" stroke="#63b8ff" points="1092.11,-487.31 1102.11,-483.81 1092.11,-480.31 1092.11,-487.31"/>
</a>
</g>
</g>
<!-- Node9 -->
<g id="Node000009" class="node">
<title>Node9</title>
<g id="a_Node000009"><a xlink:href="classcom_1_1runehive_1_1content_1_1dialogue_1_1impl_1_1_clanmaster_dialogue.html#a1fc18685c6106ff2e0480acacc229ae8" target="_top" xlink:title="The clan management dialogue.">
<ellipse fill="white" stroke="#666666" cx="507.99" cy="-227.81" rx="156.62" ry="25.81"/>
<text xml:space="preserve" text-anchor="start" x="405.24" y="-230.66" font-family="Helvetica,sans-Serif" font-size="12.00">com.runehive.content.dialogue.impl.</text>
<text xml:space="preserve" text-anchor="middle" x="507.99" y="-216.41" font-family="Helvetica,sans-Serif" font-size="12.00">ClanmasterDialogue.clanManagement</text>
</a>
</g>
</g>
<!-- Node8&#45;&gt;Node9 -->
<g id="edge10_Node000008_Node000009" class="edge">
<title>Node8&#45;&gt;Node9</title>
<g id="a_edge10_Node000008_Node000009"><a xlink:title=" ">
<path fill="none" stroke="#63b8ff" d="M734.54,-227.81C711.58,-227.81 687.95,-227.81 665.03,-227.81"/>
<polygon fill="#63b8ff" stroke="#63b8ff" points="734.24,-231.31 744.24,-227.81 734.24,-224.31 734.24,-231.31"/>
</a>
</g>
</g>
<!-- Node10 -->
<g id="Node000010" class="node">
<title>Node10</title>
<g id="a_Node000010"><a xlink:href="classcom_1_1runehive_1_1content_1_1dialogue_1_1impl_1_1_clanmaster_dialogue.html#a67eeabf0e01a61b2a530f27483b11dbd" target="_top" xlink:title="Sends a player a dialogue.">
<ellipse fill="white" stroke="#666666" cx="148.67" cy="-227.81" rx="148.67" ry="25.81"/>
<text xml:space="preserve" text-anchor="start" x="51.54" y="-230.66" font-family="Helvetica,sans-Serif" font-size="12.00">com.runehive.content.dialogue.impl.</text>
<text xml:space="preserve" text-anchor="middle" x="148.67" y="-216.41" font-family="Helvetica,sans-Serif" font-size="12.00">ClanmasterDialogue.sendDialogues</text>
</a>
</g>
</g>
<!-- Node9&#45;&gt;Node10 -->
<g id="edge11_Node000009_Node000010" class="edge">
<title>Node9&#45;&gt;Node10</title>
<g id="a_edge11_Node000009_Node000010"><a xlink:title=" ">
<path fill="none" stroke="#63b8ff" d="M339.77,-227.81C325.68,-227.81 311.5,-227.81 297.57,-227.81"/>
<polygon fill="#63b8ff" stroke="#63b8ff" points="339.53,-231.31 349.53,-227.81 339.53,-224.31 339.53,-231.31"/>
</a>
</g>
</g>
<!-- Node12&#45;&gt;Node8 -->
<g id="edge14_Node000012_Node000008" class="edge">
<title>Node12&#45;&gt;Node8</title>
<g id="a_edge14_Node000012_Node000008"><a xlink:title=" ">
<path fill="none" stroke="#63b8ff" d="M1147.75,-186.82C1100.67,-194.43 1048.01,-202.95 1002.95,-210.24"/>
<polygon fill="#63b8ff" stroke="#63b8ff" points="1148.15,-190.3 1157.46,-185.24 1147.03,-183.39 1148.15,-190.3"/>
</a>
</g>
</g>
</g>
</svg>

<g id="navigator" transform="translate(0 0)" fill="#404254">
  <rect fill="#f2f5e9" fill-opacity="0.5" stroke="#606060" stroke-width=".5" x="0" y="0" width="60" height="60"/>
  <use id="zoomplus" xlink:href="#zoomPlus" x="17" y="9" onmousedown="handleZoom(evt,'in')"/>
  <use id="zoomminus" xlink:href="#zoomMin" x="42" y="9" onmousedown="handleZoom(evt,'out')"/>
  <use id="reset" xlink:href="#resetDef" x="30" y="36" onmousedown="handleReset()"/>
   <use id="arrowup" xlink:href="#arrowUp" x="0" y="0" onmousedown="handlePan(0,-1)"/>
  <use id="arrowright" xlink:href="#arrowRight" x="0" y="0" onmousedown="handlePan(1,0)"/>
  <use id="arrowdown" xlink:href="#arrowDown" x="0" y="0" onmousedown="handlePan(0,1)"/>
  <use id="arrowleft" xlink:href="#arrowLeft" x="0" y="0" onmousedown="handlePan(-1,0)"/>
</g>
<svg viewBox="0 0 15 15" width="100%" height="30px" preserveAspectRatio="xMaxYMin meet">
 <g id="arrow_out" transform="scale(0.3 0.3)">
  <a xlink:href="classcom_1_1runehive_1_1content_1_1clanchannel_1_1channel_1_1_clan_channel_adf0f6f74bbc0346647877b7171a35a61_icgraph_org.svg" target="_base">
   <rect id="button" ry="5" rx="5" y="6" x="6" height="38" width="38"
        fill="#f2f5e9" fill-opacity="0.5" stroke="#606060" stroke-width="1.0"/>
   <path id="arrow"
     d="M 11.500037,31.436501 C 11.940474,20.09759 22.043105,11.32322 32.158766,21.979434 L 37.068811,17.246167 C 37.068811,17.246167 37.088388,32 37.088388,32 L 22.160133,31.978069 C 22.160133,31.978069 26.997745,27.140456 26.997745,27.140456 C 18.528582,18.264221 13.291696,25.230495 11.500037,31.436501 z"
     style="fill:#404040;"/>
  </a>
 </g>
</svg>

<style type='text/css'>
<![CDATA[
[data-mouse-over-selected='false'] { opacity: 0.7; }
[data-mouse-over-selected='true']  { opacity: 1.0; }
]]>
</style>
<script type="application/ecmascript"><![CDATA[
document.addEventListener('DOMContentLoaded', (event) => {
  highlightEdges();
  highlightAdjacentNodes();
});
]]></script>
</svg>
