<?xml version="1.0" encoding="UTF-8" standalone="no"?>
<!DOCTYPE svg PUBLIC "-//W3C//DTD SVG 1.1//EN"
 "http://www.w3.org/Graphics/SVG/1.1/DTD/svg11.dtd">
<!-- Generated by graphviz version 14.0.1 (20251006.0113)
 -->
<!-- Title: com.runehive.game.world.entity.mob.npc.drop.NpcDropManager.handleMessages Pages: 1 -->
<svg width="1609pt" height="568pt"
 viewBox="0.00 0.00 1609.00 568.00" xmlns="http://www.w3.org/2000/svg" xmlns:xlink="http://www.w3.org/1999/xlink">
<g id="graph0" class="graph" transform="scale(1 1) rotate(0) translate(4 563.62)">
<title>com.runehive.game.world.entity.mob.npc.drop.NpcDropManager.handleMessages</title>
<!-- Node1 -->
<g id="Node000001" class="node">
<title>Node1</title>
<g id="a_Node000001"><a xlink:title=" ">
<ellipse fill="#999999" stroke="#666666" cx="185.79" cy="-270.81" rx="185.79" ry="25.81"/>
<text xml:space="preserve" text-anchor="start" x="62.42" y="-273.66" font-family="Helvetica,sans-Serif" font-size="12.00">com.runehive.game.world.entity.mob.npc.drop.</text>
<text xml:space="preserve" text-anchor="middle" x="185.79" y="-259.41" font-family="Helvetica,sans-Serif" font-size="12.00">NpcDropManager.handleMessages</text>
</a>
</g>
</g>
<!-- Node2 -->
<g id="Node000002" class="node">
<title>Node2</title>
<g id="a_Node000002"><a xlink:href="classcom_1_1runehive_1_1content_1_1achievement_1_1_achievement_handler.html#a383fb0ccbf23e33737c19d61fcb332ac" target="_top" xlink:title="Activates the achievement for the individual player.">
<ellipse fill="white" stroke="#666666" cx="552.01" cy="-515.81" rx="144.43" ry="25.81"/>
<text xml:space="preserve" text-anchor="start" x="457.89" y="-518.66" font-family="Helvetica,sans-Serif" font-size="12.00">com.runehive.content.achievement.</text>
<text xml:space="preserve" text-anchor="middle" x="552.01" y="-504.41" font-family="Helvetica,sans-Serif" font-size="12.00">AchievementHandler.activate</text>
</a>
</g>
</g>
<!-- Node1&#45;&gt;Node2 -->
<g id="edge1_Node000001_Node000002" class="edge">
<title>Node1&#45;&gt;Node2</title>
<g id="a_edge1_Node000001_Node000002"><a xlink:title=" ">
<path fill="none" stroke="#63b8ff" d="M206.49,-296.94C241.72,-341.75 320.07,-433.01 407.58,-480.81 416.85,-485.87 426.85,-490.21 437.1,-493.92"/>
<polygon fill="#63b8ff" stroke="#63b8ff" points="435.83,-497.19 446.43,-497.09 438.08,-490.56 435.83,-497.19"/>
</a>
</g>
</g>
<!-- Node3 -->
<g id="Node000003" class="node">
<title>Node3</title>
<g id="a_Node000003"><a xlink:href="classcom_1_1runehive_1_1util_1_1_utility.html#a490026d68b72e2dea391680a7d49a844" target="_top" xlink:title="Formats digits for integers.">
<ellipse fill="white" stroke="#666666" cx="552.01" cy="-445.81" rx="123.74" ry="25.81"/>
<text xml:space="preserve" text-anchor="start" x="472.51" y="-448.66" font-family="Helvetica,sans-Serif" font-size="12.00">com.runehive.util.Utility.format</text>
<text xml:space="preserve" text-anchor="middle" x="552.01" y="-434.41" font-family="Helvetica,sans-Serif" font-size="12.00">Digits</text>
</a>
</g>
</g>
<!-- Node1&#45;&gt;Node3 -->
<g id="edge3_Node000001_Node000003" class="edge">
<title>Node1&#45;&gt;Node3</title>
<g id="a_edge3_Node000001_Node000003"><a xlink:title=" ">
<path fill="none" stroke="#63b8ff" d="M219.67,-296.54C261.21,-327.86 335.96,-380.34 407.58,-410.81 420.65,-416.37 434.77,-421.16 448.88,-425.25"/>
<polygon fill="#63b8ff" stroke="#63b8ff" points="447.63,-428.54 458.2,-427.85 449.5,-421.79 447.63,-428.54"/>
</a>
</g>
</g>
<!-- Node4 -->
<g id="Node000004" class="node">
<title>Node4</title>
<g id="a_Node000004"><a xlink:href="classcom_1_1runehive_1_1util_1_1_utility.html#a949eda7f39a8a3e15e29283f8b0d0623" target="_top" xlink:title="A or an.">
<ellipse fill="white" stroke="#666666" cx="552.01" cy="-375.81" rx="112.08" ry="25.81"/>
<text xml:space="preserve" text-anchor="start" x="480.76" y="-378.66" font-family="Helvetica,sans-Serif" font-size="12.00">com.runehive.util.Utility.get</text>
<text xml:space="preserve" text-anchor="middle" x="552.01" y="-364.41" font-family="Helvetica,sans-Serif" font-size="12.00">AOrAn</text>
</a>
</g>
</g>
<!-- Node1&#45;&gt;Node4 -->
<g id="edge4_Node000001_Node000004" class="edge">
<title>Node1&#45;&gt;Node4</title>
<g id="a_edge4_Node000001_Node000004"><a xlink:title=" ">
<path fill="none" stroke="#63b8ff" d="M258.52,-294.9C301.53,-309.01 357.44,-326.76 407.58,-340.81 424.75,-345.62 443.18,-350.4 460.92,-354.81"/>
<polygon fill="#63b8ff" stroke="#63b8ff" points="459.84,-358.15 470.38,-357.15 461.51,-351.35 459.84,-358.15"/>
</a>
</g>
</g>
<!-- Node5 -->
<g id="Node000005" class="node">
<title>Node5</title>
<g id="a_Node000005"><a xlink:href="classcom_1_1runehive_1_1game_1_1world_1_1items_1_1_item.html#a1cec21ca5ef1783808d4ca9de1051a29" target="_top" xlink:title="Gets the identification of this item.">
<ellipse fill="white" stroke="#666666" cx="552.01" cy="-305.81" rx="132.76" ry="25.81"/>
<text xml:space="preserve" text-anchor="start" x="466.14" y="-308.66" font-family="Helvetica,sans-Serif" font-size="12.00">com.runehive.game.world.items.</text>
<text xml:space="preserve" text-anchor="middle" x="552.01" y="-294.41" font-family="Helvetica,sans-Serif" font-size="12.00">Item.getId</text>
</a>
</g>
</g>
<!-- Node1&#45;&gt;Node5 -->
<g id="edge5_Node000001_Node000005" class="edge">
<title>Node1&#45;&gt;Node5</title>
<g id="a_edge5_Node000001_Node000005"><a xlink:title=" ">
<path fill="none" stroke="#63b8ff" d="M339.93,-285.53C366.92,-288.12 394.77,-290.79 421.04,-293.32"/>
<polygon fill="#63b8ff" stroke="#63b8ff" points="420.4,-296.77 430.68,-294.25 421.07,-289.81 420.4,-296.77"/>
</a>
</g>
</g>
<!-- Node6 -->
<g id="Node000006" class="node">
<title>Node6</title>
<g id="a_Node000006"><a xlink:href="classcom_1_1runehive_1_1game_1_1world_1_1items_1_1_item.html#adc1c7b8e6620777606b083001f7d936a" target="_top" xlink:title=" ">
<ellipse fill="white" stroke="#666666" cx="552.01" cy="-95.81" rx="132.76" ry="25.81"/>
<text xml:space="preserve" text-anchor="start" x="466.14" y="-98.66" font-family="Helvetica,sans-Serif" font-size="12.00">com.runehive.game.world.items.</text>
<text xml:space="preserve" text-anchor="middle" x="552.01" y="-84.41" font-family="Helvetica,sans-Serif" font-size="12.00">Item.getName</text>
</a>
</g>
</g>
<!-- Node1&#45;&gt;Node6 -->
<g id="edge6_Node000001_Node000006" class="edge">
<title>Node1&#45;&gt;Node6</title>
<g id="a_edge6_Node000001_Node000006"><a xlink:title=" ">
<path fill="none" stroke="#63b8ff" d="M219.67,-245.08C261.21,-213.76 335.96,-161.28 407.58,-130.81 419.75,-125.64 432.83,-121.13 445.96,-117.22"/>
<polygon fill="#63b8ff" stroke="#63b8ff" points="446.88,-120.6 455.54,-114.5 444.96,-113.87 446.88,-120.6"/>
</a>
</g>
</g>
<!-- Node11 -->
<g id="Node000011" class="node">
<title>Node11</title>
<g id="a_Node000011"><a xlink:href="classcom_1_1runehive_1_1game_1_1world_1_1items_1_1_item.html#a6737e736d2b2162d343fc0267c92a309" target="_top" xlink:title="Gets the value for this item.">
<ellipse fill="white" stroke="#666666" cx="552.01" cy="-235.81" rx="132.76" ry="25.81"/>
<text xml:space="preserve" text-anchor="start" x="466.14" y="-238.66" font-family="Helvetica,sans-Serif" font-size="12.00">com.runehive.game.world.items.</text>
<text xml:space="preserve" text-anchor="middle" x="552.01" y="-224.41" font-family="Helvetica,sans-Serif" font-size="12.00">Item.getValue</text>
</a>
</g>
</g>
<!-- Node1&#45;&gt;Node11 -->
<g id="edge11_Node000001_Node000011" class="edge">
<title>Node1&#45;&gt;Node11</title>
<g id="a_edge11_Node000001_Node000011"><a xlink:title=" ">
<path fill="none" stroke="#63b8ff" d="M339.93,-256.09C366.92,-253.5 394.77,-250.82 421.04,-248.3"/>
<polygon fill="#63b8ff" stroke="#63b8ff" points="421.07,-251.81 430.68,-247.37 420.4,-244.84 421.07,-251.81"/>
</a>
</g>
</g>
<!-- Node12 -->
<g id="Node000012" class="node">
<title>Node12</title>
<g id="a_Node000012"><a xlink:href="classcom_1_1runehive_1_1game_1_1world_1_1items_1_1_item.html#a6cf8fb321f42b6b3830aa27258e2bf56" target="_top" xlink:title=" ">
<ellipse fill="white" stroke="#666666" cx="552.01" cy="-165.81" rx="132.76" ry="25.81"/>
<text xml:space="preserve" text-anchor="start" x="466.14" y="-168.66" font-family="Helvetica,sans-Serif" font-size="12.00">com.runehive.game.world.items.</text>
<text xml:space="preserve" text-anchor="middle" x="552.01" y="-154.41" font-family="Helvetica,sans-Serif" font-size="12.00">Item.isTradeable</text>
</a>
</g>
</g>
<!-- Node1&#45;&gt;Node12 -->
<g id="edge13_Node000001_Node000012" class="edge">
<title>Node1&#45;&gt;Node12</title>
<g id="a_edge13_Node000001_Node000012"><a xlink:title=" ">
<path fill="none" stroke="#63b8ff" d="M258.52,-246.72C301.53,-232.61 357.44,-214.86 407.58,-200.81 422.72,-196.57 438.84,-192.35 454.6,-188.39"/>
<polygon fill="#63b8ff" stroke="#63b8ff" points="455.12,-191.87 463.97,-186.05 453.42,-185.07 455.12,-191.87"/>
</a>
</g>
</g>
<!-- Node13 -->
<g id="Node000013" class="node">
<title>Node13</title>
<g id="a_Node000013"><a xlink:href="classcom_1_1runehive_1_1game_1_1world_1_1_world.html#a9a241d1bef16b172bbbf1df6767443b2" target="_top" xlink:title="Sends a global message.">
<ellipse fill="white" stroke="#666666" cx="552.01" cy="-25.81" rx="110.49" ry="25.81"/>
<text xml:space="preserve" text-anchor="start" x="481.89" y="-28.66" font-family="Helvetica,sans-Serif" font-size="12.00">com.runehive.game.world.</text>
<text xml:space="preserve" text-anchor="middle" x="552.01" y="-14.41" font-family="Helvetica,sans-Serif" font-size="12.00">World.sendMessage</text>
</a>
</g>
</g>
<!-- Node1&#45;&gt;Node13 -->
<g id="edge15_Node000001_Node000013" class="edge">
<title>Node1&#45;&gt;Node13</title>
<g id="a_edge15_Node000001_Node000013"><a xlink:title=" ">
<path fill="none" stroke="#63b8ff" d="M206.49,-244.68C241.72,-199.87 320.07,-108.6 407.58,-60.81 420.4,-53.81 434.62,-48.19 448.98,-43.69"/>
<polygon fill="#63b8ff" stroke="#63b8ff" points="449.9,-47.06 458.51,-40.88 447.93,-40.35 449.9,-47.06"/>
</a>
</g>
</g>
<!-- Node2&#45;&gt;Node2 -->
<g id="edge2_Node000002_Node000002" class="edge">
<title>Node2&#45;&gt;Node2</title>
<g id="a_edge2_Node000002_Node000002"><a xlink:title=" ">
<path fill="none" stroke="#63b8ff" d="M494.21,-539.69C488.7,-550.38 507.97,-559.62 552.01,-559.62 579.88,-559.62 597.83,-555.92 605.86,-550.49"/>
<polygon fill="#63b8ff" stroke="#63b8ff" points="609.14,-551.71 609.3,-541.11 602.57,-549.3 609.14,-551.71"/>
</a>
</g>
</g>
<!-- Node7 -->
<g id="Node000007" class="node">
<title>Node7</title>
<g id="a_Node000007"><a xlink:href="classcom_1_1runehive_1_1game_1_1world_1_1items_1_1_item.html#a5008cb760d4d688a1731e0406d29c335" target="_top" xlink:title="Gets the item definition for the item identifier.">
<ellipse fill="white" stroke="#666666" cx="865.2" cy="-165.81" rx="132.76" ry="25.81"/>
<text xml:space="preserve" text-anchor="start" x="779.32" y="-168.66" font-family="Helvetica,sans-Serif" font-size="12.00">com.runehive.game.world.items.</text>
<text xml:space="preserve" text-anchor="middle" x="865.2" y="-154.41" font-family="Helvetica,sans-Serif" font-size="12.00">Item.getDefinition</text>
</a>
</g>
</g>
<!-- Node6&#45;&gt;Node7 -->
<g id="edge7_Node000006_Node000007" class="edge">
<title>Node6&#45;&gt;Node7</title>
<g id="a_edge7_Node000006_Node000007"><a xlink:title=" ">
<path fill="none" stroke="#63b8ff" d="M640.11,-115.4C679.14,-124.18 725.36,-134.58 765.65,-143.64"/>
<polygon fill="#63b8ff" stroke="#63b8ff" points="764.85,-147.05 775.38,-145.83 766.39,-140.22 764.85,-147.05"/>
</a>
</g>
</g>
<!-- Node10 -->
<g id="Node000010" class="node">
<title>Node10</title>
<g id="a_Node000010"><a xlink:href="classcom_1_1runehive_1_1game_1_1world_1_1items_1_1_item_definition.html#aa9479e24430ebdd5855705e1177346b4" target="_top" xlink:title="Gets the item name.">
<ellipse fill="white" stroke="#666666" cx="865.2" cy="-95.81" rx="132.76" ry="25.81"/>
<text xml:space="preserve" text-anchor="start" x="779.32" y="-98.66" font-family="Helvetica,sans-Serif" font-size="12.00">com.runehive.game.world.items.</text>
<text xml:space="preserve" text-anchor="middle" x="865.2" y="-84.41" font-family="Helvetica,sans-Serif" font-size="12.00">ItemDefinition.getName</text>
</a>
</g>
</g>
<!-- Node6&#45;&gt;Node10 -->
<g id="edge10_Node000006_Node000010" class="edge">
<title>Node6&#45;&gt;Node10</title>
<g id="a_edge10_Node000006_Node000010"><a xlink:title=" ">
<path fill="none" stroke="#63b8ff" d="M684.98,-95.81C696.78,-95.81 708.77,-95.81 720.66,-95.81"/>
<polygon fill="#63b8ff" stroke="#63b8ff" points="720.51,-99.31 730.51,-95.81 720.51,-92.31 720.51,-99.31"/>
</a>
</g>
</g>
<!-- Node8 -->
<g id="Node000008" class="node">
<title>Node8</title>
<g id="a_Node000008"><a xlink:href="classcom_1_1runehive_1_1game_1_1world_1_1items_1_1_item_definition.html#a50e4924075ee157cd3f75a8107a595fa" target="_top" xlink:title="Gets an item definition.">
<ellipse fill="white" stroke="#666666" cx="1166.72" cy="-165.81" rx="132.76" ry="25.81"/>
<text xml:space="preserve" text-anchor="start" x="1080.84" y="-168.66" font-family="Helvetica,sans-Serif" font-size="12.00">com.runehive.game.world.items.</text>
<text xml:space="preserve" text-anchor="middle" x="1166.72" y="-154.41" font-family="Helvetica,sans-Serif" font-size="12.00">ItemDefinition.get</text>
</a>
</g>
</g>
<!-- Node7&#45;&gt;Node8 -->
<g id="edge8_Node000007_Node000008" class="edge">
<title>Node7&#45;&gt;Node8</title>
<g id="a_edge8_Node000007_Node000008"><a xlink:title=" ">
<path fill="none" stroke="#63b8ff" d="M998.44,-165.81C1006.43,-165.81 1014.49,-165.81 1022.52,-165.81"/>
<polygon fill="#63b8ff" stroke="#63b8ff" points="1022.33,-169.31 1032.33,-165.81 1022.33,-162.31 1022.33,-169.31"/>
</a>
</g>
</g>
<!-- Node9 -->
<g id="Node000009" class="node">
<title>Node9</title>
<g id="a_Node000009"><a xlink:href="classcom_1_1runehive_1_1game_1_1world_1_1items_1_1_item_definition.html#a4fafaf641c0490165d697a73006e76bf" target="_top" xlink:title=" ">
<ellipse fill="white" stroke="#666666" cx="1468.23" cy="-165.81" rx="132.76" ry="25.81"/>
<text xml:space="preserve" text-anchor="start" x="1382.36" y="-168.66" font-family="Helvetica,sans-Serif" font-size="12.00">com.runehive.game.world.items.</text>
<text xml:space="preserve" text-anchor="middle" x="1468.23" y="-154.41" font-family="Helvetica,sans-Serif" font-size="12.00">ItemDefinition.ItemDefinition</text>
</a>
</g>
</g>
<!-- Node8&#45;&gt;Node9 -->
<g id="edge9_Node000008_Node000009" class="edge">
<title>Node8&#45;&gt;Node9</title>
<g id="a_edge9_Node000008_Node000009"><a xlink:title=" ">
<path fill="none" stroke="#63b8ff" d="M1299.96,-165.81C1307.95,-165.81 1316.01,-165.81 1324.04,-165.81"/>
<polygon fill="#63b8ff" stroke="#63b8ff" points="1323.85,-169.31 1333.85,-165.81 1323.85,-162.31 1323.85,-169.31"/>
</a>
</g>
</g>
<!-- Node11&#45;&gt;Node7 -->
<g id="edge12_Node000011_Node000007" class="edge">
<title>Node11&#45;&gt;Node7</title>
<g id="a_edge12_Node000011_Node000007"><a xlink:title=" ">
<path fill="none" stroke="#63b8ff" d="M640.11,-216.22C679.14,-207.44 725.36,-197.04 765.65,-187.98"/>
<polygon fill="#63b8ff" stroke="#63b8ff" points="766.39,-191.4 775.38,-185.79 764.85,-184.57 766.39,-191.4"/>
</a>
</g>
</g>
<!-- Node12&#45;&gt;Node7 -->
<g id="edge14_Node000012_Node000007" class="edge">
<title>Node12&#45;&gt;Node7</title>
<g id="a_edge14_Node000012_Node000007"><a xlink:title=" ">
<path fill="none" stroke="#63b8ff" d="M684.98,-165.81C696.78,-165.81 708.77,-165.81 720.66,-165.81"/>
<polygon fill="#63b8ff" stroke="#63b8ff" points="720.51,-169.31 730.51,-165.81 720.51,-162.31 720.51,-169.31"/>
</a>
</g>
</g>
<!-- Node14 -->
<g id="Node000014" class="node">
<title>Node14</title>
<g id="a_Node000014"><a xlink:href="classcom_1_1runehive_1_1game_1_1world_1_1_world.html#aea9414faed608c5daf7defab8f0a1f07" target="_top" xlink:title=" ">
<ellipse fill="white" stroke="#666666" cx="865.2" cy="-25.81" rx="110.49" ry="25.81"/>
<text xml:space="preserve" text-anchor="start" x="795.07" y="-28.66" font-family="Helvetica,sans-Serif" font-size="12.00">com.runehive.game.world.</text>
<text xml:space="preserve" text-anchor="middle" x="865.2" y="-14.41" font-family="Helvetica,sans-Serif" font-size="12.00">World.getPlayers</text>
</a>
</g>
</g>
<!-- Node13&#45;&gt;Node14 -->
<g id="edge16_Node000013_Node000014" class="edge">
<title>Node13&#45;&gt;Node14</title>
<g id="a_edge16_Node000013_Node000014"><a xlink:title=" ">
<path fill="none" stroke="#63b8ff" d="M662.72,-25.81C688.75,-25.81 716.66,-25.81 743.16,-25.81"/>
<polygon fill="#63b8ff" stroke="#63b8ff" points="742.91,-29.31 752.91,-25.81 742.91,-22.31 742.91,-29.31"/>
</a>
</g>
</g>
</g>
</svg>
