<?xml version="1.0" encoding="UTF-8" standalone="no"?>
<!DOCTYPE svg PUBLIC "-//W3C//DTD SVG 1.1//EN"
 "http://www.w3.org/Graphics/SVG/1.1/DTD/svg11.dtd">
<!-- Generated by graphviz version 14.0.1 (20251006.0113)
 -->
<!-- Title: com.runehive.game.world.entity.combat.strategy.basic.MeleeStrategy.withinDistance Pages: 1 -->
<svg width="2122pt" height="801pt"
 viewBox="0.00 0.00 2122.00 801.00" xmlns="http://www.w3.org/2000/svg" xmlns:xlink="http://www.w3.org/1999/xlink">
<g id="graph0" class="graph" transform="scale(1 1) rotate(0) translate(4 797.29)">
<title>com.runehive.game.world.entity.combat.strategy.basic.MeleeStrategy.withinDistance</title>
<!-- Node1 -->
<g id="Node000001" class="node">
<title>Node1</title>
<g id="a_Node000001"><a xlink:title=" ">
<ellipse fill="#999999" stroke="#666666" cx="215.49" cy="-311.3" rx="215.49" ry="25.81"/>
<text xml:space="preserve" text-anchor="start" x="71.12" y="-314.15" font-family="Helvetica,sans-Serif" font-size="12.00">com.runehive.game.world.entity.combat.strategy.basic.</text>
<text xml:space="preserve" text-anchor="middle" x="215.49" y="-299.9" font-family="Helvetica,sans-Serif" font-size="12.00">MeleeStrategy.withinDistance</text>
</a>
</g>
</g>
<!-- Node1&#45;&gt;Node1 -->
<g id="edge35_Node000001_Node000001" class="edge">
<title>Node1&#45;&gt;Node1</title>
<g id="a_edge35_Node000001_Node000001"><a xlink:title=" ">
<path fill="none" stroke="#63b8ff" d="M133.41,-335.19C125.59,-345.87 152.95,-355.11 215.49,-355.11 256.04,-355.11 281.8,-351.23 292.77,-345.58"/>
<polygon fill="#63b8ff" stroke="#63b8ff" points="295.92,-347.11 296.94,-336.56 289.57,-344.17 295.92,-347.11"/>
</a>
</g>
</g>
<!-- Node2 -->
<g id="Node000002" class="node">
<title>Node2</title>
<g id="a_Node000002"><a xlink:href="classcom_1_1runehive_1_1game_1_1world_1_1pathfinding_1_1path_1_1_simple_path_checker.html#afaba4404f5c1ebd1789a6a131e1f7967" target="_top" xlink:title=" ">
<ellipse fill="white" stroke="#666666" cx="660.2" cy="-381.3" rx="173.06" ry="25.81"/>
<text xml:space="preserve" text-anchor="start" x="545.82" y="-384.15" font-family="Helvetica,sans-Serif" font-size="12.00">com.runehive.game.world.pathfinding.path.</text>
<text xml:space="preserve" text-anchor="middle" x="660.2" y="-369.9" font-family="Helvetica,sans-Serif" font-size="12.00">SimplePathChecker.checkLine</text>
</a>
</g>
</g>
<!-- Node1&#45;&gt;Node2 -->
<g id="edge1_Node000001_Node000002" class="edge">
<title>Node1&#45;&gt;Node2</title>
<g id="a_edge1_Node000001_Node000002"><a xlink:title=" ">
<path fill="none" stroke="#63b8ff" d="M347.82,-332.07C404.82,-341.08 471.42,-351.61 528.36,-360.62"/>
<polygon fill="#63b8ff" stroke="#63b8ff" points="527.7,-364.05 538.12,-362.16 528.79,-357.14 527.7,-364.05"/>
</a>
</g>
</g>
<!-- Node19 -->
<g id="Node000019" class="node">
<title>Node19</title>
<g id="a_Node000019"><a xlink:href="classcom_1_1runehive_1_1game_1_1world_1_1entity_1_1combat_1_1strategy_1_1_combat_strategy.html#a50fbd9f805b9e41c07e00e60daffa71c" target="_top" xlink:title=" ">
<ellipse fill="white" stroke="#666666" cx="660.2" cy="-311.3" rx="193.22" ry="25.81"/>
<text xml:space="preserve" text-anchor="start" x="531.57" y="-314.15" font-family="Helvetica,sans-Serif" font-size="12.00">com.runehive.game.world.entity.combat.strategy.</text>
<text xml:space="preserve" text-anchor="middle" x="660.2" y="-299.9" font-family="Helvetica,sans-Serif" font-size="12.00">CombatStrategy.getAttackDistance</text>
</a>
</g>
</g>
<!-- Node1&#45;&gt;Node19 -->
<g id="edge33_Node000001_Node000019" class="edge">
<title>Node1&#45;&gt;Node19</title>
<g id="a_edge33_Node000001_Node000019"><a xlink:title=" ">
<path fill="none" stroke="#63b8ff" d="M431.36,-311.3C439.37,-311.3 447.39,-311.3 455.39,-311.3"/>
<polygon fill="#63b8ff" stroke="#63b8ff" points="455.15,-314.8 465.15,-311.3 455.15,-307.8 455.15,-314.8"/>
</a>
</g>
</g>
<!-- Node20 -->
<g id="Node000020" class="node">
<title>Node20</title>
<g id="a_Node000020"><a xlink:href="classcom_1_1runehive_1_1util_1_1_utility.html#a52e944b79257ee14b44e989bde3de895" target="_top" xlink:title=" ">
<ellipse fill="white" stroke="#666666" cx="660.2" cy="-241.3" rx="107.3" ry="25.81"/>
<text xml:space="preserve" text-anchor="start" x="592.32" y="-244.15" font-family="Helvetica,sans-Serif" font-size="12.00">com.runehive.util.Utility.in</text>
<text xml:space="preserve" text-anchor="middle" x="660.2" y="-229.9" font-family="Helvetica,sans-Serif" font-size="12.00">Range</text>
</a>
</g>
</g>
<!-- Node1&#45;&gt;Node20 -->
<g id="edge34_Node000001_Node000020" class="edge">
<title>Node1&#45;&gt;Node20</title>
<g id="a_edge34_Node000001_Node000020"><a xlink:title=" ">
<path fill="none" stroke="#63b8ff" d="M347.82,-290.54C415.28,-279.87 496.18,-267.08 558.61,-257.21"/>
<polygon fill="#63b8ff" stroke="#63b8ff" points="558.82,-260.72 568.15,-255.7 557.73,-253.8 558.82,-260.72"/>
</a>
</g>
</g>
<!-- Node3 -->
<g id="Node000003" class="node">
<title>Node3</title>
<g id="a_Node000003"><a xlink:href="classcom_1_1runehive_1_1util_1_1_utility.html#a681f6f00001464109e8781c935de4b39" target="_top" xlink:title=" ">
<ellipse fill="white" stroke="#666666" cx="1003.61" cy="-381.3" rx="114.2" ry="25.81"/>
<text xml:space="preserve" text-anchor="start" x="930.86" y="-384.15" font-family="Helvetica,sans-Serif" font-size="12.00">com.runehive.util.Utility.find</text>
<text xml:space="preserve" text-anchor="middle" x="1003.61" y="-369.9" font-family="Helvetica,sans-Serif" font-size="12.00">BestInside</text>
</a>
</g>
</g>
<!-- Node2&#45;&gt;Node3 -->
<g id="edge2_Node000002_Node000003" class="edge">
<title>Node2&#45;&gt;Node3</title>
<g id="a_edge2_Node000002_Node000003"><a xlink:title=" ">
<path fill="none" stroke="#63b8ff" d="M833.66,-381.3C848.55,-381.3 863.42,-381.3 877.83,-381.3"/>
<polygon fill="#63b8ff" stroke="#63b8ff" points="877.76,-384.8 887.76,-381.3 877.76,-377.8 877.76,-384.8"/>
</a>
</g>
</g>
<!-- Node11 -->
<g id="Node000011" class="node">
<title>Node11</title>
<g id="a_Node000011"><a xlink:href="interfacecom_1_1runehive_1_1game_1_1world_1_1_interactable.html#a49e07a60c6643c0ba33bc9754305c352" target="_top" xlink:title=" ">
<ellipse fill="white" stroke="#666666" cx="1971.28" cy="-419.3" rx="110.49" ry="25.81"/>
<text xml:space="preserve" text-anchor="start" x="1901.15" y="-422.15" font-family="Helvetica,sans-Serif" font-size="12.00">com.runehive.game.world.</text>
<text xml:space="preserve" text-anchor="middle" x="1971.28" y="-407.9" font-family="Helvetica,sans-Serif" font-size="12.00">Interactable.getPosition</text>
</a>
</g>
</g>
<!-- Node2&#45;&gt;Node11 -->
<g id="edge31_Node000002_Node000011" class="edge">
<title>Node2&#45;&gt;Node11</title>
<g id="a_edge31_Node000002_Node000011"><a xlink:title=" ">
<path fill="none" stroke="#63b8ff" d="M685.81,-407.09C752.94,-475.31 947.99,-659.71 1153.81,-724.3 1425.33,-809.52 1550.12,-834.64 1792.97,-686.3 1816.17,-672.13 1907.24,-524.06 1949.07,-454.73"/>
<polygon fill="#63b8ff" stroke="#63b8ff" points="1951.93,-456.77 1954.09,-446.4 1945.93,-453.16 1951.93,-456.77"/>
</a>
</g>
</g>
<!-- Node18 -->
<g id="Node000018" class="node">
<title>Node18</title>
<g id="a_Node000018"><a xlink:href="interfacecom_1_1runehive_1_1game_1_1world_1_1_interactable.html#ad7eb47dad8c89c478cedc32ea6fe3a5b" target="_top" xlink:title=" ">
<ellipse fill="white" stroke="#666666" cx="1642.18" cy="-111.3" rx="110.49" ry="25.81"/>
<text xml:space="preserve" text-anchor="start" x="1572.06" y="-114.15" font-family="Helvetica,sans-Serif" font-size="12.00">com.runehive.game.world.</text>
<text xml:space="preserve" text-anchor="middle" x="1642.18" y="-99.9" font-family="Helvetica,sans-Serif" font-size="12.00">Interactable.width</text>
</a>
</g>
</g>
<!-- Node2&#45;&gt;Node18 -->
<g id="edge32_Node000002_Node000018" class="edge">
<title>Node2&#45;&gt;Node18</title>
<g id="a_edge32_Node000002_Node000018"><a xlink:title=" ">
<path fill="none" stroke="#63b8ff" d="M797.17,-365.25C816.53,-360.49 835.82,-354.31 853.42,-346.3 1008.95,-275.52 992.54,-162.82 1153.81,-106.3 1284.53,-60.5 1447.35,-75.31 1547.77,-91.95"/>
<polygon fill="#63b8ff" stroke="#63b8ff" points="1547.16,-95.4 1557.6,-93.63 1548.33,-88.5 1547.16,-95.4"/>
</a>
</g>
</g>
<!-- Node4 -->
<g id="Node000004" class="node">
<title>Node4</title>
<g id="a_Node000004"><a xlink:href="classcom_1_1runehive_1_1game_1_1world_1_1position_1_1_position.html#aa5000a67dd47377b1c1a1b252c3a4493" target="_top" xlink:title=" ">
<ellipse fill="white" stroke="#666666" cx="1304.6" cy="-689.3" rx="142.31" ry="25.81"/>
<text xml:space="preserve" text-anchor="start" x="1211.98" y="-692.15" font-family="Helvetica,sans-Serif" font-size="12.00">com.runehive.game.world.position.</text>
<text xml:space="preserve" text-anchor="middle" x="1304.6" y="-677.9" font-family="Helvetica,sans-Serif" font-size="12.00">Position.equals</text>
</a>
</g>
</g>
<!-- Node3&#45;&gt;Node4 -->
<g id="edge3_Node000003_Node000004" class="edge">
<title>Node3&#45;&gt;Node4</title>
<g id="a_edge3_Node000003_Node000004"><a xlink:title=" ">
<path fill="none" stroke="#63b8ff" d="M1011.12,-407.44C1026.2,-462.31 1068.9,-589.74 1153.81,-654.3 1161.69,-660.29 1170.42,-665.28 1179.6,-669.43"/>
<polygon fill="#63b8ff" stroke="#63b8ff" points="1178.16,-672.62 1188.73,-673.2 1180.82,-666.15 1178.16,-672.62"/>
</a>
</g>
</g>
<!-- Node6 -->
<g id="Node000006" class="node">
<title>Node6</title>
<g id="a_Node000006"><a xlink:href="enumcom_1_1runehive_1_1game_1_1world_1_1entity_1_1mob_1_1_direction.html#a02a335dd3a519ed422e54ea52d510720" target="_top" xlink:title="Gets the direction between two locations.">
<ellipse fill="white" stroke="#666666" cx="1304.6" cy="-619.3" rx="150.79" ry="25.81"/>
<text xml:space="preserve" text-anchor="start" x="1205.98" y="-622.15" font-family="Helvetica,sans-Serif" font-size="12.00">com.runehive.game.world.entity.mob.</text>
<text xml:space="preserve" text-anchor="middle" x="1304.6" y="-607.9" font-family="Helvetica,sans-Serif" font-size="12.00">Direction.getDirection</text>
</a>
</g>
</g>
<!-- Node3&#45;&gt;Node6 -->
<g id="edge5_Node000003_Node000006" class="edge">
<title>Node3&#45;&gt;Node6</title>
<g id="a_edge5_Node000003_Node000006"><a xlink:title=" ">
<path fill="none" stroke="#63b8ff" d="M1016.91,-407.24C1038.48,-449.86 1087.24,-534.44 1153.81,-579.3 1164.17,-586.28 1175.69,-592.05 1187.62,-596.81"/>
<polygon fill="#63b8ff" stroke="#63b8ff" points="1186.18,-600 1196.77,-600.21 1188.62,-593.44 1186.18,-600"/>
</a>
</g>
</g>
<!-- Node8 -->
<g id="Node000008" class="node">
<title>Node8</title>
<g id="a_Node000008"><a xlink:href="enumcom_1_1runehive_1_1game_1_1world_1_1entity_1_1mob_1_1_direction.html#a1cc1d881c28300ac71efc5e531c4db3c" target="_top" xlink:title=" ">
<ellipse fill="white" stroke="#666666" cx="1304.6" cy="-435.3" rx="150.79" ry="25.81"/>
<text xml:space="preserve" text-anchor="start" x="1205.98" y="-438.15" font-family="Helvetica,sans-Serif" font-size="12.00">com.runehive.game.world.entity.mob.</text>
<text xml:space="preserve" text-anchor="middle" x="1304.6" y="-423.9" font-family="Helvetica,sans-Serif" font-size="12.00">Direction.getDirectionX</text>
</a>
</g>
</g>
<!-- Node3&#45;&gt;Node8 -->
<g id="edge7_Node000003_Node000008" class="edge">
<title>Node3&#45;&gt;Node8</title>
<g id="a_edge7_Node000003_Node000008"><a xlink:title=" ">
<path fill="none" stroke="#63b8ff" d="M1093.91,-397.43C1123.55,-402.78 1156.96,-408.82 1188.27,-414.47"/>
<polygon fill="#63b8ff" stroke="#63b8ff" points="1187.29,-417.85 1197.76,-416.19 1188.54,-410.96 1187.29,-417.85"/>
</a>
</g>
</g>
<!-- Node9 -->
<g id="Node000009" class="node">
<title>Node9</title>
<g id="a_Node000009"><a xlink:href="enumcom_1_1runehive_1_1game_1_1world_1_1entity_1_1mob_1_1_direction.html#a4b53644b00b467a301eb80f8c7b77553" target="_top" xlink:title=" ">
<ellipse fill="white" stroke="#666666" cx="1304.6" cy="-327.3" rx="150.79" ry="25.81"/>
<text xml:space="preserve" text-anchor="start" x="1205.98" y="-330.15" font-family="Helvetica,sans-Serif" font-size="12.00">com.runehive.game.world.entity.mob.</text>
<text xml:space="preserve" text-anchor="middle" x="1304.6" y="-315.9" font-family="Helvetica,sans-Serif" font-size="12.00">Direction.getDirectionY</text>
</a>
</g>
</g>
<!-- Node3&#45;&gt;Node9 -->
<g id="edge8_Node000003_Node000009" class="edge">
<title>Node3&#45;&gt;Node9</title>
<g id="a_edge8_Node000003_Node000009"><a xlink:title=" ">
<path fill="none" stroke="#63b8ff" d="M1093.91,-365.17C1123.55,-359.82 1156.96,-353.79 1188.27,-348.13"/>
<polygon fill="#63b8ff" stroke="#63b8ff" points="1188.54,-351.64 1197.76,-346.42 1187.29,-344.75 1188.54,-351.64"/>
</a>
</g>
</g>
<!-- Node10 -->
<g id="Node000010" class="node">
<title>Node10</title>
<g id="a_Node000010"><a xlink:href="classcom_1_1runehive_1_1util_1_1_utility.html#a551396449bf2c3e196ba267f3efdc899" target="_top" xlink:title=" ">
<ellipse fill="white" stroke="#666666" cx="1304.6" cy="-257.3" rx="112.08" ry="25.81"/>
<text xml:space="preserve" text-anchor="start" x="1233.35" y="-260.15" font-family="Helvetica,sans-Serif" font-size="12.00">com.runehive.util.Utility.get</text>
<text xml:space="preserve" text-anchor="middle" x="1304.6" y="-245.9" font-family="Helvetica,sans-Serif" font-size="12.00">Distance</text>
</a>
</g>
</g>
<!-- Node3&#45;&gt;Node10 -->
<g id="edge9_Node000003_Node000010" class="edge">
<title>Node3&#45;&gt;Node10</title>
<g id="a_edge9_Node000003_Node000010"><a xlink:title=" ">
<path fill="none" stroke="#63b8ff" d="M1039.18,-356.47C1068.43,-336.52 1112.14,-309.13 1153.81,-292.3 1169.66,-285.91 1186.94,-280.52 1203.95,-276.04"/>
<polygon fill="#63b8ff" stroke="#63b8ff" points="1204.77,-279.44 1213.6,-273.6 1203.05,-272.66 1204.77,-279.44"/>
</a>
</g>
</g>
<!-- Node3&#45;&gt;Node11 -->
<g id="edge23_Node000003_Node000011" class="edge">
<title>Node3&#45;&gt;Node11</title>
<g id="a_edge23_Node000003_Node000011"><a xlink:title=" ">
<path fill="none" stroke="#63b8ff" d="M1027.49,-406.86C1054.49,-434.99 1102.28,-478.68 1153.81,-497.3 1287.41,-545.58 1654.74,-541.05 1792.97,-508.3 1840.41,-497.07 1889.58,-471.05 1924.08,-450.03"/>
<polygon fill="#63b8ff" stroke="#63b8ff" points="1925.91,-453.02 1932.57,-444.77 1922.22,-447.07 1925.91,-453.02"/>
</a>
</g>
</g>
<!-- Node12 -->
<g id="Node000012" class="node">
<title>Node12</title>
<g id="a_Node000012"><a xlink:href="interfacecom_1_1runehive_1_1game_1_1world_1_1_interactable.html#a709f3328972af0a98047591417fd5d4b" target="_top" xlink:title=" ">
<ellipse fill="white" stroke="#666666" cx="1642.18" cy="-257.3" rx="110.49" ry="25.81"/>
<text xml:space="preserve" text-anchor="start" x="1572.06" y="-260.15" font-family="Helvetica,sans-Serif" font-size="12.00">com.runehive.game.world.</text>
<text xml:space="preserve" text-anchor="middle" x="1642.18" y="-245.9" font-family="Helvetica,sans-Serif" font-size="12.00">Interactable.getX</text>
</a>
</g>
</g>
<!-- Node3&#45;&gt;Node12 -->
<g id="edge24_Node000003_Node000012" class="edge">
<title>Node3&#45;&gt;Node12</title>
<g id="a_edge24_Node000003_Node000012"><a xlink:title=" ">
<path fill="none" stroke="#63b8ff" d="M1019.34,-355.37C1042.39,-317.74 1090.94,-249.53 1153.81,-222.3 1291.36,-162.75 1471.21,-202.08 1569.44,-232.16"/>
<polygon fill="#63b8ff" stroke="#63b8ff" points="1568.39,-235.5 1578.98,-235.14 1570.48,-228.82 1568.39,-235.5"/>
</a>
</g>
</g>
<!-- Node13 -->
<g id="Node000013" class="node">
<title>Node13</title>
<g id="a_Node000013"><a xlink:href="classcom_1_1runehive_1_1game_1_1world_1_1position_1_1_position.html#a7bfa5292d8c3f79100a6bc85ea27b5ea" target="_top" xlink:title="Gets the absolute x coordinate.">
<ellipse fill="white" stroke="#666666" cx="1971.28" cy="-203.3" rx="142.31" ry="25.81"/>
<text xml:space="preserve" text-anchor="start" x="1878.65" y="-206.15" font-family="Helvetica,sans-Serif" font-size="12.00">com.runehive.game.world.position.</text>
<text xml:space="preserve" text-anchor="middle" x="1971.28" y="-191.9" font-family="Helvetica,sans-Serif" font-size="12.00">Position.getX</text>
</a>
</g>
</g>
<!-- Node3&#45;&gt;Node13 -->
<g id="edge25_Node000003_Node000013" class="edge">
<title>Node3&#45;&gt;Node13</title>
<g id="a_edge25_Node000003_Node000013"><a xlink:title=" ">
<path fill="none" stroke="#63b8ff" d="M1010.07,-355.3C1023.42,-298.9 1063.47,-165.65 1153.81,-106.3 1391.51,49.82 1522.21,10.66 1792.97,-76.3 1850.13,-94.66 1904.51,-139 1937.62,-170.09"/>
<polygon fill="#63b8ff" stroke="#63b8ff" points="1934.82,-172.26 1944.47,-176.64 1939.66,-167.2 1934.82,-172.26"/>
</a>
</g>
</g>
<!-- Node14 -->
<g id="Node000014" class="node">
<title>Node14</title>
<g id="a_Node000014"><a xlink:href="interfacecom_1_1runehive_1_1game_1_1world_1_1_interactable.html#a4fe2dfd0c67da8fd088077795154e218" target="_top" xlink:title=" ">
<ellipse fill="white" stroke="#666666" cx="1642.18" cy="-365.3" rx="110.49" ry="25.81"/>
<text xml:space="preserve" text-anchor="start" x="1572.06" y="-368.15" font-family="Helvetica,sans-Serif" font-size="12.00">com.runehive.game.world.</text>
<text xml:space="preserve" text-anchor="middle" x="1642.18" y="-353.9" font-family="Helvetica,sans-Serif" font-size="12.00">Interactable.getY</text>
</a>
</g>
</g>
<!-- Node3&#45;&gt;Node14 -->
<g id="edge26_Node000003_Node000014" class="edge">
<title>Node3&#45;&gt;Node14</title>
<g id="a_edge26_Node000003_Node000014"><a xlink:title=" ">
<path fill="none" stroke="#63b8ff" d="M1117.32,-378.47C1230.59,-375.62 1404.57,-371.25 1520.57,-368.33"/>
<polygon fill="#63b8ff" stroke="#63b8ff" points="1520.53,-371.84 1530.44,-368.09 1520.36,-364.84 1520.53,-371.84"/>
</a>
</g>
</g>
<!-- Node15 -->
<g id="Node000015" class="node">
<title>Node15</title>
<g id="a_Node000015"><a xlink:href="classcom_1_1runehive_1_1game_1_1world_1_1position_1_1_position.html#a55498d0fafce9fdeedca16984d79aee5" target="_top" xlink:title="Gets the absolute y coordinate.">
<ellipse fill="white" stroke="#666666" cx="1971.28" cy="-311.3" rx="142.31" ry="25.81"/>
<text xml:space="preserve" text-anchor="start" x="1878.65" y="-314.15" font-family="Helvetica,sans-Serif" font-size="12.00">com.runehive.game.world.position.</text>
<text xml:space="preserve" text-anchor="middle" x="1971.28" y="-299.9" font-family="Helvetica,sans-Serif" font-size="12.00">Position.getY</text>
</a>
</g>
</g>
<!-- Node3&#45;&gt;Node15 -->
<g id="edge27_Node000003_Node000015" class="edge">
<title>Node3&#45;&gt;Node15</title>
<g id="a_edge27_Node000003_Node000015"><a xlink:title=" ">
<path fill="none" stroke="#63b8ff" d="M1015.28,-355.33C1035.03,-311.15 1081.96,-222.69 1153.81,-187.3 1281.42,-124.46 1656.43,-182.41 1792.97,-222.3 1805.6,-225.99 1866.31,-256.98 1913.21,-281.37"/>
<polygon fill="#63b8ff" stroke="#63b8ff" points="1911.46,-284.4 1921.95,-285.92 1914.7,-278.19 1911.46,-284.4"/>
</a>
</g>
</g>
<!-- Node16 -->
<g id="Node000016" class="node">
<title>Node16</title>
<g id="a_Node000016"><a xlink:href="interfacecom_1_1runehive_1_1game_1_1world_1_1_interactable.html#a9513e5e63159a738b417ceba87cd1de8" target="_top" xlink:title=" ">
<ellipse fill="white" stroke="#666666" cx="1642.18" cy="-473.3" rx="110.49" ry="25.81"/>
<text xml:space="preserve" text-anchor="start" x="1572.06" y="-476.15" font-family="Helvetica,sans-Serif" font-size="12.00">com.runehive.game.world.</text>
<text xml:space="preserve" text-anchor="middle" x="1642.18" y="-461.9" font-family="Helvetica,sans-Serif" font-size="12.00">Interactable.length</text>
</a>
</g>
</g>
<!-- Node3&#45;&gt;Node16 -->
<g id="edge28_Node000003_Node000016" class="edge">
<title>Node3&#45;&gt;Node16</title>
<g id="a_edge28_Node000003_Node000016"><a xlink:title=" ">
<path fill="none" stroke="#63b8ff" d="M1035.49,-406.49C1064.17,-428.15 1109.07,-457.82 1153.81,-470.3 1281.93,-506.04 1436.47,-499.02 1536.67,-488.28"/>
<polygon fill="#63b8ff" stroke="#63b8ff" points="1536.95,-491.77 1546.51,-487.19 1536.18,-484.81 1536.95,-491.77"/>
</a>
</g>
</g>
<!-- Node17 -->
<g id="Node000017" class="node">
<title>Node17</title>
<g id="a_Node000017"><a xlink:href="classcom_1_1runehive_1_1game_1_1world_1_1position_1_1_position.html#a92154563715ed156b00ee6220e2991ff" target="_top" xlink:title="Creates a new location based on this location.">
<ellipse fill="white" stroke="#666666" cx="1642.18" cy="-581.3" rx="142.31" ry="25.81"/>
<text xml:space="preserve" text-anchor="start" x="1549.56" y="-584.15" font-family="Helvetica,sans-Serif" font-size="12.00">com.runehive.game.world.position.</text>
<text xml:space="preserve" text-anchor="middle" x="1642.18" y="-569.9" font-family="Helvetica,sans-Serif" font-size="12.00">Position.transform</text>
</a>
</g>
</g>
<!-- Node3&#45;&gt;Node17 -->
<g id="edge29_Node000003_Node000017" class="edge">
<title>Node3&#45;&gt;Node17</title>
<g id="a_edge29_Node000003_Node000017"><a xlink:title=" ">
<path fill="none" stroke="#63b8ff" d="M1019.79,-407.05C1043.25,-444.13 1092.11,-511.42 1153.81,-541.3 1211,-569.01 1367.97,-577.99 1488.46,-580.67"/>
<polygon fill="#63b8ff" stroke="#63b8ff" points="1488.05,-584.16 1498.12,-580.87 1488.19,-577.16 1488.05,-584.16"/>
</a>
</g>
</g>
<!-- Node3&#45;&gt;Node18 -->
<g id="edge30_Node000003_Node000018" class="edge">
<title>Node3&#45;&gt;Node18</title>
<g id="a_edge30_Node000003_Node000018"><a xlink:title=" ">
<path fill="none" stroke="#63b8ff" d="M1012.81,-355.32C1029.97,-305.77 1074.75,-198.55 1153.81,-151.3 1213.48,-115.65 1396.25,-109.24 1520.21,-109.25"/>
<polygon fill="#63b8ff" stroke="#63b8ff" points="1520.12,-112.75 1530.12,-109.27 1520.13,-105.75 1520.12,-112.75"/>
</a>
</g>
</g>
<!-- Node5 -->
<g id="Node000005" class="node">
<title>Node5</title>
<g id="a_Node000005"><a xlink:href="classcom_1_1runehive_1_1game_1_1world_1_1position_1_1_position.html#a7803ff05a7b4b99d2883898ade9427f7" target="_top" xlink:title="Creates a location with a default height of 0.">
<ellipse fill="white" stroke="#666666" cx="1971.28" cy="-681.3" rx="142.31" ry="25.81"/>
<text xml:space="preserve" text-anchor="start" x="1878.65" y="-684.15" font-family="Helvetica,sans-Serif" font-size="12.00">com.runehive.game.world.position.</text>
<text xml:space="preserve" text-anchor="middle" x="1971.28" y="-669.9" font-family="Helvetica,sans-Serif" font-size="12.00">Position.Position</text>
</a>
</g>
</g>
<!-- Node4&#45;&gt;Node5 -->
<g id="edge4_Node000004_Node000005" class="edge">
<title>Node4&#45;&gt;Node5</title>
<g id="a_edge4_Node000004_Node000005"><a xlink:title=" ">
<path fill="none" stroke="#63b8ff" d="M1447.17,-689.25C1544.44,-689.02 1676.54,-688.3 1792.97,-686.3 1801.52,-686.16 1810.31,-685.98 1819.17,-685.79"/>
<polygon fill="#63b8ff" stroke="#63b8ff" points="1819,-689.29 1828.92,-685.57 1818.84,-682.3 1819,-689.29"/>
</a>
</g>
</g>
<!-- Node7 -->
<g id="Node000007" class="node">
<title>Node7</title>
<g id="a_Node000007"><a xlink:href="enumcom_1_1runehive_1_1game_1_1world_1_1entity_1_1mob_1_1_direction.html#a8b0c9cd92772067ca662f10b70a6a487" target="_top" xlink:title=" ">
<ellipse fill="white" stroke="#666666" cx="1642.18" cy="-651.3" rx="150.79" ry="25.81"/>
<text xml:space="preserve" text-anchor="start" x="1543.56" y="-654.15" font-family="Helvetica,sans-Serif" font-size="12.00">com.runehive.game.world.entity.mob.</text>
<text xml:space="preserve" text-anchor="middle" x="1642.18" y="-639.9" font-family="Helvetica,sans-Serif" font-size="12.00">Direction.Direction</text>
</a>
</g>
</g>
<!-- Node6&#45;&gt;Node7 -->
<g id="edge6_Node000006_Node000007" class="edge">
<title>Node6&#45;&gt;Node7</title>
<g id="a_edge6_Node000006_Node000007"><a xlink:title=" ">
<path fill="none" stroke="#63b8ff" d="M1437.27,-631.86C1457.16,-633.76 1477.77,-635.72 1497.89,-637.64"/>
<polygon fill="#63b8ff" stroke="#63b8ff" points="1497.55,-641.12 1507.84,-638.59 1498.21,-634.15 1497.55,-641.12"/>
</a>
</g>
</g>
<!-- Node10&#45;&gt;Node11 -->
<g id="edge10_Node000010_Node000011" class="edge">
<title>Node10&#45;&gt;Node11</title>
<g id="a_edge10_Node000010_Node000011"><a xlink:title=" ">
<path fill="none" stroke="#63b8ff" d="M1409.13,-266.9C1426.1,-272.35 1442.37,-280.43 1455.39,-292.3 1492.78,-326.39 1450.94,-369.91 1491.39,-400.3 1546.79,-441.92 1732.8,-437.43 1856.03,-429.21"/>
<polygon fill="#63b8ff" stroke="#63b8ff" points="1856.13,-432.71 1865.87,-428.53 1855.65,-425.73 1856.13,-432.71"/>
</a>
</g>
</g>
<!-- Node10&#45;&gt;Node12 -->
<g id="edge11_Node000010_Node000012" class="edge">
<title>Node10&#45;&gt;Node12</title>
<g id="a_edge11_Node000010_Node000012"><a xlink:title=" ">
<path fill="none" stroke="#63b8ff" d="M1416.88,-257.3C1449.96,-257.3 1486.36,-257.3 1520.04,-257.3"/>
<polygon fill="#63b8ff" stroke="#63b8ff" points="1519.84,-260.8 1529.84,-257.3 1519.84,-253.8 1519.84,-260.8"/>
</a>
</g>
</g>
<!-- Node10&#45;&gt;Node13 -->
<g id="edge14_Node000010_Node000013" class="edge">
<title>Node10&#45;&gt;Node13</title>
<g id="a_edge14_Node000010_Node000013"><a xlink:title=" ">
<path fill="none" stroke="#63b8ff" d="M1386.6,-239.37C1419.03,-232.9 1456.82,-226.22 1491.39,-222.3 1599.93,-209.99 1723.1,-205.31 1817.34,-203.67"/>
<polygon fill="#63b8ff" stroke="#63b8ff" points="1817.23,-207.18 1827.17,-203.51 1817.12,-200.18 1817.23,-207.18"/>
</a>
</g>
</g>
<!-- Node10&#45;&gt;Node14 -->
<g id="edge15_Node000010_Node000014" class="edge">
<title>Node10&#45;&gt;Node14</title>
<g id="a_edge15_Node000010_Node000014"><a xlink:title=" ">
<path fill="none" stroke="#63b8ff" d="M1399.37,-271.44C1418.56,-276.44 1438.15,-283.2 1455.39,-292.3 1474.59,-302.44 1472.36,-314.87 1491.39,-325.3 1507.22,-333.98 1525.04,-340.86 1542.72,-346.28"/>
<polygon fill="#63b8ff" stroke="#63b8ff" points="1541.66,-349.62 1552.24,-349.05 1543.62,-342.9 1541.66,-349.62"/>
</a>
</g>
</g>
<!-- Node10&#45;&gt;Node15 -->
<g id="edge18_Node000010_Node000015" class="edge">
<title>Node10&#45;&gt;Node15</title>
<g id="a_edge18_Node000010_Node000015"><a xlink:title=" ">
<path fill="none" stroke="#63b8ff" d="M1386.6,-275.23C1419.03,-281.71 1456.82,-288.38 1491.39,-292.3 1599.93,-304.61 1723.1,-309.29 1817.34,-310.93"/>
<polygon fill="#63b8ff" stroke="#63b8ff" points="1817.12,-314.43 1827.17,-311.09 1817.23,-307.43 1817.12,-314.43"/>
</a>
</g>
</g>
<!-- Node10&#45;&gt;Node16 -->
<g id="edge19_Node000010_Node000016" class="edge">
<title>Node10&#45;&gt;Node16</title>
<g id="a_edge19_Node000010_Node000016"><a xlink:title=" ">
<path fill="none" stroke="#63b8ff" d="M1410.24,-266.27C1426.99,-271.79 1442.9,-280.06 1455.39,-292.3 1501.59,-337.57 1445.91,-387.32 1491.39,-433.3 1502.36,-444.39 1516.03,-452.51 1530.63,-458.43"/>
<polygon fill="#63b8ff" stroke="#63b8ff" points="1529.38,-461.7 1539.97,-461.85 1531.78,-455.13 1529.38,-461.7"/>
</a>
</g>
</g>
<!-- Node10&#45;&gt;Node17 -->
<g id="edge20_Node000010_Node000017" class="edge">
<title>Node10&#45;&gt;Node17</title>
<g id="a_edge20_Node000010_Node000017"><a xlink:title=" ">
<path fill="none" stroke="#63b8ff" d="M1411.5,-265.53C1428.02,-271.15 1443.52,-279.64 1455.39,-292.3 1521.96,-363.3 1433.17,-430.31 1491.39,-508.3 1506.77,-528.9 1529.51,-543.99 1552.66,-554.92"/>
<polygon fill="#63b8ff" stroke="#63b8ff" points="1551,-558.02 1561.56,-558.89 1553.85,-551.62 1551,-558.02"/>
</a>
</g>
</g>
<!-- Node10&#45;&gt;Node18 -->
<g id="edge22_Node000010_Node000018" class="edge">
<title>Node10&#45;&gt;Node18</title>
<g id="a_edge22_Node000010_Node000018"><a xlink:title=" ">
<path fill="none" stroke="#63b8ff" d="M1358.41,-234.33C1417.94,-208.43 1514.69,-166.34 1578.14,-138.73"/>
<polygon fill="#63b8ff" stroke="#63b8ff" points="1579.25,-142.07 1587.02,-134.87 1576.46,-135.65 1579.25,-142.07"/>
</a>
</g>
</g>
<!-- Node12&#45;&gt;Node11 -->
<g id="edge12_Node000012_Node000011" class="edge">
<title>Node12&#45;&gt;Node11</title>
<g id="a_edge12_Node000012_Node000011"><a xlink:title=" ">
<path fill="none" stroke="#63b8ff" d="M1691.82,-280.83C1721.16,-295.07 1759.26,-313.63 1792.97,-330.3 1833.44,-350.32 1878.94,-373.17 1913.72,-390.7"/>
<polygon fill="#63b8ff" stroke="#63b8ff" points="1911.83,-393.67 1922.34,-395.05 1914.99,-387.42 1911.83,-393.67"/>
</a>
</g>
</g>
<!-- Node12&#45;&gt;Node13 -->
<g id="edge13_Node000012_Node000013" class="edge">
<title>Node12&#45;&gt;Node13</title>
<g id="a_edge13_Node000012_Node000013"><a xlink:title=" ">
<path fill="none" stroke="#63b8ff" d="M1733.43,-242.4C1770.51,-236.28 1813.93,-229.11 1853.4,-222.6"/>
<polygon fill="#63b8ff" stroke="#63b8ff" points="1853.9,-226.06 1863.19,-220.98 1852.76,-219.16 1853.9,-226.06"/>
</a>
</g>
</g>
<!-- Node14&#45;&gt;Node11 -->
<g id="edge16_Node000014_Node000011" class="edge">
<title>Node14&#45;&gt;Node11</title>
<g id="a_edge16_Node000014_Node000011"><a xlink:title=" ">
<path fill="none" stroke="#63b8ff" d="M1733.43,-380.2C1775.44,-387.14 1825.59,-395.42 1868.9,-402.57"/>
<polygon fill="#63b8ff" stroke="#63b8ff" points="1868.11,-405.98 1878.55,-404.16 1869.25,-399.08 1868.11,-405.98"/>
</a>
</g>
</g>
<!-- Node14&#45;&gt;Node15 -->
<g id="edge17_Node000014_Node000015" class="edge">
<title>Node14&#45;&gt;Node15</title>
<g id="a_edge17_Node000014_Node000015"><a xlink:title=" ">
<path fill="none" stroke="#63b8ff" d="M1733.43,-350.4C1770.51,-344.28 1813.93,-337.11 1853.4,-330.6"/>
<polygon fill="#63b8ff" stroke="#63b8ff" points="1853.9,-334.06 1863.19,-328.98 1852.76,-327.16 1853.9,-334.06"/>
</a>
</g>
</g>
<!-- Node17&#45;&gt;Node5 -->
<g id="edge21_Node000017_Node000005" class="edge">
<title>Node17&#45;&gt;Node5</title>
<g id="a_edge21_Node000017_Node000005"><a xlink:title=" ">
<path fill="none" stroke="#63b8ff" d="M1735.94,-601.12C1754.92,-605.69 1774.68,-610.83 1792.97,-616.3 1828.81,-627.02 1867.93,-641.09 1900.28,-653.41"/>
<polygon fill="#63b8ff" stroke="#63b8ff" points="1898.97,-656.65 1909.56,-656.96 1901.48,-650.12 1898.97,-656.65"/>
</a>
</g>
</g>
</g>
</svg>
