<?xml version="1.0" encoding="UTF-8" standalone="no"?>
<!DOCTYPE svg PUBLIC "-//W3C//DTD SVG 1.1//EN"
 "http://www.w3.org/Graphics/SVG/1.1/DTD/svg11.dtd">
<!-- Generated by graphviz version 14.0.1 (20251006.0113)
 -->
<!-- Title: com.runehive.game.world.entity.mob.npc.definition.NpcDefinition.createParser Pages: 1 -->
<svg width="1897pt" height="596pt"
 viewBox="0.00 0.00 1897.00 596.00" xmlns="http://www.w3.org/2000/svg" xmlns:xlink="http://www.w3.org/1999/xlink">
<g id="graph0" class="graph" transform="scale(1 1) rotate(0) translate(4 591.62)">
<title>com.runehive.game.world.entity.mob.npc.definition.NpcDefinition.createParser</title>
<!-- Node1 -->
<g id="Node000001" class="node">
<title>Node1</title>
<g id="a_Node000001"><a xlink:title=" ">
<ellipse fill="#999999" stroke="#666666" cx="203.29" cy="-305.81" rx="203.29" ry="25.81"/>
<text xml:space="preserve" text-anchor="start" x="67.54" y="-308.66" font-family="Helvetica,sans-Serif" font-size="12.00">com.runehive.game.world.entity.mob.npc.definition.</text>
<text xml:space="preserve" text-anchor="middle" x="203.29" y="-294.41" font-family="Helvetica,sans-Serif" font-size="12.00">NpcDefinition.createParser</text>
</a>
</g>
</g>
<!-- Node2 -->
<g id="Node000002" class="node">
<title>Node2</title>
<g id="a_Node000002"><a xlink:href="classcom_1_1runehive_1_1fs_1_1cache_1_1decoder_1_1_cache_npc_definition.html#a21444151f4881d3ad0e85eb7939fd9f5" target="_top" xlink:title=" ">
<ellipse fill="white" stroke="#666666" cx="645.88" cy="-340.81" rx="130.11" ry="25.81"/>
<text xml:space="preserve" text-anchor="start" x="561.88" y="-343.66" font-family="Helvetica,sans-Serif" font-size="12.00">com.runehive.fs.cache.decoder.</text>
<text xml:space="preserve" text-anchor="middle" x="645.88" y="-329.41" font-family="Helvetica,sans-Serif" font-size="12.00">CacheNpcDefinition.lookup</text>
</a>
</g>
</g>
<!-- Node1&#45;&gt;Node2 -->
<g id="edge1_Node000001_Node000002" class="edge">
<title>Node1&#45;&gt;Node2</title>
<g id="a_edge1_Node000001_Node000002"><a xlink:title=" ">
<path fill="none" stroke="#63b8ff" d="M376.84,-319.52C422.13,-323.11 470.24,-326.94 513.01,-330.33"/>
<polygon fill="#63b8ff" stroke="#63b8ff" points="512.59,-333.81 522.84,-331.11 513.15,-326.83 512.59,-333.81"/>
</a>
</g>
</g>
<!-- Node17 -->
<g id="Node000017" class="node">
<title>Node17</title>
<g id="a_Node000017"><a xlink:href="classcom_1_1runehive_1_1game_1_1world_1_1entity_1_1mob_1_1npc_1_1definition_1_1_npc_definition.html#ae9d3f563077e84c47f706b986bf6b870" target="_top" xlink:title=" ">
<ellipse fill="white" stroke="#666666" cx="645.88" cy="-270.81" rx="203.29" ry="25.81"/>
<text xml:space="preserve" text-anchor="start" x="510.13" y="-273.66" font-family="Helvetica,sans-Serif" font-size="12.00">com.runehive.game.world.entity.mob.npc.definition.</text>
<text xml:space="preserve" text-anchor="middle" x="645.88" y="-259.41" font-family="Helvetica,sans-Serif" font-size="12.00">NpcDefinition.NpcDefinition</text>
</a>
</g>
</g>
<!-- Node1&#45;&gt;Node17 -->
<g id="edge20_Node000001_Node000017" class="edge">
<title>Node1&#45;&gt;Node17</title>
<g id="a_edge20_Node000001_Node000017"><a xlink:title=" ">
<path fill="none" stroke="#63b8ff" d="M376.84,-292.1C404.4,-289.91 433.01,-287.64 460.83,-285.43"/>
<polygon fill="#63b8ff" stroke="#63b8ff" points="461.08,-288.92 470.77,-284.64 460.52,-281.94 461.08,-288.92"/>
</a>
</g>
</g>
<!-- Node3 -->
<g id="Node000003" class="node">
<title>Node3</title>
<g id="a_Node000003"><a xlink:href="classcom_1_1runehive_1_1fs_1_1cache_1_1decoder_1_1_cache_npc_definition.html#a3dc047ae1f31c3c54fd134a2dbddfb28" target="_top" xlink:title=" ">
<ellipse fill="white" stroke="#666666" cx="1051.34" cy="-375.81" rx="166.17" ry="25.81"/>
<text xml:space="preserve" text-anchor="start" x="941.84" y="-378.66" font-family="Helvetica,sans-Serif" font-size="12.00">com.runehive.fs.cache.decoder.</text>
<text xml:space="preserve" text-anchor="middle" x="1051.34" y="-364.41" font-family="Helvetica,sans-Serif" font-size="12.00">CacheNpcDefinition.CacheNpcDefinition</text>
</a>
</g>
</g>
<!-- Node2&#45;&gt;Node3 -->
<g id="edge2_Node000002_Node000003" class="edge">
<title>Node2&#45;&gt;Node3</title>
<g id="a_edge2_Node000002_Node000003"><a xlink:title=" ">
<path fill="none" stroke="#63b8ff" d="M765.75,-351.12C805.86,-354.6 851.27,-358.54 893.84,-362.23"/>
<polygon fill="#63b8ff" stroke="#63b8ff" points="893.41,-365.71 903.67,-363.09 894.01,-358.73 893.41,-365.71"/>
</a>
</g>
</g>
<!-- Node4 -->
<g id="Node000004" class="node">
<title>Node4</title>
<g id="a_Node000004"><a xlink:href="classcom_1_1runehive_1_1fs_1_1cache_1_1decoder_1_1_cache_npc_definition.html#abce9e800e4d526cb60f59843565f24a3" target="_top" xlink:title=" ">
<ellipse fill="white" stroke="#666666" cx="1051.34" cy="-305.81" rx="130.11" ry="25.81"/>
<text xml:space="preserve" text-anchor="start" x="967.34" y="-308.66" font-family="Helvetica,sans-Serif" font-size="12.00">com.runehive.fs.cache.decoder.</text>
<text xml:space="preserve" text-anchor="middle" x="1051.34" y="-294.41" font-family="Helvetica,sans-Serif" font-size="12.00">CacheNpcDefinition.decode</text>
</a>
</g>
</g>
<!-- Node2&#45;&gt;Node4 -->
<g id="edge3_Node000002_Node000004" class="edge">
<title>Node2&#45;&gt;Node4</title>
<g id="a_edge3_Node000002_Node000004"><a xlink:title=" ">
<path fill="none" stroke="#63b8ff" d="M765.75,-330.5C814.16,-326.3 870.28,-321.43 919.83,-317.13"/>
<polygon fill="#63b8ff" stroke="#63b8ff" points="920.11,-320.62 929.77,-316.27 919.5,-313.65 920.11,-320.62"/>
</a>
</g>
</g>
<!-- Node5 -->
<g id="Node000005" class="node">
<title>Node5</title>
<g id="a_Node000005"><a xlink:href="classcom_1_1runehive_1_1fs_1_1cache_1_1decoder_1_1_buffer.html#aaec16ae77955405c51e4923779d637bf" target="_top" xlink:title=" ">
<ellipse fill="white" stroke="#666666" cx="1423.4" cy="-483.81" rx="130.11" ry="25.81"/>
<text xml:space="preserve" text-anchor="start" x="1339.4" y="-486.66" font-family="Helvetica,sans-Serif" font-size="12.00">com.runehive.fs.cache.decoder.</text>
<text xml:space="preserve" text-anchor="middle" x="1423.4" y="-472.41" font-family="Helvetica,sans-Serif" font-size="12.00">Buffer.readBigSmart2</text>
</a>
</g>
</g>
<!-- Node4&#45;&gt;Node5 -->
<g id="edge4_Node000004_Node000005" class="edge">
<title>Node4&#45;&gt;Node5</title>
<g id="a_edge4_Node000004_Node000005"><a xlink:title=" ">
<path fill="none" stroke="#63b8ff" d="M1172.32,-315.62C1188.89,-321.22 1204.61,-329.29 1217.51,-340.81 1255.25,-374.51 1215.7,-415.19 1253.51,-448.81 1264.3,-458.4 1277.02,-465.62 1290.55,-471.02"/>
<polygon fill="#63b8ff" stroke="#63b8ff" points="1289.02,-474.19 1299.62,-474.29 1291.4,-467.61 1289.02,-474.19"/>
</a>
</g>
</g>
<!-- Node8 -->
<g id="Node000008" class="node">
<title>Node8</title>
<g id="a_Node000008"><a xlink:href="classcom_1_1runehive_1_1fs_1_1cache_1_1decoder_1_1_buffer.html#aa913740e120d65fd11af59b5077663d6" target="_top" xlink:title=" ">
<ellipse fill="white" stroke="#666666" cx="1759.39" cy="-491.81" rx="130.11" ry="25.81"/>
<text xml:space="preserve" text-anchor="start" x="1675.39" y="-494.66" font-family="Helvetica,sans-Serif" font-size="12.00">com.runehive.fs.cache.decoder.</text>
<text xml:space="preserve" text-anchor="middle" x="1759.39" y="-480.41" font-family="Helvetica,sans-Serif" font-size="12.00">Buffer.readUnsignedShort</text>
</a>
</g>
</g>
<!-- Node4&#45;&gt;Node8 -->
<g id="edge14_Node000004_Node000008" class="edge">
<title>Node4&#45;&gt;Node8</title>
<g id="a_edge14_Node000004_Node000008"><a xlink:title=" ">
<path fill="none" stroke="#63b8ff" d="M1174.45,-314.56C1190.53,-320.33 1205.55,-328.73 1217.51,-340.81 1274.32,-398.15 1191.04,-467.71 1253.51,-518.81 1313.05,-567.51 1527.71,-536.87 1657.18,-512.7"/>
<polygon fill="#63b8ff" stroke="#63b8ff" points="1657.62,-516.18 1666.79,-510.89 1656.32,-509.3 1657.62,-516.18"/>
</a>
</g>
</g>
<!-- Node9 -->
<g id="Node000009" class="node">
<title>Node9</title>
<g id="a_Node000009"><a xlink:href="classcom_1_1runehive_1_1fs_1_1cache_1_1decoder_1_1_buffer.html#adccd5f72ec13d8e8b439e0d2f293c5d4" target="_top" xlink:title=" ">
<ellipse fill="white" stroke="#666666" cx="1423.4" cy="-305.81" rx="130.11" ry="25.81"/>
<text xml:space="preserve" text-anchor="start" x="1339.4" y="-308.66" font-family="Helvetica,sans-Serif" font-size="12.00">com.runehive.fs.cache.decoder.</text>
<text xml:space="preserve" text-anchor="middle" x="1423.4" y="-294.41" font-family="Helvetica,sans-Serif" font-size="12.00">Buffer.readBytes</text>
</a>
</g>
</g>
<!-- Node4&#45;&gt;Node9 -->
<g id="edge8_Node000004_Node000009" class="edge">
<title>Node4&#45;&gt;Node9</title>
<g id="a_edge8_Node000004_Node000009"><a xlink:title=" ">
<path fill="none" stroke="#63b8ff" d="M1181.77,-305.81C1214.02,-305.81 1248.76,-305.81 1281.54,-305.81"/>
<polygon fill="#63b8ff" stroke="#63b8ff" points="1281.53,-309.31 1291.53,-305.81 1281.53,-302.31 1281.53,-309.31"/>
</a>
</g>
</g>
<!-- Node10 -->
<g id="Node000010" class="node">
<title>Node10</title>
<g id="a_Node000010"><a xlink:href="classcom_1_1runehive_1_1fs_1_1cache_1_1decoder_1_1_buffer.html#a84871f91eb241f66fb3ae61064995ff1" target="_top" xlink:title=" ">
<ellipse fill="white" stroke="#666666" cx="1423.4" cy="-235.81" rx="130.11" ry="25.81"/>
<text xml:space="preserve" text-anchor="start" x="1339.4" y="-238.66" font-family="Helvetica,sans-Serif" font-size="12.00">com.runehive.fs.cache.decoder.</text>
<text xml:space="preserve" text-anchor="middle" x="1423.4" y="-224.41" font-family="Helvetica,sans-Serif" font-size="12.00">Buffer.readSignedByte</text>
</a>
</g>
</g>
<!-- Node4&#45;&gt;Node10 -->
<g id="edge9_Node000004_Node000010" class="edge">
<title>Node4&#45;&gt;Node10</title>
<g id="a_edge9_Node000004_Node000010"><a xlink:title=" ">
<path fill="none" stroke="#63b8ff" d="M1146.68,-287.96C1198.56,-278.15 1263.07,-265.95 1316.65,-255.81"/>
<polygon fill="#63b8ff" stroke="#63b8ff" points="1317.25,-259.26 1326.42,-253.96 1315.95,-252.38 1317.25,-259.26"/>
</a>
</g>
</g>
<!-- Node11 -->
<g id="Node000011" class="node">
<title>Node11</title>
<g id="a_Node000011"><a xlink:href="classcom_1_1runehive_1_1fs_1_1cache_1_1decoder_1_1_buffer.html#a05b6f9bbca3a0bf3f1a2623d8db18597" target="_top" xlink:title=" ">
<ellipse fill="white" stroke="#666666" cx="1423.4" cy="-165.81" rx="161.93" ry="25.81"/>
<text xml:space="preserve" text-anchor="start" x="1316.9" y="-168.66" font-family="Helvetica,sans-Serif" font-size="12.00">com.runehive.fs.cache.decoder.</text>
<text xml:space="preserve" text-anchor="middle" x="1423.4" y="-154.41" font-family="Helvetica,sans-Serif" font-size="12.00">Buffer.readStringCp1252NullTerminated</text>
</a>
</g>
</g>
<!-- Node4&#45;&gt;Node11 -->
<g id="edge10_Node000004_Node000011" class="edge">
<title>Node4&#45;&gt;Node11</title>
<g id="a_edge10_Node000004_Node000011"><a xlink:title=" ">
<path fill="none" stroke="#63b8ff" d="M1092.06,-280.85C1131.6,-257.04 1194.7,-221.79 1253.51,-200.81 1268.06,-195.62 1283.61,-191.1 1299.16,-187.19"/>
<polygon fill="#63b8ff" stroke="#63b8ff" points="1299.54,-190.7 1308.44,-184.94 1297.89,-183.89 1299.54,-190.7"/>
</a>
</g>
</g>
<!-- Node13 -->
<g id="Node000013" class="node">
<title>Node13</title>
<g id="a_Node000013"><a xlink:href="classcom_1_1runehive_1_1fs_1_1cache_1_1decoder_1_1_buffer.html#a2569ce7721aaef40dba5f6569ff8e746" target="_top" xlink:title=" ">
<ellipse fill="white" stroke="#666666" cx="1759.39" cy="-351.81" rx="130.11" ry="25.81"/>
<text xml:space="preserve" text-anchor="start" x="1675.39" y="-354.66" font-family="Helvetica,sans-Serif" font-size="12.00">com.runehive.fs.cache.decoder.</text>
<text xml:space="preserve" text-anchor="middle" x="1759.39" y="-340.41" font-family="Helvetica,sans-Serif" font-size="12.00">Buffer.readUnsignedByte</text>
</a>
</g>
</g>
<!-- Node4&#45;&gt;Node13 -->
<g id="edge12_Node000004_Node000013" class="edge">
<title>Node4&#45;&gt;Node13</title>
<g id="a_edge12_Node000004_Node000013"><a xlink:title=" ">
<path fill="none" stroke="#63b8ff" d="M1142.83,-324.53C1177.32,-330.88 1217.08,-337.26 1253.51,-340.81 1376.31,-352.76 1516.66,-354.9 1618.16,-354.4"/>
<polygon fill="#63b8ff" stroke="#63b8ff" points="1617.92,-357.9 1627.9,-354.34 1617.88,-350.9 1617.92,-357.9"/>
</a>
</g>
</g>
<!-- Node14 -->
<g id="Node000014" class="node">
<title>Node14</title>
<g id="a_Node000014"><a xlink:href="classcom_1_1runehive_1_1fs_1_1cache_1_1decoder_1_1_buffer.html#a8c0cb2707d12ffaea27f58327b67ad18" target="_top" xlink:title=" ">
<ellipse fill="white" stroke="#666666" cx="1423.4" cy="-95.81" rx="130.11" ry="25.81"/>
<text xml:space="preserve" text-anchor="start" x="1339.4" y="-98.66" font-family="Helvetica,sans-Serif" font-size="12.00">com.runehive.fs.cache.decoder.</text>
<text xml:space="preserve" text-anchor="middle" x="1423.4" y="-84.41" font-family="Helvetica,sans-Serif" font-size="12.00">Buffer.readUnsignedInt</text>
</a>
</g>
</g>
<!-- Node4&#45;&gt;Node14 -->
<g id="edge13_Node000004_Node000014" class="edge">
<title>Node4&#45;&gt;Node14</title>
<g id="a_edge13_Node000004_Node000014"><a xlink:title=" ">
<path fill="none" stroke="#63b8ff" d="M1073.85,-280.09C1107.81,-241.29 1177.82,-168.33 1253.51,-130.81 1268.7,-123.28 1285.42,-117.37 1302.27,-112.73"/>
<polygon fill="#63b8ff" stroke="#63b8ff" points="1303.07,-116.14 1311.87,-110.25 1301.31,-109.37 1303.07,-116.14"/>
</a>
</g>
</g>
<!-- Node15 -->
<g id="Node000015" class="node">
<title>Node15</title>
<g id="a_Node000015"><a xlink:href="classcom_1_1runehive_1_1fs_1_1cache_1_1decoder_1_1_buffer.html#ae4de491dd432dbf0bd92adfb3bbda73e" target="_top" xlink:title=" ">
<ellipse fill="white" stroke="#666666" cx="1423.4" cy="-413.81" rx="169.88" ry="25.81"/>
<text xml:space="preserve" text-anchor="start" x="1311.27" y="-416.66" font-family="Helvetica,sans-Serif" font-size="12.00">com.runehive.fs.cache.decoder.</text>
<text xml:space="preserve" text-anchor="middle" x="1423.4" y="-402.41" font-family="Helvetica,sans-Serif" font-size="12.00">Buffer.readUnsignedShortSmartMinusOne</text>
</a>
</g>
</g>
<!-- Node4&#45;&gt;Node15 -->
<g id="edge15_Node000004_Node000015" class="edge">
<title>Node4&#45;&gt;Node15</title>
<g id="a_edge15_Node000004_Node000015"><a xlink:title=" ">
<path fill="none" stroke="#63b8ff" d="M1160.51,-320.06C1180.12,-325.04 1199.92,-331.75 1217.51,-340.81 1236.81,-350.74 1234.33,-363.65 1253.51,-373.81 1266.8,-380.85 1281.32,-386.66 1296.09,-391.46"/>
<polygon fill="#63b8ff" stroke="#63b8ff" points="1294.84,-394.74 1305.42,-394.34 1296.9,-388.05 1294.84,-394.74"/>
</a>
</g>
</g>
<!-- Node16 -->
<g id="Node000016" class="node">
<title>Node16</title>
<g id="a_Node000016"><a xlink:href="classcom_1_1runehive_1_1fs_1_1cache_1_1decoder_1_1_buffer.html#ae3fc2efecc4a4bf9dba7996444c62a54" target="_top" xlink:title=" ">
<ellipse fill="white" stroke="#666666" cx="1423.4" cy="-25.81" rx="130.11" ry="25.81"/>
<text xml:space="preserve" text-anchor="start" x="1339.4" y="-28.66" font-family="Helvetica,sans-Serif" font-size="12.00">com.runehive.fs.cache.decoder.</text>
<text xml:space="preserve" text-anchor="middle" x="1423.4" y="-14.41" font-family="Helvetica,sans-Serif" font-size="12.00">Buffer.readUnsignedTriByte</text>
</a>
</g>
</g>
<!-- Node4&#45;&gt;Node16 -->
<g id="edge19_Node000004_Node000016" class="edge">
<title>Node4&#45;&gt;Node16</title>
<g id="a_edge19_Node000004_Node000016"><a xlink:title=" ">
<path fill="none" stroke="#63b8ff" d="M1065.73,-279.77C1093.38,-228.85 1161.91,-116.2 1253.51,-60.81 1267.15,-52.56 1282.41,-46.23 1298.04,-41.38"/>
<polygon fill="#63b8ff" stroke="#63b8ff" points="1298.81,-44.8 1307.45,-38.67 1296.87,-38.08 1298.81,-44.8"/>
</a>
</g>
</g>
<!-- Node6 -->
<g id="Node000006" class="node">
<title>Node6</title>
<g id="a_Node000006"><a xlink:href="classcom_1_1runehive_1_1fs_1_1cache_1_1decoder_1_1_buffer.html#a99f36525007deb9e811991d6fbd81b34" target="_top" xlink:title=" ">
<ellipse fill="white" stroke="#666666" cx="1759.39" cy="-421.81" rx="130.11" ry="25.81"/>
<text xml:space="preserve" text-anchor="start" x="1675.39" y="-424.66" font-family="Helvetica,sans-Serif" font-size="12.00">com.runehive.fs.cache.decoder.</text>
<text xml:space="preserve" text-anchor="middle" x="1759.39" y="-410.41" font-family="Helvetica,sans-Serif" font-size="12.00">Buffer.peek</text>
</a>
</g>
</g>
<!-- Node5&#45;&gt;Node6 -->
<g id="edge5_Node000005_Node000006" class="edge">
<title>Node5&#45;&gt;Node6</title>
<g id="a_edge5_Node000005_Node000006"><a xlink:title=" ">
<path fill="none" stroke="#63b8ff" d="M1519.66,-466.13C1560.9,-458.47 1609.34,-449.48 1651.78,-441.6"/>
<polygon fill="#63b8ff" stroke="#63b8ff" points="1652.32,-445.06 1661.51,-439.79 1651.04,-438.18 1652.32,-445.06"/>
</a>
</g>
</g>
<!-- Node7 -->
<g id="Node000007" class="node">
<title>Node7</title>
<g id="a_Node000007"><a xlink:href="classcom_1_1runehive_1_1fs_1_1cache_1_1decoder_1_1_buffer.html#a4fc2b56eb3318d4e6b7742289aeac7ac" target="_top" xlink:title=" ">
<ellipse fill="white" stroke="#666666" cx="1759.39" cy="-561.81" rx="130.11" ry="25.81"/>
<text xml:space="preserve" text-anchor="start" x="1675.39" y="-564.66" font-family="Helvetica,sans-Serif" font-size="12.00">com.runehive.fs.cache.decoder.</text>
<text xml:space="preserve" text-anchor="middle" x="1759.39" y="-550.41" font-family="Helvetica,sans-Serif" font-size="12.00">Buffer.readInt</text>
</a>
</g>
</g>
<!-- Node5&#45;&gt;Node7 -->
<g id="edge6_Node000005_Node000007" class="edge">
<title>Node5&#45;&gt;Node7</title>
<g id="a_edge6_Node000005_Node000007"><a xlink:title=" ">
<path fill="none" stroke="#63b8ff" d="M1509.11,-503.59C1555.9,-514.52 1614.19,-528.13 1662.63,-539.45"/>
<polygon fill="#63b8ff" stroke="#63b8ff" points="1661.76,-542.84 1672.29,-541.7 1663.35,-536.02 1661.76,-542.84"/>
</a>
</g>
</g>
<!-- Node5&#45;&gt;Node8 -->
<g id="edge7_Node000005_Node000008" class="edge">
<title>Node5&#45;&gt;Node8</title>
<g id="a_edge7_Node000005_Node000008"><a xlink:title=" ">
<path fill="none" stroke="#63b8ff" d="M1553.05,-486.89C1574.49,-487.4 1596.82,-487.94 1618.52,-488.46"/>
<polygon fill="#63b8ff" stroke="#63b8ff" points="1618.21,-491.95 1628.29,-488.69 1618.37,-484.95 1618.21,-491.95"/>
</a>
</g>
</g>
<!-- Node12 -->
<g id="Node000012" class="node">
<title>Node12</title>
<g id="a_Node000012"><a xlink:href="classcom_1_1runehive_1_1fs_1_1cache_1_1decoder_1_1_buffer.html#a7192141e3437c8190dddef4017769307" target="_top" xlink:title=" ">
<ellipse fill="white" stroke="#666666" cx="1759.39" cy="-165.81" rx="130.11" ry="25.81"/>
<text xml:space="preserve" text-anchor="start" x="1675.39" y="-168.66" font-family="Helvetica,sans-Serif" font-size="12.00">com.runehive.fs.cache.decoder.</text>
<text xml:space="preserve" text-anchor="middle" x="1759.39" y="-154.41" font-family="Helvetica,sans-Serif" font-size="12.00">Buffer.decodeStringCp1252</text>
</a>
</g>
</g>
<!-- Node11&#45;&gt;Node12 -->
<g id="edge11_Node000011_Node000012" class="edge">
<title>Node11&#45;&gt;Node12</title>
<g id="a_edge11_Node000011_Node000012"><a xlink:title=" ">
<path fill="none" stroke="#63b8ff" d="M1585.52,-165.81C1596.18,-165.81 1606.87,-165.81 1617.42,-165.81"/>
<polygon fill="#63b8ff" stroke="#63b8ff" points="1617.28,-169.31 1627.28,-165.81 1617.28,-162.31 1617.28,-169.31"/>
</a>
</g>
</g>
<!-- Node15&#45;&gt;Node6 -->
<g id="edge16_Node000015_Node000006" class="edge">
<title>Node15&#45;&gt;Node6</title>
<g id="a_edge16_Node000015_Node000006"><a xlink:title=" ">
<path fill="none" stroke="#63b8ff" d="M1591.39,-417.81C1600.45,-418.03 1609.51,-418.24 1618.46,-418.46"/>
<polygon fill="#63b8ff" stroke="#63b8ff" points="1618.14,-421.95 1628.22,-418.69 1618.31,-414.95 1618.14,-421.95"/>
</a>
</g>
</g>
<!-- Node15&#45;&gt;Node8 -->
<g id="edge18_Node000015_Node000008" class="edge">
<title>Node15&#45;&gt;Node8</title>
<g id="a_edge18_Node000015_Node000008"><a xlink:title=" ">
<path fill="none" stroke="#63b8ff" d="M1528.18,-434.46C1549.74,-438.99 1572.28,-443.9 1593.28,-448.81 1618.4,-454.68 1645.55,-461.54 1670.43,-468.02"/>
<polygon fill="#63b8ff" stroke="#63b8ff" points="1669.28,-471.34 1679.84,-470.49 1671.06,-464.57 1669.28,-471.34"/>
</a>
</g>
</g>
<!-- Node15&#45;&gt;Node13 -->
<g id="edge17_Node000015_Node000013" class="edge">
<title>Node15&#45;&gt;Node13</title>
<g id="a_edge17_Node000015_Node000013"><a xlink:title=" ">
<path fill="none" stroke="#63b8ff" d="M1532.83,-393.68C1571.06,-386.58 1613.97,-378.62 1652.02,-371.55"/>
<polygon fill="#63b8ff" stroke="#63b8ff" points="1652.46,-375.03 1661.65,-369.77 1651.18,-368.15 1652.46,-375.03"/>
</a>
</g>
</g>
</g>
</svg>
