<?xml version="1.0" encoding="UTF-8" standalone="no"?>
<!DOCTYPE svg PUBLIC "-//W3C//DTD SVG 1.1//EN"
 "http://www.w3.org/Graphics/SVG/1.1/DTD/svg11.dtd">
<!-- Generated by graphviz version 14.0.1 (20251006.0113)
 -->
<!-- Title: com.runehive.game.world.World.sendGraphic Pages: 1 -->
<!--zoomable 1220 -->

<svg id="main" version="1.1" xmlns="http://www.w3.org/2000/svg" xmlns:xlink="http://www.w3.org/1999/xlink" xml:space="preserve" onload="init(evt)">

<style type="text/css"><![CDATA[
.node, .edge {opacity: 0.7;}
.node.selected, .edge.selected {opacity: 1;}
.edge:hover path { stroke: red; }
.edge:hover polygon { stroke: red; fill: red; }
]]></style>

<defs>
  <circle id="rim" cx="0" cy="0" r="7"/>
  <circle id="rim2" cx="0" cy="0" r="3.5"/>
  <g id="zoomPlus">
    <use xlink:href="#rim" fill="#404040"><set attributeName="fill" to="#808080" begin="zoomplus.mouseover" end="zoomplus.mouseout"/></use>
    <path d="M-4,0h8M0,-4v8" fill="none" stroke="white" stroke-width="1.5" pointer-events="none"/>
  </g>
  <g id="zoomMin">
    <use xlink:href="#rim" fill="#404040"><set attributeName="fill" to="#808080" begin="zoomminus.mouseover" end="zoomminus.mouseout"/></use>
    <path d="M-4,0h8" fill="none" stroke="white" stroke-width="1.5" pointer-events="none"/>
  </g>
  <g id="arrowUp" transform="translate(30 24)">
    <use xlink:href="#rim"/>
    <path pointer-events="none" fill="none" stroke="white" stroke-width="1.5" d="M0,-3.0v7 M-2.5,-0.5L0,-3.0L2.5,-0.5"/>
  </g>
  <g id="arrowRight" transform="rotate(90) translate(36 -43)">
    <use xlink:href="#rim"/>
    <path pointer-events="none" fill="none" stroke="white" stroke-width="1.5" d="M0,-3.0v7 M-2.5,-0.5L0,-3.0L2.5,-0.5"/>
  </g>
  <g id="arrowDown" transform="rotate(180) translate(-30 -48)">
    <use xlink:href="#rim"/>
    <path pointer-events="none" fill="none" stroke="white" stroke-width="1.5" d="M0,-3.0v7 M-2.5,-0.5L0,-3.0L2.5,-0.5"/>
  </g>
  <g id="arrowLeft" transform="rotate(270) translate(-36 17)">
    <use xlink:href="#rim"/>
    <path pointer-events="none" fill="none" stroke="white" stroke-width="1.5" d="M0,-3.0v7 M-2.5,-0.5L0,-3.0L2.5,-0.5"/>
  </g>
  <g id="resetDef">
    <use xlink:href="#rim2" fill="#404040"><set attributeName="fill" to="#808080" begin="reset.mouseover" end="reset.mouseout"/></use>
  </g>
</defs>
<script type="application/ecmascript">
var viewWidth = 1803;
var viewHeight = 1220;
var sectionId = 'dynsection-44';
</script>
<script type="application/ecmascript" xlink:href="svg.min.js"/>
<svg id="graph" class="graph">
<g id="viewport">
<title>com.runehive.game.world.World.sendGraphic</title>
<!-- Node1 -->
<g id="Node000001" class="node">
<title>Node1</title>
<g id="a_Node000001"><a xlink:title="Sends a graphic to the world.">
<ellipse fill="#999999" stroke="#666666" cx="1684.32" cy="-569.81" rx="110.49" ry="25.81"/>
<text xml:space="preserve" text-anchor="start" x="1614.19" y="-572.66" font-family="Helvetica,sans-Serif" font-size="12.00">com.runehive.game.world.</text>
<text xml:space="preserve" text-anchor="middle" x="1684.32" y="-558.41" font-family="Helvetica,sans-Serif" font-size="12.00">World.sendGraphic</text>
</a>
</g>
</g>
<!-- Node2 -->
<g id="Node000002" class="node">
<title>Node2</title>
<g id="a_Node000002"><a xlink:href="classcom_1_1runehive_1_1game_1_1world_1_1entity_1_1combat_1_1strategy_1_1npc_1_1boss_1_1magearena_1_1_justiciar.html#a34b237b635c15aabd8db92426f9595e6" target="_top" xlink:title=" ">
<ellipse fill="white" stroke="#666666" cx="1263.47" cy="-1185.81" rx="274.36" ry="25.81"/>
<text xml:space="preserve" text-anchor="start" x="1077.47" y="-1188.66" font-family="Helvetica,sans-Serif" font-size="12.00">com.runehive.game.world.entity.combat.strategy.npc.boss.magearena.</text>
<text xml:space="preserve" text-anchor="middle" x="1263.47" y="-1174.41" font-family="Helvetica,sans-Serif" font-size="12.00">Justiciar.block</text>
</a>
</g>
</g>
<!-- Node1&#45;&gt;Node2 -->
<g id="edge1_Node000001_Node000002" class="edge">
<title>Node1&#45;&gt;Node2</title>
<g id="a_edge1_Node000001_Node000002"><a xlink:title=" ">
<path fill="none" stroke="#63b8ff" d="M1679.42,-606.96C1666.44,-723.3 1620.69,-1077.2 1537.83,-1150.81 1527.73,-1159.79 1516.52,-1167.21 1504.59,-1173.31"/>
<polygon fill="#63b8ff" stroke="#63b8ff" points="1682.87,-607.66 1680.48,-597.34 1675.91,-606.9 1682.87,-607.66"/>
</a>
</g>
</g>
<!-- Node3 -->
<g id="Node000003" class="node">
<title>Node3</title>
<g id="a_Node000003"><a xlink:href="classcom_1_1runehive_1_1game_1_1world_1_1entity_1_1combat_1_1strategy_1_1npc_1_1boss_1_1magearena_1_1_porazdir.html#a2a4be0318dd81301a119d4595aeb09a8" target="_top" xlink:title=" ">
<ellipse fill="white" stroke="#666666" cx="1263.47" cy="-1115.81" rx="274.36" ry="25.81"/>
<text xml:space="preserve" text-anchor="start" x="1077.47" y="-1118.66" font-family="Helvetica,sans-Serif" font-size="12.00">com.runehive.game.world.entity.combat.strategy.npc.boss.magearena.</text>
<text xml:space="preserve" text-anchor="middle" x="1263.47" y="-1104.41" font-family="Helvetica,sans-Serif" font-size="12.00">Porazdir.block</text>
</a>
</g>
</g>
<!-- Node1&#45;&gt;Node3 -->
<g id="edge2_Node000001_Node000003" class="edge">
<title>Node1&#45;&gt;Node3</title>
<g id="a_edge2_Node000001_Node000003"><a xlink:title=" ">
<path fill="none" stroke="#63b8ff" d="M1678.05,-607.07C1662.18,-713.9 1611.3,-1017.61 1537.83,-1080.81 1527.49,-1089.7 1516.07,-1097.05 1503.93,-1103.08"/>
<polygon fill="#63b8ff" stroke="#63b8ff" points="1681.48,-607.81 1679.47,-597.41 1674.56,-606.79 1681.48,-607.81"/>
</a>
</g>
</g>
<!-- Node4 -->
<g id="Node000004" class="node">
<title>Node4</title>
<g id="a_Node000004"><a xlink:href="classcom_1_1runehive_1_1game_1_1world_1_1entity_1_1combat_1_1strategy_1_1npc_1_1boss_1_1_vorkath_1_1_venom_special.html#af25ad8192129df2daa030b6c7dcef85d" target="_top" xlink:title=" ">
<ellipse fill="white" stroke="#666666" cx="1263.47" cy="-1045.81" rx="229.28" ry="25.81"/>
<text xml:space="preserve" text-anchor="start" x="1109.35" y="-1048.66" font-family="Helvetica,sans-Serif" font-size="12.00">com.runehive.game.world.entity.combat.strategy.npc.boss.</text>
<text xml:space="preserve" text-anchor="middle" x="1263.47" y="-1034.41" font-family="Helvetica,sans-Serif" font-size="12.00">Vorkath.VenomSpecial.dragonFireTickableTask</text>
</a>
</g>
</g>
<!-- Node1&#45;&gt;Node4 -->
<g id="edge3_Node000001_Node000004" class="edge">
<title>Node1&#45;&gt;Node4</title>
<g id="a_edge3_Node000001_Node000004"><a xlink:title=" ">
<path fill="none" stroke="#63b8ff" d="M1683.38,-607.18C1681.33,-693.53 1663.16,-907.42 1537.83,-1010.81 1522.61,-1023.37 1505.19,-1032.79 1486.69,-1039.76"/>
<polygon fill="#63b8ff" stroke="#63b8ff" points="1686.88,-607.44 1683.55,-597.38 1679.88,-607.32 1686.88,-607.44"/>
</a>
</g>
</g>
<!-- Node6 -->
<g id="Node000006" class="node">
<title>Node6</title>
<g id="a_Node000006"><a xlink:href="classcom_1_1runehive_1_1game_1_1world_1_1entity_1_1combat_1_1strategy_1_1npc_1_1boss_1_1_tz_tok_jad_1_1_ranged_attack.html#a821f610097183ee3133b7498dfc57d0f" target="_top" xlink:title=" ">
<ellipse fill="white" stroke="#666666" cx="1263.47" cy="-957.81" rx="229.28" ry="25.81"/>
<text xml:space="preserve" text-anchor="start" x="1109.35" y="-960.66" font-family="Helvetica,sans-Serif" font-size="12.00">com.runehive.game.world.entity.combat.strategy.npc.boss.</text>
<text xml:space="preserve" text-anchor="middle" x="1263.47" y="-946.41" font-family="Helvetica,sans-Serif" font-size="12.00">TzTokJad.RangedAttack.hit</text>
</a>
</g>
</g>
<!-- Node1&#45;&gt;Node6 -->
<g id="edge5_Node000001_Node000006" class="edge">
<title>Node1&#45;&gt;Node6</title>
<g id="a_edge5_Node000001_Node000006"><a xlink:title=" ">
<path fill="none" stroke="#63b8ff" d="M1679.96,-606.93C1671.17,-680.43 1640.48,-844.19 1537.83,-922.81 1521.88,-935.03 1503.8,-944.18 1484.73,-950.94"/>
<polygon fill="#63b8ff" stroke="#63b8ff" points="1683.39,-607.76 1681.02,-597.43 1676.43,-606.98 1683.39,-607.76"/>
</a>
</g>
</g>
<!-- Node9 -->
<g id="Node000009" class="node">
<title>Node9</title>
<g id="a_Node000009"><a xlink:href="classcom_1_1runehive_1_1game_1_1world_1_1entity_1_1combat_1_1strategy_1_1npc_1_1boss_1_1_vorkath_1_1_fireball_attack.html#a4b8bf254423aa00f0f302f8711e70b74" target="_top" xlink:title=" ">
<ellipse fill="white" stroke="#666666" cx="1263.47" cy="-869.81" rx="229.28" ry="25.81"/>
<text xml:space="preserve" text-anchor="start" x="1109.35" y="-872.66" font-family="Helvetica,sans-Serif" font-size="12.00">com.runehive.game.world.entity.combat.strategy.npc.boss.</text>
<text xml:space="preserve" text-anchor="middle" x="1263.47" y="-858.41" font-family="Helvetica,sans-Serif" font-size="12.00">Vorkath.FireballAttack.hit</text>
</a>
</g>
</g>
<!-- Node1&#45;&gt;Node9 -->
<g id="edge9_Node000001_Node000009" class="edge">
<title>Node1&#45;&gt;Node9</title>
<g id="a_edge9_Node000001_Node000009"><a xlink:title=" ">
<path fill="none" stroke="#63b8ff" d="M1674.51,-606.89C1658.39,-665.9 1618.14,-780.1 1537.83,-834.81 1520.73,-846.46 1501.61,-855.17 1481.63,-861.61"/>
<polygon fill="#63b8ff" stroke="#63b8ff" points="1677.87,-607.88 1677.03,-597.32 1671.1,-606.1 1677.87,-607.88"/>
</a>
</g>
</g>
<!-- Node11 -->
<g id="Node000011" class="node">
<title>Node11</title>
<g id="a_Node000011"><a xlink:href="classcom_1_1runehive_1_1game_1_1world_1_1entity_1_1combat_1_1strategy_1_1npc_1_1boss_1_1_vorkath_1_1_frozen_special.html#ad96277352cf2038147c6fba2449cd8e5" target="_top" xlink:title=" ">
<ellipse fill="white" stroke="#666666" cx="1263.47" cy="-781.81" rx="229.28" ry="25.81"/>
<text xml:space="preserve" text-anchor="start" x="1109.35" y="-784.66" font-family="Helvetica,sans-Serif" font-size="12.00">com.runehive.game.world.entity.combat.strategy.npc.boss.</text>
<text xml:space="preserve" text-anchor="middle" x="1263.47" y="-770.41" font-family="Helvetica,sans-Serif" font-size="12.00">Vorkath.FrozenSpecial.hit</text>
</a>
</g>
</g>
<!-- Node1&#45;&gt;Node11 -->
<g id="edge12_Node000001_Node000011" class="edge">
<title>Node1&#45;&gt;Node11</title>
<g id="a_edge12_Node000001_Node000011"><a xlink:title=" ">
<path fill="none" stroke="#63b8ff" d="M1664.78,-605.85C1641.31,-647.43 1596.72,-714.25 1537.83,-746.81 1518.26,-757.63 1496.72,-765.67 1474.58,-771.58"/>
<polygon fill="#63b8ff" stroke="#63b8ff" points="1667.8,-607.63 1669.56,-597.18 1661.67,-604.25 1667.8,-607.63"/>
</a>
</g>
</g>
<!-- Node12 -->
<g id="Node000012" class="node">
<title>Node12</title>
<g id="a_Node000012"><a xlink:href="classcom_1_1runehive_1_1game_1_1world_1_1entity_1_1combat_1_1strategy_1_1npc_1_1boss_1_1_cerberus_1_1_lava_attack.html#a5067acffeb7557116c0f987ec0684926" target="_top" xlink:title=" ">
<ellipse fill="white" stroke="#666666" cx="1263.47" cy="-711.81" rx="229.28" ry="25.81"/>
<text xml:space="preserve" text-anchor="start" x="1109.35" y="-714.66" font-family="Helvetica,sans-Serif" font-size="12.00">com.runehive.game.world.entity.combat.strategy.npc.boss.</text>
<text xml:space="preserve" text-anchor="middle" x="1263.47" y="-700.41" font-family="Helvetica,sans-Serif" font-size="12.00">Cerberus.LavaAttack.lavaTask</text>
</a>
</g>
</g>
<!-- Node1&#45;&gt;Node12 -->
<g id="edge14_Node000001_Node000012" class="edge">
<title>Node1&#45;&gt;Node12</title>
<g id="a_edge14_Node000001_Node000012"><a xlink:title=" ">
<path fill="none" stroke="#63b8ff" d="M1648.95,-603.04C1621.26,-627.71 1580.12,-659.88 1537.83,-676.81 1513.96,-686.37 1488.06,-693.45 1462.03,-698.68"/>
<polygon fill="#63b8ff" stroke="#63b8ff" points="1651.27,-605.66 1656.32,-596.35 1646.57,-600.48 1651.27,-605.66"/>
</a>
</g>
</g>
<!-- Node14 -->
<g id="Node000014" class="node">
<title>Node14</title>
<g id="a_Node000014"><a xlink:href="classcom_1_1runehive_1_1content_1_1activity_1_1impl_1_1magearena_1_1_mage_arena.html#a561aa2c8f37aea4ed51a8b05a741bbf2" target="_top" xlink:title="Handles the meteors.">
<ellipse fill="white" stroke="#666666" cx="1263.47" cy="-623.81" rx="184.73" ry="25.81"/>
<text xml:space="preserve" text-anchor="start" x="1140.85" y="-626.66" font-family="Helvetica,sans-Serif" font-size="12.00">com.runehive.content.activity.impl.magearena.</text>
<text xml:space="preserve" text-anchor="middle" x="1263.47" y="-612.41" font-family="Helvetica,sans-Serif" font-size="12.00">MageArena.meteors</text>
</a>
</g>
</g>
<!-- Node1&#45;&gt;Node14 -->
<g id="edge16_Node000001_Node000014" class="edge">
<title>Node1&#45;&gt;Node14</title>
<g id="a_edge16_Node000001_Node000014"><a xlink:title=" ">
<path fill="none" stroke="#63b8ff" d="M1575.54,-583.71C1522.37,-590.56 1457.67,-598.9 1401.07,-606.2"/>
<polygon fill="#63b8ff" stroke="#63b8ff" points="1575.73,-587.21 1585.2,-582.46 1574.83,-580.27 1575.73,-587.21"/>
</a>
</g>
</g>
<!-- Node15 -->
<g id="Node000015" class="node">
<title>Node15</title>
<g id="a_Node000015"><a xlink:href="classcom_1_1runehive_1_1content_1_1activity_1_1impl_1_1magearena_1_1_mage_arena.html#afc6477dead5a5c635fcfbec6e5fb370b" target="_top" xlink:title="Starts the next activity stage.">
<ellipse fill="white" stroke="#666666" cx="723.84" cy="-604.81" rx="184.73" ry="25.81"/>
<text xml:space="preserve" text-anchor="start" x="601.21" y="-607.66" font-family="Helvetica,sans-Serif" font-size="12.00">com.runehive.content.activity.impl.magearena.</text>
<text xml:space="preserve" text-anchor="middle" x="723.84" y="-593.41" font-family="Helvetica,sans-Serif" font-size="12.00">MageArena.start</text>
</a>
</g>
</g>
<!-- Node1&#45;&gt;Node15 -->
<g id="edge25_Node000001_Node000015" class="edge">
<title>Node1&#45;&gt;Node15</title>
<g id="a_edge25_Node000001_Node000015"><a xlink:title=" ">
<path fill="none" stroke="#63b8ff" d="M1562.41,-571.91C1423.87,-574.59 1190.04,-579.98 989.12,-588.81 957.66,-590.19 924.12,-591.98 891.85,-593.86"/>
<polygon fill="#63b8ff" stroke="#63b8ff" points="1562.42,-575.41 1572.35,-571.72 1562.29,-568.41 1562.42,-575.41"/>
</a>
</g>
</g>
<!-- Node16 -->
<g id="Node000016" class="node">
<title>Node16</title>
<g id="a_Node000016"><a xlink:href="classcom_1_1runehive_1_1game_1_1world_1_1entity_1_1combat_1_1strategy_1_1npc_1_1boss_1_1_hydra.html#a1e484bf61b61162a907e72916eec7dc1" target="_top" xlink:title=" ">
<ellipse fill="white" stroke="#666666" cx="1263.47" cy="-515.81" rx="229.28" ry="25.81"/>
<text xml:space="preserve" text-anchor="start" x="1109.35" y="-518.66" font-family="Helvetica,sans-Serif" font-size="12.00">com.runehive.game.world.entity.combat.strategy.npc.boss.</text>
<text xml:space="preserve" text-anchor="middle" x="1263.47" y="-504.41" font-family="Helvetica,sans-Serif" font-size="12.00">Hydra.poisonTask</text>
</a>
</g>
</g>
<!-- Node1&#45;&gt;Node16 -->
<g id="edge19_Node000001_Node000016" class="edge">
<title>Node1&#45;&gt;Node16</title>
<g id="a_edge19_Node000001_Node000016"><a xlink:title=" ">
<path fill="none" stroke="#63b8ff" d="M1575.57,-555.92C1527.14,-549.67 1469.14,-542.2 1416.41,-535.4"/>
<polygon fill="#63b8ff" stroke="#63b8ff" points="1574.83,-559.35 1585.2,-557.16 1575.73,-552.41 1574.83,-559.35"/>
</a>
</g>
</g>
<!-- Node19 -->
<g id="Node000019" class="node">
<title>Node19</title>
<g id="a_Node000019"><a xlink:href="classcom_1_1runehive_1_1content_1_1skill_1_1impl_1_1prayer_1_1_bone_sacrifice.html#a5a1fb68a0cc8817aba6a2ca03dbbc6bf" target="_top" xlink:title=" ">
<ellipse fill="white" stroke="#666666" cx="1263.47" cy="-445.81" rx="154.5" ry="25.81"/>
<text xml:space="preserve" text-anchor="start" x="1162.22" y="-448.66" font-family="Helvetica,sans-Serif" font-size="12.00">com.runehive.content.skill.impl.prayer.</text>
<text xml:space="preserve" text-anchor="middle" x="1263.47" y="-434.41" font-family="Helvetica,sans-Serif" font-size="12.00">BoneSacrifice.sacrifice</text>
</a>
</g>
</g>
<!-- Node1&#45;&gt;Node19 -->
<g id="edge23_Node000001_Node000019" class="edge">
<title>Node1&#45;&gt;Node19</title>
<g id="a_edge23_Node000001_Node000019"><a xlink:title=" ">
<path fill="none" stroke="#63b8ff" d="M1642.5,-538.33C1614.57,-518.49 1575.85,-494.18 1537.83,-480.81 1498.11,-466.84 1453.4,-458.34 1411.82,-453.2"/>
<polygon fill="#63b8ff" stroke="#63b8ff" points="1640.16,-540.96 1650.31,-543.98 1644.26,-535.28 1640.16,-540.96"/>
</a>
</g>
</g>
<!-- Node21 -->
<g id="Node000021" class="node">
<title>Node21</title>
<g id="a_Node000021"><a xlink:href="classcom_1_1runehive_1_1content_1_1activity_1_1infernomobs_1_1_jal_tok_jad_1_1_ranged_attack.html#ac6a016ecad0c805c7345b16c4bf97ec5" target="_top" xlink:title=" ">
<ellipse fill="white" stroke="#666666" cx="1263.47" cy="-375.81" rx="170.41" ry="25.81"/>
<text xml:space="preserve" text-anchor="start" x="1150.97" y="-378.66" font-family="Helvetica,sans-Serif" font-size="12.00">com.runehive.content.activity.infernomobs.</text>
<text xml:space="preserve" text-anchor="middle" x="1263.47" y="-364.41" font-family="Helvetica,sans-Serif" font-size="12.00">JalTokJad.RangedAttack.start</text>
</a>
</g>
</g>
<!-- Node1&#45;&gt;Node21 -->
<g id="edge26_Node000001_Node000021" class="edge">
<title>Node1&#45;&gt;Node21</title>
<g id="a_edge26_Node000001_Node000021"><a xlink:title=" ">
<path fill="none" stroke="#63b8ff" d="M1661.91,-534.44C1637.11,-496.92 1592.56,-439.2 1537.83,-410.81 1505.87,-394.23 1469.08,-384.37 1433.06,-378.72"/>
<polygon fill="#63b8ff" stroke="#63b8ff" points="1658.89,-536.22 1667.26,-542.71 1664.77,-532.42 1658.89,-536.22"/>
</a>
</g>
</g>
<!-- Node22 -->
<g id="Node000022" class="node">
<title>Node22</title>
<g id="a_Node000022"><a xlink:href="classcom_1_1runehive_1_1game_1_1world_1_1entity_1_1combat_1_1strategy_1_1npc_1_1boss_1_1_chaos_fanatic_1_1_rain_attack.html#afce7ceb2decc527ab3723385a91400c8" target="_top" xlink:title=" ">
<ellipse fill="white" stroke="#666666" cx="1263.47" cy="-305.81" rx="229.28" ry="25.81"/>
<text xml:space="preserve" text-anchor="start" x="1109.35" y="-308.66" font-family="Helvetica,sans-Serif" font-size="12.00">com.runehive.game.world.entity.combat.strategy.npc.boss.</text>
<text xml:space="preserve" text-anchor="middle" x="1263.47" y="-294.41" font-family="Helvetica,sans-Serif" font-size="12.00">ChaosFanatic.RainAttack.start</text>
</a>
</g>
</g>
<!-- Node1&#45;&gt;Node22 -->
<g id="edge27_Node000001_Node000022" class="edge">
<title>Node1&#45;&gt;Node22</title>
<g id="a_edge27_Node000001_Node000022"><a xlink:title=" ">
<path fill="none" stroke="#63b8ff" d="M1671.32,-533.1C1652.15,-480.82 1609.31,-386.23 1537.83,-340.81 1519.96,-329.45 1500.1,-320.98 1479.48,-314.73"/>
<polygon fill="#63b8ff" stroke="#63b8ff" points="1668,-534.21 1674.65,-542.46 1674.6,-531.87 1668,-534.21"/>
</a>
</g>
</g>
<!-- Node23 -->
<g id="Node000023" class="node">
<title>Node23</title>
<g id="a_Node000023"><a xlink:href="classcom_1_1runehive_1_1game_1_1world_1_1entity_1_1combat_1_1strategy_1_1npc_1_1boss_1_1_crazy_archaeologist_1_1_rain_attack.html#a7e7b0340bb2727da1632c9b2c6afdd2e" target="_top" xlink:title=" ">
<ellipse fill="white" stroke="#666666" cx="1263.47" cy="-235.81" rx="229.28" ry="25.81"/>
<text xml:space="preserve" text-anchor="start" x="1109.35" y="-238.66" font-family="Helvetica,sans-Serif" font-size="12.00">com.runehive.game.world.entity.combat.strategy.npc.boss.</text>
<text xml:space="preserve" text-anchor="middle" x="1263.47" y="-224.41" font-family="Helvetica,sans-Serif" font-size="12.00">CrazyArchaeologist.RainAttack.start</text>
</a>
</g>
</g>
<!-- Node1&#45;&gt;Node23 -->
<g id="edge28_Node000001_Node000023" class="edge">
<title>Node1&#45;&gt;Node23</title>
<g id="a_edge28_Node000001_Node000023"><a xlink:title=" ">
<path fill="none" stroke="#63b8ff" d="M1676.98,-532.8C1663.76,-467.95 1626.75,-334.65 1537.83,-270.81 1521.22,-258.88 1502.53,-249.96 1482.92,-243.38"/>
<polygon fill="#63b8ff" stroke="#63b8ff" points="1673.47,-533.08 1678.82,-542.22 1680.34,-531.74 1673.47,-533.08"/>
</a>
</g>
</g>
<!-- Node24 -->
<g id="Node000024" class="node">
<title>Node24</title>
<g id="a_Node000024"><a xlink:href="classcom_1_1runehive_1_1game_1_1world_1_1entity_1_1combat_1_1strategy_1_1npc_1_1boss_1_1_lizard_shaman_1_1_minions_attack.html#a458c21a801a4a9dc028df07d8f5e88c0" target="_top" xlink:title=" ">
<ellipse fill="white" stroke="#666666" cx="1263.47" cy="-165.81" rx="229.28" ry="25.81"/>
<text xml:space="preserve" text-anchor="start" x="1109.35" y="-168.66" font-family="Helvetica,sans-Serif" font-size="12.00">com.runehive.game.world.entity.combat.strategy.npc.boss.</text>
<text xml:space="preserve" text-anchor="middle" x="1263.47" y="-154.41" font-family="Helvetica,sans-Serif" font-size="12.00">LizardShaman.MinionsAttack.start</text>
</a>
</g>
</g>
<!-- Node1&#45;&gt;Node24 -->
<g id="edge29_Node000001_Node000024" class="edge">
<title>Node1&#45;&gt;Node24</title>
<g id="a_edge29_Node000001_Node000024"><a xlink:title=" ">
<path fill="none" stroke="#63b8ff" d="M1680.64,-532.18C1673.05,-455.99 1644.36,-283.7 1537.83,-200.81 1522.07,-188.54 1504.17,-179.34 1485.27,-172.54"/>
<polygon fill="#63b8ff" stroke="#63b8ff" points="1677.15,-532.41 1681.55,-542.04 1684.12,-531.77 1677.15,-532.41"/>
</a>
</g>
</g>
<!-- Node25 -->
<g id="Node000025" class="node">
<title>Node25</title>
<g id="a_Node000025"><a xlink:href="classcom_1_1runehive_1_1game_1_1world_1_1entity_1_1combat_1_1strategy_1_1npc_1_1boss_1_1skotizo_1_1_skotizo_1_1_lighting_rain.html#a40db3c58776214440a0f6155f9deaf1e" target="_top" xlink:title=" ">
<ellipse fill="white" stroke="#666666" cx="1263.47" cy="-95.81" rx="257.92" ry="25.81"/>
<text xml:space="preserve" text-anchor="start" x="1089.1" y="-98.66" font-family="Helvetica,sans-Serif" font-size="12.00">com.runehive.game.world.entity.combat.strategy.npc.boss.skotizo.</text>
<text xml:space="preserve" text-anchor="middle" x="1263.47" y="-84.41" font-family="Helvetica,sans-Serif" font-size="12.00">Skotizo.LightingRain.start</text>
</a>
</g>
</g>
<!-- Node1&#45;&gt;Node25 -->
<g id="edge30_Node000001_Node000025" class="edge">
<title>Node1&#45;&gt;Node25</title>
<g id="a_edge30_Node000001_Node000025"><a xlink:title=" ">
<path fill="none" stroke="#63b8ff" d="M1683.32,-532.3C1681.1,-446.13 1662.57,-233.57 1537.83,-130.81 1525.83,-120.92 1512.47,-112.98 1498.29,-106.65"/>
<polygon fill="#63b8ff" stroke="#63b8ff" points="1679.81,-532.15 1683.5,-542.08 1686.81,-532.02 1679.81,-532.15"/>
</a>
</g>
</g>
<!-- Node26 -->
<g id="Node000026" class="node">
<title>Node26</title>
<g id="a_Node000026"><a xlink:href="classcom_1_1runehive_1_1game_1_1world_1_1entity_1_1combat_1_1strategy_1_1npc_1_1boss_1_1_vetion_1_1_magic.html#aa063ee2fd616c86c84a600938e3aaf31" target="_top" xlink:title=" ">
<ellipse fill="white" stroke="#666666" cx="1263.47" cy="-25.81" rx="229.28" ry="25.81"/>
<text xml:space="preserve" text-anchor="start" x="1109.35" y="-28.66" font-family="Helvetica,sans-Serif" font-size="12.00">com.runehive.game.world.entity.combat.strategy.npc.boss.</text>
<text xml:space="preserve" text-anchor="middle" x="1263.47" y="-14.41" font-family="Helvetica,sans-Serif" font-size="12.00">Vetion.Magic.start</text>
</a>
</g>
</g>
<!-- Node1&#45;&gt;Node26 -->
<g id="edge31_Node000001_Node000026" class="edge">
<title>Node1&#45;&gt;Node26</title>
<g id="a_edge31_Node000001_Node000026"><a xlink:title=" ">
<path fill="none" stroke="#63b8ff" d="M1678.03,-532.69C1662.09,-426.28 1611.07,-123.74 1537.83,-60.81 1522.95,-48.02 1505.83,-38.44 1487.56,-31.35"/>
<polygon fill="#63b8ff" stroke="#63b8ff" points="1674.53,-532.93 1679.45,-542.31 1681.45,-531.91 1674.53,-532.93"/>
</a>
</g>
</g>
<!-- Node5 -->
<g id="Node000005" class="node">
<title>Node5</title>
<g id="a_Node000005"><a xlink:href="classcom_1_1runehive_1_1game_1_1world_1_1entity_1_1combat_1_1strategy_1_1npc_1_1boss_1_1_vorkath_1_1_venom_special.html#a7a8f48e1ba2e1ca5efdbb8acdd9975b0" target="_top" xlink:title=" ">
<ellipse fill="white" stroke="#666666" cx="723.84" cy="-1062.81" rx="229.28" ry="25.81"/>
<text xml:space="preserve" text-anchor="start" x="569.71" y="-1065.66" font-family="Helvetica,sans-Serif" font-size="12.00">com.runehive.game.world.entity.combat.strategy.npc.boss.</text>
<text xml:space="preserve" text-anchor="middle" x="723.84" y="-1051.41" font-family="Helvetica,sans-Serif" font-size="12.00">Vorkath.VenomSpecial.start</text>
</a>
</g>
</g>
<!-- Node4&#45;&gt;Node5 -->
<g id="edge4_Node000004_Node000005" class="edge">
<title>Node4&#45;&gt;Node5</title>
<g id="a_edge4_Node000004_Node000005"><a xlink:title=" ">
<path fill="none" stroke="#63b8ff" d="M1030.94,-1053.13C1002.48,-1054.03 973.45,-1054.95 945.16,-1055.84"/>
<polygon fill="#63b8ff" stroke="#63b8ff" points="1030.85,-1056.64 1040.73,-1052.82 1030.63,-1049.64 1030.85,-1056.64"/>
</a>
</g>
</g>
<!-- Node6&#45;&gt;Node6 -->
<g id="edge7_Node000006_Node000006" class="edge">
<title>Node6&#45;&gt;Node6</title>
<g id="a_edge7_Node000006_Node000006"><a xlink:title=" ">
<path fill="none" stroke="#63b8ff" d="M1336.17,-992.32C1325.55,-997.84 1301.32,-1001.62 1263.47,-1001.62 1205.12,-1001.62 1179.13,-992.63 1185.51,-982.14"/>
<polygon fill="#63b8ff" stroke="#63b8ff" points="1339.26,-993.97 1340.74,-983.48 1333.04,-990.75 1339.26,-993.97"/>
</a>
</g>
</g>
<!-- Node7 -->
<g id="Node000007" class="node">
<title>Node7</title>
<g id="a_Node000007"><a xlink:href="classcom_1_1runehive_1_1game_1_1world_1_1entity_1_1combat_1_1strategy_1_1npc_1_1boss_1_1_tz_tok_jad_1_1_ranged_attack.html#a9db3a91e0545bd53809387ba3dbb7c16" target="_top" xlink:title=" ">
<ellipse fill="white" stroke="#666666" cx="723.84" cy="-992.81" rx="229.28" ry="25.81"/>
<text xml:space="preserve" text-anchor="start" x="569.71" y="-995.66" font-family="Helvetica,sans-Serif" font-size="12.00">com.runehive.game.world.entity.combat.strategy.npc.boss.</text>
<text xml:space="preserve" text-anchor="middle" x="723.84" y="-981.41" font-family="Helvetica,sans-Serif" font-size="12.00">TzTokJad.RangedAttack.attack</text>
</a>
</g>
</g>
<!-- Node6&#45;&gt;Node7 -->
<g id="edge6_Node000006_Node000007" class="edge">
<title>Node6&#45;&gt;Node7</title>
<g id="a_edge6_Node000006_Node000007"><a xlink:title=" ">
<path fill="none" stroke="#63b8ff" d="M1052.49,-971.48C1010.07,-974.24 965.6,-977.14 923.59,-979.87"/>
<polygon fill="#63b8ff" stroke="#63b8ff" points="1052.54,-974.98 1062.3,-970.84 1052.09,-968 1052.54,-974.98"/>
</a>
</g>
</g>
<!-- Node8 -->
<g id="Node000008" class="node">
<title>Node8</title>
<g id="a_Node000008"><a xlink:href="classcom_1_1runehive_1_1game_1_1world_1_1entity_1_1combat_1_1strategy_1_1npc_1_1boss_1_1_tz_tok_jad_1_1_ranged_attack.html#a0f0dcd81b3bc04922d502d3332cb9aad" target="_top" xlink:title=" ">
<ellipse fill="white" stroke="#666666" cx="723.84" cy="-922.81" rx="229.28" ry="25.81"/>
<text xml:space="preserve" text-anchor="start" x="569.71" y="-925.66" font-family="Helvetica,sans-Serif" font-size="12.00">com.runehive.game.world.entity.combat.strategy.npc.boss.</text>
<text xml:space="preserve" text-anchor="middle" x="723.84" y="-911.41" font-family="Helvetica,sans-Serif" font-size="12.00">TzTokJad.RangedAttack.hitsplat</text>
</a>
</g>
</g>
<!-- Node6&#45;&gt;Node8 -->
<g id="edge8_Node000006_Node000008" class="edge">
<title>Node6&#45;&gt;Node8</title>
<g id="a_edge8_Node000006_Node000008"><a xlink:title=" ">
<path fill="none" stroke="#63b8ff" d="M1052.49,-944.14C1010.07,-941.38 965.6,-938.48 923.59,-935.75"/>
<polygon fill="#63b8ff" stroke="#63b8ff" points="1052.09,-947.62 1062.3,-944.78 1052.54,-940.64 1052.09,-947.62"/>
</a>
</g>
</g>
<!-- Node9&#45;&gt;Node9 -->
<g id="edge11_Node000009_Node000009" class="edge">
<title>Node9&#45;&gt;Node9</title>
<g id="a_edge11_Node000009_Node000009"><a xlink:title=" ">
<path fill="none" stroke="#63b8ff" d="M1336.17,-904.32C1325.55,-909.84 1301.32,-913.62 1263.47,-913.62 1205.12,-913.62 1179.13,-904.63 1185.51,-894.14"/>
<polygon fill="#63b8ff" stroke="#63b8ff" points="1339.26,-905.97 1340.74,-895.48 1333.04,-902.75 1339.26,-905.97"/>
</a>
</g>
</g>
<!-- Node10 -->
<g id="Node000010" class="node">
<title>Node10</title>
<g id="a_Node000010"><a xlink:href="classcom_1_1runehive_1_1game_1_1world_1_1entity_1_1combat_1_1strategy_1_1npc_1_1boss_1_1_vorkath_1_1_fireball_attack.html#a8a299d0dab4d263e5857a42ec96b9dda" target="_top" xlink:title=" ">
<ellipse fill="white" stroke="#666666" cx="723.84" cy="-852.81" rx="229.28" ry="25.81"/>
<text xml:space="preserve" text-anchor="start" x="569.71" y="-855.66" font-family="Helvetica,sans-Serif" font-size="12.00">com.runehive.game.world.entity.combat.strategy.npc.boss.</text>
<text xml:space="preserve" text-anchor="middle" x="723.84" y="-841.41" font-family="Helvetica,sans-Serif" font-size="12.00">Vorkath.FireballAttack.attack</text>
</a>
</g>
</g>
<!-- Node9&#45;&gt;Node10 -->
<g id="edge10_Node000009_Node000010" class="edge">
<title>Node9&#45;&gt;Node10</title>
<g id="a_edge10_Node000009_Node000010"><a xlink:title=" ">
<path fill="none" stroke="#63b8ff" d="M1030.94,-862.49C1002.48,-861.59 973.45,-860.67 945.16,-859.78"/>
<polygon fill="#63b8ff" stroke="#63b8ff" points="1030.63,-865.98 1040.73,-862.8 1030.85,-858.98 1030.63,-865.98"/>
</a>
</g>
</g>
<!-- Node11&#45;&gt;Node11 -->
<g id="edge13_Node000011_Node000011" class="edge">
<title>Node11&#45;&gt;Node11</title>
<g id="a_edge13_Node000011_Node000011"><a xlink:title=" ">
<path fill="none" stroke="#63b8ff" d="M1336.17,-816.32C1325.55,-821.84 1301.32,-825.62 1263.47,-825.62 1205.12,-825.62 1179.13,-816.63 1185.51,-806.14"/>
<polygon fill="#63b8ff" stroke="#63b8ff" points="1339.26,-817.97 1340.74,-807.48 1333.04,-814.75 1339.26,-817.97"/>
</a>
</g>
</g>
<!-- Node13 -->
<g id="Node000013" class="node">
<title>Node13</title>
<g id="a_Node000013"><a xlink:href="classcom_1_1runehive_1_1game_1_1world_1_1entity_1_1combat_1_1strategy_1_1npc_1_1boss_1_1_cerberus_1_1_lava_attack.html#af27b7fc41d3030f2d2a77b08d8de96d0" target="_top" xlink:title=" ">
<ellipse fill="white" stroke="#666666" cx="723.84" cy="-711.81" rx="229.28" ry="25.81"/>
<text xml:space="preserve" text-anchor="start" x="569.71" y="-714.66" font-family="Helvetica,sans-Serif" font-size="12.00">com.runehive.game.world.entity.combat.strategy.npc.boss.</text>
<text xml:space="preserve" text-anchor="middle" x="723.84" y="-700.41" font-family="Helvetica,sans-Serif" font-size="12.00">Cerberus.LavaAttack.start</text>
</a>
</g>
</g>
<!-- Node12&#45;&gt;Node13 -->
<g id="edge15_Node000012_Node000013" class="edge">
<title>Node12&#45;&gt;Node13</title>
<g id="a_edge15_Node000012_Node000013"><a xlink:title=" ">
<path fill="none" stroke="#63b8ff" d="M1022.77,-711.81C999.67,-711.81 976.29,-711.81 953.31,-711.81"/>
<polygon fill="#63b8ff" stroke="#63b8ff" points="1022.57,-715.31 1032.57,-711.81 1022.57,-708.31 1022.57,-715.31"/>
</a>
</g>
</g>
<!-- Node14&#45;&gt;Node14 -->
<g id="edge17_Node000014_Node000014" class="edge">
<title>Node14&#45;&gt;Node14</title>
<g id="a_edge17_Node000014_Node000014"><a xlink:title=" ">
<path fill="none" stroke="#63b8ff" d="M1336.61,-658.09C1326.23,-663.73 1301.85,-667.62 1263.47,-667.62 1204.29,-667.62 1178.4,-658.38 1185.8,-647.69"/>
<polygon fill="#63b8ff" stroke="#63b8ff" points="1339.75,-659.64 1340.54,-649.08 1333.33,-656.84 1339.75,-659.64"/>
</a>
</g>
</g>
<!-- Node14&#45;&gt;Node15 -->
<g id="edge18_Node000014_Node000015" class="edge">
<title>Node14&#45;&gt;Node15</title>
<g id="a_edge18_Node000014_Node000015"><a xlink:title=" ">
<path fill="none" stroke="#63b8ff" d="M1072.52,-617.1C1017.49,-615.15 957.62,-613.04 903.32,-611.12"/>
<polygon fill="#63b8ff" stroke="#63b8ff" points="1072.19,-620.59 1082.31,-617.44 1072.44,-613.59 1072.19,-620.59"/>
</a>
</g>
</g>
<!-- Node17 -->
<g id="Node000017" class="node">
<title>Node17</title>
<g id="a_Node000017"><a xlink:href="classcom_1_1runehive_1_1game_1_1world_1_1entity_1_1combat_1_1strategy_1_1npc_1_1boss_1_1_hydra.html#a48c3edf7ff7057b56115fec07b27c783" target="_top" xlink:title=" ">
<ellipse fill="white" stroke="#666666" cx="723.84" cy="-515.81" rx="229.28" ry="25.81"/>
<text xml:space="preserve" text-anchor="start" x="569.71" y="-518.66" font-family="Helvetica,sans-Serif" font-size="12.00">com.runehive.game.world.entity.combat.strategy.npc.boss.</text>
<text xml:space="preserve" text-anchor="middle" x="723.84" y="-504.41" font-family="Helvetica,sans-Serif" font-size="12.00">Hydra.poisonAttack</text>
</a>
</g>
</g>
<!-- Node16&#45;&gt;Node17 -->
<g id="edge20_Node000016_Node000017" class="edge">
<title>Node16&#45;&gt;Node17</title>
<g id="a_edge20_Node000016_Node000017"><a xlink:title=" ">
<path fill="none" stroke="#63b8ff" d="M1022.77,-515.81C999.67,-515.81 976.29,-515.81 953.31,-515.81"/>
<polygon fill="#63b8ff" stroke="#63b8ff" points="1022.57,-519.31 1032.57,-515.81 1022.57,-512.31 1022.57,-519.31"/>
</a>
</g>
</g>
<!-- Node18 -->
<g id="Node000018" class="node">
<title>Node18</title>
<g id="a_Node000018"><a xlink:href="classcom_1_1runehive_1_1game_1_1world_1_1entity_1_1combat_1_1strategy_1_1npc_1_1boss_1_1_hydra.html#acb52d78bb8d3e361da2ac4a2faa494cc" target="_top" xlink:title=" ">
<ellipse fill="white" stroke="#666666" cx="229.28" cy="-515.81" rx="229.28" ry="25.81"/>
<text xml:space="preserve" text-anchor="start" x="75.15" y="-518.66" font-family="Helvetica,sans-Serif" font-size="12.00">com.runehive.game.world.entity.combat.strategy.npc.boss.</text>
<text xml:space="preserve" text-anchor="middle" x="229.28" y="-504.41" font-family="Helvetica,sans-Serif" font-size="12.00">Hydra.hit</text>
</a>
</g>
</g>
<!-- Node17&#45;&gt;Node18 -->
<g id="edge21_Node000017_Node000018" class="edge">
<title>Node17&#45;&gt;Node18</title>
<g id="a_edge21_Node000017_Node000018"><a xlink:title=" ">
<path fill="none" stroke="#63b8ff" d="M482.85,-515.81C474.8,-515.81 466.75,-515.81 458.72,-515.81"/>
<polygon fill="#63b8ff" stroke="#63b8ff" points="482.71,-519.31 492.71,-515.81 482.71,-512.31 482.71,-519.31"/>
</a>
</g>
</g>
<!-- Node18&#45;&gt;Node18 -->
<g id="edge22_Node000018_Node000018" class="edge">
<title>Node18&#45;&gt;Node18</title>
<g id="a_edge22_Node000018_Node000018"><a xlink:title=" ">
<path fill="none" stroke="#63b8ff" d="M315.66,-549.88C303.71,-555.64 274.92,-559.62 229.28,-559.62 159.73,-559.62 129.31,-550.38 138,-539.69"/>
<polygon fill="#63b8ff" stroke="#63b8ff" points="318.72,-551.59 319.9,-541.06 312.41,-548.55 318.72,-551.59"/>
</a>
</g>
</g>
<!-- Node20 -->
<g id="Node000020" class="node">
<title>Node20</title>
<g id="a_Node000020"><a xlink:href="classcom_1_1runehive_1_1content_1_1skill_1_1impl_1_1prayer_1_1_bone_sacrifice.html#a4e16866ee11fc93df2cdef8a68b0bce8" target="_top" xlink:title=" ">
<ellipse fill="white" stroke="#666666" cx="723.84" cy="-445.81" rx="154.5" ry="25.81"/>
<text xml:space="preserve" text-anchor="start" x="622.59" y="-448.66" font-family="Helvetica,sans-Serif" font-size="12.00">com.runehive.content.skill.impl.prayer.</text>
<text xml:space="preserve" text-anchor="middle" x="723.84" y="-434.41" font-family="Helvetica,sans-Serif" font-size="12.00">BoneSacrifice.useItem</text>
</a>
</g>
</g>
<!-- Node19&#45;&gt;Node20 -->
<g id="edge24_Node000019_Node000020" class="edge">
<title>Node19&#45;&gt;Node20</title>
<g id="a_edge24_Node000019_Node000020"><a xlink:title=" ">
<path fill="none" stroke="#63b8ff" d="M1097.68,-445.81C1027.94,-445.81 947.16,-445.81 878.66,-445.81"/>
<polygon fill="#63b8ff" stroke="#63b8ff" points="1097.26,-449.31 1107.26,-445.81 1097.26,-442.31 1097.26,-449.31"/>
</a>
</g>
</g>
</g>
</svg>

<g id="navigator" transform="translate(0 0)" fill="#404254">
  <rect fill="#f2f5e9" fill-opacity="0.5" stroke="#606060" stroke-width=".5" x="0" y="0" width="60" height="60"/>
  <use id="zoomplus" xlink:href="#zoomPlus" x="17" y="9" onmousedown="handleZoom(evt,'in')"/>
  <use id="zoomminus" xlink:href="#zoomMin" x="42" y="9" onmousedown="handleZoom(evt,'out')"/>
  <use id="reset" xlink:href="#resetDef" x="30" y="36" onmousedown="handleReset()"/>
   <use id="arrowup" xlink:href="#arrowUp" x="0" y="0" onmousedown="handlePan(0,-1)"/>
  <use id="arrowright" xlink:href="#arrowRight" x="0" y="0" onmousedown="handlePan(1,0)"/>
  <use id="arrowdown" xlink:href="#arrowDown" x="0" y="0" onmousedown="handlePan(0,1)"/>
  <use id="arrowleft" xlink:href="#arrowLeft" x="0" y="0" onmousedown="handlePan(-1,0)"/>
</g>
<svg viewBox="0 0 15 15" width="100%" height="30px" preserveAspectRatio="xMaxYMin meet">
 <g id="arrow_out" transform="scale(0.3 0.3)">
  <a xlink:href="classcom_1_1runehive_1_1game_1_1world_1_1_world_a344b3c56cd2176a658839becfb843a78_icgraph_org.svg" target="_base">
   <rect id="button" ry="5" rx="5" y="6" x="6" height="38" width="38"
        fill="#f2f5e9" fill-opacity="0.5" stroke="#606060" stroke-width="1.0"/>
   <path id="arrow"
     d="M 11.500037,31.436501 C 11.940474,20.09759 22.043105,11.32322 32.158766,21.979434 L 37.068811,17.246167 C 37.068811,17.246167 37.088388,32 37.088388,32 L 22.160133,31.978069 C 22.160133,31.978069 26.997745,27.140456 26.997745,27.140456 C 18.528582,18.264221 13.291696,25.230495 11.500037,31.436501 z"
     style="fill:#404040;"/>
  </a>
 </g>
</svg>

<style type='text/css'>
<![CDATA[
[data-mouse-over-selected='false'] { opacity: 0.7; }
[data-mouse-over-selected='true']  { opacity: 1.0; }
]]>
</style>
<script type="application/ecmascript"><![CDATA[
document.addEventListener('DOMContentLoaded', (event) => {
  highlightEdges();
  highlightAdjacentNodes();
});
]]></script>
</svg>
