<?xml version="1.0" encoding="UTF-8" standalone="no"?>
<!DOCTYPE svg PUBLIC "-//W3C//DTD SVG 1.1//EN"
 "http://www.w3.org/Graphics/SVG/1.1/DTD/svg11.dtd">
<!-- Generated by graphviz version 14.0.1 (20251006.0113)
 -->
<!-- Title: com.runehive.game.world.World.sendProjectile Pages: 1 -->
<!--zoomable 626 -->

<svg id="main" version="1.1" xmlns="http://www.w3.org/2000/svg" xmlns:xlink="http://www.w3.org/1999/xlink" xml:space="preserve" onload="init(evt)">

<style type="text/css"><![CDATA[
.node, .edge {opacity: 0.7;}
.node.selected, .edge.selected {opacity: 1;}
.edge:hover path { stroke: red; }
.edge:hover polygon { stroke: red; fill: red; }
]]></style>

<defs>
  <circle id="rim" cx="0" cy="0" r="7"/>
  <circle id="rim2" cx="0" cy="0" r="3.5"/>
  <g id="zoomPlus">
    <use xlink:href="#rim" fill="#404040"><set attributeName="fill" to="#808080" begin="zoomplus.mouseover" end="zoomplus.mouseout"/></use>
    <path d="M-4,0h8M0,-4v8" fill="none" stroke="white" stroke-width="1.5" pointer-events="none"/>
  </g>
  <g id="zoomMin">
    <use xlink:href="#rim" fill="#404040"><set attributeName="fill" to="#808080" begin="zoomminus.mouseover" end="zoomminus.mouseout"/></use>
    <path d="M-4,0h8" fill="none" stroke="white" stroke-width="1.5" pointer-events="none"/>
  </g>
  <g id="arrowUp" transform="translate(30 24)">
    <use xlink:href="#rim"/>
    <path pointer-events="none" fill="none" stroke="white" stroke-width="1.5" d="M0,-3.0v7 M-2.5,-0.5L0,-3.0L2.5,-0.5"/>
  </g>
  <g id="arrowRight" transform="rotate(90) translate(36 -43)">
    <use xlink:href="#rim"/>
    <path pointer-events="none" fill="none" stroke="white" stroke-width="1.5" d="M0,-3.0v7 M-2.5,-0.5L0,-3.0L2.5,-0.5"/>
  </g>
  <g id="arrowDown" transform="rotate(180) translate(-30 -48)">
    <use xlink:href="#rim"/>
    <path pointer-events="none" fill="none" stroke="white" stroke-width="1.5" d="M0,-3.0v7 M-2.5,-0.5L0,-3.0L2.5,-0.5"/>
  </g>
  <g id="arrowLeft" transform="rotate(270) translate(-36 17)">
    <use xlink:href="#rim"/>
    <path pointer-events="none" fill="none" stroke="white" stroke-width="1.5" d="M0,-3.0v7 M-2.5,-0.5L0,-3.0L2.5,-0.5"/>
  </g>
  <g id="resetDef">
    <use xlink:href="#rim2" fill="#404040"><set attributeName="fill" to="#808080" begin="reset.mouseover" end="reset.mouseout"/></use>
  </g>
</defs>
<script type="application/ecmascript">
var viewWidth = 1381;
var viewHeight = 626;
var sectionId = 'dynsection-54';
</script>
<script type="application/ecmascript" xlink:href="svg.min.js"/>
<svg id="graph" class="graph">
<g id="viewport">
<title>com.runehive.game.world.World.sendProjectile</title>
<!-- Node1 -->
<g id="Node000001" class="node">
<title>Node1</title>
<g id="a_Node000001"><a xlink:title=" ">
<ellipse fill="#999999" stroke="#666666" cx="110.49" cy="-346.81" rx="110.49" ry="25.81"/>
<text xml:space="preserve" text-anchor="start" x="40.36" y="-349.66" font-family="Helvetica,sans-Serif" font-size="12.00">com.runehive.game.world.</text>
<text xml:space="preserve" text-anchor="middle" x="110.49" y="-335.41" font-family="Helvetica,sans-Serif" font-size="12.00">World.sendProjectile</text>
</a>
</g>
</g>
<!-- Node2 -->
<g id="Node000002" class="node">
<title>Node2</title>
<g id="a_Node000002"><a xlink:href="classcom_1_1runehive_1_1game_1_1world_1_1entity_1_1_entity.html#a09cee7c391bb1206725815ce0f3cd1f1" target="_top" xlink:title=" ">
<ellipse fill="white" stroke="#666666" cx="407.76" cy="-591.81" rx="132.23" ry="25.81"/>
<text xml:space="preserve" text-anchor="start" x="322.26" y="-594.66" font-family="Helvetica,sans-Serif" font-size="12.00">com.runehive.game.world.entity.</text>
<text xml:space="preserve" text-anchor="middle" x="407.76" y="-580.41" font-family="Helvetica,sans-Serif" font-size="12.00">Entity.getIndex</text>
</a>
</g>
</g>
<!-- Node1&#45;&gt;Node2 -->
<g id="edge1_Node000001_Node000002" class="edge">
<title>Node1&#45;&gt;Node2</title>
<g id="a_edge1_Node000001_Node000002"><a xlink:title=" ">
<path fill="none" stroke="#63b8ff" d="M121.92,-372.75C141.39,-417.67 187.65,-509.67 256.97,-556.81 266.59,-563.35 277.28,-568.68 288.39,-573.02"/>
<polygon fill="#63b8ff" stroke="#63b8ff" points="287.13,-576.29 297.72,-576.38 289.5,-569.7 287.13,-576.29"/>
</a>
</g>
</g>
<!-- Node3 -->
<g id="Node000003" class="node">
<title>Node3</title>
<g id="a_Node000003"><a xlink:href="classcom_1_1runehive_1_1game_1_1world_1_1_world.html#aea9414faed608c5daf7defab8f0a1f07" target="_top" xlink:title=" ">
<ellipse fill="white" stroke="#666666" cx="407.76" cy="-521.81" rx="110.49" ry="25.81"/>
<text xml:space="preserve" text-anchor="start" x="337.64" y="-524.66" font-family="Helvetica,sans-Serif" font-size="12.00">com.runehive.game.world.</text>
<text xml:space="preserve" text-anchor="middle" x="407.76" y="-510.41" font-family="Helvetica,sans-Serif" font-size="12.00">World.getPlayers</text>
</a>
</g>
</g>
<!-- Node1&#45;&gt;Node3 -->
<g id="edge2_Node000001_Node000003" class="edge">
<title>Node1&#45;&gt;Node3</title>
<g id="a_edge2_Node000001_Node000003"><a xlink:title=" ">
<path fill="none" stroke="#63b8ff" d="M130.87,-372.56C156.26,-404.41 203.84,-457.93 256.97,-486.81 270.98,-494.43 286.61,-500.39 302.33,-505.07"/>
<polygon fill="#63b8ff" stroke="#63b8ff" points="301.19,-508.38 311.76,-507.69 303.07,-501.64 301.19,-508.38"/>
</a>
</g>
</g>
<!-- Node4 -->
<g id="Node000004" class="node">
<title>Node4</title>
<g id="a_Node000004"><a xlink:href="classcom_1_1runehive_1_1game_1_1world_1_1entity_1_1_entity.html#aa18a542748cdd46dbd6dd04d2093d7f4" target="_top" xlink:title=" ">
<ellipse fill="white" stroke="#666666" cx="407.76" cy="-451.81" rx="132.23" ry="25.81"/>
<text xml:space="preserve" text-anchor="start" x="322.26" y="-454.66" font-family="Helvetica,sans-Serif" font-size="12.00">com.runehive.game.world.entity.</text>
<text xml:space="preserve" text-anchor="middle" x="407.76" y="-440.41" font-family="Helvetica,sans-Serif" font-size="12.00">Entity.getX</text>
</a>
</g>
</g>
<!-- Node1&#45;&gt;Node4 -->
<g id="edge3_Node000001_Node000004" class="edge">
<title>Node1&#45;&gt;Node4</title>
<g id="a_edge3_Node000001_Node000004"><a xlink:title=" ">
<path fill="none" stroke="#63b8ff" d="M154.98,-370.84C183.35,-385.73 221.55,-404.32 256.97,-416.81 271.6,-421.97 287.31,-426.59 302.84,-430.65"/>
<polygon fill="#63b8ff" stroke="#63b8ff" points="301.54,-433.93 312.09,-433 303.26,-427.14 301.54,-433.93"/>
</a>
</g>
</g>
<!-- Node5 -->
<g id="Node000005" class="node">
<title>Node5</title>
<g id="a_Node000005"><a xlink:href="classcom_1_1runehive_1_1game_1_1world_1_1position_1_1_position.html#a7bfa5292d8c3f79100a6bc85ea27b5ea" target="_top" xlink:title="Gets the absolute x coordinate.">
<ellipse fill="white" stroke="#666666" cx="407.76" cy="-381.81" rx="142.31" ry="25.81"/>
<text xml:space="preserve" text-anchor="start" x="315.14" y="-384.66" font-family="Helvetica,sans-Serif" font-size="12.00">com.runehive.game.world.position.</text>
<text xml:space="preserve" text-anchor="middle" x="407.76" y="-370.41" font-family="Helvetica,sans-Serif" font-size="12.00">Position.getX</text>
</a>
</g>
</g>
<!-- Node1&#45;&gt;Node5 -->
<g id="edge4_Node000001_Node000005" class="edge">
<title>Node1&#45;&gt;Node5</title>
<g id="a_edge4_Node000001_Node000005"><a xlink:title=" ">
<path fill="none" stroke="#63b8ff" d="M209.81,-358.46C231.12,-360.99 253.98,-363.7 276.31,-366.35"/>
<polygon fill="#63b8ff" stroke="#63b8ff" points="275.73,-369.8 286.07,-367.5 276.55,-362.85 275.73,-369.8"/>
</a>
</g>
</g>
<!-- Node6 -->
<g id="Node000006" class="node">
<title>Node6</title>
<g id="a_Node000006"><a xlink:href="classcom_1_1runehive_1_1game_1_1world_1_1entity_1_1_entity.html#a5b57714d4530546d0fd9597aacd8b330" target="_top" xlink:title=" ">
<ellipse fill="white" stroke="#666666" cx="407.76" cy="-311.81" rx="132.23" ry="25.81"/>
<text xml:space="preserve" text-anchor="start" x="322.26" y="-314.66" font-family="Helvetica,sans-Serif" font-size="12.00">com.runehive.game.world.entity.</text>
<text xml:space="preserve" text-anchor="middle" x="407.76" y="-300.41" font-family="Helvetica,sans-Serif" font-size="12.00">Entity.getY</text>
</a>
</g>
</g>
<!-- Node1&#45;&gt;Node6 -->
<g id="edge5_Node000001_Node000006" class="edge">
<title>Node1&#45;&gt;Node6</title>
<g id="a_edge5_Node000001_Node000006"><a xlink:title=" ">
<path fill="none" stroke="#63b8ff" d="M209.81,-335.15C233.16,-332.39 258.37,-329.4 282.7,-326.51"/>
<polygon fill="#63b8ff" stroke="#63b8ff" points="282.79,-330.03 292.31,-325.38 281.96,-323.08 282.79,-330.03"/>
</a>
</g>
</g>
<!-- Node7 -->
<g id="Node000007" class="node">
<title>Node7</title>
<g id="a_Node000007"><a xlink:href="classcom_1_1runehive_1_1game_1_1world_1_1position_1_1_position.html#a55498d0fafce9fdeedca16984d79aee5" target="_top" xlink:title="Gets the absolute y coordinate.">
<ellipse fill="white" stroke="#666666" cx="407.76" cy="-241.81" rx="142.31" ry="25.81"/>
<text xml:space="preserve" text-anchor="start" x="315.14" y="-244.66" font-family="Helvetica,sans-Serif" font-size="12.00">com.runehive.game.world.position.</text>
<text xml:space="preserve" text-anchor="middle" x="407.76" y="-230.41" font-family="Helvetica,sans-Serif" font-size="12.00">Position.getY</text>
</a>
</g>
</g>
<!-- Node1&#45;&gt;Node7 -->
<g id="edge6_Node000001_Node000007" class="edge">
<title>Node1&#45;&gt;Node7</title>
<g id="a_edge6_Node000001_Node000007"><a xlink:title=" ">
<path fill="none" stroke="#63b8ff" d="M154.98,-322.78C183.35,-307.89 221.55,-289.3 256.97,-276.81 270.52,-272.03 284.99,-267.72 299.39,-263.88"/>
<polygon fill="#63b8ff" stroke="#63b8ff" points="300.1,-267.31 308.91,-261.42 298.35,-260.54 300.1,-267.31"/>
</a>
</g>
</g>
<!-- Node8 -->
<g id="Node000008" class="node">
<title>Node8</title>
<g id="a_Node000008"><a xlink:href="classcom_1_1runehive_1_1game_1_1world_1_1entity_1_1mob_1_1_mob.html#ac1ffa95e70f2c18a6695328fb2afc585" target="_top" xlink:title="Check if an entity is an npc.">
<ellipse fill="white" stroke="#666666" cx="407.76" cy="-171.81" rx="150.79" ry="25.81"/>
<text xml:space="preserve" text-anchor="start" x="309.14" y="-174.66" font-family="Helvetica,sans-Serif" font-size="12.00">com.runehive.game.world.entity.mob.</text>
<text xml:space="preserve" text-anchor="middle" x="407.76" y="-160.41" font-family="Helvetica,sans-Serif" font-size="12.00">Mob.isNpc</text>
</a>
</g>
</g>
<!-- Node1&#45;&gt;Node8 -->
<g id="edge7_Node000001_Node000008" class="edge">
<title>Node1&#45;&gt;Node8</title>
<g id="a_edge7_Node000001_Node000008"><a xlink:title=" ">
<path fill="none" stroke="#63b8ff" d="M130.87,-321.06C156.26,-289.21 203.84,-235.69 256.97,-206.81 266.56,-201.6 276.91,-197.16 287.53,-193.37"/>
<polygon fill="#63b8ff" stroke="#63b8ff" points="288.4,-196.77 296.78,-190.29 286.19,-190.13 288.4,-196.77"/>
</a>
</g>
</g>
<!-- Node10 -->
<g id="Node000010" class="node">
<title>Node10</title>
<g id="a_Node000010"><a xlink:href="classcom_1_1runehive_1_1util_1_1_utility.html#a731ec7ec36eb8943a7385c0f6da0d15e" target="_top" xlink:title=" ">
<ellipse fill="white" stroke="#666666" cx="407.76" cy="-99.81" rx="122.68" ry="25.81"/>
<text xml:space="preserve" text-anchor="start" x="329.01" y="-102.66" font-family="Helvetica,sans-Serif" font-size="12.00">com.runehive.util.Utility.within</text>
<text xml:space="preserve" text-anchor="middle" x="407.76" y="-88.41" font-family="Helvetica,sans-Serif" font-size="12.00">Distance</text>
</a>
</g>
</g>
<!-- Node1&#45;&gt;Node10 -->
<g id="edge9_Node000001_Node000010" class="edge">
<title>Node1&#45;&gt;Node10</title>
<g id="a_edge9_Node000001_Node000010"><a xlink:title=" ">
<path fill="none" stroke="#63b8ff" d="M121.98,-320.96C141.55,-276.18 187.95,-184.39 256.97,-136.81 268.37,-128.95 281.27,-122.76 294.6,-117.88"/>
<polygon fill="#63b8ff" stroke="#63b8ff" points="295.58,-121.24 303.93,-114.72 293.34,-114.61 295.58,-121.24"/>
</a>
</g>
</g>
<!-- Node9 -->
<g id="Node000009" class="node">
<title>Node9</title>
<g id="a_Node000009"><a xlink:href="classcom_1_1runehive_1_1game_1_1world_1_1entity_1_1_entity.html#a64f68055122aaf4af08787378c7ac356" target="_top" xlink:title="Gets the EntityType.">
<ellipse fill="white" stroke="#666666" cx="726.78" cy="-173.81" rx="132.23" ry="25.81"/>
<text xml:space="preserve" text-anchor="start" x="641.28" y="-176.66" font-family="Helvetica,sans-Serif" font-size="12.00">com.runehive.game.world.entity.</text>
<text xml:space="preserve" text-anchor="middle" x="726.78" y="-162.41" font-family="Helvetica,sans-Serif" font-size="12.00">Entity.getType</text>
</a>
</g>
</g>
<!-- Node8&#45;&gt;Node9 -->
<g id="edge8_Node000008_Node000009" class="edge">
<title>Node8&#45;&gt;Node9</title>
<g id="a_edge8_Node000008_Node000009"><a xlink:title=" ">
<path fill="none" stroke="#63b8ff" d="M558.92,-172.76C566.97,-172.81 575.04,-172.86 583.07,-172.91"/>
<polygon fill="#63b8ff" stroke="#63b8ff" points="582.83,-176.41 592.85,-172.97 582.87,-169.41 582.83,-176.41"/>
</a>
</g>
</g>
<!-- Node11 -->
<g id="Node000011" class="node">
<title>Node11</title>
<g id="a_Node000011"><a xlink:href="classcom_1_1runehive_1_1util_1_1_utility.html#af9eb94bde5c8e85696f05f773db8b7ec" target="_top" xlink:title=" ">
<ellipse fill="white" stroke="#666666" cx="726.78" cy="-95.81" rx="122.68" ry="15.73"/>
<text xml:space="preserve" text-anchor="middle" x="726.78" y="-91.53" font-family="Helvetica,sans-Serif" font-size="12.00">com.runehive.util.Utility.within</text>
</a>
</g>
</g>
<!-- Node10&#45;&gt;Node11 -->
<g id="edge10_Node000010_Node000011" class="edge">
<title>Node10&#45;&gt;Node11</title>
<g id="a_edge10_Node000010_Node000011"><a xlink:title=" ">
<path fill="none" stroke="#63b8ff" d="M530.42,-98.27C550.83,-98.02 572.1,-97.75 592.77,-97.49"/>
<polygon fill="#63b8ff" stroke="#63b8ff" points="592.71,-100.99 602.67,-97.36 592.63,-93.99 592.71,-100.99"/>
</a>
</g>
</g>
<!-- Node11&#45;&gt;Node11 -->
<g id="edge15_Node000011_Node000011" class="edge">
<title>Node11&#45;&gt;Node11</title>
<g id="a_edge15_Node000011_Node000011"><a xlink:title=" ">
<path fill="none" stroke="#63b8ff" d="M678.66,-110.72C666.1,-120.31 682.14,-129.54 726.78,-129.54 752.24,-129.54 768.39,-126.54 775.25,-122.18"/>
<polygon fill="#63b8ff" stroke="#63b8ff" points="778.75,-122.13 774.95,-112.24 771.75,-122.34 778.75,-122.13"/>
</a>
</g>
</g>
<!-- Node12 -->
<g id="Node000012" class="node">
<title>Node12</title>
<g id="a_Node000012"><a xlink:href="interfacecom_1_1runehive_1_1game_1_1world_1_1_interactable.html#a22cd7c00a274589573f03c45a0b67688" target="_top" xlink:title="Creates a new instance of an Interactable.">
<ellipse fill="white" stroke="#666666" cx="1005.5" cy="-95.81" rx="110.49" ry="25.81"/>
<text xml:space="preserve" text-anchor="start" x="935.37" y="-98.66" font-family="Helvetica,sans-Serif" font-size="12.00">com.runehive.game.world.</text>
<text xml:space="preserve" text-anchor="middle" x="1005.5" y="-84.41" font-family="Helvetica,sans-Serif" font-size="12.00">Interactable.create</text>
</a>
</g>
</g>
<!-- Node11&#45;&gt;Node12 -->
<g id="edge11_Node000011_Node000012" class="edge">
<title>Node11&#45;&gt;Node12</title>
<g id="a_edge11_Node000011_Node000012"><a xlink:title=" ">
<path fill="none" stroke="#63b8ff" d="M849.96,-95.81C861.03,-95.81 872.23,-95.81 883.29,-95.81"/>
<polygon fill="#63b8ff" stroke="#63b8ff" points="883.24,-99.31 893.24,-95.81 883.24,-92.31 883.24,-99.31"/>
</a>
</g>
</g>
<!-- Node13 -->
<g id="Node000013" class="node">
<title>Node13</title>
<g id="a_Node000013"><a xlink:href="interfacecom_1_1runehive_1_1game_1_1world_1_1_interactable.html#a49e07a60c6643c0ba33bc9754305c352" target="_top" xlink:title=" ">
<ellipse fill="white" stroke="#666666" cx="1262.47" cy="-165.81" rx="110.49" ry="25.81"/>
<text xml:space="preserve" text-anchor="start" x="1192.34" y="-168.66" font-family="Helvetica,sans-Serif" font-size="12.00">com.runehive.game.world.</text>
<text xml:space="preserve" text-anchor="middle" x="1262.47" y="-154.41" font-family="Helvetica,sans-Serif" font-size="12.00">Interactable.getPosition</text>
</a>
</g>
</g>
<!-- Node12&#45;&gt;Node13 -->
<g id="edge12_Node000012_Node000013" class="edge">
<title>Node12&#45;&gt;Node13</title>
<g id="a_edge12_Node000012_Node000013"><a xlink:title=" ">
<path fill="none" stroke="#63b8ff" d="M1078.54,-115.59C1109.76,-124.16 1146.5,-134.25 1178.82,-143.12"/>
<polygon fill="#63b8ff" stroke="#63b8ff" points="1177.57,-146.41 1188.14,-145.68 1179.43,-139.66 1177.57,-146.41"/>
</a>
</g>
</g>
<!-- Node14 -->
<g id="Node000014" class="node">
<title>Node14</title>
<g id="a_Node000014"><a xlink:href="interfacecom_1_1runehive_1_1game_1_1world_1_1_interactable.html#a9513e5e63159a738b417ceba87cd1de8" target="_top" xlink:title=" ">
<ellipse fill="white" stroke="#666666" cx="1262.47" cy="-95.81" rx="110.49" ry="25.81"/>
<text xml:space="preserve" text-anchor="start" x="1192.34" y="-98.66" font-family="Helvetica,sans-Serif" font-size="12.00">com.runehive.game.world.</text>
<text xml:space="preserve" text-anchor="middle" x="1262.47" y="-84.41" font-family="Helvetica,sans-Serif" font-size="12.00">Interactable.length</text>
</a>
</g>
</g>
<!-- Node12&#45;&gt;Node14 -->
<g id="edge13_Node000012_Node000014" class="edge">
<title>Node12&#45;&gt;Node14</title>
<g id="a_edge13_Node000012_Node000014"><a xlink:title=" ">
<path fill="none" stroke="#63b8ff" d="M1116.48,-95.81C1124.45,-95.81 1132.51,-95.81 1140.54,-95.81"/>
<polygon fill="#63b8ff" stroke="#63b8ff" points="1140.34,-99.31 1150.34,-95.81 1140.34,-92.31 1140.34,-99.31"/>
</a>
</g>
</g>
<!-- Node15 -->
<g id="Node000015" class="node">
<title>Node15</title>
<g id="a_Node000015"><a xlink:href="interfacecom_1_1runehive_1_1game_1_1world_1_1_interactable.html#ad7eb47dad8c89c478cedc32ea6fe3a5b" target="_top" xlink:title=" ">
<ellipse fill="white" stroke="#666666" cx="1262.47" cy="-25.81" rx="110.49" ry="25.81"/>
<text xml:space="preserve" text-anchor="start" x="1192.34" y="-28.66" font-family="Helvetica,sans-Serif" font-size="12.00">com.runehive.game.world.</text>
<text xml:space="preserve" text-anchor="middle" x="1262.47" y="-14.41" font-family="Helvetica,sans-Serif" font-size="12.00">Interactable.width</text>
</a>
</g>
</g>
<!-- Node12&#45;&gt;Node15 -->
<g id="edge14_Node000012_Node000015" class="edge">
<title>Node12&#45;&gt;Node15</title>
<g id="a_edge14_Node000012_Node000015"><a xlink:title=" ">
<path fill="none" stroke="#63b8ff" d="M1078.54,-76.03C1109.76,-67.46 1146.5,-57.37 1178.82,-48.5"/>
<polygon fill="#63b8ff" stroke="#63b8ff" points="1179.43,-51.96 1188.14,-45.94 1177.57,-45.21 1179.43,-51.96"/>
</a>
</g>
</g>
</g>
</svg>

<g id="navigator" transform="translate(0 0)" fill="#404254">
  <rect fill="#f2f5e9" fill-opacity="0.5" stroke="#606060" stroke-width=".5" x="0" y="0" width="60" height="60"/>
  <use id="zoomplus" xlink:href="#zoomPlus" x="17" y="9" onmousedown="handleZoom(evt,'in')"/>
  <use id="zoomminus" xlink:href="#zoomMin" x="42" y="9" onmousedown="handleZoom(evt,'out')"/>
  <use id="reset" xlink:href="#resetDef" x="30" y="36" onmousedown="handleReset()"/>
   <use id="arrowup" xlink:href="#arrowUp" x="0" y="0" onmousedown="handlePan(0,-1)"/>
  <use id="arrowright" xlink:href="#arrowRight" x="0" y="0" onmousedown="handlePan(1,0)"/>
  <use id="arrowdown" xlink:href="#arrowDown" x="0" y="0" onmousedown="handlePan(0,1)"/>
  <use id="arrowleft" xlink:href="#arrowLeft" x="0" y="0" onmousedown="handlePan(-1,0)"/>
</g>
<svg viewBox="0 0 15 15" width="100%" height="30px" preserveAspectRatio="xMaxYMin meet">
 <g id="arrow_out" transform="scale(0.3 0.3)">
  <a xlink:href="classcom_1_1runehive_1_1game_1_1world_1_1_world_a122723660e135b8b9433b369cd92dd22_cgraph_org.svg" target="_base">
   <rect id="button" ry="5" rx="5" y="6" x="6" height="38" width="38"
        fill="#f2f5e9" fill-opacity="0.5" stroke="#606060" stroke-width="1.0"/>
   <path id="arrow"
     d="M 11.500037,31.436501 C 11.940474,20.09759 22.043105,11.32322 32.158766,21.979434 L 37.068811,17.246167 C 37.068811,17.246167 37.088388,32 37.088388,32 L 22.160133,31.978069 C 22.160133,31.978069 26.997745,27.140456 26.997745,27.140456 C 18.528582,18.264221 13.291696,25.230495 11.500037,31.436501 z"
     style="fill:#404040;"/>
  </a>
 </g>
</svg>

<style type='text/css'>
<![CDATA[
[data-mouse-over-selected='false'] { opacity: 0.7; }
[data-mouse-over-selected='true']  { opacity: 1.0; }
]]>
</style>
<script type="application/ecmascript"><![CDATA[
document.addEventListener('DOMContentLoaded', (event) => {
  highlightEdges();
  highlightAdjacentNodes();
});
]]></script>
</svg>
