<?xml version="1.0" encoding="UTF-8" standalone="no"?>
<!DOCTYPE svg PUBLIC "-//W3C//DTD SVG 1.1//EN"
 "http://www.w3.org/Graphics/SVG/1.1/DTD/svg11.dtd">
<!-- Generated by graphviz version 14.0.1 (20251006.0113)
 -->
<!-- Title: com.runehive.util.parser.impl.GlobalObjectParser.parse Pages: 1 -->
<!--zoomable 725 -->

<svg id="main" version="1.1" xmlns="http://www.w3.org/2000/svg" xmlns:xlink="http://www.w3.org/1999/xlink" xml:space="preserve" onload="init(evt)">

<style type="text/css"><![CDATA[
.node, .edge {opacity: 0.7;}
.node.selected, .edge.selected {opacity: 1;}
.edge:hover path { stroke: red; }
.edge:hover polygon { stroke: red; fill: red; }
]]></style>

<defs>
  <circle id="rim" cx="0" cy="0" r="7"/>
  <circle id="rim2" cx="0" cy="0" r="3.5"/>
  <g id="zoomPlus">
    <use xlink:href="#rim" fill="#404040"><set attributeName="fill" to="#808080" begin="zoomplus.mouseover" end="zoomplus.mouseout"/></use>
    <path d="M-4,0h8M0,-4v8" fill="none" stroke="white" stroke-width="1.5" pointer-events="none"/>
  </g>
  <g id="zoomMin">
    <use xlink:href="#rim" fill="#404040"><set attributeName="fill" to="#808080" begin="zoomminus.mouseover" end="zoomminus.mouseout"/></use>
    <path d="M-4,0h8" fill="none" stroke="white" stroke-width="1.5" pointer-events="none"/>
  </g>
  <g id="arrowUp" transform="translate(30 24)">
    <use xlink:href="#rim"/>
    <path pointer-events="none" fill="none" stroke="white" stroke-width="1.5" d="M0,-3.0v7 M-2.5,-0.5L0,-3.0L2.5,-0.5"/>
  </g>
  <g id="arrowRight" transform="rotate(90) translate(36 -43)">
    <use xlink:href="#rim"/>
    <path pointer-events="none" fill="none" stroke="white" stroke-width="1.5" d="M0,-3.0v7 M-2.5,-0.5L0,-3.0L2.5,-0.5"/>
  </g>
  <g id="arrowDown" transform="rotate(180) translate(-30 -48)">
    <use xlink:href="#rim"/>
    <path pointer-events="none" fill="none" stroke="white" stroke-width="1.5" d="M0,-3.0v7 M-2.5,-0.5L0,-3.0L2.5,-0.5"/>
  </g>
  <g id="arrowLeft" transform="rotate(270) translate(-36 17)">
    <use xlink:href="#rim"/>
    <path pointer-events="none" fill="none" stroke="white" stroke-width="1.5" d="M0,-3.0v7 M-2.5,-0.5L0,-3.0L2.5,-0.5"/>
  </g>
  <g id="resetDef">
    <use xlink:href="#rim2" fill="#404040"><set attributeName="fill" to="#808080" begin="reset.mouseover" end="reset.mouseout"/></use>
  </g>
</defs>
<script type="application/ecmascript">
var viewWidth = 1929;
var viewHeight = 725;
var sectionId = 'dynsection-2';
</script>
<script type="application/ecmascript" xlink:href="svg.min.js"/>
<svg id="graph" class="graph">
<g id="viewport">
<title>com.runehive.util.parser.impl.GlobalObjectParser.parse</title>
<!-- Node1 -->
<g id="Node000001" class="node">
<title>Node1</title>
<g id="a_Node000001"><a xlink:title="The method allows a user to modify the data as its being parsed.">
<ellipse fill="#999999" stroke="#666666" cx="121.09" cy="-251.81" rx="121.09" ry="25.81"/>
<text xml:space="preserve" text-anchor="start" x="43.47" y="-254.66" font-family="Helvetica,sans-Serif" font-size="12.00">com.runehive.util.parser.impl.</text>
<text xml:space="preserve" text-anchor="middle" x="121.09" y="-240.41" font-family="Helvetica,sans-Serif" font-size="12.00">GlobalObjectParser.parse</text>
</a>
</g>
</g>
<!-- Node2 -->
<g id="Node000002" class="node">
<title>Node2</title>
<g id="a_Node000002"><a xlink:href="classcom_1_1runehive_1_1game_1_1world_1_1object_1_1_custom_game_object.html#aae3df966e0d98979b12319f5deb3c12a" target="_top" xlink:title="Registers an entity to the World.">
<ellipse fill="white" stroke="#666666" cx="413.6" cy="-321.81" rx="135.41" ry="25.81"/>
<text xml:space="preserve" text-anchor="start" x="325.85" y="-324.66" font-family="Helvetica,sans-Serif" font-size="12.00">com.runehive.game.world.object.</text>
<text xml:space="preserve" text-anchor="middle" x="413.6" y="-310.41" font-family="Helvetica,sans-Serif" font-size="12.00">CustomGameObject.register</text>
</a>
</g>
</g>
<!-- Node1&#45;&gt;Node2 -->
<g id="edge1_Node000001_Node000002" class="edge">
<title>Node1&#45;&gt;Node2</title>
<g id="a_edge1_Node000001_Node000002"><a xlink:title=" ">
<path fill="none" stroke="#63b8ff" d="M202.63,-271.22C238.16,-279.78 280.19,-289.9 317.27,-298.84"/>
<polygon fill="#63b8ff" stroke="#63b8ff" points="316.09,-302.15 326.63,-301.09 317.73,-295.35 316.09,-302.15"/>
</a>
</g>
</g>
<!-- Node28 -->
<g id="Node000028" class="node">
<title>Node28</title>
<g id="a_Node000028"><a xlink:href="enumcom_1_1runehive_1_1game_1_1world_1_1object_1_1_object_direction.html#a795725faffe52a1331421091d016d100" target="_top" xlink:title="Returns a ObjectDirection wrapped in an Optional for the specified id.">
<ellipse fill="white" stroke="#666666" cx="413.6" cy="-251.81" rx="135.41" ry="25.81"/>
<text xml:space="preserve" text-anchor="start" x="325.85" y="-254.66" font-family="Helvetica,sans-Serif" font-size="12.00">com.runehive.game.world.object.</text>
<text xml:space="preserve" text-anchor="middle" x="413.6" y="-240.41" font-family="Helvetica,sans-Serif" font-size="12.00">ObjectDirection.valueOf</text>
</a>
</g>
</g>
<!-- Node1&#45;&gt;Node28 -->
<g id="edge32_Node000001_Node000028" class="edge">
<title>Node1&#45;&gt;Node28</title>
<g id="a_edge32_Node000001_Node000028"><a xlink:title=" ">
<path fill="none" stroke="#63b8ff" d="M242.35,-251.81C250.3,-251.81 258.36,-251.81 266.43,-251.81"/>
<polygon fill="#63b8ff" stroke="#63b8ff" points="266.31,-255.31 276.31,-251.81 266.31,-248.31 266.31,-255.31"/>
</a>
</g>
</g>
<!-- Node29 -->
<g id="Node000029" class="node">
<title>Node29</title>
<g id="a_Node000029"><a xlink:href="enumcom_1_1runehive_1_1game_1_1world_1_1object_1_1_object_type.html#a8f0b996ba53e3984b5d25fdcddeca758" target="_top" xlink:title="Returns a ObjectType wrapped in an Optional for the specified id.">
<ellipse fill="white" stroke="#666666" cx="413.6" cy="-181.81" rx="135.41" ry="25.81"/>
<text xml:space="preserve" text-anchor="start" x="325.85" y="-184.66" font-family="Helvetica,sans-Serif" font-size="12.00">com.runehive.game.world.object.</text>
<text xml:space="preserve" text-anchor="middle" x="413.6" y="-170.41" font-family="Helvetica,sans-Serif" font-size="12.00">ObjectType.valueOf</text>
</a>
</g>
</g>
<!-- Node1&#45;&gt;Node29 -->
<g id="edge33_Node000001_Node000029" class="edge">
<title>Node1&#45;&gt;Node29</title>
<g id="a_edge33_Node000001_Node000029"><a xlink:title=" ">
<path fill="none" stroke="#63b8ff" d="M202.63,-232.4C238.16,-223.84 280.19,-213.71 317.27,-204.78"/>
<polygon fill="#63b8ff" stroke="#63b8ff" points="317.73,-208.27 326.63,-202.52 316.09,-201.46 317.73,-208.27"/>
</a>
</g>
</g>
<!-- Node3 -->
<g id="Node000003" class="node">
<title>Node3</title>
<g id="a_Node000003"><a xlink:href="classcom_1_1runehive_1_1game_1_1world_1_1object_1_1_custom_game_object.html#a45a65871c476e31b5f733d6a132bf738" target="_top" xlink:title="Adds this entity to the specified region.">
<ellipse fill="white" stroke="#666666" cx="725.72" cy="-375.81" rx="140.71" ry="25.81"/>
<text xml:space="preserve" text-anchor="start" x="634.22" y="-378.66" font-family="Helvetica,sans-Serif" font-size="12.00">com.runehive.game.world.object.</text>
<text xml:space="preserve" text-anchor="middle" x="725.72" y="-364.41" font-family="Helvetica,sans-Serif" font-size="12.00">CustomGameObject.addToRegion</text>
</a>
</g>
</g>
<!-- Node2&#45;&gt;Node3 -->
<g id="edge2_Node000002_Node000003" class="edge">
<title>Node2&#45;&gt;Node3</title>
<g id="a_edge2_Node000002_Node000003"><a xlink:title=" ">
<path fill="none" stroke="#63b8ff" d="M514.86,-339.27C545.57,-344.61 579.57,-350.54 611.1,-356.03"/>
<polygon fill="#63b8ff" stroke="#63b8ff" points="610.2,-359.42 620.65,-357.69 611.4,-352.53 610.2,-359.42"/>
</a>
</g>
</g>
<!-- Node8 -->
<g id="Node000008" class="node">
<title>Node8</title>
<g id="a_Node000008"><a xlink:href="classcom_1_1runehive_1_1game_1_1world_1_1entity_1_1_entity.html#a561452a2370cad1b551c6f717121ab31" target="_top" xlink:title=" ">
<ellipse fill="white" stroke="#666666" cx="1066.48" cy="-550.81" rx="132.23" ry="25.81"/>
<text xml:space="preserve" text-anchor="start" x="980.98" y="-553.66" font-family="Helvetica,sans-Serif" font-size="12.00">com.runehive.game.world.entity.</text>
<text xml:space="preserve" text-anchor="middle" x="1066.48" y="-539.41" font-family="Helvetica,sans-Serif" font-size="12.00">Entity.getHeight</text>
</a>
</g>
</g>
<!-- Node2&#45;&gt;Node8 -->
<g id="edge23_Node000002_Node000008" class="edge">
<title>Node2&#45;&gt;Node8</title>
<g id="a_edge23_Node000002_Node000008"><a xlink:title=" ">
<path fill="none" stroke="#63b8ff" d="M457.44,-346.66C491.35,-365.72 540.28,-391.88 585.01,-410.81 721.85,-468.73 759.04,-476.83 902.43,-515.81 921.09,-520.88 941.1,-525.69 960.5,-530.02"/>
<polygon fill="#63b8ff" stroke="#63b8ff" points="959.52,-533.39 970.04,-532.12 961.02,-526.55 959.52,-533.39"/>
</a>
</g>
</g>
<!-- Node10 -->
<g id="Node000010" class="node">
<title>Node10</title>
<g id="a_Node000010"><a xlink:href="classcom_1_1runehive_1_1game_1_1world_1_1entity_1_1_entity.html#a8afdd0de68f242bf7082076dfbfffe37" target="_top" xlink:title=" ">
<ellipse fill="white" stroke="#666666" cx="1066.48" cy="-130.81" rx="132.23" ry="25.81"/>
<text xml:space="preserve" text-anchor="start" x="980.98" y="-133.66" font-family="Helvetica,sans-Serif" font-size="12.00">com.runehive.game.world.entity.</text>
<text xml:space="preserve" text-anchor="middle" x="1066.48" y="-119.41" font-family="Helvetica,sans-Serif" font-size="12.00">Entity.getPosition</text>
</a>
</g>
</g>
<!-- Node2&#45;&gt;Node10 -->
<g id="edge24_Node000002_Node000010" class="edge">
<title>Node2&#45;&gt;Node10</title>
<g id="a_edge24_Node000002_Node000010"><a xlink:title=" ">
<path fill="none" stroke="#63b8ff" d="M537.74,-332.47C654.01,-339.79 817.63,-342.11 866.43,-302.81 915.47,-263.32 856.92,-209.3 902.43,-165.81 911.58,-157.07 922.36,-150.29 933.94,-145.06"/>
<polygon fill="#63b8ff" stroke="#63b8ff" points="934.95,-148.43 942.9,-141.43 932.32,-141.95 934.95,-148.43"/>
</a>
</g>
</g>
<!-- Node22 -->
<g id="Node000022" class="node">
<title>Node22</title>
<g id="a_Node000022"><a xlink:href="classcom_1_1runehive_1_1game_1_1world_1_1entity_1_1_entity.html#a119860ba3aeba7613256edf5fa337efe" target="_top" xlink:title=" ">
<ellipse fill="white" stroke="#666666" cx="725.72" cy="-267.81" rx="132.23" ry="25.81"/>
<text xml:space="preserve" text-anchor="start" x="640.22" y="-270.66" font-family="Helvetica,sans-Serif" font-size="12.00">com.runehive.game.world.entity.</text>
<text xml:space="preserve" text-anchor="middle" x="725.72" y="-256.41" font-family="Helvetica,sans-Serif" font-size="12.00">Entity.getRegion</text>
</a>
</g>
</g>
<!-- Node2&#45;&gt;Node22 -->
<g id="edge25_Node000002_Node000022" class="edge">
<title>Node2&#45;&gt;Node22</title>
<g id="a_edge25_Node000002_Node000022"><a xlink:title=" ">
<path fill="none" stroke="#63b8ff" d="M514.86,-304.35C546.6,-298.83 581.85,-292.69 614.26,-287.04"/>
<polygon fill="#63b8ff" stroke="#63b8ff" points="614.86,-290.49 624.11,-285.33 613.66,-283.6 614.86,-290.49"/>
</a>
</g>
</g>
<!-- Node23 -->
<g id="Node000023" class="node">
<title>Node23</title>
<g id="a_Node000023"><a xlink:href="classcom_1_1runehive_1_1game_1_1world_1_1entity_1_1_entity.html#a6fbe05d5095666dd6a6ce87d3176c8dc" target="_top" xlink:title=" ">
<ellipse fill="white" stroke="#666666" cx="725.72" cy="-197.81" rx="132.23" ry="25.81"/>
<text xml:space="preserve" text-anchor="start" x="640.22" y="-200.66" font-family="Helvetica,sans-Serif" font-size="12.00">com.runehive.game.world.entity.</text>
<text xml:space="preserve" text-anchor="middle" x="725.72" y="-186.41" font-family="Helvetica,sans-Serif" font-size="12.00">Entity.isRegistered</text>
</a>
</g>
</g>
<!-- Node2&#45;&gt;Node23 -->
<g id="edge26_Node000002_Node000023" class="edge">
<title>Node2&#45;&gt;Node23</title>
<g id="a_edge26_Node000002_Node000023"><a xlink:title=" ">
<path fill="none" stroke="#63b8ff" d="M515.16,-304.41C527.18,-299.84 538.79,-294.08 549.01,-286.81 572.5,-270.08 561.43,-249.43 585.01,-232.81 593.1,-227.1 602.03,-222.33 611.35,-218.32"/>
<polygon fill="#63b8ff" stroke="#63b8ff" points="612.58,-221.6 620.6,-214.68 610.01,-215.09 612.58,-221.6"/>
</a>
</g>
</g>
<!-- Node24 -->
<g id="Node000024" class="node">
<title>Node24</title>
<g id="a_Node000024"><a xlink:href="classcom_1_1runehive_1_1game_1_1world_1_1entity_1_1_entity.html#afdf83a2e020bbacd7b805a8823fe662b" target="_top" xlink:title=" ">
<ellipse fill="white" stroke="#666666" cx="725.72" cy="-585.81" rx="132.23" ry="25.81"/>
<text xml:space="preserve" text-anchor="start" x="640.22" y="-588.66" font-family="Helvetica,sans-Serif" font-size="12.00">com.runehive.game.world.entity.</text>
<text xml:space="preserve" text-anchor="middle" x="725.72" y="-574.41" font-family="Helvetica,sans-Serif" font-size="12.00">Entity.setPosition</text>
</a>
</g>
</g>
<!-- Node2&#45;&gt;Node24 -->
<g id="edge27_Node000002_Node000024" class="edge">
<title>Node2&#45;&gt;Node24</title>
<g id="a_edge27_Node000002_Node000024"><a xlink:title=" ">
<path fill="none" stroke="#63b8ff" d="M429.72,-347.74C456.13,-390.99 514.61,-478.18 585.01,-529.81 601.63,-542 621.28,-552 640.5,-559.99"/>
<polygon fill="#63b8ff" stroke="#63b8ff" points="639.13,-563.21 649.71,-563.67 641.72,-556.71 639.13,-563.21"/>
</a>
</g>
</g>
<!-- Node27 -->
<g id="Node000027" class="node">
<title>Node27</title>
<g id="a_Node000027"><a xlink:href="classcom_1_1runehive_1_1game_1_1world_1_1entity_1_1_entity.html#a34b9b877cdc7ee49b14d42b45ef38d22" target="_top" xlink:title=" ">
<ellipse fill="white" stroke="#666666" cx="725.72" cy="-127.81" rx="132.23" ry="25.81"/>
<text xml:space="preserve" text-anchor="start" x="640.22" y="-130.66" font-family="Helvetica,sans-Serif" font-size="12.00">com.runehive.game.world.entity.</text>
<text xml:space="preserve" text-anchor="middle" x="725.72" y="-116.41" font-family="Helvetica,sans-Serif" font-size="12.00">Entity.setRegistered</text>
</a>
</g>
</g>
<!-- Node2&#45;&gt;Node27 -->
<g id="edge31_Node000002_Node000027" class="edge">
<title>Node2&#45;&gt;Node27</title>
<g id="a_edge31_Node000002_Node000027"><a xlink:title=" ">
<path fill="none" stroke="#63b8ff" d="M520.83,-305.72C531.21,-300.89 540.88,-294.71 549.01,-286.81 590.14,-246.8 543.68,-202.63 585.01,-162.81 591.2,-156.84 598.26,-151.84 605.83,-147.66"/>
<polygon fill="#63b8ff" stroke="#63b8ff" points="607.27,-150.85 614.7,-143.29 604.18,-144.57 607.27,-150.85"/>
</a>
</g>
</g>
<!-- Node4 -->
<g id="Node000004" class="node">
<title>Node4</title>
<g id="a_Node000004"><a xlink:href="classcom_1_1runehive_1_1game_1_1world_1_1region_1_1_region.html#a04dffe98ee5a4d758d8b96c69f65791f" target="_top" xlink:title=" ">
<ellipse fill="white" stroke="#666666" cx="1066.48" cy="-200.81" rx="136.47" ry="25.81"/>
<text xml:space="preserve" text-anchor="start" x="977.98" y="-203.66" font-family="Helvetica,sans-Serif" font-size="12.00">com.runehive.game.world.region.</text>
<text xml:space="preserve" text-anchor="middle" x="1066.48" y="-189.41" font-family="Helvetica,sans-Serif" font-size="12.00">Region.containsObject</text>
</a>
</g>
</g>
<!-- Node3&#45;&gt;Node4 -->
<g id="edge3_Node000003_Node000004" class="edge">
<title>Node3&#45;&gt;Node4</title>
<g id="a_edge3_Node000003_Node000004"><a xlink:title=" ">
<path fill="none" stroke="#63b8ff" d="M830.76,-358.24C843.85,-352.67 856.21,-345.38 866.43,-335.81 900.93,-303.54 866.87,-266.9 902.43,-235.81 911.61,-227.79 922.18,-221.45 933.44,-216.48"/>
<polygon fill="#63b8ff" stroke="#63b8ff" points="934.56,-219.8 942.55,-212.84 931.96,-213.3 934.56,-219.8"/>
</a>
</g>
</g>
<!-- Node3&#45;&gt;Node8 -->
<g id="edge7_Node000003_Node000008" class="edge">
<title>Node3&#45;&gt;Node8</title>
<g id="a_edge7_Node000003_Node000008"><a xlink:title=" ">
<path fill="none" stroke="#63b8ff" d="M751.2,-401.59C782.98,-433.46 841.62,-487.02 902.43,-515.81 916.79,-522.6 932.47,-528.09 948.26,-532.52"/>
<polygon fill="#63b8ff" stroke="#63b8ff" points="947.17,-535.85 957.73,-535.04 948.96,-529.09 947.17,-535.85"/>
</a>
</g>
</g>
<!-- Node9 -->
<g id="Node000009" class="node">
<title>Node9</title>
<g id="a_Node000009"><a xlink:href="classcom_1_1runehive_1_1game_1_1world_1_1object_1_1_custom_game_object.html#a15330c18465489c1c95c98f0e83625e9" target="_top" xlink:title=" ">
<ellipse fill="white" stroke="#666666" cx="1066.48" cy="-480.81" rx="162.99" ry="25.81"/>
<text xml:space="preserve" text-anchor="start" x="959.23" y="-483.66" font-family="Helvetica,sans-Serif" font-size="12.00">com.runehive.game.world.object.</text>
<text xml:space="preserve" text-anchor="middle" x="1066.48" y="-469.41" font-family="Helvetica,sans-Serif" font-size="12.00">CustomGameObject.getInstancedHeight</text>
</a>
</g>
</g>
<!-- Node3&#45;&gt;Node9 -->
<g id="edge8_Node000003_Node000009" class="edge">
<title>Node3&#45;&gt;Node9</title>
<g id="a_edge8_Node000003_Node000009"><a xlink:title=" ">
<path fill="none" stroke="#63b8ff" d="M780.49,-399.96C814.86,-414.7 860.65,-433.1 902.43,-445.81 917.4,-450.36 933.31,-454.55 949.1,-458.33"/>
<polygon fill="#63b8ff" stroke="#63b8ff" points="948,-461.66 958.53,-460.53 949.59,-454.85 948,-461.66"/>
</a>
</g>
</g>
<!-- Node3&#45;&gt;Node10 -->
<g id="edge9_Node000003_Node000010" class="edge">
<title>Node3&#45;&gt;Node10</title>
<g id="a_edge9_Node000003_Node000010"><a xlink:title=" ">
<path fill="none" stroke="#63b8ff" d="M833.4,-358.85C845.77,-353.18 857.23,-345.68 866.43,-335.81 919.1,-279.32 847.9,-220.5 902.43,-165.81 911.2,-157.02 921.6,-150.19 932.85,-144.92"/>
<polygon fill="#63b8ff" stroke="#63b8ff" points="934.13,-148.18 941.99,-141.08 931.42,-141.72 934.13,-148.18"/>
</a>
</g>
</g>
<!-- Node11 -->
<g id="Node000011" class="node">
<title>Node11</title>
<g id="a_Node000011"><a xlink:href="classcom_1_1runehive_1_1game_1_1world_1_1_world.html#af3702492a0bfe700e150763e8e976efe" target="_top" xlink:title=" ">
<ellipse fill="white" stroke="#666666" cx="1066.48" cy="-410.81" rx="110.49" ry="25.81"/>
<text xml:space="preserve" text-anchor="start" x="996.36" y="-413.66" font-family="Helvetica,sans-Serif" font-size="12.00">com.runehive.game.world.</text>
<text xml:space="preserve" text-anchor="middle" x="1066.48" y="-399.41" font-family="Helvetica,sans-Serif" font-size="12.00">World.getRegions</text>
</a>
</g>
</g>
<!-- Node3&#45;&gt;Node11 -->
<g id="edge10_Node000003_Node000011" class="edge">
<title>Node3&#45;&gt;Node11</title>
<g id="a_edge10_Node000003_Node000011"><a xlink:title=" ">
<path fill="none" stroke="#63b8ff" d="M849.02,-388.45C883.16,-391.97 920.07,-395.79 953.58,-399.25"/>
<polygon fill="#63b8ff" stroke="#63b8ff" points="952.99,-402.71 963.3,-400.25 953.71,-395.74 952.99,-402.71"/>
</a>
</g>
</g>
<!-- Node12 -->
<g id="Node000012" class="node">
<title>Node12</title>
<g id="a_Node000012"><a xlink:href="classcom_1_1runehive_1_1game_1_1world_1_1region_1_1_region_manager.html#af7f277787498291d1a833af5ece5a0e8" target="_top" xlink:title="Gets the regions surrounding a position.">
<ellipse fill="white" stroke="#666666" cx="1066.48" cy="-340.81" rx="164.05" ry="25.81"/>
<text xml:space="preserve" text-anchor="start" x="958.48" y="-343.66" font-family="Helvetica,sans-Serif" font-size="12.00">com.runehive.game.world.region.</text>
<text xml:space="preserve" text-anchor="middle" x="1066.48" y="-329.41" font-family="Helvetica,sans-Serif" font-size="12.00">RegionManager.getSurroundingRegions</text>
</a>
</g>
</g>
<!-- Node3&#45;&gt;Node12 -->
<g id="edge11_Node000003_Node000012" class="edge">
<title>Node3&#45;&gt;Node12</title>
<g id="a_edge11_Node000003_Node000012"><a xlink:title=" ">
<path fill="none" stroke="#63b8ff" d="M849.02,-363.17C870.99,-360.9 894.11,-358.52 916.72,-356.18"/>
<polygon fill="#63b8ff" stroke="#63b8ff" points="917.05,-359.66 926.63,-355.16 916.33,-352.7 917.05,-359.66"/>
</a>
</g>
</g>
<!-- Node17 -->
<g id="Node000017" class="node">
<title>Node17</title>
<g id="a_Node000017"><a xlink:href="classcom_1_1runehive_1_1game_1_1world_1_1pathfinding_1_1_traversal_map.html#a2af790bd2ef1961ce45530ec8fd5ddd3" target="_top" xlink:title="Marks a GameObject with the specified attributes on the specified Position to the TraversalMap.">
<ellipse fill="white" stroke="#666666" cx="1066.48" cy="-270.81" rx="154.5" ry="25.81"/>
<text xml:space="preserve" text-anchor="start" x="965.23" y="-273.66" font-family="Helvetica,sans-Serif" font-size="12.00">com.runehive.game.world.pathfinding.</text>
<text xml:space="preserve" text-anchor="middle" x="1066.48" y="-259.41" font-family="Helvetica,sans-Serif" font-size="12.00">TraversalMap.markObject</text>
</a>
</g>
</g>
<!-- Node3&#45;&gt;Node17 -->
<g id="edge17_Node000003_Node000017" class="edge">
<title>Node3&#45;&gt;Node17</title>
<g id="a_edge17_Node000003_Node000017"><a xlink:title=" ">
<path fill="none" stroke="#63b8ff" d="M817.2,-355.88C834.06,-350.52 851.16,-343.89 866.43,-335.81 884.84,-326.07 883.71,-314.93 902.43,-305.81 914.13,-300.12 926.74,-295.34 939.58,-291.34"/>
<polygon fill="#63b8ff" stroke="#63b8ff" points="940.35,-294.76 948.96,-288.59 938.38,-288.05 940.35,-294.76"/>
</a>
</g>
</g>
<!-- Node5 -->
<g id="Node000005" class="node">
<title>Node5</title>
<g id="a_Node000005"><a xlink:href="classcom_1_1runehive_1_1game_1_1world_1_1region_1_1_region_block.html#afc101f7d38ea300345b4223dc446b9fa" target="_top" xlink:title=" ">
<ellipse fill="white" stroke="#666666" cx="1421.03" cy="-95.81" rx="136.47" ry="25.81"/>
<text xml:space="preserve" text-anchor="start" x="1332.53" y="-98.66" font-family="Helvetica,sans-Serif" font-size="12.00">com.runehive.game.world.region.</text>
<text xml:space="preserve" text-anchor="middle" x="1421.03" y="-84.41" font-family="Helvetica,sans-Serif" font-size="12.00">RegionBlock.containsObject</text>
</a>
</g>
</g>
<!-- Node4&#45;&gt;Node5 -->
<g id="edge4_Node000004_Node000005" class="edge">
<title>Node4&#45;&gt;Node5</title>
<g id="a_edge4_Node000004_Node000005"><a xlink:title=" ">
<path fill="none" stroke="#63b8ff" d="M1178.35,-185.8C1196.41,-180.91 1214.45,-174.42 1230.53,-165.81 1250.21,-155.28 1246.92,-141.46 1266.53,-130.81 1277.88,-124.64 1290.28,-119.56 1302.94,-115.37"/>
<polygon fill="#63b8ff" stroke="#63b8ff" points="1303.66,-118.81 1312.18,-112.5 1301.59,-112.12 1303.66,-118.81"/>
</a>
</g>
</g>
<!-- Node7 -->
<g id="Node000007" class="node">
<title>Node7</title>
<g id="a_Node000007"><a xlink:href="classcom_1_1runehive_1_1game_1_1world_1_1region_1_1_region.html#a1f0b74f12f68256ec8da477a64a1482c" target="_top" xlink:title=" ">
<ellipse fill="white" stroke="#666666" cx="1421.03" cy="-25.81" rx="136.47" ry="25.81"/>
<text xml:space="preserve" text-anchor="start" x="1332.53" y="-28.66" font-family="Helvetica,sans-Serif" font-size="12.00">com.runehive.game.world.region.</text>
<text xml:space="preserve" text-anchor="middle" x="1421.03" y="-14.41" font-family="Helvetica,sans-Serif" font-size="12.00">Region.getBlock</text>
</a>
</g>
</g>
<!-- Node4&#45;&gt;Node7 -->
<g id="edge6_Node000004_Node000007" class="edge">
<title>Node4&#45;&gt;Node7</title>
<g id="a_edge6_Node000004_Node000007"><a xlink:title=" ">
<path fill="none" stroke="#63b8ff" d="M1189.58,-189.36C1204.57,-183.89 1218.73,-176.28 1230.53,-165.81 1267.43,-133.06 1229.85,-93.79 1266.53,-60.81 1274.29,-53.83 1283.16,-48.15 1292.62,-43.55"/>
<polygon fill="#63b8ff" stroke="#63b8ff" points="1293.95,-46.78 1301.71,-39.57 1291.14,-40.37 1293.95,-46.78"/>
</a>
</g>
</g>
<!-- Node6 -->
<g id="Node000006" class="node">
<title>Node6</title>
<g id="a_Node000006"><a xlink:href="classcom_1_1runehive_1_1game_1_1world_1_1region_1_1_region_block.html#a1ee4e51dfd0c6a0be0135543c5b674e5" target="_top" xlink:title=" ">
<ellipse fill="white" stroke="#666666" cx="1766.04" cy="-95.81" rx="136.47" ry="25.81"/>
<text xml:space="preserve" text-anchor="start" x="1677.54" y="-98.66" font-family="Helvetica,sans-Serif" font-size="12.00">com.runehive.game.world.region.</text>
<text xml:space="preserve" text-anchor="middle" x="1766.04" y="-84.41" font-family="Helvetica,sans-Serif" font-size="12.00">RegionBlock.getObjects</text>
</a>
</g>
</g>
<!-- Node5&#45;&gt;Node6 -->
<g id="edge5_Node000005_Node000006" class="edge">
<title>Node5&#45;&gt;Node6</title>
<g id="a_edge5_Node000005_Node000006"><a xlink:title=" ">
<path fill="none" stroke="#63b8ff" d="M1557.6,-95.81C1577.42,-95.81 1597.9,-95.81 1617.93,-95.81"/>
<polygon fill="#63b8ff" stroke="#63b8ff" points="1617.82,-99.31 1627.82,-95.81 1617.82,-92.31 1617.82,-99.31"/>
</a>
</g>
</g>
<!-- Node13 -->
<g id="Node000013" class="node">
<title>Node13</title>
<g id="a_Node000013"><a xlink:href="classcom_1_1runehive_1_1game_1_1world_1_1region_1_1_region_manager.html#a47cc7e1ea2d7610c5d496d5b659c7d53" target="_top" xlink:title="Gets a region by position.">
<ellipse fill="white" stroke="#666666" cx="1421.03" cy="-375.81" rx="136.47" ry="25.81"/>
<text xml:space="preserve" text-anchor="start" x="1332.53" y="-378.66" font-family="Helvetica,sans-Serif" font-size="12.00">com.runehive.game.world.region.</text>
<text xml:space="preserve" text-anchor="middle" x="1421.03" y="-364.41" font-family="Helvetica,sans-Serif" font-size="12.00">RegionManager.getRegion</text>
</a>
</g>
</g>
<!-- Node12&#45;&gt;Node13 -->
<g id="edge12_Node000012_Node000013" class="edge">
<title>Node12&#45;&gt;Node13</title>
<g id="a_edge12_Node000012_Node000013"><a xlink:title=" ">
<path fill="none" stroke="#63b8ff" d="M1206.31,-354.59C1233.21,-357.26 1261.32,-360.05 1287.99,-362.7"/>
<polygon fill="#63b8ff" stroke="#63b8ff" points="1287.52,-366.17 1297.81,-363.68 1288.21,-359.2 1287.52,-366.17"/>
</a>
</g>
</g>
<!-- Node14 -->
<g id="Node000014" class="node">
<title>Node14</title>
<g id="a_Node000014"><a xlink:href="classcom_1_1runehive_1_1game_1_1world_1_1region_1_1_region.html#ae6ee1ad3798088cfea31cc90c3573ad2" target="_top" xlink:title=" ">
<ellipse fill="white" stroke="#666666" cx="1421.03" cy="-533.81" rx="136.47" ry="25.81"/>
<text xml:space="preserve" text-anchor="start" x="1332.53" y="-536.66" font-family="Helvetica,sans-Serif" font-size="12.00">com.runehive.game.world.region.</text>
<text xml:space="preserve" text-anchor="middle" x="1421.03" y="-522.41" font-family="Helvetica,sans-Serif" font-size="12.00">Region.getSurroundingRegions</text>
</a>
</g>
</g>
<!-- Node12&#45;&gt;Node14 -->
<g id="edge14_Node000012_Node000014" class="edge">
<title>Node12&#45;&gt;Node14</title>
<g id="a_edge14_Node000012_Node000014"><a xlink:title=" ">
<path fill="none" stroke="#63b8ff" d="M1200.13,-355.94C1211.25,-361.03 1221.62,-367.53 1230.53,-375.81 1272.26,-414.58 1225.05,-459.77 1266.53,-498.81 1274.06,-505.89 1282.71,-511.65 1292,-516.31"/>
<polygon fill="#63b8ff" stroke="#63b8ff" points="1290.36,-519.42 1300.91,-520.34 1293.24,-513.03 1290.36,-519.42"/>
</a>
</g>
</g>
<!-- Node15 -->
<g id="Node000015" class="node">
<title>Node15</title>
<g id="a_Node000015"><a xlink:href="classcom_1_1runehive_1_1game_1_1world_1_1region_1_1_region.html#ad12f8bca35c18ec9caacbc6843895a1c" target="_top" xlink:title=" ">
<ellipse fill="white" stroke="#666666" cx="1421.03" cy="-463.81" rx="136.47" ry="25.81"/>
<text xml:space="preserve" text-anchor="start" x="1332.53" y="-466.66" font-family="Helvetica,sans-Serif" font-size="12.00">com.runehive.game.world.region.</text>
<text xml:space="preserve" text-anchor="middle" x="1421.03" y="-452.41" font-family="Helvetica,sans-Serif" font-size="12.00">Region.setSurroundingRegions</text>
</a>
</g>
</g>
<!-- Node12&#45;&gt;Node15 -->
<g id="edge15_Node000012_Node000015" class="edge">
<title>Node12&#45;&gt;Node15</title>
<g id="a_edge15_Node000012_Node000015"><a xlink:title=" ">
<path fill="none" stroke="#63b8ff" d="M1193.5,-357.5C1206.61,-362.22 1219.25,-368.21 1230.53,-375.81 1254.15,-391.72 1243.02,-412.75 1266.53,-428.81 1276.11,-435.35 1286.73,-440.69 1297.79,-445.03"/>
<polygon fill="#63b8ff" stroke="#63b8ff" points="1296.48,-448.28 1307.08,-448.39 1298.86,-441.7 1296.48,-448.28"/>
</a>
</g>
</g>
<!-- Node13&#45;&gt;Node13 -->
<g id="edge13_Node000013_Node000013" class="edge">
<title>Node13&#45;&gt;Node13</title>
<g id="a_edge13_Node000013_Node000013"><a xlink:title=" ">
<path fill="none" stroke="#63b8ff" d="M1357.93,-398.8C1350.13,-409.86 1371.17,-419.62 1421.03,-419.62 1452.98,-419.62 1473.09,-415.61 1481.37,-409.83"/>
<polygon fill="#63b8ff" stroke="#63b8ff" points="1484.73,-410.82 1483.78,-400.27 1477.94,-409.11 1484.73,-410.82"/>
</a>
</g>
</g>
<!-- Node16 -->
<g id="Node000016" class="node">
<title>Node16</title>
<g id="a_Node000016"><a xlink:href="classcom_1_1runehive_1_1game_1_1world_1_1region_1_1_region.html#ad4c470f0d3f8e4cd7fede6740d6468e7" target="_top" xlink:title="Creates a region.">
<ellipse fill="white" stroke="#666666" cx="1766.04" cy="-463.81" rx="136.47" ry="25.81"/>
<text xml:space="preserve" text-anchor="start" x="1677.54" y="-466.66" font-family="Helvetica,sans-Serif" font-size="12.00">com.runehive.game.world.region.</text>
<text xml:space="preserve" text-anchor="middle" x="1766.04" y="-452.41" font-family="Helvetica,sans-Serif" font-size="12.00">Region.Region</text>
</a>
</g>
</g>
<!-- Node15&#45;&gt;Node16 -->
<g id="edge16_Node000015_Node000016" class="edge">
<title>Node15&#45;&gt;Node16</title>
<g id="a_edge16_Node000015_Node000016"><a xlink:title=" ">
<path fill="none" stroke="#63b8ff" d="M1557.6,-463.81C1577.42,-463.81 1597.9,-463.81 1617.93,-463.81"/>
<polygon fill="#63b8ff" stroke="#63b8ff" points="1617.82,-467.31 1627.82,-463.81 1617.82,-460.31 1617.82,-467.31"/>
</a>
</g>
</g>
<!-- Node18 -->
<g id="Node000018" class="node">
<title>Node18</title>
<g id="a_Node000018"><a xlink:href="classcom_1_1runehive_1_1game_1_1world_1_1pathfinding_1_1_traversal_map.html#ad640cb52b419921b71e984ae796ef4af" target="_top" xlink:title="Marks the specified coordinates occupied by some object.">
<ellipse fill="white" stroke="#666666" cx="1421.03" cy="-165.81" rx="154.5" ry="25.81"/>
<text xml:space="preserve" text-anchor="start" x="1319.78" y="-168.66" font-family="Helvetica,sans-Serif" font-size="12.00">com.runehive.game.world.pathfinding.</text>
<text xml:space="preserve" text-anchor="middle" x="1421.03" y="-154.41" font-family="Helvetica,sans-Serif" font-size="12.00">TraversalMap.markOccupant</text>
</a>
</g>
</g>
<!-- Node17&#45;&gt;Node18 -->
<g id="edge18_Node000017_Node000018" class="edge">
<title>Node17&#45;&gt;Node18</title>
<g id="a_edge18_Node000017_Node000018"><a xlink:title=" ">
<path fill="none" stroke="#63b8ff" d="M1184.79,-253.98C1200.68,-249.33 1216.36,-243.39 1230.53,-235.81 1250.21,-225.28 1246.92,-211.46 1266.53,-200.81 1276.17,-195.57 1286.56,-191.12 1297.22,-187.33"/>
<polygon fill="#63b8ff" stroke="#63b8ff" points="1298.14,-190.71 1306.53,-184.23 1295.93,-184.07 1298.14,-190.71"/>
</a>
</g>
</g>
<!-- Node20 -->
<g id="Node000020" class="node">
<title>Node20</title>
<g id="a_Node000020"><a xlink:href="classcom_1_1runehive_1_1game_1_1world_1_1pathfinding_1_1_traversal_map.html#ab9e0de1d8780593774974152f2e42765" target="_top" xlink:title="Informs the region of an existing wall.">
<ellipse fill="white" stroke="#666666" cx="1421.03" cy="-235.81" rx="154.5" ry="25.81"/>
<text xml:space="preserve" text-anchor="start" x="1319.78" y="-238.66" font-family="Helvetica,sans-Serif" font-size="12.00">com.runehive.game.world.pathfinding.</text>
<text xml:space="preserve" text-anchor="middle" x="1421.03" y="-224.41" font-family="Helvetica,sans-Serif" font-size="12.00">TraversalMap.markWall</text>
</a>
</g>
</g>
<!-- Node17&#45;&gt;Node20 -->
<g id="edge20_Node000017_Node000020" class="edge">
<title>Node17&#45;&gt;Node20</title>
<g id="a_edge20_Node000017_Node000020"><a xlink:title=" ">
<path fill="none" stroke="#63b8ff" d="M1200.52,-257.6C1225.13,-255.16 1250.95,-252.6 1275.88,-250.12"/>
<polygon fill="#63b8ff" stroke="#63b8ff" points="1276.15,-253.61 1285.75,-249.14 1275.46,-246.65 1276.15,-253.61"/>
</a>
</g>
</g>
<!-- Node21 -->
<g id="Node000021" class="node">
<title>Node21</title>
<g id="a_Node000021"><a xlink:href="classcom_1_1runehive_1_1game_1_1world_1_1pathfinding_1_1_traversal_map.html#acb9cebf6ef660b3f43b097013cd8d69d" target="_top" xlink:title="Informs the region of an existing wall being removed.">
<ellipse fill="white" stroke="#666666" cx="1421.03" cy="-305.81" rx="154.5" ry="25.81"/>
<text xml:space="preserve" text-anchor="start" x="1319.78" y="-308.66" font-family="Helvetica,sans-Serif" font-size="12.00">com.runehive.game.world.pathfinding.</text>
<text xml:space="preserve" text-anchor="middle" x="1421.03" y="-294.41" font-family="Helvetica,sans-Serif" font-size="12.00">TraversalMap.unmarkWall</text>
</a>
</g>
</g>
<!-- Node17&#45;&gt;Node21 -->
<g id="edge21_Node000017_Node000021" class="edge">
<title>Node17&#45;&gt;Node21</title>
<g id="a_edge21_Node000017_Node000021"><a xlink:title=" ">
<path fill="none" stroke="#63b8ff" d="M1200.52,-284.02C1225.13,-286.46 1250.95,-289.02 1275.88,-291.5"/>
<polygon fill="#63b8ff" stroke="#63b8ff" points="1275.46,-294.97 1285.75,-292.48 1276.15,-288.01 1275.46,-294.97"/>
</a>
</g>
</g>
<!-- Node19 -->
<g id="Node000019" class="node">
<title>Node19</title>
<g id="a_Node000019"><a xlink:href="classcom_1_1runehive_1_1game_1_1world_1_1pathfinding_1_1_traversal_map.html#a9b155eeee0f84b0b97125e24a6302b60" target="_top" xlink:title="Unsets the specified flag from the specified position.">
<ellipse fill="white" stroke="#666666" cx="1766.04" cy="-235.81" rx="154.5" ry="25.81"/>
<text xml:space="preserve" text-anchor="start" x="1664.79" y="-238.66" font-family="Helvetica,sans-Serif" font-size="12.00">com.runehive.game.world.pathfinding.</text>
<text xml:space="preserve" text-anchor="middle" x="1766.04" y="-224.41" font-family="Helvetica,sans-Serif" font-size="12.00">TraversalMap.unset</text>
</a>
</g>
</g>
<!-- Node18&#45;&gt;Node19 -->
<g id="edge19_Node000018_Node000019" class="edge">
<title>Node18&#45;&gt;Node19</title>
<g id="a_edge19_Node000018_Node000019"><a xlink:title=" ">
<path fill="none" stroke="#63b8ff" d="M1520.33,-185.87C1562.49,-194.47 1611.91,-204.56 1655.26,-213.41"/>
<polygon fill="#63b8ff" stroke="#63b8ff" points="1654.46,-216.81 1664.95,-215.38 1655.86,-209.96 1654.46,-216.81"/>
</a>
</g>
</g>
<!-- Node21&#45;&gt;Node19 -->
<g id="edge22_Node000021_Node000019" class="edge">
<title>Node21&#45;&gt;Node19</title>
<g id="a_edge22_Node000021_Node000019"><a xlink:title=" ">
<path fill="none" stroke="#63b8ff" d="M1520.33,-285.75C1562.49,-277.15 1611.91,-267.06 1655.26,-258.21"/>
<polygon fill="#63b8ff" stroke="#63b8ff" points="1655.86,-261.66 1664.95,-256.23 1654.46,-254.81 1655.86,-261.66"/>
</a>
</g>
</g>
<!-- Node24&#45;&gt;Node8 -->
<g id="edge29_Node000024_Node000008" class="edge">
<title>Node24&#45;&gt;Node8</title>
<g id="a_edge29_Node000024_Node000008"><a xlink:title=" ">
<path fill="none" stroke="#63b8ff" d="M843.3,-573.76C873.64,-570.63 906.5,-567.24 937.4,-564.04"/>
<polygon fill="#63b8ff" stroke="#63b8ff" points="937.59,-567.54 947.18,-563.03 936.87,-560.58 937.59,-567.54"/>
</a>
</g>
</g>
<!-- Node25 -->
<g id="Node000025" class="node">
<title>Node25</title>
<g id="a_Node000025"><a xlink:href="classcom_1_1runehive_1_1game_1_1world_1_1entity_1_1_entity.html#a4d41d635e97c6677d22dd90f57e45ba5" target="_top" xlink:title="Adds this entity to the specified region.">
<ellipse fill="white" stroke="#666666" cx="1066.48" cy="-690.81" rx="132.23" ry="25.81"/>
<text xml:space="preserve" text-anchor="start" x="980.98" y="-693.66" font-family="Helvetica,sans-Serif" font-size="12.00">com.runehive.game.world.entity.</text>
<text xml:space="preserve" text-anchor="middle" x="1066.48" y="-679.41" font-family="Helvetica,sans-Serif" font-size="12.00">Entity.addToRegion</text>
</a>
</g>
</g>
<!-- Node24&#45;&gt;Node25 -->
<g id="edge28_Node000024_Node000025" class="edge">
<title>Node24&#45;&gt;Node25</title>
<g id="a_edge28_Node000024_Node000025"><a xlink:title=" ">
<path fill="none" stroke="#63b8ff" d="M780.11,-609.79C814.51,-624.56 860.49,-643.05 902.43,-655.81 920.38,-661.27 939.68,-666.2 958.51,-670.54"/>
<polygon fill="#63b8ff" stroke="#63b8ff" points="957.53,-673.9 968.05,-672.68 959.06,-667.07 957.53,-673.9"/>
</a>
</g>
</g>
<!-- Node26 -->
<g id="Node000026" class="node">
<title>Node26</title>
<g id="a_Node000026"><a xlink:href="classcom_1_1runehive_1_1game_1_1world_1_1entity_1_1_entity.html#a63126d915af5d3fb24dc111c0a5d6d63" target="_top" xlink:title="Removes this entity from the specified region.">
<ellipse fill="white" stroke="#666666" cx="1066.48" cy="-620.81" rx="132.23" ry="25.81"/>
<text xml:space="preserve" text-anchor="start" x="980.98" y="-623.66" font-family="Helvetica,sans-Serif" font-size="12.00">com.runehive.game.world.entity.</text>
<text xml:space="preserve" text-anchor="middle" x="1066.48" y="-609.41" font-family="Helvetica,sans-Serif" font-size="12.00">Entity.removeFromRegion</text>
</a>
</g>
</g>
<!-- Node24&#45;&gt;Node26 -->
<g id="edge30_Node000024_Node000026" class="edge">
<title>Node24&#45;&gt;Node26</title>
<g id="a_edge30_Node000024_Node000026"><a xlink:title=" ">
<path fill="none" stroke="#63b8ff" d="M843.3,-597.85C873.64,-600.99 906.5,-604.38 937.4,-607.58"/>
<polygon fill="#63b8ff" stroke="#63b8ff" points="936.87,-611.04 947.18,-608.59 937.59,-604.08 936.87,-611.04"/>
</a>
</g>
</g>
</g>
</svg>

<g id="navigator" transform="translate(0 0)" fill="#404254">
  <rect fill="#f2f5e9" fill-opacity="0.5" stroke="#606060" stroke-width=".5" x="0" y="0" width="60" height="60"/>
  <use id="zoomplus" xlink:href="#zoomPlus" x="17" y="9" onmousedown="handleZoom(evt,'in')"/>
  <use id="zoomminus" xlink:href="#zoomMin" x="42" y="9" onmousedown="handleZoom(evt,'out')"/>
  <use id="reset" xlink:href="#resetDef" x="30" y="36" onmousedown="handleReset()"/>
   <use id="arrowup" xlink:href="#arrowUp" x="0" y="0" onmousedown="handlePan(0,-1)"/>
  <use id="arrowright" xlink:href="#arrowRight" x="0" y="0" onmousedown="handlePan(1,0)"/>
  <use id="arrowdown" xlink:href="#arrowDown" x="0" y="0" onmousedown="handlePan(0,1)"/>
  <use id="arrowleft" xlink:href="#arrowLeft" x="0" y="0" onmousedown="handlePan(-1,0)"/>
</g>
<svg viewBox="0 0 15 15" width="100%" height="30px" preserveAspectRatio="xMaxYMin meet">
 <g id="arrow_out" transform="scale(0.3 0.3)">
  <a xlink:href="classcom_1_1runehive_1_1util_1_1parser_1_1impl_1_1_global_object_parser_ae481bff43ababeba85ed3ae16ff526e9_cgraph_org.svg" target="_base">
   <rect id="button" ry="5" rx="5" y="6" x="6" height="38" width="38"
        fill="#f2f5e9" fill-opacity="0.5" stroke="#606060" stroke-width="1.0"/>
   <path id="arrow"
     d="M 11.500037,31.436501 C 11.940474,20.09759 22.043105,11.32322 32.158766,21.979434 L 37.068811,17.246167 C 37.068811,17.246167 37.088388,32 37.088388,32 L 22.160133,31.978069 C 22.160133,31.978069 26.997745,27.140456 26.997745,27.140456 C 18.528582,18.264221 13.291696,25.230495 11.500037,31.436501 z"
     style="fill:#404040;"/>
  </a>
 </g>
</svg>

<style type='text/css'>
<![CDATA[
[data-mouse-over-selected='false'] { opacity: 0.7; }
[data-mouse-over-selected='true']  { opacity: 1.0; }
]]>
</style>
<script type="application/ecmascript"><![CDATA[
document.addEventListener('DOMContentLoaded', (event) => {
  highlightEdges();
  highlightAdjacentNodes();
});
]]></script>
</svg>
