<?xml version="1.0" encoding="UTF-8" standalone="no"?>
<!DOCTYPE svg PUBLIC "-//W3C//DTD SVG 1.1//EN"
 "http://www.w3.org/Graphics/SVG/1.1/DTD/svg11.dtd">
<!-- Generated by graphviz version 14.0.1 (20251006.0113)
 -->
<!-- Title: com.runehive.content.preset.PresetManager.activate Pages: 1 -->
<!--zoomable 746 -->

<svg id="main" version="1.1" xmlns="http://www.w3.org/2000/svg" xmlns:xlink="http://www.w3.org/1999/xlink" xml:space="preserve" onload="init(evt)">

<style type="text/css"><![CDATA[
.node, .edge {opacity: 0.7;}
.node.selected, .edge.selected {opacity: 1;}
.edge:hover path { stroke: red; }
.edge:hover polygon { stroke: red; fill: red; }
]]></style>

<defs>
  <circle id="rim" cx="0" cy="0" r="7"/>
  <circle id="rim2" cx="0" cy="0" r="3.5"/>
  <g id="zoomPlus">
    <use xlink:href="#rim" fill="#404040"><set attributeName="fill" to="#808080" begin="zoomplus.mouseover" end="zoomplus.mouseout"/></use>
    <path d="M-4,0h8M0,-4v8" fill="none" stroke="white" stroke-width="1.5" pointer-events="none"/>
  </g>
  <g id="zoomMin">
    <use xlink:href="#rim" fill="#404040"><set attributeName="fill" to="#808080" begin="zoomminus.mouseover" end="zoomminus.mouseout"/></use>
    <path d="M-4,0h8" fill="none" stroke="white" stroke-width="1.5" pointer-events="none"/>
  </g>
  <g id="arrowUp" transform="translate(30 24)">
    <use xlink:href="#rim"/>
    <path pointer-events="none" fill="none" stroke="white" stroke-width="1.5" d="M0,-3.0v7 M-2.5,-0.5L0,-3.0L2.5,-0.5"/>
  </g>
  <g id="arrowRight" transform="rotate(90) translate(36 -43)">
    <use xlink:href="#rim"/>
    <path pointer-events="none" fill="none" stroke="white" stroke-width="1.5" d="M0,-3.0v7 M-2.5,-0.5L0,-3.0L2.5,-0.5"/>
  </g>
  <g id="arrowDown" transform="rotate(180) translate(-30 -48)">
    <use xlink:href="#rim"/>
    <path pointer-events="none" fill="none" stroke="white" stroke-width="1.5" d="M0,-3.0v7 M-2.5,-0.5L0,-3.0L2.5,-0.5"/>
  </g>
  <g id="arrowLeft" transform="rotate(270) translate(-36 17)">
    <use xlink:href="#rim"/>
    <path pointer-events="none" fill="none" stroke="white" stroke-width="1.5" d="M0,-3.0v7 M-2.5,-0.5L0,-3.0L2.5,-0.5"/>
  </g>
  <g id="resetDef">
    <use xlink:href="#rim2" fill="#404040"><set attributeName="fill" to="#808080" begin="reset.mouseover" end="reset.mouseout"/></use>
  </g>
</defs>
<script type="application/ecmascript">
var viewWidth = 2336;
var viewHeight = 746;
var sectionId = 'dynsection-1';
</script>
<script type="application/ecmascript" xlink:href="svg.min.js"/>
<svg id="graph" class="graph">
<g id="viewport">
<title>com.runehive.content.preset.PresetManager.activate</title>
<!-- Node1 -->
<g id="Node000001" class="node">
<title>Node1</title>
<g id="a_Node000001"><a xlink:title="Activates the preset.">
<ellipse fill="#999999" stroke="#666666" cx="119.5" cy="-585.81" rx="119.5" ry="25.81"/>
<text xml:space="preserve" text-anchor="start" x="43" y="-588.66" font-family="Helvetica,sans-Serif" font-size="12.00">com.runehive.content.preset.</text>
<text xml:space="preserve" text-anchor="middle" x="119.5" y="-574.41" font-family="Helvetica,sans-Serif" font-size="12.00">PresetManager.activate</text>
</a>
</g>
</g>
<!-- Node2 -->
<g id="Node000002" class="node">
<title>Node2</title>
<g id="a_Node000002"><a xlink:href="classcom_1_1runehive_1_1content_1_1preset_1_1_preset_manager.html#af8c6df3ea3c301c286b7953d5466b9d3" target="_top" xlink:title=" ">
<ellipse fill="white" stroke="#666666" cx="461.86" cy="-711.81" rx="119.5" ry="25.81"/>
<text xml:space="preserve" text-anchor="start" x="385.36" y="-714.66" font-family="Helvetica,sans-Serif" font-size="12.00">com.runehive.content.preset.</text>
<text xml:space="preserve" text-anchor="middle" x="461.86" y="-700.41" font-family="Helvetica,sans-Serif" font-size="12.00">PresetManager.equipment</text>
</a>
</g>
</g>
<!-- Node1&#45;&gt;Node2 -->
<g id="edge1_Node000001_Node000002" class="edge">
<title>Node1&#45;&gt;Node2</title>
<g id="a_edge1_Node000001_Node000002"><a xlink:title=" ">
<path fill="none" stroke="#63b8ff" d="M157.71,-610.66C188.09,-629.92 232.77,-655.91 275,-671.81 299.73,-681.12 327.17,-688.52 353.21,-694.29"/>
<polygon fill="#63b8ff" stroke="#63b8ff" points="352.28,-697.67 362.79,-696.35 353.75,-690.82 352.28,-697.67"/>
</a>
</g>
</g>
<!-- Node4 -->
<g id="Node000004" class="node">
<title>Node4</title>
<g id="a_Node000004"><a xlink:href="classcom_1_1runehive_1_1content_1_1preset_1_1_preset_manager.html#a75d80ffbdad2a1dcbb2d961f746c6517" target="_top" xlink:title="Gets the current slot of the preset.">
<ellipse fill="white" stroke="#666666" cx="1204.9" cy="-621.81" rx="119.5" ry="25.81"/>
<text xml:space="preserve" text-anchor="start" x="1128.4" y="-624.66" font-family="Helvetica,sans-Serif" font-size="12.00">com.runehive.content.preset.</text>
<text xml:space="preserve" text-anchor="middle" x="1204.9" y="-610.41" font-family="Helvetica,sans-Serif" font-size="12.00">PresetManager.getSlot</text>
</a>
</g>
</g>
<!-- Node1&#45;&gt;Node4 -->
<g id="edge3_Node000001_Node000004" class="edge">
<title>Node1&#45;&gt;Node4</title>
<g id="a_edge3_Node000001_Node000004"><a xlink:title=" ">
<path fill="none" stroke="#63b8ff" d="M196.63,-605.9C221.45,-611.68 249.24,-617.35 275,-620.81 610.38,-665.8 698.19,-655.89 1036.14,-638.81 1052.81,-637.97 1070.37,-636.66 1087.61,-635.13"/>
<polygon fill="#63b8ff" stroke="#63b8ff" points="1087.73,-638.63 1097.37,-634.23 1087.09,-631.66 1087.73,-638.63"/>
</a>
</g>
</g>
<!-- Node5 -->
<g id="Node000005" class="node">
<title>Node5</title>
<g id="a_Node000005"><a xlink:href="classcom_1_1runehive_1_1content_1_1preset_1_1_preset_manager.html#af98ef55100a0ceef9a5dace23ed48e6b" target="_top" xlink:title=" ">
<ellipse fill="white" stroke="#666666" cx="461.86" cy="-410.81" rx="119.5" ry="25.81"/>
<text xml:space="preserve" text-anchor="start" x="385.36" y="-413.66" font-family="Helvetica,sans-Serif" font-size="12.00">com.runehive.content.preset.</text>
<text xml:space="preserve" text-anchor="middle" x="461.86" y="-399.41" font-family="Helvetica,sans-Serif" font-size="12.00">PresetManager.inventory</text>
</a>
</g>
</g>
<!-- Node1&#45;&gt;Node5 -->
<g id="edge4_Node000001_Node000005" class="edge">
<title>Node1&#45;&gt;Node5</title>
<g id="a_edge4_Node000001_Node000005"><a xlink:title=" ">
<path fill="none" stroke="#63b8ff" d="M167.11,-561.84C228.85,-530.1 337.65,-474.16 404.1,-439.99"/>
<polygon fill="#63b8ff" stroke="#63b8ff" points="405.35,-443.28 412.64,-435.6 402.15,-437.06 405.35,-443.28"/>
</a>
</g>
</g>
<!-- Node16 -->
<g id="Node000016" class="node">
<title>Node16</title>
<g id="a_Node000016"><a xlink:href="classcom_1_1runehive_1_1game_1_1world_1_1entity_1_1combat_1_1magic_1_1_autocast.html#a7e9e70d687e9556bc8362139d8626cc7" target="_top" xlink:title=" ">
<ellipse fill="white" stroke="#666666" cx="461.86" cy="-130.81" rx="186.85" ry="25.81"/>
<text xml:space="preserve" text-anchor="start" x="337.73" y="-133.66" font-family="Helvetica,sans-Serif" font-size="12.00">com.runehive.game.world.entity.combat.magic.</text>
<text xml:space="preserve" text-anchor="middle" x="461.86" y="-119.41" font-family="Helvetica,sans-Serif" font-size="12.00">Autocast.reset</text>
</a>
</g>
</g>
<!-- Node1&#45;&gt;Node16 -->
<g id="edge18_Node000001_Node000016" class="edge">
<title>Node1&#45;&gt;Node16</title>
<g id="a_edge18_Node000001_Node000016"><a xlink:title=" ">
<path fill="none" stroke="#63b8ff" d="M139.17,-560.18C168.09,-520.53 225.56,-441.98 275,-375.81 331.17,-300.63 397.83,-213.18 434.09,-165.76"/>
<polygon fill="#63b8ff" stroke="#63b8ff" points="436.71,-168.09 440.01,-158.02 431.15,-163.84 436.71,-168.09"/>
</a>
</g>
</g>
<!-- Node23 -->
<g id="Node000023" class="node">
<title>Node23</title>
<g id="a_Node000023"><a xlink:href="classcom_1_1runehive_1_1content_1_1preset_1_1_preset_manager.html#ac3b527c952699afe6b9554ec03bea2c8" target="_top" xlink:title="Checks if the preset is valid.">
<ellipse fill="white" stroke="#666666" cx="461.86" cy="-585.81" rx="119.5" ry="25.81"/>
<text xml:space="preserve" text-anchor="start" x="385.36" y="-588.66" font-family="Helvetica,sans-Serif" font-size="12.00">com.runehive.content.preset.</text>
<text xml:space="preserve" text-anchor="middle" x="461.86" y="-574.41" font-family="Helvetica,sans-Serif" font-size="12.00">PresetManager.valid</text>
</a>
</g>
</g>
<!-- Node1&#45;&gt;Node23 -->
<g id="edge25_Node000001_Node000023" class="edge">
<title>Node1&#45;&gt;Node23</title>
<g id="a_edge25_Node000001_Node000023"><a xlink:title=" ">
<path fill="none" stroke="#63b8ff" d="M239.06,-585.81C268.58,-585.81 300.38,-585.81 330.43,-585.81"/>
<polygon fill="#63b8ff" stroke="#63b8ff" points="330.34,-589.31 340.34,-585.81 330.34,-582.31 330.34,-589.31"/>
</a>
</g>
</g>
<!-- Node3 -->
<g id="Node000003" class="node">
<title>Node3</title>
<g id="a_Node000003"><a xlink:href="classcom_1_1runehive_1_1content_1_1preset_1_1_preset_manager.html#a9a7c598f1eb41abe2abe54113c5c2578" target="_top" xlink:title=" ">
<ellipse fill="white" stroke="#666666" cx="860.42" cy="-711.81" rx="153.44" ry="25.81"/>
<text xml:space="preserve" text-anchor="start" x="759.92" y="-714.66" font-family="Helvetica,sans-Serif" font-size="12.00">com.runehive.content.preset.</text>
<text xml:space="preserve" text-anchor="middle" x="860.42" y="-700.41" font-family="Helvetica,sans-Serif" font-size="12.00">PresetManager.hasItemRequirements</text>
</a>
</g>
</g>
<!-- Node2&#45;&gt;Node3 -->
<g id="edge2_Node000002_Node000003" class="edge">
<title>Node2&#45;&gt;Node3</title>
<g id="a_edge2_Node000002_Node000003"><a xlink:title=" ">
<path fill="none" stroke="#63b8ff" d="M581.84,-711.81C617.55,-711.81 657.38,-711.81 695.46,-711.81"/>
<polygon fill="#63b8ff" stroke="#63b8ff" points="695.17,-715.31 705.17,-711.81 695.17,-708.31 695.17,-715.31"/>
</a>
</g>
</g>
<!-- Node5&#45;&gt;Node5 -->
<g id="edge9_Node000005_Node000005" class="edge">
<title>Node5&#45;&gt;Node5</title>
<g id="a_edge9_Node000005_Node000005"><a xlink:title=" ">
<path fill="none" stroke="#63b8ff" d="M399.92,-432.9C390.39,-444.32 411.04,-454.62 461.86,-454.62 494.81,-454.62 515.07,-450.29 522.65,-444.13"/>
<polygon fill="#63b8ff" stroke="#63b8ff" points="526.11,-444.71 523.64,-434.41 519.15,-444 526.11,-444.71"/>
</a>
</g>
</g>
<!-- Node6 -->
<g id="Node000006" class="node">
<title>Node6</title>
<g id="a_Node000006"><a xlink:href="classcom_1_1runehive_1_1game_1_1world_1_1items_1_1_item.html#a4fb4580d58144398d400833bb573cf08" target="_top" xlink:title="A substitute for Object#clone() that creates another &#39;copy&#39; of this instance.">
<ellipse fill="white" stroke="#666666" cx="860.42" cy="-515.81" rx="132.76" ry="25.81"/>
<text xml:space="preserve" text-anchor="start" x="774.55" y="-518.66" font-family="Helvetica,sans-Serif" font-size="12.00">com.runehive.game.world.items.</text>
<text xml:space="preserve" text-anchor="middle" x="860.42" y="-504.41" font-family="Helvetica,sans-Serif" font-size="12.00">Item.copy</text>
</a>
</g>
</g>
<!-- Node5&#45;&gt;Node6 -->
<g id="edge5_Node000005_Node000006" class="edge">
<title>Node5&#45;&gt;Node6</title>
<g id="a_edge5_Node000005_Node000006"><a xlink:title=" ">
<path fill="none" stroke="#63b8ff" d="M526.4,-432.87C570.48,-447.67 630.73,-466.93 684.71,-480.81 705.98,-486.28 728.89,-491.41 750.9,-495.96"/>
<polygon fill="#63b8ff" stroke="#63b8ff" points="749.98,-499.35 760.48,-497.92 751.38,-492.49 749.98,-499.35"/>
</a>
</g>
</g>
<!-- Node8 -->
<g id="Node000008" class="node">
<title>Node8</title>
<g id="a_Node000008"><a xlink:href="classcom_1_1runehive_1_1game_1_1world_1_1items_1_1_item.html#a469ed0805255f62514005f11dc213676" target="_top" xlink:title="Gets the quantity of this item.">
<ellipse fill="white" stroke="#666666" cx="860.42" cy="-375.81" rx="132.76" ry="25.81"/>
<text xml:space="preserve" text-anchor="start" x="774.55" y="-378.66" font-family="Helvetica,sans-Serif" font-size="12.00">com.runehive.game.world.items.</text>
<text xml:space="preserve" text-anchor="middle" x="860.42" y="-364.41" font-family="Helvetica,sans-Serif" font-size="12.00">Item.getAmount</text>
</a>
</g>
</g>
<!-- Node5&#45;&gt;Node8 -->
<g id="edge7_Node000005_Node000008" class="edge">
<title>Node5&#45;&gt;Node8</title>
<g id="a_edge7_Node000005_Node000008"><a xlink:title=" ">
<path fill="none" stroke="#63b8ff" d="M573.06,-401.08C620.9,-396.86 677.32,-391.88 727.38,-387.46"/>
<polygon fill="#63b8ff" stroke="#63b8ff" points="727.46,-390.97 737.11,-386.6 726.84,-384 727.46,-390.97"/>
</a>
</g>
</g>
<!-- Node9 -->
<g id="Node000009" class="node">
<title>Node9</title>
<g id="a_Node000009"><a xlink:href="classcom_1_1runehive_1_1game_1_1world_1_1items_1_1_item.html#a1cec21ca5ef1783808d4ca9de1051a29" target="_top" xlink:title="Gets the identification of this item.">
<ellipse fill="white" stroke="#666666" cx="860.42" cy="-305.81" rx="132.76" ry="25.81"/>
<text xml:space="preserve" text-anchor="start" x="774.55" y="-308.66" font-family="Helvetica,sans-Serif" font-size="12.00">com.runehive.game.world.items.</text>
<text xml:space="preserve" text-anchor="middle" x="860.42" y="-294.41" font-family="Helvetica,sans-Serif" font-size="12.00">Item.getId</text>
</a>
</g>
</g>
<!-- Node5&#45;&gt;Node9 -->
<g id="edge8_Node000005_Node000009" class="edge">
<title>Node5&#45;&gt;Node9</title>
<g id="a_edge8_Node000005_Node000009"><a xlink:title=" ">
<path fill="none" stroke="#63b8ff" d="M526.4,-388.75C570.48,-373.95 630.73,-354.69 684.71,-340.81 705.98,-335.34 728.89,-330.21 750.9,-325.66"/>
<polygon fill="#63b8ff" stroke="#63b8ff" points="751.38,-329.13 760.48,-323.7 749.98,-322.27 751.38,-329.13"/>
</a>
</g>
</g>
<!-- Node10 -->
<g id="Node000010" class="node">
<title>Node10</title>
<g id="a_Node000010"><a xlink:href="classcom_1_1runehive_1_1game_1_1world_1_1items_1_1_item.html#a05ea6fb3c13b43190ac60fddb90ab365" target="_top" xlink:title="Sets the quantity of this item.">
<ellipse fill="white" stroke="#666666" cx="860.42" cy="-235.81" rx="132.76" ry="25.81"/>
<text xml:space="preserve" text-anchor="start" x="774.55" y="-238.66" font-family="Helvetica,sans-Serif" font-size="12.00">com.runehive.game.world.items.</text>
<text xml:space="preserve" text-anchor="middle" x="860.42" y="-224.41" font-family="Helvetica,sans-Serif" font-size="12.00">Item.setAmount</text>
</a>
</g>
</g>
<!-- Node5&#45;&gt;Node10 -->
<g id="edge10_Node000005_Node000010" class="edge">
<title>Node5&#45;&gt;Node10</title>
<g id="a_edge10_Node000005_Node000010"><a xlink:title=" ">
<path fill="none" stroke="#63b8ff" d="M494.27,-385.7C535.51,-354.02 611.34,-300.14 684.71,-270.81 702.36,-263.75 721.6,-258.07 740.65,-253.5"/>
<polygon fill="#63b8ff" stroke="#63b8ff" points="741.39,-256.92 750.36,-251.28 739.83,-250.1 741.39,-256.92"/>
</a>
</g>
</g>
<!-- Node11 -->
<g id="Node000011" class="node">
<title>Node11</title>
<g id="a_Node000011"><a xlink:href="classcom_1_1runehive_1_1game_1_1world_1_1items_1_1_item.html#ad4b88d1c530a088a4bb86dd775c09c16" target="_top" xlink:title="Gets the unnoted item.">
<ellipse fill="white" stroke="#666666" cx="860.42" cy="-445.81" rx="132.76" ry="25.81"/>
<text xml:space="preserve" text-anchor="start" x="774.55" y="-448.66" font-family="Helvetica,sans-Serif" font-size="12.00">com.runehive.game.world.items.</text>
<text xml:space="preserve" text-anchor="middle" x="860.42" y="-434.41" font-family="Helvetica,sans-Serif" font-size="12.00">Item.unnoted</text>
</a>
</g>
</g>
<!-- Node5&#45;&gt;Node11 -->
<g id="edge11_Node000005_Node000011" class="edge">
<title>Node5&#45;&gt;Node11</title>
<g id="a_edge11_Node000005_Node000011"><a xlink:title=" ">
<path fill="none" stroke="#63b8ff" d="M573.06,-420.54C620.9,-424.76 677.32,-429.74 727.38,-434.16"/>
<polygon fill="#63b8ff" stroke="#63b8ff" points="726.84,-437.62 737.11,-435.01 727.46,-430.65 726.84,-437.62"/>
</a>
</g>
</g>
<!-- Node7 -->
<g id="Node000007" class="node">
<title>Node7</title>
<g id="a_Node000007"><a xlink:href="classcom_1_1runehive_1_1game_1_1world_1_1items_1_1_item.html#afe3613653df532fc7418d767a450125d" target="_top" xlink:title="Creates a new Item.">
<ellipse fill="white" stroke="#666666" cx="1204.9" cy="-507.81" rx="132.76" ry="25.81"/>
<text xml:space="preserve" text-anchor="start" x="1119.02" y="-510.66" font-family="Helvetica,sans-Serif" font-size="12.00">com.runehive.game.world.items.</text>
<text xml:space="preserve" text-anchor="middle" x="1204.9" y="-496.41" font-family="Helvetica,sans-Serif" font-size="12.00">Item.Item</text>
</a>
</g>
</g>
<!-- Node6&#45;&gt;Node7 -->
<g id="edge6_Node000006_Node000007" class="edge">
<title>Node6&#45;&gt;Node7</title>
<g id="a_edge6_Node000006_Node000007"><a xlink:title=" ">
<path fill="none" stroke="#63b8ff" d="M992.37,-512.75C1014.9,-512.22 1038.42,-511.67 1061.25,-511.14"/>
<polygon fill="#63b8ff" stroke="#63b8ff" points="1061.32,-514.64 1071.23,-510.91 1061.16,-507.64 1061.32,-514.64"/>
</a>
</g>
</g>
<!-- Node11&#45;&gt;Node7 -->
<g id="edge17_Node000011_Node000007" class="edge">
<title>Node11&#45;&gt;Node7</title>
<g id="a_edge17_Node000011_Node000007"><a xlink:title=" ">
<path fill="none" stroke="#63b8ff" d="M958.65,-463.41C1001.22,-471.12 1051.34,-480.19 1095.15,-488.12"/>
<polygon fill="#63b8ff" stroke="#63b8ff" points="1094.48,-491.56 1104.94,-489.89 1095.73,-484.67 1094.48,-491.56"/>
</a>
</g>
</g>
<!-- Node12 -->
<g id="Node000012" class="node">
<title>Node12</title>
<g id="a_Node000012"><a xlink:href="classcom_1_1runehive_1_1game_1_1world_1_1items_1_1_item.html#a5008cb760d4d688a1731e0406d29c335" target="_top" xlink:title="Gets the item definition for the item identifier.">
<ellipse fill="white" stroke="#666666" cx="1549.37" cy="-422.81" rx="132.76" ry="25.81"/>
<text xml:space="preserve" text-anchor="start" x="1463.5" y="-425.66" font-family="Helvetica,sans-Serif" font-size="12.00">com.runehive.game.world.items.</text>
<text xml:space="preserve" text-anchor="middle" x="1549.37" y="-411.41" font-family="Helvetica,sans-Serif" font-size="12.00">Item.getDefinition</text>
</a>
</g>
</g>
<!-- Node11&#45;&gt;Node12 -->
<g id="edge12_Node000011_Node000012" class="edge">
<title>Node11&#45;&gt;Node12</title>
<g id="a_edge12_Node000011_Node000012"><a xlink:title=" ">
<path fill="none" stroke="#63b8ff" d="M992.06,-441.92C1087.76,-439.02 1220.78,-434.87 1337.66,-430.81 1360.22,-430.03 1384.13,-429.16 1407.45,-428.29"/>
<polygon fill="#63b8ff" stroke="#63b8ff" points="1407.46,-431.79 1417.32,-427.92 1407.2,-424.79 1407.46,-431.79"/>
</a>
</g>
</g>
<!-- Node15 -->
<g id="Node000015" class="node">
<title>Node15</title>
<g id="a_Node000015"><a xlink:href="classcom_1_1runehive_1_1game_1_1world_1_1items_1_1_item.html#a65755b67ff844e51d9acc798652d66bc" target="_top" xlink:title=" ">
<ellipse fill="white" stroke="#666666" cx="1204.9" cy="-395.81" rx="132.76" ry="25.81"/>
<text xml:space="preserve" text-anchor="start" x="1119.02" y="-398.66" font-family="Helvetica,sans-Serif" font-size="12.00">com.runehive.game.world.items.</text>
<text xml:space="preserve" text-anchor="middle" x="1204.9" y="-384.41" font-family="Helvetica,sans-Serif" font-size="12.00">Item.getUnnotedId</text>
</a>
</g>
</g>
<!-- Node11&#45;&gt;Node15 -->
<g id="edge15_Node000011_Node000015" class="edge">
<title>Node11&#45;&gt;Node15</title>
<g id="a_edge15_Node000011_Node000015"><a xlink:title=" ">
<path fill="none" stroke="#63b8ff" d="M967.91,-430.26C1005.44,-424.78 1047.84,-418.59 1086.23,-412.99"/>
<polygon fill="#63b8ff" stroke="#63b8ff" points="1086.59,-416.47 1095.98,-411.56 1085.58,-409.55 1086.59,-416.47"/>
</a>
</g>
</g>
<!-- Node13 -->
<g id="Node000013" class="node">
<title>Node13</title>
<g id="a_Node000013"><a xlink:href="classcom_1_1runehive_1_1game_1_1world_1_1items_1_1_item_definition.html#a50e4924075ee157cd3f75a8107a595fa" target="_top" xlink:title="Gets an item definition.">
<ellipse fill="white" stroke="#666666" cx="1893.85" cy="-422.81" rx="132.76" ry="25.81"/>
<text xml:space="preserve" text-anchor="start" x="1807.98" y="-425.66" font-family="Helvetica,sans-Serif" font-size="12.00">com.runehive.game.world.items.</text>
<text xml:space="preserve" text-anchor="middle" x="1893.85" y="-411.41" font-family="Helvetica,sans-Serif" font-size="12.00">ItemDefinition.get</text>
</a>
</g>
</g>
<!-- Node12&#45;&gt;Node13 -->
<g id="edge13_Node000012_Node000013" class="edge">
<title>Node12&#45;&gt;Node13</title>
<g id="a_edge13_Node000012_Node000013"><a xlink:title=" ">
<path fill="none" stroke="#63b8ff" d="M1682.29,-422.81C1704.3,-422.81 1727.22,-422.81 1749.49,-422.81"/>
<polygon fill="#63b8ff" stroke="#63b8ff" points="1749.2,-426.31 1759.2,-422.81 1749.2,-419.31 1749.2,-426.31"/>
</a>
</g>
</g>
<!-- Node14 -->
<g id="Node000014" class="node">
<title>Node14</title>
<g id="a_Node000014"><a xlink:href="classcom_1_1runehive_1_1game_1_1world_1_1items_1_1_item_definition.html#a4fafaf641c0490165d697a73006e76bf" target="_top" xlink:title=" ">
<ellipse fill="white" stroke="#666666" cx="2195.37" cy="-422.81" rx="132.76" ry="25.81"/>
<text xml:space="preserve" text-anchor="start" x="2109.49" y="-425.66" font-family="Helvetica,sans-Serif" font-size="12.00">com.runehive.game.world.items.</text>
<text xml:space="preserve" text-anchor="middle" x="2195.37" y="-411.41" font-family="Helvetica,sans-Serif" font-size="12.00">ItemDefinition.ItemDefinition</text>
</a>
</g>
</g>
<!-- Node13&#45;&gt;Node14 -->
<g id="edge14_Node000013_Node000014" class="edge">
<title>Node13&#45;&gt;Node14</title>
<g id="a_edge14_Node000013_Node000014"><a xlink:title=" ">
<path fill="none" stroke="#63b8ff" d="M2027.1,-422.81C2035.08,-422.81 2043.14,-422.81 2051.17,-422.81"/>
<polygon fill="#63b8ff" stroke="#63b8ff" points="2050.98,-426.31 2060.98,-422.81 2050.98,-419.31 2050.98,-426.31"/>
</a>
</g>
</g>
<!-- Node15&#45;&gt;Node12 -->
<g id="edge16_Node000015_Node000012" class="edge">
<title>Node15&#45;&gt;Node12</title>
<g id="a_edge16_Node000015_Node000012"><a xlink:title=" ">
<path fill="none" stroke="#63b8ff" d="M1328.57,-405.48C1356.45,-407.68 1386.19,-410.02 1414.5,-412.26"/>
<polygon fill="#63b8ff" stroke="#63b8ff" points="1413.94,-415.72 1424.19,-413.02 1414.49,-408.74 1413.94,-415.72"/>
</a>
</g>
</g>
<!-- Node17 -->
<g id="Node000017" class="node">
<title>Node17</title>
<g id="a_Node000017"><a xlink:href="classcom_1_1runehive_1_1game_1_1world_1_1entity_1_1mob_1_1player_1_1_player.html#ae108b816849177b3e7542c5ee956b30d" target="_top" xlink:title=" ">
<ellipse fill="white" stroke="#666666" cx="860.42" cy="-165.81" rx="175.72" ry="25.81"/>
<text xml:space="preserve" text-anchor="start" x="744.17" y="-168.66" font-family="Helvetica,sans-Serif" font-size="12.00">com.runehive.game.world.entity.mob.player.</text>
<text xml:space="preserve" text-anchor="middle" x="860.42" y="-154.41" font-family="Helvetica,sans-Serif" font-size="12.00">Player.isAutocast</text>
</a>
</g>
</g>
<!-- Node16&#45;&gt;Node17 -->
<g id="edge19_Node000016_Node000017" class="edge">
<title>Node16&#45;&gt;Node17</title>
<g id="a_edge19_Node000016_Node000017"><a xlink:title=" ">
<path fill="none" stroke="#63b8ff" d="M620.73,-144.74C645.94,-146.97 672.06,-149.27 697.37,-151.51"/>
<polygon fill="#63b8ff" stroke="#63b8ff" points="696.77,-154.97 707.04,-152.36 697.39,-147.99 696.77,-154.97"/>
</a>
</g>
</g>
<!-- Node18 -->
<g id="Node000018" class="node">
<title>Node18</title>
<g id="a_Node000018"><a xlink:href="classcom_1_1runehive_1_1game_1_1world_1_1entity_1_1mob_1_1player_1_1_player.html#ab8309e5d532b7540f48bf25f8dea92a8" target="_top" xlink:title=" ">
<ellipse fill="white" stroke="#666666" cx="860.42" cy="-95.81" rx="175.72" ry="25.81"/>
<text xml:space="preserve" text-anchor="start" x="744.17" y="-98.66" font-family="Helvetica,sans-Serif" font-size="12.00">com.runehive.game.world.entity.mob.player.</text>
<text xml:space="preserve" text-anchor="middle" x="860.42" y="-84.41" font-family="Helvetica,sans-Serif" font-size="12.00">Player.send</text>
</a>
</g>
</g>
<!-- Node16&#45;&gt;Node18 -->
<g id="edge20_Node000016_Node000018" class="edge">
<title>Node16&#45;&gt;Node18</title>
<g id="a_edge20_Node000016_Node000018"><a xlink:title=" ">
<path fill="none" stroke="#63b8ff" d="M620.73,-116.88C645.94,-114.65 672.06,-112.35 697.37,-110.11"/>
<polygon fill="#63b8ff" stroke="#63b8ff" points="697.39,-113.62 707.04,-109.26 696.77,-106.65 697.39,-113.62"/>
</a>
</g>
</g>
<!-- Node22 -->
<g id="Node000022" class="node">
<title>Node22</title>
<g id="a_Node000022"><a xlink:href="classcom_1_1runehive_1_1game_1_1world_1_1entity_1_1mob_1_1player_1_1_player.html#a9128b65bf3848ae3c503abe38a4d38d1" target="_top" xlink:title=" ">
<ellipse fill="white" stroke="#666666" cx="860.42" cy="-25.81" rx="175.72" ry="25.81"/>
<text xml:space="preserve" text-anchor="start" x="744.17" y="-28.66" font-family="Helvetica,sans-Serif" font-size="12.00">com.runehive.game.world.entity.mob.player.</text>
<text xml:space="preserve" text-anchor="middle" x="860.42" y="-14.41" font-family="Helvetica,sans-Serif" font-size="12.00">Player.setAutocast</text>
</a>
</g>
</g>
<!-- Node16&#45;&gt;Node22 -->
<g id="edge24_Node000016_Node000022" class="edge">
<title>Node16&#45;&gt;Node22</title>
<g id="a_edge24_Node000016_Node000022"><a xlink:title=" ">
<path fill="none" stroke="#63b8ff" d="M532.74,-106.63C576.14,-92.14 633.27,-74.04 684.71,-60.81 701.83,-56.41 720.01,-52.23 737.93,-48.39"/>
<polygon fill="#63b8ff" stroke="#63b8ff" points="738.49,-51.85 747.56,-46.36 737.05,-45 738.49,-51.85"/>
</a>
</g>
</g>
<!-- Node19 -->
<g id="Node000019" class="node">
<title>Node19</title>
<g id="a_Node000019"><a xlink:href="classcom_1_1runehive_1_1net_1_1packet_1_1_outgoing_packet.html#a3dde4d77b8c8bbd686b8e121fd6514a7" target="_top" xlink:title=" ">
<ellipse fill="white" stroke="#666666" cx="1204.9" cy="-95.81" rx="105.18" ry="25.81"/>
<text xml:space="preserve" text-anchor="start" x="1138.52" y="-98.66" font-family="Helvetica,sans-Serif" font-size="12.00">com.runehive.net.packet.</text>
<text xml:space="preserve" text-anchor="middle" x="1204.9" y="-84.41" font-family="Helvetica,sans-Serif" font-size="12.00">OutgoingPacket.execute</text>
</a>
</g>
</g>
<!-- Node18&#45;&gt;Node19 -->
<g id="edge21_Node000018_Node000019" class="edge">
<title>Node18&#45;&gt;Node19</title>
<g id="a_edge21_Node000018_Node000019"><a xlink:title=" ">
<path fill="none" stroke="#63b8ff" d="M1036.42,-95.81C1053.96,-95.81 1071.44,-95.81 1088.13,-95.81"/>
<polygon fill="#63b8ff" stroke="#63b8ff" points="1088.04,-99.31 1098.04,-95.81 1088.04,-92.31 1088.04,-99.31"/>
</a>
</g>
</g>
<!-- Node20 -->
<g id="Node000020" class="node">
<title>Node20</title>
<g id="a_Node000020"><a xlink:href="classcom_1_1runehive_1_1net_1_1packet_1_1_outgoing_packet.html#a74fc13c106ab76f87daec1e8bab6a2a1" target="_top" xlink:title=" ">
<ellipse fill="white" stroke="#666666" cx="1549.37" cy="-130.81" rx="105.18" ry="25.81"/>
<text xml:space="preserve" text-anchor="start" x="1483" y="-133.66" font-family="Helvetica,sans-Serif" font-size="12.00">com.runehive.net.packet.</text>
<text xml:space="preserve" text-anchor="middle" x="1549.37" y="-119.41" font-family="Helvetica,sans-Serif" font-size="12.00">OutgoingPacket.encode</text>
</a>
</g>
</g>
<!-- Node19&#45;&gt;Node20 -->
<g id="edge22_Node000019_Node000020" class="edge">
<title>Node19&#45;&gt;Node20</title>
<g id="a_edge22_Node000019_Node000020"><a xlink:title=" ">
<path fill="none" stroke="#63b8ff" d="M1302.67,-105.7C1345.52,-110.08 1396.1,-115.25 1440.19,-119.75"/>
<polygon fill="#63b8ff" stroke="#63b8ff" points="1439.74,-123.23 1450.05,-120.76 1440.45,-116.26 1439.74,-123.23"/>
</a>
</g>
</g>
<!-- Node21 -->
<g id="Node000021" class="node">
<title>Node21</title>
<g id="a_Node000021"><a xlink:href="classcom_1_1runehive_1_1game_1_1world_1_1entity_1_1mob_1_1player_1_1_player.html#a908fb61974719a74180d6300b838bfe1" target="_top" xlink:title=" ">
<ellipse fill="white" stroke="#666666" cx="1549.37" cy="-60.81" rx="175.72" ry="25.81"/>
<text xml:space="preserve" text-anchor="start" x="1433.12" y="-63.66" font-family="Helvetica,sans-Serif" font-size="12.00">com.runehive.game.world.entity.mob.player.</text>
<text xml:space="preserve" text-anchor="middle" x="1549.37" y="-49.41" font-family="Helvetica,sans-Serif" font-size="12.00">Player.getSession</text>
</a>
</g>
</g>
<!-- Node19&#45;&gt;Node21 -->
<g id="edge23_Node000019_Node000021" class="edge">
<title>Node19&#45;&gt;Node21</title>
<g id="a_edge23_Node000019_Node000021"><a xlink:title=" ">
<path fill="none" stroke="#63b8ff" d="M1302.67,-85.92C1330.68,-83.06 1361.99,-79.86 1392.63,-76.73"/>
<polygon fill="#63b8ff" stroke="#63b8ff" points="1392.79,-80.23 1402.38,-75.73 1392.08,-73.26 1392.79,-80.23"/>
</a>
</g>
</g>
<!-- Node24 -->
<g id="Node000024" class="node">
<title>Node24</title>
<g id="a_Node000024"><a xlink:href="classcom_1_1runehive_1_1content_1_1preset_1_1_preset_manager.html#aa67fd45d3f8e3c553f97f8e7e5c0ad95" target="_top" xlink:title="Opens the preset to the last viewed slot.">
<ellipse fill="white" stroke="#666666" cx="860.42" cy="-585.81" rx="119.5" ry="25.81"/>
<text xml:space="preserve" text-anchor="start" x="783.92" y="-588.66" font-family="Helvetica,sans-Serif" font-size="12.00">com.runehive.content.preset.</text>
<text xml:space="preserve" text-anchor="middle" x="860.42" y="-574.41" font-family="Helvetica,sans-Serif" font-size="12.00">PresetManager.open</text>
</a>
</g>
</g>
<!-- Node23&#45;&gt;Node24 -->
<g id="edge26_Node000023_Node000024" class="edge">
<title>Node23&#45;&gt;Node24</title>
<g id="a_edge26_Node000023_Node000024"><a xlink:title=" ">
<path fill="none" stroke="#63b8ff" d="M581.84,-585.81C628.31,-585.81 681.73,-585.81 729.22,-585.81"/>
<polygon fill="#63b8ff" stroke="#63b8ff" points="729.01,-589.31 739.01,-585.81 729.01,-582.31 729.01,-589.31"/>
</a>
</g>
</g>
<!-- Node24&#45;&gt;Node4 -->
<g id="edge27_Node000024_Node000004" class="edge">
<title>Node24&#45;&gt;Node4</title>
<g id="a_edge27_Node000024_Node000004"><a xlink:title=" ">
<path fill="none" stroke="#63b8ff" d="M968.38,-597.05C1005.53,-600.96 1047.41,-605.36 1085.44,-609.36"/>
<polygon fill="#63b8ff" stroke="#63b8ff" points="1084.76,-612.81 1095.08,-610.37 1085.5,-605.84 1084.76,-612.81"/>
</a>
</g>
</g>
<!-- Node24&#45;&gt;Node24 -->
<g id="edge28_Node000024_Node000024" class="edge">
<title>Node24&#45;&gt;Node24</title>
<g id="a_edge28_Node000024_Node000024"><a xlink:title=" ">
<path fill="none" stroke="#63b8ff" d="M798.11,-607.9C788.52,-619.32 809.29,-629.62 860.42,-629.62 893.58,-629.62 913.97,-625.29 921.6,-619.13"/>
<polygon fill="#63b8ff" stroke="#63b8ff" points="925.06,-619.71 922.59,-609.41 918.09,-619 925.06,-619.71"/>
</a>
</g>
</g>
</g>
</svg>

<g id="navigator" transform="translate(0 0)" fill="#404254">
  <rect fill="#f2f5e9" fill-opacity="0.5" stroke="#606060" stroke-width=".5" x="0" y="0" width="60" height="60"/>
  <use id="zoomplus" xlink:href="#zoomPlus" x="17" y="9" onmousedown="handleZoom(evt,'in')"/>
  <use id="zoomminus" xlink:href="#zoomMin" x="42" y="9" onmousedown="handleZoom(evt,'out')"/>
  <use id="reset" xlink:href="#resetDef" x="30" y="36" onmousedown="handleReset()"/>
   <use id="arrowup" xlink:href="#arrowUp" x="0" y="0" onmousedown="handlePan(0,-1)"/>
  <use id="arrowright" xlink:href="#arrowRight" x="0" y="0" onmousedown="handlePan(1,0)"/>
  <use id="arrowdown" xlink:href="#arrowDown" x="0" y="0" onmousedown="handlePan(0,1)"/>
  <use id="arrowleft" xlink:href="#arrowLeft" x="0" y="0" onmousedown="handlePan(-1,0)"/>
</g>
<svg viewBox="0 0 15 15" width="100%" height="30px" preserveAspectRatio="xMaxYMin meet">
 <g id="arrow_out" transform="scale(0.3 0.3)">
  <a xlink:href="classcom_1_1runehive_1_1content_1_1preset_1_1_preset_manager_ad341cefcec9026a5e01e1f68e879e21c_cgraph_org.svg" target="_base">
   <rect id="button" ry="5" rx="5" y="6" x="6" height="38" width="38"
        fill="#f2f5e9" fill-opacity="0.5" stroke="#606060" stroke-width="1.0"/>
   <path id="arrow"
     d="M 11.500037,31.436501 C 11.940474,20.09759 22.043105,11.32322 32.158766,21.979434 L 37.068811,17.246167 C 37.068811,17.246167 37.088388,32 37.088388,32 L 22.160133,31.978069 C 22.160133,31.978069 26.997745,27.140456 26.997745,27.140456 C 18.528582,18.264221 13.291696,25.230495 11.500037,31.436501 z"
     style="fill:#404040;"/>
  </a>
 </g>
</svg>

<style type='text/css'>
<![CDATA[
[data-mouse-over-selected='false'] { opacity: 0.7; }
[data-mouse-over-selected='true']  { opacity: 1.0; }
]]>
</style>
<script type="application/ecmascript"><![CDATA[
document.addEventListener('DOMContentLoaded', (event) => {
  highlightEdges();
  highlightAdjacentNodes();
});
]]></script>
</svg>
