<?xml version="1.0" encoding="UTF-8" standalone="no"?>
<!DOCTYPE svg PUBLIC "-//W3C//DTD SVG 1.1//EN"
 "http://www.w3.org/Graphics/SVG/1.1/DTD/svg11.dtd">
<!-- Generated by graphviz version 14.0.1 (20251006.0113)
 -->
<!-- Title: com.runehive.content.activity.inferno.InfernoCavesListener.block Pages: 1 -->
<svg width="1652pt" height="542pt"
 viewBox="0.00 0.00 1652.00 542.00" xmlns="http://www.w3.org/2000/svg" xmlns:xlink="http://www.w3.org/1999/xlink">
<g id="graph0" class="graph" transform="scale(1 1) rotate(0) translate(4 537.62)">
<title>com.runehive.content.activity.inferno.InfernoCavesListener.block</title>
<!-- Node1 -->
<g id="Node000001" class="node">
<title>Node1</title>
<g id="a_Node000001"><a xlink:title=" ">
<ellipse fill="#999999" stroke="#666666" cx="149.73" cy="-326.81" rx="149.73" ry="25.81"/>
<text xml:space="preserve" text-anchor="start" x="51.85" y="-329.66" font-family="Helvetica,sans-Serif" font-size="12.00">com.runehive.content.activity.inferno.</text>
<text xml:space="preserve" text-anchor="middle" x="149.73" y="-315.41" font-family="Helvetica,sans-Serif" font-size="12.00">InfernoCavesListener.block</text>
</a>
</g>
</g>
<!-- Node2 -->
<g id="Node000002" class="node">
<title>Node2</title>
<g id="a_Node000002"><a xlink:href="classcom_1_1runehive_1_1game_1_1world_1_1entity_1_1mob_1_1npc_1_1_npc.html#affd5bdbd86c41e122232c9c8e643b217" target="_top" xlink:title="The combat of the mob.">
<ellipse fill="white" stroke="#666666" cx="502.16" cy="-507.81" rx="166.7" ry="25.81"/>
<text xml:space="preserve" text-anchor="start" x="392.29" y="-510.66" font-family="Helvetica,sans-Serif" font-size="12.00">com.runehive.game.world.entity.mob.npc.</text>
<text xml:space="preserve" text-anchor="middle" x="502.16" y="-496.41" font-family="Helvetica,sans-Serif" font-size="12.00">Npc.getCombat</text>
</a>
</g>
</g>
<!-- Node1&#45;&gt;Node2 -->
<g id="edge1_Node000001_Node000002" class="edge">
<title>Node1&#45;&gt;Node2</title>
<g id="a_edge1_Node000001_Node000002"><a xlink:title=" ">
<path fill="none" stroke="#63b8ff" d="M176.81,-352.48C210.59,-384.27 272.62,-437.89 335.46,-467.81 349.68,-474.58 365.15,-480.26 380.73,-485.02"/>
<polygon fill="#63b8ff" stroke="#63b8ff" points="379.49,-488.31 390.07,-487.75 381.45,-481.59 379.49,-488.31"/>
</a>
</g>
</g>
<!-- Node3 -->
<g id="Node000003" class="node">
<title>Node3</title>
<g id="a_Node000003"><a xlink:href="classcom_1_1runehive_1_1game_1_1world_1_1entity_1_1mob_1_1_mob.html#a7f9f09a886babdf286840872110bb538" target="_top" xlink:title=" ">
<ellipse fill="white" stroke="#666666" cx="855.65" cy="-329.81" rx="150.79" ry="25.81"/>
<text xml:space="preserve" text-anchor="start" x="757.03" y="-332.66" font-family="Helvetica,sans-Serif" font-size="12.00">com.runehive.game.world.entity.mob.</text>
<text xml:space="preserve" text-anchor="middle" x="855.65" y="-318.41" font-family="Helvetica,sans-Serif" font-size="12.00">Mob.getCurrentHealth</text>
</a>
</g>
</g>
<!-- Node1&#45;&gt;Node3 -->
<g id="edge2_Node000001_Node000003" class="edge">
<title>Node1&#45;&gt;Node3</title>
<g id="a_edge2_Node000001_Node000003"><a xlink:title=" ">
<path fill="none" stroke="#63b8ff" d="M200.66,-302.22C237.05,-285.73 288.06,-265.49 335.46,-256.81 481.21,-230.12 523.27,-229.23 668.86,-256.81 713.18,-265.2 760.46,-283.93 796.23,-300.32"/>
<polygon fill="#63b8ff" stroke="#63b8ff" points="794.56,-303.4 805.1,-304.45 797.51,-297.05 794.56,-303.4"/>
</a>
</g>
</g>
<!-- Node4 -->
<g id="Node000004" class="node">
<title>Node4</title>
<g id="a_Node000004"><a xlink:href="classcom_1_1runehive_1_1game_1_1world_1_1entity_1_1mob_1_1_mob.html#ac1ffa95e70f2c18a6695328fb2afc585" target="_top" xlink:title="Check if an entity is an npc.">
<ellipse fill="white" stroke="#666666" cx="1193.23" cy="-399.81" rx="150.79" ry="25.81"/>
<text xml:space="preserve" text-anchor="start" x="1094.61" y="-402.66" font-family="Helvetica,sans-Serif" font-size="12.00">com.runehive.game.world.entity.mob.</text>
<text xml:space="preserve" text-anchor="middle" x="1193.23" y="-388.41" font-family="Helvetica,sans-Serif" font-size="12.00">Mob.isNpc</text>
</a>
</g>
</g>
<!-- Node1&#45;&gt;Node4 -->
<g id="edge13_Node000001_Node000004" class="edge">
<title>Node1&#45;&gt;Node4</title>
<g id="a_edge13_Node000001_Node000004"><a xlink:title=" ">
<path fill="none" stroke="#63b8ff" d="M188.4,-352.17C224.42,-374.87 281.13,-406.69 335.46,-420.81 624.15,-495.84 709.45,-462.54 1006.44,-434.81 1033.58,-432.27 1062.67,-427.7 1089.58,-422.68"/>
<polygon fill="#63b8ff" stroke="#63b8ff" points="1089.92,-426.18 1099.09,-420.86 1088.61,-419.3 1089.92,-426.18"/>
</a>
</g>
</g>
<!-- Node6 -->
<g id="Node000006" class="node">
<title>Node6</title>
<g id="a_Node000006"><a xlink:href="classcom_1_1runehive_1_1game_1_1world_1_1entity_1_1mob_1_1_mob.html#a035f8e9a61076bb97ffd1037476688d7" target="_top" xlink:title=" ">
<ellipse fill="white" stroke="#666666" cx="855.65" cy="-399.81" rx="150.79" ry="25.81"/>
<text xml:space="preserve" text-anchor="start" x="757.03" y="-402.66" font-family="Helvetica,sans-Serif" font-size="12.00">com.runehive.game.world.entity.mob.</text>
<text xml:space="preserve" text-anchor="middle" x="855.65" y="-388.41" font-family="Helvetica,sans-Serif" font-size="12.00">Mob.getMaximumHealth</text>
</a>
</g>
</g>
<!-- Node1&#45;&gt;Node6 -->
<g id="edge5_Node000001_Node000006" class="edge">
<title>Node1&#45;&gt;Node6</title>
<g id="a_edge5_Node000001_Node000006"><a xlink:title=" ">
<path fill="none" stroke="#63b8ff" d="M201.07,-351.49C237.43,-367.91 288.26,-388.02 335.46,-396.81 460.51,-420.08 605.44,-418.61 710.35,-412.6"/>
<polygon fill="#63b8ff" stroke="#63b8ff" points="710.37,-416.11 720.15,-412.02 709.96,-409.12 710.37,-416.11"/>
</a>
</g>
</g>
<!-- Node7 -->
<g id="Node000007" class="node">
<title>Node7</title>
<g id="a_Node000007"><a xlink:href="classcom_1_1runehive_1_1util_1_1_utility.html#a493263be718b90fac4e54a5fd5f960c4" target="_top" xlink:title="Gets a percentage amount.">
<ellipse fill="white" stroke="#666666" cx="502.16" cy="-291.81" rx="112.08" ry="25.81"/>
<text xml:space="preserve" text-anchor="start" x="430.91" y="-294.66" font-family="Helvetica,sans-Serif" font-size="12.00">com.runehive.util.Utility.get</text>
<text xml:space="preserve" text-anchor="middle" x="502.16" y="-280.41" font-family="Helvetica,sans-Serif" font-size="12.00">PercentageAmount</text>
</a>
</g>
</g>
<!-- Node1&#45;&gt;Node7 -->
<g id="edge7_Node000001_Node000007" class="edge">
<title>Node1&#45;&gt;Node7</title>
<g id="a_edge7_Node000001_Node000007"><a xlink:title=" ">
<path fill="none" stroke="#63b8ff" d="M280.22,-313.88C315.34,-310.37 353.1,-306.6 387.29,-303.18"/>
<polygon fill="#63b8ff" stroke="#63b8ff" points="387.63,-306.67 397.23,-302.19 386.93,-299.7 387.63,-306.67"/>
</a>
</g>
</g>
<!-- Node8 -->
<g id="Node000008" class="node">
<title>Node8</title>
<g id="a_Node000008"><a xlink:href="classcom_1_1runehive_1_1game_1_1world_1_1entity_1_1mob_1_1_mob.html#a657e624f6cac2ea87b4428e08084ca02" target="_top" xlink:title=" ">
<ellipse fill="white" stroke="#666666" cx="502.16" cy="-361.81" rx="150.79" ry="25.81"/>
<text xml:space="preserve" text-anchor="start" x="403.54" y="-364.66" font-family="Helvetica,sans-Serif" font-size="12.00">com.runehive.game.world.entity.mob.</text>
<text xml:space="preserve" text-anchor="middle" x="502.16" y="-350.41" font-family="Helvetica,sans-Serif" font-size="12.00">Mob.heal</text>
</a>
</g>
</g>
<!-- Node1&#45;&gt;Node8 -->
<g id="edge8_Node000001_Node000008" class="edge">
<title>Node1&#45;&gt;Node8</title>
<g id="a_edge8_Node000001_Node000008"><a xlink:title=" ">
<path fill="none" stroke="#63b8ff" d="M280.22,-339.74C306.07,-342.32 333.34,-345.05 359.57,-347.67"/>
<polygon fill="#63b8ff" stroke="#63b8ff" points="358.93,-351.12 369.23,-348.63 359.63,-344.16 358.93,-351.12"/>
</a>
</g>
</g>
<!-- Node9 -->
<g id="Node000009" class="node">
<title>Node9</title>
<g id="a_Node000009"><a xlink:href="classcom_1_1runehive_1_1content_1_1activity_1_1_activity_listener.html#a7ab2bd0ef551644eae0bd6fc3644b755" target="_top" xlink:title=" ">
<ellipse fill="white" stroke="#666666" cx="502.16" cy="-165.81" rx="121.62" ry="25.81"/>
<text xml:space="preserve" text-anchor="start" x="424.16" y="-168.66" font-family="Helvetica,sans-Serif" font-size="12.00">com.runehive.content.activity.</text>
<text xml:space="preserve" text-anchor="middle" x="502.16" y="-154.41" font-family="Helvetica,sans-Serif" font-size="12.00">ActivityListener.hit</text>
</a>
</g>
</g>
<!-- Node1&#45;&gt;Node9 -->
<g id="edge11_Node000001_Node000009" class="edge">
<title>Node1&#45;&gt;Node9</title>
<g id="a_edge11_Node000001_Node000009"><a xlink:title=" ">
<path fill="none" stroke="#63b8ff" d="M191.14,-301.61C227.88,-279.36 284.06,-246.93 335.46,-223.81 362.7,-211.56 393.36,-200.19 420.84,-190.82"/>
<polygon fill="#63b8ff" stroke="#63b8ff" points="421.8,-194.19 430.16,-187.68 419.57,-187.55 421.8,-194.19"/>
</a>
</g>
</g>
<!-- Node10 -->
<g id="Node000010" class="node">
<title>Node10</title>
<g id="a_Node000010"><a xlink:href="classcom_1_1runehive_1_1util_1_1_utility.html#a731ec7ec36eb8943a7385c0f6da0d15e" target="_top" xlink:title=" ">
<ellipse fill="white" stroke="#666666" cx="502.16" cy="-95.81" rx="122.68" ry="25.81"/>
<text xml:space="preserve" text-anchor="start" x="423.41" y="-98.66" font-family="Helvetica,sans-Serif" font-size="12.00">com.runehive.util.Utility.within</text>
<text xml:space="preserve" text-anchor="middle" x="502.16" y="-84.41" font-family="Helvetica,sans-Serif" font-size="12.00">Distance</text>
</a>
</g>
</g>
<!-- Node1&#45;&gt;Node10 -->
<g id="edge14_Node000001_Node000010" class="edge">
<title>Node1&#45;&gt;Node10</title>
<g id="a_edge14_Node000001_Node000010"><a xlink:title=" ">
<path fill="none" stroke="#63b8ff" d="M167.37,-300.76C196.13,-258.01 259.42,-173.5 335.46,-130.81 350.18,-122.54 366.64,-116.23 383.3,-111.4"/>
<polygon fill="#63b8ff" stroke="#63b8ff" points="384.07,-114.82 392.81,-108.83 382.25,-108.06 384.07,-114.82"/>
</a>
</g>
</g>
<!-- Node3&#45;&gt;Node4 -->
<g id="edge3_Node000003_Node000004" class="edge">
<title>Node3&#45;&gt;Node4</title>
<g id="a_edge3_Node000003_Node000004"><a xlink:title=" ">
<path fill="none" stroke="#63b8ff" d="M952.82,-349.87C994.06,-358.47 1042.42,-368.56 1084.83,-377.41"/>
<polygon fill="#63b8ff" stroke="#63b8ff" points="1084.07,-380.82 1094.57,-379.44 1085.5,-373.97 1084.07,-380.82"/>
</a>
</g>
</g>
<!-- Node5 -->
<g id="Node000005" class="node">
<title>Node5</title>
<g id="a_Node000005"><a xlink:href="classcom_1_1runehive_1_1game_1_1world_1_1entity_1_1_entity.html#a64f68055122aaf4af08787378c7ac356" target="_top" xlink:title="Gets the EntityType.">
<ellipse fill="white" stroke="#666666" cx="1512.25" cy="-399.81" rx="132.23" ry="25.81"/>
<text xml:space="preserve" text-anchor="start" x="1426.75" y="-402.66" font-family="Helvetica,sans-Serif" font-size="12.00">com.runehive.game.world.entity.</text>
<text xml:space="preserve" text-anchor="middle" x="1512.25" y="-388.41" font-family="Helvetica,sans-Serif" font-size="12.00">Entity.getType</text>
</a>
</g>
</g>
<!-- Node4&#45;&gt;Node5 -->
<g id="edge4_Node000004_Node000005" class="edge">
<title>Node4&#45;&gt;Node5</title>
<g id="a_edge4_Node000004_Node000005"><a xlink:title=" ">
<path fill="none" stroke="#63b8ff" d="M1344.39,-399.81C1352.44,-399.81 1360.51,-399.81 1368.54,-399.81"/>
<polygon fill="#63b8ff" stroke="#63b8ff" points="1368.32,-403.31 1378.32,-399.81 1368.32,-396.31 1368.32,-403.31"/>
</a>
</g>
</g>
<!-- Node6&#45;&gt;Node4 -->
<g id="edge6_Node000006_Node000004" class="edge">
<title>Node6&#45;&gt;Node4</title>
<g id="a_edge6_Node000006_Node000004"><a xlink:title=" ">
<path fill="none" stroke="#63b8ff" d="M1006.77,-399.81C1014.72,-399.81 1022.72,-399.81 1030.7,-399.81"/>
<polygon fill="#63b8ff" stroke="#63b8ff" points="1030.45,-403.31 1040.45,-399.81 1030.45,-396.31 1030.45,-403.31"/>
</a>
</g>
</g>
<!-- Node8&#45;&gt;Node3 -->
<g id="edge9_Node000008_Node000003" class="edge">
<title>Node8&#45;&gt;Node3</title>
<g id="a_edge9_Node000008_Node000003"><a xlink:title=" ">
<path fill="none" stroke="#63b8ff" d="M636.29,-349.69C660.47,-347.49 685.8,-345.18 710.28,-342.95"/>
<polygon fill="#63b8ff" stroke="#63b8ff" points="710.32,-346.46 719.96,-342.07 709.68,-339.49 710.32,-346.46"/>
</a>
</g>
</g>
<!-- Node8&#45;&gt;Node6 -->
<g id="edge10_Node000008_Node000006" class="edge">
<title>Node8&#45;&gt;Node6</title>
<g id="a_edge10_Node000008_Node000006"><a xlink:title=" ">
<path fill="none" stroke="#63b8ff" d="M630.55,-375.58C658.3,-378.58 687.8,-381.77 715.96,-384.82"/>
<polygon fill="#63b8ff" stroke="#63b8ff" points="715.28,-388.26 725.6,-385.86 716.03,-381.3 715.28,-388.26"/>
</a>
</g>
</g>
<!-- Node9&#45;&gt;Node9 -->
<g id="edge12_Node000009_Node000009" class="edge">
<title>Node9&#45;&gt;Node9</title>
<g id="a_edge12_Node000009_Node000009"><a xlink:title=" ">
<path fill="none" stroke="#63b8ff" d="M438.4,-187.9C428.59,-199.32 449.85,-209.62 502.16,-209.62 536.08,-209.62 556.94,-205.29 564.75,-199.13"/>
<polygon fill="#63b8ff" stroke="#63b8ff" points="568.2,-199.71 565.76,-189.41 561.24,-198.99 568.2,-199.71"/>
</a>
</g>
</g>
<!-- Node11 -->
<g id="Node000011" class="node">
<title>Node11</title>
<g id="a_Node000011"><a xlink:href="classcom_1_1runehive_1_1util_1_1_utility.html#af9eb94bde5c8e85696f05f773db8b7ec" target="_top" xlink:title=" ">
<ellipse fill="white" stroke="#666666" cx="855.65" cy="-95.81" rx="122.68" ry="15.73"/>
<text xml:space="preserve" text-anchor="middle" x="855.65" y="-91.53" font-family="Helvetica,sans-Serif" font-size="12.00">com.runehive.util.Utility.within</text>
</a>
</g>
</g>
<!-- Node10&#45;&gt;Node11 -->
<g id="edge15_Node000010_Node000011" class="edge">
<title>Node10&#45;&gt;Node11</title>
<g id="a_edge15_Node000010_Node000011"><a xlink:title=" ">
<path fill="none" stroke="#63b8ff" d="M625.11,-95.81C656.24,-95.81 689.86,-95.81 721.51,-95.81"/>
<polygon fill="#63b8ff" stroke="#63b8ff" points="721.11,-99.31 731.11,-95.81 721.11,-92.31 721.11,-99.31"/>
</a>
</g>
</g>
<!-- Node11&#45;&gt;Node11 -->
<g id="edge20_Node000011_Node000011" class="edge">
<title>Node11&#45;&gt;Node11</title>
<g id="a_edge20_Node000011_Node000011"><a xlink:title=" ">
<path fill="none" stroke="#63b8ff" d="M798.54,-110.02C781.23,-119.86 800.27,-129.54 855.65,-129.54 889.4,-129.54 909.65,-125.95 916.41,-120.91"/>
<polygon fill="#63b8ff" stroke="#63b8ff" points="919.74,-119.83 913.25,-111.46 913.1,-122.05 919.74,-119.83"/>
</a>
</g>
</g>
<!-- Node12 -->
<g id="Node000012" class="node">
<title>Node12</title>
<g id="a_Node000012"><a xlink:href="interfacecom_1_1runehive_1_1game_1_1world_1_1_interactable.html#a22cd7c00a274589573f03c45a0b67688" target="_top" xlink:title="Creates a new instance of an Interactable.">
<ellipse fill="white" stroke="#666666" cx="1193.23" cy="-95.81" rx="110.49" ry="25.81"/>
<text xml:space="preserve" text-anchor="start" x="1123.11" y="-98.66" font-family="Helvetica,sans-Serif" font-size="12.00">com.runehive.game.world.</text>
<text xml:space="preserve" text-anchor="middle" x="1193.23" y="-84.41" font-family="Helvetica,sans-Serif" font-size="12.00">Interactable.create</text>
</a>
</g>
</g>
<!-- Node11&#45;&gt;Node12 -->
<g id="edge16_Node000011_Node000012" class="edge">
<title>Node11&#45;&gt;Node12</title>
<g id="a_edge16_Node000011_Node000012"><a xlink:title=" ">
<path fill="none" stroke="#63b8ff" d="M978.75,-95.81C1008.83,-95.81 1041.03,-95.81 1071.06,-95.81"/>
<polygon fill="#63b8ff" stroke="#63b8ff" points="1070.94,-99.31 1080.94,-95.81 1070.94,-92.31 1070.94,-99.31"/>
</a>
</g>
</g>
<!-- Node13 -->
<g id="Node000013" class="node">
<title>Node13</title>
<g id="a_Node000013"><a xlink:href="interfacecom_1_1runehive_1_1game_1_1world_1_1_interactable.html#a49e07a60c6643c0ba33bc9754305c352" target="_top" xlink:title=" ">
<ellipse fill="white" stroke="#666666" cx="1512.25" cy="-95.81" rx="110.49" ry="25.81"/>
<text xml:space="preserve" text-anchor="start" x="1442.13" y="-98.66" font-family="Helvetica,sans-Serif" font-size="12.00">com.runehive.game.world.</text>
<text xml:space="preserve" text-anchor="middle" x="1512.25" y="-84.41" font-family="Helvetica,sans-Serif" font-size="12.00">Interactable.getPosition</text>
</a>
</g>
</g>
<!-- Node12&#45;&gt;Node13 -->
<g id="edge17_Node000012_Node000013" class="edge">
<title>Node12&#45;&gt;Node13</title>
<g id="a_edge17_Node000012_Node000013"><a xlink:title=" ">
<path fill="none" stroke="#63b8ff" d="M1303.78,-95.81C1331.66,-95.81 1361.79,-95.81 1390.22,-95.81"/>
<polygon fill="#63b8ff" stroke="#63b8ff" points="1389.92,-99.31 1399.92,-95.81 1389.92,-92.31 1389.92,-99.31"/>
</a>
</g>
</g>
<!-- Node14 -->
<g id="Node000014" class="node">
<title>Node14</title>
<g id="a_Node000014"><a xlink:href="interfacecom_1_1runehive_1_1game_1_1world_1_1_interactable.html#a9513e5e63159a738b417ceba87cd1de8" target="_top" xlink:title=" ">
<ellipse fill="white" stroke="#666666" cx="1512.25" cy="-25.81" rx="110.49" ry="25.81"/>
<text xml:space="preserve" text-anchor="start" x="1442.13" y="-28.66" font-family="Helvetica,sans-Serif" font-size="12.00">com.runehive.game.world.</text>
<text xml:space="preserve" text-anchor="middle" x="1512.25" y="-14.41" font-family="Helvetica,sans-Serif" font-size="12.00">Interactable.length</text>
</a>
</g>
</g>
<!-- Node12&#45;&gt;Node14 -->
<g id="edge18_Node000012_Node000014" class="edge">
<title>Node12&#45;&gt;Node14</title>
<g id="a_edge18_Node000012_Node000014"><a xlink:title=" ">
<path fill="none" stroke="#63b8ff" d="M1274.64,-78.05C1318.79,-68.31 1373.71,-56.18 1419.52,-46.06"/>
<polygon fill="#63b8ff" stroke="#63b8ff" points="1420.17,-49.51 1429.18,-43.93 1418.66,-42.67 1420.17,-49.51"/>
</a>
</g>
</g>
<!-- Node15 -->
<g id="Node000015" class="node">
<title>Node15</title>
<g id="a_Node000015"><a xlink:href="interfacecom_1_1runehive_1_1game_1_1world_1_1_interactable.html#ad7eb47dad8c89c478cedc32ea6fe3a5b" target="_top" xlink:title=" ">
<ellipse fill="white" stroke="#666666" cx="1512.25" cy="-165.81" rx="110.49" ry="25.81"/>
<text xml:space="preserve" text-anchor="start" x="1442.13" y="-168.66" font-family="Helvetica,sans-Serif" font-size="12.00">com.runehive.game.world.</text>
<text xml:space="preserve" text-anchor="middle" x="1512.25" y="-154.41" font-family="Helvetica,sans-Serif" font-size="12.00">Interactable.width</text>
</a>
</g>
</g>
<!-- Node12&#45;&gt;Node15 -->
<g id="edge19_Node000012_Node000015" class="edge">
<title>Node12&#45;&gt;Node15</title>
<g id="a_edge19_Node000012_Node000015"><a xlink:title=" ">
<path fill="none" stroke="#63b8ff" d="M1274.64,-113.56C1318.79,-123.31 1373.71,-135.44 1419.52,-145.55"/>
<polygon fill="#63b8ff" stroke="#63b8ff" points="1418.66,-148.95 1429.18,-147.69 1420.17,-142.11 1418.66,-148.95"/>
</a>
</g>
</g>
</g>
</svg>
