<?xml version="1.0" encoding="UTF-8" standalone="no"?>
<!DOCTYPE svg PUBLIC "-//W3C//DTD SVG 1.1//EN"
 "http://www.w3.org/Graphics/SVG/1.1/DTD/svg11.dtd">
<!-- Generated by graphviz version 14.0.1 (20251006.0113)
 -->
<!-- Title: com.runehive.content.skill.impl.mining.Mining.start Pages: 1 -->
<!--zoomable 692 -->

<svg id="main" version="1.1" xmlns="http://www.w3.org/2000/svg" xmlns:xlink="http://www.w3.org/1999/xlink" xml:space="preserve" onload="init(evt)">

<style type="text/css"><![CDATA[
.node, .edge {opacity: 0.7;}
.node.selected, .edge.selected {opacity: 1;}
.edge:hover path { stroke: red; }
.edge:hover polygon { stroke: red; fill: red; }
]]></style>

<defs>
  <circle id="rim" cx="0" cy="0" r="7"/>
  <circle id="rim2" cx="0" cy="0" r="3.5"/>
  <g id="zoomPlus">
    <use xlink:href="#rim" fill="#404040"><set attributeName="fill" to="#808080" begin="zoomplus.mouseover" end="zoomplus.mouseout"/></use>
    <path d="M-4,0h8M0,-4v8" fill="none" stroke="white" stroke-width="1.5" pointer-events="none"/>
  </g>
  <g id="zoomMin">
    <use xlink:href="#rim" fill="#404040"><set attributeName="fill" to="#808080" begin="zoomminus.mouseover" end="zoomminus.mouseout"/></use>
    <path d="M-4,0h8" fill="none" stroke="white" stroke-width="1.5" pointer-events="none"/>
  </g>
  <g id="arrowUp" transform="translate(30 24)">
    <use xlink:href="#rim"/>
    <path pointer-events="none" fill="none" stroke="white" stroke-width="1.5" d="M0,-3.0v7 M-2.5,-0.5L0,-3.0L2.5,-0.5"/>
  </g>
  <g id="arrowRight" transform="rotate(90) translate(36 -43)">
    <use xlink:href="#rim"/>
    <path pointer-events="none" fill="none" stroke="white" stroke-width="1.5" d="M0,-3.0v7 M-2.5,-0.5L0,-3.0L2.5,-0.5"/>
  </g>
  <g id="arrowDown" transform="rotate(180) translate(-30 -48)">
    <use xlink:href="#rim"/>
    <path pointer-events="none" fill="none" stroke="white" stroke-width="1.5" d="M0,-3.0v7 M-2.5,-0.5L0,-3.0L2.5,-0.5"/>
  </g>
  <g id="arrowLeft" transform="rotate(270) translate(-36 17)">
    <use xlink:href="#rim"/>
    <path pointer-events="none" fill="none" stroke="white" stroke-width="1.5" d="M0,-3.0v7 M-2.5,-0.5L0,-3.0L2.5,-0.5"/>
  </g>
  <g id="resetDef">
    <use xlink:href="#rim2" fill="#404040"><set attributeName="fill" to="#808080" begin="reset.mouseover" end="reset.mouseout"/></use>
  </g>
</defs>
<script type="application/ecmascript">
var viewWidth = 1818;
var viewHeight = 692;
var sectionId = 'dynsection-8';
</script>
<script type="application/ecmascript" xlink:href="svg.min.js"/>
<svg id="graph" class="graph">
<g id="viewport">
<title>com.runehive.content.skill.impl.mining.Mining.start</title>
<!-- Node1 -->
<g id="Node000001" class="node">
<title>Node1</title>
<g id="a_Node000001"><a xlink:title=" ">
<ellipse fill="#999999" stroke="#666666" cx="156.62" cy="-323.81" rx="156.62" ry="25.81"/>
<text xml:space="preserve" text-anchor="start" x="53.87" y="-326.66" font-family="Helvetica,sans-Serif" font-size="12.00">com.runehive.content.skill.impl.mining.</text>
<text xml:space="preserve" text-anchor="middle" x="156.62" y="-312.41" font-family="Helvetica,sans-Serif" font-size="12.00">Mining.start</text>
</a>
</g>
</g>
<!-- Node2 -->
<g id="Node000002" class="node">
<title>Node2</title>
<g id="a_Node000002"><a xlink:href="classcom_1_1runehive_1_1game_1_1world_1_1entity_1_1mob_1_1_mob.html#a763d4a9979297da0ff66b8f4b86fd5bc" target="_top" xlink:title=" ">
<ellipse fill="white" stroke="#666666" cx="524.96" cy="-639.81" rx="150.79" ry="25.81"/>
<text xml:space="preserve" text-anchor="start" x="426.34" y="-642.66" font-family="Helvetica,sans-Serif" font-size="12.00">com.runehive.game.world.entity.mob.</text>
<text xml:space="preserve" text-anchor="middle" x="524.96" y="-628.41" font-family="Helvetica,sans-Serif" font-size="12.00">Mob.animate</text>
</a>
</g>
</g>
<!-- Node1&#45;&gt;Node2 -->
<g id="edge1_Node000001_Node000002" class="edge">
<title>Node1&#45;&gt;Node2</title>
<g id="a_edge1_Node000001_Node000002"><a xlink:title=" ">
<path fill="none" stroke="#63b8ff" d="M167.32,-349.75C189.83,-406.12 251.28,-539.92 349.25,-604.81 360.23,-612.08 372.39,-617.9 385.04,-622.56"/>
<polygon fill="#63b8ff" stroke="#63b8ff" points="383.73,-625.81 394.32,-625.71 385.98,-619.18 383.73,-625.81"/>
</a>
</g>
</g>
<!-- Node3 -->
<g id="Node000003" class="node">
<title>Node3</title>
<g id="a_Node000003"><a xlink:href="classcom_1_1runehive_1_1game_1_1action_1_1_action_manager.html#a9c429bf1d7f162f6c7f8ff0aa4e44d7e" target="_top" xlink:title=" ">
<ellipse fill="white" stroke="#666666" cx="524.96" cy="-551.81" rx="112.61" ry="25.81"/>
<text xml:space="preserve" text-anchor="start" x="453.34" y="-554.66" font-family="Helvetica,sans-Serif" font-size="12.00">com.runehive.game.action.</text>
<text xml:space="preserve" text-anchor="middle" x="524.96" y="-540.41" font-family="Helvetica,sans-Serif" font-size="12.00">ActionManager.execute</text>
</a>
</g>
</g>
<!-- Node1&#45;&gt;Node3 -->
<g id="edge3_Node000001_Node000003" class="edge">
<title>Node1&#45;&gt;Node3</title>
<g id="a_edge3_Node000001_Node000003"><a xlink:title=" ">
<path fill="none" stroke="#63b8ff" d="M175.42,-349.88C205.79,-392.18 271.9,-475.22 349.25,-516.81 367.93,-526.85 389.13,-534.03 410.16,-539.15"/>
<polygon fill="#63b8ff" stroke="#63b8ff" points="409.13,-542.5 419.66,-541.31 410.69,-535.68 409.13,-542.5"/>
</a>
</g>
</g>
<!-- Node4 -->
<g id="Node000004" class="node">
<title>Node4</title>
<g id="a_Node000004"><a xlink:href="classcom_1_1runehive_1_1game_1_1world_1_1entity_1_1mob_1_1_mob.html#ab1aa62dbfa50b5a2bf76aa91687ae4a3" target="_top" xlink:title="Sets the client update flag to face a certain direction.">
<ellipse fill="white" stroke="#666666" cx="524.96" cy="-481.81" rx="150.79" ry="25.81"/>
<text xml:space="preserve" text-anchor="start" x="426.34" y="-484.66" font-family="Helvetica,sans-Serif" font-size="12.00">com.runehive.game.world.entity.mob.</text>
<text xml:space="preserve" text-anchor="middle" x="524.96" y="-470.41" font-family="Helvetica,sans-Serif" font-size="12.00">Mob.face</text>
</a>
</g>
</g>
<!-- Node1&#45;&gt;Node4 -->
<g id="edge5_Node000001_Node000004" class="edge">
<title>Node1&#45;&gt;Node4</title>
<g id="a_edge5_Node000001_Node000004"><a xlink:title=" ">
<path fill="none" stroke="#63b8ff" d="M189.14,-349.35C225.52,-377.53 288.23,-422.14 349.25,-446.81 364.66,-453.04 381.3,-458.2 397.97,-462.45"/>
<polygon fill="#63b8ff" stroke="#63b8ff" points="396.9,-465.8 407.45,-464.77 398.56,-459 396.9,-465.8"/>
</a>
</g>
</g>
<!-- Node7 -->
<g id="Node000007" class="node">
<title>Node7</title>
<g id="a_Node000007"><a xlink:href="classcom_1_1runehive_1_1game_1_1world_1_1entity_1_1skill_1_1_skill_manager.html#a8167146b6fbdc949d0d7950e5e7e3b34" target="_top" xlink:title="Gets the skill for an id.">
<ellipse fill="white" stroke="#666666" cx="524.96" cy="-411.81" rx="149.2" ry="25.81"/>
<text xml:space="preserve" text-anchor="start" x="427.46" y="-414.66" font-family="Helvetica,sans-Serif" font-size="12.00">com.runehive.game.world.entity.skill.</text>
<text xml:space="preserve" text-anchor="middle" x="524.96" y="-400.41" font-family="Helvetica,sans-Serif" font-size="12.00">SkillManager.get</text>
</a>
</g>
</g>
<!-- Node1&#45;&gt;Node7 -->
<g id="edge8_Node000001_Node000007" class="edge">
<title>Node1&#45;&gt;Node7</title>
<g id="a_edge8_Node000001_Node000007"><a xlink:title=" ">
<path fill="none" stroke="#63b8ff" d="M234.68,-346.49C269.52,-356.39 311.3,-367.77 349.25,-376.81 369.27,-381.58 390.69,-386.23 411.43,-390.51"/>
<polygon fill="#63b8ff" stroke="#63b8ff" points="410.55,-393.9 421.05,-392.47 411.95,-387.04 410.55,-393.9"/>
</a>
</g>
</g>
<!-- Node8 -->
<g id="Node000008" class="node">
<title>Node8</title>
<g id="a_Node000008"><a xlink:href="classcom_1_1runehive_1_1game_1_1world_1_1entity_1_1mob_1_1player_1_1_player.html#a330f0b0f76490448f4c6f8e68ea368c5" target="_top" xlink:title=" ">
<ellipse fill="white" stroke="#666666" cx="524.96" cy="-323.81" rx="175.72" ry="25.81"/>
<text xml:space="preserve" text-anchor="start" x="408.71" y="-326.66" font-family="Helvetica,sans-Serif" font-size="12.00">com.runehive.game.world.entity.mob.player.</text>
<text xml:space="preserve" text-anchor="middle" x="524.96" y="-312.41" font-family="Helvetica,sans-Serif" font-size="12.00">Player.message</text>
</a>
</g>
</g>
<!-- Node1&#45;&gt;Node8 -->
<g id="edge9_Node000001_Node000008" class="edge">
<title>Node1&#45;&gt;Node8</title>
<g id="a_edge9_Node000001_Node000008"><a xlink:title=" ">
<path fill="none" stroke="#63b8ff" d="M313.52,-323.81C321.46,-323.81 329.47,-323.81 337.49,-323.81"/>
<polygon fill="#63b8ff" stroke="#63b8ff" points="337.32,-327.31 347.32,-323.81 337.32,-320.31 337.32,-327.31"/>
</a>
</g>
</g>
<!-- Node13 -->
<g id="Node000013" class="node">
<title>Node13</title>
<g id="a_Node000013"><a xlink:href="classcom_1_1runehive_1_1game_1_1world_1_1_world.html#a245edcc5b77cbc6d0a4aa8a0a0125d67" target="_top" xlink:title="Submits a new event.">
<ellipse fill="white" stroke="#666666" cx="524.96" cy="-253.81" rx="110.49" ry="25.81"/>
<text xml:space="preserve" text-anchor="start" x="454.84" y="-256.66" font-family="Helvetica,sans-Serif" font-size="12.00">com.runehive.game.world.</text>
<text xml:space="preserve" text-anchor="middle" x="524.96" y="-242.41" font-family="Helvetica,sans-Serif" font-size="12.00">World.schedule</text>
</a>
</g>
</g>
<!-- Node1&#45;&gt;Node13 -->
<g id="edge15_Node000001_Node000013" class="edge">
<title>Node1&#45;&gt;Node13</title>
<g id="a_edge15_Node000001_Node000013"><a xlink:title=" ">
<path fill="none" stroke="#63b8ff" d="M260.65,-304.12C312.89,-294.14 375.98,-282.09 427.3,-272.28"/>
<polygon fill="#63b8ff" stroke="#63b8ff" points="427.75,-275.76 436.91,-270.44 426.43,-268.88 427.75,-275.76"/>
</a>
</g>
</g>
<!-- Node14 -->
<g id="Node000014" class="node">
<title>Node14</title>
<g id="a_Node000014"><a xlink:href="classcom_1_1runehive_1_1game_1_1world_1_1entity_1_1skill_1_1_skill.html#ad615e93e2180cc1d43e16348100c5491" target="_top" xlink:title=" ">
<ellipse fill="white" stroke="#666666" cx="524.96" cy="-183.81" rx="149.2" ry="25.81"/>
<text xml:space="preserve" text-anchor="start" x="427.46" y="-186.66" font-family="Helvetica,sans-Serif" font-size="12.00">com.runehive.game.world.entity.skill.</text>
<text xml:space="preserve" text-anchor="middle" x="524.96" y="-172.41" font-family="Helvetica,sans-Serif" font-size="12.00">Skill.setDoingSkill</text>
</a>
</g>
</g>
<!-- Node1&#45;&gt;Node14 -->
<g id="edge16_Node000001_Node000014" class="edge">
<title>Node1&#45;&gt;Node14</title>
<g id="a_edge16_Node000001_Node000014"><a xlink:title=" ">
<path fill="none" stroke="#63b8ff" d="M195.61,-298.45C233.14,-274.52 292.93,-239.33 349.25,-218.81 365.74,-212.8 383.5,-207.74 401.15,-203.49"/>
<polygon fill="#63b8ff" stroke="#63b8ff" points="401.69,-206.96 410.65,-201.3 400.12,-200.14 401.69,-206.96"/>
</a>
</g>
</g>
<!-- Node15 -->
<g id="Node000015" class="node">
<title>Node15</title>
<g id="a_Node000015"><a xlink:href="classcom_1_1runehive_1_1game_1_1world_1_1entity_1_1skill_1_1_skill.html#af7d5922b9dc2d188abf081584f1d7ef0" target="_top" xlink:title="Constructs a new Skill.">
<ellipse fill="white" stroke="#666666" cx="524.96" cy="-113.81" rx="149.2" ry="25.81"/>
<text xml:space="preserve" text-anchor="start" x="427.46" y="-116.66" font-family="Helvetica,sans-Serif" font-size="12.00">com.runehive.game.world.entity.skill.</text>
<text xml:space="preserve" text-anchor="middle" x="524.96" y="-102.41" font-family="Helvetica,sans-Serif" font-size="12.00">Skill.Skill</text>
</a>
</g>
</g>
<!-- Node1&#45;&gt;Node15 -->
<g id="edge17_Node000001_Node000015" class="edge">
<title>Node1&#45;&gt;Node15</title>
<g id="a_edge17_Node000001_Node000015"><a xlink:title=" ">
<path fill="none" stroke="#63b8ff" d="M177.8,-298C209.74,-259.08 275.9,-185.97 349.25,-148.81 362.68,-142 377.33,-136.52 392.23,-132.1"/>
<polygon fill="#63b8ff" stroke="#63b8ff" points="392.97,-135.53 401.66,-129.48 391.09,-128.79 392.97,-135.53"/>
</a>
</g>
</g>
<!-- Node18 -->
<g id="Node000018" class="node">
<title>Node18</title>
<g id="a_Node000018"><a xlink:href="classcom_1_1runehive_1_1game_1_1world_1_1entity_1_1mob_1_1_mob.html#ad8c9a5ff8cbfc49c63ce5fee9b1873a4" target="_top" xlink:title=" ">
<ellipse fill="white" stroke="#666666" cx="524.96" cy="-25.81" rx="150.79" ry="25.81"/>
<text xml:space="preserve" text-anchor="start" x="426.34" y="-28.66" font-family="Helvetica,sans-Serif" font-size="12.00">com.runehive.game.world.entity.mob.</text>
<text xml:space="preserve" text-anchor="middle" x="524.96" y="-14.41" font-family="Helvetica,sans-Serif" font-size="12.00">Mob.walkTo</text>
</a>
</g>
</g>
<!-- Node1&#45;&gt;Node18 -->
<g id="edge21_Node000001_Node000018" class="edge">
<title>Node1&#45;&gt;Node18</title>
<g id="a_edge21_Node000001_Node000018"><a xlink:title=" ">
<path fill="none" stroke="#63b8ff" d="M170.9,-297.69C197.68,-247.62 263.06,-137.88 349.25,-78.81 368.12,-65.87 390.25,-56.02 412.28,-48.54"/>
<polygon fill="#63b8ff" stroke="#63b8ff" points="413.2,-51.92 421.64,-45.52 411.05,-45.26 413.2,-51.92"/>
</a>
</g>
</g>
<!-- Node2&#45;&gt;Node2 -->
<g id="edge2_Node000002_Node000002" class="edge">
<title>Node2&#45;&gt;Node2</title>
<g id="a_edge2_Node000002_Node000002"><a xlink:title=" ">
<path fill="none" stroke="#63b8ff" d="M457.27,-663.25C449.88,-674.12 472.45,-683.62 524.96,-683.62 558.61,-683.62 579.96,-679.72 589.02,-674.06"/>
<polygon fill="#63b8ff" stroke="#63b8ff" points="592.3,-675.28 592.18,-664.68 585.67,-673.04 592.3,-675.28"/>
</a>
</g>
</g>
<!-- Node3&#45;&gt;Node3 -->
<g id="edge4_Node000003_Node000003" class="edge">
<title>Node3&#45;&gt;Node3</title>
<g id="a_edge4_Node000003_Node000003"><a xlink:title=" ">
<path fill="none" stroke="#63b8ff" d="M459.21,-573C446.93,-584.77 468.85,-595.62 524.96,-595.62 561.79,-595.62 583.89,-590.95 591.26,-584.41"/>
<polygon fill="#63b8ff" stroke="#63b8ff" points="594.76,-584.33 590.79,-574.51 587.77,-584.66 594.76,-584.33"/>
</a>
</g>
</g>
<!-- Node5 -->
<g id="Node000005" class="node">
<title>Node5</title>
<g id="a_Node000005"><a xlink:href="classcom_1_1runehive_1_1game_1_1world_1_1entity_1_1_entity.html#aef07d450bf9991b7b3298e8d051e672f" target="_top" xlink:title=" ">
<ellipse fill="white" stroke="#666666" cx="912.4" cy="-516.81" rx="132.23" ry="25.81"/>
<text xml:space="preserve" text-anchor="start" x="826.9" y="-519.66" font-family="Helvetica,sans-Serif" font-size="12.00">com.runehive.game.world.entity.</text>
<text xml:space="preserve" text-anchor="middle" x="912.4" y="-505.41" font-family="Helvetica,sans-Serif" font-size="12.00">Entity.equals</text>
</a>
</g>
</g>
<!-- Node4&#45;&gt;Node5 -->
<g id="edge6_Node000004_Node000005" class="edge">
<title>Node4&#45;&gt;Node5</title>
<g id="a_edge6_Node000004_Node000005"><a xlink:title=" ">
<path fill="none" stroke="#63b8ff" d="M659.15,-493.9C698.36,-497.46 741.22,-501.36 780.3,-504.9"/>
<polygon fill="#63b8ff" stroke="#63b8ff" points="779.97,-508.39 790.25,-505.81 780.61,-501.42 779.97,-508.39"/>
</a>
</g>
</g>
<!-- Node6 -->
<g id="Node000006" class="node">
<title>Node6</title>
<g id="a_Node000006"><a xlink:href="classcom_1_1runehive_1_1game_1_1world_1_1entity_1_1_entity.html#a8afdd0de68f242bf7082076dfbfffe37" target="_top" xlink:title=" ">
<ellipse fill="white" stroke="#666666" cx="912.4" cy="-446.81" rx="132.23" ry="25.81"/>
<text xml:space="preserve" text-anchor="start" x="826.9" y="-449.66" font-family="Helvetica,sans-Serif" font-size="12.00">com.runehive.game.world.entity.</text>
<text xml:space="preserve" text-anchor="middle" x="912.4" y="-435.41" font-family="Helvetica,sans-Serif" font-size="12.00">Entity.getPosition</text>
</a>
</g>
</g>
<!-- Node4&#45;&gt;Node6 -->
<g id="edge7_Node000004_Node000006" class="edge">
<title>Node4&#45;&gt;Node6</title>
<g id="a_edge7_Node000004_Node000006"><a xlink:title=" ">
<path fill="none" stroke="#63b8ff" d="M659.15,-469.72C698.36,-466.15 741.22,-462.26 780.3,-458.71"/>
<polygon fill="#63b8ff" stroke="#63b8ff" points="780.61,-462.2 790.25,-457.81 779.97,-455.23 780.61,-462.2"/>
</a>
</g>
</g>
<!-- Node8&#45;&gt;Node8 -->
<g id="edge10_Node000008_Node000008" class="edge">
<title>Node8&#45;&gt;Node8</title>
<g id="a_edge10_Node000008_Node000008"><a xlink:title=" ">
<path fill="none" stroke="#63b8ff" d="M456.98,-347.69C450.5,-358.38 473.17,-367.62 524.96,-367.62 558.15,-367.62 579.37,-363.83 588.64,-358.29"/>
<polygon fill="#63b8ff" stroke="#63b8ff" points="591.86,-359.68 592.38,-349.09 585.37,-357.04 591.86,-359.68"/>
</a>
</g>
</g>
<!-- Node9 -->
<g id="Node000009" class="node">
<title>Node9</title>
<g id="a_Node000009"><a xlink:href="classcom_1_1runehive_1_1game_1_1world_1_1entity_1_1mob_1_1player_1_1_player.html#ab8309e5d532b7540f48bf25f8dea92a8" target="_top" xlink:title=" ">
<ellipse fill="white" stroke="#666666" cx="912.4" cy="-323.81" rx="175.72" ry="25.81"/>
<text xml:space="preserve" text-anchor="start" x="796.15" y="-326.66" font-family="Helvetica,sans-Serif" font-size="12.00">com.runehive.game.world.entity.mob.player.</text>
<text xml:space="preserve" text-anchor="middle" x="912.4" y="-312.41" font-family="Helvetica,sans-Serif" font-size="12.00">Player.send</text>
</a>
</g>
</g>
<!-- Node8&#45;&gt;Node9 -->
<g id="edge11_Node000008_Node000009" class="edge">
<title>Node8&#45;&gt;Node9</title>
<g id="a_edge11_Node000008_Node000009"><a xlink:title=" ">
<path fill="none" stroke="#63b8ff" d="M700.92,-323.81C708.9,-323.81 716.92,-323.81 724.93,-323.81"/>
<polygon fill="#63b8ff" stroke="#63b8ff" points="724.72,-327.31 734.72,-323.81 724.72,-320.31 724.72,-327.31"/>
</a>
</g>
</g>
<!-- Node10 -->
<g id="Node000010" class="node">
<title>Node10</title>
<g id="a_Node000010"><a xlink:href="classcom_1_1runehive_1_1net_1_1packet_1_1_outgoing_packet.html#a3dde4d77b8c8bbd686b8e121fd6514a7" target="_top" xlink:title=" ">
<ellipse fill="white" stroke="#666666" cx="1273.31" cy="-323.81" rx="105.18" ry="25.81"/>
<text xml:space="preserve" text-anchor="start" x="1206.94" y="-326.66" font-family="Helvetica,sans-Serif" font-size="12.00">com.runehive.net.packet.</text>
<text xml:space="preserve" text-anchor="middle" x="1273.31" y="-312.41" font-family="Helvetica,sans-Serif" font-size="12.00">OutgoingPacket.execute</text>
</a>
</g>
</g>
<!-- Node9&#45;&gt;Node10 -->
<g id="edge12_Node000009_Node000010" class="edge">
<title>Node9&#45;&gt;Node10</title>
<g id="a_edge12_Node000009_Node000010"><a xlink:title=" ">
<path fill="none" stroke="#63b8ff" d="M1088.39,-323.81C1111.59,-323.81 1134.9,-323.81 1156.75,-323.81"/>
<polygon fill="#63b8ff" stroke="#63b8ff" points="1156.52,-327.31 1166.52,-323.81 1156.52,-320.31 1156.52,-327.31"/>
</a>
</g>
</g>
<!-- Node11 -->
<g id="Node000011" class="node">
<title>Node11</title>
<g id="a_Node000011"><a xlink:href="classcom_1_1runehive_1_1net_1_1packet_1_1_outgoing_packet.html#a74fc13c106ab76f87daec1e8bab6a2a1" target="_top" xlink:title=" ">
<ellipse fill="white" stroke="#666666" cx="1634.23" cy="-358.81" rx="105.18" ry="25.81"/>
<text xml:space="preserve" text-anchor="start" x="1567.85" y="-361.66" font-family="Helvetica,sans-Serif" font-size="12.00">com.runehive.net.packet.</text>
<text xml:space="preserve" text-anchor="middle" x="1634.23" y="-347.41" font-family="Helvetica,sans-Serif" font-size="12.00">OutgoingPacket.encode</text>
</a>
</g>
</g>
<!-- Node10&#45;&gt;Node11 -->
<g id="edge13_Node000010_Node000011" class="edge">
<title>Node10&#45;&gt;Node11</title>
<g id="a_edge13_Node000010_Node000011"><a xlink:title=" ">
<path fill="none" stroke="#63b8ff" d="M1371.44,-333.28C1418.72,-337.89 1475.74,-343.45 1524.48,-348.2"/>
<polygon fill="#63b8ff" stroke="#63b8ff" points="1523.91,-351.67 1534.2,-349.15 1524.59,-344.7 1523.91,-351.67"/>
</a>
</g>
</g>
<!-- Node12 -->
<g id="Node000012" class="node">
<title>Node12</title>
<g id="a_Node000012"><a xlink:href="classcom_1_1runehive_1_1game_1_1world_1_1entity_1_1mob_1_1player_1_1_player.html#a908fb61974719a74180d6300b838bfe1" target="_top" xlink:title=" ">
<ellipse fill="white" stroke="#666666" cx="1634.23" cy="-288.81" rx="175.72" ry="25.81"/>
<text xml:space="preserve" text-anchor="start" x="1517.98" y="-291.66" font-family="Helvetica,sans-Serif" font-size="12.00">com.runehive.game.world.entity.mob.player.</text>
<text xml:space="preserve" text-anchor="middle" x="1634.23" y="-277.41" font-family="Helvetica,sans-Serif" font-size="12.00">Player.getSession</text>
</a>
</g>
</g>
<!-- Node10&#45;&gt;Node12 -->
<g id="edge14_Node000010_Node000012" class="edge">
<title>Node10&#45;&gt;Node12</title>
<g id="a_edge14_Node000010_Node000012"><a xlink:title=" ">
<path fill="none" stroke="#63b8ff" d="M1371.44,-314.34C1403.38,-311.22 1439.76,-307.68 1475.03,-304.24"/>
<polygon fill="#63b8ff" stroke="#63b8ff" points="1475.32,-307.72 1484.93,-303.27 1474.64,-300.76 1475.32,-307.72"/>
</a>
</g>
</g>
<!-- Node16 -->
<g id="Node000016" class="node">
<title>Node16</title>
<g id="a_Node000016"><a xlink:href="classcom_1_1runehive_1_1game_1_1world_1_1entity_1_1skill_1_1_skill.html#a36501346a8b435a10918cd89a7677cc0" target="_top" xlink:title="Gets the level for a given experience amount.">
<ellipse fill="white" stroke="#666666" cx="912.4" cy="-113.81" rx="149.2" ry="25.81"/>
<text xml:space="preserve" text-anchor="start" x="814.9" y="-116.66" font-family="Helvetica,sans-Serif" font-size="12.00">com.runehive.game.world.entity.skill.</text>
<text xml:space="preserve" text-anchor="middle" x="912.4" y="-102.41" font-family="Helvetica,sans-Serif" font-size="12.00">Skill.getLevelForExperience</text>
</a>
</g>
</g>
<!-- Node15&#45;&gt;Node16 -->
<g id="edge18_Node000015_Node000016" class="edge">
<title>Node15&#45;&gt;Node16</title>
<g id="a_edge18_Node000015_Node000016"><a xlink:title=" ">
<path fill="none" stroke="#63b8ff" d="M674.43,-113.81C699.74,-113.81 726.12,-113.81 751.71,-113.81"/>
<polygon fill="#63b8ff" stroke="#63b8ff" points="751.49,-117.31 761.49,-113.81 751.49,-110.31 751.49,-117.31"/>
</a>
</g>
</g>
<!-- Node17 -->
<g id="Node000017" class="node">
<title>Node17</title>
<g id="a_Node000017"><a xlink:href="classcom_1_1runehive_1_1game_1_1world_1_1entity_1_1skill_1_1_skill.html#a8ccd3bb8873995593a36bebea52b5b9a" target="_top" xlink:title="Performs a binary search to quickly search for the level at the given experience.">
<ellipse fill="white" stroke="#666666" cx="1273.31" cy="-113.81" rx="149.2" ry="25.81"/>
<text xml:space="preserve" text-anchor="start" x="1175.81" y="-116.66" font-family="Helvetica,sans-Serif" font-size="12.00">com.runehive.game.world.entity.skill.</text>
<text xml:space="preserve" text-anchor="middle" x="1273.31" y="-102.41" font-family="Helvetica,sans-Serif" font-size="12.00">Skill.binarySearch</text>
</a>
</g>
</g>
<!-- Node16&#45;&gt;Node17 -->
<g id="edge19_Node000016_Node000017" class="edge">
<title>Node16&#45;&gt;Node17</title>
<g id="a_edge19_Node000016_Node000017"><a xlink:title=" ">
<path fill="none" stroke="#63b8ff" d="M1061.97,-113.81C1078.74,-113.81 1095.88,-113.81 1112.78,-113.81"/>
<polygon fill="#63b8ff" stroke="#63b8ff" points="1112.33,-117.31 1122.33,-113.81 1112.33,-110.31 1112.33,-117.31"/>
</a>
</g>
</g>
<!-- Node17&#45;&gt;Node17 -->
<g id="edge20_Node000017_Node000017" class="edge">
<title>Node17&#45;&gt;Node17</title>
<g id="a_edge20_Node000017_Node000017"><a xlink:title=" ">
<path fill="none" stroke="#63b8ff" d="M1206.98,-137.25C1199.74,-148.12 1221.85,-157.62 1273.31,-157.62 1306.28,-157.62 1327.2,-153.72 1336.08,-148.06"/>
<polygon fill="#63b8ff" stroke="#63b8ff" points="1339.36,-149.28 1339.17,-138.68 1332.71,-147.08 1339.36,-149.28"/>
</a>
</g>
</g>
<!-- Node18&#45;&gt;Node18 -->
<g id="edge23_Node000018_Node000018" class="edge">
<title>Node18&#45;&gt;Node18</title>
<g id="a_edge23_Node000018_Node000018"><a xlink:title=" ">
<path fill="none" stroke="#63b8ff" d="M457.27,-49.25C449.88,-60.12 472.45,-69.62 524.96,-69.62 558.61,-69.62 579.96,-65.72 589.02,-60.06"/>
<polygon fill="#63b8ff" stroke="#63b8ff" points="592.3,-61.28 592.18,-50.68 585.67,-59.04 592.3,-61.28"/>
</a>
</g>
</g>
<!-- Node19 -->
<g id="Node000019" class="node">
<title>Node19</title>
<g id="a_Node000019"><a xlink:href="classcom_1_1runehive_1_1game_1_1world_1_1entity_1_1mob_1_1_mob.html#a385dc0248234fddaae1b093594d7bf58" target="_top" xlink:title="The combat of the mob.">
<ellipse fill="white" stroke="#666666" cx="912.4" cy="-25.81" rx="150.79" ry="25.81"/>
<text xml:space="preserve" text-anchor="start" x="813.77" y="-28.66" font-family="Helvetica,sans-Serif" font-size="12.00">com.runehive.game.world.entity.mob.</text>
<text xml:space="preserve" text-anchor="middle" x="912.4" y="-14.41" font-family="Helvetica,sans-Serif" font-size="12.00">Mob.getCombat</text>
</a>
</g>
</g>
<!-- Node18&#45;&gt;Node19 -->
<g id="edge22_Node000018_Node000019" class="edge">
<title>Node18&#45;&gt;Node19</title>
<g id="a_edge22_Node000018_Node000019"><a xlink:title=" ">
<path fill="none" stroke="#63b8ff" d="M676.09,-25.81C700.37,-25.81 725.61,-25.81 750.15,-25.81"/>
<polygon fill="#63b8ff" stroke="#63b8ff" points="749.85,-29.31 759.85,-25.81 749.85,-22.31 749.85,-29.31"/>
</a>
</g>
</g>
</g>
</svg>

<g id="navigator" transform="translate(0 0)" fill="#404254">
  <rect fill="#f2f5e9" fill-opacity="0.5" stroke="#606060" stroke-width=".5" x="0" y="0" width="60" height="60"/>
  <use id="zoomplus" xlink:href="#zoomPlus" x="17" y="9" onmousedown="handleZoom(evt,'in')"/>
  <use id="zoomminus" xlink:href="#zoomMin" x="42" y="9" onmousedown="handleZoom(evt,'out')"/>
  <use id="reset" xlink:href="#resetDef" x="30" y="36" onmousedown="handleReset()"/>
   <use id="arrowup" xlink:href="#arrowUp" x="0" y="0" onmousedown="handlePan(0,-1)"/>
  <use id="arrowright" xlink:href="#arrowRight" x="0" y="0" onmousedown="handlePan(1,0)"/>
  <use id="arrowdown" xlink:href="#arrowDown" x="0" y="0" onmousedown="handlePan(0,1)"/>
  <use id="arrowleft" xlink:href="#arrowLeft" x="0" y="0" onmousedown="handlePan(-1,0)"/>
</g>
<svg viewBox="0 0 15 15" width="100%" height="30px" preserveAspectRatio="xMaxYMin meet">
 <g id="arrow_out" transform="scale(0.3 0.3)">
  <a xlink:href="classcom_1_1runehive_1_1content_1_1skill_1_1impl_1_1mining_1_1_mining_a4786dcc8f3e81a884348193d873a8c1a_cgraph_org.svg" target="_base">
   <rect id="button" ry="5" rx="5" y="6" x="6" height="38" width="38"
        fill="#f2f5e9" fill-opacity="0.5" stroke="#606060" stroke-width="1.0"/>
   <path id="arrow"
     d="M 11.500037,31.436501 C 11.940474,20.09759 22.043105,11.32322 32.158766,21.979434 L 37.068811,17.246167 C 37.068811,17.246167 37.088388,32 37.088388,32 L 22.160133,31.978069 C 22.160133,31.978069 26.997745,27.140456 26.997745,27.140456 C 18.528582,18.264221 13.291696,25.230495 11.500037,31.436501 z"
     style="fill:#404040;"/>
  </a>
 </g>
</svg>

<style type='text/css'>
<![CDATA[
[data-mouse-over-selected='false'] { opacity: 0.7; }
[data-mouse-over-selected='true']  { opacity: 1.0; }
]]>
</style>
<script type="application/ecmascript"><![CDATA[
document.addEventListener('DOMContentLoaded', (event) => {
  highlightEdges();
  highlightAdjacentNodes();
});
]]></script>
</svg>
