<?xml version="1.0" encoding="UTF-8" standalone="no"?>
<!DOCTYPE svg PUBLIC "-//W3C//DTD SVG 1.1//EN"
 "http://www.w3.org/Graphics/SVG/1.1/DTD/svg11.dtd">
<!-- Generated by graphviz version 14.0.1 (20251006.0113)
 -->
<!-- Title: com.runehive.content.wintertodt.Wintertodt.award Pages: 1 -->
<svg width="1751pt" height="762pt"
 viewBox="0.00 0.00 1751.00 762.00" xmlns="http://www.w3.org/2000/svg" xmlns:xlink="http://www.w3.org/1999/xlink">
<g id="graph0" class="graph" transform="scale(1 1) rotate(0) translate(4 757.62)">
<title>com.runehive.content.wintertodt.Wintertodt.award</title>
<!-- Node1 -->
<g id="Node000001" class="node">
<title>Node1</title>
<g id="a_Node000001"><a xlink:title="Handles awarding players with crates.">
<ellipse fill="#999999" stroke="#666666" cx="132.76" cy="-411.81" rx="132.76" ry="25.81"/>
<text xml:space="preserve" text-anchor="start" x="46.88" y="-414.66" font-family="Helvetica,sans-Serif" font-size="12.00">com.runehive.content.wintertodt.</text>
<text xml:space="preserve" text-anchor="middle" x="132.76" y="-400.41" font-family="Helvetica,sans-Serif" font-size="12.00">Wintertodt.award</text>
</a>
</g>
</g>
<!-- Node2 -->
<g id="Node000002" class="node">
<title>Node2</title>
<g id="a_Node000002"><a xlink:href="classcom_1_1runehive_1_1game_1_1world_1_1items_1_1containers_1_1_item_container.html#a34ef6eb550fba45ee27cbd55cd1b1c26" target="_top" xlink:title="Attempts to deposit item into this container.">
<ellipse fill="white" stroke="#666666" cx="477.23" cy="-709.81" rx="174.13" ry="25.81"/>
<text xml:space="preserve" text-anchor="start" x="362.11" y="-712.66" font-family="Helvetica,sans-Serif" font-size="12.00">com.runehive.game.world.items.containers.</text>
<text xml:space="preserve" text-anchor="middle" x="477.23" y="-698.41" font-family="Helvetica,sans-Serif" font-size="12.00">ItemContainer.add</text>
</a>
</g>
</g>
<!-- Node1&#45;&gt;Node2 -->
<g id="edge1_Node000001_Node000002" class="edge">
<title>Node1&#45;&gt;Node2</title>
<g id="a_edge1_Node000001_Node000002"><a xlink:title=" ">
<path fill="none" stroke="#63b8ff" d="M142.36,-437.67C161.6,-491.28 213.48,-614.54 301.52,-674.81 309.95,-680.58 319.12,-685.45 328.7,-689.55"/>
<polygon fill="#63b8ff" stroke="#63b8ff" points="327.23,-692.73 337.82,-693.15 329.8,-686.22 327.23,-692.73"/>
</a>
</g>
</g>
<!-- Node3 -->
<g id="Node000003" class="node">
<title>Node3</title>
<g id="a_Node000003"><a xlink:href="classcom_1_1runehive_1_1game_1_1world_1_1entity_1_1skill_1_1_skill_manager.html#a0798415df467c8807c39126e28ca7493" target="_top" xlink:title="Adds experience to a given skill.">
<ellipse fill="white" stroke="#666666" cx="477.23" cy="-621.81" rx="149.2" ry="25.81"/>
<text xml:space="preserve" text-anchor="start" x="379.73" y="-624.66" font-family="Helvetica,sans-Serif" font-size="12.00">com.runehive.game.world.entity.skill.</text>
<text xml:space="preserve" text-anchor="middle" x="477.23" y="-610.41" font-family="Helvetica,sans-Serif" font-size="12.00">SkillManager.addExperience</text>
</a>
</g>
</g>
<!-- Node1&#45;&gt;Node3 -->
<g id="edge3_Node000001_Node000003" class="edge">
<title>Node1&#45;&gt;Node3</title>
<g id="a_edge3_Node000001_Node000003"><a xlink:title=" ">
<path fill="none" stroke="#63b8ff" d="M150.65,-437.66C177.6,-476.65 234.19,-549.84 301.52,-586.81 314.27,-593.81 328.23,-599.42 342.52,-603.91"/>
<polygon fill="#63b8ff" stroke="#63b8ff" points="341.47,-607.25 352.05,-606.71 343.44,-600.53 341.47,-607.25"/>
</a>
</g>
</g>
<!-- Node4 -->
<g id="Node000004" class="node">
<title>Node4</title>
<g id="a_Node000004"><a xlink:href="classcom_1_1runehive_1_1game_1_1world_1_1entity_1_1skill_1_1_skill_manager.html#a8167146b6fbdc949d0d7950e5e7e3b34" target="_top" xlink:title="Gets the skill for an id.">
<ellipse fill="white" stroke="#666666" cx="477.23" cy="-551.81" rx="149.2" ry="25.81"/>
<text xml:space="preserve" text-anchor="start" x="379.73" y="-554.66" font-family="Helvetica,sans-Serif" font-size="12.00">com.runehive.game.world.entity.skill.</text>
<text xml:space="preserve" text-anchor="middle" x="477.23" y="-540.41" font-family="Helvetica,sans-Serif" font-size="12.00">SkillManager.get</text>
</a>
</g>
</g>
<!-- Node1&#45;&gt;Node4 -->
<g id="edge5_Node000001_Node000004" class="edge">
<title>Node1&#45;&gt;Node4</title>
<g id="a_edge5_Node000001_Node000004"><a xlink:title=" ">
<path fill="none" stroke="#63b8ff" d="M166.2,-437.14C198.66,-461.23 250.91,-496.69 301.52,-516.81 317.2,-523.04 334.13,-528.21 351.07,-532.48"/>
<polygon fill="#63b8ff" stroke="#63b8ff" points="350.17,-535.87 360.71,-534.81 351.81,-529.06 350.17,-535.87"/>
</a>
</g>
</g>
<!-- Node5 -->
<g id="Node000005" class="node">
<title>Node5</title>
<g id="a_Node000005"><a xlink:href="classcom_1_1runehive_1_1game_1_1world_1_1entity_1_1skill_1_1_skill.html#a5c62ad054481b82df350db8ccfb54ec3" target="_top" xlink:title="Gets the skill experience.">
<ellipse fill="white" stroke="#666666" cx="477.23" cy="-481.81" rx="149.2" ry="25.81"/>
<text xml:space="preserve" text-anchor="start" x="379.73" y="-484.66" font-family="Helvetica,sans-Serif" font-size="12.00">com.runehive.game.world.entity.skill.</text>
<text xml:space="preserve" text-anchor="middle" x="477.23" y="-470.41" font-family="Helvetica,sans-Serif" font-size="12.00">Skill.getExperience</text>
</a>
</g>
</g>
<!-- Node1&#45;&gt;Node5 -->
<g id="edge6_Node000001_Node000005" class="edge">
<title>Node1&#45;&gt;Node5</title>
<g id="a_edge6_Node000001_Node000005"><a xlink:title=" ">
<path fill="none" stroke="#63b8ff" d="M224.28,-430.83C249.29,-436.05 276.45,-441.68 301.52,-446.81 322.55,-451.11 345.02,-455.65 366.61,-459.99"/>
<polygon fill="#63b8ff" stroke="#63b8ff" points="365.82,-463.4 376.31,-461.94 367.2,-456.54 365.82,-463.4"/>
</a>
</g>
</g>
<!-- Node6 -->
<g id="Node000006" class="node">
<title>Node6</title>
<g id="a_Node000006"><a xlink:href="classcom_1_1runehive_1_1game_1_1world_1_1entity_1_1skill_1_1_skill.html#a36501346a8b435a10918cd89a7677cc0" target="_top" xlink:title="Gets the level for a given experience amount.">
<ellipse fill="white" stroke="#666666" cx="477.23" cy="-411.81" rx="149.2" ry="25.81"/>
<text xml:space="preserve" text-anchor="start" x="379.73" y="-414.66" font-family="Helvetica,sans-Serif" font-size="12.00">com.runehive.game.world.entity.skill.</text>
<text xml:space="preserve" text-anchor="middle" x="477.23" y="-400.41" font-family="Helvetica,sans-Serif" font-size="12.00">Skill.getLevelForExperience</text>
</a>
</g>
</g>
<!-- Node1&#45;&gt;Node6 -->
<g id="edge7_Node000001_Node000006" class="edge">
<title>Node1&#45;&gt;Node6</title>
<g id="a_edge7_Node000001_Node000006"><a xlink:title=" ">
<path fill="none" stroke="#63b8ff" d="M265.68,-411.81C282.3,-411.81 299.43,-411.81 316.42,-411.81"/>
<polygon fill="#63b8ff" stroke="#63b8ff" points="316.04,-415.31 326.04,-411.81 316.04,-408.31 316.04,-415.31"/>
</a>
</g>
</g>
<!-- Node8 -->
<g id="Node000008" class="node">
<title>Node8</title>
<g id="a_Node000008"><a xlink:href="classcom_1_1runehive_1_1content_1_1collectionlog_1_1_collection_log.html#a9e6d2c4d4835df95dc4bef1e16e4d05e" target="_top" xlink:title=" ">
<ellipse fill="white" stroke="#666666" cx="477.23" cy="-341.81" rx="143.9" ry="25.81"/>
<text xml:space="preserve" text-anchor="start" x="383.48" y="-344.66" font-family="Helvetica,sans-Serif" font-size="12.00">com.runehive.content.collectionlog.</text>
<text xml:space="preserve" text-anchor="middle" x="477.23" y="-330.41" font-family="Helvetica,sans-Serif" font-size="12.00">CollectionLog.increaseCounter</text>
</a>
</g>
</g>
<!-- Node1&#45;&gt;Node8 -->
<g id="edge10_Node000001_Node000008" class="edge">
<title>Node1&#45;&gt;Node8</title>
<g id="a_edge10_Node000001_Node000008"><a xlink:title=" ">
<path fill="none" stroke="#63b8ff" d="M224.28,-392.79C249.29,-387.57 276.45,-381.94 301.52,-376.81 323.04,-372.41 346.06,-367.76 368.1,-363.33"/>
<polygon fill="#63b8ff" stroke="#63b8ff" points="368.57,-366.81 377.69,-361.41 367.19,-359.94 368.57,-366.81"/>
</a>
</g>
</g>
<!-- Node12 -->
<g id="Node000012" class="node">
<title>Node12</title>
<g id="a_Node000012"><a xlink:href="classcom_1_1runehive_1_1game_1_1world_1_1entity_1_1mob_1_1player_1_1_player.html#a330f0b0f76490448f4c6f8e68ea368c5" target="_top" xlink:title=" ">
<ellipse fill="white" stroke="#666666" cx="477.23" cy="-253.81" rx="175.72" ry="25.81"/>
<text xml:space="preserve" text-anchor="start" x="360.98" y="-256.66" font-family="Helvetica,sans-Serif" font-size="12.00">com.runehive.game.world.entity.mob.player.</text>
<text xml:space="preserve" text-anchor="middle" x="477.23" y="-242.41" font-family="Helvetica,sans-Serif" font-size="12.00">Player.message</text>
</a>
</g>
</g>
<!-- Node1&#45;&gt;Node12 -->
<g id="edge14_Node000001_Node000012" class="edge">
<title>Node1&#45;&gt;Node12</title>
<g id="a_edge14_Node000001_Node000012"><a xlink:title=" ">
<path fill="none" stroke="#63b8ff" d="M167.9,-386.64C200.77,-363.36 252.57,-329.07 301.52,-306.81 324.77,-296.23 350.69,-287.07 375.3,-279.47"/>
<polygon fill="#63b8ff" stroke="#63b8ff" points="376.12,-282.88 384.68,-276.63 374.09,-276.17 376.12,-282.88"/>
</a>
</g>
</g>
<!-- Node17 -->
<g id="Node000017" class="node">
<title>Node17</title>
<g id="a_Node000017"><a xlink:href="classcom_1_1runehive_1_1game_1_1world_1_1items_1_1containers_1_1inventory_1_1_inventory.html#a6ffa833eae849aeb1e7e17ac268cf3dd" target="_top" xlink:title="Refreshes the players inventory.">
<ellipse fill="white" stroke="#666666" cx="899.14" cy="-165.81" rx="210.19" ry="25.81"/>
<text xml:space="preserve" text-anchor="start" x="758.51" y="-168.66" font-family="Helvetica,sans-Serif" font-size="12.00">com.runehive.game.world.items.containers.inventory.</text>
<text xml:space="preserve" text-anchor="middle" x="899.14" y="-154.41" font-family="Helvetica,sans-Serif" font-size="12.00">Inventory.refresh</text>
</a>
</g>
</g>
<!-- Node1&#45;&gt;Node17 -->
<g id="edge20_Node000001_Node000017" class="edge">
<title>Node1&#45;&gt;Node17</title>
<g id="a_edge20_Node000001_Node000017"><a xlink:title=" ">
<path fill="none" stroke="#63b8ff" d="M147.44,-385.88C171.85,-342.59 227.38,-256.65 301.52,-218.81 365.77,-186.02 535.62,-173.2 677.73,-168.34"/>
<polygon fill="#63b8ff" stroke="#63b8ff" points="677.82,-171.84 687.7,-168.01 677.59,-164.84 677.82,-171.84"/>
</a>
</g>
</g>
<!-- Node18 -->
<g id="Node000018" class="node">
<title>Node18</title>
<g id="a_Node000018"><a xlink:href="classcom_1_1runehive_1_1content_1_1wintertodt_1_1_wintertodt.html#a7ab000767a43afdf7f27ab004c69c2fd" target="_top" xlink:title="Handles removes the items within the wintertodt game.">
<ellipse fill="white" stroke="#666666" cx="477.23" cy="-120.81" rx="132.76" ry="25.81"/>
<text xml:space="preserve" text-anchor="start" x="391.36" y="-123.66" font-family="Helvetica,sans-Serif" font-size="12.00">com.runehive.content.wintertodt.</text>
<text xml:space="preserve" text-anchor="middle" x="477.23" y="-109.41" font-family="Helvetica,sans-Serif" font-size="12.00">Wintertodt.removeGameItems</text>
</a>
</g>
</g>
<!-- Node1&#45;&gt;Node18 -->
<g id="edge22_Node000001_Node000018" class="edge">
<title>Node1&#45;&gt;Node18</title>
<g id="a_edge22_Node000001_Node000018"><a xlink:title=" ">
<path fill="none" stroke="#63b8ff" d="M144.41,-385.7C166.18,-335.68 220.63,-226.23 301.52,-168.81 319.21,-156.25 340.05,-146.97 361.06,-140.12"/>
<polygon fill="#63b8ff" stroke="#63b8ff" points="362.07,-143.48 370.6,-137.2 360.02,-136.78 362.07,-143.48"/>
</a>
</g>
</g>
<!-- Node2&#45;&gt;Node2 -->
<g id="edge2_Node000002_Node000002" class="edge">
<title>Node2&#45;&gt;Node2</title>
<g id="a_edge2_Node000002_Node000002"><a xlink:title=" ">
<path fill="none" stroke="#63b8ff" d="M413.42,-734.14C408.19,-744.63 429.47,-753.62 477.23,-753.62 507.84,-753.62 527.56,-749.93 536.42,-744.52"/>
<polygon fill="#63b8ff" stroke="#63b8ff" points="539.56,-746.08 540.43,-735.52 533.16,-743.23 539.56,-746.08"/>
</a>
</g>
</g>
<!-- Node3&#45;&gt;Node3 -->
<g id="edge4_Node000003_Node000003" class="edge">
<title>Node3&#45;&gt;Node3</title>
<g id="a_edge4_Node000003_Node000003"><a xlink:title=" ">
<path fill="none" stroke="#63b8ff" d="M413.92,-645.25C407.02,-656.12 428.12,-665.62 477.23,-665.62 508.7,-665.62 528.67,-661.72 537.14,-656.06"/>
<polygon fill="#63b8ff" stroke="#63b8ff" points="540.43,-657.28 540.09,-646.69 533.75,-655.18 540.43,-657.28"/>
</a>
</g>
</g>
<!-- Node7 -->
<g id="Node000007" class="node">
<title>Node7</title>
<g id="a_Node000007"><a xlink:href="classcom_1_1runehive_1_1game_1_1world_1_1entity_1_1skill_1_1_skill.html#a8ccd3bb8873995593a36bebea52b5b9a" target="_top" xlink:title="Performs a binary search to quickly search for the level at the given experience.">
<ellipse fill="white" stroke="#666666" cx="899.14" cy="-533.81" rx="149.2" ry="25.81"/>
<text xml:space="preserve" text-anchor="start" x="801.64" y="-536.66" font-family="Helvetica,sans-Serif" font-size="12.00">com.runehive.game.world.entity.skill.</text>
<text xml:space="preserve" text-anchor="middle" x="899.14" y="-522.41" font-family="Helvetica,sans-Serif" font-size="12.00">Skill.binarySearch</text>
</a>
</g>
</g>
<!-- Node6&#45;&gt;Node7 -->
<g id="edge8_Node000006_Node000007" class="edge">
<title>Node6&#45;&gt;Node7</title>
<g id="a_edge8_Node000006_Node000007"><a xlink:title=" ">
<path fill="none" stroke="#63b8ff" d="M605.47,-425.23C622.27,-430.39 638.6,-437.38 652.95,-446.81 676.44,-462.25 665.22,-483.75 688.95,-498.81 706.07,-509.67 725.5,-517.48 745.45,-523.05"/>
<polygon fill="#63b8ff" stroke="#63b8ff" points="744.56,-526.43 755.12,-525.54 746.3,-519.65 744.56,-526.43"/>
</a>
</g>
</g>
<!-- Node7&#45;&gt;Node7 -->
<g id="edge9_Node000007_Node000007" class="edge">
<title>Node7&#45;&gt;Node7</title>
<g id="a_edge9_Node000007_Node000007"><a xlink:title=" ">
<path fill="none" stroke="#63b8ff" d="M834.56,-557.25C827.51,-568.12 849.04,-577.62 899.14,-577.62 931.23,-577.62 951.6,-573.72 960.24,-568.06"/>
<polygon fill="#63b8ff" stroke="#63b8ff" points="963.53,-569.28 963.25,-558.69 956.86,-567.14 963.53,-569.28"/>
</a>
</g>
</g>
<!-- Node9 -->
<g id="Node000009" class="node">
<title>Node9</title>
<g id="a_Node000009"><a xlink:href="classcom_1_1runehive_1_1game_1_1world_1_1entity_1_1mob_1_1player_1_1_player.html#ad161ee8145da645f610de820095d5bc3" target="_top" xlink:title=" ">
<ellipse fill="white" stroke="#666666" cx="899.14" cy="-463.81" rx="175.72" ry="25.81"/>
<text xml:space="preserve" text-anchor="start" x="782.89" y="-466.66" font-family="Helvetica,sans-Serif" font-size="12.00">com.runehive.game.world.entity.mob.player.</text>
<text xml:space="preserve" text-anchor="middle" x="899.14" y="-452.41" font-family="Helvetica,sans-Serif" font-size="12.00">Player.getCollectionLog</text>
</a>
</g>
</g>
<!-- Node8&#45;&gt;Node9 -->
<g id="edge11_Node000008_Node000009" class="edge">
<title>Node8&#45;&gt;Node9</title>
<g id="a_edge11_Node000008_Node000009"><a xlink:title=" ">
<path fill="none" stroke="#63b8ff" d="M603.2,-354.55C620.79,-359.77 637.96,-366.95 652.95,-376.81 676.44,-392.25 665.22,-413.75 688.95,-428.81 701.9,-437.03 716.17,-443.5 730.99,-448.57"/>
<polygon fill="#63b8ff" stroke="#63b8ff" points="729.83,-451.87 740.42,-451.56 731.95,-445.2 729.83,-451.87"/>
</a>
</g>
</g>
<!-- Node10 -->
<g id="Node000010" class="node">
<title>Node10</title>
<g id="a_Node000010"><a xlink:href="classcom_1_1runehive_1_1content_1_1collectionlog_1_1_collection_log.html#a62ca05dd09aa1cd3e999b4a1ed1cbc8d" target="_top" xlink:title=" ">
<ellipse fill="white" stroke="#666666" cx="899.14" cy="-393.81" rx="143.9" ry="25.81"/>
<text xml:space="preserve" text-anchor="start" x="805.39" y="-396.66" font-family="Helvetica,sans-Serif" font-size="12.00">com.runehive.content.collectionlog.</text>
<text xml:space="preserve" text-anchor="middle" x="899.14" y="-382.41" font-family="Helvetica,sans-Serif" font-size="12.00">CollectionLog.getLog</text>
</a>
</g>
</g>
<!-- Node8&#45;&gt;Node10 -->
<g id="edge12_Node000008_Node000010" class="edge">
<title>Node8&#45;&gt;Node10</title>
<g id="a_edge12_Node000008_Node000010"><a xlink:title=" ">
<path fill="none" stroke="#63b8ff" d="M596.88,-356.5C650.31,-363.12 713.54,-370.95 768.25,-377.72"/>
<polygon fill="#63b8ff" stroke="#63b8ff" points="767.57,-381.17 777.92,-378.92 768.43,-374.22 767.57,-381.17"/>
</a>
</g>
</g>
<!-- Node11 -->
<g id="Node000011" class="node">
<title>Node11</title>
<g id="a_Node000011"><a xlink:href="classcom_1_1runehive_1_1content_1_1collectionlog_1_1_collection_log_item.html#a48f8f55857d41b9008de71bf8107cd09" target="_top" xlink:title=" ">
<ellipse fill="white" stroke="#666666" cx="899.14" cy="-323.81" rx="143.9" ry="25.81"/>
<text xml:space="preserve" text-anchor="start" x="805.39" y="-326.66" font-family="Helvetica,sans-Serif" font-size="12.00">com.runehive.content.collectionlog.</text>
<text xml:space="preserve" text-anchor="middle" x="899.14" y="-312.41" font-family="Helvetica,sans-Serif" font-size="12.00">CollectionLogItem.setCounter</text>
</a>
</g>
</g>
<!-- Node8&#45;&gt;Node11 -->
<g id="edge13_Node000008_Node000011" class="edge">
<title>Node8&#45;&gt;Node11</title>
<g id="a_edge13_Node000008_Node000011"><a xlink:title=" ">
<path fill="none" stroke="#63b8ff" d="M617.76,-335.83C659.39,-334.04 705.19,-332.08 747.49,-330.27"/>
<polygon fill="#63b8ff" stroke="#63b8ff" points="747.39,-333.77 757.23,-329.85 747.09,-326.78 747.39,-333.77"/>
</a>
</g>
</g>
<!-- Node12&#45;&gt;Node12 -->
<g id="edge15_Node000012_Node000012" class="edge">
<title>Node12&#45;&gt;Node12</title>
<g id="a_edge15_Node000012_Node000012"><a xlink:title=" ">
<path fill="none" stroke="#63b8ff" d="M413.42,-278.14C408.19,-288.63 429.47,-297.62 477.23,-297.62 507.84,-297.62 527.56,-293.93 536.42,-288.52"/>
<polygon fill="#63b8ff" stroke="#63b8ff" points="539.56,-290.08 540.43,-279.52 533.16,-287.23 539.56,-290.08"/>
</a>
</g>
</g>
<!-- Node13 -->
<g id="Node000013" class="node">
<title>Node13</title>
<g id="a_Node000013"><a xlink:href="classcom_1_1runehive_1_1game_1_1world_1_1entity_1_1mob_1_1player_1_1_player.html#ab8309e5d532b7540f48bf25f8dea92a8" target="_top" xlink:title=" ">
<ellipse fill="white" stroke="#666666" cx="899.14" cy="-253.81" rx="175.72" ry="25.81"/>
<text xml:space="preserve" text-anchor="start" x="782.89" y="-256.66" font-family="Helvetica,sans-Serif" font-size="12.00">com.runehive.game.world.entity.mob.player.</text>
<text xml:space="preserve" text-anchor="middle" x="899.14" y="-242.41" font-family="Helvetica,sans-Serif" font-size="12.00">Player.send</text>
</a>
</g>
</g>
<!-- Node12&#45;&gt;Node13 -->
<g id="edge16_Node000012_Node000013" class="edge">
<title>Node12&#45;&gt;Node13</title>
<g id="a_edge16_Node000012_Node000013"><a xlink:title=" ">
<path fill="none" stroke="#63b8ff" d="M653.27,-253.81C672.55,-253.81 692.24,-253.81 711.65,-253.81"/>
<polygon fill="#63b8ff" stroke="#63b8ff" points="711.53,-257.31 721.53,-253.81 711.53,-250.31 711.53,-257.31"/>
</a>
</g>
</g>
<!-- Node14 -->
<g id="Node000014" class="node">
<title>Node14</title>
<g id="a_Node000014"><a xlink:href="classcom_1_1runehive_1_1net_1_1packet_1_1_outgoing_packet.html#a3dde4d77b8c8bbd686b8e121fd6514a7" target="_top" xlink:title=" ">
<ellipse fill="white" stroke="#666666" cx="1250.51" cy="-253.81" rx="105.18" ry="25.81"/>
<text xml:space="preserve" text-anchor="start" x="1184.13" y="-256.66" font-family="Helvetica,sans-Serif" font-size="12.00">com.runehive.net.packet.</text>
<text xml:space="preserve" text-anchor="middle" x="1250.51" y="-242.41" font-family="Helvetica,sans-Serif" font-size="12.00">OutgoingPacket.execute</text>
</a>
</g>
</g>
<!-- Node13&#45;&gt;Node14 -->
<g id="edge17_Node000013_Node000014" class="edge">
<title>Node13&#45;&gt;Node14</title>
<g id="a_edge17_Node000013_Node000014"><a xlink:title=" ">
<path fill="none" stroke="#63b8ff" d="M1075.33,-253.81C1095.07,-253.81 1114.8,-253.81 1133.52,-253.81"/>
<polygon fill="#63b8ff" stroke="#63b8ff" points="1133.52,-257.31 1143.52,-253.81 1133.52,-250.31 1133.52,-257.31"/>
</a>
</g>
</g>
<!-- Node15 -->
<g id="Node000015" class="node">
<title>Node15</title>
<g id="a_Node000015"><a xlink:href="classcom_1_1runehive_1_1net_1_1packet_1_1_outgoing_packet.html#a74fc13c106ab76f87daec1e8bab6a2a1" target="_top" xlink:title=" ">
<ellipse fill="white" stroke="#666666" cx="1567.41" cy="-288.81" rx="105.18" ry="25.81"/>
<text xml:space="preserve" text-anchor="start" x="1501.03" y="-291.66" font-family="Helvetica,sans-Serif" font-size="12.00">com.runehive.net.packet.</text>
<text xml:space="preserve" text-anchor="middle" x="1567.41" y="-277.41" font-family="Helvetica,sans-Serif" font-size="12.00">OutgoingPacket.encode</text>
</a>
</g>
</g>
<!-- Node14&#45;&gt;Node15 -->
<g id="edge18_Node000014_Node000015" class="edge">
<title>Node14&#45;&gt;Node15</title>
<g id="a_edge18_Node000014_Node000015"><a xlink:title=" ">
<path fill="none" stroke="#63b8ff" d="M1346.84,-264.41C1382.44,-268.36 1423.09,-272.88 1459.65,-276.94"/>
<polygon fill="#63b8ff" stroke="#63b8ff" points="1459.02,-280.4 1469.35,-278.02 1459.8,-273.44 1459.02,-280.4"/>
</a>
</g>
</g>
<!-- Node16 -->
<g id="Node000016" class="node">
<title>Node16</title>
<g id="a_Node000016"><a xlink:href="classcom_1_1runehive_1_1game_1_1world_1_1entity_1_1mob_1_1player_1_1_player.html#a908fb61974719a74180d6300b838bfe1" target="_top" xlink:title=" ">
<ellipse fill="white" stroke="#666666" cx="1567.41" cy="-218.81" rx="175.72" ry="25.81"/>
<text xml:space="preserve" text-anchor="start" x="1451.16" y="-221.66" font-family="Helvetica,sans-Serif" font-size="12.00">com.runehive.game.world.entity.mob.player.</text>
<text xml:space="preserve" text-anchor="middle" x="1567.41" y="-207.41" font-family="Helvetica,sans-Serif" font-size="12.00">Player.getSession</text>
</a>
</g>
</g>
<!-- Node14&#45;&gt;Node16 -->
<g id="edge19_Node000014_Node000016" class="edge">
<title>Node14&#45;&gt;Node16</title>
<g id="a_edge19_Node000014_Node000016"><a xlink:title=" ">
<path fill="none" stroke="#63b8ff" d="M1346.84,-243.21C1368.23,-240.84 1391.44,-238.26 1414.5,-235.69"/>
<polygon fill="#63b8ff" stroke="#63b8ff" points="1414.74,-239.19 1424.29,-234.61 1413.96,-232.23 1414.74,-239.19"/>
</a>
</g>
</g>
<!-- Node17&#45;&gt;Node17 -->
<g id="edge21_Node000017_Node000017" class="edge">
<title>Node17&#45;&gt;Node17</title>
<g id="a_edge21_Node000017_Node000017"><a xlink:title=" ">
<path fill="none" stroke="#63b8ff" d="M833.84,-190.58C829.33,-200.88 851.1,-209.62 899.14,-209.62 929.91,-209.62 949.91,-206.03 959.12,-200.75"/>
<polygon fill="#63b8ff" stroke="#63b8ff" points="962.2,-202.4 963.74,-191.92 956,-199.16 962.2,-202.4"/>
</a>
</g>
</g>
<!-- Node18&#45;&gt;Node17 -->
<g id="edge24_Node000018_Node000017" class="edge">
<title>Node18&#45;&gt;Node17</title>
<g id="a_edge24_Node000018_Node000017"><a xlink:title=" ">
<path fill="none" stroke="#63b8ff" d="M594.37,-133.25C635.54,-137.67 682.77,-142.73 727.53,-147.53"/>
<polygon fill="#63b8ff" stroke="#63b8ff" points="727.03,-150.99 737.35,-148.58 727.78,-144.03 727.03,-150.99"/>
</a>
</g>
</g>
<!-- Node19 -->
<g id="Node000019" class="node">
<title>Node19</title>
<g id="a_Node000019"><a xlink:href="classcom_1_1runehive_1_1game_1_1world_1_1items_1_1containers_1_1_item_container.html#a305beb8608bb39289cd85d96351e54f8" target="_top" xlink:title=" ">
<ellipse fill="white" stroke="#666666" cx="899.14" cy="-95.81" rx="174.13" ry="25.81"/>
<text xml:space="preserve" text-anchor="start" x="784.01" y="-98.66" font-family="Helvetica,sans-Serif" font-size="12.00">com.runehive.game.world.items.containers.</text>
<text xml:space="preserve" text-anchor="middle" x="899.14" y="-84.41" font-family="Helvetica,sans-Serif" font-size="12.00">ItemContainer.getItems</text>
</a>
</g>
</g>
<!-- Node18&#45;&gt;Node19 -->
<g id="edge23_Node000018_Node000019" class="edge">
<title>Node18&#45;&gt;Node19</title>
<g id="a_edge23_Node000018_Node000019"><a xlink:title=" ">
<path fill="none" stroke="#63b8ff" d="M604.79,-113.27C642.75,-111.01 685.06,-108.5 725.47,-106.09"/>
<polygon fill="#63b8ff" stroke="#63b8ff" points="725.53,-109.59 735.3,-105.5 725.11,-102.6 725.53,-109.59"/>
</a>
</g>
</g>
<!-- Node20 -->
<g id="Node000020" class="node">
<title>Node20</title>
<g id="a_Node000020"><a xlink:href="classcom_1_1runehive_1_1game_1_1world_1_1items_1_1containers_1_1_item_container.html#ab97f23ead53f144bada67d79c148a78b" target="_top" xlink:title=" ">
<ellipse fill="white" stroke="#666666" cx="899.14" cy="-25.81" rx="174.13" ry="25.81"/>
<text xml:space="preserve" text-anchor="start" x="784.01" y="-28.66" font-family="Helvetica,sans-Serif" font-size="12.00">com.runehive.game.world.items.containers.</text>
<text xml:space="preserve" text-anchor="middle" x="899.14" y="-14.41" font-family="Helvetica,sans-Serif" font-size="12.00">ItemContainer.set</text>
</a>
</g>
</g>
<!-- Node18&#45;&gt;Node20 -->
<g id="edge25_Node000018_Node000020" class="edge">
<title>Node18&#45;&gt;Node20</title>
<g id="a_edge25_Node000018_Node000020"><a xlink:title=" ">
<path fill="none" stroke="#63b8ff" d="M548.45,-98.69C589.19,-86.39 641.64,-71.47 688.95,-60.81 712.78,-55.44 738.31,-50.5 763.05,-46.14"/>
<polygon fill="#63b8ff" stroke="#63b8ff" points="763.61,-49.59 772.87,-44.43 762.41,-42.69 763.61,-49.59"/>
</a>
</g>
</g>
</g>
</svg>
