<?xml version="1.0" encoding="UTF-8" standalone="no"?>
<!DOCTYPE svg PUBLIC "-//W3C//DTD SVG 1.1//EN"
 "http://www.w3.org/Graphics/SVG/1.1/DTD/svg11.dtd">
<!-- Generated by graphviz version 14.0.1 (20251006.0113)
 -->
<!-- Title: com.runehive.content.tradingpost.TradingPost.sort Pages: 1 -->
<svg width="1658pt" height="588pt"
 viewBox="0.00 0.00 1658.00 588.00" xmlns="http://www.w3.org/2000/svg" xmlns:xlink="http://www.w3.org/1999/xlink">
<g id="graph0" class="graph" transform="scale(1 1) rotate(0) translate(4 583.62)">
<title>com.runehive.content.tradingpost.TradingPost.sort</title>
<!-- Node1 -->
<g id="Node000001" class="node">
<title>Node1</title>
<g id="a_Node000001"><a xlink:title=" ">
<ellipse fill="#999999" stroke="#666666" cx="138.06" cy="-402.81" rx="138.06" ry="25.81"/>
<text xml:space="preserve" text-anchor="start" x="48.44" y="-405.66" font-family="Helvetica,sans-Serif" font-size="12.00">com.runehive.content.tradingpost.</text>
<text xml:space="preserve" text-anchor="middle" x="138.06" y="-391.41" font-family="Helvetica,sans-Serif" font-size="12.00">TradingPost.sort</text>
</a>
</g>
</g>
<!-- Node2 -->
<g id="Node000002" class="node">
<title>Node2</title>
<g id="a_Node000002"><a xlink:href="classcom_1_1runehive_1_1content_1_1tradingpost_1_1_trading_post_listing.html#a1da368379fb26a922aa566bb0d0f47e1" target="_top" xlink:title=" ">
<ellipse fill="white" stroke="#666666" cx="859.89" cy="-553.81" rx="138.59" ry="25.81"/>
<text xml:space="preserve" text-anchor="start" x="769.89" y="-556.66" font-family="Helvetica,sans-Serif" font-size="12.00">com.runehive.content.tradingpost.</text>
<text xml:space="preserve" text-anchor="middle" x="859.89" y="-542.41" font-family="Helvetica,sans-Serif" font-size="12.00">TradingPostListing.getAmountLeft</text>
</a>
</g>
</g>
<!-- Node1&#45;&gt;Node2 -->
<g id="edge1_Node000001_Node000002" class="edge">
<title>Node1&#45;&gt;Node2</title>
<g id="a_edge1_Node000001_Node000002"><a xlink:title=" ">
<path fill="none" stroke="#63b8ff" d="M209.34,-425.35C240.61,-434.91 278,-445.68 312.13,-453.81 458.02,-488.55 628.28,-517.96 739.56,-535.71"/>
<polygon fill="#63b8ff" stroke="#63b8ff" points="738.89,-539.15 749.32,-537.26 739.99,-532.24 738.89,-539.15"/>
</a>
</g>
</g>
<!-- Node3 -->
<g id="Node000003" class="node">
<title>Node3</title>
<g id="a_Node000003"><a xlink:href="classcom_1_1runehive_1_1content_1_1tradingpost_1_1_trading_post.html#a5d25d21f5529550f45274c2ab91a2c5e" target="_top" xlink:title=" ">
<ellipse fill="white" stroke="#666666" cx="474.58" cy="-305.81" rx="138.06" ry="25.81"/>
<text xml:space="preserve" text-anchor="start" x="384.96" y="-308.66" font-family="Helvetica,sans-Serif" font-size="12.00">com.runehive.content.tradingpost.</text>
<text xml:space="preserve" text-anchor="middle" x="474.58" y="-294.41" font-family="Helvetica,sans-Serif" font-size="12.00">TradingPost.getPageListings</text>
</a>
</g>
</g>
<!-- Node1&#45;&gt;Node3 -->
<g id="edge2_Node000001_Node000003" class="edge">
<title>Node1&#45;&gt;Node3</title>
<g id="a_edge2_Node000001_Node000003"><a xlink:title=" ">
<path fill="none" stroke="#63b8ff" d="M198.9,-379.19C231.95,-366.71 273.92,-351.74 312.13,-340.81 329.56,-335.82 348.24,-331.16 366.47,-326.97"/>
<polygon fill="#63b8ff" stroke="#63b8ff" points="366.99,-330.44 375.97,-324.82 365.45,-323.61 366.99,-330.44"/>
</a>
</g>
</g>
<!-- Node4 -->
<g id="Node000004" class="node">
<title>Node4</title>
<g id="a_Node000004"><a xlink:href="classcom_1_1runehive_1_1content_1_1tradingpost_1_1_trading_post_listing.html#a21f52cf795b5f9c154da3352a04716ff" target="_top" xlink:title=" ">
<ellipse fill="white" stroke="#666666" cx="859.89" cy="-483.81" rx="138.06" ry="25.81"/>
<text xml:space="preserve" text-anchor="start" x="770.27" y="-486.66" font-family="Helvetica,sans-Serif" font-size="12.00">com.runehive.content.tradingpost.</text>
<text xml:space="preserve" text-anchor="middle" x="859.89" y="-472.41" font-family="Helvetica,sans-Serif" font-size="12.00">TradingPostListing.getPrice</text>
</a>
</g>
</g>
<!-- Node1&#45;&gt;Node4 -->
<g id="edge3_Node000001_Node000004" class="edge">
<title>Node1&#45;&gt;Node4</title>
<g id="a_edge3_Node000001_Node000004"><a xlink:title=" ">
<path fill="none" stroke="#63b8ff" d="M257.12,-416.09C386.99,-430.71 595.04,-454.12 729.32,-469.23"/>
<polygon fill="#63b8ff" stroke="#63b8ff" points="728.64,-472.67 738.97,-470.31 729.42,-465.72 728.64,-472.67"/>
</a>
</g>
</g>
<!-- Node5 -->
<g id="Node000005" class="node">
<title>Node5</title>
<g id="a_Node000005"><a xlink:href="classcom_1_1runehive_1_1content_1_1tradingpost_1_1_trading_post.html#ade08bc65b323ceb29793b90b647771a2" target="_top" xlink:title=" ">
<ellipse fill="white" stroke="#666666" cx="474.58" cy="-375.81" rx="162.46" ry="25.81"/>
<text xml:space="preserve" text-anchor="start" x="367.71" y="-378.66" font-family="Helvetica,sans-Serif" font-size="12.00">com.runehive.content.tradingpost.</text>
<text xml:space="preserve" text-anchor="middle" x="474.58" y="-364.41" font-family="Helvetica,sans-Serif" font-size="12.00">TradingPost.updateBuyingPageWidgets</text>
</a>
</g>
</g>
<!-- Node1&#45;&gt;Node5 -->
<g id="edge4_Node000001_Node000005" class="edge">
<title>Node1&#45;&gt;Node5</title>
<g id="a_edge4_Node000001_Node000005"><a xlink:title=" ">
<path fill="none" stroke="#63b8ff" d="M265.53,-392.6C282.45,-391.24 299.97,-389.82 317.33,-388.42"/>
<polygon fill="#63b8ff" stroke="#63b8ff" points="317.51,-391.92 327.19,-387.62 316.94,-384.94 317.51,-391.92"/>
</a>
</g>
</g>
<!-- Node5&#45;&gt;Node2 -->
<g id="edge8_Node000005_Node000002" class="edge">
<title>Node5&#45;&gt;Node2</title>
<g id="a_edge8_Node000005_Node000002"><a xlink:title=" ">
<path fill="none" stroke="#63b8ff" d="M502.56,-401.46C538.48,-434.09 605.39,-489.69 673.04,-518.81 691.23,-526.64 711.17,-532.72 731.03,-537.45"/>
<polygon fill="#63b8ff" stroke="#63b8ff" points="730.03,-540.81 740.56,-539.6 731.58,-533.99 730.03,-540.81"/>
</a>
</g>
</g>
<!-- Node5&#45;&gt;Node4 -->
<g id="edge14_Node000005_Node000004" class="edge">
<title>Node5&#45;&gt;Node4</title>
<g id="a_edge14_Node000005_Node000004"><a xlink:title=" ">
<path fill="none" stroke="#63b8ff" d="M539,-399.82C577.43,-413.82 627.64,-431.15 673.04,-443.81 697.97,-450.76 725.06,-457.2 750.65,-462.8"/>
<polygon fill="#63b8ff" stroke="#63b8ff" points="749.9,-466.22 760.42,-464.91 751.38,-459.37 749.9,-466.22"/>
</a>
</g>
</g>
<!-- Node6 -->
<g id="Node000006" class="node">
<title>Node6</title>
<g id="a_Node000006"><a xlink:href="classcom_1_1runehive_1_1util_1_1_utility.html#a490026d68b72e2dea391680a7d49a844" target="_top" xlink:title="Formats digits for integers.">
<ellipse fill="white" stroke="#666666" cx="859.89" cy="-25.81" rx="123.74" ry="25.81"/>
<text xml:space="preserve" text-anchor="start" x="780.39" y="-28.66" font-family="Helvetica,sans-Serif" font-size="12.00">com.runehive.util.Utility.format</text>
<text xml:space="preserve" text-anchor="middle" x="859.89" y="-14.41" font-family="Helvetica,sans-Serif" font-size="12.00">Digits</text>
</a>
</g>
</g>
<!-- Node5&#45;&gt;Node6 -->
<g id="edge5_Node000005_Node000006" class="edge">
<title>Node5&#45;&gt;Node6</title>
<g id="a_edge5_Node000005_Node000006"><a xlink:title=" ">
<path fill="none" stroke="#63b8ff" d="M609.88,-361.16C620.01,-355.93 629.28,-349.26 637.04,-340.81 721.88,-248.37 586.94,-152.08 673.04,-60.81 687.11,-45.9 705.37,-36.18 724.94,-30"/>
<polygon fill="#63b8ff" stroke="#63b8ff" points="725.79,-33.4 734.47,-27.34 723.9,-26.66 725.79,-33.4"/>
</a>
</g>
</g>
<!-- Node7 -->
<g id="Node000007" class="node">
<title>Node7</title>
<g id="a_Node000007"><a xlink:href="classcom_1_1runehive_1_1game_1_1world_1_1items_1_1_item_definition.html#a50e4924075ee157cd3f75a8107a595fa" target="_top" xlink:title="Gets an item definition.">
<ellipse fill="white" stroke="#666666" cx="1215.51" cy="-429.81" rx="132.76" ry="25.81"/>
<text xml:space="preserve" text-anchor="start" x="1129.63" y="-432.66" font-family="Helvetica,sans-Serif" font-size="12.00">com.runehive.game.world.items.</text>
<text xml:space="preserve" text-anchor="middle" x="1215.51" y="-418.41" font-family="Helvetica,sans-Serif" font-size="12.00">ItemDefinition.get</text>
</a>
</g>
</g>
<!-- Node5&#45;&gt;Node7 -->
<g id="edge6_Node000005_Node000007" class="edge">
<title>Node5&#45;&gt;Node7</title>
<g id="a_edge6_Node000005_Node000007"><a xlink:title=" ">
<path fill="none" stroke="#63b8ff" d="M575.9,-396.4C606.91,-402.01 641.27,-407.45 673.04,-410.81 807.43,-425.01 961.51,-429.25 1070.86,-430.25"/>
<polygon fill="#63b8ff" stroke="#63b8ff" points="1070.75,-433.74 1080.78,-430.33 1070.81,-426.75 1070.75,-433.74"/>
</a>
</g>
</g>
<!-- Node9 -->
<g id="Node000009" class="node">
<title>Node9</title>
<g id="a_Node000009"><a xlink:href="classcom_1_1runehive_1_1content_1_1tradingpost_1_1_trading_post.html#a10e1c838e60e7ab86ea26d19bb66cd51" target="_top" xlink:title=" ">
<ellipse fill="white" stroke="#666666" cx="859.89" cy="-375.81" rx="178.9" ry="25.81"/>
<text xml:space="preserve" text-anchor="start" x="741.39" y="-378.66" font-family="Helvetica,sans-Serif" font-size="12.00">com.runehive.content.tradingpost.</text>
<text xml:space="preserve" text-anchor="middle" x="859.89" y="-364.41" font-family="Helvetica,sans-Serif" font-size="12.00">TradingPost.getItemArrayFromActiveListings</text>
</a>
</g>
</g>
<!-- Node5&#45;&gt;Node9 -->
<g id="edge9_Node000005_Node000009" class="edge">
<title>Node5&#45;&gt;Node9</title>
<g id="a_edge9_Node000005_Node000009"><a xlink:title=" ">
<path fill="none" stroke="#63b8ff" d="M637.31,-375.81C647.93,-375.81 658.68,-375.81 669.42,-375.81"/>
<polygon fill="#63b8ff" stroke="#63b8ff" points="669.09,-379.31 679.09,-375.81 669.09,-372.31 669.09,-379.31"/>
</a>
</g>
</g>
<!-- Node11 -->
<g id="Node000011" class="node">
<title>Node11</title>
<g id="a_Node000011"><a xlink:href="classcom_1_1runehive_1_1content_1_1tradingpost_1_1_trading_post_listing.html#aabefa78a76c6fd5a1fadad0e68816391" target="_top" xlink:title=" ">
<ellipse fill="white" stroke="#666666" cx="859.89" cy="-305.81" rx="138.06" ry="25.81"/>
<text xml:space="preserve" text-anchor="start" x="770.27" y="-308.66" font-family="Helvetica,sans-Serif" font-size="12.00">com.runehive.content.tradingpost.</text>
<text xml:space="preserve" text-anchor="middle" x="859.89" y="-294.41" font-family="Helvetica,sans-Serif" font-size="12.00">TradingPostListing.getItemId</text>
</a>
</g>
</g>
<!-- Node5&#45;&gt;Node11 -->
<g id="edge12_Node000005_Node000011" class="edge">
<title>Node5&#45;&gt;Node11</title>
<g id="a_edge12_Node000005_Node000011"><a xlink:title=" ">
<path fill="none" stroke="#63b8ff" d="M582.87,-356.22C634.55,-346.78 696.47,-335.47 748.55,-325.96"/>
<polygon fill="#63b8ff" stroke="#63b8ff" points="749.15,-329.41 758.36,-324.17 747.9,-322.52 749.15,-329.41"/>
</a>
</g>
</g>
<!-- Node12 -->
<g id="Node000012" class="node">
<title>Node12</title>
<g id="a_Node000012"><a xlink:href="classcom_1_1runehive_1_1game_1_1world_1_1items_1_1_item_definition.html#aa9479e24430ebdd5855705e1177346b4" target="_top" xlink:title="Gets the item name.">
<ellipse fill="white" stroke="#666666" cx="859.89" cy="-235.81" rx="132.76" ry="25.81"/>
<text xml:space="preserve" text-anchor="start" x="774.02" y="-238.66" font-family="Helvetica,sans-Serif" font-size="12.00">com.runehive.game.world.items.</text>
<text xml:space="preserve" text-anchor="middle" x="859.89" y="-224.41" font-family="Helvetica,sans-Serif" font-size="12.00">ItemDefinition.getName</text>
</a>
</g>
</g>
<!-- Node5&#45;&gt;Node12 -->
<g id="edge13_Node000005_Node000012" class="edge">
<title>Node5&#45;&gt;Node12</title>
<g id="a_edge13_Node000005_Node000012"><a xlink:title=" ">
<path fill="none" stroke="#63b8ff" d="M602.96,-359.69C615.17,-354.85 626.8,-348.67 637.04,-340.81 664.79,-319.51 645,-291.73 673.04,-270.81 687.53,-260 704.39,-252.22 721.93,-246.67"/>
<polygon fill="#63b8ff" stroke="#63b8ff" points="722.83,-250.05 731.46,-243.91 720.88,-243.32 722.83,-250.05"/>
</a>
</g>
</g>
<!-- Node13 -->
<g id="Node000013" class="node">
<title>Node13</title>
<g id="a_Node000013"><a xlink:href="classcom_1_1runehive_1_1content_1_1tradingpost_1_1_trading_post_listing.html#ace279895b1d1ce0a47e86a05f1325e0b" target="_top" xlink:title=" ">
<ellipse fill="white" stroke="#666666" cx="859.89" cy="-165.81" rx="138.06" ry="25.81"/>
<text xml:space="preserve" text-anchor="start" x="770.27" y="-168.66" font-family="Helvetica,sans-Serif" font-size="12.00">com.runehive.content.tradingpost.</text>
<text xml:space="preserve" text-anchor="middle" x="859.89" y="-154.41" font-family="Helvetica,sans-Serif" font-size="12.00">TradingPostListing.getSeller</text>
</a>
</g>
</g>
<!-- Node5&#45;&gt;Node13 -->
<g id="edge15_Node000005_Node000013" class="edge">
<title>Node5&#45;&gt;Node13</title>
<g id="a_edge15_Node000005_Node000013"><a xlink:title=" ">
<path fill="none" stroke="#63b8ff" d="M607.62,-360.66C618.43,-355.56 628.46,-349.06 637.04,-340.81 683.33,-296.26 626.15,-244.73 673.04,-200.81 685.02,-189.59 699.4,-181.42 714.79,-175.54"/>
<polygon fill="#63b8ff" stroke="#63b8ff" points="715.84,-178.88 724.16,-172.31 713.56,-172.26 715.84,-178.88"/>
</a>
</g>
</g>
<!-- Node14 -->
<g id="Node000014" class="node">
<title>Node14</title>
<g id="a_Node000014"><a xlink:href="classcom_1_1runehive_1_1content_1_1tradingpost_1_1_trading_post.html#ae42aadd47e3438637121a8d9305e7ebb" target="_top" xlink:title=" ">
<ellipse fill="white" stroke="#666666" cx="859.89" cy="-95.81" rx="186.85" ry="25.81"/>
<text xml:space="preserve" text-anchor="start" x="735.77" y="-98.66" font-family="Helvetica,sans-Serif" font-size="12.00">com.runehive.content.tradingpost.</text>
<text xml:space="preserve" text-anchor="middle" x="859.89" y="-84.41" font-family="Helvetica,sans-Serif" font-size="12.00">TradingPost.toggleBuyingPageWidgetVisibility</text>
</a>
</g>
</g>
<!-- Node5&#45;&gt;Node14 -->
<g id="edge16_Node000005_Node000014" class="edge">
<title>Node5&#45;&gt;Node14</title>
<g id="a_edge16_Node000005_Node000014"><a xlink:title=" ">
<path fill="none" stroke="#63b8ff" d="M609.12,-361C619.48,-355.81 629.01,-349.2 637.04,-340.81 702.52,-272.4 606.63,-198.31 673.04,-130.81 678.9,-124.86 685.43,-119.74 692.43,-115.35"/>
<polygon fill="#63b8ff" stroke="#63b8ff" points="693.96,-118.51 700.95,-110.56 690.52,-112.41 693.96,-118.51"/>
</a>
</g>
</g>
<!-- Node8 -->
<g id="Node000008" class="node">
<title>Node8</title>
<g id="a_Node000008"><a xlink:href="classcom_1_1runehive_1_1game_1_1world_1_1items_1_1_item_definition.html#a4fafaf641c0490165d697a73006e76bf" target="_top" xlink:title=" ">
<ellipse fill="white" stroke="#666666" cx="1517.02" cy="-429.81" rx="132.76" ry="25.81"/>
<text xml:space="preserve" text-anchor="start" x="1431.15" y="-432.66" font-family="Helvetica,sans-Serif" font-size="12.00">com.runehive.game.world.items.</text>
<text xml:space="preserve" text-anchor="middle" x="1517.02" y="-418.41" font-family="Helvetica,sans-Serif" font-size="12.00">ItemDefinition.ItemDefinition</text>
</a>
</g>
</g>
<!-- Node7&#45;&gt;Node8 -->
<g id="edge7_Node000007_Node000008" class="edge">
<title>Node7&#45;&gt;Node8</title>
<g id="a_edge7_Node000007_Node000008"><a xlink:title=" ">
<path fill="none" stroke="#63b8ff" d="M1348.75,-429.81C1356.74,-429.81 1364.8,-429.81 1372.83,-429.81"/>
<polygon fill="#63b8ff" stroke="#63b8ff" points="1372.64,-433.31 1382.64,-429.81 1372.64,-426.31 1372.64,-433.31"/>
</a>
</g>
</g>
<!-- Node9&#45;&gt;Node7 -->
<g id="edge10_Node000009_Node000007" class="edge">
<title>Node9&#45;&gt;Node7</title>
<g id="a_edge10_Node000009_Node000007"><a xlink:title=" ">
<path fill="none" stroke="#63b8ff" d="M984.57,-394.7C1021.66,-400.36 1062.19,-406.55 1098.75,-412.13"/>
<polygon fill="#63b8ff" stroke="#63b8ff" points="1098.05,-415.57 1108.47,-413.62 1099.11,-408.65 1098.05,-415.57"/>
</a>
</g>
</g>
<!-- Node10 -->
<g id="Node000010" class="node">
<title>Node10</title>
<g id="a_Node000010"><a xlink:href="classcom_1_1runehive_1_1game_1_1world_1_1items_1_1_item_definition.html#a02ac54bf30eac3ffea93fd35b2db8f03" target="_top" xlink:title="Gets the item note state.">
<ellipse fill="white" stroke="#666666" cx="1215.51" cy="-359.81" rx="132.76" ry="25.81"/>
<text xml:space="preserve" text-anchor="start" x="1129.63" y="-362.66" font-family="Helvetica,sans-Serif" font-size="12.00">com.runehive.game.world.items.</text>
<text xml:space="preserve" text-anchor="middle" x="1215.51" y="-348.41" font-family="Helvetica,sans-Serif" font-size="12.00">ItemDefinition.isNoted</text>
</a>
</g>
</g>
<!-- Node9&#45;&gt;Node10 -->
<g id="edge11_Node000009_Node000010" class="edge">
<title>Node9&#45;&gt;Node10</title>
<g id="a_edge11_Node000009_Node000010"><a xlink:title=" ">
<path fill="none" stroke="#63b8ff" d="M1031.23,-368.1C1045.66,-367.45 1060.16,-366.79 1074.32,-366.15"/>
<polygon fill="#63b8ff" stroke="#63b8ff" points="1074.26,-369.66 1084.09,-365.71 1073.95,-362.67 1074.26,-369.66"/>
</a>
</g>
</g>
</g>
</svg>
