<?xml version="1.0" encoding="UTF-8" standalone="no"?>
<!DOCTYPE svg PUBLIC "-//W3C//DTD SVG 1.1//EN"
 "http://www.w3.org/Graphics/SVG/1.1/DTD/svg11.dtd">
<!-- Generated by graphviz version 14.0.1 (20251006.0113)
 -->
<!-- Title: com.runehive.content.skill.impl.slayer.Slayer.block Pages: 1 -->
<!--zoomable 1586 -->

<svg id="main" version="1.1" xmlns="http://www.w3.org/2000/svg" xmlns:xlink="http://www.w3.org/1999/xlink" xml:space="preserve" onload="init(evt)">

<style type="text/css"><![CDATA[
.node, .edge {opacity: 0.7;}
.node.selected, .edge.selected {opacity: 1;}
.edge:hover path { stroke: red; }
.edge:hover polygon { stroke: red; fill: red; }
]]></style>

<defs>
  <circle id="rim" cx="0" cy="0" r="7"/>
  <circle id="rim2" cx="0" cy="0" r="3.5"/>
  <g id="zoomPlus">
    <use xlink:href="#rim" fill="#404040"><set attributeName="fill" to="#808080" begin="zoomplus.mouseover" end="zoomplus.mouseout"/></use>
    <path d="M-4,0h8M0,-4v8" fill="none" stroke="white" stroke-width="1.5" pointer-events="none"/>
  </g>
  <g id="zoomMin">
    <use xlink:href="#rim" fill="#404040"><set attributeName="fill" to="#808080" begin="zoomminus.mouseover" end="zoomminus.mouseout"/></use>
    <path d="M-4,0h8" fill="none" stroke="white" stroke-width="1.5" pointer-events="none"/>
  </g>
  <g id="arrowUp" transform="translate(30 24)">
    <use xlink:href="#rim"/>
    <path pointer-events="none" fill="none" stroke="white" stroke-width="1.5" d="M0,-3.0v7 M-2.5,-0.5L0,-3.0L2.5,-0.5"/>
  </g>
  <g id="arrowRight" transform="rotate(90) translate(36 -43)">
    <use xlink:href="#rim"/>
    <path pointer-events="none" fill="none" stroke="white" stroke-width="1.5" d="M0,-3.0v7 M-2.5,-0.5L0,-3.0L2.5,-0.5"/>
  </g>
  <g id="arrowDown" transform="rotate(180) translate(-30 -48)">
    <use xlink:href="#rim"/>
    <path pointer-events="none" fill="none" stroke="white" stroke-width="1.5" d="M0,-3.0v7 M-2.5,-0.5L0,-3.0L2.5,-0.5"/>
  </g>
  <g id="arrowLeft" transform="rotate(270) translate(-36 17)">
    <use xlink:href="#rim"/>
    <path pointer-events="none" fill="none" stroke="white" stroke-width="1.5" d="M0,-3.0v7 M-2.5,-0.5L0,-3.0L2.5,-0.5"/>
  </g>
  <g id="resetDef">
    <use xlink:href="#rim2" fill="#404040"><set attributeName="fill" to="#808080" begin="reset.mouseover" end="reset.mouseout"/></use>
  </g>
</defs>
<script type="application/ecmascript">
var viewWidth = 2273;
var viewHeight = 1586;
var sectionId = 'dynsection-4';
</script>
<script type="application/ecmascript" xlink:href="svg.min.js"/>
<svg id="graph" class="graph">
<g id="viewport">
<title>com.runehive.content.skill.impl.slayer.Slayer.block</title>
<!-- Node1 -->
<g id="Node000001" class="node">
<title>Node1</title>
<g id="a_Node000001"><a xlink:title="Blocks the current assigned slayer task.">
<ellipse fill="#999999" stroke="#666666" cx="153.44" cy="-763.81" rx="153.44" ry="25.81"/>
<text xml:space="preserve" text-anchor="start" x="52.94" y="-766.66" font-family="Helvetica,sans-Serif" font-size="12.00">com.runehive.content.skill.impl.slayer.</text>
<text xml:space="preserve" text-anchor="middle" x="153.44" y="-752.41" font-family="Helvetica,sans-Serif" font-size="12.00">Slayer.block</text>
</a>
</g>
</g>
<!-- Node2 -->
<g id="Node000002" class="node">
<title>Node2</title>
<g id="a_Node000002"><a xlink:href="enumcom_1_1runehive_1_1content_1_1skill_1_1impl_1_1slayer_1_1_slayer_tab.html#acb61458f8db4f2770d7761a04c039fa8" target="_top" xlink:title="Refreshes the tab itemcontainer.">
<ellipse fill="white" stroke="#666666" cx="496.33" cy="-763.81" rx="153.44" ry="25.81"/>
<text xml:space="preserve" text-anchor="start" x="395.83" y="-766.66" font-family="Helvetica,sans-Serif" font-size="12.00">com.runehive.content.skill.impl.slayer.</text>
<text xml:space="preserve" text-anchor="middle" x="496.33" y="-752.41" font-family="Helvetica,sans-Serif" font-size="12.00">SlayerTab.refresh</text>
</a>
</g>
</g>
<!-- Node1&#45;&gt;Node2 -->
<g id="edge1_Node000001_Node000002" class="edge">
<title>Node1&#45;&gt;Node2</title>
<g id="a_edge1_Node000001_Node000002"><a xlink:title=" ">
<path fill="none" stroke="#63b8ff" d="M306.94,-763.81C314.95,-763.81 323.02,-763.81 331.06,-763.81"/>
<polygon fill="#63b8ff" stroke="#63b8ff" points="330.91,-767.31 340.91,-763.81 330.91,-760.31 330.91,-767.31"/>
</a>
</g>
</g>
<!-- Node3 -->
<g id="Node000003" class="node">
<title>Node3</title>
<g id="a_Node000003"><a xlink:href="classcom_1_1runehive_1_1util_1_1_utility.html#a490026d68b72e2dea391680a7d49a844" target="_top" xlink:title="Formats digits for integers.">
<ellipse fill="white" stroke="#666666" cx="839.21" cy="-1551.81" rx="123.74" ry="25.81"/>
<text xml:space="preserve" text-anchor="start" x="759.71" y="-1554.66" font-family="Helvetica,sans-Serif" font-size="12.00">com.runehive.util.Utility.format</text>
<text xml:space="preserve" text-anchor="middle" x="839.21" y="-1540.41" font-family="Helvetica,sans-Serif" font-size="12.00">Digits</text>
</a>
</g>
</g>
<!-- Node2&#45;&gt;Node3 -->
<g id="edge2_Node000002_Node000003" class="edge">
<title>Node2&#45;&gt;Node3</title>
<g id="a_edge2_Node000002_Node000003"><a xlink:title=" ">
<path fill="none" stroke="#63b8ff" d="M500.23,-789.99C514.13,-910.54 577.65,-1410.78 685.77,-1516.81 694.38,-1525.25 704.59,-1531.82 715.58,-1536.91"/>
<polygon fill="#63b8ff" stroke="#63b8ff" points="713.9,-1540 724.48,-1540.6 716.58,-1533.53 713.9,-1540"/>
</a>
</g>
</g>
<!-- Node4 -->
<g id="Node000004" class="node">
<title>Node4</title>
<g id="a_Node000004"><a xlink:href="classcom_1_1runehive_1_1util_1_1generic_1_1_generic_attributes.html#a6fb78333b5fc3823ccaec2c528ceb57f" target="_top" xlink:title="Gets a generic attribute.">
<ellipse fill="white" stroke="#666666" cx="839.21" cy="-1463.81" rx="107.83" ry="25.81"/>
<text xml:space="preserve" text-anchor="start" x="770.96" y="-1466.66" font-family="Helvetica,sans-Serif" font-size="12.00">com.runehive.util.generic.</text>
<text xml:space="preserve" text-anchor="middle" x="839.21" y="-1452.41" font-family="Helvetica,sans-Serif" font-size="12.00">GenericAttributes.get</text>
</a>
</g>
</g>
<!-- Node2&#45;&gt;Node4 -->
<g id="edge3_Node000002_Node000004" class="edge">
<title>Node2&#45;&gt;Node4</title>
<g id="a_edge3_Node000002_Node000004"><a xlink:title=" ">
<path fill="none" stroke="#63b8ff" d="M501.14,-789.89C517.94,-901.41 588.91,-1336.72 685.77,-1428.81 696.93,-1439.42 710.63,-1447.05 725.2,-1452.5"/>
<polygon fill="#63b8ff" stroke="#63b8ff" points="723.91,-1455.76 734.5,-1455.61 726.13,-1449.12 723.91,-1455.76"/>
</a>
</g>
</g>
<!-- Node5 -->
<g id="Node000005" class="node">
<title>Node5</title>
<g id="a_Node000005"><a xlink:href="classcom_1_1runehive_1_1content_1_1skill_1_1impl_1_1slayer_1_1_slayer.html#aa3b6320dd3227c44c8d7cb614f66fa04" target="_top" xlink:title=" ">
<ellipse fill="white" stroke="#666666" cx="839.21" cy="-1393.81" rx="153.44" ry="25.81"/>
<text xml:space="preserve" text-anchor="start" x="738.71" y="-1396.66" font-family="Helvetica,sans-Serif" font-size="12.00">com.runehive.content.skill.impl.slayer.</text>
<text xml:space="preserve" text-anchor="middle" x="839.21" y="-1382.41" font-family="Helvetica,sans-Serif" font-size="12.00">Slayer.getAmount</text>
</a>
</g>
</g>
<!-- Node2&#45;&gt;Node5 -->
<g id="edge5_Node000002_Node000005" class="edge">
<title>Node2&#45;&gt;Node5</title>
<g id="a_edge5_Node000002_Node000005"><a xlink:title=" ">
<path fill="none" stroke="#63b8ff" d="M497.08,-789.93C497.7,-882.72 512.91,-1199.42 685.77,-1358.81 691.81,-1364.38 698.55,-1369.12 705.74,-1373.15"/>
<polygon fill="#63b8ff" stroke="#63b8ff" points="703.94,-1376.17 714.45,-1377.54 707.09,-1369.91 703.94,-1376.17"/>
</a>
</g>
</g>
<!-- Node6 -->
<g id="Node000006" class="node">
<title>Node6</title>
<g id="a_Node000006"><a xlink:href="classcom_1_1runehive_1_1content_1_1skill_1_1impl_1_1slayer_1_1_slayer.html#a12b50d459ae153e35bd4881de1387d96" target="_top" xlink:title=" ">
<ellipse fill="white" stroke="#666666" cx="839.21" cy="-1323.81" rx="153.44" ry="25.81"/>
<text xml:space="preserve" text-anchor="start" x="738.71" y="-1326.66" font-family="Helvetica,sans-Serif" font-size="12.00">com.runehive.content.skill.impl.slayer.</text>
<text xml:space="preserve" text-anchor="middle" x="839.21" y="-1312.41" font-family="Helvetica,sans-Serif" font-size="12.00">Slayer.getAssigned</text>
</a>
</g>
</g>
<!-- Node2&#45;&gt;Node6 -->
<g id="edge6_Node000002_Node000006" class="edge">
<title>Node2&#45;&gt;Node6</title>
<g id="a_edge6_Node000002_Node000006"><a xlink:title=" ">
<path fill="none" stroke="#63b8ff" d="M498.33,-789.86C503.1,-875.52 530.42,-1150.92 685.77,-1288.81 691.98,-1294.32 698.89,-1299.02 706.23,-1303.02"/>
<polygon fill="#63b8ff" stroke="#63b8ff" points="704.61,-1306.12 715.13,-1307.37 707.69,-1299.83 704.61,-1306.12"/>
</a>
</g>
</g>
<!-- Node7 -->
<g id="Node000007" class="node">
<title>Node7</title>
<g id="a_Node000007"><a xlink:href="classcom_1_1runehive_1_1content_1_1skill_1_1impl_1_1slayer_1_1_slayer.html#a2bc029aaa5d9433b43d367d4be9e7826" target="_top" xlink:title=" ">
<ellipse fill="white" stroke="#666666" cx="839.21" cy="-1253.81" rx="153.44" ry="25.81"/>
<text xml:space="preserve" text-anchor="start" x="738.71" y="-1256.66" font-family="Helvetica,sans-Serif" font-size="12.00">com.runehive.content.skill.impl.slayer.</text>
<text xml:space="preserve" text-anchor="middle" x="839.21" y="-1242.41" font-family="Helvetica,sans-Serif" font-size="12.00">Slayer.getBlocked</text>
</a>
</g>
</g>
<!-- Node2&#45;&gt;Node7 -->
<g id="edge7_Node000002_Node000007" class="edge">
<title>Node2&#45;&gt;Node7</title>
<g id="a_edge7_Node000002_Node000007"><a xlink:title=" ">
<path fill="none" stroke="#63b8ff" d="M499.94,-789.97C509.23,-868.21 547.85,-1102.19 685.77,-1218.81 692.33,-1224.36 699.6,-1229.07 707.29,-1233.06"/>
<polygon fill="#63b8ff" stroke="#63b8ff" points="705.73,-1236.19 716.27,-1237.27 708.7,-1229.86 705.73,-1236.19"/>
</a>
</g>
</g>
<!-- Node8 -->
<g id="Node000008" class="node">
<title>Node8</title>
<g id="a_Node000008"><a xlink:href="enumcom_1_1runehive_1_1content_1_1skill_1_1impl_1_1slayer_1_1_slayer_task.html#a343c50025afe0af5752aa20b2dfd3456" target="_top" xlink:title="Gets the combat level of the npc.">
<ellipse fill="white" stroke="#666666" cx="839.21" cy="-1183.81" rx="153.44" ry="25.81"/>
<text xml:space="preserve" text-anchor="start" x="738.71" y="-1186.66" font-family="Helvetica,sans-Serif" font-size="12.00">com.runehive.content.skill.impl.slayer.</text>
<text xml:space="preserve" text-anchor="middle" x="839.21" y="-1172.41" font-family="Helvetica,sans-Serif" font-size="12.00">SlayerTask.getCombatLevel</text>
</a>
</g>
</g>
<!-- Node2&#45;&gt;Node8 -->
<g id="edge8_Node000002_Node000008" class="edge">
<title>Node2&#45;&gt;Node8</title>
<g id="a_edge8_Node000002_Node000008"><a xlink:title=" ">
<path fill="none" stroke="#63b8ff" d="M502.08,-789.95C516.25,-859.97 564.94,-1052.96 685.77,-1148.81 692.72,-1154.33 700.39,-1159.01 708.47,-1162.97"/>
<polygon fill="#63b8ff" stroke="#63b8ff" points="706.96,-1166.13 717.52,-1167 709.81,-1159.74 706.96,-1166.13"/>
</a>
</g>
</g>
<!-- Node11 -->
<g id="Node000011" class="node">
<title>Node11</title>
<g id="a_Node000011"><a xlink:href="enumcom_1_1runehive_1_1content_1_1skill_1_1impl_1_1slayer_1_1_slayer_unlockable.html#ae39e980232186d54f522a0c865ea0a3e" target="_top" xlink:title="Gets the unlockable cost.">
<ellipse fill="white" stroke="#666666" cx="839.21" cy="-1113.81" rx="153.44" ry="25.81"/>
<text xml:space="preserve" text-anchor="start" x="738.71" y="-1116.66" font-family="Helvetica,sans-Serif" font-size="12.00">com.runehive.content.skill.impl.slayer.</text>
<text xml:space="preserve" text-anchor="middle" x="839.21" y="-1102.41" font-family="Helvetica,sans-Serif" font-size="12.00">SlayerUnlockable.getCost</text>
</a>
</g>
</g>
<!-- Node2&#45;&gt;Node11 -->
<g id="edge11_Node000002_Node000011" class="edge">
<title>Node2&#45;&gt;Node11</title>
<g id="a_edge11_Node000002_Node000011"><a xlink:title=" ">
<path fill="none" stroke="#63b8ff" d="M505.05,-789.84C524.52,-850.75 581.65,-1003.11 685.77,-1078.81 693.35,-1084.32 701.65,-1088.98 710.35,-1092.92"/>
<polygon fill="#63b8ff" stroke="#63b8ff" points="708.74,-1096.04 719.32,-1096.64 711.42,-1089.58 708.74,-1096.04"/>
</a>
</g>
</g>
<!-- Node12 -->
<g id="Node000012" class="node">
<title>Node12</title>
<g id="a_Node000012"><a xlink:href="enumcom_1_1runehive_1_1content_1_1skill_1_1impl_1_1slayer_1_1_slayer_unlockable.html#a35c3cecfd54ba19f09a2f4fc0c54c620" target="_top" xlink:title="Gets the unlockable description.">
<ellipse fill="white" stroke="#666666" cx="839.21" cy="-1043.81" rx="153.44" ry="25.81"/>
<text xml:space="preserve" text-anchor="start" x="738.71" y="-1046.66" font-family="Helvetica,sans-Serif" font-size="12.00">com.runehive.content.skill.impl.slayer.</text>
<text xml:space="preserve" text-anchor="middle" x="839.21" y="-1032.41" font-family="Helvetica,sans-Serif" font-size="12.00">SlayerUnlockable.getDescription</text>
</a>
</g>
</g>
<!-- Node2&#45;&gt;Node12 -->
<g id="edge12_Node000002_Node000012" class="edge">
<title>Node2&#45;&gt;Node12</title>
<g id="a_edge12_Node000002_Node000012"><a xlink:title=" ">
<path fill="none" stroke="#63b8ff" d="M509.52,-789.68C534.78,-840.31 597.92,-952.45 685.77,-1008.81 694.07,-1014.14 703.09,-1018.66 712.45,-1022.49"/>
<polygon fill="#63b8ff" stroke="#63b8ff" points="711.13,-1025.74 721.73,-1026 713.61,-1019.19 711.13,-1025.74"/>
</a>
</g>
</g>
<!-- Node13 -->
<g id="Node000013" class="node">
<title>Node13</title>
<g id="a_Node000013"><a xlink:href="enumcom_1_1runehive_1_1content_1_1skill_1_1impl_1_1slayer_1_1_slayer_unlockable.html#aa5dde2039e85b29c067986b3f4c27cc3" target="_top" xlink:title="Gets the unlockable item display.">
<ellipse fill="white" stroke="#666666" cx="839.21" cy="-973.81" rx="153.44" ry="25.81"/>
<text xml:space="preserve" text-anchor="start" x="738.71" y="-976.66" font-family="Helvetica,sans-Serif" font-size="12.00">com.runehive.content.skill.impl.slayer.</text>
<text xml:space="preserve" text-anchor="middle" x="839.21" y="-962.41" font-family="Helvetica,sans-Serif" font-size="12.00">SlayerUnlockable.getItem</text>
</a>
</g>
</g>
<!-- Node2&#45;&gt;Node13 -->
<g id="edge13_Node000002_Node000013" class="edge">
<title>Node2&#45;&gt;Node13</title>
<g id="a_edge13_Node000002_Node000013"><a xlink:title=" ">
<path fill="none" stroke="#63b8ff" d="M517.46,-789.69C549.01,-828.37 613.96,-900.78 685.77,-938.81 695.58,-944 706.14,-948.43 716.97,-952.21"/>
<polygon fill="#63b8ff" stroke="#63b8ff" points="715.83,-955.52 726.42,-955.3 718,-948.86 715.83,-955.52"/>
</a>
</g>
</g>
<!-- Node14 -->
<g id="Node000014" class="node">
<title>Node14</title>
<g id="a_Node000014"><a xlink:href="enumcom_1_1runehive_1_1content_1_1skill_1_1impl_1_1slayer_1_1_slayer_task.html#a79e4c4d327999630e4b30ba388288ddb" target="_top" xlink:title="Gets the teleport string.">
<ellipse fill="white" stroke="#666666" cx="839.21" cy="-903.81" rx="153.44" ry="25.81"/>
<text xml:space="preserve" text-anchor="start" x="738.71" y="-906.66" font-family="Helvetica,sans-Serif" font-size="12.00">com.runehive.content.skill.impl.slayer.</text>
<text xml:space="preserve" text-anchor="middle" x="839.21" y="-892.41" font-family="Helvetica,sans-Serif" font-size="12.00">SlayerTask.getLocation</text>
</a>
</g>
</g>
<!-- Node2&#45;&gt;Node14 -->
<g id="edge14_Node000002_Node000014" class="edge">
<title>Node2&#45;&gt;Node14</title>
<g id="a_edge14_Node000002_Node000014"><a xlink:title=" ">
<path fill="none" stroke="#63b8ff" d="M535.1,-789.08C572.07,-812.78 630.71,-847.64 685.77,-868.81 698.27,-873.61 711.61,-877.87 725,-881.6"/>
<polygon fill="#63b8ff" stroke="#63b8ff" points="723.71,-884.88 734.28,-884.09 725.53,-878.12 723.71,-884.88"/>
</a>
</g>
</g>
<!-- Node15 -->
<g id="Node000015" class="node">
<title>Node15</title>
<g id="a_Node000015"><a xlink:href="enumcom_1_1runehive_1_1content_1_1skill_1_1impl_1_1slayer_1_1_slayer_task.html#a6c83969a15fa5827ed15bdb9689a850b" target="_top" xlink:title="Gets the name of the task.">
<ellipse fill="white" stroke="#666666" cx="839.21" cy="-833.81" rx="153.44" ry="25.81"/>
<text xml:space="preserve" text-anchor="start" x="738.71" y="-836.66" font-family="Helvetica,sans-Serif" font-size="12.00">com.runehive.content.skill.impl.slayer.</text>
<text xml:space="preserve" text-anchor="middle" x="839.21" y="-822.41" font-family="Helvetica,sans-Serif" font-size="12.00">SlayerTask.getName</text>
</a>
</g>
</g>
<!-- Node2&#45;&gt;Node15 -->
<g id="edge15_Node000002_Node000015" class="edge">
<title>Node2&#45;&gt;Node15</title>
<g id="a_edge15_Node000002_Node000015"><a xlink:title=" ">
<path fill="none" stroke="#63b8ff" d="M595.01,-783.87C636.91,-792.47 686.03,-802.56 729.11,-811.41"/>
<polygon fill="#63b8ff" stroke="#63b8ff" points="728.24,-814.8 738.73,-813.38 729.64,-807.94 728.24,-814.8"/>
</a>
</g>
</g>
<!-- Node16 -->
<g id="Node000016" class="node">
<title>Node16</title>
<g id="a_Node000016"><a xlink:href="enumcom_1_1runehive_1_1content_1_1skill_1_1impl_1_1slayer_1_1_slayer_unlockable.html#a0fe2d01e7c31d8d767f95dd95a83b26d" target="_top" xlink:title="Gets a the unlockable name.">
<ellipse fill="white" stroke="#666666" cx="839.21" cy="-763.81" rx="153.44" ry="25.81"/>
<text xml:space="preserve" text-anchor="start" x="738.71" y="-766.66" font-family="Helvetica,sans-Serif" font-size="12.00">com.runehive.content.skill.impl.slayer.</text>
<text xml:space="preserve" text-anchor="middle" x="839.21" y="-752.41" font-family="Helvetica,sans-Serif" font-size="12.00">SlayerUnlockable.getName</text>
</a>
</g>
</g>
<!-- Node2&#45;&gt;Node16 -->
<g id="edge16_Node000002_Node000016" class="edge">
<title>Node2&#45;&gt;Node16</title>
<g id="a_edge16_Node000002_Node000016"><a xlink:title=" ">
<path fill="none" stroke="#63b8ff" d="M649.82,-763.81C657.83,-763.81 665.9,-763.81 673.95,-763.81"/>
<polygon fill="#63b8ff" stroke="#63b8ff" points="673.79,-767.31 683.79,-763.81 673.79,-760.31 673.79,-767.31"/>
</a>
</g>
</g>
<!-- Node17 -->
<g id="Node000017" class="node">
<title>Node17</title>
<g id="a_Node000017"><a xlink:href="classcom_1_1runehive_1_1content_1_1skill_1_1impl_1_1slayer_1_1_slayer.html#a1ba211498db8d74df04291337c16df16" target="_top" xlink:title=" ">
<ellipse fill="white" stroke="#666666" cx="839.21" cy="-693.81" rx="153.44" ry="25.81"/>
<text xml:space="preserve" text-anchor="start" x="738.71" y="-696.66" font-family="Helvetica,sans-Serif" font-size="12.00">com.runehive.content.skill.impl.slayer.</text>
<text xml:space="preserve" text-anchor="middle" x="839.21" y="-682.41" font-family="Helvetica,sans-Serif" font-size="12.00">Slayer.getPoints</text>
</a>
</g>
</g>
<!-- Node2&#45;&gt;Node17 -->
<g id="edge17_Node000002_Node000017" class="edge">
<title>Node2&#45;&gt;Node17</title>
<g id="a_edge17_Node000002_Node000017"><a xlink:title=" ">
<path fill="none" stroke="#63b8ff" d="M595.01,-743.75C636.91,-735.15 686.03,-725.06 729.11,-716.21"/>
<polygon fill="#63b8ff" stroke="#63b8ff" points="729.64,-719.68 738.73,-714.24 728.24,-712.82 729.64,-719.68"/>
</a>
</g>
</g>
<!-- Node18 -->
<g id="Node000018" class="node">
<title>Node18</title>
<g id="a_Node000018"><a xlink:href="classcom_1_1runehive_1_1content_1_1skill_1_1impl_1_1slayer_1_1_slayer.html#af0234d1582bbdc9ae0ff34ee7e511237" target="_top" xlink:title=" ">
<ellipse fill="white" stroke="#666666" cx="839.21" cy="-623.81" rx="153.44" ry="25.81"/>
<text xml:space="preserve" text-anchor="start" x="738.71" y="-626.66" font-family="Helvetica,sans-Serif" font-size="12.00">com.runehive.content.skill.impl.slayer.</text>
<text xml:space="preserve" text-anchor="middle" x="839.21" y="-612.41" font-family="Helvetica,sans-Serif" font-size="12.00">Slayer.getTask</text>
</a>
</g>
</g>
<!-- Node2&#45;&gt;Node18 -->
<g id="edge18_Node000002_Node000018" class="edge">
<title>Node2&#45;&gt;Node18</title>
<g id="a_edge18_Node000002_Node000018"><a xlink:title=" ">
<path fill="none" stroke="#63b8ff" d="M535.1,-738.54C572.07,-714.84 630.71,-679.98 685.77,-658.81 698.27,-654 711.61,-649.75 725,-646.02"/>
<polygon fill="#63b8ff" stroke="#63b8ff" points="725.53,-649.5 734.28,-643.52 723.71,-642.74 725.53,-649.5"/>
</a>
</g>
</g>
<!-- Node19 -->
<g id="Node000019" class="node">
<title>Node19</title>
<g id="a_Node000019"><a xlink:href="classcom_1_1runehive_1_1content_1_1skill_1_1impl_1_1slayer_1_1_slayer.html#a5980018bbe223b3696ad602ce678250e" target="_top" xlink:title=" ">
<ellipse fill="white" stroke="#666666" cx="839.21" cy="-553.81" rx="153.44" ry="25.81"/>
<text xml:space="preserve" text-anchor="start" x="738.71" y="-556.66" font-family="Helvetica,sans-Serif" font-size="12.00">com.runehive.content.skill.impl.slayer.</text>
<text xml:space="preserve" text-anchor="middle" x="839.21" y="-542.41" font-family="Helvetica,sans-Serif" font-size="12.00">Slayer.getTotalAssigned</text>
</a>
</g>
</g>
<!-- Node2&#45;&gt;Node19 -->
<g id="edge19_Node000002_Node000019" class="edge">
<title>Node2&#45;&gt;Node19</title>
<g id="a_edge19_Node000002_Node000019"><a xlink:title=" ">
<path fill="none" stroke="#63b8ff" d="M517.46,-737.93C549.01,-699.25 613.96,-626.84 685.77,-588.81 695.58,-583.61 706.14,-579.19 716.97,-575.41"/>
<polygon fill="#63b8ff" stroke="#63b8ff" points="718,-578.76 726.42,-572.32 715.83,-572.1 718,-578.76"/>
</a>
</g>
</g>
<!-- Node20 -->
<g id="Node000020" class="node">
<title>Node20</title>
<g id="a_Node000020"><a xlink:href="classcom_1_1runehive_1_1content_1_1skill_1_1impl_1_1slayer_1_1_slayer.html#ac934d04cf4e4cf762d2b5b5944b30364" target="_top" xlink:title=" ">
<ellipse fill="white" stroke="#666666" cx="839.21" cy="-483.81" rx="153.44" ry="25.81"/>
<text xml:space="preserve" text-anchor="start" x="738.71" y="-486.66" font-family="Helvetica,sans-Serif" font-size="12.00">com.runehive.content.skill.impl.slayer.</text>
<text xml:space="preserve" text-anchor="middle" x="839.21" y="-472.41" font-family="Helvetica,sans-Serif" font-size="12.00">Slayer.getTotalCancelled</text>
</a>
</g>
</g>
<!-- Node2&#45;&gt;Node20 -->
<g id="edge20_Node000002_Node000020" class="edge">
<title>Node2&#45;&gt;Node20</title>
<g id="a_edge20_Node000002_Node000020"><a xlink:title=" ">
<path fill="none" stroke="#63b8ff" d="M509.52,-737.94C534.78,-687.31 597.92,-575.17 685.77,-518.81 694.07,-513.48 703.09,-508.96 712.45,-505.13"/>
<polygon fill="#63b8ff" stroke="#63b8ff" points="713.61,-508.43 721.73,-501.62 711.13,-501.88 713.61,-508.43"/>
</a>
</g>
</g>
<!-- Node21 -->
<g id="Node000021" class="node">
<title>Node21</title>
<g id="a_Node000021"><a xlink:href="classcom_1_1runehive_1_1content_1_1skill_1_1impl_1_1slayer_1_1_slayer.html#a485f5a9e31131abd4e39ab58f32da548" target="_top" xlink:title=" ">
<ellipse fill="white" stroke="#666666" cx="839.21" cy="-413.81" rx="153.44" ry="25.81"/>
<text xml:space="preserve" text-anchor="start" x="738.71" y="-416.66" font-family="Helvetica,sans-Serif" font-size="12.00">com.runehive.content.skill.impl.slayer.</text>
<text xml:space="preserve" text-anchor="middle" x="839.21" y="-402.41" font-family="Helvetica,sans-Serif" font-size="12.00">Slayer.getTotalCompleted</text>
</a>
</g>
</g>
<!-- Node2&#45;&gt;Node21 -->
<g id="edge21_Node000002_Node000021" class="edge">
<title>Node2&#45;&gt;Node21</title>
<g id="a_edge21_Node000002_Node000021"><a xlink:title=" ">
<path fill="none" stroke="#63b8ff" d="M505.05,-737.78C524.52,-676.87 581.65,-524.51 685.77,-448.81 693.35,-443.3 701.65,-438.64 710.35,-434.7"/>
<polygon fill="#63b8ff" stroke="#63b8ff" points="711.42,-438.04 719.32,-430.98 708.74,-431.58 711.42,-438.04"/>
</a>
</g>
</g>
<!-- Node22 -->
<g id="Node000022" class="node">
<title>Node22</title>
<g id="a_Node000022"><a xlink:href="classcom_1_1runehive_1_1content_1_1skill_1_1impl_1_1slayer_1_1_slayer.html#af16cf44bcdda809731a12aac40b1ece4" target="_top" xlink:title=" ">
<ellipse fill="white" stroke="#666666" cx="839.21" cy="-343.81" rx="153.44" ry="25.81"/>
<text xml:space="preserve" text-anchor="start" x="738.71" y="-346.66" font-family="Helvetica,sans-Serif" font-size="12.00">com.runehive.content.skill.impl.slayer.</text>
<text xml:space="preserve" text-anchor="middle" x="839.21" y="-332.41" font-family="Helvetica,sans-Serif" font-size="12.00">Slayer.getTotalPoints</text>
</a>
</g>
</g>
<!-- Node2&#45;&gt;Node22 -->
<g id="edge22_Node000002_Node000022" class="edge">
<title>Node2&#45;&gt;Node22</title>
<g id="a_edge22_Node000002_Node000022"><a xlink:title=" ">
<path fill="none" stroke="#63b8ff" d="M502.08,-737.67C516.25,-667.65 564.94,-474.66 685.77,-378.81 692.72,-373.29 700.39,-368.61 708.47,-364.65"/>
<polygon fill="#63b8ff" stroke="#63b8ff" points="709.81,-367.88 717.52,-360.61 706.96,-361.49 709.81,-367.88"/>
</a>
</g>
</g>
<!-- Node23 -->
<g id="Node000023" class="node">
<title>Node23</title>
<g id="a_Node000023"><a xlink:href="classcom_1_1runehive_1_1content_1_1skill_1_1impl_1_1slayer_1_1_slayer.html#a9f026109b4fb622d3acfb40ef4416cb9" target="_top" xlink:title=" ">
<ellipse fill="white" stroke="#666666" cx="839.21" cy="-273.81" rx="153.44" ry="25.81"/>
<text xml:space="preserve" text-anchor="start" x="738.71" y="-276.66" font-family="Helvetica,sans-Serif" font-size="12.00">com.runehive.content.skill.impl.slayer.</text>
<text xml:space="preserve" text-anchor="middle" x="839.21" y="-262.41" font-family="Helvetica,sans-Serif" font-size="12.00">Slayer.getUnlocked</text>
</a>
</g>
</g>
<!-- Node2&#45;&gt;Node23 -->
<g id="edge23_Node000002_Node000023" class="edge">
<title>Node2&#45;&gt;Node23</title>
<g id="a_edge23_Node000002_Node000023"><a xlink:title=" ">
<path fill="none" stroke="#63b8ff" d="M499.94,-737.65C509.23,-659.41 547.85,-425.43 685.77,-308.81 692.33,-303.26 699.6,-298.55 707.29,-294.56"/>
<polygon fill="#63b8ff" stroke="#63b8ff" points="708.7,-297.76 716.27,-290.35 705.73,-291.42 708.7,-297.76"/>
</a>
</g>
</g>
<!-- Node24 -->
<g id="Node000024" class="node">
<title>Node24</title>
<g id="a_Node000024"><a xlink:href="classcom_1_1runehive_1_1game_1_1world_1_1entity_1_1mob_1_1player_1_1_player.html#ab8309e5d532b7540f48bf25f8dea92a8" target="_top" xlink:title=" ">
<ellipse fill="white" stroke="#666666" cx="1231.95" cy="-157.81" rx="175.72" ry="25.81"/>
<text xml:space="preserve" text-anchor="start" x="1115.7" y="-160.66" font-family="Helvetica,sans-Serif" font-size="12.00">com.runehive.game.world.entity.mob.player.</text>
<text xml:space="preserve" text-anchor="middle" x="1231.95" y="-146.41" font-family="Helvetica,sans-Serif" font-size="12.00">Player.send</text>
</a>
</g>
</g>
<!-- Node2&#45;&gt;Node24 -->
<g id="edge24_Node000002_Node000024" class="edge">
<title>Node2&#45;&gt;Node24</title>
<g id="a_edge24_Node000002_Node000024"><a xlink:title=" ">
<path fill="none" stroke="#63b8ff" d="M497.77,-737.73C500.77,-650.77 523.18,-368.87 685.77,-238.81 739.43,-195.88 924.72,-211.14 992.65,-200.81 1031.71,-194.87 1074.2,-187.5 1112.35,-180.55"/>
<polygon fill="#63b8ff" stroke="#63b8ff" points="1112.81,-184.02 1122.02,-178.77 1111.55,-177.13 1112.81,-184.02"/>
</a>
</g>
</g>
<!-- Node28 -->
<g id="Node000028" class="node">
<title>Node28</title>
<g id="a_Node000028"><a xlink:href="classcom_1_1runehive_1_1game_1_1world_1_1items_1_1_item.html#a05ea6fb3c13b43190ac60fddb90ab365" target="_top" xlink:title="Sets the quantity of this item.">
<ellipse fill="white" stroke="#666666" cx="839.21" cy="-165.81" rx="132.76" ry="25.81"/>
<text xml:space="preserve" text-anchor="start" x="753.34" y="-168.66" font-family="Helvetica,sans-Serif" font-size="12.00">com.runehive.game.world.items.</text>
<text xml:space="preserve" text-anchor="middle" x="839.21" y="-154.41" font-family="Helvetica,sans-Serif" font-size="12.00">Item.setAmount</text>
</a>
</g>
</g>
<!-- Node2&#45;&gt;Node28 -->
<g id="edge28_Node000002_Node000028" class="edge">
<title>Node2&#45;&gt;Node28</title>
<g id="a_edge28_Node000002_Node000028"><a xlink:title=" ">
<path fill="none" stroke="#63b8ff" d="M497.89,-737.62C501.26,-648.79 524.67,-356.15 685.77,-205.81 695.13,-197.07 706.16,-190.2 717.94,-184.79"/>
<polygon fill="#63b8ff" stroke="#63b8ff" points="719.18,-188.06 727.06,-180.99 716.49,-181.6 719.18,-188.06"/>
</a>
</g>
</g>
<!-- Node29 -->
<g id="Node000029" class="node">
<title>Node29</title>
<g id="a_Node000029"><a xlink:href="enumcom_1_1runehive_1_1content_1_1skill_1_1impl_1_1slayer_1_1_slayer_tab.html#ada63d150946ff7e976f9c0df0dc92aa1" target="_top" xlink:title="Sets the tab frame.">
<ellipse fill="white" stroke="#666666" cx="839.21" cy="-95.81" rx="153.44" ry="25.81"/>
<text xml:space="preserve" text-anchor="start" x="738.71" y="-98.66" font-family="Helvetica,sans-Serif" font-size="12.00">com.runehive.content.skill.impl.slayer.</text>
<text xml:space="preserve" text-anchor="middle" x="839.21" y="-84.41" font-family="Helvetica,sans-Serif" font-size="12.00">SlayerTab.setFrame</text>
</a>
</g>
</g>
<!-- Node2&#45;&gt;Node29 -->
<g id="edge29_Node000002_Node000029" class="edge">
<title>Node2&#45;&gt;Node29</title>
<g id="a_edge29_Node000002_Node000029"><a xlink:title=" ">
<path fill="none" stroke="#63b8ff" d="M496.51,-737.75C494.98,-641.39 503.27,-302.04 685.77,-130.81 691.69,-125.25 698.31,-120.52 705.38,-116.49"/>
<polygon fill="#63b8ff" stroke="#63b8ff" points="706.63,-119.78 713.94,-112.1 703.44,-113.55 706.63,-119.78"/>
</a>
</g>
</g>
<!-- Node30 -->
<g id="Node000030" class="node">
<title>Node30</title>
<g id="a_Node000030"><a xlink:href="enumcom_1_1runehive_1_1content_1_1skill_1_1impl_1_1slayer_1_1_slayer_tab.html#a9ccc325bd9f729a1a794c1579853906f" target="_top" xlink:title="Constructs a new SlayerTab.">
<ellipse fill="white" stroke="#666666" cx="839.21" cy="-25.81" rx="153.44" ry="25.81"/>
<text xml:space="preserve" text-anchor="start" x="738.71" y="-28.66" font-family="Helvetica,sans-Serif" font-size="12.00">com.runehive.content.skill.impl.slayer.</text>
<text xml:space="preserve" text-anchor="middle" x="839.21" y="-14.41" font-family="Helvetica,sans-Serif" font-size="12.00">SlayerTab.SlayerTab</text>
</a>
</g>
</g>
<!-- Node2&#45;&gt;Node30 -->
<g id="edge31_Node000002_Node000030" class="edge">
<title>Node2&#45;&gt;Node30</title>
<g id="a_edge31_Node000002_Node000030"><a xlink:title=" ">
<path fill="none" stroke="#63b8ff" d="M500.7,-737.82C516.18,-622.57 584.02,-158.94 685.77,-60.81 691.61,-55.17 698.17,-50.37 705.2,-46.3"/>
<polygon fill="#63b8ff" stroke="#63b8ff" points="706.45,-49.59 713.71,-41.87 703.22,-43.38 706.45,-49.59"/>
</a>
</g>
</g>
<!-- Node4&#45;&gt;Node4 -->
<g id="edge4_Node000004_Node000004" class="edge">
<title>Node4&#45;&gt;Node4</title>
<g id="a_edge4_Node000004_Node000004"><a xlink:title=" ">
<path fill="none" stroke="#63b8ff" d="M778,-1485C766.57,-1496.77 786.97,-1507.62 839.21,-1507.62 873.49,-1507.62 894.06,-1502.95 900.93,-1496.41"/>
<polygon fill="#63b8ff" stroke="#63b8ff" points="904.43,-1496.35 900.49,-1486.51 897.43,-1496.65 904.43,-1496.35"/>
</a>
</g>
</g>
<!-- Node9 -->
<g id="Node000009" class="node">
<title>Node9</title>
<g id="a_Node000009"><a xlink:href="classcom_1_1runehive_1_1game_1_1world_1_1entity_1_1mob_1_1npc_1_1definition_1_1_npc_definition.html#ad5aae250db38402d52b4ea539d33648a" target="_top" xlink:title=" ">
<ellipse fill="white" stroke="#666666" cx="1231.95" cy="-1183.81" rx="203.29" ry="25.81"/>
<text xml:space="preserve" text-anchor="start" x="1096.2" y="-1186.66" font-family="Helvetica,sans-Serif" font-size="12.00">com.runehive.game.world.entity.mob.npc.definition.</text>
<text xml:space="preserve" text-anchor="middle" x="1231.95" y="-1172.41" font-family="Helvetica,sans-Serif" font-size="12.00">NpcDefinition.getCombatLevelRange</text>
</a>
</g>
</g>
<!-- Node8&#45;&gt;Node9 -->
<g id="edge9_Node000008_Node000009" class="edge">
<title>Node8&#45;&gt;Node9</title>
<g id="a_edge9_Node000008_Node000009"><a xlink:title=" ">
<path fill="none" stroke="#63b8ff" d="M992.96,-1183.81C1000.89,-1183.81 1008.91,-1183.81 1016.98,-1183.81"/>
<polygon fill="#63b8ff" stroke="#63b8ff" points="1016.9,-1187.31 1026.9,-1183.81 1016.9,-1180.31 1016.9,-1187.31"/>
</a>
</g>
</g>
<!-- Node10 -->
<g id="Node000010" class="node">
<title>Node10</title>
<g id="a_Node000010"><a xlink:href="classcom_1_1runehive_1_1game_1_1world_1_1entity_1_1mob_1_1npc_1_1definition_1_1_npc_definition.html#ae9d3f563077e84c47f706b986bf6b870" target="_top" xlink:title=" ">
<ellipse fill="white" stroke="#666666" cx="1674.53" cy="-1183.81" rx="203.29" ry="25.81"/>
<text xml:space="preserve" text-anchor="start" x="1538.78" y="-1186.66" font-family="Helvetica,sans-Serif" font-size="12.00">com.runehive.game.world.entity.mob.npc.definition.</text>
<text xml:space="preserve" text-anchor="middle" x="1674.53" y="-1172.41" font-family="Helvetica,sans-Serif" font-size="12.00">NpcDefinition.NpcDefinition</text>
</a>
</g>
</g>
<!-- Node9&#45;&gt;Node10 -->
<g id="edge10_Node000009_Node000010" class="edge">
<title>Node9&#45;&gt;Node10</title>
<g id="a_edge10_Node000009_Node000010"><a xlink:title=" ">
<path fill="none" stroke="#63b8ff" d="M1435.51,-1183.81C1443.5,-1183.81 1451.52,-1183.81 1459.53,-1183.81"/>
<polygon fill="#63b8ff" stroke="#63b8ff" points="1459.32,-1187.31 1469.32,-1183.81 1459.32,-1180.31 1459.32,-1187.31"/>
</a>
</g>
</g>
<!-- Node25 -->
<g id="Node000025" class="node">
<title>Node25</title>
<g id="a_Node000025"><a xlink:href="classcom_1_1runehive_1_1net_1_1packet_1_1_outgoing_packet.html#a3dde4d77b8c8bbd686b8e121fd6514a7" target="_top" xlink:title=" ">
<ellipse fill="white" stroke="#666666" cx="1674.53" cy="-157.81" rx="105.18" ry="25.81"/>
<text xml:space="preserve" text-anchor="start" x="1608.16" y="-160.66" font-family="Helvetica,sans-Serif" font-size="12.00">com.runehive.net.packet.</text>
<text xml:space="preserve" text-anchor="middle" x="1674.53" y="-146.41" font-family="Helvetica,sans-Serif" font-size="12.00">OutgoingPacket.execute</text>
</a>
</g>
</g>
<!-- Node24&#45;&gt;Node25 -->
<g id="edge25_Node000024_Node000025" class="edge">
<title>Node24&#45;&gt;Node25</title>
<g id="a_edge25_Node000024_Node000025"><a xlink:title=" ">
<path fill="none" stroke="#63b8ff" d="M1408.03,-157.81C1458.27,-157.81 1511.8,-157.81 1557.53,-157.81"/>
<polygon fill="#63b8ff" stroke="#63b8ff" points="1557.47,-161.31 1567.47,-157.81 1557.47,-154.31 1557.47,-161.31"/>
</a>
</g>
</g>
<!-- Node26 -->
<g id="Node000026" class="node">
<title>Node26</title>
<g id="a_Node000026"><a xlink:href="classcom_1_1runehive_1_1net_1_1packet_1_1_outgoing_packet.html#a74fc13c106ab76f87daec1e8bab6a2a1" target="_top" xlink:title=" ">
<ellipse fill="white" stroke="#666666" cx="2089.54" cy="-192.81" rx="105.18" ry="25.81"/>
<text xml:space="preserve" text-anchor="start" x="2023.17" y="-195.66" font-family="Helvetica,sans-Serif" font-size="12.00">com.runehive.net.packet.</text>
<text xml:space="preserve" text-anchor="middle" x="2089.54" y="-181.41" font-family="Helvetica,sans-Serif" font-size="12.00">OutgoingPacket.encode</text>
</a>
</g>
</g>
<!-- Node25&#45;&gt;Node26 -->
<g id="edge26_Node000025_Node000026" class="edge">
<title>Node25&#45;&gt;Node26</title>
<g id="a_edge26_Node000025_Node000026"><a xlink:title=" ">
<path fill="none" stroke="#63b8ff" d="M1774.46,-166.19C1835.92,-171.4 1915.02,-178.1 1978.46,-183.48"/>
<polygon fill="#63b8ff" stroke="#63b8ff" points="1977.94,-186.95 1988.2,-184.31 1978.53,-179.97 1977.94,-186.95"/>
</a>
</g>
</g>
<!-- Node27 -->
<g id="Node000027" class="node">
<title>Node27</title>
<g id="a_Node000027"><a xlink:href="classcom_1_1runehive_1_1game_1_1world_1_1entity_1_1mob_1_1player_1_1_player.html#a908fb61974719a74180d6300b838bfe1" target="_top" xlink:title=" ">
<ellipse fill="white" stroke="#666666" cx="2089.54" cy="-122.81" rx="175.72" ry="25.81"/>
<text xml:space="preserve" text-anchor="start" x="1973.29" y="-125.66" font-family="Helvetica,sans-Serif" font-size="12.00">com.runehive.game.world.entity.mob.player.</text>
<text xml:space="preserve" text-anchor="middle" x="2089.54" y="-111.41" font-family="Helvetica,sans-Serif" font-size="12.00">Player.getSession</text>
</a>
</g>
</g>
<!-- Node25&#45;&gt;Node27 -->
<g id="edge27_Node000025_Node000027" class="edge">
<title>Node25&#45;&gt;Node27</title>
<g id="a_edge27_Node000025_Node000027"><a xlink:title=" ">
<path fill="none" stroke="#63b8ff" d="M1774.46,-149.43C1819.59,-145.6 1874.24,-140.97 1925.21,-136.65"/>
<polygon fill="#63b8ff" stroke="#63b8ff" points="1925.19,-140.17 1934.86,-135.83 1924.6,-133.19 1925.19,-140.17"/>
</a>
</g>
</g>
<!-- Node29&#45;&gt;Node24 -->
<g id="edge30_Node000029_Node000024" class="edge">
<title>Node29&#45;&gt;Node24</title>
<g id="a_edge30_Node000029_Node000024"><a xlink:title=" ">
<path fill="none" stroke="#63b8ff" d="M952.44,-113.62C998.37,-120.9 1051.82,-129.39 1099.56,-136.96"/>
<polygon fill="#63b8ff" stroke="#63b8ff" points="1099,-140.42 1109.42,-138.53 1100.1,-133.5 1099,-140.42"/>
</a>
</g>
</g>
</g>
</svg>

<g id="navigator" transform="translate(0 0)" fill="#404254">
  <rect fill="#f2f5e9" fill-opacity="0.5" stroke="#606060" stroke-width=".5" x="0" y="0" width="60" height="60"/>
  <use id="zoomplus" xlink:href="#zoomPlus" x="17" y="9" onmousedown="handleZoom(evt,'in')"/>
  <use id="zoomminus" xlink:href="#zoomMin" x="42" y="9" onmousedown="handleZoom(evt,'out')"/>
  <use id="reset" xlink:href="#resetDef" x="30" y="36" onmousedown="handleReset()"/>
   <use id="arrowup" xlink:href="#arrowUp" x="0" y="0" onmousedown="handlePan(0,-1)"/>
  <use id="arrowright" xlink:href="#arrowRight" x="0" y="0" onmousedown="handlePan(1,0)"/>
  <use id="arrowdown" xlink:href="#arrowDown" x="0" y="0" onmousedown="handlePan(0,1)"/>
  <use id="arrowleft" xlink:href="#arrowLeft" x="0" y="0" onmousedown="handlePan(-1,0)"/>
</g>
<svg viewBox="0 0 15 15" width="100%" height="30px" preserveAspectRatio="xMaxYMin meet">
 <g id="arrow_out" transform="scale(0.3 0.3)">
  <a xlink:href="classcom_1_1runehive_1_1content_1_1skill_1_1impl_1_1slayer_1_1_slayer_afc11b14bb05f372b313e50553faa3c82_cgraph_org.svg" target="_base">
   <rect id="button" ry="5" rx="5" y="6" x="6" height="38" width="38"
        fill="#f2f5e9" fill-opacity="0.5" stroke="#606060" stroke-width="1.0"/>
   <path id="arrow"
     d="M 11.500037,31.436501 C 11.940474,20.09759 22.043105,11.32322 32.158766,21.979434 L 37.068811,17.246167 C 37.068811,17.246167 37.088388,32 37.088388,32 L 22.160133,31.978069 C 22.160133,31.978069 26.997745,27.140456 26.997745,27.140456 C 18.528582,18.264221 13.291696,25.230495 11.500037,31.436501 z"
     style="fill:#404040;"/>
  </a>
 </g>
</svg>

<style type='text/css'>
<![CDATA[
[data-mouse-over-selected='false'] { opacity: 0.7; }
[data-mouse-over-selected='true']  { opacity: 1.0; }
]]>
</style>
<script type="application/ecmascript"><![CDATA[
document.addEventListener('DOMContentLoaded', (event) => {
  highlightEdges();
  highlightAdjacentNodes();
});
]]></script>
</svg>
