<?xml version="1.0" encoding="UTF-8" standalone="no"?>
<!DOCTYPE svg PUBLIC "-//W3C//DTD SVG 1.1//EN"
 "http://www.w3.org/Graphics/SVG/1.1/DTD/svg11.dtd">
<!-- Generated by graphviz version 14.0.1 (20251006.0113)
 -->
<!-- Title: com.runehive.game.world.entity.mob.npc.definition.NpcDefinition.getName Pages: 1 -->
<svg width="2145pt" height="346pt"
 viewBox="0.00 0.00 2145.00 346.00" xmlns="http://www.w3.org/2000/svg" xmlns:xlink="http://www.w3.org/1999/xlink">
<g id="graph0" class="graph" transform="scale(1 1) rotate(0) translate(4 341.62)">
<title>com.runehive.game.world.entity.mob.npc.definition.NpcDefinition.getName</title>
<!-- Node1 -->
<g id="Node000001" class="node">
<title>Node1</title>
<g id="a_Node000001"><a xlink:title=" ">
<ellipse fill="#999999" stroke="#666666" cx="1933.92" cy="-176.81" rx="203.29" ry="25.81"/>
<text xml:space="preserve" text-anchor="start" x="1798.17" y="-179.66" font-family="Helvetica,sans-Serif" font-size="12.00">com.runehive.game.world.entity.mob.npc.definition.</text>
<text xml:space="preserve" text-anchor="middle" x="1933.92" y="-165.41" font-family="Helvetica,sans-Serif" font-size="12.00">NpcDefinition.getName</text>
</a>
</g>
</g>
<!-- Node2 -->
<g id="Node000002" class="node">
<title>Node2</title>
<g id="a_Node000002"><a xlink:href="classcom_1_1runehive_1_1content_1_1_drop_display.html#a78b6044e2a694a3e0863e22a6b72528b" target="_top" xlink:title=" ">
<ellipse fill="white" stroke="#666666" cx="1564.52" cy="-311.81" rx="112.61" ry="25.81"/>
<text xml:space="preserve" text-anchor="start" x="1492.89" y="-314.66" font-family="Helvetica,sans-Serif" font-size="12.00">com.runehive.content.Drop</text>
<text xml:space="preserve" text-anchor="middle" x="1564.52" y="-300.41" font-family="Helvetica,sans-Serif" font-size="12.00">Display.display</text>
</a>
</g>
</g>
<!-- Node1&#45;&gt;Node2 -->
<g id="edge1_Node000001_Node000002" class="edge">
<title>Node1&#45;&gt;Node2</title>
<g id="a_edge1_Node000001_Node000002"><a xlink:title=" ">
<path fill="none" stroke="#63b8ff" d="M1863.26,-206.27C1816.03,-225.82 1752.01,-251.52 1694.62,-271.81 1675.49,-278.58 1654.54,-285.34 1635.2,-291.32"/>
<polygon fill="#63b8ff" stroke="#63b8ff" points="1864.38,-209.59 1872.27,-202.52 1861.7,-203.12 1864.38,-209.59"/>
</a>
</g>
</g>
<!-- Node7 -->
<g id="Node000007" class="node">
<title>Node7</title>
<g id="a_Node000007"><a xlink:href="classcom_1_1runehive_1_1content_1_1_drop_display.html#a007e75312448a861f2a3f31aa3f8311b" target="_top" xlink:title=" ">
<ellipse fill="white" stroke="#666666" cx="1268.3" cy="-257.81" rx="112.61" ry="25.81"/>
<text xml:space="preserve" text-anchor="start" x="1196.67" y="-260.66" font-family="Helvetica,sans-Serif" font-size="12.00">com.runehive.content.Drop</text>
<text xml:space="preserve" text-anchor="middle" x="1268.3" y="-246.41" font-family="Helvetica,sans-Serif" font-size="12.00">Display.search</text>
</a>
</g>
</g>
<!-- Node1&#45;&gt;Node7 -->
<g id="edge13_Node000001_Node000007" class="edge">
<title>Node1&#45;&gt;Node7</title>
<g id="a_edge13_Node000001_Node000007"><a xlink:title=" ">
<path fill="none" stroke="#63b8ff" d="M1845.67,-204.21C1800.97,-217.04 1745.39,-231.16 1694.62,-238.81 1589.01,-254.73 1467.11,-258.73 1380.96,-259.19"/>
<polygon fill="#63b8ff" stroke="#63b8ff" points="1846.42,-207.64 1855.04,-201.49 1844.46,-200.91 1846.42,-207.64"/>
</a>
</g>
</g>
<!-- Node8 -->
<g id="Node000008" class="node">
<title>Node8</title>
<g id="a_Node000008"><a xlink:href="classcom_1_1runehive_1_1content_1_1simulator_1_1_drop_simulator.html#a54c6e0794a2bf6d98d4ae179b440c7cc" target="_top" xlink:title="Handles drawing the lsit of npcs based off the search context.">
<ellipse fill="white" stroke="#666666" cx="1564.52" cy="-203.81" rx="130.11" ry="25.81"/>
<text xml:space="preserve" text-anchor="start" x="1480.52" y="-206.66" font-family="Helvetica,sans-Serif" font-size="12.00">com.runehive.content.simulator.</text>
<text xml:space="preserve" text-anchor="middle" x="1564.52" y="-192.41" font-family="Helvetica,sans-Serif" font-size="12.00">DropSimulator.drawList</text>
</a>
</g>
</g>
<!-- Node1&#45;&gt;Node8 -->
<g id="edge8_Node000001_Node000008" class="edge">
<title>Node1&#45;&gt;Node8</title>
<g id="a_edge8_Node000001_Node000008"><a xlink:title=" ">
<path fill="none" stroke="#63b8ff" d="M1745.42,-190.59C1725.61,-192.04 1705.86,-193.5 1687.09,-194.88"/>
<polygon fill="#63b8ff" stroke="#63b8ff" points="1745.52,-194.09 1755.24,-189.87 1745.01,-187.11 1745.52,-194.09"/>
</a>
</g>
</g>
<!-- Node9 -->
<g id="Node000009" class="node">
<title>Node9</title>
<g id="a_Node000009"><a xlink:href="classcom_1_1runehive_1_1content_1_1simulator_1_1_drop_simulator.html#a8f72a68dde7cb5454ac51deffdea5541" target="_top" xlink:title="Handles opening the drop simulator itemcontainer.">
<ellipse fill="white" stroke="#666666" cx="1268.3" cy="-187.81" rx="130.11" ry="25.81"/>
<text xml:space="preserve" text-anchor="start" x="1184.3" y="-190.66" font-family="Helvetica,sans-Serif" font-size="12.00">com.runehive.content.simulator.</text>
<text xml:space="preserve" text-anchor="middle" x="1268.3" y="-176.41" font-family="Helvetica,sans-Serif" font-size="12.00">DropSimulator.open</text>
</a>
</g>
</g>
<!-- Node1&#45;&gt;Node9 -->
<g id="edge12_Node000001_Node000009" class="edge">
<title>Node1&#45;&gt;Node9</title>
<g id="a_edge12_Node000001_Node000009"><a xlink:title=" ">
<path fill="none" stroke="#63b8ff" d="M1732.99,-166.91C1641.85,-164.12 1532.61,-163.18 1434.41,-168.81 1416.12,-169.86 1396.74,-171.56 1377.94,-173.52"/>
<polygon fill="#63b8ff" stroke="#63b8ff" points="1732.67,-170.41 1742.78,-167.22 1732.9,-163.41 1732.67,-170.41"/>
</a>
</g>
</g>
<!-- Node10 -->
<g id="Node000010" class="node">
<title>Node10</title>
<g id="a_Node000010"><a xlink:href="classcom_1_1runehive_1_1util_1_1tools_1_1_drop_definition_dumper.html#a2e74d13c9625f19ba8bd86f824f05e58" target="_top" xlink:title=" ">
<ellipse fill="white" stroke="#666666" cx="1564.52" cy="-95.81" rx="116.32" ry="25.81"/>
<text xml:space="preserve" text-anchor="start" x="1490.27" y="-98.66" font-family="Helvetica,sans-Serif" font-size="12.00">com.runehive.util.tools.</text>
<text xml:space="preserve" text-anchor="middle" x="1564.52" y="-84.41" font-family="Helvetica,sans-Serif" font-size="12.00">DropDefinitionDumper.main</text>
</a>
</g>
</g>
<!-- Node1&#45;&gt;Node10 -->
<g id="edge11_Node000001_Node000010" class="edge">
<title>Node1&#45;&gt;Node10</title>
<g id="a_edge11_Node000001_Node000010"><a xlink:title=" ">
<path fill="none" stroke="#63b8ff" d="M1819.66,-151.84C1764.36,-139.65 1699.04,-125.25 1648.46,-114.1"/>
<polygon fill="#63b8ff" stroke="#63b8ff" points="1818.58,-155.19 1829.1,-153.92 1820.08,-148.35 1818.58,-155.19"/>
</a>
</g>
</g>
<!-- Node11 -->
<g id="Node000011" class="node">
<title>Node11</title>
<g id="a_Node000011"><a xlink:href="classcom_1_1runehive_1_1content_1_1dialogue_1_1_dialogue_factory.html#a614023ba6e79323b03ebae302b1d3f3f" target="_top" xlink:title="Sends a dialogue with a npc talking.">
<ellipse fill="white" stroke="#666666" cx="1564.52" cy="-25.81" rx="129.05" ry="25.81"/>
<text xml:space="preserve" text-anchor="start" x="1481.27" y="-28.66" font-family="Helvetica,sans-Serif" font-size="12.00">com.runehive.content.dialogue.</text>
<text xml:space="preserve" text-anchor="middle" x="1564.52" y="-14.41" font-family="Helvetica,sans-Serif" font-size="12.00">DialogueFactory.sendNpcChat</text>
</a>
</g>
</g>
<!-- Node1&#45;&gt;Node11 -->
<g id="edge14_Node000001_Node000011" class="edge">
<title>Node1&#45;&gt;Node11</title>
<g id="a_edge14_Node000001_Node000011"><a xlink:title=" ">
<path fill="none" stroke="#63b8ff" d="M1876.97,-145.84C1829.5,-120.48 1759.04,-84.97 1694.62,-60.81 1679.84,-55.26 1663.8,-50.19 1648.21,-45.74"/>
<polygon fill="#63b8ff" stroke="#63b8ff" points="1875.24,-148.89 1885.71,-150.54 1878.55,-142.72 1875.24,-148.89"/>
</a>
</g>
</g>
<!-- Node3 -->
<g id="Node000003" class="node">
<title>Node3</title>
<g id="a_Node000003"><a xlink:href="classcom_1_1runehive_1_1content_1_1_drop_display.html#ad05cef4a679fc580725a18f2f436dde9" target="_top" xlink:title=" ">
<ellipse fill="white" stroke="#666666" cx="989.59" cy="-257.81" rx="112.61" ry="25.81"/>
<text xml:space="preserve" text-anchor="start" x="917.96" y="-260.66" font-family="Helvetica,sans-Serif" font-size="12.00">com.runehive.content.Drop</text>
<text xml:space="preserve" text-anchor="middle" x="989.59" y="-246.41" font-family="Helvetica,sans-Serif" font-size="12.00">Display.open</text>
</a>
</g>
</g>
<!-- Node2&#45;&gt;Node3 -->
<g id="edge2_Node000002_Node000003" class="edge">
<title>Node2&#45;&gt;Node3</title>
<g id="a_edge2_Node000002_Node000003"><a xlink:title=" ">
<path fill="none" stroke="#63b8ff" d="M1440.21,-312.41C1355,-311.34 1239.25,-306.92 1138.19,-292.81 1113.41,-289.35 1086.7,-283.64 1062.89,-277.82"/>
<polygon fill="#63b8ff" stroke="#63b8ff" points="1439.95,-315.91 1449.99,-312.52 1440.02,-308.91 1439.95,-315.91"/>
</a>
</g>
</g>
<!-- Node2&#45;&gt;Node7 -->
<g id="edge6_Node000002_Node000007" class="edge">
<title>Node2&#45;&gt;Node7</title>
<g id="a_edge6_Node000002_Node000007"><a xlink:title=" ">
<path fill="none" stroke="#63b8ff" d="M1464.51,-293.64C1429.77,-287.26 1391,-280.15 1357.23,-273.95"/>
<polygon fill="#63b8ff" stroke="#63b8ff" points="1463.68,-297.04 1474.15,-295.41 1464.95,-290.16 1463.68,-297.04"/>
</a>
</g>
</g>
<!-- Node4 -->
<g id="Node000004" class="node">
<title>Node4</title>
<g id="a_Node000004"><a xlink:href="classcom_1_1runehive_1_1game_1_1plugin_1_1_plugin_context.html#a0657fb2e82319028b3891d6aabfdf9f9" target="_top" xlink:title=" ">
<ellipse fill="white" stroke="#666666" cx="727.84" cy="-222.81" rx="113.14" ry="25.81"/>
<text xml:space="preserve" text-anchor="start" x="655.84" y="-225.66" font-family="Helvetica,sans-Serif" font-size="12.00">com.runehive.game.plugin.</text>
<text xml:space="preserve" text-anchor="middle" x="727.84" y="-211.41" font-family="Helvetica,sans-Serif" font-size="12.00">PluginContext.onClick</text>
</a>
</g>
</g>
<!-- Node3&#45;&gt;Node4 -->
<g id="edge3_Node000003_Node000004" class="edge">
<title>Node3&#45;&gt;Node4</title>
<g id="a_edge3_Node000003_Node000004"><a xlink:title=" ">
<path fill="none" stroke="#63b8ff" d="M880.15,-243.2C862.27,-240.79 843.83,-238.3 826.24,-235.93"/>
<polygon fill="#63b8ff" stroke="#63b8ff" points="879.62,-246.66 890,-244.52 880.55,-239.72 879.62,-246.66"/>
</a>
</g>
</g>
<!-- Node5 -->
<g id="Node000005" class="node">
<title>Node5</title>
<g id="a_Node000005"><a xlink:href="classcom_1_1runehive_1_1game_1_1plugin_1_1_plugin_context.html#a030bf416734707c861648b0a85fb6632" target="_top" xlink:title=" ">
<ellipse fill="white" stroke="#666666" cx="420.49" cy="-222.81" rx="158.22" ry="25.81"/>
<text xml:space="preserve" text-anchor="start" x="316.61" y="-225.66" font-family="Helvetica,sans-Serif" font-size="12.00">com.runehive.game.plugin.</text>
<text xml:space="preserve" text-anchor="middle" x="420.49" y="-211.41" font-family="Helvetica,sans-Serif" font-size="12.00">PluginContext.handleButtonClickEvent</text>
</a>
</g>
</g>
<!-- Node4&#45;&gt;Node5 -->
<g id="edge4_Node000004_Node000005" class="edge">
<title>Node4&#45;&gt;Node5</title>
<g id="a_edge4_Node000004_Node000005"><a xlink:title=" ">
<path fill="none" stroke="#63b8ff" d="M602.96,-222.81C595.07,-222.81 587.07,-222.81 579.05,-222.81"/>
<polygon fill="#63b8ff" stroke="#63b8ff" points="602.93,-226.31 612.93,-222.81 602.93,-219.31 602.93,-226.31"/>
</a>
</g>
</g>
<!-- Node6 -->
<g id="Node000006" class="node">
<title>Node6</title>
<g id="a_Node000006"><a xlink:href="classcom_1_1runehive_1_1game_1_1plugin_1_1_plugin_context.html#a07799fbe60ad6f7b7324e9926a0ab5a4" target="_top" xlink:title="The method that allows an event listener to accept an event.">
<ellipse fill="white" stroke="#666666" cx="113.14" cy="-222.81" rx="113.14" ry="25.81"/>
<text xml:space="preserve" text-anchor="start" x="41.14" y="-225.66" font-family="Helvetica,sans-Serif" font-size="12.00">com.runehive.game.plugin.</text>
<text xml:space="preserve" text-anchor="middle" x="113.14" y="-211.41" font-family="Helvetica,sans-Serif" font-size="12.00">PluginContext.accept</text>
</a>
</g>
</g>
<!-- Node5&#45;&gt;Node6 -->
<g id="edge5_Node000005_Node000006" class="edge">
<title>Node5&#45;&gt;Node6</title>
<g id="a_edge5_Node000005_Node000006"><a xlink:title=" ">
<path fill="none" stroke="#63b8ff" d="M250.43,-222.81C242.34,-222.81 234.31,-222.81 226.43,-222.81"/>
<polygon fill="#63b8ff" stroke="#63b8ff" points="250.38,-226.31 260.38,-222.81 250.38,-219.31 250.38,-226.31"/>
</a>
</g>
</g>
<!-- Node7&#45;&gt;Node3 -->
<g id="edge7_Node000007_Node000003" class="edge">
<title>Node7&#45;&gt;Node3</title>
<g id="a_edge7_Node000007_Node000003"><a xlink:title=" ">
<path fill="none" stroke="#63b8ff" d="M1144.37,-257.81C1130.37,-257.81 1116.15,-257.81 1102.31,-257.81"/>
<polygon fill="#63b8ff" stroke="#63b8ff" points="1144.03,-261.31 1154.03,-257.81 1144.03,-254.31 1144.03,-261.31"/>
</a>
</g>
</g>
<!-- Node8&#45;&gt;Node9 -->
<g id="edge9_Node000008_Node000009" class="edge">
<title>Node8&#45;&gt;Node9</title>
<g id="a_edge9_Node000008_Node000009"><a xlink:title=" ">
<path fill="none" stroke="#63b8ff" d="M1427.3,-196.4C1416.29,-195.8 1405.2,-195.2 1394.27,-194.61"/>
<polygon fill="#63b8ff" stroke="#63b8ff" points="1427.05,-199.89 1437.23,-196.94 1427.43,-192.9 1427.05,-199.89"/>
</a>
</g>
</g>
<!-- Node9&#45;&gt;Node4 -->
<g id="edge10_Node000009_Node000004" class="edge">
<title>Node9&#45;&gt;Node4</title>
<g id="a_edge10_Node000009_Node000004"><a xlink:title=" ">
<path fill="none" stroke="#63b8ff" d="M1132.82,-196.55C1041.43,-202.49 922.12,-210.25 836.9,-215.79"/>
<polygon fill="#63b8ff" stroke="#63b8ff" points="1132.84,-200.06 1142.59,-195.92 1132.39,-193.07 1132.84,-200.06"/>
</a>
</g>
</g>
</g>
</svg>
