<?xml version="1.0" encoding="UTF-8" standalone="no"?>
<!DOCTYPE svg PUBLIC "-//W3C//DTD SVG 1.1//EN"
 "http://www.w3.org/Graphics/SVG/1.1/DTD/svg11.dtd">
<!-- Generated by graphviz version 14.0.1 (20251006.0113)
 -->
<!-- Title: com.runehive.game.world.object.CustomGameObject.rotate Pages: 1 -->
<svg width="2006pt" height="760pt"
 viewBox="0.00 0.00 2006.00 760.00" xmlns="http://www.w3.org/2000/svg" xmlns:xlink="http://www.w3.org/1999/xlink">
<g id="graph0" class="graph" transform="scale(1 1) rotate(0) translate(4 755.62)">
<title>com.runehive.game.world.object.CustomGameObject.rotate</title>
<!-- Node1 -->
<g id="Node000001" class="node">
<title>Node1</title>
<g id="a_Node000001"><a xlink:title=" ">
<ellipse fill="#999999" stroke="#666666" cx="135.41" cy="-253.81" rx="135.41" ry="25.81"/>
<text xml:space="preserve" text-anchor="start" x="47.66" y="-256.66" font-family="Helvetica,sans-Serif" font-size="12.00">com.runehive.game.world.object.</text>
<text xml:space="preserve" text-anchor="middle" x="135.41" y="-242.41" font-family="Helvetica,sans-Serif" font-size="12.00">CustomGameObject.rotate</text>
</a>
</g>
</g>
<!-- Node2 -->
<g id="Node000002" class="node">
<title>Node2</title>
<g id="a_Node000002"><a xlink:href="classcom_1_1runehive_1_1game_1_1world_1_1object_1_1_custom_game_object.html#aae3df966e0d98979b12319f5deb3c12a" target="_top" xlink:title="Registers an entity to the World.">
<ellipse fill="white" stroke="#666666" cx="442.23" cy="-315.81" rx="135.41" ry="25.81"/>
<text xml:space="preserve" text-anchor="start" x="354.48" y="-318.66" font-family="Helvetica,sans-Serif" font-size="12.00">com.runehive.game.world.object.</text>
<text xml:space="preserve" text-anchor="middle" x="442.23" y="-304.41" font-family="Helvetica,sans-Serif" font-size="12.00">CustomGameObject.register</text>
</a>
</g>
</g>
<!-- Node1&#45;&gt;Node2 -->
<g id="edge1_Node000001_Node000002" class="edge">
<title>Node1&#45;&gt;Node2</title>
<g id="a_edge1_Node000001_Node000002"><a xlink:title=" ">
<path fill="none" stroke="#63b8ff" d="M229.52,-272.75C263.49,-279.66 302.11,-287.51 336.99,-294.61"/>
<polygon fill="#63b8ff" stroke="#63b8ff" points="336.19,-298.01 346.68,-296.58 337.58,-291.16 336.19,-298.01"/>
</a>
</g>
</g>
<!-- Node28 -->
<g id="Node000028" class="node">
<title>Node28</title>
<g id="a_Node000028"><a xlink:href="classcom_1_1runehive_1_1game_1_1world_1_1object_1_1_custom_game_object.html#aa15bdd9916ec99bfbc4ea7d249644a19" target="_top" xlink:title="Unregisters an entity from the World.">
<ellipse fill="white" stroke="#666666" cx="442.23" cy="-218.81" rx="135.41" ry="25.81"/>
<text xml:space="preserve" text-anchor="start" x="354.48" y="-221.66" font-family="Helvetica,sans-Serif" font-size="12.00">com.runehive.game.world.object.</text>
<text xml:space="preserve" text-anchor="middle" x="442.23" y="-207.41" font-family="Helvetica,sans-Serif" font-size="12.00">CustomGameObject.unregister</text>
</a>
</g>
</g>
<!-- Node1&#45;&gt;Node28 -->
<g id="edge32_Node000001_Node000028" class="edge">
<title>Node1&#45;&gt;Node28</title>
<g id="a_edge32_Node000001_Node000028"><a xlink:title=" ">
<path fill="none" stroke="#63b8ff" d="M252.52,-240.48C272.61,-238.17 293.59,-235.76 313.95,-233.42"/>
<polygon fill="#63b8ff" stroke="#63b8ff" points="314.15,-236.92 323.69,-232.31 313.36,-229.97 314.15,-236.92"/>
</a>
</g>
</g>
<!-- Node3 -->
<g id="Node000003" class="node">
<title>Node3</title>
<g id="a_Node000003"><a xlink:href="classcom_1_1runehive_1_1game_1_1world_1_1object_1_1_custom_game_object.html#a45a65871c476e31b5f733d6a132bf738" target="_top" xlink:title="Adds this entity to the specified region.">
<ellipse fill="white" stroke="#666666" cx="778.75" cy="-458.81" rx="140.71" ry="25.81"/>
<text xml:space="preserve" text-anchor="start" x="687.25" y="-461.66" font-family="Helvetica,sans-Serif" font-size="12.00">com.runehive.game.world.object.</text>
<text xml:space="preserve" text-anchor="middle" x="778.75" y="-447.41" font-family="Helvetica,sans-Serif" font-size="12.00">CustomGameObject.addToRegion</text>
</a>
</g>
</g>
<!-- Node2&#45;&gt;Node3 -->
<g id="edge2_Node000002_Node000003" class="edge">
<title>Node2&#45;&gt;Node3</title>
<g id="a_edge2_Node000002_Node000003"><a xlink:title=" ">
<path fill="none" stroke="#63b8ff" d="M475.57,-341.28C508.5,-365.97 561.92,-402.7 613.64,-423.81 628.33,-429.8 644.19,-434.83 660.06,-439.03"/>
<polygon fill="#63b8ff" stroke="#63b8ff" points="659.01,-442.37 669.57,-441.44 660.73,-435.59 659.01,-442.37"/>
</a>
</g>
</g>
<!-- Node8 -->
<g id="Node000008" class="node">
<title>Node8</title>
<g id="a_Node000008"><a xlink:href="classcom_1_1runehive_1_1game_1_1world_1_1entity_1_1_entity.html#a561452a2370cad1b551c6f717121ab31" target="_top" xlink:title=" ">
<ellipse fill="white" stroke="#666666" cx="1143.91" cy="-655.81" rx="132.23" ry="25.81"/>
<text xml:space="preserve" text-anchor="start" x="1058.41" y="-658.66" font-family="Helvetica,sans-Serif" font-size="12.00">com.runehive.game.world.entity.</text>
<text xml:space="preserve" text-anchor="middle" x="1143.91" y="-644.41" font-family="Helvetica,sans-Serif" font-size="12.00">Entity.getHeight</text>
</a>
</g>
</g>
<!-- Node2&#45;&gt;Node8 -->
<g id="edge23_Node000002_Node000008" class="edge">
<title>Node2&#45;&gt;Node8</title>
<g id="a_edge23_Node000002_Node000008"><a xlink:title=" ">
<path fill="none" stroke="#63b8ff" d="M461.52,-341.62C489.93,-379.96 548.26,-451.92 613.64,-493.81 744.38,-577.57 797.46,-556.11 943.86,-607.81 959.9,-613.47 963.51,-616.12 979.86,-620.81 998.13,-626.04 1017.74,-630.89 1036.81,-635.21"/>
<polygon fill="#63b8ff" stroke="#63b8ff" points="1035.97,-638.61 1046.49,-637.36 1037.49,-631.77 1035.97,-638.61"/>
</a>
</g>
</g>
<!-- Node10 -->
<g id="Node000010" class="node">
<title>Node10</title>
<g id="a_Node000010"><a xlink:href="classcom_1_1runehive_1_1game_1_1world_1_1entity_1_1_entity.html#a8afdd0de68f242bf7082076dfbfffe37" target="_top" xlink:title=" ">
<ellipse fill="white" stroke="#666666" cx="1143.91" cy="-165.81" rx="132.23" ry="25.81"/>
<text xml:space="preserve" text-anchor="start" x="1058.41" y="-168.66" font-family="Helvetica,sans-Serif" font-size="12.00">com.runehive.game.world.entity.</text>
<text xml:space="preserve" text-anchor="middle" x="1143.91" y="-154.41" font-family="Helvetica,sans-Serif" font-size="12.00">Entity.getPosition</text>
</a>
</g>
</g>
<!-- Node2&#45;&gt;Node10 -->
<g id="edge24_Node000002_Node000010" class="edge">
<title>Node2&#45;&gt;Node10</title>
<g id="a_edge24_Node000002_Node000010"><a xlink:title=" ">
<path fill="none" stroke="#63b8ff" d="M557.72,-329.59C686.3,-342.54 884.74,-354.12 943.86,-310.81 985.36,-280.41 941.63,-235.23 979.86,-200.81 989.35,-192.27 1000.4,-185.63 1012.2,-180.5"/>
<polygon fill="#63b8ff" stroke="#63b8ff" points="1013.31,-183.82 1021.34,-176.91 1010.75,-177.31 1013.31,-183.82"/>
</a>
</g>
</g>
<!-- Node22 -->
<g id="Node000022" class="node">
<title>Node22</title>
<g id="a_Node000022"><a xlink:href="classcom_1_1runehive_1_1game_1_1world_1_1entity_1_1_entity.html#a119860ba3aeba7613256edf5fa337efe" target="_top" xlink:title=" ">
<ellipse fill="white" stroke="#666666" cx="778.75" cy="-242.81" rx="132.23" ry="25.81"/>
<text xml:space="preserve" text-anchor="start" x="693.25" y="-245.66" font-family="Helvetica,sans-Serif" font-size="12.00">com.runehive.game.world.entity.</text>
<text xml:space="preserve" text-anchor="middle" x="778.75" y="-231.41" font-family="Helvetica,sans-Serif" font-size="12.00">Entity.getRegion</text>
</a>
</g>
</g>
<!-- Node2&#45;&gt;Node22 -->
<g id="edge25_Node000002_Node000022" class="edge">
<title>Node2&#45;&gt;Node22</title>
<g id="a_edge25_Node000002_Node000022"><a xlink:title=" ">
<path fill="none" stroke="#63b8ff" d="M532.88,-296.25C577.58,-286.49 631.78,-274.67 677.81,-264.62"/>
<polygon fill="#63b8ff" stroke="#63b8ff" points="678.52,-268.05 687.54,-262.5 677.03,-261.21 678.52,-268.05"/>
</a>
</g>
</g>
<!-- Node23 -->
<g id="Node000023" class="node">
<title>Node23</title>
<g id="a_Node000023"><a xlink:href="classcom_1_1runehive_1_1game_1_1world_1_1entity_1_1_entity.html#a6fbe05d5095666dd6a6ce87d3176c8dc" target="_top" xlink:title=" ">
<ellipse fill="white" stroke="#666666" cx="778.75" cy="-172.81" rx="132.23" ry="25.81"/>
<text xml:space="preserve" text-anchor="start" x="693.25" y="-175.66" font-family="Helvetica,sans-Serif" font-size="12.00">com.runehive.game.world.entity.</text>
<text xml:space="preserve" text-anchor="middle" x="778.75" y="-161.41" font-family="Helvetica,sans-Serif" font-size="12.00">Entity.isRegistered</text>
</a>
</g>
</g>
<!-- Node2&#45;&gt;Node23 -->
<g id="edge26_Node000002_Node000023" class="edge">
<title>Node2&#45;&gt;Node23</title>
<g id="a_edge26_Node000002_Node000023"><a xlink:title=" ">
<path fill="none" stroke="#63b8ff" d="M508.66,-293.01C531.83,-283.09 557.19,-270 577.64,-253.81 598,-237.7 591.63,-221.57 613.64,-207.81 625.95,-200.12 639.68,-194.1 653.81,-189.39"/>
<polygon fill="#63b8ff" stroke="#63b8ff" points="654.71,-192.77 663.23,-186.48 652.65,-186.08 654.71,-192.77"/>
</a>
</g>
</g>
<!-- Node24 -->
<g id="Node000024" class="node">
<title>Node24</title>
<g id="a_Node000024"><a xlink:href="classcom_1_1runehive_1_1game_1_1world_1_1entity_1_1_entity.html#afdf83a2e020bbacd7b805a8823fe662b" target="_top" xlink:title=" ">
<ellipse fill="white" stroke="#666666" cx="778.75" cy="-642.81" rx="132.23" ry="25.81"/>
<text xml:space="preserve" text-anchor="start" x="693.25" y="-645.66" font-family="Helvetica,sans-Serif" font-size="12.00">com.runehive.game.world.entity.</text>
<text xml:space="preserve" text-anchor="middle" x="778.75" y="-631.41" font-family="Helvetica,sans-Serif" font-size="12.00">Entity.setPosition</text>
</a>
</g>
</g>
<!-- Node2&#45;&gt;Node24 -->
<g id="edge27_Node000002_Node000024" class="edge">
<title>Node2&#45;&gt;Node24</title>
<g id="a_edge27_Node000002_Node000024"><a xlink:title=" ">
<path fill="none" stroke="#63b8ff" d="M453.7,-341.94C475.74,-393.87 531.74,-510.82 613.64,-577.81 635.01,-595.29 661.66,-608.52 687.24,-618.32"/>
<polygon fill="#63b8ff" stroke="#63b8ff" points="685.71,-621.49 696.31,-621.65 688.13,-614.92 685.71,-621.49"/>
</a>
</g>
</g>
<!-- Node27 -->
<g id="Node000027" class="node">
<title>Node27</title>
<g id="a_Node000027"><a xlink:href="classcom_1_1runehive_1_1game_1_1world_1_1entity_1_1_entity.html#a34b9b877cdc7ee49b14d42b45ef38d22" target="_top" xlink:title=" ">
<ellipse fill="white" stroke="#666666" cx="1143.91" cy="-95.81" rx="132.23" ry="25.81"/>
<text xml:space="preserve" text-anchor="start" x="1058.41" y="-98.66" font-family="Helvetica,sans-Serif" font-size="12.00">com.runehive.game.world.entity.</text>
<text xml:space="preserve" text-anchor="middle" x="1143.91" y="-84.41" font-family="Helvetica,sans-Serif" font-size="12.00">Entity.setRegistered</text>
</a>
</g>
</g>
<!-- Node2&#45;&gt;Node27 -->
<g id="edge31_Node000002_Node000027" class="edge">
<title>Node2&#45;&gt;Node27</title>
<g id="a_edge31_Node000002_Node000027"><a xlink:title=" ">
<path fill="none" stroke="#63b8ff" d="M574.12,-309.67C717.72,-302.37 929.87,-289.67 943.86,-277.81 995.17,-234.31 931.62,-177.68 979.86,-130.81 988.94,-121.99 999.66,-115.17 1011.21,-109.91"/>
<polygon fill="#63b8ff" stroke="#63b8ff" points="1012.22,-113.28 1020.16,-106.25 1009.58,-106.8 1012.22,-113.28"/>
</a>
</g>
</g>
<!-- Node4 -->
<g id="Node000004" class="node">
<title>Node4</title>
<g id="a_Node000004"><a xlink:href="classcom_1_1runehive_1_1game_1_1world_1_1region_1_1_region.html#a04dffe98ee5a4d758d8b96c69f65791f" target="_top" xlink:title=" ">
<ellipse fill="white" stroke="#666666" cx="1143.91" cy="-305.81" rx="136.47" ry="25.81"/>
<text xml:space="preserve" text-anchor="start" x="1055.41" y="-308.66" font-family="Helvetica,sans-Serif" font-size="12.00">com.runehive.game.world.region.</text>
<text xml:space="preserve" text-anchor="middle" x="1143.91" y="-294.41" font-family="Helvetica,sans-Serif" font-size="12.00">Region.containsObject</text>
</a>
</g>
</g>
<!-- Node3&#45;&gt;Node4 -->
<g id="edge3_Node000003_Node000004" class="edge">
<title>Node3&#45;&gt;Node4</title>
<g id="a_edge3_Node000003_Node000004"><a xlink:title=" ">
<path fill="none" stroke="#63b8ff" d="M902.72,-446.28C917.61,-440.95 931.8,-433.68 943.86,-423.81 974.98,-398.34 948.76,-366.3 979.86,-340.81 989.38,-333.01 1000.23,-326.84 1011.7,-321.97"/>
<polygon fill="#63b8ff" stroke="#63b8ff" points="1012.91,-325.25 1020.99,-318.39 1010.4,-318.72 1012.91,-325.25"/>
</a>
</g>
</g>
<!-- Node3&#45;&gt;Node8 -->
<g id="edge7_Node000003_Node000008" class="edge">
<title>Node3&#45;&gt;Node8</title>
<g id="a_edge7_Node000003_Node000008"><a xlink:title=" ">
<path fill="none" stroke="#63b8ff" d="M841.3,-482.33C874.86,-497.57 915.27,-520.13 943.86,-549.81 968.41,-575.29 951.84,-599.22 979.86,-620.81 990.43,-628.95 1002.48,-635.3 1015.14,-640.23"/>
<polygon fill="#63b8ff" stroke="#63b8ff" points="1013.87,-643.5 1024.46,-643.54 1016.21,-636.9 1013.87,-643.5"/>
</a>
</g>
</g>
<!-- Node9 -->
<g id="Node000009" class="node">
<title>Node9</title>
<g id="a_Node000009"><a xlink:href="classcom_1_1runehive_1_1game_1_1world_1_1object_1_1_custom_game_object.html#a15330c18465489c1c95c98f0e83625e9" target="_top" xlink:title=" ">
<ellipse fill="white" stroke="#666666" cx="1143.91" cy="-235.81" rx="162.99" ry="25.81"/>
<text xml:space="preserve" text-anchor="start" x="1036.66" y="-238.66" font-family="Helvetica,sans-Serif" font-size="12.00">com.runehive.game.world.object.</text>
<text xml:space="preserve" text-anchor="middle" x="1143.91" y="-224.41" font-family="Helvetica,sans-Serif" font-size="12.00">CustomGameObject.getInstancedHeight</text>
</a>
</g>
</g>
<!-- Node3&#45;&gt;Node9 -->
<g id="edge8_Node000003_Node000009" class="edge">
<title>Node3&#45;&gt;Node9</title>
<g id="a_edge8_Node000003_Node000009"><a xlink:title=" ">
<path fill="none" stroke="#63b8ff" d="M906.09,-447.58C920.1,-442 933.14,-434.31 943.86,-423.81 993.77,-374.93 929.98,-319.72 979.86,-270.81 985.76,-265.03 992.37,-260.1 999.46,-255.9"/>
<polygon fill="#63b8ff" stroke="#63b8ff" points="1000.87,-259.12 1008.06,-251.34 997.59,-252.93 1000.87,-259.12"/>
</a>
</g>
</g>
<!-- Node3&#45;&gt;Node10 -->
<g id="edge9_Node000003_Node000010" class="edge">
<title>Node3&#45;&gt;Node10</title>
<g id="a_edge9_Node000003_Node000010"><a xlink:title=" ">
<path fill="none" stroke="#63b8ff" d="M907.22,-448.13C920.95,-442.44 933.62,-434.57 943.86,-423.81 1013.05,-351.07 910.72,-273.6 979.86,-200.81 988.34,-191.89 998.49,-184.97 1009.53,-179.62"/>
<polygon fill="#63b8ff" stroke="#63b8ff" points="1010.71,-182.93 1018.51,-175.75 1007.94,-176.5 1010.71,-182.93"/>
</a>
</g>
</g>
<!-- Node11 -->
<g id="Node000011" class="node">
<title>Node11</title>
<g id="a_Node000011"><a xlink:href="classcom_1_1runehive_1_1game_1_1world_1_1_world.html#af3702492a0bfe700e150763e8e976efe" target="_top" xlink:title=" ">
<ellipse fill="white" stroke="#666666" cx="1143.91" cy="-585.81" rx="110.49" ry="25.81"/>
<text xml:space="preserve" text-anchor="start" x="1073.79" y="-588.66" font-family="Helvetica,sans-Serif" font-size="12.00">com.runehive.game.world.</text>
<text xml:space="preserve" text-anchor="middle" x="1143.91" y="-574.41" font-family="Helvetica,sans-Serif" font-size="12.00">World.getRegions</text>
</a>
</g>
</g>
<!-- Node3&#45;&gt;Node11 -->
<g id="edge10_Node000003_Node000011" class="edge">
<title>Node3&#45;&gt;Node11</title>
<g id="a_edge10_Node000003_Node000011"><a xlink:title=" ">
<path fill="none" stroke="#63b8ff" d="M825.88,-483.55C865.7,-504.04 925.26,-532.64 979.86,-550.81 999.89,-557.47 1021.73,-563.18 1042.73,-567.93"/>
<polygon fill="#63b8ff" stroke="#63b8ff" points="1041.96,-571.35 1052.48,-570.08 1043.46,-564.51 1041.96,-571.35"/>
</a>
</g>
</g>
<!-- Node12 -->
<g id="Node000012" class="node">
<title>Node12</title>
<g id="a_Node000012"><a xlink:href="classcom_1_1runehive_1_1game_1_1world_1_1region_1_1_region_manager.html#af7f277787498291d1a833af5ece5a0e8" target="_top" xlink:title="Gets the regions surrounding a position.">
<ellipse fill="white" stroke="#666666" cx="1143.91" cy="-515.81" rx="164.05" ry="25.81"/>
<text xml:space="preserve" text-anchor="start" x="1035.91" y="-518.66" font-family="Helvetica,sans-Serif" font-size="12.00">com.runehive.game.world.region.</text>
<text xml:space="preserve" text-anchor="middle" x="1143.91" y="-504.41" font-family="Helvetica,sans-Serif" font-size="12.00">RegionManager.getSurroundingRegions</text>
</a>
</g>
</g>
<!-- Node3&#45;&gt;Node12 -->
<g id="edge11_Node000003_Node000012" class="edge">
<title>Node3&#45;&gt;Node12</title>
<g id="a_edge11_Node000003_Node000012"><a xlink:title=" ">
<path fill="none" stroke="#63b8ff" d="M886.75,-475.6C926.99,-481.92 973.14,-489.16 1015.08,-495.75"/>
<polygon fill="#63b8ff" stroke="#63b8ff" points="1014.3,-499.17 1024.72,-497.26 1015.39,-492.25 1014.3,-499.17"/>
</a>
</g>
</g>
<!-- Node17 -->
<g id="Node000017" class="node">
<title>Node17</title>
<g id="a_Node000017"><a xlink:href="classcom_1_1runehive_1_1game_1_1world_1_1pathfinding_1_1_traversal_map.html#a2af790bd2ef1961ce45530ec8fd5ddd3" target="_top" xlink:title="Marks a GameObject with the specified attributes on the specified Position to the TraversalMap.">
<ellipse fill="white" stroke="#666666" cx="1143.91" cy="-375.81" rx="154.5" ry="25.81"/>
<text xml:space="preserve" text-anchor="start" x="1042.66" y="-378.66" font-family="Helvetica,sans-Serif" font-size="12.00">com.runehive.game.world.pathfinding.</text>
<text xml:space="preserve" text-anchor="middle" x="1143.91" y="-364.41" font-family="Helvetica,sans-Serif" font-size="12.00">TraversalMap.markObject</text>
</a>
</g>
</g>
<!-- Node3&#45;&gt;Node17 -->
<g id="edge17_Node000003_Node000017" class="edge">
<title>Node3&#45;&gt;Node17</title>
<g id="a_edge17_Node000003_Node000017"><a xlink:title=" ">
<path fill="none" stroke="#63b8ff" d="M877.92,-440.16C899.77,-435.38 922.71,-429.85 943.86,-423.81 960.22,-419.14 963.51,-415.49 979.86,-410.81 995.96,-406.2 1013.1,-401.88 1030,-397.97"/>
<polygon fill="#63b8ff" stroke="#63b8ff" points="1030.61,-401.42 1039.58,-395.79 1029.05,-394.6 1030.61,-401.42"/>
</a>
</g>
</g>
<!-- Node5 -->
<g id="Node000005" class="node">
<title>Node5</title>
<g id="a_Node000005"><a xlink:href="classcom_1_1runehive_1_1game_1_1world_1_1region_1_1_region_block.html#afc101f7d38ea300345b4223dc446b9fa" target="_top" xlink:title=" ">
<ellipse fill="white" stroke="#666666" cx="1498.46" cy="-235.81" rx="136.47" ry="25.81"/>
<text xml:space="preserve" text-anchor="start" x="1409.96" y="-238.66" font-family="Helvetica,sans-Serif" font-size="12.00">com.runehive.game.world.region.</text>
<text xml:space="preserve" text-anchor="middle" x="1498.46" y="-224.41" font-family="Helvetica,sans-Serif" font-size="12.00">RegionBlock.containsObject</text>
</a>
</g>
</g>
<!-- Node4&#45;&gt;Node5 -->
<g id="edge4_Node000004_Node000005" class="edge">
<title>Node4&#45;&gt;Node5</title>
<g id="a_edge4_Node000004_Node000005"><a xlink:title=" ">
<path fill="none" stroke="#63b8ff" d="M1239.39,-287.05C1286.32,-277.73 1343.18,-266.44 1391.58,-256.83"/>
<polygon fill="#63b8ff" stroke="#63b8ff" points="1392.11,-260.3 1401.24,-254.91 1390.75,-253.43 1392.11,-260.3"/>
</a>
</g>
</g>
<!-- Node7 -->
<g id="Node000007" class="node">
<title>Node7</title>
<g id="a_Node000007"><a xlink:href="classcom_1_1runehive_1_1game_1_1world_1_1region_1_1_region.html#a1f0b74f12f68256ec8da477a64a1482c" target="_top" xlink:title=" ">
<ellipse fill="white" stroke="#666666" cx="1498.46" cy="-165.81" rx="136.47" ry="25.81"/>
<text xml:space="preserve" text-anchor="start" x="1409.96" y="-168.66" font-family="Helvetica,sans-Serif" font-size="12.00">com.runehive.game.world.region.</text>
<text xml:space="preserve" text-anchor="middle" x="1498.46" y="-154.41" font-family="Helvetica,sans-Serif" font-size="12.00">Region.getBlock</text>
</a>
</g>
</g>
<!-- Node4&#45;&gt;Node7 -->
<g id="edge6_Node000004_Node000007" class="edge">
<title>Node4&#45;&gt;Node7</title>
<g id="a_edge6_Node000004_Node000007"><a xlink:title=" ">
<path fill="none" stroke="#63b8ff" d="M1263.98,-293.29C1279.78,-288.02 1294.97,-280.76 1307.96,-270.81 1335.73,-249.54 1316.32,-222.26 1343.96,-200.81 1352.71,-194.02 1362.53,-188.51 1372.86,-184.03"/>
<polygon fill="#63b8ff" stroke="#63b8ff" points="1373.92,-187.37 1381.94,-180.45 1371.35,-180.86 1373.92,-187.37"/>
</a>
</g>
</g>
<!-- Node6 -->
<g id="Node000006" class="node">
<title>Node6</title>
<g id="a_Node000006"><a xlink:href="classcom_1_1runehive_1_1game_1_1world_1_1region_1_1_region_block.html#a1ee4e51dfd0c6a0be0135543c5b674e5" target="_top" xlink:title=" ">
<ellipse fill="white" stroke="#666666" cx="1843.47" cy="-235.81" rx="136.47" ry="25.81"/>
<text xml:space="preserve" text-anchor="start" x="1754.97" y="-238.66" font-family="Helvetica,sans-Serif" font-size="12.00">com.runehive.game.world.region.</text>
<text xml:space="preserve" text-anchor="middle" x="1843.47" y="-224.41" font-family="Helvetica,sans-Serif" font-size="12.00">RegionBlock.getObjects</text>
</a>
</g>
</g>
<!-- Node5&#45;&gt;Node6 -->
<g id="edge5_Node000005_Node000006" class="edge">
<title>Node5&#45;&gt;Node6</title>
<g id="a_edge5_Node000005_Node000006"><a xlink:title=" ">
<path fill="none" stroke="#63b8ff" d="M1635.03,-235.81C1654.84,-235.81 1675.33,-235.81 1695.36,-235.81"/>
<polygon fill="#63b8ff" stroke="#63b8ff" points="1695.25,-239.31 1705.25,-235.81 1695.25,-232.31 1695.25,-239.31"/>
</a>
</g>
</g>
<!-- Node13 -->
<g id="Node000013" class="node">
<title>Node13</title>
<g id="a_Node000013"><a xlink:href="classcom_1_1runehive_1_1game_1_1world_1_1region_1_1_region_manager.html#a47cc7e1ea2d7610c5d496d5b659c7d53" target="_top" xlink:title="Gets a region by position.">
<ellipse fill="white" stroke="#666666" cx="1498.46" cy="-655.81" rx="136.47" ry="25.81"/>
<text xml:space="preserve" text-anchor="start" x="1409.96" y="-658.66" font-family="Helvetica,sans-Serif" font-size="12.00">com.runehive.game.world.region.</text>
<text xml:space="preserve" text-anchor="middle" x="1498.46" y="-644.41" font-family="Helvetica,sans-Serif" font-size="12.00">RegionManager.getRegion</text>
</a>
</g>
</g>
<!-- Node12&#45;&gt;Node13 -->
<g id="edge12_Node000012_Node000013" class="edge">
<title>Node12&#45;&gt;Node13</title>
<g id="a_edge12_Node000012_Node000013"><a xlink:title=" ">
<path fill="none" stroke="#63b8ff" d="M1273.54,-531.8C1285.87,-536.67 1297.62,-542.89 1307.96,-550.81 1335.73,-572.08 1316.32,-599.36 1343.96,-620.81 1352.71,-627.6 1362.53,-633.11 1372.86,-637.59"/>
<polygon fill="#63b8ff" stroke="#63b8ff" points="1371.35,-640.76 1381.94,-641.17 1373.92,-634.25 1371.35,-640.76"/>
</a>
</g>
</g>
<!-- Node14 -->
<g id="Node000014" class="node">
<title>Node14</title>
<g id="a_Node000014"><a xlink:href="classcom_1_1runehive_1_1game_1_1world_1_1region_1_1_region.html#ae6ee1ad3798088cfea31cc90c3573ad2" target="_top" xlink:title=" ">
<ellipse fill="white" stroke="#666666" cx="1498.46" cy="-585.81" rx="136.47" ry="25.81"/>
<text xml:space="preserve" text-anchor="start" x="1409.96" y="-588.66" font-family="Helvetica,sans-Serif" font-size="12.00">com.runehive.game.world.region.</text>
<text xml:space="preserve" text-anchor="middle" x="1498.46" y="-574.41" font-family="Helvetica,sans-Serif" font-size="12.00">Region.getSurroundingRegions</text>
</a>
</g>
</g>
<!-- Node12&#45;&gt;Node14 -->
<g id="edge14_Node000012_Node000014" class="edge">
<title>Node12&#45;&gt;Node14</title>
<g id="a_edge14_Node000012_Node000014"><a xlink:title=" ">
<path fill="none" stroke="#63b8ff" d="M1247.36,-536.15C1292.72,-545.16 1346.03,-555.74 1391.76,-564.82"/>
<polygon fill="#63b8ff" stroke="#63b8ff" points="1390.94,-568.23 1401.43,-566.74 1392.3,-561.36 1390.94,-568.23"/>
</a>
</g>
</g>
<!-- Node15 -->
<g id="Node000015" class="node">
<title>Node15</title>
<g id="a_Node000015"><a xlink:href="classcom_1_1runehive_1_1game_1_1world_1_1region_1_1_region.html#ad12f8bca35c18ec9caacbc6843895a1c" target="_top" xlink:title=" ">
<ellipse fill="white" stroke="#666666" cx="1498.46" cy="-515.81" rx="136.47" ry="25.81"/>
<text xml:space="preserve" text-anchor="start" x="1409.96" y="-518.66" font-family="Helvetica,sans-Serif" font-size="12.00">com.runehive.game.world.region.</text>
<text xml:space="preserve" text-anchor="middle" x="1498.46" y="-504.41" font-family="Helvetica,sans-Serif" font-size="12.00">Region.setSurroundingRegions</text>
</a>
</g>
</g>
<!-- Node12&#45;&gt;Node15 -->
<g id="edge15_Node000012_Node000015" class="edge">
<title>Node12&#45;&gt;Node15</title>
<g id="a_edge15_Node000012_Node000015"><a xlink:title=" ">
<path fill="none" stroke="#63b8ff" d="M1308.29,-515.81C1322.36,-515.81 1336.54,-515.81 1350.47,-515.81"/>
<polygon fill="#63b8ff" stroke="#63b8ff" points="1350.06,-519.31 1360.06,-515.81 1350.06,-512.31 1350.06,-519.31"/>
</a>
</g>
</g>
<!-- Node13&#45;&gt;Node13 -->
<g id="edge13_Node000013_Node000013" class="edge">
<title>Node13&#45;&gt;Node13</title>
<g id="a_edge13_Node000013_Node000013"><a xlink:title=" ">
<path fill="none" stroke="#63b8ff" d="M1435.35,-678.8C1427.56,-689.86 1448.6,-699.62 1498.46,-699.62 1530.41,-699.62 1550.52,-695.61 1558.8,-689.83"/>
<polygon fill="#63b8ff" stroke="#63b8ff" points="1562.16,-690.82 1561.2,-680.27 1555.37,-689.11 1562.16,-690.82"/>
</a>
</g>
</g>
<!-- Node16 -->
<g id="Node000016" class="node">
<title>Node16</title>
<g id="a_Node000016"><a xlink:href="classcom_1_1runehive_1_1game_1_1world_1_1region_1_1_region.html#ad4c470f0d3f8e4cd7fede6740d6468e7" target="_top" xlink:title="Creates a region.">
<ellipse fill="white" stroke="#666666" cx="1843.47" cy="-515.81" rx="136.47" ry="25.81"/>
<text xml:space="preserve" text-anchor="start" x="1754.97" y="-518.66" font-family="Helvetica,sans-Serif" font-size="12.00">com.runehive.game.world.region.</text>
<text xml:space="preserve" text-anchor="middle" x="1843.47" y="-504.41" font-family="Helvetica,sans-Serif" font-size="12.00">Region.Region</text>
</a>
</g>
</g>
<!-- Node15&#45;&gt;Node16 -->
<g id="edge16_Node000015_Node000016" class="edge">
<title>Node15&#45;&gt;Node16</title>
<g id="a_edge16_Node000015_Node000016"><a xlink:title=" ">
<path fill="none" stroke="#63b8ff" d="M1635.03,-515.81C1654.84,-515.81 1675.33,-515.81 1695.36,-515.81"/>
<polygon fill="#63b8ff" stroke="#63b8ff" points="1695.25,-519.31 1705.25,-515.81 1695.25,-512.31 1695.25,-519.31"/>
</a>
</g>
</g>
<!-- Node18 -->
<g id="Node000018" class="node">
<title>Node18</title>
<g id="a_Node000018"><a xlink:href="classcom_1_1runehive_1_1game_1_1world_1_1pathfinding_1_1_traversal_map.html#ad640cb52b419921b71e984ae796ef4af" target="_top" xlink:title="Marks the specified coordinates occupied by some object.">
<ellipse fill="white" stroke="#666666" cx="1498.46" cy="-445.81" rx="154.5" ry="25.81"/>
<text xml:space="preserve" text-anchor="start" x="1397.21" y="-448.66" font-family="Helvetica,sans-Serif" font-size="12.00">com.runehive.game.world.pathfinding.</text>
<text xml:space="preserve" text-anchor="middle" x="1498.46" y="-434.41" font-family="Helvetica,sans-Serif" font-size="12.00">TraversalMap.markOccupant</text>
</a>
</g>
</g>
<!-- Node17&#45;&gt;Node18 -->
<g id="edge18_Node000017_Node000018" class="edge">
<title>Node17&#45;&gt;Node18</title>
<g id="a_edge18_Node000017_Node000018"><a xlink:title=" ">
<path fill="none" stroke="#63b8ff" d="M1245,-395.68C1289.1,-404.44 1341.08,-414.76 1386.37,-423.75"/>
<polygon fill="#63b8ff" stroke="#63b8ff" points="1385.46,-427.14 1395.95,-425.65 1386.82,-420.27 1385.46,-427.14"/>
</a>
</g>
</g>
<!-- Node20 -->
<g id="Node000020" class="node">
<title>Node20</title>
<g id="a_Node000020"><a xlink:href="classcom_1_1runehive_1_1game_1_1world_1_1pathfinding_1_1_traversal_map.html#ab9e0de1d8780593774974152f2e42765" target="_top" xlink:title="Informs the region of an existing wall.">
<ellipse fill="white" stroke="#666666" cx="1498.46" cy="-305.81" rx="154.5" ry="25.81"/>
<text xml:space="preserve" text-anchor="start" x="1397.21" y="-308.66" font-family="Helvetica,sans-Serif" font-size="12.00">com.runehive.game.world.pathfinding.</text>
<text xml:space="preserve" text-anchor="middle" x="1498.46" y="-294.41" font-family="Helvetica,sans-Serif" font-size="12.00">TraversalMap.markWall</text>
</a>
</g>
</g>
<!-- Node17&#45;&gt;Node20 -->
<g id="edge20_Node000017_Node000020" class="edge">
<title>Node17&#45;&gt;Node20</title>
<g id="a_edge20_Node000017_Node000020"><a xlink:title=" ">
<path fill="none" stroke="#63b8ff" d="M1245,-355.94C1289.1,-347.18 1341.08,-336.86 1386.37,-327.87"/>
<polygon fill="#63b8ff" stroke="#63b8ff" points="1386.82,-331.35 1395.95,-325.97 1385.46,-324.48 1386.82,-331.35"/>
</a>
</g>
</g>
<!-- Node21 -->
<g id="Node000021" class="node">
<title>Node21</title>
<g id="a_Node000021"><a xlink:href="classcom_1_1runehive_1_1game_1_1world_1_1pathfinding_1_1_traversal_map.html#acb9cebf6ef660b3f43b097013cd8d69d" target="_top" xlink:title="Informs the region of an existing wall being removed.">
<ellipse fill="white" stroke="#666666" cx="1498.46" cy="-375.81" rx="154.5" ry="25.81"/>
<text xml:space="preserve" text-anchor="start" x="1397.21" y="-378.66" font-family="Helvetica,sans-Serif" font-size="12.00">com.runehive.game.world.pathfinding.</text>
<text xml:space="preserve" text-anchor="middle" x="1498.46" y="-364.41" font-family="Helvetica,sans-Serif" font-size="12.00">TraversalMap.unmarkWall</text>
</a>
</g>
</g>
<!-- Node17&#45;&gt;Node21 -->
<g id="edge21_Node000017_Node000021" class="edge">
<title>Node17&#45;&gt;Node21</title>
<g id="a_edge21_Node000017_Node000021"><a xlink:title=" ">
<path fill="none" stroke="#63b8ff" d="M1298.78,-375.81C1309.79,-375.81 1320.91,-375.81 1331.98,-375.81"/>
<polygon fill="#63b8ff" stroke="#63b8ff" points="1331.98,-379.31 1341.98,-375.81 1331.98,-372.31 1331.98,-379.31"/>
</a>
</g>
</g>
<!-- Node19 -->
<g id="Node000019" class="node">
<title>Node19</title>
<g id="a_Node000019"><a xlink:href="classcom_1_1runehive_1_1game_1_1world_1_1pathfinding_1_1_traversal_map.html#a9b155eeee0f84b0b97125e24a6302b60" target="_top" xlink:title="Unsets the specified flag from the specified position.">
<ellipse fill="white" stroke="#666666" cx="1843.47" cy="-410.81" rx="154.5" ry="25.81"/>
<text xml:space="preserve" text-anchor="start" x="1742.22" y="-413.66" font-family="Helvetica,sans-Serif" font-size="12.00">com.runehive.game.world.pathfinding.</text>
<text xml:space="preserve" text-anchor="middle" x="1843.47" y="-399.41" font-family="Helvetica,sans-Serif" font-size="12.00">TraversalMap.unset</text>
</a>
</g>
</g>
<!-- Node18&#45;&gt;Node19 -->
<g id="edge19_Node000018_Node000019" class="edge">
<title>Node18&#45;&gt;Node19</title>
<g id="a_edge19_Node000018_Node000019"><a xlink:title=" ">
<path fill="none" stroke="#63b8ff" d="M1631.1,-432.38C1653.4,-430.1 1676.66,-427.73 1699.24,-425.42"/>
<polygon fill="#63b8ff" stroke="#63b8ff" points="1699.52,-428.91 1709.11,-424.42 1698.81,-421.95 1699.52,-428.91"/>
</a>
</g>
</g>
<!-- Node21&#45;&gt;Node19 -->
<g id="edge22_Node000021_Node000019" class="edge">
<title>Node21&#45;&gt;Node19</title>
<g id="a_edge22_Node000021_Node000019"><a xlink:title=" ">
<path fill="none" stroke="#63b8ff" d="M1631.1,-389.24C1653.4,-391.52 1676.66,-393.89 1699.24,-396.19"/>
<polygon fill="#63b8ff" stroke="#63b8ff" points="1698.81,-399.67 1709.11,-397.2 1699.52,-392.7 1698.81,-399.67"/>
</a>
</g>
</g>
<!-- Node24&#45;&gt;Node8 -->
<g id="edge29_Node000024_Node000008" class="edge">
<title>Node24&#45;&gt;Node8</title>
<g id="a_edge29_Node000024_Node000008"><a xlink:title=" ">
<path fill="none" stroke="#63b8ff" d="M909.32,-647.45C939.44,-648.53 971.64,-649.68 1002.21,-650.77"/>
<polygon fill="#63b8ff" stroke="#63b8ff" points="1001.76,-654.26 1011.88,-651.12 1002.01,-647.26 1001.76,-654.26"/>
</a>
</g>
</g>
<!-- Node25 -->
<g id="Node000025" class="node">
<title>Node25</title>
<g id="a_Node000025"><a xlink:href="classcom_1_1runehive_1_1game_1_1world_1_1entity_1_1_entity.html#a4d41d635e97c6677d22dd90f57e45ba5" target="_top" xlink:title="Adds this entity to the specified region.">
<ellipse fill="white" stroke="#666666" cx="1143.91" cy="-725.81" rx="132.23" ry="25.81"/>
<text xml:space="preserve" text-anchor="start" x="1058.41" y="-728.66" font-family="Helvetica,sans-Serif" font-size="12.00">com.runehive.game.world.entity.</text>
<text xml:space="preserve" text-anchor="middle" x="1143.91" y="-714.41" font-family="Helvetica,sans-Serif" font-size="12.00">Entity.addToRegion</text>
</a>
</g>
</g>
<!-- Node24&#45;&gt;Node25 -->
<g id="edge28_Node000024_Node000025" class="edge">
<title>Node24&#45;&gt;Node25</title>
<g id="a_edge28_Node000024_Node000025"><a xlink:title=" ">
<path fill="none" stroke="#63b8ff" d="M862.4,-663.11C898.43,-671.83 941.19,-682.02 979.86,-690.81 999.75,-695.33 1021.04,-700.01 1041.46,-704.43"/>
<polygon fill="#63b8ff" stroke="#63b8ff" points="1040.7,-707.84 1051.22,-706.53 1042.18,-701 1040.7,-707.84"/>
</a>
</g>
</g>
<!-- Node26 -->
<g id="Node000026" class="node">
<title>Node26</title>
<g id="a_Node000026"><a xlink:href="classcom_1_1runehive_1_1game_1_1world_1_1entity_1_1_entity.html#a63126d915af5d3fb24dc111c0a5d6d63" target="_top" xlink:title="Removes this entity from the specified region.">
<ellipse fill="white" stroke="#666666" cx="1143.91" cy="-445.81" rx="132.23" ry="25.81"/>
<text xml:space="preserve" text-anchor="start" x="1058.41" y="-448.66" font-family="Helvetica,sans-Serif" font-size="12.00">com.runehive.game.world.entity.</text>
<text xml:space="preserve" text-anchor="middle" x="1143.91" y="-434.41" font-family="Helvetica,sans-Serif" font-size="12.00">Entity.removeFromRegion</text>
</a>
</g>
</g>
<!-- Node24&#45;&gt;Node26 -->
<g id="edge30_Node000024_Node000026" class="edge">
<title>Node24&#45;&gt;Node26</title>
<g id="a_edge30_Node000024_Node000026"><a xlink:title=" ">
<path fill="none" stroke="#63b8ff" d="M803.58,-617.02C838.6,-580.77 907.68,-515.32 979.86,-480.81 994.19,-473.96 1009.86,-468.44 1025.64,-463.99"/>
<polygon fill="#63b8ff" stroke="#63b8ff" points="1026.34,-467.43 1035.11,-461.47 1024.54,-460.66 1026.34,-467.43"/>
</a>
</g>
</g>
<!-- Node28&#45;&gt;Node10 -->
<g id="edge37_Node000028_Node000010" class="edge">
<title>Node28&#45;&gt;Node10</title>
<g id="a_edge37_Node000028_Node000010"><a xlink:title=" ">
<path fill="none" stroke="#63b8ff" d="M482.7,-193.82C516.11,-174.23 566.03,-148.55 613.64,-137.81 760.37,-104.71 935.51,-125.3 1042.96,-144.51"/>
<polygon fill="#63b8ff" stroke="#63b8ff" points="1042.15,-147.92 1052.62,-146.27 1043.41,-141.03 1042.15,-147.92"/>
</a>
</g>
</g>
<!-- Node28&#45;&gt;Node22 -->
<g id="edge38_Node000028_Node000022" class="edge">
<title>Node28&#45;&gt;Node22</title>
<g id="a_edge38_Node000028_Node000022"><a xlink:title=" ">
<path fill="none" stroke="#63b8ff" d="M569.7,-227.88C593.5,-229.59 618.47,-231.38 642.53,-233.11"/>
<polygon fill="#63b8ff" stroke="#63b8ff" points="642.14,-236.59 652.37,-233.81 642.64,-229.61 642.14,-236.59"/>
</a>
</g>
</g>
<!-- Node28&#45;&gt;Node23 -->
<g id="edge39_Node000028_Node000023" class="edge">
<title>Node28&#45;&gt;Node23</title>
<g id="a_edge39_Node000028_Node000023"><a xlink:title=" ">
<path fill="none" stroke="#63b8ff" d="M553.23,-203.68C586.91,-199.05 624.11,-193.94 658.38,-189.22"/>
<polygon fill="#63b8ff" stroke="#63b8ff" points="658.47,-192.74 667.9,-187.92 657.52,-185.81 658.47,-192.74"/>
</a>
</g>
</g>
<!-- Node29 -->
<g id="Node000029" class="node">
<title>Node29</title>
<g id="a_Node000029"><a xlink:href="classcom_1_1runehive_1_1game_1_1world_1_1entity_1_1_entity.html#af15cd8bc3c008a5e9ad38569b9d530e7" target="_top" xlink:title="Destroys this entity.">
<ellipse fill="white" stroke="#666666" cx="778.75" cy="-64.81" rx="132.23" ry="25.81"/>
<text xml:space="preserve" text-anchor="start" x="693.25" y="-67.66" font-family="Helvetica,sans-Serif" font-size="12.00">com.runehive.game.world.entity.</text>
<text xml:space="preserve" text-anchor="middle" x="778.75" y="-53.41" font-family="Helvetica,sans-Serif" font-size="12.00">Entity.destroy</text>
</a>
</g>
</g>
<!-- Node28&#45;&gt;Node29 -->
<g id="edge33_Node000028_Node000029" class="edge">
<title>Node28&#45;&gt;Node29</title>
<g id="a_edge33_Node000028_Node000029"><a xlink:title=" ">
<path fill="none" stroke="#63b8ff" d="M473.94,-193.38C506.64,-167.51 560.86,-128.02 613.64,-104.81 631.34,-97.03 650.81,-90.6 669.96,-85.35"/>
<polygon fill="#63b8ff" stroke="#63b8ff" points="670.63,-88.79 679.4,-82.85 668.84,-82.02 670.63,-88.79"/>
</a>
</g>
</g>
<!-- Node31 -->
<g id="Node000031" class="node">
<title>Node31</title>
<g id="a_Node000031"><a xlink:href="classcom_1_1runehive_1_1game_1_1world_1_1object_1_1_custom_game_object.html#aa672b10285738479e4b1931c56f31a59" target="_top" xlink:title="Removes this entity from the specified region.">
<ellipse fill="white" stroke="#666666" cx="778.75" cy="-388.81" rx="165.11" ry="25.81"/>
<text xml:space="preserve" text-anchor="start" x="670" y="-391.66" font-family="Helvetica,sans-Serif" font-size="12.00">com.runehive.game.world.object.</text>
<text xml:space="preserve" text-anchor="middle" x="778.75" y="-377.41" font-family="Helvetica,sans-Serif" font-size="12.00">CustomGameObject.removeFromRegion</text>
</a>
</g>
</g>
<!-- Node28&#45;&gt;Node31 -->
<g id="edge40_Node000028_Node000031" class="edge">
<title>Node28&#45;&gt;Node31</title>
<g id="a_edge40_Node000028_Node000031"><a xlink:title=" ">
<path fill="none" stroke="#63b8ff" d="M497.23,-242.78C521.92,-253.98 551.44,-267.71 577.64,-280.81 627.34,-305.65 682.88,-335.83 722.82,-357.96"/>
<polygon fill="#63b8ff" stroke="#63b8ff" points="721.11,-361.01 731.55,-362.81 724.51,-354.89 721.11,-361.01"/>
</a>
</g>
</g>
<!-- Node29&#45;&gt;Node26 -->
<g id="edge35_Node000029_Node000026" class="edge">
<title>Node29&#45;&gt;Node26</title>
<g id="a_edge35_Node000029_Node000026"><a xlink:title=" ">
<path fill="none" stroke="#63b8ff" d="M865.8,-84.62C894.91,-95.57 924.83,-112.33 943.86,-137.81 1017.11,-235.85 896.87,-320.87 979.86,-410.81 988.21,-419.85 998.27,-426.85 1009.26,-432.25"/>
<polygon fill="#63b8ff" stroke="#63b8ff" points="1007.63,-435.36 1018.2,-436.16 1010.43,-428.94 1007.63,-435.36"/>
</a>
</g>
</g>
<!-- Node29&#45;&gt;Node27 -->
<g id="edge36_Node000029_Node000027" class="edge">
<title>Node29&#45;&gt;Node27</title>
<g id="a_edge36_Node000029_Node000027"><a xlink:title=" ">
<path fill="none" stroke="#63b8ff" d="M900.68,-75.13C936.02,-78.15 974.83,-81.46 1010.82,-84.53"/>
<polygon fill="#63b8ff" stroke="#63b8ff" points="1010.12,-87.99 1020.39,-85.35 1010.72,-81.01 1010.12,-87.99"/>
</a>
</g>
</g>
<!-- Node30 -->
<g id="Node000030" class="node">
<title>Node30</title>
<g id="a_Node000030"><a xlink:href="classcom_1_1runehive_1_1game_1_1world_1_1entity_1_1_entity.html#a3fc44887104e7cc1c6b91d15c45e4918" target="_top" xlink:title=" ">
<ellipse fill="white" stroke="#666666" cx="1143.91" cy="-25.81" rx="132.23" ry="25.81"/>
<text xml:space="preserve" text-anchor="start" x="1058.41" y="-28.66" font-family="Helvetica,sans-Serif" font-size="12.00">com.runehive.game.world.entity.</text>
<text xml:space="preserve" text-anchor="middle" x="1143.91" y="-14.41" font-family="Helvetica,sans-Serif" font-size="12.00">Entity.Entity</text>
</a>
</g>
</g>
<!-- Node29&#45;&gt;Node30 -->
<g id="edge34_Node000029_Node000030" class="edge">
<title>Node29&#45;&gt;Node30</title>
<g id="a_edge34_Node000029_Node000030"><a xlink:title=" ">
<path fill="none" stroke="#63b8ff" d="M895.66,-52.36C934,-48.24 976.85,-43.64 1015.98,-39.44"/>
<polygon fill="#63b8ff" stroke="#63b8ff" points="1016.1,-42.95 1025.67,-38.4 1015.35,-35.99 1016.1,-42.95"/>
</a>
</g>
</g>
<!-- Node31&#45;&gt;Node4 -->
<g id="edge41_Node000031_Node000004" class="edge">
<title>Node31&#45;&gt;Node4</title>
<g id="a_edge41_Node000031_Node000004"><a xlink:title=" ">
<path fill="none" stroke="#63b8ff" d="M869.3,-366.85C903.81,-358.51 943.63,-349.04 979.86,-340.81 999.28,-336.4 1020.03,-331.83 1039.99,-327.51"/>
<polygon fill="#63b8ff" stroke="#63b8ff" points="1040.47,-330.99 1049.51,-325.46 1039,-324.14 1040.47,-330.99"/>
</a>
</g>
</g>
<!-- Node31&#45;&gt;Node8 -->
<g id="edge42_Node000031_Node000008" class="edge">
<title>Node31&#45;&gt;Node8</title>
<g id="a_edge42_Node000031_Node000008"><a xlink:title=" ">
<path fill="none" stroke="#63b8ff" d="M915.37,-403.46C925.92,-408.68 935.64,-415.34 943.86,-423.81 1005.87,-487.66 917.9,-556.91 979.86,-620.81 988.5,-629.72 998.82,-636.63 1010.02,-641.95"/>
<polygon fill="#63b8ff" stroke="#63b8ff" points="1008.56,-645.14 1019.13,-645.82 1011.29,-638.69 1008.56,-645.14"/>
</a>
</g>
</g>
<!-- Node31&#45;&gt;Node9 -->
<g id="edge43_Node000031_Node000009" class="edge">
<title>Node31&#45;&gt;Node9</title>
<g id="a_edge43_Node000031_Node000009"><a xlink:title=" ">
<path fill="none" stroke="#63b8ff" d="M903.45,-371.72C918.06,-366.05 931.98,-358.59 943.86,-348.81 973.34,-324.54 950.05,-294.67 979.86,-270.81 987.01,-265.09 994.89,-260.24 1003.2,-256.15"/>
<polygon fill="#63b8ff" stroke="#63b8ff" points="1004.45,-259.42 1012.15,-252.14 1001.59,-253.03 1004.45,-259.42"/>
</a>
</g>
</g>
<!-- Node31&#45;&gt;Node10 -->
<g id="edge44_Node000031_Node000010" class="edge">
<title>Node31&#45;&gt;Node10</title>
<g id="a_edge44_Node000031_Node000010"><a xlink:title=" ">
<path fill="none" stroke="#63b8ff" d="M908.2,-372.58C921.42,-366.71 933.7,-358.97 943.86,-348.81 991.72,-300.93 931.35,-248.02 979.86,-200.81 988.93,-191.99 999.65,-185.15 1011.2,-179.89"/>
<polygon fill="#63b8ff" stroke="#63b8ff" points="1012.21,-183.26 1020.14,-176.24 1009.56,-176.78 1012.21,-183.26"/>
</a>
</g>
</g>
<!-- Node31&#45;&gt;Node11 -->
<g id="edge45_Node000031_Node000011" class="edge">
<title>Node31&#45;&gt;Node11</title>
<g id="a_edge45_Node000031_Node000011"><a xlink:title=" ">
<path fill="none" stroke="#63b8ff" d="M913.73,-403.95C924.76,-409.04 935.04,-415.55 943.86,-423.81 986.7,-463.9 937.06,-510.69 979.86,-550.81 992.72,-562.86 1008.68,-571.16 1025.54,-576.81"/>
<polygon fill="#63b8ff" stroke="#63b8ff" points="1024.1,-580.03 1034.69,-579.56 1026.12,-573.33 1024.1,-580.03"/>
</a>
</g>
</g>
<!-- Node31&#45;&gt;Node12 -->
<g id="edge46_Node000031_Node000012" class="edge">
<title>Node31&#45;&gt;Node12</title>
<g id="a_edge46_Node000031_Node000012"><a xlink:title=" ">
<path fill="none" stroke="#63b8ff" d="M907.26,-405.2C920.26,-409.98 932.75,-416.06 943.86,-423.81 968.44,-440.94 955.29,-463.66 979.86,-480.81 987.88,-486.41 996.63,-491.14 1005.76,-495.13"/>
<polygon fill="#63b8ff" stroke="#63b8ff" points="1004.24,-498.29 1014.82,-498.77 1006.85,-491.8 1004.24,-498.29"/>
</a>
</g>
</g>
<!-- Node31&#45;&gt;Node17 -->
<g id="edge47_Node000031_Node000017" class="edge">
<title>Node31&#45;&gt;Node17</title>
<g id="a_edge47_Node000031_Node000017"><a xlink:title=" ">
<path fill="none" stroke="#63b8ff" d="M940.1,-383.07C953.68,-382.58 967.42,-382.09 981.02,-381.6"/>
<polygon fill="#63b8ff" stroke="#63b8ff" points="981.01,-385.11 990.88,-381.25 980.76,-378.11 981.01,-385.11"/>
</a>
</g>
</g>
</g>
</svg>
