<?xml version="1.0" encoding="UTF-8" standalone="no"?>
<!DOCTYPE svg PUBLIC "-//W3C//DTD SVG 1.1//EN"
 "http://www.w3.org/Graphics/SVG/1.1/DTD/svg11.dtd">
<!-- Generated by graphviz version 14.0.1 (20251006.0113)
 -->
<!-- Title: com.runehive.game.world.entity.combat.strategy.player.special.melee.GraniteMaul.start Pages: 1 -->
<!--zoomable 466 -->

<svg id="main" version="1.1" xmlns="http://www.w3.org/2000/svg" xmlns:xlink="http://www.w3.org/1999/xlink" xml:space="preserve" onload="init(evt)">

<style type="text/css"><![CDATA[
.node, .edge {opacity: 0.7;}
.node.selected, .edge.selected {opacity: 1;}
.edge:hover path { stroke: red; }
.edge:hover polygon { stroke: red; fill: red; }
]]></style>

<defs>
  <circle id="rim" cx="0" cy="0" r="7"/>
  <circle id="rim2" cx="0" cy="0" r="3.5"/>
  <g id="zoomPlus">
    <use xlink:href="#rim" fill="#404040"><set attributeName="fill" to="#808080" begin="zoomplus.mouseover" end="zoomplus.mouseout"/></use>
    <path d="M-4,0h8M0,-4v8" fill="none" stroke="white" stroke-width="1.5" pointer-events="none"/>
  </g>
  <g id="zoomMin">
    <use xlink:href="#rim" fill="#404040"><set attributeName="fill" to="#808080" begin="zoomminus.mouseover" end="zoomminus.mouseout"/></use>
    <path d="M-4,0h8" fill="none" stroke="white" stroke-width="1.5" pointer-events="none"/>
  </g>
  <g id="arrowUp" transform="translate(30 24)">
    <use xlink:href="#rim"/>
    <path pointer-events="none" fill="none" stroke="white" stroke-width="1.5" d="M0,-3.0v7 M-2.5,-0.5L0,-3.0L2.5,-0.5"/>
  </g>
  <g id="arrowRight" transform="rotate(90) translate(36 -43)">
    <use xlink:href="#rim"/>
    <path pointer-events="none" fill="none" stroke="white" stroke-width="1.5" d="M0,-3.0v7 M-2.5,-0.5L0,-3.0L2.5,-0.5"/>
  </g>
  <g id="arrowDown" transform="rotate(180) translate(-30 -48)">
    <use xlink:href="#rim"/>
    <path pointer-events="none" fill="none" stroke="white" stroke-width="1.5" d="M0,-3.0v7 M-2.5,-0.5L0,-3.0L2.5,-0.5"/>
  </g>
  <g id="arrowLeft" transform="rotate(270) translate(-36 17)">
    <use xlink:href="#rim"/>
    <path pointer-events="none" fill="none" stroke="white" stroke-width="1.5" d="M0,-3.0v7 M-2.5,-0.5L0,-3.0L2.5,-0.5"/>
  </g>
  <g id="resetDef">
    <use xlink:href="#rim2" fill="#404040"><set attributeName="fill" to="#808080" begin="reset.mouseover" end="reset.mouseout"/></use>
  </g>
</defs>
<script type="application/ecmascript">
var viewWidth = 1615;
var viewHeight = 466;
var sectionId = 'dynsection-7';
</script>
<script type="application/ecmascript" xlink:href="svg.min.js"/>
<svg id="graph" class="graph">
<g id="viewport">
<title>com.runehive.game.world.entity.combat.strategy.player.special.melee.GraniteMaul.start</title>
<!-- Node1 -->
<g id="Node000001" class="node">
<title>Node1</title>
<g id="a_Node000001"><a xlink:title=" ">
<ellipse fill="#999999" stroke="#666666" cx="272.77" cy="-253.81" rx="272.77" ry="25.81"/>
<text xml:space="preserve" text-anchor="start" x="87.89" y="-256.66" font-family="Helvetica,sans-Serif" font-size="12.00">com.runehive.game.world.entity.combat.strategy.player.special.melee.</text>
<text xml:space="preserve" text-anchor="middle" x="272.77" y="-242.41" font-family="Helvetica,sans-Serif" font-size="12.00">GraniteMaul.start</text>
</a>
</g>
</g>
<!-- Node2 -->
<g id="Node000002" class="node">
<title>Node2</title>
<g id="a_Node000002"><a xlink:href="classcom_1_1runehive_1_1game_1_1world_1_1entity_1_1mob_1_1_mob.html#a3e5f834cec039d2c7c0c10b50914717f" target="_top" xlink:title=" ">
<ellipse fill="white" stroke="#666666" cx="828.84" cy="-431.81" rx="150.79" ry="25.81"/>
<text xml:space="preserve" text-anchor="start" x="730.22" y="-434.66" font-family="Helvetica,sans-Serif" font-size="12.00">com.runehive.game.world.entity.mob.</text>
<text xml:space="preserve" text-anchor="middle" x="828.84" y="-420.41" font-family="Helvetica,sans-Serif" font-size="12.00">Mob.damage</text>
</a>
</g>
</g>
<!-- Node1&#45;&gt;Node2 -->
<g id="edge1_Node000001_Node000002" class="edge">
<title>Node1&#45;&gt;Node2</title>
<g id="a_edge1_Node000001_Node000002"><a xlink:title=" ">
<path fill="none" stroke="#63b8ff" d="M321.04,-279.7C380.21,-310.99 485.48,-363.01 581.53,-391.81 616.23,-402.21 654.53,-410.08 690.38,-415.97"/>
<polygon fill="#63b8ff" stroke="#63b8ff" points="689.5,-419.37 699.93,-417.5 690.61,-412.46 689.5,-419.37"/>
</a>
</g>
</g>
<!-- Node3 -->
<g id="Node000003" class="node">
<title>Node3</title>
<g id="a_Node000003"><a xlink:href="classcom_1_1runehive_1_1game_1_1world_1_1entity_1_1mob_1_1_mob.html#a385dc0248234fddaae1b093594d7bf58" target="_top" xlink:title="The combat of the mob.">
<ellipse fill="white" stroke="#666666" cx="1359.46" cy="-421.81" rx="150.79" ry="25.81"/>
<text xml:space="preserve" text-anchor="start" x="1260.84" y="-424.66" font-family="Helvetica,sans-Serif" font-size="12.00">com.runehive.game.world.entity.mob.</text>
<text xml:space="preserve" text-anchor="middle" x="1359.46" y="-410.41" font-family="Helvetica,sans-Serif" font-size="12.00">Mob.getCombat</text>
</a>
</g>
</g>
<!-- Node1&#45;&gt;Node3 -->
<g id="edge6_Node000001_Node000003" class="edge">
<title>Node1&#45;&gt;Node3</title>
<g id="a_edge6_Node000001_Node000003"><a xlink:title=" ">
<path fill="none" stroke="#63b8ff" d="M333.82,-279.36C394.95,-304.15 493.05,-340.62 581.53,-358.81 797.5,-403.2 856.42,-378.64 1076.15,-396.81 1120.93,-400.51 1169.67,-404.75 1213.86,-408.68"/>
<polygon fill="#63b8ff" stroke="#63b8ff" points="1213.51,-412.16 1223.78,-409.56 1214.13,-405.19 1213.51,-412.16"/>
</a>
</g>
</g>
<!-- Node4 -->
<g id="Node000004" class="node">
<title>Node4</title>
<g id="a_Node000004"><a xlink:href="enumcom_1_1runehive_1_1game_1_1world_1_1entity_1_1combat_1_1strategy_1_1player_1_1special_1_1_combat_special.html#a4f95fbb3285b8c1eedbbcccb06433cb6" target="_top" xlink:title="Drains the special bar for player.">
<ellipse fill="white" stroke="#666666" cx="828.84" cy="-323.81" rx="247.31" ry="25.81"/>
<text xml:space="preserve" text-anchor="start" x="661.97" y="-326.66" font-family="Helvetica,sans-Serif" font-size="12.00">com.runehive.game.world.entity.combat.strategy.player.special.</text>
<text xml:space="preserve" text-anchor="middle" x="828.84" y="-312.41" font-family="Helvetica,sans-Serif" font-size="12.00">CombatSpecial.drain</text>
</a>
</g>
</g>
<!-- Node1&#45;&gt;Node4 -->
<g id="edge3_Node000001_Node000004" class="edge">
<title>Node1&#45;&gt;Node4</title>
<g id="a_edge3_Node000001_Node000004"><a xlink:title=" ">
<path fill="none" stroke="#63b8ff" d="M438.88,-274.67C508.06,-283.41 588.43,-293.56 658.09,-302.36"/>
<polygon fill="#63b8ff" stroke="#63b8ff" points="657.32,-305.79 667.68,-303.57 658.19,-298.85 657.32,-305.79"/>
</a>
</g>
</g>
<!-- Node7 -->
<g id="Node000007" class="node">
<title>Node7</title>
<g id="a_Node000007"><a xlink:href="classcom_1_1runehive_1_1game_1_1world_1_1entity_1_1mob_1_1player_1_1_player.html#a0f3af8d2044c059c53c6e8b827a042ad" target="_top" xlink:title=" ">
<ellipse fill="white" stroke="#666666" cx="828.84" cy="-253.81" rx="175.72" ry="25.81"/>
<text xml:space="preserve" text-anchor="start" x="712.59" y="-256.66" font-family="Helvetica,sans-Serif" font-size="12.00">com.runehive.game.world.entity.mob.player.</text>
<text xml:space="preserve" text-anchor="middle" x="828.84" y="-242.41" font-family="Helvetica,sans-Serif" font-size="12.00">Player.getCombatSpecial</text>
</a>
</g>
</g>
<!-- Node1&#45;&gt;Node7 -->
<g id="edge7_Node000001_Node000007" class="edge">
<title>Node1&#45;&gt;Node7</title>
<g id="a_edge7_Node000001_Node000007"><a xlink:title=" ">
<path fill="none" stroke="#63b8ff" d="M545.94,-253.81C578.35,-253.81 610.86,-253.81 641.68,-253.81"/>
<polygon fill="#63b8ff" stroke="#63b8ff" points="641.44,-257.31 651.44,-253.81 641.44,-250.31 641.44,-257.31"/>
</a>
</g>
</g>
<!-- Node8 -->
<g id="Node000008" class="node">
<title>Node8</title>
<g id="a_Node000008"><a xlink:href="classcom_1_1runehive_1_1util_1_1generic_1_1_generic_attributes.html#abc97c6b784bcc1412009dd2111d70ca8" target="_top" xlink:title="Gets the state of a key.">
<ellipse fill="white" stroke="#666666" cx="828.84" cy="-183.81" rx="107.83" ry="25.81"/>
<text xml:space="preserve" text-anchor="start" x="760.59" y="-186.66" font-family="Helvetica,sans-Serif" font-size="12.00">com.runehive.util.generic.</text>
<text xml:space="preserve" text-anchor="middle" x="828.84" y="-172.41" font-family="Helvetica,sans-Serif" font-size="12.00">GenericAttributes.is</text>
</a>
</g>
</g>
<!-- Node1&#45;&gt;Node8 -->
<g id="edge8_Node000001_Node000008" class="edge">
<title>Node1&#45;&gt;Node8</title>
<g id="a_edge8_Node000001_Node000008"><a xlink:title=" ">
<path fill="none" stroke="#63b8ff" d="M438.88,-232.95C530.42,-221.38 641.55,-207.34 721.55,-197.24"/>
<polygon fill="#63b8ff" stroke="#63b8ff" points="721.64,-200.75 731.12,-196.03 720.76,-193.81 721.64,-200.75"/>
</a>
</g>
</g>
<!-- Node10 -->
<g id="Node000010" class="node">
<title>Node10</title>
<g id="a_Node000010"><a xlink:href="classcom_1_1runehive_1_1game_1_1world_1_1entity_1_1combat_1_1strategy_1_1_combat_strategy.html#acd22127bf7168a1145947c8b8716c524" target="_top" xlink:title=" ">
<ellipse fill="white" stroke="#666666" cx="828.84" cy="-95.81" rx="193.22" ry="25.81"/>
<text xml:space="preserve" text-anchor="start" x="700.22" y="-98.66" font-family="Helvetica,sans-Serif" font-size="12.00">com.runehive.game.world.entity.combat.strategy.</text>
<text xml:space="preserve" text-anchor="middle" x="828.84" y="-84.41" font-family="Helvetica,sans-Serif" font-size="12.00">CombatStrategy.nextMeleeHit</text>
</a>
</g>
</g>
<!-- Node1&#45;&gt;Node10 -->
<g id="edge10_Node000001_Node000010" class="edge">
<title>Node1&#45;&gt;Node10</title>
<g id="a_edge10_Node000001_Node000010"><a xlink:title=" ">
<path fill="none" stroke="#63b8ff" d="M340.9,-228.37C402.78,-205.53 497.48,-172.11 581.53,-148.81 621.22,-137.81 665.03,-127.73 704.56,-119.39"/>
<polygon fill="#63b8ff" stroke="#63b8ff" points="705.04,-122.86 714.11,-117.39 703.6,-116.01 705.04,-122.86"/>
</a>
</g>
</g>
<!-- Node11 -->
<g id="Node000011" class="node">
<title>Node11</title>
<g id="a_Node000011"><a xlink:href="classcom_1_1runehive_1_1util_1_1generic_1_1_generic_attributes.html#ac04d2dc42db6d1810f77ccad169d34eb" target="_top" xlink:title="Removes a generic attribute.">
<ellipse fill="white" stroke="#666666" cx="828.84" cy="-25.81" rx="107.83" ry="25.81"/>
<text xml:space="preserve" text-anchor="start" x="760.59" y="-28.66" font-family="Helvetica,sans-Serif" font-size="12.00">com.runehive.util.generic.</text>
<text xml:space="preserve" text-anchor="middle" x="828.84" y="-14.41" font-family="Helvetica,sans-Serif" font-size="12.00">GenericAttributes.remove</text>
</a>
</g>
</g>
<!-- Node1&#45;&gt;Node11 -->
<g id="edge12_Node000001_Node000011" class="edge">
<title>Node1&#45;&gt;Node11</title>
<g id="a_edge12_Node000001_Node000011"><a xlink:title=" ">
<path fill="none" stroke="#63b8ff" d="M305.08,-227.79C358.21,-185.18 471.07,-101.21 581.53,-60.81 622.5,-45.83 669.48,-37.22 711.34,-32.29"/>
<polygon fill="#63b8ff" stroke="#63b8ff" points="711.67,-35.77 721.22,-31.19 710.89,-28.82 711.67,-35.77"/>
</a>
</g>
</g>
<!-- Node2&#45;&gt;Node3 -->
<g id="edge2_Node000002_Node000003" class="edge">
<title>Node2&#45;&gt;Node3</title>
<g id="a_edge2_Node000002_Node000003"><a xlink:title=" ">
<path fill="none" stroke="#63b8ff" d="M979.21,-428.98C1047.46,-427.69 1128.41,-426.16 1197.97,-424.85"/>
<polygon fill="#63b8ff" stroke="#63b8ff" points="1198.03,-428.35 1207.96,-424.66 1197.89,-421.35 1198.03,-428.35"/>
</a>
</g>
</g>
<!-- Node5 -->
<g id="Node000005" class="node">
<title>Node5</title>
<g id="a_Node000005"><a xlink:href="enumcom_1_1runehive_1_1game_1_1world_1_1entity_1_1combat_1_1strategy_1_1player_1_1special_1_1_combat_special.html#a720a1103127f58a3d5423d7f52b42904" target="_top" xlink:title=" ">
<ellipse fill="white" stroke="#666666" cx="1359.46" cy="-342.81" rx="247.31" ry="25.81"/>
<text xml:space="preserve" text-anchor="start" x="1192.59" y="-345.66" font-family="Helvetica,sans-Serif" font-size="12.00">com.runehive.game.world.entity.combat.strategy.player.special.</text>
<text xml:space="preserve" text-anchor="middle" x="1359.46" y="-331.41" font-family="Helvetica,sans-Serif" font-size="12.00">CombatSpecial.disable</text>
</a>
</g>
</g>
<!-- Node4&#45;&gt;Node5 -->
<g id="edge4_Node000004_Node000005" class="edge">
<title>Node4&#45;&gt;Node5</title>
<g id="a_edge4_Node000004_Node000005"><a xlink:title=" ">
<path fill="none" stroke="#63b8ff" d="M1063.63,-332.21C1080.13,-332.81 1096.8,-333.4 1113.36,-334"/>
<polygon fill="#63b8ff" stroke="#63b8ff" points="1113.18,-337.5 1123.3,-334.36 1113.43,-330.5 1113.18,-337.5"/>
</a>
</g>
</g>
<!-- Node6 -->
<g id="Node000006" class="node">
<title>Node6</title>
<g id="a_Node000006"><a xlink:href="enumcom_1_1runehive_1_1game_1_1world_1_1entity_1_1combat_1_1strategy_1_1player_1_1special_1_1_combat_special.html#a573e2c51bf1fb13475436cf36a5521ab" target="_top" xlink:title="Updates the special bar with the amount of special energy player has.">
<ellipse fill="white" stroke="#666666" cx="1359.46" cy="-272.81" rx="247.31" ry="25.81"/>
<text xml:space="preserve" text-anchor="start" x="1192.59" y="-275.66" font-family="Helvetica,sans-Serif" font-size="12.00">com.runehive.game.world.entity.combat.strategy.player.special.</text>
<text xml:space="preserve" text-anchor="middle" x="1359.46" y="-261.41" font-family="Helvetica,sans-Serif" font-size="12.00">CombatSpecial.updateSpecialAmount</text>
</a>
</g>
</g>
<!-- Node4&#45;&gt;Node6 -->
<g id="edge5_Node000004_Node000006" class="edge">
<title>Node4&#45;&gt;Node6</title>
<g id="a_edge5_Node000004_Node000006"><a xlink:title=" ">
<path fill="none" stroke="#63b8ff" d="M1012.51,-306.19C1061.61,-301.45 1114.89,-296.31 1164.59,-291.51"/>
<polygon fill="#63b8ff" stroke="#63b8ff" points="1164.67,-295.02 1174.29,-290.58 1164,-288.05 1164.67,-295.02"/>
</a>
</g>
</g>
<!-- Node9 -->
<g id="Node000009" class="node">
<title>Node9</title>
<g id="a_Node000009"><a xlink:href="classcom_1_1runehive_1_1util_1_1generic_1_1_generic_attributes.html#af9f5f730471d225b42169ed88b8a45ea" target="_top" xlink:title="Checks if a key is in the list of generic attribute.">
<ellipse fill="white" stroke="#666666" cx="1359.46" cy="-183.81" rx="107.83" ry="25.81"/>
<text xml:space="preserve" text-anchor="start" x="1291.21" y="-186.66" font-family="Helvetica,sans-Serif" font-size="12.00">com.runehive.util.generic.</text>
<text xml:space="preserve" text-anchor="middle" x="1359.46" y="-172.41" font-family="Helvetica,sans-Serif" font-size="12.00">GenericAttributes.has</text>
</a>
</g>
</g>
<!-- Node8&#45;&gt;Node9 -->
<g id="edge9_Node000008_Node000009" class="edge">
<title>Node8&#45;&gt;Node9</title>
<g id="a_edge9_Node000008_Node000009"><a xlink:title=" ">
<path fill="none" stroke="#63b8ff" d="M937.14,-183.81C1024.97,-183.81 1149.1,-183.81 1239.87,-183.81"/>
<polygon fill="#63b8ff" stroke="#63b8ff" points="1239.81,-187.31 1249.81,-183.81 1239.81,-180.31 1239.81,-187.31"/>
</a>
</g>
</g>
<!-- Node10&#45;&gt;Node10 -->
<g id="edge11_Node000010_Node000010" class="edge">
<title>Node10&#45;&gt;Node10</title>
<g id="a_edge11_Node000010_Node000010"><a xlink:title=" ">
<path fill="none" stroke="#63b8ff" d="M732.03,-118.57C719.36,-129.72 751.63,-139.62 828.84,-139.62 878.91,-139.62 910.08,-135.46 922.35,-129.49"/>
<polygon fill="#63b8ff" stroke="#63b8ff" points="925.67,-130.61 925.22,-120.02 918.97,-128.58 925.67,-130.61"/>
</a>
</g>
</g>
</g>
</svg>

<g id="navigator" transform="translate(0 0)" fill="#404254">
  <rect fill="#f2f5e9" fill-opacity="0.5" stroke="#606060" stroke-width=".5" x="0" y="0" width="60" height="60"/>
  <use id="zoomplus" xlink:href="#zoomPlus" x="17" y="9" onmousedown="handleZoom(evt,'in')"/>
  <use id="zoomminus" xlink:href="#zoomMin" x="42" y="9" onmousedown="handleZoom(evt,'out')"/>
  <use id="reset" xlink:href="#resetDef" x="30" y="36" onmousedown="handleReset()"/>
   <use id="arrowup" xlink:href="#arrowUp" x="0" y="0" onmousedown="handlePan(0,-1)"/>
  <use id="arrowright" xlink:href="#arrowRight" x="0" y="0" onmousedown="handlePan(1,0)"/>
  <use id="arrowdown" xlink:href="#arrowDown" x="0" y="0" onmousedown="handlePan(0,1)"/>
  <use id="arrowleft" xlink:href="#arrowLeft" x="0" y="0" onmousedown="handlePan(-1,0)"/>
</g>
<svg viewBox="0 0 15 15" width="100%" height="30px" preserveAspectRatio="xMaxYMin meet">
 <g id="arrow_out" transform="scale(0.3 0.3)">
  <a xlink:href="classcom_1_1runehive_1_1game_1_1world_1_1entity_1_1combat_1_1strategy_1_1player_1_1special_1_1melee_1_1_granite_maul_ab0525a9978b9a131aa257f0094beedb7_cgraph_org.svg" target="_base">
   <rect id="button" ry="5" rx="5" y="6" x="6" height="38" width="38"
        fill="#f2f5e9" fill-opacity="0.5" stroke="#606060" stroke-width="1.0"/>
   <path id="arrow"
     d="M 11.500037,31.436501 C 11.940474,20.09759 22.043105,11.32322 32.158766,21.979434 L 37.068811,17.246167 C 37.068811,17.246167 37.088388,32 37.088388,32 L 22.160133,31.978069 C 22.160133,31.978069 26.997745,27.140456 26.997745,27.140456 C 18.528582,18.264221 13.291696,25.230495 11.500037,31.436501 z"
     style="fill:#404040;"/>
  </a>
 </g>
</svg>

<style type='text/css'>
<![CDATA[
[data-mouse-over-selected='false'] { opacity: 0.7; }
[data-mouse-over-selected='true']  { opacity: 1.0; }
]]>
</style>
<script type="application/ecmascript"><![CDATA[
document.addEventListener('DOMContentLoaded', (event) => {
  highlightEdges();
  highlightAdjacentNodes();
});
]]></script>
</svg>
