<?xml version="1.0" encoding="UTF-8" standalone="no"?>
<!DOCTYPE svg PUBLIC "-//W3C//DTD SVG 1.1//EN"
 "http://www.w3.org/Graphics/SVG/1.1/DTD/svg11.dtd">
<!-- Generated by graphviz version 14.0.1 (20251006.0113)
 -->
<!-- Title: com.runehive.util.RandomUtils.randomExclude Pages: 1 -->
<!--zoomable 378 -->

<svg id="main" version="1.1" xmlns="http://www.w3.org/2000/svg" xmlns:xlink="http://www.w3.org/1999/xlink" xml:space="preserve" onload="init(evt)">

<style type="text/css"><![CDATA[
.node, .edge {opacity: 0.7;}
.node.selected, .edge.selected {opacity: 1;}
.edge:hover path { stroke: red; }
.edge:hover polygon { stroke: red; fill: red; }
]]></style>

<defs>
  <circle id="rim" cx="0" cy="0" r="7"/>
  <circle id="rim2" cx="0" cy="0" r="3.5"/>
  <g id="zoomPlus">
    <use xlink:href="#rim" fill="#404040"><set attributeName="fill" to="#808080" begin="zoomplus.mouseover" end="zoomplus.mouseout"/></use>
    <path d="M-4,0h8M0,-4v8" fill="none" stroke="white" stroke-width="1.5" pointer-events="none"/>
  </g>
  <g id="zoomMin">
    <use xlink:href="#rim" fill="#404040"><set attributeName="fill" to="#808080" begin="zoomminus.mouseover" end="zoomminus.mouseout"/></use>
    <path d="M-4,0h8" fill="none" stroke="white" stroke-width="1.5" pointer-events="none"/>
  </g>
  <g id="arrowUp" transform="translate(30 24)">
    <use xlink:href="#rim"/>
    <path pointer-events="none" fill="none" stroke="white" stroke-width="1.5" d="M0,-3.0v7 M-2.5,-0.5L0,-3.0L2.5,-0.5"/>
  </g>
  <g id="arrowRight" transform="rotate(90) translate(36 -43)">
    <use xlink:href="#rim"/>
    <path pointer-events="none" fill="none" stroke="white" stroke-width="1.5" d="M0,-3.0v7 M-2.5,-0.5L0,-3.0L2.5,-0.5"/>
  </g>
  <g id="arrowDown" transform="rotate(180) translate(-30 -48)">
    <use xlink:href="#rim"/>
    <path pointer-events="none" fill="none" stroke="white" stroke-width="1.5" d="M0,-3.0v7 M-2.5,-0.5L0,-3.0L2.5,-0.5"/>
  </g>
  <g id="arrowLeft" transform="rotate(270) translate(-36 17)">
    <use xlink:href="#rim"/>
    <path pointer-events="none" fill="none" stroke="white" stroke-width="1.5" d="M0,-3.0v7 M-2.5,-0.5L0,-3.0L2.5,-0.5"/>
  </g>
  <g id="resetDef">
    <use xlink:href="#rim2" fill="#404040"><set attributeName="fill" to="#808080" begin="reset.mouseover" end="reset.mouseout"/></use>
  </g>
</defs>
<script type="application/ecmascript">
var viewWidth = 1712;
var viewHeight = 378;
var sectionId = 'dynsection-6';
</script>
<script type="application/ecmascript" xlink:href="svg.min.js"/>
<svg id="graph" class="graph">
<g id="viewport">
<title>com.runehive.util.RandomUtils.randomExclude</title>
<!-- Node1 -->
<g id="Node000001" class="node">
<title>Node1</title>
<g id="a_Node000001"><a xlink:title="Returns a pseudo&#45;random int value between inclusive min and inclusive max excluding the specified num...">
<ellipse fill="#999999" stroke="#666666" cx="1593.63" cy="-200.81" rx="109.96" ry="25.81"/>
<text xml:space="preserve" text-anchor="start" x="1523.88" y="-203.66" font-family="Helvetica,sans-Serif" font-size="12.00">com.runehive.util.Random</text>
<text xml:space="preserve" text-anchor="middle" x="1593.63" y="-189.41" font-family="Helvetica,sans-Serif" font-size="12.00">Utils.randomExclude</text>
</a>
</g>
</g>
<!-- Node2 -->
<g id="Node000002" class="node">
<title>Node2</title>
<g id="a_Node000002"><a xlink:href="classcom_1_1runehive_1_1game_1_1world_1_1entity_1_1combat_1_1strategy_1_1npc_1_1boss_1_1_venenatis_1_1_web.html#a6a7cdc79d9c1b93aabc1052360707033" target="_top" xlink:title=" ">
<ellipse fill="white" stroke="#666666" cx="1218.4" cy="-343.81" rx="229.28" ry="25.81"/>
<text xml:space="preserve" text-anchor="start" x="1064.27" y="-346.66" font-family="Helvetica,sans-Serif" font-size="12.00">com.runehive.game.world.entity.combat.strategy.npc.boss.</text>
<text xml:space="preserve" text-anchor="middle" x="1218.4" y="-332.41" font-family="Helvetica,sans-Serif" font-size="12.00">Venenatis.Web.finishOutgoing</text>
</a>
</g>
</g>
<!-- Node1&#45;&gt;Node2 -->
<g id="edge1_Node000001_Node000002" class="edge">
<title>Node1&#45;&gt;Node2</title>
<g id="a_edge1_Node000001_Node000002"><a xlink:title=" ">
<path fill="none" stroke="#63b8ff" d="M1556.66,-233.34C1528.88,-256.64 1488.42,-286.79 1447.68,-303.81 1426.23,-312.76 1402.85,-319.71 1379.49,-325.11"/>
<polygon fill="#63b8ff" stroke="#63b8ff" points="1558.73,-236.18 1564.07,-227.03 1554.19,-230.85 1558.73,-236.18"/>
</a>
</g>
</g>
<!-- Node3 -->
<g id="Node000003" class="node">
<title>Node3</title>
<g id="a_Node000003"><a xlink:href="classcom_1_1runehive_1_1game_1_1world_1_1entity_1_1combat_1_1strategy_1_1npc_1_1boss_1_1_demonic_gorillas.html#a72e7539860b116d3c13ca7695f5ac8ef" target="_top" xlink:title=" ">
<ellipse fill="white" stroke="#666666" cx="723.84" cy="-323.81" rx="229.28" ry="25.81"/>
<text xml:space="preserve" text-anchor="start" x="569.71" y="-326.66" font-family="Helvetica,sans-Serif" font-size="12.00">com.runehive.game.world.entity.combat.strategy.npc.boss.</text>
<text xml:space="preserve" text-anchor="middle" x="723.84" y="-312.41" font-family="Helvetica,sans-Serif" font-size="12.00">DemonicGorillas.getNextForm</text>
</a>
</g>
</g>
<!-- Node1&#45;&gt;Node3 -->
<g id="edge2_Node000001_Node000003" class="edge">
<title>Node1&#45;&gt;Node3</title>
<g id="a_edge2_Node000001_Node000003"><a xlink:title=" ">
<path fill="none" stroke="#63b8ff" d="M1542.67,-230.73C1515.53,-245.47 1480.83,-261.94 1447.68,-270.81 1422.61,-277.52 1129.57,-297.6 924.41,-311.02"/>
<polygon fill="#63b8ff" stroke="#63b8ff" points="1544.31,-233.83 1551.36,-225.92 1540.91,-227.7 1544.31,-233.83"/>
</a>
</g>
</g>
<!-- Node5 -->
<g id="Node000005" class="node">
<title>Node5</title>
<g id="a_Node000005"><a xlink:href="classcom_1_1runehive_1_1game_1_1world_1_1entity_1_1combat_1_1strategy_1_1npc_1_1boss_1_1_demonic_gorillas.html#a74536a32a9cd08e882d080a5a97bb55e" target="_top" xlink:title=" ">
<ellipse fill="white" stroke="#666666" cx="1218.4" cy="-235.81" rx="229.28" ry="25.81"/>
<text xml:space="preserve" text-anchor="start" x="1064.27" y="-238.66" font-family="Helvetica,sans-Serif" font-size="12.00">com.runehive.game.world.entity.combat.strategy.npc.boss.</text>
<text xml:space="preserve" text-anchor="middle" x="1218.4" y="-224.41" font-family="Helvetica,sans-Serif" font-size="12.00">DemonicGorillas.getNextStrategy</text>
</a>
</g>
</g>
<!-- Node1&#45;&gt;Node5 -->
<g id="edge4_Node000001_Node000005" class="edge">
<title>Node1&#45;&gt;Node5</title>
<g id="a_edge4_Node000001_Node000005"><a xlink:title=" ">
<path fill="none" stroke="#63b8ff" d="M1479.97,-211.37C1453.55,-213.85 1424.78,-216.55 1396.31,-219.22"/>
<polygon fill="#63b8ff" stroke="#63b8ff" points="1480,-214.89 1489.63,-210.47 1479.35,-207.92 1480,-214.89"/>
</a>
</g>
</g>
<!-- Node7 -->
<g id="Node000007" class="node">
<title>Node7</title>
<g id="a_Node000007"><a xlink:href="classcom_1_1runehive_1_1game_1_1world_1_1entity_1_1combat_1_1strategy_1_1npc_1_1boss_1_1_hydra.html#a103559fdb3e1d21dc7fc09c052b25930" target="_top" xlink:title=" ">
<ellipse fill="white" stroke="#666666" cx="1218.4" cy="-165.81" rx="229.28" ry="25.81"/>
<text xml:space="preserve" text-anchor="start" x="1064.27" y="-168.66" font-family="Helvetica,sans-Serif" font-size="12.00">com.runehive.game.world.entity.combat.strategy.npc.boss.</text>
<text xml:space="preserve" text-anchor="middle" x="1218.4" y="-154.41" font-family="Helvetica,sans-Serif" font-size="12.00">Hydra.getNextStrategy</text>
</a>
</g>
</g>
<!-- Node1&#45;&gt;Node7 -->
<g id="edge8_Node000001_Node000007" class="edge">
<title>Node1&#45;&gt;Node7</title>
<g id="a_edge8_Node000001_Node000007"><a xlink:title=" ">
<path fill="none" stroke="#63b8ff" d="M1479.97,-190.24C1453.55,-187.77 1424.78,-185.07 1396.31,-182.4"/>
<polygon fill="#63b8ff" stroke="#63b8ff" points="1479.35,-193.7 1489.63,-191.15 1480,-186.73 1479.35,-193.7"/>
</a>
</g>
</g>
<!-- Node9 -->
<g id="Node000009" class="node">
<title>Node9</title>
<g id="a_Node000009"><a xlink:href="classcom_1_1runehive_1_1content_1_1activity_1_1impl_1_1zulrah_1_1_zulrah_activity.html#a260e576913fca117d046644047f53b10" target="_top" xlink:title="Gets the next Zulrah form.">
<ellipse fill="white" stroke="#666666" cx="1218.4" cy="-95.81" rx="165.11" ry="25.81"/>
<text xml:space="preserve" text-anchor="start" x="1109.65" y="-98.66" font-family="Helvetica,sans-Serif" font-size="12.00">com.runehive.content.activity.impl.zulrah.</text>
<text xml:space="preserve" text-anchor="middle" x="1218.4" y="-84.41" font-family="Helvetica,sans-Serif" font-size="12.00">ZulrahActivity.nextForm</text>
</a>
</g>
</g>
<!-- Node1&#45;&gt;Node9 -->
<g id="edge11_Node000001_Node000009" class="edge">
<title>Node1&#45;&gt;Node9</title>
<g id="a_edge11_Node000001_Node000009"><a xlink:title=" ">
<path fill="none" stroke="#63b8ff" d="M1541.18,-171.32C1514.14,-157.03 1479.98,-140.84 1447.68,-130.81 1418.86,-121.86 1387.26,-115.15 1357.01,-110.14"/>
<polygon fill="#63b8ff" stroke="#63b8ff" points="1539.38,-174.32 1549.84,-175.97 1542.69,-168.15 1539.38,-174.32"/>
</a>
</g>
</g>
<!-- Node10 -->
<g id="Node000010" class="node">
<title>Node10</title>
<g id="a_Node000010"><a xlink:href="classcom_1_1runehive_1_1game_1_1world_1_1entity_1_1combat_1_1strategy_1_1npc_1_1boss_1_1_stone_guardian.html#a0116212e4d23d70e5ebc50421f998388" target="_top" xlink:title=" ">
<ellipse fill="white" stroke="#666666" cx="1218.4" cy="-25.81" rx="229.28" ry="25.81"/>
<text xml:space="preserve" text-anchor="start" x="1064.27" y="-28.66" font-family="Helvetica,sans-Serif" font-size="12.00">com.runehive.game.world.entity.combat.strategy.npc.boss.</text>
<text xml:space="preserve" text-anchor="middle" x="1218.4" y="-14.41" font-family="Helvetica,sans-Serif" font-size="12.00">StoneGuardian.nextForm</text>
</a>
</g>
</g>
<!-- Node1&#45;&gt;Node10 -->
<g id="edge12_Node000001_Node000010" class="edge">
<title>Node1&#45;&gt;Node10</title>
<g id="a_edge12_Node000001_Node000010"><a xlink:title=" ">
<path fill="none" stroke="#63b8ff" d="M1567.24,-166.13C1541.14,-133.29 1497.39,-85.45 1447.68,-60.81 1432.14,-53.11 1415.33,-47.01 1398.14,-42.2"/>
<polygon fill="#63b8ff" stroke="#63b8ff" points="1564.28,-168.03 1573.19,-173.77 1569.8,-163.73 1564.28,-168.03"/>
</a>
</g>
</g>
<!-- Node4 -->
<g id="Node000004" class="node">
<title>Node4</title>
<g id="a_Node000004"><a xlink:href="classcom_1_1runehive_1_1game_1_1world_1_1entity_1_1combat_1_1strategy_1_1npc_1_1boss_1_1_demonic_gorillas.html#a2e7b39e8d2bf38c3d371c87f8bbd5dd5" target="_top" xlink:title=" ">
<ellipse fill="white" stroke="#666666" cx="229.28" cy="-279.81" rx="229.28" ry="25.81"/>
<text xml:space="preserve" text-anchor="start" x="75.15" y="-282.66" font-family="Helvetica,sans-Serif" font-size="12.00">com.runehive.game.world.entity.combat.strategy.npc.boss.</text>
<text xml:space="preserve" text-anchor="middle" x="229.28" y="-268.41" font-family="Helvetica,sans-Serif" font-size="12.00">DemonicGorillas.block</text>
</a>
</g>
</g>
<!-- Node3&#45;&gt;Node4 -->
<g id="edge3_Node000003_Node000004" class="edge">
<title>Node3&#45;&gt;Node4</title>
<g id="a_edge3_Node000003_Node000004"><a xlink:title=" ">
<path fill="none" stroke="#63b8ff" d="M531.18,-306.69C491.54,-303.15 449.92,-299.43 410.7,-295.93"/>
<polygon fill="#63b8ff" stroke="#63b8ff" points="530.79,-310.17 541.07,-307.57 531.42,-303.2 530.79,-310.17"/>
</a>
</g>
</g>
<!-- Node6 -->
<g id="Node000006" class="node">
<title>Node6</title>
<g id="a_Node000006"><a xlink:href="classcom_1_1runehive_1_1game_1_1world_1_1entity_1_1combat_1_1strategy_1_1npc_1_1boss_1_1_demonic_gorillas.html#a6e4a41ed8de9273e9ba3692b4bfc669e" target="_top" xlink:title=" ">
<ellipse fill="white" stroke="#666666" cx="723.84" cy="-235.81" rx="229.28" ry="25.81"/>
<text xml:space="preserve" text-anchor="start" x="569.71" y="-238.66" font-family="Helvetica,sans-Serif" font-size="12.00">com.runehive.game.world.entity.combat.strategy.npc.boss.</text>
<text xml:space="preserve" text-anchor="middle" x="723.84" y="-224.41" font-family="Helvetica,sans-Serif" font-size="12.00">DemonicGorillas.hit</text>
</a>
</g>
</g>
<!-- Node5&#45;&gt;Node6 -->
<g id="edge5_Node000005_Node000006" class="edge">
<title>Node5&#45;&gt;Node6</title>
<g id="a_edge5_Node000005_Node000006"><a xlink:title=" ">
<path fill="none" stroke="#63b8ff" d="M977.41,-235.81C969.36,-235.81 961.31,-235.81 953.27,-235.81"/>
<polygon fill="#63b8ff" stroke="#63b8ff" points="977.27,-239.31 987.27,-235.81 977.27,-232.31 977.27,-239.31"/>
</a>
</g>
</g>
<!-- Node6&#45;&gt;Node4 -->
<g id="edge6_Node000006_Node000004" class="edge">
<title>Node6&#45;&gt;Node4</title>
<g id="a_edge6_Node000006_Node000004"><a xlink:title=" ">
<path fill="none" stroke="#63b8ff" d="M531.18,-252.93C491.54,-256.47 449.92,-260.19 410.7,-263.69"/>
<polygon fill="#63b8ff" stroke="#63b8ff" points="531.42,-256.42 541.07,-252.05 530.79,-249.45 531.42,-256.42"/>
</a>
</g>
</g>
<!-- Node6&#45;&gt;Node6 -->
<g id="edge7_Node000006_Node000006" class="edge">
<title>Node6&#45;&gt;Node6</title>
<g id="a_edge7_Node000006_Node000006"><a xlink:title=" ">
<path fill="none" stroke="#63b8ff" d="M810.22,-269.88C798.27,-275.64 769.48,-279.62 723.84,-279.62 654.29,-279.62 623.86,-270.38 632.56,-259.69"/>
<polygon fill="#63b8ff" stroke="#63b8ff" points="813.28,-271.59 814.46,-261.06 806.97,-268.55 813.28,-271.59"/>
</a>
</g>
</g>
<!-- Node8 -->
<g id="Node000008" class="node">
<title>Node8</title>
<g id="a_Node000008"><a xlink:href="classcom_1_1runehive_1_1game_1_1world_1_1entity_1_1combat_1_1strategy_1_1npc_1_1boss_1_1_hydra.html#acb52d78bb8d3e361da2ac4a2faa494cc" target="_top" xlink:title=" ">
<ellipse fill="white" stroke="#666666" cx="723.84" cy="-147.81" rx="229.28" ry="25.81"/>
<text xml:space="preserve" text-anchor="start" x="569.71" y="-150.66" font-family="Helvetica,sans-Serif" font-size="12.00">com.runehive.game.world.entity.combat.strategy.npc.boss.</text>
<text xml:space="preserve" text-anchor="middle" x="723.84" y="-136.41" font-family="Helvetica,sans-Serif" font-size="12.00">Hydra.hit</text>
</a>
</g>
</g>
<!-- Node7&#45;&gt;Node8 -->
<g id="edge9_Node000007_Node000008" class="edge">
<title>Node7&#45;&gt;Node8</title>
<g id="a_edge9_Node000007_Node000008"><a xlink:title=" ">
<path fill="none" stroke="#63b8ff" d="M988.45,-157.44C973.16,-156.88 957.78,-156.32 942.55,-155.77"/>
<polygon fill="#63b8ff" stroke="#63b8ff" points="987.93,-160.93 998.05,-157.79 988.18,-153.93 987.93,-160.93"/>
</a>
</g>
</g>
<!-- Node8&#45;&gt;Node8 -->
<g id="edge10_Node000008_Node000008" class="edge">
<title>Node8&#45;&gt;Node8</title>
<g id="a_edge10_Node000008_Node000008"><a xlink:title=" ">
<path fill="none" stroke="#63b8ff" d="M810.22,-181.88C798.27,-187.64 769.48,-191.62 723.84,-191.62 654.29,-191.62 623.86,-182.38 632.56,-171.69"/>
<polygon fill="#63b8ff" stroke="#63b8ff" points="813.28,-183.59 814.46,-173.06 806.97,-180.55 813.28,-183.59"/>
</a>
</g>
</g>
<!-- Node11 -->
<g id="Node000011" class="node">
<title>Node11</title>
<g id="a_Node000011"><a xlink:href="classcom_1_1runehive_1_1game_1_1world_1_1entity_1_1combat_1_1strategy_1_1npc_1_1boss_1_1_stone_guardian_1_1_transform.html#aabeaccd1fcb79f7e1c72d8535bc7c661" target="_top" xlink:title=" ">
<ellipse fill="white" stroke="#666666" cx="723.84" cy="-25.81" rx="229.28" ry="25.81"/>
<text xml:space="preserve" text-anchor="start" x="569.71" y="-28.66" font-family="Helvetica,sans-Serif" font-size="12.00">com.runehive.game.world.entity.combat.strategy.npc.boss.</text>
<text xml:space="preserve" text-anchor="middle" x="723.84" y="-14.41" font-family="Helvetica,sans-Serif" font-size="12.00">StoneGuardian.Transform.start</text>
</a>
</g>
</g>
<!-- Node10&#45;&gt;Node11 -->
<g id="edge13_Node000010_Node000011" class="edge">
<title>Node10&#45;&gt;Node11</title>
<g id="a_edge13_Node000010_Node000011"><a xlink:title=" ">
<path fill="none" stroke="#63b8ff" d="M977.41,-25.81C969.36,-25.81 961.31,-25.81 953.27,-25.81"/>
<polygon fill="#63b8ff" stroke="#63b8ff" points="977.27,-29.31 987.27,-25.81 977.27,-22.31 977.27,-29.31"/>
</a>
</g>
</g>
</g>
</svg>

<g id="navigator" transform="translate(0 0)" fill="#404254">
  <rect fill="#f2f5e9" fill-opacity="0.5" stroke="#606060" stroke-width=".5" x="0" y="0" width="60" height="60"/>
  <use id="zoomplus" xlink:href="#zoomPlus" x="17" y="9" onmousedown="handleZoom(evt,'in')"/>
  <use id="zoomminus" xlink:href="#zoomMin" x="42" y="9" onmousedown="handleZoom(evt,'out')"/>
  <use id="reset" xlink:href="#resetDef" x="30" y="36" onmousedown="handleReset()"/>
   <use id="arrowup" xlink:href="#arrowUp" x="0" y="0" onmousedown="handlePan(0,-1)"/>
  <use id="arrowright" xlink:href="#arrowRight" x="0" y="0" onmousedown="handlePan(1,0)"/>
  <use id="arrowdown" xlink:href="#arrowDown" x="0" y="0" onmousedown="handlePan(0,1)"/>
  <use id="arrowleft" xlink:href="#arrowLeft" x="0" y="0" onmousedown="handlePan(-1,0)"/>
</g>
<svg viewBox="0 0 15 15" width="100%" height="30px" preserveAspectRatio="xMaxYMin meet">
 <g id="arrow_out" transform="scale(0.3 0.3)">
  <a xlink:href="classcom_1_1runehive_1_1util_1_1_random_utils_a4393ae0e07595cf2eff354ff17894f39_icgraph_org.svg" target="_base">
   <rect id="button" ry="5" rx="5" y="6" x="6" height="38" width="38"
        fill="#f2f5e9" fill-opacity="0.5" stroke="#606060" stroke-width="1.0"/>
   <path id="arrow"
     d="M 11.500037,31.436501 C 11.940474,20.09759 22.043105,11.32322 32.158766,21.979434 L 37.068811,17.246167 C 37.068811,17.246167 37.088388,32 37.088388,32 L 22.160133,31.978069 C 22.160133,31.978069 26.997745,27.140456 26.997745,27.140456 C 18.528582,18.264221 13.291696,25.230495 11.500037,31.436501 z"
     style="fill:#404040;"/>
  </a>
 </g>
</svg>

<style type='text/css'>
<![CDATA[
[data-mouse-over-selected='false'] { opacity: 0.7; }
[data-mouse-over-selected='true']  { opacity: 1.0; }
]]>
</style>
<script type="application/ecmascript"><![CDATA[
document.addEventListener('DOMContentLoaded', (event) => {
  highlightEdges();
  highlightAdjacentNodes();
});
]]></script>
</svg>
