<?xml version="1.0" encoding="UTF-8" standalone="no"?>
<!DOCTYPE svg PUBLIC "-//W3C//DTD SVG 1.1//EN"
 "http://www.w3.org/Graphics/SVG/1.1/DTD/svg11.dtd">
<!-- Generated by graphviz version 14.0.1 (20251006.0113)
 -->
<!-- Title: com.runehive.content.skill.impl.crafting.impl.Glass.click Pages: 1 -->
<!--zoomable 940 -->

<svg id="main" version="1.1" xmlns="http://www.w3.org/2000/svg" xmlns:xlink="http://www.w3.org/1999/xlink" xml:space="preserve" onload="init(evt)">

<style type="text/css"><![CDATA[
.node, .edge {opacity: 0.7;}
.node.selected, .edge.selected {opacity: 1;}
.edge:hover path { stroke: red; }
.edge:hover polygon { stroke: red; fill: red; }
]]></style>

<defs>
  <circle id="rim" cx="0" cy="0" r="7"/>
  <circle id="rim2" cx="0" cy="0" r="3.5"/>
  <g id="zoomPlus">
    <use xlink:href="#rim" fill="#404040"><set attributeName="fill" to="#808080" begin="zoomplus.mouseover" end="zoomplus.mouseout"/></use>
    <path d="M-4,0h8M0,-4v8" fill="none" stroke="white" stroke-width="1.5" pointer-events="none"/>
  </g>
  <g id="zoomMin">
    <use xlink:href="#rim" fill="#404040"><set attributeName="fill" to="#808080" begin="zoomminus.mouseover" end="zoomminus.mouseout"/></use>
    <path d="M-4,0h8" fill="none" stroke="white" stroke-width="1.5" pointer-events="none"/>
  </g>
  <g id="arrowUp" transform="translate(30 24)">
    <use xlink:href="#rim"/>
    <path pointer-events="none" fill="none" stroke="white" stroke-width="1.5" d="M0,-3.0v7 M-2.5,-0.5L0,-3.0L2.5,-0.5"/>
  </g>
  <g id="arrowRight" transform="rotate(90) translate(36 -43)">
    <use xlink:href="#rim"/>
    <path pointer-events="none" fill="none" stroke="white" stroke-width="1.5" d="M0,-3.0v7 M-2.5,-0.5L0,-3.0L2.5,-0.5"/>
  </g>
  <g id="arrowDown" transform="rotate(180) translate(-30 -48)">
    <use xlink:href="#rim"/>
    <path pointer-events="none" fill="none" stroke="white" stroke-width="1.5" d="M0,-3.0v7 M-2.5,-0.5L0,-3.0L2.5,-0.5"/>
  </g>
  <g id="arrowLeft" transform="rotate(270) translate(-36 17)">
    <use xlink:href="#rim"/>
    <path pointer-events="none" fill="none" stroke="white" stroke-width="1.5" d="M0,-3.0v7 M-2.5,-0.5L0,-3.0L2.5,-0.5"/>
  </g>
  <g id="resetDef">
    <use xlink:href="#rim2" fill="#404040"><set attributeName="fill" to="#808080" begin="reset.mouseover" end="reset.mouseout"/></use>
  </g>
</defs>
<script type="application/ecmascript">
var viewWidth = 2934;
var viewHeight = 940;
var sectionId = 'dynsection-2';
</script>
<script type="application/ecmascript" xlink:href="svg.min.js"/>
<svg id="graph" class="graph">
<g id="viewport">
<title>com.runehive.content.skill.impl.crafting.impl.Glass.click</title>
<!-- Node1 -->
<g id="Node000001" class="node">
<title>Node1</title>
<g id="a_Node000001"><a xlink:title="Handles clicking on the interface.">
<ellipse fill="#999999" stroke="#666666" cx="176.78" cy="-770.81" rx="176.78" ry="25.81"/>
<text xml:space="preserve" text-anchor="start" x="59.78" y="-773.66" font-family="Helvetica,sans-Serif" font-size="12.00">com.runehive.content.skill.impl.crafting.impl.</text>
<text xml:space="preserve" text-anchor="middle" x="176.78" y="-759.41" font-family="Helvetica,sans-Serif" font-size="12.00">Glass.click</text>
</a>
</g>
</g>
<!-- Node2 -->
<g id="Node000002" class="node">
<title>Node2</title>
<g id="a_Node000002"><a xlink:href="classcom_1_1runehive_1_1content_1_1skill_1_1impl_1_1crafting_1_1impl_1_1_glass.html#a8b259452d1f2b2b8986decfbc700d913" target="_top" xlink:title="Handles crafting the glass.">
<ellipse fill="white" stroke="#666666" cx="566.33" cy="-628.81" rx="176.78" ry="25.81"/>
<text xml:space="preserve" text-anchor="start" x="449.33" y="-631.66" font-family="Helvetica,sans-Serif" font-size="12.00">com.runehive.content.skill.impl.crafting.impl.</text>
<text xml:space="preserve" text-anchor="middle" x="566.33" y="-617.41" font-family="Helvetica,sans-Serif" font-size="12.00">Glass.craft</text>
</a>
</g>
</g>
<!-- Node1&#45;&gt;Node2 -->
<g id="edge1_Node000001_Node000002" class="edge">
<title>Node1&#45;&gt;Node2</title>
<g id="a_edge1_Node000001_Node000002"><a xlink:title=" ">
<path fill="none" stroke="#63b8ff" d="M243.96,-746.56C311.72,-721.73 416.94,-683.18 488.37,-657.01"/>
<polygon fill="#63b8ff" stroke="#63b8ff" points="489.49,-660.32 497.68,-653.6 487.08,-653.75 489.49,-660.32"/>
</a>
</g>
</g>
<!-- Node19 -->
<g id="Node000019" class="node">
<title>Node19</title>
<g id="a_Node000019"><a xlink:href="classcom_1_1runehive_1_1game_1_1world_1_1entity_1_1mob_1_1player_1_1_player.html#ab8309e5d532b7540f48bf25f8dea92a8" target="_top" xlink:title=" ">
<ellipse fill="white" stroke="#666666" cx="2116.06" cy="-627.81" rx="175.72" ry="25.81"/>
<text xml:space="preserve" text-anchor="start" x="1999.81" y="-630.66" font-family="Helvetica,sans-Serif" font-size="12.00">com.runehive.game.world.entity.mob.player.</text>
<text xml:space="preserve" text-anchor="middle" x="2116.06" y="-616.41" font-family="Helvetica,sans-Serif" font-size="12.00">Player.send</text>
</a>
</g>
</g>
<!-- Node1&#45;&gt;Node19 -->
<g id="edge40_Node000001_Node000019" class="edge">
<title>Node1&#45;&gt;Node19</title>
<g id="a_edge40_Node000001_Node000019"><a xlink:title=" ">
<path fill="none" stroke="#63b8ff" d="M246.45,-794.91C380.73,-839.83 688.28,-931.81 954.88,-931.81 954.88,-931.81 954.88,-931.81 1345.38,-931.81 1639.18,-931.81 1954.74,-737.82 2069.82,-659.77"/>
<polygon fill="#63b8ff" stroke="#63b8ff" points="2071.51,-662.85 2077.79,-654.32 2067.56,-657.07 2071.51,-662.85"/>
</a>
</g>
</g>
<!-- Node3 -->
<g id="Node000003" class="node">
<title>Node3</title>
<g id="a_Node000003"><a xlink:href="classcom_1_1runehive_1_1content_1_1skill_1_1impl_1_1crafting_1_1impl_1_1_glass.html#a60f6619ae75dfb648d47a21e27ab9867" target="_top" xlink:title="Handles blowing the glass data.">
<ellipse fill="white" stroke="#666666" cx="955.88" cy="-361.81" rx="176.78" ry="25.81"/>
<text xml:space="preserve" text-anchor="start" x="838.88" y="-364.66" font-family="Helvetica,sans-Serif" font-size="12.00">com.runehive.content.skill.impl.crafting.impl.</text>
<text xml:space="preserve" text-anchor="middle" x="955.88" y="-350.41" font-family="Helvetica,sans-Serif" font-size="12.00">Glass.blow</text>
</a>
</g>
</g>
<!-- Node2&#45;&gt;Node3 -->
<g id="edge2_Node000002_Node000003" class="edge">
<title>Node2&#45;&gt;Node3</title>
<g id="a_edge2_Node000002_Node000003"><a xlink:title=" ">
<path fill="none" stroke="#63b8ff" d="M604.49,-603.21C675.67,-554.17 831.08,-447.1 908.76,-393.59"/>
<polygon fill="#63b8ff" stroke="#63b8ff" points="910.34,-396.75 916.59,-388.19 906.37,-390.98 910.34,-396.75"/>
</a>
</g>
</g>
<!-- Node7 -->
<g id="Node000007" class="node">
<title>Node7</title>
<g id="a_Node000007"><a xlink:href="classcom_1_1runehive_1_1game_1_1world_1_1items_1_1containers_1_1_item_container.html#a8acf6f1c920076daea6c80e5afbe3404" target="_top" xlink:title="Determines if this container contains id.">
<ellipse fill="white" stroke="#666666" cx="1344.38" cy="-627.81" rx="174.13" ry="25.81"/>
<text xml:space="preserve" text-anchor="start" x="1229.25" y="-630.66" font-family="Helvetica,sans-Serif" font-size="12.00">com.runehive.game.world.items.containers.</text>
<text xml:space="preserve" text-anchor="middle" x="1344.38" y="-616.41" font-family="Helvetica,sans-Serif" font-size="12.00">ItemContainer.contains</text>
</a>
</g>
</g>
<!-- Node2&#45;&gt;Node7 -->
<g id="edge31_Node000002_Node000007" class="edge">
<title>Node2&#45;&gt;Node7</title>
<g id="a_edge31_Node000002_Node000007"><a xlink:title=" ">
<path fill="none" stroke="#63b8ff" d="M743.43,-628.58C867.36,-628.42 1032.91,-628.21 1158.7,-628.05"/>
<polygon fill="#63b8ff" stroke="#63b8ff" points="1158.47,-631.55 1168.47,-628.03 1158.46,-624.55 1158.47,-631.55"/>
</a>
</g>
</g>
<!-- Node8 -->
<g id="Node000008" class="node">
<title>Node8</title>
<g id="a_Node000008"><a xlink:href="classcom_1_1runehive_1_1game_1_1world_1_1items_1_1_item_definition.html#a50e4924075ee157cd3f75a8107a595fa" target="_top" xlink:title="Gets an item definition.">
<ellipse fill="white" stroke="#666666" cx="1344.38" cy="-25.81" rx="132.76" ry="25.81"/>
<text xml:space="preserve" text-anchor="start" x="1258.5" y="-28.66" font-family="Helvetica,sans-Serif" font-size="12.00">com.runehive.game.world.items.</text>
<text xml:space="preserve" text-anchor="middle" x="1344.38" y="-14.41" font-family="Helvetica,sans-Serif" font-size="12.00">ItemDefinition.get</text>
</a>
</g>
</g>
<!-- Node2&#45;&gt;Node8 -->
<g id="edge34_Node000002_Node000008" class="edge">
<title>Node2&#45;&gt;Node8</title>
<g id="a_edge34_Node000002_Node000008"><a xlink:title=" ">
<path fill="none" stroke="#63b8ff" d="M568.68,-602.57C574.77,-513.75 607.59,-222.62 779.11,-90.81 909.14,9.12 1108.37,6.65 1232,-7.35"/>
<polygon fill="#63b8ff" stroke="#63b8ff" points="1231.51,-10.82 1241.85,-8.52 1232.33,-3.87 1231.51,-10.82"/>
</a>
</g>
</g>
<!-- Node10 -->
<g id="Node000010" class="node">
<title>Node10</title>
<g id="a_Node000010"><a xlink:href="classcom_1_1runehive_1_1util_1_1_utility.html#a949eda7f39a8a3e15e29283f8b0d0623" target="_top" xlink:title="A or an.">
<ellipse fill="white" stroke="#666666" cx="1344.38" cy="-165.81" rx="112.08" ry="25.81"/>
<text xml:space="preserve" text-anchor="start" x="1273.13" y="-168.66" font-family="Helvetica,sans-Serif" font-size="12.00">com.runehive.util.Utility.get</text>
<text xml:space="preserve" text-anchor="middle" x="1344.38" y="-154.41" font-family="Helvetica,sans-Serif" font-size="12.00">AOrAn</text>
</a>
</g>
</g>
<!-- Node2&#45;&gt;Node10 -->
<g id="edge35_Node000002_Node000010" class="edge">
<title>Node2&#45;&gt;Node10</title>
<g id="a_edge35_Node000002_Node000010"><a xlink:title=" ">
<path fill="none" stroke="#63b8ff" d="M578.17,-602.95C603.99,-544.55 674.84,-401.74 779.11,-326.81 854.21,-272.83 1106.67,-214.43 1247.09,-185.03"/>
<polygon fill="#63b8ff" stroke="#63b8ff" points="1247.69,-188.48 1256.77,-183.02 1246.26,-181.63 1247.69,-188.48"/>
</a>
</g>
</g>
<!-- Node11 -->
<g id="Node000011" class="node">
<title>Node11</title>
<g id="a_Node000011"><a xlink:href="classcom_1_1runehive_1_1game_1_1world_1_1items_1_1_item_definition.html#aa9479e24430ebdd5855705e1177346b4" target="_top" xlink:title="Gets the item name.">
<ellipse fill="white" stroke="#666666" cx="1344.38" cy="-95.81" rx="132.76" ry="25.81"/>
<text xml:space="preserve" text-anchor="start" x="1258.5" y="-98.66" font-family="Helvetica,sans-Serif" font-size="12.00">com.runehive.game.world.items.</text>
<text xml:space="preserve" text-anchor="middle" x="1344.38" y="-84.41" font-family="Helvetica,sans-Serif" font-size="12.00">ItemDefinition.getName</text>
</a>
</g>
</g>
<!-- Node2&#45;&gt;Node11 -->
<g id="edge38_Node000002_Node000011" class="edge">
<title>Node2&#45;&gt;Node11</title>
<g id="a_edge38_Node000002_Node000011"><a xlink:title=" ">
<path fill="none" stroke="#63b8ff" d="M572.17,-602.65C587.48,-527.7 642.23,-310.86 779.11,-206.81 901.08,-114.09 1079.59,-92.65 1203.02,-90.34"/>
<polygon fill="#63b8ff" stroke="#63b8ff" points="1202.95,-93.84 1212.9,-90.2 1202.85,-86.84 1202.95,-93.84"/>
</a>
</g>
</g>
<!-- Node2&#45;&gt;Node19 -->
<g id="edge39_Node000002_Node000019" class="edge">
<title>Node2&#45;&gt;Node19</title>
<g id="a_edge39_Node000002_Node000019"><a xlink:title=" ">
<path fill="none" stroke="#63b8ff" d="M725.8,-640.22C846.99,-648.35 1018.28,-658.56 1168.66,-662.81 1324.79,-667.22 1363.97,-667.4 1520.09,-662.81 1664.37,-658.57 1828.08,-648.56 1947.2,-640.32"/>
<polygon fill="#63b8ff" stroke="#63b8ff" points="1947.34,-643.82 1957.07,-639.64 1946.86,-636.84 1947.34,-643.82"/>
</a>
</g>
</g>
<!-- Node23 -->
<g id="Node000023" class="node">
<title>Node23</title>
<g id="a_Node000023"><a xlink:href="classcom_1_1runehive_1_1game_1_1world_1_1entity_1_1mob_1_1player_1_1_interface_manager.html#ab004f0e8cea2bce0b57cd15b35ca0fbe" target="_top" xlink:title=" ">
<ellipse fill="white" stroke="#666666" cx="955.88" cy="-789.81" rx="175.72" ry="25.81"/>
<text xml:space="preserve" text-anchor="start" x="839.63" y="-792.66" font-family="Helvetica,sans-Serif" font-size="12.00">com.runehive.game.world.entity.mob.player.</text>
<text xml:space="preserve" text-anchor="middle" x="955.88" y="-778.41" font-family="Helvetica,sans-Serif" font-size="12.00">InterfaceManager.close</text>
</a>
</g>
</g>
<!-- Node2&#45;&gt;Node23 -->
<g id="edge27_Node000002_Node000023" class="edge">
<title>Node2&#45;&gt;Node23</title>
<g id="a_edge27_Node000002_Node000023"><a xlink:title=" ">
<path fill="none" stroke="#63b8ff" d="M601.77,-654.36C642.19,-683.11 712.21,-729.12 779.11,-754.81 792.65,-760.01 807.09,-764.48 821.65,-768.3"/>
<polygon fill="#63b8ff" stroke="#63b8ff" points="820.77,-771.69 831.32,-770.74 822.48,-764.9 820.77,-771.69"/>
</a>
</g>
</g>
<!-- Node26 -->
<g id="Node000026" class="node">
<title>Node26</title>
<g id="a_Node000026"><a xlink:href="classcom_1_1runehive_1_1game_1_1action_1_1_action_manager.html#a9c429bf1d7f162f6c7f8ff0aa4e44d7e" target="_top" xlink:title=" ">
<ellipse fill="white" stroke="#666666" cx="955.88" cy="-859.81" rx="112.61" ry="25.81"/>
<text xml:space="preserve" text-anchor="start" x="884.26" y="-862.66" font-family="Helvetica,sans-Serif" font-size="12.00">com.runehive.game.action.</text>
<text xml:space="preserve" text-anchor="middle" x="955.88" y="-848.41" font-family="Helvetica,sans-Serif" font-size="12.00">ActionManager.execute</text>
</a>
</g>
</g>
<!-- Node2&#45;&gt;Node26 -->
<g id="edge32_Node000002_Node000026" class="edge">
<title>Node2&#45;&gt;Node26</title>
<g id="a_edge32_Node000002_Node000026"><a xlink:title=" ">
<path fill="none" stroke="#63b8ff" d="M587.28,-654.92C621.52,-697.74 695.88,-782.36 779.11,-824.81 798.34,-834.62 820.07,-841.69 841.52,-846.77"/>
<polygon fill="#63b8ff" stroke="#63b8ff" points="840.7,-850.17 851.22,-848.92 842.22,-843.34 840.7,-850.17"/>
</a>
</g>
</g>
<!-- Node27 -->
<g id="Node000027" class="node">
<title>Node27</title>
<g id="a_Node000027"><a xlink:href="classcom_1_1runehive_1_1game_1_1world_1_1entity_1_1skill_1_1_skill_manager.html#a5ff60aaa9a37a00040b2c69073326d1e" target="_top" xlink:title="Gets the highest possible level of a skill.">
<ellipse fill="white" stroke="#666666" cx="955.88" cy="-701.81" rx="149.2" ry="25.81"/>
<text xml:space="preserve" text-anchor="start" x="858.38" y="-704.66" font-family="Helvetica,sans-Serif" font-size="12.00">com.runehive.game.world.entity.skill.</text>
<text xml:space="preserve" text-anchor="middle" x="955.88" y="-690.41" font-family="Helvetica,sans-Serif" font-size="12.00">SkillManager.getMaxLevel</text>
</a>
</g>
</g>
<!-- Node2&#45;&gt;Node27 -->
<g id="edge36_Node000002_Node000027" class="edge">
<title>Node2&#45;&gt;Node27</title>
<g id="a_edge36_Node000002_Node000027"><a xlink:title=" ">
<path fill="none" stroke="#63b8ff" d="M676.57,-649.39C728.41,-659.15 790.27,-670.8 842.5,-680.64"/>
<polygon fill="#63b8ff" stroke="#63b8ff" points="841.53,-684.02 852,-682.43 842.82,-677.14 841.53,-684.02"/>
</a>
</g>
</g>
<!-- Node4 -->
<g id="Node000004" class="node">
<title>Node4</title>
<g id="a_Node000004"><a xlink:href="classcom_1_1runehive_1_1game_1_1world_1_1items_1_1containers_1_1_item_container.html#a34ef6eb550fba45ee27cbd55cd1b1c26" target="_top" xlink:title="Attempts to deposit item into this container.">
<ellipse fill="white" stroke="#666666" cx="1730.22" cy="-255.81" rx="174.13" ry="25.81"/>
<text xml:space="preserve" text-anchor="start" x="1615.09" y="-258.66" font-family="Helvetica,sans-Serif" font-size="12.00">com.runehive.game.world.items.containers.</text>
<text xml:space="preserve" text-anchor="middle" x="1730.22" y="-244.41" font-family="Helvetica,sans-Serif" font-size="12.00">ItemContainer.add</text>
</a>
</g>
</g>
<!-- Node3&#45;&gt;Node4 -->
<g id="edge3_Node000003_Node000004" class="edge">
<title>Node3&#45;&gt;Node4</title>
<g id="a_edge3_Node000003_Node000004"><a xlink:title=" ">
<path fill="none" stroke="#63b8ff" d="M1049.51,-339.53C1078.25,-329.49 1108.65,-315.36 1132.66,-295.81 1155.9,-276.89 1142.42,-253.27 1168.66,-238.81 1238.92,-200.09 1450.99,-218.26 1593.2,-236.13"/>
<polygon fill="#63b8ff" stroke="#63b8ff" points="1592.73,-239.59 1603.09,-237.38 1593.61,-232.65 1592.73,-239.59"/>
</a>
</g>
</g>
<!-- Node5 -->
<g id="Node000005" class="node">
<title>Node5</title>
<g id="a_Node000005"><a xlink:href="classcom_1_1runehive_1_1game_1_1world_1_1entity_1_1skill_1_1_skill_manager.html#a0798415df467c8807c39126e28ca7493" target="_top" xlink:title="Adds experience to a given skill.">
<ellipse fill="white" stroke="#666666" cx="1344.38" cy="-361.81" rx="149.2" ry="25.81"/>
<text xml:space="preserve" text-anchor="start" x="1246.88" y="-364.66" font-family="Helvetica,sans-Serif" font-size="12.00">com.runehive.game.world.entity.skill.</text>
<text xml:space="preserve" text-anchor="middle" x="1344.38" y="-350.41" font-family="Helvetica,sans-Serif" font-size="12.00">SkillManager.addExperience</text>
</a>
</g>
</g>
<!-- Node3&#45;&gt;Node5 -->
<g id="edge5_Node000003_Node000005" class="edge">
<title>Node3&#45;&gt;Node5</title>
<g id="a_edge5_Node000003_Node000005"><a xlink:title=" ">
<path fill="none" stroke="#63b8ff" d="M1132.88,-361.81C1149.72,-361.81 1166.73,-361.81 1183.4,-361.81"/>
<polygon fill="#63b8ff" stroke="#63b8ff" points="1183.37,-365.31 1193.37,-361.81 1183.37,-358.31 1183.37,-365.31"/>
</a>
</g>
</g>
<!-- Node6 -->
<g id="Node000006" class="node">
<title>Node6</title>
<g id="a_Node000006"><a xlink:href="classcom_1_1runehive_1_1game_1_1world_1_1entity_1_1mob_1_1_mob.html#a763d4a9979297da0ff66b8f4b86fd5bc" target="_top" xlink:title=" ">
<ellipse fill="white" stroke="#666666" cx="1344.38" cy="-273.81" rx="150.79" ry="25.81"/>
<text xml:space="preserve" text-anchor="start" x="1245.75" y="-276.66" font-family="Helvetica,sans-Serif" font-size="12.00">com.runehive.game.world.entity.mob.</text>
<text xml:space="preserve" text-anchor="middle" x="1344.38" y="-262.41" font-family="Helvetica,sans-Serif" font-size="12.00">Mob.animate</text>
</a>
</g>
</g>
<!-- Node3&#45;&gt;Node6 -->
<g id="edge7_Node000003_Node000006" class="edge">
<title>Node3&#45;&gt;Node6</title>
<g id="a_edge7_Node000003_Node000006"><a xlink:title=" ">
<path fill="none" stroke="#63b8ff" d="M1052.92,-339.94C1110.15,-326.91 1182.77,-310.38 1241.07,-297.1"/>
<polygon fill="#63b8ff" stroke="#63b8ff" points="1241.71,-300.55 1250.68,-294.91 1240.16,-293.72 1241.71,-300.55"/>
</a>
</g>
</g>
<!-- Node3&#45;&gt;Node7 -->
<g id="edge9_Node000003_Node000007" class="edge">
<title>Node3&#45;&gt;Node7</title>
<g id="a_edge9_Node000003_Node000007"><a xlink:title=" ">
<path fill="none" stroke="#63b8ff" d="M973.44,-387.85C1005.16,-435.5 1079.38,-536.51 1168.66,-587.81 1181.47,-595.17 1195.54,-601.17 1209.96,-606.08"/>
<polygon fill="#63b8ff" stroke="#63b8ff" points="1208.47,-609.27 1219.06,-608.99 1210.61,-602.61 1208.47,-609.27"/>
</a>
</g>
</g>
<!-- Node3&#45;&gt;Node8 -->
<g id="edge10_Node000003_Node000008" class="edge">
<title>Node3&#45;&gt;Node8</title>
<g id="a_edge10_Node000003_Node000008"><a xlink:title=" ">
<path fill="none" stroke="#63b8ff" d="M967.11,-335.81C991.88,-276.5 1061.07,-130.94 1168.66,-60.81 1182.24,-51.96 1197.58,-45.26 1213.4,-40.21"/>
<polygon fill="#63b8ff" stroke="#63b8ff" points="1214.35,-43.58 1222.95,-37.4 1212.37,-36.86 1214.35,-43.58"/>
</a>
</g>
</g>
<!-- Node3&#45;&gt;Node10 -->
<g id="edge12_Node000003_Node000010" class="edge">
<title>Node3&#45;&gt;Node10</title>
<g id="a_edge12_Node000003_Node000010"><a xlink:title=" ">
<path fill="none" stroke="#63b8ff" d="M1056.77,-340.27C1084.06,-330.42 1111.81,-316.22 1132.66,-295.81 1163.45,-265.67 1135.92,-233.82 1168.66,-205.81 1184.97,-191.86 1205.17,-182.52 1225.99,-176.32"/>
<polygon fill="#63b8ff" stroke="#63b8ff" points="1226.72,-179.75 1235.45,-173.76 1224.89,-172.99 1226.72,-179.75"/>
</a>
</g>
</g>
<!-- Node3&#45;&gt;Node11 -->
<g id="edge13_Node000003_Node000011" class="edge">
<title>Node3&#45;&gt;Node11</title>
<g id="a_edge13_Node000003_Node000011"><a xlink:title=" ">
<path fill="none" stroke="#63b8ff" d="M993.83,-336.28C1032.42,-308.15 1092.78,-259.8 1132.66,-206.81 1155.14,-176.95 1139.2,-153.82 1168.66,-130.81 1180.82,-121.31 1194.88,-114.18 1209.63,-108.87"/>
<polygon fill="#63b8ff" stroke="#63b8ff" points="1210.63,-112.22 1219.04,-105.78 1208.45,-105.57 1210.63,-112.22"/>
</a>
</g>
</g>
<!-- Node12 -->
<g id="Node000012" class="node">
<title>Node12</title>
<g id="a_Node000012"><a xlink:href="classcom_1_1runehive_1_1game_1_1world_1_1items_1_1containers_1_1_item_container.html#a2326fe5cc05022e98fbb7a1d85b45ce6" target="_top" xlink:title="Attempts to withdraw item from this container.">
<ellipse fill="white" stroke="#666666" cx="1344.38" cy="-519.81" rx="174.13" ry="25.81"/>
<text xml:space="preserve" text-anchor="start" x="1229.25" y="-522.66" font-family="Helvetica,sans-Serif" font-size="12.00">com.runehive.game.world.items.containers.</text>
<text xml:space="preserve" text-anchor="middle" x="1344.38" y="-508.41" font-family="Helvetica,sans-Serif" font-size="12.00">ItemContainer.remove</text>
</a>
</g>
</g>
<!-- Node3&#45;&gt;Node12 -->
<g id="edge14_Node000003_Node000012" class="edge">
<title>Node3&#45;&gt;Node12</title>
<g id="a_edge14_Node000003_Node000012"><a xlink:title=" ">
<path fill="none" stroke="#63b8ff" d="M992.53,-387.46C1033.2,-415.52 1102.65,-459.82 1168.66,-484.81 1182.4,-490.01 1197.05,-494.49 1211.8,-498.33"/>
<polygon fill="#63b8ff" stroke="#63b8ff" points="1210.53,-501.62 1221.08,-500.64 1212.23,-494.82 1210.53,-501.62"/>
</a>
</g>
</g>
<!-- Node13 -->
<g id="Node000013" class="node">
<title>Node13</title>
<g id="a_Node000013"><a xlink:href="classcom_1_1runehive_1_1game_1_1world_1_1items_1_1containers_1_1_item_container.html#a375f23b77a8dfc92691efeebb54cb379" target="_top" xlink:title="Replaces the first occurrence of the Item having the identifier oldId with newId.">
<ellipse fill="white" stroke="#666666" cx="1344.38" cy="-449.81" rx="174.13" ry="25.81"/>
<text xml:space="preserve" text-anchor="start" x="1229.25" y="-452.66" font-family="Helvetica,sans-Serif" font-size="12.00">com.runehive.game.world.items.containers.</text>
<text xml:space="preserve" text-anchor="middle" x="1344.38" y="-438.41" font-family="Helvetica,sans-Serif" font-size="12.00">ItemContainer.replace</text>
</a>
</g>
</g>
<!-- Node3&#45;&gt;Node13 -->
<g id="edge15_Node000003_Node000013" class="edge">
<title>Node3&#45;&gt;Node13</title>
<g id="a_edge15_Node000003_Node000013"><a xlink:title=" ">
<path fill="none" stroke="#63b8ff" d="M1043.98,-384.6C1082.15,-394.33 1127.53,-405.55 1168.66,-414.81 1186.95,-418.93 1206.37,-423.06 1225.37,-426.96"/>
<polygon fill="#63b8ff" stroke="#63b8ff" points="1224.51,-430.36 1235.01,-428.93 1225.91,-423.5 1224.51,-430.36"/>
</a>
</g>
</g>
<!-- Node3&#45;&gt;Node19 -->
<g id="edge26_Node000003_Node000019" class="edge">
<title>Node3&#45;&gt;Node19</title>
<g id="a_edge26_Node000003_Node000019"><a xlink:title=" ">
<path fill="none" stroke="#63b8ff" d="M975.87,-387.92C1009.24,-431.47 1083.05,-517.8 1168.66,-554.81 1203.47,-569.86 1677.68,-601.02 1941.29,-617.33"/>
<polygon fill="#63b8ff" stroke="#63b8ff" points="1940.81,-620.81 1951.01,-617.93 1941.24,-613.82 1940.81,-620.81"/>
</a>
</g>
</g>
<!-- Node4&#45;&gt;Node4 -->
<g id="edge4_Node000004_Node000004" class="edge">
<title>Node4&#45;&gt;Node4</title>
<g id="a_edge4_Node000004_Node000004"><a xlink:title=" ">
<path fill="none" stroke="#63b8ff" d="M1659,-279.69C1652.22,-290.38 1675.96,-299.62 1730.22,-299.62 1765.4,-299.62 1787.75,-295.73 1797.27,-290.09"/>
<polygon fill="#63b8ff" stroke="#63b8ff" points="1800.4,-291.68 1800.87,-281.1 1793.9,-289.08 1800.4,-291.68"/>
</a>
</g>
</g>
<!-- Node5&#45;&gt;Node5 -->
<g id="edge6_Node000005_Node000005" class="edge">
<title>Node5&#45;&gt;Node5</title>
<g id="a_edge6_Node000005_Node000005"><a xlink:title=" ">
<path fill="none" stroke="#63b8ff" d="M1273.8,-384.8C1265.08,-395.86 1288.61,-405.62 1344.38,-405.62 1380.1,-405.62 1402.6,-401.61 1411.86,-395.83"/>
<polygon fill="#63b8ff" stroke="#63b8ff" points="1415.21,-396.83 1414.55,-386.26 1408.47,-394.94 1415.21,-396.83"/>
</a>
</g>
</g>
<!-- Node6&#45;&gt;Node6 -->
<g id="edge8_Node000006_Node000006" class="edge">
<title>Node6&#45;&gt;Node6</title>
<g id="a_edge8_Node000006_Node000006"><a xlink:title=" ">
<path fill="none" stroke="#63b8ff" d="M1273.8,-296.8C1265.08,-307.86 1288.61,-317.62 1344.38,-317.62 1380.1,-317.62 1402.6,-313.61 1411.86,-307.83"/>
<polygon fill="#63b8ff" stroke="#63b8ff" points="1415.21,-308.83 1414.55,-298.26 1408.47,-306.94 1415.21,-308.83"/>
</a>
</g>
</g>
<!-- Node9 -->
<g id="Node000009" class="node">
<title>Node9</title>
<g id="a_Node000009"><a xlink:href="classcom_1_1runehive_1_1game_1_1world_1_1items_1_1_item_definition.html#a4fafaf641c0490165d697a73006e76bf" target="_top" xlink:title=" ">
<ellipse fill="white" stroke="#666666" cx="1730.22" cy="-25.81" rx="132.76" ry="25.81"/>
<text xml:space="preserve" text-anchor="start" x="1644.34" y="-28.66" font-family="Helvetica,sans-Serif" font-size="12.00">com.runehive.game.world.items.</text>
<text xml:space="preserve" text-anchor="middle" x="1730.22" y="-14.41" font-family="Helvetica,sans-Serif" font-size="12.00">ItemDefinition.ItemDefinition</text>
</a>
</g>
</g>
<!-- Node8&#45;&gt;Node9 -->
<g id="edge11_Node000008_Node000009" class="edge">
<title>Node8&#45;&gt;Node9</title>
<g id="a_edge11_Node000008_Node000009"><a xlink:title=" ">
<path fill="none" stroke="#63b8ff" d="M1477.47,-25.81C1512.4,-25.81 1550.27,-25.81 1585.77,-25.81"/>
<polygon fill="#63b8ff" stroke="#63b8ff" points="1585.69,-29.31 1595.69,-25.81 1585.69,-22.31 1585.69,-29.31"/>
</a>
</g>
</g>
<!-- Node13&#45;&gt;Node4 -->
<g id="edge16_Node000013_Node000004" class="edge">
<title>Node13&#45;&gt;Node4</title>
<g id="a_edge16_Node000013_Node000004"><a xlink:title=" ">
<path fill="none" stroke="#63b8ff" d="M1484.47,-434.26C1497.22,-429.28 1509.35,-422.92 1520.09,-414.81 1548.01,-393.73 1531.35,-369.55 1556.09,-344.81 1582.19,-318.72 1617.51,-298.7 1649.45,-284.31"/>
<polygon fill="#63b8ff" stroke="#63b8ff" points="1650.54,-287.65 1658.3,-280.44 1647.73,-281.24 1650.54,-287.65"/>
</a>
</g>
</g>
<!-- Node14 -->
<g id="Node000014" class="node">
<title>Node14</title>
<g id="a_Node000014"><a xlink:href="classcom_1_1runehive_1_1game_1_1world_1_1items_1_1_item.html#a466a2347ee745faf393c565e2bddb9c4" target="_top" xlink:title="Creates a new item with newId and the same amount as this instance.">
<ellipse fill="white" stroke="#666666" cx="1730.22" cy="-379.81" rx="132.76" ry="25.81"/>
<text xml:space="preserve" text-anchor="start" x="1644.34" y="-382.66" font-family="Helvetica,sans-Serif" font-size="12.00">com.runehive.game.world.items.</text>
<text xml:space="preserve" text-anchor="middle" x="1730.22" y="-368.41" font-family="Helvetica,sans-Serif" font-size="12.00">Item.createWithId</text>
</a>
</g>
</g>
<!-- Node13&#45;&gt;Node14 -->
<g id="edge17_Node000013_Node000014" class="edge">
<title>Node13&#45;&gt;Node14</title>
<g id="a_edge17_Node000013_Node000014"><a xlink:title=" ">
<path fill="none" stroke="#63b8ff" d="M1456.14,-429.61C1507.92,-420.17 1569.37,-408.96 1620.85,-399.57"/>
<polygon fill="#63b8ff" stroke="#63b8ff" points="1621.31,-403.05 1630.52,-397.81 1620.06,-396.16 1621.31,-403.05"/>
</a>
</g>
</g>
<!-- Node16 -->
<g id="Node000016" class="node">
<title>Node16</title>
<g id="a_Node000016"><a xlink:href="classcom_1_1runehive_1_1game_1_1world_1_1items_1_1_item.html#aed46f979e5ded1097f16490033764dae" target="_top" xlink:title=" ">
<ellipse fill="white" stroke="#666666" cx="1730.22" cy="-519.81" rx="132.76" ry="25.81"/>
<text xml:space="preserve" text-anchor="start" x="1644.34" y="-522.66" font-family="Helvetica,sans-Serif" font-size="12.00">com.runehive.game.world.items.</text>
<text xml:space="preserve" text-anchor="middle" x="1730.22" y="-508.41" font-family="Helvetica,sans-Serif" font-size="12.00">Item.matchesId</text>
</a>
</g>
</g>
<!-- Node13&#45;&gt;Node16 -->
<g id="edge19_Node000013_Node000016" class="edge">
<title>Node13&#45;&gt;Node16</title>
<g id="a_edge19_Node000013_Node000016"><a xlink:title=" ">
<path fill="none" stroke="#63b8ff" d="M1456.14,-470.01C1507.92,-479.45 1569.37,-490.66 1620.85,-500.05"/>
<polygon fill="#63b8ff" stroke="#63b8ff" points="1620.06,-503.46 1630.52,-501.81 1621.31,-496.57 1620.06,-503.46"/>
</a>
</g>
</g>
<!-- Node17 -->
<g id="Node000017" class="node">
<title>Node17</title>
<g id="a_Node000017"><a xlink:href="classcom_1_1runehive_1_1game_1_1world_1_1items_1_1containers_1_1_item_container.html#a4899400c5ba0bee804983583e79670b8" target="_top" xlink:title="Sends the items on the itemcontainer.">
<ellipse fill="white" stroke="#666666" cx="1730.22" cy="-449.81" rx="174.13" ry="25.81"/>
<text xml:space="preserve" text-anchor="start" x="1615.09" y="-452.66" font-family="Helvetica,sans-Serif" font-size="12.00">com.runehive.game.world.items.containers.</text>
<text xml:space="preserve" text-anchor="middle" x="1730.22" y="-438.41" font-family="Helvetica,sans-Serif" font-size="12.00">ItemContainer.refresh</text>
</a>
</g>
</g>
<!-- Node13&#45;&gt;Node17 -->
<g id="edge20_Node000013_Node000017" class="edge">
<title>Node13&#45;&gt;Node17</title>
<g id="a_edge20_Node000013_Node000017"><a xlink:title=" ">
<path fill="none" stroke="#63b8ff" d="M1518.77,-449.81C1527.33,-449.81 1535.95,-449.81 1544.54,-449.81"/>
<polygon fill="#63b8ff" stroke="#63b8ff" points="1544.31,-453.31 1554.31,-449.81 1544.31,-446.31 1544.31,-453.31"/>
</a>
</g>
</g>
<!-- Node15 -->
<g id="Node000015" class="node">
<title>Node15</title>
<g id="a_Node000015"><a xlink:href="classcom_1_1runehive_1_1game_1_1world_1_1items_1_1_item.html#afe3613653df532fc7418d767a450125d" target="_top" xlink:title="Creates a new Item.">
<ellipse fill="white" stroke="#666666" cx="2116.06" cy="-379.81" rx="132.76" ry="25.81"/>
<text xml:space="preserve" text-anchor="start" x="2030.18" y="-382.66" font-family="Helvetica,sans-Serif" font-size="12.00">com.runehive.game.world.items.</text>
<text xml:space="preserve" text-anchor="middle" x="2116.06" y="-368.41" font-family="Helvetica,sans-Serif" font-size="12.00">Item.Item</text>
</a>
</g>
</g>
<!-- Node14&#45;&gt;Node15 -->
<g id="edge18_Node000014_Node000015" class="edge">
<title>Node14&#45;&gt;Node15</title>
<g id="a_edge18_Node000014_Node000015"><a xlink:title=" ">
<path fill="none" stroke="#63b8ff" d="M1863.31,-379.81C1898.24,-379.81 1936.11,-379.81 1971.61,-379.81"/>
<polygon fill="#63b8ff" stroke="#63b8ff" points="1971.53,-383.31 1981.53,-379.81 1971.53,-376.31 1971.53,-383.31"/>
</a>
</g>
</g>
<!-- Node18 -->
<g id="Node000018" class="node">
<title>Node18</title>
<g id="a_Node000018"><a xlink:href="classcom_1_1runehive_1_1game_1_1world_1_1items_1_1containers_1_1_item_container.html#ab9069429d55affc97a5bedabb9a0e5c0" target="_top" xlink:title="Any functionality that should occur when refreshed.">
<ellipse fill="white" stroke="#666666" cx="2116.06" cy="-449.81" rx="174.13" ry="25.81"/>
<text xml:space="preserve" text-anchor="start" x="2000.93" y="-452.66" font-family="Helvetica,sans-Serif" font-size="12.00">com.runehive.game.world.items.containers.</text>
<text xml:space="preserve" text-anchor="middle" x="2116.06" y="-438.41" font-family="Helvetica,sans-Serif" font-size="12.00">ItemContainer.onRefresh</text>
</a>
</g>
</g>
<!-- Node17&#45;&gt;Node18 -->
<g id="edge21_Node000017_Node000018" class="edge">
<title>Node17&#45;&gt;Node18</title>
<g id="a_edge21_Node000017_Node000018"><a xlink:title=" ">
<path fill="none" stroke="#63b8ff" d="M1904.61,-449.81C1913.17,-449.81 1921.79,-449.81 1930.38,-449.81"/>
<polygon fill="#63b8ff" stroke="#63b8ff" points="1930.15,-453.31 1940.15,-449.81 1930.15,-446.31 1930.15,-453.31"/>
</a>
</g>
</g>
<!-- Node17&#45;&gt;Node19 -->
<g id="edge22_Node000017_Node000019" class="edge">
<title>Node17&#45;&gt;Node19</title>
<g id="a_edge22_Node000017_Node000019"><a xlink:title=" ">
<path fill="none" stroke="#63b8ff" d="M1854.13,-468.34C1871.32,-472.74 1888.51,-478.16 1904.34,-484.81 1970.09,-512.44 2036.64,-562.02 2076.88,-594.92"/>
<polygon fill="#63b8ff" stroke="#63b8ff" points="2074.44,-597.45 2084.38,-601.12 2078.9,-592.05 2074.44,-597.45"/>
</a>
</g>
</g>
<!-- Node20 -->
<g id="Node000020" class="node">
<title>Node20</title>
<g id="a_Node000020"><a xlink:href="classcom_1_1runehive_1_1net_1_1packet_1_1_outgoing_packet.html#a3dde4d77b8c8bbd686b8e121fd6514a7" target="_top" xlink:title=" ">
<ellipse fill="white" stroke="#666666" cx="2432.96" cy="-627.81" rx="105.18" ry="25.81"/>
<text xml:space="preserve" text-anchor="start" x="2366.58" y="-630.66" font-family="Helvetica,sans-Serif" font-size="12.00">com.runehive.net.packet.</text>
<text xml:space="preserve" text-anchor="middle" x="2432.96" y="-616.41" font-family="Helvetica,sans-Serif" font-size="12.00">OutgoingPacket.execute</text>
</a>
</g>
</g>
<!-- Node19&#45;&gt;Node20 -->
<g id="edge23_Node000019_Node000020" class="edge">
<title>Node19&#45;&gt;Node20</title>
<g id="a_edge23_Node000019_Node000020"><a xlink:title=" ">
<path fill="none" stroke="#63b8ff" d="M2292,-627.81C2300.09,-627.81 2308.11,-627.81 2315.98,-627.81"/>
<polygon fill="#63b8ff" stroke="#63b8ff" points="2315.89,-631.31 2325.89,-627.81 2315.89,-624.31 2315.89,-631.31"/>
</a>
</g>
</g>
<!-- Node21 -->
<g id="Node000021" class="node">
<title>Node21</title>
<g id="a_Node000021"><a xlink:href="classcom_1_1runehive_1_1net_1_1packet_1_1_outgoing_packet.html#a74fc13c106ab76f87daec1e8bab6a2a1" target="_top" xlink:title=" ">
<ellipse fill="white" stroke="#666666" cx="2749.85" cy="-662.81" rx="105.18" ry="25.81"/>
<text xml:space="preserve" text-anchor="start" x="2683.48" y="-665.66" font-family="Helvetica,sans-Serif" font-size="12.00">com.runehive.net.packet.</text>
<text xml:space="preserve" text-anchor="middle" x="2749.85" y="-651.41" font-family="Helvetica,sans-Serif" font-size="12.00">OutgoingPacket.encode</text>
</a>
</g>
</g>
<!-- Node20&#45;&gt;Node21 -->
<g id="edge24_Node000020_Node000021" class="edge">
<title>Node20&#45;&gt;Node21</title>
<g id="a_edge24_Node000020_Node000021"><a xlink:title=" ">
<path fill="none" stroke="#63b8ff" d="M2529.29,-638.41C2564.89,-642.36 2605.53,-646.88 2642.1,-650.94"/>
<polygon fill="#63b8ff" stroke="#63b8ff" points="2641.47,-654.4 2651.8,-652.02 2642.24,-647.44 2641.47,-654.4"/>
</a>
</g>
</g>
<!-- Node22 -->
<g id="Node000022" class="node">
<title>Node22</title>
<g id="a_Node000022"><a xlink:href="classcom_1_1runehive_1_1game_1_1world_1_1entity_1_1mob_1_1player_1_1_player.html#a908fb61974719a74180d6300b838bfe1" target="_top" xlink:title=" ">
<ellipse fill="white" stroke="#666666" cx="2749.85" cy="-592.81" rx="175.72" ry="25.81"/>
<text xml:space="preserve" text-anchor="start" x="2633.6" y="-595.66" font-family="Helvetica,sans-Serif" font-size="12.00">com.runehive.game.world.entity.mob.player.</text>
<text xml:space="preserve" text-anchor="middle" x="2749.85" y="-581.41" font-family="Helvetica,sans-Serif" font-size="12.00">Player.getSession</text>
</a>
</g>
</g>
<!-- Node20&#45;&gt;Node22 -->
<g id="edge25_Node000020_Node000022" class="edge">
<title>Node20&#45;&gt;Node22</title>
<g id="a_edge25_Node000020_Node000022"><a xlink:title=" ">
<path fill="none" stroke="#63b8ff" d="M2529.29,-617.21C2550.68,-614.84 2573.89,-612.26 2596.95,-609.69"/>
<polygon fill="#63b8ff" stroke="#63b8ff" points="2597.19,-613.19 2606.74,-608.61 2596.41,-606.23 2597.19,-613.19"/>
</a>
</g>
</g>
<!-- Node24 -->
<g id="Node000024" class="node">
<title>Node24</title>
<g id="a_Node000024"><a xlink:href="classcom_1_1runehive_1_1game_1_1world_1_1entity_1_1mob_1_1player_1_1_interface_manager.html#a65d407a9697f338303700d4eca5cc7dc" target="_top" xlink:title="Clears the player&#39;s screen.">
<ellipse fill="white" stroke="#666666" cx="1344.38" cy="-841.81" rx="175.72" ry="25.81"/>
<text xml:space="preserve" text-anchor="start" x="1228.13" y="-844.66" font-family="Helvetica,sans-Serif" font-size="12.00">com.runehive.game.world.entity.mob.player.</text>
<text xml:space="preserve" text-anchor="middle" x="1344.38" y="-830.41" font-family="Helvetica,sans-Serif" font-size="12.00">InterfaceManager.close</text>
</a>
</g>
</g>
<!-- Node23&#45;&gt;Node24 -->
<g id="edge28_Node000023_Node000024" class="edge">
<title>Node23&#45;&gt;Node24</title>
<g id="a_edge28_Node000023_Node000024"><a xlink:title=" ">
<path fill="none" stroke="#63b8ff" d="M1087.19,-807.34C1124.19,-812.32 1164.65,-817.76 1202.26,-822.82"/>
<polygon fill="#63b8ff" stroke="#63b8ff" points="1201.43,-826.24 1211.8,-824.11 1202.36,-819.3 1201.43,-826.24"/>
</a>
</g>
</g>
<!-- Node25 -->
<g id="Node000025" class="node">
<title>Node25</title>
<g id="a_Node000025"><a xlink:href="classcom_1_1runehive_1_1game_1_1world_1_1entity_1_1mob_1_1player_1_1_interface_manager.html#abeef1b9c5738fda1822c862657bb1383" target="_top" xlink:title="Checks if a certain interface is enter.">
<ellipse fill="white" stroke="#666666" cx="1344.38" cy="-771.81" rx="175.72" ry="25.81"/>
<text xml:space="preserve" text-anchor="start" x="1228.13" y="-774.66" font-family="Helvetica,sans-Serif" font-size="12.00">com.runehive.game.world.entity.mob.player.</text>
<text xml:space="preserve" text-anchor="middle" x="1344.38" y="-760.41" font-family="Helvetica,sans-Serif" font-size="12.00">InterfaceManager.isInterfaceOpen</text>
</a>
</g>
</g>
<!-- Node23&#45;&gt;Node25 -->
<g id="edge30_Node000023_Node000025" class="edge">
<title>Node23&#45;&gt;Node25</title>
<g id="a_edge30_Node000023_Node000025"><a xlink:title=" ">
<path fill="none" stroke="#63b8ff" d="M1124.16,-782.02C1137.62,-781.39 1151.26,-780.76 1164.81,-780.13"/>
<polygon fill="#63b8ff" stroke="#63b8ff" points="1164.82,-783.63 1174.64,-779.67 1164.49,-776.64 1164.82,-783.63"/>
</a>
</g>
</g>
<!-- Node24&#45;&gt;Node24 -->
<g id="edge29_Node000024_Node000024" class="edge">
<title>Node24&#45;&gt;Node24</title>
<g id="a_edge29_Node000024_Node000024"><a xlink:title=" ">
<path fill="none" stroke="#63b8ff" d="M1273.16,-865.69C1266.38,-876.38 1290.12,-885.62 1344.38,-885.62 1379.56,-885.62 1401.91,-881.73 1411.43,-876.09"/>
<polygon fill="#63b8ff" stroke="#63b8ff" points="1414.56,-877.68 1415.03,-867.1 1408.06,-875.08 1414.56,-877.68"/>
</a>
</g>
</g>
<!-- Node26&#45;&gt;Node26 -->
<g id="edge33_Node000026_Node000026" class="edge">
<title>Node26&#45;&gt;Node26</title>
<g id="a_edge33_Node000026_Node000026"><a xlink:title=" ">
<path fill="none" stroke="#63b8ff" d="M887.04,-880.54C872.99,-892.49 895.94,-903.62 955.88,-903.62 995.69,-903.62 1019.18,-898.71 1026.36,-891.92"/>
<polygon fill="#63b8ff" stroke="#63b8ff" points="1029.83,-891.44 1024.94,-882.04 1022.9,-892.44 1029.83,-891.44"/>
</a>
</g>
</g>
<!-- Node27&#45;&gt;Node27 -->
<g id="edge37_Node000027_Node000027" class="edge">
<title>Node27&#45;&gt;Node27</title>
<g id="a_edge37_Node000027_Node000027"><a xlink:title=" ">
<path fill="none" stroke="#63b8ff" d="M884.82,-724.8C876.05,-735.86 899.73,-745.62 955.88,-745.62 991.85,-745.62 1014.5,-741.61 1023.83,-735.83"/>
<polygon fill="#63b8ff" stroke="#63b8ff" points="1027.18,-736.83 1026.54,-726.26 1020.45,-734.93 1027.18,-736.83"/>
</a>
</g>
</g>
</g>
</svg>

<g id="navigator" transform="translate(0 0)" fill="#404254">
  <rect fill="#f2f5e9" fill-opacity="0.5" stroke="#606060" stroke-width=".5" x="0" y="0" width="60" height="60"/>
  <use id="zoomplus" xlink:href="#zoomPlus" x="17" y="9" onmousedown="handleZoom(evt,'in')"/>
  <use id="zoomminus" xlink:href="#zoomMin" x="42" y="9" onmousedown="handleZoom(evt,'out')"/>
  <use id="reset" xlink:href="#resetDef" x="30" y="36" onmousedown="handleReset()"/>
   <use id="arrowup" xlink:href="#arrowUp" x="0" y="0" onmousedown="handlePan(0,-1)"/>
  <use id="arrowright" xlink:href="#arrowRight" x="0" y="0" onmousedown="handlePan(1,0)"/>
  <use id="arrowdown" xlink:href="#arrowDown" x="0" y="0" onmousedown="handlePan(0,1)"/>
  <use id="arrowleft" xlink:href="#arrowLeft" x="0" y="0" onmousedown="handlePan(-1,0)"/>
</g>
<svg viewBox="0 0 15 15" width="100%" height="30px" preserveAspectRatio="xMaxYMin meet">
 <g id="arrow_out" transform="scale(0.3 0.3)">
  <a xlink:href="classcom_1_1runehive_1_1content_1_1skill_1_1impl_1_1crafting_1_1impl_1_1_glass_a1b06f902134c71f96a7e8ed309f59637_cgraph_org.svg" target="_base">
   <rect id="button" ry="5" rx="5" y="6" x="6" height="38" width="38"
        fill="#f2f5e9" fill-opacity="0.5" stroke="#606060" stroke-width="1.0"/>
   <path id="arrow"
     d="M 11.500037,31.436501 C 11.940474,20.09759 22.043105,11.32322 32.158766,21.979434 L 37.068811,17.246167 C 37.068811,17.246167 37.088388,32 37.088388,32 L 22.160133,31.978069 C 22.160133,31.978069 26.997745,27.140456 26.997745,27.140456 C 18.528582,18.264221 13.291696,25.230495 11.500037,31.436501 z"
     style="fill:#404040;"/>
  </a>
 </g>
</svg>

<style type='text/css'>
<![CDATA[
[data-mouse-over-selected='false'] { opacity: 0.7; }
[data-mouse-over-selected='true']  { opacity: 1.0; }
]]>
</style>
<script type="application/ecmascript"><![CDATA[
document.addEventListener('DOMContentLoaded', (event) => {
  highlightEdges();
  highlightAdjacentNodes();
});
]]></script>
</svg>
