<?xml version="1.0" encoding="UTF-8" standalone="no"?>
<!DOCTYPE svg PUBLIC "-//W3C//DTD SVG 1.1//EN"
 "http://www.w3.org/Graphics/SVG/1.1/DTD/svg11.dtd">
<!-- Generated by graphviz version 14.0.1 (20251006.0113)
 -->
<!-- Title: com.runehive.util.tools.DropDefinitionDumper.main Pages: 1 -->
<svg width="2166pt" height="596pt"
 viewBox="0.00 0.00 2166.00 596.00" xmlns="http://www.w3.org/2000/svg" xmlns:xlink="http://www.w3.org/1999/xlink">
<g id="graph0" class="graph" transform="scale(1 1) rotate(0) translate(4 591.62)">
<title>com.runehive.util.tools.DropDefinitionDumper.main</title>
<!-- Node1 -->
<g id="Node000001" class="node">
<title>Node1</title>
<g id="a_Node000001"><a xlink:title=" ">
<ellipse fill="#999999" stroke="#666666" cx="116.32" cy="-235.81" rx="116.32" ry="25.81"/>
<text xml:space="preserve" text-anchor="start" x="42.07" y="-238.66" font-family="Helvetica,sans-Serif" font-size="12.00">com.runehive.util.tools.</text>
<text xml:space="preserve" text-anchor="middle" x="116.32" y="-224.41" font-family="Helvetica,sans-Serif" font-size="12.00">DropDefinitionDumper.main</text>
</a>
</g>
</g>
<!-- Node2 -->
<g id="Node000002" class="node">
<title>Node2</title>
<g id="a_Node000002"><a xlink:href="classcom_1_1runehive_1_1game_1_1world_1_1entity_1_1mob_1_1npc_1_1definition_1_1_npc_definition.html#ae1cb9a5125945cf71e7244336fd17c97" target="_top" xlink:title=" ">
<ellipse fill="white" stroke="#666666" cx="471.93" cy="-340.81" rx="203.29" ry="25.81"/>
<text xml:space="preserve" text-anchor="start" x="336.18" y="-343.66" font-family="Helvetica,sans-Serif" font-size="12.00">com.runehive.game.world.entity.mob.npc.definition.</text>
<text xml:space="preserve" text-anchor="middle" x="471.93" y="-329.41" font-family="Helvetica,sans-Serif" font-size="12.00">NpcDefinition.createParser</text>
</a>
</g>
</g>
<!-- Node1&#45;&gt;Node2 -->
<g id="edge1_Node000001_Node000002" class="edge">
<title>Node1&#45;&gt;Node2</title>
<g id="a_edge1_Node000001_Node000002"><a xlink:title=" ">
<path fill="none" stroke="#63b8ff" d="M161.45,-259.98C191,-275.21 231.2,-294.13 268.64,-305.81 285.33,-311.02 303.06,-315.51 320.81,-319.38"/>
<polygon fill="#63b8ff" stroke="#63b8ff" points="319.87,-322.76 330.37,-321.4 321.31,-315.91 319.87,-322.76"/>
</a>
</g>
</g>
<!-- Node19 -->
<g id="Node000019" class="node">
<title>Node19</title>
<g id="a_Node000019"><a xlink:href="classcom_1_1runehive_1_1game_1_1world_1_1entity_1_1mob_1_1npc_1_1definition_1_1_npc_definition.html#a7cdc2c2ca540d6cdfc409ad4e577b3f3" target="_top" xlink:title="Gets a npc definition from the definition array.">
<ellipse fill="white" stroke="#666666" cx="471.93" cy="-270.81" rx="203.29" ry="25.81"/>
<text xml:space="preserve" text-anchor="start" x="336.18" y="-273.66" font-family="Helvetica,sans-Serif" font-size="12.00">com.runehive.game.world.entity.mob.npc.definition.</text>
<text xml:space="preserve" text-anchor="middle" x="471.93" y="-259.41" font-family="Helvetica,sans-Serif" font-size="12.00">NpcDefinition.get</text>
</a>
</g>
</g>
<!-- Node1&#45;&gt;Node19 -->
<g id="edge22_Node000001_Node000019" class="edge">
<title>Node1&#45;&gt;Node19</title>
<g id="a_edge22_Node000001_Node000019"><a xlink:title=" ">
<path fill="none" stroke="#63b8ff" d="M223.41,-246.31C247.16,-248.66 272.94,-251.21 298.6,-253.75"/>
<polygon fill="#63b8ff" stroke="#63b8ff" points="298.18,-257.23 308.47,-254.73 298.86,-250.26 298.18,-257.23"/>
</a>
</g>
</g>
<!-- Node20 -->
<g id="Node000020" class="node">
<title>Node20</title>
<g id="a_Node000020"><a xlink:href="classcom_1_1runehive_1_1game_1_1world_1_1entity_1_1mob_1_1npc_1_1definition_1_1_npc_definition.html#a22d4cdad378ec059ca33d1a68c9e5bc6" target="_top" xlink:title=" ">
<ellipse fill="white" stroke="#666666" cx="471.93" cy="-200.81" rx="203.29" ry="25.81"/>
<text xml:space="preserve" text-anchor="start" x="336.18" y="-203.66" font-family="Helvetica,sans-Serif" font-size="12.00">com.runehive.game.world.entity.mob.npc.definition.</text>
<text xml:space="preserve" text-anchor="middle" x="471.93" y="-189.41" font-family="Helvetica,sans-Serif" font-size="12.00">NpcDefinition.getName</text>
</a>
</g>
</g>
<!-- Node1&#45;&gt;Node20 -->
<g id="edge24_Node000001_Node000020" class="edge">
<title>Node1&#45;&gt;Node20</title>
<g id="a_edge24_Node000001_Node000020"><a xlink:title=" ">
<path fill="none" stroke="#63b8ff" d="M223.41,-225.31C247.16,-222.96 272.94,-220.41 298.6,-217.87"/>
<polygon fill="#63b8ff" stroke="#63b8ff" points="298.86,-221.36 308.47,-216.89 298.18,-214.39 298.86,-221.36"/>
</a>
</g>
</g>
<!-- Node21 -->
<g id="Node000021" class="node">
<title>Node21</title>
<g id="a_Node000021"><a xlink:href="classcom_1_1runehive_1_1util_1_1parser_1_1_generic_parser.html#aa6a9511d6da24161b14e71c625ba7370" target="_top" xlink:title=" ">
<ellipse fill="white" stroke="#666666" cx="471.93" cy="-130.81" rx="103.06" ry="25.81"/>
<text xml:space="preserve" text-anchor="start" x="407.06" y="-133.66" font-family="Helvetica,sans-Serif" font-size="12.00">com.runehive.util.parser.</text>
<text xml:space="preserve" text-anchor="middle" x="471.93" y="-119.41" font-family="Helvetica,sans-Serif" font-size="12.00">GenericParser.run</text>
</a>
</g>
</g>
<!-- Node1&#45;&gt;Node21 -->
<g id="edge25_Node000001_Node000021" class="edge">
<title>Node1&#45;&gt;Node21</title>
<g id="a_edge25_Node000001_Node000021"><a xlink:title=" ">
<path fill="none" stroke="#63b8ff" d="M161.45,-211.64C191,-196.41 231.2,-177.49 268.64,-165.81 299.91,-156.06 334.81,-148.79 366.69,-143.49"/>
<polygon fill="#63b8ff" stroke="#63b8ff" points="367.02,-146.99 376.34,-141.94 365.91,-140.07 367.02,-146.99"/>
</a>
</g>
</g>
<!-- Node3 -->
<g id="Node000003" class="node">
<title>Node3</title>
<g id="a_Node000003"><a xlink:href="classcom_1_1runehive_1_1fs_1_1cache_1_1decoder_1_1_cache_npc_definition.html#a21444151f4881d3ad0e85eb7939fd9f5" target="_top" xlink:title=" ">
<ellipse fill="white" stroke="#666666" cx="914.52" cy="-340.81" rx="130.11" ry="25.81"/>
<text xml:space="preserve" text-anchor="start" x="830.52" y="-343.66" font-family="Helvetica,sans-Serif" font-size="12.00">com.runehive.fs.cache.decoder.</text>
<text xml:space="preserve" text-anchor="middle" x="914.52" y="-329.41" font-family="Helvetica,sans-Serif" font-size="12.00">CacheNpcDefinition.lookup</text>
</a>
</g>
</g>
<!-- Node2&#45;&gt;Node3 -->
<g id="edge2_Node000002_Node000003" class="edge">
<title>Node2&#45;&gt;Node3</title>
<g id="a_edge2_Node000002_Node000003"><a xlink:title=" ">
<path fill="none" stroke="#63b8ff" d="M675.49,-340.81C708.41,-340.81 741.85,-340.81 772.86,-340.81"/>
<polygon fill="#63b8ff" stroke="#63b8ff" points="772.66,-344.31 782.66,-340.81 772.66,-337.31 772.66,-344.31"/>
</a>
</g>
</g>
<!-- Node18 -->
<g id="Node000018" class="node">
<title>Node18</title>
<g id="a_Node000018"><a xlink:href="classcom_1_1runehive_1_1game_1_1world_1_1entity_1_1mob_1_1npc_1_1definition_1_1_npc_definition.html#ae9d3f563077e84c47f706b986bf6b870" target="_top" xlink:title=" ">
<ellipse fill="white" stroke="#666666" cx="914.52" cy="-270.81" rx="203.29" ry="25.81"/>
<text xml:space="preserve" text-anchor="start" x="778.77" y="-273.66" font-family="Helvetica,sans-Serif" font-size="12.00">com.runehive.game.world.entity.mob.npc.definition.</text>
<text xml:space="preserve" text-anchor="middle" x="914.52" y="-259.41" font-family="Helvetica,sans-Serif" font-size="12.00">NpcDefinition.NpcDefinition</text>
</a>
</g>
</g>
<!-- Node2&#45;&gt;Node18 -->
<g id="edge21_Node000002_Node000018" class="edge">
<title>Node2&#45;&gt;Node18</title>
<g id="a_edge21_Node000002_Node000018"><a xlink:title=" ">
<path fill="none" stroke="#63b8ff" d="M600.96,-320.47C655.27,-311.84 718.72,-301.76 774.2,-292.94"/>
<polygon fill="#63b8ff" stroke="#63b8ff" points="774.73,-296.4 784.06,-291.38 773.63,-289.49 774.73,-296.4"/>
</a>
</g>
</g>
<!-- Node4 -->
<g id="Node000004" class="node">
<title>Node4</title>
<g id="a_Node000004"><a xlink:href="classcom_1_1runehive_1_1fs_1_1cache_1_1decoder_1_1_cache_npc_definition.html#a3dc047ae1f31c3c54fd134a2dbddfb28" target="_top" xlink:title=" ">
<ellipse fill="white" stroke="#666666" cx="1319.98" cy="-375.81" rx="166.17" ry="25.81"/>
<text xml:space="preserve" text-anchor="start" x="1210.48" y="-378.66" font-family="Helvetica,sans-Serif" font-size="12.00">com.runehive.fs.cache.decoder.</text>
<text xml:space="preserve" text-anchor="middle" x="1319.98" y="-364.41" font-family="Helvetica,sans-Serif" font-size="12.00">CacheNpcDefinition.CacheNpcDefinition</text>
</a>
</g>
</g>
<!-- Node3&#45;&gt;Node4 -->
<g id="edge3_Node000003_Node000004" class="edge">
<title>Node3&#45;&gt;Node4</title>
<g id="a_edge3_Node000003_Node000004"><a xlink:title=" ">
<path fill="none" stroke="#63b8ff" d="M1034.39,-351.12C1074.5,-354.6 1119.91,-358.54 1162.48,-362.23"/>
<polygon fill="#63b8ff" stroke="#63b8ff" points="1162.05,-365.71 1172.31,-363.09 1162.65,-358.73 1162.05,-365.71"/>
</a>
</g>
</g>
<!-- Node5 -->
<g id="Node000005" class="node">
<title>Node5</title>
<g id="a_Node000005"><a xlink:href="classcom_1_1runehive_1_1fs_1_1cache_1_1decoder_1_1_cache_npc_definition.html#abce9e800e4d526cb60f59843565f24a3" target="_top" xlink:title=" ">
<ellipse fill="white" stroke="#666666" cx="1319.98" cy="-305.81" rx="130.11" ry="25.81"/>
<text xml:space="preserve" text-anchor="start" x="1235.98" y="-308.66" font-family="Helvetica,sans-Serif" font-size="12.00">com.runehive.fs.cache.decoder.</text>
<text xml:space="preserve" text-anchor="middle" x="1319.98" y="-294.41" font-family="Helvetica,sans-Serif" font-size="12.00">CacheNpcDefinition.decode</text>
</a>
</g>
</g>
<!-- Node3&#45;&gt;Node5 -->
<g id="edge4_Node000003_Node000005" class="edge">
<title>Node3&#45;&gt;Node5</title>
<g id="a_edge4_Node000003_Node000005"><a xlink:title=" ">
<path fill="none" stroke="#63b8ff" d="M1034.39,-330.5C1082.8,-326.3 1138.92,-321.43 1188.46,-317.13"/>
<polygon fill="#63b8ff" stroke="#63b8ff" points="1188.75,-320.62 1198.41,-316.27 1188.14,-313.65 1188.75,-320.62"/>
</a>
</g>
</g>
<!-- Node6 -->
<g id="Node000006" class="node">
<title>Node6</title>
<g id="a_Node000006"><a xlink:href="classcom_1_1runehive_1_1fs_1_1cache_1_1decoder_1_1_buffer.html#aaec16ae77955405c51e4923779d637bf" target="_top" xlink:title=" ">
<ellipse fill="white" stroke="#666666" cx="1692.03" cy="-483.81" rx="130.11" ry="25.81"/>
<text xml:space="preserve" text-anchor="start" x="1608.03" y="-486.66" font-family="Helvetica,sans-Serif" font-size="12.00">com.runehive.fs.cache.decoder.</text>
<text xml:space="preserve" text-anchor="middle" x="1692.03" y="-472.41" font-family="Helvetica,sans-Serif" font-size="12.00">Buffer.readBigSmart2</text>
</a>
</g>
</g>
<!-- Node5&#45;&gt;Node6 -->
<g id="edge5_Node000005_Node000006" class="edge">
<title>Node5&#45;&gt;Node6</title>
<g id="a_edge5_Node000005_Node000006"><a xlink:title=" ">
<path fill="none" stroke="#63b8ff" d="M1440.96,-315.62C1457.52,-321.22 1473.25,-329.29 1486.15,-340.81 1523.89,-374.51 1484.34,-415.19 1522.15,-448.81 1532.94,-458.4 1545.65,-465.62 1559.19,-471.02"/>
<polygon fill="#63b8ff" stroke="#63b8ff" points="1557.66,-474.19 1568.25,-474.29 1560.04,-467.61 1557.66,-474.19"/>
</a>
</g>
</g>
<!-- Node9 -->
<g id="Node000009" class="node">
<title>Node9</title>
<g id="a_Node000009"><a xlink:href="classcom_1_1runehive_1_1fs_1_1cache_1_1decoder_1_1_buffer.html#aa913740e120d65fd11af59b5077663d6" target="_top" xlink:title=" ">
<ellipse fill="white" stroke="#666666" cx="2028.02" cy="-491.81" rx="130.11" ry="25.81"/>
<text xml:space="preserve" text-anchor="start" x="1944.02" y="-494.66" font-family="Helvetica,sans-Serif" font-size="12.00">com.runehive.fs.cache.decoder.</text>
<text xml:space="preserve" text-anchor="middle" x="2028.02" y="-480.41" font-family="Helvetica,sans-Serif" font-size="12.00">Buffer.readUnsignedShort</text>
</a>
</g>
</g>
<!-- Node5&#45;&gt;Node9 -->
<g id="edge15_Node000005_Node000009" class="edge">
<title>Node5&#45;&gt;Node9</title>
<g id="a_edge15_Node000005_Node000009"><a xlink:title=" ">
<path fill="none" stroke="#63b8ff" d="M1443.08,-314.56C1459.16,-320.33 1474.19,-328.73 1486.15,-340.81 1542.96,-398.15 1459.68,-467.71 1522.15,-518.81 1581.69,-567.51 1796.35,-536.87 1925.82,-512.7"/>
<polygon fill="#63b8ff" stroke="#63b8ff" points="1926.26,-516.18 1935.43,-510.89 1924.96,-509.3 1926.26,-516.18"/>
</a>
</g>
</g>
<!-- Node10 -->
<g id="Node000010" class="node">
<title>Node10</title>
<g id="a_Node000010"><a xlink:href="classcom_1_1runehive_1_1fs_1_1cache_1_1decoder_1_1_buffer.html#adccd5f72ec13d8e8b439e0d2f293c5d4" target="_top" xlink:title=" ">
<ellipse fill="white" stroke="#666666" cx="1692.03" cy="-305.81" rx="130.11" ry="25.81"/>
<text xml:space="preserve" text-anchor="start" x="1608.03" y="-308.66" font-family="Helvetica,sans-Serif" font-size="12.00">com.runehive.fs.cache.decoder.</text>
<text xml:space="preserve" text-anchor="middle" x="1692.03" y="-294.41" font-family="Helvetica,sans-Serif" font-size="12.00">Buffer.readBytes</text>
</a>
</g>
</g>
<!-- Node5&#45;&gt;Node10 -->
<g id="edge9_Node000005_Node000010" class="edge">
<title>Node5&#45;&gt;Node10</title>
<g id="a_edge9_Node000005_Node000010"><a xlink:title=" ">
<path fill="none" stroke="#63b8ff" d="M1450.41,-305.81C1482.66,-305.81 1517.4,-305.81 1550.18,-305.81"/>
<polygon fill="#63b8ff" stroke="#63b8ff" points="1550.17,-309.31 1560.17,-305.81 1550.17,-302.31 1550.17,-309.31"/>
</a>
</g>
</g>
<!-- Node11 -->
<g id="Node000011" class="node">
<title>Node11</title>
<g id="a_Node000011"><a xlink:href="classcom_1_1runehive_1_1fs_1_1cache_1_1decoder_1_1_buffer.html#a84871f91eb241f66fb3ae61064995ff1" target="_top" xlink:title=" ">
<ellipse fill="white" stroke="#666666" cx="1692.03" cy="-235.81" rx="130.11" ry="25.81"/>
<text xml:space="preserve" text-anchor="start" x="1608.03" y="-238.66" font-family="Helvetica,sans-Serif" font-size="12.00">com.runehive.fs.cache.decoder.</text>
<text xml:space="preserve" text-anchor="middle" x="1692.03" y="-224.41" font-family="Helvetica,sans-Serif" font-size="12.00">Buffer.readSignedByte</text>
</a>
</g>
</g>
<!-- Node5&#45;&gt;Node11 -->
<g id="edge10_Node000005_Node000011" class="edge">
<title>Node5&#45;&gt;Node11</title>
<g id="a_edge10_Node000005_Node000011"><a xlink:title=" ">
<path fill="none" stroke="#63b8ff" d="M1415.32,-287.96C1467.2,-278.15 1531.71,-265.95 1585.29,-255.81"/>
<polygon fill="#63b8ff" stroke="#63b8ff" points="1585.88,-259.26 1595.06,-253.96 1584.58,-252.38 1585.88,-259.26"/>
</a>
</g>
</g>
<!-- Node12 -->
<g id="Node000012" class="node">
<title>Node12</title>
<g id="a_Node000012"><a xlink:href="classcom_1_1runehive_1_1fs_1_1cache_1_1decoder_1_1_buffer.html#a05b6f9bbca3a0bf3f1a2623d8db18597" target="_top" xlink:title=" ">
<ellipse fill="white" stroke="#666666" cx="1692.03" cy="-165.81" rx="161.93" ry="25.81"/>
<text xml:space="preserve" text-anchor="start" x="1585.53" y="-168.66" font-family="Helvetica,sans-Serif" font-size="12.00">com.runehive.fs.cache.decoder.</text>
<text xml:space="preserve" text-anchor="middle" x="1692.03" y="-154.41" font-family="Helvetica,sans-Serif" font-size="12.00">Buffer.readStringCp1252NullTerminated</text>
</a>
</g>
</g>
<!-- Node5&#45;&gt;Node12 -->
<g id="edge11_Node000005_Node000012" class="edge">
<title>Node5&#45;&gt;Node12</title>
<g id="a_edge11_Node000005_Node000012"><a xlink:title=" ">
<path fill="none" stroke="#63b8ff" d="M1360.7,-280.85C1400.24,-257.04 1463.34,-221.79 1522.15,-200.81 1536.7,-195.62 1552.25,-191.1 1567.79,-187.19"/>
<polygon fill="#63b8ff" stroke="#63b8ff" points="1568.18,-190.7 1577.08,-184.94 1566.53,-183.89 1568.18,-190.7"/>
</a>
</g>
</g>
<!-- Node14 -->
<g id="Node000014" class="node">
<title>Node14</title>
<g id="a_Node000014"><a xlink:href="classcom_1_1runehive_1_1fs_1_1cache_1_1decoder_1_1_buffer.html#a2569ce7721aaef40dba5f6569ff8e746" target="_top" xlink:title=" ">
<ellipse fill="white" stroke="#666666" cx="2028.02" cy="-351.81" rx="130.11" ry="25.81"/>
<text xml:space="preserve" text-anchor="start" x="1944.02" y="-354.66" font-family="Helvetica,sans-Serif" font-size="12.00">com.runehive.fs.cache.decoder.</text>
<text xml:space="preserve" text-anchor="middle" x="2028.02" y="-340.41" font-family="Helvetica,sans-Serif" font-size="12.00">Buffer.readUnsignedByte</text>
</a>
</g>
</g>
<!-- Node5&#45;&gt;Node14 -->
<g id="edge13_Node000005_Node000014" class="edge">
<title>Node5&#45;&gt;Node14</title>
<g id="a_edge13_Node000005_Node000014"><a xlink:title=" ">
<path fill="none" stroke="#63b8ff" d="M1411.47,-324.53C1445.95,-330.88 1485.72,-337.26 1522.15,-340.81 1644.95,-352.76 1785.3,-354.9 1886.8,-354.4"/>
<polygon fill="#63b8ff" stroke="#63b8ff" points="1886.56,-357.9 1896.54,-354.34 1886.52,-350.9 1886.56,-357.9"/>
</a>
</g>
</g>
<!-- Node15 -->
<g id="Node000015" class="node">
<title>Node15</title>
<g id="a_Node000015"><a xlink:href="classcom_1_1runehive_1_1fs_1_1cache_1_1decoder_1_1_buffer.html#a8c0cb2707d12ffaea27f58327b67ad18" target="_top" xlink:title=" ">
<ellipse fill="white" stroke="#666666" cx="1692.03" cy="-95.81" rx="130.11" ry="25.81"/>
<text xml:space="preserve" text-anchor="start" x="1608.03" y="-98.66" font-family="Helvetica,sans-Serif" font-size="12.00">com.runehive.fs.cache.decoder.</text>
<text xml:space="preserve" text-anchor="middle" x="1692.03" y="-84.41" font-family="Helvetica,sans-Serif" font-size="12.00">Buffer.readUnsignedInt</text>
</a>
</g>
</g>
<!-- Node5&#45;&gt;Node15 -->
<g id="edge14_Node000005_Node000015" class="edge">
<title>Node5&#45;&gt;Node15</title>
<g id="a_edge14_Node000005_Node000015"><a xlink:title=" ">
<path fill="none" stroke="#63b8ff" d="M1342.49,-280.09C1376.45,-241.29 1446.46,-168.33 1522.15,-130.81 1537.34,-123.28 1554.06,-117.37 1570.91,-112.73"/>
<polygon fill="#63b8ff" stroke="#63b8ff" points="1571.71,-116.14 1580.51,-110.25 1569.95,-109.37 1571.71,-116.14"/>
</a>
</g>
</g>
<!-- Node16 -->
<g id="Node000016" class="node">
<title>Node16</title>
<g id="a_Node000016"><a xlink:href="classcom_1_1runehive_1_1fs_1_1cache_1_1decoder_1_1_buffer.html#ae4de491dd432dbf0bd92adfb3bbda73e" target="_top" xlink:title=" ">
<ellipse fill="white" stroke="#666666" cx="1692.03" cy="-413.81" rx="169.88" ry="25.81"/>
<text xml:space="preserve" text-anchor="start" x="1579.91" y="-416.66" font-family="Helvetica,sans-Serif" font-size="12.00">com.runehive.fs.cache.decoder.</text>
<text xml:space="preserve" text-anchor="middle" x="1692.03" y="-402.41" font-family="Helvetica,sans-Serif" font-size="12.00">Buffer.readUnsignedShortSmartMinusOne</text>
</a>
</g>
</g>
<!-- Node5&#45;&gt;Node16 -->
<g id="edge16_Node000005_Node000016" class="edge">
<title>Node5&#45;&gt;Node16</title>
<g id="a_edge16_Node000005_Node000016"><a xlink:title=" ">
<path fill="none" stroke="#63b8ff" d="M1429.14,-320.06C1448.76,-325.04 1468.56,-331.75 1486.15,-340.81 1505.45,-350.74 1502.97,-363.65 1522.15,-373.81 1535.43,-380.85 1549.95,-386.66 1564.72,-391.46"/>
<polygon fill="#63b8ff" stroke="#63b8ff" points="1563.48,-394.74 1574.06,-394.34 1565.53,-388.05 1563.48,-394.74"/>
</a>
</g>
</g>
<!-- Node17 -->
<g id="Node000017" class="node">
<title>Node17</title>
<g id="a_Node000017"><a xlink:href="classcom_1_1runehive_1_1fs_1_1cache_1_1decoder_1_1_buffer.html#ae3fc2efecc4a4bf9dba7996444c62a54" target="_top" xlink:title=" ">
<ellipse fill="white" stroke="#666666" cx="1692.03" cy="-25.81" rx="130.11" ry="25.81"/>
<text xml:space="preserve" text-anchor="start" x="1608.03" y="-28.66" font-family="Helvetica,sans-Serif" font-size="12.00">com.runehive.fs.cache.decoder.</text>
<text xml:space="preserve" text-anchor="middle" x="1692.03" y="-14.41" font-family="Helvetica,sans-Serif" font-size="12.00">Buffer.readUnsignedTriByte</text>
</a>
</g>
</g>
<!-- Node5&#45;&gt;Node17 -->
<g id="edge20_Node000005_Node000017" class="edge">
<title>Node5&#45;&gt;Node17</title>
<g id="a_edge20_Node000005_Node000017"><a xlink:title=" ">
<path fill="none" stroke="#63b8ff" d="M1334.37,-279.77C1362.02,-228.85 1430.55,-116.2 1522.15,-60.81 1535.79,-52.56 1551.05,-46.23 1566.68,-41.38"/>
<polygon fill="#63b8ff" stroke="#63b8ff" points="1567.45,-44.8 1576.09,-38.67 1565.51,-38.08 1567.45,-44.8"/>
</a>
</g>
</g>
<!-- Node7 -->
<g id="Node000007" class="node">
<title>Node7</title>
<g id="a_Node000007"><a xlink:href="classcom_1_1runehive_1_1fs_1_1cache_1_1decoder_1_1_buffer.html#a99f36525007deb9e811991d6fbd81b34" target="_top" xlink:title=" ">
<ellipse fill="white" stroke="#666666" cx="2028.02" cy="-421.81" rx="130.11" ry="25.81"/>
<text xml:space="preserve" text-anchor="start" x="1944.02" y="-424.66" font-family="Helvetica,sans-Serif" font-size="12.00">com.runehive.fs.cache.decoder.</text>
<text xml:space="preserve" text-anchor="middle" x="2028.02" y="-410.41" font-family="Helvetica,sans-Serif" font-size="12.00">Buffer.peek</text>
</a>
</g>
</g>
<!-- Node6&#45;&gt;Node7 -->
<g id="edge6_Node000006_Node000007" class="edge">
<title>Node6&#45;&gt;Node7</title>
<g id="a_edge6_Node000006_Node000007"><a xlink:title=" ">
<path fill="none" stroke="#63b8ff" d="M1788.29,-466.13C1829.53,-458.47 1877.98,-449.48 1920.41,-441.6"/>
<polygon fill="#63b8ff" stroke="#63b8ff" points="1920.95,-445.06 1930.15,-439.79 1919.68,-438.18 1920.95,-445.06"/>
</a>
</g>
</g>
<!-- Node8 -->
<g id="Node000008" class="node">
<title>Node8</title>
<g id="a_Node000008"><a xlink:href="classcom_1_1runehive_1_1fs_1_1cache_1_1decoder_1_1_buffer.html#a4fc2b56eb3318d4e6b7742289aeac7ac" target="_top" xlink:title=" ">
<ellipse fill="white" stroke="#666666" cx="2028.02" cy="-561.81" rx="130.11" ry="25.81"/>
<text xml:space="preserve" text-anchor="start" x="1944.02" y="-564.66" font-family="Helvetica,sans-Serif" font-size="12.00">com.runehive.fs.cache.decoder.</text>
<text xml:space="preserve" text-anchor="middle" x="2028.02" y="-550.41" font-family="Helvetica,sans-Serif" font-size="12.00">Buffer.readInt</text>
</a>
</g>
</g>
<!-- Node6&#45;&gt;Node8 -->
<g id="edge7_Node000006_Node000008" class="edge">
<title>Node6&#45;&gt;Node8</title>
<g id="a_edge7_Node000006_Node000008"><a xlink:title=" ">
<path fill="none" stroke="#63b8ff" d="M1777.75,-503.59C1824.54,-514.52 1882.83,-528.13 1931.27,-539.45"/>
<polygon fill="#63b8ff" stroke="#63b8ff" points="1930.39,-542.84 1940.93,-541.7 1931.99,-536.02 1930.39,-542.84"/>
</a>
</g>
</g>
<!-- Node6&#45;&gt;Node9 -->
<g id="edge8_Node000006_Node000009" class="edge">
<title>Node6&#45;&gt;Node9</title>
<g id="a_edge8_Node000006_Node000009"><a xlink:title=" ">
<path fill="none" stroke="#63b8ff" d="M1821.69,-486.89C1843.12,-487.4 1865.45,-487.94 1887.15,-488.46"/>
<polygon fill="#63b8ff" stroke="#63b8ff" points="1886.84,-491.95 1896.93,-488.69 1887.01,-484.95 1886.84,-491.95"/>
</a>
</g>
</g>
<!-- Node13 -->
<g id="Node000013" class="node">
<title>Node13</title>
<g id="a_Node000013"><a xlink:href="classcom_1_1runehive_1_1fs_1_1cache_1_1decoder_1_1_buffer.html#a7192141e3437c8190dddef4017769307" target="_top" xlink:title=" ">
<ellipse fill="white" stroke="#666666" cx="2028.02" cy="-165.81" rx="130.11" ry="25.81"/>
<text xml:space="preserve" text-anchor="start" x="1944.02" y="-168.66" font-family="Helvetica,sans-Serif" font-size="12.00">com.runehive.fs.cache.decoder.</text>
<text xml:space="preserve" text-anchor="middle" x="2028.02" y="-154.41" font-family="Helvetica,sans-Serif" font-size="12.00">Buffer.decodeStringCp1252</text>
</a>
</g>
</g>
<!-- Node12&#45;&gt;Node13 -->
<g id="edge12_Node000012_Node000013" class="edge">
<title>Node12&#45;&gt;Node13</title>
<g id="a_edge12_Node000012_Node000013"><a xlink:title=" ">
<path fill="none" stroke="#63b8ff" d="M1854.16,-165.81C1864.82,-165.81 1875.51,-165.81 1886.05,-165.81"/>
<polygon fill="#63b8ff" stroke="#63b8ff" points="1885.92,-169.31 1895.92,-165.81 1885.92,-162.31 1885.92,-169.31"/>
</a>
</g>
</g>
<!-- Node16&#45;&gt;Node7 -->
<g id="edge17_Node000016_Node000007" class="edge">
<title>Node16&#45;&gt;Node7</title>
<g id="a_edge17_Node000016_Node000007"><a xlink:title=" ">
<path fill="none" stroke="#63b8ff" d="M1860.03,-417.81C1869.09,-418.03 1878.15,-418.24 1887.1,-418.46"/>
<polygon fill="#63b8ff" stroke="#63b8ff" points="1886.78,-421.95 1896.86,-418.69 1886.95,-414.95 1886.78,-421.95"/>
</a>
</g>
</g>
<!-- Node16&#45;&gt;Node9 -->
<g id="edge19_Node000016_Node000009" class="edge">
<title>Node16&#45;&gt;Node9</title>
<g id="a_edge19_Node000016_Node000009"><a xlink:title=" ">
<path fill="none" stroke="#63b8ff" d="M1796.82,-434.46C1818.38,-438.99 1840.92,-443.9 1861.92,-448.81 1887.04,-454.68 1914.18,-461.54 1939.06,-468.02"/>
<polygon fill="#63b8ff" stroke="#63b8ff" points="1937.92,-471.34 1948.48,-470.49 1939.7,-464.57 1937.92,-471.34"/>
</a>
</g>
</g>
<!-- Node16&#45;&gt;Node14 -->
<g id="edge18_Node000016_Node000014" class="edge">
<title>Node16&#45;&gt;Node14</title>
<g id="a_edge18_Node000016_Node000014"><a xlink:title=" ">
<path fill="none" stroke="#63b8ff" d="M1801.47,-393.68C1839.7,-386.58 1882.61,-378.62 1920.66,-371.55"/>
<polygon fill="#63b8ff" stroke="#63b8ff" points="1921.1,-375.03 1930.29,-369.77 1919.82,-368.15 1921.1,-375.03"/>
</a>
</g>
</g>
<!-- Node19&#45;&gt;Node18 -->
<g id="edge23_Node000019_Node000018" class="edge">
<title>Node19&#45;&gt;Node18</title>
<g id="a_edge23_Node000019_Node000018"><a xlink:title=" ">
<path fill="none" stroke="#63b8ff" d="M675.49,-270.81C683.48,-270.81 691.5,-270.81 699.51,-270.81"/>
<polygon fill="#63b8ff" stroke="#63b8ff" points="699.31,-274.31 709.31,-270.81 699.31,-267.31 699.31,-274.31"/>
</a>
</g>
</g>
<!-- Node22 -->
<g id="Node000022" class="node">
<title>Node22</title>
<g id="a_Node000022"><a xlink:href="classcom_1_1runehive_1_1util_1_1parser_1_1_generic_parser.html#addaa24766a394c8293bd32d1dc995386" target="_top" xlink:title="The method that deserializes the file information.">
<ellipse fill="white" stroke="#666666" cx="914.52" cy="-200.81" rx="108.89" ry="25.81"/>
<text xml:space="preserve" text-anchor="start" x="845.52" y="-203.66" font-family="Helvetica,sans-Serif" font-size="12.00">com.runehive.util.parser.</text>
<text xml:space="preserve" text-anchor="middle" x="914.52" y="-189.41" font-family="Helvetica,sans-Serif" font-size="12.00">GenericParser.deserialize</text>
</a>
</g>
</g>
<!-- Node21&#45;&gt;Node22 -->
<g id="edge26_Node000021_Node000022" class="edge">
<title>Node21&#45;&gt;Node22</title>
<g id="a_edge26_Node000021_Node000022"><a xlink:title=" ">
<path fill="none" stroke="#63b8ff" d="M559.98,-144.64C632.52,-156.16 735.95,-172.6 812.2,-184.71"/>
<polygon fill="#63b8ff" stroke="#63b8ff" points="811.33,-188.12 821.75,-186.23 812.43,-181.2 811.33,-188.12"/>
</a>
</g>
</g>
<!-- Node23 -->
<g id="Node000023" class="node">
<title>Node23</title>
<g id="a_Node000023"><a xlink:href="classcom_1_1runehive_1_1util_1_1parser_1_1_generic_parser.html#af493f52b5d24dafa5cc4900a8de3708a" target="_top" xlink:title="The method called after all the data has been parsed.">
<ellipse fill="white" stroke="#666666" cx="914.52" cy="-130.81" rx="103.06" ry="25.81"/>
<text xml:space="preserve" text-anchor="start" x="849.64" y="-133.66" font-family="Helvetica,sans-Serif" font-size="12.00">com.runehive.util.parser.</text>
<text xml:space="preserve" text-anchor="middle" x="914.52" y="-119.41" font-family="Helvetica,sans-Serif" font-size="12.00">GenericParser.onRead</text>
</a>
</g>
</g>
<!-- Node21&#45;&gt;Node23 -->
<g id="edge27_Node000021_Node000023" class="edge">
<title>Node21&#45;&gt;Node23</title>
<g id="a_edge27_Node000021_Node000023"><a xlink:title=" ">
<path fill="none" stroke="#63b8ff" d="M575.4,-130.81C642.59,-130.81 730.51,-130.81 799.85,-130.81"/>
<polygon fill="#63b8ff" stroke="#63b8ff" points="799.74,-134.31 809.74,-130.81 799.74,-127.31 799.74,-134.31"/>
</a>
</g>
</g>
<!-- Node24 -->
<g id="Node000024" class="node">
<title>Node24</title>
<g id="a_Node000024"><a xlink:href="classcom_1_1runehive_1_1util_1_1parser_1_1_generic_parser.html#a17f266f25fb84337b2486c68833dee71" target="_top" xlink:title=" ">
<ellipse fill="white" stroke="#666666" cx="914.52" cy="-60.81" rx="103.06" ry="25.81"/>
<text xml:space="preserve" text-anchor="start" x="849.64" y="-63.66" font-family="Helvetica,sans-Serif" font-size="12.00">com.runehive.util.parser.</text>
<text xml:space="preserve" text-anchor="middle" x="914.52" y="-49.41" font-family="Helvetica,sans-Serif" font-size="12.00">GenericParser.toString</text>
</a>
</g>
</g>
<!-- Node21&#45;&gt;Node24 -->
<g id="edge28_Node000021_Node000024" class="edge">
<title>Node21&#45;&gt;Node24</title>
<g id="a_edge28_Node000021_Node000024"><a xlink:title=" ">
<path fill="none" stroke="#63b8ff" d="M559.98,-116.98C633.6,-105.28 739.02,-88.53 815.57,-76.37"/>
<polygon fill="#63b8ff" stroke="#63b8ff" points="815.83,-79.87 825.16,-74.85 814.73,-72.96 815.83,-79.87"/>
</a>
</g>
</g>
</g>
</svg>
