<?xml version="1.0" encoding="UTF-8" standalone="no"?>
<!DOCTYPE svg PUBLIC "-//W3C//DTD SVG 1.1//EN"
 "http://www.w3.org/Graphics/SVG/1.1/DTD/svg11.dtd">
<!-- Generated by graphviz version 14.0.1 (20251006.0113)
 -->
<!-- Title: com.runehive.content.itemaction.ItemAction Pages: 1 -->
<svg width="620pt" height="1040pt"
 viewBox="0.00 0.00 620.00 1040.00" xmlns="http://www.w3.org/2000/svg" xmlns:xlink="http://www.w3.org/1999/xlink">
<g id="graph0" class="graph" transform="scale(1 1) rotate(0) translate(4 1035.62)">
<title>com.runehive.content.itemaction.ItemAction</title>
<!-- Node1 -->
<g id="Node000001" class="node">
<title>Node1</title>
<g id="a_Node000001"><a xlink:title="Handles executing an item action.">
<ellipse fill="#999999" stroke="#666666" cx="134.88" cy="-515.81" rx="134.88" ry="25.81"/>
<text xml:space="preserve" text-anchor="start" x="47.51" y="-518.66" font-family="Helvetica,sans-Serif" font-size="12.00">com.runehive.content.itemaction.</text>
<text xml:space="preserve" text-anchor="middle" x="134.88" y="-504.41" font-family="Helvetica,sans-Serif" font-size="12.00">ItemAction</text>
</a>
</g>
</g>
<!-- Node2 -->
<g id="Node000002" class="node">
<title>Node2</title>
<g id="a_Node000002"><a xlink:href="classcom_1_1runehive_1_1content_1_1itemaction_1_1impl_1_1_celestial_ring.html" target="_top" xlink:title=" ">
<ellipse fill="white" stroke="#666666" cx="458.67" cy="-1005.81" rx="152.91" ry="25.81"/>
<text xml:space="preserve" text-anchor="start" x="358.55" y="-1008.66" font-family="Helvetica,sans-Serif" font-size="12.00">com.runehive.content.itemaction.impl.</text>
<text xml:space="preserve" text-anchor="middle" x="458.67" y="-994.41" font-family="Helvetica,sans-Serif" font-size="12.00">CelestialRing</text>
</a>
</g>
</g>
<!-- Node1&#45;&gt;Node2 -->
<g id="edge1_Node000001_Node000002" class="edge">
<title>Node1&#45;&gt;Node2</title>
<g id="a_edge1_Node000001_Node000002"><a xlink:title=" ">
<path fill="none" stroke="#63b8ff" d="M138.3,-553.32C146.04,-640.66 177.86,-858.64 305.76,-970.81 314.92,-978.84 325.55,-985.13 336.85,-990.04"/>
<polygon fill="#63b8ff" stroke="#63b8ff" points="141.79,-553.08 137.49,-543.4 134.82,-553.65 141.79,-553.08"/>
</a>
</g>
</g>
<!-- Node3 -->
<g id="Node000003" class="node">
<title>Node3</title>
<g id="a_Node000003"><a xlink:href="classcom_1_1runehive_1_1content_1_1itemaction_1_1impl_1_1_clan_resource_box.html" target="_top" xlink:title=" ">
<ellipse fill="white" stroke="#666666" cx="458.67" cy="-935.81" rx="152.91" ry="25.81"/>
<text xml:space="preserve" text-anchor="start" x="358.55" y="-938.66" font-family="Helvetica,sans-Serif" font-size="12.00">com.runehive.content.itemaction.impl.</text>
<text xml:space="preserve" text-anchor="middle" x="458.67" y="-924.41" font-family="Helvetica,sans-Serif" font-size="12.00">ClanResourceBox</text>
</a>
</g>
</g>
<!-- Node1&#45;&gt;Node3 -->
<g id="edge2_Node000001_Node000003" class="edge">
<title>Node1&#45;&gt;Node3</title>
<g id="a_edge2_Node000001_Node000003"><a xlink:title=" ">
<path fill="none" stroke="#63b8ff" d="M141.09,-552.97C153.98,-630.31 194.76,-809.04 305.76,-900.81 315.25,-908.66 326.17,-914.82 337.7,-919.65"/>
<polygon fill="#63b8ff" stroke="#63b8ff" points="144.59,-552.7 139.56,-543.38 137.68,-553.8 144.59,-552.7"/>
</a>
</g>
</g>
<!-- Node4 -->
<g id="Node000004" class="node">
<title>Node4</title>
<g id="a_Node000004"><a xlink:href="classcom_1_1runehive_1_1content_1_1itemaction_1_1impl_1_1_clan_showcase_box.html" target="_top" xlink:title=" ">
<ellipse fill="white" stroke="#666666" cx="458.67" cy="-865.81" rx="152.91" ry="25.81"/>
<text xml:space="preserve" text-anchor="start" x="358.55" y="-868.66" font-family="Helvetica,sans-Serif" font-size="12.00">com.runehive.content.itemaction.impl.</text>
<text xml:space="preserve" text-anchor="middle" x="458.67" y="-854.41" font-family="Helvetica,sans-Serif" font-size="12.00">ClanShowcaseBox</text>
</a>
</g>
</g>
<!-- Node1&#45;&gt;Node4 -->
<g id="edge3_Node000001_Node000004" class="edge">
<title>Node1&#45;&gt;Node4</title>
<g id="a_edge3_Node000001_Node000004"><a xlink:title=" ">
<path fill="none" stroke="#63b8ff" d="M144.93,-552.55C163.29,-619 211.4,-758.88 305.76,-830.81 315.88,-838.52 327.4,-844.58 339.47,-849.34"/>
<polygon fill="#63b8ff" stroke="#63b8ff" points="148.41,-552 142.44,-543.25 141.65,-553.81 148.41,-552"/>
</a>
</g>
</g>
<!-- Node5 -->
<g id="Node000005" class="node">
<title>Node5</title>
<g id="a_Node000005"><a xlink:href="classcom_1_1runehive_1_1content_1_1itemaction_1_1impl_1_1_craws_bow.html" target="_top" xlink:title=" ">
<ellipse fill="white" stroke="#666666" cx="458.67" cy="-795.81" rx="152.91" ry="25.81"/>
<text xml:space="preserve" text-anchor="start" x="358.55" y="-798.66" font-family="Helvetica,sans-Serif" font-size="12.00">com.runehive.content.itemaction.impl.</text>
<text xml:space="preserve" text-anchor="middle" x="458.67" y="-784.41" font-family="Helvetica,sans-Serif" font-size="12.00">CrawsBow</text>
</a>
</g>
</g>
<!-- Node1&#45;&gt;Node5 -->
<g id="edge4_Node000001_Node000005" class="edge">
<title>Node1&#45;&gt;Node5</title>
<g id="a_edge4_Node000001_Node000005"><a xlink:title=" ">
<path fill="none" stroke="#63b8ff" d="M150.72,-552.18C174.83,-606.47 227.79,-707.98 305.76,-760.81 316.74,-768.25 329.08,-774.12 341.86,-778.76"/>
<polygon fill="#63b8ff" stroke="#63b8ff" points="153.95,-550.82 146.76,-543.05 147.53,-553.61 153.95,-550.82"/>
</a>
</g>
</g>
<!-- Node6 -->
<g id="Node000006" class="node">
<title>Node6</title>
<g id="a_Node000006"><a xlink:href="classcom_1_1runehive_1_1content_1_1itemaction_1_1impl_1_1_dragonfire_shield.html" target="_top" xlink:title=" ">
<ellipse fill="white" stroke="#666666" cx="458.67" cy="-725.81" rx="152.91" ry="25.81"/>
<text xml:space="preserve" text-anchor="start" x="358.55" y="-728.66" font-family="Helvetica,sans-Serif" font-size="12.00">com.runehive.content.itemaction.impl.</text>
<text xml:space="preserve" text-anchor="middle" x="458.67" y="-714.41" font-family="Helvetica,sans-Serif" font-size="12.00">DragonfireShield</text>
</a>
</g>
</g>
<!-- Node1&#45;&gt;Node6 -->
<g id="edge5_Node000001_Node000006" class="edge">
<title>Node1&#45;&gt;Node6</title>
<g id="a_edge5_Node000001_Node000006"><a xlink:title=" ">
<path fill="none" stroke="#63b8ff" d="M160.07,-550.89C189.68,-591.05 243.61,-655.77 305.76,-690.81 318.26,-697.85 332.09,-703.48 346.17,-707.98"/>
<polygon fill="#63b8ff" stroke="#63b8ff" points="163.03,-549 154.32,-542.96 157.36,-553.11 163.03,-549"/>
</a>
</g>
</g>
<!-- Node7 -->
<g id="Node000007" class="node">
<title>Node7</title>
<g id="a_Node000007"><a xlink:href="classcom_1_1runehive_1_1content_1_1itemaction_1_1impl_1_1_drill_demon_box.html" target="_top" xlink:title=" ">
<ellipse fill="white" stroke="#666666" cx="458.67" cy="-655.81" rx="152.91" ry="25.81"/>
<text xml:space="preserve" text-anchor="start" x="358.55" y="-658.66" font-family="Helvetica,sans-Serif" font-size="12.00">com.runehive.content.itemaction.impl.</text>
<text xml:space="preserve" text-anchor="middle" x="458.67" y="-644.41" font-family="Helvetica,sans-Serif" font-size="12.00">DrillDemonBox</text>
</a>
</g>
</g>
<!-- Node1&#45;&gt;Node7 -->
<g id="edge6_Node000001_Node000007" class="edge">
<title>Node1&#45;&gt;Node7</title>
<g id="a_edge6_Node000001_Node000007"><a xlink:title=" ">
<path fill="none" stroke="#63b8ff" d="M178.6,-547.71C211.73,-571.06 259.65,-601.85 305.76,-620.81 320.91,-627.04 337.38,-632.27 353.7,-636.64"/>
<polygon fill="#63b8ff" stroke="#63b8ff" points="180.64,-544.87 170.46,-541.91 176.57,-550.57 180.64,-544.87"/>
</a>
</g>
</g>
<!-- Node8 -->
<g id="Node000008" class="node">
<title>Node8</title>
<g id="a_Node000008"><a xlink:href="classcom_1_1runehive_1_1content_1_1itemaction_1_1impl_1_1_magma_helm.html" target="_top" xlink:title=" ">
<ellipse fill="white" stroke="#666666" cx="458.67" cy="-585.81" rx="152.91" ry="25.81"/>
<text xml:space="preserve" text-anchor="start" x="358.55" y="-588.66" font-family="Helvetica,sans-Serif" font-size="12.00">com.runehive.content.itemaction.impl.</text>
<text xml:space="preserve" text-anchor="middle" x="458.67" y="-574.41" font-family="Helvetica,sans-Serif" font-size="12.00">MagmaHelm</text>
</a>
</g>
</g>
<!-- Node1&#45;&gt;Node8 -->
<g id="edge7_Node000001_Node000008" class="edge">
<title>Node1&#45;&gt;Node8</title>
<g id="a_edge7_Node000001_Node000008"><a xlink:title=" ">
<path fill="none" stroke="#63b8ff" d="M236.75,-537.75C277.15,-546.54 323.44,-556.61 363.18,-565.25"/>
<polygon fill="#63b8ff" stroke="#63b8ff" points="237.51,-534.34 227,-535.63 236.02,-541.18 237.51,-534.34"/>
</a>
</g>
</g>
<!-- Node9 -->
<g id="Node000009" class="node">
<title>Node9</title>
<g id="a_Node000009"><a xlink:href="classcom_1_1runehive_1_1content_1_1itemaction_1_1impl_1_1_mime_box.html" target="_top" xlink:title=" ">
<ellipse fill="white" stroke="#666666" cx="458.67" cy="-515.81" rx="152.91" ry="25.81"/>
<text xml:space="preserve" text-anchor="start" x="358.55" y="-518.66" font-family="Helvetica,sans-Serif" font-size="12.00">com.runehive.content.itemaction.impl.</text>
<text xml:space="preserve" text-anchor="middle" x="458.67" y="-504.41" font-family="Helvetica,sans-Serif" font-size="12.00">MimeBox</text>
</a>
</g>
</g>
<!-- Node1&#45;&gt;Node9 -->
<g id="edge8_Node000001_Node000009" class="edge">
<title>Node1&#45;&gt;Node9</title>
<g id="a_edge8_Node000001_Node000009"><a xlink:title=" ">
<path fill="none" stroke="#63b8ff" d="M281.53,-515.81C289.42,-515.81 297.36,-515.81 305.27,-515.81"/>
<polygon fill="#63b8ff" stroke="#63b8ff" points="281.53,-512.31 271.53,-515.81 281.53,-519.31 281.53,-512.31"/>
</a>
</g>
</g>
<!-- Node10 -->
<g id="Node000010" class="node">
<title>Node10</title>
<g id="a_Node000010"><a xlink:href="classcom_1_1runehive_1_1content_1_1itemaction_1_1impl_1_1_serpentine_helm.html" target="_top" xlink:title=" ">
<ellipse fill="white" stroke="#666666" cx="458.67" cy="-445.81" rx="152.91" ry="25.81"/>
<text xml:space="preserve" text-anchor="start" x="358.55" y="-448.66" font-family="Helvetica,sans-Serif" font-size="12.00">com.runehive.content.itemaction.impl.</text>
<text xml:space="preserve" text-anchor="middle" x="458.67" y="-434.41" font-family="Helvetica,sans-Serif" font-size="12.00">SerpentineHelm</text>
</a>
</g>
</g>
<!-- Node1&#45;&gt;Node10 -->
<g id="edge9_Node000001_Node000010" class="edge">
<title>Node1&#45;&gt;Node10</title>
<g id="a_edge9_Node000001_Node000010"><a xlink:title=" ">
<path fill="none" stroke="#63b8ff" d="M236.75,-493.87C277.15,-485.08 323.44,-475.01 363.18,-466.36"/>
<polygon fill="#63b8ff" stroke="#63b8ff" points="236.02,-490.44 227,-495.99 237.51,-497.28 236.02,-490.44"/>
</a>
</g>
</g>
<!-- Node11 -->
<g id="Node000011" class="node">
<title>Node11</title>
<g id="a_Node000011"><a xlink:href="classcom_1_1runehive_1_1content_1_1itemaction_1_1impl_1_1_tanzanite_helm.html" target="_top" xlink:title=" ">
<ellipse fill="white" stroke="#666666" cx="458.67" cy="-375.81" rx="152.91" ry="25.81"/>
<text xml:space="preserve" text-anchor="start" x="358.55" y="-378.66" font-family="Helvetica,sans-Serif" font-size="12.00">com.runehive.content.itemaction.impl.</text>
<text xml:space="preserve" text-anchor="middle" x="458.67" y="-364.41" font-family="Helvetica,sans-Serif" font-size="12.00">TanzaniteHelm</text>
</a>
</g>
</g>
<!-- Node1&#45;&gt;Node11 -->
<g id="edge10_Node000001_Node000011" class="edge">
<title>Node1&#45;&gt;Node11</title>
<g id="a_edge10_Node000001_Node000011"><a xlink:title=" ">
<path fill="none" stroke="#63b8ff" d="M178.6,-483.91C211.73,-460.56 259.65,-429.77 305.76,-410.81 320.91,-404.58 337.38,-399.35 353.7,-394.98"/>
<polygon fill="#63b8ff" stroke="#63b8ff" points="176.57,-481.05 170.46,-489.71 180.64,-486.75 176.57,-481.05"/>
</a>
</g>
</g>
<!-- Node12 -->
<g id="Node000012" class="node">
<title>Node12</title>
<g id="a_Node000012"><a xlink:href="classcom_1_1runehive_1_1content_1_1itemaction_1_1impl_1_1_thammarons_sceptre.html" target="_top" xlink:title=" ">
<ellipse fill="white" stroke="#666666" cx="458.67" cy="-305.81" rx="152.91" ry="25.81"/>
<text xml:space="preserve" text-anchor="start" x="358.55" y="-308.66" font-family="Helvetica,sans-Serif" font-size="12.00">com.runehive.content.itemaction.impl.</text>
<text xml:space="preserve" text-anchor="middle" x="458.67" y="-294.41" font-family="Helvetica,sans-Serif" font-size="12.00">ThammaronsSceptre</text>
</a>
</g>
</g>
<!-- Node1&#45;&gt;Node12 -->
<g id="edge11_Node000001_Node000012" class="edge">
<title>Node1&#45;&gt;Node12</title>
<g id="a_edge11_Node000001_Node000012"><a xlink:title=" ">
<path fill="none" stroke="#63b8ff" d="M160.07,-480.73C189.68,-440.57 243.61,-375.85 305.76,-340.81 318.26,-333.77 332.09,-328.14 346.17,-323.64"/>
<polygon fill="#63b8ff" stroke="#63b8ff" points="157.36,-478.51 154.32,-488.66 163.03,-482.62 157.36,-478.51"/>
</a>
</g>
</g>
<!-- Node13 -->
<g id="Node000013" class="node">
<title>Node13</title>
<g id="a_Node000013"><a xlink:href="classcom_1_1runehive_1_1content_1_1itemaction_1_1impl_1_1_toxic_blowpipe.html" target="_top" xlink:title=" ">
<ellipse fill="white" stroke="#666666" cx="458.67" cy="-235.81" rx="152.91" ry="25.81"/>
<text xml:space="preserve" text-anchor="start" x="358.55" y="-238.66" font-family="Helvetica,sans-Serif" font-size="12.00">com.runehive.content.itemaction.impl.</text>
<text xml:space="preserve" text-anchor="middle" x="458.67" y="-224.41" font-family="Helvetica,sans-Serif" font-size="12.00">ToxicBlowpipe</text>
</a>
</g>
</g>
<!-- Node1&#45;&gt;Node13 -->
<g id="edge12_Node000001_Node000013" class="edge">
<title>Node1&#45;&gt;Node13</title>
<g id="a_edge12_Node000001_Node000013"><a xlink:title=" ">
<path fill="none" stroke="#63b8ff" d="M150.72,-479.44C174.83,-425.15 227.79,-323.64 305.76,-270.81 316.74,-263.37 329.08,-257.5 341.86,-252.86"/>
<polygon fill="#63b8ff" stroke="#63b8ff" points="147.53,-478.01 146.76,-488.57 153.95,-480.8 147.53,-478.01"/>
</a>
</g>
</g>
<!-- Node14 -->
<g id="Node000014" class="node">
<title>Node14</title>
<g id="a_Node000014"><a xlink:href="classcom_1_1runehive_1_1content_1_1itemaction_1_1impl_1_1_trident_of_the_seas.html" target="_top" xlink:title=" ">
<ellipse fill="white" stroke="#666666" cx="458.67" cy="-165.81" rx="152.91" ry="25.81"/>
<text xml:space="preserve" text-anchor="start" x="358.55" y="-168.66" font-family="Helvetica,sans-Serif" font-size="12.00">com.runehive.content.itemaction.impl.</text>
<text xml:space="preserve" text-anchor="middle" x="458.67" y="-154.41" font-family="Helvetica,sans-Serif" font-size="12.00">TridentOfTheSeas</text>
</a>
</g>
</g>
<!-- Node1&#45;&gt;Node14 -->
<g id="edge13_Node000001_Node000014" class="edge">
<title>Node1&#45;&gt;Node14</title>
<g id="a_edge13_Node000001_Node000014"><a xlink:title=" ">
<path fill="none" stroke="#63b8ff" d="M144.93,-479.06C163.29,-412.62 211.4,-272.74 305.76,-200.81 315.88,-193.1 327.4,-187.04 339.47,-182.28"/>
<polygon fill="#63b8ff" stroke="#63b8ff" points="141.65,-477.8 142.44,-488.37 148.41,-479.62 141.65,-477.8"/>
</a>
</g>
</g>
<!-- Node15 -->
<g id="Node000015" class="node">
<title>Node15</title>
<g id="a_Node000015"><a xlink:href="classcom_1_1runehive_1_1content_1_1itemaction_1_1impl_1_1_trident_of_the_swamp.html" target="_top" xlink:title=" ">
<ellipse fill="white" stroke="#666666" cx="458.67" cy="-95.81" rx="152.91" ry="25.81"/>
<text xml:space="preserve" text-anchor="start" x="358.55" y="-98.66" font-family="Helvetica,sans-Serif" font-size="12.00">com.runehive.content.itemaction.impl.</text>
<text xml:space="preserve" text-anchor="middle" x="458.67" y="-84.41" font-family="Helvetica,sans-Serif" font-size="12.00">TridentOfTheSwamp</text>
</a>
</g>
</g>
<!-- Node1&#45;&gt;Node15 -->
<g id="edge14_Node000001_Node000015" class="edge">
<title>Node1&#45;&gt;Node15</title>
<g id="a_edge14_Node000001_Node000015"><a xlink:title=" ">
<path fill="none" stroke="#63b8ff" d="M141.09,-478.65C153.98,-401.31 194.76,-222.58 305.76,-130.81 315.25,-122.96 326.17,-116.8 337.7,-111.97"/>
<polygon fill="#63b8ff" stroke="#63b8ff" points="137.68,-477.82 139.56,-488.24 144.59,-478.92 137.68,-477.82"/>
</a>
</g>
</g>
<!-- Node16 -->
<g id="Node000016" class="node">
<title>Node16</title>
<g id="a_Node000016"><a xlink:href="classcom_1_1runehive_1_1content_1_1itemaction_1_1impl_1_1_viggoras_chainmace.html" target="_top" xlink:title=" ">
<ellipse fill="white" stroke="#666666" cx="458.67" cy="-25.81" rx="152.91" ry="25.81"/>
<text xml:space="preserve" text-anchor="start" x="358.55" y="-28.66" font-family="Helvetica,sans-Serif" font-size="12.00">com.runehive.content.itemaction.impl.</text>
<text xml:space="preserve" text-anchor="middle" x="458.67" y="-14.41" font-family="Helvetica,sans-Serif" font-size="12.00">ViggorasChainmace</text>
</a>
</g>
</g>
<!-- Node1&#45;&gt;Node16 -->
<g id="edge15_Node000001_Node000016" class="edge">
<title>Node1&#45;&gt;Node16</title>
<g id="a_edge15_Node000001_Node000016"><a xlink:title=" ">
<path fill="none" stroke="#63b8ff" d="M138.3,-478.3C146.04,-390.96 177.86,-172.98 305.76,-60.81 314.92,-52.78 325.55,-46.49 336.85,-41.58"/>
<polygon fill="#63b8ff" stroke="#63b8ff" points="134.82,-477.96 137.49,-488.22 141.79,-478.54 134.82,-477.96"/>
</a>
</g>
</g>
</g>
</svg>
