<?xml version="1.0" encoding="UTF-8" standalone="no"?>
<!DOCTYPE svg PUBLIC "-//W3C//DTD SVG 1.1//EN"
 "http://www.w3.org/Graphics/SVG/1.1/DTD/svg11.dtd">
<!-- Generated by graphviz version 14.0.1 (20251006.0113)
 -->
<!-- Title: com.runehive.content.clanchannel.channel.ClanChannelHandler.connect Pages: 1 -->
<svg width="1849pt" height="558pt"
 viewBox="0.00 0.00 1849.00 558.00" xmlns="http://www.w3.org/2000/svg" xmlns:xlink="http://www.w3.org/1999/xlink">
<g id="graph0" class="graph" transform="scale(1 1) rotate(0) translate(4 553.62)">
<title>com.runehive.content.clanchannel.channel.ClanChannelHandler.connect</title>
<!-- Node1 -->
<g id="Node000001" class="node">
<title>Node1</title>
<g id="a_Node000001"><a xlink:title="Handles player joining a clan channel.">
<ellipse fill="#999999" stroke="#666666" cx="174.66" cy="-256.81" rx="174.66" ry="25.81"/>
<text xml:space="preserve" text-anchor="start" x="59.16" y="-259.66" font-family="Helvetica,sans-Serif" font-size="12.00">com.runehive.content.clanchannel.channel.</text>
<text xml:space="preserve" text-anchor="middle" x="174.66" y="-245.41" font-family="Helvetica,sans-Serif" font-size="12.00">ClanChannelHandler.connect</text>
</a>
</g>
</g>
<!-- Node2 -->
<g id="Node000002" class="node">
<title>Node2</title>
<g id="a_Node000002"><a xlink:href="classcom_1_1runehive_1_1content_1_1clanchannel_1_1channel_1_1_clan_channel.html#a30751e22d1b5b6800629f6ef23ad9b2d" target="_top" xlink:title=" ">
<ellipse fill="white" stroke="#666666" cx="561.03" cy="-367.81" rx="174.66" ry="25.81"/>
<text xml:space="preserve" text-anchor="start" x="445.53" y="-370.66" font-family="Helvetica,sans-Serif" font-size="12.00">com.runehive.content.clanchannel.channel.</text>
<text xml:space="preserve" text-anchor="middle" x="561.03" y="-356.41" font-family="Helvetica,sans-Serif" font-size="12.00">ClanChannel.create</text>
</a>
</g>
</g>
<!-- Node1&#45;&gt;Node2 -->
<g id="edge1_Node000001_Node000002" class="edge">
<title>Node1&#45;&gt;Node2</title>
<g id="a_edge1_Node000001_Node000002"><a xlink:title=" ">
<path fill="none" stroke="#63b8ff" d="M241.68,-281.09C282.7,-295.69 336.69,-314.05 385.31,-327.81 405.36,-333.48 426.88,-338.93 447.72,-343.87"/>
<polygon fill="#63b8ff" stroke="#63b8ff" points="446.87,-347.27 457.41,-346.14 448.47,-340.45 446.87,-347.27"/>
</a>
</g>
</g>
<!-- Node5 -->
<g id="Node000005" class="node">
<title>Node5</title>
<g id="a_Node000005"><a xlink:href="classcom_1_1runehive_1_1content_1_1clanchannel_1_1_clan_repository.html#ad22f0aaf88bf0c37d980d079414cc012" target="_top" xlink:title="Returns the channel.">
<ellipse fill="white" stroke="#666666" cx="948.46" cy="-313.81" rx="142.31" ry="25.81"/>
<text xml:space="preserve" text-anchor="start" x="855.83" y="-316.66" font-family="Helvetica,sans-Serif" font-size="12.00">com.runehive.content.clanchannel.</text>
<text xml:space="preserve" text-anchor="middle" x="948.46" y="-302.41" font-family="Helvetica,sans-Serif" font-size="12.00">ClanRepository.getChannel</text>
</a>
</g>
</g>
<!-- Node1&#45;&gt;Node5 -->
<g id="edge12_Node000001_Node000005" class="edge">
<title>Node1&#45;&gt;Node5</title>
<g id="a_edge12_Node000001_Node000005"><a xlink:title=" ">
<path fill="none" stroke="#63b8ff" d="M331.84,-268.34C470.22,-278.56 670.57,-293.36 804.74,-303.27"/>
<polygon fill="#63b8ff" stroke="#63b8ff" points="804.15,-306.74 814.38,-303.98 804.67,-299.75 804.15,-306.74"/>
</a>
</g>
</g>
<!-- Node6 -->
<g id="Node000006" class="node">
<title>Node6</title>
<g id="a_Node000006"><a xlink:href="classcom_1_1runehive_1_1game_1_1world_1_1entity_1_1mob_1_1player_1_1_player.html#a448ed37dd7d81845d5493c3b63cad6f3" target="_top" xlink:title="Gets the name of this entity.">
<ellipse fill="white" stroke="#666666" cx="948.46" cy="-243.81" rx="175.72" ry="25.81"/>
<text xml:space="preserve" text-anchor="start" x="832.21" y="-246.66" font-family="Helvetica,sans-Serif" font-size="12.00">com.runehive.game.world.entity.mob.player.</text>
<text xml:space="preserve" text-anchor="middle" x="948.46" y="-232.41" font-family="Helvetica,sans-Serif" font-size="12.00">Player.getName</text>
</a>
</g>
</g>
<!-- Node1&#45;&gt;Node6 -->
<g id="edge13_Node000001_Node000006" class="edge">
<title>Node1&#45;&gt;Node6</title>
<g id="a_edge13_Node000001_Node000006"><a xlink:title=" ">
<path fill="none" stroke="#63b8ff" d="M349.75,-256.56C460.56,-256.08 607.09,-254.85 736.74,-251.81 746.69,-251.58 756.89,-251.3 767.2,-251"/>
<polygon fill="#63b8ff" stroke="#63b8ff" points="767,-254.51 776.89,-250.71 766.79,-247.51 767,-254.51"/>
</a>
</g>
</g>
<!-- Node9 -->
<g id="Node000009" class="node">
<title>Node9</title>
<g id="a_Node000009"><a xlink:href="classcom_1_1runehive_1_1game_1_1world_1_1entity_1_1mob_1_1player_1_1_player.html#ab8309e5d532b7540f48bf25f8dea92a8" target="_top" xlink:title=" ">
<ellipse fill="white" stroke="#666666" cx="948.46" cy="-173.81" rx="175.72" ry="25.81"/>
<text xml:space="preserve" text-anchor="start" x="832.21" y="-176.66" font-family="Helvetica,sans-Serif" font-size="12.00">com.runehive.game.world.entity.mob.player.</text>
<text xml:space="preserve" text-anchor="middle" x="948.46" y="-162.41" font-family="Helvetica,sans-Serif" font-size="12.00">Player.send</text>
</a>
</g>
</g>
<!-- Node1&#45;&gt;Node9 -->
<g id="edge22_Node000001_Node000009" class="edge">
<title>Node1&#45;&gt;Node9</title>
<g id="a_edge22_Node000001_Node000009"><a xlink:title=" ">
<path fill="none" stroke="#63b8ff" d="M342.35,-249.26C479.81,-242.35 663.66,-231.3 736.74,-218.81 753.11,-216.01 756.59,-212.67 772.74,-208.81 790.39,-204.6 809.13,-200.48 827.52,-196.63"/>
<polygon fill="#63b8ff" stroke="#63b8ff" points="828.05,-200.09 837.13,-194.64 826.63,-193.24 828.05,-200.09"/>
</a>
</g>
</g>
<!-- Node13 -->
<g id="Node000013" class="node">
<title>Node13</title>
<g id="a_Node000013"><a xlink:href="classcom_1_1runehive_1_1game_1_1world_1_1entity_1_1mob_1_1player_1_1_player.html#abc025401d6c96ea483428bfbfbbe59f4" target="_top" xlink:title=" ">
<ellipse fill="white" stroke="#666666" cx="561.03" cy="-95.81" rx="175.72" ry="25.81"/>
<text xml:space="preserve" text-anchor="start" x="444.78" y="-98.66" font-family="Helvetica,sans-Serif" font-size="12.00">com.runehive.game.world.entity.mob.player.</text>
<text xml:space="preserve" text-anchor="middle" x="561.03" y="-84.41" font-family="Helvetica,sans-Serif" font-size="12.00">Player.getUsername</text>
</a>
</g>
</g>
<!-- Node1&#45;&gt;Node13 -->
<g id="edge14_Node000001_Node000013" class="edge">
<title>Node1&#45;&gt;Node13</title>
<g id="a_edge14_Node000001_Node000013"><a xlink:title=" ">
<path fill="none" stroke="#63b8ff" d="M209.72,-231.25C249.69,-202.51 318.98,-156.49 385.31,-130.81 398.64,-125.65 412.86,-121.21 427.2,-117.4"/>
<polygon fill="#63b8ff" stroke="#63b8ff" points="427.88,-120.84 436.71,-114.98 426.16,-114.05 427.88,-120.84"/>
</a>
</g>
</g>
<!-- Node14 -->
<g id="Node000014" class="node">
<title>Node14</title>
<g id="a_Node000014"><a xlink:href="enumcom_1_1runehive_1_1game_1_1world_1_1entity_1_1mob_1_1player_1_1_player_right.html#ac9ded1e6bd40923f803c1500b253e52c" target="_top" xlink:title="Checks if the player is an ironman.">
<ellipse fill="white" stroke="#666666" cx="561.03" cy="-25.81" rx="175.72" ry="25.81"/>
<text xml:space="preserve" text-anchor="start" x="444.78" y="-28.66" font-family="Helvetica,sans-Serif" font-size="12.00">com.runehive.game.world.entity.mob.player.</text>
<text xml:space="preserve" text-anchor="middle" x="561.03" y="-14.41" font-family="Helvetica,sans-Serif" font-size="12.00">PlayerRight.isIronman</text>
</a>
</g>
</g>
<!-- Node1&#45;&gt;Node14 -->
<g id="edge15_Node000001_Node000014" class="edge">
<title>Node1&#45;&gt;Node14</title>
<g id="a_edge15_Node000001_Node000014"><a xlink:title=" ">
<path fill="none" stroke="#63b8ff" d="M195.35,-230.71C229.16,-187.9 302.66,-103.29 385.31,-60.81 396.05,-55.29 407.59,-50.64 419.41,-46.72"/>
<polygon fill="#63b8ff" stroke="#63b8ff" points="420.39,-50.08 428.9,-43.77 418.31,-43.4 420.39,-50.08"/>
</a>
</g>
</g>
<!-- Node15 -->
<g id="Node000015" class="node">
<title>Node15</title>
<g id="a_Node000015"><a xlink:href="classcom_1_1runehive_1_1content_1_1clanchannel_1_1channel_1_1_clan_channel.html#aaae4b951125533ed287fcf147ca4d694" target="_top" xlink:title=" ">
<ellipse fill="white" stroke="#666666" cx="561.03" cy="-453.81" rx="174.66" ry="25.81"/>
<text xml:space="preserve" text-anchor="start" x="445.53" y="-456.66" font-family="Helvetica,sans-Serif" font-size="12.00">com.runehive.content.clanchannel.channel.</text>
<text xml:space="preserve" text-anchor="middle" x="561.03" y="-442.41" font-family="Helvetica,sans-Serif" font-size="12.00">ClanChannel.load</text>
</a>
</g>
</g>
<!-- Node1&#45;&gt;Node15 -->
<g id="edge16_Node000001_Node000015" class="edge">
<title>Node1&#45;&gt;Node15</title>
<g id="a_edge16_Node000001_Node000015"><a xlink:title=" ">
<path fill="none" stroke="#63b8ff" d="M205.65,-282.46C244.68,-314.66 316.09,-369.7 385.31,-402.81 406.72,-413.05 430.61,-421.67 453.67,-428.74"/>
<polygon fill="#63b8ff" stroke="#63b8ff" points="452.52,-432.05 463.1,-431.55 454.52,-425.34 452.52,-432.05"/>
</a>
</g>
</g>
<!-- Node16 -->
<g id="Node000016" class="node">
<title>Node16</title>
<g id="a_Node000016"><a xlink:href="classcom_1_1runehive_1_1game_1_1world_1_1entity_1_1mob_1_1player_1_1_player.html#a330f0b0f76490448f4c6f8e68ea368c5" target="_top" xlink:title=" ">
<ellipse fill="white" stroke="#666666" cx="561.03" cy="-165.81" rx="175.72" ry="25.81"/>
<text xml:space="preserve" text-anchor="start" x="444.78" y="-168.66" font-family="Helvetica,sans-Serif" font-size="12.00">com.runehive.game.world.entity.mob.player.</text>
<text xml:space="preserve" text-anchor="middle" x="561.03" y="-154.41" font-family="Helvetica,sans-Serif" font-size="12.00">Player.message</text>
</a>
</g>
</g>
<!-- Node1&#45;&gt;Node16 -->
<g id="edge19_Node000001_Node000016" class="edge">
<title>Node1&#45;&gt;Node16</title>
<g id="a_edge19_Node000001_Node000016"><a xlink:title=" ">
<path fill="none" stroke="#63b8ff" d="M269.19,-234.66C325.45,-221.34 397.19,-204.36 455.34,-190.59"/>
<polygon fill="#63b8ff" stroke="#63b8ff" points="456.01,-194.03 464.93,-188.32 454.39,-187.22 456.01,-194.03"/>
</a>
</g>
</g>
<!-- Node3 -->
<g id="Node000003" class="node">
<title>Node3</title>
<g id="a_Node000003"><a xlink:href="classcom_1_1runehive_1_1content_1_1clanchannel_1_1_clan_repository.html#a29c0b51f8ab917ca217fcc62b2aa275c" target="_top" xlink:title="Adds the channel.">
<ellipse fill="white" stroke="#666666" cx="948.46" cy="-523.81" rx="142.31" ry="25.81"/>
<text xml:space="preserve" text-anchor="start" x="855.83" y="-526.66" font-family="Helvetica,sans-Serif" font-size="12.00">com.runehive.content.clanchannel.</text>
<text xml:space="preserve" text-anchor="middle" x="948.46" y="-512.41" font-family="Helvetica,sans-Serif" font-size="12.00">ClanRepository.addChannel</text>
</a>
</g>
</g>
<!-- Node2&#45;&gt;Node3 -->
<g id="edge2_Node000002_Node000003" class="edge">
<title>Node2&#45;&gt;Node3</title>
<g id="a_edge2_Node000002_Node000003"><a xlink:title=" ">
<path fill="none" stroke="#63b8ff" d="M678.13,-387.32C699.19,-394.69 719.8,-404.83 736.74,-418.81 763.73,-441.08 744.82,-467.73 772.74,-488.81 783.75,-497.12 796.22,-503.6 809.31,-508.63"/>
<polygon fill="#63b8ff" stroke="#63b8ff" points="807.91,-511.84 818.5,-511.86 810.23,-505.24 807.91,-511.84"/>
</a>
</g>
</g>
<!-- Node4 -->
<g id="Node000004" class="node">
<title>Node4</title>
<g id="a_Node000004"><a xlink:href="classcom_1_1runehive_1_1content_1_1clanchannel_1_1channel_1_1_clan_channel.html#aa2df8efc445aadf4b1052897e3acef95" target="_top" xlink:title=" ">
<ellipse fill="white" stroke="#666666" cx="948.46" cy="-453.81" rx="174.66" ry="25.81"/>
<text xml:space="preserve" text-anchor="start" x="832.96" y="-456.66" font-family="Helvetica,sans-Serif" font-size="12.00">com.runehive.content.clanchannel.channel.</text>
<text xml:space="preserve" text-anchor="middle" x="948.46" y="-442.41" font-family="Helvetica,sans-Serif" font-size="12.00">ClanChannel.ClanChannel</text>
</a>
</g>
</g>
<!-- Node2&#45;&gt;Node4 -->
<g id="edge3_Node000002_Node000004" class="edge">
<title>Node2&#45;&gt;Node4</title>
<g id="a_edge3_Node000002_Node000004"><a xlink:title=" ">
<path fill="none" stroke="#63b8ff" d="M651.56,-390.31C688.94,-399.49 732.87,-409.99 772.74,-418.81 791.05,-422.86 810.48,-426.95 829.48,-430.84"/>
<polygon fill="#63b8ff" stroke="#63b8ff" points="828.62,-434.24 839.12,-432.8 830.02,-427.38 828.62,-434.24"/>
</a>
</g>
</g>
<!-- Node2&#45;&gt;Node5 -->
<g id="edge4_Node000002_Node000005" class="edge">
<title>Node2&#45;&gt;Node5</title>
<g id="a_edge4_Node000002_Node000005"><a xlink:title=" ">
<path fill="none" stroke="#63b8ff" d="M689.57,-349.94C732.63,-343.91 780.61,-337.19 823.4,-331.19"/>
<polygon fill="#63b8ff" stroke="#63b8ff" points="823.82,-334.67 833.24,-329.81 822.85,-327.73 823.82,-334.67"/>
</a>
</g>
</g>
<!-- Node2&#45;&gt;Node6 -->
<g id="edge5_Node000002_Node000006" class="edge">
<title>Node2&#45;&gt;Node6</title>
<g id="a_edge5_Node000002_Node000006"><a xlink:title=" ">
<path fill="none" stroke="#63b8ff" d="M612.9,-342.89C654.92,-323.15 716.57,-296.1 772.74,-278.81 788.26,-274.03 804.77,-269.74 821.2,-265.94"/>
<polygon fill="#63b8ff" stroke="#63b8ff" points="821.51,-269.46 830.5,-263.84 819.97,-262.63 821.51,-269.46"/>
</a>
</g>
</g>
<!-- Node8 -->
<g id="Node000008" class="node">
<title>Node8</title>
<g id="a_Node000008"><a xlink:href="classcom_1_1runehive_1_1util_1_1_utility.html#afa0a0d50c1682352638f8357ed3313e6" target="_top" xlink:title="Gets the date of server.">
<ellipse fill="white" stroke="#666666" cx="948.46" cy="-383.81" rx="112.08" ry="25.81"/>
<text xml:space="preserve" text-anchor="start" x="877.21" y="-386.66" font-family="Helvetica,sans-Serif" font-size="12.00">com.runehive.util.Utility.get</text>
<text xml:space="preserve" text-anchor="middle" x="948.46" y="-372.41" font-family="Helvetica,sans-Serif" font-size="12.00">SimpleDate</text>
</a>
</g>
</g>
<!-- Node2&#45;&gt;Node8 -->
<g id="edge7_Node000002_Node000008" class="edge">
<title>Node2&#45;&gt;Node8</title>
<g id="a_edge7_Node000002_Node000008"><a xlink:title=" ">
<path fill="none" stroke="#63b8ff" d="M729.68,-374.77C762.23,-376.12 795.74,-377.51 826.43,-378.79"/>
<polygon fill="#63b8ff" stroke="#63b8ff" points="825.95,-382.27 836.09,-379.19 826.24,-375.27 825.95,-382.27"/>
</a>
</g>
</g>
<!-- Node2&#45;&gt;Node9 -->
<g id="edge8_Node000002_Node000009" class="edge">
<title>Node2&#45;&gt;Node9</title>
<g id="a_edge8_Node000002_Node000009"><a xlink:title=" ">
<path fill="none" stroke="#63b8ff" d="M607.64,-342.48C644.47,-320.9 696.59,-287.74 736.74,-251.81 755.32,-235.19 751.31,-221.53 772.74,-208.81 782.22,-203.18 792.44,-198.45 803.02,-194.46"/>
<polygon fill="#63b8ff" stroke="#63b8ff" points="803.99,-197.83 812.27,-191.22 801.68,-191.22 803.99,-197.83"/>
</a>
</g>
</g>
<!-- Node7 -->
<g id="Node000007" class="node">
<title>Node7</title>
<g id="a_Node000007"><a xlink:href="classcom_1_1runehive_1_1util_1_1_utility.html#a04d5eb201f824f0f367a9fb60f2f2814" target="_top" xlink:title=" ">
<ellipse fill="white" stroke="#666666" cx="1306.72" cy="-243.81" rx="146.55" ry="15.73"/>
<text xml:space="preserve" text-anchor="middle" x="1306.72" y="-239.53" font-family="Helvetica,sans-Serif" font-size="12.00">com.runehive.util.Utility.formatName</text>
</a>
</g>
</g>
<!-- Node6&#45;&gt;Node7 -->
<g id="edge6_Node000006_Node000007" class="edge">
<title>Node6&#45;&gt;Node7</title>
<g id="a_edge6_Node000006_Node000007"><a xlink:title=" ">
<path fill="none" stroke="#63b8ff" d="M1124.46,-243.81C1132.38,-243.81 1140.31,-243.81 1148.19,-243.81"/>
<polygon fill="#63b8ff" stroke="#63b8ff" points="1148.16,-247.31 1158.16,-243.81 1148.16,-240.31 1148.16,-247.31"/>
</a>
</g>
</g>
<!-- Node10 -->
<g id="Node000010" class="node">
<title>Node10</title>
<g id="a_Node000010"><a xlink:href="classcom_1_1runehive_1_1net_1_1packet_1_1_outgoing_packet.html#a3dde4d77b8c8bbd686b8e121fd6514a7" target="_top" xlink:title=" ">
<ellipse fill="white" stroke="#666666" cx="1306.72" cy="-173.81" rx="105.18" ry="25.81"/>
<text xml:space="preserve" text-anchor="start" x="1240.35" y="-176.66" font-family="Helvetica,sans-Serif" font-size="12.00">com.runehive.net.packet.</text>
<text xml:space="preserve" text-anchor="middle" x="1306.72" y="-162.41" font-family="Helvetica,sans-Serif" font-size="12.00">OutgoingPacket.execute</text>
</a>
</g>
</g>
<!-- Node9&#45;&gt;Node10 -->
<g id="edge9_Node000009_Node000010" class="edge">
<title>Node9&#45;&gt;Node10</title>
<g id="a_edge9_Node000009_Node000010"><a xlink:title=" ">
<path fill="none" stroke="#63b8ff" d="M1124.46,-173.81C1146.58,-173.81 1168.77,-173.81 1189.66,-173.81"/>
<polygon fill="#63b8ff" stroke="#63b8ff" points="1189.6,-177.31 1199.6,-173.81 1189.6,-170.31 1189.6,-177.31"/>
</a>
</g>
</g>
<!-- Node11 -->
<g id="Node000011" class="node">
<title>Node11</title>
<g id="a_Node000011"><a xlink:href="classcom_1_1runehive_1_1net_1_1packet_1_1_outgoing_packet.html#a74fc13c106ab76f87daec1e8bab6a2a1" target="_top" xlink:title=" ">
<ellipse fill="white" stroke="#666666" cx="1664.99" cy="-208.81" rx="105.18" ry="25.81"/>
<text xml:space="preserve" text-anchor="start" x="1598.61" y="-211.66" font-family="Helvetica,sans-Serif" font-size="12.00">com.runehive.net.packet.</text>
<text xml:space="preserve" text-anchor="middle" x="1664.99" y="-197.41" font-family="Helvetica,sans-Serif" font-size="12.00">OutgoingPacket.encode</text>
</a>
</g>
</g>
<!-- Node10&#45;&gt;Node11 -->
<g id="edge10_Node000010_Node000011" class="edge">
<title>Node10&#45;&gt;Node11</title>
<g id="a_edge10_Node000010_Node000011"><a xlink:title=" ">
<path fill="none" stroke="#63b8ff" d="M1405.07,-183.37C1451.61,-187.95 1507.48,-193.43 1555.39,-198.14"/>
<polygon fill="#63b8ff" stroke="#63b8ff" points="1554.95,-201.61 1565.25,-199.11 1555.64,-194.65 1554.95,-201.61"/>
</a>
</g>
</g>
<!-- Node12 -->
<g id="Node000012" class="node">
<title>Node12</title>
<g id="a_Node000012"><a xlink:href="classcom_1_1runehive_1_1game_1_1world_1_1entity_1_1mob_1_1player_1_1_player.html#a908fb61974719a74180d6300b838bfe1" target="_top" xlink:title=" ">
<ellipse fill="white" stroke="#666666" cx="1664.99" cy="-138.81" rx="175.72" ry="25.81"/>
<text xml:space="preserve" text-anchor="start" x="1548.74" y="-141.66" font-family="Helvetica,sans-Serif" font-size="12.00">com.runehive.game.world.entity.mob.player.</text>
<text xml:space="preserve" text-anchor="middle" x="1664.99" y="-127.41" font-family="Helvetica,sans-Serif" font-size="12.00">Player.getSession</text>
</a>
</g>
</g>
<!-- Node10&#45;&gt;Node12 -->
<g id="edge11_Node000010_Node000012" class="edge">
<title>Node10&#45;&gt;Node12</title>
<g id="a_edge11_Node000010_Node000012"><a xlink:title=" ">
<path fill="none" stroke="#63b8ff" d="M1405.07,-164.25C1436.4,-161.17 1471.95,-157.68 1506.46,-154.29"/>
<polygon fill="#63b8ff" stroke="#63b8ff" points="1506.5,-157.8 1516.11,-153.34 1505.82,-150.83 1506.5,-157.8"/>
</a>
</g>
</g>
<!-- Node15&#45;&gt;Node3 -->
<g id="edge17_Node000015_Node000003" class="edge">
<title>Node15&#45;&gt;Node3</title>
<g id="a_edge17_Node000015_Node000003"><a xlink:title=" ">
<path fill="none" stroke="#63b8ff" d="M672.99,-473.96C723.96,-483.22 784.29,-494.18 835.4,-503.46"/>
<polygon fill="#63b8ff" stroke="#63b8ff" points="834.53,-506.86 845,-505.2 835.79,-499.97 834.53,-506.86"/>
</a>
</g>
</g>
<!-- Node15&#45;&gt;Node4 -->
<g id="edge18_Node000015_Node000004" class="edge">
<title>Node15&#45;&gt;Node4</title>
<g id="a_edge18_Node000015_Node000004"><a xlink:title=" ">
<path fill="none" stroke="#63b8ff" d="M736.14,-453.81C744.74,-453.81 753.39,-453.81 762.02,-453.81"/>
<polygon fill="#63b8ff" stroke="#63b8ff" points="761.83,-457.31 771.83,-453.81 761.83,-450.31 761.83,-457.31"/>
</a>
</g>
</g>
<!-- Node16&#45;&gt;Node9 -->
<g id="edge21_Node000016_Node000009" class="edge">
<title>Node16&#45;&gt;Node9</title>
<g id="a_edge21_Node000016_Node000009"><a xlink:title=" ">
<path fill="none" stroke="#63b8ff" d="M735.57,-169.41C744.57,-169.6 753.61,-169.79 762.64,-169.97"/>
<polygon fill="#63b8ff" stroke="#63b8ff" points="762.47,-173.47 772.54,-170.18 762.61,-166.47 762.47,-173.47"/>
</a>
</g>
</g>
<!-- Node16&#45;&gt;Node16 -->
<g id="edge20_Node000016_Node000016" class="edge">
<title>Node16&#45;&gt;Node16</title>
<g id="a_edge20_Node000016_Node000016"><a xlink:title=" ">
<path fill="none" stroke="#63b8ff" d="M489.71,-189.69C482.92,-200.38 506.69,-209.62 561.03,-209.62 596.26,-209.62 618.64,-205.73 628.17,-200.09"/>
<polygon fill="#63b8ff" stroke="#63b8ff" points="631.3,-201.68 631.78,-191.1 624.81,-199.08 631.3,-201.68"/>
</a>
</g>
</g>
</g>
</svg>
