<?xml version="1.0" encoding="UTF-8" standalone="no"?>
<!DOCTYPE svg PUBLIC "-//W3C//DTD SVG 1.1//EN"
 "http://www.w3.org/Graphics/SVG/1.1/DTD/svg11.dtd">
<!-- Generated by graphviz version 14.0.1 (20251006.0113)
 -->
<!-- Title: com.runehive.content.tradingpost.TradingPost.getListingsByName Pages: 1 -->
<svg width="1655pt" height="238pt"
 viewBox="0.00 0.00 1655.00 238.00" xmlns="http://www.w3.org/2000/svg" xmlns:xlink="http://www.w3.org/1999/xlink">
<g id="graph0" class="graph" transform="scale(1 1) rotate(0) translate(4 233.62)">
<title>com.runehive.content.tradingpost.TradingPost.getListingsByName</title>
<!-- Node1 -->
<g id="Node000001" class="node">
<title>Node1</title>
<g id="a_Node000001"><a xlink:title=" ">
<ellipse fill="#999999" stroke="#666666" cx="1508.54" cy="-106.81" rx="138.06" ry="25.81"/>
<text xml:space="preserve" text-anchor="start" x="1418.91" y="-109.66" font-family="Helvetica,sans-Serif" font-size="12.00">com.runehive.content.tradingpost.</text>
<text xml:space="preserve" text-anchor="middle" x="1508.54" y="-95.41" font-family="Helvetica,sans-Serif" font-size="12.00">TradingPost.getListingsByName</text>
</a>
</g>
</g>
<!-- Node2 -->
<g id="Node000002" class="node">
<title>Node2</title>
<g id="a_Node000002"><a xlink:href="classcom_1_1runehive_1_1content_1_1tradingpost_1_1_trading_post.html#a711957819cd0b7d54d6df53fed6334ba" target="_top" xlink:title=" ">
<ellipse fill="white" stroke="#666666" cx="834.97" cy="-203.81" rx="138.06" ry="25.81"/>
<text xml:space="preserve" text-anchor="start" x="745.34" y="-206.66" font-family="Helvetica,sans-Serif" font-size="12.00">com.runehive.content.tradingpost.</text>
<text xml:space="preserve" text-anchor="middle" x="834.97" y="-192.41" font-family="Helvetica,sans-Serif" font-size="12.00">TradingPost.confirmToAddListing</text>
</a>
</g>
</g>
<!-- Node1&#45;&gt;Node2 -->
<g id="edge1_Node000001_Node000002" class="edge">
<title>Node1&#45;&gt;Node2</title>
<g id="a_edge1_Node000001_Node000002"><a xlink:title=" ">
<path fill="none" stroke="#63b8ff" d="M1442.4,-134.93C1410.47,-147.47 1371.1,-161.12 1334.48,-168.81 1214.12,-194.09 1074.21,-202.11 973.3,-204.22"/>
<polygon fill="#63b8ff" stroke="#63b8ff" points="1443.53,-138.24 1451.52,-131.29 1440.94,-131.74 1443.53,-138.24"/>
</a>
</g>
</g>
<!-- Node5 -->
<g id="Node000005" class="node">
<title>Node5</title>
<g id="a_Node000005"><a xlink:href="classcom_1_1runehive_1_1content_1_1tradingpost_1_1_trading_post.html#a28058763802852e223b13865f39d4cac" target="_top" xlink:title=" ">
<ellipse fill="white" stroke="#666666" cx="481.48" cy="-95.81" rx="164.58" ry="25.81"/>
<text xml:space="preserve" text-anchor="start" x="373.1" y="-98.66" font-family="Helvetica,sans-Serif" font-size="12.00">com.runehive.content.tradingpost.</text>
<text xml:space="preserve" text-anchor="middle" x="481.48" y="-84.41" font-family="Helvetica,sans-Serif" font-size="12.00">TradingPost.handleDismissListingButton</text>
</a>
</g>
</g>
<!-- Node1&#45;&gt;Node5 -->
<g id="edge4_Node000001_Node000005" class="edge">
<title>Node1&#45;&gt;Node5</title>
<g id="a_edge4_Node000001_Node000005"><a xlink:title=" ">
<path fill="none" stroke="#63b8ff" d="M1363.33,-99.68C1353.56,-99.34 1343.88,-99.04 1334.48,-98.81 1095.11,-92.86 817.8,-93.23 646.24,-94.31"/>
<polygon fill="#63b8ff" stroke="#63b8ff" points="1363.17,-103.18 1373.29,-100.04 1363.43,-96.18 1363.17,-103.18"/>
</a>
</g>
</g>
<!-- Node6 -->
<g id="Node000006" class="node">
<title>Node6</title>
<g id="a_Node000006"><a xlink:href="classcom_1_1runehive_1_1content_1_1tradingpost_1_1_trading_post.html#a16a7c9e73cb8f49283a2378de17ddf0b" target="_top" xlink:title=" ">
<ellipse fill="white" stroke="#666666" cx="1176.79" cy="-25.81" rx="138.06" ry="25.81"/>
<text xml:space="preserve" text-anchor="start" x="1087.17" y="-28.66" font-family="Helvetica,sans-Serif" font-size="12.00">com.runehive.content.tradingpost.</text>
<text xml:space="preserve" text-anchor="middle" x="1176.79" y="-14.41" font-family="Helvetica,sans-Serif" font-size="12.00">TradingPost.purchase</text>
</a>
</g>
</g>
<!-- Node1&#45;&gt;Node6 -->
<g id="edge6_Node000001_Node000006" class="edge">
<title>Node1&#45;&gt;Node6</title>
<g id="a_edge6_Node000001_Node000006"><a xlink:title=" ">
<path fill="none" stroke="#63b8ff" d="M1412.55,-83.48C1365,-71.8 1307.95,-57.78 1261.99,-46.49"/>
<polygon fill="#63b8ff" stroke="#63b8ff" points="1411.46,-86.81 1422.01,-85.8 1413.13,-80.01 1411.46,-86.81"/>
</a>
</g>
</g>
<!-- Node9 -->
<g id="Node000009" class="node">
<title>Node9</title>
<g id="a_Node000009"><a xlink:href="classcom_1_1runehive_1_1content_1_1tradingpost_1_1_trading_post.html#add987e44fe44dc2857afda4093b17081" target="_top" xlink:title=" ">
<ellipse fill="white" stroke="#666666" cx="1176.79" cy="-133.81" rx="157.68" ry="25.81"/>
<text xml:space="preserve" text-anchor="start" x="1073.29" y="-136.66" font-family="Helvetica,sans-Serif" font-size="12.00">com.runehive.content.tradingpost.</text>
<text xml:space="preserve" text-anchor="middle" x="1176.79" y="-122.41" font-family="Helvetica,sans-Serif" font-size="12.00">TradingPost.updateExistingListingsList</text>
</a>
</g>
</g>
<!-- Node1&#45;&gt;Node9 -->
<g id="edge10_Node000001_Node000009" class="edge">
<title>Node1&#45;&gt;Node9</title>
<g id="a_edge10_Node000001_Node000009"><a xlink:title=" ">
<path fill="none" stroke="#63b8ff" d="M1370.31,-118.05C1353.25,-119.44 1335.77,-120.87 1318.65,-122.28"/>
<polygon fill="#63b8ff" stroke="#63b8ff" points="1370.28,-121.56 1379.96,-117.26 1369.7,-114.58 1370.28,-121.56"/>
</a>
</g>
</g>
<!-- Node3 -->
<g id="Node000003" class="node">
<title>Node3</title>
<g id="a_Node000003"><a xlink:href="classcom_1_1runehive_1_1content_1_1tradingpost_1_1_trading_post.html#ab969ec3dc9b76409e5bc526d8836c872" target="_top" xlink:title=" ">
<ellipse fill="white" stroke="#666666" cx="481.48" cy="-203.81" rx="169.35" ry="25.81"/>
<text xml:space="preserve" text-anchor="start" x="369.73" y="-206.66" font-family="Helvetica,sans-Serif" font-size="12.00">com.runehive.content.tradingpost.</text>
<text xml:space="preserve" text-anchor="middle" x="481.48" y="-192.41" font-family="Helvetica,sans-Serif" font-size="12.00">TradingPost.handleSellingOverlayButtons</text>
</a>
</g>
</g>
<!-- Node2&#45;&gt;Node3 -->
<g id="edge2_Node000002_Node000003" class="edge">
<title>Node2&#45;&gt;Node3</title>
<g id="a_edge2_Node000002_Node000003"><a xlink:title=" ">
<path fill="none" stroke="#63b8ff" d="M685.31,-203.81C673.99,-203.81 662.52,-203.81 651.09,-203.81"/>
<polygon fill="#63b8ff" stroke="#63b8ff" points="685.05,-207.31 695.05,-203.81 685.05,-200.31 685.05,-207.31"/>
</a>
</g>
</g>
<!-- Node4 -->
<g id="Node000004" class="node">
<title>Node4</title>
<g id="a_Node000004"><a xlink:href="classcom_1_1runehive_1_1content_1_1tradingpost_1_1_trading_post.html#a35f877dfbc040301d543d5cb756cc251" target="_top" xlink:title=" ">
<ellipse fill="white" stroke="#666666" cx="138.06" cy="-122.81" rx="138.06" ry="25.81"/>
<text xml:space="preserve" text-anchor="start" x="48.44" y="-125.66" font-family="Helvetica,sans-Serif" font-size="12.00">com.runehive.content.tradingpost.</text>
<text xml:space="preserve" text-anchor="middle" x="138.06" y="-111.41" font-family="Helvetica,sans-Serif" font-size="12.00">TradingPost.handleButtonClick</text>
</a>
</g>
</g>
<!-- Node3&#45;&gt;Node4 -->
<g id="edge3_Node000003_Node000004" class="edge">
<title>Node3&#45;&gt;Node4</title>
<g id="a_edge3_Node000003_Node000004"><a xlink:title=" ">
<path fill="none" stroke="#63b8ff" d="M376.91,-179.24C328.36,-167.72 271.2,-154.16 225.08,-143.22"/>
<polygon fill="#63b8ff" stroke="#63b8ff" points="376.07,-182.64 386.61,-181.54 377.69,-175.83 376.07,-182.64"/>
</a>
</g>
</g>
<!-- Node5&#45;&gt;Node4 -->
<g id="edge5_Node000005_Node000004" class="edge">
<title>Node5&#45;&gt;Node4</title>
<g id="a_edge5_Node000005_Node000004"><a xlink:title=" ">
<path fill="none" stroke="#63b8ff" d="M322.33,-108.32C303.48,-109.81 284.44,-111.31 266.11,-112.76"/>
<polygon fill="#63b8ff" stroke="#63b8ff" points="322.5,-111.81 332.2,-107.54 321.95,-104.84 322.5,-111.81"/>
</a>
</g>
</g>
<!-- Node7 -->
<g id="Node000007" class="node">
<title>Node7</title>
<g id="a_Node000007"><a xlink:href="classcom_1_1runehive_1_1content_1_1tradingpost_1_1_trading_post.html#a770f1d7ebfac91146e44bc93f5ac1e11" target="_top" xlink:title=" ">
<ellipse fill="white" stroke="#666666" cx="834.97" cy="-25.81" rx="148.14" ry="25.81"/>
<text xml:space="preserve" text-anchor="start" x="738.22" y="-28.66" font-family="Helvetica,sans-Serif" font-size="12.00">com.runehive.content.tradingpost.</text>
<text xml:space="preserve" text-anchor="middle" x="834.97" y="-14.41" font-family="Helvetica,sans-Serif" font-size="12.00">TradingPost.buyingDialogueOptions</text>
</a>
</g>
</g>
<!-- Node6&#45;&gt;Node7 -->
<g id="edge7_Node000006_Node000007" class="edge">
<title>Node6&#45;&gt;Node7</title>
<g id="a_edge7_Node000006_Node000007"><a xlink:title=" ">
<path fill="none" stroke="#63b8ff" d="M1027.44,-25.81C1012.84,-25.81 998.03,-25.81 983.44,-25.81"/>
<polygon fill="#63b8ff" stroke="#63b8ff" points="1027.04,-29.31 1037.04,-25.81 1027.04,-22.31 1027.04,-29.31"/>
</a>
</g>
</g>
<!-- Node8 -->
<g id="Node000008" class="node">
<title>Node8</title>
<g id="a_Node000008"><a xlink:href="classcom_1_1runehive_1_1content_1_1tradingpost_1_1_trading_post.html#a20278fe5d8ebd0127e237d81109ccb7c" target="_top" xlink:title=" ">
<ellipse fill="white" stroke="#666666" cx="481.48" cy="-25.81" rx="138.06" ry="25.81"/>
<text xml:space="preserve" text-anchor="start" x="391.85" y="-28.66" font-family="Helvetica,sans-Serif" font-size="12.00">com.runehive.content.tradingpost.</text>
<text xml:space="preserve" text-anchor="middle" x="481.48" y="-14.41" font-family="Helvetica,sans-Serif" font-size="12.00">TradingPost.handleBuyingButton</text>
</a>
</g>
</g>
<!-- Node7&#45;&gt;Node8 -->
<g id="edge8_Node000007_Node000008" class="edge">
<title>Node7&#45;&gt;Node8</title>
<g id="a_edge8_Node000007_Node000008"><a xlink:title=" ">
<path fill="none" stroke="#63b8ff" d="M675,-25.81C656.58,-25.81 637.92,-25.81 619.82,-25.81"/>
<polygon fill="#63b8ff" stroke="#63b8ff" points="674.92,-29.31 684.92,-25.81 674.92,-22.31 674.92,-29.31"/>
</a>
</g>
</g>
<!-- Node8&#45;&gt;Node4 -->
<g id="edge9_Node000008_Node000004" class="edge">
<title>Node8&#45;&gt;Node4</title>
<g id="a_edge9_Node000008_Node000004"><a xlink:title=" ">
<path fill="none" stroke="#63b8ff" d="M370.44,-46.39C350.9,-50.69 330.83,-55.54 312.13,-60.81 273.72,-71.62 231.56,-86.66 198.47,-99.21"/>
<polygon fill="#63b8ff" stroke="#63b8ff" points="371.04,-49.84 380.07,-44.3 369.56,-43 371.04,-49.84"/>
</a>
</g>
</g>
<!-- Node9&#45;&gt;Node2 -->
<g id="edge11_Node000009_Node000002" class="edge">
<title>Node9&#45;&gt;Node2</title>
<g id="a_edge11_Node000009_Node000002"><a xlink:title=" ">
<path fill="none" stroke="#63b8ff" d="M1065.99,-156.43C1021.93,-165.5 971.68,-175.85 929.42,-184.56"/>
<polygon fill="#63b8ff" stroke="#63b8ff" points="1066.47,-159.9 1075.56,-154.46 1065.06,-153.05 1066.47,-159.9"/>
</a>
</g>
</g>
<!-- Node10 -->
<g id="Node000010" class="node">
<title>Node10</title>
<g id="a_Node000010"><a xlink:href="classcom_1_1runehive_1_1content_1_1tradingpost_1_1_trading_post.html#a7581ef76ec6ab5149343d88bb4bfaf7f" target="_top" xlink:title=" ">
<ellipse fill="white" stroke="#666666" cx="834.97" cy="-133.81" rx="146.02" ry="25.81"/>
<text xml:space="preserve" text-anchor="start" x="739.72" y="-136.66" font-family="Helvetica,sans-Serif" font-size="12.00">com.runehive.content.tradingpost.</text>
<text xml:space="preserve" text-anchor="middle" x="834.97" y="-122.41" font-family="Helvetica,sans-Serif" font-size="12.00">TradingPost.openOverviewInterface</text>
</a>
</g>
</g>
<!-- Node9&#45;&gt;Node10 -->
<g id="edge12_Node000009_Node000010" class="edge">
<title>Node9&#45;&gt;Node10</title>
<g id="a_edge12_Node000009_Node000010"><a xlink:title=" ">
<path fill="none" stroke="#63b8ff" d="M1007.35,-133.81C998.62,-133.81 989.89,-133.81 981.24,-133.81"/>
<polygon fill="#63b8ff" stroke="#63b8ff" points="1007.3,-137.31 1017.3,-133.81 1007.3,-130.31 1007.3,-137.31"/>
</a>
</g>
</g>
<!-- Node10&#45;&gt;Node4 -->
<g id="edge13_Node000010_Node000004" class="edge">
<title>Node10&#45;&gt;Node4</title>
<g id="a_edge13_Node000010_Node000004"><a xlink:title=" ">
<path fill="none" stroke="#63b8ff" d="M677.07,-134.56C573.45,-134.65 434.67,-133.99 312.13,-130.81 299.05,-130.47 285.41,-130.01 271.8,-129.49"/>
<polygon fill="#63b8ff" stroke="#63b8ff" points="677.06,-138.06 687.06,-134.55 677.06,-131.06 677.06,-138.06"/>
</a>
</g>
</g>
<!-- Node10&#45;&gt;Node5 -->
<g id="edge14_Node000010_Node000005" class="edge">
<title>Node10&#45;&gt;Node5</title>
<g id="a_edge14_Node000010_Node000005"><a xlink:title=" ">
<path fill="none" stroke="#63b8ff" d="M698.39,-119.15C672.14,-116.31 644.63,-113.34 618.38,-110.5"/>
<polygon fill="#63b8ff" stroke="#63b8ff" points="697.73,-122.6 708.05,-120.2 698.48,-115.64 697.73,-122.6"/>
</a>
</g>
</g>
</g>
</svg>
