<?xml version="1.0" encoding="UTF-8" standalone="no"?>
<!DOCTYPE svg PUBLIC "-//W3C//DTD SVG 1.1//EN"
 "http://www.w3.org/Graphics/SVG/1.1/DTD/svg11.dtd">
<!-- Generated by graphviz version 14.0.1 (20251006.0113)
 -->
<!-- Title: com.runehive.game.world.entity.mob.player.Player.toString Pages: 1 -->
<!--zoomable 270 -->

<svg id="main" version="1.1" xmlns="http://www.w3.org/2000/svg" xmlns:xlink="http://www.w3.org/1999/xlink" xml:space="preserve" onload="init(evt)">

<style type="text/css"><![CDATA[
.node, .edge {opacity: 0.7;}
.node.selected, .edge.selected {opacity: 1;}
.edge:hover path { stroke: red; }
.edge:hover polygon { stroke: red; fill: red; }
]]></style>

<defs>
  <circle id="rim" cx="0" cy="0" r="7"/>
  <circle id="rim2" cx="0" cy="0" r="3.5"/>
  <g id="zoomPlus">
    <use xlink:href="#rim" fill="#404040"><set attributeName="fill" to="#808080" begin="zoomplus.mouseover" end="zoomplus.mouseout"/></use>
    <path d="M-4,0h8M0,-4v8" fill="none" stroke="white" stroke-width="1.5" pointer-events="none"/>
  </g>
  <g id="zoomMin">
    <use xlink:href="#rim" fill="#404040"><set attributeName="fill" to="#808080" begin="zoomminus.mouseover" end="zoomminus.mouseout"/></use>
    <path d="M-4,0h8" fill="none" stroke="white" stroke-width="1.5" pointer-events="none"/>
  </g>
  <g id="arrowUp" transform="translate(30 24)">
    <use xlink:href="#rim"/>
    <path pointer-events="none" fill="none" stroke="white" stroke-width="1.5" d="M0,-3.0v7 M-2.5,-0.5L0,-3.0L2.5,-0.5"/>
  </g>
  <g id="arrowRight" transform="rotate(90) translate(36 -43)">
    <use xlink:href="#rim"/>
    <path pointer-events="none" fill="none" stroke="white" stroke-width="1.5" d="M0,-3.0v7 M-2.5,-0.5L0,-3.0L2.5,-0.5"/>
  </g>
  <g id="arrowDown" transform="rotate(180) translate(-30 -48)">
    <use xlink:href="#rim"/>
    <path pointer-events="none" fill="none" stroke="white" stroke-width="1.5" d="M0,-3.0v7 M-2.5,-0.5L0,-3.0L2.5,-0.5"/>
  </g>
  <g id="arrowLeft" transform="rotate(270) translate(-36 17)">
    <use xlink:href="#rim"/>
    <path pointer-events="none" fill="none" stroke="white" stroke-width="1.5" d="M0,-3.0v7 M-2.5,-0.5L0,-3.0L2.5,-0.5"/>
  </g>
  <g id="resetDef">
    <use xlink:href="#rim2" fill="#404040"><set attributeName="fill" to="#808080" begin="reset.mouseover" end="reset.mouseout"/></use>
  </g>
</defs>
<script type="application/ecmascript">
var viewWidth = 747;
var viewHeight = 270;
var sectionId = 'dynsection-78';
</script>
<script type="application/ecmascript" xlink:href="svg.min.js"/>
<svg id="graph" class="graph">
<g id="viewport">
<title>com.runehive.game.world.entity.mob.player.Player.toString</title>
<!-- Node1 -->
<g id="Node000001" class="node">
<title>Node1</title>
<g id="a_Node000001"><a xlink:title=" ">
<ellipse fill="#999999" stroke="#666666" cx="175.72" cy="-130.81" rx="175.72" ry="25.81"/>
<text xml:space="preserve" text-anchor="start" x="59.47" y="-133.66" font-family="Helvetica,sans-Serif" font-size="12.00">com.runehive.game.world.entity.mob.player.</text>
<text xml:space="preserve" text-anchor="middle" x="175.72" y="-119.41" font-family="Helvetica,sans-Serif" font-size="12.00">Player.toString</text>
</a>
</g>
</g>
<!-- Node2 -->
<g id="Node000002" class="node">
<title>Node2</title>
<g id="a_Node000002"><a xlink:href="classcom_1_1runehive_1_1game_1_1world_1_1entity_1_1_entity.html#a09cee7c391bb1206725815ce0f3cd1f1" target="_top" xlink:title=" ">
<ellipse fill="white" stroke="#666666" cx="563.15" cy="-235.81" rx="132.23" ry="25.81"/>
<text xml:space="preserve" text-anchor="start" x="477.65" y="-238.66" font-family="Helvetica,sans-Serif" font-size="12.00">com.runehive.game.world.entity.</text>
<text xml:space="preserve" text-anchor="middle" x="563.15" y="-224.41" font-family="Helvetica,sans-Serif" font-size="12.00">Entity.getIndex</text>
</a>
</g>
</g>
<!-- Node1&#45;&gt;Node2 -->
<g id="edge1_Node000001_Node000002" class="edge">
<title>Node1&#45;&gt;Node2</title>
<g id="a_edge1_Node000001_Node000002"><a xlink:title=" ">
<path fill="none" stroke="#63b8ff" d="M242.52,-154.99C283.76,-169.56 338.25,-187.77 387.43,-200.81 408.54,-206.41 431.28,-211.58 453.16,-216.13"/>
<polygon fill="#63b8ff" stroke="#63b8ff" points="452.18,-219.5 462.68,-218.08 453.59,-212.65 452.18,-219.5"/>
</a>
</g>
</g>
<!-- Node3 -->
<g id="Node000003" class="node">
<title>Node3</title>
<g id="a_Node000003"><a xlink:href="classcom_1_1runehive_1_1game_1_1world_1_1entity_1_1mob_1_1player_1_1_player.html#ae5f05cccf4213471e14a3f775be96978" target="_top" xlink:title=" ">
<ellipse fill="white" stroke="#666666" cx="563.15" cy="-165.81" rx="175.72" ry="25.81"/>
<text xml:space="preserve" text-anchor="start" x="446.9" y="-168.66" font-family="Helvetica,sans-Serif" font-size="12.00">com.runehive.game.world.entity.mob.player.</text>
<text xml:space="preserve" text-anchor="middle" x="563.15" y="-154.41" font-family="Helvetica,sans-Serif" font-size="12.00">Player.getMemberId</text>
</a>
</g>
</g>
<!-- Node1&#45;&gt;Node3 -->
<g id="edge2_Node000001_Node000003" class="edge">
<title>Node1&#45;&gt;Node3</title>
<g id="a_edge2_Node000001_Node000003"><a xlink:title=" ">
<path fill="none" stroke="#63b8ff" d="M326.29,-144.39C350.78,-146.62 376.26,-148.93 401.02,-151.18"/>
<polygon fill="#63b8ff" stroke="#63b8ff" points="400.56,-154.65 410.84,-152.07 401.2,-147.68 400.56,-154.65"/>
</a>
</g>
</g>
<!-- Node4 -->
<g id="Node000004" class="node">
<title>Node4</title>
<g id="a_Node000004"><a xlink:href="classcom_1_1runehive_1_1game_1_1world_1_1entity_1_1_entity.html#a8afdd0de68f242bf7082076dfbfffe37" target="_top" xlink:title=" ">
<ellipse fill="white" stroke="#666666" cx="563.15" cy="-95.81" rx="132.23" ry="25.81"/>
<text xml:space="preserve" text-anchor="start" x="477.65" y="-98.66" font-family="Helvetica,sans-Serif" font-size="12.00">com.runehive.game.world.entity.</text>
<text xml:space="preserve" text-anchor="middle" x="563.15" y="-84.41" font-family="Helvetica,sans-Serif" font-size="12.00">Entity.getPosition</text>
</a>
</g>
</g>
<!-- Node1&#45;&gt;Node4 -->
<g id="edge3_Node000001_Node000004" class="edge">
<title>Node1&#45;&gt;Node4</title>
<g id="a_edge3_Node000001_Node000004"><a xlink:title=" ">
<path fill="none" stroke="#63b8ff" d="M326.29,-117.23C360.89,-114.09 397.44,-110.77 431.18,-107.7"/>
<polygon fill="#63b8ff" stroke="#63b8ff" points="431.35,-111.2 441,-106.81 430.72,-104.23 431.35,-111.2"/>
</a>
</g>
</g>
<!-- Node5 -->
<g id="Node000005" class="node">
<title>Node5</title>
<g id="a_Node000005"><a xlink:href="classcom_1_1runehive_1_1game_1_1world_1_1entity_1_1mob_1_1player_1_1_player.html#abc025401d6c96ea483428bfbfbbe59f4" target="_top" xlink:title=" ">
<ellipse fill="white" stroke="#666666" cx="563.15" cy="-25.81" rx="175.72" ry="25.81"/>
<text xml:space="preserve" text-anchor="start" x="446.9" y="-28.66" font-family="Helvetica,sans-Serif" font-size="12.00">com.runehive.game.world.entity.mob.player.</text>
<text xml:space="preserve" text-anchor="middle" x="563.15" y="-14.41" font-family="Helvetica,sans-Serif" font-size="12.00">Player.getUsername</text>
</a>
</g>
</g>
<!-- Node1&#45;&gt;Node5 -->
<g id="edge4_Node000001_Node000005" class="edge">
<title>Node1&#45;&gt;Node5</title>
<g id="a_edge4_Node000001_Node000005"><a xlink:title=" ">
<path fill="none" stroke="#63b8ff" d="M242.52,-106.63C283.76,-92.06 338.25,-73.85 387.43,-60.81 404.27,-56.34 422.15,-52.15 439.81,-48.32"/>
<polygon fill="#63b8ff" stroke="#63b8ff" points="440.23,-51.81 449.28,-46.3 438.77,-44.97 440.23,-51.81"/>
</a>
</g>
</g>
</g>
</svg>

<g id="navigator" transform="translate(0 0)" fill="#404254">
  <rect fill="#f2f5e9" fill-opacity="0.5" stroke="#606060" stroke-width=".5" x="0" y="0" width="60" height="60"/>
  <use id="zoomplus" xlink:href="#zoomPlus" x="17" y="9" onmousedown="handleZoom(evt,'in')"/>
  <use id="zoomminus" xlink:href="#zoomMin" x="42" y="9" onmousedown="handleZoom(evt,'out')"/>
  <use id="reset" xlink:href="#resetDef" x="30" y="36" onmousedown="handleReset()"/>
   <use id="arrowup" xlink:href="#arrowUp" x="0" y="0" onmousedown="handlePan(0,-1)"/>
  <use id="arrowright" xlink:href="#arrowRight" x="0" y="0" onmousedown="handlePan(1,0)"/>
  <use id="arrowdown" xlink:href="#arrowDown" x="0" y="0" onmousedown="handlePan(0,1)"/>
  <use id="arrowleft" xlink:href="#arrowLeft" x="0" y="0" onmousedown="handlePan(-1,0)"/>
</g>
<svg viewBox="0 0 15 15" width="100%" height="30px" preserveAspectRatio="xMaxYMin meet">
 <g id="arrow_out" transform="scale(0.3 0.3)">
  <a xlink:href="classcom_1_1runehive_1_1game_1_1world_1_1entity_1_1mob_1_1player_1_1_player_ae34e05683a15f9dfc171c1a29d4c87ac_cgraph_org.svg" target="_base">
   <rect id="button" ry="5" rx="5" y="6" x="6" height="38" width="38"
        fill="#f2f5e9" fill-opacity="0.5" stroke="#606060" stroke-width="1.0"/>
   <path id="arrow"
     d="M 11.500037,31.436501 C 11.940474,20.09759 22.043105,11.32322 32.158766,21.979434 L 37.068811,17.246167 C 37.068811,17.246167 37.088388,32 37.088388,32 L 22.160133,31.978069 C 22.160133,31.978069 26.997745,27.140456 26.997745,27.140456 C 18.528582,18.264221 13.291696,25.230495 11.500037,31.436501 z"
     style="fill:#404040;"/>
  </a>
 </g>
</svg>

<style type='text/css'>
<![CDATA[
[data-mouse-over-selected='false'] { opacity: 0.7; }
[data-mouse-over-selected='true']  { opacity: 1.0; }
]]>
</style>
<script type="application/ecmascript"><![CDATA[
document.addEventListener('DOMContentLoaded', (event) => {
  highlightEdges();
  highlightAdjacentNodes();
});
]]></script>
</svg>
