<?xml version="1.0" encoding="UTF-8" standalone="no"?>
<!DOCTYPE svg PUBLIC "-//W3C//DTD SVG 1.1//EN"
 "http://www.w3.org/Graphics/SVG/1.1/DTD/svg11.dtd">
<!-- Generated by graphviz version 14.0.1 (20251006.0113)
 -->
<!-- Title: com.runehive.game.world.entity.combat.strategy.player.special.melee.BandosGodsword.attack Pages: 1 -->
<svg width="1962pt" height="744pt"
 viewBox="0.00 0.00 1962.00 744.00" xmlns="http://www.w3.org/2000/svg" xmlns:xlink="http://www.w3.org/1999/xlink">
<g id="graph0" class="graph" transform="scale(1 1) rotate(0) translate(4 739.62)">
<title>com.runehive.game.world.entity.combat.strategy.player.special.melee.BandosGodsword.attack</title>
<!-- Node1 -->
<g id="Node000001" class="node">
<title>Node1</title>
<g id="a_Node000001"><a xlink:title=" ">
<ellipse fill="#999999" stroke="#666666" cx="272.77" cy="-376.81" rx="272.77" ry="25.81"/>
<text xml:space="preserve" text-anchor="start" x="87.89" y="-379.66" font-family="Helvetica,sans-Serif" font-size="12.00">com.runehive.game.world.entity.combat.strategy.player.special.melee.</text>
<text xml:space="preserve" text-anchor="middle" x="272.77" y="-365.41" font-family="Helvetica,sans-Serif" font-size="12.00">BandosGodsword.attack</text>
</a>
</g>
</g>
<!-- Node2 -->
<g id="Node000002" class="node">
<title>Node2</title>
<g id="a_Node000002"><a xlink:href="classcom_1_1runehive_1_1game_1_1world_1_1entity_1_1skill_1_1_skill_manager.html#a8167146b6fbdc949d0d7950e5e7e3b34" target="_top" xlink:title="Gets the skill for an id.">
<ellipse fill="white" stroke="#666666" cx="757.25" cy="-709.81" rx="149.2" ry="25.81"/>
<text xml:space="preserve" text-anchor="start" x="659.75" y="-712.66" font-family="Helvetica,sans-Serif" font-size="12.00">com.runehive.game.world.entity.skill.</text>
<text xml:space="preserve" text-anchor="middle" x="757.25" y="-698.41" font-family="Helvetica,sans-Serif" font-size="12.00">SkillManager.get</text>
</a>
</g>
</g>
<!-- Node1&#45;&gt;Node2 -->
<g id="edge1_Node000001_Node000002" class="edge">
<title>Node1&#45;&gt;Node2</title>
<g id="a_edge1_Node000001_Node000002"><a xlink:title=" ">
<path fill="none" stroke="#63b8ff" d="M292.27,-402.98C335.5,-461.96 449.5,-605.49 581.53,-674.81 594.76,-681.75 609.21,-687.32 623.95,-691.79"/>
<polygon fill="#63b8ff" stroke="#63b8ff" points="622.69,-695.07 633.27,-694.44 624.61,-688.34 622.69,-695.07"/>
</a>
</g>
</g>
<!-- Node3 -->
<g id="Node000003" class="node">
<title>Node3</title>
<g id="a_Node000003"><a xlink:href="classcom_1_1runehive_1_1game_1_1world_1_1entity_1_1combat_1_1hit_1_1_hit.html#a22fdbfd63860fbd3c03d530ef8b97fe0" target="_top" xlink:title="Gets the damage amount.">
<ellipse fill="white" stroke="#666666" cx="757.25" cy="-639.81" rx="173.06" ry="25.81"/>
<text xml:space="preserve" text-anchor="start" x="642.87" y="-642.66" font-family="Helvetica,sans-Serif" font-size="12.00">com.runehive.game.world.entity.combat.hit.</text>
<text xml:space="preserve" text-anchor="middle" x="757.25" y="-628.41" font-family="Helvetica,sans-Serif" font-size="12.00">Hit.getDamage</text>
</a>
</g>
</g>
<!-- Node1&#45;&gt;Node3 -->
<g id="edge2_Node000001_Node000003" class="edge">
<title>Node1&#45;&gt;Node3</title>
<g id="a_edge2_Node000001_Node000003"><a xlink:title=" ">
<path fill="none" stroke="#63b8ff" d="M299.97,-402.72C350.06,-450.67 464.83,-553.02 581.53,-604.81 593.92,-610.3 607.18,-614.94 620.65,-618.86"/>
<polygon fill="#63b8ff" stroke="#63b8ff" points="619.46,-622.16 630.03,-621.44 621.32,-615.41 619.46,-622.16"/>
</a>
</g>
</g>
<!-- Node4 -->
<g id="Node000004" class="node">
<title>Node4</title>
<g id="a_Node000004"><a xlink:href="classcom_1_1runehive_1_1game_1_1world_1_1entity_1_1skill_1_1_skill_manager.html#a413f91a2ac68dc4f5d610c7195caf347" target="_top" xlink:title="Gets the level of a skill.">
<ellipse fill="white" stroke="#666666" cx="757.25" cy="-551.81" rx="149.2" ry="25.81"/>
<text xml:space="preserve" text-anchor="start" x="659.75" y="-554.66" font-family="Helvetica,sans-Serif" font-size="12.00">com.runehive.game.world.entity.skill.</text>
<text xml:space="preserve" text-anchor="middle" x="757.25" y="-540.41" font-family="Helvetica,sans-Serif" font-size="12.00">SkillManager.getLevel</text>
</a>
</g>
</g>
<!-- Node1&#45;&gt;Node4 -->
<g id="edge3_Node000001_Node000004" class="edge">
<title>Node1&#45;&gt;Node4</title>
<g id="a_edge3_Node000001_Node000004"><a xlink:title=" ">
<path fill="none" stroke="#63b8ff" d="M321.43,-402.66C380.78,-433.86 486.01,-485.97 581.53,-516.81 599.05,-522.46 617.85,-527.38 636.41,-531.6"/>
<polygon fill="#63b8ff" stroke="#63b8ff" points="635.61,-535 646.13,-533.74 637.12,-528.17 635.61,-535"/>
</a>
</g>
</g>
<!-- Node5 -->
<g id="Node000005" class="node">
<title>Node5</title>
<g id="a_Node000005"><a xlink:href="classcom_1_1runehive_1_1game_1_1world_1_1entity_1_1skill_1_1_skill.html#a2979a0f3c2cf7e082b4271a107e31e23" target="_top" xlink:title="Gets the name for a skill id.">
<ellipse fill="white" stroke="#666666" cx="757.25" cy="-481.81" rx="149.2" ry="25.81"/>
<text xml:space="preserve" text-anchor="start" x="659.75" y="-484.66" font-family="Helvetica,sans-Serif" font-size="12.00">com.runehive.game.world.entity.skill.</text>
<text xml:space="preserve" text-anchor="middle" x="757.25" y="-470.41" font-family="Helvetica,sans-Serif" font-size="12.00">Skill.getName</text>
</a>
</g>
</g>
<!-- Node1&#45;&gt;Node5 -->
<g id="edge5_Node000001_Node000005" class="edge">
<title>Node1&#45;&gt;Node5</title>
<g id="a_edge5_Node000001_Node000005"><a xlink:title=" ">
<path fill="none" stroke="#63b8ff" d="M377.26,-401.05C436.9,-414.85 513.35,-432.23 581.53,-446.81 602.27,-451.24 624.43,-455.81 645.76,-460.13"/>
<polygon fill="#63b8ff" stroke="#63b8ff" points="644.85,-463.51 655.35,-462.06 646.24,-456.65 644.85,-463.51"/>
</a>
</g>
</g>
<!-- Node6 -->
<g id="Node000006" class="node">
<title>Node6</title>
<g id="a_Node000006"><a xlink:href="classcom_1_1runehive_1_1game_1_1world_1_1entity_1_1mob_1_1_mob.html#abff0c847f98d14619ca50e0210568e56" target="_top" xlink:title=" ">
<ellipse fill="white" stroke="#666666" cx="757.25" cy="-411.81" rx="150.79" ry="25.81"/>
<text xml:space="preserve" text-anchor="start" x="658.62" y="-414.66" font-family="Helvetica,sans-Serif" font-size="12.00">com.runehive.game.world.entity.mob.</text>
<text xml:space="preserve" text-anchor="middle" x="757.25" y="-400.41" font-family="Helvetica,sans-Serif" font-size="12.00">Mob.getPlayer</text>
</a>
</g>
</g>
<!-- Node1&#45;&gt;Node6 -->
<g id="edge6_Node000001_Node000006" class="edge">
<title>Node1&#45;&gt;Node6</title>
<g id="a_edge6_Node000001_Node000006"><a xlink:title=" ">
<path fill="none" stroke="#63b8ff" d="M491.36,-392.59C530.21,-395.41 569.88,-398.29 606.29,-400.93"/>
<polygon fill="#63b8ff" stroke="#63b8ff" points="605.75,-404.4 615.98,-401.63 606.26,-397.42 605.75,-404.4"/>
</a>
</g>
</g>
<!-- Node7 -->
<g id="Node000007" class="node">
<title>Node7</title>
<g id="a_Node000007"><a xlink:href="classcom_1_1runehive_1_1game_1_1world_1_1entity_1_1combat_1_1hit_1_1_hit.html#adc06211aa68c244ba28c50ca4b7b8240" target="_top" xlink:title="Checks if the hit is accurate.">
<ellipse fill="white" stroke="#666666" cx="757.25" cy="-341.81" rx="173.06" ry="25.81"/>
<text xml:space="preserve" text-anchor="start" x="642.87" y="-344.66" font-family="Helvetica,sans-Serif" font-size="12.00">com.runehive.game.world.entity.combat.hit.</text>
<text xml:space="preserve" text-anchor="middle" x="757.25" y="-330.41" font-family="Helvetica,sans-Serif" font-size="12.00">Hit.isAccurate</text>
</a>
</g>
</g>
<!-- Node1&#45;&gt;Node7 -->
<g id="edge7_Node000001_Node000007" class="edge">
<title>Node1&#45;&gt;Node7</title>
<g id="a_edge7_Node000001_Node000007"><a xlink:title=" ">
<path fill="none" stroke="#63b8ff" d="M491.36,-361.02C524.34,-358.63 557.91,-356.2 589.58,-353.9"/>
<polygon fill="#63b8ff" stroke="#63b8ff" points="589.47,-357.42 599.19,-353.2 588.96,-350.44 589.47,-357.42"/>
</a>
</g>
</g>
<!-- Node8 -->
<g id="Node000008" class="node">
<title>Node8</title>
<g id="a_Node000008"><a xlink:href="classcom_1_1runehive_1_1game_1_1world_1_1entity_1_1mob_1_1_mob.html#ac7ddf988f32265b28e7af7283b406df1" target="_top" xlink:title="Check if an entity is a player.">
<ellipse fill="white" stroke="#666666" cx="757.25" cy="-271.81" rx="150.79" ry="25.81"/>
<text xml:space="preserve" text-anchor="start" x="658.62" y="-274.66" font-family="Helvetica,sans-Serif" font-size="12.00">com.runehive.game.world.entity.mob.</text>
<text xml:space="preserve" text-anchor="middle" x="757.25" y="-260.41" font-family="Helvetica,sans-Serif" font-size="12.00">Mob.isPlayer</text>
</a>
</g>
</g>
<!-- Node1&#45;&gt;Node8 -->
<g id="edge8_Node000001_Node000008" class="edge">
<title>Node1&#45;&gt;Node8</title>
<g id="a_edge8_Node000001_Node000008"><a xlink:title=" ">
<path fill="none" stroke="#63b8ff" d="M377.26,-352.57C436.9,-338.77 513.35,-321.39 581.53,-306.81 602.14,-302.4 624.15,-297.86 645.36,-293.57"/>
<polygon fill="#63b8ff" stroke="#63b8ff" points="645.78,-297.06 654.89,-291.65 644.39,-290.2 645.78,-297.06"/>
</a>
</g>
</g>
<!-- Node10 -->
<g id="Node000010" class="node">
<title>Node10</title>
<g id="a_Node000010"><a xlink:href="classcom_1_1runehive_1_1game_1_1world_1_1entity_1_1mob_1_1player_1_1_player.html#a330f0b0f76490448f4c6f8e68ea368c5" target="_top" xlink:title=" ">
<ellipse fill="white" stroke="#666666" cx="757.25" cy="-183.81" rx="175.72" ry="25.81"/>
<text xml:space="preserve" text-anchor="start" x="641" y="-186.66" font-family="Helvetica,sans-Serif" font-size="12.00">com.runehive.game.world.entity.mob.player.</text>
<text xml:space="preserve" text-anchor="middle" x="757.25" y="-172.41" font-family="Helvetica,sans-Serif" font-size="12.00">Player.message</text>
</a>
</g>
</g>
<!-- Node1&#45;&gt;Node10 -->
<g id="edge10_Node000001_Node000010" class="edge">
<title>Node1&#45;&gt;Node10</title>
<g id="a_edge10_Node000001_Node000010"><a xlink:title=" ">
<path fill="none" stroke="#63b8ff" d="M324.89,-351.03C385.24,-321.18 489.13,-271.67 581.53,-236.81 607.21,-227.12 635.5,-217.93 661.7,-210"/>
<polygon fill="#63b8ff" stroke="#63b8ff" points="662.37,-213.45 670.95,-207.23 660.36,-206.74 662.37,-213.45"/>
</a>
</g>
</g>
<!-- Node15 -->
<g id="Node000015" class="node">
<title>Node15</title>
<g id="a_Node000015"><a xlink:href="classcom_1_1runehive_1_1game_1_1world_1_1entity_1_1skill_1_1_skill_manager.html#a9d2f706cb24e30ca8451a4f49401df4c" target="_top" xlink:title="Refreshes all the skills for the mob.">
<ellipse fill="white" stroke="#666666" cx="757.25" cy="-95.81" rx="149.2" ry="25.81"/>
<text xml:space="preserve" text-anchor="start" x="659.75" y="-98.66" font-family="Helvetica,sans-Serif" font-size="12.00">com.runehive.game.world.entity.skill.</text>
<text xml:space="preserve" text-anchor="middle" x="757.25" y="-84.41" font-family="Helvetica,sans-Serif" font-size="12.00">SkillManager.refresh</text>
</a>
</g>
</g>
<!-- Node1&#45;&gt;Node15 -->
<g id="edge16_Node000001_Node000015" class="edge">
<title>Node1&#45;&gt;Node15</title>
<g id="a_edge16_Node000001_Node000015"><a xlink:title=" ">
<path fill="none" stroke="#63b8ff" d="M301.67,-350.85C353.2,-304.19 468.37,-205.73 581.53,-148.81 604.6,-137.21 630.67,-127.62 655.5,-119.95"/>
<polygon fill="#63b8ff" stroke="#63b8ff" points="656.41,-123.33 664.98,-117.1 654.4,-116.63 656.41,-123.33"/>
</a>
</g>
</g>
<!-- Node16 -->
<g id="Node000016" class="node">
<title>Node16</title>
<g id="a_Node000016"><a xlink:href="classcom_1_1runehive_1_1game_1_1world_1_1entity_1_1skill_1_1_skill.html#a6b76f5e876369ff07f47a5fff93f8012" target="_top" xlink:title="Removes levels from this skill by the given amount.">
<ellipse fill="white" stroke="#666666" cx="757.25" cy="-25.81" rx="149.2" ry="25.81"/>
<text xml:space="preserve" text-anchor="start" x="659.75" y="-28.66" font-family="Helvetica,sans-Serif" font-size="12.00">com.runehive.game.world.entity.skill.</text>
<text xml:space="preserve" text-anchor="middle" x="757.25" y="-14.41" font-family="Helvetica,sans-Serif" font-size="12.00">Skill.removeLevel</text>
</a>
</g>
</g>
<!-- Node1&#45;&gt;Node16 -->
<g id="edge18_Node000001_Node000016" class="edge">
<title>Node1&#45;&gt;Node16</title>
<g id="a_edge18_Node000001_Node000016"><a xlink:title=" ">
<path fill="none" stroke="#63b8ff" d="M290.62,-350.88C332.02,-289.5 445.3,-134.91 581.53,-60.81 594.31,-53.86 608.29,-48.28 622.59,-43.81"/>
<polygon fill="#63b8ff" stroke="#63b8ff" points="623.51,-47.19 632.13,-41.02 621.55,-40.47 623.51,-47.19"/>
</a>
</g>
</g>
<!-- Node4&#45;&gt;Node4 -->
<g id="edge4_Node000004_Node000004" class="edge">
<title>Node4&#45;&gt;Node4</title>
<g id="a_edge4_Node000004_Node000004"><a xlink:title=" ">
<path fill="none" stroke="#63b8ff" d="M686.38,-574.8C677.63,-585.86 701.25,-595.62 757.25,-595.62 793.12,-595.62 815.71,-591.61 825.01,-585.83"/>
<polygon fill="#63b8ff" stroke="#63b8ff" points="828.36,-586.83 827.71,-576.26 821.62,-584.93 828.36,-586.83"/>
</a>
</g>
</g>
<!-- Node9 -->
<g id="Node000009" class="node">
<title>Node9</title>
<g id="a_Node000009"><a xlink:href="classcom_1_1runehive_1_1game_1_1world_1_1entity_1_1_entity.html#a64f68055122aaf4af08787378c7ac356" target="_top" xlink:title="Gets the EntityType.">
<ellipse fill="white" stroke="#666666" cx="1144.68" cy="-271.81" rx="132.23" ry="25.81"/>
<text xml:space="preserve" text-anchor="start" x="1059.18" y="-274.66" font-family="Helvetica,sans-Serif" font-size="12.00">com.runehive.game.world.entity.</text>
<text xml:space="preserve" text-anchor="middle" x="1144.68" y="-260.41" font-family="Helvetica,sans-Serif" font-size="12.00">Entity.getType</text>
</a>
</g>
</g>
<!-- Node8&#45;&gt;Node9 -->
<g id="edge9_Node000008_Node000009" class="edge">
<title>Node8&#45;&gt;Node9</title>
<g id="a_edge9_Node000008_Node000009"><a xlink:title=" ">
<path fill="none" stroke="#63b8ff" d="M908.37,-271.81C938.73,-271.81 970.58,-271.81 1000.69,-271.81"/>
<polygon fill="#63b8ff" stroke="#63b8ff" points="1000.63,-275.31 1010.63,-271.81 1000.63,-268.31 1000.63,-275.31"/>
</a>
</g>
</g>
<!-- Node10&#45;&gt;Node10 -->
<g id="edge11_Node000010_Node000010" class="edge">
<title>Node10&#45;&gt;Node10</title>
<g id="a_edge11_Node000010_Node000010"><a xlink:title=" ">
<path fill="none" stroke="#63b8ff" d="M685.74,-207.69C678.93,-218.38 702.77,-227.62 757.25,-227.62 792.58,-227.62 815.02,-223.73 824.58,-218.09"/>
<polygon fill="#63b8ff" stroke="#63b8ff" points="827.71,-219.68 828.19,-209.1 821.21,-217.07 827.71,-219.68"/>
</a>
</g>
</g>
<!-- Node11 -->
<g id="Node000011" class="node">
<title>Node11</title>
<g id="a_Node000011"><a xlink:href="classcom_1_1runehive_1_1game_1_1world_1_1entity_1_1mob_1_1player_1_1_player.html#ab8309e5d532b7540f48bf25f8dea92a8" target="_top" xlink:title=" ">
<ellipse fill="white" stroke="#666666" cx="1144.68" cy="-183.81" rx="175.72" ry="25.81"/>
<text xml:space="preserve" text-anchor="start" x="1028.43" y="-186.66" font-family="Helvetica,sans-Serif" font-size="12.00">com.runehive.game.world.entity.mob.player.</text>
<text xml:space="preserve" text-anchor="middle" x="1144.68" y="-172.41" font-family="Helvetica,sans-Serif" font-size="12.00">Player.send</text>
</a>
</g>
</g>
<!-- Node10&#45;&gt;Node11 -->
<g id="edge12_Node000010_Node000011" class="edge">
<title>Node10&#45;&gt;Node11</title>
<g id="a_edge12_Node000010_Node000011"><a xlink:title=" ">
<path fill="none" stroke="#63b8ff" d="M933.2,-183.81C941.18,-183.81 949.21,-183.81 957.21,-183.81"/>
<polygon fill="#63b8ff" stroke="#63b8ff" points="957.01,-187.31 967.01,-183.81 957.01,-180.31 957.01,-187.31"/>
</a>
</g>
</g>
<!-- Node12 -->
<g id="Node000012" class="node">
<title>Node12</title>
<g id="a_Node000012"><a xlink:href="classcom_1_1runehive_1_1net_1_1packet_1_1_outgoing_packet.html#a3dde4d77b8c8bbd686b8e121fd6514a7" target="_top" xlink:title=" ">
<ellipse fill="white" stroke="#666666" cx="1461.58" cy="-183.81" rx="105.18" ry="25.81"/>
<text xml:space="preserve" text-anchor="start" x="1395.2" y="-186.66" font-family="Helvetica,sans-Serif" font-size="12.00">com.runehive.net.packet.</text>
<text xml:space="preserve" text-anchor="middle" x="1461.58" y="-172.41" font-family="Helvetica,sans-Serif" font-size="12.00">OutgoingPacket.execute</text>
</a>
</g>
</g>
<!-- Node11&#45;&gt;Node12 -->
<g id="edge13_Node000011_Node000012" class="edge">
<title>Node11&#45;&gt;Node12</title>
<g id="a_edge13_Node000011_Node000012"><a xlink:title=" ">
<path fill="none" stroke="#63b8ff" d="M1320.63,-183.81C1328.71,-183.81 1336.73,-183.81 1344.61,-183.81"/>
<polygon fill="#63b8ff" stroke="#63b8ff" points="1344.51,-187.31 1354.51,-183.81 1344.51,-180.31 1344.51,-187.31"/>
</a>
</g>
</g>
<!-- Node13 -->
<g id="Node000013" class="node">
<title>Node13</title>
<g id="a_Node000013"><a xlink:href="classcom_1_1runehive_1_1net_1_1packet_1_1_outgoing_packet.html#a74fc13c106ab76f87daec1e8bab6a2a1" target="_top" xlink:title=" ">
<ellipse fill="white" stroke="#666666" cx="1778.48" cy="-218.81" rx="105.18" ry="25.81"/>
<text xml:space="preserve" text-anchor="start" x="1712.1" y="-221.66" font-family="Helvetica,sans-Serif" font-size="12.00">com.runehive.net.packet.</text>
<text xml:space="preserve" text-anchor="middle" x="1778.48" y="-207.41" font-family="Helvetica,sans-Serif" font-size="12.00">OutgoingPacket.encode</text>
</a>
</g>
</g>
<!-- Node12&#45;&gt;Node13 -->
<g id="edge14_Node000012_Node000013" class="edge">
<title>Node12&#45;&gt;Node13</title>
<g id="a_edge14_Node000012_Node000013"><a xlink:title=" ">
<path fill="none" stroke="#63b8ff" d="M1557.91,-194.41C1593.51,-198.36 1634.16,-202.88 1670.72,-206.94"/>
<polygon fill="#63b8ff" stroke="#63b8ff" points="1670.09,-210.4 1680.42,-208.02 1670.87,-203.44 1670.09,-210.4"/>
</a>
</g>
</g>
<!-- Node14 -->
<g id="Node000014" class="node">
<title>Node14</title>
<g id="a_Node000014"><a xlink:href="classcom_1_1runehive_1_1game_1_1world_1_1entity_1_1mob_1_1player_1_1_player.html#a908fb61974719a74180d6300b838bfe1" target="_top" xlink:title=" ">
<ellipse fill="white" stroke="#666666" cx="1778.48" cy="-148.81" rx="175.72" ry="25.81"/>
<text xml:space="preserve" text-anchor="start" x="1662.23" y="-151.66" font-family="Helvetica,sans-Serif" font-size="12.00">com.runehive.game.world.entity.mob.player.</text>
<text xml:space="preserve" text-anchor="middle" x="1778.48" y="-137.41" font-family="Helvetica,sans-Serif" font-size="12.00">Player.getSession</text>
</a>
</g>
</g>
<!-- Node12&#45;&gt;Node14 -->
<g id="edge15_Node000012_Node000014" class="edge">
<title>Node12&#45;&gt;Node14</title>
<g id="a_edge15_Node000012_Node000014"><a xlink:title=" ">
<path fill="none" stroke="#63b8ff" d="M1557.91,-173.21C1579.3,-170.84 1602.52,-168.26 1625.57,-165.69"/>
<polygon fill="#63b8ff" stroke="#63b8ff" points="1625.81,-169.19 1635.36,-164.61 1625.03,-162.23 1625.81,-169.19"/>
</a>
</g>
</g>
<!-- Node15&#45;&gt;Node15 -->
<g id="edge17_Node000015_Node000015" class="edge">
<title>Node15&#45;&gt;Node15</title>
<g id="a_edge17_Node000015_Node000015"><a xlink:title=" ">
<path fill="none" stroke="#63b8ff" d="M686.38,-118.8C677.63,-129.86 701.25,-139.62 757.25,-139.62 793.12,-139.62 815.71,-135.61 825.01,-129.83"/>
<polygon fill="#63b8ff" stroke="#63b8ff" points="828.36,-130.83 827.71,-120.26 821.62,-128.93 828.36,-130.83"/>
</a>
</g>
</g>
<!-- Node17 -->
<g id="Node000017" class="node">
<title>Node17</title>
<g id="a_Node000017"><a xlink:href="classcom_1_1runehive_1_1game_1_1world_1_1entity_1_1skill_1_1_skill.html#a3c8eb963f046bbc4188f6e76d93fa17b" target="_top" xlink:title="Modifies the current level with a given function.">
<ellipse fill="white" stroke="#666666" cx="1144.68" cy="-25.81" rx="149.2" ry="25.81"/>
<text xml:space="preserve" text-anchor="start" x="1047.18" y="-28.66" font-family="Helvetica,sans-Serif" font-size="12.00">com.runehive.game.world.entity.skill.</text>
<text xml:space="preserve" text-anchor="middle" x="1144.68" y="-14.41" font-family="Helvetica,sans-Serif" font-size="12.00">Skill.modifyLevel</text>
</a>
</g>
</g>
<!-- Node16&#45;&gt;Node17 -->
<g id="edge19_Node000016_Node000017" class="edge">
<title>Node16&#45;&gt;Node17</title>
<g id="a_edge19_Node000016_Node000017"><a xlink:title=" ">
<path fill="none" stroke="#63b8ff" d="M906.72,-25.81C932.02,-25.81 958.41,-25.81 983.99,-25.81"/>
<polygon fill="#63b8ff" stroke="#63b8ff" points="983.78,-29.31 993.78,-25.81 983.78,-22.31 983.78,-29.31"/>
</a>
</g>
</g>
<!-- Node17&#45;&gt;Node17 -->
<g id="edge20_Node000017_Node000017" class="edge">
<title>Node17&#45;&gt;Node17</title>
<g id="a_edge20_Node000017_Node000017"><a xlink:title=" ">
<path fill="none" stroke="#63b8ff" d="M1086.19,-49.69C1080.62,-60.38 1100.12,-69.62 1144.68,-69.62 1173.23,-69.62 1191.49,-65.83 1199.46,-60.29"/>
<polygon fill="#63b8ff" stroke="#63b8ff" points="1202.67,-61.72 1202.67,-51.12 1196.07,-59.41 1202.67,-61.72"/>
</a>
</g>
</g>
</g>
</svg>
