<?xml version="1.0" encoding="UTF-8" standalone="no"?>
<!DOCTYPE svg PUBLIC "-//W3C//DTD SVG 1.1//EN"
 "http://www.w3.org/Graphics/SVG/1.1/DTD/svg11.dtd">
<!-- Generated by graphviz version 14.0.1 (20251006.0113)
 -->
<!-- Title: com.runehive.content.ai.LazyAIManager.showGptInstructionsWithGreeting Pages: 1 -->
<!--zoomable 466 -->

<svg id="main" version="1.1" xmlns="http://www.w3.org/2000/svg" xmlns:xlink="http://www.w3.org/1999/xlink" xml:space="preserve" onload="init(evt)">

<style type="text/css"><![CDATA[
.node, .edge {opacity: 0.7;}
.node.selected, .edge.selected {opacity: 1;}
.edge:hover path { stroke: red; }
.edge:hover polygon { stroke: red; fill: red; }
]]></style>

<defs>
  <circle id="rim" cx="0" cy="0" r="7"/>
  <circle id="rim2" cx="0" cy="0" r="3.5"/>
  <g id="zoomPlus">
    <use xlink:href="#rim" fill="#404040"><set attributeName="fill" to="#808080" begin="zoomplus.mouseover" end="zoomplus.mouseout"/></use>
    <path d="M-4,0h8M0,-4v8" fill="none" stroke="white" stroke-width="1.5" pointer-events="none"/>
  </g>
  <g id="zoomMin">
    <use xlink:href="#rim" fill="#404040"><set attributeName="fill" to="#808080" begin="zoomminus.mouseover" end="zoomminus.mouseout"/></use>
    <path d="M-4,0h8" fill="none" stroke="white" stroke-width="1.5" pointer-events="none"/>
  </g>
  <g id="arrowUp" transform="translate(30 24)">
    <use xlink:href="#rim"/>
    <path pointer-events="none" fill="none" stroke="white" stroke-width="1.5" d="M0,-3.0v7 M-2.5,-0.5L0,-3.0L2.5,-0.5"/>
  </g>
  <g id="arrowRight" transform="rotate(90) translate(36 -43)">
    <use xlink:href="#rim"/>
    <path pointer-events="none" fill="none" stroke="white" stroke-width="1.5" d="M0,-3.0v7 M-2.5,-0.5L0,-3.0L2.5,-0.5"/>
  </g>
  <g id="arrowDown" transform="rotate(180) translate(-30 -48)">
    <use xlink:href="#rim"/>
    <path pointer-events="none" fill="none" stroke="white" stroke-width="1.5" d="M0,-3.0v7 M-2.5,-0.5L0,-3.0L2.5,-0.5"/>
  </g>
  <g id="arrowLeft" transform="rotate(270) translate(-36 17)">
    <use xlink:href="#rim"/>
    <path pointer-events="none" fill="none" stroke="white" stroke-width="1.5" d="M0,-3.0v7 M-2.5,-0.5L0,-3.0L2.5,-0.5"/>
  </g>
  <g id="resetDef">
    <use xlink:href="#rim2" fill="#404040"><set attributeName="fill" to="#808080" begin="reset.mouseover" end="reset.mouseout"/></use>
  </g>
</defs>
<script type="application/ecmascript">
var viewWidth = 2059;
var viewHeight = 466;
var sectionId = 'dynsection-16';
</script>
<script type="application/ecmascript" xlink:href="svg.min.js"/>
<svg id="graph" class="graph">
<g id="viewport">
<title>com.runehive.content.ai.LazyAIManager.showGptInstructionsWithGreeting</title>
<!-- Node1 -->
<g id="Node000001" class="node">
<title>Node1</title>
<g id="a_Node000001"><a xlink:title=" ">
<ellipse fill="#999999" stroke="#666666" cx="148.67" cy="-308.81" rx="148.67" ry="35.89"/>
<text xml:space="preserve" text-anchor="start" x="51.54" y="-318.78" font-family="Helvetica,sans-Serif" font-size="12.00">com.runehive.content.ai.</text>
<text xml:space="preserve" text-anchor="start" x="51.54" y="-304.53" font-family="Helvetica,sans-Serif" font-size="12.00">LazyAIManager.showGptInstructions</text>
<text xml:space="preserve" text-anchor="middle" x="148.67" y="-290.28" font-family="Helvetica,sans-Serif" font-size="12.00">WithGreeting</text>
</a>
</g>
</g>
<!-- Node2 -->
<g id="Node000002" class="node">
<title>Node2</title>
<g id="a_Node000002"><a xlink:href="classcom_1_1runehive_1_1game_1_1world_1_1entity_1_1mob_1_1_mob.html#a763d4a9979297da0ff66b8f4b86fd5bc" target="_top" xlink:title=" ">
<ellipse fill="white" stroke="#666666" cx="509.05" cy="-413.81" rx="150.79" ry="25.81"/>
<text xml:space="preserve" text-anchor="start" x="410.43" y="-416.66" font-family="Helvetica,sans-Serif" font-size="12.00">com.runehive.game.world.entity.mob.</text>
<text xml:space="preserve" text-anchor="middle" x="509.05" y="-402.41" font-family="Helvetica,sans-Serif" font-size="12.00">Mob.animate</text>
</a>
</g>
</g>
<!-- Node1&#45;&gt;Node2 -->
<g id="edge1_Node000001_Node000002" class="edge">
<title>Node1&#45;&gt;Node2</title>
<g id="a_edge1_Node000001_Node000002"><a xlink:title=" ">
<path fill="none" stroke="#63b8ff" d="M223.33,-340.1C256.52,-353.36 296.45,-368.17 333.34,-378.81 351.6,-384.08 371.16,-388.84 390.34,-393.02"/>
<polygon fill="#63b8ff" stroke="#63b8ff" points="389.59,-396.44 400.1,-395.1 391.05,-389.59 389.59,-396.44"/>
</a>
</g>
</g>
<!-- Node3 -->
<g id="Node000003" class="node">
<title>Node3</title>
<g id="a_Node000003"><a xlink:href="classcom_1_1runehive_1_1game_1_1world_1_1entity_1_1mob_1_1player_1_1_interface_manager.html#ab004f0e8cea2bce0b57cd15b35ca0fbe" target="_top" xlink:title=" ">
<ellipse fill="white" stroke="#666666" cx="509.05" cy="-343.81" rx="175.72" ry="25.81"/>
<text xml:space="preserve" text-anchor="start" x="392.8" y="-346.66" font-family="Helvetica,sans-Serif" font-size="12.00">com.runehive.game.world.entity.mob.player.</text>
<text xml:space="preserve" text-anchor="middle" x="509.05" y="-332.41" font-family="Helvetica,sans-Serif" font-size="12.00">InterfaceManager.close</text>
</a>
</g>
</g>
<!-- Node1&#45;&gt;Node3 -->
<g id="edge3_Node000001_Node000003" class="edge">
<title>Node1&#45;&gt;Node3</title>
<g id="a_edge3_Node000001_Node000003"><a xlink:title=" ">
<path fill="none" stroke="#63b8ff" d="M287.21,-322.24C307.79,-324.25 329.14,-326.34 350.11,-328.38"/>
<polygon fill="#63b8ff" stroke="#63b8ff" points="349.57,-331.85 359.86,-329.34 350.25,-324.88 349.57,-331.85"/>
</a>
</g>
</g>
<!-- Node6 -->
<g id="Node000006" class="node">
<title>Node6</title>
<g id="a_Node000006"><a xlink:href="classcom_1_1runehive_1_1game_1_1world_1_1entity_1_1mob_1_1_mob.html#a26938dbc3c9508164035881aef98271e" target="_top" xlink:title="Sets the mob&#39;s forced chat.">
<ellipse fill="white" stroke="#666666" cx="509.05" cy="-273.81" rx="150.79" ry="25.81"/>
<text xml:space="preserve" text-anchor="start" x="410.43" y="-276.66" font-family="Helvetica,sans-Serif" font-size="12.00">com.runehive.game.world.entity.mob.</text>
<text xml:space="preserve" text-anchor="middle" x="509.05" y="-262.41" font-family="Helvetica,sans-Serif" font-size="12.00">Mob.speak</text>
</a>
</g>
</g>
<!-- Node1&#45;&gt;Node6 -->
<g id="edge7_Node000001_Node000006" class="edge">
<title>Node1&#45;&gt;Node6</title>
<g id="a_edge7_Node000001_Node000006"><a xlink:title=" ">
<path fill="none" stroke="#63b8ff" d="M287.21,-295.38C312.91,-292.87 339.83,-290.24 365.68,-287.71"/>
<polygon fill="#63b8ff" stroke="#63b8ff" points="365.96,-291.2 375.57,-286.75 365.28,-284.24 365.96,-291.2"/>
</a>
</g>
</g>
<!-- Node7 -->
<g id="Node000007" class="node">
<title>Node7</title>
<g id="a_Node000007"><a xlink:href="classcom_1_1runehive_1_1content_1_1ai_1_1_lazy_a_i_manager.html#adafc220272c1dc6ceaf394640c6f55f1" target="_top" xlink:title=" ">
<ellipse fill="white" stroke="#666666" cx="509.05" cy="-184.81" rx="142.31" ry="25.81"/>
<text xml:space="preserve" text-anchor="start" x="416.43" y="-187.66" font-family="Helvetica,sans-Serif" font-size="12.00">com.runehive.content.ai.</text>
<text xml:space="preserve" text-anchor="middle" x="509.05" y="-173.41" font-family="Helvetica,sans-Serif" font-size="12.00">LazyAIManager.startInactivityTimer</text>
</a>
</g>
</g>
<!-- Node1&#45;&gt;Node7 -->
<g id="edge8_Node000001_Node000007" class="edge">
<title>Node1&#45;&gt;Node7</title>
<g id="a_edge8_Node000001_Node000007"><a xlink:title=" ">
<path fill="none" stroke="#63b8ff" d="M227.02,-278.06C259.66,-265.42 298.17,-250.93 333.34,-238.81 361.95,-228.95 393.48,-218.94 421.78,-210.27"/>
<polygon fill="#63b8ff" stroke="#63b8ff" points="422.47,-213.72 431.01,-207.45 420.43,-207.02 422.47,-213.72"/>
</a>
</g>
</g>
<!-- Node2&#45;&gt;Node2 -->
<g id="edge2_Node000002_Node000002" class="edge">
<title>Node2&#45;&gt;Node2</title>
<g id="a_edge2_Node000002_Node000002"><a xlink:title=" ">
<path fill="none" stroke="#63b8ff" d="M442.82,-437.25C435.59,-448.12 457.67,-457.62 509.05,-457.62 541.97,-457.62 562.86,-453.72 571.73,-448.06"/>
<polygon fill="#63b8ff" stroke="#63b8ff" points="575.01,-449.28 574.82,-438.68 568.36,-447.09 575.01,-449.28"/>
</a>
</g>
</g>
<!-- Node4 -->
<g id="Node000004" class="node">
<title>Node4</title>
<g id="a_Node000004"><a xlink:href="classcom_1_1runehive_1_1game_1_1world_1_1entity_1_1mob_1_1player_1_1_interface_manager.html#a65d407a9697f338303700d4eca5cc7dc" target="_top" xlink:title="Clears the player&#39;s screen.">
<ellipse fill="white" stroke="#666666" cx="896.49" cy="-413.81" rx="175.72" ry="25.81"/>
<text xml:space="preserve" text-anchor="start" x="780.24" y="-416.66" font-family="Helvetica,sans-Serif" font-size="12.00">com.runehive.game.world.entity.mob.player.</text>
<text xml:space="preserve" text-anchor="middle" x="896.49" y="-402.41" font-family="Helvetica,sans-Serif" font-size="12.00">InterfaceManager.close</text>
</a>
</g>
</g>
<!-- Node3&#45;&gt;Node4 -->
<g id="edge4_Node000003_Node000004" class="edge">
<title>Node3&#45;&gt;Node4</title>
<g id="a_edge4_Node000003_Node000004"><a xlink:title=" ">
<path fill="none" stroke="#63b8ff" d="M621.54,-364.06C668.98,-372.67 724.46,-382.75 773.03,-391.57"/>
<polygon fill="#63b8ff" stroke="#63b8ff" points="772.3,-394.99 782.76,-393.34 773.55,-388.11 772.3,-394.99"/>
</a>
</g>
</g>
<!-- Node5 -->
<g id="Node000005" class="node">
<title>Node5</title>
<g id="a_Node000005"><a xlink:href="classcom_1_1runehive_1_1game_1_1world_1_1entity_1_1mob_1_1player_1_1_interface_manager.html#abeef1b9c5738fda1822c862657bb1383" target="_top" xlink:title="Checks if a certain interface is enter.">
<ellipse fill="white" stroke="#666666" cx="896.49" cy="-343.81" rx="175.72" ry="25.81"/>
<text xml:space="preserve" text-anchor="start" x="780.24" y="-346.66" font-family="Helvetica,sans-Serif" font-size="12.00">com.runehive.game.world.entity.mob.player.</text>
<text xml:space="preserve" text-anchor="middle" x="896.49" y="-332.41" font-family="Helvetica,sans-Serif" font-size="12.00">InterfaceManager.isInterfaceOpen</text>
</a>
</g>
</g>
<!-- Node3&#45;&gt;Node5 -->
<g id="edge6_Node000003_Node000005" class="edge">
<title>Node3&#45;&gt;Node5</title>
<g id="a_edge6_Node000003_Node000005"><a xlink:title=" ">
<path fill="none" stroke="#63b8ff" d="M685.01,-343.81C692.99,-343.81 701.01,-343.81 709.02,-343.81"/>
<polygon fill="#63b8ff" stroke="#63b8ff" points="708.81,-347.31 718.81,-343.81 708.81,-340.31 708.81,-347.31"/>
</a>
</g>
</g>
<!-- Node4&#45;&gt;Node4 -->
<g id="edge5_Node000004_Node000004" class="edge">
<title>Node4&#45;&gt;Node4</title>
<g id="a_edge5_Node000004_Node000004"><a xlink:title=" ">
<path fill="none" stroke="#63b8ff" d="M829.48,-437.69C823.1,-448.38 845.43,-457.62 896.49,-457.62 929.19,-457.62 950.11,-453.83 959.25,-448.29"/>
<polygon fill="#63b8ff" stroke="#63b8ff" points="962.46,-449.68 962.93,-439.1 955.96,-447.08 962.46,-449.68"/>
</a>
</g>
</g>
<!-- Node8 -->
<g id="Node000008" class="node">
<title>Node8</title>
<g id="a_Node000008"><a xlink:href="classcom_1_1runehive_1_1content_1_1ai_1_1_lazy_a_i_manager.html#ae58b5286f92aa1900bcb24a183c52e1b" target="_top" xlink:title=" ">
<ellipse fill="white" stroke="#666666" cx="1259.52" cy="-289.81" rx="151.32" ry="25.81"/>
<text xml:space="preserve" text-anchor="start" x="1160.52" y="-292.66" font-family="Helvetica,sans-Serif" font-size="12.00">com.runehive.content.ai.</text>
<text xml:space="preserve" text-anchor="middle" x="1259.52" y="-278.41" font-family="Helvetica,sans-Serif" font-size="12.00">LazyAIManager.cancelInactivityTimer</text>
</a>
</g>
</g>
<!-- Node7&#45;&gt;Node8 -->
<g id="edge9_Node000007_Node000008" class="edge">
<title>Node7&#45;&gt;Node8</title>
<g id="a_edge9_Node000007_Node000008"><a xlink:title=" ">
<path fill="none" stroke="#63b8ff" d="M600.62,-204.84C628.63,-213.1 658.91,-224.24 684.77,-238.81 703.42,-249.32 700.9,-262.85 720.77,-270.81 787.25,-297.44 966.97,-298.99 1100.46,-295.94"/>
<polygon fill="#63b8ff" stroke="#63b8ff" points="1100.18,-299.45 1110.09,-295.71 1100.01,-292.45 1100.18,-299.45"/>
</a>
</g>
</g>
<!-- Node11 -->
<g id="Node000011" class="node">
<title>Node11</title>
<g id="a_Node000011"><a xlink:href="classcom_1_1runehive_1_1content_1_1ai_1_1_lazy_a_i_manager.html#a44c2794b8362da1c37ee3f8180857363" target="_top" xlink:title=" ">
<ellipse fill="white" stroke="#666666" cx="896.49" cy="-235.81" rx="147.08" ry="25.81"/>
<text xml:space="preserve" text-anchor="start" x="800.49" y="-238.66" font-family="Helvetica,sans-Serif" font-size="12.00">com.runehive.content.ai.</text>
<text xml:space="preserve" text-anchor="middle" x="896.49" y="-224.41" font-family="Helvetica,sans-Serif" font-size="12.00">LazyAIManager.clearPlayerConsent</text>
</a>
</g>
</g>
<!-- Node7&#45;&gt;Node11 -->
<g id="edge12_Node000007_Node000011" class="edge">
<title>Node7&#45;&gt;Node11</title>
<g id="a_edge12_Node000007_Node000011"><a xlink:title=" ">
<path fill="none" stroke="#63b8ff" d="M625.17,-200.04C669.75,-205.94 720.97,-212.72 766.75,-218.78"/>
<polygon fill="#63b8ff" stroke="#63b8ff" points="766.09,-222.22 776.46,-220.06 767,-215.28 766.09,-222.22"/>
</a>
</g>
</g>
<!-- Node14 -->
<g id="Node000014" class="node">
<title>Node14</title>
<g id="a_Node000014"><a xlink:href="classcom_1_1runehive_1_1game_1_1world_1_1entity_1_1mob_1_1player_1_1_player.html#abc025401d6c96ea483428bfbfbbe59f4" target="_top" xlink:title=" ">
<ellipse fill="white" stroke="#666666" cx="896.49" cy="-165.81" rx="175.72" ry="25.81"/>
<text xml:space="preserve" text-anchor="start" x="780.24" y="-168.66" font-family="Helvetica,sans-Serif" font-size="12.00">com.runehive.game.world.entity.mob.player.</text>
<text xml:space="preserve" text-anchor="middle" x="896.49" y="-154.41" font-family="Helvetica,sans-Serif" font-size="12.00">Player.getUsername</text>
</a>
</g>
</g>
<!-- Node7&#45;&gt;Node14 -->
<g id="edge16_Node000007_Node000014" class="edge">
<title>Node7&#45;&gt;Node14</title>
<g id="a_edge16_Node000007_Node000014"><a xlink:title=" ">
<path fill="none" stroke="#63b8ff" d="M647.03,-178.06C670,-176.92 694.14,-175.74 717.96,-174.56"/>
<polygon fill="#63b8ff" stroke="#63b8ff" points="717.92,-178.07 727.73,-174.08 717.57,-171.08 717.92,-178.07"/>
</a>
</g>
</g>
<!-- Node15 -->
<g id="Node000015" class="node">
<title>Node15</title>
<g id="a_Node000015"><a xlink:href="classcom_1_1runehive_1_1game_1_1world_1_1entity_1_1_entity.html#a6fbe05d5095666dd6a6ce87d3176c8dc" target="_top" xlink:title=" ">
<ellipse fill="white" stroke="#666666" cx="896.49" cy="-95.81" rx="132.23" ry="25.81"/>
<text xml:space="preserve" text-anchor="start" x="810.99" y="-98.66" font-family="Helvetica,sans-Serif" font-size="12.00">com.runehive.game.world.entity.</text>
<text xml:space="preserve" text-anchor="middle" x="896.49" y="-84.41" font-family="Helvetica,sans-Serif" font-size="12.00">Entity.isRegistered</text>
</a>
</g>
</g>
<!-- Node7&#45;&gt;Node15 -->
<g id="edge17_Node000007_Node000015" class="edge">
<title>Node7&#45;&gt;Node15</title>
<g id="a_edge17_Node000007_Node000015"><a xlink:title=" ">
<path fill="none" stroke="#63b8ff" d="M590.11,-163.23C629.36,-152.92 677.42,-140.7 720.77,-130.81 742.93,-125.75 766.76,-120.72 789.48,-116.1"/>
<polygon fill="#63b8ff" stroke="#63b8ff" points="789.94,-119.58 799.05,-114.18 788.56,-112.72 789.94,-119.58"/>
</a>
</g>
</g>
<!-- Node16 -->
<g id="Node000016" class="node">
<title>Node16</title>
<g id="a_Node000016"><a xlink:href="classcom_1_1runehive_1_1game_1_1world_1_1_world.html#a245edcc5b77cbc6d0a4aa8a0a0125d67" target="_top" xlink:title="Submits a new event.">
<ellipse fill="white" stroke="#666666" cx="896.49" cy="-25.81" rx="110.49" ry="25.81"/>
<text xml:space="preserve" text-anchor="start" x="826.36" y="-28.66" font-family="Helvetica,sans-Serif" font-size="12.00">com.runehive.game.world.</text>
<text xml:space="preserve" text-anchor="middle" x="896.49" y="-14.41" font-family="Helvetica,sans-Serif" font-size="12.00">World.schedule</text>
</a>
</g>
</g>
<!-- Node7&#45;&gt;Node16 -->
<g id="edge18_Node000007_Node000016" class="edge">
<title>Node7&#45;&gt;Node16</title>
<g id="a_edge18_Node000007_Node000016"><a xlink:title=" ">
<path fill="none" stroke="#63b8ff" d="M544.74,-159.44C585.06,-131.16 654.55,-86.1 720.77,-60.81 742.38,-52.56 766.27,-46.14 789.26,-41.19"/>
<polygon fill="#63b8ff" stroke="#63b8ff" points="789.9,-44.63 798.98,-39.18 788.48,-37.78 789.9,-44.63"/>
</a>
</g>
</g>
<!-- Node9 -->
<g id="Node000009" class="node">
<title>Node9</title>
<g id="a_Node000009"><a xlink:href="classcom_1_1runehive_1_1game_1_1task_1_1_task.html#a2fc8d15b55a8f0a55a20c0b78f77007c" target="_top" xlink:title="Cancels all subsequent executions.">
<ellipse fill="white" stroke="#666666" cx="1596.57" cy="-289.81" rx="149.73" ry="15.73"/>
<text xml:space="preserve" text-anchor="middle" x="1596.57" y="-285.53" font-family="Helvetica,sans-Serif" font-size="12.00">com.runehive.game.task.Task.cancel</text>
</a>
</g>
</g>
<!-- Node8&#45;&gt;Node9 -->
<g id="edge10_Node000008_Node000009" class="edge">
<title>Node8&#45;&gt;Node9</title>
<g id="a_edge10_Node000008_Node000009"><a xlink:title=" ">
<path fill="none" stroke="#63b8ff" d="M1410.9,-289.81C1418.94,-289.81 1427.03,-289.81 1435.1,-289.81"/>
<polygon fill="#63b8ff" stroke="#63b8ff" points="1434.98,-293.31 1444.98,-289.81 1434.98,-286.31 1434.98,-293.31"/>
</a>
</g>
</g>
<!-- Node10 -->
<g id="Node000010" class="node">
<title>Node10</title>
<g id="a_Node000010"><a xlink:href="classcom_1_1runehive_1_1game_1_1task_1_1_task.html#aef9b4245ff3b594dd844c44da99d51a3" target="_top" xlink:title="A function executed on cancellation.">
<ellipse fill="white" stroke="#666666" cx="1916.65" cy="-289.81" rx="134.35" ry="25.81"/>
<text xml:space="preserve" text-anchor="start" x="1829.65" y="-292.66" font-family="Helvetica,sans-Serif" font-size="12.00">com.runehive.game.task.Task.on</text>
<text xml:space="preserve" text-anchor="middle" x="1916.65" y="-278.41" font-family="Helvetica,sans-Serif" font-size="12.00">Cancel</text>
</a>
</g>
</g>
<!-- Node9&#45;&gt;Node10 -->
<g id="edge11_Node000009_Node000010" class="edge">
<title>Node9&#45;&gt;Node10</title>
<g id="a_edge11_Node000009_Node000010"><a xlink:title=" ">
<path fill="none" stroke="#63b8ff" d="M1746.37,-289.81C1754.5,-289.81 1762.67,-289.81 1770.79,-289.81"/>
<polygon fill="#63b8ff" stroke="#63b8ff" points="1770.71,-293.31 1780.71,-289.81 1770.71,-286.31 1770.71,-293.31"/>
</a>
</g>
</g>
<!-- Node11&#45;&gt;Node8 -->
<g id="edge13_Node000011_Node000008" class="edge">
<title>Node11&#45;&gt;Node8</title>
<g id="a_edge13_Node000011_Node000008"><a xlink:title=" ">
<path fill="none" stroke="#63b8ff" d="M1009.74,-252.6C1048.91,-258.46 1093.1,-265.07 1133.26,-271.07"/>
<polygon fill="#63b8ff" stroke="#63b8ff" points="1132.57,-274.51 1142.97,-272.53 1133.6,-267.59 1132.57,-274.51"/>
</a>
</g>
</g>
<!-- Node12 -->
<g id="Node000012" class="node">
<title>Node12</title>
<g id="a_Node000012"><a xlink:href="classcom_1_1runehive_1_1game_1_1world_1_1_world.html#ae4c923355fea58a85ed39b3b87dc14c5" target="_top" xlink:title=" ">
<ellipse fill="white" stroke="#666666" cx="1259.52" cy="-219.81" rx="110.49" ry="25.81"/>
<text xml:space="preserve" text-anchor="start" x="1189.4" y="-222.66" font-family="Helvetica,sans-Serif" font-size="12.00">com.runehive.game.world.</text>
<text xml:space="preserve" text-anchor="middle" x="1259.52" y="-208.41" font-family="Helvetica,sans-Serif" font-size="12.00">World.getPlayerByName</text>
</a>
</g>
</g>
<!-- Node11&#45;&gt;Node12 -->
<g id="edge14_Node000011_Node000012" class="edge">
<title>Node11&#45;&gt;Node12</title>
<g id="a_edge14_Node000011_Node000012"><a xlink:title=" ">
<path fill="none" stroke="#63b8ff" d="M1039.66,-229.51C1072.67,-228.05 1107.47,-226.5 1139.37,-225.09"/>
<polygon fill="#63b8ff" stroke="#63b8ff" points="1139.18,-228.6 1149.01,-224.66 1138.87,-221.61 1139.18,-228.6"/>
</a>
</g>
</g>
<!-- Node13 -->
<g id="Node000013" class="node">
<title>Node13</title>
<g id="a_Node000013"><a xlink:href="classcom_1_1runehive_1_1game_1_1world_1_1_world.html#a18b7d62253b5c8d79814b9bcbe212ab0" target="_top" xlink:title=" ">
<ellipse fill="white" stroke="#666666" cx="1596.57" cy="-219.81" rx="110.49" ry="25.81"/>
<text xml:space="preserve" text-anchor="start" x="1526.45" y="-222.66" font-family="Helvetica,sans-Serif" font-size="12.00">com.runehive.game.world.</text>
<text xml:space="preserve" text-anchor="middle" x="1596.57" y="-208.41" font-family="Helvetica,sans-Serif" font-size="12.00">World.World</text>
</a>
</g>
</g>
<!-- Node12&#45;&gt;Node13 -->
<g id="edge15_Node000012_Node000013" class="edge">
<title>Node12&#45;&gt;Node13</title>
<g id="a_edge15_Node000012_Node000013"><a xlink:title=" ">
<path fill="none" stroke="#63b8ff" d="M1370.23,-219.81C1403.5,-219.81 1440.23,-219.81 1474.21,-219.81"/>
<polygon fill="#63b8ff" stroke="#63b8ff" points="1474.11,-223.31 1484.11,-219.81 1474.11,-216.31 1474.11,-223.31"/>
</a>
</g>
</g>
</g>
</svg>

<g id="navigator" transform="translate(0 0)" fill="#404254">
  <rect fill="#f2f5e9" fill-opacity="0.5" stroke="#606060" stroke-width=".5" x="0" y="0" width="60" height="60"/>
  <use id="zoomplus" xlink:href="#zoomPlus" x="17" y="9" onmousedown="handleZoom(evt,'in')"/>
  <use id="zoomminus" xlink:href="#zoomMin" x="42" y="9" onmousedown="handleZoom(evt,'out')"/>
  <use id="reset" xlink:href="#resetDef" x="30" y="36" onmousedown="handleReset()"/>
   <use id="arrowup" xlink:href="#arrowUp" x="0" y="0" onmousedown="handlePan(0,-1)"/>
  <use id="arrowright" xlink:href="#arrowRight" x="0" y="0" onmousedown="handlePan(1,0)"/>
  <use id="arrowdown" xlink:href="#arrowDown" x="0" y="0" onmousedown="handlePan(0,1)"/>
  <use id="arrowleft" xlink:href="#arrowLeft" x="0" y="0" onmousedown="handlePan(-1,0)"/>
</g>
<svg viewBox="0 0 15 15" width="100%" height="30px" preserveAspectRatio="xMaxYMin meet">
 <g id="arrow_out" transform="scale(0.3 0.3)">
  <a xlink:href="classcom_1_1runehive_1_1content_1_1ai_1_1_lazy_a_i_manager_a85c58bbc4595fba20ddebfff7efdbb2f_cgraph_org.svg" target="_base">
   <rect id="button" ry="5" rx="5" y="6" x="6" height="38" width="38"
        fill="#f2f5e9" fill-opacity="0.5" stroke="#606060" stroke-width="1.0"/>
   <path id="arrow"
     d="M 11.500037,31.436501 C 11.940474,20.09759 22.043105,11.32322 32.158766,21.979434 L 37.068811,17.246167 C 37.068811,17.246167 37.088388,32 37.088388,32 L 22.160133,31.978069 C 22.160133,31.978069 26.997745,27.140456 26.997745,27.140456 C 18.528582,18.264221 13.291696,25.230495 11.500037,31.436501 z"
     style="fill:#404040;"/>
  </a>
 </g>
</svg>

<style type='text/css'>
<![CDATA[
[data-mouse-over-selected='false'] { opacity: 0.7; }
[data-mouse-over-selected='true']  { opacity: 1.0; }
]]>
</style>
<script type="application/ecmascript"><![CDATA[
document.addEventListener('DOMContentLoaded', (event) => {
  highlightEdges();
  highlightAdjacentNodes();
});
]]></script>
</svg>
