<?xml version="1.0" encoding="UTF-8" standalone="no"?>
<!DOCTYPE svg PUBLIC "-//W3C//DTD SVG 1.1//EN"
 "http://www.w3.org/Graphics/SVG/1.1/DTD/svg11.dtd">
<!-- Generated by graphviz version 14.0.1 (20251006.0113)
 -->
<!-- Title: com.runehive.util.Words.belowTen Pages: 1 -->
<svg width="3053pt" height="500pt"
 viewBox="0.00 0.00 3053.00 500.00" xmlns="http://www.w3.org/2000/svg" xmlns:xlink="http://www.w3.org/1999/xlink">
<g id="graph0" class="graph" transform="scale(1 1) rotate(0) translate(4 495.83)">
<title>com.runehive.util.Words.belowTen</title>
<!-- Node1 -->
<g id="Node000001" class="node">
<title>Node1</title>
<g id="a_Node000001"><a xlink:title=" ">
<ellipse fill="#999999" stroke="#666666" cx="2904.23" cy="-244.83" rx="140.71" ry="15.73"/>
<text xml:space="preserve" text-anchor="middle" x="2904.23" y="-240.56" font-family="Helvetica,sans-Serif" font-size="12.00">com.runehive.util.Words.belowTen</text>
</a>
</g>
</g>
<!-- Node2 -->
<g id="Node000002" class="node">
<title>Node2</title>
<g id="a_Node000002"><a xlink:href="classcom_1_1runehive_1_1util_1_1_words.html#a758fd15a98c5f06866dc4aec6431644d" target="_top" xlink:title=" ">
<ellipse fill="white" stroke="#666666" cx="1114.21" cy="-317.83" rx="126.93" ry="25.81"/>
<text xml:space="preserve" text-anchor="start" x="1032.46" y="-320.68" font-family="Helvetica,sans-Serif" font-size="12.00">com.runehive.util.Words.below</text>
<text xml:space="preserve" text-anchor="middle" x="1114.21" y="-306.43" font-family="Helvetica,sans-Serif" font-size="12.00">Billion</text>
</a>
</g>
</g>
<!-- Node1&#45;&gt;Node2 -->
<g id="edge1_Node000001_Node000002" class="edge">
<title>Node1&#45;&gt;Node2</title>
<g id="a_edge1_Node000001_Node000002"><a xlink:title=" ">
<path fill="none" stroke="#63b8ff" d="M2868.2,-266.4C2778.93,-319.23 2534.24,-450.83 2311.74,-450.83 2311.74,-450.83 2311.74,-450.83 2019.89,-450.83 1713.11,-450.83 1353.97,-375.04 1196.33,-337.89"/>
<polygon fill="#63b8ff" stroke="#63b8ff" points="2869.73,-269.56 2876.52,-261.43 2866.14,-263.55 2869.73,-269.56"/>
</a>
</g>
</g>
<!-- Node3 -->
<g id="Node000003" class="node">
<title>Node3</title>
<g id="a_Node000003"><a xlink:href="classcom_1_1runehive_1_1util_1_1_words.html#a7dc334c642a627c0e45231116070f3a1" target="_top" xlink:title=" ">
<ellipse fill="white" stroke="#666666" cx="835.5" cy="-263.83" rx="115.79" ry="25.81"/>
<text xml:space="preserve" text-anchor="start" x="761.62" y="-266.68" font-family="Helvetica,sans-Serif" font-size="12.00">com.runehive.util.Words.get</text>
<text xml:space="preserve" text-anchor="middle" x="835.5" y="-252.43" font-family="Helvetica,sans-Serif" font-size="12.00">NumberInWords</text>
</a>
</g>
</g>
<!-- Node1&#45;&gt;Node3 -->
<g id="edge30_Node000001_Node000003" class="edge">
<title>Node1&#45;&gt;Node3</title>
<g id="a_edge30_Node000001_Node000003"><a xlink:title=" ">
<path fill="none" stroke="#63b8ff" d="M2882.72,-269.51C2852.48,-304.2 2792.43,-366.83 2727.52,-399.83 2558.81,-485.6 2501,-491.83 2311.74,-491.83 2311.74,-491.83 2311.74,-491.83 1403.06,-491.83 1210.98,-491.83 1159.97,-457.97 987.29,-373.83 940.82,-351.19 893.72,-314.06 864.82,-289.29"/>
<polygon fill="#63b8ff" stroke="#63b8ff" points="2885.26,-271.93 2889.12,-262.06 2879.94,-267.37 2885.26,-271.93"/>
</a>
</g>
</g>
<!-- Node6 -->
<g id="Node000006" class="node">
<title>Node6</title>
<g id="a_Node000006"><a xlink:href="classcom_1_1runehive_1_1util_1_1_words.html#aba2a15abe92705c01ec1a31b17e11a6a" target="_top" xlink:title=" ">
<ellipse fill="white" stroke="#666666" cx="1404.06" cy="-171.83" rx="126.93" ry="25.81"/>
<text xml:space="preserve" text-anchor="start" x="1322.31" y="-174.68" font-family="Helvetica,sans-Serif" font-size="12.00">com.runehive.util.Words.below</text>
<text xml:space="preserve" text-anchor="middle" x="1404.06" y="-160.43" font-family="Helvetica,sans-Serif" font-size="12.00">Crore</text>
</a>
</g>
</g>
<!-- Node1&#45;&gt;Node6 -->
<g id="edge5_Node000001_Node000006" class="edge">
<title>Node1&#45;&gt;Node6</title>
<g id="a_edge5_Node000001_Node000006"><a xlink:title=" ">
<path fill="none" stroke="#63b8ff" d="M2880.61,-221C2849.48,-189.99 2790.14,-137.03 2727.52,-113.83 2606.43,-68.98 2566.59,-101.17 2437.67,-93.83 2051.32,-71.84 1942.2,3.86 1566.99,-90.83 1521.88,-102.21 1474.81,-127.51 1443.12,-146.82"/>
<polygon fill="#63b8ff" stroke="#63b8ff" points="2878.05,-223.38 2887.56,-228.04 2883.03,-218.47 2878.05,-223.38"/>
</a>
</g>
</g>
<!-- Node7 -->
<g id="Node000007" class="node">
<title>Node7</title>
<g id="a_Node000007"><a xlink:href="classcom_1_1runehive_1_1util_1_1_words.html#a84a1e98de15e3c5aab8e74da0340b7ad" target="_top" xlink:title=" ">
<ellipse fill="white" stroke="#666666" cx="2310.74" cy="-244.83" rx="126.93" ry="25.81"/>
<text xml:space="preserve" text-anchor="start" x="2228.99" y="-247.68" font-family="Helvetica,sans-Serif" font-size="12.00">com.runehive.util.Words.below</text>
<text xml:space="preserve" text-anchor="middle" x="2310.74" y="-233.43" font-family="Helvetica,sans-Serif" font-size="12.00">Hundred</text>
</a>
</g>
</g>
<!-- Node1&#45;&gt;Node7 -->
<g id="edge8_Node000001_Node000007" class="edge">
<title>Node1&#45;&gt;Node7</title>
<g id="a_edge8_Node000001_Node000007"><a xlink:title=" ">
<path fill="none" stroke="#63b8ff" d="M2751.64,-244.83C2654.4,-244.83 2529.63,-244.83 2437.82,-244.83"/>
<polygon fill="#63b8ff" stroke="#63b8ff" points="2751.54,-248.33 2761.54,-244.83 2751.54,-241.33 2751.54,-248.33"/>
</a>
</g>
</g>
<!-- Node8 -->
<g id="Node000008" class="node">
<title>Node8</title>
<g id="a_Node000008"><a xlink:href="classcom_1_1runehive_1_1util_1_1_words.html#a50bec4f34b6e468a3cdca44ac0d64cb8" target="_top" xlink:title=" ">
<ellipse fill="white" stroke="#666666" cx="1712.48" cy="-272.83" rx="145.49" ry="15.73"/>
<text xml:space="preserve" text-anchor="middle" x="1712.48" y="-268.56" font-family="Helvetica,sans-Serif" font-size="12.00">com.runehive.util.Words.belowLakh</text>
</a>
</g>
</g>
<!-- Node1&#45;&gt;Node8 -->
<g id="edge21_Node000001_Node000008" class="edge">
<title>Node1&#45;&gt;Node8</title>
<g id="a_edge21_Node000001_Node000008"><a xlink:title=" ">
<path fill="none" stroke="#63b8ff" d="M2776.94,-255C2760.32,-256.31 2743.51,-257.61 2727.52,-258.83 2598.73,-268.63 2566.74,-275.16 2437.67,-279.83 2324.92,-283.91 2296.64,-280.67 2183.82,-279.83 2073.88,-279.01 1949.5,-277.12 1856.27,-275.51"/>
<polygon fill="#63b8ff" stroke="#63b8ff" points="2777.2,-258.49 2786.89,-254.22 2776.65,-251.52 2777.2,-258.49"/>
</a>
</g>
</g>
<!-- Node9 -->
<g id="Node000009" class="node">
<title>Node9</title>
<g id="a_Node000009"><a xlink:href="classcom_1_1runehive_1_1util_1_1_words.html#a459619503d35cca2b5edb7ebb97824d0" target="_top" xlink:title=" ">
<ellipse fill="white" stroke="#666666" cx="2020.89" cy="-130.83" rx="126.93" ry="25.81"/>
<text xml:space="preserve" text-anchor="start" x="1939.14" y="-133.68" font-family="Helvetica,sans-Serif" font-size="12.00">com.runehive.util.Words.below</text>
<text xml:space="preserve" text-anchor="middle" x="2020.89" y="-119.43" font-family="Helvetica,sans-Serif" font-size="12.00">Thousand</text>
</a>
</g>
</g>
<!-- Node1&#45;&gt;Node9 -->
<g id="edge22_Node000001_Node000009" class="edge">
<title>Node1&#45;&gt;Node9</title>
<g id="a_edge22_Node000001_Node000009"><a xlink:title=" ">
<path fill="none" stroke="#63b8ff" d="M2870.68,-222.9C2836.64,-201.31 2780.85,-169.64 2727.52,-155.83 2524.6,-103.28 2277.93,-109.78 2136.49,-119.89"/>
<polygon fill="#63b8ff" stroke="#63b8ff" points="2868.53,-225.68 2878.83,-228.15 2872.32,-219.79 2868.53,-225.68"/>
</a>
</g>
</g>
<!-- Node10 -->
<g id="Node000010" class="node">
<title>Node10</title>
<g id="a_Node000010"><a xlink:href="classcom_1_1runehive_1_1util_1_1_words.html#a347cf48e334f0d1f75a48ece0e5c6c6c" target="_top" xlink:title=" ">
<ellipse fill="white" stroke="#666666" cx="2600.59" cy="-190.83" rx="126.93" ry="25.81"/>
<text xml:space="preserve" text-anchor="start" x="2518.84" y="-193.68" font-family="Helvetica,sans-Serif" font-size="12.00">com.runehive.util.Words.below</text>
<text xml:space="preserve" text-anchor="middle" x="2600.59" y="-179.43" font-family="Helvetica,sans-Serif" font-size="12.00">Twenty</text>
</a>
</g>
</g>
<!-- Node1&#45;&gt;Node10 -->
<g id="edge23_Node000001_Node000010" class="edge">
<title>Node1&#45;&gt;Node10</title>
<g id="a_edge23_Node000001_Node000010"><a xlink:title=" ">
<path fill="none" stroke="#63b8ff" d="M2816.64,-229.33C2779.27,-222.64 2735.43,-214.79 2697.12,-207.93"/>
<polygon fill="#63b8ff" stroke="#63b8ff" points="2815.56,-232.69 2826.02,-231.01 2816.79,-225.8 2815.56,-232.69"/>
</a>
</g>
</g>
<!-- Node2&#45;&gt;Node3 -->
<g id="edge2_Node000002_Node000003" class="edge">
<title>Node2&#45;&gt;Node3</title>
<g id="a_edge2_Node000002_Node000003"><a xlink:title=" ">
<path fill="none" stroke="#63b8ff" d="M1010.26,-297.74C981.82,-292.19 951.24,-286.22 923.79,-280.86"/>
<polygon fill="#63b8ff" stroke="#63b8ff" points="1009.48,-301.15 1019.97,-299.63 1010.83,-294.28 1009.48,-301.15"/>
</a>
</g>
</g>
<!-- Node4 -->
<g id="Node000004" class="node">
<title>Node4</title>
<g id="a_Node000004"><a xlink:href="classcom_1_1runehive_1_1util_1_1_utility.html#ac5dc96c062317dba3adbdc4c3c78bc77" target="_top" xlink:title="Converts an integer into words.">
<ellipse fill="white" stroke="#666666" cx="535.57" cy="-263.83" rx="148.14" ry="15.73"/>
<text xml:space="preserve" text-anchor="middle" x="535.57" y="-259.56" font-family="Helvetica,sans-Serif" font-size="12.00">com.runehive.util.Utility.convertWord</text>
</a>
</g>
</g>
<!-- Node3&#45;&gt;Node4 -->
<g id="edge3_Node000003_Node000004" class="edge">
<title>Node3&#45;&gt;Node4</title>
<g id="a_edge3_Node000003_Node000004"><a xlink:title=" ">
<path fill="none" stroke="#63b8ff" d="M707.87,-263.83C700.01,-263.83 692.06,-263.83 684.12,-263.83"/>
<polygon fill="#63b8ff" stroke="#63b8ff" points="707.8,-267.33 717.8,-263.83 707.8,-260.33 707.8,-267.33"/>
</a>
</g>
</g>
<!-- Node5 -->
<g id="Node000005" class="node">
<title>Node5</title>
<g id="a_Node000005"><a xlink:href="classcom_1_1runehive_1_1game_1_1world_1_1entity_1_1mob_1_1player_1_1_player_assistant.html#aeb94bc8d2eb3333c04255d776981e459" target="_top" xlink:title=" ">
<ellipse fill="white" stroke="#666666" cx="175.72" cy="-263.83" rx="175.72" ry="25.81"/>
<text xml:space="preserve" text-anchor="start" x="59.47" y="-266.68" font-family="Helvetica,sans-Serif" font-size="12.00">com.runehive.game.world.entity.mob.player.</text>
<text xml:space="preserve" text-anchor="middle" x="175.72" y="-252.43" font-family="Helvetica,sans-Serif" font-size="12.00">PlayerAssistant.useROW</text>
</a>
</g>
</g>
<!-- Node4&#45;&gt;Node5 -->
<g id="edge4_Node000004_Node000005" class="edge">
<title>Node4&#45;&gt;Node5</title>
<g id="a_edge4_Node000004_Node000005"><a xlink:title=" ">
<path fill="none" stroke="#63b8ff" d="M375.71,-263.83C367.73,-263.83 359.69,-263.83 351.67,-263.83"/>
<polygon fill="#63b8ff" stroke="#63b8ff" points="375.44,-267.33 385.44,-263.83 375.44,-260.33 375.44,-267.33"/>
</a>
</g>
</g>
<!-- Node6&#45;&gt;Node2 -->
<g id="edge6_Node000006_Node000002" class="edge">
<title>Node6&#45;&gt;Node2</title>
<g id="a_edge6_Node000006_Node000002"><a xlink:title=" ">
<path fill="none" stroke="#63b8ff" d="M1315.69,-196.17C1302.54,-200.8 1289.32,-206.04 1277.14,-211.83 1229.64,-234.4 1179.7,-268.99 1148.06,-292.47"/>
<polygon fill="#63b8ff" stroke="#63b8ff" points="1316.44,-199.61 1324.77,-193.07 1314.17,-192.99 1316.44,-199.61"/>
</a>
</g>
</g>
<!-- Node6&#45;&gt;Node3 -->
<g id="edge7_Node000006_Node000003" class="edge">
<title>Node6&#45;&gt;Node3</title>
<g id="a_edge7_Node000006_Node000003"><a xlink:title=" ">
<path fill="none" stroke="#63b8ff" d="M1292.4,-189.8C1186.83,-206.94 1029.56,-232.48 930.07,-248.64"/>
<polygon fill="#63b8ff" stroke="#63b8ff" points="1292.92,-193.26 1302.23,-188.2 1291.8,-186.35 1292.92,-193.26"/>
</a>
</g>
</g>
<!-- Node7&#45;&gt;Node2 -->
<g id="edge9_Node000007_Node000002" class="edge">
<title>Node7&#45;&gt;Node2</title>
<g id="a_edge9_Node000007_Node000002"><a xlink:title=" ">
<path fill="none" stroke="#63b8ff" d="M2205.08,-264.27C2186.07,-267.42 2166.38,-270.43 2147.82,-272.83 1823.04,-314.84 1436.54,-319.82 1241.38,-319.22"/>
<polygon fill="#63b8ff" stroke="#63b8ff" points="2205.41,-267.76 2214.7,-262.65 2204.25,-260.86 2205.41,-267.76"/>
</a>
</g>
</g>
<!-- Node7&#45;&gt;Node3 -->
<g id="edge20_Node000007_Node000003" class="edge">
<title>Node7&#45;&gt;Node3</title>
<g id="a_edge20_Node000007_Node000003"><a xlink:title=" ">
<path fill="none" stroke="#63b8ff" d="M2241.95,-272.11C2213.35,-282.49 2179.41,-293.37 2147.82,-299.83 2023.59,-325.22 1428.37,-348.13 1241.14,-352.83 1128.35,-355.66 1096.12,-382.55 987.29,-352.83 942.13,-340.5 896.73,-310.8 867.73,-289.08"/>
<polygon fill="#63b8ff" stroke="#63b8ff" points="2243.05,-275.43 2251.21,-268.69 2240.62,-268.87 2243.05,-275.43"/>
</a>
</g>
</g>
<!-- Node7&#45;&gt;Node6 -->
<g id="edge10_Node000007_Node000006" class="edge">
<title>Node7&#45;&gt;Node6</title>
<g id="a_edge10_Node000007_Node000006"><a xlink:title=" ">
<path fill="none" stroke="#63b8ff" d="M2180.55,-234.41C2004.69,-220.22 1692.47,-195.02 1522.78,-181.33"/>
<polygon fill="#63b8ff" stroke="#63b8ff" points="2180.18,-237.89 2190.43,-235.2 2180.74,-230.91 2180.18,-237.89"/>
</a>
</g>
</g>
<!-- Node7&#45;&gt;Node8 -->
<g id="edge11_Node000007_Node000008" class="edge">
<title>Node7&#45;&gt;Node8</title>
<g id="a_edge11_Node000007_Node000008"><a xlink:title=" ">
<path fill="none" stroke="#63b8ff" d="M2175.07,-251.15C2076.96,-255.76 1944.67,-261.97 1846.87,-266.57"/>
<polygon fill="#63b8ff" stroke="#63b8ff" points="2175.22,-254.65 2185.04,-250.69 2174.89,-247.66 2175.22,-254.65"/>
</a>
</g>
</g>
<!-- Node7&#45;&gt;Node9 -->
<g id="edge15_Node000007_Node000009" class="edge">
<title>Node7&#45;&gt;Node9</title>
<g id="a_edge15_Node000007_Node000009"><a xlink:title=" ">
<path fill="none" stroke="#63b8ff" d="M2240.64,-217.47C2191.71,-198.09 2126.79,-172.37 2080.41,-154.01"/>
<polygon fill="#63b8ff" stroke="#63b8ff" points="2239.15,-220.64 2249.74,-221.07 2241.73,-214.13 2239.15,-220.64"/>
</a>
</g>
</g>
<!-- Node8&#45;&gt;Node2 -->
<g id="edge12_Node000008_Node000002" class="edge">
<title>Node8&#45;&gt;Node2</title>
<g id="a_edge12_Node000008_Node000002"><a xlink:title=" ">
<path fill="none" stroke="#63b8ff" d="M1580.08,-282.75C1476.7,-290.55 1333.91,-301.33 1233.95,-308.87"/>
<polygon fill="#63b8ff" stroke="#63b8ff" points="1580.31,-286.24 1590.02,-282 1579.79,-279.26 1580.31,-286.24"/>
</a>
</g>
</g>
<!-- Node8&#45;&gt;Node3 -->
<g id="edge14_Node000008_Node000003" class="edge">
<title>Node8&#45;&gt;Node3</title>
<g id="a_edge14_Node000008_Node000003"><a xlink:title=" ">
<path fill="none" stroke="#63b8ff" d="M1556.22,-271.23C1382.96,-269.45 1106.64,-266.61 951.63,-265.02"/>
<polygon fill="#63b8ff" stroke="#63b8ff" points="1555.93,-274.73 1565.97,-271.33 1556.01,-267.73 1555.93,-274.73"/>
</a>
</g>
</g>
<!-- Node8&#45;&gt;Node6 -->
<g id="edge13_Node000008_Node000006" class="edge">
<title>Node8&#45;&gt;Node6</title>
<g id="a_edge13_Node000008_Node000006"><a xlink:title=" ">
<path fill="none" stroke="#63b8ff" d="M1654.31,-253.99C1602.71,-236.98 1526.74,-211.94 1472.25,-193.98"/>
<polygon fill="#63b8ff" stroke="#63b8ff" points="1652.91,-257.21 1663.5,-257.02 1655.1,-250.56 1652.91,-257.21"/>
</a>
</g>
</g>
<!-- Node9&#45;&gt;Node2 -->
<g id="edge16_Node000009_Node000002" class="edge">
<title>Node9&#45;&gt;Node2</title>
<g id="a_edge16_Node000009_Node000002"><a xlink:title=" ">
<path fill="none" stroke="#63b8ff" d="M1921.73,-152.25C1900.7,-156.78 1878.6,-161.5 1857.96,-165.83 1600.15,-219.88 1535.11,-230.54 1277.14,-283.83 1253.23,-288.77 1227.34,-294.18 1203.43,-299.2"/>
<polygon fill="#63b8ff" stroke="#63b8ff" points="1922.44,-155.68 1931.48,-150.15 1920.96,-148.84 1922.44,-155.68"/>
</a>
</g>
</g>
<!-- Node9&#45;&gt;Node3 -->
<g id="edge19_Node000009_Node000003" class="edge">
<title>Node9&#45;&gt;Node3</title>
<g id="a_edge19_Node000009_Node000003"><a xlink:title=" ">
<path fill="none" stroke="#63b8ff" d="M1894.38,-118.92C1696.22,-104.43 1301.15,-93.14 987.29,-194.83 950.59,-206.72 910.99,-225.07 881.59,-239.86"/>
<polygon fill="#63b8ff" stroke="#63b8ff" points="1893.96,-122.4 1904.19,-119.66 1894.48,-115.42 1893.96,-122.4"/>
</a>
</g>
</g>
<!-- Node9&#45;&gt;Node6 -->
<g id="edge17_Node000009_Node000006" class="edge">
<title>Node9&#45;&gt;Node6</title>
<g id="a_edge17_Node000009_Node000006"><a xlink:title=" ">
<path fill="none" stroke="#63b8ff" d="M1888.62,-139.58C1780.97,-146.76 1629.82,-156.84 1525.29,-163.81"/>
<polygon fill="#63b8ff" stroke="#63b8ff" points="1888.63,-143.09 1898.38,-138.93 1888.16,-136.11 1888.63,-143.09"/>
</a>
</g>
</g>
<!-- Node9&#45;&gt;Node8 -->
<g id="edge18_Node000009_Node000008" class="edge">
<title>Node9&#45;&gt;Node8</title>
<g id="a_edge18_Node000009_Node000008"><a xlink:title=" ">
<path fill="none" stroke="#63b8ff" d="M1920.13,-153.95C1910.71,-158.59 1901.77,-164.15 1893.96,-170.83 1866.77,-194.08 1886.32,-221.01 1857.96,-242.83 1847,-251.27 1834.23,-257.48 1820.91,-262.03"/>
<polygon fill="#63b8ff" stroke="#63b8ff" points="1921.46,-157.19 1929.14,-149.89 1918.58,-150.81 1921.46,-157.19"/>
</a>
</g>
</g>
<!-- Node10&#45;&gt;Node2 -->
<g id="edge24_Node000010_Node000002" class="edge">
<title>Node10&#45;&gt;Node2</title>
<g id="a_edge24_Node000010_Node000002"><a xlink:title=" ">
<path fill="none" stroke="#63b8ff" d="M2555.3,-222.04C2523.99,-242.33 2480.18,-267.26 2437.67,-279.83 2050.6,-394.26 1934.57,-325.66 1530.99,-331.83 1418.18,-333.56 1389.86,-336.69 1277.14,-331.83 1261.63,-331.16 1245.32,-330.13 1229.25,-328.93"/>
<polygon fill="#63b8ff" stroke="#63b8ff" points="2556.91,-225.17 2563.33,-216.74 2553.06,-219.32 2556.91,-225.17"/>
</a>
</g>
</g>
<!-- Node10&#45;&gt;Node3 -->
<g id="edge29_Node000010_Node000003" class="edge">
<title>Node10&#45;&gt;Node3</title>
<g id="a_edge29_Node000010_Node000003"><a xlink:title=" ">
<path fill="none" stroke="#63b8ff" d="M2557.6,-159.03C2526.25,-137 2481.44,-109.01 2437.67,-93.83 2131.06,12.46 2037.98,-0.83 1713.48,-0.83 1713.48,-0.83 1713.48,-0.83 1403.06,-0.83 1208.91,-0.83 1156.76,-40.1 987.29,-134.83 936.92,-162.99 887.91,-209.52 860.04,-238.33"/>
<polygon fill="#63b8ff" stroke="#63b8ff" points="2555.48,-161.82 2565.65,-164.78 2559.54,-156.12 2555.48,-161.82"/>
</a>
</g>
</g>
<!-- Node10&#45;&gt;Node6 -->
<g id="edge25_Node000010_Node000006" class="edge">
<title>Node10&#45;&gt;Node6</title>
<g id="a_edge25_Node000010_Node000006"><a xlink:title=" ">
<path fill="none" stroke="#63b8ff" d="M2518.65,-165.96C2492.91,-158.56 2464.23,-150.83 2437.67,-144.83 2060.19,-59.58 1948.56,-73.37 1566.99,-137.83 1542.07,-142.04 1515.14,-147.38 1490.54,-152.56"/>
<polygon fill="#63b8ff" stroke="#63b8ff" points="2517.45,-169.26 2528.03,-168.68 2519.4,-162.53 2517.45,-169.26"/>
</a>
</g>
</g>
<!-- Node10&#45;&gt;Node7 -->
<g id="edge26_Node000010_Node000007" class="edge">
<title>Node10&#45;&gt;Node7</title>
<g id="a_edge26_Node000010_Node000007"><a xlink:title=" ">
<path fill="none" stroke="#63b8ff" d="M2495.01,-210.45C2465.64,-215.96 2433.9,-221.91 2405.22,-227.29"/>
<polygon fill="#63b8ff" stroke="#63b8ff" points="2495.46,-213.93 2504.65,-208.64 2494.17,-207.05 2495.46,-213.93"/>
</a>
</g>
</g>
<!-- Node10&#45;&gt;Node8 -->
<g id="edge27_Node000010_Node000008" class="edge">
<title>Node10&#45;&gt;Node8</title>
<g id="a_edge27_Node000010_Node000008"><a xlink:title=" ">
<path fill="none" stroke="#63b8ff" d="M2463.02,-194.06C2381.79,-196.74 2276.78,-201.5 2183.82,-209.83 2047.4,-222.06 1889.8,-244.98 1796.07,-259.54"/>
<polygon fill="#63b8ff" stroke="#63b8ff" points="2462.92,-197.57 2472.8,-193.75 2462.7,-190.57 2462.92,-197.57"/>
</a>
</g>
</g>
<!-- Node10&#45;&gt;Node9 -->
<g id="edge28_Node000010_Node000009" class="edge">
<title>Node10&#45;&gt;Node9</title>
<g id="a_edge28_Node000010_Node000009"><a xlink:title=" ">
<path fill="none" stroke="#63b8ff" d="M2475.64,-177.96C2374.52,-167.46 2232.87,-152.74 2134.86,-142.56"/>
<polygon fill="#63b8ff" stroke="#63b8ff" points="2475.02,-181.41 2485.33,-178.96 2475.74,-174.45 2475.02,-181.41"/>
</a>
</g>
</g>
</g>
</svg>
