<?xml version="1.0" encoding="UTF-8" standalone="no"?>
<!DOCTYPE svg PUBLIC "-//W3C//DTD SVG 1.1//EN"
 "http://www.w3.org/Graphics/SVG/1.1/DTD/svg11.dtd">
<!-- Generated by graphviz version 14.0.1 (20251006.0113)
 -->
<!-- Title: com.runehive.content.activity.impl.kraken.KrakenActivity.onRegionChange Pages: 1 -->
<!--zoomable 472 -->

<svg id="main" version="1.1" xmlns="http://www.w3.org/2000/svg" xmlns:xlink="http://www.w3.org/1999/xlink" xml:space="preserve" onload="init(evt)">

<style type="text/css"><![CDATA[
.node, .edge {opacity: 0.7;}
.node.selected, .edge.selected {opacity: 1;}
.edge:hover path { stroke: red; }
.edge:hover polygon { stroke: red; fill: red; }
]]></style>

<defs>
  <circle id="rim" cx="0" cy="0" r="7"/>
  <circle id="rim2" cx="0" cy="0" r="3.5"/>
  <g id="zoomPlus">
    <use xlink:href="#rim" fill="#404040"><set attributeName="fill" to="#808080" begin="zoomplus.mouseover" end="zoomplus.mouseout"/></use>
    <path d="M-4,0h8M0,-4v8" fill="none" stroke="white" stroke-width="1.5" pointer-events="none"/>
  </g>
  <g id="zoomMin">
    <use xlink:href="#rim" fill="#404040"><set attributeName="fill" to="#808080" begin="zoomminus.mouseover" end="zoomminus.mouseout"/></use>
    <path d="M-4,0h8" fill="none" stroke="white" stroke-width="1.5" pointer-events="none"/>
  </g>
  <g id="arrowUp" transform="translate(30 24)">
    <use xlink:href="#rim"/>
    <path pointer-events="none" fill="none" stroke="white" stroke-width="1.5" d="M0,-3.0v7 M-2.5,-0.5L0,-3.0L2.5,-0.5"/>
  </g>
  <g id="arrowRight" transform="rotate(90) translate(36 -43)">
    <use xlink:href="#rim"/>
    <path pointer-events="none" fill="none" stroke="white" stroke-width="1.5" d="M0,-3.0v7 M-2.5,-0.5L0,-3.0L2.5,-0.5"/>
  </g>
  <g id="arrowDown" transform="rotate(180) translate(-30 -48)">
    <use xlink:href="#rim"/>
    <path pointer-events="none" fill="none" stroke="white" stroke-width="1.5" d="M0,-3.0v7 M-2.5,-0.5L0,-3.0L2.5,-0.5"/>
  </g>
  <g id="arrowLeft" transform="rotate(270) translate(-36 17)">
    <use xlink:href="#rim"/>
    <path pointer-events="none" fill="none" stroke="white" stroke-width="1.5" d="M0,-3.0v7 M-2.5,-0.5L0,-3.0L2.5,-0.5"/>
  </g>
  <g id="resetDef">
    <use xlink:href="#rim2" fill="#404040"><set attributeName="fill" to="#808080" begin="reset.mouseover" end="reset.mouseout"/></use>
  </g>
</defs>
<script type="application/ecmascript">
var viewWidth = 1526;
var viewHeight = 472;
var sectionId = 'dynsection-14';
</script>
<script type="application/ecmascript" xlink:href="svg.min.js"/>
<svg id="graph" class="graph">
<g id="viewport">
<title>com.runehive.content.activity.impl.kraken.KrakenActivity.onRegionChange</title>
<!-- Node1 -->
<g id="Node000001" class="node">
<title>Node1</title>
<g id="a_Node000001"><a xlink:title="Called when the player changes region.">
<ellipse fill="#999999" stroke="#666666" cx="167.23" cy="-185.81" rx="167.23" ry="25.81"/>
<text xml:space="preserve" text-anchor="start" x="56.98" y="-188.66" font-family="Helvetica,sans-Serif" font-size="12.00">com.runehive.content.activity.impl.kraken.</text>
<text xml:space="preserve" text-anchor="middle" x="167.23" y="-174.41" font-family="Helvetica,sans-Serif" font-size="12.00">KrakenActivity.onRegionChange</text>
</a>
</g>
</g>
<!-- Node2 -->
<g id="Node000002" class="node">
<title>Node2</title>
<g id="a_Node000002"><a xlink:href="classcom_1_1runehive_1_1content_1_1activity_1_1impl_1_1kraken_1_1_kraken_activity.html#a54651af07b169957aaad3efd8e3dc3ee" target="_top" xlink:title="Cleans up the activity when finished.">
<ellipse fill="white" stroke="#666666" cx="908.15" cy="-341.81" rx="167.23" ry="25.81"/>
<text xml:space="preserve" text-anchor="start" x="797.9" y="-344.66" font-family="Helvetica,sans-Serif" font-size="12.00">com.runehive.content.activity.impl.kraken.</text>
<text xml:space="preserve" text-anchor="middle" x="908.15" y="-330.41" font-family="Helvetica,sans-Serif" font-size="12.00">KrakenActivity.cleanup</text>
</a>
</g>
</g>
<!-- Node1&#45;&gt;Node2 -->
<g id="edge1_Node000001_Node000002" class="edge">
<title>Node1&#45;&gt;Node2</title>
<g id="a_edge1_Node000001_Node000002"><a xlink:title=" ">
<path fill="none" stroke="#63b8ff" d="M267.89,-206.85C405.62,-235.93 653.36,-288.23 796.63,-318.47"/>
<polygon fill="#63b8ff" stroke="#63b8ff" points="795.62,-321.84 806.12,-320.48 797.06,-314.99 795.62,-321.84"/>
</a>
</g>
</g>
<!-- Node6 -->
<g id="Node000006" class="node">
<title>Node6</title>
<g id="a_Node000006"><a xlink:href="classcom_1_1runehive_1_1content_1_1activity_1_1impl_1_1kraken_1_1_kraken_activity.html#adf7db1f86691ea2bd291c559746c879a" target="_top" xlink:title="Finishes the activity.">
<ellipse fill="white" stroke="#666666" cx="537.69" cy="-185.81" rx="167.23" ry="25.81"/>
<text xml:space="preserve" text-anchor="start" x="427.44" y="-188.66" font-family="Helvetica,sans-Serif" font-size="12.00">com.runehive.content.activity.impl.kraken.</text>
<text xml:space="preserve" text-anchor="middle" x="537.69" y="-174.41" font-family="Helvetica,sans-Serif" font-size="12.00">KrakenActivity.finish</text>
</a>
</g>
</g>
<!-- Node1&#45;&gt;Node6 -->
<g id="edge6_Node000001_Node000006" class="edge">
<title>Node1&#45;&gt;Node6</title>
<g id="a_edge6_Node000001_Node000006"><a xlink:title=" ">
<path fill="none" stroke="#63b8ff" d="M334.94,-185.81C342.91,-185.81 350.92,-185.81 358.91,-185.81"/>
<polygon fill="#63b8ff" stroke="#63b8ff" points="358.68,-189.31 368.68,-185.81 358.68,-182.31 358.68,-189.31"/>
</a>
</g>
</g>
<!-- Node9 -->
<g id="Node000009" class="node">
<title>Node9</title>
<g id="a_Node000009"><a xlink:href="classcom_1_1runehive_1_1game_1_1world_1_1position_1_1_area.html#a9891d55360a397d959b9608b64d5fb7c" target="_top" xlink:title=" ">
<ellipse fill="white" stroke="#666666" cx="908.15" cy="-25.81" rx="142.31" ry="25.81"/>
<text xml:space="preserve" text-anchor="start" x="815.53" y="-28.66" font-family="Helvetica,sans-Serif" font-size="12.00">com.runehive.game.world.position.</text>
<text xml:space="preserve" text-anchor="middle" x="908.15" y="-14.41" font-family="Helvetica,sans-Serif" font-size="12.00">Area.inKraken</text>
</a>
</g>
</g>
<!-- Node1&#45;&gt;Node9 -->
<g id="edge14_Node000001_Node000009" class="edge">
<title>Node1&#45;&gt;Node9</title>
<g id="a_edge14_Node000001_Node000009"><a xlink:title=" ">
<path fill="none" stroke="#63b8ff" d="M264.95,-164.47C378.78,-139.41 573.51,-96.7 740.92,-60.81 760.75,-56.56 781.92,-52.06 802.28,-47.77"/>
<polygon fill="#63b8ff" stroke="#63b8ff" points="802.96,-51.2 812.02,-45.71 801.51,-44.35 802.96,-51.2"/>
</a>
</g>
</g>
<!-- Node3 -->
<g id="Node000003" class="node">
<title>Node3</title>
<g id="a_Node000003"><a xlink:href="classcom_1_1runehive_1_1game_1_1world_1_1entity_1_1mob_1_1_mob.html#a763d4a9979297da0ff66b8f4b86fd5bc" target="_top" xlink:title=" ">
<ellipse fill="white" stroke="#666666" cx="1314.68" cy="-419.81" rx="150.79" ry="25.81"/>
<text xml:space="preserve" text-anchor="start" x="1216.05" y="-422.66" font-family="Helvetica,sans-Serif" font-size="12.00">com.runehive.game.world.entity.mob.</text>
<text xml:space="preserve" text-anchor="middle" x="1314.68" y="-408.41" font-family="Helvetica,sans-Serif" font-size="12.00">Mob.animate</text>
</a>
</g>
</g>
<!-- Node2&#45;&gt;Node3 -->
<g id="edge2_Node000002_Node000003" class="edge">
<title>Node2&#45;&gt;Node3</title>
<g id="a_edge2_Node000002_Node000003"><a xlink:title=" ">
<path fill="none" stroke="#63b8ff" d="M1005.95,-363.18C1039.3,-370.33 1076.93,-378.17 1111.38,-384.81 1137.99,-389.94 1166.64,-395.11 1193.76,-399.84"/>
<polygon fill="#63b8ff" stroke="#63b8ff" points="1192.94,-403.25 1203.39,-401.51 1194.13,-396.35 1192.94,-403.25"/>
</a>
</g>
</g>
<!-- Node4 -->
<g id="Node000004" class="node">
<title>Node4</title>
<g id="a_Node000004"><a xlink:href="classcom_1_1runehive_1_1game_1_1world_1_1entity_1_1mob_1_1npc_1_1definition_1_1_npc_definition.html#a1048b2e40ae7125dd72fa10b82907e87" target="_top" xlink:title=" ">
<ellipse fill="white" stroke="#666666" cx="1314.68" cy="-349.81" rx="203.29" ry="25.81"/>
<text xml:space="preserve" text-anchor="start" x="1178.93" y="-352.66" font-family="Helvetica,sans-Serif" font-size="12.00">com.runehive.game.world.entity.mob.npc.definition.</text>
<text xml:space="preserve" text-anchor="middle" x="1314.68" y="-338.41" font-family="Helvetica,sans-Serif" font-size="12.00">NpcDefinition.getDeathAnimation</text>
</a>
</g>
</g>
<!-- Node2&#45;&gt;Node4 -->
<g id="edge4_Node000002_Node000004" class="edge">
<title>Node2&#45;&gt;Node4</title>
<g id="a_edge4_Node000002_Node000004"><a xlink:title=" ">
<path fill="none" stroke="#63b8ff" d="M1074.56,-345.08C1083.64,-345.26 1092.83,-345.44 1102.04,-345.62"/>
<polygon fill="#63b8ff" stroke="#63b8ff" points="1101.7,-349.12 1111.76,-345.82 1101.83,-342.12 1101.7,-349.12"/>
</a>
</g>
</g>
<!-- Node5 -->
<g id="Node000005" class="node">
<title>Node5</title>
<g id="a_Node000005"><a xlink:href="classcom_1_1runehive_1_1game_1_1world_1_1_world.html#a245edcc5b77cbc6d0a4aa8a0a0125d67" target="_top" xlink:title="Submits a new event.">
<ellipse fill="white" stroke="#666666" cx="1314.68" cy="-279.81" rx="110.49" ry="25.81"/>
<text xml:space="preserve" text-anchor="start" x="1244.55" y="-282.66" font-family="Helvetica,sans-Serif" font-size="12.00">com.runehive.game.world.</text>
<text xml:space="preserve" text-anchor="middle" x="1314.68" y="-268.41" font-family="Helvetica,sans-Serif" font-size="12.00">World.schedule</text>
</a>
</g>
</g>
<!-- Node2&#45;&gt;Node5 -->
<g id="edge5_Node000002_Node000005" class="edge">
<title>Node2&#45;&gt;Node5</title>
<g id="a_edge5_Node000002_Node000005"><a xlink:title=" ">
<path fill="none" stroke="#63b8ff" d="M1028.34,-323.54C1086.01,-314.7 1154.58,-304.19 1210.05,-295.69"/>
<polygon fill="#63b8ff" stroke="#63b8ff" points="1210.47,-299.17 1219.83,-294.19 1209.41,-292.25 1210.47,-299.17"/>
</a>
</g>
</g>
<!-- Node3&#45;&gt;Node3 -->
<g id="edge3_Node000003_Node000003" class="edge">
<title>Node3&#45;&gt;Node3</title>
<g id="a_edge3_Node000003_Node000003"><a xlink:title=" ">
<path fill="none" stroke="#63b8ff" d="M1240.71,-442.35C1230.47,-453.59 1255.13,-463.62 1314.68,-463.62 1352.83,-463.62 1376.66,-459.5 1386.16,-453.59"/>
<polygon fill="#63b8ff" stroke="#63b8ff" points="1389.58,-454.35 1388.32,-443.83 1382.75,-452.84 1389.58,-454.35"/>
</a>
</g>
</g>
<!-- Node6&#45;&gt;Node2 -->
<g id="edge9_Node000006_Node000002" class="edge">
<title>Node6&#45;&gt;Node2</title>
<g id="a_edge9_Node000006_Node000002"><a xlink:title=" ">
<path fill="none" stroke="#63b8ff" d="M575.46,-211.2C614.79,-237.32 679.81,-277.51 740.92,-301.81 757.03,-308.21 774.43,-313.78 791.7,-318.55"/>
<polygon fill="#63b8ff" stroke="#63b8ff" points="790.4,-321.82 800.97,-321.03 792.21,-315.06 790.4,-321.82"/>
</a>
</g>
</g>
<!-- Node6&#45;&gt;Node5 -->
<g id="edge13_Node000006_Node000005" class="edge">
<title>Node6&#45;&gt;Node5</title>
<g id="a_edge13_Node000006_Node000005"><a xlink:title=" ">
<path fill="none" stroke="#63b8ff" d="M585.73,-210.97C625.73,-230.92 685.37,-257.3 740.92,-268.81 897.37,-301.23 1083.02,-297.29 1199.61,-289.86"/>
<polygon fill="#63b8ff" stroke="#63b8ff" points="1199.76,-293.36 1209.51,-289.21 1199.3,-286.37 1199.76,-293.36"/>
</a>
</g>
</g>
<!-- Node7 -->
<g id="Node000007" class="node">
<title>Node7</title>
<g id="a_Node000007"><a xlink:href="classcom_1_1runehive_1_1content_1_1achievement_1_1_achievement_handler.html#a383fb0ccbf23e33737c19d61fcb332ac" target="_top" xlink:title="Activates the achievement for the individual player.">
<ellipse fill="white" stroke="#666666" cx="908.15" cy="-215.81" rx="144.43" ry="25.81"/>
<text xml:space="preserve" text-anchor="start" x="814.03" y="-218.66" font-family="Helvetica,sans-Serif" font-size="12.00">com.runehive.content.achievement.</text>
<text xml:space="preserve" text-anchor="middle" x="908.15" y="-204.41" font-family="Helvetica,sans-Serif" font-size="12.00">AchievementHandler.activate</text>
</a>
</g>
</g>
<!-- Node6&#45;&gt;Node7 -->
<g id="edge7_Node000006_Node000007" class="edge">
<title>Node6&#45;&gt;Node7</title>
<g id="a_edge7_Node000006_Node000007"><a xlink:title=" ">
<path fill="none" stroke="#63b8ff" d="M686.7,-197.86C712.41,-199.95 739.1,-202.13 764.66,-204.21"/>
<polygon fill="#63b8ff" stroke="#63b8ff" points="764.16,-207.68 774.41,-205 764.73,-200.7 764.16,-207.68"/>
</a>
</g>
</g>
<!-- Node8 -->
<g id="Node000008" class="node">
<title>Node8</title>
<g id="a_Node000008"><a xlink:href="classcom_1_1runehive_1_1util_1_1_utility.html#a9d880a8e3188a9193421cc25bc0eef46" target="_top" xlink:title="Gets the current server time and formats it.">
<ellipse fill="white" stroke="#666666" cx="908.15" cy="-155.81" rx="130.64" ry="15.73"/>
<text xml:space="preserve" text-anchor="middle" x="908.15" y="-151.53" font-family="Helvetica,sans-Serif" font-size="12.00">com.runehive.util.Utility.getTime</text>
</a>
</g>
</g>
<!-- Node6&#45;&gt;Node8 -->
<g id="edge10_Node000006_Node000008" class="edge">
<title>Node6&#45;&gt;Node8</title>
<g id="a_edge10_Node000006_Node000008"><a xlink:title=" ">
<path fill="none" stroke="#63b8ff" d="M686.7,-173.76C720.08,-171.04 755.12,-168.19 787.18,-165.58"/>
<polygon fill="#63b8ff" stroke="#63b8ff" points="787.2,-169.09 796.88,-164.79 786.63,-162.11 787.2,-169.09"/>
</a>
</g>
</g>
<!-- Node6&#45;&gt;Node9 -->
<g id="edge11_Node000006_Node000009" class="edge">
<title>Node6&#45;&gt;Node9</title>
<g id="a_edge11_Node000006_Node000009"><a xlink:title=" ">
<path fill="none" stroke="#63b8ff" d="M608.03,-161.98C639.61,-149.04 676.25,-130.9 704.92,-107.81 725.42,-91.31 718.66,-74.84 740.92,-60.81 752.13,-53.75 764.52,-48.08 777.34,-43.55"/>
<polygon fill="#63b8ff" stroke="#63b8ff" points="778.34,-46.9 786.75,-40.47 776.16,-40.25 778.34,-46.9"/>
</a>
</g>
</g>
<!-- Node10 -->
<g id="Node000010" class="node">
<title>Node10</title>
<g id="a_Node000010"><a xlink:href="classcom_1_1runehive_1_1content_1_1activity_1_1impl_1_1kraken_1_1_kraken_activity.html#a1c69af889d3be12b94f26c26cc809926" target="_top" xlink:title="Constructs a new KrakenActivity.">
<ellipse fill="white" stroke="#666666" cx="908.15" cy="-95.81" rx="167.23" ry="25.81"/>
<text xml:space="preserve" text-anchor="start" x="797.9" y="-98.66" font-family="Helvetica,sans-Serif" font-size="12.00">com.runehive.content.activity.impl.kraken.</text>
<text xml:space="preserve" text-anchor="middle" x="908.15" y="-84.41" font-family="Helvetica,sans-Serif" font-size="12.00">KrakenActivity.KrakenActivity</text>
</a>
</g>
</g>
<!-- Node6&#45;&gt;Node10 -->
<g id="edge12_Node000006_Node000010" class="edge">
<title>Node6&#45;&gt;Node10</title>
<g id="a_edge12_Node000006_Node000010"><a xlink:title=" ">
<path fill="none" stroke="#63b8ff" d="M618.62,-162.92C655.7,-152.6 700.42,-140.57 740.92,-130.81 757.82,-126.74 775.75,-122.68 793.33,-118.86"/>
<polygon fill="#63b8ff" stroke="#63b8ff" points="794.01,-122.29 803.05,-116.76 792.53,-115.45 794.01,-122.29"/>
</a>
</g>
</g>
<!-- Node7&#45;&gt;Node7 -->
<g id="edge8_Node000007_Node000007" class="edge">
<title>Node7&#45;&gt;Node7</title>
<g id="a_edge8_Node000007_Node000007"><a xlink:title=" ">
<path fill="none" stroke="#63b8ff" d="M840.39,-238.8C832.02,-249.86 854.61,-259.62 908.15,-259.62 942.45,-259.62 964.05,-255.61 972.95,-249.83"/>
<polygon fill="#63b8ff" stroke="#63b8ff" points="976.3,-250.83 975.53,-240.26 969.54,-249 976.3,-250.83"/>
</a>
</g>
</g>
</g>
</svg>

<g id="navigator" transform="translate(0 0)" fill="#404254">
  <rect fill="#f2f5e9" fill-opacity="0.5" stroke="#606060" stroke-width=".5" x="0" y="0" width="60" height="60"/>
  <use id="zoomplus" xlink:href="#zoomPlus" x="17" y="9" onmousedown="handleZoom(evt,'in')"/>
  <use id="zoomminus" xlink:href="#zoomMin" x="42" y="9" onmousedown="handleZoom(evt,'out')"/>
  <use id="reset" xlink:href="#resetDef" x="30" y="36" onmousedown="handleReset()"/>
   <use id="arrowup" xlink:href="#arrowUp" x="0" y="0" onmousedown="handlePan(0,-1)"/>
  <use id="arrowright" xlink:href="#arrowRight" x="0" y="0" onmousedown="handlePan(1,0)"/>
  <use id="arrowdown" xlink:href="#arrowDown" x="0" y="0" onmousedown="handlePan(0,1)"/>
  <use id="arrowleft" xlink:href="#arrowLeft" x="0" y="0" onmousedown="handlePan(-1,0)"/>
</g>
<svg viewBox="0 0 15 15" width="100%" height="30px" preserveAspectRatio="xMaxYMin meet">
 <g id="arrow_out" transform="scale(0.3 0.3)">
  <a xlink:href="classcom_1_1runehive_1_1content_1_1activity_1_1impl_1_1kraken_1_1_kraken_activity_a4311d67d447e127bded489ada1c75682_cgraph_org.svg" target="_base">
   <rect id="button" ry="5" rx="5" y="6" x="6" height="38" width="38"
        fill="#f2f5e9" fill-opacity="0.5" stroke="#606060" stroke-width="1.0"/>
   <path id="arrow"
     d="M 11.500037,31.436501 C 11.940474,20.09759 22.043105,11.32322 32.158766,21.979434 L 37.068811,17.246167 C 37.068811,17.246167 37.088388,32 37.088388,32 L 22.160133,31.978069 C 22.160133,31.978069 26.997745,27.140456 26.997745,27.140456 C 18.528582,18.264221 13.291696,25.230495 11.500037,31.436501 z"
     style="fill:#404040;"/>
  </a>
 </g>
</svg>

<style type='text/css'>
<![CDATA[
[data-mouse-over-selected='false'] { opacity: 0.7; }
[data-mouse-over-selected='true']  { opacity: 1.0; }
]]>
</style>
<script type="application/ecmascript"><![CDATA[
document.addEventListener('DOMContentLoaded', (event) => {
  highlightEdges();
  highlightAdjacentNodes();
});
]]></script>
</svg>
