<?xml version="1.0" encoding="UTF-8" standalone="no"?>
<!DOCTYPE svg PUBLIC "-//W3C//DTD SVG 1.1//EN"
 "http://www.w3.org/Graphics/SVG/1.1/DTD/svg11.dtd">
<!-- Generated by graphviz version 14.0.1 (20251006.0113)
 -->
<!-- Title: com.runehive.game.action.impl.InspectAction.execute Pages: 1 -->
<!--zoomable 540 -->

<svg id="main" version="1.1" xmlns="http://www.w3.org/2000/svg" xmlns:xlink="http://www.w3.org/1999/xlink" xml:space="preserve" onload="init(evt)">

<style type="text/css"><![CDATA[
.node, .edge {opacity: 0.7;}
.node.selected, .edge.selected {opacity: 1;}
.edge:hover path { stroke: red; }
.edge:hover polygon { stroke: red; fill: red; }
]]></style>

<defs>
  <circle id="rim" cx="0" cy="0" r="7"/>
  <circle id="rim2" cx="0" cy="0" r="3.5"/>
  <g id="zoomPlus">
    <use xlink:href="#rim" fill="#404040"><set attributeName="fill" to="#808080" begin="zoomplus.mouseover" end="zoomplus.mouseout"/></use>
    <path d="M-4,0h8M0,-4v8" fill="none" stroke="white" stroke-width="1.5" pointer-events="none"/>
  </g>
  <g id="zoomMin">
    <use xlink:href="#rim" fill="#404040"><set attributeName="fill" to="#808080" begin="zoomminus.mouseover" end="zoomminus.mouseout"/></use>
    <path d="M-4,0h8" fill="none" stroke="white" stroke-width="1.5" pointer-events="none"/>
  </g>
  <g id="arrowUp" transform="translate(30 24)">
    <use xlink:href="#rim"/>
    <path pointer-events="none" fill="none" stroke="white" stroke-width="1.5" d="M0,-3.0v7 M-2.5,-0.5L0,-3.0L2.5,-0.5"/>
  </g>
  <g id="arrowRight" transform="rotate(90) translate(36 -43)">
    <use xlink:href="#rim"/>
    <path pointer-events="none" fill="none" stroke="white" stroke-width="1.5" d="M0,-3.0v7 M-2.5,-0.5L0,-3.0L2.5,-0.5"/>
  </g>
  <g id="arrowDown" transform="rotate(180) translate(-30 -48)">
    <use xlink:href="#rim"/>
    <path pointer-events="none" fill="none" stroke="white" stroke-width="1.5" d="M0,-3.0v7 M-2.5,-0.5L0,-3.0L2.5,-0.5"/>
  </g>
  <g id="arrowLeft" transform="rotate(270) translate(-36 17)">
    <use xlink:href="#rim"/>
    <path pointer-events="none" fill="none" stroke="white" stroke-width="1.5" d="M0,-3.0v7 M-2.5,-0.5L0,-3.0L2.5,-0.5"/>
  </g>
  <g id="resetDef">
    <use xlink:href="#rim2" fill="#404040"><set attributeName="fill" to="#808080" begin="reset.mouseover" end="reset.mouseout"/></use>
  </g>
</defs>
<script type="application/ecmascript">
var viewWidth = 909;
var viewHeight = 540;
var sectionId = 'dynsection-2';
</script>
<script type="application/ecmascript" xlink:href="svg.min.js"/>
<svg id="graph" class="graph">
<g id="viewport">
<title>com.runehive.game.action.impl.InspectAction.execute</title>
<!-- Node1 -->
<g id="Node000001" class="node">
<title>Node1</title>
<g id="a_Node000001"><a xlink:title="A function representing the unit of work that will be carried out.">
<ellipse fill="#999999" stroke="#666666" cx="130.64" cy="-270.81" rx="130.64" ry="25.81"/>
<text xml:space="preserve" text-anchor="start" x="46.26" y="-273.66" font-family="Helvetica,sans-Serif" font-size="12.00">com.runehive.game.action.impl.</text>
<text xml:space="preserve" text-anchor="middle" x="130.64" y="-259.41" font-family="Helvetica,sans-Serif" font-size="12.00">InspectAction.execute</text>
</a>
</g>
</g>
<!-- Node2 -->
<g id="Node000002" class="node">
<title>Node2</title>
<g id="a_Node000002"><a xlink:href="classcom_1_1runehive_1_1game_1_1task_1_1_task.html#a2fc8d15b55a8f0a55a20c0b78f77007c" target="_top" xlink:title="Cancels all subsequent executions.">
<ellipse fill="white" stroke="#666666" cx="447.01" cy="-505.81" rx="149.73" ry="15.73"/>
<text xml:space="preserve" text-anchor="middle" x="447.01" y="-501.53" font-family="Helvetica,sans-Serif" font-size="12.00">com.runehive.game.task.Task.cancel</text>
</a>
</g>
</g>
<!-- Node1&#45;&gt;Node2 -->
<g id="edge1_Node000001_Node000002" class="edge">
<title>Node1&#45;&gt;Node2</title>
<g id="a_edge1_Node000001_Node000002"><a xlink:title=" ">
<path fill="none" stroke="#63b8ff" d="M144.04,-296.88C167.18,-342.44 221.57,-435.97 297.28,-480.81 304.72,-485.22 312.72,-488.91 321.01,-491.99"/>
<polygon fill="#63b8ff" stroke="#63b8ff" points="319.62,-495.21 330.21,-495.08 321.85,-488.58 319.62,-495.21"/>
</a>
</g>
</g>
<!-- Node4 -->
<g id="Node000004" class="node">
<title>Node4</title>
<g id="a_Node000004"><a xlink:href="classcom_1_1runehive_1_1game_1_1task_1_1_task.html#ac65f1799a124873541a41828ef78f69a" target="_top" xlink:title=" ">
<ellipse fill="white" stroke="#666666" cx="447.01" cy="-445.81" rx="136.47" ry="25.81"/>
<text xml:space="preserve" text-anchor="start" x="358.51" y="-448.66" font-family="Helvetica,sans-Serif" font-size="12.00">com.runehive.game.task.Task.get</text>
<text xml:space="preserve" text-anchor="middle" x="447.01" y="-434.41" font-family="Helvetica,sans-Serif" font-size="12.00">Delay</text>
</a>
</g>
</g>
<!-- Node1&#45;&gt;Node4 -->
<g id="edge3_Node000001_Node000004" class="edge">
<title>Node1&#45;&gt;Node4</title>
<g id="a_edge3_Node000001_Node000004"><a xlink:title=" ">
<path fill="none" stroke="#63b8ff" d="M154.49,-296.45C184.22,-328.19 239.26,-381.6 297.28,-410.81 308.55,-416.48 320.76,-421.26 333.18,-425.27"/>
<polygon fill="#63b8ff" stroke="#63b8ff" points="332.1,-428.6 342.69,-428.16 334.14,-421.9 332.1,-428.6"/>
</a>
</g>
</g>
<!-- Node5 -->
<g id="Node000005" class="node">
<title>Node5</title>
<g id="a_Node000005"><a xlink:href="classcom_1_1runehive_1_1game_1_1action_1_1impl_1_1_inspect_action.html#a30034c5fa28cde35c544e8b1d03f8d76" target="_top" xlink:title="Inspection time consumption.">
<ellipse fill="white" stroke="#666666" cx="447.01" cy="-375.81" rx="130.64" ry="25.81"/>
<text xml:space="preserve" text-anchor="start" x="362.63" y="-378.66" font-family="Helvetica,sans-Serif" font-size="12.00">com.runehive.game.action.impl.</text>
<text xml:space="preserve" text-anchor="middle" x="447.01" y="-364.41" font-family="Helvetica,sans-Serif" font-size="12.00">InspectAction.getInspectDelay</text>
</a>
</g>
</g>
<!-- Node1&#45;&gt;Node5 -->
<g id="edge4_Node000001_Node000005" class="edge">
<title>Node1&#45;&gt;Node5</title>
<g id="a_edge4_Node000001_Node000005"><a xlink:title=" ">
<path fill="none" stroke="#63b8ff" d="M182.27,-294.84C214.64,-309.54 257.8,-327.93 297.28,-340.81 312.34,-345.72 328.46,-350.25 344.34,-354.3"/>
<polygon fill="#63b8ff" stroke="#63b8ff" points="343.26,-357.64 353.81,-356.66 344.95,-350.85 343.26,-357.64"/>
</a>
</g>
</g>
<!-- Node6 -->
<g id="Node000006" class="node">
<title>Node6</title>
<g id="a_Node000006"><a xlink:href="classcom_1_1runehive_1_1game_1_1action_1_1_action.html#a0972cdcd1cb6f4ff6da36f67602905a2" target="_top" xlink:title="Gets the player.">
<ellipse fill="white" stroke="#666666" cx="447.01" cy="-305.81" rx="112.61" ry="25.81"/>
<text xml:space="preserve" text-anchor="start" x="375.38" y="-308.66" font-family="Helvetica,sans-Serif" font-size="12.00">com.runehive.game.action.</text>
<text xml:space="preserve" text-anchor="middle" x="447.01" y="-294.41" font-family="Helvetica,sans-Serif" font-size="12.00">Action.getMob</text>
</a>
</g>
</g>
<!-- Node1&#45;&gt;Node6 -->
<g id="edge5_Node000001_Node000006" class="edge">
<title>Node1&#45;&gt;Node6</title>
<g id="a_edge5_Node000001_Node000006"><a xlink:title=" ">
<path fill="none" stroke="#63b8ff" d="M245.13,-283.45C273.93,-286.65 304.86,-290.1 333.61,-293.3"/>
<polygon fill="#63b8ff" stroke="#63b8ff" points="333.1,-296.76 343.43,-294.39 333.87,-289.8 333.1,-296.76"/>
</a>
</g>
</g>
<!-- Node7 -->
<g id="Node000007" class="node">
<title>Node7</title>
<g id="a_Node000007"><a xlink:href="classcom_1_1runehive_1_1game_1_1action_1_1impl_1_1_inspect_action.html#a7e1bbe6cd1362db9486782899a2327b4" target="_top" xlink:title="Rewards to give the player.">
<ellipse fill="white" stroke="#666666" cx="447.01" cy="-235.81" rx="130.64" ry="25.81"/>
<text xml:space="preserve" text-anchor="start" x="362.63" y="-238.66" font-family="Helvetica,sans-Serif" font-size="12.00">com.runehive.game.action.impl.</text>
<text xml:space="preserve" text-anchor="middle" x="447.01" y="-224.41" font-family="Helvetica,sans-Serif" font-size="12.00">InspectAction.giveRewards</text>
</a>
</g>
</g>
<!-- Node1&#45;&gt;Node7 -->
<g id="edge6_Node000001_Node000007" class="edge">
<title>Node1&#45;&gt;Node7</title>
<g id="a_edge6_Node000001_Node000007"><a xlink:title=" ">
<path fill="none" stroke="#63b8ff" d="M245.13,-258.17C269.69,-255.44 295.79,-252.53 320.76,-249.75"/>
<polygon fill="#63b8ff" stroke="#63b8ff" points="321.1,-253.24 330.65,-248.65 320.32,-246.28 321.1,-253.24"/>
</a>
</g>
</g>
<!-- Node8 -->
<g id="Node000008" class="node">
<title>Node8</title>
<g id="a_Node000008"><a xlink:href="classcom_1_1runehive_1_1game_1_1action_1_1impl_1_1_inspect_action.html#a10b2d86e9a742a24a2d3cb32de0c513c" target="_top" xlink:title="Initialization method.">
<ellipse fill="white" stroke="#666666" cx="447.01" cy="-165.81" rx="130.64" ry="25.81"/>
<text xml:space="preserve" text-anchor="start" x="362.63" y="-168.66" font-family="Helvetica,sans-Serif" font-size="12.00">com.runehive.game.action.impl.</text>
<text xml:space="preserve" text-anchor="middle" x="447.01" y="-154.41" font-family="Helvetica,sans-Serif" font-size="12.00">InspectAction.init</text>
</a>
</g>
</g>
<!-- Node1&#45;&gt;Node8 -->
<g id="edge7_Node000001_Node000008" class="edge">
<title>Node1&#45;&gt;Node8</title>
<g id="a_edge7_Node000001_Node000008"><a xlink:title=" ">
<path fill="none" stroke="#63b8ff" d="M182.27,-246.78C214.64,-232.08 257.8,-213.69 297.28,-200.81 312.34,-195.89 328.46,-191.37 344.34,-187.32"/>
<polygon fill="#63b8ff" stroke="#63b8ff" points="344.95,-190.77 353.81,-184.95 343.26,-183.98 344.95,-190.77"/>
</a>
</g>
</g>
<!-- Node9 -->
<g id="Node000009" class="node">
<title>Node9</title>
<g id="a_Node000009"><a xlink:href="classcom_1_1runehive_1_1game_1_1task_1_1_task.html#a249da4c310e611aff6b0f2f7cc8800a9" target="_top" xlink:title=" ">
<ellipse fill="white" stroke="#666666" cx="447.01" cy="-95.81" rx="131.17" ry="25.81"/>
<text xml:space="preserve" text-anchor="start" x="362.26" y="-98.66" font-family="Helvetica,sans-Serif" font-size="12.00">com.runehive.game.task.Task.is</text>
<text xml:space="preserve" text-anchor="middle" x="447.01" y="-84.41" font-family="Helvetica,sans-Serif" font-size="12.00">Running</text>
</a>
</g>
</g>
<!-- Node1&#45;&gt;Node9 -->
<g id="edge8_Node000001_Node000009" class="edge">
<title>Node1&#45;&gt;Node9</title>
<g id="a_edge8_Node000001_Node000009"><a xlink:title=" ">
<path fill="none" stroke="#63b8ff" d="M154.49,-245.16C184.22,-213.43 239.26,-160.02 297.28,-130.81 309.03,-124.89 321.81,-119.95 334.79,-115.84"/>
<polygon fill="#63b8ff" stroke="#63b8ff" points="335.68,-119.22 344.26,-113 333.68,-112.52 335.68,-119.22"/>
</a>
</g>
</g>
<!-- Node10 -->
<g id="Node000010" class="node">
<title>Node10</title>
<g id="a_Node000010"><a xlink:href="classcom_1_1runehive_1_1game_1_1task_1_1_task.html#aa3f2e4bb1d4e66dfdde223d0a4974fd9" target="_top" xlink:title="Sets the cyclic delay.">
<ellipse fill="white" stroke="#666666" cx="447.01" cy="-25.81" rx="135.94" ry="25.81"/>
<text xml:space="preserve" text-anchor="start" x="358.88" y="-28.66" font-family="Helvetica,sans-Serif" font-size="12.00">com.runehive.game.task.Task.set</text>
<text xml:space="preserve" text-anchor="middle" x="447.01" y="-14.41" font-family="Helvetica,sans-Serif" font-size="12.00">Delay</text>
</a>
</g>
</g>
<!-- Node1&#45;&gt;Node10 -->
<g id="edge9_Node000001_Node000010" class="edge">
<title>Node1&#45;&gt;Node10</title>
<g id="a_edge9_Node000001_Node000010"><a xlink:title=" ">
<path fill="none" stroke="#63b8ff" d="M144.52,-244.87C168.25,-199.95 223.25,-107.95 297.28,-60.81 306.86,-54.71 317.39,-49.67 328.3,-45.51"/>
<polygon fill="#63b8ff" stroke="#63b8ff" points="329.15,-48.92 337.42,-42.28 326.82,-42.32 329.15,-48.92"/>
</a>
</g>
</g>
<!-- Node3 -->
<g id="Node000003" class="node">
<title>Node3</title>
<g id="a_Node000003"><a xlink:href="classcom_1_1runehive_1_1game_1_1task_1_1_task.html#aef9b4245ff3b594dd844c44da99d51a3" target="_top" xlink:title="A function executed on cancellation.">
<ellipse fill="white" stroke="#666666" cx="767.09" cy="-505.81" rx="134.35" ry="25.81"/>
<text xml:space="preserve" text-anchor="start" x="680.09" y="-508.66" font-family="Helvetica,sans-Serif" font-size="12.00">com.runehive.game.task.Task.on</text>
<text xml:space="preserve" text-anchor="middle" x="767.09" y="-494.41" font-family="Helvetica,sans-Serif" font-size="12.00">Cancel</text>
</a>
</g>
</g>
<!-- Node2&#45;&gt;Node3 -->
<g id="edge2_Node000002_Node000003" class="edge">
<title>Node2&#45;&gt;Node3</title>
<g id="a_edge2_Node000002_Node000003"><a xlink:title=" ">
<path fill="none" stroke="#63b8ff" d="M596.8,-505.81C604.93,-505.81 613.1,-505.81 621.22,-505.81"/>
<polygon fill="#63b8ff" stroke="#63b8ff" points="621.14,-509.31 631.14,-505.81 621.14,-502.31 621.14,-509.31"/>
</a>
</g>
</g>
</g>
</svg>

<g id="navigator" transform="translate(0 0)" fill="#404254">
  <rect fill="#f2f5e9" fill-opacity="0.5" stroke="#606060" stroke-width=".5" x="0" y="0" width="60" height="60"/>
  <use id="zoomplus" xlink:href="#zoomPlus" x="17" y="9" onmousedown="handleZoom(evt,'in')"/>
  <use id="zoomminus" xlink:href="#zoomMin" x="42" y="9" onmousedown="handleZoom(evt,'out')"/>
  <use id="reset" xlink:href="#resetDef" x="30" y="36" onmousedown="handleReset()"/>
   <use id="arrowup" xlink:href="#arrowUp" x="0" y="0" onmousedown="handlePan(0,-1)"/>
  <use id="arrowright" xlink:href="#arrowRight" x="0" y="0" onmousedown="handlePan(1,0)"/>
  <use id="arrowdown" xlink:href="#arrowDown" x="0" y="0" onmousedown="handlePan(0,1)"/>
  <use id="arrowleft" xlink:href="#arrowLeft" x="0" y="0" onmousedown="handlePan(-1,0)"/>
</g>
<svg viewBox="0 0 15 15" width="100%" height="30px" preserveAspectRatio="xMaxYMin meet">
 <g id="arrow_out" transform="scale(0.3 0.3)">
  <a xlink:href="classcom_1_1runehive_1_1game_1_1action_1_1impl_1_1_inspect_action_ad5d805350fb9c0b26fd345f71d94278d_cgraph_org.svg" target="_base">
   <rect id="button" ry="5" rx="5" y="6" x="6" height="38" width="38"
        fill="#f2f5e9" fill-opacity="0.5" stroke="#606060" stroke-width="1.0"/>
   <path id="arrow"
     d="M 11.500037,31.436501 C 11.940474,20.09759 22.043105,11.32322 32.158766,21.979434 L 37.068811,17.246167 C 37.068811,17.246167 37.088388,32 37.088388,32 L 22.160133,31.978069 C 22.160133,31.978069 26.997745,27.140456 26.997745,27.140456 C 18.528582,18.264221 13.291696,25.230495 11.500037,31.436501 z"
     style="fill:#404040;"/>
  </a>
 </g>
</svg>

<style type='text/css'>
<![CDATA[
[data-mouse-over-selected='false'] { opacity: 0.7; }
[data-mouse-over-selected='true']  { opacity: 1.0; }
]]>
</style>
<script type="application/ecmascript"><![CDATA[
document.addEventListener('DOMContentLoaded', (event) => {
  highlightEdges();
  highlightAdjacentNodes();
});
]]></script>
</svg>
