<?xml version="1.0" encoding="UTF-8" standalone="no"?>
<!DOCTYPE svg PUBLIC "-//W3C//DTD SVG 1.1//EN"
 "http://www.w3.org/Graphics/SVG/1.1/DTD/svg11.dtd">
<!-- Generated by graphviz version 14.0.1 (20251006.0113)
 -->
<!-- Title: com.runehive.net.packet.PacketBuilder.writeShort Pages: 1 -->
<svg width="739pt" height="96pt"
 viewBox="0.00 0.00 739.00 96.00" xmlns="http://www.w3.org/2000/svg" xmlns:xlink="http://www.w3.org/1999/xlink">
<g id="graph0" class="graph" transform="scale(1 1) rotate(0) translate(4 91.62)">
<title>com.runehive.net.packet.PacketBuilder.writeShort</title>
<!-- Node1 -->
<g id="Node000001" class="node">
<title>Node1</title>
<g id="a_Node000001"><a xlink:title=" ">
<ellipse fill="#999999" stroke="#666666" cx="105.18" cy="-61.81" rx="105.18" ry="25.81"/>
<text xml:space="preserve" text-anchor="start" x="38.81" y="-64.66" font-family="Helvetica,sans-Serif" font-size="12.00">com.runehive.net.packet.</text>
<text xml:space="preserve" text-anchor="middle" x="105.18" y="-50.41" font-family="Helvetica,sans-Serif" font-size="12.00">PacketBuilder.writeShort</text>
</a>
</g>
</g>
<!-- Node2 -->
<g id="Node000002" class="node">
<title>Node2</title>
<g id="a_Node000002"><a xlink:href="classcom_1_1runehive_1_1net_1_1packet_1_1_packet_builder.html#a8af8ccb250104b80abcc50f2b4db7608" target="_top" xlink:title=" ">
<ellipse fill="white" stroke="#666666" cx="611.7" cy="-61.81" rx="118.97" ry="25.81"/>
<text xml:space="preserve" text-anchor="start" x="535.57" y="-64.66" font-family="Helvetica,sans-Serif" font-size="12.00">com.runehive.net.packet.</text>
<text xml:space="preserve" text-anchor="middle" x="611.7" y="-50.41" font-family="Helvetica,sans-Serif" font-size="12.00">PacketBuilder.PacketBuilder</text>
</a>
</g>
</g>
<!-- Node1&#45;&gt;Node2 -->
<g id="edge1_Node000001_Node000002" class="edge">
<title>Node1&#45;&gt;Node2</title>
<g id="a_edge1_Node000001_Node000002"><a xlink:title=" ">
<path fill="none" stroke="#63b8ff" d="M197.66,-74.51C213.85,-76.3 230.58,-77.86 246.36,-78.81 339.69,-84.45 363.37,-83.95 456.73,-78.81 469.63,-78.1 483.11,-77.06 496.5,-75.83"/>
<polygon fill="#63b8ff" stroke="#63b8ff" points="496.59,-79.34 506.21,-74.91 495.92,-72.37 496.59,-79.34"/>
</a>
</g>
</g>
<!-- Node3 -->
<g id="Node000003" class="node">
<title>Node3</title>
<g id="a_Node000003"><a xlink:href="classcom_1_1runehive_1_1net_1_1packet_1_1_packet_builder.html#a8f33868284aaa55fd60ce47d5b8d5170" target="_top" xlink:title=" ">
<ellipse fill="white" stroke="#666666" cx="351.55" cy="-25.81" rx="105.18" ry="25.81"/>
<text xml:space="preserve" text-anchor="start" x="285.17" y="-28.66" font-family="Helvetica,sans-Serif" font-size="12.00">com.runehive.net.packet.</text>
<text xml:space="preserve" text-anchor="middle" x="351.55" y="-14.41" font-family="Helvetica,sans-Serif" font-size="12.00">PacketBuilder.writeByte</text>
</a>
</g>
</g>
<!-- Node1&#45;&gt;Node3 -->
<g id="edge2_Node000001_Node000003" class="edge">
<title>Node1&#45;&gt;Node3</title>
<g id="a_edge2_Node000001_Node000003"><a xlink:title=" ">
<path fill="none" stroke="#63b8ff" d="M196.13,-48.56C213.41,-46.01 231.61,-43.33 249.21,-40.74"/>
<polygon fill="#63b8ff" stroke="#63b8ff" points="249.5,-44.23 258.88,-39.31 248.48,-37.31 249.5,-44.23"/>
</a>
</g>
</g>
<!-- Node3&#45;&gt;Node2 -->
<g id="edge3_Node000003_Node000002" class="edge">
<title>Node3&#45;&gt;Node2</title>
<g id="a_edge3_Node000003_Node000002"><a xlink:title=" ">
<path fill="none" stroke="#63b8ff" d="M443.92,-38.55C461.91,-41.06 480.96,-43.72 499.51,-46.3"/>
<polygon fill="#63b8ff" stroke="#63b8ff" points="498.78,-49.74 509.17,-47.65 499.75,-42.8 498.78,-49.74"/>
</a>
</g>
</g>
<!-- Node3&#45;&gt;Node3 -->
<g id="edge4_Node000003_Node000003" class="edge">
<title>Node3&#45;&gt;Node3</title>
<g id="a_edge4_Node000003_Node000003"><a xlink:title=" ">
<path fill="none" stroke="#63b8ff" d="M306.27,-49.25C301.33,-60.12 316.42,-69.62 351.55,-69.62 374.05,-69.62 388.33,-65.72 394.39,-60.06"/>
<polygon fill="#63b8ff" stroke="#63b8ff" points="397.71,-61.25 396.49,-50.72 390.88,-59.71 397.71,-61.25"/>
</a>
</g>
</g>
</g>
</svg>
