<?xml version="1.0" encoding="UTF-8" standalone="no"?>
<!DOCTYPE svg PUBLIC "-//W3C//DTD SVG 1.1//EN"
 "http://www.w3.org/Graphics/SVG/1.1/DTD/svg11.dtd">
<!-- Generated by graphviz version 14.0.1 (20251006.0113)
 -->
<!-- Title: com.runehive.util.Utility.getDistance Pages: 1 -->
<svg width="873pt" height="457pt"
 viewBox="0.00 0.00 873.00 457.00" xmlns="http://www.w3.org/2000/svg" xmlns:xlink="http://www.w3.org/1999/xlink">
<g id="graph0" class="graph" transform="scale(1 1) rotate(0) translate(4 452.51)">
<title>com.runehive.util.Utility.getDistance</title>
<!-- Node1 -->
<g id="Node000001" class="node">
<title>Node1</title>
<g id="a_Node000001"><a xlink:title=" ">
<ellipse fill="#999999" stroke="#666666" cx="112.08" cy="-238.81" rx="112.08" ry="25.81"/>
<text xml:space="preserve" text-anchor="start" x="40.83" y="-241.66" font-family="Helvetica,sans-Serif" font-size="12.00">com.runehive.util.Utility.get</text>
<text xml:space="preserve" text-anchor="middle" x="112.08" y="-227.41" font-family="Helvetica,sans-Serif" font-size="12.00">Distance</text>
</a>
</g>
</g>
<!-- Node2 -->
<g id="Node000002" class="node">
<title>Node2</title>
<g id="a_Node000002"><a xlink:href="interfacecom_1_1runehive_1_1game_1_1world_1_1_interactable.html#a49e07a60c6643c0ba33bc9754305c352" target="_top" xlink:title=" ">
<ellipse fill="white" stroke="#666666" cx="723.07" cy="-381.81" rx="110.49" ry="25.81"/>
<text xml:space="preserve" text-anchor="start" x="652.94" y="-384.66" font-family="Helvetica,sans-Serif" font-size="12.00">com.runehive.game.world.</text>
<text xml:space="preserve" text-anchor="middle" x="723.07" y="-370.41" font-family="Helvetica,sans-Serif" font-size="12.00">Interactable.getPosition</text>
</a>
</g>
</g>
<!-- Node1&#45;&gt;Node2 -->
<g id="edge1_Node000001_Node000002" class="edge">
<title>Node1&#45;&gt;Node2</title>
<g id="a_edge1_Node000001_Node000002"><a xlink:title=" ">
<path fill="none" stroke="#63b8ff" d="M125.09,-264.66C145.88,-305.9 192.88,-385.13 260.15,-416.81 388.41,-477.21 559.04,-437.84 652.88,-407.45"/>
<polygon fill="#63b8ff" stroke="#63b8ff" points="653.83,-410.83 662.23,-404.37 651.63,-404.18 653.83,-410.83"/>
</a>
</g>
</g>
<!-- Node3 -->
<g id="Node000003" class="node">
<title>Node3</title>
<g id="a_Node000003"><a xlink:href="interfacecom_1_1runehive_1_1game_1_1world_1_1_interactable.html#a709f3328972af0a98047591417fd5d4b" target="_top" xlink:title=" ">
<ellipse fill="white" stroke="#666666" cx="402.46" cy="-381.81" rx="110.49" ry="25.81"/>
<text xml:space="preserve" text-anchor="start" x="332.33" y="-384.66" font-family="Helvetica,sans-Serif" font-size="12.00">com.runehive.game.world.</text>
<text xml:space="preserve" text-anchor="middle" x="402.46" y="-370.41" font-family="Helvetica,sans-Serif" font-size="12.00">Interactable.getX</text>
</a>
</g>
</g>
<!-- Node1&#45;&gt;Node3 -->
<g id="edge2_Node000001_Node000003" class="edge">
<title>Node1&#45;&gt;Node3</title>
<g id="a_edge2_Node000001_Node000003"><a xlink:title=" ">
<path fill="none" stroke="#63b8ff" d="M140.51,-264.14C168.56,-288.73 214.4,-325.37 260.15,-346.81 273.78,-353.19 288.71,-358.5 303.61,-362.89"/>
<polygon fill="#63b8ff" stroke="#63b8ff" points="302.4,-366.18 312.97,-365.51 304.29,-359.44 302.4,-366.18"/>
</a>
</g>
</g>
<!-- Node4 -->
<g id="Node000004" class="node">
<title>Node4</title>
<g id="a_Node000004"><a xlink:href="classcom_1_1runehive_1_1game_1_1world_1_1position_1_1_position.html#a7bfa5292d8c3f79100a6bc85ea27b5ea" target="_top" xlink:title="Gets the absolute x coordinate.">
<ellipse fill="white" stroke="#666666" cx="723.07" cy="-300.81" rx="142.31" ry="25.81"/>
<text xml:space="preserve" text-anchor="start" x="630.44" y="-303.66" font-family="Helvetica,sans-Serif" font-size="12.00">com.runehive.game.world.position.</text>
<text xml:space="preserve" text-anchor="middle" x="723.07" y="-289.41" font-family="Helvetica,sans-Serif" font-size="12.00">Position.getX</text>
</a>
</g>
</g>
<!-- Node1&#45;&gt;Node4 -->
<g id="edge5_Node000001_Node000004" class="edge">
<title>Node1&#45;&gt;Node4</title>
<g id="a_edge5_Node000001_Node000004"><a xlink:title=" ">
<path fill="none" stroke="#63b8ff" d="M219.21,-246.76C306.68,-253.65 433.92,-264.44 544.76,-276.81 562.28,-278.76 580.73,-281.03 598.86,-283.38"/>
<polygon fill="#63b8ff" stroke="#63b8ff" points="598.22,-286.82 608.58,-284.65 599.12,-279.88 598.22,-286.82"/>
</a>
</g>
</g>
<!-- Node5 -->
<g id="Node000005" class="node">
<title>Node5</title>
<g id="a_Node000005"><a xlink:href="interfacecom_1_1runehive_1_1game_1_1world_1_1_interactable.html#a4fe2dfd0c67da8fd088077795154e218" target="_top" xlink:title=" ">
<ellipse fill="white" stroke="#666666" cx="402.46" cy="-311.81" rx="110.49" ry="25.81"/>
<text xml:space="preserve" text-anchor="start" x="332.33" y="-314.66" font-family="Helvetica,sans-Serif" font-size="12.00">com.runehive.game.world.</text>
<text xml:space="preserve" text-anchor="middle" x="402.46" y="-300.41" font-family="Helvetica,sans-Serif" font-size="12.00">Interactable.getY</text>
</a>
</g>
</g>
<!-- Node1&#45;&gt;Node5 -->
<g id="edge6_Node000001_Node000005" class="edge">
<title>Node1&#45;&gt;Node5</title>
<g id="a_edge6_Node000001_Node000005"><a xlink:title=" ">
<path fill="none" stroke="#63b8ff" d="M188.85,-257.99C227.59,-267.8 274.92,-279.78 315.07,-289.94"/>
<polygon fill="#63b8ff" stroke="#63b8ff" points="314.17,-293.33 324.73,-292.39 315.89,-286.54 314.17,-293.33"/>
</a>
</g>
</g>
<!-- Node6 -->
<g id="Node000006" class="node">
<title>Node6</title>
<g id="a_Node000006"><a xlink:href="classcom_1_1runehive_1_1game_1_1world_1_1position_1_1_position.html#a55498d0fafce9fdeedca16984d79aee5" target="_top" xlink:title="Gets the absolute y coordinate.">
<ellipse fill="white" stroke="#666666" cx="723.07" cy="-224.81" rx="142.31" ry="25.81"/>
<text xml:space="preserve" text-anchor="start" x="630.44" y="-227.66" font-family="Helvetica,sans-Serif" font-size="12.00">com.runehive.game.world.position.</text>
<text xml:space="preserve" text-anchor="middle" x="723.07" y="-213.41" font-family="Helvetica,sans-Serif" font-size="12.00">Position.getY</text>
</a>
</g>
</g>
<!-- Node1&#45;&gt;Node6 -->
<g id="edge9_Node000001_Node000006" class="edge">
<title>Node1&#45;&gt;Node6</title>
<g id="a_edge9_Node000001_Node000006"><a xlink:title=" ">
<path fill="none" stroke="#63b8ff" d="M224.07,-236.26C321.07,-234.03 462.81,-230.77 570.29,-228.3"/>
<polygon fill="#63b8ff" stroke="#63b8ff" points="570.14,-231.8 580.06,-228.07 569.98,-224.8 570.14,-231.8"/>
</a>
</g>
</g>
<!-- Node7 -->
<g id="Node000007" class="node">
<title>Node7</title>
<g id="a_Node000007"><a xlink:href="interfacecom_1_1runehive_1_1game_1_1world_1_1_interactable.html#a9513e5e63159a738b417ceba87cd1de8" target="_top" xlink:title=" ">
<ellipse fill="white" stroke="#666666" cx="402.46" cy="-165.81" rx="110.49" ry="25.81"/>
<text xml:space="preserve" text-anchor="start" x="332.33" y="-168.66" font-family="Helvetica,sans-Serif" font-size="12.00">com.runehive.game.world.</text>
<text xml:space="preserve" text-anchor="middle" x="402.46" y="-154.41" font-family="Helvetica,sans-Serif" font-size="12.00">Interactable.length</text>
</a>
</g>
</g>
<!-- Node1&#45;&gt;Node7 -->
<g id="edge10_Node000001_Node000007" class="edge">
<title>Node1&#45;&gt;Node7</title>
<g id="a_edge10_Node000001_Node000007"><a xlink:title=" ">
<path fill="none" stroke="#63b8ff" d="M188.85,-219.63C227.59,-209.82 274.92,-197.84 315.07,-187.68"/>
<polygon fill="#63b8ff" stroke="#63b8ff" points="315.89,-191.08 324.73,-185.23 314.17,-184.29 315.89,-191.08"/>
</a>
</g>
</g>
<!-- Node8 -->
<g id="Node000008" class="node">
<title>Node8</title>
<g id="a_Node000008"><a xlink:href="classcom_1_1runehive_1_1game_1_1world_1_1position_1_1_position.html#a92154563715ed156b00ee6220e2991ff" target="_top" xlink:title="Creates a new location based on this location.">
<ellipse fill="white" stroke="#666666" cx="402.46" cy="-95.81" rx="142.31" ry="25.81"/>
<text xml:space="preserve" text-anchor="start" x="309.83" y="-98.66" font-family="Helvetica,sans-Serif" font-size="12.00">com.runehive.game.world.position.</text>
<text xml:space="preserve" text-anchor="middle" x="402.46" y="-84.41" font-family="Helvetica,sans-Serif" font-size="12.00">Position.transform</text>
</a>
</g>
</g>
<!-- Node1&#45;&gt;Node8 -->
<g id="edge11_Node000001_Node000008" class="edge">
<title>Node1&#45;&gt;Node8</title>
<g id="a_edge11_Node000001_Node000008"><a xlink:title=" ">
<path fill="none" stroke="#63b8ff" d="M140.51,-213.48C168.56,-188.89 214.4,-152.24 260.15,-130.81 270.47,-125.98 281.54,-121.76 292.77,-118.09"/>
<polygon fill="#63b8ff" stroke="#63b8ff" points="293.61,-121.49 302.13,-115.19 291.54,-114.81 293.61,-121.49"/>
</a>
</g>
</g>
<!-- Node10 -->
<g id="Node000010" class="node">
<title>Node10</title>
<g id="a_Node000010"><a xlink:href="interfacecom_1_1runehive_1_1game_1_1world_1_1_interactable.html#ad7eb47dad8c89c478cedc32ea6fe3a5b" target="_top" xlink:title=" ">
<ellipse fill="white" stroke="#666666" cx="402.46" cy="-25.81" rx="110.49" ry="25.81"/>
<text xml:space="preserve" text-anchor="start" x="332.33" y="-28.66" font-family="Helvetica,sans-Serif" font-size="12.00">com.runehive.game.world.</text>
<text xml:space="preserve" text-anchor="middle" x="402.46" y="-14.41" font-family="Helvetica,sans-Serif" font-size="12.00">Interactable.width</text>
</a>
</g>
</g>
<!-- Node1&#45;&gt;Node10 -->
<g id="edge13_Node000001_Node000010" class="edge">
<title>Node1&#45;&gt;Node10</title>
<g id="a_edge13_Node000001_Node000010"><a xlink:title=" ">
<path fill="none" stroke="#63b8ff" d="M127.17,-212.85C149.85,-173.64 198.23,-99.76 260.15,-60.81 271.72,-53.54 284.7,-47.77 297.98,-43.21"/>
<polygon fill="#63b8ff" stroke="#63b8ff" points="298.77,-46.63 307.23,-40.26 296.64,-39.96 298.77,-46.63"/>
</a>
</g>
</g>
<!-- Node3&#45;&gt;Node2 -->
<g id="edge3_Node000003_Node000002" class="edge">
<title>Node3&#45;&gt;Node2</title>
<g id="a_edge3_Node000003_Node000002"><a xlink:title=" ">
<path fill="none" stroke="#63b8ff" d="M513.11,-381.81C541.39,-381.81 572,-381.81 600.84,-381.81"/>
<polygon fill="#63b8ff" stroke="#63b8ff" points="600.71,-385.31 610.71,-381.81 600.71,-378.31 600.71,-385.31"/>
</a>
</g>
</g>
<!-- Node3&#45;&gt;Node4 -->
<g id="edge4_Node000003_Node000004" class="edge">
<title>Node3&#45;&gt;Node4</title>
<g id="a_edge4_Node000003_Node000004"><a xlink:title=" ">
<path fill="none" stroke="#63b8ff" d="M479.76,-363.07C500.83,-357.85 523.69,-352.15 544.76,-346.81 572.26,-339.84 602.13,-332.14 629.37,-325.07"/>
<polygon fill="#63b8ff" stroke="#63b8ff" points="630.2,-328.46 639,-322.56 628.44,-321.69 630.2,-328.46"/>
</a>
</g>
</g>
<!-- Node5&#45;&gt;Node2 -->
<g id="edge7_Node000005_Node000002" class="edge">
<title>Node5&#45;&gt;Node2</title>
<g id="a_edge7_Node000005_Node000002"><a xlink:title=" ">
<path fill="none" stroke="#63b8ff" d="M484.27,-329.56C528.72,-339.33 584.04,-351.48 630.14,-361.61"/>
<polygon fill="#63b8ff" stroke="#63b8ff" points="629.35,-365.02 639.87,-363.75 630.85,-358.18 629.35,-365.02"/>
</a>
</g>
</g>
<!-- Node5&#45;&gt;Node6 -->
<g id="edge8_Node000005_Node000006" class="edge">
<title>Node5&#45;&gt;Node6</title>
<g id="a_edge8_Node000005_Node000006"><a xlink:title=" ">
<path fill="none" stroke="#63b8ff" d="M475.76,-292.07C521.93,-279.46 582.17,-263.01 631.51,-249.54"/>
<polygon fill="#63b8ff" stroke="#63b8ff" points="632.33,-252.94 641.05,-246.93 630.48,-246.19 632.33,-252.94"/>
</a>
</g>
</g>
<!-- Node9 -->
<g id="Node000009" class="node">
<title>Node9</title>
<g id="a_Node000009"><a xlink:href="classcom_1_1runehive_1_1game_1_1world_1_1position_1_1_position.html#a7803ff05a7b4b99d2883898ade9427f7" target="_top" xlink:title="Creates a location with a default height of 0.">
<ellipse fill="white" stroke="#666666" cx="723.07" cy="-95.81" rx="142.31" ry="25.81"/>
<text xml:space="preserve" text-anchor="start" x="630.44" y="-98.66" font-family="Helvetica,sans-Serif" font-size="12.00">com.runehive.game.world.position.</text>
<text xml:space="preserve" text-anchor="middle" x="723.07" y="-84.41" font-family="Helvetica,sans-Serif" font-size="12.00">Position.Position</text>
</a>
</g>
</g>
<!-- Node8&#45;&gt;Node9 -->
<g id="edge12_Node000008_Node000009" class="edge">
<title>Node8&#45;&gt;Node9</title>
<g id="a_edge12_Node000008_Node000009"><a xlink:title=" ">
<path fill="none" stroke="#63b8ff" d="M545.06,-95.81C553.08,-95.81 561.16,-95.81 569.22,-95.81"/>
<polygon fill="#63b8ff" stroke="#63b8ff" points="569.08,-99.31 579.08,-95.81 569.08,-92.31 569.08,-99.31"/>
</a>
</g>
</g>
</g>
</svg>
