<?xml version="1.0" encoding="UTF-8" standalone="no"?>
<!DOCTYPE svg PUBLIC "-//W3C//DTD SVG 1.1//EN"
 "http://www.w3.org/Graphics/SVG/1.1/DTD/svg11.dtd">
<!-- Generated by graphviz version 14.0.1 (20251006.0113)
 -->
<!-- Title: com.runehive.game.world.position.Area Pages: 1 -->
<!--zoomable 309 -->

<svg id="main" version="1.1" xmlns="http://www.w3.org/2000/svg" xmlns:xlink="http://www.w3.org/1999/xlink" xml:space="preserve" onload="init(evt)">

<style type="text/css"><![CDATA[
.node, .edge {opacity: 0.7;}
.node.selected, .edge.selected {opacity: 1;}
.edge:hover path { stroke: red; }
.edge:hover polygon { stroke: red; fill: red; }
]]></style>

<defs>
  <circle id="rim" cx="0" cy="0" r="7"/>
  <circle id="rim2" cx="0" cy="0" r="3.5"/>
  <g id="zoomPlus">
    <use xlink:href="#rim" fill="#404040"><set attributeName="fill" to="#808080" begin="zoomplus.mouseover" end="zoomplus.mouseout"/></use>
    <path d="M-4,0h8M0,-4v8" fill="none" stroke="white" stroke-width="1.5" pointer-events="none"/>
  </g>
  <g id="zoomMin">
    <use xlink:href="#rim" fill="#404040"><set attributeName="fill" to="#808080" begin="zoomminus.mouseover" end="zoomminus.mouseout"/></use>
    <path d="M-4,0h8" fill="none" stroke="white" stroke-width="1.5" pointer-events="none"/>
  </g>
  <g id="arrowUp" transform="translate(30 24)">
    <use xlink:href="#rim"/>
    <path pointer-events="none" fill="none" stroke="white" stroke-width="1.5" d="M0,-3.0v7 M-2.5,-0.5L0,-3.0L2.5,-0.5"/>
  </g>
  <g id="arrowRight" transform="rotate(90) translate(36 -43)">
    <use xlink:href="#rim"/>
    <path pointer-events="none" fill="none" stroke="white" stroke-width="1.5" d="M0,-3.0v7 M-2.5,-0.5L0,-3.0L2.5,-0.5"/>
  </g>
  <g id="arrowDown" transform="rotate(180) translate(-30 -48)">
    <use xlink:href="#rim"/>
    <path pointer-events="none" fill="none" stroke="white" stroke-width="1.5" d="M0,-3.0v7 M-2.5,-0.5L0,-3.0L2.5,-0.5"/>
  </g>
  <g id="arrowLeft" transform="rotate(270) translate(-36 17)">
    <use xlink:href="#rim"/>
    <path pointer-events="none" fill="none" stroke="white" stroke-width="1.5" d="M0,-3.0v7 M-2.5,-0.5L0,-3.0L2.5,-0.5"/>
  </g>
  <g id="resetDef">
    <use xlink:href="#rim2" fill="#404040"><set attributeName="fill" to="#808080" begin="reset.mouseover" end="reset.mouseout"/></use>
  </g>
</defs>
<script type="application/ecmascript">
var viewWidth = 1660;
var viewHeight = 309;
var sectionId = 'dynsection-1';
</script>
<script type="application/ecmascript" xlink:href="svg.min.js"/>
<svg id="graph" class="graph">
<g id="viewport">
<title>com.runehive.game.world.position.Area</title>
<!-- Node1 -->
<g id="Node000001" class="node">
<title>Node1</title>
<g id="a_Node000001"><a xlink:title="Handles checking if mobs are in a certain area.">
<ellipse fill="#999999" stroke="#666666" cx="1491.29" cy="-87.81" rx="160.34" ry="15.73"/>
<text xml:space="preserve" text-anchor="middle" x="1491.29" y="-83.53" font-family="Helvetica,sans-Serif" font-size="12.00">com.runehive.game.world.position.Area</text>
</a>
</g>
</g>
<!-- Node2 -->
<g id="Node000002" class="node">
<title>Node2</title>
<g id="a_Node000002"><a xlink:href="classcom_1_1runehive_1_1game_1_1world_1_1position_1_1_area.html" target="_top" xlink:title="Handles checking if mobs are in a certain area.">
<ellipse fill="white" stroke="#666666" cx="507.95" cy="-55.81" rx="160.34" ry="15.73"/>
<text xml:space="preserve" text-anchor="middle" x="507.95" y="-51.53" font-family="Helvetica,sans-Serif" font-size="12.00">com.runehive.game.world.position.Area</text>
</a>
</g>
</g>
<!-- Node2&#45;&gt;Node1 -->
<g id="edge1_Node000001_Node000002" class="edge">
<title>Node2&#45;&gt;Node1</title>
<g id="a_edge1_Node000001_Node000002"><a xlink:title=" ">
<path fill="none" stroke="#9a32cd" stroke-dasharray="5,2" d="M671.81,-61.33C676.69,-61.49 681.52,-61.65 686.28,-61.81 913.28,-69.32 1176.33,-77.78 1338.03,-82.95"/>
<polygon fill="#9a32cd" stroke="#9a32cd" points="671.97,-57.83 661.86,-61 671.74,-64.83 671.97,-57.83"/>
</a>
</g>
<text xml:space="preserve" text-anchor="start" x="946.74" y="-242.66" font-family="Helvetica,sans-Serif" font-size="10.00" fill="grey">ARMADYL_ROOM</text>
<text xml:space="preserve" text-anchor="start" x="946.74" y="-226.66" font-family="Helvetica,sans-Serif" font-size="10.00" fill="grey">BANDOS_ROOM</text>
<text xml:space="preserve" text-anchor="start" x="946.74" y="-210.66" font-family="Helvetica,sans-Serif" font-size="10.00" fill="grey">BARROWS</text>
<text xml:space="preserve" text-anchor="start" x="946.74" y="-194.66" font-family="Helvetica,sans-Serif" font-size="10.00" fill="grey">CATACOMBS</text>
<text xml:space="preserve" text-anchor="start" x="946.74" y="-178.66" font-family="Helvetica,sans-Serif" font-size="10.00" fill="grey">DUEL_ARENA_LOBBY</text>
<text xml:space="preserve" text-anchor="start" x="946.74" y="-162.66" font-family="Helvetica,sans-Serif" font-size="10.00" fill="grey">DZ</text>
<text xml:space="preserve" text-anchor="start" x="946.74" y="-146.66" font-family="Helvetica,sans-Serif" font-size="10.00" fill="grey">EVENT_ARENA</text>
<text xml:space="preserve" text-anchor="start" x="946.74" y="-130.66" font-family="Helvetica,sans-Serif" font-size="10.00" fill="grey">FEROX_ENCLAVE</text>
<text xml:space="preserve" text-anchor="start" x="946.74" y="-114.66" font-family="Helvetica,sans-Serif" font-size="10.00" fill="grey">INFERNO</text>
<text xml:space="preserve" text-anchor="start" x="946.74" y="-98.66" font-family="Helvetica,sans-Serif" font-size="10.00" fill="grey">KBD</text>
<text xml:space="preserve" text-anchor="start" x="946.74" y="-82.66" font-family="Helvetica,sans-Serif" font-size="10.00" fill="grey"> &#160;...</text>
</g>
<!-- Node2&#45;&gt;Node2 -->
<g id="edge2_Node000002_Node000002" class="edge">
<title>Node2&#45;&gt;Node2</title>
<g id="a_edge2_Node000002_Node000002"><a xlink:title=" ">
<path fill="none" stroke="#9a32cd" stroke-dasharray="5,2" d="M475.15,-82.67C480.15,-86.76 491.09,-89.54 507.95,-89.54 537.92,-89.54 549.16,-80.76 541.67,-71.42"/>
<polygon fill="#9a32cd" stroke="#9a32cd" points="478.65,-82.61 474.35,-72.93 471.68,-83.19 478.65,-82.61"/>
</a>
</g>
<text xml:space="preserve" text-anchor="start" x="455.07" y="-255.04" font-family="Helvetica,sans-Serif" font-size="10.00" fill="grey">ARMADYL_ROOM</text>
<text xml:space="preserve" text-anchor="start" x="455.07" y="-239.04" font-family="Helvetica,sans-Serif" font-size="10.00" fill="grey">BANDOS_ROOM</text>
<text xml:space="preserve" text-anchor="start" x="455.07" y="-223.04" font-family="Helvetica,sans-Serif" font-size="10.00" fill="grey">BARROWS</text>
<text xml:space="preserve" text-anchor="start" x="455.07" y="-207.04" font-family="Helvetica,sans-Serif" font-size="10.00" fill="grey">CATACOMBS</text>
<text xml:space="preserve" text-anchor="start" x="455.07" y="-191.04" font-family="Helvetica,sans-Serif" font-size="10.00" fill="grey">DUEL_ARENA_LOBBY</text>
<text xml:space="preserve" text-anchor="start" x="455.07" y="-175.04" font-family="Helvetica,sans-Serif" font-size="10.00" fill="grey">DZ</text>
<text xml:space="preserve" text-anchor="start" x="455.07" y="-159.04" font-family="Helvetica,sans-Serif" font-size="10.00" fill="grey">EVENT_ARENA</text>
<text xml:space="preserve" text-anchor="start" x="455.07" y="-143.04" font-family="Helvetica,sans-Serif" font-size="10.00" fill="grey">FEROX_ENCLAVE</text>
<text xml:space="preserve" text-anchor="start" x="455.07" y="-127.04" font-family="Helvetica,sans-Serif" font-size="10.00" fill="grey">INFERNO</text>
<text xml:space="preserve" text-anchor="start" x="455.07" y="-111.04" font-family="Helvetica,sans-Serif" font-size="10.00" fill="grey">KBD</text>
<text xml:space="preserve" text-anchor="start" x="455.07" y="-95.04" font-family="Helvetica,sans-Serif" font-size="10.00" fill="grey"> &#160;...</text>
</g>
<!-- Node4 -->
<g id="Node000004" class="node">
<title>Node4</title>
<g id="a_Node000004"><a xlink:href="classcom_1_1runehive_1_1game_1_1world_1_1position_1_1impl_1_1_square_area.html" target="_top" xlink:title=" ">
<ellipse fill="white" stroke="#666666" cx="999.62" cy="-25.81" rx="160.34" ry="25.81"/>
<text xml:space="preserve" text-anchor="start" x="894.24" y="-28.66" font-family="Helvetica,sans-Serif" font-size="12.00">com.runehive.game.world.position.impl.</text>
<text xml:space="preserve" text-anchor="middle" x="999.62" y="-14.41" font-family="Helvetica,sans-Serif" font-size="12.00">SquareArea</text>
</a>
</g>
</g>
<!-- Node2&#45;&gt;Node4 -->
<g id="edge5_Node000004_Node000002" class="edge">
<title>Node2&#45;&gt;Node4</title>
<g id="a_edge5_Node000004_Node000002"><a xlink:title=" ">
<path fill="none" stroke="#63b8ff" d="M676.66,-52.11C723.5,-50.48 774.41,-48.14 821.28,-44.81 836.42,-43.73 852.25,-42.37 867.97,-40.88"/>
<polygon fill="#63b8ff" stroke="#63b8ff" points="676.54,-48.61 666.67,-52.45 676.78,-55.61 676.54,-48.61"/>
</a>
</g>
</g>
<!-- Node3 -->
<g id="Node000003" class="node">
<title>Node3</title>
<g id="a_Node000003"><a xlink:href="classcom_1_1runehive_1_1game_1_1world_1_1position_1_1_boundary.html" target="_top" xlink:title="Created by Daniel on 2017&#45;11&#45;24.">
<ellipse fill="white" stroke="#666666" cx="142.31" cy="-175.81" rx="142.31" ry="25.81"/>
<text xml:space="preserve" text-anchor="start" x="49.68" y="-178.66" font-family="Helvetica,sans-Serif" font-size="12.00">com.runehive.game.world.position.</text>
<text xml:space="preserve" text-anchor="middle" x="142.31" y="-164.41" font-family="Helvetica,sans-Serif" font-size="12.00">Boundary</text>
</a>
</g>
</g>
<!-- Node3&#45;&gt;Node1 -->
<g id="edge6_Node000001_Node000003" class="edge">
<title>Node3&#45;&gt;Node1</title>
<g id="a_edge6_Node000001_Node000003"><a xlink:title=" ">
<path fill="none" stroke="#9a32cd" stroke-dasharray="5,2" d="M190.55,-207.02C230.5,-231.43 290.25,-263.4 347.61,-276.81 452.73,-301.37 1127.73,-267.28 1159.96,-258.81 1285.18,-225.88 1416.88,-139.64 1468.1,-103.79"/>
<polygon fill="#9a32cd" stroke="#9a32cd" points="192.46,-204.09 182.12,-201.79 188.77,-210.04 192.46,-204.09"/>
</a>
</g>
<text xml:space="preserve" text-anchor="start" x="743.28" y="-288.6" font-family="Helvetica,sans-Serif" font-size="10.00" fill="grey">NEX</text>
</g>
<!-- Node3&#45;&gt;Node2 -->
<g id="edge3_Node000002_Node000003" class="edge">
<title>Node3&#45;&gt;Node2</title>
<g id="a_edge3_Node000002_Node000003"><a xlink:title=" ">
<path fill="none" stroke="#9a32cd" stroke-dasharray="5,2" d="M223.47,-149.35C296.03,-125.41 400.42,-90.96 460.19,-71.24"/>
<polygon fill="#9a32cd" stroke="#9a32cd" points="222.4,-146.02 214,-152.48 224.59,-152.67 222.4,-146.02"/>
</a>
</g>
<text xml:space="preserve" text-anchor="start" x="305.61" y="-128.49" font-family="Helvetica,sans-Serif" font-size="10.00" fill="grey">NEX</text>
</g>
<!-- Node4&#45;&gt;Node1 -->
<g id="edge7_Node000001_Node000004" class="edge">
<title>Node4&#45;&gt;Node1</title>
<g id="a_edge7_Node000001_Node000004"><a xlink:title=" ">
<path fill="none" stroke="#9a32cd" stroke-dasharray="5,2" d="M1171.51,-26.7C1217.63,-28.78 1267.37,-32.71 1312.96,-39.81 1358.34,-46.88 1408.78,-61.18 1444.22,-72.35"/>
<polygon fill="#9a32cd" stroke="#9a32cd" points="1171.84,-23.21 1161.7,-26.28 1171.54,-30.2 1171.84,-23.21"/>
</a>
</g>
<text xml:space="preserve" text-anchor="start" x="1180.96" y="-61.31" font-family="Helvetica,sans-Serif" font-size="10.00" fill="grey">DUEL_ARENAS</text>
<text xml:space="preserve" text-anchor="start" x="1180.96" y="-45.31" font-family="Helvetica,sans-Serif" font-size="10.00" fill="grey">DUEL_OBSTICLE_ARENAS</text>
</g>
<!-- Node4&#45;&gt;Node2 -->
<g id="edge4_Node000002_Node000004" class="edge">
<title>Node4&#45;&gt;Node2</title>
<g id="a_edge4_Node000002_Node000004"><a xlink:title=" ">
<path fill="none" stroke="#9a32cd" stroke-dasharray="5,2" d="M860.96,-9.02C806.41,-5.02 743.23,-3.7 686.28,-10.81 641.37,-16.42 591.51,-29.73 556.13,-40.42"/>
<polygon fill="#9a32cd" stroke="#9a32cd" points="860.36,-12.48 870.6,-9.76 860.9,-5.5 860.36,-12.48"/>
</a>
</g>
<text xml:space="preserve" text-anchor="start" x="689.28" y="-32.31" font-family="Helvetica,sans-Serif" font-size="10.00" fill="grey">DUEL_ARENAS</text>
<text xml:space="preserve" text-anchor="start" x="689.28" y="-16.31" font-family="Helvetica,sans-Serif" font-size="10.00" fill="grey">DUEL_OBSTICLE_ARENAS</text>
</g>
</g>
</svg>

<g id="navigator" transform="translate(0 0)" fill="#404254">
  <rect fill="#f2f5e9" fill-opacity="0.5" stroke="#606060" stroke-width=".5" x="0" y="0" width="60" height="60"/>
  <use id="zoomplus" xlink:href="#zoomPlus" x="17" y="9" onmousedown="handleZoom(evt,'in')"/>
  <use id="zoomminus" xlink:href="#zoomMin" x="42" y="9" onmousedown="handleZoom(evt,'out')"/>
  <use id="reset" xlink:href="#resetDef" x="30" y="36" onmousedown="handleReset()"/>
   <use id="arrowup" xlink:href="#arrowUp" x="0" y="0" onmousedown="handlePan(0,-1)"/>
  <use id="arrowright" xlink:href="#arrowRight" x="0" y="0" onmousedown="handlePan(1,0)"/>
  <use id="arrowdown" xlink:href="#arrowDown" x="0" y="0" onmousedown="handlePan(0,1)"/>
  <use id="arrowleft" xlink:href="#arrowLeft" x="0" y="0" onmousedown="handlePan(-1,0)"/>
</g>
<svg viewBox="0 0 15 15" width="100%" height="30px" preserveAspectRatio="xMaxYMin meet">
 <g id="arrow_out" transform="scale(0.3 0.3)">
  <a xlink:href="classcom_1_1runehive_1_1game_1_1world_1_1position_1_1_area__coll__graph_org.svg" target="_base">
   <rect id="button" ry="5" rx="5" y="6" x="6" height="38" width="38"
        fill="#f2f5e9" fill-opacity="0.5" stroke="#606060" stroke-width="1.0"/>
   <path id="arrow"
     d="M 11.500037,31.436501 C 11.940474,20.09759 22.043105,11.32322 32.158766,21.979434 L 37.068811,17.246167 C 37.068811,17.246167 37.088388,32 37.088388,32 L 22.160133,31.978069 C 22.160133,31.978069 26.997745,27.140456 26.997745,27.140456 C 18.528582,18.264221 13.291696,25.230495 11.500037,31.436501 z"
     style="fill:#404040;"/>
  </a>
 </g>
</svg>

<style type='text/css'>
<![CDATA[
[data-mouse-over-selected='false'] { opacity: 0.7; }
[data-mouse-over-selected='true']  { opacity: 1.0; }
]]>
</style>
<script type="application/ecmascript"><![CDATA[
document.addEventListener('DOMContentLoaded', (event) => {
  highlightEdges();
  highlightAdjacentNodes();
});
]]></script>
</svg>
