<?xml version="1.0" encoding="UTF-8" standalone="no"?>
<!DOCTYPE svg PUBLIC "-//W3C//DTD SVG 1.1//EN"
 "http://www.w3.org/Graphics/SVG/1.1/DTD/svg11.dtd">
<!-- Generated by graphviz version 14.0.1 (20251006.0113)
 -->
<!-- Title: com.runehive.game.world.items.containers.ItemContainer.swap Pages: 1 -->
<!--zoomable 412 -->

<svg id="main" version="1.1" xmlns="http://www.w3.org/2000/svg" xmlns:xlink="http://www.w3.org/1999/xlink" xml:space="preserve" onload="init(evt)">

<style type="text/css"><![CDATA[
.node, .edge {opacity: 0.7;}
.node.selected, .edge.selected {opacity: 1;}
.edge:hover path { stroke: red; }
.edge:hover polygon { stroke: red; fill: red; }
]]></style>

<defs>
  <circle id="rim" cx="0" cy="0" r="7"/>
  <circle id="rim2" cx="0" cy="0" r="3.5"/>
  <g id="zoomPlus">
    <use xlink:href="#rim" fill="#404040"><set attributeName="fill" to="#808080" begin="zoomplus.mouseover" end="zoomplus.mouseout"/></use>
    <path d="M-4,0h8M0,-4v8" fill="none" stroke="white" stroke-width="1.5" pointer-events="none"/>
  </g>
  <g id="zoomMin">
    <use xlink:href="#rim" fill="#404040"><set attributeName="fill" to="#808080" begin="zoomminus.mouseover" end="zoomminus.mouseout"/></use>
    <path d="M-4,0h8" fill="none" stroke="white" stroke-width="1.5" pointer-events="none"/>
  </g>
  <g id="arrowUp" transform="translate(30 24)">
    <use xlink:href="#rim"/>
    <path pointer-events="none" fill="none" stroke="white" stroke-width="1.5" d="M0,-3.0v7 M-2.5,-0.5L0,-3.0L2.5,-0.5"/>
  </g>
  <g id="arrowRight" transform="rotate(90) translate(36 -43)">
    <use xlink:href="#rim"/>
    <path pointer-events="none" fill="none" stroke="white" stroke-width="1.5" d="M0,-3.0v7 M-2.5,-0.5L0,-3.0L2.5,-0.5"/>
  </g>
  <g id="arrowDown" transform="rotate(180) translate(-30 -48)">
    <use xlink:href="#rim"/>
    <path pointer-events="none" fill="none" stroke="white" stroke-width="1.5" d="M0,-3.0v7 M-2.5,-0.5L0,-3.0L2.5,-0.5"/>
  </g>
  <g id="arrowLeft" transform="rotate(270) translate(-36 17)">
    <use xlink:href="#rim"/>
    <path pointer-events="none" fill="none" stroke="white" stroke-width="1.5" d="M0,-3.0v7 M-2.5,-0.5L0,-3.0L2.5,-0.5"/>
  </g>
  <g id="resetDef">
    <use xlink:href="#rim2" fill="#404040"><set attributeName="fill" to="#808080" begin="reset.mouseover" end="reset.mouseout"/></use>
  </g>
</defs>
<script type="application/ecmascript">
var viewWidth = 2910;
var viewHeight = 412;
var sectionId = 'dynsection-98';
</script>
<script type="application/ecmascript" xlink:href="svg.min.js"/>
<svg id="graph" class="graph">
<g id="viewport">
<title>com.runehive.game.world.items.containers.ItemContainer.swap</title>
<!-- Node1 -->
<g id="Node000001" class="node">
<title>Node1</title>
<g id="a_Node000001"><a xlink:title="Swaps the Items on oldIndex and newIndex.">
<ellipse fill="#999999" stroke="#666666" cx="2727.82" cy="-158.16" rx="174.13" ry="25.81"/>
<text xml:space="preserve" text-anchor="start" x="2612.7" y="-161.01" font-family="Helvetica,sans-Serif" font-size="12.00">com.runehive.game.world.items.containers.</text>
<text xml:space="preserve" text-anchor="middle" x="2727.82" y="-146.76" font-family="Helvetica,sans-Serif" font-size="12.00">ItemContainer.swap</text>
</a>
</g>
</g>
<!-- Node1&#45;&gt;Node1 -->
<g id="edge23_Node000001_Node000001" class="edge">
<title>Node1&#45;&gt;Node1</title>
<g id="a_edge23_Node000001_Node000001"><a xlink:title=" ">
<path fill="none" stroke="#63b8ff" d="M2798.6,-192.2C2788.85,-197.97 2765.26,-201.97 2727.82,-201.97 2670.09,-201.97 2645.28,-192.47 2653.4,-181.59"/>
<polygon fill="#63b8ff" stroke="#63b8ff" points="2801.81,-193.62 2801.75,-183.03 2795.19,-191.34 2801.81,-193.62"/>
</a>
</g>
</g>
<!-- Node2 -->
<g id="Node000002" class="node">
<title>Node2</title>
<g id="a_Node000002"><a xlink:href="classcom_1_1runehive_1_1game_1_1world_1_1items_1_1containers_1_1bank_1_1_bank.html#ae35645c62d776a54304a1739ce4db0ab" target="_top" xlink:title="Deposits item into bank.">
<ellipse fill="white" stroke="#666666" cx="620.42" cy="-378.16" rx="194.81" ry="25.81"/>
<text xml:space="preserve" text-anchor="start" x="490.67" y="-381.01" font-family="Helvetica,sans-Serif" font-size="12.00">com.runehive.game.world.items.containers.bank.</text>
<text xml:space="preserve" text-anchor="middle" x="620.42" y="-366.76" font-family="Helvetica,sans-Serif" font-size="12.00">Bank.deposit</text>
</a>
</g>
</g>
<!-- Node1&#45;&gt;Node2 -->
<g id="edge1_Node000001_Node000002" class="edge">
<title>Node1&#45;&gt;Node2</title>
<g id="a_edge1_Node000001_Node000002"><a xlink:title=" ">
<path fill="none" stroke="#63b8ff" d="M2688.92,-191.09C2649.16,-223.64 2583.4,-271.97 2517.7,-296.16 2257.4,-391.97 2175.64,-372.16 1898.27,-372.16 1898.27,-372.16 1898.27,-372.16 1470.66,-372.16 1245.63,-372.16 987.06,-374.29 814.94,-376.01"/>
<polygon fill="#63b8ff" stroke="#63b8ff" points="2691.1,-193.84 2696.56,-184.76 2686.63,-188.45 2691.1,-193.84"/>
</a>
</g>
</g>
<!-- Node3 -->
<g id="Node000003" class="node">
<title>Node3</title>
<g id="a_Node000003"><a xlink:href="classcom_1_1runehive_1_1game_1_1world_1_1items_1_1containers_1_1bank_1_1_bank.html#a0df6e351e6b51e878369d96decb40e12" target="_top" xlink:title=" ">
<ellipse fill="white" stroke="#666666" cx="620.42" cy="-308.16" rx="194.81" ry="25.81"/>
<text xml:space="preserve" text-anchor="start" x="490.67" y="-311.01" font-family="Helvetica,sans-Serif" font-size="12.00">com.runehive.game.world.items.containers.bank.</text>
<text xml:space="preserve" text-anchor="middle" x="620.42" y="-296.76" font-family="Helvetica,sans-Serif" font-size="12.00">Bank.depositFromNothing</text>
</a>
</g>
</g>
<!-- Node1&#45;&gt;Node3 -->
<g id="edge2_Node000001_Node000003" class="edge">
<title>Node1&#45;&gt;Node3</title>
<g id="a_edge2_Node000001_Node000003"><a xlink:title=" ">
<path fill="none" stroke="#63b8ff" d="M2668.67,-188.16C2627.57,-208.05 2570.58,-233.01 2517.7,-247.16 2249.81,-318.83 2175.58,-322.16 1898.27,-322.16 1898.27,-322.16 1898.27,-322.16 1470.66,-322.16 1244.31,-322.16 984.08,-317.12 811.97,-313.09"/>
<polygon fill="#63b8ff" stroke="#63b8ff" points="2669.97,-191.43 2677.41,-183.89 2666.89,-185.14 2669.97,-191.43"/>
</a>
</g>
</g>
<!-- Node6 -->
<g id="Node000006" class="node">
<title>Node6</title>
<g id="a_Node000006"><a xlink:href="classcom_1_1runehive_1_1game_1_1world_1_1items_1_1containers_1_1_item_container.html#a636feeacf42fdd1b7eef2b32a977b11c" target="_top" xlink:title=" ">
<ellipse fill="white" stroke="#666666" cx="2322.89" cy="-66.16" rx="174.13" ry="25.81"/>
<text xml:space="preserve" text-anchor="start" x="2207.76" y="-69.01" font-family="Helvetica,sans-Serif" font-size="12.00">com.runehive.game.world.items.containers.</text>
<text xml:space="preserve" text-anchor="middle" x="2322.89" y="-54.76" font-family="Helvetica,sans-Serif" font-size="12.00">ItemContainer.insert</text>
</a>
</g>
</g>
<!-- Node1&#45;&gt;Node6 -->
<g id="edge5_Node000001_Node000006" class="edge">
<title>Node1&#45;&gt;Node6</title>
<g id="a_edge5_Node000001_Node000006"><a xlink:title=" ">
<path fill="none" stroke="#63b8ff" d="M2628.12,-132.75C2593.29,-124.01 2553.82,-114.37 2517.7,-106.16 2488.97,-99.62 2457.74,-92.98 2428.91,-87.03"/>
<polygon fill="#63b8ff" stroke="#63b8ff" points="2627.23,-136.13 2637.78,-135.18 2628.94,-129.35 2627.23,-136.13"/>
</a>
</g>
</g>
<!-- Node7 -->
<g id="Node000007" class="node">
<title>Node7</title>
<g id="a_Node000007"><a xlink:href="classcom_1_1runehive_1_1game_1_1world_1_1items_1_1containers_1_1_item_container.html#a09b63662a635b26ea666e1c22ba22f20" target="_top" xlink:title="Swaps the Items on oldIndex and newIndex.">
<ellipse fill="white" stroke="#666666" cx="1897.27" cy="-39.16" rx="174.13" ry="25.81"/>
<text xml:space="preserve" text-anchor="start" x="1782.15" y="-42.01" font-family="Helvetica,sans-Serif" font-size="12.00">com.runehive.game.world.items.containers.</text>
<text xml:space="preserve" text-anchor="middle" x="1897.27" y="-27.76" font-family="Helvetica,sans-Serif" font-size="12.00">ItemContainer.swap</text>
</a>
</g>
</g>
<!-- Node1&#45;&gt;Node7 -->
<g id="edge22_Node000001_Node000007" class="edge">
<title>Node1&#45;&gt;Node7</title>
<g id="a_edge22_Node000001_Node000007"><a xlink:title=" ">
<path fill="none" stroke="#63b8ff" d="M2687.94,-125.45C2648.12,-94.26 2582.97,-49.42 2517.7,-31.16 2345.64,16.99 2136.05,-0.72 2010.08,-19.09"/>
<polygon fill="#63b8ff" stroke="#63b8ff" points="2685.58,-128.05 2695.59,-131.53 2689.94,-122.57 2685.58,-128.05"/>
</a>
</g>
</g>
<!-- Node8 -->
<g id="Node000008" class="node">
<title>Node8</title>
<g id="a_Node000008"><a xlink:href="classcom_1_1runehive_1_1game_1_1world_1_1items_1_1containers_1_1bank_1_1_bank.html#a630baa462f19906d0c0f05a7c043ade7" target="_top" xlink:title=" ">
<ellipse fill="white" stroke="#666666" cx="1046.04" cy="-174.16" rx="194.81" ry="25.81"/>
<text xml:space="preserve" text-anchor="start" x="916.29" y="-177.01" font-family="Helvetica,sans-Serif" font-size="12.00">com.runehive.game.world.items.containers.bank.</text>
<text xml:space="preserve" text-anchor="middle" x="1046.04" y="-162.76" font-family="Helvetica,sans-Serif" font-size="12.00">Bank.itemToTab</text>
</a>
</g>
</g>
<!-- Node1&#45;&gt;Node8 -->
<g id="edge7_Node000001_Node000008" class="edge">
<title>Node1&#45;&gt;Node8</title>
<g id="a_edge7_Node000001_Node000008"><a xlink:title=" ">
<path fill="none" stroke="#63b8ff" d="M2542.53,-159.91C2222.57,-162.96 1567.32,-169.2 1240.84,-172.31"/>
<polygon fill="#63b8ff" stroke="#63b8ff" points="2542.29,-163.41 2552.26,-159.82 2542.23,-156.42 2542.29,-163.41"/>
</a>
</g>
</g>
<!-- Node9 -->
<g id="Node000009" class="node">
<title>Node9</title>
<g id="a_Node000009"><a xlink:href="classcom_1_1runehive_1_1game_1_1world_1_1items_1_1containers_1_1bank_1_1_bank.html#a6f5c51f148f1314a5dbd924227ca4072" target="_top" xlink:title="Moves an item within the bank.">
<ellipse fill="white" stroke="#666666" cx="620.42" cy="-168.16" rx="194.81" ry="25.81"/>
<text xml:space="preserve" text-anchor="start" x="490.67" y="-171.01" font-family="Helvetica,sans-Serif" font-size="12.00">com.runehive.game.world.items.containers.bank.</text>
<text xml:space="preserve" text-anchor="middle" x="620.42" y="-156.76" font-family="Helvetica,sans-Serif" font-size="12.00">Bank.moveItem</text>
</a>
</g>
</g>
<!-- Node1&#45;&gt;Node9 -->
<g id="edge9_Node000001_Node000009" class="edge">
<title>Node1&#45;&gt;Node9</title>
<g id="a_edge9_Node000001_Node000009"><a xlink:title=" ">
<path fill="none" stroke="#63b8ff" d="M2559.4,-145.97C2392.11,-134.86 2127.54,-120.16 1898.27,-120.16 1898.27,-120.16 1898.27,-120.16 1470.66,-120.16 1195.23,-120.16 1125.82,-117.67 851.23,-139.16 819.96,-141.6 786.41,-145.25 754.88,-149.14"/>
<polygon fill="#63b8ff" stroke="#63b8ff" points="2559.05,-149.45 2569.26,-146.63 2559.52,-142.47 2559.05,-149.45"/>
</a>
</g>
</g>
<!-- Node10 -->
<g id="Node000010" class="node">
<title>Node10</title>
<g id="a_Node000010"><a xlink:href="classcom_1_1runehive_1_1game_1_1world_1_1items_1_1containers_1_1bank_1_1_bank.html#abebb125b6bb4518ae235c0b2a787e0c3" target="_top" xlink:title=" ">
<ellipse fill="white" stroke="#666666" cx="2322.89" cy="-212.16" rx="194.81" ry="25.81"/>
<text xml:space="preserve" text-anchor="start" x="2193.14" y="-215.01" font-family="Helvetica,sans-Serif" font-size="12.00">com.runehive.game.world.items.containers.bank.</text>
<text xml:space="preserve" text-anchor="middle" x="2322.89" y="-200.76" font-family="Helvetica,sans-Serif" font-size="12.00">Bank.moveTab</text>
</a>
</g>
</g>
<!-- Node1&#45;&gt;Node10 -->
<g id="edge10_Node000001_Node000010" class="edge">
<title>Node1&#45;&gt;Node10</title>
<g id="a_edge10_Node000001_Node000010"><a xlink:title=" ">
<path fill="none" stroke="#63b8ff" d="M2585.85,-177.05C2545.59,-182.45 2501.77,-188.32 2461.69,-193.69"/>
<polygon fill="#63b8ff" stroke="#63b8ff" points="2586.17,-180.54 2595.61,-175.74 2585.24,-173.6 2586.17,-180.54"/>
</a>
</g>
</g>
<!-- Node4 -->
<g id="Node000004" class="node">
<title>Node4</title>
<g id="a_Node000004"><a xlink:href="classcom_1_1runehive_1_1game_1_1world_1_1items_1_1containers_1_1bank_1_1_bank.html#a188ade7db83c9dc157ed616efb299d2f" target="_top" xlink:title="Handles depositing all the equipment.">
<ellipse fill="white" stroke="#666666" cx="194.81" cy="-378.16" rx="194.81" ry="25.81"/>
<text xml:space="preserve" text-anchor="start" x="65.06" y="-381.01" font-family="Helvetica,sans-Serif" font-size="12.00">com.runehive.game.world.items.containers.bank.</text>
<text xml:space="preserve" text-anchor="middle" x="194.81" y="-366.76" font-family="Helvetica,sans-Serif" font-size="12.00">Bank.depositeEquipment</text>
</a>
</g>
</g>
<!-- Node3&#45;&gt;Node4 -->
<g id="edge3_Node000003_Node000004" class="edge">
<title>Node3&#45;&gt;Node4</title>
<g id="a_edge3_Node000003_Node000004"><a xlink:title=" ">
<path fill="none" stroke="#63b8ff" d="M485.34,-330.31C431.93,-339.14 370.87,-349.23 318.64,-357.86"/>
<polygon fill="#63b8ff" stroke="#63b8ff" points="485.82,-333.78 495.12,-328.7 484.68,-326.87 485.82,-333.78"/>
</a>
</g>
</g>
<!-- Node5 -->
<g id="Node000005" class="node">
<title>Node5</title>
<g id="a_Node000005"><a xlink:href="classcom_1_1runehive_1_1game_1_1world_1_1items_1_1containers_1_1bank_1_1_bank.html#a64d2c2b47b4c279b87337e9e88ab542e" target="_top" xlink:title="Handles depositing the entire inventory.">
<ellipse fill="white" stroke="#666666" cx="194.81" cy="-308.16" rx="194.81" ry="25.81"/>
<text xml:space="preserve" text-anchor="start" x="65.06" y="-311.01" font-family="Helvetica,sans-Serif" font-size="12.00">com.runehive.game.world.items.containers.bank.</text>
<text xml:space="preserve" text-anchor="middle" x="194.81" y="-296.76" font-family="Helvetica,sans-Serif" font-size="12.00">Bank.depositeInventory</text>
</a>
</g>
</g>
<!-- Node3&#45;&gt;Node5 -->
<g id="edge4_Node000003_Node000005" class="edge">
<title>Node3&#45;&gt;Node5</title>
<g id="a_edge4_Node000003_Node000005"><a xlink:title=" ">
<path fill="none" stroke="#63b8ff" d="M413.97,-308.16C405.96,-308.16 397.93,-308.16 389.95,-308.16"/>
<polygon fill="#63b8ff" stroke="#63b8ff" points="413.77,-311.66 423.77,-308.16 413.77,-304.66 413.77,-311.66"/>
</a>
</g>
</g>
<!-- Node6&#45;&gt;Node7 -->
<g id="edge6_Node000006_Node000007" class="edge">
<title>Node6&#45;&gt;Node7</title>
<g id="a_edge6_Node000006_Node000007"><a xlink:title=" ">
<path fill="none" stroke="#63b8ff" d="M2150.82,-55.25C2120.22,-53.3 2088.44,-51.28 2058.16,-49.35"/>
<polygon fill="#63b8ff" stroke="#63b8ff" points="2150.33,-58.73 2160.53,-55.87 2150.77,-51.74 2150.33,-58.73"/>
</a>
</g>
</g>
<!-- Node8&#45;&gt;Node9 -->
<g id="edge8_Node000008_Node000009" class="edge">
<title>Node8&#45;&gt;Node9</title>
<g id="a_edge8_Node000008_Node000009"><a xlink:title=" ">
<path fill="none" stroke="#63b8ff" d="M840.44,-171.26C831.76,-171.14 823.07,-171.01 814.43,-170.89"/>
<polygon fill="#63b8ff" stroke="#63b8ff" points="840.26,-174.76 850.31,-171.4 840.36,-167.76 840.26,-174.76"/>
</a>
</g>
</g>
<!-- Node11 -->
<g id="Node000011" class="node">
<title>Node11</title>
<g id="a_Node000011"><a xlink:href="classcom_1_1runehive_1_1game_1_1world_1_1items_1_1containers_1_1bank_1_1_bank.html#a040cc7525b75cf6a275146662d175039" target="_top" xlink:title="Collapses a tab and shifts other tabs one slot to the left.">
<ellipse fill="white" stroke="#666666" cx="1471.66" cy="-228.16" rx="194.81" ry="25.81"/>
<text xml:space="preserve" text-anchor="start" x="1341.91" y="-231.01" font-family="Helvetica,sans-Serif" font-size="12.00">com.runehive.game.world.items.containers.bank.</text>
<text xml:space="preserve" text-anchor="middle" x="1471.66" y="-216.76" font-family="Helvetica,sans-Serif" font-size="12.00">Bank.collapse</text>
</a>
</g>
</g>
<!-- Node10&#45;&gt;Node11 -->
<g id="edge11_Node000010_Node000011" class="edge">
<title>Node10&#45;&gt;Node11</title>
<g id="a_edge11_Node000010_Node000011"><a xlink:title=" ">
<path fill="none" stroke="#63b8ff" d="M2228.79,-238.68C2187.32,-249.18 2137.64,-259.97 2092.08,-265.16 1920.03,-284.74 1875.07,-278.96 1702.46,-265.16 1663.49,-262.04 1621.15,-255.99 1583.56,-249.68"/>
<polygon fill="#63b8ff" stroke="#63b8ff" points="2229.42,-242.13 2238.24,-236.25 2227.68,-235.35 2229.42,-242.13"/>
</a>
</g>
</g>
<!-- Node15 -->
<g id="Node000015" class="node">
<title>Node15</title>
<g id="a_Node000015"><a xlink:href="classcom_1_1runehive_1_1game_1_1world_1_1items_1_1containers_1_1bank_1_1_bank.html#a96b820d7d91e94493b4997bb3d8e7406" target="_top" xlink:title=" ">
<ellipse fill="white" stroke="#666666" cx="1897.27" cy="-212.16" rx="194.81" ry="25.81"/>
<text xml:space="preserve" text-anchor="start" x="1767.52" y="-215.01" font-family="Helvetica,sans-Serif" font-size="12.00">com.runehive.game.world.items.containers.bank.</text>
<text xml:space="preserve" text-anchor="middle" x="1897.27" y="-200.76" font-family="Helvetica,sans-Serif" font-size="12.00">Bank.recursiveCollapse</text>
</a>
</g>
</g>
<!-- Node10&#45;&gt;Node15 -->
<g id="edge19_Node000010_Node000015" class="edge">
<title>Node10&#45;&gt;Node15</title>
<g id="a_edge19_Node000010_Node000015"><a xlink:title=" ">
<path fill="none" stroke="#63b8ff" d="M2116.43,-212.16C2108.42,-212.16 2100.4,-212.16 2092.41,-212.16"/>
<polygon fill="#63b8ff" stroke="#63b8ff" points="2116.23,-215.66 2126.23,-212.16 2116.23,-208.66 2116.23,-215.66"/>
</a>
</g>
</g>
<!-- Node11&#45;&gt;Node8 -->
<g id="edge18_Node000011_Node000008" class="edge">
<title>Node11&#45;&gt;Node8</title>
<g id="a_edge18_Node000011_Node000008"><a xlink:title=" ">
<path fill="none" stroke="#63b8ff" d="M1318.31,-208.74C1275.87,-203.33 1229.97,-197.48 1188.2,-192.15"/>
<polygon fill="#63b8ff" stroke="#63b8ff" points="1317.73,-212.19 1328.1,-209.98 1318.62,-205.25 1317.73,-212.19"/>
</a>
</g>
</g>
<!-- Node12 -->
<g id="Node000012" class="node">
<title>Node12</title>
<g id="a_Node000012"><a xlink:href="classcom_1_1runehive_1_1game_1_1world_1_1items_1_1containers_1_1bank_1_1_bank.html#ae05ba869615cb7e9053cb79529a66108" target="_top" xlink:title="Changes the amount of items stored in a tab.">
<ellipse fill="white" stroke="#666666" cx="1046.04" cy="-244.16" rx="194.81" ry="25.81"/>
<text xml:space="preserve" text-anchor="start" x="916.29" y="-247.01" font-family="Helvetica,sans-Serif" font-size="12.00">com.runehive.game.world.items.containers.bank.</text>
<text xml:space="preserve" text-anchor="middle" x="1046.04" y="-232.76" font-family="Helvetica,sans-Serif" font-size="12.00">Bank.changeTabAmount</text>
</a>
</g>
</g>
<!-- Node11&#45;&gt;Node12 -->
<g id="edge12_Node000011_Node000012" class="edge">
<title>Node11&#45;&gt;Node12</title>
<g id="a_edge12_Node000011_Node000012"><a xlink:title=" ">
<path fill="none" stroke="#63b8ff" d="M1272.37,-235.65C1259.54,-236.13 1246.65,-236.62 1233.88,-237.1"/>
<polygon fill="#63b8ff" stroke="#63b8ff" points="1272.25,-239.15 1282.11,-235.28 1271.98,-232.16 1272.25,-239.15"/>
</a>
</g>
</g>
<!-- Node12&#45;&gt;Node2 -->
<g id="edge13_Node000012_Node000002" class="edge">
<title>Node12&#45;&gt;Node2</title>
<g id="a_edge13_Node000012_Node000002"><a xlink:title=" ">
<path fill="none" stroke="#63b8ff" d="M985.33,-274.36C939.75,-296.31 874.85,-325.19 815.23,-343.16 795.1,-349.22 773.45,-354.4 752.18,-358.75"/>
<polygon fill="#63b8ff" stroke="#63b8ff" points="986.79,-277.55 994.25,-270.03 983.73,-271.25 986.79,-277.55"/>
</a>
</g>
</g>
<!-- Node12&#45;&gt;Node3 -->
<g id="edge14_Node000012_Node000003" class="edge">
<title>Node12&#45;&gt;Node3</title>
<g id="a_edge14_Node000012_Node000003"><a xlink:title=" ">
<path fill="none" stroke="#63b8ff" d="M904.49,-265.39C854.89,-272.88 799.39,-281.27 750.76,-288.62"/>
<polygon fill="#63b8ff" stroke="#63b8ff" points="904.78,-268.89 914.14,-263.93 903.73,-261.97 904.78,-268.89"/>
</a>
</g>
</g>
<!-- Node12&#45;&gt;Node9 -->
<g id="edge15_Node000012_Node000009" class="edge">
<title>Node12&#45;&gt;Node9</title>
<g id="a_edge15_Node000012_Node000009"><a xlink:title=" ">
<path fill="none" stroke="#63b8ff" d="M916.93,-221.17C860.12,-210.98 793.73,-199.07 738.29,-189.12"/>
<polygon fill="#63b8ff" stroke="#63b8ff" points="916.21,-224.6 926.67,-222.92 917.45,-217.71 916.21,-224.6"/>
</a>
</g>
</g>
<!-- Node13 -->
<g id="Node000013" class="node">
<title>Node13</title>
<g id="a_Node000013"><a xlink:href="classcom_1_1runehive_1_1game_1_1world_1_1items_1_1containers_1_1bank_1_1_bank.html#ac3c3d355fe3653a2b0b0db6b275f9bb2" target="_top" xlink:title="Withdraws item from bank.">
<ellipse fill="white" stroke="#666666" cx="620.42" cy="-238.16" rx="194.81" ry="25.81"/>
<text xml:space="preserve" text-anchor="start" x="490.67" y="-241.01" font-family="Helvetica,sans-Serif" font-size="12.00">com.runehive.game.world.items.containers.bank.</text>
<text xml:space="preserve" text-anchor="middle" x="620.42" y="-226.76" font-family="Helvetica,sans-Serif" font-size="12.00">Bank.withdraw</text>
</a>
</g>
</g>
<!-- Node12&#45;&gt;Node13 -->
<g id="edge16_Node000012_Node000013" class="edge">
<title>Node12&#45;&gt;Node13</title>
<g id="a_edge16_Node000012_Node000013"><a xlink:title=" ">
<path fill="none" stroke="#63b8ff" d="M840.44,-241.26C831.76,-241.14 823.07,-241.01 814.43,-240.89"/>
<polygon fill="#63b8ff" stroke="#63b8ff" points="840.26,-244.76 850.31,-241.4 840.36,-237.76 840.26,-244.76"/>
</a>
</g>
</g>
<!-- Node14 -->
<g id="Node000014" class="node">
<title>Node14</title>
<g id="a_Node000014"><a xlink:href="classcom_1_1runehive_1_1game_1_1world_1_1items_1_1containers_1_1bank_1_1_bank.html#af75ef6732f0687bed600a1025838d3aa" target="_top" xlink:title="Handles the place holder option for the contianer.">
<ellipse fill="white" stroke="#666666" cx="194.81" cy="-238.16" rx="194.81" ry="25.81"/>
<text xml:space="preserve" text-anchor="start" x="65.06" y="-241.01" font-family="Helvetica,sans-Serif" font-size="12.00">com.runehive.game.world.items.containers.bank.</text>
<text xml:space="preserve" text-anchor="middle" x="194.81" y="-226.76" font-family="Helvetica,sans-Serif" font-size="12.00">Bank.placeHolder</text>
</a>
</g>
</g>
<!-- Node13&#45;&gt;Node14 -->
<g id="edge17_Node000013_Node000014" class="edge">
<title>Node13&#45;&gt;Node14</title>
<g id="a_edge17_Node000013_Node000014"><a xlink:title=" ">
<path fill="none" stroke="#63b8ff" d="M413.97,-238.16C405.96,-238.16 397.93,-238.16 389.95,-238.16"/>
<polygon fill="#63b8ff" stroke="#63b8ff" points="413.77,-241.66 423.77,-238.16 413.77,-234.66 413.77,-241.66"/>
</a>
</g>
</g>
<!-- Node15&#45;&gt;Node11 -->
<g id="edge20_Node000015_Node000011" class="edge">
<title>Node15&#45;&gt;Node11</title>
<g id="a_edge20_Node000015_Node000011"><a xlink:title=" ">
<path fill="none" stroke="#63b8ff" d="M1697.98,-219.65C1685.16,-220.13 1672.27,-220.62 1659.5,-221.1"/>
<polygon fill="#63b8ff" stroke="#63b8ff" points="1697.86,-223.15 1707.72,-219.28 1697.6,-216.16 1697.86,-223.15"/>
</a>
</g>
</g>
<!-- Node15&#45;&gt;Node15 -->
<g id="edge21_Node000015_Node000015" class="edge">
<title>Node15&#45;&gt;Node15</title>
<g id="a_edge21_Node000015_Node000015"><a xlink:title=" ">
<path fill="none" stroke="#63b8ff" d="M1971.23,-246.44C1960.74,-252.08 1936.08,-255.97 1897.27,-255.97 1837.42,-255.97 1811.23,-246.73 1818.72,-236.04"/>
<polygon fill="#63b8ff" stroke="#63b8ff" points="1974.38,-247.99 1975.22,-237.42 1967.97,-245.16 1974.38,-247.99"/>
</a>
</g>
</g>
</g>
</svg>

<g id="navigator" transform="translate(0 0)" fill="#404254">
  <rect fill="#f2f5e9" fill-opacity="0.5" stroke="#606060" stroke-width=".5" x="0" y="0" width="60" height="60"/>
  <use id="zoomplus" xlink:href="#zoomPlus" x="17" y="9" onmousedown="handleZoom(evt,'in')"/>
  <use id="zoomminus" xlink:href="#zoomMin" x="42" y="9" onmousedown="handleZoom(evt,'out')"/>
  <use id="reset" xlink:href="#resetDef" x="30" y="36" onmousedown="handleReset()"/>
   <use id="arrowup" xlink:href="#arrowUp" x="0" y="0" onmousedown="handlePan(0,-1)"/>
  <use id="arrowright" xlink:href="#arrowRight" x="0" y="0" onmousedown="handlePan(1,0)"/>
  <use id="arrowdown" xlink:href="#arrowDown" x="0" y="0" onmousedown="handlePan(0,1)"/>
  <use id="arrowleft" xlink:href="#arrowLeft" x="0" y="0" onmousedown="handlePan(-1,0)"/>
</g>
<svg viewBox="0 0 15 15" width="100%" height="30px" preserveAspectRatio="xMaxYMin meet">
 <g id="arrow_out" transform="scale(0.3 0.3)">
  <a xlink:href="classcom_1_1runehive_1_1game_1_1world_1_1items_1_1containers_1_1_item_container_affb390175dc28a2e4379015fd4d57bc1_icgraph_org.svg" target="_base">
   <rect id="button" ry="5" rx="5" y="6" x="6" height="38" width="38"
        fill="#f2f5e9" fill-opacity="0.5" stroke="#606060" stroke-width="1.0"/>
   <path id="arrow"
     d="M 11.500037,31.436501 C 11.940474,20.09759 22.043105,11.32322 32.158766,21.979434 L 37.068811,17.246167 C 37.068811,17.246167 37.088388,32 37.088388,32 L 22.160133,31.978069 C 22.160133,31.978069 26.997745,27.140456 26.997745,27.140456 C 18.528582,18.264221 13.291696,25.230495 11.500037,31.436501 z"
     style="fill:#404040;"/>
  </a>
 </g>
</svg>

<style type='text/css'>
<![CDATA[
[data-mouse-over-selected='false'] { opacity: 0.7; }
[data-mouse-over-selected='true']  { opacity: 1.0; }
]]>
</style>
<script type="application/ecmascript"><![CDATA[
document.addEventListener('DOMContentLoaded', (event) => {
  highlightEdges();
  highlightAdjacentNodes();
});
]]></script>
</svg>
