<?xml version="1.0" encoding="UTF-8" standalone="no"?>
<!DOCTYPE svg PUBLIC "-//W3C//DTD SVG 1.1//EN"
 "http://www.w3.org/Graphics/SVG/1.1/DTD/svg11.dtd">
<!-- Generated by graphviz version 14.0.1 (20251006.0113)
 -->
<!-- Title: com.runehive.game.world.entity.combat.attack.listener.npc.Alkahrid.block Pages: 1 -->
<!--zoomable 614 -->

<svg id="main" version="1.1" xmlns="http://www.w3.org/2000/svg" xmlns:xlink="http://www.w3.org/1999/xlink" xml:space="preserve" onload="init(evt)">

<style type="text/css"><![CDATA[
.node, .edge {opacity: 0.7;}
.node.selected, .edge.selected {opacity: 1;}
.edge:hover path { stroke: red; }
.edge:hover polygon { stroke: red; fill: red; }
]]></style>

<defs>
  <circle id="rim" cx="0" cy="0" r="7"/>
  <circle id="rim2" cx="0" cy="0" r="3.5"/>
  <g id="zoomPlus">
    <use xlink:href="#rim" fill="#404040"><set attributeName="fill" to="#808080" begin="zoomplus.mouseover" end="zoomplus.mouseout"/></use>
    <path d="M-4,0h8M0,-4v8" fill="none" stroke="white" stroke-width="1.5" pointer-events="none"/>
  </g>
  <g id="zoomMin">
    <use xlink:href="#rim" fill="#404040"><set attributeName="fill" to="#808080" begin="zoomminus.mouseover" end="zoomminus.mouseout"/></use>
    <path d="M-4,0h8" fill="none" stroke="white" stroke-width="1.5" pointer-events="none"/>
  </g>
  <g id="arrowUp" transform="translate(30 24)">
    <use xlink:href="#rim"/>
    <path pointer-events="none" fill="none" stroke="white" stroke-width="1.5" d="M0,-3.0v7 M-2.5,-0.5L0,-3.0L2.5,-0.5"/>
  </g>
  <g id="arrowRight" transform="rotate(90) translate(36 -43)">
    <use xlink:href="#rim"/>
    <path pointer-events="none" fill="none" stroke="white" stroke-width="1.5" d="M0,-3.0v7 M-2.5,-0.5L0,-3.0L2.5,-0.5"/>
  </g>
  <g id="arrowDown" transform="rotate(180) translate(-30 -48)">
    <use xlink:href="#rim"/>
    <path pointer-events="none" fill="none" stroke="white" stroke-width="1.5" d="M0,-3.0v7 M-2.5,-0.5L0,-3.0L2.5,-0.5"/>
  </g>
  <g id="arrowLeft" transform="rotate(270) translate(-36 17)">
    <use xlink:href="#rim"/>
    <path pointer-events="none" fill="none" stroke="white" stroke-width="1.5" d="M0,-3.0v7 M-2.5,-0.5L0,-3.0L2.5,-0.5"/>
  </g>
  <g id="resetDef">
    <use xlink:href="#rim2" fill="#404040"><set attributeName="fill" to="#808080" begin="reset.mouseover" end="reset.mouseout"/></use>
  </g>
</defs>
<script type="application/ecmascript">
var viewWidth = 1576;
var viewHeight = 614;
var sectionId = 'dynsection-2';
</script>
<script type="application/ecmascript" xlink:href="svg.min.js"/>
<svg id="graph" class="graph">
<g id="viewport">
<title>com.runehive.game.world.entity.combat.attack.listener.npc.Alkahrid.block</title>
<!-- Node1 -->
<g id="Node000001" class="node">
<title>Node1</title>
<g id="a_Node000001"><a xlink:title=" ">
<ellipse fill="#999999" stroke="#666666" cx="231.4" cy="-334.81" rx="231.4" ry="25.81"/>
<text xml:space="preserve" text-anchor="start" x="75.78" y="-337.66" font-family="Helvetica,sans-Serif" font-size="12.00">com.runehive.game.world.entity.combat.attack.listener.npc.</text>
<text xml:space="preserve" text-anchor="middle" x="231.4" y="-323.41" font-family="Helvetica,sans-Serif" font-size="12.00">Alkahrid.block</text>
</a>
</g>
</g>
<!-- Node2 -->
<g id="Node000002" class="node">
<title>Node2</title>
<g id="a_Node000002"><a xlink:href="classcom_1_1runehive_1_1game_1_1world_1_1entity_1_1mob_1_1_mob.html#a7f9f09a886babdf286840872110bb538" target="_top" xlink:title=" ">
<ellipse fill="white" stroke="#666666" cx="714.29" cy="-579.81" rx="150.79" ry="25.81"/>
<text xml:space="preserve" text-anchor="start" x="615.67" y="-582.66" font-family="Helvetica,sans-Serif" font-size="12.00">com.runehive.game.world.entity.mob.</text>
<text xml:space="preserve" text-anchor="middle" x="714.29" y="-568.41" font-family="Helvetica,sans-Serif" font-size="12.00">Mob.getCurrentHealth</text>
</a>
</g>
</g>
<!-- Node1&#45;&gt;Node2 -->
<g id="edge1_Node000001_Node000002" class="edge">
<title>Node1&#45;&gt;Node2</title>
<g id="a_edge1_Node000001_Node000002"><a xlink:title=" ">
<path fill="none" stroke="#63b8ff" d="M256.31,-360.86C299.76,-406.38 396.66,-499.85 498.8,-544.81 520.12,-554.19 543.62,-561.08 567.02,-566.14"/>
<polygon fill="#63b8ff" stroke="#63b8ff" points="566.14,-569.54 576.64,-568.11 567.54,-562.68 566.14,-569.54"/>
</a>
</g>
</g>
<!-- Node5 -->
<g id="Node000005" class="node">
<title>Node5</title>
<g id="a_Node000005"><a xlink:href="classcom_1_1runehive_1_1game_1_1world_1_1entity_1_1mob_1_1_mob.html#a035f8e9a61076bb97ffd1037476688d7" target="_top" xlink:title=" ">
<ellipse fill="white" stroke="#666666" cx="714.29" cy="-509.81" rx="150.79" ry="25.81"/>
<text xml:space="preserve" text-anchor="start" x="615.67" y="-512.66" font-family="Helvetica,sans-Serif" font-size="12.00">com.runehive.game.world.entity.mob.</text>
<text xml:space="preserve" text-anchor="middle" x="714.29" y="-498.41" font-family="Helvetica,sans-Serif" font-size="12.00">Mob.getMaximumHealth</text>
</a>
</g>
</g>
<!-- Node1&#45;&gt;Node5 -->
<g id="edge4_Node000001_Node000005" class="edge">
<title>Node1&#45;&gt;Node5</title>
<g id="a_edge4_Node000001_Node000005"><a xlink:title=" ">
<path fill="none" stroke="#63b8ff" d="M271.66,-360.65C322.09,-392.59 413.33,-446.22 498.8,-474.81 522.88,-482.86 549.12,-489.1 574.72,-493.92"/>
<polygon fill="#63b8ff" stroke="#63b8ff" points="574.08,-497.36 584.55,-495.7 575.33,-490.48 574.08,-497.36"/>
</a>
</g>
</g>
<!-- Node6 -->
<g id="Node000006" class="node">
<title>Node6</title>
<g id="a_Node000006"><a xlink:href="classcom_1_1runehive_1_1game_1_1world_1_1entity_1_1mob_1_1_viewport.html#a4814546f3aade336723cc85e7e40c0ab" target="_top" xlink:title="The collection of npcs in this viewport.">
<ellipse fill="white" stroke="#666666" cx="714.29" cy="-439.81" rx="150.79" ry="25.81"/>
<text xml:space="preserve" text-anchor="start" x="615.67" y="-442.66" font-family="Helvetica,sans-Serif" font-size="12.00">com.runehive.game.world.entity.mob.</text>
<text xml:space="preserve" text-anchor="middle" x="714.29" y="-428.41" font-family="Helvetica,sans-Serif" font-size="12.00">Viewport.getNpcsInViewport</text>
</a>
</g>
</g>
<!-- Node1&#45;&gt;Node6 -->
<g id="edge6_Node000001_Node000006" class="edge">
<title>Node1&#45;&gt;Node6</title>
<g id="a_edge6_Node000001_Node000006"><a xlink:title=" ">
<path fill="none" stroke="#63b8ff" d="M316.79,-359.18C368.94,-373.7 437.41,-391.77 498.8,-404.81 527.19,-410.84 557.89,-416.41 586.94,-421.25"/>
<polygon fill="#63b8ff" stroke="#63b8ff" points="586.05,-424.65 596.49,-422.82 587.19,-417.74 586.05,-424.65"/>
</a>
</g>
</g>
<!-- Node7 -->
<g id="Node000007" class="node">
<title>Node7</title>
<g id="a_Node000007"><a xlink:href="classcom_1_1runehive_1_1game_1_1world_1_1entity_1_1mob_1_1_mob.html#abff0c847f98d14619ca50e0210568e56" target="_top" xlink:title=" ">
<ellipse fill="white" stroke="#666666" cx="714.29" cy="-369.81" rx="150.79" ry="25.81"/>
<text xml:space="preserve" text-anchor="start" x="615.67" y="-372.66" font-family="Helvetica,sans-Serif" font-size="12.00">com.runehive.game.world.entity.mob.</text>
<text xml:space="preserve" text-anchor="middle" x="714.29" y="-358.41" font-family="Helvetica,sans-Serif" font-size="12.00">Mob.getPlayer</text>
</a>
</g>
</g>
<!-- Node1&#45;&gt;Node7 -->
<g id="edge7_Node000001_Node000007" class="edge">
<title>Node1&#45;&gt;Node7</title>
<g id="a_edge7_Node000001_Node000007"><a xlink:title=" ">
<path fill="none" stroke="#63b8ff" d="M426.61,-348.94C472.29,-352.27 520.29,-355.76 563.66,-358.92"/>
<polygon fill="#63b8ff" stroke="#63b8ff" points="563.14,-362.39 573.37,-359.63 563.65,-355.41 563.14,-362.39"/>
</a>
</g>
</g>
<!-- Node8 -->
<g id="Node000008" class="node">
<title>Node8</title>
<g id="a_Node000008"><a xlink:href="classcom_1_1runehive_1_1game_1_1world_1_1entity_1_1_entity.html#a8afdd0de68f242bf7082076dfbfffe37" target="_top" xlink:title=" ">
<ellipse fill="white" stroke="#666666" cx="714.29" cy="-299.81" rx="132.23" ry="25.81"/>
<text xml:space="preserve" text-anchor="start" x="628.79" y="-302.66" font-family="Helvetica,sans-Serif" font-size="12.00">com.runehive.game.world.entity.</text>
<text xml:space="preserve" text-anchor="middle" x="714.29" y="-288.41" font-family="Helvetica,sans-Serif" font-size="12.00">Entity.getPosition</text>
</a>
</g>
</g>
<!-- Node1&#45;&gt;Node8 -->
<g id="edge8_Node000001_Node000008" class="edge">
<title>Node1&#45;&gt;Node8</title>
<g id="a_edge8_Node000001_Node000008"><a xlink:title=" ">
<path fill="none" stroke="#63b8ff" d="M426.61,-320.67C477.65,-316.96 531.58,-313.03 578.73,-309.6"/>
<polygon fill="#63b8ff" stroke="#63b8ff" points="578.7,-313.11 588.42,-308.9 578.19,-306.13 578.7,-313.11"/>
</a>
</g>
</g>
<!-- Node9 -->
<g id="Node000009" class="node">
<title>Node9</title>
<g id="a_Node000009"><a xlink:href="classcom_1_1runehive_1_1game_1_1world_1_1entity_1_1combat_1_1attack_1_1listener_1_1_simplified_listener.html#a6883ea629959aaa051bbfe832c62b8da" target="_top" xlink:title=" ">
<ellipse fill="white" stroke="#666666" cx="714.29" cy="-211.81" rx="215.49" ry="25.81"/>
<text xml:space="preserve" text-anchor="start" x="569.92" y="-214.66" font-family="Helvetica,sans-Serif" font-size="12.00">com.runehive.game.world.entity.combat.attack.listener.</text>
<text xml:space="preserve" text-anchor="middle" x="714.29" y="-200.41" font-family="Helvetica,sans-Serif" font-size="12.00">SimplifiedListener.hit</text>
</a>
</g>
</g>
<!-- Node1&#45;&gt;Node9 -->
<g id="edge9_Node000001_Node000009" class="edge">
<title>Node1&#45;&gt;Node9</title>
<g id="a_edge9_Node000001_Node000009"><a xlink:title=" ">
<path fill="none" stroke="#63b8ff" d="M322.94,-310.67C374.45,-297.02 440.18,-279.75 498.8,-264.81 533.68,-255.92 571.81,-246.42 606.12,-237.96"/>
<polygon fill="#63b8ff" stroke="#63b8ff" points="606.78,-241.41 615.65,-235.62 605.1,-234.61 606.78,-241.41"/>
</a>
</g>
</g>
<!-- Node10 -->
<g id="Node000010" class="node">
<title>Node10</title>
<g id="a_Node000010"><a xlink:href="classcom_1_1runehive_1_1game_1_1world_1_1entity_1_1mob_1_1_mob.html#ac7ddf988f32265b28e7af7283b406df1" target="_top" xlink:title="Check if an entity is a player.">
<ellipse fill="white" stroke="#666666" cx="1116.57" cy="-302.81" rx="150.79" ry="25.81"/>
<text xml:space="preserve" text-anchor="start" x="1017.95" y="-305.66" font-family="Helvetica,sans-Serif" font-size="12.00">com.runehive.game.world.entity.mob.</text>
<text xml:space="preserve" text-anchor="middle" x="1116.57" y="-291.41" font-family="Helvetica,sans-Serif" font-size="12.00">Mob.isPlayer</text>
</a>
</g>
</g>
<!-- Node1&#45;&gt;Node10 -->
<g id="edge11_Node000001_Node000010" class="edge">
<title>Node1&#45;&gt;Node10</title>
<g id="a_edge11_Node000001_Node000010"><a xlink:title=" ">
<path fill="none" stroke="#63b8ff" d="M263.04,-309.01C310.11,-271.25 404.68,-202.62 498.8,-176.81 591.16,-151.48 838.23,-148.69 929.78,-176.81 988.69,-194.9 1045.7,-238.7 1080.69,-269.56"/>
<polygon fill="#63b8ff" stroke="#63b8ff" points="1078.19,-272.02 1087.97,-276.09 1082.86,-266.81 1078.19,-272.02"/>
</a>
</g>
</g>
<!-- Node11 -->
<g id="Node000011" class="node">
<title>Node11</title>
<g id="a_Node000011"><a xlink:href="classcom_1_1runehive_1_1util_1_1_utility.html#af9eb94bde5c8e85696f05f773db8b7ec" target="_top" xlink:title=" ">
<ellipse fill="white" stroke="#666666" cx="714.29" cy="-95.81" rx="122.68" ry="15.73"/>
<text xml:space="preserve" text-anchor="middle" x="714.29" y="-91.53" font-family="Helvetica,sans-Serif" font-size="12.00">com.runehive.util.Utility.within</text>
</a>
</g>
</g>
<!-- Node1&#45;&gt;Node11 -->
<g id="edge13_Node000001_Node000011" class="edge">
<title>Node1&#45;&gt;Node11</title>
<g id="a_edge13_Node000001_Node000011"><a xlink:title=" ">
<path fill="none" stroke="#63b8ff" d="M260.34,-308.81C306.38,-267.43 402.72,-186.84 498.8,-143.81 535.25,-127.48 577.75,-116.48 615.26,-109.18"/>
<polygon fill="#63b8ff" stroke="#63b8ff" points="615.54,-112.69 624.73,-107.41 614.25,-105.81 615.54,-112.69"/>
</a>
</g>
</g>
<!-- Node3 -->
<g id="Node000003" class="node">
<title>Node3</title>
<g id="a_Node000003"><a xlink:href="classcom_1_1runehive_1_1game_1_1world_1_1entity_1_1mob_1_1_mob.html#ac1ffa95e70f2c18a6695328fb2afc585" target="_top" xlink:title="Check if an entity is an npc.">
<ellipse fill="white" stroke="#666666" cx="1116.57" cy="-509.81" rx="150.79" ry="25.81"/>
<text xml:space="preserve" text-anchor="start" x="1017.95" y="-512.66" font-family="Helvetica,sans-Serif" font-size="12.00">com.runehive.game.world.entity.mob.</text>
<text xml:space="preserve" text-anchor="middle" x="1116.57" y="-498.41" font-family="Helvetica,sans-Serif" font-size="12.00">Mob.isNpc</text>
</a>
</g>
</g>
<!-- Node2&#45;&gt;Node3 -->
<g id="edge2_Node000002_Node000003" class="edge">
<title>Node2&#45;&gt;Node3</title>
<g id="a_edge2_Node000002_Node000003"><a xlink:title=" ">
<path fill="none" stroke="#63b8ff" d="M826.43,-562.21C859.7,-556.79 896.25,-550.7 929.78,-544.81 953.75,-540.6 979.42,-535.89 1003.8,-531.32"/>
<polygon fill="#63b8ff" stroke="#63b8ff" points="1004.22,-534.81 1013.41,-529.52 1002.93,-527.93 1004.22,-534.81"/>
</a>
</g>
</g>
<!-- Node4 -->
<g id="Node000004" class="node">
<title>Node4</title>
<g id="a_Node000004"><a xlink:href="classcom_1_1runehive_1_1game_1_1world_1_1entity_1_1_entity.html#a64f68055122aaf4af08787378c7ac356" target="_top" xlink:title="Gets the EntityType.">
<ellipse fill="white" stroke="#666666" cx="1435.59" cy="-406.81" rx="132.23" ry="25.81"/>
<text xml:space="preserve" text-anchor="start" x="1350.09" y="-409.66" font-family="Helvetica,sans-Serif" font-size="12.00">com.runehive.game.world.entity.</text>
<text xml:space="preserve" text-anchor="middle" x="1435.59" y="-395.41" font-family="Helvetica,sans-Serif" font-size="12.00">Entity.getType</text>
</a>
</g>
</g>
<!-- Node3&#45;&gt;Node4 -->
<g id="edge3_Node000003_Node000004" class="edge">
<title>Node3&#45;&gt;Node4</title>
<g id="a_edge3_Node000003_Node000004"><a xlink:title=" ">
<path fill="none" stroke="#63b8ff" d="M1188.72,-486.69C1238.14,-470.64 1304.05,-449.22 1355.19,-432.61"/>
<polygon fill="#63b8ff" stroke="#63b8ff" points="1355.99,-436.03 1364.42,-429.61 1353.83,-429.37 1355.99,-436.03"/>
</a>
</g>
</g>
<!-- Node5&#45;&gt;Node3 -->
<g id="edge5_Node000005_Node000003" class="edge">
<title>Node5&#45;&gt;Node3</title>
<g id="a_edge5_Node000005_Node000003"><a xlink:title=" ">
<path fill="none" stroke="#63b8ff" d="M865.48,-509.81C894.5,-509.81 925.01,-509.81 954.36,-509.81"/>
<polygon fill="#63b8ff" stroke="#63b8ff" points="954.03,-513.31 964.03,-509.81 954.03,-506.31 954.03,-513.31"/>
</a>
</g>
</g>
<!-- Node9&#45;&gt;Node9 -->
<g id="edge10_Node000009_Node000009" class="edge">
<title>Node9&#45;&gt;Node9</title>
<g id="a_edge10_Node000009_Node000009"><a xlink:title=" ">
<path fill="none" stroke="#63b8ff" d="M639.77,-236.14C633.67,-246.63 658.51,-255.62 714.29,-255.62 750.47,-255.62 773.63,-251.84 783.78,-246.32"/>
<polygon fill="#63b8ff" stroke="#63b8ff" points="786.85,-248.01 788.15,-237.49 780.58,-244.91 786.85,-248.01"/>
</a>
</g>
</g>
<!-- Node10&#45;&gt;Node4 -->
<g id="edge12_Node000010_Node000004" class="edge">
<title>Node10&#45;&gt;Node4</title>
<g id="a_edge12_Node000010_Node000004"><a xlink:title=" ">
<path fill="none" stroke="#63b8ff" d="M1187.93,-325.89C1237.57,-342.18 1304.13,-364.01 1355.6,-380.89"/>
<polygon fill="#63b8ff" stroke="#63b8ff" points="1354.31,-384.15 1364.9,-383.95 1356.49,-377.5 1354.31,-384.15"/>
</a>
</g>
</g>
<!-- Node11&#45;&gt;Node11 -->
<g id="edge18_Node000011_Node000011" class="edge">
<title>Node11&#45;&gt;Node11</title>
<g id="a_edge18_Node000011_Node000011"><a xlink:title=" ">
<path fill="none" stroke="#63b8ff" d="M647.78,-109.32C624.55,-119.39 646.72,-129.54 714.29,-129.54 766.03,-129.54 791.15,-123.59 789.66,-116.28"/>
<polygon fill="#63b8ff" stroke="#63b8ff" points="792.02,-113.69 782,-110.25 787.69,-119.19 792.02,-113.69"/>
</a>
</g>
</g>
<!-- Node12 -->
<g id="Node000012" class="node">
<title>Node12</title>
<g id="a_Node000012"><a xlink:href="interfacecom_1_1runehive_1_1game_1_1world_1_1_interactable.html#a22cd7c00a274589573f03c45a0b67688" target="_top" xlink:title="Creates a new instance of an Interactable.">
<ellipse fill="white" stroke="#666666" cx="1116.57" cy="-95.81" rx="110.49" ry="25.81"/>
<text xml:space="preserve" text-anchor="start" x="1046.45" y="-98.66" font-family="Helvetica,sans-Serif" font-size="12.00">com.runehive.game.world.</text>
<text xml:space="preserve" text-anchor="middle" x="1116.57" y="-84.41" font-family="Helvetica,sans-Serif" font-size="12.00">Interactable.create</text>
</a>
</g>
</g>
<!-- Node11&#45;&gt;Node12 -->
<g id="edge14_Node000011_Node000012" class="edge">
<title>Node11&#45;&gt;Node12</title>
<g id="a_edge14_Node000011_Node000012"><a xlink:title=" ">
<path fill="none" stroke="#63b8ff" d="M837.29,-95.81C887.11,-95.81 944.59,-95.81 994.32,-95.81"/>
<polygon fill="#63b8ff" stroke="#63b8ff" points="994.29,-99.31 1004.29,-95.81 994.29,-92.31 994.29,-99.31"/>
</a>
</g>
</g>
<!-- Node13 -->
<g id="Node000013" class="node">
<title>Node13</title>
<g id="a_Node000013"><a xlink:href="interfacecom_1_1runehive_1_1game_1_1world_1_1_interactable.html#a49e07a60c6643c0ba33bc9754305c352" target="_top" xlink:title=" ">
<ellipse fill="white" stroke="#666666" cx="1435.59" cy="-165.81" rx="110.49" ry="25.81"/>
<text xml:space="preserve" text-anchor="start" x="1365.47" y="-168.66" font-family="Helvetica,sans-Serif" font-size="12.00">com.runehive.game.world.</text>
<text xml:space="preserve" text-anchor="middle" x="1435.59" y="-154.41" font-family="Helvetica,sans-Serif" font-size="12.00">Interactable.getPosition</text>
</a>
</g>
</g>
<!-- Node12&#45;&gt;Node13 -->
<g id="edge15_Node000012_Node000013" class="edge">
<title>Node12&#45;&gt;Node13</title>
<g id="a_edge15_Node000012_Node000013"><a xlink:title=" ">
<path fill="none" stroke="#63b8ff" d="M1197.98,-113.56C1242.13,-123.31 1297.05,-135.44 1342.86,-145.55"/>
<polygon fill="#63b8ff" stroke="#63b8ff" points="1342,-148.95 1352.52,-147.69 1343.51,-142.11 1342,-148.95"/>
</a>
</g>
</g>
<!-- Node14 -->
<g id="Node000014" class="node">
<title>Node14</title>
<g id="a_Node000014"><a xlink:href="interfacecom_1_1runehive_1_1game_1_1world_1_1_interactable.html#a9513e5e63159a738b417ceba87cd1de8" target="_top" xlink:title=" ">
<ellipse fill="white" stroke="#666666" cx="1435.59" cy="-95.81" rx="110.49" ry="25.81"/>
<text xml:space="preserve" text-anchor="start" x="1365.47" y="-98.66" font-family="Helvetica,sans-Serif" font-size="12.00">com.runehive.game.world.</text>
<text xml:space="preserve" text-anchor="middle" x="1435.59" y="-84.41" font-family="Helvetica,sans-Serif" font-size="12.00">Interactable.length</text>
</a>
</g>
</g>
<!-- Node12&#45;&gt;Node14 -->
<g id="edge16_Node000012_Node000014" class="edge">
<title>Node12&#45;&gt;Node14</title>
<g id="a_edge16_Node000012_Node000014"><a xlink:title=" ">
<path fill="none" stroke="#63b8ff" d="M1227.12,-95.81C1255,-95.81 1285.13,-95.81 1313.56,-95.81"/>
<polygon fill="#63b8ff" stroke="#63b8ff" points="1313.26,-99.31 1323.26,-95.81 1313.26,-92.31 1313.26,-99.31"/>
</a>
</g>
</g>
<!-- Node15 -->
<g id="Node000015" class="node">
<title>Node15</title>
<g id="a_Node000015"><a xlink:href="interfacecom_1_1runehive_1_1game_1_1world_1_1_interactable.html#ad7eb47dad8c89c478cedc32ea6fe3a5b" target="_top" xlink:title=" ">
<ellipse fill="white" stroke="#666666" cx="1435.59" cy="-25.81" rx="110.49" ry="25.81"/>
<text xml:space="preserve" text-anchor="start" x="1365.47" y="-28.66" font-family="Helvetica,sans-Serif" font-size="12.00">com.runehive.game.world.</text>
<text xml:space="preserve" text-anchor="middle" x="1435.59" y="-14.41" font-family="Helvetica,sans-Serif" font-size="12.00">Interactable.width</text>
</a>
</g>
</g>
<!-- Node12&#45;&gt;Node15 -->
<g id="edge17_Node000012_Node000015" class="edge">
<title>Node12&#45;&gt;Node15</title>
<g id="a_edge17_Node000012_Node000015"><a xlink:title=" ">
<path fill="none" stroke="#63b8ff" d="M1197.98,-78.05C1242.13,-68.31 1297.05,-56.18 1342.86,-46.06"/>
<polygon fill="#63b8ff" stroke="#63b8ff" points="1343.51,-49.51 1352.52,-43.93 1342,-42.67 1343.51,-49.51"/>
</a>
</g>
</g>
</g>
</svg>

<g id="navigator" transform="translate(0 0)" fill="#404254">
  <rect fill="#f2f5e9" fill-opacity="0.5" stroke="#606060" stroke-width=".5" x="0" y="0" width="60" height="60"/>
  <use id="zoomplus" xlink:href="#zoomPlus" x="17" y="9" onmousedown="handleZoom(evt,'in')"/>
  <use id="zoomminus" xlink:href="#zoomMin" x="42" y="9" onmousedown="handleZoom(evt,'out')"/>
  <use id="reset" xlink:href="#resetDef" x="30" y="36" onmousedown="handleReset()"/>
   <use id="arrowup" xlink:href="#arrowUp" x="0" y="0" onmousedown="handlePan(0,-1)"/>
  <use id="arrowright" xlink:href="#arrowRight" x="0" y="0" onmousedown="handlePan(1,0)"/>
  <use id="arrowdown" xlink:href="#arrowDown" x="0" y="0" onmousedown="handlePan(0,1)"/>
  <use id="arrowleft" xlink:href="#arrowLeft" x="0" y="0" onmousedown="handlePan(-1,0)"/>
</g>
<svg viewBox="0 0 15 15" width="100%" height="30px" preserveAspectRatio="xMaxYMin meet">
 <g id="arrow_out" transform="scale(0.3 0.3)">
  <a xlink:href="classcom_1_1runehive_1_1game_1_1world_1_1entity_1_1combat_1_1attack_1_1listener_1_1npc_1_1_alkahrid_ad95f42a65f4942ef3f9d67d2a14cc702_cgraph_org.svg" target="_base">
   <rect id="button" ry="5" rx="5" y="6" x="6" height="38" width="38"
        fill="#f2f5e9" fill-opacity="0.5" stroke="#606060" stroke-width="1.0"/>
   <path id="arrow"
     d="M 11.500037,31.436501 C 11.940474,20.09759 22.043105,11.32322 32.158766,21.979434 L 37.068811,17.246167 C 37.068811,17.246167 37.088388,32 37.088388,32 L 22.160133,31.978069 C 22.160133,31.978069 26.997745,27.140456 26.997745,27.140456 C 18.528582,18.264221 13.291696,25.230495 11.500037,31.436501 z"
     style="fill:#404040;"/>
  </a>
 </g>
</svg>

<style type='text/css'>
<![CDATA[
[data-mouse-over-selected='false'] { opacity: 0.7; }
[data-mouse-over-selected='true']  { opacity: 1.0; }
]]>
</style>
<script type="application/ecmascript"><![CDATA[
document.addEventListener('DOMContentLoaded', (event) => {
  highlightEdges();
  highlightAdjacentNodes();
});
]]></script>
</svg>
