<?xml version="1.0" encoding="UTF-8" standalone="no"?>
<!DOCTYPE svg PUBLIC "-//W3C//DTD SVG 1.1//EN"
 "http://www.w3.org/Graphics/SVG/1.1/DTD/svg11.dtd">
<!-- Generated by graphviz version 14.0.1 (20251006.0113)
 -->
<!-- Title: com.runehive.game.world.entity.mob.player.relations.PlayerRelation.PlayerRelation Pages: 1 -->
<!--zoomable 410 -->

<svg id="main" version="1.1" xmlns="http://www.w3.org/2000/svg" xmlns:xlink="http://www.w3.org/1999/xlink" xml:space="preserve" onload="init(evt)">

<style type="text/css"><![CDATA[
.node, .edge {opacity: 0.7;}
.node.selected, .edge.selected {opacity: 1;}
.edge:hover path { stroke: red; }
.edge:hover polygon { stroke: red; fill: red; }
]]></style>

<defs>
  <circle id="rim" cx="0" cy="0" r="7"/>
  <circle id="rim2" cx="0" cy="0" r="3.5"/>
  <g id="zoomPlus">
    <use xlink:href="#rim" fill="#404040"><set attributeName="fill" to="#808080" begin="zoomplus.mouseover" end="zoomplus.mouseout"/></use>
    <path d="M-4,0h8M0,-4v8" fill="none" stroke="white" stroke-width="1.5" pointer-events="none"/>
  </g>
  <g id="zoomMin">
    <use xlink:href="#rim" fill="#404040"><set attributeName="fill" to="#808080" begin="zoomminus.mouseover" end="zoomminus.mouseout"/></use>
    <path d="M-4,0h8" fill="none" stroke="white" stroke-width="1.5" pointer-events="none"/>
  </g>
  <g id="arrowUp" transform="translate(30 24)">
    <use xlink:href="#rim"/>
    <path pointer-events="none" fill="none" stroke="white" stroke-width="1.5" d="M0,-3.0v7 M-2.5,-0.5L0,-3.0L2.5,-0.5"/>
  </g>
  <g id="arrowRight" transform="rotate(90) translate(36 -43)">
    <use xlink:href="#rim"/>
    <path pointer-events="none" fill="none" stroke="white" stroke-width="1.5" d="M0,-3.0v7 M-2.5,-0.5L0,-3.0L2.5,-0.5"/>
  </g>
  <g id="arrowDown" transform="rotate(180) translate(-30 -48)">
    <use xlink:href="#rim"/>
    <path pointer-events="none" fill="none" stroke="white" stroke-width="1.5" d="M0,-3.0v7 M-2.5,-0.5L0,-3.0L2.5,-0.5"/>
  </g>
  <g id="arrowLeft" transform="rotate(270) translate(-36 17)">
    <use xlink:href="#rim"/>
    <path pointer-events="none" fill="none" stroke="white" stroke-width="1.5" d="M0,-3.0v7 M-2.5,-0.5L0,-3.0L2.5,-0.5"/>
  </g>
  <g id="resetDef">
    <use xlink:href="#rim2" fill="#404040"><set attributeName="fill" to="#808080" begin="reset.mouseover" end="reset.mouseout"/></use>
  </g>
</defs>
<script type="application/ecmascript">
var viewWidth = 1797;
var viewHeight = 410;
var sectionId = 'dynsection-1';
</script>
<script type="application/ecmascript" xlink:href="svg.min.js"/>
<svg id="graph" class="graph">
<g id="viewport">
<title>com.runehive.game.world.entity.mob.player.relations.PlayerRelation.PlayerRelation</title>
<!-- Node1 -->
<g id="Node000001" class="node">
<title>Node1</title>
<g id="a_Node000001"><a xlink:title=" ">
<ellipse fill="#999999" stroke="#666666" cx="1579.31" cy="-266.81" rx="210.19" ry="25.81"/>
<text xml:space="preserve" text-anchor="start" x="1438.69" y="-269.66" font-family="Helvetica,sans-Serif" font-size="12.00">com.runehive.game.world.entity.mob.player.relations.</text>
<text xml:space="preserve" text-anchor="middle" x="1579.31" y="-255.41" font-family="Helvetica,sans-Serif" font-size="12.00">PlayerRelation.PlayerRelation</text>
</a>
</g>
</g>
<!-- Node2 -->
<g id="Node000002" class="node">
<title>Node2</title>
<g id="a_Node000002"><a xlink:href="classcom_1_1runehive_1_1game_1_1world_1_1entity_1_1mob_1_1player_1_1relations_1_1_player_relation.html#af45c14a979ea14a35254fa5bb01426fe" target="_top" xlink:title=" ">
<ellipse fill="white" stroke="#666666" cx="666.56" cy="-375.81" rx="210.19" ry="25.81"/>
<text xml:space="preserve" text-anchor="start" x="525.94" y="-378.66" font-family="Helvetica,sans-Serif" font-size="12.00">com.runehive.game.world.entity.mob.player.relations.</text>
<text xml:space="preserve" text-anchor="middle" x="666.56" y="-364.41" font-family="Helvetica,sans-Serif" font-size="12.00">PlayerRelation.onLogin</text>
</a>
</g>
</g>
<!-- Node1&#45;&gt;Node2 -->
<g id="edge1_Node000001_Node000002" class="edge">
<title>Node1&#45;&gt;Node2</title>
<g id="a_edge1_Node000001_Node000002"><a xlink:title=" ">
<path fill="none" stroke="#63b8ff" d="M1429.45,-288.07C1397.68,-292.44 1364.31,-296.89 1333.12,-300.81 1160.64,-322.48 962.63,-344.42 827.73,-358.92"/>
<polygon fill="#63b8ff" stroke="#63b8ff" points="1429.69,-291.57 1439.12,-286.74 1428.73,-284.64 1429.69,-291.57"/>
</a>
</g>
</g>
<!-- Node3 -->
<g id="Node000003" class="node">
<title>Node3</title>
<g id="a_Node000003"><a xlink:href="classcom_1_1runehive_1_1game_1_1world_1_1entity_1_1mob_1_1player_1_1relations_1_1_player_relation.html#a5fdf8350e3f8ae8722a5dea1169e8033" target="_top" xlink:title=" ">
<ellipse fill="white" stroke="#666666" cx="666.56" cy="-305.81" rx="210.19" ry="25.81"/>
<text xml:space="preserve" text-anchor="start" x="525.94" y="-308.66" font-family="Helvetica,sans-Serif" font-size="12.00">com.runehive.game.world.entity.mob.player.relations.</text>
<text xml:space="preserve" text-anchor="middle" x="666.56" y="-294.41" font-family="Helvetica,sans-Serif" font-size="12.00">PlayerRelation.setPrivateChatMode</text>
</a>
</g>
</g>
<!-- Node1&#45;&gt;Node3 -->
<g id="edge2_Node000001_Node000003" class="edge">
<title>Node1&#45;&gt;Node3</title>
<g id="a_edge2_Node000001_Node000003"><a xlink:title=" ">
<path fill="none" stroke="#63b8ff" d="M1368.87,-275.78C1217.53,-282.26 1014.41,-290.96 865.73,-297.32"/>
<polygon fill="#63b8ff" stroke="#63b8ff" points="1368.78,-279.29 1378.62,-275.36 1368.48,-272.29 1368.78,-279.29"/>
</a>
</g>
</g>
<!-- Node6 -->
<g id="Node000006" class="node">
<title>Node6</title>
<g id="a_Node000006"><a xlink:href="classcom_1_1runehive_1_1game_1_1world_1_1entity_1_1mob_1_1player_1_1relations_1_1_player_relation.html#a7580682846a0828a0203e2120121cdf5" target="_top" xlink:title=" ">
<ellipse fill="white" stroke="#666666" cx="1122.94" cy="-169.81" rx="210.19" ry="25.81"/>
<text xml:space="preserve" text-anchor="start" x="982.31" y="-172.66" font-family="Helvetica,sans-Serif" font-size="12.00">com.runehive.game.world.entity.mob.player.relations.</text>
<text xml:space="preserve" text-anchor="middle" x="1122.94" y="-158.41" font-family="Helvetica,sans-Serif" font-size="12.00">PlayerRelation.setPrivateMessageId</text>
</a>
</g>
</g>
<!-- Node1&#45;&gt;Node6 -->
<g id="edge6_Node000001_Node000006" class="edge">
<title>Node1&#45;&gt;Node6</title>
<g id="a_edge6_Node000001_Node000006"><a xlink:title=" ">
<path fill="none" stroke="#63b8ff" d="M1480.47,-240.11C1435.74,-228.42 1381.95,-215.05 1333.12,-204.81 1308.26,-199.59 1281.6,-194.65 1255.92,-190.2"/>
<polygon fill="#63b8ff" stroke="#63b8ff" points="1479.31,-243.43 1489.87,-242.59 1481.09,-236.66 1479.31,-243.43"/>
</a>
</g>
</g>
<!-- Node7 -->
<g id="Node000007" class="node">
<title>Node7</title>
<g id="a_Node000007"><a xlink:href="classcom_1_1runehive_1_1game_1_1world_1_1entity_1_1mob_1_1player_1_1relations_1_1_player_relation.html#a0a1220a3ade99dd6042a08f7423c062f" target="_top" xlink:title=" ">
<ellipse fill="white" stroke="#666666" cx="1122.94" cy="-239.81" rx="210.19" ry="25.81"/>
<text xml:space="preserve" text-anchor="start" x="982.31" y="-242.66" font-family="Helvetica,sans-Serif" font-size="12.00">com.runehive.game.world.entity.mob.player.relations.</text>
<text xml:space="preserve" text-anchor="middle" x="1122.94" y="-228.41" font-family="Helvetica,sans-Serif" font-size="12.00">PlayerRelation.updateLists</text>
</a>
</g>
</g>
<!-- Node1&#45;&gt;Node7 -->
<g id="edge7_Node000001_Node000007" class="edge">
<title>Node1&#45;&gt;Node7</title>
<g id="a_edge7_Node000001_Node000007"><a xlink:title=" ">
<path fill="none" stroke="#63b8ff" d="M1377.7,-254.89C1356.21,-253.61 1334.39,-252.31 1313.04,-251.05"/>
<polygon fill="#63b8ff" stroke="#63b8ff" points="1377.21,-258.37 1387.4,-255.46 1377.62,-251.38 1377.21,-258.37"/>
</a>
</g>
</g>
<!-- Node4 -->
<g id="Node000004" class="node">
<title>Node4</title>
<g id="a_Node000004"><a xlink:href="classcom_1_1runehive_1_1game_1_1world_1_1entity_1_1mob_1_1player_1_1relations_1_1_player_relation.html#a78757a00bee73a91bf9aa3a8e59e0973" target="_top" xlink:title=" ">
<ellipse fill="white" stroke="#666666" cx="210.19" cy="-340.81" rx="210.19" ry="25.81"/>
<text xml:space="preserve" text-anchor="start" x="69.56" y="-343.66" font-family="Helvetica,sans-Serif" font-size="12.00">com.runehive.game.world.entity.mob.player.relations.</text>
<text xml:space="preserve" text-anchor="middle" x="210.19" y="-329.41" font-family="Helvetica,sans-Serif" font-size="12.00">PlayerRelation.message</text>
</a>
</g>
</g>
<!-- Node3&#45;&gt;Node4 -->
<g id="edge3_Node000003_Node000004" class="edge">
<title>Node3&#45;&gt;Node4</title>
<g id="a_edge3_Node000003_Node000004"><a xlink:title=" ">
<path fill="none" stroke="#63b8ff" d="M475.96,-320.41C447.39,-322.61 418.02,-324.88 389.7,-327.06"/>
<polygon fill="#63b8ff" stroke="#63b8ff" points="476.07,-323.92 485.78,-319.66 475.54,-316.94 476.07,-323.92"/>
</a>
</g>
</g>
<!-- Node5 -->
<g id="Node000005" class="node">
<title>Node5</title>
<g id="a_Node000005"><a xlink:href="classcom_1_1runehive_1_1game_1_1world_1_1entity_1_1mob_1_1player_1_1relations_1_1_player_relation.html#aeaae60e70ff68e65aa5d565113e3e683" target="_top" xlink:title=" ">
<ellipse fill="white" stroke="#666666" cx="210.19" cy="-270.81" rx="210.19" ry="25.81"/>
<text xml:space="preserve" text-anchor="start" x="69.56" y="-273.66" font-family="Helvetica,sans-Serif" font-size="12.00">com.runehive.game.world.entity.mob.player.relations.</text>
<text xml:space="preserve" text-anchor="middle" x="210.19" y="-259.41" font-family="Helvetica,sans-Serif" font-size="12.00">PlayerRelation.setPrivacyChatModes</text>
</a>
</g>
</g>
<!-- Node3&#45;&gt;Node5 -->
<g id="edge5_Node000003_Node000005" class="edge">
<title>Node3&#45;&gt;Node5</title>
<g id="a_edge5_Node000003_Node000005"><a xlink:title=" ">
<path fill="none" stroke="#63b8ff" d="M475.96,-291.2C447.39,-289 418.02,-286.74 389.7,-284.56"/>
<polygon fill="#63b8ff" stroke="#63b8ff" points="475.54,-294.68 485.78,-291.96 476.07,-287.7 475.54,-294.68"/>
</a>
</g>
</g>
<!-- Node4&#45;&gt;Node4 -->
<g id="edge4_Node000004_Node000004" class="edge">
<title>Node4&#45;&gt;Node4</title>
<g id="a_edge4_Node000004_Node000004"><a xlink:title=" ">
<path fill="none" stroke="#63b8ff" d="M289.5,-375.09C278.24,-380.73 251.8,-384.62 210.19,-384.62 146.01,-384.62 117.93,-375.38 125.95,-364.69"/>
<polygon fill="#63b8ff" stroke="#63b8ff" points="292.65,-376.6 293.77,-366.06 286.33,-373.6 292.65,-376.6"/>
</a>
</g>
</g>
<!-- Node7&#45;&gt;Node2 -->
<g id="edge12_Node000007_Node000002" class="edge">
<title>Node7&#45;&gt;Node2</title>
<g id="a_edge12_Node000007_Node000002"><a xlink:title=" ">
<path fill="none" stroke="#63b8ff" d="M1059.69,-270.03C1010.95,-292.56 940.88,-322.49 876.75,-340.81 855.24,-346.95 832.16,-352.15 809.47,-356.51"/>
<polygon fill="#63b8ff" stroke="#63b8ff" points="1061.11,-273.23 1068.7,-265.83 1058.15,-266.88 1061.11,-273.23"/>
</a>
</g>
</g>
<!-- Node7&#45;&gt;Node3 -->
<g id="edge13_Node000007_Node000003" class="edge">
<title>Node7&#45;&gt;Node3</title>
<g id="a_edge13_Node000007_Node000003"><a xlink:title=" ">
<path fill="none" stroke="#63b8ff" d="M974.13,-261.28C919.54,-269.21 857.97,-278.15 804.4,-285.93"/>
<polygon fill="#63b8ff" stroke="#63b8ff" points="974.41,-264.78 983.8,-259.87 973.4,-257.85 974.41,-264.78"/>
</a>
</g>
</g>
<!-- Node8 -->
<g id="Node000008" class="node">
<title>Node8</title>
<g id="a_Node000008"><a xlink:href="classcom_1_1runehive_1_1game_1_1world_1_1entity_1_1mob_1_1player_1_1relations_1_1_player_relation.html#a11345cc0cc84cd408ec2feefb61a49c7" target="_top" xlink:title=" ">
<ellipse fill="white" stroke="#666666" cx="666.56" cy="-95.81" rx="210.19" ry="25.81"/>
<text xml:space="preserve" text-anchor="start" x="525.94" y="-98.66" font-family="Helvetica,sans-Serif" font-size="12.00">com.runehive.game.world.entity.mob.player.relations.</text>
<text xml:space="preserve" text-anchor="middle" x="666.56" y="-84.41" font-family="Helvetica,sans-Serif" font-size="12.00">PlayerRelation.addFriend</text>
</a>
</g>
</g>
<!-- Node7&#45;&gt;Node8 -->
<g id="edge8_Node000007_Node000008" class="edge">
<title>Node7&#45;&gt;Node8</title>
<g id="a_edge8_Node000007_Node000008"><a xlink:title=" ">
<path fill="none" stroke="#63b8ff" d="M939.08,-220.53C929.78,-216.12 920.93,-210.92 912.75,-204.81 883.46,-182.91 906.04,-152.71 876.75,-130.81 865.62,-122.49 853.22,-115.86 840.17,-110.6"/>
<polygon fill="#63b8ff" stroke="#63b8ff" points="937.38,-223.61 947.94,-224.41 940.19,-217.19 937.38,-223.61"/>
</a>
</g>
</g>
<!-- Node9 -->
<g id="Node000009" class="node">
<title>Node9</title>
<g id="a_Node000009"><a xlink:href="classcom_1_1runehive_1_1game_1_1world_1_1entity_1_1mob_1_1player_1_1relations_1_1_player_relation.html#a7c15b5f1495e9cfcea6d0e68c56fca38" target="_top" xlink:title=" ">
<ellipse fill="white" stroke="#666666" cx="666.56" cy="-25.81" rx="210.19" ry="25.81"/>
<text xml:space="preserve" text-anchor="start" x="525.94" y="-28.66" font-family="Helvetica,sans-Serif" font-size="12.00">com.runehive.game.world.entity.mob.player.relations.</text>
<text xml:space="preserve" text-anchor="middle" x="666.56" y="-14.41" font-family="Helvetica,sans-Serif" font-size="12.00">PlayerRelation.addIgnore</text>
</a>
</g>
</g>
<!-- Node7&#45;&gt;Node9 -->
<g id="edge9_Node000007_Node000009" class="edge">
<title>Node7&#45;&gt;Node9</title>
<g id="a_edge9_Node000007_Node000009"><a xlink:title=" ">
<path fill="none" stroke="#63b8ff" d="M934.16,-220.59C926.51,-216.1 919.31,-210.87 912.75,-204.81 864.29,-160.05 925.21,-105.57 876.75,-60.81 867.42,-52.19 856.8,-45.26 845.42,-39.71"/>
<polygon fill="#63b8ff" stroke="#63b8ff" points="932.28,-223.56 942.75,-225.19 935.58,-217.39 932.28,-223.56"/>
</a>
</g>
</g>
<!-- Node10 -->
<g id="Node000010" class="node">
<title>Node10</title>
<g id="a_Node000010"><a xlink:href="classcom_1_1runehive_1_1game_1_1world_1_1entity_1_1mob_1_1player_1_1relations_1_1_player_relation.html#a716cd8c7feabd3b13d574e396e111ef3" target="_top" xlink:title=" ">
<ellipse fill="white" stroke="#666666" cx="666.56" cy="-235.81" rx="210.19" ry="25.81"/>
<text xml:space="preserve" text-anchor="start" x="525.94" y="-238.66" font-family="Helvetica,sans-Serif" font-size="12.00">com.runehive.game.world.entity.mob.player.relations.</text>
<text xml:space="preserve" text-anchor="middle" x="666.56" y="-224.41" font-family="Helvetica,sans-Serif" font-size="12.00">PlayerRelation.deleteFriend</text>
</a>
</g>
</g>
<!-- Node7&#45;&gt;Node10 -->
<g id="edge10_Node000007_Node000010" class="edge">
<title>Node7&#45;&gt;Node10</title>
<g id="a_edge10_Node000007_Node000010"><a xlink:title=" ">
<path fill="none" stroke="#63b8ff" d="M901.66,-237.87C893.3,-237.8 884.94,-237.72 876.6,-237.65"/>
<polygon fill="#63b8ff" stroke="#63b8ff" points="901.49,-241.37 911.52,-237.96 901.55,-234.37 901.49,-241.37"/>
</a>
</g>
</g>
<!-- Node11 -->
<g id="Node000011" class="node">
<title>Node11</title>
<g id="a_Node000011"><a xlink:href="classcom_1_1runehive_1_1game_1_1world_1_1entity_1_1mob_1_1player_1_1relations_1_1_player_relation.html#aff30d52e0359e28d704a9ebfd765d80a" target="_top" xlink:title=" ">
<ellipse fill="white" stroke="#666666" cx="666.56" cy="-165.81" rx="210.19" ry="25.81"/>
<text xml:space="preserve" text-anchor="start" x="525.94" y="-168.66" font-family="Helvetica,sans-Serif" font-size="12.00">com.runehive.game.world.entity.mob.player.relations.</text>
<text xml:space="preserve" text-anchor="middle" x="666.56" y="-154.41" font-family="Helvetica,sans-Serif" font-size="12.00">PlayerRelation.deleteIgnore</text>
</a>
</g>
</g>
<!-- Node7&#45;&gt;Node11 -->
<g id="edge11_Node000007_Node000011" class="edge">
<title>Node7&#45;&gt;Node11</title>
<g id="a_edge11_Node000007_Node000011"><a xlink:title=" ">
<path fill="none" stroke="#63b8ff" d="M983.1,-217.2C923.25,-207.45 853.71,-196.13 795.17,-186.59"/>
<polygon fill="#63b8ff" stroke="#63b8ff" points="982.23,-220.6 992.67,-218.76 983.36,-213.69 982.23,-220.6"/>
</a>
</g>
</g>
</g>
</svg>

<g id="navigator" transform="translate(0 0)" fill="#404254">
  <rect fill="#f2f5e9" fill-opacity="0.5" stroke="#606060" stroke-width=".5" x="0" y="0" width="60" height="60"/>
  <use id="zoomplus" xlink:href="#zoomPlus" x="17" y="9" onmousedown="handleZoom(evt,'in')"/>
  <use id="zoomminus" xlink:href="#zoomMin" x="42" y="9" onmousedown="handleZoom(evt,'out')"/>
  <use id="reset" xlink:href="#resetDef" x="30" y="36" onmousedown="handleReset()"/>
   <use id="arrowup" xlink:href="#arrowUp" x="0" y="0" onmousedown="handlePan(0,-1)"/>
  <use id="arrowright" xlink:href="#arrowRight" x="0" y="0" onmousedown="handlePan(1,0)"/>
  <use id="arrowdown" xlink:href="#arrowDown" x="0" y="0" onmousedown="handlePan(0,1)"/>
  <use id="arrowleft" xlink:href="#arrowLeft" x="0" y="0" onmousedown="handlePan(-1,0)"/>
</g>
<svg viewBox="0 0 15 15" width="100%" height="30px" preserveAspectRatio="xMaxYMin meet">
 <g id="arrow_out" transform="scale(0.3 0.3)">
  <a xlink:href="classcom_1_1runehive_1_1game_1_1world_1_1entity_1_1mob_1_1player_1_1relations_1_1_player_relation_ae8d6d42e3337efca9007ea05aab428de_icgraph_org.svg" target="_base">
   <rect id="button" ry="5" rx="5" y="6" x="6" height="38" width="38"
        fill="#f2f5e9" fill-opacity="0.5" stroke="#606060" stroke-width="1.0"/>
   <path id="arrow"
     d="M 11.500037,31.436501 C 11.940474,20.09759 22.043105,11.32322 32.158766,21.979434 L 37.068811,17.246167 C 37.068811,17.246167 37.088388,32 37.088388,32 L 22.160133,31.978069 C 22.160133,31.978069 26.997745,27.140456 26.997745,27.140456 C 18.528582,18.264221 13.291696,25.230495 11.500037,31.436501 z"
     style="fill:#404040;"/>
  </a>
 </g>
</svg>

<style type='text/css'>
<![CDATA[
[data-mouse-over-selected='false'] { opacity: 0.7; }
[data-mouse-over-selected='true']  { opacity: 1.0; }
]]>
</style>
<script type="application/ecmascript"><![CDATA[
document.addEventListener('DOMContentLoaded', (event) => {
  highlightEdges();
  highlightAdjacentNodes();
});
]]></script>
</svg>
