<?xml version="1.0" encoding="UTF-8" standalone="no"?>
<!DOCTYPE svg PUBLIC "-//W3C//DTD SVG 1.1//EN"
 "http://www.w3.org/Graphics/SVG/1.1/DTD/svg11.dtd">
<!-- Generated by graphviz version 14.0.1 (20251006.0113)
 -->
<!-- Title: com.runehive.net.packet.PacketBuilder.writeShort Pages: 1 -->
<!--zoomable 970 -->

<svg id="main" version="1.1" xmlns="http://www.w3.org/2000/svg" xmlns:xlink="http://www.w3.org/1999/xlink" xml:space="preserve" onload="init(evt)">

<style type="text/css"><![CDATA[
.node, .edge {opacity: 0.7;}
.node.selected, .edge.selected {opacity: 1;}
.edge:hover path { stroke: red; }
.edge:hover polygon { stroke: red; fill: red; }
]]></style>

<defs>
  <circle id="rim" cx="0" cy="0" r="7"/>
  <circle id="rim2" cx="0" cy="0" r="3.5"/>
  <g id="zoomPlus">
    <use xlink:href="#rim" fill="#404040"><set attributeName="fill" to="#808080" begin="zoomplus.mouseover" end="zoomplus.mouseout"/></use>
    <path d="M-4,0h8M0,-4v8" fill="none" stroke="white" stroke-width="1.5" pointer-events="none"/>
  </g>
  <g id="zoomMin">
    <use xlink:href="#rim" fill="#404040"><set attributeName="fill" to="#808080" begin="zoomminus.mouseover" end="zoomminus.mouseout"/></use>
    <path d="M-4,0h8" fill="none" stroke="white" stroke-width="1.5" pointer-events="none"/>
  </g>
  <g id="arrowUp" transform="translate(30 24)">
    <use xlink:href="#rim"/>
    <path pointer-events="none" fill="none" stroke="white" stroke-width="1.5" d="M0,-3.0v7 M-2.5,-0.5L0,-3.0L2.5,-0.5"/>
  </g>
  <g id="arrowRight" transform="rotate(90) translate(36 -43)">
    <use xlink:href="#rim"/>
    <path pointer-events="none" fill="none" stroke="white" stroke-width="1.5" d="M0,-3.0v7 M-2.5,-0.5L0,-3.0L2.5,-0.5"/>
  </g>
  <g id="arrowDown" transform="rotate(180) translate(-30 -48)">
    <use xlink:href="#rim"/>
    <path pointer-events="none" fill="none" stroke="white" stroke-width="1.5" d="M0,-3.0v7 M-2.5,-0.5L0,-3.0L2.5,-0.5"/>
  </g>
  <g id="arrowLeft" transform="rotate(270) translate(-36 17)">
    <use xlink:href="#rim"/>
    <path pointer-events="none" fill="none" stroke="white" stroke-width="1.5" d="M0,-3.0v7 M-2.5,-0.5L0,-3.0L2.5,-0.5"/>
  </g>
  <g id="resetDef">
    <use xlink:href="#rim2" fill="#404040"><set attributeName="fill" to="#808080" begin="reset.mouseover" end="reset.mouseout"/></use>
  </g>
</defs>
<script type="application/ecmascript">
var viewWidth = 1227;
var viewHeight = 970;
var sectionId = 'dynsection-36';
</script>
<script type="application/ecmascript" xlink:href="svg.min.js"/>
<svg id="graph" class="graph">
<g id="viewport">
<title>com.runehive.net.packet.PacketBuilder.writeShort</title>
<!-- Node1 -->
<g id="Node000001" class="node">
<title>Node1</title>
<g id="a_Node000001"><a xlink:title=" ">
<ellipse fill="#999999" stroke="#666666" cx="1113.68" cy="-480.81" rx="105.18" ry="25.81"/>
<text xml:space="preserve" text-anchor="start" x="1047.31" y="-483.66" font-family="Helvetica,sans-Serif" font-size="12.00">com.runehive.net.packet.</text>
<text xml:space="preserve" text-anchor="middle" x="1113.68" y="-469.41" font-family="Helvetica,sans-Serif" font-size="12.00">PacketBuilder.writeShort</text>
</a>
</g>
</g>
<!-- Node1&#45;&gt;Node1 -->
<g id="edge27_Node000001_Node000001" class="edge">
<title>Node1&#45;&gt;Node1</title>
<g id="a_edge27_Node000001_Node000001"><a xlink:title=" ">
<path fill="none" stroke="#63b8ff" d="M1174.25,-513.41C1167.52,-519.95 1147.33,-524.62 1113.68,-524.62 1062.42,-524.62 1042.39,-513.77 1053.6,-502"/>
<polygon fill="#63b8ff" stroke="#63b8ff" points="1177.75,-513.35 1173.83,-503.51 1170.76,-513.65 1177.75,-513.35"/>
</a>
</g>
</g>
<!-- Node2 -->
<g id="Node000002" class="node">
<title>Node2</title>
<g id="a_Node000002"><a xlink:href="classcom_1_1runehive_1_1net_1_1packet_1_1out_1_1_send_npc_update.html#a10bfa5e8e7e201908dc8310030bf3f04" target="_top" xlink:title=" ">
<ellipse fill="white" stroke="#666666" cx="777.16" cy="-935.81" rx="163.52" ry="25.81"/>
<text xml:space="preserve" text-anchor="start" x="669.54" y="-938.66" font-family="Helvetica,sans-Serif" font-size="12.00">com.runehive.net.packet.out.</text>
<text xml:space="preserve" text-anchor="middle" x="777.16" y="-924.41" font-family="Helvetica,sans-Serif" font-size="12.00">SendNpcUpdate.appendAnimationMask</text>
</a>
</g>
</g>
<!-- Node1&#45;&gt;Node2 -->
<g id="edge1_Node000001_Node000002" class="edge">
<title>Node1&#45;&gt;Node2</title>
<g id="a_edge1_Node000001_Node000002"><a xlink:title=" ">
<path fill="none" stroke="#63b8ff" d="M1112.17,-518.26C1108.85,-601.08 1088.56,-800.36 972.5,-900.81 959.67,-911.91 944.53,-920.03 928.47,-925.91"/>
<polygon fill="#63b8ff" stroke="#63b8ff" points="1115.66,-518.54 1112.49,-508.43 1108.66,-518.31 1115.66,-518.54"/>
</a>
</g>
</g>
<!-- Node5 -->
<g id="Node000005" class="node">
<title>Node5</title>
<g id="a_Node000005"><a xlink:href="classcom_1_1runehive_1_1net_1_1packet_1_1out_1_1_send_player_update.html#ab250dec786b6e650bef65dd1a1fca29b" target="_top" xlink:title=" ">
<ellipse fill="white" stroke="#666666" cx="777.16" cy="-585.81" rx="172.53" ry="25.81"/>
<text xml:space="preserve" text-anchor="start" x="663.16" y="-588.66" font-family="Helvetica,sans-Serif" font-size="12.00">com.runehive.net.packet.out.</text>
<text xml:space="preserve" text-anchor="middle" x="777.16" y="-574.41" font-family="Helvetica,sans-Serif" font-size="12.00">SendPlayerUpdate.appendAnimationMask</text>
</a>
</g>
</g>
<!-- Node1&#45;&gt;Node5 -->
<g id="edge4_Node000001_Node000005" class="edge">
<title>Node1&#45;&gt;Node5</title>
<g id="a_edge4_Node000001_Node000005"><a xlink:title=" ">
<path fill="none" stroke="#63b8ff" d="M1062.3,-510.35C1036.25,-524.48 1003.5,-540.52 972.5,-550.81 951.27,-557.86 928.24,-563.59 905.7,-568.22"/>
<polygon fill="#63b8ff" stroke="#63b8ff" points="1063.9,-513.47 1070.97,-505.58 1060.52,-507.33 1063.9,-513.47"/>
</a>
</g>
</g>
<!-- Node8 -->
<g id="Node000008" class="node">
<title>Node8</title>
<g id="a_Node000008"><a xlink:href="classcom_1_1runehive_1_1net_1_1packet_1_1out_1_1_send_player_update.html#a4e86a52fc78467e149164e05ffc566e5" target="_top" xlink:title=" ">
<ellipse fill="white" stroke="#666666" cx="777.16" cy="-515.81" rx="180.49" ry="25.81"/>
<text xml:space="preserve" text-anchor="start" x="657.54" y="-518.66" font-family="Helvetica,sans-Serif" font-size="12.00">com.runehive.net.packet.out.</text>
<text xml:space="preserve" text-anchor="middle" x="777.16" y="-504.41" font-family="Helvetica,sans-Serif" font-size="12.00">SendPlayerUpdate.appendAppearanceMask</text>
</a>
</g>
</g>
<!-- Node1&#45;&gt;Node8 -->
<g id="edge7_Node000001_Node000008" class="edge">
<title>Node1&#45;&gt;Node8</title>
<g id="a_edge7_Node000001_Node000008"><a xlink:title=" ">
<path fill="none" stroke="#63b8ff" d="M1005.09,-492.07C979.33,-494.76 951.4,-497.68 924.23,-500.53"/>
<polygon fill="#63b8ff" stroke="#63b8ff" points="1005.29,-495.57 1014.87,-491.04 1004.56,-488.6 1005.29,-495.57"/>
</a>
</g>
</g>
<!-- Node9 -->
<g id="Node000009" class="node">
<title>Node9</title>
<g id="a_Node000009"><a xlink:href="classcom_1_1runehive_1_1net_1_1packet_1_1out_1_1_send_player_update.html#a645b16e98de8c36f8b72e00c557a4a27" target="_top" xlink:title=" ">
<ellipse fill="white" stroke="#666666" cx="777.16" cy="-445.81" rx="152.38" ry="25.81"/>
<text xml:space="preserve" text-anchor="start" x="677.41" y="-448.66" font-family="Helvetica,sans-Serif" font-size="12.00">com.runehive.net.packet.out.</text>
<text xml:space="preserve" text-anchor="middle" x="777.16" y="-434.41" font-family="Helvetica,sans-Serif" font-size="12.00">SendPlayerUpdate.appendChatMask</text>
</a>
</g>
</g>
<!-- Node1&#45;&gt;Node9 -->
<g id="edge9_Node000001_Node000009" class="edge">
<title>Node1&#45;&gt;Node9</title>
<g id="a_edge9_Node000001_Node000009"><a xlink:title=" ">
<path fill="none" stroke="#63b8ff" d="M1005.13,-469.56C974.2,-466.32 940.13,-462.76 908.01,-459.4"/>
<polygon fill="#63b8ff" stroke="#63b8ff" points="1004.56,-473.02 1014.87,-470.58 1005.29,-466.05 1004.56,-473.02"/>
</a>
</g>
</g>
<!-- Node10 -->
<g id="Node000010" class="node">
<title>Node10</title>
<g id="a_Node000010"><a xlink:href="classcom_1_1runehive_1_1net_1_1packet_1_1out_1_1_send_npc_update.html#a4219b4030bb2e930b0700e0518d7a42f" target="_top" xlink:title=" ">
<ellipse fill="white" stroke="#666666" cx="777.16" cy="-865.81" rx="186.32" ry="25.81"/>
<text xml:space="preserve" text-anchor="start" x="653.41" y="-868.66" font-family="Helvetica,sans-Serif" font-size="12.00">com.runehive.net.packet.out.</text>
<text xml:space="preserve" text-anchor="middle" x="777.16" y="-854.41" font-family="Helvetica,sans-Serif" font-size="12.00">SendNpcUpdate.appendFaceCoordinateMask</text>
</a>
</g>
</g>
<!-- Node1&#45;&gt;Node10 -->
<g id="edge11_Node000001_Node000010" class="edge">
<title>Node1&#45;&gt;Node10</title>
<g id="a_edge11_Node000001_Node000010"><a xlink:title=" ">
<path fill="none" stroke="#63b8ff" d="M1109.34,-518.12C1100.73,-590.63 1071.02,-750.49 972.5,-830.81 961.61,-839.69 949.22,-846.63 936.09,-852.01"/>
<polygon fill="#63b8ff" stroke="#63b8ff" points="1112.8,-518.68 1110.42,-508.36 1105.84,-517.91 1112.8,-518.68"/>
</a>
</g>
</g>
<!-- Node11 -->
<g id="Node000011" class="node">
<title>Node11</title>
<g id="a_Node000011"><a xlink:href="classcom_1_1runehive_1_1net_1_1packet_1_1out_1_1_send_player_update.html#a1df0d14ee5113a6dcefa864aedf71220" target="_top" xlink:title=" ">
<ellipse fill="white" stroke="#666666" cx="777.16" cy="-375.81" rx="190.57" ry="25.81"/>
<text xml:space="preserve" text-anchor="start" x="650.41" y="-378.66" font-family="Helvetica,sans-Serif" font-size="12.00">com.runehive.net.packet.out.</text>
<text xml:space="preserve" text-anchor="middle" x="777.16" y="-364.41" font-family="Helvetica,sans-Serif" font-size="12.00">SendPlayerUpdate.appendFaceCoordinteMask</text>
</a>
</g>
</g>
<!-- Node1&#45;&gt;Node11 -->
<g id="edge13_Node000001_Node000011" class="edge">
<title>Node1&#45;&gt;Node11</title>
<g id="a_edge13_Node000001_Node000011"><a xlink:title=" ">
<path fill="none" stroke="#63b8ff" d="M1062.3,-451.27C1036.25,-437.14 1003.5,-421.1 972.5,-410.81 952.98,-404.33 931.93,-398.96 911.15,-394.54"/>
<polygon fill="#63b8ff" stroke="#63b8ff" points="1060.52,-454.28 1070.97,-456.04 1063.9,-448.15 1060.52,-454.28"/>
</a>
</g>
</g>
<!-- Node12 -->
<g id="Node000012" class="node">
<title>Node12</title>
<g id="a_Node000012"><a xlink:href="classcom_1_1runehive_1_1net_1_1packet_1_1out_1_1_send_npc_update.html#ab0ae1433af8045fb5ebc34524fe395e1" target="_top" xlink:title=" ">
<ellipse fill="white" stroke="#666666" cx="777.16" cy="-795.81" rx="165.64" ry="25.81"/>
<text xml:space="preserve" text-anchor="start" x="668.04" y="-798.66" font-family="Helvetica,sans-Serif" font-size="12.00">com.runehive.net.packet.out.</text>
<text xml:space="preserve" text-anchor="middle" x="777.16" y="-784.41" font-family="Helvetica,sans-Serif" font-size="12.00">SendNpcUpdate.appendFaceEntityMask</text>
</a>
</g>
</g>
<!-- Node1&#45;&gt;Node12 -->
<g id="edge15_Node000001_Node000012" class="edge">
<title>Node1&#45;&gt;Node12</title>
<g id="a_edge15_Node000001_Node000012"><a xlink:title=" ">
<path fill="none" stroke="#63b8ff" d="M1105.24,-518.1C1090.97,-579.25 1053.67,-700.07 972.5,-760.81 958.64,-771.18 942.68,-778.82 926,-784.41"/>
<polygon fill="#63b8ff" stroke="#63b8ff" points="1108.61,-519.06 1107.39,-508.53 1101.78,-517.52 1108.61,-519.06"/>
</a>
</g>
</g>
<!-- Node13 -->
<g id="Node000013" class="node">
<title>Node13</title>
<g id="a_Node000013"><a xlink:href="classcom_1_1runehive_1_1net_1_1packet_1_1out_1_1_send_player_update.html#a40060bd59b0554851b915b7530b8ff11" target="_top" xlink:title=" ">
<ellipse fill="white" stroke="#666666" cx="777.16" cy="-305.81" rx="174.66" ry="25.81"/>
<text xml:space="preserve" text-anchor="start" x="661.66" y="-308.66" font-family="Helvetica,sans-Serif" font-size="12.00">com.runehive.net.packet.out.</text>
<text xml:space="preserve" text-anchor="middle" x="777.16" y="-294.41" font-family="Helvetica,sans-Serif" font-size="12.00">SendPlayerUpdate.appendFaceEntityMask</text>
</a>
</g>
</g>
<!-- Node1&#45;&gt;Node13 -->
<g id="edge17_Node000001_Node000013" class="edge">
<title>Node1&#45;&gt;Node13</title>
<g id="a_edge17_Node000001_Node000013"><a xlink:title=" ">
<path fill="none" stroke="#63b8ff" d="M1088.24,-446.4C1063.09,-413.76 1020.85,-366.07 972.5,-340.81 956.24,-332.32 938.3,-325.84 920.07,-320.92"/>
<polygon fill="#63b8ff" stroke="#63b8ff" points="1085.14,-448.1 1093.96,-453.96 1090.72,-443.88 1085.14,-448.1"/>
</a>
</g>
</g>
<!-- Node14 -->
<g id="Node000014" class="node">
<title>Node14</title>
<g id="a_Node000014"><a xlink:href="classcom_1_1runehive_1_1net_1_1packet_1_1out_1_1_send_player_update.html#a6971246161945584910d7c38a9fa364e" target="_top" xlink:title=" ">
<ellipse fill="white" stroke="#666666" cx="777.16" cy="-235.81" rx="195.34" ry="25.81"/>
<text xml:space="preserve" text-anchor="start" x="647.04" y="-238.66" font-family="Helvetica,sans-Serif" font-size="12.00">com.runehive.net.packet.out.</text>
<text xml:space="preserve" text-anchor="middle" x="777.16" y="-224.41" font-family="Helvetica,sans-Serif" font-size="12.00">SendPlayerUpdate.appendForceMovementMask</text>
</a>
</g>
</g>
<!-- Node1&#45;&gt;Node14 -->
<g id="edge19_Node000001_Node000014" class="edge">
<title>Node1&#45;&gt;Node14</title>
<g id="a_edge19_Node000001_Node000014"><a xlink:title=" ">
<path fill="none" stroke="#63b8ff" d="M1099.01,-444.33C1078.99,-396.32 1036.95,-313.05 972.5,-270.81 960.31,-262.82 946.82,-256.52 932.78,-251.57"/>
<polygon fill="#63b8ff" stroke="#63b8ff" points="1095.71,-445.52 1102.71,-453.48 1102.2,-442.89 1095.71,-445.52"/>
</a>
</g>
</g>
<!-- Node15 -->
<g id="Node000015" class="node">
<title>Node15</title>
<g id="a_Node000015"><a xlink:href="classcom_1_1runehive_1_1net_1_1packet_1_1out_1_1_send_npc_update.html#a344acdf5b4e8a84d0295af4db3de2b53" target="_top" xlink:title=" ">
<ellipse fill="white" stroke="#666666" cx="777.16" cy="-725.81" rx="138.06" ry="25.81"/>
<text xml:space="preserve" text-anchor="start" x="687.54" y="-728.66" font-family="Helvetica,sans-Serif" font-size="12.00">com.runehive.net.packet.out.</text>
<text xml:space="preserve" text-anchor="middle" x="777.16" y="-714.41" font-family="Helvetica,sans-Serif" font-size="12.00">SendNpcUpdate.appendGfxMask</text>
</a>
</g>
</g>
<!-- Node1&#45;&gt;Node15 -->
<g id="edge21_Node000001_Node000015" class="edge">
<title>Node1&#45;&gt;Node15</title>
<g id="a_edge21_Node000001_Node000015"><a xlink:title=" ">
<path fill="none" stroke="#63b8ff" d="M1099.01,-517.28C1078.99,-565.3 1036.95,-648.56 972.5,-690.81 953.29,-703.4 930.82,-711.8 908.12,-717.34"/>
<polygon fill="#63b8ff" stroke="#63b8ff" points="1102.2,-518.73 1102.71,-508.14 1095.71,-516.09 1102.2,-518.73"/>
</a>
</g>
</g>
<!-- Node16 -->
<g id="Node000016" class="node">
<title>Node16</title>
<g id="a_Node000016"><a xlink:href="classcom_1_1runehive_1_1net_1_1packet_1_1out_1_1_send_player_update.html#a0b2ff6d84d160c594cd2c8ee67c8863b" target="_top" xlink:title=" ">
<ellipse fill="white" stroke="#666666" cx="777.16" cy="-165.81" rx="164.05" ry="25.81"/>
<text xml:space="preserve" text-anchor="start" x="669.16" y="-168.66" font-family="Helvetica,sans-Serif" font-size="12.00">com.runehive.net.packet.out.</text>
<text xml:space="preserve" text-anchor="middle" x="777.16" y="-154.41" font-family="Helvetica,sans-Serif" font-size="12.00">SendPlayerUpdate.appendGraphicMask</text>
</a>
</g>
</g>
<!-- Node1&#45;&gt;Node16 -->
<g id="edge23_Node000001_Node000016" class="edge">
<title>Node1&#45;&gt;Node16</title>
<g id="a_edge23_Node000001_Node000016"><a xlink:title=" ">
<path fill="none" stroke="#63b8ff" d="M1105.24,-443.52C1090.97,-382.37 1053.67,-261.55 972.5,-200.81 958.5,-190.33 942.37,-182.64 925.51,-177.04"/>
<polygon fill="#63b8ff" stroke="#63b8ff" points="1101.78,-444.09 1107.39,-453.09 1108.61,-442.56 1101.78,-444.09"/>
</a>
</g>
</g>
<!-- Node17 -->
<g id="Node000017" class="node">
<title>Node17</title>
<g id="a_Node000017"><a xlink:href="classcom_1_1runehive_1_1net_1_1packet_1_1out_1_1_send_npc_update.html#a241ee8b47f7fa10dad9ed154a5c6a0ac" target="_top" xlink:title=" ">
<ellipse fill="white" stroke="#666666" cx="777.16" cy="-655.81" rx="181.55" ry="25.81"/>
<text xml:space="preserve" text-anchor="start" x="656.79" y="-658.66" font-family="Helvetica,sans-Serif" font-size="12.00">com.runehive.net.packet.out.</text>
<text xml:space="preserve" text-anchor="middle" x="777.16" y="-644.41" font-family="Helvetica,sans-Serif" font-size="12.00">SendNpcUpdate.appendTransformationMask</text>
</a>
</g>
</g>
<!-- Node1&#45;&gt;Node17 -->
<g id="edge25_Node000001_Node000017" class="edge">
<title>Node1&#45;&gt;Node17</title>
<g id="a_edge25_Node000001_Node000017"><a xlink:title=" ">
<path fill="none" stroke="#63b8ff" d="M1088.24,-515.22C1063.09,-547.86 1020.85,-595.55 972.5,-620.81 957,-628.91 939.97,-635.17 922.62,-640"/>
<polygon fill="#63b8ff" stroke="#63b8ff" points="1090.72,-517.74 1093.96,-507.65 1085.14,-513.52 1090.72,-517.74"/>
</a>
</g>
</g>
<!-- Node18 -->
<g id="Node000018" class="node">
<title>Node18</title>
<g id="a_Node000018"><a xlink:href="classcom_1_1runehive_1_1net_1_1packet_1_1_packet_builder.html#a39dce60ac810897dab6aac22880e4e2a" target="_top" xlink:title=" ">
<ellipse fill="white" stroke="#666666" cx="777.16" cy="-95.81" rx="105.18" ry="25.81"/>
<text xml:space="preserve" text-anchor="start" x="710.79" y="-98.66" font-family="Helvetica,sans-Serif" font-size="12.00">com.runehive.net.packet.</text>
<text xml:space="preserve" text-anchor="middle" x="777.16" y="-84.41" font-family="Helvetica,sans-Serif" font-size="12.00">PacketBuilder.writeShort</text>
</a>
</g>
</g>
<!-- Node1&#45;&gt;Node18 -->
<g id="edge28_Node000001_Node000018" class="edge">
<title>Node1&#45;&gt;Node18</title>
<g id="a_edge28_Node000001_Node000018"><a xlink:title=" ">
<path fill="none" stroke="#63b8ff" d="M1109.34,-443.5C1100.73,-370.99 1071.02,-211.13 972.5,-130.81 947.39,-110.34 914.34,-100.21 882.63,-95.58"/>
<polygon fill="#63b8ff" stroke="#63b8ff" points="1105.84,-443.71 1110.42,-453.26 1112.8,-442.94 1105.84,-443.71"/>
</a>
</g>
</g>
<!-- Node19 -->
<g id="Node000019" class="node">
<title>Node19</title>
<g id="a_Node000019"><a xlink:href="classcom_1_1runehive_1_1net_1_1packet_1_1_packet_builder.html#a6ad28a8498875276df76348427a94d92" target="_top" xlink:title=" ">
<ellipse fill="white" stroke="#666666" cx="777.16" cy="-25.81" rx="105.18" ry="25.81"/>
<text xml:space="preserve" text-anchor="start" x="710.79" y="-28.66" font-family="Helvetica,sans-Serif" font-size="12.00">com.runehive.net.packet.</text>
<text xml:space="preserve" text-anchor="middle" x="777.16" y="-14.41" font-family="Helvetica,sans-Serif" font-size="12.00">PacketBuilder.writeShort</text>
</a>
</g>
</g>
<!-- Node1&#45;&gt;Node19 -->
<g id="edge29_Node000001_Node000019" class="edge">
<title>Node1&#45;&gt;Node19</title>
<g id="a_edge29_Node000001_Node000019"><a xlink:title=" ">
<path fill="none" stroke="#63b8ff" d="M1112.17,-443.35C1108.85,-360.54 1088.56,-161.26 972.5,-60.81 947.81,-39.44 914.59,-29.13 882.6,-24.6"/>
<polygon fill="#63b8ff" stroke="#63b8ff" points="1108.66,-443.31 1112.49,-453.19 1115.66,-443.08 1108.66,-443.31"/>
</a>
</g>
</g>
<!-- Node3 -->
<g id="Node000003" class="node">
<title>Node3</title>
<g id="a_Node000003"><a xlink:href="classcom_1_1runehive_1_1net_1_1packet_1_1out_1_1_send_npc_update.html#a8850ec867fdb5f869653d9daafd992a4" target="_top" xlink:title=" ">
<ellipse fill="white" stroke="#666666" cx="409.88" cy="-795.81" rx="118.97" ry="25.81"/>
<text xml:space="preserve" text-anchor="start" x="333.76" y="-798.66" font-family="Helvetica,sans-Serif" font-size="12.00">com.runehive.net.packet.out.</text>
<text xml:space="preserve" text-anchor="middle" x="409.88" y="-784.41" font-family="Helvetica,sans-Serif" font-size="12.00">SendNpcUpdate.updateNpc</text>
</a>
</g>
</g>
<!-- Node2&#45;&gt;Node3 -->
<g id="edge2_Node000002_Node000003" class="edge">
<title>Node2&#45;&gt;Node3</title>
<g id="a_edge2_Node000002_Node000003"><a xlink:title=" ">
<path fill="none" stroke="#63b8ff" d="M636.77,-917.23C618,-912.85 599.23,-907.45 581.82,-900.81 529.92,-881.01 476.34,-845.12 443.31,-820.88"/>
<polygon fill="#63b8ff" stroke="#63b8ff" points="635.82,-920.61 646.34,-919.37 637.34,-913.77 635.82,-920.61"/>
</a>
</g>
</g>
<!-- Node4 -->
<g id="Node000004" class="node">
<title>Node4</title>
<g id="a_Node000004"><a xlink:href="classcom_1_1runehive_1_1net_1_1packet_1_1out_1_1_send_npc_update.html#ae3390bd5532a4bb508d0fc0af5b12f6f" target="_top" xlink:title=" ">
<ellipse fill="white" stroke="#666666" cx="118.97" cy="-795.81" rx="118.97" ry="25.81"/>
<text xml:space="preserve" text-anchor="start" x="42.85" y="-798.66" font-family="Helvetica,sans-Serif" font-size="12.00">com.runehive.net.packet.out.</text>
<text xml:space="preserve" text-anchor="middle" x="118.97" y="-784.41" font-family="Helvetica,sans-Serif" font-size="12.00">SendNpcUpdate.encode</text>
</a>
</g>
</g>
<!-- Node3&#45;&gt;Node4 -->
<g id="edge3_Node000003_Node000004" class="edge">
<title>Node3&#45;&gt;Node4</title>
<g id="a_edge3_Node000003_Node000004"><a xlink:title=" ">
<path fill="none" stroke="#63b8ff" d="M279.12,-795.81C265.47,-795.81 251.64,-795.81 238.13,-795.81"/>
<polygon fill="#63b8ff" stroke="#63b8ff" points="279.02,-799.31 289.02,-795.81 279.02,-792.31 279.02,-799.31"/>
</a>
</g>
</g>
<!-- Node6 -->
<g id="Node000006" class="node">
<title>Node6</title>
<g id="a_Node000006"><a xlink:href="classcom_1_1runehive_1_1net_1_1packet_1_1out_1_1_send_player_update.html#abb05af4abf1f9dd9f5ec208562dae4b1" target="_top" xlink:title=" ">
<ellipse fill="white" stroke="#666666" cx="409.88" cy="-375.81" rx="135.94" ry="25.81"/>
<text xml:space="preserve" text-anchor="start" x="321.76" y="-378.66" font-family="Helvetica,sans-Serif" font-size="12.00">com.runehive.net.packet.out.</text>
<text xml:space="preserve" text-anchor="middle" x="409.88" y="-364.41" font-family="Helvetica,sans-Serif" font-size="12.00">SendPlayerUpdate.updatePlayer</text>
</a>
</g>
</g>
<!-- Node5&#45;&gt;Node6 -->
<g id="edge5_Node000005_Node000006" class="edge">
<title>Node5&#45;&gt;Node6</title>
<g id="a_edge5_Node000005_Node000006"><a xlink:title=" ">
<path fill="none" stroke="#63b8ff" d="M623.73,-567.86C609.14,-563.36 594.92,-557.76 581.82,-550.81 513.35,-514.49 455.63,-441.02 428.13,-401.82"/>
<polygon fill="#63b8ff" stroke="#63b8ff" points="622.38,-571.12 632.96,-570.54 624.32,-564.39 622.38,-571.12"/>
</a>
</g>
</g>
<!-- Node7 -->
<g id="Node000007" class="node">
<title>Node7</title>
<g id="a_Node000007"><a xlink:href="classcom_1_1runehive_1_1net_1_1packet_1_1out_1_1_send_player_update.html#a7fc41a75d429e69ba854c5ad60365976" target="_top" xlink:title=" ">
<ellipse fill="white" stroke="#666666" cx="118.97" cy="-375.81" rx="118.97" ry="25.81"/>
<text xml:space="preserve" text-anchor="start" x="42.85" y="-378.66" font-family="Helvetica,sans-Serif" font-size="12.00">com.runehive.net.packet.out.</text>
<text xml:space="preserve" text-anchor="middle" x="118.97" y="-364.41" font-family="Helvetica,sans-Serif" font-size="12.00">SendPlayerUpdate.encode</text>
</a>
</g>
</g>
<!-- Node6&#45;&gt;Node7 -->
<g id="edge6_Node000006_Node000007" class="edge">
<title>Node6&#45;&gt;Node7</title>
<g id="a_edge6_Node000006_Node000007"><a xlink:title=" ">
<path fill="none" stroke="#63b8ff" d="M262.29,-375.81C254.19,-375.81 246.1,-375.81 238.12,-375.81"/>
<polygon fill="#63b8ff" stroke="#63b8ff" points="262.22,-379.31 272.22,-375.81 262.22,-372.31 262.22,-379.31"/>
</a>
</g>
</g>
<!-- Node8&#45;&gt;Node6 -->
<g id="edge8_Node000008_Node000006" class="edge">
<title>Node8&#45;&gt;Node6</title>
<g id="a_edge8_Node000008_Node000006"><a xlink:title=" ">
<path fill="none" stroke="#63b8ff" d="M630.83,-495.81C614.05,-491.7 597.39,-486.75 581.82,-480.81 530.08,-461.07 476.67,-425.34 443.63,-401.11"/>
<polygon fill="#63b8ff" stroke="#63b8ff" points="629.86,-499.18 640.39,-498.05 631.45,-492.36 629.86,-499.18"/>
</a>
</g>
</g>
<!-- Node9&#45;&gt;Node6 -->
<g id="edge10_Node000009_Node000006" class="edge">
<title>Node9&#45;&gt;Node6</title>
<g id="a_edge10_Node000009_Node000006"><a xlink:title=" ">
<path fill="none" stroke="#63b8ff" d="M658.74,-425.13C633.36,-420.53 606.68,-415.59 581.82,-410.81 556.09,-405.86 528.23,-400.26 502.62,-395.01"/>
<polygon fill="#63b8ff" stroke="#63b8ff" points="657.97,-428.54 668.43,-426.88 659.21,-421.65 657.97,-428.54"/>
</a>
</g>
</g>
<!-- Node10&#45;&gt;Node3 -->
<g id="edge12_Node000010_Node000003" class="edge">
<title>Node10&#45;&gt;Node3</title>
<g id="a_edge12_Node000010_Node000003"><a xlink:title=" ">
<path fill="none" stroke="#63b8ff" d="M648.71,-843.3C626.4,-839.24 603.42,-834.97 581.82,-830.81 554.16,-825.49 524.03,-819.41 496.89,-813.83"/>
<polygon fill="#63b8ff" stroke="#63b8ff" points="648,-846.73 658.47,-845.08 649.25,-839.84 648,-846.73"/>
</a>
</g>
</g>
<!-- Node11&#45;&gt;Node6 -->
<g id="edge14_Node000011_Node000006" class="edge">
<title>Node11&#45;&gt;Node6</title>
<g id="a_edge14_Node000011_Node000006"><a xlink:title=" ">
<path fill="none" stroke="#63b8ff" d="M574.9,-375.81C565.21,-375.81 555.59,-375.81 546.15,-375.81"/>
<polygon fill="#63b8ff" stroke="#63b8ff" points="574.79,-379.31 584.79,-375.81 574.79,-372.31 574.79,-379.31"/>
</a>
</g>
</g>
<!-- Node12&#45;&gt;Node3 -->
<g id="edge16_Node000012_Node000003" class="edge">
<title>Node12&#45;&gt;Node3</title>
<g id="a_edge16_Node000012_Node000003"><a xlink:title=" ">
<path fill="none" stroke="#63b8ff" d="M599.81,-795.81C575.89,-795.81 551.83,-795.81 529.27,-795.81"/>
<polygon fill="#63b8ff" stroke="#63b8ff" points="599.64,-799.31 609.64,-795.81 599.64,-792.31 599.64,-799.31"/>
</a>
</g>
</g>
<!-- Node13&#45;&gt;Node6 -->
<g id="edge18_Node000013_Node000006" class="edge">
<title>Node13&#45;&gt;Node6</title>
<g id="a_edge18_Node000013_Node000006"><a xlink:title=" ">
<path fill="none" stroke="#63b8ff" d="M652.02,-327.71C628.68,-331.96 604.49,-336.45 581.82,-340.81 556.09,-345.76 528.23,-351.36 502.62,-356.61"/>
<polygon fill="#63b8ff" stroke="#63b8ff" points="652.33,-331.21 661.55,-325.98 651.09,-324.33 652.33,-331.21"/>
</a>
</g>
</g>
<!-- Node14&#45;&gt;Node6 -->
<g id="edge20_Node000014_Node000006" class="edge">
<title>Node14&#45;&gt;Node6</title>
<g id="a_edge20_Node000014_Node000006"><a xlink:title=" ">
<path fill="none" stroke="#63b8ff" d="M626.33,-256.93C611.08,-260.82 596,-265.4 581.82,-270.81 530.08,-290.55 476.67,-326.27 443.63,-350.51"/>
<polygon fill="#63b8ff" stroke="#63b8ff" points="627.1,-260.35 635.99,-254.58 625.45,-253.55 627.1,-260.35"/>
</a>
</g>
</g>
<!-- Node15&#45;&gt;Node3 -->
<g id="edge22_Node000015_Node000003" class="edge">
<title>Node15&#45;&gt;Node3</title>
<g id="a_edge22_Node000015_Node000003"><a xlink:title=" ">
<path fill="none" stroke="#63b8ff" d="M663.94,-745.55C637.02,-750.42 608.38,-755.7 581.82,-760.81 554.16,-766.13 524.03,-772.21 496.89,-777.78"/>
<polygon fill="#63b8ff" stroke="#63b8ff" points="664.25,-749.05 673.47,-743.83 663.01,-742.16 664.25,-749.05"/>
</a>
</g>
</g>
<!-- Node16&#45;&gt;Node6 -->
<g id="edge24_Node000016_Node000006" class="edge">
<title>Node16&#45;&gt;Node6</title>
<g id="a_edge24_Node000016_Node000006"><a xlink:title=" ">
<path fill="none" stroke="#63b8ff" d="M626.83,-182.81C611.16,-187.48 595.85,-193.37 581.82,-200.81 513.35,-237.13 455.63,-310.6 428.13,-349.8"/>
<polygon fill="#63b8ff" stroke="#63b8ff" points="627.58,-186.24 636.27,-180.18 625.7,-179.5 627.58,-186.24"/>
</a>
</g>
</g>
<!-- Node17&#45;&gt;Node3 -->
<g id="edge26_Node000017_Node000003" class="edge">
<title>Node17&#45;&gt;Node3</title>
<g id="a_edge26_Node000017_Node000003"><a xlink:title=" ">
<path fill="none" stroke="#63b8ff" d="M630.62,-675.86C613.91,-679.97 597.33,-684.89 581.82,-690.81 529.92,-710.61 476.34,-746.5 443.31,-770.74"/>
<polygon fill="#63b8ff" stroke="#63b8ff" points="631.2,-679.32 640.13,-673.63 629.6,-672.51 631.2,-679.32"/>
</a>
</g>
</g>
</g>
</svg>

<g id="navigator" transform="translate(0 0)" fill="#404254">
  <rect fill="#f2f5e9" fill-opacity="0.5" stroke="#606060" stroke-width=".5" x="0" y="0" width="60" height="60"/>
  <use id="zoomplus" xlink:href="#zoomPlus" x="17" y="9" onmousedown="handleZoom(evt,'in')"/>
  <use id="zoomminus" xlink:href="#zoomMin" x="42" y="9" onmousedown="handleZoom(evt,'out')"/>
  <use id="reset" xlink:href="#resetDef" x="30" y="36" onmousedown="handleReset()"/>
   <use id="arrowup" xlink:href="#arrowUp" x="0" y="0" onmousedown="handlePan(0,-1)"/>
  <use id="arrowright" xlink:href="#arrowRight" x="0" y="0" onmousedown="handlePan(1,0)"/>
  <use id="arrowdown" xlink:href="#arrowDown" x="0" y="0" onmousedown="handlePan(0,1)"/>
  <use id="arrowleft" xlink:href="#arrowLeft" x="0" y="0" onmousedown="handlePan(-1,0)"/>
</g>
<svg viewBox="0 0 15 15" width="100%" height="30px" preserveAspectRatio="xMaxYMin meet">
 <g id="arrow_out" transform="scale(0.3 0.3)">
  <a xlink:href="classcom_1_1runehive_1_1net_1_1packet_1_1_packet_builder_a36a45a2510ac69465a50144a755a926b_icgraph_org.svg" target="_base">
   <rect id="button" ry="5" rx="5" y="6" x="6" height="38" width="38"
        fill="#f2f5e9" fill-opacity="0.5" stroke="#606060" stroke-width="1.0"/>
   <path id="arrow"
     d="M 11.500037,31.436501 C 11.940474,20.09759 22.043105,11.32322 32.158766,21.979434 L 37.068811,17.246167 C 37.068811,17.246167 37.088388,32 37.088388,32 L 22.160133,31.978069 C 22.160133,31.978069 26.997745,27.140456 26.997745,27.140456 C 18.528582,18.264221 13.291696,25.230495 11.500037,31.436501 z"
     style="fill:#404040;"/>
  </a>
 </g>
</svg>

<style type='text/css'>
<![CDATA[
[data-mouse-over-selected='false'] { opacity: 0.7; }
[data-mouse-over-selected='true']  { opacity: 1.0; }
]]>
</style>
<script type="application/ecmascript"><![CDATA[
document.addEventListener('DOMContentLoaded', (event) => {
  highlightEdges();
  highlightAdjacentNodes();
});
]]></script>
</svg>
