<?xml version="1.0" encoding="UTF-8" standalone="no"?>
<!DOCTYPE svg PUBLIC "-//W3C//DTD SVG 1.1//EN"
 "http://www.w3.org/Graphics/SVG/1.1/DTD/svg11.dtd">
<!-- Generated by graphviz version 14.0.1 (20251006.0113)
 -->
<!-- Title: com.runehive.content.activity.impl.magearena.MageArena.getAvailablePosition Pages: 1 -->
<svg width="1073pt" height="904pt"
 viewBox="0.00 0.00 1073.00 904.00" xmlns="http://www.w3.org/2000/svg" xmlns:xlink="http://www.w3.org/1999/xlink">
<g id="graph0" class="graph" transform="scale(1 1) rotate(0) translate(4 899.62)">
<title>com.runehive.content.activity.impl.magearena.MageArena.getAvailablePosition</title>
<!-- Node1 -->
<g id="Node000001" class="node">
<title>Node1</title>
<g id="a_Node000001"><a xlink:title="Gets the next best available position.">
<ellipse fill="#999999" stroke="#666666" cx="184.73" cy="-430.81" rx="184.73" ry="25.81"/>
<text xml:space="preserve" text-anchor="start" x="62.11" y="-433.66" font-family="Helvetica,sans-Serif" font-size="12.00">com.runehive.content.activity.impl.magearena.</text>
<text xml:space="preserve" text-anchor="middle" x="184.73" y="-419.41" font-family="Helvetica,sans-Serif" font-size="12.00">MageArena.getAvailablePosition</text>
</a>
</g>
</g>
<!-- Node2 -->
<g id="Node000002" class="node">
<title>Node2</title>
<g id="a_Node000002"><a xlink:href="classcom_1_1runehive_1_1game_1_1world_1_1pathfinding_1_1_traversal_map.html#a76303187f7da53f6fcfac8ba480856ef" target="_top" xlink:title="Tests whether or not a specified position is traversable in the specified direction.">
<ellipse fill="white" stroke="#666666" cx="559.97" cy="-465.81" rx="154.5" ry="25.81"/>
<text xml:space="preserve" text-anchor="start" x="458.72" y="-468.66" font-family="Helvetica,sans-Serif" font-size="12.00">com.runehive.game.world.pathfinding.</text>
<text xml:space="preserve" text-anchor="middle" x="559.97" y="-454.41" font-family="Helvetica,sans-Serif" font-size="12.00">TraversalMap.isTraversable</text>
</a>
</g>
</g>
<!-- Node1&#45;&gt;Node2 -->
<g id="edge1_Node000001_Node000002" class="edge">
<title>Node1&#45;&gt;Node2</title>
<g id="a_edge1_Node000001_Node000002"><a xlink:title=" ">
<path fill="none" stroke="#63b8ff" d="M339.43,-445.22C363.71,-447.5 388.76,-449.85 412.87,-452.11"/>
<polygon fill="#63b8ff" stroke="#63b8ff" points="412.45,-455.59 422.74,-453.03 413.11,-448.62 412.45,-455.59"/>
</a>
</g>
</g>
<!-- Node14 -->
<g id="Node000014" class="node">
<title>Node14</title>
<g id="a_Node000014"><a xlink:href="classcom_1_1runehive_1_1util_1_1_utility.html#a6b7f2d3477a5cc439ea612233a45ce0b" target="_top" xlink:title="Picks a random element out of any array type.">
<ellipse fill="white" stroke="#666666" cx="559.97" cy="-395.81" rx="129.05" ry="25.81"/>
<text xml:space="preserve" text-anchor="start" x="476.72" y="-398.66" font-family="Helvetica,sans-Serif" font-size="12.00">com.runehive.util.Utility.random</text>
<text xml:space="preserve" text-anchor="middle" x="559.97" y="-384.41" font-family="Helvetica,sans-Serif" font-size="12.00">Element</text>
</a>
</g>
</g>
<!-- Node1&#45;&gt;Node14 -->
<g id="edge21_Node000001_Node000014" class="edge">
<title>Node1&#45;&gt;Node14</title>
<g id="a_edge21_Node000001_Node000014"><a xlink:title=" ">
<path fill="none" stroke="#63b8ff" d="M339.43,-416.4C369.89,-413.54 401.57,-410.57 431.07,-407.8"/>
<polygon fill="#63b8ff" stroke="#63b8ff" points="431.12,-411.31 440.75,-406.9 430.47,-404.34 431.12,-411.31"/>
</a>
</g>
</g>
<!-- Node3 -->
<g id="Node000003" class="node">
<title>Node3</title>
<g id="a_Node000003"><a xlink:href="classcom_1_1runehive_1_1game_1_1world_1_1position_1_1_position.html#a2fcda274378da97b14a6c4f7d3b08095" target="_top" xlink:title="Gets the height coordinate, or height.">
<ellipse fill="white" stroke="#666666" cx="907.62" cy="-869.81" rx="142.31" ry="25.81"/>
<text xml:space="preserve" text-anchor="start" x="815" y="-872.66" font-family="Helvetica,sans-Serif" font-size="12.00">com.runehive.game.world.position.</text>
<text xml:space="preserve" text-anchor="middle" x="907.62" y="-858.41" font-family="Helvetica,sans-Serif" font-size="12.00">Position.getHeight</text>
</a>
</g>
</g>
<!-- Node2&#45;&gt;Node3 -->
<g id="edge2_Node000002_Node000003" class="edge">
<title>Node2&#45;&gt;Node3</title>
<g id="a_edge2_Node000002_Node000003"><a xlink:title=" ">
<path fill="none" stroke="#63b8ff" d="M566.29,-491.66C581.68,-559.52 632.84,-743.81 750.47,-834.81 758.95,-841.37 768.42,-846.75 778.4,-851.15"/>
<polygon fill="#63b8ff" stroke="#63b8ff" points="776.96,-854.35 787.54,-854.83 779.57,-847.85 776.96,-854.35"/>
</a>
</g>
</g>
<!-- Node4 -->
<g id="Node000004" class="node">
<title>Node4</title>
<g id="a_Node000004"><a xlink:href="classcom_1_1runehive_1_1game_1_1world_1_1position_1_1_position.html#a7bfa5292d8c3f79100a6bc85ea27b5ea" target="_top" xlink:title="Gets the absolute x coordinate.">
<ellipse fill="white" stroke="#666666" cx="907.62" cy="-799.81" rx="142.31" ry="25.81"/>
<text xml:space="preserve" text-anchor="start" x="815" y="-802.66" font-family="Helvetica,sans-Serif" font-size="12.00">com.runehive.game.world.position.</text>
<text xml:space="preserve" text-anchor="middle" x="907.62" y="-788.41" font-family="Helvetica,sans-Serif" font-size="12.00">Position.getX</text>
</a>
</g>
</g>
<!-- Node2&#45;&gt;Node4 -->
<g id="edge3_Node000002_Node000004" class="edge">
<title>Node2&#45;&gt;Node4</title>
<g id="a_edge3_Node000002_Node000004"><a xlink:title=" ">
<path fill="none" stroke="#63b8ff" d="M569.62,-491.88C590.53,-550.65 649.7,-693.9 750.47,-764.81 759.59,-771.22 769.68,-776.49 780.22,-780.81"/>
<polygon fill="#63b8ff" stroke="#63b8ff" points="778.89,-784.04 789.48,-784.28 781.35,-777.49 778.89,-784.04"/>
</a>
</g>
</g>
<!-- Node5 -->
<g id="Node000005" class="node">
<title>Node5</title>
<g id="a_Node000005"><a xlink:href="classcom_1_1runehive_1_1game_1_1world_1_1position_1_1_position.html#a55498d0fafce9fdeedca16984d79aee5" target="_top" xlink:title="Gets the absolute y coordinate.">
<ellipse fill="white" stroke="#666666" cx="907.62" cy="-729.81" rx="142.31" ry="25.81"/>
<text xml:space="preserve" text-anchor="start" x="815" y="-732.66" font-family="Helvetica,sans-Serif" font-size="12.00">com.runehive.game.world.position.</text>
<text xml:space="preserve" text-anchor="middle" x="907.62" y="-718.41" font-family="Helvetica,sans-Serif" font-size="12.00">Position.getY</text>
</a>
</g>
</g>
<!-- Node2&#45;&gt;Node5 -->
<g id="edge4_Node000002_Node000005" class="edge">
<title>Node2&#45;&gt;Node5</title>
<g id="a_edge4_Node000002_Node000005"><a xlink:title=" ">
<path fill="none" stroke="#63b8ff" d="M574.74,-491.88C601.64,-540.1 666,-643.02 750.47,-694.81 760.62,-701.04 771.76,-706.16 783.26,-710.37"/>
<polygon fill="#63b8ff" stroke="#63b8ff" points="781.88,-713.6 792.47,-713.5 784.13,-706.97 781.88,-713.6"/>
</a>
</g>
</g>
<!-- Node6 -->
<g id="Node000006" class="node">
<title>Node6</title>
<g id="a_Node000006"><a xlink:href="classcom_1_1runehive_1_1game_1_1world_1_1pathfinding_1_1_traversal_map.html#ad7635d8bfcc232240f91a46d8ebb47fc" target="_top" xlink:title="Tests if the specified position can be traversed east.">
<ellipse fill="white" stroke="#666666" cx="907.62" cy="-641.81" rx="154.5" ry="25.81"/>
<text xml:space="preserve" text-anchor="start" x="806.37" y="-644.66" font-family="Helvetica,sans-Serif" font-size="12.00">com.runehive.game.world.pathfinding.</text>
<text xml:space="preserve" text-anchor="middle" x="907.62" y="-630.41" font-family="Helvetica,sans-Serif" font-size="12.00">TraversalMap.isTraversableEast</text>
</a>
</g>
</g>
<!-- Node2&#45;&gt;Node6 -->
<g id="edge5_Node000002_Node000006" class="edge">
<title>Node2&#45;&gt;Node6</title>
<g id="a_edge5_Node000002_Node000006"><a xlink:title=" ">
<path fill="none" stroke="#63b8ff" d="M587.78,-491.61C622.48,-523.55 686.17,-577.32 750.47,-606.81 761.8,-612.01 773.95,-616.46 786.29,-620.26"/>
<polygon fill="#63b8ff" stroke="#63b8ff" points="785.14,-623.57 795.72,-623.02 787.1,-616.85 785.14,-623.57"/>
</a>
</g>
</g>
<!-- Node7 -->
<g id="Node000007" class="node">
<title>Node7</title>
<g id="a_Node000007"><a xlink:href="classcom_1_1runehive_1_1game_1_1world_1_1pathfinding_1_1_traversal_map.html#a0dde08a402da84bf025e94dd634fb873" target="_top" xlink:title="Tests if the specified position can be traversed north.">
<ellipse fill="white" stroke="#666666" cx="907.62" cy="-553.81" rx="154.5" ry="25.81"/>
<text xml:space="preserve" text-anchor="start" x="806.37" y="-556.66" font-family="Helvetica,sans-Serif" font-size="12.00">com.runehive.game.world.pathfinding.</text>
<text xml:space="preserve" text-anchor="middle" x="907.62" y="-542.41" font-family="Helvetica,sans-Serif" font-size="12.00">TraversalMap.isTraversableNorth</text>
</a>
</g>
</g>
<!-- Node2&#45;&gt;Node7 -->
<g id="edge7_Node000002_Node000007" class="edge">
<title>Node2&#45;&gt;Node7</title>
<g id="a_edge7_Node000002_Node000007"><a xlink:title=" ">
<path fill="none" stroke="#63b8ff" d="M638.17,-488.39C672.45,-498.16 713.36,-509.47 750.47,-518.81 766.6,-522.87 783.73,-526.95 800.51,-530.81"/>
<polygon fill="#63b8ff" stroke="#63b8ff" points="799.47,-534.16 810,-532.98 801.03,-527.34 799.47,-534.16"/>
</a>
</g>
</g>
<!-- Node8 -->
<g id="Node000008" class="node">
<title>Node8</title>
<g id="a_Node000008"><a xlink:href="classcom_1_1runehive_1_1game_1_1world_1_1pathfinding_1_1_traversal_map.html#a3a2c5a8604d2ca2d4c6e10e02350236b" target="_top" xlink:title="Tests if the specified position can be traversed north east.">
<ellipse fill="white" stroke="#666666" cx="907.62" cy="-465.81" rx="154.5" ry="25.81"/>
<text xml:space="preserve" text-anchor="start" x="806.37" y="-468.66" font-family="Helvetica,sans-Serif" font-size="12.00">com.runehive.game.world.pathfinding.</text>
<text xml:space="preserve" text-anchor="middle" x="907.62" y="-454.41" font-family="Helvetica,sans-Serif" font-size="12.00">TraversalMap.isTraversableNorthEast</text>
</a>
</g>
</g>
<!-- Node2&#45;&gt;Node8 -->
<g id="edge9_Node000002_Node000008" class="edge">
<title>Node2&#45;&gt;Node8</title>
<g id="a_edge9_Node000002_Node000008"><a xlink:title=" ">
<path fill="none" stroke="#63b8ff" d="M714.84,-465.81C723.71,-465.81 732.64,-465.81 741.55,-465.81"/>
<polygon fill="#63b8ff" stroke="#63b8ff" points="741.3,-469.31 751.3,-465.81 741.3,-462.31 741.3,-469.31"/>
</a>
</g>
</g>
<!-- Node9 -->
<g id="Node000009" class="node">
<title>Node9</title>
<g id="a_Node000009"><a xlink:href="classcom_1_1runehive_1_1game_1_1world_1_1pathfinding_1_1_traversal_map.html#a8b3867c6383548f565979839eb6cffaf" target="_top" xlink:title="Tests if the specified position can be traversed north west.">
<ellipse fill="white" stroke="#666666" cx="907.62" cy="-377.81" rx="155.56" ry="25.81"/>
<text xml:space="preserve" text-anchor="start" x="805.62" y="-380.66" font-family="Helvetica,sans-Serif" font-size="12.00">com.runehive.game.world.pathfinding.</text>
<text xml:space="preserve" text-anchor="middle" x="907.62" y="-366.41" font-family="Helvetica,sans-Serif" font-size="12.00">TraversalMap.isTraversableNorthWest</text>
</a>
</g>
</g>
<!-- Node2&#45;&gt;Node9 -->
<g id="edge11_Node000002_Node000009" class="edge">
<title>Node2&#45;&gt;Node9</title>
<g id="a_edge11_Node000002_Node000009"><a xlink:title=" ">
<path fill="none" stroke="#63b8ff" d="M654.89,-445.1C674.61,-440.55 695.25,-435.65 714.47,-430.81 748.09,-422.35 784.82,-412.39 817.08,-403.41"/>
<polygon fill="#63b8ff" stroke="#63b8ff" points="817.69,-406.87 826.38,-400.81 815.81,-400.13 817.69,-406.87"/>
</a>
</g>
</g>
<!-- Node10 -->
<g id="Node000010" class="node">
<title>Node10</title>
<g id="a_Node000010"><a xlink:href="classcom_1_1runehive_1_1game_1_1world_1_1pathfinding_1_1_traversal_map.html#a59ad6ec2e989356d4ccf28a236e5e1d9" target="_top" xlink:title="Tests if the specified position can be traversed south.">
<ellipse fill="white" stroke="#666666" cx="907.62" cy="-289.81" rx="154.5" ry="25.81"/>
<text xml:space="preserve" text-anchor="start" x="806.37" y="-292.66" font-family="Helvetica,sans-Serif" font-size="12.00">com.runehive.game.world.pathfinding.</text>
<text xml:space="preserve" text-anchor="middle" x="907.62" y="-278.41" font-family="Helvetica,sans-Serif" font-size="12.00">TraversalMap.isTraversableSouth</text>
</a>
</g>
</g>
<!-- Node2&#45;&gt;Node10 -->
<g id="edge13_Node000002_Node000010" class="edge">
<title>Node2&#45;&gt;Node10</title>
<g id="a_edge13_Node000002_Node000010"><a xlink:title=" ">
<path fill="none" stroke="#63b8ff" d="M682.79,-449.89C694.26,-445 705.09,-438.76 714.47,-430.81 746.7,-403.48 719.69,-371.76 750.47,-342.81 763.51,-330.54 779.49,-321.11 796.2,-313.85"/>
<polygon fill="#63b8ff" stroke="#63b8ff" points="797.33,-317.18 805.28,-310.18 794.7,-310.69 797.33,-317.18"/>
</a>
</g>
</g>
<!-- Node11 -->
<g id="Node000011" class="node">
<title>Node11</title>
<g id="a_Node000011"><a xlink:href="classcom_1_1runehive_1_1game_1_1world_1_1pathfinding_1_1_traversal_map.html#a49588ad67798079134529d8e7b4b0afe" target="_top" xlink:title="Tests if the specified position can be traversed south east.">
<ellipse fill="white" stroke="#666666" cx="907.62" cy="-201.81" rx="155.03" ry="25.81"/>
<text xml:space="preserve" text-anchor="start" x="806" y="-204.66" font-family="Helvetica,sans-Serif" font-size="12.00">com.runehive.game.world.pathfinding.</text>
<text xml:space="preserve" text-anchor="middle" x="907.62" y="-190.41" font-family="Helvetica,sans-Serif" font-size="12.00">TraversalMap.isTraversableSouthEast</text>
</a>
</g>
</g>
<!-- Node2&#45;&gt;Node11 -->
<g id="edge15_Node000002_Node000011" class="edge">
<title>Node2&#45;&gt;Node11</title>
<g id="a_edge15_Node000002_Node000011"><a xlink:title=" ">
<path fill="none" stroke="#63b8ff" d="M686.23,-450.71C696.69,-445.63 706.35,-439.12 714.47,-430.81 770.29,-373.72 697.66,-314.69 750.47,-254.81 761.57,-242.22 775.79,-232.61 791.1,-225.28"/>
<polygon fill="#63b8ff" stroke="#63b8ff" points="792.18,-228.64 799.92,-221.4 789.36,-222.23 792.18,-228.64"/>
</a>
</g>
</g>
<!-- Node12 -->
<g id="Node000012" class="node">
<title>Node12</title>
<g id="a_Node000012"><a xlink:href="classcom_1_1runehive_1_1game_1_1world_1_1pathfinding_1_1_traversal_map.html#a385d52f1e5f8854d0ebc665175b972e1" target="_top" xlink:title="Tests if the specified position can be traversed south west.">
<ellipse fill="white" stroke="#666666" cx="907.62" cy="-113.81" rx="157.15" ry="25.81"/>
<text xml:space="preserve" text-anchor="start" x="804.5" y="-116.66" font-family="Helvetica,sans-Serif" font-size="12.00">com.runehive.game.world.pathfinding.</text>
<text xml:space="preserve" text-anchor="middle" x="907.62" y="-102.41" font-family="Helvetica,sans-Serif" font-size="12.00">TraversalMap.isTraversableSouthWest</text>
</a>
</g>
</g>
<!-- Node2&#45;&gt;Node12 -->
<g id="edge17_Node000002_Node000012" class="edge">
<title>Node2&#45;&gt;Node12</title>
<g id="a_edge17_Node000002_Node000012"><a xlink:title=" ">
<path fill="none" stroke="#63b8ff" d="M687.55,-450.9C697.6,-445.75 706.81,-439.18 714.47,-430.81 794.41,-343.45 675.13,-258.17 750.47,-166.81 760.75,-154.34 774.1,-144.79 788.65,-137.48"/>
<polygon fill="#63b8ff" stroke="#63b8ff" points="789.9,-140.76 797.53,-133.4 786.98,-134.4 789.9,-140.76"/>
</a>
</g>
</g>
<!-- Node13 -->
<g id="Node000013" class="node">
<title>Node13</title>
<g id="a_Node000013"><a xlink:href="classcom_1_1runehive_1_1game_1_1world_1_1pathfinding_1_1_traversal_map.html#a9e542e1da297008e9ca79d77f5b4430a" target="_top" xlink:title="Tests if the specified position can be traversed west.">
<ellipse fill="white" stroke="#666666" cx="907.62" cy="-25.81" rx="154.5" ry="25.81"/>
<text xml:space="preserve" text-anchor="start" x="806.37" y="-28.66" font-family="Helvetica,sans-Serif" font-size="12.00">com.runehive.game.world.pathfinding.</text>
<text xml:space="preserve" text-anchor="middle" x="907.62" y="-14.41" font-family="Helvetica,sans-Serif" font-size="12.00">TraversalMap.isTraversableWest</text>
</a>
</g>
</g>
<!-- Node2&#45;&gt;Node13 -->
<g id="edge19_Node000002_Node000013" class="edge">
<title>Node2&#45;&gt;Node13</title>
<g id="a_edge19_Node000002_Node000013"><a xlink:title=" ">
<path fill="none" stroke="#63b8ff" d="M687.84,-451.16C697.84,-445.97 706.95,-439.31 714.47,-430.81 818.67,-313.02 652.47,-201.8 750.47,-78.81 760.54,-66.17 773.77,-56.52 788.27,-49.17"/>
<polygon fill="#63b8ff" stroke="#63b8ff" points="789.51,-52.45 797.12,-45.07 786.57,-46.1 789.51,-52.45"/>
</a>
</g>
</g>
<!-- Node6&#45;&gt;Node6 -->
<g id="edge6_Node000006_Node000006" class="edge">
<title>Node6&#45;&gt;Node6</title>
<g id="a_edge6_Node000006_Node000006"><a xlink:title=" ">
<path fill="none" stroke="#63b8ff" d="M843.46,-665.69C837.35,-676.38 858.73,-685.62 907.62,-685.62 938.94,-685.62 958.98,-681.83 967.72,-676.29"/>
<polygon fill="#63b8ff" stroke="#63b8ff" points="970.93,-677.7 971.25,-667.11 964.4,-675.19 970.93,-677.7"/>
</a>
</g>
</g>
<!-- Node7&#45;&gt;Node7 -->
<g id="edge8_Node000007_Node000007" class="edge">
<title>Node7&#45;&gt;Node7</title>
<g id="a_edge8_Node000007_Node000007"><a xlink:title=" ">
<path fill="none" stroke="#63b8ff" d="M843.46,-577.69C837.35,-588.38 858.73,-597.62 907.62,-597.62 938.94,-597.62 958.98,-593.83 967.72,-588.29"/>
<polygon fill="#63b8ff" stroke="#63b8ff" points="970.93,-589.7 971.25,-579.11 964.4,-587.19 970.93,-589.7"/>
</a>
</g>
</g>
<!-- Node8&#45;&gt;Node8 -->
<g id="edge10_Node000008_Node000008" class="edge">
<title>Node8&#45;&gt;Node8</title>
<g id="a_edge10_Node000008_Node000008"><a xlink:title=" ">
<path fill="none" stroke="#63b8ff" d="M843.46,-489.69C837.35,-500.38 858.73,-509.62 907.62,-509.62 938.94,-509.62 958.98,-505.83 967.72,-500.29"/>
<polygon fill="#63b8ff" stroke="#63b8ff" points="970.93,-501.7 971.25,-491.11 964.4,-499.19 970.93,-501.7"/>
</a>
</g>
</g>
<!-- Node9&#45;&gt;Node9 -->
<g id="edge12_Node000009_Node000009" class="edge">
<title>Node9&#45;&gt;Node9</title>
<g id="a_edge12_Node000009_Node000009"><a xlink:title=" ">
<path fill="none" stroke="#63b8ff" d="M843.46,-401.69C837.35,-412.38 858.73,-421.62 907.62,-421.62 938.94,-421.62 958.98,-417.83 967.72,-412.29"/>
<polygon fill="#63b8ff" stroke="#63b8ff" points="970.93,-413.7 971.25,-403.11 964.4,-411.19 970.93,-413.7"/>
</a>
</g>
</g>
<!-- Node10&#45;&gt;Node10 -->
<g id="edge14_Node000010_Node000010" class="edge">
<title>Node10&#45;&gt;Node10</title>
<g id="a_edge14_Node000010_Node000010"><a xlink:title=" ">
<path fill="none" stroke="#63b8ff" d="M843.46,-313.69C837.35,-324.38 858.73,-333.62 907.62,-333.62 938.94,-333.62 958.98,-329.83 967.72,-324.29"/>
<polygon fill="#63b8ff" stroke="#63b8ff" points="970.93,-325.7 971.25,-315.11 964.4,-323.19 970.93,-325.7"/>
</a>
</g>
</g>
<!-- Node11&#45;&gt;Node11 -->
<g id="edge16_Node000011_Node000011" class="edge">
<title>Node11&#45;&gt;Node11</title>
<g id="a_edge16_Node000011_Node000011"><a xlink:title=" ">
<path fill="none" stroke="#63b8ff" d="M843.46,-225.69C837.35,-236.38 858.73,-245.62 907.62,-245.62 938.94,-245.62 958.98,-241.83 967.72,-236.29"/>
<polygon fill="#63b8ff" stroke="#63b8ff" points="970.93,-237.7 971.25,-227.11 964.4,-235.19 970.93,-237.7"/>
</a>
</g>
</g>
<!-- Node12&#45;&gt;Node12 -->
<g id="edge18_Node000012_Node000012" class="edge">
<title>Node12&#45;&gt;Node12</title>
<g id="a_edge18_Node000012_Node000012"><a xlink:title=" ">
<path fill="none" stroke="#63b8ff" d="M843.46,-137.69C837.35,-148.38 858.73,-157.62 907.62,-157.62 938.94,-157.62 958.98,-153.83 967.72,-148.29"/>
<polygon fill="#63b8ff" stroke="#63b8ff" points="970.93,-149.7 971.25,-139.11 964.4,-147.19 970.93,-149.7"/>
</a>
</g>
</g>
<!-- Node13&#45;&gt;Node13 -->
<g id="edge20_Node000013_Node000013" class="edge">
<title>Node13&#45;&gt;Node13</title>
<g id="a_edge20_Node000013_Node000013"><a xlink:title=" ">
<path fill="none" stroke="#63b8ff" d="M843.46,-49.69C837.35,-60.38 858.73,-69.62 907.62,-69.62 938.94,-69.62 958.98,-65.83 967.72,-60.29"/>
<polygon fill="#63b8ff" stroke="#63b8ff" points="970.93,-61.7 971.25,-51.11 964.4,-59.19 970.93,-61.7"/>
</a>
</g>
</g>
</g>
</svg>
