<?xml version="1.0" encoding="UTF-8" standalone="no"?>
<!DOCTYPE svg PUBLIC "-//W3C//DTD SVG 1.1//EN"
 "http://www.w3.org/Graphics/SVG/1.1/DTD/svg11.dtd">
<!-- Generated by graphviz version 14.0.1 (20251006.0113)
 -->
<!-- Title: com.runehive.game.world.entity.combat.attack.listener.other.PrayerListener.hit Pages: 1 -->
<!--zoomable 288 -->

<svg id="main" version="1.1" xmlns="http://www.w3.org/2000/svg" xmlns:xlink="http://www.w3.org/1999/xlink" xml:space="preserve" onload="init(evt)">

<style type="text/css"><![CDATA[
.node, .edge {opacity: 0.7;}
.node.selected, .edge.selected {opacity: 1;}
.edge:hover path { stroke: red; }
.edge:hover polygon { stroke: red; fill: red; }
]]></style>

<defs>
  <circle id="rim" cx="0" cy="0" r="7"/>
  <circle id="rim2" cx="0" cy="0" r="3.5"/>
  <g id="zoomPlus">
    <use xlink:href="#rim" fill="#404040"><set attributeName="fill" to="#808080" begin="zoomplus.mouseover" end="zoomplus.mouseout"/></use>
    <path d="M-4,0h8M0,-4v8" fill="none" stroke="white" stroke-width="1.5" pointer-events="none"/>
  </g>
  <g id="zoomMin">
    <use xlink:href="#rim" fill="#404040"><set attributeName="fill" to="#808080" begin="zoomminus.mouseover" end="zoomminus.mouseout"/></use>
    <path d="M-4,0h8" fill="none" stroke="white" stroke-width="1.5" pointer-events="none"/>
  </g>
  <g id="arrowUp" transform="translate(30 24)">
    <use xlink:href="#rim"/>
    <path pointer-events="none" fill="none" stroke="white" stroke-width="1.5" d="M0,-3.0v7 M-2.5,-0.5L0,-3.0L2.5,-0.5"/>
  </g>
  <g id="arrowRight" transform="rotate(90) translate(36 -43)">
    <use xlink:href="#rim"/>
    <path pointer-events="none" fill="none" stroke="white" stroke-width="1.5" d="M0,-3.0v7 M-2.5,-0.5L0,-3.0L2.5,-0.5"/>
  </g>
  <g id="arrowDown" transform="rotate(180) translate(-30 -48)">
    <use xlink:href="#rim"/>
    <path pointer-events="none" fill="none" stroke="white" stroke-width="1.5" d="M0,-3.0v7 M-2.5,-0.5L0,-3.0L2.5,-0.5"/>
  </g>
  <g id="arrowLeft" transform="rotate(270) translate(-36 17)">
    <use xlink:href="#rim"/>
    <path pointer-events="none" fill="none" stroke="white" stroke-width="1.5" d="M0,-3.0v7 M-2.5,-0.5L0,-3.0L2.5,-0.5"/>
  </g>
  <g id="resetDef">
    <use xlink:href="#rim2" fill="#404040"><set attributeName="fill" to="#808080" begin="reset.mouseover" end="reset.mouseout"/></use>
  </g>
</defs>
<script type="application/ecmascript">
var viewWidth = 1203;
var viewHeight = 288;
var sectionId = 'dynsection-6';
</script>
<script type="application/ecmascript" xlink:href="svg.min.js"/>
<svg id="graph" class="graph">
<g id="viewport">
<title>com.runehive.game.world.entity.combat.attack.listener.other.PrayerListener.hit</title>
<!-- Node1 -->
<g id="Node000001" class="node">
<title>Node1</title>
<g id="a_Node000001"><a xlink:title=" ">
<ellipse fill="#999999" stroke="#666666" cx="236.17" cy="-139.81" rx="236.17" ry="25.81"/>
<text xml:space="preserve" text-anchor="start" x="77.17" y="-142.66" font-family="Helvetica,sans-Serif" font-size="12.00">com.runehive.game.world.entity.combat.attack.listener.other.</text>
<text xml:space="preserve" text-anchor="middle" x="236.17" y="-128.41" font-family="Helvetica,sans-Serif" font-size="12.00">PrayerListener.hit</text>
</a>
</g>
</g>
<!-- Node1&#45;&gt;Node1 -->
<g id="edge2_Node000001_Node000001" class="edge">
<title>Node1&#45;&gt;Node1</title>
<g id="a_edge2_Node000001_Node000001"><a xlink:title=" ">
<path fill="none" stroke="#63b8ff" d="M153.1,-164.14C146.3,-174.63 173.99,-183.62 236.17,-183.62 276.98,-183.62 302.93,-179.75 314.03,-174.12"/>
<polygon fill="#63b8ff" stroke="#63b8ff" points="317.02,-175.96 318.55,-165.48 310.82,-172.72 317.02,-175.96"/>
</a>
</g>
</g>
<!-- Node2 -->
<g id="Node000002" class="node">
<title>Node2</title>
<g id="a_Node000002"><a xlink:href="classcom_1_1runehive_1_1game_1_1world_1_1entity_1_1skill_1_1_skill_manager.html#a8167146b6fbdc949d0d7950e5e7e3b34" target="_top" xlink:title="Gets the skill for an id.">
<ellipse fill="white" stroke="#666666" cx="684.59" cy="-253.81" rx="149.2" ry="25.81"/>
<text xml:space="preserve" text-anchor="start" x="587.09" y="-256.66" font-family="Helvetica,sans-Serif" font-size="12.00">com.runehive.game.world.entity.skill.</text>
<text xml:space="preserve" text-anchor="middle" x="684.59" y="-242.41" font-family="Helvetica,sans-Serif" font-size="12.00">SkillManager.get</text>
</a>
</g>
</g>
<!-- Node1&#45;&gt;Node2 -->
<g id="edge1_Node000001_Node000002" class="edge">
<title>Node1&#45;&gt;Node2</title>
<g id="a_edge1_Node000001_Node000002"><a xlink:title=" ">
<path fill="none" stroke="#63b8ff" d="M315.3,-164.51C369.22,-181.08 442.74,-202.73 508.35,-218.81 528.27,-223.69 549.59,-228.39 570.26,-232.67"/>
<polygon fill="#63b8ff" stroke="#63b8ff" points="569.35,-236.05 579.85,-234.63 570.75,-229.19 569.35,-236.05"/>
</a>
</g>
</g>
<!-- Node3 -->
<g id="Node000003" class="node">
<title>Node3</title>
<g id="a_Node000003"><a xlink:href="classcom_1_1runehive_1_1game_1_1world_1_1entity_1_1mob_1_1prayer_1_1_prayer_book.html#ab410a6704bdd57b8f722a17f2d874a93" target="_top" xlink:title="Checks if all given prayers are active.">
<ellipse fill="white" stroke="#666666" cx="684.59" cy="-183.81" rx="176.25" ry="25.81"/>
<text xml:space="preserve" text-anchor="start" x="567.97" y="-186.66" font-family="Helvetica,sans-Serif" font-size="12.00">com.runehive.game.world.entity.mob.prayer.</text>
<text xml:space="preserve" text-anchor="middle" x="684.59" y="-172.41" font-family="Helvetica,sans-Serif" font-size="12.00">PrayerBook.isActive</text>
</a>
</g>
</g>
<!-- Node1&#45;&gt;Node3 -->
<g id="edge3_Node000001_Node000003" class="edge">
<title>Node1&#45;&gt;Node3</title>
<g id="a_edge3_Node000001_Node000003"><a xlink:title=" ">
<path fill="none" stroke="#63b8ff" d="M413.61,-157.2C450.72,-160.86 489.63,-164.69 525.99,-168.28"/>
<polygon fill="#63b8ff" stroke="#63b8ff" points="525.39,-171.73 535.68,-169.23 526.07,-164.77 525.39,-171.73"/>
</a>
</g>
</g>
<!-- Node4 -->
<g id="Node000004" class="node">
<title>Node4</title>
<g id="a_Node000004"><a xlink:href="classcom_1_1runehive_1_1game_1_1world_1_1entity_1_1skill_1_1_skill_manager.html#a9d2f706cb24e30ca8451a4f49401df4c" target="_top" xlink:title="Refreshes all the skills for the mob.">
<ellipse fill="white" stroke="#666666" cx="684.59" cy="-95.81" rx="149.2" ry="25.81"/>
<text xml:space="preserve" text-anchor="start" x="587.09" y="-98.66" font-family="Helvetica,sans-Serif" font-size="12.00">com.runehive.game.world.entity.skill.</text>
<text xml:space="preserve" text-anchor="middle" x="684.59" y="-84.41" font-family="Helvetica,sans-Serif" font-size="12.00">SkillManager.refresh</text>
</a>
</g>
</g>
<!-- Node1&#45;&gt;Node4 -->
<g id="edge4_Node000001_Node000004" class="edge">
<title>Node1&#45;&gt;Node4</title>
<g id="a_edge4_Node000001_Node000004"><a xlink:title=" ">
<path fill="none" stroke="#63b8ff" d="M413.61,-122.42C456.38,-118.2 501.55,-113.75 542.45,-109.72"/>
<polygon fill="#63b8ff" stroke="#63b8ff" points="542.76,-113.21 552.36,-108.74 542.07,-106.24 542.76,-113.21"/>
</a>
</g>
</g>
<!-- Node5 -->
<g id="Node000005" class="node">
<title>Node5</title>
<g id="a_Node000005"><a xlink:href="classcom_1_1runehive_1_1game_1_1world_1_1entity_1_1skill_1_1_skill.html#a6b76f5e876369ff07f47a5fff93f8012" target="_top" xlink:title="Removes levels from this skill by the given amount.">
<ellipse fill="white" stroke="#666666" cx="684.59" cy="-25.81" rx="149.2" ry="25.81"/>
<text xml:space="preserve" text-anchor="start" x="587.09" y="-28.66" font-family="Helvetica,sans-Serif" font-size="12.00">com.runehive.game.world.entity.skill.</text>
<text xml:space="preserve" text-anchor="middle" x="684.59" y="-14.41" font-family="Helvetica,sans-Serif" font-size="12.00">Skill.removeLevel</text>
</a>
</g>
</g>
<!-- Node1&#45;&gt;Node5 -->
<g id="edge6_Node000001_Node000005" class="edge">
<title>Node1&#45;&gt;Node5</title>
<g id="a_edge6_Node000001_Node000005"><a xlink:title=" ">
<path fill="none" stroke="#63b8ff" d="M315.3,-115.1C369.22,-98.53 442.74,-76.89 508.35,-60.81 528.27,-55.93 549.59,-51.23 570.26,-46.95"/>
<polygon fill="#63b8ff" stroke="#63b8ff" points="570.75,-50.43 579.85,-44.99 569.35,-43.57 570.75,-50.43"/>
</a>
</g>
</g>
<!-- Node4&#45;&gt;Node4 -->
<g id="edge5_Node000004_Node000004" class="edge">
<title>Node4&#45;&gt;Node4</title>
<g id="a_edge5_Node000004_Node000004"><a xlink:title=" ">
<path fill="none" stroke="#63b8ff" d="M618.16,-119.25C610.92,-130.12 633.06,-139.62 684.59,-139.62 717.61,-139.62 738.56,-135.72 747.45,-130.06"/>
<polygon fill="#63b8ff" stroke="#63b8ff" points="750.73,-131.28 750.55,-120.68 744.09,-129.08 750.73,-131.28"/>
</a>
</g>
</g>
<!-- Node6 -->
<g id="Node000006" class="node">
<title>Node6</title>
<g id="a_Node000006"><a xlink:href="classcom_1_1runehive_1_1game_1_1world_1_1entity_1_1skill_1_1_skill.html#a3c8eb963f046bbc4188f6e76d93fa17b" target="_top" xlink:title="Modifies the current level with a given function.">
<ellipse fill="white" stroke="#666666" cx="1046.04" cy="-25.81" rx="149.2" ry="25.81"/>
<text xml:space="preserve" text-anchor="start" x="948.54" y="-28.66" font-family="Helvetica,sans-Serif" font-size="12.00">com.runehive.game.world.entity.skill.</text>
<text xml:space="preserve" text-anchor="middle" x="1046.04" y="-14.41" font-family="Helvetica,sans-Serif" font-size="12.00">Skill.modifyLevel</text>
</a>
</g>
</g>
<!-- Node5&#45;&gt;Node6 -->
<g id="edge7_Node000005_Node000006" class="edge">
<title>Node5&#45;&gt;Node6</title>
<g id="a_edge7_Node000005_Node000006"><a xlink:title=" ">
<path fill="none" stroke="#63b8ff" d="M834.13,-25.81C851.01,-25.81 868.28,-25.81 885.3,-25.81"/>
<polygon fill="#63b8ff" stroke="#63b8ff" points="884.93,-29.31 894.93,-25.81 884.93,-22.31 884.93,-29.31"/>
</a>
</g>
</g>
<!-- Node6&#45;&gt;Node6 -->
<g id="edge8_Node000006_Node000006" class="edge">
<title>Node6&#45;&gt;Node6</title>
<g id="a_edge8_Node000006_Node000006"><a xlink:title=" ">
<path fill="none" stroke="#63b8ff" d="M979.61,-49.25C972.36,-60.12 994.51,-69.62 1046.04,-69.62 1079.05,-69.62 1100.01,-65.72 1108.9,-60.06"/>
<polygon fill="#63b8ff" stroke="#63b8ff" points="1112.18,-61.28 1112,-50.68 1105.53,-59.08 1112.18,-61.28"/>
</a>
</g>
</g>
</g>
</svg>

<g id="navigator" transform="translate(0 0)" fill="#404254">
  <rect fill="#f2f5e9" fill-opacity="0.5" stroke="#606060" stroke-width=".5" x="0" y="0" width="60" height="60"/>
  <use id="zoomplus" xlink:href="#zoomPlus" x="17" y="9" onmousedown="handleZoom(evt,'in')"/>
  <use id="zoomminus" xlink:href="#zoomMin" x="42" y="9" onmousedown="handleZoom(evt,'out')"/>
  <use id="reset" xlink:href="#resetDef" x="30" y="36" onmousedown="handleReset()"/>
   <use id="arrowup" xlink:href="#arrowUp" x="0" y="0" onmousedown="handlePan(0,-1)"/>
  <use id="arrowright" xlink:href="#arrowRight" x="0" y="0" onmousedown="handlePan(1,0)"/>
  <use id="arrowdown" xlink:href="#arrowDown" x="0" y="0" onmousedown="handlePan(0,1)"/>
  <use id="arrowleft" xlink:href="#arrowLeft" x="0" y="0" onmousedown="handlePan(-1,0)"/>
</g>
<svg viewBox="0 0 15 15" width="100%" height="30px" preserveAspectRatio="xMaxYMin meet">
 <g id="arrow_out" transform="scale(0.3 0.3)">
  <a xlink:href="classcom_1_1runehive_1_1game_1_1world_1_1entity_1_1combat_1_1attack_1_1listener_1_1other_1_1_prayer_listener_a5b024f3c317b999033f941a1c712b26c_cgraph_org.svg" target="_base">
   <rect id="button" ry="5" rx="5" y="6" x="6" height="38" width="38"
        fill="#f2f5e9" fill-opacity="0.5" stroke="#606060" stroke-width="1.0"/>
   <path id="arrow"
     d="M 11.500037,31.436501 C 11.940474,20.09759 22.043105,11.32322 32.158766,21.979434 L 37.068811,17.246167 C 37.068811,17.246167 37.088388,32 37.088388,32 L 22.160133,31.978069 C 22.160133,31.978069 26.997745,27.140456 26.997745,27.140456 C 18.528582,18.264221 13.291696,25.230495 11.500037,31.436501 z"
     style="fill:#404040;"/>
  </a>
 </g>
</svg>

<style type='text/css'>
<![CDATA[
[data-mouse-over-selected='false'] { opacity: 0.7; }
[data-mouse-over-selected='true']  { opacity: 1.0; }
]]>
</style>
<script type="application/ecmascript"><![CDATA[
document.addEventListener('DOMContentLoaded', (event) => {
  highlightEdges();
  highlightAdjacentNodes();
});
]]></script>
</svg>
