<?xml version="1.0" encoding="UTF-8" standalone="no"?>
<!DOCTYPE svg PUBLIC "-//W3C//DTD SVG 1.1//EN"
 "http://www.w3.org/Graphics/SVG/1.1/DTD/svg11.dtd">
<!-- Generated by graphviz version 14.0.1 (20251006.0113)
 -->
<!-- Title: com.runehive.content.bot.botclass.impl.PureRangeMelee.hit Pages: 1 -->
<svg width="1352pt" height="550pt"
 viewBox="0.00 0.00 1352.00 550.00" xmlns="http://www.w3.org/2000/svg" xmlns:xlink="http://www.w3.org/1999/xlink">
<g id="graph0" class="graph" transform="scale(1 1) rotate(0) translate(4 545.62)">
<title>com.runehive.content.bot.botclass.impl.PureRangeMelee.hit</title>
<!-- Node1 -->
<g id="Node000001" class="node">
<title>Node1</title>
<g id="a_Node000001"><a xlink:title=" ">
<ellipse fill="#999999" stroke="#666666" cx="159.28" cy="-270.81" rx="159.28" ry="25.81"/>
<text xml:space="preserve" text-anchor="start" x="54.65" y="-273.66" font-family="Helvetica,sans-Serif" font-size="12.00">com.runehive.content.bot.botclass.impl.</text>
<text xml:space="preserve" text-anchor="middle" x="159.28" y="-259.41" font-family="Helvetica,sans-Serif" font-size="12.00">PureRangeMelee.hit</text>
</a>
</g>
</g>
<!-- Node1&#45;&gt;Node1 -->
<g id="edge7_Node000001_Node000001" class="edge">
<title>Node1&#45;&gt;Node1</title>
<g id="a_edge7_Node000001_Node000001"><a xlink:title=" ">
<path fill="none" stroke="#63b8ff" d="M91.09,-294.25C83.65,-305.12 106.38,-314.62 159.28,-314.62 193.16,-314.62 214.67,-310.72 223.79,-305.06"/>
<polygon fill="#63b8ff" stroke="#63b8ff" points="227.08,-306.27 226.97,-295.68 220.45,-304.03 227.08,-306.27"/>
</a>
</g>
</g>
<!-- Node2 -->
<g id="Node000002" class="node">
<title>Node2</title>
<g id="a_Node000002"><a xlink:href="classcom_1_1runehive_1_1game_1_1world_1_1entity_1_1mob_1_1_mob.html#a7f9f09a886babdf286840872110bb538" target="_top" xlink:title=" ">
<ellipse fill="white" stroke="#666666" cx="530.27" cy="-515.81" rx="150.79" ry="25.81"/>
<text xml:space="preserve" text-anchor="start" x="431.64" y="-518.66" font-family="Helvetica,sans-Serif" font-size="12.00">com.runehive.game.world.entity.mob.</text>
<text xml:space="preserve" text-anchor="middle" x="530.27" y="-504.41" font-family="Helvetica,sans-Serif" font-size="12.00">Mob.getCurrentHealth</text>
</a>
</g>
</g>
<!-- Node1&#45;&gt;Node2 -->
<g id="edge1_Node000001_Node000002" class="edge">
<title>Node1&#45;&gt;Node2</title>
<g id="a_edge1_Node000001_Node000002"><a xlink:title=" ">
<path fill="none" stroke="#63b8ff" d="M176.17,-296.64C205.45,-341.83 272.46,-434.78 354.55,-480.81 367.02,-487.8 380.69,-493.41 394.7,-497.91"/>
<polygon fill="#63b8ff" stroke="#63b8ff" points="393.45,-501.18 404.03,-500.7 395.45,-494.48 393.45,-501.18"/>
</a>
</g>
</g>
<!-- Node5 -->
<g id="Node000005" class="node">
<title>Node5</title>
<g id="a_Node000005"><a xlink:href="classcom_1_1runehive_1_1game_1_1world_1_1entity_1_1mob_1_1_mob.html#a035f8e9a61076bb97ffd1037476688d7" target="_top" xlink:title=" ">
<ellipse fill="white" stroke="#666666" cx="530.27" cy="-445.81" rx="150.79" ry="25.81"/>
<text xml:space="preserve" text-anchor="start" x="431.64" y="-448.66" font-family="Helvetica,sans-Serif" font-size="12.00">com.runehive.game.world.entity.mob.</text>
<text xml:space="preserve" text-anchor="middle" x="530.27" y="-434.41" font-family="Helvetica,sans-Serif" font-size="12.00">Mob.getMaximumHealth</text>
</a>
</g>
</g>
<!-- Node1&#45;&gt;Node5 -->
<g id="edge4_Node000001_Node000005" class="edge">
<title>Node1&#45;&gt;Node5</title>
<g id="a_edge4_Node000001_Node000005"><a xlink:title=" ">
<path fill="none" stroke="#63b8ff" d="M187.82,-296.63C223.46,-328.55 288.81,-382.15 354.55,-410.81 369.18,-417.19 385.01,-422.42 400.96,-426.7"/>
<polygon fill="#63b8ff" stroke="#63b8ff" points="399.99,-430.06 410.55,-429.14 401.72,-423.28 399.99,-430.06"/>
</a>
</g>
</g>
<!-- Node6 -->
<g id="Node000006" class="node">
<title>Node6</title>
<g id="a_Node000006"><a xlink:href="classcom_1_1runehive_1_1game_1_1world_1_1entity_1_1mob_1_1player_1_1_player.html#a90bb1a6839b25e7026f7285644a0816c" target="_top" xlink:title=" ">
<ellipse fill="white" stroke="#666666" cx="530.27" cy="-375.81" rx="175.72" ry="25.81"/>
<text xml:space="preserve" text-anchor="start" x="414.02" y="-378.66" font-family="Helvetica,sans-Serif" font-size="12.00">com.runehive.game.world.entity.mob.player.</text>
<text xml:space="preserve" text-anchor="middle" x="530.27" y="-364.41" font-family="Helvetica,sans-Serif" font-size="12.00">Player.getSpecialPercentage</text>
</a>
</g>
</g>
<!-- Node1&#45;&gt;Node6 -->
<g id="edge6_Node000001_Node000006" class="edge">
<title>Node1&#45;&gt;Node6</title>
<g id="a_edge6_Node000001_Node000006"><a xlink:title=" ">
<path fill="none" stroke="#63b8ff" d="M220.34,-295.06C258.36,-309.75 308.79,-328.06 354.55,-340.81 370.81,-345.34 388.07,-349.53 405.17,-353.32"/>
<polygon fill="#63b8ff" stroke="#63b8ff" points="404.38,-356.72 414.89,-355.42 405.86,-349.88 404.38,-356.72"/>
</a>
</g>
</g>
<!-- Node7 -->
<g id="Node000007" class="node">
<title>Node7</title>
<g id="a_Node000007"><a xlink:href="classcom_1_1runehive_1_1util_1_1_random_utils.html#a6eefd5d224df61485cc6c99b738dce80" target="_top" xlink:title="Returns a pseudo&#45;random int value between inclusive min and inclusive max.">
<ellipse fill="white" stroke="#666666" cx="530.27" cy="-305.81" rx="109.96" ry="25.81"/>
<text xml:space="preserve" text-anchor="start" x="460.52" y="-308.66" font-family="Helvetica,sans-Serif" font-size="12.00">com.runehive.util.Random</text>
<text xml:space="preserve" text-anchor="middle" x="530.27" y="-294.41" font-family="Helvetica,sans-Serif" font-size="12.00">Utils.inclusive</text>
</a>
</g>
</g>
<!-- Node1&#45;&gt;Node7 -->
<g id="edge8_Node000001_Node000007" class="edge">
<title>Node1&#45;&gt;Node7</title>
<g id="a_edge8_Node000001_Node000007"><a xlink:title=" ">
<path fill="none" stroke="#63b8ff" d="M297.94,-283.87C336.91,-287.56 378.88,-291.54 416.22,-295.09"/>
<polygon fill="#63b8ff" stroke="#63b8ff" points="415.86,-298.57 426.15,-296.03 416.52,-291.6 415.86,-298.57"/>
</a>
</g>
</g>
<!-- Node8 -->
<g id="Node000008" class="node">
<title>Node8</title>
<g id="a_Node000008"><a xlink:href="classcom_1_1runehive_1_1util_1_1_mutable_number.html#ad345ecbb340825817f960ac860c00f2f" target="_top" xlink:title=" ">
<ellipse fill="white" stroke="#666666" cx="530.27" cy="-235.81" rx="107.83" ry="25.81"/>
<text xml:space="preserve" text-anchor="start" x="462.02" y="-238.66" font-family="Helvetica,sans-Serif" font-size="12.00">com.runehive.util.Mutable</text>
<text xml:space="preserve" text-anchor="middle" x="530.27" y="-224.41" font-family="Helvetica,sans-Serif" font-size="12.00">Number.intValue</text>
</a>
</g>
</g>
<!-- Node1&#45;&gt;Node8 -->
<g id="edge9_Node000001_Node000008" class="edge">
<title>Node1&#45;&gt;Node8</title>
<g id="a_edge9_Node000001_Node000008"><a xlink:title=" ">
<path fill="none" stroke="#63b8ff" d="M297.94,-257.75C337.64,-253.99 380.44,-249.93 418.3,-246.33"/>
<polygon fill="#63b8ff" stroke="#63b8ff" points="418.23,-249.86 427.86,-245.43 417.57,-242.89 418.23,-249.86"/>
</a>
</g>
</g>
<!-- Node9 -->
<g id="Node000009" class="node">
<title>Node9</title>
<g id="a_Node000009"><a xlink:href="classcom_1_1runehive_1_1content_1_1bot_1_1botclass_1_1impl_1_1_pure_range_melee.html#ab87e23919e0f5f9516b7a1fdea9018a7" target="_top" xlink:title=" ">
<ellipse fill="white" stroke="#666666" cx="530.27" cy="-165.81" rx="159.28" ry="25.81"/>
<text xml:space="preserve" text-anchor="start" x="425.64" y="-168.66" font-family="Helvetica,sans-Serif" font-size="12.00">com.runehive.content.bot.botclass.impl.</text>
<text xml:space="preserve" text-anchor="middle" x="530.27" y="-154.41" font-family="Helvetica,sans-Serif" font-size="12.00">PureRangeMelee.meleePrayers</text>
</a>
</g>
</g>
<!-- Node1&#45;&gt;Node9 -->
<g id="edge10_Node000001_Node000009" class="edge">
<title>Node1&#45;&gt;Node9</title>
<g id="a_edge10_Node000001_Node000009"><a xlink:title=" ">
<path fill="none" stroke="#63b8ff" d="M220.34,-246.56C258.36,-231.86 308.79,-213.56 354.55,-200.81 372.28,-195.87 391.2,-191.34 409.81,-187.28"/>
<polygon fill="#63b8ff" stroke="#63b8ff" points="410.5,-190.72 419.55,-185.21 409.04,-183.87 410.5,-190.72"/>
</a>
</g>
</g>
<!-- Node10 -->
<g id="Node000010" class="node">
<title>Node10</title>
<g id="a_Node000010"><a xlink:href="classcom_1_1runehive_1_1content_1_1bot_1_1botclass_1_1impl_1_1_pure_range_melee.html#adc2dca74be52d6ce3357af98943faa72" target="_top" xlink:title=" ">
<ellipse fill="white" stroke="#666666" cx="530.27" cy="-95.81" rx="159.28" ry="25.81"/>
<text xml:space="preserve" text-anchor="start" x="425.64" y="-98.66" font-family="Helvetica,sans-Serif" font-size="12.00">com.runehive.content.bot.botclass.impl.</text>
<text xml:space="preserve" text-anchor="middle" x="530.27" y="-84.41" font-family="Helvetica,sans-Serif" font-size="12.00">PureRangeMelee.rangedPrayers</text>
</a>
</g>
</g>
<!-- Node1&#45;&gt;Node10 -->
<g id="edge11_Node000001_Node000010" class="edge">
<title>Node1&#45;&gt;Node10</title>
<g id="a_edge11_Node000001_Node000010"><a xlink:title=" ">
<path fill="none" stroke="#63b8ff" d="M187.82,-244.99C223.46,-213.07 288.81,-159.47 354.55,-130.81 368.36,-124.79 383.23,-119.8 398.27,-115.65"/>
<polygon fill="#63b8ff" stroke="#63b8ff" points="398.98,-119.08 407.77,-113.17 397.21,-112.31 398.98,-119.08"/>
</a>
</g>
</g>
<!-- Node11 -->
<g id="Node000011" class="node">
<title>Node11</title>
<g id="a_Node000011"><a xlink:href="classcom_1_1runehive_1_1util_1_1_random_utils.html#ae851906399232ad944de15c2fd29c5b8" target="_top" xlink:title="Determines if a pseudorandomly generated double rounded to two decimal places is below or equal to va...">
<ellipse fill="white" stroke="#666666" cx="530.27" cy="-25.81" rx="109.96" ry="25.81"/>
<text xml:space="preserve" text-anchor="start" x="460.52" y="-28.66" font-family="Helvetica,sans-Serif" font-size="12.00">com.runehive.util.Random</text>
<text xml:space="preserve" text-anchor="middle" x="530.27" y="-14.41" font-family="Helvetica,sans-Serif" font-size="12.00">Utils.success</text>
</a>
</g>
</g>
<!-- Node1&#45;&gt;Node11 -->
<g id="edge12_Node000001_Node000011" class="edge">
<title>Node1&#45;&gt;Node11</title>
<g id="a_edge12_Node000001_Node000011"><a xlink:title=" ">
<path fill="none" stroke="#63b8ff" d="M176.17,-244.98C205.45,-199.79 272.46,-106.84 354.55,-60.81 373.39,-50.25 394.96,-42.84 416.35,-37.66"/>
<polygon fill="#63b8ff" stroke="#63b8ff" points="417.05,-41.09 426.03,-35.48 415.51,-34.26 417.05,-41.09"/>
</a>
</g>
</g>
<!-- Node3 -->
<g id="Node000003" class="node">
<title>Node3</title>
<g id="a_Node000003"><a xlink:href="classcom_1_1runehive_1_1game_1_1world_1_1entity_1_1mob_1_1_mob.html#ac1ffa95e70f2c18a6695328fb2afc585" target="_top" xlink:title="Check if an entity is an npc.">
<ellipse fill="white" stroke="#666666" cx="892.77" cy="-480.81" rx="150.79" ry="25.81"/>
<text xml:space="preserve" text-anchor="start" x="794.15" y="-483.66" font-family="Helvetica,sans-Serif" font-size="12.00">com.runehive.game.world.entity.mob.</text>
<text xml:space="preserve" text-anchor="middle" x="892.77" y="-469.41" font-family="Helvetica,sans-Serif" font-size="12.00">Mob.isNpc</text>
</a>
</g>
</g>
<!-- Node2&#45;&gt;Node3 -->
<g id="edge2_Node000002_Node000003" class="edge">
<title>Node2&#45;&gt;Node3</title>
<g id="a_edge2_Node000002_Node000003"><a xlink:title=" ">
<path fill="none" stroke="#63b8ff" d="M662.44,-503.07C690.7,-500.33 720.7,-497.42 749.36,-494.64"/>
<polygon fill="#63b8ff" stroke="#63b8ff" points="749.58,-498.13 759.19,-493.68 748.9,-491.16 749.58,-498.13"/>
</a>
</g>
</g>
<!-- Node4 -->
<g id="Node000004" class="node">
<title>Node4</title>
<g id="a_Node000004"><a xlink:href="classcom_1_1runehive_1_1game_1_1world_1_1entity_1_1_entity.html#a64f68055122aaf4af08787378c7ac356" target="_top" xlink:title="Gets the EntityType.">
<ellipse fill="white" stroke="#666666" cx="1211.79" cy="-480.81" rx="132.23" ry="25.81"/>
<text xml:space="preserve" text-anchor="start" x="1126.29" y="-483.66" font-family="Helvetica,sans-Serif" font-size="12.00">com.runehive.game.world.entity.</text>
<text xml:space="preserve" text-anchor="middle" x="1211.79" y="-469.41" font-family="Helvetica,sans-Serif" font-size="12.00">Entity.getType</text>
</a>
</g>
</g>
<!-- Node3&#45;&gt;Node4 -->
<g id="edge3_Node000003_Node000004" class="edge">
<title>Node3&#45;&gt;Node4</title>
<g id="a_edge3_Node000003_Node000004"><a xlink:title=" ">
<path fill="none" stroke="#63b8ff" d="M1043.93,-480.81C1051.98,-480.81 1060.06,-480.81 1068.08,-480.81"/>
<polygon fill="#63b8ff" stroke="#63b8ff" points="1067.87,-484.31 1077.87,-480.81 1067.87,-477.31 1067.87,-484.31"/>
</a>
</g>
</g>
<!-- Node5&#45;&gt;Node3 -->
<g id="edge5_Node000005_Node000003" class="edge">
<title>Node5&#45;&gt;Node3</title>
<g id="a_edge5_Node000005_Node000003"><a xlink:title=" ">
<path fill="none" stroke="#63b8ff" d="M662.44,-458.54C690.7,-461.29 720.7,-464.2 749.36,-466.98"/>
<polygon fill="#63b8ff" stroke="#63b8ff" points="748.9,-470.46 759.19,-467.94 749.58,-463.49 748.9,-470.46"/>
</a>
</g>
</g>
</g>
</svg>
