<?xml version="1.0" encoding="UTF-8" standalone="no"?>
<!DOCTYPE svg PUBLIC "-//W3C//DTD SVG 1.1//EN"
 "http://www.w3.org/Graphics/SVG/1.1/DTD/svg11.dtd">
<!-- Generated by graphviz version 14.0.1 (20251006.0113)
 -->
<!-- Title: com.runehive.content.ProfileViewer.open Pages: 1 -->
<!--zoomable 1073 -->

<svg id="main" version="1.1" xmlns="http://www.w3.org/2000/svg" xmlns:xlink="http://www.w3.org/1999/xlink" xml:space="preserve" onload="init(evt)">

<style type="text/css"><![CDATA[
.node, .edge {opacity: 0.7;}
.node.selected, .edge.selected {opacity: 1;}
.edge:hover path { stroke: red; }
.edge:hover polygon { stroke: red; fill: red; }
]]></style>

<defs>
  <circle id="rim" cx="0" cy="0" r="7"/>
  <circle id="rim2" cx="0" cy="0" r="3.5"/>
  <g id="zoomPlus">
    <use xlink:href="#rim" fill="#404040"><set attributeName="fill" to="#808080" begin="zoomplus.mouseover" end="zoomplus.mouseout"/></use>
    <path d="M-4,0h8M0,-4v8" fill="none" stroke="white" stroke-width="1.5" pointer-events="none"/>
  </g>
  <g id="zoomMin">
    <use xlink:href="#rim" fill="#404040"><set attributeName="fill" to="#808080" begin="zoomminus.mouseover" end="zoomminus.mouseout"/></use>
    <path d="M-4,0h8" fill="none" stroke="white" stroke-width="1.5" pointer-events="none"/>
  </g>
  <g id="arrowUp" transform="translate(30 24)">
    <use xlink:href="#rim"/>
    <path pointer-events="none" fill="none" stroke="white" stroke-width="1.5" d="M0,-3.0v7 M-2.5,-0.5L0,-3.0L2.5,-0.5"/>
  </g>
  <g id="arrowRight" transform="rotate(90) translate(36 -43)">
    <use xlink:href="#rim"/>
    <path pointer-events="none" fill="none" stroke="white" stroke-width="1.5" d="M0,-3.0v7 M-2.5,-0.5L0,-3.0L2.5,-0.5"/>
  </g>
  <g id="arrowDown" transform="rotate(180) translate(-30 -48)">
    <use xlink:href="#rim"/>
    <path pointer-events="none" fill="none" stroke="white" stroke-width="1.5" d="M0,-3.0v7 M-2.5,-0.5L0,-3.0L2.5,-0.5"/>
  </g>
  <g id="arrowLeft" transform="rotate(270) translate(-36 17)">
    <use xlink:href="#rim"/>
    <path pointer-events="none" fill="none" stroke="white" stroke-width="1.5" d="M0,-3.0v7 M-2.5,-0.5L0,-3.0L2.5,-0.5"/>
  </g>
  <g id="resetDef">
    <use xlink:href="#rim2" fill="#404040"><set attributeName="fill" to="#808080" begin="reset.mouseover" end="reset.mouseout"/></use>
  </g>
</defs>
<script type="application/ecmascript">
var viewWidth = 1795;
var viewHeight = 1073;
var sectionId = 'dynsection-0';
</script>
<script type="application/ecmascript" xlink:href="svg.min.js"/>
<svg id="graph" class="graph">
<g id="viewport">
<title>com.runehive.content.ProfileViewer.open</title>
<!-- Node1 -->
<g id="Node000001" class="node">
<title>Node1</title>
<g id="a_Node000001"><a xlink:title="Opens the profile interface.">
<ellipse fill="#999999" stroke="#666666" cx="118.44" cy="-519.81" rx="118.44" ry="25.81"/>
<text xml:space="preserve" text-anchor="start" x="42.69" y="-522.66" font-family="Helvetica,sans-Serif" font-size="12.00">com.runehive.content.Profile</text>
<text xml:space="preserve" text-anchor="middle" x="118.44" y="-508.41" font-family="Helvetica,sans-Serif" font-size="12.00">Viewer.open</text>
</a>
</g>
</g>
<!-- Node2 -->
<g id="Node000002" class="node">
<title>Node2</title>
<g id="a_Node000002"><a xlink:href="classcom_1_1runehive_1_1game_1_1world_1_1entity_1_1mob_1_1player_1_1_player.html#a6807f672095fae94fdd53efc33979e79" target="_top" xlink:title=" ">
<ellipse fill="white" stroke="#666666" cx="448.6" cy="-957.81" rx="175.72" ry="25.81"/>
<text xml:space="preserve" text-anchor="start" x="332.35" y="-960.66" font-family="Helvetica,sans-Serif" font-size="12.00">com.runehive.game.world.entity.mob.player.</text>
<text xml:space="preserve" text-anchor="middle" x="448.6" y="-946.41" font-family="Helvetica,sans-Serif" font-size="12.00">Player.equals</text>
</a>
</g>
</g>
<!-- Node1&#45;&gt;Node2 -->
<g id="edge1_Node000001_Node000002" class="edge">
<title>Node1&#45;&gt;Node2</title>
<g id="a_edge1_Node000001_Node000002"><a xlink:title=" ">
<path fill="none" stroke="#63b8ff" d="M121.02,-545.87C126.88,-618.07 153.73,-821.97 272.88,-922.81 279.69,-928.57 287.18,-933.48 295.11,-937.65"/>
<polygon fill="#63b8ff" stroke="#63b8ff" points="293.48,-940.75 304.01,-941.9 296.49,-934.43 293.48,-940.75"/>
</a>
</g>
</g>
<!-- Node3 -->
<g id="Node000003" class="node">
<title>Node3</title>
<g id="a_Node000003"><a xlink:href="classcom_1_1runehive_1_1game_1_1world_1_1entity_1_1_entity.html#a09cee7c391bb1206725815ce0f3cd1f1" target="_top" xlink:title=" ">
<ellipse fill="white" stroke="#666666" cx="836.03" cy="-1011.81" rx="132.23" ry="25.81"/>
<text xml:space="preserve" text-anchor="start" x="750.53" y="-1014.66" font-family="Helvetica,sans-Serif" font-size="12.00">com.runehive.game.world.entity.</text>
<text xml:space="preserve" text-anchor="middle" x="836.03" y="-1000.41" font-family="Helvetica,sans-Serif" font-size="12.00">Entity.getIndex</text>
</a>
</g>
</g>
<!-- Node1&#45;&gt;Node3 -->
<g id="edge12_Node000001_Node000003" class="edge">
<title>Node1&#45;&gt;Node3</title>
<g id="a_edge12_Node000001_Node000003"><a xlink:title=" ">
<path fill="none" stroke="#63b8ff" d="M118.54,-546C117.31,-628.2 125.99,-882.19 272.88,-992.81 412.45,-1097.91 631.51,-1065.38 750.78,-1036.27"/>
<polygon fill="#63b8ff" stroke="#63b8ff" points="751.33,-1039.74 760.18,-1033.92 749.63,-1032.95 751.33,-1039.74"/>
</a>
</g>
</g>
<!-- Node7 -->
<g id="Node000007" class="node">
<title>Node7</title>
<g id="a_Node000007"><a xlink:href="classcom_1_1runehive_1_1game_1_1world_1_1entity_1_1skill_1_1_skill_manager.html#a8167146b6fbdc949d0d7950e5e7e3b34" target="_top" xlink:title="Gets the skill for an id.">
<ellipse fill="white" stroke="#666666" cx="448.6" cy="-887.81" rx="149.2" ry="25.81"/>
<text xml:space="preserve" text-anchor="start" x="351.1" y="-890.66" font-family="Helvetica,sans-Serif" font-size="12.00">com.runehive.game.world.entity.skill.</text>
<text xml:space="preserve" text-anchor="middle" x="448.6" y="-876.41" font-family="Helvetica,sans-Serif" font-size="12.00">SkillManager.get</text>
</a>
</g>
</g>
<!-- Node1&#45;&gt;Node7 -->
<g id="edge7_Node000001_Node000007" class="edge">
<title>Node1&#45;&gt;Node7</title>
<g id="a_edge7_Node000001_Node000007"><a xlink:title=" ">
<path fill="none" stroke="#63b8ff" d="M123.33,-545.95C134.22,-609.46 171.21,-772.54 272.88,-852.81 282.74,-860.59 293.87,-866.79 305.61,-871.7"/>
<polygon fill="#63b8ff" stroke="#63b8ff" points="304.07,-874.86 314.66,-875.16 306.57,-868.32 304.07,-874.86"/>
</a>
</g>
</g>
<!-- Node8 -->
<g id="Node000008" class="node">
<title>Node8</title>
<g id="a_Node000008"><a xlink:href="classcom_1_1runehive_1_1game_1_1world_1_1entity_1_1mob_1_1player_1_1_player.html#abf224666b7cf62d0ebd3020de51a55d9" target="_top" xlink:title="The combat of the mob.">
<ellipse fill="white" stroke="#666666" cx="448.6" cy="-817.81" rx="175.72" ry="25.81"/>
<text xml:space="preserve" text-anchor="start" x="332.35" y="-820.66" font-family="Helvetica,sans-Serif" font-size="12.00">com.runehive.game.world.entity.mob.player.</text>
<text xml:space="preserve" text-anchor="middle" x="448.6" y="-806.41" font-family="Helvetica,sans-Serif" font-size="12.00">Player.getCombat</text>
</a>
</g>
</g>
<!-- Node1&#45;&gt;Node8 -->
<g id="edge8_Node000001_Node000008" class="edge">
<title>Node1&#45;&gt;Node8</title>
<g id="a_edge8_Node000001_Node000008"><a xlink:title=" ">
<path fill="none" stroke="#63b8ff" d="M126.75,-546.04C143.18,-599.79 188.35,-722.44 272.88,-782.81 280.93,-788.56 289.69,-793.42 298.86,-797.52"/>
<polygon fill="#63b8ff" stroke="#63b8ff" points="297.4,-800.7 307.98,-801.26 300.06,-794.22 297.4,-800.7"/>
</a>
</g>
</g>
<!-- Node9 -->
<g id="Node000009" class="node">
<title>Node9</title>
<g id="a_Node000009"><a xlink:href="classcom_1_1runehive_1_1game_1_1world_1_1entity_1_1skill_1_1_skill_manager.html#a5488fc028ef7c081efcb04acada62309" target="_top" xlink:title="Gets the mob&#39;s combat level.">
<ellipse fill="white" stroke="#666666" cx="448.6" cy="-747.81" rx="149.2" ry="25.81"/>
<text xml:space="preserve" text-anchor="start" x="351.1" y="-750.66" font-family="Helvetica,sans-Serif" font-size="12.00">com.runehive.game.world.entity.skill.</text>
<text xml:space="preserve" text-anchor="middle" x="448.6" y="-736.41" font-family="Helvetica,sans-Serif" font-size="12.00">SkillManager.getCombatLevel</text>
</a>
</g>
</g>
<!-- Node1&#45;&gt;Node9 -->
<g id="edge9_Node000001_Node000009" class="edge">
<title>Node1&#45;&gt;Node9</title>
<g id="a_edge9_Node000001_Node000009"><a xlink:title=" ">
<path fill="none" stroke="#63b8ff" d="M132.34,-545.9C154.72,-588.23 204.94,-671.3 272.88,-712.81 284.75,-720.06 297.85,-725.85 311.37,-730.46"/>
<polygon fill="#63b8ff" stroke="#63b8ff" points="310.25,-733.78 320.84,-733.45 312.36,-727.1 310.25,-733.78"/>
</a>
</g>
</g>
<!-- Node10 -->
<g id="Node000010" class="node">
<title>Node10</title>
<g id="a_Node000010"><a xlink:href="enumcom_1_1runehive_1_1game_1_1world_1_1entity_1_1mob_1_1player_1_1_player_right.html#aab09dcf8fa6041ddf475dfcc61b2fc15" target="_top" xlink:title="Gets the crown display.">
<ellipse fill="white" stroke="#666666" cx="448.6" cy="-659.81" rx="175.72" ry="25.81"/>
<text xml:space="preserve" text-anchor="start" x="332.35" y="-662.66" font-family="Helvetica,sans-Serif" font-size="12.00">com.runehive.game.world.entity.mob.player.</text>
<text xml:space="preserve" text-anchor="middle" x="448.6" y="-648.41" font-family="Helvetica,sans-Serif" font-size="12.00">PlayerRight.getCrown</text>
</a>
</g>
</g>
<!-- Node1&#45;&gt;Node10 -->
<g id="edge10_Node000001_Node000010" class="edge">
<title>Node1&#45;&gt;Node10</title>
<g id="a_edge10_Node000001_Node000010"><a xlink:title=" ">
<path fill="none" stroke="#63b8ff" d="M148.46,-545.02C177.85,-569.2 225.59,-604.87 272.88,-624.81 285.48,-630.12 298.93,-634.64 312.57,-638.48"/>
<polygon fill="#63b8ff" stroke="#63b8ff" points="311.51,-641.82 322.07,-641.03 313.32,-635.06 311.51,-641.82"/>
</a>
</g>
</g>
<!-- Node11 -->
<g id="Node000011" class="node">
<title>Node11</title>
<g id="a_Node000011"><a xlink:href="classcom_1_1runehive_1_1game_1_1world_1_1entity_1_1mob_1_1player_1_1_player.html#a448ed37dd7d81845d5493c3b63cad6f3" target="_top" xlink:title="Gets the name of this entity.">
<ellipse fill="white" stroke="#666666" cx="448.6" cy="-589.81" rx="175.72" ry="25.81"/>
<text xml:space="preserve" text-anchor="start" x="332.35" y="-592.66" font-family="Helvetica,sans-Serif" font-size="12.00">com.runehive.game.world.entity.mob.player.</text>
<text xml:space="preserve" text-anchor="middle" x="448.6" y="-578.41" font-family="Helvetica,sans-Serif" font-size="12.00">Player.getName</text>
</a>
</g>
</g>
<!-- Node1&#45;&gt;Node11 -->
<g id="edge13_Node000001_Node000011" class="edge">
<title>Node1&#45;&gt;Node11</title>
<g id="a_edge13_Node000001_Node000011"><a xlink:title=" ">
<path fill="none" stroke="#63b8ff" d="M200.58,-538.74C223.89,-544.06 249.37,-549.77 272.88,-554.81 291.34,-558.76 310.93,-562.82 330.05,-566.71"/>
<polygon fill="#63b8ff" stroke="#63b8ff" points="329.27,-570.12 339.77,-568.67 330.66,-563.26 329.27,-570.12"/>
</a>
</g>
</g>
<!-- Node13 -->
<g id="Node000013" class="node">
<title>Node13</title>
<g id="a_Node000013"><a xlink:href="enumcom_1_1runehive_1_1game_1_1world_1_1entity_1_1mob_1_1player_1_1_player_right.html#a3a1be19979772b823f9a31f7f7d549e8" target="_top" xlink:title="Gets the name of the rank.">
<ellipse fill="white" stroke="#666666" cx="448.6" cy="-519.81" rx="175.72" ry="25.81"/>
<text xml:space="preserve" text-anchor="start" x="332.35" y="-522.66" font-family="Helvetica,sans-Serif" font-size="12.00">com.runehive.game.world.entity.mob.player.</text>
<text xml:space="preserve" text-anchor="middle" x="448.6" y="-508.41" font-family="Helvetica,sans-Serif" font-size="12.00">PlayerRight.getName</text>
</a>
</g>
</g>
<!-- Node1&#45;&gt;Node13 -->
<g id="edge15_Node000001_Node000013" class="edge">
<title>Node1&#45;&gt;Node13</title>
<g id="a_edge15_Node000001_Node000013"><a xlink:title=" ">
<path fill="none" stroke="#63b8ff" d="M236.99,-519.81C244.86,-519.81 252.89,-519.81 261,-519.81"/>
<polygon fill="#63b8ff" stroke="#63b8ff" points="260.98,-523.31 270.98,-519.81 260.98,-516.31 260.98,-523.31"/>
</a>
</g>
</g>
<!-- Node14 -->
<g id="Node000014" class="node">
<title>Node14</title>
<g id="a_Node000014"><a xlink:href="classcom_1_1runehive_1_1game_1_1world_1_1entity_1_1_entity.html#a8afdd0de68f242bf7082076dfbfffe37" target="_top" xlink:title=" ">
<ellipse fill="white" stroke="#666666" cx="448.6" cy="-449.81" rx="132.23" ry="25.81"/>
<text xml:space="preserve" text-anchor="start" x="363.1" y="-452.66" font-family="Helvetica,sans-Serif" font-size="12.00">com.runehive.game.world.entity.</text>
<text xml:space="preserve" text-anchor="middle" x="448.6" y="-438.41" font-family="Helvetica,sans-Serif" font-size="12.00">Entity.getPosition</text>
</a>
</g>
</g>
<!-- Node1&#45;&gt;Node14 -->
<g id="edge16_Node000001_Node000014" class="edge">
<title>Node1&#45;&gt;Node14</title>
<g id="a_edge16_Node000001_Node000014"><a xlink:title=" ">
<path fill="none" stroke="#63b8ff" d="M200.58,-500.88C223.89,-495.55 249.37,-489.84 272.88,-484.81 295.37,-479.99 319.53,-475.02 342.49,-470.39"/>
<polygon fill="#63b8ff" stroke="#63b8ff" points="343.06,-473.85 352.17,-468.45 341.68,-466.99 343.06,-473.85"/>
</a>
</g>
</g>
<!-- Node15 -->
<g id="Node000015" class="node">
<title>Node15</title>
<g id="a_Node000015"><a xlink:href="classcom_1_1runehive_1_1content_1_1prestige_1_1_prestige.html#addfe6d8987fdaa55a21fede486657eff" target="_top" xlink:title="Gets the current prestige color of the player.">
<ellipse fill="white" stroke="#666666" cx="448.6" cy="-379.81" rx="126.4" ry="25.81"/>
<text xml:space="preserve" text-anchor="start" x="367.22" y="-382.66" font-family="Helvetica,sans-Serif" font-size="12.00">com.runehive.content.prestige.</text>
<text xml:space="preserve" text-anchor="middle" x="448.6" y="-368.41" font-family="Helvetica,sans-Serif" font-size="12.00">Prestige.getPrestigeColor</text>
</a>
</g>
</g>
<!-- Node1&#45;&gt;Node15 -->
<g id="edge17_Node000001_Node000015" class="edge">
<title>Node1&#45;&gt;Node15</title>
<g id="a_edge17_Node000001_Node000015"><a xlink:title=" ">
<path fill="none" stroke="#63b8ff" d="M148.46,-494.59C177.85,-470.42 225.59,-434.74 272.88,-414.81 290.96,-407.19 310.8,-401.2 330.42,-396.5"/>
<polygon fill="#63b8ff" stroke="#63b8ff" points="331.16,-399.92 340.13,-394.28 329.6,-393.09 331.16,-399.92"/>
</a>
</g>
</g>
<!-- Node17 -->
<g id="Node000017" class="node">
<title>Node17</title>
<g id="a_Node000017"><a xlink:href="enumcom_1_1runehive_1_1game_1_1world_1_1entity_1_1mob_1_1player_1_1_player_right.html#aec3f3fd640191d046fde0a1cc62a03ff" target="_top" xlink:title="Checks if the player is a management member.">
<ellipse fill="white" stroke="#666666" cx="448.6" cy="-309.81" rx="175.72" ry="25.81"/>
<text xml:space="preserve" text-anchor="start" x="332.35" y="-312.66" font-family="Helvetica,sans-Serif" font-size="12.00">com.runehive.game.world.entity.mob.player.</text>
<text xml:space="preserve" text-anchor="middle" x="448.6" y="-298.41" font-family="Helvetica,sans-Serif" font-size="12.00">PlayerRight.isModerator</text>
</a>
</g>
</g>
<!-- Node1&#45;&gt;Node17 -->
<g id="edge19_Node000001_Node000017" class="edge">
<title>Node1&#45;&gt;Node17</title>
<g id="a_edge19_Node000001_Node000017"><a xlink:title=" ">
<path fill="none" stroke="#63b8ff" d="M134.34,-493.95C158.24,-454.95 209.05,-381.73 272.88,-344.81 282.52,-339.23 292.91,-334.53 303.63,-330.57"/>
<polygon fill="#63b8ff" stroke="#63b8ff" points="304.71,-333.91 313.03,-327.35 302.44,-327.29 304.71,-333.91"/>
</a>
</g>
</g>
<!-- Node21 -->
<g id="Node000021" class="node">
<title>Node21</title>
<g id="a_Node000021"><a xlink:href="classcom_1_1runehive_1_1game_1_1world_1_1position_1_1_position.html#a2b9069341555b2f4482e4091e36c78be" target="_top" xlink:title="Checks if this location is within range of another.">
<ellipse fill="white" stroke="#666666" cx="448.6" cy="-239.81" rx="142.31" ry="25.81"/>
<text xml:space="preserve" text-anchor="start" x="355.97" y="-242.66" font-family="Helvetica,sans-Serif" font-size="12.00">com.runehive.game.world.position.</text>
<text xml:space="preserve" text-anchor="middle" x="448.6" y="-228.41" font-family="Helvetica,sans-Serif" font-size="12.00">Position.isWithinDistance</text>
</a>
</g>
</g>
<!-- Node1&#45;&gt;Node21 -->
<g id="edge23_Node000001_Node000021" class="edge">
<title>Node1&#45;&gt;Node21</title>
<g id="a_edge23_Node000001_Node000021"><a xlink:title=" ">
<path fill="none" stroke="#63b8ff" d="M127.85,-493.79C145.72,-442.89 192.56,-330.29 272.88,-274.81 284.64,-266.68 297.86,-260.35 311.61,-255.43"/>
<polygon fill="#63b8ff" stroke="#63b8ff" points="312.38,-258.86 320.78,-252.41 310.19,-252.21 312.38,-258.86"/>
</a>
</g>
</g>
<!-- Node23 -->
<g id="Node000023" class="node">
<title>Node23</title>
<g id="a_Node000023"><a xlink:href="classcom_1_1runehive_1_1game_1_1world_1_1entity_1_1mob_1_1player_1_1_player.html#a330f0b0f76490448f4c6f8e68ea368c5" target="_top" xlink:title=" ">
<ellipse fill="white" stroke="#666666" cx="448.6" cy="-151.81" rx="175.72" ry="25.81"/>
<text xml:space="preserve" text-anchor="start" x="332.35" y="-154.66" font-family="Helvetica,sans-Serif" font-size="12.00">com.runehive.game.world.entity.mob.player.</text>
<text xml:space="preserve" text-anchor="middle" x="448.6" y="-140.41" font-family="Helvetica,sans-Serif" font-size="12.00">Player.message</text>
</a>
</g>
</g>
<!-- Node1&#45;&gt;Node23 -->
<g id="edge25_Node000001_Node000023" class="edge">
<title>Node1&#45;&gt;Node23</title>
<g id="a_edge25_Node000001_Node000023"><a xlink:title=" ">
<path fill="none" stroke="#63b8ff" d="M124.66,-493.87C138.1,-433.83 179.61,-284.34 272.88,-204.81 287.4,-192.43 304.75,-182.94 322.79,-175.67"/>
<polygon fill="#63b8ff" stroke="#63b8ff" points="323.94,-178.98 332.07,-172.18 321.47,-172.43 323.94,-178.98"/>
</a>
</g>
</g>
<!-- Node24 -->
<g id="Node000024" class="node">
<title>Node24</title>
<g id="a_Node000024"><a xlink:href="classcom_1_1runehive_1_1game_1_1world_1_1entity_1_1mob_1_1player_1_1_player.html#ab8309e5d532b7540f48bf25f8dea92a8" target="_top" xlink:title=" ">
<ellipse fill="white" stroke="#666666" cx="836.03" cy="-124.81" rx="175.72" ry="25.81"/>
<text xml:space="preserve" text-anchor="start" x="719.78" y="-127.66" font-family="Helvetica,sans-Serif" font-size="12.00">com.runehive.game.world.entity.mob.player.</text>
<text xml:space="preserve" text-anchor="middle" x="836.03" y="-113.41" font-family="Helvetica,sans-Serif" font-size="12.00">Player.send</text>
</a>
</g>
</g>
<!-- Node1&#45;&gt;Node24 -->
<g id="edge33_Node000001_Node000024" class="edge">
<title>Node1&#45;&gt;Node24</title>
<g id="a_edge33_Node000001_Node000024"><a xlink:title=" ">
<path fill="none" stroke="#63b8ff" d="M120.01,-493.56C123.21,-419.04 143.74,-205.82 272.88,-116.81 339.26,-71.06 554.05,-87.68 698.08,-105.23"/>
<polygon fill="#63b8ff" stroke="#63b8ff" points="697.33,-108.67 707.68,-106.42 698.19,-101.72 697.33,-108.67"/>
</a>
</g>
</g>
<!-- Node28 -->
<g id="Node000028" class="node">
<title>Node28</title>
<g id="a_Node000028"><a xlink:href="classcom_1_1runehive_1_1game_1_1world_1_1entity_1_1mob_1_1player_1_1_interface_manager.html#adebec4d4ec0e26a757e34f40cd0c7626" target="_top" xlink:title="Opens an interface for the player.">
<ellipse fill="white" stroke="#666666" cx="448.6" cy="-25.81" rx="175.72" ry="25.81"/>
<text xml:space="preserve" text-anchor="start" x="332.35" y="-28.66" font-family="Helvetica,sans-Serif" font-size="12.00">com.runehive.game.world.entity.mob.player.</text>
<text xml:space="preserve" text-anchor="middle" x="448.6" y="-14.41" font-family="Helvetica,sans-Serif" font-size="12.00">InterfaceManager.open</text>
</a>
</g>
</g>
<!-- Node1&#45;&gt;Node28 -->
<g id="edge31_Node000001_Node000028" class="edge">
<title>Node1&#45;&gt;Node28</title>
<g id="a_edge31_Node000001_Node000028"><a xlink:title=" ">
<path fill="none" stroke="#63b8ff" d="M120.92,-493.54C126.55,-418.6 152.95,-201.62 272.88,-83.81 287.76,-69.19 306.41,-58.26 325.94,-50.08"/>
<polygon fill="#63b8ff" stroke="#63b8ff" points="327.1,-53.39 335.13,-46.48 324.54,-46.87 327.1,-53.39"/>
</a>
</g>
</g>
<!-- Node2&#45;&gt;Node3 -->
<g id="edge2_Node000002_Node000003" class="edge">
<title>Node2&#45;&gt;Node3</title>
<g id="a_edge2_Node000002_Node000003"><a xlink:title=" ">
<path fill="none" stroke="#63b8ff" d="M577.4,-975.72C622.16,-981.99 672.2,-989 716.18,-995.16"/>
<polygon fill="#63b8ff" stroke="#63b8ff" points="715.64,-998.62 726.03,-996.54 716.61,-991.68 715.64,-998.62"/>
</a>
</g>
</g>
<!-- Node4 -->
<g id="Node000004" class="node">
<title>Node4</title>
<g id="a_Node000004"><a xlink:href="classcom_1_1runehive_1_1game_1_1world_1_1entity_1_1mob_1_1player_1_1_player.html#adf9cfe5ba15ce88c48c186f2206bd7db" target="_top" xlink:title=" ">
<ellipse fill="white" stroke="#666666" cx="836.03" cy="-941.81" rx="175.72" ry="25.81"/>
<text xml:space="preserve" text-anchor="start" x="719.78" y="-944.66" font-family="Helvetica,sans-Serif" font-size="12.00">com.runehive.game.world.entity.mob.player.</text>
<text xml:space="preserve" text-anchor="middle" x="836.03" y="-930.41" font-family="Helvetica,sans-Serif" font-size="12.00">Player.Player</text>
</a>
</g>
</g>
<!-- Node2&#45;&gt;Node4 -->
<g id="edge3_Node000002_Node000004" class="edge">
<title>Node2&#45;&gt;Node4</title>
<g id="a_edge3_Node000002_Node000004"><a xlink:title=" ">
<path fill="none" stroke="#63b8ff" d="M618.37,-950.8C630.54,-950.3 642.83,-949.79 655.06,-949.28"/>
<polygon fill="#63b8ff" stroke="#63b8ff" points="654.9,-952.79 664.75,-948.88 654.61,-945.8 654.9,-952.79"/>
</a>
</g>
</g>
<!-- Node5 -->
<g id="Node000005" class="node">
<title>Node5</title>
<g id="a_Node000005"><a xlink:href="classcom_1_1runehive_1_1util_1_1_utility.html#a13cc7b1fc7531adccfa698ac2b3b4381" target="_top" xlink:title="Converts the first 12 characters in a string of text to a hash.">
<ellipse fill="white" stroke="#666666" cx="1223.46" cy="-941.81" rx="121.62" ry="25.81"/>
<text xml:space="preserve" text-anchor="start" x="1145.46" y="-944.66" font-family="Helvetica,sans-Serif" font-size="12.00">com.runehive.util.Utility.name</text>
<text xml:space="preserve" text-anchor="middle" x="1223.46" y="-930.41" font-family="Helvetica,sans-Serif" font-size="12.00">ToLong</text>
</a>
</g>
</g>
<!-- Node4&#45;&gt;Node5 -->
<g id="edge4_Node000004_Node000005" class="edge">
<title>Node4&#45;&gt;Node5</title>
<g id="a_edge4_Node000004_Node000005"><a xlink:title=" ">
<path fill="none" stroke="#63b8ff" d="M1011.98,-941.81C1038.22,-941.81 1064.89,-941.81 1090.04,-941.81"/>
<polygon fill="#63b8ff" stroke="#63b8ff" points="1089.97,-945.31 1099.97,-941.81 1089.97,-938.31 1089.97,-945.31"/>
</a>
</g>
</g>
<!-- Node6 -->
<g id="Node000006" class="node">
<title>Node6</title>
<g id="a_Node000006"><a xlink:href="classcom_1_1runehive_1_1util_1_1_utility.html#a31d61a706664cf644fd3780f89897e26" target="_top" xlink:title=" ">
<ellipse fill="white" stroke="#666666" cx="1610.89" cy="-941.81" rx="118.97" ry="15.73"/>
<text xml:space="preserve" text-anchor="middle" x="1610.89" y="-937.53" font-family="Helvetica,sans-Serif" font-size="12.00">com.runehive.util.Utility.hash</text>
</a>
</g>
</g>
<!-- Node5&#45;&gt;Node6 -->
<g id="edge5_Node000005_Node000006" class="edge">
<title>Node5&#45;&gt;Node6</title>
<g id="a_edge5_Node000005_Node000006"><a xlink:title=" ">
<path fill="none" stroke="#63b8ff" d="M1345.36,-941.81C1388.31,-941.81 1436.82,-941.81 1480.46,-941.81"/>
<polygon fill="#63b8ff" stroke="#63b8ff" points="1480.22,-945.31 1490.22,-941.81 1480.22,-938.31 1480.22,-945.31"/>
</a>
</g>
</g>
<!-- Node6&#45;&gt;Node6 -->
<g id="edge6_Node000006_Node000006" class="edge">
<title>Node6&#45;&gt;Node6</title>
<g id="a_edge6_Node000006_Node000006"><a xlink:title=" ">
<path fill="none" stroke="#63b8ff" d="M1546.83,-955.32C1524.46,-965.39 1545.82,-975.54 1610.89,-975.54 1659.7,-975.54 1683.91,-969.83 1683.53,-962.73"/>
<polygon fill="#63b8ff" stroke="#63b8ff" points="1685.95,-960.19 1676.1,-956.31 1681.38,-965.49 1685.95,-960.19"/>
</a>
</g>
</g>
<!-- Node10&#45;&gt;Node10 -->
<g id="edge11_Node000010_Node000010" class="edge">
<title>Node10&#45;&gt;Node10</title>
<g id="a_edge11_Node000010_Node000010"><a xlink:title=" ">
<path fill="none" stroke="#63b8ff" d="M387.43,-684.14C382.43,-694.63 402.81,-703.62 448.6,-703.62 477.93,-703.62 496.83,-699.93 505.32,-694.52"/>
<polygon fill="#63b8ff" stroke="#63b8ff" points="508.45,-696.1 509.17,-685.53 502.02,-693.35 508.45,-696.1"/>
</a>
</g>
</g>
<!-- Node12 -->
<g id="Node000012" class="node">
<title>Node12</title>
<g id="a_Node000012"><a xlink:href="classcom_1_1runehive_1_1util_1_1_utility.html#a04d5eb201f824f0f367a9fb60f2f2814" target="_top" xlink:title=" ">
<ellipse fill="white" stroke="#666666" cx="836.03" cy="-589.81" rx="146.55" ry="15.73"/>
<text xml:space="preserve" text-anchor="middle" x="836.03" y="-585.53" font-family="Helvetica,sans-Serif" font-size="12.00">com.runehive.util.Utility.formatName</text>
</a>
</g>
</g>
<!-- Node11&#45;&gt;Node12 -->
<g id="edge14_Node000011_Node000012" class="edge">
<title>Node11&#45;&gt;Node12</title>
<g id="a_edge14_Node000011_Node000012"><a xlink:title=" ">
<path fill="none" stroke="#63b8ff" d="M624.55,-589.81C642.26,-589.81 660.18,-589.81 677.69,-589.81"/>
<polygon fill="#63b8ff" stroke="#63b8ff" points="677.62,-593.31 687.62,-589.81 677.62,-586.31 677.62,-593.31"/>
</a>
</g>
</g>
<!-- Node16 -->
<g id="Node000016" class="node">
<title>Node16</title>
<g id="a_Node000016"><a xlink:href="classcom_1_1runehive_1_1content_1_1prestige_1_1_prestige.html#aa714e1696d3e894c05f69245c8d85961" target="_top" xlink:title="Gets the prestige color based on the tier.">
<ellipse fill="white" stroke="#666666" cx="836.03" cy="-379.81" rx="126.4" ry="25.81"/>
<text xml:space="preserve" text-anchor="start" x="754.65" y="-382.66" font-family="Helvetica,sans-Serif" font-size="12.00">com.runehive.content.prestige.</text>
<text xml:space="preserve" text-anchor="middle" x="836.03" y="-368.41" font-family="Helvetica,sans-Serif" font-size="12.00">Prestige.getColor</text>
</a>
</g>
</g>
<!-- Node15&#45;&gt;Node16 -->
<g id="edge18_Node000015_Node000016" class="edge">
<title>Node15&#45;&gt;Node16</title>
<g id="a_edge18_Node000015_Node000016"><a xlink:title=" ">
<path fill="none" stroke="#63b8ff" d="M575.27,-379.81C614.44,-379.81 657.84,-379.81 697.76,-379.81"/>
<polygon fill="#63b8ff" stroke="#63b8ff" points="697.69,-383.31 707.68,-379.81 697.68,-376.31 697.69,-383.31"/>
</a>
</g>
</g>
<!-- Node18 -->
<g id="Node000018" class="node">
<title>Node18</title>
<g id="a_Node000018"><a xlink:href="enumcom_1_1runehive_1_1game_1_1world_1_1entity_1_1mob_1_1player_1_1_player_right.html#afab72025e49a88f61a6760f96466b63c" target="_top" xlink:title="Checks if the player is a privileged member.">
<ellipse fill="white" stroke="#666666" cx="836.03" cy="-309.81" rx="175.72" ry="25.81"/>
<text xml:space="preserve" text-anchor="start" x="719.78" y="-312.66" font-family="Helvetica,sans-Serif" font-size="12.00">com.runehive.game.world.entity.mob.player.</text>
<text xml:space="preserve" text-anchor="middle" x="836.03" y="-298.41" font-family="Helvetica,sans-Serif" font-size="12.00">PlayerRight.isAdministrator</text>
</a>
</g>
</g>
<!-- Node17&#45;&gt;Node18 -->
<g id="edge20_Node000017_Node000018" class="edge">
<title>Node17&#45;&gt;Node18</title>
<g id="a_edge20_Node000017_Node000018"><a xlink:title=" ">
<path fill="none" stroke="#63b8ff" d="M624.55,-309.81C632.53,-309.81 640.55,-309.81 648.56,-309.81"/>
<polygon fill="#63b8ff" stroke="#63b8ff" points="648.35,-313.31 658.35,-309.81 648.35,-306.31 648.35,-313.31"/>
</a>
</g>
</g>
<!-- Node19 -->
<g id="Node000019" class="node">
<title>Node19</title>
<g id="a_Node000019"><a xlink:href="enumcom_1_1runehive_1_1game_1_1world_1_1entity_1_1mob_1_1player_1_1_player_right.html#a4d6b840fc2aa0c1010ce011085e509bb" target="_top" xlink:title="Checks if the player is a privileged member.">
<ellipse fill="white" stroke="#666666" cx="1223.46" cy="-309.81" rx="175.72" ry="25.81"/>
<text xml:space="preserve" text-anchor="start" x="1107.21" y="-312.66" font-family="Helvetica,sans-Serif" font-size="12.00">com.runehive.game.world.entity.mob.player.</text>
<text xml:space="preserve" text-anchor="middle" x="1223.46" y="-298.41" font-family="Helvetica,sans-Serif" font-size="12.00">PlayerRight.isManager</text>
</a>
</g>
</g>
<!-- Node18&#45;&gt;Node19 -->
<g id="edge21_Node000018_Node000019" class="edge">
<title>Node18&#45;&gt;Node19</title>
<g id="a_edge21_Node000018_Node000019"><a xlink:title=" ">
<path fill="none" stroke="#63b8ff" d="M1011.98,-309.81C1019.96,-309.81 1027.99,-309.81 1035.99,-309.81"/>
<polygon fill="#63b8ff" stroke="#63b8ff" points="1035.79,-313.31 1045.79,-309.81 1035.79,-306.31 1035.79,-313.31"/>
</a>
</g>
</g>
<!-- Node20 -->
<g id="Node000020" class="node">
<title>Node20</title>
<g id="a_Node000020"><a xlink:href="enumcom_1_1runehive_1_1game_1_1world_1_1entity_1_1mob_1_1player_1_1_player_right.html#ab172498577cbeded823a06bb1726a849" target="_top" xlink:title="Checks if the player has developer status.">
<ellipse fill="white" stroke="#666666" cx="1610.89" cy="-309.81" rx="175.72" ry="25.81"/>
<text xml:space="preserve" text-anchor="start" x="1494.64" y="-312.66" font-family="Helvetica,sans-Serif" font-size="12.00">com.runehive.game.world.entity.mob.player.</text>
<text xml:space="preserve" text-anchor="middle" x="1610.89" y="-298.41" font-family="Helvetica,sans-Serif" font-size="12.00">PlayerRight.isDeveloper</text>
</a>
</g>
</g>
<!-- Node19&#45;&gt;Node20 -->
<g id="edge22_Node000019_Node000020" class="edge">
<title>Node19&#45;&gt;Node20</title>
<g id="a_edge22_Node000019_Node000020"><a xlink:title=" ">
<path fill="none" stroke="#63b8ff" d="M1399.41,-309.81C1407.4,-309.81 1415.42,-309.81 1423.43,-309.81"/>
<polygon fill="#63b8ff" stroke="#63b8ff" points="1423.22,-313.31 1433.22,-309.81 1423.22,-306.31 1423.22,-313.31"/>
</a>
</g>
</g>
<!-- Node22 -->
<g id="Node000022" class="node">
<title>Node22</title>
<g id="a_Node000022"><a xlink:href="classcom_1_1runehive_1_1game_1_1world_1_1position_1_1_position.html#a7803ff05a7b4b99d2883898ade9427f7" target="_top" xlink:title="Creates a location with a default height of 0.">
<ellipse fill="white" stroke="#666666" cx="836.03" cy="-239.81" rx="142.31" ry="25.81"/>
<text xml:space="preserve" text-anchor="start" x="743.4" y="-242.66" font-family="Helvetica,sans-Serif" font-size="12.00">com.runehive.game.world.position.</text>
<text xml:space="preserve" text-anchor="middle" x="836.03" y="-228.41" font-family="Helvetica,sans-Serif" font-size="12.00">Position.Position</text>
</a>
</g>
</g>
<!-- Node21&#45;&gt;Node22 -->
<g id="edge24_Node000021_Node000022" class="edge">
<title>Node21&#45;&gt;Node22</title>
<g id="a_edge24_Node000021_Node000022"><a xlink:title=" ">
<path fill="none" stroke="#63b8ff" d="M591.2,-239.81C620.72,-239.81 651.96,-239.81 681.87,-239.81"/>
<polygon fill="#63b8ff" stroke="#63b8ff" points="681.75,-243.31 691.75,-239.81 681.75,-236.31 681.75,-243.31"/>
</a>
</g>
</g>
<!-- Node23&#45;&gt;Node23 -->
<g id="edge26_Node000023_Node000023" class="edge">
<title>Node23&#45;&gt;Node23</title>
<g id="a_edge26_Node000023_Node000023"><a xlink:title=" ">
<path fill="none" stroke="#63b8ff" d="M387.43,-176.14C382.43,-186.63 402.81,-195.62 448.6,-195.62 477.93,-195.62 496.83,-191.93 505.32,-186.52"/>
<polygon fill="#63b8ff" stroke="#63b8ff" points="508.45,-188.1 509.17,-177.53 502.02,-185.35 508.45,-188.1"/>
</a>
</g>
</g>
<!-- Node23&#45;&gt;Node24 -->
<g id="edge27_Node000023_Node000024" class="edge">
<title>Node23&#45;&gt;Node24</title>
<g id="a_edge27_Node000023_Node000024"><a xlink:title=" ">
<path fill="none" stroke="#63b8ff" d="M608.04,-140.71C626.87,-139.39 646.15,-138.04 665.13,-136.71"/>
<polygon fill="#63b8ff" stroke="#63b8ff" points="665.34,-140.2 675.07,-136.01 664.85,-133.22 665.34,-140.2"/>
</a>
</g>
</g>
<!-- Node25 -->
<g id="Node000025" class="node">
<title>Node25</title>
<g id="a_Node000025"><a xlink:href="classcom_1_1runehive_1_1net_1_1packet_1_1_outgoing_packet.html#a3dde4d77b8c8bbd686b8e121fd6514a7" target="_top" xlink:title=" ">
<ellipse fill="white" stroke="#666666" cx="1223.46" cy="-124.81" rx="105.18" ry="25.81"/>
<text xml:space="preserve" text-anchor="start" x="1157.09" y="-127.66" font-family="Helvetica,sans-Serif" font-size="12.00">com.runehive.net.packet.</text>
<text xml:space="preserve" text-anchor="middle" x="1223.46" y="-113.41" font-family="Helvetica,sans-Serif" font-size="12.00">OutgoingPacket.execute</text>
</a>
</g>
</g>
<!-- Node24&#45;&gt;Node25 -->
<g id="edge28_Node000024_Node000025" class="edge">
<title>Node24&#45;&gt;Node25</title>
<g id="a_edge28_Node000024_Node000025"><a xlink:title=" ">
<path fill="none" stroke="#63b8ff" d="M1011.98,-124.81C1044.1,-124.81 1076.88,-124.81 1106.72,-124.81"/>
<polygon fill="#63b8ff" stroke="#63b8ff" points="1106.49,-128.31 1116.49,-124.81 1106.49,-121.31 1106.49,-128.31"/>
</a>
</g>
</g>
<!-- Node26 -->
<g id="Node000026" class="node">
<title>Node26</title>
<g id="a_Node000026"><a xlink:href="classcom_1_1runehive_1_1net_1_1packet_1_1_outgoing_packet.html#a74fc13c106ab76f87daec1e8bab6a2a1" target="_top" xlink:title=" ">
<ellipse fill="white" stroke="#666666" cx="1610.89" cy="-159.81" rx="105.18" ry="25.81"/>
<text xml:space="preserve" text-anchor="start" x="1544.52" y="-162.66" font-family="Helvetica,sans-Serif" font-size="12.00">com.runehive.net.packet.</text>
<text xml:space="preserve" text-anchor="middle" x="1610.89" y="-148.41" font-family="Helvetica,sans-Serif" font-size="12.00">OutgoingPacket.encode</text>
</a>
</g>
</g>
<!-- Node25&#45;&gt;Node26 -->
<g id="edge29_Node000025_Node000026" class="edge">
<title>Node25&#45;&gt;Node26</title>
<g id="a_edge29_Node000025_Node000026"><a xlink:title=" ">
<path fill="none" stroke="#63b8ff" d="M1322.72,-133.73C1376.97,-138.66 1444.49,-144.79 1500.43,-149.87"/>
<polygon fill="#63b8ff" stroke="#63b8ff" points="1500.03,-153.35 1510.31,-150.77 1500.66,-146.38 1500.03,-153.35"/>
</a>
</g>
</g>
<!-- Node27 -->
<g id="Node000027" class="node">
<title>Node27</title>
<g id="a_Node000027"><a xlink:href="classcom_1_1runehive_1_1game_1_1world_1_1entity_1_1mob_1_1player_1_1_player.html#a908fb61974719a74180d6300b838bfe1" target="_top" xlink:title=" ">
<ellipse fill="white" stroke="#666666" cx="1610.89" cy="-89.81" rx="175.72" ry="25.81"/>
<text xml:space="preserve" text-anchor="start" x="1494.64" y="-92.66" font-family="Helvetica,sans-Serif" font-size="12.00">com.runehive.game.world.entity.mob.player.</text>
<text xml:space="preserve" text-anchor="middle" x="1610.89" y="-78.41" font-family="Helvetica,sans-Serif" font-size="12.00">Player.getSession</text>
</a>
</g>
</g>
<!-- Node25&#45;&gt;Node27 -->
<g id="edge30_Node000025_Node000027" class="edge">
<title>Node25&#45;&gt;Node27</title>
<g id="a_edge30_Node000025_Node000027"><a xlink:title=" ">
<path fill="none" stroke="#63b8ff" d="M1322.72,-115.89C1361.01,-112.41 1405.9,-108.33 1448.67,-104.45"/>
<polygon fill="#63b8ff" stroke="#63b8ff" points="1448.93,-107.94 1458.57,-103.55 1448.29,-100.97 1448.93,-107.94"/>
</a>
</g>
</g>
<!-- Node28&#45;&gt;Node28 -->
<g id="edge32_Node000028_Node000028" class="edge">
<title>Node28&#45;&gt;Node28</title>
<g id="a_edge32_Node000028_Node000028"><a xlink:title=" ">
<path fill="none" stroke="#63b8ff" d="M387.43,-50.14C382.43,-60.63 402.81,-69.62 448.6,-69.62 477.93,-69.62 496.83,-65.93 505.32,-60.52"/>
<polygon fill="#63b8ff" stroke="#63b8ff" points="508.45,-62.1 509.17,-51.53 502.02,-59.35 508.45,-62.1"/>
</a>
</g>
</g>
</g>
</svg>

<g id="navigator" transform="translate(0 0)" fill="#404254">
  <rect fill="#f2f5e9" fill-opacity="0.5" stroke="#606060" stroke-width=".5" x="0" y="0" width="60" height="60"/>
  <use id="zoomplus" xlink:href="#zoomPlus" x="17" y="9" onmousedown="handleZoom(evt,'in')"/>
  <use id="zoomminus" xlink:href="#zoomMin" x="42" y="9" onmousedown="handleZoom(evt,'out')"/>
  <use id="reset" xlink:href="#resetDef" x="30" y="36" onmousedown="handleReset()"/>
   <use id="arrowup" xlink:href="#arrowUp" x="0" y="0" onmousedown="handlePan(0,-1)"/>
  <use id="arrowright" xlink:href="#arrowRight" x="0" y="0" onmousedown="handlePan(1,0)"/>
  <use id="arrowdown" xlink:href="#arrowDown" x="0" y="0" onmousedown="handlePan(0,1)"/>
  <use id="arrowleft" xlink:href="#arrowLeft" x="0" y="0" onmousedown="handlePan(-1,0)"/>
</g>
<svg viewBox="0 0 15 15" width="100%" height="30px" preserveAspectRatio="xMaxYMin meet">
 <g id="arrow_out" transform="scale(0.3 0.3)">
  <a xlink:href="classcom_1_1runehive_1_1content_1_1_profile_viewer_a13548b334e0884ba966b712f2d2d08c1_cgraph_org.svg" target="_base">
   <rect id="button" ry="5" rx="5" y="6" x="6" height="38" width="38"
        fill="#f2f5e9" fill-opacity="0.5" stroke="#606060" stroke-width="1.0"/>
   <path id="arrow"
     d="M 11.500037,31.436501 C 11.940474,20.09759 22.043105,11.32322 32.158766,21.979434 L 37.068811,17.246167 C 37.068811,17.246167 37.088388,32 37.088388,32 L 22.160133,31.978069 C 22.160133,31.978069 26.997745,27.140456 26.997745,27.140456 C 18.528582,18.264221 13.291696,25.230495 11.500037,31.436501 z"
     style="fill:#404040;"/>
  </a>
 </g>
</svg>

<style type='text/css'>
<![CDATA[
[data-mouse-over-selected='false'] { opacity: 0.7; }
[data-mouse-over-selected='true']  { opacity: 1.0; }
]]>
</style>
<script type="application/ecmascript"><![CDATA[
document.addEventListener('DOMContentLoaded', (event) => {
  highlightEdges();
  highlightAdjacentNodes();
});
]]></script>
</svg>
