<?xml version="1.0" encoding="UTF-8" standalone="no"?>
<!DOCTYPE svg PUBLIC "-//W3C//DTD SVG 1.1//EN"
 "http://www.w3.org/Graphics/SVG/1.1/DTD/svg11.dtd">
<!-- Generated by graphviz version 14.0.1 (20251006.0113)
 -->
<!-- Title: com.runehive.content.tradingpost.TradingPost.getOrMakeNewCofferIfNotExists Pages: 1 -->
<svg width="2055pt" height="211pt"
 viewBox="0.00 0.00 2055.00 211.00" xmlns="http://www.w3.org/2000/svg" xmlns:xlink="http://www.w3.org/1999/xlink">
<g id="graph0" class="graph" transform="scale(1 1) rotate(0) translate(4 206.62)">
<title>com.runehive.content.tradingpost.TradingPost.getOrMakeNewCofferIfNotExists</title>
<!-- Node1 -->
<g id="Node000001" class="node">
<title>Node1</title>
<g id="a_Node000001"><a xlink:title=" ">
<ellipse fill="#999999" stroke="#666666" cx="1865.74" cy="-91.81" rx="181.02" ry="25.81"/>
<text xml:space="preserve" text-anchor="start" x="1745.74" y="-94.66" font-family="Helvetica,sans-Serif" font-size="12.00">com.runehive.content.tradingpost.</text>
<text xml:space="preserve" text-anchor="middle" x="1865.74" y="-80.41" font-family="Helvetica,sans-Serif" font-size="12.00">TradingPost.getOrMakeNewCofferIfNotExists</text>
</a>
</g>
</g>
<!-- Node2 -->
<g id="Node000002" class="node">
<title>Node2</title>
<g id="a_Node000002"><a xlink:href="classcom_1_1runehive_1_1content_1_1tradingpost_1_1_trading_post.html#a1edc841066fcf647cd9ff7118c7dac26" target="_top" xlink:title=" ">
<ellipse fill="white" stroke="#666666" cx="1510.66" cy="-153.81" rx="138.06" ry="25.81"/>
<text xml:space="preserve" text-anchor="start" x="1421.04" y="-156.66" font-family="Helvetica,sans-Serif" font-size="12.00">com.runehive.content.tradingpost.</text>
<text xml:space="preserve" text-anchor="middle" x="1510.66" y="-142.41" font-family="Helvetica,sans-Serif" font-size="12.00">TradingPost.addToCoffer</text>
</a>
</g>
</g>
<!-- Node1&#45;&gt;Node2 -->
<g id="edge1_Node000001_Node000002" class="edge">
<title>Node1&#45;&gt;Node2</title>
<g id="a_edge1_Node000001_Node000002"><a xlink:title=" ">
<path fill="none" stroke="#63b8ff" d="M1738.37,-114C1697.09,-121.25 1651.82,-129.2 1612.66,-136.07"/>
<polygon fill="#63b8ff" stroke="#63b8ff" points="1738.88,-117.46 1748.13,-112.29 1737.67,-110.57 1738.88,-117.46"/>
</a>
</g>
</g>
<!-- Node7 -->
<g id="Node000007" class="node">
<title>Node7</title>
<g id="a_Node000007"><a xlink:href="classcom_1_1runehive_1_1content_1_1tradingpost_1_1_trading_post.html#aa5db689a1bb6a259f54d1b080a701cb0" target="_top" xlink:title=" ">
<ellipse fill="white" stroke="#666666" cx="1173.08" cy="-91.81" rx="163.52" ry="25.81"/>
<text xml:space="preserve" text-anchor="start" x="1065.45" y="-94.66" font-family="Helvetica,sans-Serif" font-size="12.00">com.runehive.content.tradingpost.</text>
<text xml:space="preserve" text-anchor="middle" x="1173.08" y="-80.41" font-family="Helvetica,sans-Serif" font-size="12.00">TradingPost.updateCofferAmountWidget</text>
</a>
</g>
</g>
<!-- Node1&#45;&gt;Node7 -->
<g id="edge6_Node000001_Node000007" class="edge">
<title>Node1&#45;&gt;Node7</title>
<g id="a_edge6_Node000001_Node000007"><a xlink:title=" ">
<path fill="none" stroke="#63b8ff" d="M1673.18,-91.81C1567.52,-91.81 1437.72,-91.81 1336.98,-91.81"/>
<polygon fill="#63b8ff" stroke="#63b8ff" points="1673.12,-95.31 1683.12,-91.81 1673.12,-88.31 1673.12,-95.31"/>
</a>
</g>
</g>
<!-- Node10 -->
<g id="Node000010" class="node">
<title>Node10</title>
<g id="a_Node000010"><a xlink:href="classcom_1_1runehive_1_1content_1_1tradingpost_1_1_trading_post.html#a4d79bdc303aa1c82381df1b7ef2b61be" target="_top" xlink:title=" ">
<ellipse fill="white" stroke="#666666" cx="825.42" cy="-25.81" rx="138.06" ry="25.81"/>
<text xml:space="preserve" text-anchor="start" x="735.8" y="-28.66" font-family="Helvetica,sans-Serif" font-size="12.00">com.runehive.content.tradingpost.</text>
<text xml:space="preserve" text-anchor="middle" x="825.42" y="-14.41" font-family="Helvetica,sans-Serif" font-size="12.00">TradingPost.withdrawFromCoffer</text>
</a>
</g>
</g>
<!-- Node1&#45;&gt;Node10 -->
<g id="edge13_Node000001_Node000010" class="edge">
<title>Node1&#45;&gt;Node10</title>
<g id="a_edge13_Node000001_Node000010"><a xlink:title=" ">
<path fill="none" stroke="#63b8ff" d="M1689.76,-79.97C1586.92,-73.07 1454.38,-64.29 1336.6,-56.81 1207.86,-48.63 1060.81,-39.75 957.77,-33.59"/>
<polygon fill="#63b8ff" stroke="#63b8ff" points="1689.47,-83.46 1699.68,-80.64 1689.94,-76.48 1689.47,-83.46"/>
</a>
</g>
</g>
<!-- Node3 -->
<g id="Node000003" class="node">
<title>Node3</title>
<g id="a_Node000003"><a xlink:href="classcom_1_1runehive_1_1content_1_1tradingpost_1_1_trading_post.html#a16a7c9e73cb8f49283a2378de17ddf0b" target="_top" xlink:title=" ">
<ellipse fill="white" stroke="#666666" cx="1173.08" cy="-165.81" rx="138.06" ry="25.81"/>
<text xml:space="preserve" text-anchor="start" x="1083.45" y="-168.66" font-family="Helvetica,sans-Serif" font-size="12.00">com.runehive.content.tradingpost.</text>
<text xml:space="preserve" text-anchor="middle" x="1173.08" y="-154.41" font-family="Helvetica,sans-Serif" font-size="12.00">TradingPost.purchase</text>
</a>
</g>
</g>
<!-- Node2&#45;&gt;Node3 -->
<g id="edge2_Node000002_Node000003" class="edge">
<title>Node2&#45;&gt;Node3</title>
<g id="a_edge2_Node000002_Node000003"><a xlink:title=" ">
<path fill="none" stroke="#63b8ff" d="M1363.17,-159.05C1345.21,-159.69 1326.91,-160.34 1309.12,-160.98"/>
<polygon fill="#63b8ff" stroke="#63b8ff" points="1363.24,-162.55 1373.1,-158.69 1362.99,-155.55 1363.24,-162.55"/>
</a>
</g>
</g>
<!-- Node4 -->
<g id="Node000004" class="node">
<title>Node4</title>
<g id="a_Node000004"><a xlink:href="classcom_1_1runehive_1_1content_1_1tradingpost_1_1_trading_post.html#a770f1d7ebfac91146e44bc93f5ac1e11" target="_top" xlink:title=" ">
<ellipse fill="white" stroke="#666666" cx="825.42" cy="-170.81" rx="148.14" ry="25.81"/>
<text xml:space="preserve" text-anchor="start" x="728.67" y="-173.66" font-family="Helvetica,sans-Serif" font-size="12.00">com.runehive.content.tradingpost.</text>
<text xml:space="preserve" text-anchor="middle" x="825.42" y="-159.41" font-family="Helvetica,sans-Serif" font-size="12.00">TradingPost.buyingDialogueOptions</text>
</a>
</g>
</g>
<!-- Node3&#45;&gt;Node4 -->
<g id="edge3_Node000003_Node000004" class="edge">
<title>Node3&#45;&gt;Node4</title>
<g id="a_edge3_Node000003_Node000004"><a xlink:title=" ">
<path fill="none" stroke="#63b8ff" d="M1023.51,-167.96C1006.87,-168.2 989.93,-168.44 973.31,-168.68"/>
<polygon fill="#63b8ff" stroke="#63b8ff" points="1023.51,-171.46 1033.46,-167.81 1023.41,-164.46 1023.51,-171.46"/>
</a>
</g>
</g>
<!-- Node5 -->
<g id="Node000005" class="node">
<title>Node5</title>
<g id="a_Node000005"><a xlink:href="classcom_1_1runehive_1_1content_1_1tradingpost_1_1_trading_post.html#a20278fe5d8ebd0127e237d81109ccb7c" target="_top" xlink:title=" ">
<ellipse fill="white" stroke="#666666" cx="476.7" cy="-176.81" rx="138.06" ry="25.81"/>
<text xml:space="preserve" text-anchor="start" x="387.08" y="-179.66" font-family="Helvetica,sans-Serif" font-size="12.00">com.runehive.content.tradingpost.</text>
<text xml:space="preserve" text-anchor="middle" x="476.7" y="-165.41" font-family="Helvetica,sans-Serif" font-size="12.00">TradingPost.handleBuyingButton</text>
</a>
</g>
</g>
<!-- Node4&#45;&gt;Node5 -->
<g id="edge4_Node000004_Node000005" class="edge">
<title>Node4&#45;&gt;Node5</title>
<g id="a_edge4_Node000004_Node000005"><a xlink:title=" ">
<path fill="none" stroke="#63b8ff" d="M666.34,-173.55C649.1,-173.84 631.65,-174.15 614.69,-174.44"/>
<polygon fill="#63b8ff" stroke="#63b8ff" points="666.18,-177.05 676.12,-173.38 666.06,-170.05 666.18,-177.05"/>
</a>
</g>
</g>
<!-- Node6 -->
<g id="Node000006" class="node">
<title>Node6</title>
<g id="a_Node000006"><a xlink:href="classcom_1_1runehive_1_1content_1_1tradingpost_1_1_trading_post.html#a35f877dfbc040301d543d5cb756cc251" target="_top" xlink:title=" ">
<ellipse fill="white" stroke="#666666" cx="138.06" cy="-95.81" rx="138.06" ry="25.81"/>
<text xml:space="preserve" text-anchor="start" x="48.44" y="-98.66" font-family="Helvetica,sans-Serif" font-size="12.00">com.runehive.content.tradingpost.</text>
<text xml:space="preserve" text-anchor="middle" x="138.06" y="-84.41" font-family="Helvetica,sans-Serif" font-size="12.00">TradingPost.handleButtonClick</text>
</a>
</g>
</g>
<!-- Node5&#45;&gt;Node6 -->
<g id="edge5_Node000005_Node000006" class="edge">
<title>Node5&#45;&gt;Node6</title>
<g id="a_edge5_Node000005_Node000006"><a xlink:title=" ">
<path fill="none" stroke="#63b8ff" d="M379.41,-153.64C330.5,-141.87 271.61,-127.7 224.36,-116.33"/>
<polygon fill="#63b8ff" stroke="#63b8ff" points="378.31,-156.97 388.85,-155.91 379.94,-150.17 378.31,-156.97"/>
</a>
</g>
</g>
<!-- Node8 -->
<g id="Node000008" class="node">
<title>Node8</title>
<g id="a_Node000008"><a xlink:href="classcom_1_1runehive_1_1content_1_1tradingpost_1_1_trading_post.html#a7581ef76ec6ab5149343d88bb4bfaf7f" target="_top" xlink:title=" ">
<ellipse fill="white" stroke="#666666" cx="825.42" cy="-95.81" rx="146.02" ry="25.81"/>
<text xml:space="preserve" text-anchor="start" x="730.17" y="-98.66" font-family="Helvetica,sans-Serif" font-size="12.00">com.runehive.content.tradingpost.</text>
<text xml:space="preserve" text-anchor="middle" x="825.42" y="-84.41" font-family="Helvetica,sans-Serif" font-size="12.00">TradingPost.openOverviewInterface</text>
</a>
</g>
</g>
<!-- Node7&#45;&gt;Node8 -->
<g id="edge7_Node000007_Node000008" class="edge">
<title>Node7&#45;&gt;Node8</title>
<g id="a_edge7_Node000007_Node000008"><a xlink:title=" ">
<path fill="none" stroke="#63b8ff" d="M998.3,-93.82C989.35,-93.92 980.4,-94.03 971.56,-94.13"/>
<polygon fill="#63b8ff" stroke="#63b8ff" points="998.15,-97.32 1008.11,-93.71 998.07,-90.32 998.15,-97.32"/>
</a>
</g>
</g>
<!-- Node7&#45;&gt;Node10 -->
<g id="edge11_Node000007_Node000010" class="edge">
<title>Node7&#45;&gt;Node10</title>
<g id="a_edge11_Node000007_Node000010"><a xlink:title=" ">
<path fill="none" stroke="#63b8ff" d="M1056.29,-69.7C1013.13,-61.46 964.63,-52.2 923.34,-44.31"/>
<polygon fill="#63b8ff" stroke="#63b8ff" points="1055.47,-73.11 1065.95,-71.54 1056.78,-66.23 1055.47,-73.11"/>
</a>
</g>
</g>
<!-- Node8&#45;&gt;Node6 -->
<g id="edge8_Node000008_Node000006" class="edge">
<title>Node8&#45;&gt;Node6</title>
<g id="a_edge8_Node000008_Node000006"><a xlink:title=" ">
<path fill="none" stroke="#63b8ff" d="M672.48,-102.96C661.93,-103.3 651.45,-103.59 641.28,-103.81 495.03,-107 458.38,-107.19 312.13,-103.81 299.04,-103.51 285.41,-103.08 271.79,-102.57"/>
<polygon fill="#63b8ff" stroke="#63b8ff" points="672.57,-106.46 682.45,-102.62 672.33,-99.46 672.57,-106.46"/>
</a>
</g>
</g>
<!-- Node9 -->
<g id="Node000009" class="node">
<title>Node9</title>
<g id="a_Node000009"><a xlink:href="classcom_1_1runehive_1_1content_1_1tradingpost_1_1_trading_post.html#a28058763802852e223b13865f39d4cac" target="_top" xlink:title=" ">
<ellipse fill="white" stroke="#666666" cx="476.7" cy="-68.81" rx="164.58" ry="25.81"/>
<text xml:space="preserve" text-anchor="start" x="368.33" y="-71.66" font-family="Helvetica,sans-Serif" font-size="12.00">com.runehive.content.tradingpost.</text>
<text xml:space="preserve" text-anchor="middle" x="476.7" y="-57.41" font-family="Helvetica,sans-Serif" font-size="12.00">TradingPost.handleDismissListingButton</text>
</a>
</g>
</g>
<!-- Node8&#45;&gt;Node9 -->
<g id="edge9_Node000008_Node000009" class="edge">
<title>Node8&#45;&gt;Node9</title>
<g id="a_edge9_Node000008_Node000009"><a xlink:title=" ">
<path fill="none" stroke="#63b8ff" d="M679.43,-84.52C661.45,-83.12 643.04,-81.68 625.03,-80.28"/>
<polygon fill="#63b8ff" stroke="#63b8ff" points="679.12,-88 689.36,-85.29 679.66,-81.03 679.12,-88"/>
</a>
</g>
</g>
<!-- Node9&#45;&gt;Node6 -->
<g id="edge10_Node000009_Node000006" class="edge">
<title>Node9&#45;&gt;Node6</title>
<g id="a_edge10_Node000009_Node000006"><a xlink:title=" ">
<path fill="none" stroke="#63b8ff" d="M318.05,-81.45C300.55,-82.86 282.9,-84.27 265.85,-85.64"/>
<polygon fill="#63b8ff" stroke="#63b8ff" points="318.32,-84.94 328.01,-80.66 317.76,-77.97 318.32,-84.94"/>
</a>
</g>
</g>
<!-- Node10&#45;&gt;Node6 -->
<g id="edge12_Node000010_Node000006" class="edge">
<title>Node10&#45;&gt;Node6</title>
<g id="a_edge12_Node000010_Node000006"><a xlink:title=" ">
<path fill="none" stroke="#63b8ff" d="M684.96,-15.76C581.26,-11.23 436.76,-11.15 312.13,-33.81 270.52,-41.37 225.62,-57.72 191.98,-71.72"/>
<polygon fill="#63b8ff" stroke="#63b8ff" points="684.79,-19.25 694.94,-16.21 685.11,-12.26 684.79,-19.25"/>
</a>
</g>
</g>
</g>
</svg>
