<?xml version="1.0" encoding="UTF-8" standalone="no"?>
<!DOCTYPE svg PUBLIC "-//W3C//DTD SVG 1.1//EN"
 "http://www.w3.org/Graphics/SVG/1.1/DTD/svg11.dtd">
<!-- Generated by graphviz version 14.0.1 (20251006.0113)
 -->
<!-- Title: com.runehive.net.packet.out.SendPlayerUpdate.appendSecondHitMask Pages: 1 -->
<svg width="1421pt" height="638pt"
 viewBox="0.00 0.00 1421.00 638.00" xmlns="http://www.w3.org/2000/svg" xmlns:xlink="http://www.w3.org/1999/xlink">
<g id="graph0" class="graph" transform="scale(1 1) rotate(0) translate(4 633.62)">
<title>com.runehive.net.packet.out.SendPlayerUpdate.appendSecondHitMask</title>
<!-- Node1 -->
<g id="Node000001" class="node">
<title>Node1</title>
<g id="a_Node000001"><a xlink:title=" ">
<ellipse fill="#999999" stroke="#666666" cx="174.13" cy="-323.81" rx="174.13" ry="25.81"/>
<text xml:space="preserve" text-anchor="start" x="59" y="-326.66" font-family="Helvetica,sans-Serif" font-size="12.00">com.runehive.net.packet.out.</text>
<text xml:space="preserve" text-anchor="middle" x="174.13" y="-312.41" font-family="Helvetica,sans-Serif" font-size="12.00">SendPlayerUpdate.appendSecondHitMask</text>
</a>
</g>
</g>
<!-- Node2 -->
<g id="Node000002" class="node">
<title>Node2</title>
<g id="a_Node000002"><a xlink:href="classcom_1_1runehive_1_1game_1_1world_1_1entity_1_1mob_1_1_mob.html#a7f9f09a886babdf286840872110bb538" target="_top" xlink:title=" ">
<ellipse fill="white" stroke="#666666" cx="557.31" cy="-603.81" rx="150.79" ry="25.81"/>
<text xml:space="preserve" text-anchor="start" x="458.69" y="-606.66" font-family="Helvetica,sans-Serif" font-size="12.00">com.runehive.game.world.entity.mob.</text>
<text xml:space="preserve" text-anchor="middle" x="557.31" y="-592.41" font-family="Helvetica,sans-Serif" font-size="12.00">Mob.getCurrentHealth</text>
</a>
</g>
</g>
<!-- Node1&#45;&gt;Node2 -->
<g id="edge1_Node000001_Node000002" class="edge">
<title>Node1&#45;&gt;Node2</title>
<g id="a_edge1_Node000001_Node000002"><a xlink:title=" ">
<path fill="none" stroke="#63b8ff" d="M189.31,-349.87C218.51,-400.85 290.54,-513.59 384.25,-568.81 395.96,-575.71 408.81,-581.27 422.05,-585.74"/>
<polygon fill="#63b8ff" stroke="#63b8ff" points="420.7,-588.99 431.29,-588.65 422.8,-582.31 420.7,-588.99"/>
</a>
</g>
</g>
<!-- Node5 -->
<g id="Node000005" class="node">
<title>Node5</title>
<g id="a_Node000005"><a xlink:href="classcom_1_1runehive_1_1game_1_1world_1_1entity_1_1combat_1_1hit_1_1_hit.html#a22fdbfd63860fbd3c03d530ef8b97fe0" target="_top" xlink:title="Gets the damage amount.">
<ellipse fill="white" stroke="#666666" cx="557.31" cy="-533.81" rx="173.06" ry="25.81"/>
<text xml:space="preserve" text-anchor="start" x="442.94" y="-536.66" font-family="Helvetica,sans-Serif" font-size="12.00">com.runehive.game.world.entity.combat.hit.</text>
<text xml:space="preserve" text-anchor="middle" x="557.31" y="-522.41" font-family="Helvetica,sans-Serif" font-size="12.00">Hit.getDamage</text>
</a>
</g>
</g>
<!-- Node1&#45;&gt;Node5 -->
<g id="edge4_Node000001_Node000005" class="edge">
<title>Node1&#45;&gt;Node5</title>
<g id="a_edge4_Node000001_Node000005"><a xlink:title=" ">
<path fill="none" stroke="#63b8ff" d="M197.98,-349.85C233.67,-388.75 306.62,-461.43 384.25,-498.81 395.51,-504.23 407.57,-508.81 419.9,-512.69"/>
<polygon fill="#63b8ff" stroke="#63b8ff" points="418.75,-516 429.33,-515.48 420.74,-509.28 418.75,-516"/>
</a>
</g>
</g>
<!-- Node6 -->
<g id="Node000006" class="node">
<title>Node6</title>
<g id="a_Node000006"><a xlink:href="classcom_1_1runehive_1_1game_1_1world_1_1entity_1_1combat_1_1hit_1_1_hit.html#ab8164563cb20b41eef85559203d1d239" target="_top" xlink:title="Gets the hit icon.">
<ellipse fill="white" stroke="#666666" cx="557.31" cy="-463.81" rx="173.06" ry="25.81"/>
<text xml:space="preserve" text-anchor="start" x="442.94" y="-466.66" font-family="Helvetica,sans-Serif" font-size="12.00">com.runehive.game.world.entity.combat.hit.</text>
<text xml:space="preserve" text-anchor="middle" x="557.31" y="-452.41" font-family="Helvetica,sans-Serif" font-size="12.00">Hit.getHitIcon</text>
</a>
</g>
</g>
<!-- Node1&#45;&gt;Node6 -->
<g id="edge5_Node000001_Node000006" class="edge">
<title>Node1&#45;&gt;Node6</title>
<g id="a_edge5_Node000001_Node000006"><a xlink:title=" ">
<path fill="none" stroke="#63b8ff" d="M217.32,-349.19C258.56,-372.97 323.78,-407.89 384.25,-428.81 398.51,-433.74 413.68,-438.07 428.89,-441.85"/>
<polygon fill="#63b8ff" stroke="#63b8ff" points="427.94,-445.23 438.48,-444.16 429.57,-438.42 427.94,-445.23"/>
</a>
</g>
</g>
<!-- Node7 -->
<g id="Node000007" class="node">
<title>Node7</title>
<g id="a_Node000007"><a xlink:href="classcom_1_1runehive_1_1game_1_1world_1_1entity_1_1combat_1_1hit_1_1_hit.html#a866aeb42303a4d4b0ca08be98e882af8" target="_top" xlink:title="Gets the damage type.">
<ellipse fill="white" stroke="#666666" cx="557.31" cy="-393.81" rx="173.06" ry="25.81"/>
<text xml:space="preserve" text-anchor="start" x="442.94" y="-396.66" font-family="Helvetica,sans-Serif" font-size="12.00">com.runehive.game.world.entity.combat.hit.</text>
<text xml:space="preserve" text-anchor="middle" x="557.31" y="-382.41" font-family="Helvetica,sans-Serif" font-size="12.00">Hit.getHitsplat</text>
</a>
</g>
</g>
<!-- Node1&#45;&gt;Node7 -->
<g id="edge6_Node000001_Node000007" class="edge">
<title>Node1&#45;&gt;Node7</title>
<g id="a_edge6_Node000001_Node000007"><a xlink:title=" ">
<path fill="none" stroke="#63b8ff" d="M285.38,-344.06C332.3,-352.67 387.17,-362.75 435.21,-371.57"/>
<polygon fill="#63b8ff" stroke="#63b8ff" points="434.35,-374.97 444.82,-373.33 435.61,-368.09 434.35,-374.97"/>
</a>
</g>
</g>
<!-- Node8 -->
<g id="Node000008" class="node">
<title>Node8</title>
<g id="a_Node000008"><a xlink:href="enumcom_1_1runehive_1_1game_1_1world_1_1entity_1_1combat_1_1hit_1_1_hit_icon.html#ad7c0db8ffd14f15b2742cee0706699cd" target="_top" xlink:title="Gets the identification for this hit type.">
<ellipse fill="white" stroke="#666666" cx="557.31" cy="-323.81" rx="173.06" ry="25.81"/>
<text xml:space="preserve" text-anchor="start" x="442.94" y="-326.66" font-family="Helvetica,sans-Serif" font-size="12.00">com.runehive.game.world.entity.combat.hit.</text>
<text xml:space="preserve" text-anchor="middle" x="557.31" y="-312.41" font-family="Helvetica,sans-Serif" font-size="12.00">HitIcon.getId</text>
</a>
</g>
</g>
<!-- Node1&#45;&gt;Node8 -->
<g id="edge7_Node000001_Node000008" class="edge">
<title>Node1&#45;&gt;Node8</title>
<g id="a_edge7_Node000001_Node000008"><a xlink:title=" ">
<path fill="none" stroke="#63b8ff" d="M348.71,-323.81C356.66,-323.81 364.64,-323.81 372.61,-323.81"/>
<polygon fill="#63b8ff" stroke="#63b8ff" points="372.35,-327.31 382.35,-323.81 372.35,-320.31 372.35,-327.31"/>
</a>
</g>
</g>
<!-- Node9 -->
<g id="Node000009" class="node">
<title>Node9</title>
<g id="a_Node000009"><a xlink:href="enumcom_1_1runehive_1_1game_1_1world_1_1entity_1_1combat_1_1hit_1_1_hitsplat.html#a831892054815d5d10768942e65cce14c" target="_top" xlink:title="Gets the identification for this hit type.">
<ellipse fill="white" stroke="#666666" cx="557.31" cy="-253.81" rx="173.06" ry="25.81"/>
<text xml:space="preserve" text-anchor="start" x="442.94" y="-256.66" font-family="Helvetica,sans-Serif" font-size="12.00">com.runehive.game.world.entity.combat.hit.</text>
<text xml:space="preserve" text-anchor="middle" x="557.31" y="-242.41" font-family="Helvetica,sans-Serif" font-size="12.00">Hitsplat.getId</text>
</a>
</g>
</g>
<!-- Node1&#45;&gt;Node9 -->
<g id="edge8_Node000001_Node000009" class="edge">
<title>Node1&#45;&gt;Node9</title>
<g id="a_edge8_Node000001_Node000009"><a xlink:title=" ">
<path fill="none" stroke="#63b8ff" d="M285.38,-303.56C332.3,-294.95 387.17,-284.87 435.21,-276.05"/>
<polygon fill="#63b8ff" stroke="#63b8ff" points="435.61,-279.53 444.82,-274.28 434.35,-272.65 435.61,-279.53"/>
</a>
</g>
</g>
<!-- Node10 -->
<g id="Node000010" class="node">
<title>Node10</title>
<g id="a_Node000010"><a xlink:href="classcom_1_1runehive_1_1game_1_1world_1_1entity_1_1mob_1_1_mob.html#a035f8e9a61076bb97ffd1037476688d7" target="_top" xlink:title=" ">
<ellipse fill="white" stroke="#666666" cx="557.31" cy="-183.81" rx="150.79" ry="25.81"/>
<text xml:space="preserve" text-anchor="start" x="458.69" y="-186.66" font-family="Helvetica,sans-Serif" font-size="12.00">com.runehive.game.world.entity.mob.</text>
<text xml:space="preserve" text-anchor="middle" x="557.31" y="-172.41" font-family="Helvetica,sans-Serif" font-size="12.00">Mob.getMaximumHealth</text>
</a>
</g>
</g>
<!-- Node1&#45;&gt;Node10 -->
<g id="edge9_Node000001_Node000010" class="edge">
<title>Node1&#45;&gt;Node10</title>
<g id="a_edge9_Node000001_Node000010"><a xlink:title=" ">
<path fill="none" stroke="#63b8ff" d="M217.32,-298.43C258.56,-274.65 323.78,-239.72 384.25,-218.81 400.59,-213.16 418.14,-208.29 435.56,-204.14"/>
<polygon fill="#63b8ff" stroke="#63b8ff" points="435.94,-207.64 444.9,-201.99 434.37,-200.82 435.94,-207.64"/>
</a>
</g>
</g>
<!-- Node11 -->
<g id="Node000011" class="node">
<title>Node11</title>
<g id="a_Node000011"><a xlink:href="classcom_1_1runehive_1_1game_1_1world_1_1entity_1_1combat_1_1hit_1_1_hit.html#a1880fd09b27125bbeecb9631c5d25f0e" target="_top" xlink:title=" ">
<ellipse fill="white" stroke="#666666" cx="557.31" cy="-113.81" rx="173.06" ry="25.81"/>
<text xml:space="preserve" text-anchor="start" x="442.94" y="-116.66" font-family="Helvetica,sans-Serif" font-size="12.00">com.runehive.game.world.entity.combat.hit.</text>
<text xml:space="preserve" text-anchor="middle" x="557.31" y="-102.41" font-family="Helvetica,sans-Serif" font-size="12.00">Hit.getMultipleHits</text>
</a>
</g>
</g>
<!-- Node1&#45;&gt;Node11 -->
<g id="edge11_Node000001_Node000011" class="edge">
<title>Node1&#45;&gt;Node11</title>
<g id="a_edge11_Node000001_Node000011"><a xlink:title=" ">
<path fill="none" stroke="#63b8ff" d="M197.98,-297.77C233.67,-258.87 306.62,-186.19 384.25,-148.81 395.51,-143.39 407.57,-138.81 419.9,-134.93"/>
<polygon fill="#63b8ff" stroke="#63b8ff" points="420.74,-138.33 429.33,-132.14 418.75,-131.62 420.74,-138.33"/>
</a>
</g>
</g>
<!-- Node13 -->
<g id="Node000013" class="node">
<title>Node13</title>
<g id="a_Node000013"><a xlink:href="classcom_1_1runehive_1_1net_1_1packet_1_1_packet_builder.html#a8f33868284aaa55fd60ce47d5b8d5170" target="_top" xlink:title=" ">
<ellipse fill="white" stroke="#666666" cx="557.31" cy="-25.81" rx="105.18" ry="25.81"/>
<text xml:space="preserve" text-anchor="start" x="490.94" y="-28.66" font-family="Helvetica,sans-Serif" font-size="12.00">com.runehive.net.packet.</text>
<text xml:space="preserve" text-anchor="middle" x="557.31" y="-14.41" font-family="Helvetica,sans-Serif" font-size="12.00">PacketBuilder.writeByte</text>
</a>
</g>
</g>
<!-- Node1&#45;&gt;Node13 -->
<g id="edge14_Node000001_Node000013" class="edge">
<title>Node1&#45;&gt;Node13</title>
<g id="a_edge14_Node000001_Node000013"><a xlink:title=" ">
<path fill="none" stroke="#63b8ff" d="M190.26,-297.76C220.62,-247.81 293.83,-138.25 384.25,-78.81 407.55,-63.49 435.51,-52.42 462.04,-44.48"/>
<polygon fill="#63b8ff" stroke="#63b8ff" points="462.8,-47.9 471.46,-41.79 460.88,-41.17 462.8,-47.9"/>
</a>
</g>
</g>
<!-- Node3 -->
<g id="Node000003" class="node">
<title>Node3</title>
<g id="a_Node000003"><a xlink:href="classcom_1_1runehive_1_1game_1_1world_1_1entity_1_1mob_1_1_mob.html#ac1ffa95e70f2c18a6695328fb2afc585" target="_top" xlink:title="Check if an entity is an npc.">
<ellipse fill="white" stroke="#666666" cx="939.44" cy="-402.81" rx="150.79" ry="25.81"/>
<text xml:space="preserve" text-anchor="start" x="840.82" y="-405.66" font-family="Helvetica,sans-Serif" font-size="12.00">com.runehive.game.world.entity.mob.</text>
<text xml:space="preserve" text-anchor="middle" x="939.44" y="-391.41" font-family="Helvetica,sans-Serif" font-size="12.00">Mob.isNpc</text>
</a>
</g>
</g>
<!-- Node2&#45;&gt;Node3 -->
<g id="edge2_Node000002_Node000003" class="edge">
<title>Node2&#45;&gt;Node3</title>
<g id="a_edge2_Node000002_Node000003"><a xlink:title=" ">
<path fill="none" stroke="#63b8ff" d="M675.94,-587.64C694.64,-582.89 713.39,-576.74 730.38,-568.81 800.73,-535.94 868.38,-474.69 906.55,-436.49"/>
<polygon fill="#63b8ff" stroke="#63b8ff" points="908.64,-439.36 913.18,-429.78 903.66,-434.44 908.64,-439.36"/>
</a>
</g>
</g>
<!-- Node4 -->
<g id="Node000004" class="node">
<title>Node4</title>
<g id="a_Node000004"><a xlink:href="classcom_1_1runehive_1_1game_1_1world_1_1entity_1_1_entity.html#a64f68055122aaf4af08787378c7ac356" target="_top" xlink:title="Gets the EntityType.">
<ellipse fill="white" stroke="#666666" cx="1280.74" cy="-402.81" rx="132.23" ry="25.81"/>
<text xml:space="preserve" text-anchor="start" x="1195.24" y="-405.66" font-family="Helvetica,sans-Serif" font-size="12.00">com.runehive.game.world.entity.</text>
<text xml:space="preserve" text-anchor="middle" x="1280.74" y="-391.41" font-family="Helvetica,sans-Serif" font-size="12.00">Entity.getType</text>
</a>
</g>
</g>
<!-- Node3&#45;&gt;Node4 -->
<g id="edge3_Node000003_Node000004" class="edge">
<title>Node3&#45;&gt;Node4</title>
<g id="a_edge3_Node000003_Node000004"><a xlink:title=" ">
<path fill="none" stroke="#63b8ff" d="M1090.25,-402.81C1105.75,-402.81 1121.47,-402.81 1136.89,-402.81"/>
<polygon fill="#63b8ff" stroke="#63b8ff" points="1136.55,-406.31 1146.55,-402.81 1136.55,-399.31 1136.55,-406.31"/>
</a>
</g>
</g>
<!-- Node10&#45;&gt;Node3 -->
<g id="edge10_Node000010_Node000003" class="edge">
<title>Node10&#45;&gt;Node3</title>
<g id="a_edge10_Node000010_Node000003"><a xlink:title=" ">
<path fill="none" stroke="#63b8ff" d="M677.67,-199.59C695.86,-204.39 714.01,-210.65 730.38,-218.81 804.72,-255.86 873.21,-326.35 910.08,-368.51"/>
<polygon fill="#63b8ff" stroke="#63b8ff" points="907.28,-370.63 916.46,-375.91 912.58,-366.05 907.28,-370.63"/>
</a>
</g>
</g>
<!-- Node12 -->
<g id="Node000012" class="node">
<title>Node12</title>
<g id="a_Node000012"><a xlink:href="classcom_1_1runehive_1_1game_1_1world_1_1entity_1_1combat_1_1hit_1_1_hit.html#a7eeb0f6c7299f767afaa1295e394b412" target="_top" xlink:title="Constructs a new Hit object.">
<ellipse fill="white" stroke="#666666" cx="939.44" cy="-113.81" rx="173.06" ry="25.81"/>
<text xml:space="preserve" text-anchor="start" x="825.07" y="-116.66" font-family="Helvetica,sans-Serif" font-size="12.00">com.runehive.game.world.entity.combat.hit.</text>
<text xml:space="preserve" text-anchor="middle" x="939.44" y="-102.41" font-family="Helvetica,sans-Serif" font-size="12.00">Hit.Hit</text>
</a>
</g>
</g>
<!-- Node11&#45;&gt;Node12 -->
<g id="edge12_Node000011_Node000012" class="edge">
<title>Node11&#45;&gt;Node12</title>
<g id="a_edge12_Node000011_Node000012"><a xlink:title=" ">
<path fill="none" stroke="#63b8ff" d="M730.86,-113.81C738.8,-113.81 746.78,-113.81 754.74,-113.81"/>
<polygon fill="#63b8ff" stroke="#63b8ff" points="754.47,-117.31 764.47,-113.81 754.47,-110.31 754.47,-117.31"/>
</a>
</g>
</g>
<!-- Node12&#45;&gt;Node12 -->
<g id="edge13_Node000012_Node000012" class="edge">
<title>Node12&#45;&gt;Node12</title>
<g id="a_edge13_Node000012_Node000012"><a xlink:title=" ">
<path fill="none" stroke="#63b8ff" d="M876.22,-138.14C871.04,-148.63 892.12,-157.62 939.44,-157.62 969.76,-157.62 989.31,-153.93 998.08,-148.52"/>
<polygon fill="#63b8ff" stroke="#63b8ff" points="1001.22,-150.08 1002.06,-139.52 994.81,-147.25 1001.22,-150.08"/>
</a>
</g>
</g>
<!-- Node13&#45;&gt;Node13 -->
<g id="edge16_Node000013_Node000013" class="edge">
<title>Node13&#45;&gt;Node13</title>
<g id="a_edge16_Node000013_Node000013"><a xlink:title=" ">
<path fill="none" stroke="#63b8ff" d="M490.14,-46.09C475.22,-58.21 497.61,-69.62 557.31,-69.62 598.36,-69.62 621.77,-64.23 627.55,-56.92"/>
<polygon fill="#63b8ff" stroke="#63b8ff" points="630.99,-56.22 624.9,-47.54 624.25,-58.12 630.99,-56.22"/>
</a>
</g>
</g>
<!-- Node14 -->
<g id="Node000014" class="node">
<title>Node14</title>
<g id="a_Node000014"><a xlink:href="classcom_1_1runehive_1_1net_1_1packet_1_1_packet_builder.html#a8af8ccb250104b80abcc50f2b4db7608" target="_top" xlink:title=" ">
<ellipse fill="white" stroke="#666666" cx="939.44" cy="-25.81" rx="118.97" ry="25.81"/>
<text xml:space="preserve" text-anchor="start" x="863.32" y="-28.66" font-family="Helvetica,sans-Serif" font-size="12.00">com.runehive.net.packet.</text>
<text xml:space="preserve" text-anchor="middle" x="939.44" y="-14.41" font-family="Helvetica,sans-Serif" font-size="12.00">PacketBuilder.PacketBuilder</text>
</a>
</g>
</g>
<!-- Node13&#45;&gt;Node14 -->
<g id="edge15_Node000013_Node000014" class="edge">
<title>Node13&#45;&gt;Node14</title>
<g id="a_edge15_Node000013_Node000014"><a xlink:title=" ">
<path fill="none" stroke="#63b8ff" d="M662.94,-25.81C708.01,-25.81 761.17,-25.81 808.71,-25.81"/>
<polygon fill="#63b8ff" stroke="#63b8ff" points="808.51,-29.31 818.51,-25.81 808.51,-22.31 808.51,-29.31"/>
</a>
</g>
</g>
</g>
</svg>
