<?xml version="1.0" encoding="UTF-8" standalone="no"?>
<!DOCTYPE svg PUBLIC "-//W3C//DTD SVG 1.1//EN"
 "http://www.w3.org/Graphics/SVG/1.1/DTD/svg11.dtd">
<!-- Generated by graphviz version 14.0.1 (20251006.0113)
 -->
<!-- Title: com.runehive.game.world.items.containers.pricechecker.PriceChecker.depositAll Pages: 1 -->
<svg width="2328pt" height="378pt"
 viewBox="0.00 0.00 2328.00 378.00" xmlns="http://www.w3.org/2000/svg" xmlns:xlink="http://www.w3.org/1999/xlink">
<g id="graph0" class="graph" transform="scale(1 1) rotate(0) translate(4 373.62)">
<title>com.runehive.game.world.items.containers.pricechecker.PriceChecker.depositAll</title>
<!-- Node1 -->
<g id="Node000001" class="node">
<title>Node1</title>
<g id="a_Node000001"><a xlink:title="Deposits all the items into the price checker.">
<ellipse fill="#999999" stroke="#666666" cx="223.98" cy="-79.81" rx="223.98" ry="25.81"/>
<text xml:space="preserve" text-anchor="start" x="73.6" y="-82.66" font-family="Helvetica,sans-Serif" font-size="12.00">com.runehive.game.world.items.containers.pricechecker.</text>
<text xml:space="preserve" text-anchor="middle" x="223.98" y="-68.41" font-family="Helvetica,sans-Serif" font-size="12.00">PriceChecker.depositAll</text>
</a>
</g>
</g>
<!-- Node2 -->
<g id="Node000002" class="node">
<title>Node2</title>
<g id="a_Node000002"><a xlink:href="classcom_1_1runehive_1_1game_1_1world_1_1items_1_1containers_1_1pricechecker_1_1_price_checker.html#a64a002d2319b65f8542c8fb4adf31a8c" target="_top" xlink:title="Deposits an item into the price checker.">
<ellipse fill="white" stroke="#666666" cx="707.93" cy="-150.81" rx="223.98" ry="25.81"/>
<text xml:space="preserve" text-anchor="start" x="557.55" y="-153.66" font-family="Helvetica,sans-Serif" font-size="12.00">com.runehive.game.world.items.containers.pricechecker.</text>
<text xml:space="preserve" text-anchor="middle" x="707.93" y="-139.41" font-family="Helvetica,sans-Serif" font-size="12.00">PriceChecker.deposit</text>
</a>
</g>
</g>
<!-- Node1&#45;&gt;Node2 -->
<g id="edge1_Node000001_Node000002" class="edge">
<title>Node1&#45;&gt;Node2</title>
<g id="a_edge1_Node000001_Node000002"><a xlink:title=" ">
<path fill="none" stroke="#63b8ff" d="M364.05,-100.3C424.26,-109.17 494.86,-119.57 556.3,-128.62"/>
<polygon fill="#63b8ff" stroke="#63b8ff" points="555.76,-132.08 566.17,-130.07 556.78,-125.15 555.76,-132.08"/>
</a>
</g>
</g>
<!-- Node9 -->
<g id="Node000009" class="node">
<title>Node9</title>
<g id="a_Node000009"><a xlink:href="classcom_1_1runehive_1_1game_1_1world_1_1items_1_1containers_1_1pricechecker_1_1_price_checker.html#adebad2b1fbbaa4579525c4a9bca34b45" target="_top" xlink:title=" ">
<ellipse fill="white" stroke="#666666" cx="1191.88" cy="-27.81" rx="223.98" ry="25.81"/>
<text xml:space="preserve" text-anchor="start" x="1041.51" y="-30.66" font-family="Helvetica,sans-Serif" font-size="12.00">com.runehive.game.world.items.containers.pricechecker.</text>
<text xml:space="preserve" text-anchor="middle" x="1191.88" y="-16.41" font-family="Helvetica,sans-Serif" font-size="12.00">PriceChecker.refresh</text>
</a>
</g>
</g>
<!-- Node1&#45;&gt;Node9 -->
<g id="edge13_Node000001_Node000009" class="edge">
<title>Node1&#45;&gt;Node9</title>
<g id="a_edge13_Node000001_Node000009"><a xlink:title=" ">
<path fill="none" stroke="#63b8ff" d="M448.14,-79.51C587.42,-77.91 770.32,-73.24 931.9,-60.81 966.87,-58.12 1004.36,-54.04 1039.65,-49.66"/>
<polygon fill="#63b8ff" stroke="#63b8ff" points="1040.04,-53.14 1049.52,-48.41 1039.16,-46.19 1040.04,-53.14"/>
</a>
</g>
</g>
<!-- Node11 -->
<g id="Node000011" class="node">
<title>Node11</title>
<g id="a_Node000011"><a xlink:href="classcom_1_1runehive_1_1game_1_1world_1_1items_1_1_item.html#a469ed0805255f62514005f11dc213676" target="_top" xlink:title="Gets the quantity of this item.">
<ellipse fill="white" stroke="#666666" cx="707.93" cy="-25.81" rx="132.76" ry="25.81"/>
<text xml:space="preserve" text-anchor="start" x="622.05" y="-28.66" font-family="Helvetica,sans-Serif" font-size="12.00">com.runehive.game.world.items.</text>
<text xml:space="preserve" text-anchor="middle" x="707.93" y="-14.41" font-family="Helvetica,sans-Serif" font-size="12.00">Item.getAmount</text>
</a>
</g>
</g>
<!-- Node1&#45;&gt;Node11 -->
<g id="edge12_Node000001_Node000011" class="edge">
<title>Node1&#45;&gt;Node11</title>
<g id="a_edge12_Node000001_Node000011"><a xlink:title=" ">
<path fill="none" stroke="#63b8ff" d="M386.46,-61.72C449.68,-54.63 521.12,-46.63 580.48,-39.98"/>
<polygon fill="#63b8ff" stroke="#63b8ff" points="580.75,-43.47 590.3,-38.88 579.97,-36.51 580.75,-43.47"/>
</a>
</g>
</g>
<!-- Node3 -->
<g id="Node000003" class="node">
<title>Node3</title>
<g id="a_Node000003"><a xlink:href="classcom_1_1runehive_1_1game_1_1world_1_1items_1_1containers_1_1_item_container.html#a34ef6eb550fba45ee27cbd55cd1b1c26" target="_top" xlink:title="Attempts to deposit item into this container.">
<ellipse fill="white" stroke="#666666" cx="1191.88" cy="-325.81" rx="174.13" ry="25.81"/>
<text xml:space="preserve" text-anchor="start" x="1076.76" y="-328.66" font-family="Helvetica,sans-Serif" font-size="12.00">com.runehive.game.world.items.containers.</text>
<text xml:space="preserve" text-anchor="middle" x="1191.88" y="-314.41" font-family="Helvetica,sans-Serif" font-size="12.00">ItemContainer.add</text>
</a>
</g>
</g>
<!-- Node2&#45;&gt;Node3 -->
<g id="edge2_Node000002_Node000003" class="edge">
<title>Node2&#45;&gt;Node3</title>
<g id="a_edge2_Node000002_Node000003"><a xlink:title=" ">
<path fill="none" stroke="#63b8ff" d="M746.53,-176.5C795.31,-208.53 884.13,-262.52 967.9,-290.81 989.94,-298.25 1013.74,-304.12 1037.31,-308.75"/>
<polygon fill="#63b8ff" stroke="#63b8ff" points="1036.51,-312.16 1046.99,-310.58 1037.81,-305.29 1036.51,-312.16"/>
</a>
</g>
</g>
<!-- Node4 -->
<g id="Node000004" class="node">
<title>Node4</title>
<g id="a_Node000004"><a xlink:href="classcom_1_1runehive_1_1game_1_1world_1_1items_1_1_item.html#a1cec21ca5ef1783808d4ca9de1051a29" target="_top" xlink:title="Gets the identification of this item.">
<ellipse fill="white" stroke="#666666" cx="1191.88" cy="-255.81" rx="132.76" ry="25.81"/>
<text xml:space="preserve" text-anchor="start" x="1106.01" y="-258.66" font-family="Helvetica,sans-Serif" font-size="12.00">com.runehive.game.world.items.</text>
<text xml:space="preserve" text-anchor="middle" x="1191.88" y="-244.41" font-family="Helvetica,sans-Serif" font-size="12.00">Item.getId</text>
</a>
</g>
</g>
<!-- Node2&#45;&gt;Node4 -->
<g id="edge4_Node000002_Node000004" class="edge">
<title>Node2&#45;&gt;Node4</title>
<g id="a_edge4_Node000002_Node000004"><a xlink:title=" ">
<path fill="none" stroke="#63b8ff" d="M790.31,-175.24C841.05,-189.86 907.89,-208.03 967.9,-220.81 1000.96,-227.85 1037.05,-234.12 1070.38,-239.34"/>
<polygon fill="#63b8ff" stroke="#63b8ff" points="1069.66,-242.77 1080.08,-240.84 1070.73,-235.85 1069.66,-242.77"/>
</a>
</g>
</g>
<!-- Node5 -->
<g id="Node000005" class="node">
<title>Node5</title>
<g id="a_Node000005"><a xlink:href="classcom_1_1runehive_1_1game_1_1world_1_1items_1_1_item.html#a6cf8fb321f42b6b3830aa27258e2bf56" target="_top" xlink:title=" ">
<ellipse fill="white" stroke="#666666" cx="1191.88" cy="-185.81" rx="132.76" ry="25.81"/>
<text xml:space="preserve" text-anchor="start" x="1106.01" y="-188.66" font-family="Helvetica,sans-Serif" font-size="12.00">com.runehive.game.world.items.</text>
<text xml:space="preserve" text-anchor="middle" x="1191.88" y="-174.41" font-family="Helvetica,sans-Serif" font-size="12.00">Item.isTradeable</text>
</a>
</g>
</g>
<!-- Node2&#45;&gt;Node5 -->
<g id="edge5_Node000002_Node000005" class="edge">
<title>Node2&#45;&gt;Node5</title>
<g id="a_edge5_Node000002_Node000005"><a xlink:title=" ">
<path fill="none" stroke="#63b8ff" d="M898.72,-164.59C951.14,-168.4 1006.94,-172.45 1055.59,-175.98"/>
<polygon fill="#63b8ff" stroke="#63b8ff" points="1055.08,-179.46 1065.31,-176.69 1055.59,-172.47 1055.08,-179.46"/>
</a>
</g>
</g>
<!-- Node2&#45;&gt;Node9 -->
<g id="edge9_Node000002_Node000009" class="edge">
<title>Node2&#45;&gt;Node9</title>
<g id="a_edge9_Node000002_Node000009"><a xlink:title=" ">
<path fill="none" stroke="#63b8ff" d="M809.12,-127.38C847.73,-117.78 892.09,-106.06 931.9,-93.81 948.16,-88.81 951.6,-85.67 967.9,-80.81 1001.54,-70.78 1038.46,-61.36 1072.42,-53.34"/>
<polygon fill="#63b8ff" stroke="#63b8ff" points="1072.92,-56.81 1081.86,-51.13 1071.32,-50 1072.92,-56.81"/>
</a>
</g>
</g>
<!-- Node10 -->
<g id="Node000010" class="node">
<title>Node10</title>
<g id="a_Node000010"><a xlink:href="classcom_1_1runehive_1_1game_1_1world_1_1items_1_1containers_1_1_item_container.html#a1fcee6e3c1a828da18574aff6ca9136a" target="_top" xlink:title="Sets the value for firingEvents.">
<ellipse fill="white" stroke="#666666" cx="1191.88" cy="-115.81" rx="174.13" ry="25.81"/>
<text xml:space="preserve" text-anchor="start" x="1076.76" y="-118.66" font-family="Helvetica,sans-Serif" font-size="12.00">com.runehive.game.world.items.containers.</text>
<text xml:space="preserve" text-anchor="middle" x="1191.88" y="-104.41" font-family="Helvetica,sans-Serif" font-size="12.00">ItemContainer.setFiringEvents</text>
</a>
</g>
</g>
<!-- Node2&#45;&gt;Node10 -->
<g id="edge11_Node000002_Node000010" class="edge">
<title>Node2&#45;&gt;Node10</title>
<g id="a_edge11_Node000002_Node000010"><a xlink:title=" ">
<path fill="none" stroke="#63b8ff" d="M898.72,-137.03C939.89,-134.04 983.15,-130.89 1023.39,-127.97"/>
<polygon fill="#63b8ff" stroke="#63b8ff" points="1023.43,-131.48 1033.15,-127.26 1022.92,-124.5 1023.43,-131.48"/>
</a>
</g>
</g>
<!-- Node3&#45;&gt;Node3 -->
<g id="edge3_Node000003_Node000003" class="edge">
<title>Node3&#45;&gt;Node3</title>
<g id="a_edge3_Node000003_Node000003"><a xlink:title=" ">
<path fill="none" stroke="#63b8ff" d="M1119.39,-349.69C1112.49,-360.38 1136.65,-369.62 1191.88,-369.62 1227.69,-369.62 1250.44,-365.73 1260.13,-360.09"/>
<polygon fill="#63b8ff" stroke="#63b8ff" points="1263.26,-361.68 1263.8,-351.09 1256.78,-359.03 1263.26,-361.68"/>
</a>
</g>
</g>
<!-- Node6 -->
<g id="Node000006" class="node">
<title>Node6</title>
<g id="a_Node000006"><a xlink:href="classcom_1_1runehive_1_1game_1_1world_1_1items_1_1_item.html#a5008cb760d4d688a1731e0406d29c335" target="_top" xlink:title="Gets the item definition for the item identifier.">
<ellipse fill="white" stroke="#666666" cx="1584.62" cy="-185.81" rx="132.76" ry="25.81"/>
<text xml:space="preserve" text-anchor="start" x="1498.74" y="-188.66" font-family="Helvetica,sans-Serif" font-size="12.00">com.runehive.game.world.items.</text>
<text xml:space="preserve" text-anchor="middle" x="1584.62" y="-174.41" font-family="Helvetica,sans-Serif" font-size="12.00">Item.getDefinition</text>
</a>
</g>
</g>
<!-- Node5&#45;&gt;Node6 -->
<g id="edge6_Node000005_Node000006" class="edge">
<title>Node5&#45;&gt;Node6</title>
<g id="a_edge6_Node000005_Node000006"><a xlink:title=" ">
<path fill="none" stroke="#63b8ff" d="M1324.89,-185.81C1362.08,-185.81 1402.71,-185.81 1440.52,-185.81"/>
<polygon fill="#63b8ff" stroke="#63b8ff" points="1440.11,-189.31 1450.11,-185.81 1440.11,-182.31 1440.11,-189.31"/>
</a>
</g>
</g>
<!-- Node7 -->
<g id="Node000007" class="node">
<title>Node7</title>
<g id="a_Node000007"><a xlink:href="classcom_1_1runehive_1_1game_1_1world_1_1items_1_1_item_definition.html#a50e4924075ee157cd3f75a8107a595fa" target="_top" xlink:title="Gets an item definition.">
<ellipse fill="white" stroke="#666666" cx="1886.13" cy="-185.81" rx="132.76" ry="25.81"/>
<text xml:space="preserve" text-anchor="start" x="1800.26" y="-188.66" font-family="Helvetica,sans-Serif" font-size="12.00">com.runehive.game.world.items.</text>
<text xml:space="preserve" text-anchor="middle" x="1886.13" y="-174.41" font-family="Helvetica,sans-Serif" font-size="12.00">ItemDefinition.get</text>
</a>
</g>
</g>
<!-- Node6&#45;&gt;Node7 -->
<g id="edge7_Node000006_Node000007" class="edge">
<title>Node6&#45;&gt;Node7</title>
<g id="a_edge7_Node000006_Node000007"><a xlink:title=" ">
<path fill="none" stroke="#63b8ff" d="M1717.86,-185.81C1725.85,-185.81 1733.91,-185.81 1741.94,-185.81"/>
<polygon fill="#63b8ff" stroke="#63b8ff" points="1741.75,-189.31 1751.75,-185.81 1741.75,-182.31 1741.75,-189.31"/>
</a>
</g>
</g>
<!-- Node8 -->
<g id="Node000008" class="node">
<title>Node8</title>
<g id="a_Node000008"><a xlink:href="classcom_1_1runehive_1_1game_1_1world_1_1items_1_1_item_definition.html#a4fafaf641c0490165d697a73006e76bf" target="_top" xlink:title=" ">
<ellipse fill="white" stroke="#666666" cx="2187.65" cy="-185.81" rx="132.76" ry="25.81"/>
<text xml:space="preserve" text-anchor="start" x="2101.78" y="-188.66" font-family="Helvetica,sans-Serif" font-size="12.00">com.runehive.game.world.items.</text>
<text xml:space="preserve" text-anchor="middle" x="2187.65" y="-174.41" font-family="Helvetica,sans-Serif" font-size="12.00">ItemDefinition.ItemDefinition</text>
</a>
</g>
</g>
<!-- Node7&#45;&gt;Node8 -->
<g id="edge8_Node000007_Node000008" class="edge">
<title>Node7&#45;&gt;Node8</title>
<g id="a_edge8_Node000007_Node000008"><a xlink:title=" ">
<path fill="none" stroke="#63b8ff" d="M2019.38,-185.81C2027.37,-185.81 2035.42,-185.81 2043.46,-185.81"/>
<polygon fill="#63b8ff" stroke="#63b8ff" points="2043.27,-189.31 2053.27,-185.81 2043.27,-182.31 2043.27,-189.31"/>
</a>
</g>
</g>
<!-- Node9&#45;&gt;Node9 -->
<g id="edge10_Node000009_Node000009" class="edge">
<title>Node9&#45;&gt;Node9</title>
<g id="a_edge10_Node000009_Node000009"><a xlink:title=" ">
<path fill="none" stroke="#63b8ff" d="M1118.89,-52.58C1113.86,-62.88 1138.19,-71.62 1191.88,-71.62 1226.7,-71.62 1249.17,-67.95 1259.29,-62.55"/>
<polygon fill="#63b8ff" stroke="#63b8ff" points="1262.31,-64.34 1264.13,-53.9 1256.2,-60.92 1262.31,-64.34"/>
</a>
</g>
</g>
</g>
</svg>
