<?xml version="1.0" encoding="UTF-8" standalone="no"?>
<!DOCTYPE svg PUBLIC "-//W3C//DTD SVG 1.1//EN"
 "http://www.w3.org/Graphics/SVG/1.1/DTD/svg11.dtd">
<!-- Generated by graphviz version 14.0.1 (20251006.0113)
 -->
<!-- Title: com.runehive.content.clanchannel.channel.ClanChannelHandler.sendConnectionWarning Pages: 1 -->
<svg width="1294pt" height="533pt"
 viewBox="0.00 0.00 1294.00 533.00" xmlns="http://www.w3.org/2000/svg" xmlns:xlink="http://www.w3.org/1999/xlink">
<g id="graph0" class="graph" transform="scale(1 1) rotate(0) translate(4 528.9)">
<title>com.runehive.content.clanchannel.channel.ClanChannelHandler.sendConnectionWarning</title>
<!-- Node1 -->
<g id="Node000001" class="node">
<title>Node1</title>
<g id="a_Node000001"><a xlink:title="The sends the connection warning for hopping clans.">
<ellipse fill="#999999" stroke="#666666" cx="187.38" cy="-178.81" rx="187.38" ry="25.81"/>
<text xml:space="preserve" text-anchor="start" x="62.88" y="-181.66" font-family="Helvetica,sans-Serif" font-size="12.00">com.runehive.content.clanchannel.channel.</text>
<text xml:space="preserve" text-anchor="middle" x="187.38" y="-167.41" font-family="Helvetica,sans-Serif" font-size="12.00">ClanChannelHandler.sendConnectionWarning</text>
</a>
</g>
</g>
<!-- Node2 -->
<g id="Node000002" class="node">
<title>Node2</title>
<g id="a_Node000002"><a xlink:href="classcom_1_1runehive_1_1content_1_1dialogue_1_1_dialogue_factory.html#a2487170811b723c8a8e3759c94896bd9" target="_top" xlink:title="Retrieves the next dialogue in the chain and executes it.">
<ellipse fill="white" stroke="#666666" cx="543" cy="-346.81" rx="129.05" ry="25.81"/>
<text xml:space="preserve" text-anchor="start" x="459.75" y="-349.66" font-family="Helvetica,sans-Serif" font-size="12.00">com.runehive.content.dialogue.</text>
<text xml:space="preserve" text-anchor="middle" x="543" y="-335.41" font-family="Helvetica,sans-Serif" font-size="12.00">DialogueFactory.execute</text>
</a>
</g>
</g>
<!-- Node1&#45;&gt;Node2 -->
<g id="edge1_Node000001_Node000002" class="edge">
<title>Node1&#45;&gt;Node2</title>
<g id="a_edge1_Node000001_Node000002"><a xlink:title=" ">
<path fill="none" stroke="#63b8ff" d="M241.32,-203.96C305.56,-234.48 413.62,-285.82 481.2,-317.93"/>
<polygon fill="#63b8ff" stroke="#63b8ff" points="479.38,-320.93 489.91,-322.06 482.38,-314.61 479.38,-320.93"/>
</a>
</g>
</g>
<!-- Node8 -->
<g id="Node000008" class="node">
<title>Node8</title>
<g id="a_Node000008"><a xlink:href="classcom_1_1runehive_1_1content_1_1dialogue_1_1_dialogue_factory.html#af9f2ccdd07b0e88b0e7c40192a9afa07" target="_top" xlink:title="Appends the OptionDialogue onto the current dialogue chain.">
<ellipse fill="white" stroke="#666666" cx="543" cy="-178.81" rx="129.05" ry="25.81"/>
<text xml:space="preserve" text-anchor="start" x="459.75" y="-181.66" font-family="Helvetica,sans-Serif" font-size="12.00">com.runehive.content.dialogue.</text>
<text xml:space="preserve" text-anchor="middle" x="543" y="-167.41" font-family="Helvetica,sans-Serif" font-size="12.00">DialogueFactory.sendOption</text>
</a>
</g>
</g>
<!-- Node1&#45;&gt;Node8 -->
<g id="edge7_Node000001_Node000008" class="edge">
<title>Node1&#45;&gt;Node8</title>
<g id="a_edge7_Node000001_Node000008"><a xlink:title=" ">
<path fill="none" stroke="#63b8ff" d="M375.03,-178.81C384.25,-178.81 393.44,-178.81 402.49,-178.81"/>
<polygon fill="#63b8ff" stroke="#63b8ff" points="402.35,-182.31 412.35,-178.81 402.35,-175.31 402.35,-182.31"/>
</a>
</g>
</g>
<!-- Node10 -->
<g id="Node000010" class="node">
<title>Node10</title>
<g id="a_Node000010"><a xlink:href="classcom_1_1runehive_1_1content_1_1dialogue_1_1_dialogue_factory.html#af92ab6d9ef2bae570cf81d843519e529" target="_top" xlink:title="Appends a StatementDialogue to the current dialogue chain.">
<ellipse fill="white" stroke="#666666" cx="543" cy="-89.81" rx="132.23" ry="25.81"/>
<text xml:space="preserve" text-anchor="start" x="457.5" y="-92.66" font-family="Helvetica,sans-Serif" font-size="12.00">com.runehive.content.dialogue.</text>
<text xml:space="preserve" text-anchor="middle" x="543" y="-78.41" font-family="Helvetica,sans-Serif" font-size="12.00">DialogueFactory.sendStatement</text>
</a>
</g>
</g>
<!-- Node1&#45;&gt;Node10 -->
<g id="edge11_Node000001_Node000010" class="edge">
<title>Node1&#45;&gt;Node10</title>
<g id="a_edge11_Node000001_Node000010"><a xlink:title=" ">
<path fill="none" stroke="#63b8ff" d="M279.45,-155.89C331.6,-142.76 396.89,-126.33 449.32,-113.14"/>
<polygon fill="#63b8ff" stroke="#63b8ff" points="449.99,-116.58 458.83,-110.74 448.28,-109.79 449.99,-116.58"/>
</a>
</g>
</g>
<!-- Node3 -->
<g id="Node000003" class="node">
<title>Node3</title>
<g id="a_Node000003"><a xlink:href="classcom_1_1runehive_1_1content_1_1dialogue_1_1_dialogue_factory.html#aec64ffdeed4c31dfe340a41430f50892" target="_top" xlink:title="Creates a new DialogueFactory.">
<ellipse fill="white" stroke="#666666" cx="1147.62" cy="-160.81" rx="138.06" ry="25.81"/>
<text xml:space="preserve" text-anchor="start" x="1058" y="-163.66" font-family="Helvetica,sans-Serif" font-size="12.00">com.runehive.content.dialogue.</text>
<text xml:space="preserve" text-anchor="middle" x="1147.62" y="-149.41" font-family="Helvetica,sans-Serif" font-size="12.00">DialogueFactory.DialogueFactory</text>
</a>
</g>
</g>
<!-- Node2&#45;&gt;Node3 -->
<g id="edge2_Node000002_Node000003" class="edge">
<title>Node2&#45;&gt;Node3</title>
<g id="a_edge2_Node000002_Node000003"><a xlink:title=" ">
<path fill="none" stroke="#63b8ff" d="M564.43,-372.61C593.04,-406.41 648.59,-464.05 711.22,-486.81 820.81,-526.62 873.64,-546.89 973.56,-486.81 1079.94,-422.84 1124.42,-269.02 1139.77,-197.95"/>
<polygon fill="#63b8ff" stroke="#63b8ff" points="1143.15,-198.87 1141.76,-188.36 1136.3,-197.44 1143.15,-198.87"/>
</a>
</g>
</g>
<!-- Node4 -->
<g id="Node000004" class="node">
<title>Node4</title>
<g id="a_Node000004"><a xlink:href="classcom_1_1runehive_1_1content_1_1dialogue_1_1_dialogue_factory.html#a5f56390c19e58a8e3390f46449e6c6cf" target="_top" xlink:title="Gets the current chain.">
<ellipse fill="white" stroke="#666666" cx="842.39" cy="-451.81" rx="129.05" ry="25.81"/>
<text xml:space="preserve" text-anchor="start" x="759.14" y="-454.66" font-family="Helvetica,sans-Serif" font-size="12.00">com.runehive.content.dialogue.</text>
<text xml:space="preserve" text-anchor="middle" x="842.39" y="-440.41" font-family="Helvetica,sans-Serif" font-size="12.00">DialogueFactory.getChain</text>
</a>
</g>
</g>
<!-- Node2&#45;&gt;Node4 -->
<g id="edge3_Node000002_Node000004" class="edge">
<title>Node2&#45;&gt;Node4</title>
<g id="a_edge3_Node000002_Node000004"><a xlink:title=" ">
<path fill="none" stroke="#63b8ff" d="M596.02,-370.71C628.68,-385.17 671.91,-403.36 711.22,-416.81 723.21,-420.91 735.95,-424.84 748.59,-428.49"/>
<polygon fill="#63b8ff" stroke="#63b8ff" points="747.61,-431.85 758.19,-431.21 749.52,-425.12 747.61,-431.85"/>
</a>
</g>
</g>
<!-- Node5 -->
<g id="Node000005" class="node">
<title>Node5</title>
<g id="a_Node000005"><a xlink:href="classcom_1_1runehive_1_1content_1_1dialogue_1_1_dialogue_factory.html#a79b8587c2aac2f5cb6ef6f5e1069ab3f" target="_top" xlink:title="Gets the Optional describing the next action in the dialogue chain.">
<ellipse fill="white" stroke="#666666" cx="842.39" cy="-381.81" rx="129.05" ry="25.81"/>
<text xml:space="preserve" text-anchor="start" x="759.14" y="-384.66" font-family="Helvetica,sans-Serif" font-size="12.00">com.runehive.content.dialogue.</text>
<text xml:space="preserve" text-anchor="middle" x="842.39" y="-370.41" font-family="Helvetica,sans-Serif" font-size="12.00">DialogueFactory.getNextAction</text>
</a>
</g>
</g>
<!-- Node2&#45;&gt;Node5 -->
<g id="edge4_Node000002_Node000005" class="edge">
<title>Node2&#45;&gt;Node5</title>
<g id="a_edge4_Node000002_Node000005"><a xlink:title=" ">
<path fill="none" stroke="#63b8ff" d="M655.16,-359.89C676,-362.34 697.89,-364.92 719.04,-367.41"/>
<polygon fill="#63b8ff" stroke="#63b8ff" points="718.52,-370.87 728.86,-368.57 719.34,-363.92 718.52,-370.87"/>
</a>
</g>
</g>
<!-- Node6 -->
<g id="Node000006" class="node">
<title>Node6</title>
<g id="a_Node000006"><a xlink:href="classcom_1_1runehive_1_1content_1_1dialogue_1_1_dialogue_factory.html#a6ce434d7d06968060ccb0f0a624358ee" target="_top" xlink:title=" ">
<ellipse fill="white" stroke="#666666" cx="842.39" cy="-311.81" rx="129.05" ry="25.81"/>
<text xml:space="preserve" text-anchor="start" x="759.14" y="-314.66" font-family="Helvetica,sans-Serif" font-size="12.00">com.runehive.content.dialogue.</text>
<text xml:space="preserve" text-anchor="middle" x="842.39" y="-300.41" font-family="Helvetica,sans-Serif" font-size="12.00">DialogueFactory.setActive</text>
</a>
</g>
</g>
<!-- Node2&#45;&gt;Node6 -->
<g id="edge5_Node000002_Node000006" class="edge">
<title>Node2&#45;&gt;Node6</title>
<g id="a_edge5_Node000002_Node000006"><a xlink:title=" ">
<path fill="none" stroke="#63b8ff" d="M655.16,-333.73C676,-331.27 697.89,-328.7 719.04,-326.21"/>
<polygon fill="#63b8ff" stroke="#63b8ff" points="719.34,-329.7 728.86,-325.05 718.52,-322.75 719.34,-329.7"/>
</a>
</g>
</g>
<!-- Node7 -->
<g id="Node000007" class="node">
<title>Node7</title>
<g id="a_Node000007"><a xlink:href="classcom_1_1runehive_1_1content_1_1dialogue_1_1_dialogue_factory.html#a0b658967f161f2b4d870c947ae7851cb" target="_top" xlink:title="Sets the next action in the dialogue chain.">
<ellipse fill="white" stroke="#666666" cx="842.39" cy="-241.81" rx="129.05" ry="25.81"/>
<text xml:space="preserve" text-anchor="start" x="759.14" y="-244.66" font-family="Helvetica,sans-Serif" font-size="12.00">com.runehive.content.dialogue.</text>
<text xml:space="preserve" text-anchor="middle" x="842.39" y="-230.41" font-family="Helvetica,sans-Serif" font-size="12.00">DialogueFactory.setNextAction</text>
</a>
</g>
</g>
<!-- Node2&#45;&gt;Node7 -->
<g id="edge6_Node000002_Node000007" class="edge">
<title>Node2&#45;&gt;Node7</title>
<g id="a_edge6_Node000002_Node000007"><a xlink:title=" ">
<path fill="none" stroke="#63b8ff" d="M596.02,-322.91C628.68,-308.44 671.91,-290.25 711.22,-276.81 723.21,-272.71 735.95,-268.78 748.59,-265.13"/>
<polygon fill="#63b8ff" stroke="#63b8ff" points="749.52,-268.5 758.19,-262.41 747.61,-261.77 749.52,-268.5"/>
</a>
</g>
</g>
<!-- Node8&#45;&gt;Node3 -->
<g id="edge10_Node000008_Node000003" class="edge">
<title>Node8&#45;&gt;Node3</title>
<g id="a_edge10_Node000008_Node000003"><a xlink:title=" ">
<path fill="none" stroke="#63b8ff" d="M671.83,-176.6C757.27,-174.93 872.17,-172.33 973.56,-168.81 982.85,-168.49 992.42,-168.13 1002.07,-167.74"/>
<polygon fill="#63b8ff" stroke="#63b8ff" points="1002.05,-171.24 1011.9,-167.34 1001.77,-164.25 1002.05,-171.24"/>
</a>
</g>
</g>
<!-- Node9 -->
<g id="Node000009" class="node">
<title>Node9</title>
<g id="a_Node000009"><a xlink:href="classcom_1_1runehive_1_1content_1_1dialogue_1_1_dialogue_factory.html#a8979431ba1fa2913a9ed65bbf8e4dd3f" target="_top" xlink:title="Appends a chain to this factory.">
<ellipse fill="white" stroke="#666666" cx="842.39" cy="-133.81" rx="129.05" ry="25.81"/>
<text xml:space="preserve" text-anchor="start" x="759.14" y="-136.66" font-family="Helvetica,sans-Serif" font-size="12.00">com.runehive.content.dialogue.</text>
<text xml:space="preserve" text-anchor="middle" x="842.39" y="-122.41" font-family="Helvetica,sans-Serif" font-size="12.00">DialogueFactory.append</text>
</a>
</g>
</g>
<!-- Node8&#45;&gt;Node9 -->
<g id="edge8_Node000008_Node000009" class="edge">
<title>Node8&#45;&gt;Node9</title>
<g id="a_edge8_Node000008_Node000009"><a xlink:title=" ">
<path fill="none" stroke="#63b8ff" d="M647.18,-163.2C673.01,-159.29 700.88,-155.07 727.21,-151.09"/>
<polygon fill="#63b8ff" stroke="#63b8ff" points="727.53,-154.58 736.9,-149.62 726.49,-147.66 727.53,-154.58"/>
</a>
</g>
</g>
<!-- Node9&#45;&gt;Node3 -->
<g id="edge9_Node000009_Node000003" class="edge">
<title>Node9&#45;&gt;Node3</title>
<g id="a_edge9_Node000009_Node000003"><a xlink:title=" ">
<path fill="none" stroke="#63b8ff" d="M961.06,-144.29C977.3,-145.73 994.07,-147.23 1010.6,-148.7"/>
<polygon fill="#63b8ff" stroke="#63b8ff" points="1010.22,-152.18 1020.49,-149.58 1010.84,-145.2 1010.22,-152.18"/>
</a>
</g>
</g>
<!-- Node10&#45;&gt;Node3 -->
<g id="edge13_Node000010_Node000003" class="edge">
<title>Node10&#45;&gt;Node3</title>
<g id="a_edge13_Node000010_Node000003"><a xlink:title=" ">
<path fill="none" stroke="#63b8ff" d="M669.14,-81.88C755.41,-78.97 872.33,-80.13 973.56,-98.81 1010.78,-105.68 1050.66,-119.49 1082.74,-132.33"/>
<polygon fill="#63b8ff" stroke="#63b8ff" points="1081.32,-135.54 1091.91,-136.07 1083.97,-129.05 1081.32,-135.54"/>
</a>
</g>
</g>
<!-- Node10&#45;&gt;Node9 -->
<g id="edge12_Node000010_Node000009" class="edge">
<title>Node10&#45;&gt;Node9</title>
<g id="a_edge12_Node000010_Node000009"><a xlink:title=" ">
<path fill="none" stroke="#63b8ff" d="M649.68,-105.45C674.55,-109.13 701.18,-113.06 726.43,-116.8"/>
<polygon fill="#63b8ff" stroke="#63b8ff" points="725.64,-120.22 736.05,-118.22 726.67,-113.3 725.64,-120.22"/>
</a>
</g>
</g>
<!-- Node11 -->
<g id="Node000011" class="node">
<title>Node11</title>
<g id="a_Node000011"><a xlink:href="classcom_1_1runehive_1_1content_1_1dialogue_1_1_dialogue_factory.html#ab2aefcffbd4c555eebf5439f4c437d25" target="_top" xlink:title="The method that validates the length of text.">
<ellipse fill="white" stroke="#666666" cx="842.39" cy="-25.81" rx="131.17" ry="25.81"/>
<text xml:space="preserve" text-anchor="start" x="757.64" y="-28.66" font-family="Helvetica,sans-Serif" font-size="12.00">com.runehive.content.dialogue.</text>
<text xml:space="preserve" text-anchor="middle" x="842.39" y="-14.41" font-family="Helvetica,sans-Serif" font-size="12.00">DialogueFactory.validateLength</text>
</a>
</g>
</g>
<!-- Node10&#45;&gt;Node11 -->
<g id="edge14_Node000010_Node000011" class="edge">
<title>Node10&#45;&gt;Node11</title>
<g id="a_edge14_Node000010_Node000011"><a xlink:title=" ">
<path fill="none" stroke="#63b8ff" d="M633.22,-70.61C667.27,-63.28 706.29,-54.88 741.28,-47.35"/>
<polygon fill="#63b8ff" stroke="#63b8ff" points="741.96,-50.79 751,-45.26 740.49,-43.94 741.96,-50.79"/>
</a>
</g>
</g>
</g>
</svg>
