<?xml version="1.0" encoding="UTF-8" standalone="no"?>
<!DOCTYPE svg PUBLIC "-//W3C//DTD SVG 1.1//EN"
 "http://www.w3.org/Graphics/SVG/1.1/DTD/svg11.dtd">
<!-- Generated by graphviz version 14.0.1 (20251006.0113)
 -->
<!-- Title: com.runehive.content.tradingpost.TradingPost.searchExistingListing Pages: 1 -->
<!--zoomable 658 -->

<svg id="main" version="1.1" xmlns="http://www.w3.org/2000/svg" xmlns:xlink="http://www.w3.org/1999/xlink" xml:space="preserve" onload="init(evt)">

<style type="text/css"><![CDATA[
.node, .edge {opacity: 0.7;}
.node.selected, .edge.selected {opacity: 1;}
.edge:hover path { stroke: red; }
.edge:hover polygon { stroke: red; fill: red; }
]]></style>

<defs>
  <circle id="rim" cx="0" cy="0" r="7"/>
  <circle id="rim2" cx="0" cy="0" r="3.5"/>
  <g id="zoomPlus">
    <use xlink:href="#rim" fill="#404040"><set attributeName="fill" to="#808080" begin="zoomplus.mouseover" end="zoomplus.mouseout"/></use>
    <path d="M-4,0h8M0,-4v8" fill="none" stroke="white" stroke-width="1.5" pointer-events="none"/>
  </g>
  <g id="zoomMin">
    <use xlink:href="#rim" fill="#404040"><set attributeName="fill" to="#808080" begin="zoomminus.mouseover" end="zoomminus.mouseout"/></use>
    <path d="M-4,0h8" fill="none" stroke="white" stroke-width="1.5" pointer-events="none"/>
  </g>
  <g id="arrowUp" transform="translate(30 24)">
    <use xlink:href="#rim"/>
    <path pointer-events="none" fill="none" stroke="white" stroke-width="1.5" d="M0,-3.0v7 M-2.5,-0.5L0,-3.0L2.5,-0.5"/>
  </g>
  <g id="arrowRight" transform="rotate(90) translate(36 -43)">
    <use xlink:href="#rim"/>
    <path pointer-events="none" fill="none" stroke="white" stroke-width="1.5" d="M0,-3.0v7 M-2.5,-0.5L0,-3.0L2.5,-0.5"/>
  </g>
  <g id="arrowDown" transform="rotate(180) translate(-30 -48)">
    <use xlink:href="#rim"/>
    <path pointer-events="none" fill="none" stroke="white" stroke-width="1.5" d="M0,-3.0v7 M-2.5,-0.5L0,-3.0L2.5,-0.5"/>
  </g>
  <g id="arrowLeft" transform="rotate(270) translate(-36 17)">
    <use xlink:href="#rim"/>
    <path pointer-events="none" fill="none" stroke="white" stroke-width="1.5" d="M0,-3.0v7 M-2.5,-0.5L0,-3.0L2.5,-0.5"/>
  </g>
  <g id="resetDef">
    <use xlink:href="#rim2" fill="#404040"><set attributeName="fill" to="#808080" begin="reset.mouseover" end="reset.mouseout"/></use>
  </g>
</defs>
<script type="application/ecmascript">
var viewWidth = 2398;
var viewHeight = 658;
var sectionId = 'dynsection-65';
</script>
<script type="application/ecmascript" xlink:href="svg.min.js"/>
<svg id="graph" class="graph">
<g id="viewport">
<title>com.runehive.content.tradingpost.TradingPost.searchExistingListing</title>
<!-- Node1 -->
<g id="Node000001" class="node">
<title>Node1</title>
<g id="a_Node000001"><a xlink:title=" ">
<ellipse fill="#999999" stroke="#666666" cx="139.65" cy="-561.81" rx="139.65" ry="25.81"/>
<text xml:space="preserve" text-anchor="start" x="48.9" y="-564.66" font-family="Helvetica,sans-Serif" font-size="12.00">com.runehive.content.tradingpost.</text>
<text xml:space="preserve" text-anchor="middle" x="139.65" y="-550.41" font-family="Helvetica,sans-Serif" font-size="12.00">TradingPost.searchExistingListing</text>
</a>
</g>
</g>
<!-- Node2 -->
<g id="Node000002" class="node">
<title>Node2</title>
<g id="a_Node000002"><a xlink:href="classcom_1_1runehive_1_1content_1_1tradingpost_1_1_trading_post.html#a092d89dc8146869a5890cb8a8ea7e602" target="_top" xlink:title=" ">
<ellipse fill="white" stroke="#666666" cx="843.98" cy="-553.81" rx="172" ry="35.89"/>
<text xml:space="preserve" text-anchor="start" x="730.36" y="-563.78" font-family="Helvetica,sans-Serif" font-size="12.00">com.runehive.content.tradingpost.</text>
<text xml:space="preserve" text-anchor="start" x="730.36" y="-549.53" font-family="Helvetica,sans-Serif" font-size="12.00">TradingPost.addSearchResultsAndUpdate</text>
<text xml:space="preserve" text-anchor="middle" x="843.98" y="-535.28" font-family="Helvetica,sans-Serif" font-size="12.00">Interface</text>
</a>
</g>
</g>
<!-- Node1&#45;&gt;Node2 -->
<g id="edge1_Node000001_Node000002" class="edge">
<title>Node1&#45;&gt;Node2</title>
<g id="a_edge1_Node000001_Node000002"><a xlink:title=" ">
<path fill="none" stroke="#63b8ff" d="M226.31,-582.49C254.48,-588.34 286.07,-593.91 315.31,-596.81 457.13,-610.88 494.21,-611.38 635.98,-596.81 663.42,-593.99 692.58,-589.12 720.1,-583.65"/>
<polygon fill="#63b8ff" stroke="#63b8ff" points="720.79,-587.08 729.89,-581.66 719.39,-580.22 720.79,-587.08"/>
</a>
</g>
</g>
<!-- Node17 -->
<g id="Node000017" class="node">
<title>Node17</title>
<g id="a_Node000017"><a xlink:href="classcom_1_1runehive_1_1content_1_1tradingpost_1_1_trading_post.html#a58f012aba8706ee3a601f001f4cfec48" target="_top" xlink:title=" ">
<ellipse fill="white" stroke="#666666" cx="475.64" cy="-561.81" rx="138.06" ry="25.81"/>
<text xml:space="preserve" text-anchor="start" x="386.02" y="-564.66" font-family="Helvetica,sans-Serif" font-size="12.00">com.runehive.content.tradingpost.</text>
<text xml:space="preserve" text-anchor="middle" x="475.64" y="-550.41" font-family="Helvetica,sans-Serif" font-size="12.00">TradingPost.cleanUp</text>
</a>
</g>
</g>
<!-- Node1&#45;&gt;Node17 -->
<g id="edge19_Node000001_Node000017" class="edge">
<title>Node1&#45;&gt;Node17</title>
<g id="a_edge19_Node000001_Node000017"><a xlink:title=" ">
<path fill="none" stroke="#63b8ff" d="M279.39,-561.81C294.75,-561.81 310.44,-561.81 325.92,-561.81"/>
<polygon fill="#63b8ff" stroke="#63b8ff" points="325.63,-565.31 335.63,-561.81 325.63,-558.31 325.63,-565.31"/>
</a>
</g>
</g>
<!-- Node18 -->
<g id="Node000018" class="node">
<title>Node18</title>
<g id="a_Node000018"><a xlink:href="classcom_1_1runehive_1_1content_1_1tradingpost_1_1_trading_post.html#a10d70e673061289a3d56504bf845d201" target="_top" xlink:title=" ">
<ellipse fill="white" stroke="#666666" cx="475.64" cy="-491.81" rx="160.34" ry="25.81"/>
<text xml:space="preserve" text-anchor="start" x="370.27" y="-494.66" font-family="Helvetica,sans-Serif" font-size="12.00">com.runehive.content.tradingpost.</text>
<text xml:space="preserve" text-anchor="middle" x="475.64" y="-480.41" font-family="Helvetica,sans-Serif" font-size="12.00">TradingPost.displayMostRecentListings</text>
</a>
</g>
</g>
<!-- Node1&#45;&gt;Node18 -->
<g id="edge20_Node000001_Node000018" class="edge">
<title>Node1&#45;&gt;Node18</title>
<g id="a_edge20_Node000001_Node000018"><a xlink:title=" ">
<path fill="none" stroke="#63b8ff" d="M233.69,-542.31C274.44,-533.77 322.56,-523.68 365.03,-514.78"/>
<polygon fill="#63b8ff" stroke="#63b8ff" points="365.73,-518.21 374.8,-512.74 364.29,-511.36 365.73,-518.21"/>
</a>
</g>
</g>
<!-- Node3 -->
<g id="Node000003" class="node">
<title>Node3</title>
<g id="a_Node000003"><a xlink:href="classcom_1_1runehive_1_1content_1_1tradingpost_1_1_trading_post.html#a5d25d21f5529550f45274c2ab91a2c5e" target="_top" xlink:title=" ">
<ellipse fill="white" stroke="#666666" cx="1214.45" cy="-623.81" rx="138.06" ry="25.81"/>
<text xml:space="preserve" text-anchor="start" x="1124.82" y="-626.66" font-family="Helvetica,sans-Serif" font-size="12.00">com.runehive.content.tradingpost.</text>
<text xml:space="preserve" text-anchor="middle" x="1214.45" y="-612.41" font-family="Helvetica,sans-Serif" font-size="12.00">TradingPost.getPageListings</text>
</a>
</g>
</g>
<!-- Node2&#45;&gt;Node3 -->
<g id="edge2_Node000002_Node000003" class="edge">
<title>Node2&#45;&gt;Node3</title>
<g id="a_edge2_Node000002_Node000003"><a xlink:title=" ">
<path fill="none" stroke="#63b8ff" d="M972.56,-578.05C1015.7,-586.24 1063.44,-595.31 1104.95,-603.2"/>
<polygon fill="#63b8ff" stroke="#63b8ff" points="1104.24,-606.63 1114.72,-605.05 1105.55,-599.75 1104.24,-606.63"/>
</a>
</g>
</g>
<!-- Node4 -->
<g id="Node000004" class="node">
<title>Node4</title>
<g id="a_Node000004"><a xlink:href="classcom_1_1runehive_1_1content_1_1tradingpost_1_1_trading_post.html#ad990a07f12ccac6f476679c83d2b6f32" target="_top" xlink:title=" ">
<ellipse fill="white" stroke="#666666" cx="1214.45" cy="-553.81" rx="138.06" ry="25.81"/>
<text xml:space="preserve" text-anchor="start" x="1124.82" y="-556.66" font-family="Helvetica,sans-Serif" font-size="12.00">com.runehive.content.tradingpost.</text>
<text xml:space="preserve" text-anchor="middle" x="1214.45" y="-542.41" font-family="Helvetica,sans-Serif" font-size="12.00">TradingPost.getSearchResults</text>
</a>
</g>
</g>
<!-- Node2&#45;&gt;Node4 -->
<g id="edge3_Node000002_Node000004" class="edge">
<title>Node2&#45;&gt;Node4</title>
<g id="a_edge3_Node000002_Node000004"><a xlink:title=" ">
<path fill="none" stroke="#63b8ff" d="M1016.27,-553.81C1032.38,-553.81 1048.61,-553.81 1064.49,-553.81"/>
<polygon fill="#63b8ff" stroke="#63b8ff" points="1064.46,-557.31 1074.46,-553.81 1064.46,-550.31 1064.46,-557.31"/>
</a>
</g>
</g>
<!-- Node8 -->
<g id="Node000008" class="node">
<title>Node8</title>
<g id="a_Node000008"><a xlink:href="classcom_1_1runehive_1_1content_1_1tradingpost_1_1_trading_post.html#ade08bc65b323ceb29793b90b647771a2" target="_top" xlink:title=" ">
<ellipse fill="white" stroke="#666666" cx="1214.45" cy="-340.81" rx="162.46" ry="25.81"/>
<text xml:space="preserve" text-anchor="start" x="1107.57" y="-343.66" font-family="Helvetica,sans-Serif" font-size="12.00">com.runehive.content.tradingpost.</text>
<text xml:space="preserve" text-anchor="middle" x="1214.45" y="-329.41" font-family="Helvetica,sans-Serif" font-size="12.00">TradingPost.updateBuyingPageWidgets</text>
</a>
</g>
</g>
<!-- Node2&#45;&gt;Node8 -->
<g id="edge7_Node000002_Node000008" class="edge">
<title>Node2&#45;&gt;Node8</title>
<g id="a_edge7_Node000002_Node000008"><a xlink:title=" ">
<path fill="none" stroke="#63b8ff" d="M903.78,-519.82C974.46,-478.96 1092.06,-410.98 1160.18,-371.6"/>
<polygon fill="#63b8ff" stroke="#63b8ff" points="1161.65,-374.8 1168.55,-366.76 1158.14,-368.74 1161.65,-374.8"/>
</a>
</g>
</g>
<!-- Node5 -->
<g id="Node000005" class="node">
<title>Node5</title>
<g id="a_Node000005"><a xlink:href="classcom_1_1runehive_1_1game_1_1world_1_1items_1_1_item_definition.html#a50e4924075ee157cd3f75a8107a595fa" target="_top" xlink:title="Gets an item definition.">
<ellipse fill="white" stroke="#666666" cx="1955.37" cy="-499.81" rx="132.76" ry="25.81"/>
<text xml:space="preserve" text-anchor="start" x="1869.49" y="-502.66" font-family="Helvetica,sans-Serif" font-size="12.00">com.runehive.game.world.items.</text>
<text xml:space="preserve" text-anchor="middle" x="1955.37" y="-488.41" font-family="Helvetica,sans-Serif" font-size="12.00">ItemDefinition.get</text>
</a>
</g>
</g>
<!-- Node4&#45;&gt;Node5 -->
<g id="edge4_Node000004_Node000005" class="edge">
<title>Node4&#45;&gt;Node5</title>
<g id="a_edge4_Node000004_Node000005"><a xlink:title=" ">
<path fill="none" stroke="#63b8ff" d="M1306.43,-573.38C1339.75,-579.63 1377.87,-585.73 1412.9,-588.81 1578.36,-603.36 1625.43,-628.92 1786.61,-588.81 1831.26,-577.7 1877.09,-552.25 1909.54,-531.4"/>
<polygon fill="#63b8ff" stroke="#63b8ff" points="1911.44,-534.33 1917.89,-525.93 1907.61,-528.48 1911.44,-534.33"/>
</a>
</g>
</g>
<!-- Node7 -->
<g id="Node000007" class="node">
<title>Node7</title>
<g id="a_Node000007"><a xlink:href="classcom_1_1runehive_1_1game_1_1world_1_1items_1_1_item_definition.html#aa9479e24430ebdd5855705e1177346b4" target="_top" xlink:title="Gets the item name.">
<ellipse fill="white" stroke="#666666" cx="1599.76" cy="-553.81" rx="132.76" ry="25.81"/>
<text xml:space="preserve" text-anchor="start" x="1513.88" y="-556.66" font-family="Helvetica,sans-Serif" font-size="12.00">com.runehive.game.world.items.</text>
<text xml:space="preserve" text-anchor="middle" x="1599.76" y="-542.41" font-family="Helvetica,sans-Serif" font-size="12.00">ItemDefinition.getName</text>
</a>
</g>
</g>
<!-- Node4&#45;&gt;Node7 -->
<g id="edge6_Node000004_Node000007" class="edge">
<title>Node4&#45;&gt;Node7</title>
<g id="a_edge6_Node000004_Node000007"><a xlink:title=" ">
<path fill="none" stroke="#63b8ff" d="M1352.75,-553.81C1386.04,-553.81 1421.72,-553.81 1455.29,-553.81"/>
<polygon fill="#63b8ff" stroke="#63b8ff" points="1455.07,-557.31 1465.07,-553.81 1455.07,-550.31 1455.07,-557.31"/>
</a>
</g>
</g>
<!-- Node6 -->
<g id="Node000006" class="node">
<title>Node6</title>
<g id="a_Node000006"><a xlink:href="classcom_1_1runehive_1_1game_1_1world_1_1items_1_1_item_definition.html#a4fafaf641c0490165d697a73006e76bf" target="_top" xlink:title=" ">
<ellipse fill="white" stroke="#666666" cx="2256.89" cy="-499.81" rx="132.76" ry="25.81"/>
<text xml:space="preserve" text-anchor="start" x="2171.01" y="-502.66" font-family="Helvetica,sans-Serif" font-size="12.00">com.runehive.game.world.items.</text>
<text xml:space="preserve" text-anchor="middle" x="2256.89" y="-488.41" font-family="Helvetica,sans-Serif" font-size="12.00">ItemDefinition.ItemDefinition</text>
</a>
</g>
</g>
<!-- Node5&#45;&gt;Node6 -->
<g id="edge5_Node000005_Node000006" class="edge">
<title>Node5&#45;&gt;Node6</title>
<g id="a_edge5_Node000005_Node000006"><a xlink:title=" ">
<path fill="none" stroke="#63b8ff" d="M2088.61,-499.81C2096.6,-499.81 2104.66,-499.81 2112.69,-499.81"/>
<polygon fill="#63b8ff" stroke="#63b8ff" points="2112.5,-503.31 2122.5,-499.81 2112.5,-496.31 2112.5,-503.31"/>
</a>
</g>
</g>
<!-- Node8&#45;&gt;Node5 -->
<g id="edge9_Node000008_Node000005" class="edge">
<title>Node8&#45;&gt;Node5</title>
<g id="a_edge9_Node000008_Node000005"><a xlink:title=" ">
<path fill="none" stroke="#63b8ff" d="M1241.01,-366.63C1276.16,-400.16 1343.03,-457.2 1412.9,-480.81 1484.08,-504.87 1677.3,-506.3 1812.51,-503.97"/>
<polygon fill="#63b8ff" stroke="#63b8ff" points="1812.32,-507.48 1822.26,-503.8 1812.19,-500.48 1812.32,-507.48"/>
</a>
</g>
</g>
<!-- Node8&#45;&gt;Node7 -->
<g id="edge15_Node000008_Node000007" class="edge">
<title>Node8&#45;&gt;Node7</title>
<g id="a_edge15_Node000008_Node000007"><a xlink:title=" ">
<path fill="none" stroke="#63b8ff" d="M1237.1,-366.8C1270.63,-405.23 1338.99,-476.66 1412.9,-513.81 1432.71,-523.76 1454.91,-531.25 1476.89,-536.87"/>
<polygon fill="#63b8ff" stroke="#63b8ff" points="1475.99,-540.25 1486.53,-539.21 1477.64,-533.45 1475.99,-540.25"/>
</a>
</g>
</g>
<!-- Node9 -->
<g id="Node000009" class="node">
<title>Node9</title>
<g id="a_Node000009"><a xlink:href="classcom_1_1runehive_1_1util_1_1_utility.html#a490026d68b72e2dea391680a7d49a844" target="_top" xlink:title="Formats digits for integers.">
<ellipse fill="white" stroke="#666666" cx="1599.76" cy="-445.81" rx="123.74" ry="25.81"/>
<text xml:space="preserve" text-anchor="start" x="1520.26" y="-448.66" font-family="Helvetica,sans-Serif" font-size="12.00">com.runehive.util.Utility.format</text>
<text xml:space="preserve" text-anchor="middle" x="1599.76" y="-434.41" font-family="Helvetica,sans-Serif" font-size="12.00">Digits</text>
</a>
</g>
</g>
<!-- Node8&#45;&gt;Node9 -->
<g id="edge8_Node000008_Node000009" class="edge">
<title>Node8&#45;&gt;Node9</title>
<g id="a_edge8_Node000008_Node000009"><a xlink:title=" ">
<path fill="none" stroke="#63b8ff" d="M1276.05,-365.04C1314.73,-379.81 1366.2,-398.21 1412.9,-410.81 1437.34,-417.4 1463.92,-423.2 1489.12,-428.08"/>
<polygon fill="#63b8ff" stroke="#63b8ff" points="1488.25,-431.47 1498.72,-429.9 1489.55,-424.6 1488.25,-431.47"/>
</a>
</g>
</g>
<!-- Node10 -->
<g id="Node000010" class="node">
<title>Node10</title>
<g id="a_Node000010"><a xlink:href="classcom_1_1runehive_1_1content_1_1tradingpost_1_1_trading_post_listing.html#a1da368379fb26a922aa566bb0d0f47e1" target="_top" xlink:title=" ">
<ellipse fill="white" stroke="#666666" cx="1599.76" cy="-375.81" rx="138.59" ry="25.81"/>
<text xml:space="preserve" text-anchor="start" x="1509.76" y="-378.66" font-family="Helvetica,sans-Serif" font-size="12.00">com.runehive.content.tradingpost.</text>
<text xml:space="preserve" text-anchor="middle" x="1599.76" y="-364.41" font-family="Helvetica,sans-Serif" font-size="12.00">TradingPostListing.getAmountLeft</text>
</a>
</g>
</g>
<!-- Node8&#45;&gt;Node10 -->
<g id="edge10_Node000008_Node000010" class="edge">
<title>Node8&#45;&gt;Node10</title>
<g id="a_edge10_Node000008_Node000010"><a xlink:title=" ">
<path fill="none" stroke="#63b8ff" d="M1356.27,-353.67C1391.25,-356.86 1428.66,-360.28 1463.37,-363.45"/>
<polygon fill="#63b8ff" stroke="#63b8ff" points="1462.75,-366.91 1473.03,-364.33 1463.39,-359.93 1462.75,-366.91"/>
</a>
</g>
</g>
<!-- Node11 -->
<g id="Node000011" class="node">
<title>Node11</title>
<g id="a_Node000011"><a xlink:href="classcom_1_1runehive_1_1content_1_1tradingpost_1_1_trading_post.html#a10e1c838e60e7ab86ea26d19bb66cd51" target="_top" xlink:title=" ">
<ellipse fill="white" stroke="#666666" cx="1599.76" cy="-305.81" rx="178.9" ry="25.81"/>
<text xml:space="preserve" text-anchor="start" x="1481.26" y="-308.66" font-family="Helvetica,sans-Serif" font-size="12.00">com.runehive.content.tradingpost.</text>
<text xml:space="preserve" text-anchor="middle" x="1599.76" y="-294.41" font-family="Helvetica,sans-Serif" font-size="12.00">TradingPost.getItemArrayFromActiveListings</text>
</a>
</g>
</g>
<!-- Node8&#45;&gt;Node11 -->
<g id="edge11_Node000008_Node000011" class="edge">
<title>Node8&#45;&gt;Node11</title>
<g id="a_edge11_Node000008_Node000011"><a xlink:title=" ">
<path fill="none" stroke="#63b8ff" d="M1356.27,-327.95C1382.25,-325.58 1409.56,-323.08 1436.12,-320.66"/>
<polygon fill="#63b8ff" stroke="#63b8ff" points="1436.3,-324.16 1445.94,-319.76 1435.66,-317.19 1436.3,-324.16"/>
</a>
</g>
</g>
<!-- Node13 -->
<g id="Node000013" class="node">
<title>Node13</title>
<g id="a_Node000013"><a xlink:href="classcom_1_1runehive_1_1content_1_1tradingpost_1_1_trading_post_listing.html#aabefa78a76c6fd5a1fadad0e68816391" target="_top" xlink:title=" ">
<ellipse fill="white" stroke="#666666" cx="1599.76" cy="-235.81" rx="138.06" ry="25.81"/>
<text xml:space="preserve" text-anchor="start" x="1510.13" y="-238.66" font-family="Helvetica,sans-Serif" font-size="12.00">com.runehive.content.tradingpost.</text>
<text xml:space="preserve" text-anchor="middle" x="1599.76" y="-224.41" font-family="Helvetica,sans-Serif" font-size="12.00">TradingPostListing.getItemId</text>
</a>
</g>
</g>
<!-- Node8&#45;&gt;Node13 -->
<g id="edge14_Node000008_Node000013" class="edge">
<title>Node8&#45;&gt;Node13</title>
<g id="a_edge14_Node000008_Node000013"><a xlink:title=" ">
<path fill="none" stroke="#63b8ff" d="M1276.05,-316.58C1314.73,-301.81 1366.2,-283.4 1412.9,-270.81 1435.34,-264.76 1459.58,-259.38 1482.91,-254.76"/>
<polygon fill="#63b8ff" stroke="#63b8ff" points="1483.28,-258.25 1492.43,-252.91 1481.95,-251.38 1483.28,-258.25"/>
</a>
</g>
</g>
<!-- Node14 -->
<g id="Node000014" class="node">
<title>Node14</title>
<g id="a_Node000014"><a xlink:href="classcom_1_1runehive_1_1content_1_1tradingpost_1_1_trading_post_listing.html#a21f52cf795b5f9c154da3352a04716ff" target="_top" xlink:title=" ">
<ellipse fill="white" stroke="#666666" cx="1599.76" cy="-165.81" rx="138.06" ry="25.81"/>
<text xml:space="preserve" text-anchor="start" x="1510.13" y="-168.66" font-family="Helvetica,sans-Serif" font-size="12.00">com.runehive.content.tradingpost.</text>
<text xml:space="preserve" text-anchor="middle" x="1599.76" y="-154.41" font-family="Helvetica,sans-Serif" font-size="12.00">TradingPostListing.getPrice</text>
</a>
</g>
</g>
<!-- Node8&#45;&gt;Node14 -->
<g id="edge16_Node000008_Node000014" class="edge">
<title>Node8&#45;&gt;Node14</title>
<g id="a_edge16_Node000008_Node000014"><a xlink:title=" ">
<path fill="none" stroke="#63b8ff" d="M1243.15,-315.16C1279.33,-283.17 1345.98,-229.22 1412.9,-200.81 1431.26,-193.02 1451.38,-186.95 1471.38,-182.23"/>
<polygon fill="#63b8ff" stroke="#63b8ff" points="1471.99,-185.68 1480.99,-180.08 1470.46,-178.85 1471.99,-185.68"/>
</a>
</g>
</g>
<!-- Node15 -->
<g id="Node000015" class="node">
<title>Node15</title>
<g id="a_Node000015"><a xlink:href="classcom_1_1runehive_1_1content_1_1tradingpost_1_1_trading_post_listing.html#ace279895b1d1ce0a47e86a05f1325e0b" target="_top" xlink:title=" ">
<ellipse fill="white" stroke="#666666" cx="1599.76" cy="-95.81" rx="138.06" ry="25.81"/>
<text xml:space="preserve" text-anchor="start" x="1510.13" y="-98.66" font-family="Helvetica,sans-Serif" font-size="12.00">com.runehive.content.tradingpost.</text>
<text xml:space="preserve" text-anchor="middle" x="1599.76" y="-84.41" font-family="Helvetica,sans-Serif" font-size="12.00">TradingPostListing.getSeller</text>
</a>
</g>
</g>
<!-- Node8&#45;&gt;Node15 -->
<g id="edge17_Node000008_Node000015" class="edge">
<title>Node8&#45;&gt;Node15</title>
<g id="a_edge17_Node000008_Node000015"><a xlink:title=" ">
<path fill="none" stroke="#63b8ff" d="M1231.66,-314.88C1261.5,-269.55 1329.73,-176.37 1412.9,-130.81 1428.96,-122.02 1446.83,-115.39 1464.97,-110.41"/>
<polygon fill="#63b8ff" stroke="#63b8ff" points="1465.69,-113.84 1474.51,-107.97 1463.96,-107.06 1465.69,-113.84"/>
</a>
</g>
</g>
<!-- Node16 -->
<g id="Node000016" class="node">
<title>Node16</title>
<g id="a_Node000016"><a xlink:href="classcom_1_1runehive_1_1content_1_1tradingpost_1_1_trading_post.html#ae42aadd47e3438637121a8d9305e7ebb" target="_top" xlink:title=" ">
<ellipse fill="white" stroke="#666666" cx="1599.76" cy="-25.81" rx="186.85" ry="25.81"/>
<text xml:space="preserve" text-anchor="start" x="1475.63" y="-28.66" font-family="Helvetica,sans-Serif" font-size="12.00">com.runehive.content.tradingpost.</text>
<text xml:space="preserve" text-anchor="middle" x="1599.76" y="-14.41" font-family="Helvetica,sans-Serif" font-size="12.00">TradingPost.toggleBuyingPageWidgetVisibility</text>
</a>
</g>
</g>
<!-- Node8&#45;&gt;Node16 -->
<g id="edge18_Node000008_Node000016" class="edge">
<title>Node8&#45;&gt;Node16</title>
<g id="a_edge18_Node000008_Node000016"><a xlink:title=" ">
<path fill="none" stroke="#63b8ff" d="M1225.64,-314.87C1249.25,-258.51 1313.33,-124.82 1412.9,-60.81 1421.92,-55.01 1431.66,-50.12 1441.8,-46.01"/>
<polygon fill="#63b8ff" stroke="#63b8ff" points="1442.94,-49.32 1451.07,-42.52 1440.48,-42.76 1442.94,-49.32"/>
</a>
</g>
</g>
<!-- Node11&#45;&gt;Node5 -->
<g id="edge12_Node000011_Node000005" class="edge">
<title>Node11&#45;&gt;Node5</title>
<g id="a_edge12_Node000011_Node000005"><a xlink:title=" ">
<path fill="none" stroke="#63b8ff" d="M1738.25,-322.4C1755.03,-327.1 1771.55,-333.12 1786.61,-340.81 1845.41,-370.85 1897.93,-427.97 1927.95,-464.94"/>
<polygon fill="#63b8ff" stroke="#63b8ff" points="1925.17,-467.06 1934.15,-472.69 1930.64,-462.7 1925.17,-467.06"/>
</a>
</g>
</g>
<!-- Node12 -->
<g id="Node000012" class="node">
<title>Node12</title>
<g id="a_Node000012"><a xlink:href="classcom_1_1runehive_1_1game_1_1world_1_1items_1_1_item_definition.html#a02ac54bf30eac3ffea93fd35b2db8f03" target="_top" xlink:title="Gets the item note state.">
<ellipse fill="white" stroke="#666666" cx="1955.37" cy="-305.81" rx="132.76" ry="25.81"/>
<text xml:space="preserve" text-anchor="start" x="1869.49" y="-308.66" font-family="Helvetica,sans-Serif" font-size="12.00">com.runehive.game.world.items.</text>
<text xml:space="preserve" text-anchor="middle" x="1955.37" y="-294.41" font-family="Helvetica,sans-Serif" font-size="12.00">ItemDefinition.isNoted</text>
</a>
</g>
</g>
<!-- Node11&#45;&gt;Node12 -->
<g id="edge13_Node000011_Node000012" class="edge">
<title>Node11&#45;&gt;Node12</title>
<g id="a_edge13_Node000011_Node000012"><a xlink:title=" ">
<path fill="none" stroke="#63b8ff" d="M1779.12,-305.81C1789.83,-305.81 1800.54,-305.81 1811.08,-305.81"/>
<polygon fill="#63b8ff" stroke="#63b8ff" points="1810.93,-309.31 1820.93,-305.81 1810.93,-302.31 1810.93,-309.31"/>
</a>
</g>
</g>
<!-- Node18&#45;&gt;Node2 -->
<g id="edge21_Node000018_Node000002" class="edge">
<title>Node18&#45;&gt;Node2</title>
<g id="a_edge21_Node000018_Node000002"><a xlink:title=" ">
<path fill="none" stroke="#63b8ff" d="M587.55,-510.58C622.29,-516.46 661.15,-523.04 697.88,-529.25"/>
<polygon fill="#63b8ff" stroke="#63b8ff" points="697.26,-532.7 707.71,-530.92 698.43,-525.8 697.26,-532.7"/>
</a>
</g>
</g>
</g>
</svg>

<g id="navigator" transform="translate(0 0)" fill="#404254">
  <rect fill="#f2f5e9" fill-opacity="0.5" stroke="#606060" stroke-width=".5" x="0" y="0" width="60" height="60"/>
  <use id="zoomplus" xlink:href="#zoomPlus" x="17" y="9" onmousedown="handleZoom(evt,'in')"/>
  <use id="zoomminus" xlink:href="#zoomMin" x="42" y="9" onmousedown="handleZoom(evt,'out')"/>
  <use id="reset" xlink:href="#resetDef" x="30" y="36" onmousedown="handleReset()"/>
   <use id="arrowup" xlink:href="#arrowUp" x="0" y="0" onmousedown="handlePan(0,-1)"/>
  <use id="arrowright" xlink:href="#arrowRight" x="0" y="0" onmousedown="handlePan(1,0)"/>
  <use id="arrowdown" xlink:href="#arrowDown" x="0" y="0" onmousedown="handlePan(0,1)"/>
  <use id="arrowleft" xlink:href="#arrowLeft" x="0" y="0" onmousedown="handlePan(-1,0)"/>
</g>
<svg viewBox="0 0 15 15" width="100%" height="30px" preserveAspectRatio="xMaxYMin meet">
 <g id="arrow_out" transform="scale(0.3 0.3)">
  <a xlink:href="classcom_1_1runehive_1_1content_1_1tradingpost_1_1_trading_post_a25417fd9f636c0295bdf38a296f9fba6_cgraph_org.svg" target="_base">
   <rect id="button" ry="5" rx="5" y="6" x="6" height="38" width="38"
        fill="#f2f5e9" fill-opacity="0.5" stroke="#606060" stroke-width="1.0"/>
   <path id="arrow"
     d="M 11.500037,31.436501 C 11.940474,20.09759 22.043105,11.32322 32.158766,21.979434 L 37.068811,17.246167 C 37.068811,17.246167 37.088388,32 37.088388,32 L 22.160133,31.978069 C 22.160133,31.978069 26.997745,27.140456 26.997745,27.140456 C 18.528582,18.264221 13.291696,25.230495 11.500037,31.436501 z"
     style="fill:#404040;"/>
  </a>
 </g>
</svg>

<style type='text/css'>
<![CDATA[
[data-mouse-over-selected='false'] { opacity: 0.7; }
[data-mouse-over-selected='true']  { opacity: 1.0; }
]]>
</style>
<script type="application/ecmascript"><![CDATA[
document.addEventListener('DOMContentLoaded', (event) => {
  highlightEdges();
  highlightAdjacentNodes();
});
]]></script>
</svg>
