<?xml version="1.0" encoding="UTF-8" standalone="no"?>
<!DOCTYPE svg PUBLIC "-//W3C//DTD SVG 1.1//EN"
 "http://www.w3.org/Graphics/SVG/1.1/DTD/svg11.dtd">
<!-- Generated by graphviz version 14.0.1 (20251006.0113)
 -->
<!-- Title: com.runehive.content.teleport.TeleportHandler.open Pages: 1 -->
<!--zoomable 270 -->

<svg id="main" version="1.1" xmlns="http://www.w3.org/2000/svg" xmlns:xlink="http://www.w3.org/1999/xlink" xml:space="preserve" onload="init(evt)">

<style type="text/css"><![CDATA[
.node, .edge {opacity: 0.7;}
.node.selected, .edge.selected {opacity: 1;}
.edge:hover path { stroke: red; }
.edge:hover polygon { stroke: red; fill: red; }
]]></style>

<defs>
  <circle id="rim" cx="0" cy="0" r="7"/>
  <circle id="rim2" cx="0" cy="0" r="3.5"/>
  <g id="zoomPlus">
    <use xlink:href="#rim" fill="#404040"><set attributeName="fill" to="#808080" begin="zoomplus.mouseover" end="zoomplus.mouseout"/></use>
    <path d="M-4,0h8M0,-4v8" fill="none" stroke="white" stroke-width="1.5" pointer-events="none"/>
  </g>
  <g id="zoomMin">
    <use xlink:href="#rim" fill="#404040"><set attributeName="fill" to="#808080" begin="zoomminus.mouseover" end="zoomminus.mouseout"/></use>
    <path d="M-4,0h8" fill="none" stroke="white" stroke-width="1.5" pointer-events="none"/>
  </g>
  <g id="arrowUp" transform="translate(30 24)">
    <use xlink:href="#rim"/>
    <path pointer-events="none" fill="none" stroke="white" stroke-width="1.5" d="M0,-3.0v7 M-2.5,-0.5L0,-3.0L2.5,-0.5"/>
  </g>
  <g id="arrowRight" transform="rotate(90) translate(36 -43)">
    <use xlink:href="#rim"/>
    <path pointer-events="none" fill="none" stroke="white" stroke-width="1.5" d="M0,-3.0v7 M-2.5,-0.5L0,-3.0L2.5,-0.5"/>
  </g>
  <g id="arrowDown" transform="rotate(180) translate(-30 -48)">
    <use xlink:href="#rim"/>
    <path pointer-events="none" fill="none" stroke="white" stroke-width="1.5" d="M0,-3.0v7 M-2.5,-0.5L0,-3.0L2.5,-0.5"/>
  </g>
  <g id="arrowLeft" transform="rotate(270) translate(-36 17)">
    <use xlink:href="#rim"/>
    <path pointer-events="none" fill="none" stroke="white" stroke-width="1.5" d="M0,-3.0v7 M-2.5,-0.5L0,-3.0L2.5,-0.5"/>
  </g>
  <g id="resetDef">
    <use xlink:href="#rim2" fill="#404040"><set attributeName="fill" to="#808080" begin="reset.mouseover" end="reset.mouseout"/></use>
  </g>
</defs>
<script type="application/ecmascript">
var viewWidth = 838;
var viewHeight = 270;
var sectionId = 'dynsection-8';
</script>
<script type="application/ecmascript" xlink:href="svg.min.js"/>
<svg id="graph" class="graph">
<g id="viewport">
<title>com.runehive.content.teleport.TeleportHandler.open</title>
<!-- Node1 -->
<g id="Node000001" class="node">
<title>Node1</title>
<g id="a_Node000001"><a xlink:title="Opens the teleport itemcontainer.">
<ellipse fill="#999999" stroke="#666666" cx="706.1" cy="-130.81" rx="124.27" ry="25.81"/>
<text xml:space="preserve" text-anchor="start" x="626.22" y="-133.66" font-family="Helvetica,sans-Serif" font-size="12.00">com.runehive.content.teleport.</text>
<text xml:space="preserve" text-anchor="middle" x="706.1" y="-119.41" font-family="Helvetica,sans-Serif" font-size="12.00">TeleportHandler.open</text>
</a>
</g>
</g>
<!-- Node1&#45;&gt;Node1 -->
<g id="edge5_Node000001_Node000001" class="edge">
<title>Node1&#45;&gt;Node1</title>
<g id="a_edge5_Node000001_Node000001"><a xlink:title=" ">
<path fill="none" stroke="#63b8ff" d="M756.42,-165.27C749.12,-170.81 732.35,-174.62 706.1,-174.62 664.62,-174.62 646.8,-165.12 652.63,-154.25"/>
<polygon fill="#63b8ff" stroke="#63b8ff" points="759.77,-166.28 759.15,-155.7 753.04,-164.36 759.77,-166.28"/>
</a>
</g>
</g>
<!-- Node2 -->
<g id="Node000002" class="node">
<title>Node2</title>
<g id="a_Node000002"><a xlink:href="classcom_1_1runehive_1_1content_1_1teleport_1_1_teleport_handler.html#a0eee901e7607dff4d74d78b3a09544fc" target="_top" xlink:title="Handles clicking teleport buttons on the itemcontainer.">
<ellipse fill="white" stroke="#666666" cx="415.19" cy="-235.81" rx="124.27" ry="25.81"/>
<text xml:space="preserve" text-anchor="start" x="335.31" y="-238.66" font-family="Helvetica,sans-Serif" font-size="12.00">com.runehive.content.teleport.</text>
<text xml:space="preserve" text-anchor="middle" x="415.19" y="-224.41" font-family="Helvetica,sans-Serif" font-size="12.00">TeleportHandler.click</text>
</a>
</g>
</g>
<!-- Node1&#45;&gt;Node2 -->
<g id="edge1_Node000001_Node000002" class="edge">
<title>Node1&#45;&gt;Node2</title>
<g id="a_edge1_Node000001_Node000002"><a xlink:title=" ">
<path fill="none" stroke="#63b8ff" d="M645.51,-159.55C615.95,-173.14 579.46,-188.95 545.82,-200.81 530.21,-206.31 513.29,-211.45 496.98,-216.01"/>
<polygon fill="#63b8ff" stroke="#63b8ff" points="646.69,-162.86 654.29,-155.48 643.74,-156.51 646.69,-162.86"/>
</a>
</g>
</g>
<!-- Node3 -->
<g id="Node000003" class="node">
<title>Node3</title>
<g id="a_Node000003"><a xlink:href="classcom_1_1runehive_1_1game_1_1action_1_1impl_1_1_tutorial_activity.html#a04dd219bbece872de1c0785b7f9ae166" target="_top" xlink:title=" ">
<ellipse fill="white" stroke="#666666" cx="415.19" cy="-165.81" rx="130.64" ry="25.81"/>
<text xml:space="preserve" text-anchor="start" x="330.81" y="-168.66" font-family="Helvetica,sans-Serif" font-size="12.00">com.runehive.game.action.impl.</text>
<text xml:space="preserve" text-anchor="middle" x="415.19" y="-154.41" font-family="Helvetica,sans-Serif" font-size="12.00">TutorialActivity.clickButton</text>
</a>
</g>
</g>
<!-- Node1&#45;&gt;Node3 -->
<g id="edge2_Node000001_Node000003" class="edge">
<title>Node1&#45;&gt;Node3</title>
<g id="a_edge2_Node000001_Node000003"><a xlink:title=" ">
<path fill="none" stroke="#63b8ff" d="M586.53,-145.17C567.02,-147.54 546.86,-149.98 527.53,-152.32"/>
<polygon fill="#63b8ff" stroke="#63b8ff" points="586.92,-148.65 596.43,-143.97 586.08,-141.7 586.92,-148.65"/>
</a>
</g>
</g>
<!-- Node4 -->
<g id="Node000004" class="node">
<title>Node4</title>
<g id="a_Node000004"><a xlink:href="classcom_1_1runehive_1_1content_1_1teleport_1_1_teleport_handler.html#ac7feea21df41717f83f960a0c2cc5a93" target="_top" xlink:title="Handles favorite a teleport.">
<ellipse fill="white" stroke="#666666" cx="415.19" cy="-95.81" rx="124.27" ry="25.81"/>
<text xml:space="preserve" text-anchor="start" x="335.31" y="-98.66" font-family="Helvetica,sans-Serif" font-size="12.00">com.runehive.content.teleport.</text>
<text xml:space="preserve" text-anchor="middle" x="415.19" y="-84.41" font-family="Helvetica,sans-Serif" font-size="12.00">TeleportHandler.favorite</text>
</a>
</g>
</g>
<!-- Node1&#45;&gt;Node4 -->
<g id="edge3_Node000001_Node000004" class="edge">
<title>Node1&#45;&gt;Node4</title>
<g id="a_edge3_Node000001_Node000004"><a xlink:title=" ">
<path fill="none" stroke="#63b8ff" d="M586.68,-116.46C565.65,-113.92 543.87,-111.28 523.18,-108.77"/>
<polygon fill="#63b8ff" stroke="#63b8ff" points="586.08,-119.92 596.43,-117.64 586.92,-112.97 586.08,-119.92"/>
</a>
</g>
</g>
<!-- Node6 -->
<g id="Node000006" class="node">
<title>Node6</title>
<g id="a_Node000006"><a xlink:href="classcom_1_1runehive_1_1content_1_1teleport_1_1_teleport_handler.html#abf23e636107e3c4a79ac01542820c3a5" target="_top" xlink:title="Opens the teleport itemcontainer.">
<ellipse fill="white" stroke="#666666" cx="415.19" cy="-25.81" rx="124.27" ry="25.81"/>
<text xml:space="preserve" text-anchor="start" x="335.31" y="-28.66" font-family="Helvetica,sans-Serif" font-size="12.00">com.runehive.content.teleport.</text>
<text xml:space="preserve" text-anchor="middle" x="415.19" y="-14.41" font-family="Helvetica,sans-Serif" font-size="12.00">TeleportHandler.open</text>
</a>
</g>
</g>
<!-- Node1&#45;&gt;Node6 -->
<g id="edge6_Node000001_Node000006" class="edge">
<title>Node1&#45;&gt;Node6</title>
<g id="a_edge6_Node000001_Node000006"><a xlink:title=" ">
<path fill="none" stroke="#63b8ff" d="M645.51,-102.07C615.95,-88.48 579.46,-72.67 545.82,-60.81 530.21,-55.31 513.29,-50.16 496.98,-45.61"/>
<polygon fill="#63b8ff" stroke="#63b8ff" points="643.74,-105.11 654.29,-106.14 646.69,-98.76 643.74,-105.11"/>
</a>
</g>
</g>
<!-- Node5 -->
<g id="Node000005" class="node">
<title>Node5</title>
<g id="a_Node000005"><a xlink:href="classcom_1_1runehive_1_1content_1_1teleport_1_1_teleport_handler.html#a764fbc29eb313b82b888b22ae1098866" target="_top" xlink:title="Opens the teleport itemcontainer to a certain teleportNoChecks type.">
<ellipse fill="white" stroke="#666666" cx="124.27" cy="-95.81" rx="124.27" ry="25.81"/>
<text xml:space="preserve" text-anchor="start" x="44.4" y="-98.66" font-family="Helvetica,sans-Serif" font-size="12.00">com.runehive.content.teleport.</text>
<text xml:space="preserve" text-anchor="middle" x="124.27" y="-84.41" font-family="Helvetica,sans-Serif" font-size="12.00">TeleportHandler.open</text>
</a>
</g>
</g>
<!-- Node4&#45;&gt;Node5 -->
<g id="edge4_Node000004_Node000005" class="edge">
<title>Node4&#45;&gt;Node5</title>
<g id="a_edge4_Node000004_Node000005"><a xlink:title=" ">
<path fill="none" stroke="#63b8ff" d="M279.33,-95.81C269.11,-95.81 258.83,-95.81 248.68,-95.81"/>
<polygon fill="#63b8ff" stroke="#63b8ff" points="279.31,-99.31 289.31,-95.81 279.31,-92.31 279.31,-99.31"/>
</a>
</g>
</g>
</g>
</svg>

<g id="navigator" transform="translate(0 0)" fill="#404254">
  <rect fill="#f2f5e9" fill-opacity="0.5" stroke="#606060" stroke-width=".5" x="0" y="0" width="60" height="60"/>
  <use id="zoomplus" xlink:href="#zoomPlus" x="17" y="9" onmousedown="handleZoom(evt,'in')"/>
  <use id="zoomminus" xlink:href="#zoomMin" x="42" y="9" onmousedown="handleZoom(evt,'out')"/>
  <use id="reset" xlink:href="#resetDef" x="30" y="36" onmousedown="handleReset()"/>
   <use id="arrowup" xlink:href="#arrowUp" x="0" y="0" onmousedown="handlePan(0,-1)"/>
  <use id="arrowright" xlink:href="#arrowRight" x="0" y="0" onmousedown="handlePan(1,0)"/>
  <use id="arrowdown" xlink:href="#arrowDown" x="0" y="0" onmousedown="handlePan(0,1)"/>
  <use id="arrowleft" xlink:href="#arrowLeft" x="0" y="0" onmousedown="handlePan(-1,0)"/>
</g>
<svg viewBox="0 0 15 15" width="100%" height="30px" preserveAspectRatio="xMaxYMin meet">
 <g id="arrow_out" transform="scale(0.3 0.3)">
  <a xlink:href="classcom_1_1runehive_1_1content_1_1teleport_1_1_teleport_handler_a763710f3b25c9cc0c5d1af3671323370_icgraph_org.svg" target="_base">
   <rect id="button" ry="5" rx="5" y="6" x="6" height="38" width="38"
        fill="#f2f5e9" fill-opacity="0.5" stroke="#606060" stroke-width="1.0"/>
   <path id="arrow"
     d="M 11.500037,31.436501 C 11.940474,20.09759 22.043105,11.32322 32.158766,21.979434 L 37.068811,17.246167 C 37.068811,17.246167 37.088388,32 37.088388,32 L 22.160133,31.978069 C 22.160133,31.978069 26.997745,27.140456 26.997745,27.140456 C 18.528582,18.264221 13.291696,25.230495 11.500037,31.436501 z"
     style="fill:#404040;"/>
  </a>
 </g>
</svg>

<style type='text/css'>
<![CDATA[
[data-mouse-over-selected='false'] { opacity: 0.7; }
[data-mouse-over-selected='true']  { opacity: 1.0; }
]]>
</style>
<script type="application/ecmascript"><![CDATA[
document.addEventListener('DOMContentLoaded', (event) => {
  highlightEdges();
  highlightAdjacentNodes();
});
]]></script>
</svg>
