<?xml version="1.0" encoding="UTF-8" standalone="no"?>
<!DOCTYPE svg PUBLIC "-//W3C//DTD SVG 1.1//EN"
 "http://www.w3.org/Graphics/SVG/1.1/DTD/svg11.dtd">
<!-- Generated by graphviz version 14.0.1 (20251006.0113)
 -->
<!-- Title: com.runehive.game.world.entity.mob.Mob.writeDamage Pages: 1 -->
<svg width="1667pt" height="367pt"
 viewBox="0.00 0.00 1667.00 367.00" xmlns="http://www.w3.org/2000/svg" xmlns:xlink="http://www.w3.org/1999/xlink">
<g id="graph0" class="graph" transform="scale(1 1) rotate(0) translate(4 362.59)">
<title>com.runehive.game.world.entity.mob.Mob.writeDamage</title>
<!-- Node1 -->
<g id="Node000001" class="node">
<title>Node1</title>
<g id="a_Node000001"><a xlink:title=" ">
<ellipse fill="#999999" stroke="#666666" cx="150.79" cy="-138.81" rx="150.79" ry="25.81"/>
<text xml:space="preserve" text-anchor="start" x="52.17" y="-141.66" font-family="Helvetica,sans-Serif" font-size="12.00">com.runehive.game.world.entity.mob.</text>
<text xml:space="preserve" text-anchor="middle" x="150.79" y="-127.41" font-family="Helvetica,sans-Serif" font-size="12.00">Mob.writeDamage</text>
</a>
</g>
</g>
<!-- Node2 -->
<g id="Node000002" class="node">
<title>Node2</title>
<g id="a_Node000002"><a xlink:href="classcom_1_1runehive_1_1game_1_1world_1_1entity_1_1mob_1_1_mob.html#a7b3fe91b11bc59386e4744f591b86f3a" target="_top" xlink:title=" ">
<ellipse fill="white" stroke="#666666" cx="488.37" cy="-165.81" rx="150.79" ry="25.81"/>
<text xml:space="preserve" text-anchor="start" x="389.75" y="-168.66" font-family="Helvetica,sans-Serif" font-size="12.00">com.runehive.game.world.entity.mob.</text>
<text xml:space="preserve" text-anchor="middle" x="488.37" y="-154.41" font-family="Helvetica,sans-Serif" font-size="12.00">Mob.decrementHealth</text>
</a>
</g>
</g>
<!-- Node1&#45;&gt;Node2 -->
<g id="edge1_Node000001_Node000002" class="edge">
<title>Node1&#45;&gt;Node2</title>
<g id="a_edge1_Node000001_Node000002"><a xlink:title=" ">
<path fill="none" stroke="#63b8ff" d="M287.8,-149.75C304.87,-151.13 322.39,-152.54 339.62,-153.92"/>
<polygon fill="#63b8ff" stroke="#63b8ff" points="339.14,-157.39 349.39,-154.71 339.7,-150.42 339.14,-157.39"/>
</a>
</g>
</g>
<!-- Node5 -->
<g id="Node000005" class="node">
<title>Node5</title>
<g id="a_Node000005"><a xlink:href="classcom_1_1runehive_1_1game_1_1world_1_1entity_1_1mob_1_1_mob.html#a385dc0248234fddaae1b093594d7bf58" target="_top" xlink:title="The combat of the mob.">
<ellipse fill="white" stroke="#666666" cx="1208.08" cy="-297.81" rx="150.79" ry="25.81"/>
<text xml:space="preserve" text-anchor="start" x="1109.46" y="-300.66" font-family="Helvetica,sans-Serif" font-size="12.00">com.runehive.game.world.entity.mob.</text>
<text xml:space="preserve" text-anchor="middle" x="1208.08" y="-286.41" font-family="Helvetica,sans-Serif" font-size="12.00">Mob.getCombat</text>
</a>
</g>
</g>
<!-- Node1&#45;&gt;Node5 -->
<g id="edge10_Node000001_Node000005" class="edge">
<title>Node1&#45;&gt;Node5</title>
<g id="a_edge10_Node000001_Node000005"><a xlink:title=" ">
<path fill="none" stroke="#63b8ff" d="M198.4,-163.59C287.79,-209.56 490.85,-306.47 675.16,-340.81 826.4,-368.98 868.45,-358.27 1021.29,-340.81 1053.08,-337.18 1087.34,-330.16 1117.68,-322.83"/>
<polygon fill="#63b8ff" stroke="#63b8ff" points="1118.33,-326.28 1127.2,-320.49 1116.65,-319.48 1118.33,-326.28"/>
</a>
</g>
</g>
<!-- Node6 -->
<g id="Node000006" class="node">
<title>Node6</title>
<g id="a_Node000006"><a xlink:href="classcom_1_1runehive_1_1game_1_1world_1_1entity_1_1mob_1_1_mob.html#a7f9f09a886babdf286840872110bb538" target="_top" xlink:title=" ">
<ellipse fill="white" stroke="#666666" cx="848.23" cy="-25.81" rx="150.79" ry="25.81"/>
<text xml:space="preserve" text-anchor="start" x="749.6" y="-28.66" font-family="Helvetica,sans-Serif" font-size="12.00">com.runehive.game.world.entity.mob.</text>
<text xml:space="preserve" text-anchor="middle" x="848.23" y="-14.41" font-family="Helvetica,sans-Serif" font-size="12.00">Mob.getCurrentHealth</text>
</a>
</g>
</g>
<!-- Node1&#45;&gt;Node6 -->
<g id="edge11_Node000001_Node000006" class="edge">
<title>Node1&#45;&gt;Node6</title>
<g id="a_edge11_Node000001_Node000006"><a xlink:title=" ">
<path fill="none" stroke="#63b8ff" d="M293.16,-129.96C425.69,-120.93 608.01,-106.36 639.16,-92.81 658.79,-84.27 656.01,-70.38 675.16,-60.81 688.2,-54.29 702.37,-48.99 716.79,-44.67"/>
<polygon fill="#63b8ff" stroke="#63b8ff" points="717.72,-48.04 726.4,-41.97 715.82,-41.31 717.72,-48.04"/>
</a>
</g>
</g>
<!-- Node11 -->
<g id="Node000011" class="node">
<title>Node11</title>
<g id="a_Node000011"><a xlink:href="classcom_1_1runehive_1_1game_1_1world_1_1entity_1_1mob_1_1_mob.html#a62a8c8130b9d619860faa014d5102d54" target="_top" xlink:title=" ">
<ellipse fill="white" stroke="#666666" cx="488.37" cy="-57.81" rx="150.79" ry="25.81"/>
<text xml:space="preserve" text-anchor="start" x="389.75" y="-60.66" font-family="Helvetica,sans-Serif" font-size="12.00">com.runehive.game.world.entity.mob.</text>
<text xml:space="preserve" text-anchor="middle" x="488.37" y="-46.41" font-family="Helvetica,sans-Serif" font-size="12.00">Mob.isDead</text>
</a>
</g>
</g>
<!-- Node1&#45;&gt;Node11 -->
<g id="edge12_Node000001_Node000011" class="edge">
<title>Node1&#45;&gt;Node11</title>
<g id="a_edge12_Node000001_Node000011"><a xlink:title=" ">
<path fill="none" stroke="#63b8ff" d="M239.52,-117.63C285.1,-106.63 340.97,-93.15 388.12,-81.77"/>
<polygon fill="#63b8ff" stroke="#63b8ff" points="388.91,-85.18 397.81,-79.43 387.26,-78.37 388.91,-85.18"/>
</a>
</g>
</g>
<!-- Node3 -->
<g id="Node000003" class="node">
<title>Node3</title>
<g id="a_Node000003"><a xlink:href="classcom_1_1runehive_1_1game_1_1world_1_1entity_1_1mob_1_1_mob.html#a4dbc2b89d21b4d83202a11d2e349fa75" target="_top" xlink:title="Handles the mob death.">
<ellipse fill="white" stroke="#666666" cx="848.23" cy="-305.81" rx="150.79" ry="25.81"/>
<text xml:space="preserve" text-anchor="start" x="749.6" y="-308.66" font-family="Helvetica,sans-Serif" font-size="12.00">com.runehive.game.world.entity.mob.</text>
<text xml:space="preserve" text-anchor="middle" x="848.23" y="-294.41" font-family="Helvetica,sans-Serif" font-size="12.00">Mob.appendDeath</text>
</a>
</g>
</g>
<!-- Node2&#45;&gt;Node3 -->
<g id="edge2_Node000002_Node000003" class="edge">
<title>Node2&#45;&gt;Node3</title>
<g id="a_edge2_Node000002_Node000003"><a xlink:title=" ">
<path fill="none" stroke="#63b8ff" d="M526.1,-191.18C562.41,-215.13 620.32,-250.32 675.16,-270.81 690.74,-276.63 707.49,-281.56 724.21,-285.71"/>
<polygon fill="#63b8ff" stroke="#63b8ff" points="723.17,-289.06 733.71,-287.98 724.79,-282.25 723.17,-289.06"/>
</a>
</g>
</g>
<!-- Node4 -->
<g id="Node000004" class="node">
<title>Node4</title>
<g id="a_Node000004"><a xlink:href="classcom_1_1runehive_1_1game_1_1world_1_1entity_1_1mob_1_1_mob.html#a3e5f834cec039d2c7c0c10b50914717f" target="_top" xlink:title=" ">
<ellipse fill="white" stroke="#666666" cx="848.23" cy="-235.81" rx="150.79" ry="25.81"/>
<text xml:space="preserve" text-anchor="start" x="749.6" y="-238.66" font-family="Helvetica,sans-Serif" font-size="12.00">com.runehive.game.world.entity.mob.</text>
<text xml:space="preserve" text-anchor="middle" x="848.23" y="-224.41" font-family="Helvetica,sans-Serif" font-size="12.00">Mob.damage</text>
</a>
</g>
</g>
<!-- Node2&#45;&gt;Node4 -->
<g id="edge3_Node000002_Node000004" class="edge">
<title>Node2&#45;&gt;Node4</title>
<g id="a_edge3_Node000002_Node000004"><a xlink:title=" ">
<path fill="none" stroke="#63b8ff" d="M589.05,-185.31C634.81,-194.26 689.24,-204.91 736.29,-214.11"/>
<polygon fill="#63b8ff" stroke="#63b8ff" points="735.49,-217.52 745.97,-216 736.83,-210.65 735.49,-217.52"/>
</a>
</g>
</g>
<!-- Node2&#45;&gt;Node6 -->
<g id="edge5_Node000002_Node000006" class="edge">
<title>Node2&#45;&gt;Node6</title>
<g id="a_edge5_Node000002_Node000006"><a xlink:title=" ">
<path fill="none" stroke="#63b8ff" d="M598.66,-147.85C613.18,-142.35 627.18,-135.17 639.16,-125.81 665.19,-105.48 648.53,-80.34 675.16,-60.81 685.04,-53.56 696.06,-47.73 707.62,-43.04"/>
<polygon fill="#63b8ff" stroke="#63b8ff" points="708.79,-46.34 716.95,-39.58 706.36,-39.78 708.79,-46.34"/>
</a>
</g>
</g>
<!-- Node9 -->
<g id="Node000009" class="node">
<title>Node9</title>
<g id="a_Node000009"><a xlink:href="classcom_1_1runehive_1_1game_1_1world_1_1entity_1_1combat_1_1hit_1_1_hit.html#a22fdbfd63860fbd3c03d530ef8b97fe0" target="_top" xlink:title="Gets the damage amount.">
<ellipse fill="white" stroke="#666666" cx="848.23" cy="-165.81" rx="173.06" ry="25.81"/>
<text xml:space="preserve" text-anchor="start" x="733.85" y="-168.66" font-family="Helvetica,sans-Serif" font-size="12.00">com.runehive.game.world.entity.combat.hit.</text>
<text xml:space="preserve" text-anchor="middle" x="848.23" y="-154.41" font-family="Helvetica,sans-Serif" font-size="12.00">Hit.getDamage</text>
</a>
</g>
</g>
<!-- Node2&#45;&gt;Node9 -->
<g id="edge8_Node000002_Node000009" class="edge">
<title>Node2&#45;&gt;Node9</title>
<g id="a_edge8_Node000002_Node000009"><a xlink:title=" ">
<path fill="none" stroke="#63b8ff" d="M639.58,-165.81C647.51,-165.81 655.52,-165.81 663.54,-165.81"/>
<polygon fill="#63b8ff" stroke="#63b8ff" points="663.36,-169.31 673.36,-165.81 663.36,-162.31 663.36,-169.31"/>
</a>
</g>
</g>
<!-- Node10 -->
<g id="Node000010" class="node">
<title>Node10</title>
<g id="a_Node000010"><a xlink:href="classcom_1_1runehive_1_1game_1_1world_1_1entity_1_1combat_1_1hit_1_1_hit.html#acb9b39bef483bed4580a94dcf8895f77" target="_top" xlink:title="Sets the hit damage with a function.">
<ellipse fill="white" stroke="#666666" cx="848.23" cy="-95.81" rx="173.06" ry="25.81"/>
<text xml:space="preserve" text-anchor="start" x="733.85" y="-98.66" font-family="Helvetica,sans-Serif" font-size="12.00">com.runehive.game.world.entity.combat.hit.</text>
<text xml:space="preserve" text-anchor="middle" x="848.23" y="-84.41" font-family="Helvetica,sans-Serif" font-size="12.00">Hit.modifyDamage</text>
</a>
</g>
</g>
<!-- Node2&#45;&gt;Node10 -->
<g id="edge9_Node000002_Node000010" class="edge">
<title>Node2&#45;&gt;Node10</title>
<g id="a_edge9_Node000002_Node000010"><a xlink:title=" ">
<path fill="none" stroke="#63b8ff" d="M589.05,-146.31C632.9,-137.73 684.71,-127.6 730.36,-118.67"/>
<polygon fill="#63b8ff" stroke="#63b8ff" points="730.89,-122.13 740.03,-116.78 729.55,-115.26 730.89,-122.13"/>
</a>
</g>
</g>
<!-- Node4&#45;&gt;Node5 -->
<g id="edge4_Node000004_Node000005" class="edge">
<title>Node4&#45;&gt;Node5</title>
<g id="a_edge4_Node000004_Node000005"><a xlink:title=" ">
<path fill="none" stroke="#63b8ff" d="M955.63,-254.24C997.7,-261.53 1046.22,-269.94 1089.34,-277.41"/>
<polygon fill="#63b8ff" stroke="#63b8ff" points="1088.53,-280.82 1098.98,-279.08 1089.73,-273.92 1088.53,-280.82"/>
</a>
</g>
</g>
<!-- Node7 -->
<g id="Node000007" class="node">
<title>Node7</title>
<g id="a_Node000007"><a xlink:href="classcom_1_1runehive_1_1game_1_1world_1_1entity_1_1mob_1_1_mob.html#ac1ffa95e70f2c18a6695328fb2afc585" target="_top" xlink:title="Check if an entity is an npc.">
<ellipse fill="white" stroke="#666666" cx="1208.08" cy="-25.81" rx="150.79" ry="25.81"/>
<text xml:space="preserve" text-anchor="start" x="1109.46" y="-28.66" font-family="Helvetica,sans-Serif" font-size="12.00">com.runehive.game.world.entity.mob.</text>
<text xml:space="preserve" text-anchor="middle" x="1208.08" y="-14.41" font-family="Helvetica,sans-Serif" font-size="12.00">Mob.isNpc</text>
</a>
</g>
</g>
<!-- Node6&#45;&gt;Node7 -->
<g id="edge6_Node000006_Node000007" class="edge">
<title>Node6&#45;&gt;Node7</title>
<g id="a_edge6_Node000006_Node000007"><a xlink:title=" ">
<path fill="none" stroke="#63b8ff" d="M999.43,-25.81C1014.75,-25.81 1030.35,-25.81 1045.78,-25.81"/>
<polygon fill="#63b8ff" stroke="#63b8ff" points="1045.46,-29.31 1055.46,-25.81 1045.46,-22.31 1045.46,-29.31"/>
</a>
</g>
</g>
<!-- Node8 -->
<g id="Node000008" class="node">
<title>Node8</title>
<g id="a_Node000008"><a xlink:href="classcom_1_1runehive_1_1game_1_1world_1_1entity_1_1_entity.html#a64f68055122aaf4af08787378c7ac356" target="_top" xlink:title="Gets the EntityType.">
<ellipse fill="white" stroke="#666666" cx="1527.1" cy="-25.81" rx="132.23" ry="25.81"/>
<text xml:space="preserve" text-anchor="start" x="1441.6" y="-28.66" font-family="Helvetica,sans-Serif" font-size="12.00">com.runehive.game.world.entity.</text>
<text xml:space="preserve" text-anchor="middle" x="1527.1" y="-14.41" font-family="Helvetica,sans-Serif" font-size="12.00">Entity.getType</text>
</a>
</g>
</g>
<!-- Node7&#45;&gt;Node8 -->
<g id="edge7_Node000007_Node000008" class="edge">
<title>Node7&#45;&gt;Node8</title>
<g id="a_edge7_Node000007_Node000008"><a xlink:title=" ">
<path fill="none" stroke="#63b8ff" d="M1359.24,-25.81C1367.29,-25.81 1375.36,-25.81 1383.39,-25.81"/>
<polygon fill="#63b8ff" stroke="#63b8ff" points="1383.17,-29.31 1393.17,-25.81 1383.17,-22.31 1383.17,-29.31"/>
</a>
</g>
</g>
</g>
</svg>
