<?xml version="1.0" encoding="UTF-8" standalone="no"?>
<!DOCTYPE svg PUBLIC "-//W3C//DTD SVG 1.1//EN"
 "http://www.w3.org/Graphics/SVG/1.1/DTD/svg11.dtd">
<!-- Generated by graphviz version 14.0.1 (20251006.0113)
 -->
<!-- Title: com.runehive.game.world.entity.combat.strategy.npc.boss.skotizo.Skotizo.Magic.start Pages: 1 -->
<!--zoomable 711 -->

<svg id="main" version="1.1" xmlns="http://www.w3.org/2000/svg" xmlns:xlink="http://www.w3.org/1999/xlink" xml:space="preserve" onload="init(evt)">

<style type="text/css"><![CDATA[
.node, .edge {opacity: 0.7;}
.node.selected, .edge.selected {opacity: 1;}
.edge:hover path { stroke: red; }
.edge:hover polygon { stroke: red; fill: red; }
]]></style>

<defs>
  <circle id="rim" cx="0" cy="0" r="7"/>
  <circle id="rim2" cx="0" cy="0" r="3.5"/>
  <g id="zoomPlus">
    <use xlink:href="#rim" fill="#404040"><set attributeName="fill" to="#808080" begin="zoomplus.mouseover" end="zoomplus.mouseout"/></use>
    <path d="M-4,0h8M0,-4v8" fill="none" stroke="white" stroke-width="1.5" pointer-events="none"/>
  </g>
  <g id="zoomMin">
    <use xlink:href="#rim" fill="#404040"><set attributeName="fill" to="#808080" begin="zoomminus.mouseover" end="zoomminus.mouseout"/></use>
    <path d="M-4,0h8" fill="none" stroke="white" stroke-width="1.5" pointer-events="none"/>
  </g>
  <g id="arrowUp" transform="translate(30 24)">
    <use xlink:href="#rim"/>
    <path pointer-events="none" fill="none" stroke="white" stroke-width="1.5" d="M0,-3.0v7 M-2.5,-0.5L0,-3.0L2.5,-0.5"/>
  </g>
  <g id="arrowRight" transform="rotate(90) translate(36 -43)">
    <use xlink:href="#rim"/>
    <path pointer-events="none" fill="none" stroke="white" stroke-width="1.5" d="M0,-3.0v7 M-2.5,-0.5L0,-3.0L2.5,-0.5"/>
  </g>
  <g id="arrowDown" transform="rotate(180) translate(-30 -48)">
    <use xlink:href="#rim"/>
    <path pointer-events="none" fill="none" stroke="white" stroke-width="1.5" d="M0,-3.0v7 M-2.5,-0.5L0,-3.0L2.5,-0.5"/>
  </g>
  <g id="arrowLeft" transform="rotate(270) translate(-36 17)">
    <use xlink:href="#rim"/>
    <path pointer-events="none" fill="none" stroke="white" stroke-width="1.5" d="M0,-3.0v7 M-2.5,-0.5L0,-3.0L2.5,-0.5"/>
  </g>
  <g id="resetDef">
    <use xlink:href="#rim2" fill="#404040"><set attributeName="fill" to="#808080" begin="reset.mouseover" end="reset.mouseout"/></use>
  </g>
</defs>
<script type="application/ecmascript">
var viewWidth = 1896;
var viewHeight = 711;
var sectionId = 'dynsection-7';
</script>
<script type="application/ecmascript" xlink:href="svg.min.js"/>
<svg id="graph" class="graph">
<g id="viewport">
<title>com.runehive.game.world.entity.combat.strategy.npc.boss.skotizo.Skotizo.Magic.start</title>
<!-- Node1 -->
<g id="Node000001" class="node">
<title>Node1</title>
<g id="a_Node000001"><a xlink:title=" ">
<ellipse fill="#999999" stroke="#666666" cx="257.92" cy="-225.81" rx="257.92" ry="25.81"/>
<text xml:space="preserve" text-anchor="start" x="83.54" y="-228.66" font-family="Helvetica,sans-Serif" font-size="12.00">com.runehive.game.world.entity.combat.strategy.npc.boss.skotizo.</text>
<text xml:space="preserve" text-anchor="middle" x="257.92" y="-214.41" font-family="Helvetica,sans-Serif" font-size="12.00">Skotizo.Magic.start</text>
</a>
</g>
</g>
<!-- Node2 -->
<g id="Node000002" class="node">
<title>Node2</title>
<g id="a_Node000002"><a xlink:href="classcom_1_1runehive_1_1game_1_1world_1_1entity_1_1mob_1_1_mob.html#a763d4a9979297da0ff66b8f4b86fd5bc" target="_top" xlink:title=" ">
<ellipse fill="white" stroke="#666666" cx="745.05" cy="-461.81" rx="150.79" ry="25.81"/>
<text xml:space="preserve" text-anchor="start" x="646.43" y="-464.66" font-family="Helvetica,sans-Serif" font-size="12.00">com.runehive.game.world.entity.mob.</text>
<text xml:space="preserve" text-anchor="middle" x="745.05" y="-450.41" font-family="Helvetica,sans-Serif" font-size="12.00">Mob.animate</text>
</a>
</g>
</g>
<!-- Node1&#45;&gt;Node2 -->
<g id="edge1_Node000001_Node000002" class="edge">
<title>Node1&#45;&gt;Node2</title>
<g id="a_edge1_Node000001_Node000002"><a xlink:title=" ">
<path fill="none" stroke="#63b8ff" d="M287.64,-251.82C337.48,-295.41 444.91,-382.76 551.83,-426.81 569.75,-434.19 589.23,-440.02 608.7,-444.62"/>
<polygon fill="#63b8ff" stroke="#63b8ff" points="607.82,-448.01 618.34,-446.79 609.36,-441.18 607.82,-448.01"/>
</a>
</g>
</g>
<!-- Node3 -->
<g id="Node000003" class="node">
<title>Node3</title>
<g id="a_Node000003"><a xlink:href="classcom_1_1runehive_1_1game_1_1world_1_1region_1_1_region_manager.html#a8e27d30b624b76cef99075913c649438" target="_top" xlink:title="Sends an action to Mob instance which is within a distance.">
<ellipse fill="white" stroke="#666666" cx="745.05" cy="-391.81" rx="136.47" ry="25.81"/>
<text xml:space="preserve" text-anchor="start" x="656.55" y="-394.66" font-family="Helvetica,sans-Serif" font-size="12.00">com.runehive.game.world.region.</text>
<text xml:space="preserve" text-anchor="middle" x="745.05" y="-380.41" font-family="Helvetica,sans-Serif" font-size="12.00">RegionManager.forNearbyPlayer</text>
</a>
</g>
</g>
<!-- Node1&#45;&gt;Node3 -->
<g id="edge3_Node000001_Node000003" class="edge">
<title>Node1&#45;&gt;Node3</title>
<g id="a_edge3_Node000001_Node000003"><a xlink:title=" ">
<path fill="none" stroke="#63b8ff" d="M306.76,-251.53C363.64,-281.07 462.17,-329.04 551.83,-356.81 574.42,-363.8 598.96,-369.59 622.71,-374.29"/>
<polygon fill="#63b8ff" stroke="#63b8ff" points="621.96,-377.71 632.44,-376.17 623.28,-370.84 621.96,-377.71"/>
</a>
</g>
</g>
<!-- Node17 -->
<g id="Node000017" class="node">
<title>Node17</title>
<g id="a_Node000017"><a xlink:href="classcom_1_1runehive_1_1game_1_1world_1_1entity_1_1combat_1_1strategy_1_1_combat_strategy.html#ad83f68e523849bd85a67db2efa48eb32" target="_top" xlink:title=" ">
<ellipse fill="white" stroke="#666666" cx="745.05" cy="-303.81" rx="193.22" ry="25.81"/>
<text xml:space="preserve" text-anchor="start" x="616.43" y="-306.66" font-family="Helvetica,sans-Serif" font-size="12.00">com.runehive.game.world.entity.combat.strategy.</text>
<text xml:space="preserve" text-anchor="middle" x="745.05" y="-292.41" font-family="Helvetica,sans-Serif" font-size="12.00">CombatStrategy.nextMagicHit</text>
</a>
</g>
</g>
<!-- Node1&#45;&gt;Node17 -->
<g id="edge21_Node000001_Node000017" class="edge">
<title>Node1&#45;&gt;Node17</title>
<g id="a_edge21_Node000001_Node000017"><a xlink:title=" ">
<path fill="none" stroke="#63b8ff" d="M396.64,-247.95C462.97,-258.62 542.26,-271.37 608.33,-281.99"/>
<polygon fill="#63b8ff" stroke="#63b8ff" points="607.74,-285.44 618.17,-283.57 608.85,-278.53 607.74,-285.44"/>
</a>
</g>
</g>
<!-- Node18 -->
<g id="Node000018" class="node">
<title>Node18</title>
<g id="a_Node000018"><a xlink:href="classcom_1_1runehive_1_1util_1_1_utility.html#a0961417523881e9a3bef6e9da541942a" target="_top" xlink:title=" ">
<ellipse fill="white" stroke="#666666" cx="745.05" cy="-225.81" rx="129.05" ry="15.73"/>
<text xml:space="preserve" text-anchor="middle" x="745.05" y="-221.53" font-family="Helvetica,sans-Serif" font-size="12.00">com.runehive.util.Utility.random</text>
</a>
</g>
</g>
<!-- Node1&#45;&gt;Node18 -->
<g id="edge23_Node000001_Node000018" class="edge">
<title>Node1&#45;&gt;Node18</title>
<g id="a_edge23_Node000001_Node000018"><a xlink:title=" ">
<path fill="none" stroke="#63b8ff" d="M516.04,-225.81C546.37,-225.81 576.4,-225.81 604.22,-225.81"/>
<polygon fill="#63b8ff" stroke="#63b8ff" points="604.07,-229.31 614.07,-225.81 604.07,-222.31 604.07,-229.31"/>
</a>
</g>
</g>
<!-- Node19 -->
<g id="Node000019" class="node">
<title>Node19</title>
<g id="a_Node000019"><a xlink:href="classcom_1_1runehive_1_1util_1_1_utility.html#a6b7f2d3477a5cc439ea612233a45ce0b" target="_top" xlink:title="Picks a random element out of any array type.">
<ellipse fill="white" stroke="#666666" cx="745.05" cy="-165.81" rx="129.05" ry="25.81"/>
<text xml:space="preserve" text-anchor="start" x="661.8" y="-168.66" font-family="Helvetica,sans-Serif" font-size="12.00">com.runehive.util.Utility.random</text>
<text xml:space="preserve" text-anchor="middle" x="745.05" y="-154.41" font-family="Helvetica,sans-Serif" font-size="12.00">Element</text>
</a>
</g>
</g>
<!-- Node1&#45;&gt;Node19 -->
<g id="edge25_Node000001_Node000019" class="edge">
<title>Node1&#45;&gt;Node19</title>
<g id="a_edge25_Node000001_Node000019"><a xlink:title=" ">
<path fill="none" stroke="#63b8ff" d="M422.49,-205.58C488.13,-197.46 562.44,-188.27 623.08,-180.77"/>
<polygon fill="#63b8ff" stroke="#63b8ff" points="623.24,-184.28 632.74,-179.58 622.38,-177.33 623.24,-184.28"/>
</a>
</g>
</g>
<!-- Node20 -->
<g id="Node000020" class="node">
<title>Node20</title>
<g id="a_Node000020"><a xlink:href="classcom_1_1runehive_1_1game_1_1world_1_1_world.html#a245edcc5b77cbc6d0a4aa8a0a0125d67" target="_top" xlink:title="Submits a new event.">
<ellipse fill="white" stroke="#666666" cx="745.05" cy="-95.81" rx="110.49" ry="25.81"/>
<text xml:space="preserve" text-anchor="start" x="674.93" y="-98.66" font-family="Helvetica,sans-Serif" font-size="12.00">com.runehive.game.world.</text>
<text xml:space="preserve" text-anchor="middle" x="745.05" y="-84.41" font-family="Helvetica,sans-Serif" font-size="12.00">World.schedule</text>
</a>
</g>
</g>
<!-- Node1&#45;&gt;Node20 -->
<g id="edge26_Node000001_Node000020" class="edge">
<title>Node1&#45;&gt;Node20</title>
<g id="a_edge26_Node000001_Node000020"><a xlink:title=" ">
<path fill="none" stroke="#63b8ff" d="M327.99,-200.51C386.87,-179.65 474.07,-150.41 551.83,-130.81 580.56,-123.57 612.06,-117.2 641.1,-111.94"/>
<polygon fill="#63b8ff" stroke="#63b8ff" points="641.37,-115.45 650.61,-110.25 640.15,-108.55 641.37,-115.45"/>
</a>
</g>
</g>
<!-- Node21 -->
<g id="Node000021" class="node">
<title>Node21</title>
<g id="a_Node000021"><a xlink:href="classcom_1_1runehive_1_1game_1_1world_1_1entity_1_1mob_1_1_mob.html#a26938dbc3c9508164035881aef98271e" target="_top" xlink:title="Sets the mob&#39;s forced chat.">
<ellipse fill="white" stroke="#666666" cx="745.05" cy="-25.81" rx="150.79" ry="25.81"/>
<text xml:space="preserve" text-anchor="start" x="646.43" y="-28.66" font-family="Helvetica,sans-Serif" font-size="12.00">com.runehive.game.world.entity.mob.</text>
<text xml:space="preserve" text-anchor="middle" x="745.05" y="-14.41" font-family="Helvetica,sans-Serif" font-size="12.00">Mob.speak</text>
</a>
</g>
</g>
<!-- Node1&#45;&gt;Node21 -->
<g id="edge27_Node000001_Node000021" class="edge">
<title>Node1&#45;&gt;Node21</title>
<g id="a_edge27_Node000001_Node000021"><a xlink:title=" ">
<path fill="none" stroke="#63b8ff" d="M295.36,-199.95C348.93,-163.2 453.29,-96.39 551.83,-60.81 571.03,-53.88 591.83,-48.27 612.41,-43.75"/>
<polygon fill="#63b8ff" stroke="#63b8ff" points="612.93,-47.21 622,-41.72 611.49,-40.36 612.93,-47.21"/>
</a>
</g>
</g>
<!-- Node2&#45;&gt;Node2 -->
<g id="edge2_Node000002_Node000002" class="edge">
<title>Node2&#45;&gt;Node2</title>
<g id="a_edge2_Node000002_Node000002"><a xlink:title=" ">
<path fill="none" stroke="#63b8ff" d="M677.84,-485.25C670.51,-496.12 692.91,-505.62 745.05,-505.62 778.45,-505.62 799.65,-501.72 808.65,-496.06"/>
<polygon fill="#63b8ff" stroke="#63b8ff" points="811.93,-497.28 811.78,-486.68 805.29,-495.06 811.93,-497.28"/>
</a>
</g>
</g>
<!-- Node4 -->
<g id="Node000004" class="node">
<title>Node4</title>
<g id="a_Node000004"><a xlink:href="classcom_1_1runehive_1_1util_1_1_utility.html#a551396449bf2c3e196ba267f3efdc899" target="_top" xlink:title=" ">
<ellipse fill="white" stroke="#666666" cx="1110.74" cy="-496.81" rx="112.08" ry="25.81"/>
<text xml:space="preserve" text-anchor="start" x="1039.49" y="-499.66" font-family="Helvetica,sans-Serif" font-size="12.00">com.runehive.util.Utility.get</text>
<text xml:space="preserve" text-anchor="middle" x="1110.74" y="-485.41" font-family="Helvetica,sans-Serif" font-size="12.00">Distance</text>
</a>
</g>
</g>
<!-- Node3&#45;&gt;Node4 -->
<g id="edge4_Node000003_Node000004" class="edge">
<title>Node3&#45;&gt;Node4</title>
<g id="a_edge4_Node000003_Node000004"><a xlink:title=" ">
<path fill="none" stroke="#63b8ff" d="M868.83,-403C892.71,-408.23 916.93,-415.82 938.27,-426.81 958.11,-437.03 954.82,-450.88 974.27,-461.81 985.52,-468.13 997.93,-473.34 1010.54,-477.62"/>
<polygon fill="#63b8ff" stroke="#63b8ff" points="1009.13,-480.84 1019.72,-480.54 1011.25,-474.17 1009.13,-480.84"/>
</a>
</g>
</g>
<!-- Node14 -->
<g id="Node000014" class="node">
<title>Node14</title>
<g id="a_Node000014"><a xlink:href="classcom_1_1runehive_1_1game_1_1world_1_1entity_1_1_entity.html#a561452a2370cad1b551c6f717121ab31" target="_top" xlink:title=" ">
<ellipse fill="white" stroke="#666666" cx="1110.74" cy="-426.81" rx="132.23" ry="25.81"/>
<text xml:space="preserve" text-anchor="start" x="1025.24" y="-429.66" font-family="Helvetica,sans-Serif" font-size="12.00">com.runehive.game.world.entity.</text>
<text xml:space="preserve" text-anchor="middle" x="1110.74" y="-415.41" font-family="Helvetica,sans-Serif" font-size="12.00">Entity.getHeight</text>
</a>
</g>
</g>
<!-- Node3&#45;&gt;Node14 -->
<g id="edge18_Node000003_Node000014" class="edge">
<title>Node3&#45;&gt;Node14</title>
<g id="a_edge18_Node000003_Node000014"><a xlink:title=" ">
<path fill="none" stroke="#63b8ff" d="M867.66,-403.51C903.78,-406.99 943.47,-410.81 980.08,-414.33"/>
<polygon fill="#63b8ff" stroke="#63b8ff" points="979.54,-417.8 989.83,-415.27 980.21,-410.83 979.54,-417.8"/>
</a>
</g>
</g>
<!-- Node15 -->
<g id="Node000015" class="node">
<title>Node15</title>
<g id="a_Node000015"><a xlink:href="classcom_1_1runehive_1_1game_1_1world_1_1entity_1_1_entity.html#a119860ba3aeba7613256edf5fa337efe" target="_top" xlink:title=" ">
<ellipse fill="white" stroke="#666666" cx="1110.74" cy="-356.81" rx="132.23" ry="25.81"/>
<text xml:space="preserve" text-anchor="start" x="1025.24" y="-359.66" font-family="Helvetica,sans-Serif" font-size="12.00">com.runehive.game.world.entity.</text>
<text xml:space="preserve" text-anchor="middle" x="1110.74" y="-345.41" font-family="Helvetica,sans-Serif" font-size="12.00">Entity.getRegion</text>
</a>
</g>
</g>
<!-- Node3&#45;&gt;Node15 -->
<g id="edge19_Node000003_Node000015" class="edge">
<title>Node3&#45;&gt;Node15</title>
<g id="a_edge19_Node000003_Node000015"><a xlink:title=" ">
<path fill="none" stroke="#63b8ff" d="M867.66,-380.11C903.78,-376.63 943.47,-372.81 980.08,-369.29"/>
<polygon fill="#63b8ff" stroke="#63b8ff" points="980.21,-372.79 989.83,-368.35 979.54,-365.82 980.21,-372.79"/>
</a>
</g>
</g>
<!-- Node16 -->
<g id="Node000016" class="node">
<title>Node16</title>
<g id="a_Node000016"><a xlink:href="classcom_1_1runehive_1_1game_1_1world_1_1region_1_1_region.html#ae6ee1ad3798088cfea31cc90c3573ad2" target="_top" xlink:title=" ">
<ellipse fill="white" stroke="#666666" cx="1110.74" cy="-286.81" rx="136.47" ry="25.81"/>
<text xml:space="preserve" text-anchor="start" x="1022.24" y="-289.66" font-family="Helvetica,sans-Serif" font-size="12.00">com.runehive.game.world.region.</text>
<text xml:space="preserve" text-anchor="middle" x="1110.74" y="-275.41" font-family="Helvetica,sans-Serif" font-size="12.00">Region.getSurroundingRegions</text>
</a>
</g>
</g>
<!-- Node3&#45;&gt;Node16 -->
<g id="edge20_Node000003_Node000016" class="edge">
<title>Node3&#45;&gt;Node16</title>
<g id="a_edge20_Node000003_Node000016"><a xlink:title=" ">
<path fill="none" stroke="#63b8ff" d="M868.83,-380.62C892.71,-375.39 916.93,-367.8 938.27,-356.81 958.11,-346.59 954.82,-332.74 974.27,-321.81 983.05,-316.87 992.55,-312.61 1002.3,-308.95"/>
<polygon fill="#63b8ff" stroke="#63b8ff" points="1003.25,-312.32 1011.52,-305.7 1000.93,-305.72 1003.25,-312.32"/>
</a>
</g>
</g>
<!-- Node5 -->
<g id="Node000005" class="node">
<title>Node5</title>
<g id="a_Node000005"><a xlink:href="interfacecom_1_1runehive_1_1game_1_1world_1_1_interactable.html#a49e07a60c6643c0ba33bc9754305c352" target="_top" xlink:title=" ">
<ellipse fill="white" stroke="#666666" cx="1746.13" cy="-639.81" rx="110.49" ry="25.81"/>
<text xml:space="preserve" text-anchor="start" x="1676" y="-642.66" font-family="Helvetica,sans-Serif" font-size="12.00">com.runehive.game.world.</text>
<text xml:space="preserve" text-anchor="middle" x="1746.13" y="-628.41" font-family="Helvetica,sans-Serif" font-size="12.00">Interactable.getPosition</text>
</a>
</g>
</g>
<!-- Node4&#45;&gt;Node5 -->
<g id="edge5_Node000004_Node000005" class="edge">
<title>Node4&#45;&gt;Node5</title>
<g id="a_edge5_Node000004_Node000005"><a xlink:title=" ">
<path fill="none" stroke="#63b8ff" d="M1126.92,-522.79C1152.83,-564.19 1209.96,-643.66 1283.21,-674.81 1412.25,-729.68 1579.77,-693.58 1673.51,-664.97"/>
<polygon fill="#63b8ff" stroke="#63b8ff" points="1674.34,-668.37 1682.84,-662.06 1672.26,-661.69 1674.34,-668.37"/>
</a>
</g>
</g>
<!-- Node6 -->
<g id="Node000006" class="node">
<title>Node6</title>
<g id="a_Node000006"><a xlink:href="interfacecom_1_1runehive_1_1game_1_1world_1_1_interactable.html#a709f3328972af0a98047591417fd5d4b" target="_top" xlink:title=" ">
<ellipse fill="white" stroke="#666666" cx="1425.52" cy="-639.81" rx="110.49" ry="25.81"/>
<text xml:space="preserve" text-anchor="start" x="1355.39" y="-642.66" font-family="Helvetica,sans-Serif" font-size="12.00">com.runehive.game.world.</text>
<text xml:space="preserve" text-anchor="middle" x="1425.52" y="-628.41" font-family="Helvetica,sans-Serif" font-size="12.00">Interactable.getX</text>
</a>
</g>
</g>
<!-- Node4&#45;&gt;Node6 -->
<g id="edge6_Node000004_Node000006" class="edge">
<title>Node4&#45;&gt;Node6</title>
<g id="a_edge6_Node000004_Node000006"><a xlink:title=" ">
<path fill="none" stroke="#63b8ff" d="M1144.46,-521.91C1177.72,-546.32 1231.58,-582.83 1283.21,-604.81 1297.57,-610.92 1313.22,-616.12 1328.71,-620.49"/>
<polygon fill="#63b8ff" stroke="#63b8ff" points="1327.36,-623.75 1337.93,-622.99 1329.19,-617 1327.36,-623.75"/>
</a>
</g>
</g>
<!-- Node7 -->
<g id="Node000007" class="node">
<title>Node7</title>
<g id="a_Node000007"><a xlink:href="classcom_1_1runehive_1_1game_1_1world_1_1position_1_1_position.html#a7bfa5292d8c3f79100a6bc85ea27b5ea" target="_top" xlink:title="Gets the absolute x coordinate.">
<ellipse fill="white" stroke="#666666" cx="1746.13" cy="-558.81" rx="142.31" ry="25.81"/>
<text xml:space="preserve" text-anchor="start" x="1653.5" y="-561.66" font-family="Helvetica,sans-Serif" font-size="12.00">com.runehive.game.world.position.</text>
<text xml:space="preserve" text-anchor="middle" x="1746.13" y="-547.41" font-family="Helvetica,sans-Serif" font-size="12.00">Position.getX</text>
</a>
</g>
</g>
<!-- Node4&#45;&gt;Node7 -->
<g id="edge9_Node000004_Node000007" class="edge">
<title>Node4&#45;&gt;Node7</title>
<g id="a_edge9_Node000004_Node000007"><a xlink:title=" ">
<path fill="none" stroke="#63b8ff" d="M1218.79,-504.17C1311.31,-510.9 1448.55,-521.78 1567.82,-534.81 1585.34,-536.72 1603.8,-538.97 1621.92,-541.3"/>
<polygon fill="#63b8ff" stroke="#63b8ff" points="1621.28,-544.75 1631.65,-542.57 1622.19,-537.81 1621.28,-544.75"/>
</a>
</g>
</g>
<!-- Node8 -->
<g id="Node000008" class="node">
<title>Node8</title>
<g id="a_Node000008"><a xlink:href="interfacecom_1_1runehive_1_1game_1_1world_1_1_interactable.html#a4fe2dfd0c67da8fd088077795154e218" target="_top" xlink:title=" ">
<ellipse fill="white" stroke="#666666" cx="1425.52" cy="-569.81" rx="110.49" ry="25.81"/>
<text xml:space="preserve" text-anchor="start" x="1355.39" y="-572.66" font-family="Helvetica,sans-Serif" font-size="12.00">com.runehive.game.world.</text>
<text xml:space="preserve" text-anchor="middle" x="1425.52" y="-558.41" font-family="Helvetica,sans-Serif" font-size="12.00">Interactable.getY</text>
</a>
</g>
</g>
<!-- Node4&#45;&gt;Node8 -->
<g id="edge10_Node000004_Node000008" class="edge">
<title>Node4&#45;&gt;Node8</title>
<g id="a_edge10_Node000004_Node000008"><a xlink:title=" ">
<path fill="none" stroke="#63b8ff" d="M1190.67,-515.23C1234.64,-525.49 1289.54,-538.31 1335.09,-548.94"/>
<polygon fill="#63b8ff" stroke="#63b8ff" points="1334.15,-552.31 1344.68,-551.18 1335.74,-545.5 1334.15,-552.31"/>
</a>
</g>
</g>
<!-- Node9 -->
<g id="Node000009" class="node">
<title>Node9</title>
<g id="a_Node000009"><a xlink:href="classcom_1_1runehive_1_1game_1_1world_1_1position_1_1_position.html#a55498d0fafce9fdeedca16984d79aee5" target="_top" xlink:title="Gets the absolute y coordinate.">
<ellipse fill="white" stroke="#666666" cx="1746.13" cy="-482.81" rx="142.31" ry="25.81"/>
<text xml:space="preserve" text-anchor="start" x="1653.5" y="-485.66" font-family="Helvetica,sans-Serif" font-size="12.00">com.runehive.game.world.position.</text>
<text xml:space="preserve" text-anchor="middle" x="1746.13" y="-471.41" font-family="Helvetica,sans-Serif" font-size="12.00">Position.getY</text>
</a>
</g>
</g>
<!-- Node4&#45;&gt;Node9 -->
<g id="edge13_Node000004_Node000009" class="edge">
<title>Node4&#45;&gt;Node9</title>
<g id="a_edge13_Node000004_Node000009"><a xlink:title=" ">
<path fill="none" stroke="#63b8ff" d="M1222.79,-494.35C1325.54,-492.08 1479.17,-488.69 1593.25,-486.17"/>
<polygon fill="#63b8ff" stroke="#63b8ff" points="1593.08,-489.67 1603,-485.95 1592.92,-482.67 1593.08,-489.67"/>
</a>
</g>
</g>
<!-- Node10 -->
<g id="Node000010" class="node">
<title>Node10</title>
<g id="a_Node000010"><a xlink:href="interfacecom_1_1runehive_1_1game_1_1world_1_1_interactable.html#a9513e5e63159a738b417ceba87cd1de8" target="_top" xlink:title=" ">
<ellipse fill="white" stroke="#666666" cx="1425.52" cy="-423.81" rx="110.49" ry="25.81"/>
<text xml:space="preserve" text-anchor="start" x="1355.39" y="-426.66" font-family="Helvetica,sans-Serif" font-size="12.00">com.runehive.game.world.</text>
<text xml:space="preserve" text-anchor="middle" x="1425.52" y="-412.41" font-family="Helvetica,sans-Serif" font-size="12.00">Interactable.length</text>
</a>
</g>
</g>
<!-- Node4&#45;&gt;Node10 -->
<g id="edge14_Node000004_Node000010" class="edge">
<title>Node4&#45;&gt;Node10</title>
<g id="a_edge14_Node000004_Node000010"><a xlink:title=" ">
<path fill="none" stroke="#63b8ff" d="M1190.67,-478.39C1234.64,-468.13 1289.54,-455.31 1335.09,-444.68"/>
<polygon fill="#63b8ff" stroke="#63b8ff" points="1335.74,-448.12 1344.68,-442.44 1334.15,-441.31 1335.74,-448.12"/>
</a>
</g>
</g>
<!-- Node11 -->
<g id="Node000011" class="node">
<title>Node11</title>
<g id="a_Node000011"><a xlink:href="classcom_1_1runehive_1_1game_1_1world_1_1position_1_1_position.html#a92154563715ed156b00ee6220e2991ff" target="_top" xlink:title="Creates a new location based on this location.">
<ellipse fill="white" stroke="#666666" cx="1425.52" cy="-353.81" rx="142.31" ry="25.81"/>
<text xml:space="preserve" text-anchor="start" x="1332.89" y="-356.66" font-family="Helvetica,sans-Serif" font-size="12.00">com.runehive.game.world.position.</text>
<text xml:space="preserve" text-anchor="middle" x="1425.52" y="-342.41" font-family="Helvetica,sans-Serif" font-size="12.00">Position.transform</text>
</a>
</g>
</g>
<!-- Node4&#45;&gt;Node11 -->
<g id="edge15_Node000004_Node000011" class="edge">
<title>Node4&#45;&gt;Node11</title>
<g id="a_edge15_Node000004_Node000011"><a xlink:title=" ">
<path fill="none" stroke="#63b8ff" d="M1207.09,-483.34C1221.56,-478.26 1235.53,-471.31 1247.21,-461.81 1275.28,-438.99 1255.03,-411.49 1283.21,-388.81 1289.85,-383.47 1297.19,-378.92 1304.94,-375.06"/>
<polygon fill="#63b8ff" stroke="#63b8ff" points="1306.27,-378.3 1313.95,-370.99 1303.39,-371.92 1306.27,-378.3"/>
</a>
</g>
</g>
<!-- Node13 -->
<g id="Node000013" class="node">
<title>Node13</title>
<g id="a_Node000013"><a xlink:href="interfacecom_1_1runehive_1_1game_1_1world_1_1_interactable.html#ad7eb47dad8c89c478cedc32ea6fe3a5b" target="_top" xlink:title=" ">
<ellipse fill="white" stroke="#666666" cx="1425.52" cy="-283.81" rx="110.49" ry="25.81"/>
<text xml:space="preserve" text-anchor="start" x="1355.39" y="-286.66" font-family="Helvetica,sans-Serif" font-size="12.00">com.runehive.game.world.</text>
<text xml:space="preserve" text-anchor="middle" x="1425.52" y="-272.41" font-family="Helvetica,sans-Serif" font-size="12.00">Interactable.width</text>
</a>
</g>
</g>
<!-- Node4&#45;&gt;Node13 -->
<g id="edge17_Node000004_Node000013" class="edge">
<title>Node4&#45;&gt;Node13</title>
<g id="a_edge17_Node000004_Node000013"><a xlink:title=" ">
<path fill="none" stroke="#63b8ff" d="M1210.65,-484.72C1224.25,-479.44 1237.02,-472.06 1247.21,-461.81 1293.41,-415.32 1236.78,-365.06 1283.21,-318.81 1291.85,-310.21 1302.25,-303.6 1313.44,-298.55"/>
<polygon fill="#63b8ff" stroke="#63b8ff" points="1314.53,-301.88 1322.5,-294.9 1311.92,-295.39 1314.53,-301.88"/>
</a>
</g>
</g>
<!-- Node6&#45;&gt;Node5 -->
<g id="edge7_Node000006_Node000005" class="edge">
<title>Node6&#45;&gt;Node5</title>
<g id="a_edge7_Node000006_Node000005"><a xlink:title=" ">
<path fill="none" stroke="#63b8ff" d="M1536.16,-639.81C1564.45,-639.81 1595.06,-639.81 1623.9,-639.81"/>
<polygon fill="#63b8ff" stroke="#63b8ff" points="1623.76,-643.31 1633.76,-639.81 1623.76,-636.31 1623.76,-643.31"/>
</a>
</g>
</g>
<!-- Node6&#45;&gt;Node7 -->
<g id="edge8_Node000006_Node000007" class="edge">
<title>Node6&#45;&gt;Node7</title>
<g id="a_edge8_Node000006_Node000007"><a xlink:title=" ">
<path fill="none" stroke="#63b8ff" d="M1502.82,-621.07C1523.89,-615.85 1546.75,-610.15 1567.82,-604.81 1595.32,-597.84 1625.19,-590.14 1652.43,-583.07"/>
<polygon fill="#63b8ff" stroke="#63b8ff" points="1653.26,-586.46 1662.06,-580.56 1651.5,-579.69 1653.26,-586.46"/>
</a>
</g>
</g>
<!-- Node8&#45;&gt;Node5 -->
<g id="edge11_Node000008_Node000005" class="edge">
<title>Node8&#45;&gt;Node5</title>
<g id="a_edge11_Node000008_Node000005"><a xlink:title=" ">
<path fill="none" stroke="#63b8ff" d="M1507.33,-587.56C1551.78,-597.33 1607.1,-609.48 1653.2,-619.61"/>
<polygon fill="#63b8ff" stroke="#63b8ff" points="1652.41,-623.02 1662.92,-621.75 1653.91,-616.18 1652.41,-623.02"/>
</a>
</g>
</g>
<!-- Node8&#45;&gt;Node9 -->
<g id="edge12_Node000008_Node000009" class="edge">
<title>Node8&#45;&gt;Node9</title>
<g id="a_edge12_Node000008_Node000009"><a xlink:title=" ">
<path fill="none" stroke="#63b8ff" d="M1498.81,-550.07C1544.99,-537.46 1605.22,-521.01 1654.57,-507.54"/>
<polygon fill="#63b8ff" stroke="#63b8ff" points="1655.39,-510.94 1664.11,-504.93 1653.54,-504.19 1655.39,-510.94"/>
</a>
</g>
</g>
<!-- Node12 -->
<g id="Node000012" class="node">
<title>Node12</title>
<g id="a_Node000012"><a xlink:href="classcom_1_1runehive_1_1game_1_1world_1_1position_1_1_position.html#a7803ff05a7b4b99d2883898ade9427f7" target="_top" xlink:title="Creates a location with a default height of 0.">
<ellipse fill="white" stroke="#666666" cx="1746.13" cy="-353.81" rx="142.31" ry="25.81"/>
<text xml:space="preserve" text-anchor="start" x="1653.5" y="-356.66" font-family="Helvetica,sans-Serif" font-size="12.00">com.runehive.game.world.position.</text>
<text xml:space="preserve" text-anchor="middle" x="1746.13" y="-342.41" font-family="Helvetica,sans-Serif" font-size="12.00">Position.Position</text>
</a>
</g>
</g>
<!-- Node11&#45;&gt;Node12 -->
<g id="edge16_Node000011_Node000012" class="edge">
<title>Node11&#45;&gt;Node12</title>
<g id="a_edge16_Node000011_Node000012"><a xlink:title=" ">
<path fill="none" stroke="#63b8ff" d="M1568.12,-353.81C1576.14,-353.81 1584.22,-353.81 1592.28,-353.81"/>
<polygon fill="#63b8ff" stroke="#63b8ff" points="1592.14,-357.31 1602.14,-353.81 1592.14,-350.31 1592.14,-357.31"/>
</a>
</g>
</g>
<!-- Node17&#45;&gt;Node17 -->
<g id="edge22_Node000017_Node000017" class="edge">
<title>Node17&#45;&gt;Node17</title>
<g id="a_edge22_Node000017_Node000017"><a xlink:title=" ">
<path fill="none" stroke="#63b8ff" d="M677.3,-328.14C671.76,-338.63 694.34,-347.62 745.05,-347.62 777.54,-347.62 798.48,-343.93 807.88,-338.52"/>
<polygon fill="#63b8ff" stroke="#63b8ff" points="811.03,-340.04 812.15,-329.5 804.71,-337.04 811.03,-340.04"/>
</a>
</g>
</g>
<!-- Node18&#45;&gt;Node18 -->
<g id="edge24_Node000018_Node000018" class="edge">
<title>Node18&#45;&gt;Node18</title>
<g id="a_edge24_Node000018_Node000018"><a xlink:title=" ">
<path fill="none" stroke="#63b8ff" d="M683.18,-240.02C664.43,-249.86 685.06,-259.54 745.05,-259.54 782.08,-259.54 804.11,-255.85 811.14,-250.72"/>
<polygon fill="#63b8ff" stroke="#63b8ff" points="814.41,-249.45 807.48,-241.43 807.89,-252.02 814.41,-249.45"/>
</a>
</g>
</g>
</g>
</svg>

<g id="navigator" transform="translate(0 0)" fill="#404254">
  <rect fill="#f2f5e9" fill-opacity="0.5" stroke="#606060" stroke-width=".5" x="0" y="0" width="60" height="60"/>
  <use id="zoomplus" xlink:href="#zoomPlus" x="17" y="9" onmousedown="handleZoom(evt,'in')"/>
  <use id="zoomminus" xlink:href="#zoomMin" x="42" y="9" onmousedown="handleZoom(evt,'out')"/>
  <use id="reset" xlink:href="#resetDef" x="30" y="36" onmousedown="handleReset()"/>
   <use id="arrowup" xlink:href="#arrowUp" x="0" y="0" onmousedown="handlePan(0,-1)"/>
  <use id="arrowright" xlink:href="#arrowRight" x="0" y="0" onmousedown="handlePan(1,0)"/>
  <use id="arrowdown" xlink:href="#arrowDown" x="0" y="0" onmousedown="handlePan(0,1)"/>
  <use id="arrowleft" xlink:href="#arrowLeft" x="0" y="0" onmousedown="handlePan(-1,0)"/>
</g>
<svg viewBox="0 0 15 15" width="100%" height="30px" preserveAspectRatio="xMaxYMin meet">
 <g id="arrow_out" transform="scale(0.3 0.3)">
  <a xlink:href="classcom_1_1runehive_1_1game_1_1world_1_1entity_1_1combat_1_1strategy_1_1npc_1_1boss_1_1skotizo_1_1_skotizo_1_1_magic_a23d228154b9225a976be6db9916e9f66_cgraph_org.svg" target="_base">
   <rect id="button" ry="5" rx="5" y="6" x="6" height="38" width="38"
        fill="#f2f5e9" fill-opacity="0.5" stroke="#606060" stroke-width="1.0"/>
   <path id="arrow"
     d="M 11.500037,31.436501 C 11.940474,20.09759 22.043105,11.32322 32.158766,21.979434 L 37.068811,17.246167 C 37.068811,17.246167 37.088388,32 37.088388,32 L 22.160133,31.978069 C 22.160133,31.978069 26.997745,27.140456 26.997745,27.140456 C 18.528582,18.264221 13.291696,25.230495 11.500037,31.436501 z"
     style="fill:#404040;"/>
  </a>
 </g>
</svg>

<style type='text/css'>
<![CDATA[
[data-mouse-over-selected='false'] { opacity: 0.7; }
[data-mouse-over-selected='true']  { opacity: 1.0; }
]]>
</style>
<script type="application/ecmascript"><![CDATA[
document.addEventListener('DOMContentLoaded', (event) => {
  highlightEdges();
  highlightAdjacentNodes();
});
]]></script>
</svg>
