<?xml version="1.0" encoding="UTF-8" standalone="no"?>
<!DOCTYPE svg PUBLIC "-//W3C//DTD SVG 1.1//EN"
 "http://www.w3.org/Graphics/SVG/1.1/DTD/svg11.dtd">
<!-- Generated by graphviz version 14.0.1 (20251006.0113)
 -->
<!-- Title: com.runehive.content.bot.PlayerBot.loopCombat Pages: 1 -->
<svg width="1604pt" height="466pt"
 viewBox="0.00 0.00 1604.00 466.00" xmlns="http://www.w3.org/2000/svg" xmlns:xlink="http://www.w3.org/1999/xlink">
<g id="graph0" class="graph" transform="scale(1 1) rotate(0) translate(4 461.62)">
<title>com.runehive.content.bot.PlayerBot.loopCombat</title>
<!-- Node1 -->
<g id="Node000001" class="node">
<title>Node1</title>
<g id="a_Node000001"><a xlink:title=" ">
<ellipse fill="#999999" stroke="#666666" cx="107.83" cy="-219.81" rx="107.83" ry="25.81"/>
<text xml:space="preserve" text-anchor="start" x="39.58" y="-222.66" font-family="Helvetica,sans-Serif" font-size="12.00">com.runehive.content.bot.</text>
<text xml:space="preserve" text-anchor="middle" x="107.83" y="-208.41" font-family="Helvetica,sans-Serif" font-size="12.00">PlayerBot.loopCombat</text>
</a>
</g>
</g>
<!-- Node2 -->
<g id="Node000002" class="node">
<title>Node2</title>
<g id="a_Node000002"><a xlink:href="classcom_1_1runehive_1_1content_1_1bot_1_1_player_bot.html#ade9357c91c299bad26f84c854890df09" target="_top" xlink:title=" ">
<ellipse fill="white" stroke="#666666" cx="402.46" cy="-273.81" rx="107.83" ry="25.81"/>
<text xml:space="preserve" text-anchor="start" x="334.21" y="-276.66" font-family="Helvetica,sans-Serif" font-size="12.00">com.runehive.content.bot.</text>
<text xml:space="preserve" text-anchor="middle" x="402.46" y="-262.41" font-family="Helvetica,sans-Serif" font-size="12.00">PlayerBot.endFight</text>
</a>
</g>
</g>
<!-- Node1&#45;&gt;Node2 -->
<g id="edge1_Node000001_Node000002" class="edge">
<title>Node1&#45;&gt;Node2</title>
<g id="a_edge1_Node000001_Node000002"><a xlink:title=" ">
<path fill="none" stroke="#63b8ff" d="M194.26,-235.57C228.96,-241.98 269.23,-249.41 304.99,-256.01"/>
<polygon fill="#63b8ff" stroke="#63b8ff" points="303.97,-259.38 314.44,-257.75 305.24,-252.49 303.97,-259.38"/>
</a>
</g>
</g>
<!-- Node3 -->
<g id="Node000003" class="node">
<title>Node3</title>
<g id="a_Node000003"><a xlink:href="classcom_1_1runehive_1_1game_1_1world_1_1entity_1_1mob_1_1player_1_1_player.html#abf224666b7cf62d0ebd3020de51a55d9" target="_top" xlink:title="The combat of the mob.">
<ellipse fill="white" stroke="#666666" cx="773.45" cy="-431.81" rx="175.72" ry="25.81"/>
<text xml:space="preserve" text-anchor="start" x="657.2" y="-434.66" font-family="Helvetica,sans-Serif" font-size="12.00">com.runehive.game.world.entity.mob.player.</text>
<text xml:space="preserve" text-anchor="middle" x="773.45" y="-420.41" font-family="Helvetica,sans-Serif" font-size="12.00">Player.getCombat</text>
</a>
</g>
</g>
<!-- Node1&#45;&gt;Node3 -->
<g id="edge11_Node000001_Node000003" class="edge">
<title>Node1&#45;&gt;Node3</title>
<g id="a_edge11_Node000001_Node000003"><a xlink:title=" ">
<path fill="none" stroke="#63b8ff" d="M129.01,-245.4C154.25,-275.45 200.43,-324.29 251.67,-348.81 356.05,-398.76 484.31,-419.62 587.43,-427.94"/>
<polygon fill="#63b8ff" stroke="#63b8ff" points="586.85,-431.4 597.09,-428.68 587.38,-424.42 586.85,-431.4"/>
</a>
</g>
</g>
<!-- Node4 -->
<g id="Node000004" class="node">
<title>Node4</title>
<g id="a_Node000004"><a xlink:href="classcom_1_1runehive_1_1game_1_1world_1_1entity_1_1mob_1_1_mob.html#a7f9f09a886babdf286840872110bb538" target="_top" xlink:title=" ">
<ellipse fill="white" stroke="#666666" cx="773.45" cy="-361.81" rx="150.79" ry="25.81"/>
<text xml:space="preserve" text-anchor="start" x="674.82" y="-364.66" font-family="Helvetica,sans-Serif" font-size="12.00">com.runehive.game.world.entity.mob.</text>
<text xml:space="preserve" text-anchor="middle" x="773.45" y="-350.41" font-family="Helvetica,sans-Serif" font-size="12.00">Mob.getCurrentHealth</text>
</a>
</g>
</g>
<!-- Node1&#45;&gt;Node4 -->
<g id="edge12_Node000001_Node000004" class="edge">
<title>Node1&#45;&gt;Node4</title>
<g id="a_edge12_Node000001_Node000004"><a xlink:title=" ">
<path fill="none" stroke="#63b8ff" d="M139.59,-244.83C167.17,-265.76 209.64,-294.45 251.67,-308.81 367.93,-348.55 506.65,-361.09 611.67,-364.09"/>
<polygon fill="#63b8ff" stroke="#63b8ff" points="611.41,-367.58 621.5,-364.34 611.59,-360.58 611.41,-367.58"/>
</a>
</g>
</g>
<!-- Node7 -->
<g id="Node000007" class="node">
<title>Node7</title>
<g id="a_Node000007"><a xlink:href="classcom_1_1runehive_1_1game_1_1world_1_1entity_1_1mob_1_1_mob.html#a62a8c8130b9d619860faa014d5102d54" target="_top" xlink:title=" ">
<ellipse fill="white" stroke="#666666" cx="773.45" cy="-63.81" rx="150.79" ry="25.81"/>
<text xml:space="preserve" text-anchor="start" x="674.82" y="-66.66" font-family="Helvetica,sans-Serif" font-size="12.00">com.runehive.game.world.entity.mob.</text>
<text xml:space="preserve" text-anchor="middle" x="773.45" y="-52.41" font-family="Helvetica,sans-Serif" font-size="12.00">Mob.isDead</text>
</a>
</g>
</g>
<!-- Node1&#45;&gt;Node7 -->
<g id="edge13_Node000001_Node000007" class="edge">
<title>Node1&#45;&gt;Node7</title>
<g id="a_edge13_Node000001_Node000007"><a xlink:title=" ">
<path fill="none" stroke="#63b8ff" d="M210.26,-228.2C324.44,-235.49 500.87,-239.57 553.25,-200.81 591.89,-172.21 552.8,-130.15 589.25,-98.81 599.42,-90.07 611.09,-83.24 623.51,-77.93"/>
<polygon fill="#63b8ff" stroke="#63b8ff" points="624.63,-81.25 632.69,-74.37 622.1,-74.72 624.63,-81.25"/>
</a>
</g>
</g>
<!-- Node11 -->
<g id="Node000011" class="node">
<title>Node11</title>
<g id="a_Node000011"><a xlink:href="classcom_1_1runehive_1_1util_1_1_utility.html#a6b7f2d3477a5cc439ea612233a45ce0b" target="_top" xlink:title="Picks a random element out of any array type.">
<ellipse fill="white" stroke="#666666" cx="402.46" cy="-165.81" rx="129.05" ry="25.81"/>
<text xml:space="preserve" text-anchor="start" x="319.21" y="-168.66" font-family="Helvetica,sans-Serif" font-size="12.00">com.runehive.util.Utility.random</text>
<text xml:space="preserve" text-anchor="middle" x="402.46" y="-154.41" font-family="Helvetica,sans-Serif" font-size="12.00">Element</text>
</a>
</g>
</g>
<!-- Node1&#45;&gt;Node11 -->
<g id="edge14_Node000001_Node000011" class="edge">
<title>Node1&#45;&gt;Node11</title>
<g id="a_edge14_Node000001_Node000011"><a xlink:title=" ">
<path fill="none" stroke="#63b8ff" d="M194.26,-204.05C225.78,-198.23 261.9,-191.56 295.05,-185.44"/>
<polygon fill="#63b8ff" stroke="#63b8ff" points="295.49,-188.92 304.68,-183.67 294.22,-182.04 295.49,-188.92"/>
</a>
</g>
</g>
<!-- Node12 -->
<g id="Node000012" class="node">
<title>Node12</title>
<g id="a_Node000012"><a xlink:href="classcom_1_1runehive_1_1content_1_1bot_1_1_player_bot.html#a1ba3bd9a1550b859b16e14bde0bbbadd" target="_top" xlink:title=" ">
<ellipse fill="white" stroke="#666666" cx="402.46" cy="-95.81" rx="107.83" ry="25.81"/>
<text xml:space="preserve" text-anchor="start" x="334.21" y="-98.66" font-family="Helvetica,sans-Serif" font-size="12.00">com.runehive.content.bot.</text>
<text xml:space="preserve" text-anchor="middle" x="402.46" y="-84.41" font-family="Helvetica,sans-Serif" font-size="12.00">PlayerBot.schedule</text>
</a>
</g>
</g>
<!-- Node1&#45;&gt;Node12 -->
<g id="edge15_Node000001_Node000012" class="edge">
<title>Node1&#45;&gt;Node12</title>
<g id="a_edge15_Node000001_Node000012"><a xlink:title=" ">
<path fill="none" stroke="#63b8ff" d="M141.76,-194.91C169.67,-174.91 211.46,-147.5 251.67,-130.81 268.01,-124.03 285.92,-118.41 303.5,-113.81"/>
<polygon fill="#63b8ff" stroke="#63b8ff" points="304.07,-117.28 312.92,-111.45 302.37,-110.49 304.07,-117.28"/>
</a>
</g>
</g>
<!-- Node13 -->
<g id="Node000013" class="node">
<title>Node13</title>
<g id="a_Node000013"><a xlink:href="classcom_1_1runehive_1_1game_1_1world_1_1entity_1_1mob_1_1_mob.html#a26938dbc3c9508164035881aef98271e" target="_top" xlink:title="Sets the mob&#39;s forced chat.">
<ellipse fill="white" stroke="#666666" cx="402.46" cy="-25.81" rx="150.79" ry="25.81"/>
<text xml:space="preserve" text-anchor="start" x="303.83" y="-28.66" font-family="Helvetica,sans-Serif" font-size="12.00">com.runehive.game.world.entity.mob.</text>
<text xml:space="preserve" text-anchor="middle" x="402.46" y="-14.41" font-family="Helvetica,sans-Serif" font-size="12.00">Mob.speak</text>
</a>
</g>
</g>
<!-- Node1&#45;&gt;Node13 -->
<g id="edge16_Node000001_Node000013" class="edge">
<title>Node1&#45;&gt;Node13</title>
<g id="a_edge16_Node000001_Node000013"><a xlink:title=" ">
<path fill="none" stroke="#63b8ff" d="M124.7,-193.89C147.97,-158.17 194.82,-94.44 251.67,-60.81 260.53,-55.57 270.12,-51.11 280.02,-47.32"/>
<polygon fill="#63b8ff" stroke="#63b8ff" points="281.18,-50.62 289.43,-43.97 278.84,-44.02 281.18,-50.62"/>
</a>
</g>
</g>
<!-- Node2&#45;&gt;Node3 -->
<g id="edge2_Node000002_Node000003" class="edge">
<title>Node2&#45;&gt;Node3</title>
<g id="a_edge2_Node000002_Node000003"><a xlink:title=" ">
<path fill="none" stroke="#63b8ff" d="M433.2,-298.98C468.22,-327.25 529.24,-372.37 589.25,-396.81 603.12,-402.46 617.97,-407.21 632.98,-411.21"/>
<polygon fill="#63b8ff" stroke="#63b8ff" points="631.91,-414.54 642.46,-413.61 633.63,-407.76 631.91,-414.54"/>
</a>
</g>
</g>
<!-- Node2&#45;&gt;Node4 -->
<g id="edge3_Node000002_Node000004" class="edge">
<title>Node2&#45;&gt;Node4</title>
<g id="a_edge3_Node000002_Node000004"><a xlink:title=" ">
<path fill="none" stroke="#63b8ff" d="M469.72,-294.27C505.01,-304.76 549.27,-317.31 589.25,-326.81 610.54,-331.87 633.36,-336.7 655.41,-341.06"/>
<polygon fill="#63b8ff" stroke="#63b8ff" points="654.54,-344.46 665.03,-342.94 655.88,-337.59 654.54,-344.46"/>
</a>
</g>
</g>
<!-- Node2&#45;&gt;Node7 -->
<g id="edge6_Node000002_Node000007" class="edge">
<title>Node2&#45;&gt;Node7</title>
<g id="a_edge6_Node000002_Node000007"><a xlink:title=" ">
<path fill="none" stroke="#63b8ff" d="M501.58,-263.26C520.71,-257.18 539.17,-247.9 553.25,-233.81 597.15,-189.89 543.79,-141.11 589.25,-98.81 598.78,-89.94 609.84,-82.99 621.71,-77.58"/>
<polygon fill="#63b8ff" stroke="#63b8ff" points="623.02,-80.83 630.94,-73.79 620.36,-74.35 623.02,-80.83"/>
</a>
</g>
</g>
<!-- Node8 -->
<g id="Node000008" class="node">
<title>Node8</title>
<g id="a_Node000008"><a xlink:href="classcom_1_1runehive_1_1content_1_1skill_1_1impl_1_1magic_1_1teleport_1_1_teleportation.html#a48a661e3ec07df7662e694a0d9f28f0b" target="_top" xlink:title=" ">
<ellipse fill="white" stroke="#666666" cx="773.45" cy="-273.81" rx="184.2" ry="25.81"/>
<text xml:space="preserve" text-anchor="start" x="651.2" y="-276.66" font-family="Helvetica,sans-Serif" font-size="12.00">com.runehive.content.skill.impl.magic.teleport.</text>
<text xml:space="preserve" text-anchor="middle" x="773.45" y="-262.41" font-family="Helvetica,sans-Serif" font-size="12.00">Teleportation.teleport</text>
</a>
</g>
</g>
<!-- Node2&#45;&gt;Node8 -->
<g id="edge7_Node000002_Node000008" class="edge">
<title>Node2&#45;&gt;Node8</title>
<g id="a_edge7_Node000002_Node000008"><a xlink:title=" ">
<path fill="none" stroke="#63b8ff" d="M510.68,-273.81C531.8,-273.81 554.57,-273.81 577.56,-273.81"/>
<polygon fill="#63b8ff" stroke="#63b8ff" points="577.34,-277.31 587.34,-273.81 577.34,-270.31 577.34,-277.31"/>
</a>
</g>
</g>
<!-- Node9 -->
<g id="Node000009" class="node">
<title>Node9</title>
<g id="a_Node000009"><a xlink:href="classcom_1_1runehive_1_1game_1_1world_1_1entity_1_1mob_1_1_mob.html#a61c56a76580920ffadd3f67580138373" target="_top" xlink:title=" ">
<ellipse fill="white" stroke="#666666" cx="773.45" cy="-203.81" rx="150.79" ry="25.81"/>
<text xml:space="preserve" text-anchor="start" x="674.82" y="-206.66" font-family="Helvetica,sans-Serif" font-size="12.00">com.runehive.game.world.entity.mob.</text>
<text xml:space="preserve" text-anchor="middle" x="773.45" y="-192.41" font-family="Helvetica,sans-Serif" font-size="12.00">Mob.unpoison</text>
</a>
</g>
</g>
<!-- Node2&#45;&gt;Node9 -->
<g id="edge9_Node000002_Node000009" class="edge">
<title>Node2&#45;&gt;Node9</title>
<g id="a_edge9_Node000002_Node000009"><a xlink:title=" ">
<path fill="none" stroke="#63b8ff" d="M488.11,-257.75C538.97,-248.1 604.32,-235.71 659.54,-225.23"/>
<polygon fill="#63b8ff" stroke="#63b8ff" points="660.14,-228.68 669.31,-223.38 658.83,-221.8 660.14,-228.68"/>
</a>
</g>
</g>
<!-- Node10 -->
<g id="Node000010" class="node">
<title>Node10</title>
<g id="a_Node000010"><a xlink:href="classcom_1_1runehive_1_1game_1_1world_1_1entity_1_1mob_1_1_mob.html#a6525fa1c105ad350fe2ecce7685fc15f" target="_top" xlink:title=" ">
<ellipse fill="white" stroke="#666666" cx="773.45" cy="-133.81" rx="150.79" ry="25.81"/>
<text xml:space="preserve" text-anchor="start" x="674.82" y="-136.66" font-family="Helvetica,sans-Serif" font-size="12.00">com.runehive.game.world.entity.mob.</text>
<text xml:space="preserve" text-anchor="middle" x="773.45" y="-122.41" font-family="Helvetica,sans-Serif" font-size="12.00">Mob.unvenom</text>
</a>
</g>
</g>
<!-- Node2&#45;&gt;Node10 -->
<g id="edge10_Node000002_Node000010" class="edge">
<title>Node2&#45;&gt;Node10</title>
<g id="a_edge10_Node000002_Node000010"><a xlink:title=" ">
<path fill="none" stroke="#63b8ff" d="M497.18,-261.08C517.11,-255.15 537.02,-246.48 553.25,-233.81 579.28,-213.48 562.5,-188.18 589.25,-168.81 600.63,-160.57 613.42,-154.11 626.81,-149.08"/>
<polygon fill="#63b8ff" stroke="#63b8ff" points="627.91,-152.4 636.23,-145.83 625.63,-145.78 627.91,-152.4"/>
</a>
</g>
</g>
<!-- Node5 -->
<g id="Node000005" class="node">
<title>Node5</title>
<g id="a_Node000005"><a xlink:href="classcom_1_1runehive_1_1game_1_1world_1_1entity_1_1mob_1_1_mob.html#ac1ffa95e70f2c18a6695328fb2afc585" target="_top" xlink:title="Check if an entity is an npc.">
<ellipse fill="white" stroke="#666666" cx="1144.44" cy="-361.81" rx="150.79" ry="25.81"/>
<text xml:space="preserve" text-anchor="start" x="1045.82" y="-364.66" font-family="Helvetica,sans-Serif" font-size="12.00">com.runehive.game.world.entity.mob.</text>
<text xml:space="preserve" text-anchor="middle" x="1144.44" y="-350.41" font-family="Helvetica,sans-Serif" font-size="12.00">Mob.isNpc</text>
</a>
</g>
</g>
<!-- Node4&#45;&gt;Node5 -->
<g id="edge4_Node000004_Node000005" class="edge">
<title>Node4&#45;&gt;Node5</title>
<g id="a_edge4_Node000004_Node000005"><a xlink:title=" ">
<path fill="none" stroke="#63b8ff" d="M924.53,-361.81C943.38,-361.81 962.71,-361.81 981.73,-361.81"/>
<polygon fill="#63b8ff" stroke="#63b8ff" points="981.68,-365.31 991.68,-361.81 981.68,-358.31 981.68,-365.31"/>
</a>
</g>
</g>
<!-- Node6 -->
<g id="Node000006" class="node">
<title>Node6</title>
<g id="a_Node000006"><a xlink:href="classcom_1_1runehive_1_1game_1_1world_1_1entity_1_1_entity.html#a64f68055122aaf4af08787378c7ac356" target="_top" xlink:title="Gets the EntityType.">
<ellipse fill="white" stroke="#666666" cx="1463.46" cy="-361.81" rx="132.23" ry="25.81"/>
<text xml:space="preserve" text-anchor="start" x="1377.96" y="-364.66" font-family="Helvetica,sans-Serif" font-size="12.00">com.runehive.game.world.entity.</text>
<text xml:space="preserve" text-anchor="middle" x="1463.46" y="-350.41" font-family="Helvetica,sans-Serif" font-size="12.00">Entity.getType</text>
</a>
</g>
</g>
<!-- Node5&#45;&gt;Node6 -->
<g id="edge5_Node000005_Node000006" class="edge">
<title>Node5&#45;&gt;Node6</title>
<g id="a_edge5_Node000005_Node000006"><a xlink:title=" ">
<path fill="none" stroke="#63b8ff" d="M1295.6,-361.81C1303.65,-361.81 1311.72,-361.81 1319.75,-361.81"/>
<polygon fill="#63b8ff" stroke="#63b8ff" points="1319.53,-365.31 1329.53,-361.81 1319.53,-358.31 1319.53,-365.31"/>
</a>
</g>
</g>
<!-- Node8&#45;&gt;Node8 -->
<g id="edge8_Node000008_Node000008" class="edge">
<title>Node8&#45;&gt;Node8</title>
<g id="a_edge8_Node000008_Node000008"><a xlink:title=" ">
<path fill="none" stroke="#63b8ff" d="M704.72,-298.14C699.09,-308.63 722,-317.62 773.45,-317.62 806.81,-317.62 828.17,-313.84 837.53,-308.32"/>
<polygon fill="#63b8ff" stroke="#63b8ff" points="840.58,-310.06 841.55,-299.51 834.22,-307.16 840.58,-310.06"/>
</a>
</g>
</g>
</g>
</svg>
