<?xml version="1.0" encoding="UTF-8" standalone="no"?>
<!DOCTYPE svg PUBLIC "-//W3C//DTD SVG 1.1//EN"
 "http://www.w3.org/Graphics/SVG/1.1/DTD/svg11.dtd">
<!-- Generated by graphviz version 14.0.1 (20251006.0113)
 -->
<!-- Title: com.runehive.game.world.entity.combat.attack.listener.item.DharokListener.onKill Pages: 1 -->
<svg width="1242pt" height="306pt"
 viewBox="0.00 0.00 1242.00 306.00" xmlns="http://www.w3.org/2000/svg" xmlns:xlink="http://www.w3.org/1999/xlink">
<g id="graph0" class="graph" transform="scale(1 1) rotate(0) translate(4 301.62)">
<title>com.runehive.game.world.entity.combat.attack.listener.item.DharokListener.onKill</title>
<!-- Node1 -->
<g id="Node000001" class="node">
<title>Node1</title>
<g id="a_Node000001"><a xlink:title=" ">
<ellipse fill="#999999" stroke="#666666" cx="233.52" cy="-139.81" rx="233.52" ry="25.81"/>
<text xml:space="preserve" text-anchor="start" x="76.4" y="-142.66" font-family="Helvetica,sans-Serif" font-size="12.00">com.runehive.game.world.entity.combat.attack.listener.item.</text>
<text xml:space="preserve" text-anchor="middle" x="233.52" y="-128.41" font-family="Helvetica,sans-Serif" font-size="12.00">DharokListener.onKill</text>
</a>
</g>
</g>
<!-- Node2 -->
<g id="Node000002" class="node">
<title>Node2</title>
<g id="a_Node000002"><a xlink:href="classcom_1_1runehive_1_1content_1_1achievement_1_1_achievement_handler.html#a383fb0ccbf23e33737c19d61fcb332ac" target="_top" xlink:title="Activates the achievement for the individual player.">
<ellipse fill="white" stroke="#666666" cx="718.53" cy="-253.81" rx="144.43" ry="25.81"/>
<text xml:space="preserve" text-anchor="start" x="624.41" y="-256.66" font-family="Helvetica,sans-Serif" font-size="12.00">com.runehive.content.achievement.</text>
<text xml:space="preserve" text-anchor="middle" x="718.53" y="-242.41" font-family="Helvetica,sans-Serif" font-size="12.00">AchievementHandler.activate</text>
</a>
</g>
</g>
<!-- Node1&#45;&gt;Node2 -->
<g id="edge1_Node000001_Node000002" class="edge">
<title>Node1&#45;&gt;Node2</title>
<g id="a_edge1_Node000001_Node000002"><a xlink:title=" ">
<path fill="none" stroke="#63b8ff" d="M309.67,-164.65C363.15,-181.65 436.95,-203.76 503.04,-218.81 531.75,-225.35 562.88,-231.15 592.3,-236.06"/>
<polygon fill="#63b8ff" stroke="#63b8ff" points="591.55,-239.49 601.99,-237.65 592.69,-232.58 591.55,-239.49"/>
</a>
</g>
</g>
<!-- Node3 -->
<g id="Node000003" class="node">
<title>Node3</title>
<g id="a_Node000003"><a xlink:href="classcom_1_1runehive_1_1game_1_1world_1_1entity_1_1mob_1_1_mob.html#abff0c847f98d14619ca50e0210568e56" target="_top" xlink:title=" ">
<ellipse fill="white" stroke="#666666" cx="718.53" cy="-183.81" rx="150.79" ry="25.81"/>
<text xml:space="preserve" text-anchor="start" x="619.91" y="-186.66" font-family="Helvetica,sans-Serif" font-size="12.00">com.runehive.game.world.entity.mob.</text>
<text xml:space="preserve" text-anchor="middle" x="718.53" y="-172.41" font-family="Helvetica,sans-Serif" font-size="12.00">Mob.getPlayer</text>
</a>
</g>
</g>
<!-- Node1&#45;&gt;Node3 -->
<g id="edge3_Node000001_Node000003" class="edge">
<title>Node1&#45;&gt;Node3</title>
<g id="a_edge3_Node000001_Node000003"><a xlink:title=" ">
<path fill="none" stroke="#63b8ff" d="M415.41,-156.29C467.46,-161.03 523.53,-166.14 573.07,-170.65"/>
<polygon fill="#63b8ff" stroke="#63b8ff" points="572.74,-174.13 583.02,-171.56 573.37,-167.16 572.74,-174.13"/>
</a>
</g>
</g>
<!-- Node4 -->
<g id="Node000004" class="node">
<title>Node4</title>
<g id="a_Node000004"><a xlink:href="classcom_1_1runehive_1_1game_1_1world_1_1entity_1_1combat_1_1attack_1_1listener_1_1_simplified_listener.html#a6883ea629959aaa051bbfe832c62b8da" target="_top" xlink:title=" ">
<ellipse fill="white" stroke="#666666" cx="718.53" cy="-95.81" rx="215.49" ry="25.81"/>
<text xml:space="preserve" text-anchor="start" x="574.16" y="-98.66" font-family="Helvetica,sans-Serif" font-size="12.00">com.runehive.game.world.entity.combat.attack.listener.</text>
<text xml:space="preserve" text-anchor="middle" x="718.53" y="-84.41" font-family="Helvetica,sans-Serif" font-size="12.00">SimplifiedListener.hit</text>
</a>
</g>
</g>
<!-- Node1&#45;&gt;Node4 -->
<g id="edge4_Node000001_Node000004" class="edge">
<title>Node1&#45;&gt;Node4</title>
<g id="a_edge4_Node000001_Node000004"><a xlink:title=" ">
<path fill="none" stroke="#63b8ff" d="M415.41,-123.33C454.17,-119.8 495.15,-116.07 534.01,-112.53"/>
<polygon fill="#63b8ff" stroke="#63b8ff" points="534.3,-116.02 543.94,-111.62 533.66,-109.04 534.3,-116.02"/>
</a>
</g>
</g>
<!-- Node5 -->
<g id="Node000005" class="node">
<title>Node5</title>
<g id="a_Node000005"><a xlink:href="classcom_1_1runehive_1_1game_1_1world_1_1entity_1_1mob_1_1_mob.html#ac7ddf988f32265b28e7af7283b406df1" target="_top" xlink:title="Check if an entity is a player.">
<ellipse fill="white" stroke="#666666" cx="718.53" cy="-25.81" rx="150.79" ry="25.81"/>
<text xml:space="preserve" text-anchor="start" x="619.91" y="-28.66" font-family="Helvetica,sans-Serif" font-size="12.00">com.runehive.game.world.entity.mob.</text>
<text xml:space="preserve" text-anchor="middle" x="718.53" y="-14.41" font-family="Helvetica,sans-Serif" font-size="12.00">Mob.isPlayer</text>
</a>
</g>
</g>
<!-- Node1&#45;&gt;Node5 -->
<g id="edge6_Node000001_Node000005" class="edge">
<title>Node1&#45;&gt;Node5</title>
<g id="a_edge6_Node000001_Node000005"><a xlink:title=" ">
<path fill="none" stroke="#63b8ff" d="M309.67,-114.97C363.15,-97.97 436.95,-75.86 503.04,-60.81 530.73,-54.5 560.68,-48.88 589.16,-44.08"/>
<polygon fill="#63b8ff" stroke="#63b8ff" points="589.63,-47.55 598.92,-42.46 588.49,-40.65 589.63,-47.55"/>
</a>
</g>
</g>
<!-- Node2&#45;&gt;Node2 -->
<g id="edge2_Node000002_Node000002" class="edge">
<title>Node2&#45;&gt;Node2</title>
<g id="a_edge2_Node000002_Node000002"><a xlink:title=" ">
<path fill="none" stroke="#63b8ff" d="M648.34,-276.8C639.68,-287.86 663.08,-297.62 718.53,-297.62 754.06,-297.62 776.43,-293.61 785.65,-287.83"/>
<polygon fill="#63b8ff" stroke="#63b8ff" points="789,-288.83 788.32,-278.26 782.26,-286.95 789,-288.83"/>
</a>
</g>
</g>
<!-- Node4&#45;&gt;Node4 -->
<g id="edge5_Node000004_Node000004" class="edge">
<title>Node4&#45;&gt;Node4</title>
<g id="a_edge5_Node000004_Node000004"><a xlink:title=" ">
<path fill="none" stroke="#63b8ff" d="M647.22,-120.58C642.3,-130.88 666.07,-139.62 718.53,-139.62 752.55,-139.62 774.51,-135.95 784.4,-130.55"/>
<polygon fill="#63b8ff" stroke="#63b8ff" points="787.4,-132.36 789.12,-121.91 781.26,-129 787.4,-132.36"/>
</a>
</g>
</g>
<!-- Node6 -->
<g id="Node000006" class="node">
<title>Node6</title>
<g id="a_Node000006"><a xlink:href="classcom_1_1runehive_1_1game_1_1world_1_1entity_1_1_entity.html#a64f68055122aaf4af08787378c7ac356" target="_top" xlink:title="Gets the EntityType.">
<ellipse fill="white" stroke="#666666" cx="1102.25" cy="-25.81" rx="132.23" ry="25.81"/>
<text xml:space="preserve" text-anchor="start" x="1016.75" y="-28.66" font-family="Helvetica,sans-Serif" font-size="12.00">com.runehive.game.world.entity.</text>
<text xml:space="preserve" text-anchor="middle" x="1102.25" y="-14.41" font-family="Helvetica,sans-Serif" font-size="12.00">Entity.getType</text>
</a>
</g>
</g>
<!-- Node5&#45;&gt;Node6 -->
<g id="edge7_Node000005_Node000006" class="edge">
<title>Node5&#45;&gt;Node6</title>
<g id="a_edge7_Node000005_Node000006"><a xlink:title=" ">
<path fill="none" stroke="#63b8ff" d="M869.58,-25.81C898.79,-25.81 929.34,-25.81 958.31,-25.81"/>
<polygon fill="#63b8ff" stroke="#63b8ff" points="958.24,-29.31 968.24,-25.81 958.24,-22.31 958.24,-29.31"/>
</a>
</g>
</g>
</g>
</svg>
