<?xml version="1.0" encoding="UTF-8" standalone="no"?>
<!DOCTYPE svg PUBLIC "-//W3C//DTD SVG 1.1//EN"
 "http://www.w3.org/Graphics/SVG/1.1/DTD/svg11.dtd">
<!-- Generated by graphviz version 14.0.1 (20251006.0113)
 -->
<!-- Title: com.runehive.game.world.entity.combat.strategy.basic.RangedStrategy.withinDistance Pages: 1 -->
<svg width="2122pt" height="920pt"
 viewBox="0.00 0.00 2122.00 920.00" xmlns="http://www.w3.org/2000/svg" xmlns:xlink="http://www.w3.org/1999/xlink">
<g id="graph0" class="graph" transform="scale(1 1) rotate(0) translate(4 916.46)">
<title>com.runehive.game.world.entity.combat.strategy.basic.RangedStrategy.withinDistance</title>
<!-- Node1 -->
<g id="Node000001" class="node">
<title>Node1</title>
<g id="a_Node000001"><a xlink:title=" ">
<ellipse fill="#999999" stroke="#666666" cx="215.49" cy="-177.97" rx="215.49" ry="25.81"/>
<text xml:space="preserve" text-anchor="start" x="71.12" y="-180.82" font-family="Helvetica,sans-Serif" font-size="12.00">com.runehive.game.world.entity.combat.strategy.basic.</text>
<text xml:space="preserve" text-anchor="middle" x="215.49" y="-166.57" font-family="Helvetica,sans-Serif" font-size="12.00">RangedStrategy.withinDistance</text>
</a>
</g>
</g>
<!-- Node2 -->
<g id="Node000002" class="node">
<title>Node2</title>
<g id="a_Node000002"><a xlink:href="classcom_1_1runehive_1_1game_1_1world_1_1pathfinding_1_1path_1_1_simple_path_checker.html#a2f80e86f215aabf7c659a857bb0fdfdf" target="_top" xlink:title=" ">
<ellipse fill="white" stroke="#666666" cx="660.2" cy="-282.97" rx="173.06" ry="25.81"/>
<text xml:space="preserve" text-anchor="start" x="545.82" y="-285.82" font-family="Helvetica,sans-Serif" font-size="12.00">com.runehive.game.world.pathfinding.path.</text>
<text xml:space="preserve" text-anchor="middle" x="660.2" y="-271.57" font-family="Helvetica,sans-Serif" font-size="12.00">SimplePathChecker.checkProjectile</text>
</a>
</g>
</g>
<!-- Node1&#45;&gt;Node2 -->
<g id="edge1_Node000001_Node000002" class="edge">
<title>Node1&#45;&gt;Node2</title>
<g id="a_edge1_Node000001_Node000002"><a xlink:title=" ">
<path fill="none" stroke="#63b8ff" d="M296.38,-202.33C345.34,-216.75 409.45,-234.72 466.98,-247.97 487.81,-252.77 510.03,-257.32 531.7,-261.47"/>
<polygon fill="#63b8ff" stroke="#63b8ff" points="531.01,-264.9 541.48,-263.31 532.3,-258.02 531.01,-264.9"/>
</a>
</g>
</g>
<!-- Node19 -->
<g id="Node000019" class="node">
<title>Node19</title>
<g id="a_Node000019"><a xlink:href="classcom_1_1runehive_1_1content_1_1activity_1_1_activity.html#aca809d07e972e77c942bf91754907afe" target="_top" xlink:title=" ">
<ellipse fill="white" stroke="#666666" cx="660.2" cy="-212.97" rx="121.62" ry="25.81"/>
<text xml:space="preserve" text-anchor="start" x="582.2" y="-215.82" font-family="Helvetica,sans-Serif" font-size="12.00">com.runehive.content.activity.</text>
<text xml:space="preserve" text-anchor="middle" x="660.2" y="-201.57" font-family="Helvetica,sans-Serif" font-size="12.00">Activity.evaluate</text>
</a>
</g>
</g>
<!-- Node1&#45;&gt;Node19 -->
<g id="edge34_Node000001_Node000019" class="edge">
<title>Node1&#45;&gt;Node19</title>
<g id="a_edge34_Node000001_Node000019"><a xlink:title=" ">
<path fill="none" stroke="#63b8ff" d="M396.88,-192.23C442.99,-195.88 491.57,-199.72 534.22,-203.09"/>
<polygon fill="#63b8ff" stroke="#63b8ff" points="533.75,-206.56 543.99,-203.86 534.3,-199.59 533.75,-206.56"/>
</a>
</g>
</g>
<!-- Node20 -->
<g id="Node000020" class="node">
<title>Node20</title>
<g id="a_Node000020"><a xlink:href="classcom_1_1runehive_1_1game_1_1world_1_1entity_1_1combat_1_1strategy_1_1_combat_strategy.html#a50fbd9f805b9e41c07e00e60daffa71c" target="_top" xlink:title=" ">
<ellipse fill="white" stroke="#666666" cx="660.2" cy="-142.97" rx="193.22" ry="25.81"/>
<text xml:space="preserve" text-anchor="start" x="531.57" y="-145.82" font-family="Helvetica,sans-Serif" font-size="12.00">com.runehive.game.world.entity.combat.strategy.</text>
<text xml:space="preserve" text-anchor="middle" x="660.2" y="-131.57" font-family="Helvetica,sans-Serif" font-size="12.00">CombatStrategy.getAttackDistance</text>
</a>
</g>
</g>
<!-- Node1&#45;&gt;Node20 -->
<g id="edge35_Node000001_Node000020" class="edge">
<title>Node1&#45;&gt;Node20</title>
<g id="a_edge35_Node000001_Node000020"><a xlink:title=" ">
<path fill="none" stroke="#63b8ff" d="M396.88,-163.71C424.74,-161.51 453.49,-159.23 481.3,-157.04"/>
<polygon fill="#63b8ff" stroke="#63b8ff" points="481.53,-160.53 491.22,-156.25 480.98,-153.55 481.53,-160.53"/>
</a>
</g>
</g>
<!-- Node21 -->
<g id="Node000021" class="node">
<title>Node21</title>
<g id="a_Node000021"><a xlink:href="classcom_1_1runehive_1_1util_1_1_utility.html#a52e944b79257ee14b44e989bde3de895" target="_top" xlink:title=" ">
<ellipse fill="white" stroke="#666666" cx="660.2" cy="-72.97" rx="107.3" ry="25.81"/>
<text xml:space="preserve" text-anchor="start" x="592.32" y="-75.82" font-family="Helvetica,sans-Serif" font-size="12.00">com.runehive.util.Utility.in</text>
<text xml:space="preserve" text-anchor="middle" x="660.2" y="-61.57" font-family="Helvetica,sans-Serif" font-size="12.00">Range</text>
</a>
</g>
</g>
<!-- Node1&#45;&gt;Node21 -->
<g id="edge36_Node000001_Node000021" class="edge">
<title>Node1&#45;&gt;Node21</title>
<g id="a_edge36_Node000001_Node000021"><a xlink:title=" ">
<path fill="none" stroke="#63b8ff" d="M296.38,-153.61C345.34,-139.19 409.45,-121.22 466.98,-107.97 496.73,-101.12 529.32,-94.76 559.08,-89.4"/>
<polygon fill="#63b8ff" stroke="#63b8ff" points="559.61,-92.86 568.84,-87.65 558.38,-85.96 559.61,-92.86"/>
</a>
</g>
</g>
<!-- Node3 -->
<g id="Node000003" class="node">
<title>Node3</title>
<g id="a_Node000003"><a xlink:href="classcom_1_1runehive_1_1util_1_1_utility.html#a681f6f00001464109e8781c935de4b39" target="_top" xlink:title=" ">
<ellipse fill="white" stroke="#666666" cx="1003.61" cy="-455.97" rx="114.2" ry="25.81"/>
<text xml:space="preserve" text-anchor="start" x="930.86" y="-458.82" font-family="Helvetica,sans-Serif" font-size="12.00">com.runehive.util.Utility.find</text>
<text xml:space="preserve" text-anchor="middle" x="1003.61" y="-444.57" font-family="Helvetica,sans-Serif" font-size="12.00">BestInside</text>
</a>
</g>
</g>
<!-- Node2&#45;&gt;Node3 -->
<g id="edge2_Node000002_Node000003" class="edge">
<title>Node2&#45;&gt;Node3</title>
<g id="a_edge2_Node000002_Node000003"><a xlink:title=" ">
<path fill="none" stroke="#63b8ff" d="M710.84,-308.13C773.16,-339.71 879.84,-393.76 945.48,-427.02"/>
<polygon fill="#63b8ff" stroke="#63b8ff" points="943.8,-430.1 954.3,-431.49 946.97,-423.85 943.8,-430.1"/>
</a>
</g>
</g>
<!-- Node11 -->
<g id="Node000011" class="node">
<title>Node11</title>
<g id="a_Node000011"><a xlink:href="interfacecom_1_1runehive_1_1game_1_1world_1_1_interactable.html#a49e07a60c6643c0ba33bc9754305c352" target="_top" xlink:title=" ">
<ellipse fill="white" stroke="#666666" cx="1971.28" cy="-344.97" rx="110.49" ry="25.81"/>
<text xml:space="preserve" text-anchor="start" x="1901.15" y="-347.82" font-family="Helvetica,sans-Serif" font-size="12.00">com.runehive.game.world.</text>
<text xml:space="preserve" text-anchor="middle" x="1971.28" y="-333.57" font-family="Helvetica,sans-Serif" font-size="12.00">Interactable.getPosition</text>
</a>
</g>
</g>
<!-- Node2&#45;&gt;Node11 -->
<g id="edge31_Node000002_Node000011" class="edge">
<title>Node2&#45;&gt;Node11</title>
<g id="a_edge31_Node000002_Node000011"><a xlink:title=" ">
<path fill="none" stroke="#63b8ff" d="M813,-270.56C827.6,-265.02 841.41,-257.67 853.42,-247.97 885.97,-221.68 855.34,-185.27 889.42,-160.97 1216.47,72.24 1427.66,27.06 1792.97,-139.97 1869.08,-174.77 1925.02,-260.16 1952.07,-309.05"/>
<polygon fill="#63b8ff" stroke="#63b8ff" points="1948.85,-310.44 1956.69,-317.57 1955,-307.11 1948.85,-310.44"/>
</a>
</g>
</g>
<!-- Node16 -->
<g id="Node000016" class="node">
<title>Node16</title>
<g id="a_Node000016"><a xlink:href="interfacecom_1_1runehive_1_1game_1_1world_1_1_interactable.html#a9513e5e63159a738b417ceba87cd1de8" target="_top" xlink:title=" ">
<ellipse fill="white" stroke="#666666" cx="1642.18" cy="-174.97" rx="110.49" ry="25.81"/>
<text xml:space="preserve" text-anchor="start" x="1572.06" y="-177.82" font-family="Helvetica,sans-Serif" font-size="12.00">com.runehive.game.world.</text>
<text xml:space="preserve" text-anchor="middle" x="1642.18" y="-163.57" font-family="Helvetica,sans-Serif" font-size="12.00">Interactable.length</text>
</a>
</g>
</g>
<!-- Node2&#45;&gt;Node16 -->
<g id="edge32_Node000002_Node000016" class="edge">
<title>Node2&#45;&gt;Node16</title>
<g id="a_edge32_Node000002_Node000016"><a xlink:title=" ">
<path fill="none" stroke="#63b8ff" d="M778.26,-263.74C803.17,-259.07 829.25,-253.73 853.42,-247.97 988.86,-215.67 1016.01,-178.96 1153.81,-158.97 1286.46,-139.73 1321.48,-153.22 1455.39,-158.97 1479.27,-160 1504.82,-161.76 1529.1,-163.75"/>
<polygon fill="#63b8ff" stroke="#63b8ff" points="1528.76,-167.24 1539.01,-164.59 1529.34,-160.26 1528.76,-167.24"/>
</a>
</g>
</g>
<!-- Node18 -->
<g id="Node000018" class="node">
<title>Node18</title>
<g id="a_Node000018"><a xlink:href="interfacecom_1_1runehive_1_1game_1_1world_1_1_interactable.html#ad7eb47dad8c89c478cedc32ea6fe3a5b" target="_top" xlink:title=" ">
<ellipse fill="white" stroke="#666666" cx="1642.18" cy="-752.97" rx="110.49" ry="25.81"/>
<text xml:space="preserve" text-anchor="start" x="1572.06" y="-755.82" font-family="Helvetica,sans-Serif" font-size="12.00">com.runehive.game.world.</text>
<text xml:space="preserve" text-anchor="middle" x="1642.18" y="-741.57" font-family="Helvetica,sans-Serif" font-size="12.00">Interactable.width</text>
</a>
</g>
</g>
<!-- Node2&#45;&gt;Node18 -->
<g id="edge33_Node000002_Node000018" class="edge">
<title>Node2&#45;&gt;Node18</title>
<g id="a_edge33_Node000002_Node000018"><a xlink:title=" ">
<path fill="none" stroke="#63b8ff" d="M672.93,-308.9C718.13,-405.14 891.62,-742.53 1153.81,-863.97 1275.43,-920.31 1342.13,-935.65 1455.39,-863.97 1486.97,-843.99 1462.31,-811.44 1491.39,-787.97 1502.65,-778.88 1515.86,-772.08 1529.68,-766.99"/>
<polygon fill="#63b8ff" stroke="#63b8ff" points="1530.54,-770.39 1538.91,-763.9 1528.32,-763.75 1530.54,-770.39"/>
</a>
</g>
</g>
<!-- Node4 -->
<g id="Node000004" class="node">
<title>Node4</title>
<g id="a_Node000004"><a xlink:href="classcom_1_1runehive_1_1game_1_1world_1_1position_1_1_position.html#aa5000a67dd47377b1c1a1b252c3a4493" target="_top" xlink:title=" ">
<ellipse fill="white" stroke="#666666" cx="1304.6" cy="-828.97" rx="142.31" ry="25.81"/>
<text xml:space="preserve" text-anchor="start" x="1211.98" y="-831.82" font-family="Helvetica,sans-Serif" font-size="12.00">com.runehive.game.world.position.</text>
<text xml:space="preserve" text-anchor="middle" x="1304.6" y="-817.57" font-family="Helvetica,sans-Serif" font-size="12.00">Position.equals</text>
</a>
</g>
</g>
<!-- Node3&#45;&gt;Node4 -->
<g id="edge3_Node000003_Node000004" class="edge">
<title>Node3&#45;&gt;Node4</title>
<g id="a_edge3_Node000003_Node000004"><a xlink:title=" ">
<path fill="none" stroke="#63b8ff" d="M1008.11,-481.8C1018.15,-545.41 1053.09,-710.45 1153.81,-793.97 1161.12,-800.04 1169.3,-805.09 1177.95,-809.3"/>
<polygon fill="#63b8ff" stroke="#63b8ff" points="1176.36,-812.42 1186.92,-813.25 1179.18,-806.02 1176.36,-812.42"/>
</a>
</g>
</g>
<!-- Node6 -->
<g id="Node000006" class="node">
<title>Node6</title>
<g id="a_Node000006"><a xlink:href="enumcom_1_1runehive_1_1game_1_1world_1_1entity_1_1mob_1_1_direction.html#a02a335dd3a519ed422e54ea52d510720" target="_top" xlink:title="Gets the direction between two locations.">
<ellipse fill="white" stroke="#666666" cx="1304.6" cy="-758.97" rx="150.79" ry="25.81"/>
<text xml:space="preserve" text-anchor="start" x="1205.98" y="-761.82" font-family="Helvetica,sans-Serif" font-size="12.00">com.runehive.game.world.entity.mob.</text>
<text xml:space="preserve" text-anchor="middle" x="1304.6" y="-747.57" font-family="Helvetica,sans-Serif" font-size="12.00">Direction.getDirection</text>
</a>
</g>
</g>
<!-- Node3&#45;&gt;Node6 -->
<g id="edge5_Node000003_Node000006" class="edge">
<title>Node3&#45;&gt;Node6</title>
<g id="a_edge5_Node000003_Node000006"><a xlink:title=" ">
<path fill="none" stroke="#63b8ff" d="M1011.94,-482.17C1028.19,-535.32 1072.39,-656.06 1153.81,-718.97 1163.01,-726.08 1173.37,-731.93 1184.24,-736.74"/>
<polygon fill="#63b8ff" stroke="#63b8ff" points="1182.81,-739.94 1193.39,-740.47 1185.45,-733.46 1182.81,-739.94"/>
</a>
</g>
</g>
<!-- Node8 -->
<g id="Node000008" class="node">
<title>Node8</title>
<g id="a_Node000008"><a xlink:href="enumcom_1_1runehive_1_1game_1_1world_1_1entity_1_1mob_1_1_direction.html#a1cc1d881c28300ac71efc5e531c4db3c" target="_top" xlink:title=" ">
<ellipse fill="white" stroke="#666666" cx="1304.6" cy="-298.97" rx="150.79" ry="25.81"/>
<text xml:space="preserve" text-anchor="start" x="1205.98" y="-301.82" font-family="Helvetica,sans-Serif" font-size="12.00">com.runehive.game.world.entity.mob.</text>
<text xml:space="preserve" text-anchor="middle" x="1304.6" y="-287.57" font-family="Helvetica,sans-Serif" font-size="12.00">Direction.getDirectionX</text>
</a>
</g>
</g>
<!-- Node3&#45;&gt;Node8 -->
<g id="edge7_Node000003_Node000008" class="edge">
<title>Node3&#45;&gt;Node8</title>
<g id="a_edge7_Node000003_Node000008"><a xlink:title=" ">
<path fill="none" stroke="#63b8ff" d="M1030.11,-430.6C1058.15,-404.07 1105.66,-363.01 1153.81,-338.97 1166.76,-332.51 1180.89,-326.99 1195.12,-322.31"/>
<polygon fill="#63b8ff" stroke="#63b8ff" points="1196.06,-325.68 1204.56,-319.35 1193.97,-319.01 1196.06,-325.68"/>
</a>
</g>
</g>
<!-- Node9 -->
<g id="Node000009" class="node">
<title>Node9</title>
<g id="a_Node000009"><a xlink:href="enumcom_1_1runehive_1_1game_1_1world_1_1entity_1_1mob_1_1_direction.html#a4b53644b00b467a301eb80f8c7b77553" target="_top" xlink:title=" ">
<ellipse fill="white" stroke="#666666" cx="1304.6" cy="-228.97" rx="150.79" ry="25.81"/>
<text xml:space="preserve" text-anchor="start" x="1205.98" y="-231.82" font-family="Helvetica,sans-Serif" font-size="12.00">com.runehive.game.world.entity.mob.</text>
<text xml:space="preserve" text-anchor="middle" x="1304.6" y="-217.57" font-family="Helvetica,sans-Serif" font-size="12.00">Direction.getDirectionY</text>
</a>
</g>
</g>
<!-- Node3&#45;&gt;Node9 -->
<g id="edge8_Node000003_Node000009" class="edge">
<title>Node3&#45;&gt;Node9</title>
<g id="a_edge8_Node000003_Node000009"><a xlink:title=" ">
<path fill="none" stroke="#63b8ff" d="M1017.33,-429.92C1039.16,-388.05 1087.88,-306.22 1153.81,-263.97 1162.14,-258.63 1171.2,-254.11 1180.6,-250.27"/>
<polygon fill="#63b8ff" stroke="#63b8ff" points="1181.8,-253.56 1189.92,-246.76 1179.33,-247.01 1181.8,-253.56"/>
</a>
</g>
</g>
<!-- Node10 -->
<g id="Node000010" class="node">
<title>Node10</title>
<g id="a_Node000010"><a xlink:href="classcom_1_1runehive_1_1util_1_1_utility.html#a551396449bf2c3e196ba267f3efdc899" target="_top" xlink:title=" ">
<ellipse fill="white" stroke="#666666" cx="1304.6" cy="-482.97" rx="112.08" ry="25.81"/>
<text xml:space="preserve" text-anchor="start" x="1233.35" y="-485.82" font-family="Helvetica,sans-Serif" font-size="12.00">com.runehive.util.Utility.get</text>
<text xml:space="preserve" text-anchor="middle" x="1304.6" y="-471.57" font-family="Helvetica,sans-Serif" font-size="12.00">Distance</text>
</a>
</g>
</g>
<!-- Node3&#45;&gt;Node10 -->
<g id="edge9_Node000003_Node000010" class="edge">
<title>Node3&#45;&gt;Node10</title>
<g id="a_edge9_Node000003_Node000010"><a xlink:title=" ">
<path fill="none" stroke="#63b8ff" d="M1110.45,-465.53C1135.69,-467.81 1162.75,-470.25 1188.39,-472.57"/>
<polygon fill="#63b8ff" stroke="#63b8ff" points="1187.89,-476.04 1198.16,-473.45 1188.52,-469.07 1187.89,-476.04"/>
</a>
</g>
</g>
<!-- Node3&#45;&gt;Node11 -->
<g id="edge23_Node000003_Node000011" class="edge">
<title>Node3&#45;&gt;Node11</title>
<g id="a_edge23_Node000003_Node000011"><a xlink:title=" ">
<path fill="none" stroke="#63b8ff" d="M1037.24,-430.85C1066.19,-410 1110.49,-381.49 1153.81,-366.97 1281.66,-324.12 1325.21,-369.11 1455.39,-333.97 1472.3,-329.41 1474.26,-321.61 1491.39,-317.97 1622.51,-290.15 1659.32,-307.85 1792.97,-317.97 1818.67,-319.92 1846.28,-323.43 1871.88,-327.28"/>
<polygon fill="#63b8ff" stroke="#63b8ff" points="1871.19,-330.72 1881.6,-328.79 1872.26,-323.8 1871.19,-330.72"/>
</a>
</g>
</g>
<!-- Node12 -->
<g id="Node000012" class="node">
<title>Node12</title>
<g id="a_Node000012"><a xlink:href="interfacecom_1_1runehive_1_1game_1_1world_1_1_interactable.html#a709f3328972af0a98047591417fd5d4b" target="_top" xlink:title=" ">
<ellipse fill="white" stroke="#666666" cx="1642.18" cy="-352.97" rx="110.49" ry="25.81"/>
<text xml:space="preserve" text-anchor="start" x="1572.06" y="-355.82" font-family="Helvetica,sans-Serif" font-size="12.00">com.runehive.game.world.</text>
<text xml:space="preserve" text-anchor="middle" x="1642.18" y="-341.57" font-family="Helvetica,sans-Serif" font-size="12.00">Interactable.getX</text>
</a>
</g>
</g>
<!-- Node3&#45;&gt;Node12 -->
<g id="edge24_Node000003_Node000012" class="edge">
<title>Node3&#45;&gt;Node12</title>
<g id="a_edge24_Node000003_Node000012"><a xlink:title=" ">
<path fill="none" stroke="#63b8ff" d="M1072.83,-435.04C1098.09,-427.87 1127.07,-420.32 1153.81,-414.97 1280.25,-389.69 1427.31,-372.65 1526.55,-362.93"/>
<polygon fill="#63b8ff" stroke="#63b8ff" points="1526.69,-366.43 1536.3,-361.98 1526.01,-359.46 1526.69,-366.43"/>
</a>
</g>
</g>
<!-- Node13 -->
<g id="Node000013" class="node">
<title>Node13</title>
<g id="a_Node000013"><a xlink:href="classcom_1_1runehive_1_1game_1_1world_1_1position_1_1_position.html#a7bfa5292d8c3f79100a6bc85ea27b5ea" target="_top" xlink:title="Gets the absolute x coordinate.">
<ellipse fill="white" stroke="#666666" cx="1971.28" cy="-414.97" rx="142.31" ry="25.81"/>
<text xml:space="preserve" text-anchor="start" x="1878.65" y="-417.82" font-family="Helvetica,sans-Serif" font-size="12.00">com.runehive.game.world.position.</text>
<text xml:space="preserve" text-anchor="middle" x="1971.28" y="-403.57" font-family="Helvetica,sans-Serif" font-size="12.00">Position.getX</text>
</a>
</g>
</g>
<!-- Node3&#45;&gt;Node13 -->
<g id="edge25_Node000003_Node000013" class="edge">
<title>Node3&#45;&gt;Node13</title>
<g id="a_edge25_Node000003_Node000013"><a xlink:title=" ">
<path fill="none" stroke="#63b8ff" d="M1115.01,-449.89C1128.08,-449.22 1141.24,-448.56 1153.81,-447.97 1386.36,-437.04 1656.27,-426.56 1820.08,-420.45"/>
<polygon fill="#63b8ff" stroke="#63b8ff" points="1819.83,-423.96 1829.69,-420.09 1819.57,-416.97 1819.83,-423.96"/>
</a>
</g>
</g>
<!-- Node14 -->
<g id="Node000014" class="node">
<title>Node14</title>
<g id="a_Node000014"><a xlink:href="interfacecom_1_1runehive_1_1game_1_1world_1_1_interactable.html#a4fe2dfd0c67da8fd088077795154e218" target="_top" xlink:title=" ">
<ellipse fill="white" stroke="#666666" cx="1642.18" cy="-536.97" rx="110.49" ry="25.81"/>
<text xml:space="preserve" text-anchor="start" x="1572.06" y="-539.82" font-family="Helvetica,sans-Serif" font-size="12.00">com.runehive.game.world.</text>
<text xml:space="preserve" text-anchor="middle" x="1642.18" y="-525.57" font-family="Helvetica,sans-Serif" font-size="12.00">Interactable.getY</text>
</a>
</g>
</g>
<!-- Node3&#45;&gt;Node14 -->
<g id="edge26_Node000003_Node000014" class="edge">
<title>Node3&#45;&gt;Node14</title>
<g id="a_edge26_Node000003_Node000014"><a xlink:title=" ">
<path fill="none" stroke="#63b8ff" d="M1050.26,-479.92C1079.11,-493.79 1117.65,-510.02 1153.81,-517.97 1277.84,-545.24 1423.81,-547.08 1523.45,-543.93"/>
<polygon fill="#63b8ff" stroke="#63b8ff" points="1523.37,-547.43 1533.25,-543.59 1523.13,-540.44 1523.37,-547.43"/>
</a>
</g>
</g>
<!-- Node15 -->
<g id="Node000015" class="node">
<title>Node15</title>
<g id="a_Node000015"><a xlink:href="classcom_1_1runehive_1_1game_1_1world_1_1position_1_1_position.html#a55498d0fafce9fdeedca16984d79aee5" target="_top" xlink:title="Gets the absolute y coordinate.">
<ellipse fill="white" stroke="#666666" cx="1971.28" cy="-590.97" rx="142.31" ry="25.81"/>
<text xml:space="preserve" text-anchor="start" x="1878.65" y="-593.82" font-family="Helvetica,sans-Serif" font-size="12.00">com.runehive.game.world.position.</text>
<text xml:space="preserve" text-anchor="middle" x="1971.28" y="-579.57" font-family="Helvetica,sans-Serif" font-size="12.00">Position.getY</text>
</a>
</g>
</g>
<!-- Node3&#45;&gt;Node15 -->
<g id="edge27_Node000003_Node000015" class="edge">
<title>Node3&#45;&gt;Node15</title>
<g id="a_edge27_Node000003_Node000015"><a xlink:title=" ">
<path fill="none" stroke="#63b8ff" d="M1037.68,-481.02C1066.73,-501.74 1110.94,-530.22 1153.81,-545.97 1384.37,-630.69 1676.24,-621.45 1841.22,-606.56"/>
<polygon fill="#63b8ff" stroke="#63b8ff" points="1841.25,-610.07 1850.88,-605.66 1840.6,-603.1 1841.25,-610.07"/>
</a>
</g>
</g>
<!-- Node3&#45;&gt;Node16 -->
<g id="edge28_Node000003_Node000016" class="edge">
<title>Node3&#45;&gt;Node16</title>
<g id="a_edge28_Node000003_Node000016"><a xlink:title=" ">
<path fill="none" stroke="#63b8ff" d="M1010.48,-430.01C1024.43,-375.09 1065.24,-247.79 1153.81,-193.97 1213.81,-157.51 1400.57,-160.31 1524.7,-166.81"/>
<polygon fill="#63b8ff" stroke="#63b8ff" points="1524.45,-170.3 1534.62,-167.35 1524.83,-163.31 1524.45,-170.3"/>
</a>
</g>
</g>
<!-- Node17 -->
<g id="Node000017" class="node">
<title>Node17</title>
<g id="a_Node000017"><a xlink:href="classcom_1_1runehive_1_1game_1_1world_1_1position_1_1_position.html#a92154563715ed156b00ee6220e2991ff" target="_top" xlink:title="Creates a new location based on this location.">
<ellipse fill="white" stroke="#666666" cx="1642.18" cy="-682.97" rx="142.31" ry="25.81"/>
<text xml:space="preserve" text-anchor="start" x="1549.56" y="-685.82" font-family="Helvetica,sans-Serif" font-size="12.00">com.runehive.game.world.position.</text>
<text xml:space="preserve" text-anchor="middle" x="1642.18" y="-671.57" font-family="Helvetica,sans-Serif" font-size="12.00">Position.transform</text>
</a>
</g>
</g>
<!-- Node3&#45;&gt;Node17 -->
<g id="edge29_Node000003_Node000017" class="edge">
<title>Node3&#45;&gt;Node17</title>
<g id="a_edge29_Node000003_Node000017"><a xlink:title=" ">
<path fill="none" stroke="#63b8ff" d="M1016.52,-481.78C1037.51,-523.94 1085.45,-606.54 1153.81,-642.97 1209.98,-672.91 1367.55,-681.5 1488.47,-683.48"/>
<polygon fill="#63b8ff" stroke="#63b8ff" points="1488.12,-686.97 1498.17,-683.62 1488.22,-679.97 1488.12,-686.97"/>
</a>
</g>
</g>
<!-- Node3&#45;&gt;Node18 -->
<g id="edge30_Node000003_Node000018" class="edge">
<title>Node3&#45;&gt;Node18</title>
<g id="a_edge30_Node000003_Node000018"><a xlink:title=" ">
<path fill="none" stroke="#63b8ff" d="M1014,-481.94C1032.61,-529.36 1078.97,-629.45 1153.81,-676.97 1268.33,-749.69 1321.36,-703.07 1455.39,-723.97 1482.32,-728.17 1511.45,-732.72 1538.48,-736.94"/>
<polygon fill="#63b8ff" stroke="#63b8ff" points="1537.6,-740.34 1548.02,-738.43 1538.68,-733.43 1537.6,-740.34"/>
</a>
</g>
</g>
<!-- Node5 -->
<g id="Node000005" class="node">
<title>Node5</title>
<g id="a_Node000005"><a xlink:href="classcom_1_1runehive_1_1game_1_1world_1_1position_1_1_position.html#a7803ff05a7b4b99d2883898ade9427f7" target="_top" xlink:title="Creates a location with a default height of 0.">
<ellipse fill="white" stroke="#666666" cx="1971.28" cy="-779.97" rx="142.31" ry="25.81"/>
<text xml:space="preserve" text-anchor="start" x="1878.65" y="-782.82" font-family="Helvetica,sans-Serif" font-size="12.00">com.runehive.game.world.position.</text>
<text xml:space="preserve" text-anchor="middle" x="1971.28" y="-768.57" font-family="Helvetica,sans-Serif" font-size="12.00">Position.Position</text>
</a>
</g>
</g>
<!-- Node4&#45;&gt;Node5 -->
<g id="edge4_Node000004_Node000005" class="edge">
<title>Node4&#45;&gt;Node5</title>
<g id="a_edge4_Node000004_Node000005"><a xlink:title=" ">
<path fill="none" stroke="#63b8ff" d="M1397.84,-848.84C1496.66,-866.81 1657.56,-886.44 1792.97,-857.97 1837,-848.71 1883.44,-827.83 1917.74,-810"/>
<polygon fill="#63b8ff" stroke="#63b8ff" points="1918.99,-813.3 1926.19,-805.53 1915.72,-807.11 1918.99,-813.3"/>
</a>
</g>
</g>
<!-- Node7 -->
<g id="Node000007" class="node">
<title>Node7</title>
<g id="a_Node000007"><a xlink:href="enumcom_1_1runehive_1_1game_1_1world_1_1entity_1_1mob_1_1_direction.html#a8b0c9cd92772067ca662f10b70a6a487" target="_top" xlink:title=" ">
<ellipse fill="white" stroke="#666666" cx="1642.18" cy="-822.97" rx="150.79" ry="25.81"/>
<text xml:space="preserve" text-anchor="start" x="1543.56" y="-825.82" font-family="Helvetica,sans-Serif" font-size="12.00">com.runehive.game.world.entity.mob.</text>
<text xml:space="preserve" text-anchor="middle" x="1642.18" y="-811.57" font-family="Helvetica,sans-Serif" font-size="12.00">Direction.Direction</text>
</a>
</g>
</g>
<!-- Node6&#45;&gt;Node7 -->
<g id="edge6_Node000006_Node000007" class="edge">
<title>Node6&#45;&gt;Node7</title>
<g id="a_edge6_Node000006_Node000007"><a xlink:title=" ">
<path fill="none" stroke="#63b8ff" d="M1406.74,-778.26C1445.2,-785.6 1489.24,-794 1528.69,-801.52"/>
<polygon fill="#63b8ff" stroke="#63b8ff" points="1527.99,-804.95 1538.47,-803.38 1529.31,-798.07 1527.99,-804.95"/>
</a>
</g>
</g>
<!-- Node10&#45;&gt;Node11 -->
<g id="edge10_Node000010_Node000011" class="edge">
<title>Node10&#45;&gt;Node11</title>
<g id="a_edge10_Node000010_Node000011"><a xlink:title=" ">
<path fill="none" stroke="#63b8ff" d="M1393.89,-467.01C1491.72,-449.03 1654.02,-418.35 1792.97,-387.97 1822.74,-381.46 1855.18,-373.77 1884.07,-366.71"/>
<polygon fill="#63b8ff" stroke="#63b8ff" points="1884.61,-370.18 1893.49,-364.4 1882.94,-363.38 1884.61,-370.18"/>
</a>
</g>
</g>
<!-- Node10&#45;&gt;Node12 -->
<g id="edge11_Node000010_Node000012" class="edge">
<title>Node10&#45;&gt;Node12</title>
<g id="a_edge11_Node000010_Node000012"><a xlink:title=" ">
<path fill="none" stroke="#63b8ff" d="M1363.29,-460.62C1421.57,-438.05 1511.59,-403.18 1573.28,-379.28"/>
<polygon fill="#63b8ff" stroke="#63b8ff" points="1574.21,-382.67 1582.27,-375.79 1571.69,-376.14 1574.21,-382.67"/>
</a>
</g>
</g>
<!-- Node10&#45;&gt;Node13 -->
<g id="edge14_Node000010_Node000013" class="edge">
<title>Node10&#45;&gt;Node13</title>
<g id="a_edge14_Node000010_Node000013"><a xlink:title=" ">
<path fill="none" stroke="#63b8ff" d="M1417.01,-483.61C1516.19,-482.73 1664.95,-477.83 1792.97,-458.97 1823.02,-454.55 1855.4,-447.27 1884.16,-439.91"/>
<polygon fill="#63b8ff" stroke="#63b8ff" points="1884.74,-443.37 1893.53,-437.46 1882.97,-436.6 1884.74,-443.37"/>
</a>
</g>
</g>
<!-- Node10&#45;&gt;Node14 -->
<g id="edge15_Node000010_Node000014" class="edge">
<title>Node10&#45;&gt;Node14</title>
<g id="a_edge15_Node000010_Node000014"><a xlink:title=" ">
<path fill="none" stroke="#63b8ff" d="M1397.3,-497.73C1441.13,-504.78 1493.75,-513.25 1538.87,-520.51"/>
<polygon fill="#63b8ff" stroke="#63b8ff" points="1538.25,-523.95 1548.68,-522.09 1539.36,-517.04 1538.25,-523.95"/>
</a>
</g>
</g>
<!-- Node10&#45;&gt;Node15 -->
<g id="edge18_Node000010_Node000015" class="edge">
<title>Node10&#45;&gt;Node15</title>
<g id="a_edge18_Node000010_Node000015"><a xlink:title=" ">
<path fill="none" stroke="#63b8ff" d="M1344.42,-507.37C1380.83,-528.81 1437.59,-558.62 1491.39,-571.97 1601.31,-599.24 1729.72,-602.89 1825.89,-600.32"/>
<polygon fill="#63b8ff" stroke="#63b8ff" points="1825.75,-603.82 1835.64,-600.03 1825.54,-596.83 1825.75,-603.82"/>
</a>
</g>
</g>
<!-- Node10&#45;&gt;Node16 -->
<g id="edge19_Node000010_Node000016" class="edge">
<title>Node10&#45;&gt;Node16</title>
<g id="a_edge19_Node000010_Node000016"><a xlink:title=" ">
<path fill="none" stroke="#63b8ff" d="M1333.06,-457.77C1393.56,-402.24 1538.28,-269.41 1605.61,-207.62"/>
<polygon fill="#63b8ff" stroke="#63b8ff" points="1607.7,-210.46 1612.7,-201.12 1602.96,-205.3 1607.7,-210.46"/>
</a>
</g>
</g>
<!-- Node10&#45;&gt;Node17 -->
<g id="edge20_Node000010_Node000017" class="edge">
<title>Node10&#45;&gt;Node17</title>
<g id="a_edge20_Node000010_Node000017"><a xlink:title=" ">
<path fill="none" stroke="#63b8ff" d="M1340.89,-507.68C1377.77,-533.14 1437.64,-573.44 1491.39,-604.97 1520.45,-622.02 1553.59,-639.47 1581.3,-653.54"/>
<polygon fill="#63b8ff" stroke="#63b8ff" points="1579.4,-656.5 1589.9,-657.88 1582.55,-650.25 1579.4,-656.5"/>
</a>
</g>
</g>
<!-- Node10&#45;&gt;Node18 -->
<g id="edge22_Node000010_Node000018" class="edge">
<title>Node10&#45;&gt;Node18</title>
<g id="a_edge22_Node000010_Node000018"><a xlink:title=" ">
<path fill="none" stroke="#63b8ff" d="M1322.63,-508.61C1359.67,-563.62 1447.7,-690.24 1491.39,-717.97 1504.27,-726.15 1518.87,-732.42 1533.76,-737.23"/>
<polygon fill="#63b8ff" stroke="#63b8ff" points="1532.61,-740.54 1543.19,-740.04 1534.61,-733.83 1532.61,-740.54"/>
</a>
</g>
</g>
<!-- Node12&#45;&gt;Node11 -->
<g id="edge12_Node000012_Node000011" class="edge">
<title>Node12&#45;&gt;Node11</title>
<g id="a_edge12_Node000012_Node000011"><a xlink:title=" ">
<path fill="none" stroke="#63b8ff" d="M1752.56,-350.3C1783.79,-349.53 1817.99,-348.7 1849.85,-347.92"/>
<polygon fill="#63b8ff" stroke="#63b8ff" points="1849.58,-351.42 1859.5,-347.68 1849.41,-344.43 1849.58,-351.42"/>
</a>
</g>
</g>
<!-- Node12&#45;&gt;Node13 -->
<g id="edge13_Node000012_Node000013" class="edge">
<title>Node12&#45;&gt;Node13</title>
<g id="a_edge13_Node000012_Node000013"><a xlink:title=" ">
<path fill="none" stroke="#63b8ff" d="M1729.12,-369.26C1769.17,-376.85 1817.31,-385.98 1860,-394.07"/>
<polygon fill="#63b8ff" stroke="#63b8ff" points="1859.35,-397.51 1869.82,-395.93 1860.65,-390.63 1859.35,-397.51"/>
</a>
</g>
</g>
<!-- Node14&#45;&gt;Node11 -->
<g id="edge16_Node000014_Node000011" class="edge">
<title>Node14&#45;&gt;Node11</title>
<g id="a_edge16_Node000014_Node000011"><a xlink:title=" ">
<path fill="none" stroke="#63b8ff" d="M1705.7,-515.45C1735.19,-502.76 1769.06,-484.18 1792.97,-458.97 1819.53,-430.98 1799.29,-404.62 1828.97,-379.97 1838.75,-371.85 1850.13,-365.58 1862.12,-360.73"/>
<polygon fill="#63b8ff" stroke="#63b8ff" points="1863.17,-364.07 1871.36,-357.34 1860.77,-357.49 1863.17,-364.07"/>
</a>
</g>
</g>
<!-- Node14&#45;&gt;Node15 -->
<g id="edge17_Node000014_Node000015" class="edge">
<title>Node14&#45;&gt;Node15</title>
<g id="a_edge17_Node000014_Node000015"><a xlink:title=" ">
<path fill="none" stroke="#63b8ff" d="M1733.43,-551.87C1770.51,-557.99 1813.93,-565.16 1853.4,-571.68"/>
<polygon fill="#63b8ff" stroke="#63b8ff" points="1852.76,-575.12 1863.19,-573.29 1853.9,-568.21 1852.76,-575.12"/>
</a>
</g>
</g>
<!-- Node17&#45;&gt;Node5 -->
<g id="edge21_Node000017_Node000005" class="edge">
<title>Node17&#45;&gt;Node5</title>
<g id="a_edge21_Node000017_Node000005"><a xlink:title=" ">
<path fill="none" stroke="#63b8ff" d="M1735.08,-702.81C1754.31,-707.41 1774.38,-712.57 1792.97,-717.97 1827.86,-728.12 1865.96,-741.17 1897.87,-752.69"/>
<polygon fill="#63b8ff" stroke="#63b8ff" points="1896.42,-755.88 1907.02,-756.01 1898.81,-749.3 1896.42,-755.88"/>
</a>
</g>
</g>
</g>
</svg>
