<?xml version="1.0" encoding="UTF-8" standalone="no"?>
<!DOCTYPE svg PUBLIC "-//W3C//DTD SVG 1.1//EN"
 "http://www.w3.org/Graphics/SVG/1.1/DTD/svg11.dtd">
<!-- Generated by graphviz version 14.0.1 (20251006.0113)
 -->
<!-- Title: com.runehive.util.Words.belowBillion Pages: 1 -->
<!--zoomable 713 -->

<svg id="main" version="1.1" xmlns="http://www.w3.org/2000/svg" xmlns:xlink="http://www.w3.org/1999/xlink" xml:space="preserve" onload="init(evt)">

<style type="text/css"><![CDATA[
.node, .edge {opacity: 0.7;}
.node.selected, .edge.selected {opacity: 1;}
.edge:hover path { stroke: red; }
.edge:hover polygon { stroke: red; fill: red; }
]]></style>

<defs>
  <circle id="rim" cx="0" cy="0" r="7"/>
  <circle id="rim2" cx="0" cy="0" r="3.5"/>
  <g id="zoomPlus">
    <use xlink:href="#rim" fill="#404040"><set attributeName="fill" to="#808080" begin="zoomplus.mouseover" end="zoomplus.mouseout"/></use>
    <path d="M-4,0h8M0,-4v8" fill="none" stroke="white" stroke-width="1.5" pointer-events="none"/>
  </g>
  <g id="zoomMin">
    <use xlink:href="#rim" fill="#404040"><set attributeName="fill" to="#808080" begin="zoomminus.mouseover" end="zoomminus.mouseout"/></use>
    <path d="M-4,0h8" fill="none" stroke="white" stroke-width="1.5" pointer-events="none"/>
  </g>
  <g id="arrowUp" transform="translate(30 24)">
    <use xlink:href="#rim"/>
    <path pointer-events="none" fill="none" stroke="white" stroke-width="1.5" d="M0,-3.0v7 M-2.5,-0.5L0,-3.0L2.5,-0.5"/>
  </g>
  <g id="arrowRight" transform="rotate(90) translate(36 -43)">
    <use xlink:href="#rim"/>
    <path pointer-events="none" fill="none" stroke="white" stroke-width="1.5" d="M0,-3.0v7 M-2.5,-0.5L0,-3.0L2.5,-0.5"/>
  </g>
  <g id="arrowDown" transform="rotate(180) translate(-30 -48)">
    <use xlink:href="#rim"/>
    <path pointer-events="none" fill="none" stroke="white" stroke-width="1.5" d="M0,-3.0v7 M-2.5,-0.5L0,-3.0L2.5,-0.5"/>
  </g>
  <g id="arrowLeft" transform="rotate(270) translate(-36 17)">
    <use xlink:href="#rim"/>
    <path pointer-events="none" fill="none" stroke="white" stroke-width="1.5" d="M0,-3.0v7 M-2.5,-0.5L0,-3.0L2.5,-0.5"/>
  </g>
  <g id="resetDef">
    <use xlink:href="#rim2" fill="#404040"><set attributeName="fill" to="#808080" begin="reset.mouseover" end="reset.mouseout"/></use>
  </g>
</defs>
<script type="application/ecmascript">
var viewWidth = 2067;
var viewHeight = 713;
var sectionId = 'dynsection-1';
</script>
<script type="application/ecmascript" xlink:href="svg.min.js"/>
<svg id="graph" class="graph">
<g id="viewport">
<title>com.runehive.util.Words.belowBillion</title>
<!-- Node1 -->
<g id="Node000001" class="node">
<title>Node1</title>
<g id="a_Node000001"><a xlink:title=" ">
<ellipse fill="#999999" stroke="#666666" cx="126.93" cy="-292.77" rx="126.93" ry="25.81"/>
<text xml:space="preserve" text-anchor="start" x="45.18" y="-295.62" font-family="Helvetica,sans-Serif" font-size="12.00">com.runehive.util.Words.below</text>
<text xml:space="preserve" text-anchor="middle" x="126.93" y="-281.37" font-family="Helvetica,sans-Serif" font-size="12.00">Billion</text>
</a>
</g>
</g>
<!-- Node2 -->
<g id="Node000002" class="node">
<title>Node2</title>
<g id="a_Node000002"><a xlink:href="classcom_1_1runehive_1_1util_1_1_words.html#aba2a15abe92705c01ec1a31b17e11a6a" target="_top" xlink:title=" ">
<ellipse fill="white" stroke="#666666" cx="416.78" cy="-346.77" rx="126.93" ry="25.81"/>
<text xml:space="preserve" text-anchor="start" x="335.03" y="-349.62" font-family="Helvetica,sans-Serif" font-size="12.00">com.runehive.util.Words.below</text>
<text xml:space="preserve" text-anchor="middle" x="416.78" y="-335.37" font-family="Helvetica,sans-Serif" font-size="12.00">Crore</text>
</a>
</g>
</g>
<!-- Node1&#45;&gt;Node2 -->
<g id="edge1_Node000001_Node000002" class="edge">
<title>Node1&#45;&gt;Node2</title>
<g id="a_edge1_Node000001_Node000002"><a xlink:title=" ">
<path fill="none" stroke="#63b8ff" d="M221.38,-310.3C250.06,-315.68 281.8,-321.64 311.17,-327.15"/>
<polygon fill="#63b8ff" stroke="#63b8ff" points="310.34,-330.55 320.81,-328.96 311.63,-323.67 310.34,-330.55"/>
</a>
</g>
</g>
<!-- Node3 -->
<g id="Node000003" class="node">
<title>Node3</title>
<g id="a_Node000003"><a xlink:href="classcom_1_1runehive_1_1util_1_1_words.html#a84a1e98de15e3c5aab8e74da0340b7ad" target="_top" xlink:title=" ">
<ellipse fill="white" stroke="#666666" cx="1324.51" cy="-346.77" rx="126.93" ry="25.81"/>
<text xml:space="preserve" text-anchor="start" x="1242.76" y="-349.62" font-family="Helvetica,sans-Serif" font-size="12.00">com.runehive.util.Words.below</text>
<text xml:space="preserve" text-anchor="middle" x="1324.51" y="-335.37" font-family="Helvetica,sans-Serif" font-size="12.00">Hundred</text>
</a>
</g>
</g>
<!-- Node1&#45;&gt;Node3 -->
<g id="edge27_Node000001_Node000003" class="edge">
<title>Node1&#45;&gt;Node3</title>
<g id="a_edge27_Node000001_Node000003"><a xlink:title=" ">
<path fill="none" stroke="#63b8ff" d="M183.26,-269.2C342.4,-205.07 812.19,-41.63 1161.59,-185.77 1222.91,-211.07 1273.24,-272.07 1300.76,-311.31"/>
<polygon fill="#63b8ff" stroke="#63b8ff" points="1297.86,-313.26 1306.4,-319.53 1303.63,-309.3 1297.86,-313.26"/>
</a>
</g>
</g>
<!-- Node4 -->
<g id="Node000004" class="node">
<title>Node4</title>
<g id="a_Node000004"><a xlink:href="classcom_1_1runehive_1_1util_1_1_words.html#a1309dd11619f70ec92b9b5786f611563" target="_top" xlink:title=" ">
<ellipse fill="white" stroke="#666666" cx="1918.01" cy="-438.77" rx="140.71" ry="15.73"/>
<text xml:space="preserve" text-anchor="middle" x="1918.01" y="-434.5" font-family="Helvetica,sans-Serif" font-size="12.00">com.runehive.util.Words.belowTen</text>
</a>
</g>
</g>
<!-- Node1&#45;&gt;Node4 -->
<g id="edge29_Node000001_Node000004" class="edge">
<title>Node1&#45;&gt;Node4</title>
<g id="a_edge29_Node000001_Node000004"><a xlink:title=" ">
<path fill="none" stroke="#63b8ff" d="M136.91,-318.91C156.45,-372.04 207.75,-493.41 289.85,-561.77 446.03,-691.81 520.96,-704.77 724.19,-704.77 724.19,-704.77 724.19,-704.77 1325.51,-704.77 1513.61,-704.77 1576.42,-716.3 1741.29,-625.77 1813.83,-585.94 1873.62,-505.46 1900.96,-464.29"/>
<polygon fill="#63b8ff" stroke="#63b8ff" points="1903.85,-466.27 1906.38,-455.98 1897.98,-462.45 1903.85,-466.27"/>
</a>
</g>
</g>
<!-- Node5 -->
<g id="Node000005" class="node">
<title>Node5</title>
<g id="a_Node000005"><a xlink:href="classcom_1_1runehive_1_1util_1_1_words.html#a347cf48e334f0d1f75a48ece0e5c6c6c" target="_top" xlink:title=" ">
<ellipse fill="white" stroke="#666666" cx="1614.37" cy="-219.77" rx="126.93" ry="25.81"/>
<text xml:space="preserve" text-anchor="start" x="1532.62" y="-222.62" font-family="Helvetica,sans-Serif" font-size="12.00">com.runehive.util.Words.below</text>
<text xml:space="preserve" text-anchor="middle" x="1614.37" y="-208.37" font-family="Helvetica,sans-Serif" font-size="12.00">Twenty</text>
</a>
</g>
</g>
<!-- Node1&#45;&gt;Node5 -->
<g id="edge31_Node000001_Node000005" class="edge">
<title>Node1&#45;&gt;Node5</title>
<g id="a_edge31_Node000001_Node000005"><a xlink:title=" ">
<path fill="none" stroke="#63b8ff" d="M137.49,-266.56C157.26,-216.55 207.77,-108.23 289.85,-59.77 456.97,38.9 530.12,-14.77 724.19,-14.77 724.19,-14.77 724.19,-14.77 1035.13,-14.77 1221.1,-14.77 1283.56,23.21 1451.44,-56.77 1511.53,-85.4 1562.08,-145.96 1590,-184.66"/>
<polygon fill="#63b8ff" stroke="#63b8ff" points="1587.09,-186.62 1595.72,-192.76 1592.81,-182.57 1587.09,-186.62"/>
</a>
</g>
</g>
<!-- Node6 -->
<g id="Node000006" class="node">
<title>Node6</title>
<g id="a_Node000006"><a xlink:href="classcom_1_1runehive_1_1util_1_1_words.html#ad42f18e17bbb5a0080e1b998b4990bcd" target="_top" xlink:title=" ">
<ellipse fill="white" stroke="#666666" cx="1614.37" cy="-292.77" rx="115.26" ry="25.81"/>
<text xml:space="preserve" text-anchor="start" x="1540.87" y="-295.62" font-family="Helvetica,sans-Serif" font-size="12.00">com.runehive.util.Words.left</text>
<text xml:space="preserve" text-anchor="middle" x="1614.37" y="-281.37" font-family="Helvetica,sans-Serif" font-size="12.00">Chars</text>
</a>
</g>
</g>
<!-- Node1&#45;&gt;Node6 -->
<g id="edge32_Node000001_Node000006" class="edge">
<title>Node1&#45;&gt;Node6</title>
<g id="a_edge32_Node000001_Node000006"><a xlink:title=" ">
<path fill="none" stroke="#63b8ff" d="M151.08,-267.09C180.37,-236.21 233.79,-185.02 289.85,-156.77 467.11,-67.44 525.69,-52.77 724.19,-52.77 724.19,-52.77 724.19,-52.77 1035.13,-52.77 1229.64,-52.77 1302.13,-63.11 1451.44,-187.77 1477.39,-209.44 1461.27,-233.37 1487.44,-254.77 1495.71,-261.53 1505.15,-267.09 1515.08,-271.66"/>
<polygon fill="#63b8ff" stroke="#63b8ff" points="1513.59,-274.83 1524.16,-275.48 1516.3,-268.38 1513.59,-274.83"/>
</a>
</g>
</g>
<!-- Node7 -->
<g id="Node000007" class="node">
<title>Node7</title>
<g id="a_Node000007"><a xlink:href="classcom_1_1runehive_1_1util_1_1_words.html#a5847b6b26229e16a4714f146bc67eaf7" target="_top" xlink:title=" ">
<ellipse fill="white" stroke="#666666" cx="1614.37" cy="-552.77" rx="120.56" ry="25.81"/>
<text xml:space="preserve" text-anchor="start" x="1537.12" y="-555.62" font-family="Helvetica,sans-Serif" font-size="12.00">com.runehive.util.Words.right</text>
<text xml:space="preserve" text-anchor="middle" x="1614.37" y="-541.37" font-family="Helvetica,sans-Serif" font-size="12.00">Chars</text>
</a>
</g>
</g>
<!-- Node1&#45;&gt;Node7 -->
<g id="edge34_Node000001_Node000007" class="edge">
<title>Node1&#45;&gt;Node7</title>
<g id="a_edge34_Node000001_Node000007"><a xlink:title=" ">
<path fill="none" stroke="#63b8ff" d="M148.69,-318.48C219.47,-402.98 461.47,-666.77 724.19,-666.77 724.19,-666.77 724.19,-666.77 1035.13,-666.77 1217.4,-666.77 1425.98,-611.58 1536.01,-578"/>
<polygon fill="#63b8ff" stroke="#63b8ff" points="1537.01,-581.35 1545.54,-575.06 1534.96,-574.66 1537.01,-581.35"/>
</a>
</g>
</g>
<!-- Node8 -->
<g id="Node000008" class="node">
<title>Node8</title>
<g id="a_Node000008"><a xlink:href="classcom_1_1runehive_1_1util_1_1_words.html#a50bec4f34b6e468a3cdca44ac0d64cb8" target="_top" xlink:title=" ">
<ellipse fill="white" stroke="#666666" cx="725.19" cy="-324.77" rx="145.49" ry="15.73"/>
<text xml:space="preserve" text-anchor="middle" x="725.19" y="-320.5" font-family="Helvetica,sans-Serif" font-size="12.00">com.runehive.util.Words.belowLakh</text>
</a>
</g>
</g>
<!-- Node1&#45;&gt;Node8 -->
<g id="edge28_Node000001_Node000008" class="edge">
<title>Node1&#45;&gt;Node8</title>
<g id="a_edge28_Node000001_Node000008"><a xlink:title=" ">
<path fill="none" stroke="#63b8ff" d="M252.14,-297.6C334.8,-301.02 445.78,-306.01 543.7,-311.77 559.63,-312.71 576.34,-313.79 592.89,-314.91"/>
<polygon fill="#63b8ff" stroke="#63b8ff" points="592.59,-318.4 602.81,-315.59 593.07,-311.41 592.59,-318.4"/>
</a>
</g>
</g>
<!-- Node9 -->
<g id="Node000009" class="node">
<title>Node9</title>
<g id="a_Node000009"><a xlink:href="classcom_1_1runehive_1_1util_1_1_words.html#a459619503d35cca2b5edb7ebb97824d0" target="_top" xlink:title=" ">
<ellipse fill="white" stroke="#666666" cx="1034.13" cy="-460.77" rx="126.93" ry="25.81"/>
<text xml:space="preserve" text-anchor="start" x="952.38" y="-463.62" font-family="Helvetica,sans-Serif" font-size="12.00">com.runehive.util.Words.below</text>
<text xml:space="preserve" text-anchor="middle" x="1034.13" y="-449.37" font-family="Helvetica,sans-Serif" font-size="12.00">Thousand</text>
</a>
</g>
</g>
<!-- Node1&#45;&gt;Node9 -->
<g id="edge30_Node000001_Node000009" class="edge">
<title>Node1&#45;&gt;Node9</title>
<g id="a_edge30_Node000001_Node000009"><a xlink:title=" ">
<path fill="none" stroke="#63b8ff" d="M164.09,-317.72C195.8,-338.31 243.87,-366.54 289.85,-381.77 493.56,-449.24 744.23,-462.51 896.19,-463.45"/>
<polygon fill="#63b8ff" stroke="#63b8ff" points="895.89,-466.95 905.9,-463.49 895.92,-459.95 895.89,-466.95"/>
</a>
</g>
</g>
<!-- Node10 -->
<g id="Node000010" class="node">
<title>Node10</title>
<g id="a_Node000010"><a xlink:href="classcom_1_1runehive_1_1util_1_1_words.html#a85883c6f616f6e1521a3a7a32a103ef3" target="_top" xlink:title=" ">
<ellipse fill="white" stroke="#666666" cx="1034.13" cy="-210.77" rx="127.46" ry="15.73"/>
<text xml:space="preserve" text-anchor="middle" x="1034.13" y="-206.5" font-family="Helvetica,sans-Serif" font-size="12.00">com.runehive.util.Words.length</text>
</a>
</g>
</g>
<!-- Node1&#45;&gt;Node10 -->
<g id="edge33_Node000001_Node000010" class="edge">
<title>Node1&#45;&gt;Node10</title>
<g id="a_edge33_Node000001_Node000010"><a xlink:title=" ">
<path fill="none" stroke="#63b8ff" d="M243.49,-282.3C417.48,-266.54 744.78,-236.89 918.33,-221.17"/>
<polygon fill="#63b8ff" stroke="#63b8ff" points="918.64,-224.66 928.28,-220.27 918,-217.69 918.64,-224.66"/>
</a>
</g>
</g>
<!-- Node2&#45;&gt;Node3 -->
<g id="edge2_Node000002_Node000003" class="edge">
<title>Node2&#45;&gt;Node3</title>
<g id="a_edge2_Node000002_Node000003"><a xlink:title=" ">
<path fill="none" stroke="#63b8ff" d="M543.3,-349.33C555.6,-349.51 567.89,-349.66 579.7,-349.77 838.31,-352.17 902.98,-352.17 1161.59,-349.77 1169.8,-349.7 1178.24,-349.6 1186.76,-349.49"/>
<polygon fill="#63b8ff" stroke="#63b8ff" points="1186.53,-352.99 1196.48,-349.35 1186.43,-345.99 1186.53,-352.99"/>
</a>
</g>
</g>
<!-- Node2&#45;&gt;Node4 -->
<g id="edge21_Node000002_Node000004" class="edge">
<title>Node2&#45;&gt;Node4</title>
<g id="a_edge21_Node000002_Node000004"><a xlink:title=" ">
<path fill="none" stroke="#63b8ff" d="M439.85,-372.53C468.85,-404.82 522.79,-459.8 579.7,-491.77 763.24,-594.89 822.61,-628.77 1033.13,-628.77 1033.13,-628.77 1033.13,-628.77 1325.51,-628.77 1511.2,-628.77 1570.32,-660.22 1741.29,-587.77 1807.55,-559.7 1867.47,-497.49 1897.23,-462.99"/>
<polygon fill="#63b8ff" stroke="#63b8ff" points="1899.69,-465.5 1903.49,-455.6 1894.35,-460.97 1899.69,-465.5"/>
</a>
</g>
</g>
<!-- Node2&#45;&gt;Node5 -->
<g id="edge23_Node000002_Node000005" class="edge">
<title>Node2&#45;&gt;Node5</title>
<g id="a_edge23_Node000002_Node000005"><a xlink:title=" ">
<path fill="none" stroke="#63b8ff" d="M434.39,-320.8C460.22,-283.06 513.93,-214.45 579.7,-185.77 908.38,-42.48 1353.25,-143.43 1533.05,-194.77"/>
<polygon fill="#63b8ff" stroke="#63b8ff" points="1531.96,-198.09 1542.54,-197.5 1533.9,-191.37 1531.96,-198.09"/>
</a>
</g>
</g>
<!-- Node2&#45;&gt;Node6 -->
<g id="edge24_Node000002_Node000006" class="edge">
<title>Node2&#45;&gt;Node6</title>
<g id="a_edge24_Node000002_Node000006"><a xlink:title=" ">
<path fill="none" stroke="#63b8ff" d="M455.17,-321.81C487.05,-301.58 534.71,-273.74 579.7,-256.77 718.85,-204.31 758.82,-201.64 906.68,-185.77 1019.32,-173.68 1049.06,-172.63 1161.59,-185.77 1231.73,-193.97 1417.53,-241.08 1527.78,-269.99"/>
<polygon fill="#63b8ff" stroke="#63b8ff" points="1526.84,-273.36 1537.4,-272.51 1528.62,-266.59 1526.84,-273.36"/>
</a>
</g>
</g>
<!-- Node2&#45;&gt;Node7 -->
<g id="edge26_Node000002_Node000007" class="edge">
<title>Node2&#45;&gt;Node7</title>
<g id="a_edge26_Node000002_Node000007"><a xlink:title=" ">
<path fill="none" stroke="#63b8ff" d="M466.93,-370.78C498.8,-386.03 541.37,-405.83 579.7,-421.77 722.78,-481.27 756,-506.63 906.68,-542.77 1033.26,-573.13 1067.64,-569.2 1197.59,-576.77 1310.22,-583.33 1338.92,-585.07 1451.44,-576.77 1469.83,-575.42 1489.31,-573.21 1508.13,-570.66"/>
<polygon fill="#63b8ff" stroke="#63b8ff" points="1508.52,-574.14 1517.94,-569.29 1507.55,-567.21 1508.52,-574.14"/>
</a>
</g>
</g>
<!-- Node2&#45;&gt;Node8 -->
<g id="edge8_Node000002_Node000008" class="edge">
<title>Node2&#45;&gt;Node8</title>
<g id="a_edge8_Node000002_Node000008"><a xlink:title=" ">
<path fill="none" stroke="#63b8ff" d="M537.12,-338.2C554.78,-336.94 573.07,-335.62 590.99,-334.34"/>
<polygon fill="#63b8ff" stroke="#63b8ff" points="591.16,-337.83 600.88,-333.63 590.66,-330.85 591.16,-337.83"/>
</a>
</g>
</g>
<!-- Node2&#45;&gt;Node9 -->
<g id="edge22_Node000002_Node000009" class="edge">
<title>Node2&#45;&gt;Node9</title>
<g id="a_edge22_Node000002_Node000009"><a xlink:title=" ">
<path fill="none" stroke="#63b8ff" d="M501.66,-366.23C526.71,-371.82 554.27,-377.76 579.7,-382.77 695.94,-405.68 829.68,-428.22 921.64,-443.14"/>
<polygon fill="#63b8ff" stroke="#63b8ff" points="920.99,-446.58 931.43,-444.72 922.11,-439.67 920.99,-446.58"/>
</a>
</g>
</g>
<!-- Node2&#45;&gt;Node10 -->
<g id="edge25_Node000002_Node000010" class="edge">
<title>Node2&#45;&gt;Node10</title>
<g id="a_edge25_Node000002_Node000010"><a xlink:title=" ">
<path fill="none" stroke="#63b8ff" d="M485.8,-324.8C514.54,-316.1 548.53,-306.57 579.7,-299.77 707.43,-271.93 745.13,-293.21 870.68,-256.77 887.49,-251.89 890.09,-246.37 906.68,-240.77 921.88,-235.64 938.39,-231.05 954.31,-227.09"/>
<polygon fill="#63b8ff" stroke="#63b8ff" points="954.84,-230.56 963.74,-224.8 953.2,-223.75 954.84,-230.56"/>
</a>
</g>
</g>
<!-- Node3&#45;&gt;Node4 -->
<g id="edge3_Node000003_Node000004" class="edge">
<title>Node3&#45;&gt;Node4</title>
<g id="a_edge3_Node000003_Node000004"><a xlink:title=" ">
<path fill="none" stroke="#63b8ff" d="M1448.75,-352.42C1531.96,-357.75 1643.94,-367.87 1741.29,-386.77 1782.72,-394.82 1828.39,-408.49 1862.78,-419.79"/>
<polygon fill="#63b8ff" stroke="#63b8ff" points="1861.51,-423.05 1872.1,-422.89 1863.72,-416.41 1861.51,-423.05"/>
</a>
</g>
</g>
<!-- Node3&#45;&gt;Node5 -->
<g id="edge4_Node000003_Node000005" class="edge">
<title>Node3&#45;&gt;Node5</title>
<g id="a_edge4_Node000003_Node000005"><a xlink:title=" ">
<path fill="none" stroke="#63b8ff" d="M1365.27,-321.85C1397.35,-302.49 1444.12,-275.98 1487.44,-257.77 1499.45,-252.73 1512.35,-248.04 1525.16,-243.81"/>
<polygon fill="#63b8ff" stroke="#63b8ff" points="1525.99,-247.22 1534.44,-240.83 1523.85,-240.56 1525.99,-247.22"/>
</a>
</g>
</g>
<!-- Node3&#45;&gt;Node6 -->
<g id="edge6_Node000003_Node000006" class="edge">
<title>Node3&#45;&gt;Node6</title>
<g id="a_edge6_Node000003_Node000006"><a xlink:title=" ">
<path fill="none" stroke="#63b8ff" d="M1418.97,-329.24C1449.24,-323.56 1482.91,-317.25 1513.61,-311.49"/>
<polygon fill="#63b8ff" stroke="#63b8ff" points="1514.11,-314.95 1523.29,-309.67 1512.82,-308.07 1514.11,-314.95"/>
</a>
</g>
</g>
<!-- Node3&#45;&gt;Node7 -->
<g id="edge7_Node000003_Node000007" class="edge">
<title>Node3&#45;&gt;Node7</title>
<g id="a_edge7_Node000003_Node000007"><a xlink:title=" ">
<path fill="none" stroke="#63b8ff" d="M1360.52,-371.83C1413.04,-409.41 1512.14,-480.33 1569.44,-521.33"/>
<polygon fill="#63b8ff" stroke="#63b8ff" points="1567.2,-524.04 1577.37,-527.01 1571.27,-518.35 1567.2,-524.04"/>
</a>
</g>
</g>
<!-- Node5&#45;&gt;Node4 -->
<g id="edge5_Node000005_Node000004" class="edge">
<title>Node5&#45;&gt;Node4</title>
<g id="a_edge5_Node000005_Node000004"><a xlink:title=" ">
<path fill="none" stroke="#63b8ff" d="M1700.55,-239.01C1714.69,-244 1728.81,-250.18 1741.29,-257.77 1810.1,-299.64 1870.73,-374.77 1899.42,-413.76"/>
<polygon fill="#63b8ff" stroke="#63b8ff" points="1896.42,-415.58 1905.13,-421.63 1902.09,-411.48 1896.42,-415.58"/>
</a>
</g>
</g>
<!-- Node8&#45;&gt;Node3 -->
<g id="edge9_Node000008_Node000003" class="edge">
<title>Node8&#45;&gt;Node3</title>
<g id="a_edge9_Node000008_Node000003"><a xlink:title=" ">
<path fill="none" stroke="#63b8ff" d="M863.6,-329.83C960.94,-333.42 1090.92,-338.21 1187.86,-341.78"/>
<polygon fill="#63b8ff" stroke="#63b8ff" points="1187.58,-345.27 1197.7,-342.14 1187.84,-338.27 1187.58,-345.27"/>
</a>
</g>
</g>
<!-- Node8&#45;&gt;Node4 -->
<g id="edge10_Node000008_Node000004" class="edge">
<title>Node8&#45;&gt;Node4</title>
<g id="a_edge10_Node000008_Node000004"><a xlink:title=" ">
<path fill="none" stroke="#63b8ff" d="M814.71,-337.54C843.97,-341.62 876.7,-346.05 906.68,-349.77 1035.76,-365.81 1068.09,-369.52 1197.59,-381.77 1403.04,-401.21 1641.92,-419.23 1786.17,-429.61"/>
<polygon fill="#63b8ff" stroke="#63b8ff" points="1785.52,-433.07 1795.74,-430.3 1786.02,-426.09 1785.52,-433.07"/>
</a>
</g>
</g>
<!-- Node8&#45;&gt;Node5 -->
<g id="edge17_Node000008_Node000005" class="edge">
<title>Node8&#45;&gt;Node5</title>
<g id="a_edge17_Node000008_Node000005"><a xlink:title=" ">
<path fill="none" stroke="#63b8ff" d="M791.81,-310.43C901.96,-286.58 1119.67,-240.52 1197.59,-231.77 1290.12,-221.38 1394.91,-218.41 1476.14,-218.03"/>
<polygon fill="#63b8ff" stroke="#63b8ff" points="1475.94,-221.53 1485.93,-218 1475.92,-214.53 1475.94,-221.53"/>
</a>
</g>
</g>
<!-- Node8&#45;&gt;Node6 -->
<g id="edge18_Node000008_Node000006" class="edge">
<title>Node8&#45;&gt;Node6</title>
<g id="a_edge18_Node000008_Node000006"><a xlink:title=" ">
<path fill="none" stroke="#63b8ff" d="M863.84,-319.81C1034.88,-313.64 1324.23,-303.2 1488.91,-297.26"/>
<polygon fill="#63b8ff" stroke="#63b8ff" points="1488.68,-300.77 1498.55,-296.91 1488.43,-293.78 1488.68,-300.77"/>
</a>
</g>
</g>
<!-- Node8&#45;&gt;Node7 -->
<g id="edge20_Node000008_Node000007" class="edge">
<title>Node8&#45;&gt;Node7</title>
<g id="a_edge20_Node000008_Node000007"><a xlink:title=" ">
<path fill="none" stroke="#63b8ff" d="M737.23,-340.87C762.47,-376.18 828.3,-460.09 906.68,-495.77 1099.66,-583.62 1352.91,-579.05 1497.94,-566.66"/>
<polygon fill="#63b8ff" stroke="#63b8ff" points="1497.89,-570.18 1507.54,-565.81 1497.27,-563.21 1497.89,-570.18"/>
</a>
</g>
</g>
<!-- Node8&#45;&gt;Node9 -->
<g id="edge11_Node000008_Node000009" class="edge">
<title>Node8&#45;&gt;Node9</title>
<g id="a_edge11_Node000008_Node000009"><a xlink:title=" ">
<path fill="none" stroke="#63b8ff" d="M760.69,-340.47C790.37,-354.32 834.06,-375.56 870.68,-396.77 887.32,-406.41 889.34,-412.46 906.68,-420.77 918.88,-426.63 932.15,-431.9 945.35,-436.55"/>
<polygon fill="#63b8ff" stroke="#63b8ff" points="943.87,-439.75 954.47,-439.66 946.13,-433.12 943.87,-439.75"/>
</a>
</g>
</g>
<!-- Node8&#45;&gt;Node10 -->
<g id="edge19_Node000008_Node000010" class="edge">
<title>Node8&#45;&gt;Node10</title>
<g id="a_edge19_Node000008_Node000010"><a xlink:title=" ">
<path fill="none" stroke="#63b8ff" d="M830.06,-313.5C844.45,-309.07 858.47,-303.01 870.68,-294.77 894.58,-278.63 883,-257.25 906.68,-240.77 915.34,-234.75 925.05,-229.92 935.15,-226.06"/>
<polygon fill="#63b8ff" stroke="#63b8ff" points="936.05,-229.45 944.35,-222.87 933.75,-222.84 936.05,-229.45"/>
</a>
</g>
</g>
<!-- Node9&#45;&gt;Node3 -->
<g id="edge12_Node000009_Node000003" class="edge">
<title>Node9&#45;&gt;Node3</title>
<g id="a_edge12_Node000009_Node000003"><a xlink:title=" ">
<path fill="none" stroke="#63b8ff" d="M1093.84,-437.57C1140.33,-419.19 1205.37,-393.48 1254.38,-374.1"/>
<polygon fill="#63b8ff" stroke="#63b8ff" points="1255.47,-377.43 1263.48,-370.5 1252.9,-370.92 1255.47,-377.43"/>
</a>
</g>
</g>
<!-- Node9&#45;&gt;Node4 -->
<g id="edge13_Node000009_Node000004" class="edge">
<title>Node9&#45;&gt;Node4</title>
<g id="a_edge13_Node000009_Node000004"><a xlink:title=" ">
<path fill="none" stroke="#63b8ff" d="M1160.55,-457.64C1320.88,-453.64 1598.1,-446.73 1768.73,-442.47"/>
<polygon fill="#63b8ff" stroke="#63b8ff" points="1768.64,-445.97 1778.55,-442.23 1768.47,-438.98 1768.64,-445.97"/>
</a>
</g>
</g>
<!-- Node9&#45;&gt;Node5 -->
<g id="edge14_Node000009_Node000005" class="edge">
<title>Node9&#45;&gt;Node5</title>
<g id="a_edge14_Node000009_Node000005"><a xlink:title=" ">
<path fill="none" stroke="#63b8ff" d="M1055.55,-435.04C1083.77,-401.3 1138.01,-342.79 1197.59,-311.77 1287.02,-265.22 1399.16,-242.15 1484.44,-230.77"/>
<polygon fill="#63b8ff" stroke="#63b8ff" points="1484.79,-234.25 1494.25,-229.5 1483.89,-227.31 1484.79,-234.25"/>
</a>
</g>
</g>
<!-- Node9&#45;&gt;Node6 -->
<g id="edge15_Node000009_Node000006" class="edge">
<title>Node9&#45;&gt;Node6</title>
<g id="a_edge15_Node000009_Node000006"><a xlink:title=" ">
<path fill="none" stroke="#63b8ff" d="M1148.11,-449.1C1233.32,-437.98 1352.1,-417.48 1451.44,-381.77 1492.48,-367.02 1535.59,-342.84 1567,-323.41"/>
<polygon fill="#63b8ff" stroke="#63b8ff" points="1568.46,-326.62 1575.08,-318.35 1564.75,-320.69 1568.46,-326.62"/>
</a>
</g>
</g>
<!-- Node9&#45;&gt;Node7 -->
<g id="edge16_Node000009_Node000007" class="edge">
<title>Node9&#45;&gt;Node7</title>
<g id="a_edge16_Node000009_Node000007"><a xlink:title=" ">
<path fill="none" stroke="#63b8ff" d="M1127.82,-478.46C1150.61,-482.65 1174.96,-487 1197.59,-490.77 1300.14,-507.88 1417.3,-525.15 1501.06,-537.1"/>
<polygon fill="#63b8ff" stroke="#63b8ff" points="1500.5,-540.55 1510.89,-538.5 1501.49,-533.62 1500.5,-540.55"/>
</a>
</g>
</g>
</g>
</svg>

<g id="navigator" transform="translate(0 0)" fill="#404254">
  <rect fill="#f2f5e9" fill-opacity="0.5" stroke="#606060" stroke-width=".5" x="0" y="0" width="60" height="60"/>
  <use id="zoomplus" xlink:href="#zoomPlus" x="17" y="9" onmousedown="handleZoom(evt,'in')"/>
  <use id="zoomminus" xlink:href="#zoomMin" x="42" y="9" onmousedown="handleZoom(evt,'out')"/>
  <use id="reset" xlink:href="#resetDef" x="30" y="36" onmousedown="handleReset()"/>
   <use id="arrowup" xlink:href="#arrowUp" x="0" y="0" onmousedown="handlePan(0,-1)"/>
  <use id="arrowright" xlink:href="#arrowRight" x="0" y="0" onmousedown="handlePan(1,0)"/>
  <use id="arrowdown" xlink:href="#arrowDown" x="0" y="0" onmousedown="handlePan(0,1)"/>
  <use id="arrowleft" xlink:href="#arrowLeft" x="0" y="0" onmousedown="handlePan(-1,0)"/>
</g>
<svg viewBox="0 0 15 15" width="100%" height="30px" preserveAspectRatio="xMaxYMin meet">
 <g id="arrow_out" transform="scale(0.3 0.3)">
  <a xlink:href="classcom_1_1runehive_1_1util_1_1_words_a758fd15a98c5f06866dc4aec6431644d_cgraph_org.svg" target="_base">
   <rect id="button" ry="5" rx="5" y="6" x="6" height="38" width="38"
        fill="#f2f5e9" fill-opacity="0.5" stroke="#606060" stroke-width="1.0"/>
   <path id="arrow"
     d="M 11.500037,31.436501 C 11.940474,20.09759 22.043105,11.32322 32.158766,21.979434 L 37.068811,17.246167 C 37.068811,17.246167 37.088388,32 37.088388,32 L 22.160133,31.978069 C 22.160133,31.978069 26.997745,27.140456 26.997745,27.140456 C 18.528582,18.264221 13.291696,25.230495 11.500037,31.436501 z"
     style="fill:#404040;"/>
  </a>
 </g>
</svg>

<style type='text/css'>
<![CDATA[
[data-mouse-over-selected='false'] { opacity: 0.7; }
[data-mouse-over-selected='true']  { opacity: 1.0; }
]]>
</style>
<script type="application/ecmascript"><![CDATA[
document.addEventListener('DOMContentLoaded', (event) => {
  highlightEdges();
  highlightAdjacentNodes();
});
]]></script>
</svg>
