<?xml version="1.0" encoding="UTF-8" standalone="no"?>
<!DOCTYPE svg PUBLIC "-//W3C//DTD SVG 1.1//EN"
 "http://www.w3.org/Graphics/SVG/1.1/DTD/svg11.dtd">
<!-- Generated by graphviz version 14.0.1 (20251006.0113)
 -->
<!-- Title: com.runehive.game.world.items.containers.equipment.Equipment.onEquip Pages: 1 -->
<svg width="2396pt" height="648pt"
 viewBox="0.00 0.00 2396.00 648.00" xmlns="http://www.w3.org/2000/svg" xmlns:xlink="http://www.w3.org/1999/xlink">
<g id="graph0" class="graph" transform="scale(1 1) rotate(0) translate(4 643.62)">
<title>com.runehive.game.world.items.containers.equipment.Equipment.onEquip</title>
<!-- Node1 -->
<g id="Node000001" class="node">
<title>Node1</title>
<g id="a_Node000001"><a xlink:title=" ">
<ellipse fill="#999999" stroke="#666666" cx="216.02" cy="-311.81" rx="216.02" ry="25.81"/>
<text xml:space="preserve" text-anchor="start" x="71.27" y="-314.66" font-family="Helvetica,sans-Serif" font-size="12.00">com.runehive.game.world.items.containers.equipment.</text>
<text xml:space="preserve" text-anchor="middle" x="216.02" y="-300.41" font-family="Helvetica,sans-Serif" font-size="12.00">Equipment.onEquip</text>
</a>
</g>
</g>
<!-- Node2 -->
<g id="Node000002" class="node">
<title>Node2</title>
<g id="a_Node000002"><a xlink:href="classcom_1_1runehive_1_1game_1_1world_1_1items_1_1containers_1_1equipment_1_1_equipment.html#a0e2a2a5d8b6d0a9da8174f89f9e9416a" target="_top" xlink:title=" ">
<ellipse fill="white" stroke="#666666" cx="684.06" cy="-611.81" rx="216.02" ry="25.81"/>
<text xml:space="preserve" text-anchor="start" x="539.31" y="-614.66" font-family="Helvetica,sans-Serif" font-size="12.00">com.runehive.game.world.items.containers.equipment.</text>
<text xml:space="preserve" text-anchor="middle" x="684.06" y="-600.41" font-family="Helvetica,sans-Serif" font-size="12.00">Equipment.addBonus</text>
</a>
</g>
</g>
<!-- Node1&#45;&gt;Node2 -->
<g id="edge1_Node000001_Node000002" class="edge">
<title>Node1&#45;&gt;Node2</title>
<g id="a_edge1_Node000001_Node000002"><a xlink:title=" ">
<path fill="none" stroke="#63b8ff" d="M233.03,-337.83C268.08,-392.32 357.43,-518.25 468.04,-576.81 479.47,-582.86 491.67,-587.92 504.25,-592.14"/>
<polygon fill="#63b8ff" stroke="#63b8ff" points="502.86,-595.37 513.45,-595.04 504.96,-588.69 502.86,-595.37"/>
</a>
</g>
</g>
<!-- Node8 -->
<g id="Node000008" class="node">
<title>Node8</title>
<g id="a_Node000008"><a xlink:href="classcom_1_1runehive_1_1game_1_1world_1_1items_1_1containers_1_1equipment_1_1_equipment.html#a04929f978aa4b3de9b9ce3a290c93401" target="_top" xlink:title=" ">
<ellipse fill="white" stroke="#666666" cx="684.06" cy="-165.81" rx="216.02" ry="25.81"/>
<text xml:space="preserve" text-anchor="start" x="539.31" y="-168.66" font-family="Helvetica,sans-Serif" font-size="12.00">com.runehive.game.world.items.containers.equipment.</text>
<text xml:space="preserve" text-anchor="middle" x="684.06" y="-154.41" font-family="Helvetica,sans-Serif" font-size="12.00">Equipment.contains</text>
</a>
</g>
</g>
<!-- Node1&#45;&gt;Node8 -->
<g id="edge8_Node000001_Node000008" class="edge">
<title>Node1&#45;&gt;Node8</title>
<g id="a_edge8_Node000001_Node000008"><a xlink:title=" ">
<path fill="none" stroke="#63b8ff" d="M268.22,-286.33C318.11,-262.42 396.68,-227.24 468.04,-205.81 490.18,-199.16 513.94,-193.42 537.3,-188.52"/>
<polygon fill="#63b8ff" stroke="#63b8ff" points="537.79,-191.99 546.88,-186.56 536.39,-185.13 537.79,-191.99"/>
</a>
</g>
</g>
<!-- Node11 -->
<g id="Node000011" class="node">
<title>Node11</title>
<g id="a_Node000011"><a xlink:href="classcom_1_1runehive_1_1game_1_1world_1_1items_1_1_item.html#aef9b0391dc5d7c4366ad624623a00307" target="_top" xlink:title=" ">
<ellipse fill="white" stroke="#666666" cx="684.06" cy="-467.81" rx="132.76" ry="25.81"/>
<text xml:space="preserve" text-anchor="start" x="598.19" y="-470.66" font-family="Helvetica,sans-Serif" font-size="12.00">com.runehive.game.world.items.</text>
<text xml:space="preserve" text-anchor="middle" x="684.06" y="-456.41" font-family="Helvetica,sans-Serif" font-size="12.00">Item.getEquipmentType</text>
</a>
</g>
</g>
<!-- Node1&#45;&gt;Node11 -->
<g id="edge11_Node000001_Node000011" class="edge">
<title>Node1&#45;&gt;Node11</title>
<g id="a_edge11_Node000001_Node000011"><a xlink:title=" ">
<path fill="none" stroke="#63b8ff" d="M268.34,-337.25C318.32,-361.23 396.95,-396.8 468.04,-419.81 502.19,-430.86 540.2,-440.26 574.65,-447.73"/>
<polygon fill="#63b8ff" stroke="#63b8ff" points="573.71,-451.11 584.22,-449.78 575.17,-444.27 573.71,-451.11"/>
</a>
</g>
</g>
<!-- Node12 -->
<g id="Node000012" class="node">
<title>Node12</title>
<g id="a_Node000012"><a xlink:href="classcom_1_1runehive_1_1game_1_1world_1_1items_1_1_item.html#a11c0bc7b6f6aecc64c399d6f7f2638a8" target="_top" xlink:title=" ">
<ellipse fill="white" stroke="#666666" cx="1152.11" cy="-435.81" rx="132.76" ry="25.81"/>
<text xml:space="preserve" text-anchor="start" x="1066.23" y="-438.66" font-family="Helvetica,sans-Serif" font-size="12.00">com.runehive.game.world.items.</text>
<text xml:space="preserve" text-anchor="middle" x="1152.11" y="-424.41" font-family="Helvetica,sans-Serif" font-size="12.00">Item.getRangedDefinition</text>
</a>
</g>
</g>
<!-- Node1&#45;&gt;Node12 -->
<g id="edge13_Node000001_Node000012" class="edge">
<title>Node1&#45;&gt;Node12</title>
<g id="a_edge13_Node000001_Node000012"><a xlink:title=" ">
<path fill="none" stroke="#63b8ff" d="M307.08,-335.63C354.65,-347.44 414.19,-361.02 468.04,-369.81 655.47,-400.38 874.3,-418.47 1012.77,-427.77"/>
<polygon fill="#63b8ff" stroke="#63b8ff" points="1012.54,-431.26 1022.75,-428.43 1013,-424.28 1012.54,-431.26"/>
</a>
</g>
</g>
<!-- Node13 -->
<g id="Node000013" class="node">
<title>Node13</title>
<g id="a_Node000013"><a xlink:href="classcom_1_1runehive_1_1game_1_1world_1_1items_1_1containers_1_1equipment_1_1_equipment.html#aa0dfc3c7a34a4e931df6ad3f05447f2c" target="_top" xlink:title=" ">
<ellipse fill="white" stroke="#666666" cx="1152.11" cy="-365.81" rx="216.02" ry="25.81"/>
<text xml:space="preserve" text-anchor="start" x="1007.36" y="-368.66" font-family="Helvetica,sans-Serif" font-size="12.00">com.runehive.game.world.items.containers.equipment.</text>
<text xml:space="preserve" text-anchor="middle" x="1152.11" y="-354.41" font-family="Helvetica,sans-Serif" font-size="12.00">Equipment.getWeapon</text>
</a>
</g>
</g>
<!-- Node1&#45;&gt;Node13 -->
<g id="edge15_Node000001_Node000013" class="edge">
<title>Node1&#45;&gt;Node13</title>
<g id="a_edge15_Node000001_Node000013"><a xlink:title=" ">
<path fill="none" stroke="#63b8ff" d="M347,-332.72C385.84,-338.22 428.58,-343.52 468.04,-346.81 619.97,-359.48 791.5,-364.21 924.66,-365.79"/>
<polygon fill="#63b8ff" stroke="#63b8ff" points="924.25,-369.29 934.29,-365.9 924.33,-362.29 924.25,-369.29"/>
</a>
</g>
</g>
<!-- Node14 -->
<g id="Node000014" class="node">
<title>Node14</title>
<g id="a_Node000014"><a xlink:href="classcom_1_1runehive_1_1game_1_1world_1_1items_1_1containers_1_1equipment_1_1_equipment.html#ae095891c8d6544ce9cd0b2677f47dd05" target="_top" xlink:title=" ">
<ellipse fill="white" stroke="#666666" cx="1152.11" cy="-225.81" rx="216.02" ry="25.81"/>
<text xml:space="preserve" text-anchor="start" x="1007.36" y="-228.66" font-family="Helvetica,sans-Serif" font-size="12.00">com.runehive.game.world.items.containers.equipment.</text>
<text xml:space="preserve" text-anchor="middle" x="1152.11" y="-214.41" font-family="Helvetica,sans-Serif" font-size="12.00">Equipment.hasWeapon</text>
</a>
</g>
</g>
<!-- Node1&#45;&gt;Node14 -->
<g id="edge16_Node000001_Node000014" class="edge">
<title>Node1&#45;&gt;Node14</title>
<g id="a_edge16_Node000001_Node000014"><a xlink:title=" ">
<path fill="none" stroke="#63b8ff" d="M351.99,-291.37C389.5,-286.13 430.31,-280.84 468.04,-276.81 627.91,-259.71 809.43,-246.45 945.15,-237.74"/>
<polygon fill="#63b8ff" stroke="#63b8ff" points="945.22,-241.24 954.97,-237.11 944.77,-234.26 945.22,-241.24"/>
</a>
</g>
</g>
<!-- Node15 -->
<g id="Node000015" class="node">
<title>Node15</title>
<g id="a_Node000015"><a xlink:href="classcom_1_1runehive_1_1game_1_1world_1_1items_1_1containers_1_1_item_container.html#ab6ba40c8ff73d123ee839552d524ff3d" target="_top" xlink:title="Consumes an action if the index is a valid item index in this container.">
<ellipse fill="white" stroke="#666666" cx="684.06" cy="-95.81" rx="174.13" ry="25.81"/>
<text xml:space="preserve" text-anchor="start" x="568.94" y="-98.66" font-family="Helvetica,sans-Serif" font-size="12.00">com.runehive.game.world.items.containers.</text>
<text xml:space="preserve" text-anchor="middle" x="684.06" y="-84.41" font-family="Helvetica,sans-Serif" font-size="12.00">ItemContainer.ifPresent</text>
</a>
</g>
</g>
<!-- Node1&#45;&gt;Node15 -->
<g id="edge17_Node000001_Node000015" class="edge">
<title>Node1&#45;&gt;Node15</title>
<g id="a_edge17_Node000001_Node000015"><a xlink:title=" ">
<path fill="none" stroke="#63b8ff" d="M243.75,-285.9C287,-245.61 376.72,-168.67 468.04,-130.81 486.47,-123.17 506.42,-117.19 526.5,-112.52"/>
<polygon fill="#63b8ff" stroke="#63b8ff" points="527.17,-115.95 536.18,-110.38 525.66,-109.12 527.17,-115.95"/>
</a>
</g>
</g>
<!-- Node16 -->
<g id="Node000016" class="node">
<title>Node16</title>
<g id="a_Node000016"><a xlink:href="classcom_1_1runehive_1_1game_1_1world_1_1items_1_1_item.html#aed46f979e5ded1097f16490033764dae" target="_top" xlink:title=" ">
<ellipse fill="white" stroke="#666666" cx="684.06" cy="-25.81" rx="132.76" ry="25.81"/>
<text xml:space="preserve" text-anchor="start" x="598.19" y="-28.66" font-family="Helvetica,sans-Serif" font-size="12.00">com.runehive.game.world.items.</text>
<text xml:space="preserve" text-anchor="middle" x="684.06" y="-14.41" font-family="Helvetica,sans-Serif" font-size="12.00">Item.matchesId</text>
</a>
</g>
</g>
<!-- Node1&#45;&gt;Node16 -->
<g id="edge18_Node000001_Node000016" class="edge">
<title>Node1&#45;&gt;Node16</title>
<g id="a_edge18_Node000001_Node000016"><a xlink:title=" ">
<path fill="none" stroke="#63b8ff" d="M234.21,-285.98C270.5,-233.75 360.53,-115.88 468.04,-60.81 491.61,-48.74 518.36,-40.65 544.8,-35.28"/>
<polygon fill="#63b8ff" stroke="#63b8ff" points="545.44,-38.72 554.61,-33.41 544.13,-31.84 545.44,-38.72"/>
</a>
</g>
</g>
<!-- Node17 -->
<g id="Node000017" class="node">
<title>Node17</title>
<g id="a_Node000017"><a xlink:href="classcom_1_1runehive_1_1game_1_1world_1_1items_1_1containers_1_1equipment_1_1_equipment.html#a98fbc8efe5acc4b8bf5261b66496a186" target="_top" xlink:title=" ">
<ellipse fill="white" stroke="#666666" cx="684.06" cy="-541.81" rx="216.02" ry="25.81"/>
<text xml:space="preserve" text-anchor="start" x="539.31" y="-544.66" font-family="Helvetica,sans-Serif" font-size="12.00">com.runehive.game.world.items.containers.equipment.</text>
<text xml:space="preserve" text-anchor="middle" x="684.06" y="-530.41" font-family="Helvetica,sans-Serif" font-size="12.00">Equipment.removeBonus</text>
</a>
</g>
</g>
<!-- Node1&#45;&gt;Node17 -->
<g id="edge19_Node000001_Node000017" class="edge">
<title>Node1&#45;&gt;Node17</title>
<g id="a_edge19_Node000001_Node000017"><a xlink:title=" ">
<path fill="none" stroke="#63b8ff" d="M242.15,-337.63C284.55,-379.53 374.83,-461.75 468.04,-502.81 484.22,-509.93 501.62,-515.76 519.28,-520.52"/>
<polygon fill="#63b8ff" stroke="#63b8ff" points="518.27,-523.87 528.83,-522.97 520.01,-517.09 518.27,-523.87"/>
</a>
</g>
</g>
<!-- Node18 -->
<g id="Node000018" class="node">
<title>Node18</title>
<g id="a_Node000018"><a xlink:href="classcom_1_1runehive_1_1game_1_1world_1_1items_1_1containers_1_1_item_container.html#a793fa95415f6842dbfbd93a52f1cf2ed" target="_top" xlink:title="Retrieves the item located on index.">
<ellipse fill="white" stroke="#666666" cx="1152.11" cy="-155.81" rx="174.13" ry="25.81"/>
<text xml:space="preserve" text-anchor="start" x="1036.98" y="-158.66" font-family="Helvetica,sans-Serif" font-size="12.00">com.runehive.game.world.items.containers.</text>
<text xml:space="preserve" text-anchor="middle" x="1152.11" y="-144.41" font-family="Helvetica,sans-Serif" font-size="12.00">ItemContainer.retrieve</text>
</a>
</g>
</g>
<!-- Node1&#45;&gt;Node18 -->
<g id="edge22_Node000001_Node000018" class="edge">
<title>Node1&#45;&gt;Node18</title>
<g id="a_edge22_Node000001_Node000018"><a xlink:title=" ">
<path fill="none" stroke="#63b8ff" d="M287.23,-286.98C337.06,-270.38 405.87,-249.51 468.04,-237.81 657.44,-202.16 710.41,-234.97 900.08,-200.81 916.43,-197.87 919.87,-194.37 936.08,-190.81 961.3,-185.27 988.35,-180.2 1014.47,-175.74"/>
<polygon fill="#63b8ff" stroke="#63b8ff" points="1014.82,-179.23 1024.1,-174.12 1013.66,-172.33 1014.82,-179.23"/>
</a>
</g>
</g>
<!-- Node19 -->
<g id="Node000019" class="node">
<title>Node19</title>
<g id="a_Node000019"><a xlink:href="classcom_1_1runehive_1_1game_1_1world_1_1items_1_1containers_1_1equipment_1_1_equipment.html#a98e481247992553be80f016eb48855d9" target="_top" xlink:title=" ">
<ellipse fill="white" stroke="#666666" cx="684.06" cy="-311.81" rx="216.02" ry="25.81"/>
<text xml:space="preserve" text-anchor="start" x="539.31" y="-314.66" font-family="Helvetica,sans-Serif" font-size="12.00">com.runehive.game.world.items.containers.equipment.</text>
<text xml:space="preserve" text-anchor="middle" x="684.06" y="-300.41" font-family="Helvetica,sans-Serif" font-size="12.00">Equipment.updateRangedEquipment</text>
</a>
</g>
</g>
<!-- Node1&#45;&gt;Node19 -->
<g id="edge23_Node000001_Node000019" class="edge">
<title>Node1&#45;&gt;Node19</title>
<g id="a_edge23_Node000001_Node000019"><a xlink:title=" ">
<path fill="none" stroke="#63b8ff" d="M432.31,-311.81C440.33,-311.81 448.38,-311.81 456.43,-311.81"/>
<polygon fill="#63b8ff" stroke="#63b8ff" points="456.27,-315.31 466.27,-311.81 456.27,-308.31 456.27,-315.31"/>
</a>
</g>
</g>
<!-- Node3 -->
<g id="Node000003" class="node">
<title>Node3</title>
<g id="a_Node000003"><a xlink:href="classcom_1_1runehive_1_1game_1_1world_1_1items_1_1_item.html#ab60ba6de81ce607a9c4c373319da2170" target="_top" xlink:title=" ">
<ellipse fill="white" stroke="#666666" cx="1152.11" cy="-543.81" rx="132.76" ry="25.81"/>
<text xml:space="preserve" text-anchor="start" x="1066.23" y="-546.66" font-family="Helvetica,sans-Serif" font-size="12.00">com.runehive.game.world.items.</text>
<text xml:space="preserve" text-anchor="middle" x="1152.11" y="-532.41" font-family="Helvetica,sans-Serif" font-size="12.00">Item.getBonus</text>
</a>
</g>
</g>
<!-- Node2&#45;&gt;Node3 -->
<g id="edge2_Node000002_Node000003" class="edge">
<title>Node2&#45;&gt;Node3</title>
<g id="a_edge2_Node000002_Node000003"><a xlink:title=" ">
<path fill="none" stroke="#63b8ff" d="M823,-591.68C889.85,-581.93 969.29,-570.34 1033.27,-561"/>
<polygon fill="#63b8ff" stroke="#63b8ff" points="1033.73,-564.47 1043.12,-559.57 1032.72,-557.55 1033.73,-564.47"/>
</a>
</g>
</g>
<!-- Node7 -->
<g id="Node000007" class="node">
<title>Node7</title>
<g id="a_Node000007"><a xlink:href="classcom_1_1runehive_1_1game_1_1world_1_1items_1_1_item.html#acb272494e180f2df16fd5c01a34b8cd1" target="_top" xlink:title=" ">
<ellipse fill="white" stroke="#666666" cx="1152.11" cy="-613.81" rx="132.76" ry="25.81"/>
<text xml:space="preserve" text-anchor="start" x="1066.23" y="-616.66" font-family="Helvetica,sans-Serif" font-size="12.00">com.runehive.game.world.items.</text>
<text xml:space="preserve" text-anchor="middle" x="1152.11" y="-602.41" font-family="Helvetica,sans-Serif" font-size="12.00">Item.getBonuses</text>
</a>
</g>
</g>
<!-- Node2&#45;&gt;Node7 -->
<g id="edge6_Node000002_Node000007" class="edge">
<title>Node2&#45;&gt;Node7</title>
<g id="a_edge6_Node000002_Node000007"><a xlink:title=" ">
<path fill="none" stroke="#63b8ff" d="M900.35,-612.73C936.78,-612.89 973.79,-613.05 1007.79,-613.19"/>
<polygon fill="#63b8ff" stroke="#63b8ff" points="1007.67,-616.69 1017.68,-613.24 1007.7,-609.69 1007.67,-616.69"/>
</a>
</g>
</g>
<!-- Node4 -->
<g id="Node000004" class="node">
<title>Node4</title>
<g id="a_Node000004"><a xlink:href="classcom_1_1runehive_1_1game_1_1world_1_1items_1_1_item.html#a5008cb760d4d688a1731e0406d29c335" target="_top" xlink:title="Gets the item definition for the item identifier.">
<ellipse fill="white" stroke="#666666" cx="1594.69" cy="-516.81" rx="132.76" ry="25.81"/>
<text xml:space="preserve" text-anchor="start" x="1508.82" y="-519.66" font-family="Helvetica,sans-Serif" font-size="12.00">com.runehive.game.world.items.</text>
<text xml:space="preserve" text-anchor="middle" x="1594.69" y="-505.41" font-family="Helvetica,sans-Serif" font-size="12.00">Item.getDefinition</text>
</a>
</g>
</g>
<!-- Node3&#45;&gt;Node4 -->
<g id="edge3_Node000003_Node000004" class="edge">
<title>Node3&#45;&gt;Node4</title>
<g id="a_edge3_Node000003_Node000004"><a xlink:title=" ">
<path fill="none" stroke="#63b8ff" d="M1279.36,-536.07C1334.67,-532.68 1399.71,-528.7 1456.23,-525.23"/>
<polygon fill="#63b8ff" stroke="#63b8ff" points="1456.14,-528.75 1465.91,-524.64 1455.71,-521.76 1456.14,-528.75"/>
</a>
</g>
</g>
<!-- Node5 -->
<g id="Node000005" class="node">
<title>Node5</title>
<g id="a_Node000005"><a xlink:href="classcom_1_1runehive_1_1game_1_1world_1_1items_1_1_item_definition.html#a50e4924075ee157cd3f75a8107a595fa" target="_top" xlink:title="Gets an item definition.">
<ellipse fill="white" stroke="#666666" cx="1954.02" cy="-516.81" rx="132.76" ry="25.81"/>
<text xml:space="preserve" text-anchor="start" x="1868.14" y="-519.66" font-family="Helvetica,sans-Serif" font-size="12.00">com.runehive.game.world.items.</text>
<text xml:space="preserve" text-anchor="middle" x="1954.02" y="-505.41" font-family="Helvetica,sans-Serif" font-size="12.00">ItemDefinition.get</text>
</a>
</g>
</g>
<!-- Node4&#45;&gt;Node5 -->
<g id="edge4_Node000004_Node000005" class="edge">
<title>Node4&#45;&gt;Node5</title>
<g id="a_edge4_Node000004_Node000005"><a xlink:title=" ">
<path fill="none" stroke="#63b8ff" d="M1727.73,-516.81C1754.35,-516.81 1782.45,-516.81 1809.43,-516.81"/>
<polygon fill="#63b8ff" stroke="#63b8ff" points="1809.41,-520.31 1819.41,-516.81 1809.41,-513.31 1809.41,-520.31"/>
</a>
</g>
</g>
<!-- Node6 -->
<g id="Node000006" class="node">
<title>Node6</title>
<g id="a_Node000006"><a xlink:href="classcom_1_1runehive_1_1game_1_1world_1_1items_1_1_item_definition.html#a4fafaf641c0490165d697a73006e76bf" target="_top" xlink:title=" ">
<ellipse fill="white" stroke="#666666" cx="2255.54" cy="-516.81" rx="132.76" ry="25.81"/>
<text xml:space="preserve" text-anchor="start" x="2169.66" y="-519.66" font-family="Helvetica,sans-Serif" font-size="12.00">com.runehive.game.world.items.</text>
<text xml:space="preserve" text-anchor="middle" x="2255.54" y="-505.41" font-family="Helvetica,sans-Serif" font-size="12.00">ItemDefinition.ItemDefinition</text>
</a>
</g>
</g>
<!-- Node5&#45;&gt;Node6 -->
<g id="edge5_Node000005_Node000006" class="edge">
<title>Node5&#45;&gt;Node6</title>
<g id="a_edge5_Node000005_Node000006"><a xlink:title=" ">
<path fill="none" stroke="#63b8ff" d="M2087.26,-516.81C2095.25,-516.81 2103.31,-516.81 2111.34,-516.81"/>
<polygon fill="#63b8ff" stroke="#63b8ff" points="2111.15,-520.31 2121.15,-516.81 2111.15,-513.31 2111.15,-520.31"/>
</a>
</g>
</g>
<!-- Node7&#45;&gt;Node4 -->
<g id="edge7_Node000007_Node000004" class="edge">
<title>Node7&#45;&gt;Node4</title>
<g id="a_edge7_Node000007_Node000004"><a xlink:title=" ">
<path fill="none" stroke="#63b8ff" d="M1260.72,-598.6C1295.17,-593.12 1333.39,-586.39 1368.13,-578.81 1415.76,-568.42 1468.32,-554.14 1510.72,-541.9"/>
<polygon fill="#63b8ff" stroke="#63b8ff" points="1511.47,-545.33 1520.09,-539.18 1509.51,-538.61 1511.47,-545.33"/>
</a>
</g>
</g>
<!-- Node9 -->
<g id="Node000009" class="node">
<title>Node9</title>
<g id="a_Node000009"><a xlink:href="classcom_1_1runehive_1_1game_1_1world_1_1items_1_1containers_1_1_item_container.html#ab45e9f23a35f49a620b43fa8508efa55" target="_top" xlink:title="Determines if this container contains any identifiers.">
<ellipse fill="white" stroke="#666666" cx="1152.11" cy="-85.81" rx="174.13" ry="25.81"/>
<text xml:space="preserve" text-anchor="start" x="1036.98" y="-88.66" font-family="Helvetica,sans-Serif" font-size="12.00">com.runehive.game.world.items.containers.</text>
<text xml:space="preserve" text-anchor="middle" x="1152.11" y="-74.41" font-family="Helvetica,sans-Serif" font-size="12.00">ItemContainer.containsAny</text>
</a>
</g>
</g>
<!-- Node8&#45;&gt;Node9 -->
<g id="edge9_Node000008_Node000009" class="edge">
<title>Node8&#45;&gt;Node9</title>
<g id="a_edge9_Node000008_Node000009"><a xlink:title=" ">
<path fill="none" stroke="#63b8ff" d="M822.85,-145.68C848.61,-141.27 875.24,-136.26 900.08,-130.81 916.3,-127.25 919.87,-124.37 936.08,-120.81 961.3,-115.27 988.35,-110.2 1014.47,-105.74"/>
<polygon fill="#63b8ff" stroke="#63b8ff" points="1014.82,-109.23 1024.1,-104.12 1013.66,-102.33 1014.82,-109.23"/>
</a>
</g>
</g>
<!-- Node10 -->
<g id="Node000010" class="node">
<title>Node10</title>
<g id="a_Node000010"><a xlink:href="classcom_1_1runehive_1_1game_1_1world_1_1items_1_1containers_1_1_item_container.html#a8acf6f1c920076daea6c80e5afbe3404" target="_top" xlink:title="Determines if this container contains id.">
<ellipse fill="white" stroke="#666666" cx="1594.69" cy="-85.81" rx="174.13" ry="25.81"/>
<text xml:space="preserve" text-anchor="start" x="1479.57" y="-88.66" font-family="Helvetica,sans-Serif" font-size="12.00">com.runehive.game.world.items.containers.</text>
<text xml:space="preserve" text-anchor="middle" x="1594.69" y="-74.41" font-family="Helvetica,sans-Serif" font-size="12.00">ItemContainer.contains</text>
</a>
</g>
</g>
<!-- Node9&#45;&gt;Node10 -->
<g id="edge10_Node000009_Node000010" class="edge">
<title>Node9&#45;&gt;Node10</title>
<g id="a_edge10_Node000009_Node000010"><a xlink:title=" ">
<path fill="none" stroke="#63b8ff" d="M1326.6,-85.81C1353.7,-85.81 1381.78,-85.81 1409.1,-85.81"/>
<polygon fill="#63b8ff" stroke="#63b8ff" points="1408.84,-89.31 1418.84,-85.81 1408.84,-82.31 1408.84,-89.31"/>
</a>
</g>
</g>
<!-- Node11&#45;&gt;Node4 -->
<g id="edge12_Node000011_Node000004" class="edge">
<title>Node11&#45;&gt;Node4</title>
<g id="a_edge12_Node000011_Node000004"><a xlink:title=" ">
<path fill="none" stroke="#63b8ff" d="M812.36,-474.67C981.66,-483.8 1279.86,-499.89 1454.81,-509.32"/>
<polygon fill="#63b8ff" stroke="#63b8ff" points="1454.47,-512.81 1464.65,-509.85 1454.85,-505.82 1454.47,-512.81"/>
</a>
</g>
</g>
<!-- Node12&#45;&gt;Node4 -->
<g id="edge14_Node000012_Node000004" class="edge">
<title>Node12&#45;&gt;Node4</title>
<g id="a_edge14_Node000012_Node000004"><a xlink:title=" ">
<path fill="none" stroke="#63b8ff" d="M1250.07,-453.64C1319.83,-466.46 1413.95,-483.76 1486.05,-497.02"/>
<polygon fill="#63b8ff" stroke="#63b8ff" points="1485.01,-500.39 1495.48,-498.75 1486.28,-493.5 1485.01,-500.39"/>
</a>
</g>
</g>
<!-- Node17&#45;&gt;Node3 -->
<g id="edge20_Node000017_Node000003" class="edge">
<title>Node17&#45;&gt;Node3</title>
<g id="a_edge20_Node000017_Node000003"><a xlink:title=" ">
<path fill="none" stroke="#63b8ff" d="M900.35,-542.73C936.78,-542.89 973.79,-543.05 1007.79,-543.19"/>
<polygon fill="#63b8ff" stroke="#63b8ff" points="1007.67,-546.69 1017.68,-543.24 1007.7,-539.69 1007.67,-546.69"/>
</a>
</g>
</g>
<!-- Node17&#45;&gt;Node7 -->
<g id="edge21_Node000017_Node000007" class="edge">
<title>Node17&#45;&gt;Node7</title>
<g id="a_edge21_Node000017_Node000007"><a xlink:title=" ">
<path fill="none" stroke="#63b8ff" d="M818.3,-562.39C886.96,-573 969.87,-585.81 1035.76,-595.99"/>
<polygon fill="#63b8ff" stroke="#63b8ff" points="1035.11,-599.43 1045.52,-597.5 1036.17,-592.51 1035.11,-599.43"/>
</a>
</g>
</g>
<!-- Node19&#45;&gt;Node12 -->
<g id="edge27_Node000019_Node000012" class="edge">
<title>Node19&#45;&gt;Node12</title>
<g id="a_edge27_Node000019_Node000012"><a xlink:title=" ">
<path fill="none" stroke="#63b8ff" d="M746.26,-336.99C796.5,-356.81 869.91,-383.84 936.08,-400.81 965.86,-408.44 998.4,-414.76 1028.95,-419.82"/>
<polygon fill="#63b8ff" stroke="#63b8ff" points="1028.18,-423.24 1038.61,-421.39 1029.3,-416.33 1028.18,-423.24"/>
</a>
</g>
</g>
<!-- Node19&#45;&gt;Node13 -->
<g id="edge28_Node000019_Node000013" class="edge">
<title>Node19&#45;&gt;Node13</title>
<g id="a_edge28_Node000019_Node000013"><a xlink:title=" ">
<path fill="none" stroke="#63b8ff" d="M841.22,-329.9C887.04,-335.21 937.33,-341.04 983.81,-346.43"/>
<polygon fill="#63b8ff" stroke="#63b8ff" points="983.39,-349.9 993.72,-347.57 984.19,-342.95 983.39,-349.9"/>
</a>
</g>
</g>
<!-- Node19&#45;&gt;Node14 -->
<g id="edge29_Node000019_Node000014" class="edge">
<title>Node19&#45;&gt;Node14</title>
<g id="a_edge29_Node000019_Node000014"><a xlink:title=" ">
<path fill="none" stroke="#63b8ff" d="M812.06,-290.64C841.12,-285.11 871.78,-278.74 900.08,-271.81 916.33,-267.83 919.79,-264.61 936.08,-260.81 956.63,-256.02 978.43,-251.66 999.96,-247.76"/>
<polygon fill="#63b8ff" stroke="#63b8ff" points="1000.47,-251.23 1009.7,-246.03 999.24,-244.34 1000.47,-251.23"/>
</a>
</g>
</g>
<!-- Node19&#45;&gt;Node18 -->
<g id="edge30_Node000019_Node000018" class="edge">
<title>Node19&#45;&gt;Node18</title>
<g id="a_edge30_Node000019_Node000018"><a xlink:title=" ">
<path fill="none" stroke="#63b8ff" d="M782.34,-288.41C821.2,-276.14 864.95,-258.41 900.08,-233.81 920.5,-219.51 914.42,-203.14 936.08,-190.81 951.19,-182.21 967.8,-175.57 984.9,-170.46"/>
<polygon fill="#63b8ff" stroke="#63b8ff" points="985.44,-173.94 994.13,-167.88 983.56,-167.2 985.44,-173.94"/>
</a>
</g>
</g>
<!-- Node20 -->
<g id="Node000020" class="node">
<title>Node20</title>
<g id="a_Node000020"><a xlink:href="enumcom_1_1runehive_1_1game_1_1world_1_1entity_1_1combat_1_1ranged_1_1_ranged_ammunition.html#a16145120735ac716882983622bd5328e" target="_top" xlink:title=" ">
<ellipse fill="white" stroke="#666666" cx="1152.11" cy="-295.81" rx="190.57" ry="25.81"/>
<text xml:space="preserve" text-anchor="start" x="1025.36" y="-298.66" font-family="Helvetica,sans-Serif" font-size="12.00">com.runehive.game.world.entity.combat.ranged.</text>
<text xml:space="preserve" text-anchor="middle" x="1152.11" y="-284.41" font-family="Helvetica,sans-Serif" font-size="12.00">RangedAmmunition.find</text>
</a>
</g>
</g>
<!-- Node19&#45;&gt;Node20 -->
<g id="edge24_Node000019_Node000020" class="edge">
<title>Node19&#45;&gt;Node20</title>
<g id="a_edge24_Node000019_Node000020"><a xlink:title=" ">
<path fill="none" stroke="#63b8ff" d="M892.19,-304.7C913.31,-303.97 934.72,-303.24 955.71,-302.52"/>
<polygon fill="#63b8ff" stroke="#63b8ff" points="955.6,-306.02 965.47,-302.18 955.36,-299.03 955.6,-306.02"/>
</a>
</g>
</g>
<!-- Node21 -->
<g id="Node000021" class="node">
<title>Node21</title>
<g id="a_Node000021"><a xlink:href="classcom_1_1runehive_1_1game_1_1world_1_1items_1_1_item.html#a1cec21ca5ef1783808d4ca9de1051a29" target="_top" xlink:title="Gets the identification of this item.">
<ellipse fill="white" stroke="#666666" cx="1594.69" cy="-330.81" rx="132.76" ry="25.81"/>
<text xml:space="preserve" text-anchor="start" x="1508.82" y="-333.66" font-family="Helvetica,sans-Serif" font-size="12.00">com.runehive.game.world.items.</text>
<text xml:space="preserve" text-anchor="middle" x="1594.69" y="-319.41" font-family="Helvetica,sans-Serif" font-size="12.00">Item.getId</text>
</a>
</g>
</g>
<!-- Node20&#45;&gt;Node21 -->
<g id="edge25_Node000020_Node000021" class="edge">
<title>Node20&#45;&gt;Node21</title>
<g id="a_edge25_Node000020_Node000021"><a xlink:title=" ">
<path fill="none" stroke="#63b8ff" d="M1317.79,-308.89C1364.66,-312.61 1415.12,-316.62 1459.91,-320.18"/>
<polygon fill="#63b8ff" stroke="#63b8ff" points="1459.41,-323.65 1469.66,-320.96 1459.97,-316.68 1459.41,-323.65"/>
</a>
</g>
</g>
<!-- Node22 -->
<g id="Node000022" class="node">
<title>Node22</title>
<g id="a_Node000022"><a xlink:href="enumcom_1_1runehive_1_1game_1_1world_1_1entity_1_1combat_1_1ranged_1_1_ranged_ammunition.html#a5e11d1c6483c0d9ed4a9fd94f273e967" target="_top" xlink:title=" ">
<ellipse fill="white" stroke="#666666" cx="1594.69" cy="-260.81" rx="190.57" ry="25.81"/>
<text xml:space="preserve" text-anchor="start" x="1467.94" y="-263.66" font-family="Helvetica,sans-Serif" font-size="12.00">com.runehive.game.world.entity.combat.ranged.</text>
<text xml:space="preserve" text-anchor="middle" x="1594.69" y="-249.41" font-family="Helvetica,sans-Serif" font-size="12.00">RangedAmmunition.RangedAmmunition</text>
</a>
</g>
</g>
<!-- Node20&#45;&gt;Node22 -->
<g id="edge26_Node000020_Node000022" class="edge">
<title>Node20&#45;&gt;Node22</title>
<g id="a_edge26_Node000020_Node000022"><a xlink:title=" ">
<path fill="none" stroke="#63b8ff" d="M1317.79,-282.73C1350.51,-280.13 1384.98,-277.39 1418.05,-274.76"/>
<polygon fill="#63b8ff" stroke="#63b8ff" points="1418.01,-278.28 1427.7,-274 1417.45,-271.3 1418.01,-278.28"/>
</a>
</g>
</g>
</g>
</svg>
