<?xml version="1.0" encoding="UTF-8" standalone="no"?>
<!DOCTYPE svg PUBLIC "-//W3C//DTD SVG 1.1//EN"
 "http://www.w3.org/Graphics/SVG/1.1/DTD/svg11.dtd">
<!-- Generated by graphviz version 14.0.1 (20251006.0113)
 -->
<!-- Title: com.runehive.content.DropDisplay.search Pages: 1 -->
<svg width="2108pt" height="982pt"
 viewBox="0.00 0.00 2108.00 982.00" xmlns="http://www.w3.org/2000/svg" xmlns:xlink="http://www.w3.org/1999/xlink">
<g id="graph0" class="graph" transform="scale(1 1) rotate(0) translate(4 977.62)">
<title>com.runehive.content.DropDisplay.search</title>
<!-- Node1 -->
<g id="Node000001" class="node">
<title>Node1</title>
<g id="a_Node000001"><a xlink:title=" ">
<ellipse fill="#999999" stroke="#666666" cx="112.61" cy="-575.81" rx="112.61" ry="25.81"/>
<text xml:space="preserve" text-anchor="start" x="40.98" y="-578.66" font-family="Helvetica,sans-Serif" font-size="12.00">com.runehive.content.Drop</text>
<text xml:space="preserve" text-anchor="middle" x="112.61" y="-564.41" font-family="Helvetica,sans-Serif" font-size="12.00">Display.search</text>
</a>
</g>
</g>
<!-- Node2 -->
<g id="Node000002" class="node">
<title>Node2</title>
<g id="a_Node000002"><a xlink:href="classcom_1_1runehive_1_1content_1_1_drop_display.html#a78b6044e2a694a3e0863e22a6b72528b" target="_top" xlink:title=" ">
<ellipse fill="white" stroke="#666666" cx="393.44" cy="-737.81" rx="112.61" ry="25.81"/>
<text xml:space="preserve" text-anchor="start" x="321.82" y="-740.66" font-family="Helvetica,sans-Serif" font-size="12.00">com.runehive.content.Drop</text>
<text xml:space="preserve" text-anchor="middle" x="393.44" y="-726.41" font-family="Helvetica,sans-Serif" font-size="12.00">Display.display</text>
</a>
</g>
</g>
<!-- Node1&#45;&gt;Node2 -->
<g id="edge1_Node000001_Node000002" class="edge">
<title>Node1&#45;&gt;Node2</title>
<g id="a_edge1_Node000001_Node000002"><a xlink:title=" ">
<path fill="none" stroke="#63b8ff" d="M155.35,-600.06C204.98,-628.9 287.79,-677.01 341.24,-708.06"/>
<polygon fill="#63b8ff" stroke="#63b8ff" points="339.16,-710.9 349.56,-712.9 342.67,-704.85 339.16,-710.9"/>
</a>
</g>
</g>
<!-- Node4 -->
<g id="Node000004" class="node">
<title>Node4</title>
<g id="a_Node000004"><a xlink:href="classcom_1_1runehive_1_1game_1_1world_1_1entity_1_1mob_1_1npc_1_1definition_1_1_npc_definition.html#a7cdc2c2ca540d6cdfc409ad4e577b3f3" target="_top" xlink:title="Gets a npc definition from the definition array.">
<ellipse fill="white" stroke="#666666" cx="764.96" cy="-947.81" rx="203.29" ry="25.81"/>
<text xml:space="preserve" text-anchor="start" x="629.21" y="-950.66" font-family="Helvetica,sans-Serif" font-size="12.00">com.runehive.game.world.entity.mob.npc.definition.</text>
<text xml:space="preserve" text-anchor="middle" x="764.96" y="-936.41" font-family="Helvetica,sans-Serif" font-size="12.00">NpcDefinition.get</text>
</a>
</g>
</g>
<!-- Node1&#45;&gt;Node4 -->
<g id="edge24_Node000001_Node000004" class="edge">
<title>Node1&#45;&gt;Node4</title>
<g id="a_edge24_Node000001_Node000004"><a xlink:title=" ">
<path fill="none" stroke="#63b8ff" d="M121.12,-601.7C137.55,-653.61 181.71,-770.67 261.21,-831.81 345.31,-896.48 459.2,-926.14 557.32,-939.34"/>
<polygon fill="#63b8ff" stroke="#63b8ff" points="556.72,-942.8 567.09,-940.6 557.62,-935.85 556.72,-942.8"/>
</a>
</g>
</g>
<!-- Node6 -->
<g id="Node000006" class="node">
<title>Node6</title>
<g id="a_Node000006"><a xlink:href="classcom_1_1runehive_1_1game_1_1world_1_1entity_1_1mob_1_1npc_1_1definition_1_1_npc_definition.html#a22d4cdad378ec059ca33d1a68c9e5bc6" target="_top" xlink:title=" ">
<ellipse fill="white" stroke="#666666" cx="764.96" cy="-877.81" rx="203.29" ry="25.81"/>
<text xml:space="preserve" text-anchor="start" x="629.21" y="-880.66" font-family="Helvetica,sans-Serif" font-size="12.00">com.runehive.game.world.entity.mob.npc.definition.</text>
<text xml:space="preserve" text-anchor="middle" x="764.96" y="-866.41" font-family="Helvetica,sans-Serif" font-size="12.00">NpcDefinition.getName</text>
</a>
</g>
</g>
<!-- Node1&#45;&gt;Node6 -->
<g id="edge26_Node000001_Node000006" class="edge">
<title>Node1&#45;&gt;Node6</title>
<g id="a_edge26_Node000001_Node000006"><a xlink:title=" ">
<path fill="none" stroke="#63b8ff" d="M125.58,-601.85C146.63,-644.6 194.47,-729.24 261.21,-772.81 348.75,-829.95 461.54,-856.78 558.11,-869.07"/>
<polygon fill="#63b8ff" stroke="#63b8ff" points="557.64,-872.54 567.99,-870.28 558.49,-865.59 557.64,-872.54"/>
</a>
</g>
</g>
<!-- Node9 -->
<g id="Node000009" class="node">
<title>Node9</title>
<g id="a_Node000009"><a xlink:href="classcom_1_1runehive_1_1game_1_1world_1_1items_1_1_item_definition.html#a50e4924075ee157cd3f75a8107a595fa" target="_top" xlink:title="Gets an item definition.">
<ellipse fill="white" stroke="#666666" cx="1622.56" cy="-640.81" rx="132.76" ry="25.81"/>
<text xml:space="preserve" text-anchor="start" x="1536.69" y="-643.66" font-family="Helvetica,sans-Serif" font-size="12.00">com.runehive.game.world.items.</text>
<text xml:space="preserve" text-anchor="middle" x="1622.56" y="-629.41" font-family="Helvetica,sans-Serif" font-size="12.00">ItemDefinition.get</text>
</a>
</g>
</g>
<!-- Node1&#45;&gt;Node9 -->
<g id="edge25_Node000001_Node000009" class="edge">
<title>Node1&#45;&gt;Node9</title>
<g id="a_edge25_Node000001_Node000009"><a xlink:title=" ">
<path fill="none" stroke="#63b8ff" d="M225.18,-574.58C496.05,-572.05 1182.89,-568.53 1410.84,-594.81 1451.13,-599.45 1495.05,-608.4 1532.31,-617.18"/>
<polygon fill="#63b8ff" stroke="#63b8ff" points="1531.13,-620.5 1541.67,-619.42 1532.76,-613.69 1531.13,-620.5"/>
</a>
</g>
</g>
<!-- Node11 -->
<g id="Node000011" class="node">
<title>Node11</title>
<g id="a_Node000011"><a xlink:href="classcom_1_1runehive_1_1game_1_1world_1_1items_1_1_item_definition.html#aa9479e24430ebdd5855705e1177346b4" target="_top" xlink:title="Gets the item name.">
<ellipse fill="white" stroke="#666666" cx="1207.55" cy="-629.81" rx="132.76" ry="25.81"/>
<text xml:space="preserve" text-anchor="start" x="1121.68" y="-632.66" font-family="Helvetica,sans-Serif" font-size="12.00">com.runehive.game.world.items.</text>
<text xml:space="preserve" text-anchor="middle" x="1207.55" y="-618.41" font-family="Helvetica,sans-Serif" font-size="12.00">ItemDefinition.getName</text>
</a>
</g>
</g>
<!-- Node1&#45;&gt;Node11 -->
<g id="edge27_Node000001_Node000011" class="edge">
<title>Node1&#45;&gt;Node11</title>
<g id="a_edge27_Node000001_Node000011"><a xlink:title=" ">
<path fill="none" stroke="#63b8ff" d="M216.38,-586.25C231.41,-587.58 246.7,-588.82 261.21,-589.81 545.74,-609.31 879.14,-620.76 1064.25,-626.11"/>
<polygon fill="#63b8ff" stroke="#63b8ff" points="1064.07,-629.6 1074.17,-626.39 1064.28,-622.61 1064.07,-629.6"/>
</a>
</g>
</g>
<!-- Node12 -->
<g id="Node000012" class="node">
<title>Node12</title>
<g id="a_Node000012"><a xlink:href="classcom_1_1runehive_1_1game_1_1world_1_1entity_1_1mob_1_1player_1_1_player.html#ab8309e5d532b7540f48bf25f8dea92a8" target="_top" xlink:title=" ">
<ellipse fill="white" stroke="#666666" cx="764.96" cy="-521.81" rx="175.72" ry="25.81"/>
<text xml:space="preserve" text-anchor="start" x="648.71" y="-524.66" font-family="Helvetica,sans-Serif" font-size="12.00">com.runehive.game.world.entity.mob.player.</text>
<text xml:space="preserve" text-anchor="middle" x="764.96" y="-510.41" font-family="Helvetica,sans-Serif" font-size="12.00">Player.send</text>
</a>
</g>
</g>
<!-- Node1&#45;&gt;Node12 -->
<g id="edge28_Node000001_Node000012" class="edge">
<title>Node1&#45;&gt;Node12</title>
<g id="a_edge28_Node000001_Node000012"><a xlink:title=" ">
<path fill="none" stroke="#63b8ff" d="M216.82,-565.82C231.71,-564.44 246.85,-563.06 261.21,-561.81 372.81,-552.08 498.42,-542.08 596.18,-534.52"/>
<polygon fill="#63b8ff" stroke="#63b8ff" points="596.45,-538.01 606.15,-533.75 595.91,-531.03 596.45,-538.01"/>
</a>
</g>
</g>
<!-- Node19 -->
<g id="Node000019" class="node">
<title>Node19</title>
<g id="a_Node000019"><a xlink:href="classcom_1_1runehive_1_1content_1_1dialogue_1_1_dialogue_factory.html#a2487170811b723c8a8e3759c94896bd9" target="_top" xlink:title="Retrieves the next dialogue in the chain and executes it.">
<ellipse fill="white" stroke="#666666" cx="393.44" cy="-235.81" rx="129.05" ry="25.81"/>
<text xml:space="preserve" text-anchor="start" x="310.19" y="-238.66" font-family="Helvetica,sans-Serif" font-size="12.00">com.runehive.content.dialogue.</text>
<text xml:space="preserve" text-anchor="middle" x="393.44" y="-224.41" font-family="Helvetica,sans-Serif" font-size="12.00">DialogueFactory.execute</text>
</a>
</g>
</g>
<!-- Node1&#45;&gt;Node19 -->
<g id="edge18_Node000001_Node000019" class="edge">
<title>Node1&#45;&gt;Node19</title>
<g id="a_edge18_Node000001_Node000019"><a xlink:title=" ">
<path fill="none" stroke="#63b8ff" d="M133.62,-550.01C161.75,-513.89 214.73,-446.32 261.21,-389.81 295.43,-348.2 335.75,-301.18 362.58,-270.16"/>
<polygon fill="#63b8ff" stroke="#63b8ff" points="365.22,-272.46 369.12,-262.61 359.92,-267.88 365.22,-272.46"/>
</a>
</g>
</g>
<!-- Node25 -->
<g id="Node000025" class="node">
<title>Node25</title>
<g id="a_Node000025"><a xlink:href="classcom_1_1runehive_1_1content_1_1dialogue_1_1_dialogue_factory.html#af92ab6d9ef2bae570cf81d843519e529" target="_top" xlink:title="Appends a StatementDialogue to the current dialogue chain.">
<ellipse fill="white" stroke="#666666" cx="393.44" cy="-424.81" rx="132.23" ry="25.81"/>
<text xml:space="preserve" text-anchor="start" x="307.94" y="-427.66" font-family="Helvetica,sans-Serif" font-size="12.00">com.runehive.content.dialogue.</text>
<text xml:space="preserve" text-anchor="middle" x="393.44" y="-413.41" font-family="Helvetica,sans-Serif" font-size="12.00">DialogueFactory.sendStatement</text>
</a>
</g>
</g>
<!-- Node1&#45;&gt;Node25 -->
<g id="edge29_Node000001_Node000025" class="edge">
<title>Node1&#45;&gt;Node25</title>
<g id="a_edge29_Node000001_Node000025"><a xlink:title=" ">
<path fill="none" stroke="#63b8ff" d="M157.79,-551.88C206.41,-525.55 284.62,-483.2 337.24,-454.7"/>
<polygon fill="#63b8ff" stroke="#63b8ff" points="338.62,-457.94 345.75,-450.1 335.29,-451.78 338.62,-457.94"/>
</a>
</g>
</g>
<!-- Node28 -->
<g id="Node000028" class="node">
<title>Node28</title>
<g id="a_Node000028"><a xlink:href="classcom_1_1runehive_1_1util_1_1generic_1_1_generic_attributes.html#ad348af5884f1b6ba48601a85e91a85ec" target="_top" xlink:title="Sets a generic attribute.">
<ellipse fill="white" stroke="#666666" cx="393.44" cy="-165.81" rx="107.83" ry="25.81"/>
<text xml:space="preserve" text-anchor="start" x="325.19" y="-168.66" font-family="Helvetica,sans-Serif" font-size="12.00">com.runehive.util.generic.</text>
<text xml:space="preserve" text-anchor="middle" x="393.44" y="-154.41" font-family="Helvetica,sans-Serif" font-size="12.00">GenericAttributes.set</text>
</a>
</g>
</g>
<!-- Node1&#45;&gt;Node28 -->
<g id="edge34_Node000001_Node000028" class="edge">
<title>Node1&#45;&gt;Node28</title>
<g id="a_edge34_Node000001_Node000028"><a xlink:title=" ">
<path fill="none" stroke="#63b8ff" d="M115.93,-549.96C123.47,-482 153.38,-296.97 261.21,-200.81 269.46,-193.45 279.09,-187.62 289.32,-182.99"/>
<polygon fill="#63b8ff" stroke="#63b8ff" points="290.37,-186.34 298.31,-179.33 287.73,-179.86 290.37,-186.34"/>
</a>
</g>
</g>
<!-- Node3 -->
<g id="Node000003" class="node">
<title>Node3</title>
<g id="a_Node000003"><a xlink:href="classcom_1_1runehive_1_1util_1_1_utility.html#a490026d68b72e2dea391680a7d49a844" target="_top" xlink:title="Formats digits for integers.">
<ellipse fill="white" stroke="#666666" cx="764.96" cy="-807.81" rx="123.74" ry="25.81"/>
<text xml:space="preserve" text-anchor="start" x="685.46" y="-810.66" font-family="Helvetica,sans-Serif" font-size="12.00">com.runehive.util.Utility.format</text>
<text xml:space="preserve" text-anchor="middle" x="764.96" y="-796.41" font-family="Helvetica,sans-Serif" font-size="12.00">Digits</text>
</a>
</g>
</g>
<!-- Node2&#45;&gt;Node3 -->
<g id="edge2_Node000002_Node000003" class="edge">
<title>Node2&#45;&gt;Node3</title>
<g id="a_edge2_Node000002_Node000003"><a xlink:title=" ">
<path fill="none" stroke="#63b8ff" d="M476.41,-755.56C503.51,-761.27 533.85,-767.49 561.67,-772.81 592.15,-778.63 625.29,-784.54 655.76,-789.81"/>
<polygon fill="#63b8ff" stroke="#63b8ff" points="654.92,-793.21 665.37,-791.46 656.11,-786.32 654.92,-793.21"/>
</a>
</g>
</g>
<!-- Node2&#45;&gt;Node4 -->
<g id="edge3_Node000002_Node000004" class="edge">
<title>Node2&#45;&gt;Node4</title>
<g id="a_edge3_Node000002_Node000004"><a xlink:title=" ">
<path fill="none" stroke="#63b8ff" d="M410.93,-763.56C437.51,-802.75 493.81,-876.64 561.67,-912.81 572.74,-918.71 584.59,-923.65 596.79,-927.78"/>
<polygon fill="#63b8ff" stroke="#63b8ff" points="595.57,-931.06 606.16,-930.75 597.68,-924.39 595.57,-931.06"/>
</a>
</g>
</g>
<!-- Node2&#45;&gt;Node6 -->
<g id="edge5_Node000002_Node000006" class="edge">
<title>Node2&#45;&gt;Node6</title>
<g id="a_edge5_Node000002_Node000006"><a xlink:title=" ">
<path fill="none" stroke="#63b8ff" d="M433.02,-762.29C481.31,-792.89 558.17,-841.47 561.67,-842.81 576.21,-848.38 591.67,-853.07 607.32,-857.01"/>
<polygon fill="#63b8ff" stroke="#63b8ff" points="606.16,-860.34 616.71,-859.27 607.8,-853.53 606.16,-860.34"/>
</a>
</g>
</g>
<!-- Node7 -->
<g id="Node000007" class="node">
<title>Node7</title>
<g id="a_Node000007"><a xlink:href="classcom_1_1runehive_1_1game_1_1world_1_1items_1_1_item.html#adc1c7b8e6620777606b083001f7d936a" target="_top" xlink:title=" ">
<ellipse fill="white" stroke="#666666" cx="764.96" cy="-667.81" rx="132.76" ry="25.81"/>
<text xml:space="preserve" text-anchor="start" x="679.09" y="-670.66" font-family="Helvetica,sans-Serif" font-size="12.00">com.runehive.game.world.items.</text>
<text xml:space="preserve" text-anchor="middle" x="764.96" y="-656.41" font-family="Helvetica,sans-Serif" font-size="12.00">Item.getName</text>
</a>
</g>
</g>
<!-- Node2&#45;&gt;Node7 -->
<g id="edge6_Node000002_Node000007" class="edge">
<title>Node2&#45;&gt;Node7</title>
<g id="a_edge6_Node000002_Node000007"><a xlink:title=" ">
<path fill="none" stroke="#63b8ff" d="M476.41,-720.06C503.51,-714.35 533.85,-708.13 561.67,-702.81 590.77,-697.25 622.31,-691.61 651.62,-686.53"/>
<polygon fill="#63b8ff" stroke="#63b8ff" points="651.99,-690.02 661.25,-684.87 650.8,-683.12 651.99,-690.02"/>
</a>
</g>
</g>
<!-- Node2&#45;&gt;Node12 -->
<g id="edge11_Node000002_Node000012" class="edge">
<title>Node2&#45;&gt;Node12</title>
<g id="a_edge11_Node000002_Node000012"><a xlink:title=" ">
<path fill="none" stroke="#63b8ff" d="M432.24,-713.19C465.88,-691.49 516.6,-659.29 561.67,-632.81 609.75,-604.56 665.36,-574.21 706.09,-552.4"/>
<polygon fill="#63b8ff" stroke="#63b8ff" points="707.6,-555.56 714.77,-547.76 704.3,-549.38 707.6,-555.56"/>
</a>
</g>
</g>
<!-- Node16 -->
<g id="Node000016" class="node">
<title>Node16</title>
<g id="a_Node000016"><a xlink:href="enumcom_1_1runehive_1_1game_1_1world_1_1entity_1_1mob_1_1npc_1_1drop_1_1_npc_drop_chance.html#a003825c6183b45624f19abc578cafec4" target="_top" xlink:title=" ">
<ellipse fill="white" stroke="#666666" cx="764.96" cy="-737.81" rx="185.79" ry="25.81"/>
<text xml:space="preserve" text-anchor="start" x="641.59" y="-740.66" font-family="Helvetica,sans-Serif" font-size="12.00">com.runehive.game.world.entity.mob.npc.drop.</text>
<text xml:space="preserve" text-anchor="middle" x="764.96" y="-726.41" font-family="Helvetica,sans-Serif" font-size="12.00">NpcDropChance.toString</text>
</a>
</g>
</g>
<!-- Node2&#45;&gt;Node16 -->
<g id="edge15_Node000002_Node000016" class="edge">
<title>Node2&#45;&gt;Node16</title>
<g id="a_edge15_Node000002_Node000016"><a xlink:title=" ">
<path fill="none" stroke="#63b8ff" d="M506.31,-737.81C525.76,-737.81 546.49,-737.81 567.42,-737.81"/>
<polygon fill="#63b8ff" stroke="#63b8ff" points="567.21,-741.31 577.21,-737.81 567.21,-734.31 567.21,-741.31"/>
</a>
</g>
</g>
<!-- Node5 -->
<g id="Node000005" class="node">
<title>Node5</title>
<g id="a_Node000005"><a xlink:href="classcom_1_1runehive_1_1game_1_1world_1_1entity_1_1mob_1_1npc_1_1definition_1_1_npc_definition.html#ae9d3f563077e84c47f706b986bf6b870" target="_top" xlink:title=" ">
<ellipse fill="white" stroke="#666666" cx="1207.55" cy="-947.81" rx="203.29" ry="25.81"/>
<text xml:space="preserve" text-anchor="start" x="1071.8" y="-950.66" font-family="Helvetica,sans-Serif" font-size="12.00">com.runehive.game.world.entity.mob.npc.definition.</text>
<text xml:space="preserve" text-anchor="middle" x="1207.55" y="-936.41" font-family="Helvetica,sans-Serif" font-size="12.00">NpcDefinition.NpcDefinition</text>
</a>
</g>
</g>
<!-- Node4&#45;&gt;Node5 -->
<g id="edge4_Node000004_Node000005" class="edge">
<title>Node4&#45;&gt;Node5</title>
<g id="a_edge4_Node000004_Node000005"><a xlink:title=" ">
<path fill="none" stroke="#63b8ff" d="M968.53,-947.81C976.52,-947.81 984.54,-947.81 992.54,-947.81"/>
<polygon fill="#63b8ff" stroke="#63b8ff" points="992.34,-951.31 1002.34,-947.81 992.34,-944.31 992.34,-951.31"/>
</a>
</g>
</g>
<!-- Node8 -->
<g id="Node000008" class="node">
<title>Node8</title>
<g id="a_Node000008"><a xlink:href="classcom_1_1runehive_1_1game_1_1world_1_1items_1_1_item.html#a5008cb760d4d688a1731e0406d29c335" target="_top" xlink:title="Gets the item definition for the item identifier.">
<ellipse fill="white" stroke="#666666" cx="1207.55" cy="-699.81" rx="132.76" ry="25.81"/>
<text xml:space="preserve" text-anchor="start" x="1121.68" y="-702.66" font-family="Helvetica,sans-Serif" font-size="12.00">com.runehive.game.world.items.</text>
<text xml:space="preserve" text-anchor="middle" x="1207.55" y="-688.41" font-family="Helvetica,sans-Serif" font-size="12.00">Item.getDefinition</text>
</a>
</g>
</g>
<!-- Node7&#45;&gt;Node8 -->
<g id="edge7_Node000007_Node000008" class="edge">
<title>Node7&#45;&gt;Node8</title>
<g id="a_edge7_Node000007_Node000008"><a xlink:title=" ">
<path fill="none" stroke="#63b8ff" d="M889.87,-676.81C946.3,-680.91 1013.24,-685.77 1071.01,-689.97"/>
<polygon fill="#63b8ff" stroke="#63b8ff" points="1070.7,-693.45 1080.93,-690.69 1071.21,-686.47 1070.7,-693.45"/>
</a>
</g>
</g>
<!-- Node7&#45;&gt;Node11 -->
<g id="edge10_Node000007_Node000011" class="edge">
<title>Node7&#45;&gt;Node11</title>
<g id="a_edge10_Node000007_Node000011"><a xlink:title=" ">
<path fill="none" stroke="#63b8ff" d="M887.23,-657.35C945.26,-652.35 1014.87,-646.34 1074.27,-641.22"/>
<polygon fill="#63b8ff" stroke="#63b8ff" points="1074.45,-644.72 1084.11,-640.37 1073.85,-637.74 1074.45,-644.72"/>
</a>
</g>
</g>
<!-- Node8&#45;&gt;Node9 -->
<g id="edge8_Node000008_Node000009" class="edge">
<title>Node8&#45;&gt;Node9</title>
<g id="a_edge8_Node000008_Node000009"><a xlink:title=" ">
<path fill="none" stroke="#63b8ff" d="M1315.72,-684.5C1373.2,-676.29 1444.16,-666.15 1503.26,-657.71"/>
<polygon fill="#63b8ff" stroke="#63b8ff" points="1503.63,-661.19 1513.03,-656.31 1502.64,-654.26 1503.63,-661.19"/>
</a>
</g>
</g>
<!-- Node10 -->
<g id="Node000010" class="node">
<title>Node10</title>
<g id="a_Node000010"><a xlink:href="classcom_1_1runehive_1_1game_1_1world_1_1items_1_1_item_definition.html#a4fafaf641c0490165d697a73006e76bf" target="_top" xlink:title=" ">
<ellipse fill="white" stroke="#666666" cx="1967.04" cy="-640.81" rx="132.76" ry="25.81"/>
<text xml:space="preserve" text-anchor="start" x="1881.16" y="-643.66" font-family="Helvetica,sans-Serif" font-size="12.00">com.runehive.game.world.items.</text>
<text xml:space="preserve" text-anchor="middle" x="1967.04" y="-629.41" font-family="Helvetica,sans-Serif" font-size="12.00">ItemDefinition.ItemDefinition</text>
</a>
</g>
</g>
<!-- Node9&#45;&gt;Node10 -->
<g id="edge9_Node000009_Node000010" class="edge">
<title>Node9&#45;&gt;Node10</title>
<g id="a_edge9_Node000009_Node000010"><a xlink:title=" ">
<path fill="none" stroke="#63b8ff" d="M1755.48,-640.81C1777.48,-640.81 1800.4,-640.81 1822.67,-640.81"/>
<polygon fill="#63b8ff" stroke="#63b8ff" points="1822.39,-644.31 1832.39,-640.81 1822.39,-637.31 1822.39,-644.31"/>
</a>
</g>
</g>
<!-- Node13 -->
<g id="Node000013" class="node">
<title>Node13</title>
<g id="a_Node000013"><a xlink:href="classcom_1_1runehive_1_1net_1_1packet_1_1_outgoing_packet.html#a3dde4d77b8c8bbd686b8e121fd6514a7" target="_top" xlink:title=" ">
<ellipse fill="white" stroke="#666666" cx="1207.55" cy="-521.81" rx="105.18" ry="25.81"/>
<text xml:space="preserve" text-anchor="start" x="1141.18" y="-524.66" font-family="Helvetica,sans-Serif" font-size="12.00">com.runehive.net.packet.</text>
<text xml:space="preserve" text-anchor="middle" x="1207.55" y="-510.41" font-family="Helvetica,sans-Serif" font-size="12.00">OutgoingPacket.execute</text>
</a>
</g>
</g>
<!-- Node12&#45;&gt;Node13 -->
<g id="edge12_Node000012_Node000013" class="edge">
<title>Node12&#45;&gt;Node13</title>
<g id="a_edge12_Node000012_Node000013"><a xlink:title=" ">
<path fill="none" stroke="#63b8ff" d="M941.05,-521.81C991.29,-521.81 1044.82,-521.81 1090.55,-521.81"/>
<polygon fill="#63b8ff" stroke="#63b8ff" points="1090.49,-525.31 1100.49,-521.81 1090.49,-518.31 1090.49,-525.31"/>
</a>
</g>
</g>
<!-- Node14 -->
<g id="Node000014" class="node">
<title>Node14</title>
<g id="a_Node000014"><a xlink:href="classcom_1_1runehive_1_1net_1_1packet_1_1_outgoing_packet.html#a74fc13c106ab76f87daec1e8bab6a2a1" target="_top" xlink:title=" ">
<ellipse fill="white" stroke="#666666" cx="1622.56" cy="-475.81" rx="105.18" ry="25.81"/>
<text xml:space="preserve" text-anchor="start" x="1556.19" y="-478.66" font-family="Helvetica,sans-Serif" font-size="12.00">com.runehive.net.packet.</text>
<text xml:space="preserve" text-anchor="middle" x="1622.56" y="-464.41" font-family="Helvetica,sans-Serif" font-size="12.00">OutgoingPacket.encode</text>
</a>
</g>
</g>
<!-- Node13&#45;&gt;Node14 -->
<g id="edge13_Node000013_Node000014" class="edge">
<title>Node13&#45;&gt;Node14</title>
<g id="a_edge13_Node000013_Node000014"><a xlink:title=" ">
<path fill="none" stroke="#63b8ff" d="M1304.08,-511.17C1367.15,-504.15 1449.85,-494.93 1515.04,-487.67"/>
<polygon fill="#63b8ff" stroke="#63b8ff" points="1515.12,-491.19 1524.67,-486.6 1514.34,-484.23 1515.12,-491.19"/>
</a>
</g>
</g>
<!-- Node15 -->
<g id="Node000015" class="node">
<title>Node15</title>
<g id="a_Node000015"><a xlink:href="classcom_1_1runehive_1_1game_1_1world_1_1entity_1_1mob_1_1player_1_1_player.html#a908fb61974719a74180d6300b838bfe1" target="_top" xlink:title=" ">
<ellipse fill="white" stroke="#666666" cx="1622.56" cy="-545.81" rx="175.72" ry="25.81"/>
<text xml:space="preserve" text-anchor="start" x="1506.31" y="-548.66" font-family="Helvetica,sans-Serif" font-size="12.00">com.runehive.game.world.entity.mob.player.</text>
<text xml:space="preserve" text-anchor="middle" x="1622.56" y="-534.41" font-family="Helvetica,sans-Serif" font-size="12.00">Player.getSession</text>
</a>
</g>
</g>
<!-- Node13&#45;&gt;Node15 -->
<g id="edge14_Node000013_Node000015" class="edge">
<title>Node13&#45;&gt;Node15</title>
<g id="a_edge14_Node000013_Node000015"><a xlink:title=" ">
<path fill="none" stroke="#63b8ff" d="M1310.38,-527.73C1351.64,-530.12 1400.49,-532.96 1447.1,-535.67"/>
<polygon fill="#63b8ff" stroke="#63b8ff" points="1446.88,-539.16 1457.07,-536.25 1447.29,-532.18 1446.88,-539.16"/>
</a>
</g>
</g>
<!-- Node17 -->
<g id="Node000017" class="node">
<title>Node17</title>
<g id="a_Node000017"><a xlink:href="classcom_1_1runehive_1_1util_1_1_utility.html#aee0a7bdbeff3436403f9d4192eff4455" target="_top" xlink:title="Formats name of enum.">
<ellipse fill="white" stroke="#666666" cx="1207.55" cy="-759.81" rx="146.02" ry="15.73"/>
<text xml:space="preserve" text-anchor="middle" x="1207.55" y="-755.53" font-family="Helvetica,sans-Serif" font-size="12.00">com.runehive.util.Utility.formatEnum</text>
</a>
</g>
</g>
<!-- Node16&#45;&gt;Node17 -->
<g id="edge16_Node000016_Node000017" class="edge">
<title>Node16&#45;&gt;Node17</title>
<g id="a_edge16_Node000016_Node000017"><a xlink:title=" ">
<path fill="none" stroke="#63b8ff" d="M940.41,-746.52C980.89,-748.54 1023.53,-750.67 1062.53,-752.62"/>
<polygon fill="#63b8ff" stroke="#63b8ff" points="1062.29,-756.11 1072.45,-753.11 1062.64,-749.12 1062.29,-756.11"/>
</a>
</g>
</g>
<!-- Node18 -->
<g id="Node000018" class="node">
<title>Node18</title>
<g id="a_Node000018"><a xlink:href="classcom_1_1runehive_1_1util_1_1_utility.html#a306c0370300580d03034da52e33e4db9" target="_top" xlink:title="Capitalize each letter after .">
<ellipse fill="white" stroke="#666666" cx="1622.56" cy="-759.81" rx="136.47" ry="25.81"/>
<text xml:space="preserve" text-anchor="start" x="1534.06" y="-762.66" font-family="Helvetica,sans-Serif" font-size="12.00">com.runehive.util.Utility.capitalize</text>
<text xml:space="preserve" text-anchor="middle" x="1622.56" y="-748.41" font-family="Helvetica,sans-Serif" font-size="12.00">Sentence</text>
</a>
</g>
</g>
<!-- Node17&#45;&gt;Node18 -->
<g id="edge17_Node000017_Node000018" class="edge">
<title>Node17&#45;&gt;Node18</title>
<g id="a_edge17_Node000017_Node000018"><a xlink:title=" ">
<path fill="none" stroke="#63b8ff" d="M1353.87,-759.81C1392.89,-759.81 1435.1,-759.81 1474.23,-759.81"/>
<polygon fill="#63b8ff" stroke="#63b8ff" points="1474.2,-763.31 1484.2,-759.81 1474.2,-756.31 1474.2,-763.31"/>
</a>
</g>
</g>
<!-- Node20 -->
<g id="Node000020" class="node">
<title>Node20</title>
<g id="a_Node000020"><a xlink:href="classcom_1_1runehive_1_1content_1_1dialogue_1_1_dialogue_factory.html#aec64ffdeed4c31dfe340a41430f50892" target="_top" xlink:title="Creates a new DialogueFactory.">
<ellipse fill="white" stroke="#666666" cx="1207.55" cy="-343.81" rx="138.06" ry="25.81"/>
<text xml:space="preserve" text-anchor="start" x="1117.93" y="-346.66" font-family="Helvetica,sans-Serif" font-size="12.00">com.runehive.content.dialogue.</text>
<text xml:space="preserve" text-anchor="middle" x="1207.55" y="-332.41" font-family="Helvetica,sans-Serif" font-size="12.00">DialogueFactory.DialogueFactory</text>
</a>
</g>
</g>
<!-- Node19&#45;&gt;Node20 -->
<g id="edge19_Node000019_Node000020" class="edge">
<title>Node19&#45;&gt;Node20</title>
<g id="a_edge19_Node000019_Node000020"><a xlink:title=" ">
<path fill="none" stroke="#63b8ff" d="M479.18,-255.48C505.5,-261.07 534.69,-266.74 561.67,-270.81 741.13,-297.89 788.06,-287.17 968.26,-308.81 1007.84,-313.56 1050.99,-319.63 1089.56,-325.37"/>
<polygon fill="#63b8ff" stroke="#63b8ff" points="1088.93,-328.82 1099.34,-326.84 1089.97,-321.9 1088.93,-328.82"/>
</a>
</g>
</g>
<!-- Node21 -->
<g id="Node000021" class="node">
<title>Node21</title>
<g id="a_Node000021"><a xlink:href="classcom_1_1runehive_1_1content_1_1dialogue_1_1_dialogue_factory.html#a5f56390c19e58a8e3390f46449e6c6cf" target="_top" xlink:title="Gets the current chain.">
<ellipse fill="white" stroke="#666666" cx="764.96" cy="-25.81" rx="129.05" ry="25.81"/>
<text xml:space="preserve" text-anchor="start" x="681.71" y="-28.66" font-family="Helvetica,sans-Serif" font-size="12.00">com.runehive.content.dialogue.</text>
<text xml:space="preserve" text-anchor="middle" x="764.96" y="-14.41" font-family="Helvetica,sans-Serif" font-size="12.00">DialogueFactory.getChain</text>
</a>
</g>
</g>
<!-- Node19&#45;&gt;Node21 -->
<g id="edge20_Node000019_Node000021" class="edge">
<title>Node19&#45;&gt;Node21</title>
<g id="a_edge20_Node000019_Node000021"><a xlink:title=" ">
<path fill="none" stroke="#63b8ff" d="M497.14,-220.26C507.71,-215.36 517.54,-209.02 525.67,-200.81 570.9,-155.18 514.45,-104.38 561.67,-60.81 579.2,-44.64 601.38,-34.53 624.59,-28.42"/>
<polygon fill="#63b8ff" stroke="#63b8ff" points="625.27,-31.85 634.2,-26.15 623.67,-25.04 625.27,-31.85"/>
</a>
</g>
</g>
<!-- Node22 -->
<g id="Node000022" class="node">
<title>Node22</title>
<g id="a_Node000022"><a xlink:href="classcom_1_1runehive_1_1content_1_1dialogue_1_1_dialogue_factory.html#a79b8587c2aac2f5cb6ef6f5e1069ab3f" target="_top" xlink:title="Gets the Optional describing the next action in the dialogue chain.">
<ellipse fill="white" stroke="#666666" cx="764.96" cy="-235.81" rx="129.05" ry="25.81"/>
<text xml:space="preserve" text-anchor="start" x="681.71" y="-238.66" font-family="Helvetica,sans-Serif" font-size="12.00">com.runehive.content.dialogue.</text>
<text xml:space="preserve" text-anchor="middle" x="764.96" y="-224.41" font-family="Helvetica,sans-Serif" font-size="12.00">DialogueFactory.getNextAction</text>
</a>
</g>
</g>
<!-- Node19&#45;&gt;Node22 -->
<g id="edge21_Node000019_Node000022" class="edge">
<title>Node19&#45;&gt;Node22</title>
<g id="a_edge21_Node000019_Node000022"><a xlink:title=" ">
<path fill="none" stroke="#63b8ff" d="M522.91,-235.81C555.67,-235.81 591.04,-235.81 624.33,-235.81"/>
<polygon fill="#63b8ff" stroke="#63b8ff" points="624.02,-239.31 634.02,-235.81 624.02,-232.31 624.02,-239.31"/>
</a>
</g>
</g>
<!-- Node23 -->
<g id="Node000023" class="node">
<title>Node23</title>
<g id="a_Node000023"><a xlink:href="classcom_1_1runehive_1_1content_1_1dialogue_1_1_dialogue_factory.html#a6ce434d7d06968060ccb0f0a624358ee" target="_top" xlink:title=" ">
<ellipse fill="white" stroke="#666666" cx="764.96" cy="-165.81" rx="129.05" ry="25.81"/>
<text xml:space="preserve" text-anchor="start" x="681.71" y="-168.66" font-family="Helvetica,sans-Serif" font-size="12.00">com.runehive.content.dialogue.</text>
<text xml:space="preserve" text-anchor="middle" x="764.96" y="-154.41" font-family="Helvetica,sans-Serif" font-size="12.00">DialogueFactory.setActive</text>
</a>
</g>
</g>
<!-- Node19&#45;&gt;Node23 -->
<g id="edge22_Node000019_Node000023" class="edge">
<title>Node19&#45;&gt;Node23</title>
<g id="a_edge22_Node000019_Node000023"><a xlink:title=" ">
<path fill="none" stroke="#63b8ff" d="M482.42,-216.79C507.94,-211.44 535.89,-205.74 561.67,-200.81 591.24,-195.16 623.32,-189.43 653.03,-184.28"/>
<polygon fill="#63b8ff" stroke="#63b8ff" points="653.54,-187.75 662.8,-182.6 652.35,-180.85 653.54,-187.75"/>
</a>
</g>
</g>
<!-- Node24 -->
<g id="Node000024" class="node">
<title>Node24</title>
<g id="a_Node000024"><a xlink:href="classcom_1_1runehive_1_1content_1_1dialogue_1_1_dialogue_factory.html#a0b658967f161f2b4d870c947ae7851cb" target="_top" xlink:title="Sets the next action in the dialogue chain.">
<ellipse fill="white" stroke="#666666" cx="764.96" cy="-95.81" rx="129.05" ry="25.81"/>
<text xml:space="preserve" text-anchor="start" x="681.71" y="-98.66" font-family="Helvetica,sans-Serif" font-size="12.00">com.runehive.content.dialogue.</text>
<text xml:space="preserve" text-anchor="middle" x="764.96" y="-84.41" font-family="Helvetica,sans-Serif" font-size="12.00">DialogueFactory.setNextAction</text>
</a>
</g>
</g>
<!-- Node19&#45;&gt;Node24 -->
<g id="edge23_Node000019_Node000024" class="edge">
<title>Node19&#45;&gt;Node24</title>
<g id="a_edge23_Node000019_Node000024"><a xlink:title=" ">
<path fill="none" stroke="#63b8ff" d="M493.44,-219.21C505.04,-214.51 516.12,-208.5 525.67,-200.81 552.91,-178.86 533.48,-151.52 561.67,-130.81 580.52,-116.97 602.99,-107.92 625.99,-102.12"/>
<polygon fill="#63b8ff" stroke="#63b8ff" points="626.51,-105.59 635.48,-99.94 624.95,-98.77 626.51,-105.59"/>
</a>
</g>
</g>
<!-- Node25&#45;&gt;Node20 -->
<g id="edge32_Node000025_Node000020" class="edge">
<title>Node25&#45;&gt;Node20</title>
<g id="a_edge32_Node000025_Node000020"><a xlink:title=" ">
<path fill="none" stroke="#63b8ff" d="M520.32,-417.11C636.74,-409.42 814.46,-396.25 968.26,-378.81 1008.15,-374.29 1051.64,-368.23 1090.42,-362.43"/>
<polygon fill="#63b8ff" stroke="#63b8ff" points="1090.9,-365.9 1100.26,-360.95 1089.85,-358.98 1090.9,-365.9"/>
</a>
</g>
</g>
<!-- Node26 -->
<g id="Node000026" class="node">
<title>Node26</title>
<g id="a_Node000026"><a xlink:href="classcom_1_1runehive_1_1content_1_1dialogue_1_1_dialogue_factory.html#a8979431ba1fa2913a9ed65bbf8e4dd3f" target="_top" xlink:title="Appends a chain to this factory.">
<ellipse fill="white" stroke="#666666" cx="764.96" cy="-343.81" rx="129.05" ry="25.81"/>
<text xml:space="preserve" text-anchor="start" x="681.71" y="-346.66" font-family="Helvetica,sans-Serif" font-size="12.00">com.runehive.content.dialogue.</text>
<text xml:space="preserve" text-anchor="middle" x="764.96" y="-332.41" font-family="Helvetica,sans-Serif" font-size="12.00">DialogueFactory.append</text>
</a>
</g>
</g>
<!-- Node25&#45;&gt;Node26 -->
<g id="edge30_Node000025_Node000026" class="edge">
<title>Node25&#45;&gt;Node26</title>
<g id="a_edge30_Node000025_Node000026"><a xlink:title=" ">
<path fill="none" stroke="#63b8ff" d="M475.5,-404.15C502.81,-397.4 533.51,-390.04 561.67,-383.81 593.1,-376.85 627.4,-369.85 658.68,-363.69"/>
<polygon fill="#63b8ff" stroke="#63b8ff" points="658.98,-367.2 668.12,-361.84 657.64,-360.33 658.98,-367.2"/>
</a>
</g>
</g>
<!-- Node27 -->
<g id="Node000027" class="node">
<title>Node27</title>
<g id="a_Node000027"><a xlink:href="classcom_1_1runehive_1_1content_1_1dialogue_1_1_dialogue_factory.html#ab2aefcffbd4c555eebf5439f4c437d25" target="_top" xlink:title="The method that validates the length of text.">
<ellipse fill="white" stroke="#666666" cx="764.96" cy="-451.81" rx="131.17" ry="25.81"/>
<text xml:space="preserve" text-anchor="start" x="680.21" y="-454.66" font-family="Helvetica,sans-Serif" font-size="12.00">com.runehive.content.dialogue.</text>
<text xml:space="preserve" text-anchor="middle" x="764.96" y="-440.41" font-family="Helvetica,sans-Serif" font-size="12.00">DialogueFactory.validateLength</text>
</a>
</g>
</g>
<!-- Node25&#45;&gt;Node27 -->
<g id="edge33_Node000025_Node000027" class="edge">
<title>Node25&#45;&gt;Node27</title>
<g id="a_edge33_Node000025_Node000027"><a xlink:title=" ">
<path fill="none" stroke="#63b8ff" d="M518,-433.84C554.03,-436.47 593.57,-439.36 630.2,-442.04"/>
<polygon fill="#63b8ff" stroke="#63b8ff" points="629.73,-445.51 639.96,-442.75 630.24,-438.53 629.73,-445.51"/>
</a>
</g>
</g>
<!-- Node26&#45;&gt;Node20 -->
<g id="edge31_Node000026_Node000020" class="edge">
<title>Node26&#45;&gt;Node20</title>
<g id="a_edge31_Node000026_Node000020"><a xlink:title=" ">
<path fill="none" stroke="#63b8ff" d="M894.29,-343.81C945.52,-343.81 1004.83,-343.81 1057.91,-343.81"/>
<polygon fill="#63b8ff" stroke="#63b8ff" points="1057.63,-347.31 1067.63,-343.81 1057.63,-340.31 1057.63,-347.31"/>
</a>
</g>
</g>
</g>
</svg>
