<?xml version="1.0" encoding="UTF-8" standalone="no"?>
<!DOCTYPE svg PUBLIC "-//W3C//DTD SVG 1.1//EN"
 "http://www.w3.org/Graphics/SVG/1.1/DTD/svg11.dtd">
<!-- Generated by graphviz version 14.0.1 (20251006.0113)
 -->
<!-- Title: com.runehive.game.world.object.CustomGameObject.register Pages: 1 -->
<svg width="1650pt" height="725pt"
 viewBox="0.00 0.00 1650.00 725.00" xmlns="http://www.w3.org/2000/svg" xmlns:xlink="http://www.w3.org/1999/xlink">
<g id="graph0" class="graph" transform="scale(1 1) rotate(0) translate(4 720.62)">
<title>com.runehive.game.world.object.CustomGameObject.register</title>
<!-- Node1 -->
<g id="Node000001" class="node">
<title>Node1</title>
<g id="a_Node000001"><a xlink:title="Registers an entity to the World.">
<ellipse fill="#999999" stroke="#666666" cx="135.41" cy="-321.81" rx="135.41" ry="25.81"/>
<text xml:space="preserve" text-anchor="start" x="47.66" y="-324.66" font-family="Helvetica,sans-Serif" font-size="12.00">com.runehive.game.world.object.</text>
<text xml:space="preserve" text-anchor="middle" x="135.41" y="-310.41" font-family="Helvetica,sans-Serif" font-size="12.00">CustomGameObject.register</text>
</a>
</g>
</g>
<!-- Node2 -->
<g id="Node000002" class="node">
<title>Node2</title>
<g id="a_Node000002"><a xlink:href="classcom_1_1runehive_1_1game_1_1world_1_1object_1_1_custom_game_object.html#a45a65871c476e31b5f733d6a132bf738" target="_top" xlink:title="Adds this entity to the specified region.">
<ellipse fill="white" stroke="#666666" cx="447.54" cy="-375.81" rx="140.71" ry="25.81"/>
<text xml:space="preserve" text-anchor="start" x="356.04" y="-378.66" font-family="Helvetica,sans-Serif" font-size="12.00">com.runehive.game.world.object.</text>
<text xml:space="preserve" text-anchor="middle" x="447.54" y="-364.41" font-family="Helvetica,sans-Serif" font-size="12.00">CustomGameObject.addToRegion</text>
</a>
</g>
</g>
<!-- Node1&#45;&gt;Node2 -->
<g id="edge1_Node000001_Node000002" class="edge">
<title>Node1&#45;&gt;Node2</title>
<g id="a_edge1_Node000001_Node000002"><a xlink:title=" ">
<path fill="none" stroke="#63b8ff" d="M236.67,-339.27C267.38,-344.61 301.38,-350.54 332.92,-356.03"/>
<polygon fill="#63b8ff" stroke="#63b8ff" points="332.02,-359.42 342.47,-357.69 333.22,-352.53 332.02,-359.42"/>
</a>
</g>
</g>
<!-- Node7 -->
<g id="Node000007" class="node">
<title>Node7</title>
<g id="a_Node000007"><a xlink:href="classcom_1_1runehive_1_1game_1_1world_1_1entity_1_1_entity.html#a561452a2370cad1b551c6f717121ab31" target="_top" xlink:title=" ">
<ellipse fill="white" stroke="#666666" cx="788.3" cy="-550.81" rx="132.23" ry="25.81"/>
<text xml:space="preserve" text-anchor="start" x="702.8" y="-553.66" font-family="Helvetica,sans-Serif" font-size="12.00">com.runehive.game.world.entity.</text>
<text xml:space="preserve" text-anchor="middle" x="788.3" y="-539.41" font-family="Helvetica,sans-Serif" font-size="12.00">Entity.getHeight</text>
</a>
</g>
</g>
<!-- Node1&#45;&gt;Node7 -->
<g id="edge22_Node000001_Node000007" class="edge">
<title>Node1&#45;&gt;Node7</title>
<g id="a_edge22_Node000001_Node000007"><a xlink:title=" ">
<path fill="none" stroke="#63b8ff" d="M179.25,-346.66C213.17,-365.72 262.1,-391.88 306.82,-410.81 443.67,-468.73 480.86,-476.83 624.25,-515.81 642.9,-520.88 662.92,-525.69 682.31,-530.02"/>
<polygon fill="#63b8ff" stroke="#63b8ff" points="681.33,-533.39 691.85,-532.12 682.84,-526.55 681.33,-533.39"/>
</a>
</g>
</g>
<!-- Node9 -->
<g id="Node000009" class="node">
<title>Node9</title>
<g id="a_Node000009"><a xlink:href="classcom_1_1runehive_1_1game_1_1world_1_1entity_1_1_entity.html#a8afdd0de68f242bf7082076dfbfffe37" target="_top" xlink:title=" ">
<ellipse fill="white" stroke="#666666" cx="788.3" cy="-130.81" rx="132.23" ry="25.81"/>
<text xml:space="preserve" text-anchor="start" x="702.8" y="-133.66" font-family="Helvetica,sans-Serif" font-size="12.00">com.runehive.game.world.entity.</text>
<text xml:space="preserve" text-anchor="middle" x="788.3" y="-119.41" font-family="Helvetica,sans-Serif" font-size="12.00">Entity.getPosition</text>
</a>
</g>
</g>
<!-- Node1&#45;&gt;Node9 -->
<g id="edge23_Node000001_Node000009" class="edge">
<title>Node1&#45;&gt;Node9</title>
<g id="a_edge23_Node000001_Node000009"><a xlink:title=" ">
<path fill="none" stroke="#63b8ff" d="M259.56,-332.47C375.83,-339.79 539.44,-342.11 588.25,-302.81 637.29,-263.32 578.73,-209.3 624.25,-165.81 633.4,-157.07 644.17,-150.29 655.75,-145.06"/>
<polygon fill="#63b8ff" stroke="#63b8ff" points="656.77,-148.43 664.72,-141.43 654.13,-141.95 656.77,-148.43"/>
</a>
</g>
</g>
<!-- Node21 -->
<g id="Node000021" class="node">
<title>Node21</title>
<g id="a_Node000021"><a xlink:href="classcom_1_1runehive_1_1game_1_1world_1_1entity_1_1_entity.html#a119860ba3aeba7613256edf5fa337efe" target="_top" xlink:title=" ">
<ellipse fill="white" stroke="#666666" cx="447.54" cy="-267.81" rx="132.23" ry="25.81"/>
<text xml:space="preserve" text-anchor="start" x="362.04" y="-270.66" font-family="Helvetica,sans-Serif" font-size="12.00">com.runehive.game.world.entity.</text>
<text xml:space="preserve" text-anchor="middle" x="447.54" y="-256.41" font-family="Helvetica,sans-Serif" font-size="12.00">Entity.getRegion</text>
</a>
</g>
</g>
<!-- Node1&#45;&gt;Node21 -->
<g id="edge24_Node000001_Node000021" class="edge">
<title>Node1&#45;&gt;Node21</title>
<g id="a_edge24_Node000001_Node000021"><a xlink:title=" ">
<path fill="none" stroke="#63b8ff" d="M236.67,-304.35C268.41,-298.83 303.67,-292.69 336.08,-287.04"/>
<polygon fill="#63b8ff" stroke="#63b8ff" points="336.67,-290.49 345.92,-285.33 335.47,-283.6 336.67,-290.49"/>
</a>
</g>
</g>
<!-- Node22 -->
<g id="Node000022" class="node">
<title>Node22</title>
<g id="a_Node000022"><a xlink:href="classcom_1_1runehive_1_1game_1_1world_1_1entity_1_1_entity.html#a6fbe05d5095666dd6a6ce87d3176c8dc" target="_top" xlink:title=" ">
<ellipse fill="white" stroke="#666666" cx="447.54" cy="-197.81" rx="132.23" ry="25.81"/>
<text xml:space="preserve" text-anchor="start" x="362.04" y="-200.66" font-family="Helvetica,sans-Serif" font-size="12.00">com.runehive.game.world.entity.</text>
<text xml:space="preserve" text-anchor="middle" x="447.54" y="-186.41" font-family="Helvetica,sans-Serif" font-size="12.00">Entity.isRegistered</text>
</a>
</g>
</g>
<!-- Node1&#45;&gt;Node22 -->
<g id="edge25_Node000001_Node000022" class="edge">
<title>Node1&#45;&gt;Node22</title>
<g id="a_edge25_Node000001_Node000022"><a xlink:title=" ">
<path fill="none" stroke="#63b8ff" d="M177.5,-296.83C211.24,-277.19 260.81,-250.31 306.82,-232.81 319.36,-228.04 332.78,-223.73 346.17,-219.9"/>
<polygon fill="#63b8ff" stroke="#63b8ff" points="346.71,-223.38 355.41,-217.34 344.84,-216.64 346.71,-223.38"/>
</a>
</g>
</g>
<!-- Node23 -->
<g id="Node000023" class="node">
<title>Node23</title>
<g id="a_Node000023"><a xlink:href="classcom_1_1runehive_1_1game_1_1world_1_1entity_1_1_entity.html#afdf83a2e020bbacd7b805a8823fe662b" target="_top" xlink:title=" ">
<ellipse fill="white" stroke="#666666" cx="447.54" cy="-585.81" rx="132.23" ry="25.81"/>
<text xml:space="preserve" text-anchor="start" x="362.04" y="-588.66" font-family="Helvetica,sans-Serif" font-size="12.00">com.runehive.game.world.entity.</text>
<text xml:space="preserve" text-anchor="middle" x="447.54" y="-574.41" font-family="Helvetica,sans-Serif" font-size="12.00">Entity.setPosition</text>
</a>
</g>
</g>
<!-- Node1&#45;&gt;Node23 -->
<g id="edge26_Node000001_Node000023" class="edge">
<title>Node1&#45;&gt;Node23</title>
<g id="a_edge26_Node000001_Node000023"><a xlink:title=" ">
<path fill="none" stroke="#63b8ff" d="M151.54,-347.74C177.95,-390.99 236.43,-478.18 306.82,-529.81 323.45,-542 343.09,-552 362.32,-559.99"/>
<polygon fill="#63b8ff" stroke="#63b8ff" points="360.94,-563.21 371.53,-563.67 363.54,-556.71 360.94,-563.21"/>
</a>
</g>
</g>
<!-- Node26 -->
<g id="Node000026" class="node">
<title>Node26</title>
<g id="a_Node000026"><a xlink:href="classcom_1_1runehive_1_1game_1_1world_1_1entity_1_1_entity.html#a34b9b877cdc7ee49b14d42b45ef38d22" target="_top" xlink:title=" ">
<ellipse fill="white" stroke="#666666" cx="447.54" cy="-127.81" rx="132.23" ry="25.81"/>
<text xml:space="preserve" text-anchor="start" x="362.04" y="-130.66" font-family="Helvetica,sans-Serif" font-size="12.00">com.runehive.game.world.entity.</text>
<text xml:space="preserve" text-anchor="middle" x="447.54" y="-116.41" font-family="Helvetica,sans-Serif" font-size="12.00">Entity.setRegistered</text>
</a>
</g>
</g>
<!-- Node1&#45;&gt;Node26 -->
<g id="edge30_Node000001_Node000026" class="edge">
<title>Node1&#45;&gt;Node26</title>
<g id="a_edge30_Node000001_Node000026"><a xlink:title=" ">
<path fill="none" stroke="#63b8ff" d="M156.61,-296.11C185.88,-260.65 243.55,-197.22 306.82,-162.81 316.81,-157.38 327.66,-152.77 338.74,-148.87"/>
<polygon fill="#63b8ff" stroke="#63b8ff" points="339.59,-152.27 347.99,-145.81 337.4,-145.63 339.59,-152.27"/>
</a>
</g>
</g>
<!-- Node3 -->
<g id="Node000003" class="node">
<title>Node3</title>
<g id="a_Node000003"><a xlink:href="classcom_1_1runehive_1_1game_1_1world_1_1region_1_1_region.html#a04dffe98ee5a4d758d8b96c69f65791f" target="_top" xlink:title=" ">
<ellipse fill="white" stroke="#666666" cx="788.3" cy="-200.81" rx="136.47" ry="25.81"/>
<text xml:space="preserve" text-anchor="start" x="699.8" y="-203.66" font-family="Helvetica,sans-Serif" font-size="12.00">com.runehive.game.world.region.</text>
<text xml:space="preserve" text-anchor="middle" x="788.3" y="-189.41" font-family="Helvetica,sans-Serif" font-size="12.00">Region.containsObject</text>
</a>
</g>
</g>
<!-- Node2&#45;&gt;Node3 -->
<g id="edge2_Node000002_Node000003" class="edge">
<title>Node2&#45;&gt;Node3</title>
<g id="a_edge2_Node000002_Node000003"><a xlink:title=" ">
<path fill="none" stroke="#63b8ff" d="M552.58,-358.24C565.67,-352.67 578.02,-345.38 588.25,-335.81 622.75,-303.54 588.69,-266.9 624.25,-235.81 633.43,-227.79 644,-221.45 655.26,-216.48"/>
<polygon fill="#63b8ff" stroke="#63b8ff" points="656.37,-219.8 664.36,-212.84 653.78,-213.3 656.37,-219.8"/>
</a>
</g>
</g>
<!-- Node2&#45;&gt;Node7 -->
<g id="edge6_Node000002_Node000007" class="edge">
<title>Node2&#45;&gt;Node7</title>
<g id="a_edge6_Node000002_Node000007"><a xlink:title=" ">
<path fill="none" stroke="#63b8ff" d="M473.01,-401.59C504.8,-433.46 563.44,-487.02 624.25,-515.81 638.6,-522.6 654.29,-528.09 670.08,-532.52"/>
<polygon fill="#63b8ff" stroke="#63b8ff" points="668.98,-535.85 679.55,-535.04 670.78,-529.09 668.98,-535.85"/>
</a>
</g>
</g>
<!-- Node8 -->
<g id="Node000008" class="node">
<title>Node8</title>
<g id="a_Node000008"><a xlink:href="classcom_1_1runehive_1_1game_1_1world_1_1object_1_1_custom_game_object.html#a15330c18465489c1c95c98f0e83625e9" target="_top" xlink:title=" ">
<ellipse fill="white" stroke="#666666" cx="788.3" cy="-480.81" rx="162.99" ry="25.81"/>
<text xml:space="preserve" text-anchor="start" x="681.05" y="-483.66" font-family="Helvetica,sans-Serif" font-size="12.00">com.runehive.game.world.object.</text>
<text xml:space="preserve" text-anchor="middle" x="788.3" y="-469.41" font-family="Helvetica,sans-Serif" font-size="12.00">CustomGameObject.getInstancedHeight</text>
</a>
</g>
</g>
<!-- Node2&#45;&gt;Node8 -->
<g id="edge7_Node000002_Node000008" class="edge">
<title>Node2&#45;&gt;Node8</title>
<g id="a_edge7_Node000002_Node000008"><a xlink:title=" ">
<path fill="none" stroke="#63b8ff" d="M502.31,-399.96C536.67,-414.7 582.47,-433.1 624.25,-445.81 639.22,-450.36 655.13,-454.55 670.92,-458.33"/>
<polygon fill="#63b8ff" stroke="#63b8ff" points="669.81,-461.66 680.35,-460.53 671.41,-454.85 669.81,-461.66"/>
</a>
</g>
</g>
<!-- Node2&#45;&gt;Node9 -->
<g id="edge8_Node000002_Node000009" class="edge">
<title>Node2&#45;&gt;Node9</title>
<g id="a_edge8_Node000002_Node000009"><a xlink:title=" ">
<path fill="none" stroke="#63b8ff" d="M555.22,-358.85C567.59,-353.18 579.05,-345.68 588.25,-335.81 640.91,-279.32 569.72,-220.5 624.25,-165.81 633.02,-157.02 643.42,-150.19 654.66,-144.92"/>
<polygon fill="#63b8ff" stroke="#63b8ff" points="655.94,-148.18 663.81,-141.08 653.23,-141.72 655.94,-148.18"/>
</a>
</g>
</g>
<!-- Node10 -->
<g id="Node000010" class="node">
<title>Node10</title>
<g id="a_Node000010"><a xlink:href="classcom_1_1runehive_1_1game_1_1world_1_1_world.html#af3702492a0bfe700e150763e8e976efe" target="_top" xlink:title=" ">
<ellipse fill="white" stroke="#666666" cx="788.3" cy="-410.81" rx="110.49" ry="25.81"/>
<text xml:space="preserve" text-anchor="start" x="718.17" y="-413.66" font-family="Helvetica,sans-Serif" font-size="12.00">com.runehive.game.world.</text>
<text xml:space="preserve" text-anchor="middle" x="788.3" y="-399.41" font-family="Helvetica,sans-Serif" font-size="12.00">World.getRegions</text>
</a>
</g>
</g>
<!-- Node2&#45;&gt;Node10 -->
<g id="edge9_Node000002_Node000010" class="edge">
<title>Node2&#45;&gt;Node10</title>
<g id="a_edge9_Node000002_Node000010"><a xlink:title=" ">
<path fill="none" stroke="#63b8ff" d="M570.84,-388.45C604.98,-391.97 641.89,-395.79 675.4,-399.25"/>
<polygon fill="#63b8ff" stroke="#63b8ff" points="674.81,-402.71 685.11,-400.25 675.53,-395.74 674.81,-402.71"/>
</a>
</g>
</g>
<!-- Node11 -->
<g id="Node000011" class="node">
<title>Node11</title>
<g id="a_Node000011"><a xlink:href="classcom_1_1runehive_1_1game_1_1world_1_1region_1_1_region_manager.html#af7f277787498291d1a833af5ece5a0e8" target="_top" xlink:title="Gets the regions surrounding a position.">
<ellipse fill="white" stroke="#666666" cx="788.3" cy="-340.81" rx="164.05" ry="25.81"/>
<text xml:space="preserve" text-anchor="start" x="680.3" y="-343.66" font-family="Helvetica,sans-Serif" font-size="12.00">com.runehive.game.world.region.</text>
<text xml:space="preserve" text-anchor="middle" x="788.3" y="-329.41" font-family="Helvetica,sans-Serif" font-size="12.00">RegionManager.getSurroundingRegions</text>
</a>
</g>
</g>
<!-- Node2&#45;&gt;Node11 -->
<g id="edge10_Node000002_Node000011" class="edge">
<title>Node2&#45;&gt;Node11</title>
<g id="a_edge10_Node000002_Node000011"><a xlink:title=" ">
<path fill="none" stroke="#63b8ff" d="M570.84,-363.17C592.81,-360.9 615.92,-358.52 638.54,-356.18"/>
<polygon fill="#63b8ff" stroke="#63b8ff" points="638.86,-359.66 648.45,-355.16 638.14,-352.7 638.86,-359.66"/>
</a>
</g>
</g>
<!-- Node16 -->
<g id="Node000016" class="node">
<title>Node16</title>
<g id="a_Node000016"><a xlink:href="classcom_1_1runehive_1_1game_1_1world_1_1pathfinding_1_1_traversal_map.html#a2af790bd2ef1961ce45530ec8fd5ddd3" target="_top" xlink:title="Marks a GameObject with the specified attributes on the specified Position to the TraversalMap.">
<ellipse fill="white" stroke="#666666" cx="788.3" cy="-270.81" rx="154.5" ry="25.81"/>
<text xml:space="preserve" text-anchor="start" x="687.05" y="-273.66" font-family="Helvetica,sans-Serif" font-size="12.00">com.runehive.game.world.pathfinding.</text>
<text xml:space="preserve" text-anchor="middle" x="788.3" y="-259.41" font-family="Helvetica,sans-Serif" font-size="12.00">TraversalMap.markObject</text>
</a>
</g>
</g>
<!-- Node2&#45;&gt;Node16 -->
<g id="edge16_Node000002_Node000016" class="edge">
<title>Node2&#45;&gt;Node16</title>
<g id="a_edge16_Node000002_Node000016"><a xlink:title=" ">
<path fill="none" stroke="#63b8ff" d="M539.01,-355.88C555.87,-350.52 572.98,-343.89 588.25,-335.81 606.66,-326.07 605.52,-314.93 624.25,-305.81 635.94,-300.12 648.55,-295.34 661.4,-291.34"/>
<polygon fill="#63b8ff" stroke="#63b8ff" points="662.17,-294.76 670.78,-288.59 660.2,-288.05 662.17,-294.76"/>
</a>
</g>
</g>
<!-- Node4 -->
<g id="Node000004" class="node">
<title>Node4</title>
<g id="a_Node000004"><a xlink:href="classcom_1_1runehive_1_1game_1_1world_1_1region_1_1_region_block.html#afc101f7d38ea300345b4223dc446b9fa" target="_top" xlink:title=" ">
<ellipse fill="white" stroke="#666666" cx="1142.85" cy="-95.81" rx="136.47" ry="25.81"/>
<text xml:space="preserve" text-anchor="start" x="1054.35" y="-98.66" font-family="Helvetica,sans-Serif" font-size="12.00">com.runehive.game.world.region.</text>
<text xml:space="preserve" text-anchor="middle" x="1142.85" y="-84.41" font-family="Helvetica,sans-Serif" font-size="12.00">RegionBlock.containsObject</text>
</a>
</g>
</g>
<!-- Node3&#45;&gt;Node4 -->
<g id="edge3_Node000003_Node000004" class="edge">
<title>Node3&#45;&gt;Node4</title>
<g id="a_edge3_Node000003_Node000004"><a xlink:title=" ">
<path fill="none" stroke="#63b8ff" d="M900.16,-185.8C918.23,-180.91 936.27,-174.42 952.35,-165.81 972.02,-155.28 968.74,-141.46 988.35,-130.81 999.7,-124.64 1012.09,-119.56 1024.75,-115.37"/>
<polygon fill="#63b8ff" stroke="#63b8ff" points="1025.48,-118.81 1033.99,-112.5 1023.4,-112.12 1025.48,-118.81"/>
</a>
</g>
</g>
<!-- Node6 -->
<g id="Node000006" class="node">
<title>Node6</title>
<g id="a_Node000006"><a xlink:href="classcom_1_1runehive_1_1game_1_1world_1_1region_1_1_region.html#a1f0b74f12f68256ec8da477a64a1482c" target="_top" xlink:title=" ">
<ellipse fill="white" stroke="#666666" cx="1142.85" cy="-25.81" rx="136.47" ry="25.81"/>
<text xml:space="preserve" text-anchor="start" x="1054.35" y="-28.66" font-family="Helvetica,sans-Serif" font-size="12.00">com.runehive.game.world.region.</text>
<text xml:space="preserve" text-anchor="middle" x="1142.85" y="-14.41" font-family="Helvetica,sans-Serif" font-size="12.00">Region.getBlock</text>
</a>
</g>
</g>
<!-- Node3&#45;&gt;Node6 -->
<g id="edge5_Node000003_Node000006" class="edge">
<title>Node3&#45;&gt;Node6</title>
<g id="a_edge5_Node000003_Node000006"><a xlink:title=" ">
<path fill="none" stroke="#63b8ff" d="M911.39,-189.36C926.38,-183.89 940.55,-176.28 952.35,-165.81 989.24,-133.06 951.66,-93.79 988.35,-60.81 996.11,-53.83 1004.97,-48.15 1014.43,-43.55"/>
<polygon fill="#63b8ff" stroke="#63b8ff" points="1015.77,-46.78 1023.52,-39.57 1012.96,-40.37 1015.77,-46.78"/>
</a>
</g>
</g>
<!-- Node5 -->
<g id="Node000005" class="node">
<title>Node5</title>
<g id="a_Node000005"><a xlink:href="classcom_1_1runehive_1_1game_1_1world_1_1region_1_1_region_block.html#a1ee4e51dfd0c6a0be0135543c5b674e5" target="_top" xlink:title=" ">
<ellipse fill="white" stroke="#666666" cx="1487.86" cy="-95.81" rx="136.47" ry="25.81"/>
<text xml:space="preserve" text-anchor="start" x="1399.36" y="-98.66" font-family="Helvetica,sans-Serif" font-size="12.00">com.runehive.game.world.region.</text>
<text xml:space="preserve" text-anchor="middle" x="1487.86" y="-84.41" font-family="Helvetica,sans-Serif" font-size="12.00">RegionBlock.getObjects</text>
</a>
</g>
</g>
<!-- Node4&#45;&gt;Node5 -->
<g id="edge4_Node000004_Node000005" class="edge">
<title>Node4&#45;&gt;Node5</title>
<g id="a_edge4_Node000004_Node000005"><a xlink:title=" ">
<path fill="none" stroke="#63b8ff" d="M1279.42,-95.81C1299.23,-95.81 1319.72,-95.81 1339.75,-95.81"/>
<polygon fill="#63b8ff" stroke="#63b8ff" points="1339.64,-99.31 1349.64,-95.81 1339.64,-92.31 1339.64,-99.31"/>
</a>
</g>
</g>
<!-- Node12 -->
<g id="Node000012" class="node">
<title>Node12</title>
<g id="a_Node000012"><a xlink:href="classcom_1_1runehive_1_1game_1_1world_1_1region_1_1_region_manager.html#a47cc7e1ea2d7610c5d496d5b659c7d53" target="_top" xlink:title="Gets a region by position.">
<ellipse fill="white" stroke="#666666" cx="1142.85" cy="-375.81" rx="136.47" ry="25.81"/>
<text xml:space="preserve" text-anchor="start" x="1054.35" y="-378.66" font-family="Helvetica,sans-Serif" font-size="12.00">com.runehive.game.world.region.</text>
<text xml:space="preserve" text-anchor="middle" x="1142.85" y="-364.41" font-family="Helvetica,sans-Serif" font-size="12.00">RegionManager.getRegion</text>
</a>
</g>
</g>
<!-- Node11&#45;&gt;Node12 -->
<g id="edge11_Node000011_Node000012" class="edge">
<title>Node11&#45;&gt;Node12</title>
<g id="a_edge11_Node000011_Node000012"><a xlink:title=" ">
<path fill="none" stroke="#63b8ff" d="M928.13,-354.59C955.02,-357.26 983.13,-360.05 1009.8,-362.7"/>
<polygon fill="#63b8ff" stroke="#63b8ff" points="1009.33,-366.17 1019.63,-363.68 1010.02,-359.2 1009.33,-366.17"/>
</a>
</g>
</g>
<!-- Node13 -->
<g id="Node000013" class="node">
<title>Node13</title>
<g id="a_Node000013"><a xlink:href="classcom_1_1runehive_1_1game_1_1world_1_1region_1_1_region.html#ae6ee1ad3798088cfea31cc90c3573ad2" target="_top" xlink:title=" ">
<ellipse fill="white" stroke="#666666" cx="1142.85" cy="-533.81" rx="136.47" ry="25.81"/>
<text xml:space="preserve" text-anchor="start" x="1054.35" y="-536.66" font-family="Helvetica,sans-Serif" font-size="12.00">com.runehive.game.world.region.</text>
<text xml:space="preserve" text-anchor="middle" x="1142.85" y="-522.41" font-family="Helvetica,sans-Serif" font-size="12.00">Region.getSurroundingRegions</text>
</a>
</g>
</g>
<!-- Node11&#45;&gt;Node13 -->
<g id="edge13_Node000011_Node000013" class="edge">
<title>Node11&#45;&gt;Node13</title>
<g id="a_edge13_Node000011_Node000013"><a xlink:title=" ">
<path fill="none" stroke="#63b8ff" d="M921.95,-355.94C933.07,-361.03 943.44,-367.53 952.35,-375.81 994.07,-414.58 946.87,-459.77 988.35,-498.81 995.88,-505.89 1004.53,-511.65 1013.81,-516.31"/>
<polygon fill="#63b8ff" stroke="#63b8ff" points="1012.17,-519.42 1022.73,-520.34 1015.05,-513.03 1012.17,-519.42"/>
</a>
</g>
</g>
<!-- Node14 -->
<g id="Node000014" class="node">
<title>Node14</title>
<g id="a_Node000014"><a xlink:href="classcom_1_1runehive_1_1game_1_1world_1_1region_1_1_region.html#ad12f8bca35c18ec9caacbc6843895a1c" target="_top" xlink:title=" ">
<ellipse fill="white" stroke="#666666" cx="1142.85" cy="-463.81" rx="136.47" ry="25.81"/>
<text xml:space="preserve" text-anchor="start" x="1054.35" y="-466.66" font-family="Helvetica,sans-Serif" font-size="12.00">com.runehive.game.world.region.</text>
<text xml:space="preserve" text-anchor="middle" x="1142.85" y="-452.41" font-family="Helvetica,sans-Serif" font-size="12.00">Region.setSurroundingRegions</text>
</a>
</g>
</g>
<!-- Node11&#45;&gt;Node14 -->
<g id="edge14_Node000011_Node000014" class="edge">
<title>Node11&#45;&gt;Node14</title>
<g id="a_edge14_Node000011_Node000014"><a xlink:title=" ">
<path fill="none" stroke="#63b8ff" d="M915.31,-357.5C928.42,-362.22 941.06,-368.21 952.35,-375.81 975.97,-391.72 964.83,-412.75 988.35,-428.81 997.93,-435.35 1008.55,-440.69 1019.6,-445.03"/>
<polygon fill="#63b8ff" stroke="#63b8ff" points="1018.3,-448.28 1028.89,-448.39 1020.68,-441.7 1018.3,-448.28"/>
</a>
</g>
</g>
<!-- Node12&#45;&gt;Node12 -->
<g id="edge12_Node000012_Node000012" class="edge">
<title>Node12&#45;&gt;Node12</title>
<g id="a_edge12_Node000012_Node000012"><a xlink:title=" ">
<path fill="none" stroke="#63b8ff" d="M1079.74,-398.8C1071.95,-409.86 1092.99,-419.62 1142.85,-419.62 1174.79,-419.62 1194.91,-415.61 1203.19,-409.83"/>
<polygon fill="#63b8ff" stroke="#63b8ff" points="1206.55,-410.82 1205.59,-400.27 1199.76,-409.11 1206.55,-410.82"/>
</a>
</g>
</g>
<!-- Node15 -->
<g id="Node000015" class="node">
<title>Node15</title>
<g id="a_Node000015"><a xlink:href="classcom_1_1runehive_1_1game_1_1world_1_1region_1_1_region.html#ad4c470f0d3f8e4cd7fede6740d6468e7" target="_top" xlink:title="Creates a region.">
<ellipse fill="white" stroke="#666666" cx="1487.86" cy="-463.81" rx="136.47" ry="25.81"/>
<text xml:space="preserve" text-anchor="start" x="1399.36" y="-466.66" font-family="Helvetica,sans-Serif" font-size="12.00">com.runehive.game.world.region.</text>
<text xml:space="preserve" text-anchor="middle" x="1487.86" y="-452.41" font-family="Helvetica,sans-Serif" font-size="12.00">Region.Region</text>
</a>
</g>
</g>
<!-- Node14&#45;&gt;Node15 -->
<g id="edge15_Node000014_Node000015" class="edge">
<title>Node14&#45;&gt;Node15</title>
<g id="a_edge15_Node000014_Node000015"><a xlink:title=" ">
<path fill="none" stroke="#63b8ff" d="M1279.42,-463.81C1299.23,-463.81 1319.72,-463.81 1339.75,-463.81"/>
<polygon fill="#63b8ff" stroke="#63b8ff" points="1339.64,-467.31 1349.64,-463.81 1339.64,-460.31 1339.64,-467.31"/>
</a>
</g>
</g>
<!-- Node17 -->
<g id="Node000017" class="node">
<title>Node17</title>
<g id="a_Node000017"><a xlink:href="classcom_1_1runehive_1_1game_1_1world_1_1pathfinding_1_1_traversal_map.html#ad640cb52b419921b71e984ae796ef4af" target="_top" xlink:title="Marks the specified coordinates occupied by some object.">
<ellipse fill="white" stroke="#666666" cx="1142.85" cy="-165.81" rx="154.5" ry="25.81"/>
<text xml:space="preserve" text-anchor="start" x="1041.6" y="-168.66" font-family="Helvetica,sans-Serif" font-size="12.00">com.runehive.game.world.pathfinding.</text>
<text xml:space="preserve" text-anchor="middle" x="1142.85" y="-154.41" font-family="Helvetica,sans-Serif" font-size="12.00">TraversalMap.markOccupant</text>
</a>
</g>
</g>
<!-- Node16&#45;&gt;Node17 -->
<g id="edge17_Node000016_Node000017" class="edge">
<title>Node16&#45;&gt;Node17</title>
<g id="a_edge17_Node000016_Node000017"><a xlink:title=" ">
<path fill="none" stroke="#63b8ff" d="M906.61,-253.98C922.49,-249.33 938.18,-243.39 952.35,-235.81 972.02,-225.28 968.74,-211.46 988.35,-200.81 997.98,-195.57 1008.37,-191.12 1019.04,-187.33"/>
<polygon fill="#63b8ff" stroke="#63b8ff" points="1019.96,-190.71 1028.34,-184.23 1017.75,-184.07 1019.96,-190.71"/>
</a>
</g>
</g>
<!-- Node19 -->
<g id="Node000019" class="node">
<title>Node19</title>
<g id="a_Node000019"><a xlink:href="classcom_1_1runehive_1_1game_1_1world_1_1pathfinding_1_1_traversal_map.html#ab9e0de1d8780593774974152f2e42765" target="_top" xlink:title="Informs the region of an existing wall.">
<ellipse fill="white" stroke="#666666" cx="1142.85" cy="-235.81" rx="154.5" ry="25.81"/>
<text xml:space="preserve" text-anchor="start" x="1041.6" y="-238.66" font-family="Helvetica,sans-Serif" font-size="12.00">com.runehive.game.world.pathfinding.</text>
<text xml:space="preserve" text-anchor="middle" x="1142.85" y="-224.41" font-family="Helvetica,sans-Serif" font-size="12.00">TraversalMap.markWall</text>
</a>
</g>
</g>
<!-- Node16&#45;&gt;Node19 -->
<g id="edge19_Node000016_Node000019" class="edge">
<title>Node16&#45;&gt;Node19</title>
<g id="a_edge19_Node000016_Node000019"><a xlink:title=" ">
<path fill="none" stroke="#63b8ff" d="M922.33,-257.6C946.95,-255.16 972.76,-252.6 997.69,-250.12"/>
<polygon fill="#63b8ff" stroke="#63b8ff" points="997.96,-253.61 1007.57,-249.14 997.27,-246.65 997.96,-253.61"/>
</a>
</g>
</g>
<!-- Node20 -->
<g id="Node000020" class="node">
<title>Node20</title>
<g id="a_Node000020"><a xlink:href="classcom_1_1runehive_1_1game_1_1world_1_1pathfinding_1_1_traversal_map.html#acb9cebf6ef660b3f43b097013cd8d69d" target="_top" xlink:title="Informs the region of an existing wall being removed.">
<ellipse fill="white" stroke="#666666" cx="1142.85" cy="-305.81" rx="154.5" ry="25.81"/>
<text xml:space="preserve" text-anchor="start" x="1041.6" y="-308.66" font-family="Helvetica,sans-Serif" font-size="12.00">com.runehive.game.world.pathfinding.</text>
<text xml:space="preserve" text-anchor="middle" x="1142.85" y="-294.41" font-family="Helvetica,sans-Serif" font-size="12.00">TraversalMap.unmarkWall</text>
</a>
</g>
</g>
<!-- Node16&#45;&gt;Node20 -->
<g id="edge20_Node000016_Node000020" class="edge">
<title>Node16&#45;&gt;Node20</title>
<g id="a_edge20_Node000016_Node000020"><a xlink:title=" ">
<path fill="none" stroke="#63b8ff" d="M922.33,-284.02C946.95,-286.46 972.76,-289.02 997.69,-291.5"/>
<polygon fill="#63b8ff" stroke="#63b8ff" points="997.27,-294.97 1007.57,-292.48 997.96,-288.01 997.27,-294.97"/>
</a>
</g>
</g>
<!-- Node18 -->
<g id="Node000018" class="node">
<title>Node18</title>
<g id="a_Node000018"><a xlink:href="classcom_1_1runehive_1_1game_1_1world_1_1pathfinding_1_1_traversal_map.html#a9b155eeee0f84b0b97125e24a6302b60" target="_top" xlink:title="Unsets the specified flag from the specified position.">
<ellipse fill="white" stroke="#666666" cx="1487.86" cy="-235.81" rx="154.5" ry="25.81"/>
<text xml:space="preserve" text-anchor="start" x="1386.61" y="-238.66" font-family="Helvetica,sans-Serif" font-size="12.00">com.runehive.game.world.pathfinding.</text>
<text xml:space="preserve" text-anchor="middle" x="1487.86" y="-224.41" font-family="Helvetica,sans-Serif" font-size="12.00">TraversalMap.unset</text>
</a>
</g>
</g>
<!-- Node17&#45;&gt;Node18 -->
<g id="edge18_Node000017_Node000018" class="edge">
<title>Node17&#45;&gt;Node18</title>
<g id="a_edge18_Node000017_Node000018"><a xlink:title=" ">
<path fill="none" stroke="#63b8ff" d="M1242.14,-185.87C1284.3,-194.47 1333.73,-204.56 1377.08,-213.41"/>
<polygon fill="#63b8ff" stroke="#63b8ff" points="1376.27,-216.81 1386.77,-215.38 1377.67,-209.96 1376.27,-216.81"/>
</a>
</g>
</g>
<!-- Node20&#45;&gt;Node18 -->
<g id="edge21_Node000020_Node000018" class="edge">
<title>Node20&#45;&gt;Node18</title>
<g id="a_edge21_Node000020_Node000018"><a xlink:title=" ">
<path fill="none" stroke="#63b8ff" d="M1242.14,-285.75C1284.3,-277.15 1333.73,-267.06 1377.08,-258.21"/>
<polygon fill="#63b8ff" stroke="#63b8ff" points="1377.67,-261.66 1386.77,-256.23 1376.27,-254.81 1377.67,-261.66"/>
</a>
</g>
</g>
<!-- Node23&#45;&gt;Node7 -->
<g id="edge28_Node000023_Node000007" class="edge">
<title>Node23&#45;&gt;Node7</title>
<g id="a_edge28_Node000023_Node000007"><a xlink:title=" ">
<path fill="none" stroke="#63b8ff" d="M565.12,-573.76C595.46,-570.63 628.31,-567.24 659.21,-564.04"/>
<polygon fill="#63b8ff" stroke="#63b8ff" points="659.41,-567.54 669,-563.03 658.69,-560.58 659.41,-567.54"/>
</a>
</g>
</g>
<!-- Node24 -->
<g id="Node000024" class="node">
<title>Node24</title>
<g id="a_Node000024"><a xlink:href="classcom_1_1runehive_1_1game_1_1world_1_1entity_1_1_entity.html#a4d41d635e97c6677d22dd90f57e45ba5" target="_top" xlink:title="Adds this entity to the specified region.">
<ellipse fill="white" stroke="#666666" cx="788.3" cy="-690.81" rx="132.23" ry="25.81"/>
<text xml:space="preserve" text-anchor="start" x="702.8" y="-693.66" font-family="Helvetica,sans-Serif" font-size="12.00">com.runehive.game.world.entity.</text>
<text xml:space="preserve" text-anchor="middle" x="788.3" y="-679.41" font-family="Helvetica,sans-Serif" font-size="12.00">Entity.addToRegion</text>
</a>
</g>
</g>
<!-- Node23&#45;&gt;Node24 -->
<g id="edge27_Node000023_Node000024" class="edge">
<title>Node23&#45;&gt;Node24</title>
<g id="a_edge27_Node000023_Node000024"><a xlink:title=" ">
<path fill="none" stroke="#63b8ff" d="M501.92,-609.79C536.33,-624.56 582.31,-643.05 624.25,-655.81 642.2,-661.27 661.5,-666.2 680.33,-670.54"/>
<polygon fill="#63b8ff" stroke="#63b8ff" points="679.34,-673.9 689.87,-672.68 680.88,-667.07 679.34,-673.9"/>
</a>
</g>
</g>
<!-- Node25 -->
<g id="Node000025" class="node">
<title>Node25</title>
<g id="a_Node000025"><a xlink:href="classcom_1_1runehive_1_1game_1_1world_1_1entity_1_1_entity.html#a63126d915af5d3fb24dc111c0a5d6d63" target="_top" xlink:title="Removes this entity from the specified region.">
<ellipse fill="white" stroke="#666666" cx="788.3" cy="-620.81" rx="132.23" ry="25.81"/>
<text xml:space="preserve" text-anchor="start" x="702.8" y="-623.66" font-family="Helvetica,sans-Serif" font-size="12.00">com.runehive.game.world.entity.</text>
<text xml:space="preserve" text-anchor="middle" x="788.3" y="-609.41" font-family="Helvetica,sans-Serif" font-size="12.00">Entity.removeFromRegion</text>
</a>
</g>
</g>
<!-- Node23&#45;&gt;Node25 -->
<g id="edge29_Node000023_Node000025" class="edge">
<title>Node23&#45;&gt;Node25</title>
<g id="a_edge29_Node000023_Node000025"><a xlink:title=" ">
<path fill="none" stroke="#63b8ff" d="M565.12,-597.85C595.46,-600.99 628.31,-604.38 659.21,-607.58"/>
<polygon fill="#63b8ff" stroke="#63b8ff" points="658.69,-611.04 669,-608.59 659.41,-604.08 658.69,-611.04"/>
</a>
</g>
</g>
</g>
</svg>
