<?xml version="1.0" encoding="UTF-8" standalone="no"?>
<!DOCTYPE svg PUBLIC "-//W3C//DTD SVG 1.1//EN"
 "http://www.w3.org/Graphics/SVG/1.1/DTD/svg11.dtd">
<!-- Generated by graphviz version 14.0.1 (20251006.0113)
 -->
<!-- Title: com.runehive.content.wintertodt.Wintertodt.mixHerb Pages: 1 -->
<!--zoomable 444 -->

<svg id="main" version="1.1" xmlns="http://www.w3.org/2000/svg" xmlns:xlink="http://www.w3.org/1999/xlink" xml:space="preserve" onload="init(evt)">

<style type="text/css"><![CDATA[
.node, .edge {opacity: 0.7;}
.node.selected, .edge.selected {opacity: 1;}
.edge:hover path { stroke: red; }
.edge:hover polygon { stroke: red; fill: red; }
]]></style>

<defs>
  <circle id="rim" cx="0" cy="0" r="7"/>
  <circle id="rim2" cx="0" cy="0" r="3.5"/>
  <g id="zoomPlus">
    <use xlink:href="#rim" fill="#404040"><set attributeName="fill" to="#808080" begin="zoomplus.mouseover" end="zoomplus.mouseout"/></use>
    <path d="M-4,0h8M0,-4v8" fill="none" stroke="white" stroke-width="1.5" pointer-events="none"/>
  </g>
  <g id="zoomMin">
    <use xlink:href="#rim" fill="#404040"><set attributeName="fill" to="#808080" begin="zoomminus.mouseover" end="zoomminus.mouseout"/></use>
    <path d="M-4,0h8" fill="none" stroke="white" stroke-width="1.5" pointer-events="none"/>
  </g>
  <g id="arrowUp" transform="translate(30 24)">
    <use xlink:href="#rim"/>
    <path pointer-events="none" fill="none" stroke="white" stroke-width="1.5" d="M0,-3.0v7 M-2.5,-0.5L0,-3.0L2.5,-0.5"/>
  </g>
  <g id="arrowRight" transform="rotate(90) translate(36 -43)">
    <use xlink:href="#rim"/>
    <path pointer-events="none" fill="none" stroke="white" stroke-width="1.5" d="M0,-3.0v7 M-2.5,-0.5L0,-3.0L2.5,-0.5"/>
  </g>
  <g id="arrowDown" transform="rotate(180) translate(-30 -48)">
    <use xlink:href="#rim"/>
    <path pointer-events="none" fill="none" stroke="white" stroke-width="1.5" d="M0,-3.0v7 M-2.5,-0.5L0,-3.0L2.5,-0.5"/>
  </g>
  <g id="arrowLeft" transform="rotate(270) translate(-36 17)">
    <use xlink:href="#rim"/>
    <path pointer-events="none" fill="none" stroke="white" stroke-width="1.5" d="M0,-3.0v7 M-2.5,-0.5L0,-3.0L2.5,-0.5"/>
  </g>
  <g id="resetDef">
    <use xlink:href="#rim2" fill="#404040"><set attributeName="fill" to="#808080" begin="reset.mouseover" end="reset.mouseout"/></use>
  </g>
</defs>
<script type="application/ecmascript">
var viewWidth = 1682;
var viewHeight = 444;
var sectionId = 'dynsection-37';
</script>
<script type="application/ecmascript" xlink:href="svg.min.js"/>
<svg id="graph" class="graph">
<g id="viewport">
<title>com.runehive.content.wintertodt.Wintertodt.mixHerb</title>
<!-- Node1 -->
<g id="Node000001" class="node">
<title>Node1</title>
<g id="a_Node000001"><a xlink:title="Handles mixing the potion.">
<ellipse fill="#999999" stroke="#666666" cx="132.76" cy="-198.73" rx="132.76" ry="25.81"/>
<text xml:space="preserve" text-anchor="start" x="46.88" y="-201.58" font-family="Helvetica,sans-Serif" font-size="12.00">com.runehive.content.wintertodt.</text>
<text xml:space="preserve" text-anchor="middle" x="132.76" y="-187.33" font-family="Helvetica,sans-Serif" font-size="12.00">Wintertodt.mixHerb</text>
</a>
</g>
</g>
<!-- Node2 -->
<g id="Node000002" class="node">
<title>Node2</title>
<g id="a_Node000002"><a xlink:href="classcom_1_1runehive_1_1game_1_1world_1_1entity_1_1mob_1_1_mob.html#a763d4a9979297da0ff66b8f4b86fd5bc" target="_top" xlink:title=" ">
<ellipse fill="white" stroke="#666666" cx="477.23" cy="-391.73" rx="150.79" ry="25.81"/>
<text xml:space="preserve" text-anchor="start" x="378.61" y="-394.58" font-family="Helvetica,sans-Serif" font-size="12.00">com.runehive.game.world.entity.mob.</text>
<text xml:space="preserve" text-anchor="middle" x="477.23" y="-380.33" font-family="Helvetica,sans-Serif" font-size="12.00">Mob.animate</text>
</a>
</g>
</g>
<!-- Node1&#45;&gt;Node2 -->
<g id="edge1_Node000001_Node000002" class="edge">
<title>Node1&#45;&gt;Node2</title>
<g id="a_edge1_Node000001_Node000002"><a xlink:title=" ">
<path fill="none" stroke="#63b8ff" d="M153.37,-224.7C181.85,-260.44 238.24,-324.06 301.52,-356.73 314.68,-363.53 329.03,-369.01 343.66,-373.42"/>
<polygon fill="#63b8ff" stroke="#63b8ff" points="342.32,-376.68 352.9,-376.04 344.23,-369.94 342.32,-376.68"/>
</a>
</g>
</g>
<!-- Node3 -->
<g id="Node000003" class="node">
<title>Node3</title>
<g id="a_Node000003"><a xlink:href="classcom_1_1runehive_1_1game_1_1world_1_1items_1_1containers_1_1_item_container.html#a213c1e964d911374c4b776c4fb741acc" target="_top" xlink:title="Computes the total quantity of the Items in this container with id.">
<ellipse fill="white" stroke="#666666" cx="477.23" cy="-321.73" rx="174.13" ry="25.81"/>
<text xml:space="preserve" text-anchor="start" x="362.11" y="-324.58" font-family="Helvetica,sans-Serif" font-size="12.00">com.runehive.game.world.items.containers.</text>
<text xml:space="preserve" text-anchor="middle" x="477.23" y="-310.33" font-family="Helvetica,sans-Serif" font-size="12.00">ItemContainer.computeAmountForId</text>
</a>
</g>
</g>
<!-- Node1&#45;&gt;Node3 -->
<g id="edge3_Node000001_Node000003" class="edge">
<title>Node1&#45;&gt;Node3</title>
<g id="a_edge3_Node000001_Node000003"><a xlink:title=" ">
<path fill="none" stroke="#63b8ff" d="M173.31,-223.63C206.41,-243.43 255.48,-270.43 301.52,-286.73 315.83,-291.8 331.08,-296.22 346.38,-300.04"/>
<polygon fill="#63b8ff" stroke="#63b8ff" points="345.5,-303.42 356.04,-302.36 347.14,-296.62 345.5,-303.42"/>
</a>
</g>
</g>
<!-- Node4 -->
<g id="Node000004" class="node">
<title>Node4</title>
<g id="a_Node000004"><a xlink:href="classcom_1_1runehive_1_1game_1_1action_1_1_action_manager.html#a9c429bf1d7f162f6c7f8ff0aa4e44d7e" target="_top" xlink:title=" ">
<ellipse fill="white" stroke="#666666" cx="477.23" cy="-233.73" rx="112.61" ry="25.81"/>
<text xml:space="preserve" text-anchor="start" x="405.61" y="-236.58" font-family="Helvetica,sans-Serif" font-size="12.00">com.runehive.game.action.</text>
<text xml:space="preserve" text-anchor="middle" x="477.23" y="-222.33" font-family="Helvetica,sans-Serif" font-size="12.00">ActionManager.execute</text>
</a>
</g>
</g>
<!-- Node1&#45;&gt;Node4 -->
<g id="edge4_Node000001_Node000004" class="edge">
<title>Node1&#45;&gt;Node4</title>
<g id="a_edge4_Node000001_Node000004"><a xlink:title=" ">
<path fill="none" stroke="#63b8ff" d="M251.14,-210.73C287.05,-214.4 326.47,-218.43 362.15,-222.07"/>
<polygon fill="#63b8ff" stroke="#63b8ff" points="361.79,-225.56 372.09,-223.09 362.5,-218.59 361.79,-225.56"/>
</a>
</g>
</g>
<!-- Node5 -->
<g id="Node000005" class="node">
<title>Node5</title>
<g id="a_Node000005"><a xlink:href="classcom_1_1runehive_1_1content_1_1wintertodt_1_1_wintertodt.html#ab3196c67e3725938d95640a96bee2ca4" target="_top" xlink:title=" ">
<ellipse fill="white" stroke="#666666" cx="477.23" cy="-163.73" rx="132.76" ry="25.81"/>
<text xml:space="preserve" text-anchor="start" x="391.36" y="-166.58" font-family="Helvetica,sans-Serif" font-size="12.00">com.runehive.content.wintertodt.</text>
<text xml:space="preserve" text-anchor="middle" x="477.23" y="-152.33" font-family="Helvetica,sans-Serif" font-size="12.00">Wintertodt.isActive</text>
</a>
</g>
</g>
<!-- Node1&#45;&gt;Node5 -->
<g id="edge6_Node000001_Node000005" class="edge">
<title>Node1&#45;&gt;Node5</title>
<g id="a_edge6_Node000001_Node000005"><a xlink:title=" ">
<path fill="none" stroke="#63b8ff" d="M251.14,-186.74C282.23,-183.56 315.96,-180.11 347.61,-176.88"/>
<polygon fill="#63b8ff" stroke="#63b8ff" points="347.62,-180.4 357.21,-175.9 346.91,-173.43 347.62,-180.4"/>
</a>
</g>
</g>
<!-- Node6 -->
<g id="Node000006" class="node">
<title>Node6</title>
<g id="a_Node000006"><a xlink:href="classcom_1_1runehive_1_1game_1_1world_1_1entity_1_1mob_1_1player_1_1_player.html#a330f0b0f76490448f4c6f8e68ea368c5" target="_top" xlink:title=" ">
<ellipse fill="white" stroke="#666666" cx="477.23" cy="-75.73" rx="175.72" ry="25.81"/>
<text xml:space="preserve" text-anchor="start" x="360.98" y="-78.58" font-family="Helvetica,sans-Serif" font-size="12.00">com.runehive.game.world.entity.mob.player.</text>
<text xml:space="preserve" text-anchor="middle" x="477.23" y="-64.33" font-family="Helvetica,sans-Serif" font-size="12.00">Player.message</text>
</a>
</g>
</g>
<!-- Node1&#45;&gt;Node6 -->
<g id="edge7_Node000001_Node000006" class="edge">
<title>Node1&#45;&gt;Node6</title>
<g id="a_edge7_Node000001_Node000006"><a xlink:title=" ">
<path fill="none" stroke="#63b8ff" d="M187.24,-174.8C219.92,-160.58 262.76,-142.66 301.52,-128.73 327.74,-119.31 356.55,-110.11 383.08,-102.1"/>
<polygon fill="#63b8ff" stroke="#63b8ff" points="383.88,-105.51 392.45,-99.29 381.87,-98.8 383.88,-105.51"/>
</a>
</g>
</g>
<!-- Node11 -->
<g id="Node000011" class="node">
<title>Node11</title>
<g id="a_Node000011"><a xlink:href="classcom_1_1runehive_1_1util_1_1_utility.html#ac35cf9e0b0f0c9cac1d83ed2b8b29a1b" target="_top" xlink:title=" ">
<ellipse fill="white" stroke="#666666" cx="477.23" cy="-15.73" rx="114.2" ry="15.73"/>
<text xml:space="preserve" text-anchor="middle" x="477.23" y="-11.46" font-family="Helvetica,sans-Serif" font-size="12.00">com.runehive.util.Utility.min</text>
</a>
</g>
</g>
<!-- Node1&#45;&gt;Node11 -->
<g id="edge13_Node000001_Node000011" class="edge">
<title>Node1&#45;&gt;Node11</title>
<g id="a_edge13_Node000001_Node000011"><a xlink:title=" ">
<path fill="none" stroke="#63b8ff" d="M152.65,-172.88C180.68,-136.67 236.99,-71.81 301.52,-40.73 318.71,-32.45 337.88,-26.72 357.04,-22.79"/>
<polygon fill="#63b8ff" stroke="#63b8ff" points="357.64,-26.24 366.82,-20.96 356.35,-19.36 357.64,-26.24"/>
</a>
</g>
</g>
<!-- Node2&#45;&gt;Node2 -->
<g id="edge2_Node000002_Node000002" class="edge">
<title>Node2&#45;&gt;Node2</title>
<g id="a_edge2_Node000002_Node000002"><a xlink:title=" ">
<path fill="none" stroke="#63b8ff" d="M413.92,-415.17C407.02,-426.04 428.12,-435.54 477.23,-435.54 508.7,-435.54 528.67,-431.64 537.14,-425.98"/>
<polygon fill="#63b8ff" stroke="#63b8ff" points="540.43,-427.2 540.09,-416.61 533.75,-425.1 540.43,-427.2"/>
</a>
</g>
</g>
<!-- Node4&#45;&gt;Node4 -->
<g id="edge5_Node000004_Node000004" class="edge">
<title>Node4&#45;&gt;Node4</title>
<g id="a_edge5_Node000004_Node000004"><a xlink:title=" ">
<path fill="none" stroke="#63b8ff" d="M415.31,-255.37C404.79,-266.97 425.43,-277.54 477.23,-277.54 510.83,-277.54 531.32,-273.1 538.7,-266.81"/>
<polygon fill="#63b8ff" stroke="#63b8ff" points="542.2,-267.02 539.1,-256.88 535.2,-266.74 542.2,-267.02"/>
</a>
</g>
</g>
<!-- Node6&#45;&gt;Node6 -->
<g id="edge8_Node000006_Node000006" class="edge">
<title>Node6&#45;&gt;Node6</title>
<g id="a_edge8_Node000006_Node000006"><a xlink:title=" ">
<path fill="none" stroke="#63b8ff" d="M413.42,-100.06C408.19,-110.56 429.47,-119.54 477.23,-119.54 507.84,-119.54 527.56,-115.85 536.42,-110.44"/>
<polygon fill="#63b8ff" stroke="#63b8ff" points="539.56,-112 540.43,-101.44 533.16,-109.15 539.56,-112"/>
</a>
</g>
</g>
<!-- Node7 -->
<g id="Node000007" class="node">
<title>Node7</title>
<g id="a_Node000007"><a xlink:href="classcom_1_1runehive_1_1game_1_1world_1_1entity_1_1mob_1_1player_1_1_player.html#ab8309e5d532b7540f48bf25f8dea92a8" target="_top" xlink:title=" ">
<ellipse fill="white" stroke="#666666" cx="864.67" cy="-75.73" rx="175.72" ry="25.81"/>
<text xml:space="preserve" text-anchor="start" x="748.42" y="-78.58" font-family="Helvetica,sans-Serif" font-size="12.00">com.runehive.game.world.entity.mob.player.</text>
<text xml:space="preserve" text-anchor="middle" x="864.67" y="-64.33" font-family="Helvetica,sans-Serif" font-size="12.00">Player.send</text>
</a>
</g>
</g>
<!-- Node6&#45;&gt;Node7 -->
<g id="edge9_Node000006_Node000007" class="edge">
<title>Node6&#45;&gt;Node7</title>
<g id="a_edge9_Node000006_Node000007"><a xlink:title=" ">
<path fill="none" stroke="#63b8ff" d="M653.19,-75.73C661.17,-75.73 669.19,-75.73 677.2,-75.73"/>
<polygon fill="#63b8ff" stroke="#63b8ff" points="676.99,-79.23 686.99,-75.73 676.99,-72.23 676.99,-79.23"/>
</a>
</g>
</g>
<!-- Node8 -->
<g id="Node000008" class="node">
<title>Node8</title>
<g id="a_Node000008"><a xlink:href="classcom_1_1runehive_1_1net_1_1packet_1_1_outgoing_packet.html#a3dde4d77b8c8bbd686b8e121fd6514a7" target="_top" xlink:title=" ">
<ellipse fill="white" stroke="#666666" cx="1181.56" cy="-75.73" rx="105.18" ry="25.81"/>
<text xml:space="preserve" text-anchor="start" x="1115.19" y="-78.58" font-family="Helvetica,sans-Serif" font-size="12.00">com.runehive.net.packet.</text>
<text xml:space="preserve" text-anchor="middle" x="1181.56" y="-64.33" font-family="Helvetica,sans-Serif" font-size="12.00">OutgoingPacket.execute</text>
</a>
</g>
</g>
<!-- Node7&#45;&gt;Node8 -->
<g id="edge10_Node000007_Node000008" class="edge">
<title>Node7&#45;&gt;Node8</title>
<g id="a_edge10_Node000007_Node000008"><a xlink:title=" ">
<path fill="none" stroke="#63b8ff" d="M1040.61,-75.73C1048.7,-75.73 1056.72,-75.73 1064.59,-75.73"/>
<polygon fill="#63b8ff" stroke="#63b8ff" points="1064.5,-79.23 1074.5,-75.73 1064.5,-72.23 1064.5,-79.23"/>
</a>
</g>
</g>
<!-- Node9 -->
<g id="Node000009" class="node">
<title>Node9</title>
<g id="a_Node000009"><a xlink:href="classcom_1_1runehive_1_1net_1_1packet_1_1_outgoing_packet.html#a74fc13c106ab76f87daec1e8bab6a2a1" target="_top" xlink:title=" ">
<ellipse fill="white" stroke="#666666" cx="1498.46" cy="-110.73" rx="105.18" ry="25.81"/>
<text xml:space="preserve" text-anchor="start" x="1432.09" y="-113.58" font-family="Helvetica,sans-Serif" font-size="12.00">com.runehive.net.packet.</text>
<text xml:space="preserve" text-anchor="middle" x="1498.46" y="-99.33" font-family="Helvetica,sans-Serif" font-size="12.00">OutgoingPacket.encode</text>
</a>
</g>
</g>
<!-- Node8&#45;&gt;Node9 -->
<g id="edge11_Node000008_Node000009" class="edge">
<title>Node8&#45;&gt;Node9</title>
<g id="a_edge11_Node000008_Node000009"><a xlink:title=" ">
<path fill="none" stroke="#63b8ff" d="M1277.9,-86.33C1313.5,-90.29 1354.14,-94.8 1390.7,-98.87"/>
<polygon fill="#63b8ff" stroke="#63b8ff" points="1390.08,-102.32 1400.41,-99.95 1390.85,-95.36 1390.08,-102.32"/>
</a>
</g>
</g>
<!-- Node10 -->
<g id="Node000010" class="node">
<title>Node10</title>
<g id="a_Node000010"><a xlink:href="classcom_1_1runehive_1_1game_1_1world_1_1entity_1_1mob_1_1player_1_1_player.html#a908fb61974719a74180d6300b838bfe1" target="_top" xlink:title=" ">
<ellipse fill="white" stroke="#666666" cx="1498.46" cy="-40.73" rx="175.72" ry="25.81"/>
<text xml:space="preserve" text-anchor="start" x="1382.21" y="-43.58" font-family="Helvetica,sans-Serif" font-size="12.00">com.runehive.game.world.entity.mob.player.</text>
<text xml:space="preserve" text-anchor="middle" x="1498.46" y="-29.33" font-family="Helvetica,sans-Serif" font-size="12.00">Player.getSession</text>
</a>
</g>
</g>
<!-- Node8&#45;&gt;Node10 -->
<g id="edge12_Node000008_Node000010" class="edge">
<title>Node8&#45;&gt;Node10</title>
<g id="a_edge12_Node000008_Node000010"><a xlink:title=" ">
<path fill="none" stroke="#63b8ff" d="M1277.9,-65.14C1299.29,-62.76 1322.5,-60.18 1345.55,-57.62"/>
<polygon fill="#63b8ff" stroke="#63b8ff" points="1345.79,-61.11 1355.35,-56.53 1345.02,-54.16 1345.79,-61.11"/>
</a>
</g>
</g>
</g>
</svg>

<g id="navigator" transform="translate(0 0)" fill="#404254">
  <rect fill="#f2f5e9" fill-opacity="0.5" stroke="#606060" stroke-width=".5" x="0" y="0" width="60" height="60"/>
  <use id="zoomplus" xlink:href="#zoomPlus" x="17" y="9" onmousedown="handleZoom(evt,'in')"/>
  <use id="zoomminus" xlink:href="#zoomMin" x="42" y="9" onmousedown="handleZoom(evt,'out')"/>
  <use id="reset" xlink:href="#resetDef" x="30" y="36" onmousedown="handleReset()"/>
   <use id="arrowup" xlink:href="#arrowUp" x="0" y="0" onmousedown="handlePan(0,-1)"/>
  <use id="arrowright" xlink:href="#arrowRight" x="0" y="0" onmousedown="handlePan(1,0)"/>
  <use id="arrowdown" xlink:href="#arrowDown" x="0" y="0" onmousedown="handlePan(0,1)"/>
  <use id="arrowleft" xlink:href="#arrowLeft" x="0" y="0" onmousedown="handlePan(-1,0)"/>
</g>
<svg viewBox="0 0 15 15" width="100%" height="30px" preserveAspectRatio="xMaxYMin meet">
 <g id="arrow_out" transform="scale(0.3 0.3)">
  <a xlink:href="classcom_1_1runehive_1_1content_1_1wintertodt_1_1_wintertodt_a4bb14c076e1e39e1bba2b17f060e1b2a_cgraph_org.svg" target="_base">
   <rect id="button" ry="5" rx="5" y="6" x="6" height="38" width="38"
        fill="#f2f5e9" fill-opacity="0.5" stroke="#606060" stroke-width="1.0"/>
   <path id="arrow"
     d="M 11.500037,31.436501 C 11.940474,20.09759 22.043105,11.32322 32.158766,21.979434 L 37.068811,17.246167 C 37.068811,17.246167 37.088388,32 37.088388,32 L 22.160133,31.978069 C 22.160133,31.978069 26.997745,27.140456 26.997745,27.140456 C 18.528582,18.264221 13.291696,25.230495 11.500037,31.436501 z"
     style="fill:#404040;"/>
  </a>
 </g>
</svg>

<style type='text/css'>
<![CDATA[
[data-mouse-over-selected='false'] { opacity: 0.7; }
[data-mouse-over-selected='true']  { opacity: 1.0; }
]]>
</style>
<script type="application/ecmascript"><![CDATA[
document.addEventListener('DOMContentLoaded', (event) => {
  highlightEdges();
  highlightAdjacentNodes();
});
]]></script>
</svg>
