<?xml version="1.0" encoding="UTF-8" standalone="no"?>
<!DOCTYPE svg PUBLIC "-//W3C//DTD SVG 1.1//EN"
 "http://www.w3.org/Graphics/SVG/1.1/DTD/svg11.dtd">
<!-- Generated by graphviz version 14.0.1 (20251006.0113)
 -->
<!-- Title: com.runehive.game.world.entity.combat.strategy.npc.boss.KingBlackDragonStrategy.Freeze.getHits Pages: 1 -->
<!--zoomable 594 -->

<svg id="main" version="1.1" xmlns="http://www.w3.org/2000/svg" xmlns:xlink="http://www.w3.org/1999/xlink" xml:space="preserve" onload="init(evt)">

<style type="text/css"><![CDATA[
.node, .edge {opacity: 0.7;}
.node.selected, .edge.selected {opacity: 1;}
.edge:hover path { stroke: red; }
.edge:hover polygon { stroke: red; fill: red; }
]]></style>

<defs>
  <circle id="rim" cx="0" cy="0" r="7"/>
  <circle id="rim2" cx="0" cy="0" r="3.5"/>
  <g id="zoomPlus">
    <use xlink:href="#rim" fill="#404040"><set attributeName="fill" to="#808080" begin="zoomplus.mouseover" end="zoomplus.mouseout"/></use>
    <path d="M-4,0h8M0,-4v8" fill="none" stroke="white" stroke-width="1.5" pointer-events="none"/>
  </g>
  <g id="zoomMin">
    <use xlink:href="#rim" fill="#404040"><set attributeName="fill" to="#808080" begin="zoomminus.mouseover" end="zoomminus.mouseout"/></use>
    <path d="M-4,0h8" fill="none" stroke="white" stroke-width="1.5" pointer-events="none"/>
  </g>
  <g id="arrowUp" transform="translate(30 24)">
    <use xlink:href="#rim"/>
    <path pointer-events="none" fill="none" stroke="white" stroke-width="1.5" d="M0,-3.0v7 M-2.5,-0.5L0,-3.0L2.5,-0.5"/>
  </g>
  <g id="arrowRight" transform="rotate(90) translate(36 -43)">
    <use xlink:href="#rim"/>
    <path pointer-events="none" fill="none" stroke="white" stroke-width="1.5" d="M0,-3.0v7 M-2.5,-0.5L0,-3.0L2.5,-0.5"/>
  </g>
  <g id="arrowDown" transform="rotate(180) translate(-30 -48)">
    <use xlink:href="#rim"/>
    <path pointer-events="none" fill="none" stroke="white" stroke-width="1.5" d="M0,-3.0v7 M-2.5,-0.5L0,-3.0L2.5,-0.5"/>
  </g>
  <g id="arrowLeft" transform="rotate(270) translate(-36 17)">
    <use xlink:href="#rim"/>
    <path pointer-events="none" fill="none" stroke="white" stroke-width="1.5" d="M0,-3.0v7 M-2.5,-0.5L0,-3.0L2.5,-0.5"/>
  </g>
  <g id="resetDef">
    <use xlink:href="#rim2" fill="#404040"><set attributeName="fill" to="#808080" begin="reset.mouseover" end="reset.mouseout"/></use>
  </g>
</defs>
<script type="application/ecmascript">
var viewWidth = 2694;
var viewHeight = 594;
var sectionId = 'dynsection-2';
</script>
<script type="application/ecmascript" xlink:href="svg.min.js"/>
<svg id="graph" class="graph">
<g id="viewport">
<title>com.runehive.game.world.entity.combat.strategy.npc.boss.KingBlackDragonStrategy.Freeze.getHits</title>
<!-- Node1 -->
<g id="Node000001" class="node">
<title>Node1</title>
<g id="a_Node000001"><a xlink:title=" ">
<ellipse fill="#999999" stroke="#666666" cx="229.28" cy="-95.81" rx="229.28" ry="25.81"/>
<text xml:space="preserve" text-anchor="start" x="75.15" y="-98.66" font-family="Helvetica,sans-Serif" font-size="12.00">com.runehive.game.world.entity.combat.strategy.npc.boss.</text>
<text xml:space="preserve" text-anchor="middle" x="229.28" y="-84.41" font-family="Helvetica,sans-Serif" font-size="12.00">KingBlackDragonStrategy.Freeze.getHits</text>
</a>
</g>
</g>
<!-- Node2 -->
<g id="Node000002" class="node">
<title>Node2</title>
<g id="a_Node000002"><a xlink:href="classcom_1_1runehive_1_1game_1_1world_1_1entity_1_1combat_1_1_combat_util.html#abd864e32efe9f5a0f931407ce5e90eea" target="_top" xlink:title=" ">
<ellipse fill="white" stroke="#666666" cx="656.49" cy="-95.81" rx="161.93" ry="25.81"/>
<text xml:space="preserve" text-anchor="start" x="549.99" y="-98.66" font-family="Helvetica,sans-Serif" font-size="12.00">com.runehive.game.world.entity.combat.</text>
<text xml:space="preserve" text-anchor="middle" x="656.49" y="-84.41" font-family="Helvetica,sans-Serif" font-size="12.00">CombatUtil.generateDragonfire</text>
</a>
</g>
</g>
<!-- Node1&#45;&gt;Node2 -->
<g id="edge1_Node000001_Node000002" class="edge">
<title>Node1&#45;&gt;Node2</title>
<g id="a_edge1_Node000001_Node000002"><a xlink:title=" ">
<path fill="none" stroke="#63b8ff" d="M458.75,-95.81C466.75,-95.81 474.72,-95.81 482.61,-95.81"/>
<polygon fill="#63b8ff" stroke="#63b8ff" points="482.61,-99.31 492.61,-95.81 482.61,-92.31 482.61,-99.31"/>
</a>
</g>
</g>
<!-- Node2&#45;&gt;Node2 -->
<g id="edge2_Node000002_Node000002" class="edge">
<title>Node2&#45;&gt;Node2</title>
<g id="a_edge2_Node000002_Node000002"><a xlink:title=" ">
<path fill="none" stroke="#63b8ff" d="M590.07,-119.69C583.74,-130.38 605.88,-139.62 656.49,-139.62 688.9,-139.62 709.64,-135.83 718.7,-130.29"/>
<polygon fill="#63b8ff" stroke="#63b8ff" points="721.91,-131.69 722.35,-121.1 715.4,-129.1 721.91,-131.69"/>
</a>
</g>
</g>
<!-- Node3 -->
<g id="Node000003" class="node">
<title>Node3</title>
<g id="a_Node000003"><a xlink:href="classcom_1_1runehive_1_1game_1_1world_1_1entity_1_1combat_1_1_combat_util.html#a555ae84f82f41c7570a51a914a4e603f" target="_top" xlink:title="Gets the hit delay for the specified type.">
<ellipse fill="white" stroke="#666666" cx="1016.34" cy="-95.81" rx="161.93" ry="25.81"/>
<text xml:space="preserve" text-anchor="start" x="909.84" y="-98.66" font-family="Helvetica,sans-Serif" font-size="12.00">com.runehive.game.world.entity.combat.</text>
<text xml:space="preserve" text-anchor="middle" x="1016.34" y="-84.41" font-family="Helvetica,sans-Serif" font-size="12.00">CombatUtil.getHitDelay</text>
</a>
</g>
</g>
<!-- Node2&#45;&gt;Node3 -->
<g id="edge3_Node000002_Node000003" class="edge">
<title>Node2&#45;&gt;Node3</title>
<g id="a_edge3_Node000002_Node000003"><a xlink:title=" ">
<path fill="none" stroke="#63b8ff" d="M818.88,-95.81C826.82,-95.81 834.8,-95.81 842.77,-95.81"/>
<polygon fill="#63b8ff" stroke="#63b8ff" points="842.5,-99.31 852.5,-95.81 842.5,-92.31 842.5,-99.31"/>
</a>
</g>
</g>
<!-- Node4 -->
<g id="Node000004" class="node">
<title>Node4</title>
<g id="a_Node000004"><a xlink:href="classcom_1_1runehive_1_1game_1_1world_1_1entity_1_1combat_1_1_combat_util.html#a9c11a9397f91559586077d5e57328c74" target="_top" xlink:title=" ">
<ellipse fill="white" stroke="#666666" cx="1412.79" cy="-238.81" rx="161.93" ry="25.81"/>
<text xml:space="preserve" text-anchor="start" x="1306.29" y="-241.66" font-family="Helvetica,sans-Serif" font-size="12.00">com.runehive.game.world.entity.combat.</text>
<text xml:space="preserve" text-anchor="middle" x="1412.79" y="-227.41" font-family="Helvetica,sans-Serif" font-size="12.00">CombatUtil.getOldHitDelay</text>
</a>
</g>
</g>
<!-- Node3&#45;&gt;Node4 -->
<g id="edge4_Node000003_Node000004" class="edge">
<title>Node3&#45;&gt;Node4</title>
<g id="a_edge4_Node000003_Node000004"><a xlink:title=" ">
<path fill="none" stroke="#63b8ff" d="M1083.36,-119.74C1152.87,-144.94 1262.16,-184.56 1335.35,-211.1"/>
<polygon fill="#63b8ff" stroke="#63b8ff" points="1333.86,-214.28 1344.46,-214.4 1336.25,-207.7 1333.86,-214.28"/>
</a>
</g>
</g>
<!-- Node15 -->
<g id="Node000015" class="node">
<title>Node15</title>
<g id="a_Node000015"><a xlink:href="classcom_1_1runehive_1_1game_1_1world_1_1entity_1_1combat_1_1projectile_1_1_combat_projectile.html#a82f565e3bdb3b301f106940a813a1b2d" target="_top" xlink:title=" ">
<ellipse fill="white" stroke="#666666" cx="1412.79" cy="-95.81" rx="198.52" ry="25.81"/>
<text xml:space="preserve" text-anchor="start" x="1280.41" y="-98.66" font-family="Helvetica,sans-Serif" font-size="12.00">com.runehive.game.world.entity.combat.projectile.</text>
<text xml:space="preserve" text-anchor="middle" x="1412.79" y="-84.41" font-family="Helvetica,sans-Serif" font-size="12.00">CombatProjectile.getServerTicks</text>
</a>
</g>
</g>
<!-- Node3&#45;&gt;Node15 -->
<g id="edge19_Node000003_Node000015" class="edge">
<title>Node3&#45;&gt;Node15</title>
<g id="a_edge19_Node000003_Node000015"><a xlink:title=" ">
<path fill="none" stroke="#63b8ff" d="M1178.63,-95.81C1186.52,-95.81 1194.48,-95.81 1202.48,-95.81"/>
<polygon fill="#63b8ff" stroke="#63b8ff" points="1202.27,-99.31 1212.27,-95.81 1202.27,-92.31 1202.27,-99.31"/>
</a>
</g>
</g>
<!-- Node20 -->
<g id="Node000020" class="node">
<title>Node20</title>
<g id="a_Node000020"><a xlink:href="classcom_1_1runehive_1_1game_1_1world_1_1entity_1_1mob_1_1_mob.html#a0a21470fb2a782842e6a318d785955a3" target="_top" xlink:title="The combat strategy of the mob.">
<ellipse fill="white" stroke="#666666" cx="1412.79" cy="-25.81" rx="150.79" ry="25.81"/>
<text xml:space="preserve" text-anchor="start" x="1314.16" y="-28.66" font-family="Helvetica,sans-Serif" font-size="12.00">com.runehive.game.world.entity.mob.</text>
<text xml:space="preserve" text-anchor="middle" x="1412.79" y="-14.41" font-family="Helvetica,sans-Serif" font-size="12.00">Mob.getStrategy</text>
</a>
</g>
</g>
<!-- Node3&#45;&gt;Node20 -->
<g id="edge24_Node000003_Node000020" class="edge">
<title>Node3&#45;&gt;Node20</title>
<g id="a_edge24_Node000003_Node000020"><a xlink:title=" ">
<path fill="none" stroke="#63b8ff" d="M1126.2,-76.45C1154.84,-71.36 1185.72,-65.88 1214.27,-60.81 1240.45,-56.16 1268.58,-51.18 1295.17,-46.46"/>
<polygon fill="#63b8ff" stroke="#63b8ff" points="1295.73,-49.92 1304.97,-44.73 1294.51,-43.03 1295.73,-49.92"/>
</a>
</g>
</g>
<!-- Node5 -->
<g id="Node000005" class="node">
<title>Node5</title>
<g id="a_Node000005"><a xlink:href="classcom_1_1runehive_1_1util_1_1_utility.html#a551396449bf2c3e196ba267f3efdc899" target="_top" xlink:title=" ">
<ellipse fill="white" stroke="#666666" cx="1845.83" cy="-311.81" rx="112.08" ry="25.81"/>
<text xml:space="preserve" text-anchor="start" x="1774.58" y="-314.66" font-family="Helvetica,sans-Serif" font-size="12.00">com.runehive.util.Utility.get</text>
<text xml:space="preserve" text-anchor="middle" x="1845.83" y="-300.41" font-family="Helvetica,sans-Serif" font-size="12.00">Distance</text>
</a>
</g>
</g>
<!-- Node4&#45;&gt;Node5 -->
<g id="edge5_Node000004_Node000005" class="edge">
<title>Node4&#45;&gt;Node5</title>
<g id="a_edge5_Node000004_Node000005"><a xlink:title=" ">
<path fill="none" stroke="#63b8ff" d="M1525.35,-257.7C1592.67,-269.11 1677.79,-283.52 1743.24,-294.6"/>
<polygon fill="#63b8ff" stroke="#63b8ff" points="1742.46,-298.02 1752.9,-296.24 1743.62,-291.12 1742.46,-298.02"/>
</a>
</g>
</g>
<!-- Node6 -->
<g id="Node000006" class="node">
<title>Node6</title>
<g id="a_Node000006"><a xlink:href="interfacecom_1_1runehive_1_1game_1_1world_1_1_interactable.html#a49e07a60c6643c0ba33bc9754305c352" target="_top" xlink:title=" ">
<ellipse fill="white" stroke="#666666" cx="2543.27" cy="-257.81" rx="110.49" ry="25.81"/>
<text xml:space="preserve" text-anchor="start" x="2473.14" y="-260.66" font-family="Helvetica,sans-Serif" font-size="12.00">com.runehive.game.world.</text>
<text xml:space="preserve" text-anchor="middle" x="2543.27" y="-246.41" font-family="Helvetica,sans-Serif" font-size="12.00">Interactable.getPosition</text>
</a>
</g>
</g>
<!-- Node5&#45;&gt;Node6 -->
<g id="edge6_Node000005_Node000006" class="edge">
<title>Node5&#45;&gt;Node6</title>
<g id="a_edge6_Node000005_Node000006"><a xlink:title=" ">
<path fill="none" stroke="#63b8ff" d="M1936.1,-296.13C1979.5,-289.09 2032.5,-281.37 2080.35,-276.81 2195.78,-265.82 2328.04,-261.18 2421.37,-259.23"/>
<polygon fill="#63b8ff" stroke="#63b8ff" points="2421.4,-262.73 2431.33,-259.03 2421.26,-255.73 2421.4,-262.73"/>
</a>
</g>
</g>
<!-- Node7 -->
<g id="Node000007" class="node">
<title>Node7</title>
<g id="a_Node000007"><a xlink:href="interfacecom_1_1runehive_1_1game_1_1world_1_1_interactable.html#a709f3328972af0a98047591417fd5d4b" target="_top" xlink:title=" ">
<ellipse fill="white" stroke="#666666" cx="2222.65" cy="-203.81" rx="110.49" ry="25.81"/>
<text xml:space="preserve" text-anchor="start" x="2152.53" y="-206.66" font-family="Helvetica,sans-Serif" font-size="12.00">com.runehive.game.world.</text>
<text xml:space="preserve" text-anchor="middle" x="2222.65" y="-192.41" font-family="Helvetica,sans-Serif" font-size="12.00">Interactable.getX</text>
</a>
</g>
</g>
<!-- Node5&#45;&gt;Node7 -->
<g id="edge7_Node000005_Node000007" class="edge">
<title>Node5&#45;&gt;Node7</title>
<g id="a_edge7_Node000005_Node000007"><a xlink:title=" ">
<path fill="none" stroke="#63b8ff" d="M1916.53,-291.36C1962.93,-277.79 2025.25,-259.63 2080.35,-243.81 2099.59,-238.28 2120.33,-232.38 2139.82,-226.86"/>
<polygon fill="#63b8ff" stroke="#63b8ff" points="2140.7,-230.25 2149.37,-224.16 2138.79,-223.52 2140.7,-230.25"/>
</a>
</g>
</g>
<!-- Node8 -->
<g id="Node000008" class="node">
<title>Node8</title>
<g id="a_Node000008"><a xlink:href="classcom_1_1runehive_1_1game_1_1world_1_1position_1_1_position.html#a7bfa5292d8c3f79100a6bc85ea27b5ea" target="_top" xlink:title="Gets the absolute x coordinate.">
<ellipse fill="white" stroke="#666666" cx="2543.27" cy="-168.81" rx="142.31" ry="25.81"/>
<text xml:space="preserve" text-anchor="start" x="2450.64" y="-171.66" font-family="Helvetica,sans-Serif" font-size="12.00">com.runehive.game.world.position.</text>
<text xml:space="preserve" text-anchor="middle" x="2543.27" y="-157.41" font-family="Helvetica,sans-Serif" font-size="12.00">Position.getX</text>
</a>
</g>
</g>
<!-- Node5&#45;&gt;Node8 -->
<g id="edge10_Node000005_Node000008" class="edge">
<title>Node5&#45;&gt;Node8</title>
<g id="a_edge10_Node000005_Node000008"><a xlink:title=" ">
<path fill="none" stroke="#63b8ff" d="M1875.97,-286.47C1917.82,-251.93 1998.9,-191.77 2080.35,-168.81 2192.53,-137.19 2326.22,-141.47 2420.84,-151.09"/>
<polygon fill="#63b8ff" stroke="#63b8ff" points="2420.36,-154.55 2430.68,-152.12 2421.1,-147.59 2420.36,-154.55"/>
</a>
</g>
</g>
<!-- Node9 -->
<g id="Node000009" class="node">
<title>Node9</title>
<g id="a_Node000009"><a xlink:href="interfacecom_1_1runehive_1_1game_1_1world_1_1_interactable.html#a4fe2dfd0c67da8fd088077795154e218" target="_top" xlink:title=" ">
<ellipse fill="white" stroke="#666666" cx="2222.65" cy="-311.81" rx="110.49" ry="25.81"/>
<text xml:space="preserve" text-anchor="start" x="2152.53" y="-314.66" font-family="Helvetica,sans-Serif" font-size="12.00">com.runehive.game.world.</text>
<text xml:space="preserve" text-anchor="middle" x="2222.65" y="-300.41" font-family="Helvetica,sans-Serif" font-size="12.00">Interactable.getY</text>
</a>
</g>
</g>
<!-- Node5&#45;&gt;Node9 -->
<g id="edge11_Node000005_Node000009" class="edge">
<title>Node5&#45;&gt;Node9</title>
<g id="a_edge11_Node000005_Node000009"><a xlink:title=" ">
<path fill="none" stroke="#63b8ff" d="M1958.27,-311.81C2003.04,-311.81 2054.76,-311.81 2100.45,-311.81"/>
<polygon fill="#63b8ff" stroke="#63b8ff" points="2100.42,-315.31 2110.42,-311.81 2100.42,-308.31 2100.42,-315.31"/>
</a>
</g>
</g>
<!-- Node10 -->
<g id="Node000010" class="node">
<title>Node10</title>
<g id="a_Node000010"><a xlink:href="classcom_1_1runehive_1_1game_1_1world_1_1position_1_1_position.html#a55498d0fafce9fdeedca16984d79aee5" target="_top" xlink:title="Gets the absolute y coordinate.">
<ellipse fill="white" stroke="#666666" cx="2543.27" cy="-381.81" rx="142.31" ry="25.81"/>
<text xml:space="preserve" text-anchor="start" x="2450.64" y="-384.66" font-family="Helvetica,sans-Serif" font-size="12.00">com.runehive.game.world.position.</text>
<text xml:space="preserve" text-anchor="middle" x="2543.27" y="-370.41" font-family="Helvetica,sans-Serif" font-size="12.00">Position.getY</text>
</a>
</g>
</g>
<!-- Node5&#45;&gt;Node10 -->
<g id="edge14_Node000005_Node000010" class="edge">
<title>Node5&#45;&gt;Node10</title>
<g id="a_edge14_Node000005_Node000010"><a xlink:title=" ">
<path fill="none" stroke="#63b8ff" d="M1886.78,-336.11C1931.89,-362.02 2008.42,-401.38 2080.35,-416.81 2204.65,-443.47 2351.56,-423.86 2445.77,-404.96"/>
<polygon fill="#63b8ff" stroke="#63b8ff" points="2446.42,-408.4 2455.51,-402.96 2445.01,-401.54 2446.42,-408.4"/>
</a>
</g>
</g>
<!-- Node11 -->
<g id="Node000011" class="node">
<title>Node11</title>
<g id="a_Node000011"><a xlink:href="interfacecom_1_1runehive_1_1game_1_1world_1_1_interactable.html#a9513e5e63159a738b417ceba87cd1de8" target="_top" xlink:title=" ">
<ellipse fill="white" stroke="#666666" cx="2222.65" cy="-489.81" rx="110.49" ry="25.81"/>
<text xml:space="preserve" text-anchor="start" x="2152.53" y="-492.66" font-family="Helvetica,sans-Serif" font-size="12.00">com.runehive.game.world.</text>
<text xml:space="preserve" text-anchor="middle" x="2222.65" y="-478.41" font-family="Helvetica,sans-Serif" font-size="12.00">Interactable.length</text>
</a>
</g>
</g>
<!-- Node5&#45;&gt;Node11 -->
<g id="edge15_Node000005_Node000011" class="edge">
<title>Node5&#45;&gt;Node11</title>
<g id="a_edge15_Node000005_Node000011"><a xlink:title=" ">
<path fill="none" stroke="#63b8ff" d="M1882.1,-336.59C1926.54,-366.88 2006.11,-418 2080.35,-449.81 2096.85,-456.88 2114.95,-463.08 2132.54,-468.37"/>
<polygon fill="#63b8ff" stroke="#63b8ff" points="2131.37,-471.67 2141.95,-471.11 2133.33,-464.95 2131.37,-471.67"/>
</a>
</g>
</g>
<!-- Node12 -->
<g id="Node000012" class="node">
<title>Node12</title>
<g id="a_Node000012"><a xlink:href="classcom_1_1runehive_1_1game_1_1world_1_1position_1_1_position.html#a92154563715ed156b00ee6220e2991ff" target="_top" xlink:title="Creates a new location based on this location.">
<ellipse fill="white" stroke="#666666" cx="2222.65" cy="-559.81" rx="142.31" ry="25.81"/>
<text xml:space="preserve" text-anchor="start" x="2130.03" y="-562.66" font-family="Helvetica,sans-Serif" font-size="12.00">com.runehive.game.world.position.</text>
<text xml:space="preserve" text-anchor="middle" x="2222.65" y="-548.41" font-family="Helvetica,sans-Serif" font-size="12.00">Position.transform</text>
</a>
</g>
</g>
<!-- Node5&#45;&gt;Node12 -->
<g id="edge16_Node000005_Node000012" class="edge">
<title>Node5&#45;&gt;Node12</title>
<g id="a_edge16_Node000005_Node000012"><a xlink:title=" ">
<path fill="none" stroke="#63b8ff" d="M1867.35,-337.53C1904.76,-382.62 1988.66,-475.77 2080.35,-524.81 2089.69,-529.81 2099.77,-534.11 2110.09,-537.8"/>
<polygon fill="#63b8ff" stroke="#63b8ff" points="2108.87,-541.09 2119.47,-540.96 2111.1,-534.45 2108.87,-541.09"/>
</a>
</g>
</g>
<!-- Node14 -->
<g id="Node000014" class="node">
<title>Node14</title>
<g id="a_Node000014"><a xlink:href="interfacecom_1_1runehive_1_1game_1_1world_1_1_interactable.html#ad7eb47dad8c89c478cedc32ea6fe3a5b" target="_top" xlink:title=" ">
<ellipse fill="white" stroke="#666666" cx="2222.65" cy="-381.81" rx="110.49" ry="25.81"/>
<text xml:space="preserve" text-anchor="start" x="2152.53" y="-384.66" font-family="Helvetica,sans-Serif" font-size="12.00">com.runehive.game.world.</text>
<text xml:space="preserve" text-anchor="middle" x="2222.65" y="-370.41" font-family="Helvetica,sans-Serif" font-size="12.00">Interactable.width</text>
</a>
</g>
</g>
<!-- Node5&#45;&gt;Node14 -->
<g id="edge18_Node000005_Node000014" class="edge">
<title>Node5&#45;&gt;Node14</title>
<g id="a_edge18_Node000005_Node000014"><a xlink:title=" ">
<path fill="none" stroke="#63b8ff" d="M1933.76,-328.04C1990.65,-338.67 2065.08,-352.57 2124,-363.57"/>
<polygon fill="#63b8ff" stroke="#63b8ff" points="2123.23,-366.99 2133.7,-365.38 2124.52,-360.11 2123.23,-366.99"/>
</a>
</g>
</g>
<!-- Node7&#45;&gt;Node6 -->
<g id="edge8_Node000007_Node000006" class="edge">
<title>Node7&#45;&gt;Node6</title>
<g id="a_edge8_Node000007_Node000006"><a xlink:title=" ">
<path fill="none" stroke="#63b8ff" d="M2313.25,-219C2353.21,-225.77 2400.46,-233.77 2441.63,-240.75"/>
<polygon fill="#63b8ff" stroke="#63b8ff" points="2440.85,-244.17 2451.3,-242.39 2442.02,-237.27 2440.85,-244.17"/>
</a>
</g>
</g>
<!-- Node7&#45;&gt;Node8 -->
<g id="edge9_Node000007_Node000008" class="edge">
<title>Node7&#45;&gt;Node8</title>
<g id="a_edge9_Node000007_Node000008"><a xlink:title=" ">
<path fill="none" stroke="#63b8ff" d="M2323.15,-192.88C2350.4,-189.89 2380.37,-186.59 2409.16,-183.43"/>
<polygon fill="#63b8ff" stroke="#63b8ff" points="2409.5,-186.92 2419.05,-182.34 2408.73,-179.96 2409.5,-186.92"/>
</a>
</g>
</g>
<!-- Node9&#45;&gt;Node6 -->
<g id="edge12_Node000009_Node000006" class="edge">
<title>Node9&#45;&gt;Node6</title>
<g id="a_edge12_Node000009_Node000006"><a xlink:title=" ">
<path fill="none" stroke="#63b8ff" d="M2313.25,-296.62C2353.21,-289.85 2400.46,-281.84 2441.63,-274.87"/>
<polygon fill="#63b8ff" stroke="#63b8ff" points="2442.02,-278.35 2451.3,-273.23 2440.85,-271.45 2442.02,-278.35"/>
</a>
</g>
</g>
<!-- Node9&#45;&gt;Node10 -->
<g id="edge13_Node000009_Node000010" class="edge">
<title>Node9&#45;&gt;Node10</title>
<g id="a_edge13_Node000009_Node000010"><a xlink:title=" ">
<path fill="none" stroke="#63b8ff" d="M2304.47,-329.56C2345.68,-338.62 2396.24,-349.73 2440.12,-359.37"/>
<polygon fill="#63b8ff" stroke="#63b8ff" points="2439.13,-362.73 2449.65,-361.46 2440.63,-355.9 2439.13,-362.73"/>
</a>
</g>
</g>
<!-- Node13 -->
<g id="Node000013" class="node">
<title>Node13</title>
<g id="a_Node000013"><a xlink:href="classcom_1_1runehive_1_1game_1_1world_1_1position_1_1_position.html#a7803ff05a7b4b99d2883898ade9427f7" target="_top" xlink:title="Creates a location with a default height of 0.">
<ellipse fill="white" stroke="#666666" cx="2543.27" cy="-559.81" rx="142.31" ry="25.81"/>
<text xml:space="preserve" text-anchor="start" x="2450.64" y="-562.66" font-family="Helvetica,sans-Serif" font-size="12.00">com.runehive.game.world.position.</text>
<text xml:space="preserve" text-anchor="middle" x="2543.27" y="-548.41" font-family="Helvetica,sans-Serif" font-size="12.00">Position.Position</text>
</a>
</g>
</g>
<!-- Node12&#45;&gt;Node13 -->
<g id="edge17_Node000012_Node000013" class="edge">
<title>Node12&#45;&gt;Node13</title>
<g id="a_edge17_Node000012_Node000013"><a xlink:title=" ">
<path fill="none" stroke="#63b8ff" d="M2365.26,-559.81C2373.28,-559.81 2381.36,-559.81 2389.42,-559.81"/>
<polygon fill="#63b8ff" stroke="#63b8ff" points="2389.27,-563.31 2399.27,-559.81 2389.27,-556.31 2389.27,-563.31"/>
</a>
</g>
</g>
<!-- Node16 -->
<g id="Node000016" class="node">
<title>Node16</title>
<g id="a_Node000016"><a xlink:href="classcom_1_1runehive_1_1game_1_1engine_1_1_game_engine.html#ae7b35d8cab729eb899d677946ebdc785" target="_top" xlink:title=" ">
<ellipse fill="white" stroke="#666666" cx="1845.83" cy="-95.81" rx="156.62" ry="25.81"/>
<text xml:space="preserve" text-anchor="start" x="1743.08" y="-98.66" font-family="Helvetica,sans-Serif" font-size="12.00">com.runehive.game.engine.</text>
<text xml:space="preserve" text-anchor="middle" x="1845.83" y="-84.41" font-family="Helvetica,sans-Serif" font-size="12.00">GameEngine.clientTicksToServerTicks</text>
</a>
</g>
</g>
<!-- Node15&#45;&gt;Node16 -->
<g id="edge20_Node000015_Node000016" class="edge">
<title>Node15&#45;&gt;Node16</title>
<g id="a_edge20_Node000015_Node000016"><a xlink:title=" ">
<path fill="none" stroke="#63b8ff" d="M1611.65,-95.81C1633.7,-95.81 1656,-95.81 1677.61,-95.81"/>
<polygon fill="#63b8ff" stroke="#63b8ff" points="1677.33,-99.31 1687.33,-95.81 1677.33,-92.31 1677.33,-99.31"/>
</a>
</g>
</g>
<!-- Node19 -->
<g id="Node000019" class="node">
<title>Node19</title>
<g id="a_Node000019"><a xlink:href="classcom_1_1runehive_1_1game_1_1world_1_1entity_1_1combat_1_1projectile_1_1_combat_projectile.html#aefe04da7232b423103adc7f1514ca666" target="_top" xlink:title=" ">
<ellipse fill="white" stroke="#666666" cx="1845.83" cy="-25.81" rx="198.52" ry="25.81"/>
<text xml:space="preserve" text-anchor="start" x="1713.45" y="-28.66" font-family="Helvetica,sans-Serif" font-size="12.00">com.runehive.game.world.entity.combat.projectile.</text>
<text xml:space="preserve" text-anchor="middle" x="1845.83" y="-14.41" font-family="Helvetica,sans-Serif" font-size="12.00">CombatProjectile.getClientTicks</text>
</a>
</g>
</g>
<!-- Node15&#45;&gt;Node19 -->
<g id="edge23_Node000015_Node000019" class="edge">
<title>Node15&#45;&gt;Node19</title>
<g id="a_edge23_Node000015_Node000019"><a xlink:title=" ">
<path fill="none" stroke="#63b8ff" d="M1538.75,-75.52C1592.01,-66.87 1654.29,-56.75 1708.72,-47.91"/>
<polygon fill="#63b8ff" stroke="#63b8ff" points="1709.05,-51.41 1718.35,-46.35 1707.92,-44.5 1709.05,-51.41"/>
</a>
</g>
</g>
<!-- Node17 -->
<g id="Node000017" class="node">
<title>Node17</title>
<g id="a_Node000017"><a xlink:href="classcom_1_1runehive_1_1game_1_1engine_1_1_game_engine.html#a9f9958b08dce76c2a430a36bdda9481f" target="_top" xlink:title=" ">
<ellipse fill="white" stroke="#666666" cx="2222.65" cy="-95.81" rx="131.7" ry="25.81"/>
<text xml:space="preserve" text-anchor="start" x="2137.53" y="-98.66" font-family="Helvetica,sans-Serif" font-size="12.00">com.runehive.game.engine.</text>
<text xml:space="preserve" text-anchor="middle" x="2222.65" y="-84.41" font-family="Helvetica,sans-Serif" font-size="12.00">GameEngine.clientTicksToMillis</text>
</a>
</g>
</g>
<!-- Node16&#45;&gt;Node17 -->
<g id="edge21_Node000016_Node000017" class="edge">
<title>Node16&#45;&gt;Node17</title>
<g id="a_edge21_Node000016_Node000017"><a xlink:title=" ">
<path fill="none" stroke="#63b8ff" d="M2002.8,-95.81C2028.17,-95.81 2054.32,-95.81 2079.33,-95.81"/>
<polygon fill="#63b8ff" stroke="#63b8ff" points="2079.22,-99.31 2089.22,-95.81 2079.22,-92.31 2079.22,-99.31"/>
</a>
</g>
</g>
<!-- Node18 -->
<g id="Node000018" class="node">
<title>Node18</title>
<g id="a_Node000018"><a xlink:href="classcom_1_1runehive_1_1game_1_1engine_1_1_game_engine.html#ad128be80c8671fa9a79bb17209c27dd4" target="_top" xlink:title=" ">
<ellipse fill="white" stroke="#666666" cx="2222.65" cy="-25.81" rx="115.79" ry="25.81"/>
<text xml:space="preserve" text-anchor="start" x="2148.78" y="-28.66" font-family="Helvetica,sans-Serif" font-size="12.00">com.runehive.game.engine.</text>
<text xml:space="preserve" text-anchor="middle" x="2222.65" y="-14.41" font-family="Helvetica,sans-Serif" font-size="12.00">GameEngine.millisToTicks</text>
</a>
</g>
</g>
<!-- Node16&#45;&gt;Node18 -->
<g id="edge22_Node000016_Node000018" class="edge">
<title>Node16&#45;&gt;Node18</title>
<g id="a_edge22_Node000016_Node000018"><a xlink:title=" ">
<path fill="none" stroke="#63b8ff" d="M1955.31,-76.98C1984.26,-71.85 2015.51,-66.21 2044.35,-60.81 2070.39,-55.93 2098.54,-50.47 2124.58,-45.33"/>
<polygon fill="#63b8ff" stroke="#63b8ff" points="2124.98,-48.82 2134.11,-43.44 2123.62,-41.95 2124.98,-48.82"/>
</a>
</g>
</g>
</g>
</svg>

<g id="navigator" transform="translate(0 0)" fill="#404254">
  <rect fill="#f2f5e9" fill-opacity="0.5" stroke="#606060" stroke-width=".5" x="0" y="0" width="60" height="60"/>
  <use id="zoomplus" xlink:href="#zoomPlus" x="17" y="9" onmousedown="handleZoom(evt,'in')"/>
  <use id="zoomminus" xlink:href="#zoomMin" x="42" y="9" onmousedown="handleZoom(evt,'out')"/>
  <use id="reset" xlink:href="#resetDef" x="30" y="36" onmousedown="handleReset()"/>
   <use id="arrowup" xlink:href="#arrowUp" x="0" y="0" onmousedown="handlePan(0,-1)"/>
  <use id="arrowright" xlink:href="#arrowRight" x="0" y="0" onmousedown="handlePan(1,0)"/>
  <use id="arrowdown" xlink:href="#arrowDown" x="0" y="0" onmousedown="handlePan(0,1)"/>
  <use id="arrowleft" xlink:href="#arrowLeft" x="0" y="0" onmousedown="handlePan(-1,0)"/>
</g>
<svg viewBox="0 0 15 15" width="100%" height="30px" preserveAspectRatio="xMaxYMin meet">
 <g id="arrow_out" transform="scale(0.3 0.3)">
  <a xlink:href="classcom_1_1runehive_1_1game_1_1world_1_1entity_1_1combat_1_1strategy_1_1npc_1_1boss_1_1_king_black_dragon_strategy_1_1_freeze_a15dd371c2e1ad28721a6e38cbbe1ddf5_cgraph_org.svg" target="_base">
   <rect id="button" ry="5" rx="5" y="6" x="6" height="38" width="38"
        fill="#f2f5e9" fill-opacity="0.5" stroke="#606060" stroke-width="1.0"/>
   <path id="arrow"
     d="M 11.500037,31.436501 C 11.940474,20.09759 22.043105,11.32322 32.158766,21.979434 L 37.068811,17.246167 C 37.068811,17.246167 37.088388,32 37.088388,32 L 22.160133,31.978069 C 22.160133,31.978069 26.997745,27.140456 26.997745,27.140456 C 18.528582,18.264221 13.291696,25.230495 11.500037,31.436501 z"
     style="fill:#404040;"/>
  </a>
 </g>
</svg>

<style type='text/css'>
<![CDATA[
[data-mouse-over-selected='false'] { opacity: 0.7; }
[data-mouse-over-selected='true']  { opacity: 1.0; }
]]>
</style>
<script type="application/ecmascript"><![CDATA[
document.addEventListener('DOMContentLoaded', (event) => {
  highlightEdges();
  highlightAdjacentNodes();
});
]]></script>
</svg>
