<?xml version="1.0" encoding="UTF-8" standalone="no"?>
<!DOCTYPE svg PUBLIC "-//W3C//DTD SVG 1.1//EN"
 "http://www.w3.org/Graphics/SVG/1.1/DTD/svg11.dtd">
<!-- Generated by graphviz version 14.0.1 (20251006.0113)
 -->
<!-- Title: com.runehive.game.world.entity.mob.player.exchange.duel.StakeSession.onButtonClick Pages: 1 -->
<svg width="4071pt" height="866pt"
 viewBox="0.00 0.00 4071.00 866.00" xmlns="http://www.w3.org/2000/svg" xmlns:xlink="http://www.w3.org/1999/xlink">
<g id="graph0" class="graph" transform="scale(1 1) rotate(0) translate(4 861.62)">
<title>com.runehive.game.world.entity.mob.player.exchange.duel.StakeSession.onButtonClick</title>
<!-- Node1 -->
<g id="Node000001" class="node">
<title>Node1</title>
<g id="a_Node000001"><a xlink:title="The method invoked when a button is clicked.">
<ellipse fill="#999999" stroke="#666666" cx="233.52" cy="-95.81" rx="233.52" ry="25.81"/>
<text xml:space="preserve" text-anchor="start" x="76.4" y="-98.66" font-family="Helvetica,sans-Serif" font-size="12.00">com.runehive.game.world.entity.mob.player.exchange.duel.</text>
<text xml:space="preserve" text-anchor="middle" x="233.52" y="-84.41" font-family="Helvetica,sans-Serif" font-size="12.00">StakeSession.onButtonClick</text>
</a>
</g>
</g>
<!-- Node2 -->
<g id="Node000002" class="node">
<title>Node2</title>
<g id="a_Node000002"><a xlink:href="classcom_1_1runehive_1_1game_1_1world_1_1entity_1_1mob_1_1player_1_1exchange_1_1duel_1_1_stake_session.html#a63cee3c846aa8eda4e2acdb7f7abb3fc" target="_top" xlink:title="The method invoked when a PLAYER accepts a certain exchange component.">
<ellipse fill="white" stroke="#666666" cx="736.57" cy="-511.81" rx="233.52" ry="25.81"/>
<text xml:space="preserve" text-anchor="start" x="579.44" y="-514.66" font-family="Helvetica,sans-Serif" font-size="12.00">com.runehive.game.world.entity.mob.player.exchange.duel.</text>
<text xml:space="preserve" text-anchor="middle" x="736.57" y="-500.41" font-family="Helvetica,sans-Serif" font-size="12.00">StakeSession.accept</text>
</a>
</g>
</g>
<!-- Node1&#45;&gt;Node2 -->
<g id="edge1_Node000001_Node000002" class="edge">
<title>Node1&#45;&gt;Node2</title>
<g id="a_edge1_Node000001_Node000002"><a xlink:title=" ">
<path fill="none" stroke="#63b8ff" d="M265.86,-121.83C353.12,-194.28 598.78,-398.24 695.61,-478.64"/>
<polygon fill="#63b8ff" stroke="#63b8ff" points="693.14,-481.13 703.07,-484.83 697.61,-475.75 693.14,-481.13"/>
</a>
</g>
</g>
<!-- Node34 -->
<g id="Node000034" class="node">
<title>Node34</title>
<g id="a_Node000034"><a xlink:href="enumcom_1_1runehive_1_1content_1_1activity_1_1impl_1_1duelarena_1_1_duel_rule.html#a3c9e69bcd0d70f6abd2ea482a80e25eb" target="_top" xlink:title=" ">
<ellipse fill="white" stroke="#666666" cx="736.57" cy="-25.81" rx="179.96" ry="25.81"/>
<text xml:space="preserve" text-anchor="start" x="617.32" y="-28.66" font-family="Helvetica,sans-Serif" font-size="12.00">com.runehive.content.activity.impl.duelarena.</text>
<text xml:space="preserve" text-anchor="middle" x="736.57" y="-14.41" font-family="Helvetica,sans-Serif" font-size="12.00">DuelRule.forButton</text>
</a>
</g>
</g>
<!-- Node1&#45;&gt;Node34 -->
<g id="edge42_Node000001_Node000034" class="edge">
<title>Node1&#45;&gt;Node34</title>
<g id="a_edge42_Node000001_Node000034"><a xlink:title=" ">
<path fill="none" stroke="#63b8ff" d="M380.79,-75.37C448.37,-65.93 528.28,-54.77 595.13,-45.43"/>
<polygon fill="#63b8ff" stroke="#63b8ff" points="595.25,-48.95 604.67,-44.1 594.28,-42.01 595.25,-48.95"/>
</a>
</g>
</g>
<!-- Node36 -->
<g id="Node000036" class="node">
<title>Node36</title>
<g id="a_Node000036"><a xlink:href="enumcom_1_1runehive_1_1content_1_1activity_1_1impl_1_1duelarena_1_1_duel_rule.html#a6639507973c039fe8a2cb958b82af582" target="_top" xlink:title=" ">
<ellipse fill="white" stroke="#666666" cx="736.57" cy="-95.81" rx="179.96" ry="25.81"/>
<text xml:space="preserve" text-anchor="start" x="617.32" y="-98.66" font-family="Helvetica,sans-Serif" font-size="12.00">com.runehive.content.activity.impl.duelarena.</text>
<text xml:space="preserve" text-anchor="middle" x="736.57" y="-84.41" font-family="Helvetica,sans-Serif" font-size="12.00">DuelRule.showRules</text>
</a>
</g>
</g>
<!-- Node1&#45;&gt;Node36 -->
<g id="edge44_Node000001_Node000036" class="edge">
<title>Node1&#45;&gt;Node36</title>
<g id="a_edge44_Node000001_Node000036"><a xlink:title=" ">
<path fill="none" stroke="#63b8ff" d="M467.44,-95.81C493.49,-95.81 519.79,-95.81 545.21,-95.81"/>
<polygon fill="#63b8ff" stroke="#63b8ff" points="544.92,-99.31 554.92,-95.81 544.92,-92.31 544.92,-99.31"/>
</a>
</g>
</g>
<!-- Node3 -->
<g id="Node000003" class="node">
<title>Node3</title>
<g id="a_Node000003"><a xlink:href="classcom_1_1runehive_1_1game_1_1world_1_1entity_1_1mob_1_1player_1_1exchange_1_1_exchange_session.html#ac101c88937aca5a9a69e4350e3d39081" target="_top" xlink:title="Finalizes the exchange session procedure for the specified player in a session.">
<ellipse fill="white" stroke="#666666" cx="1221.05" cy="-511.81" rx="214.96" ry="25.81"/>
<text xml:space="preserve" text-anchor="start" x="1077.05" y="-514.66" font-family="Helvetica,sans-Serif" font-size="12.00">com.runehive.game.world.entity.mob.player.exchange.</text>
<text xml:space="preserve" text-anchor="middle" x="1221.05" y="-500.41" font-family="Helvetica,sans-Serif" font-size="12.00">ExchangeSession.finalize</text>
</a>
</g>
</g>
<!-- Node2&#45;&gt;Node3 -->
<g id="edge2_Node000002_Node000003" class="edge">
<title>Node2&#45;&gt;Node3</title>
<g id="a_edge2_Node000002_Node000003"><a xlink:title=" ">
<path fill="none" stroke="#63b8ff" d="M970.33,-511.81C978.35,-511.81 986.39,-511.81 994.41,-511.81"/>
<polygon fill="#63b8ff" stroke="#63b8ff" points="994.21,-515.31 1004.21,-511.81 994.21,-508.31 994.21,-515.31"/>
</a>
</g>
</g>
<!-- Node11 -->
<g id="Node000011" class="node">
<title>Node11</title>
<g id="a_Node000011"><a xlink:href="classcom_1_1runehive_1_1game_1_1world_1_1entity_1_1mob_1_1player_1_1exchange_1_1_exchange_session.html#a5f172d02a878e058726ebf4cd3aed411" target="_top" xlink:title="Retrieves the attachment object to this class.">
<ellipse fill="white" stroke="#666666" cx="1221.05" cy="-689.81" rx="214.96" ry="25.81"/>
<text xml:space="preserve" text-anchor="start" x="1077.05" y="-692.66" font-family="Helvetica,sans-Serif" font-size="12.00">com.runehive.game.world.entity.mob.player.exchange.</text>
<text xml:space="preserve" text-anchor="middle" x="1221.05" y="-678.41" font-family="Helvetica,sans-Serif" font-size="12.00">ExchangeSession.getAttachment</text>
</a>
</g>
</g>
<!-- Node2&#45;&gt;Node11 -->
<g id="edge11_Node000002_Node000011" class="edge">
<title>Node2&#45;&gt;Node11</title>
<g id="a_edge11_Node000002_Node000011"><a xlink:title=" ">
<path fill="none" stroke="#63b8ff" d="M776.2,-537.65C826.79,-570.23 919.27,-625.48 1006.09,-654.81 1022.48,-660.35 1039.88,-665.02 1057.4,-668.97"/>
<polygon fill="#63b8ff" stroke="#63b8ff" points="1056.32,-672.32 1066.84,-671.01 1057.81,-665.48 1056.32,-672.32"/>
</a>
</g>
</g>
<!-- Node12 -->
<g id="Node000012" class="node">
<title>Node12</title>
<g id="a_Node000012"><a xlink:href="classcom_1_1runehive_1_1game_1_1world_1_1entity_1_1mob_1_1player_1_1exchange_1_1_exchange_session.html#af3a6408055f884861e4e302386434048" target="_top" xlink:title="Gets the other player in the exchange session.">
<ellipse fill="white" stroke="#666666" cx="1705.53" cy="-706.81" rx="214.96" ry="25.81"/>
<text xml:space="preserve" text-anchor="start" x="1561.53" y="-709.66" font-family="Helvetica,sans-Serif" font-size="12.00">com.runehive.game.world.entity.mob.player.exchange.</text>
<text xml:space="preserve" text-anchor="middle" x="1705.53" y="-695.41" font-family="Helvetica,sans-Serif" font-size="12.00">ExchangeSession.getOther</text>
</a>
</g>
</g>
<!-- Node2&#45;&gt;Node12 -->
<g id="edge12_Node000002_Node000012" class="edge">
<title>Node2&#45;&gt;Node12</title>
<g id="a_edge12_Node000002_Node000012"><a xlink:title=" ">
<path fill="none" stroke="#63b8ff" d="M884.81,-532.12C924.17,-537.24 966.71,-542.51 1006.09,-546.81 1101.43,-557.23 1347.95,-546.81 1436.01,-584.81 1455.66,-593.29 1453.74,-605.66 1472.01,-616.81 1514.93,-643.01 1566.78,-663.96 1610.62,-679.04"/>
<polygon fill="#63b8ff" stroke="#63b8ff" points="1609.26,-682.27 1619.85,-682.16 1611.5,-675.64 1609.26,-682.27"/>
</a>
</g>
</g>
<!-- Node13 -->
<g id="Node000013" class="node">
<title>Node13</title>
<g id="a_Node000013"><a xlink:href="classcom_1_1runehive_1_1game_1_1world_1_1entity_1_1mob_1_1player_1_1exchange_1_1_exchange_session.html#a1f671820d863db910f7ece7839ff049b" target="_top" xlink:title="Determines if the trade stage has an attachment.">
<ellipse fill="white" stroke="#666666" cx="1221.05" cy="-619.81" rx="214.96" ry="25.81"/>
<text xml:space="preserve" text-anchor="start" x="1077.05" y="-622.66" font-family="Helvetica,sans-Serif" font-size="12.00">com.runehive.game.world.entity.mob.player.exchange.</text>
<text xml:space="preserve" text-anchor="middle" x="1221.05" y="-608.41" font-family="Helvetica,sans-Serif" font-size="12.00">ExchangeSession.hasAttachment</text>
</a>
</g>
</g>
<!-- Node2&#45;&gt;Node13 -->
<g id="edge14_Node000002_Node000013" class="edge">
<title>Node2&#45;&gt;Node13</title>
<g id="a_edge14_Node000002_Node000013"><a xlink:title=" ">
<path fill="none" stroke="#63b8ff" d="M827.35,-536.06C879.36,-549.72 946.2,-566.64 1006.09,-579.81 1032.04,-585.52 1059.88,-591.1 1086.6,-596.21"/>
<polygon fill="#63b8ff" stroke="#63b8ff" points="1085.62,-599.58 1096.09,-598.01 1086.92,-592.71 1085.62,-599.58"/>
</a>
</g>
</g>
<!-- Node14 -->
<g id="Node000014" class="node">
<title>Node14</title>
<g id="a_Node000014"><a xlink:href="classcom_1_1runehive_1_1game_1_1world_1_1entity_1_1mob_1_1player_1_1exchange_1_1_exchange_session.html#ac025a42bb16517677968e4d713bac5fe" target="_top" xlink:title="Assigns an attachment to this stage object.">
<ellipse fill="white" stroke="#666666" cx="2693.06" cy="-457.81" rx="214.96" ry="25.81"/>
<text xml:space="preserve" text-anchor="start" x="2549.06" y="-460.66" font-family="Helvetica,sans-Serif" font-size="12.00">com.runehive.game.world.entity.mob.player.exchange.</text>
<text xml:space="preserve" text-anchor="middle" x="2693.06" y="-446.41" font-family="Helvetica,sans-Serif" font-size="12.00">ExchangeSession.setAttachment</text>
</a>
</g>
</g>
<!-- Node2&#45;&gt;Node14 -->
<g id="edge15_Node000002_Node000014" class="edge">
<title>Node2&#45;&gt;Node14</title>
<g id="a_edge15_Node000002_Node000014"><a xlink:title=" ">
<path fill="none" stroke="#63b8ff" d="M875.24,-490.69C917.15,-485.11 963.41,-479.82 1006.09,-476.81 1530.57,-439.8 2149.06,-445.37 2471.43,-451.99"/>
<polygon fill="#63b8ff" stroke="#63b8ff" points="2471.19,-455.49 2481.26,-452.2 2471.34,-448.49 2471.19,-455.49"/>
</a>
</g>
</g>
<!-- Node15 -->
<g id="Node000015" class="node">
<title>Node15</title>
<g id="a_Node000015"><a xlink:href="classcom_1_1runehive_1_1game_1_1world_1_1entity_1_1mob_1_1player_1_1exchange_1_1duel_1_1_stake_session.html#ac5fe275b87640693f500ce1e91382771" target="_top" xlink:title="Updates the main components of the itemcontainer.">
<ellipse fill="white" stroke="#666666" cx="1705.53" cy="-403.81" rx="233.52" ry="25.81"/>
<text xml:space="preserve" text-anchor="start" x="1548.41" y="-406.66" font-family="Helvetica,sans-Serif" font-size="12.00">com.runehive.game.world.entity.mob.player.exchange.duel.</text>
<text xml:space="preserve" text-anchor="middle" x="1705.53" y="-392.41" font-family="Helvetica,sans-Serif" font-size="12.00">StakeSession.updateMainComponents</text>
</a>
</g>
</g>
<!-- Node2&#45;&gt;Node15 -->
<g id="edge16_Node000002_Node000015" class="edge">
<title>Node2&#45;&gt;Node15</title>
<g id="a_edge16_Node000002_Node000015"><a xlink:title=" ">
<path fill="none" stroke="#63b8ff" d="M817.82,-487.21C870.76,-472.05 941.92,-453.68 1006.09,-443.81 1156.27,-420.71 1326.48,-410.63 1461.26,-406.37"/>
<polygon fill="#63b8ff" stroke="#63b8ff" points="1461.14,-409.88 1471.03,-406.07 1460.93,-402.88 1461.14,-409.88"/>
</a>
</g>
</g>
<!-- Node4 -->
<g id="Node000004" class="node">
<title>Node4</title>
<g id="a_Node000004"><a xlink:href="classcom_1_1runehive_1_1game_1_1world_1_1entity_1_1mob_1_1player_1_1exchange_1_1_exchange_session.html#a168548c48e8657d384e434506fd00046" target="_top" xlink:title="Gets the session if applicable the player is in.">
<ellipse fill="white" stroke="#666666" cx="1705.53" cy="-511.81" rx="214.96" ry="25.81"/>
<text xml:space="preserve" text-anchor="start" x="1561.53" y="-514.66" font-family="Helvetica,sans-Serif" font-size="12.00">com.runehive.game.world.entity.mob.player.exchange.</text>
<text xml:space="preserve" text-anchor="middle" x="1705.53" y="-500.41" font-family="Helvetica,sans-Serif" font-size="12.00">ExchangeSession.getSession</text>
</a>
</g>
</g>
<!-- Node3&#45;&gt;Node4 -->
<g id="edge3_Node000003_Node000004" class="edge">
<title>Node3&#45;&gt;Node4</title>
<g id="a_edge3_Node000003_Node000004"><a xlink:title=" ">
<path fill="none" stroke="#63b8ff" d="M1436.48,-511.81C1450.58,-511.81 1464.81,-511.81 1478.96,-511.81"/>
<polygon fill="#63b8ff" stroke="#63b8ff" points="1478.77,-515.31 1488.77,-511.81 1478.77,-508.31 1478.77,-515.31"/>
</a>
</g>
</g>
<!-- Node10 -->
<g id="Node000010" class="node">
<title>Node10</title>
<g id="a_Node000010"><a xlink:href="classcom_1_1runehive_1_1game_1_1world_1_1entity_1_1mob_1_1player_1_1exchange_1_1_exchange_session.html#af5dd979fe4389312a1c548a6168f037b" target="_top" xlink:title="Any functionality that should be handled when the itemcontainer closes.">
<ellipse fill="white" stroke="#666666" cx="1705.53" cy="-581.81" rx="214.96" ry="25.81"/>
<text xml:space="preserve" text-anchor="start" x="1561.53" y="-584.66" font-family="Helvetica,sans-Serif" font-size="12.00">com.runehive.game.world.entity.mob.player.exchange.</text>
<text xml:space="preserve" text-anchor="middle" x="1705.53" y="-570.41" font-family="Helvetica,sans-Serif" font-size="12.00">ExchangeSession.onReset</text>
</a>
</g>
</g>
<!-- Node3&#45;&gt;Node10 -->
<g id="edge10_Node000003_Node000010" class="edge">
<title>Node3&#45;&gt;Node10</title>
<g id="a_edge10_Node000003_Node000010"><a xlink:title=" ">
<path fill="none" stroke="#63b8ff" d="M1360.31,-531.87C1421.25,-540.71 1492.99,-551.12 1555.16,-560.14"/>
<polygon fill="#63b8ff" stroke="#63b8ff" points="1554.35,-563.56 1564.75,-561.53 1555.36,-556.63 1554.35,-563.56"/>
</a>
</g>
</g>
<!-- Node5 -->
<g id="Node000005" class="node">
<title>Node5</title>
<g id="a_Node000005"><a xlink:href="classcom_1_1runehive_1_1game_1_1world_1_1entity_1_1mob_1_1player_1_1exchange_1_1_exchange_session.html#af7a93a001cc48e0f260add81c71274b2" target="_top" xlink:title=" ">
<ellipse fill="white" stroke="#666666" cx="2208.58" cy="-698.81" rx="214.96" ry="25.81"/>
<text xml:space="preserve" text-anchor="start" x="2064.58" y="-701.66" font-family="Helvetica,sans-Serif" font-size="12.00">com.runehive.game.world.entity.mob.player.exchange.</text>
<text xml:space="preserve" text-anchor="middle" x="2208.58" y="-687.41" font-family="Helvetica,sans-Serif" font-size="12.00">ExchangeSession.anyMatch</text>
</a>
</g>
</g>
<!-- Node4&#45;&gt;Node5 -->
<g id="edge4_Node000004_Node000005" class="edge">
<title>Node4&#45;&gt;Node5</title>
<g id="a_edge4_Node000004_Node000005"><a xlink:title=" ">
<path fill="none" stroke="#63b8ff" d="M1900.06,-523.11C1914.15,-529.13 1927.39,-536.89 1939.05,-546.81 1978.89,-580.68 1935.57,-624.53 1975.05,-658.81 1985.67,-668.03 1997.62,-675.49 2010.35,-681.51"/>
<polygon fill="#63b8ff" stroke="#63b8ff" points="2008.77,-684.64 2019.33,-685.43 2011.57,-678.22 2008.77,-684.64"/>
</a>
</g>
</g>
<!-- Node5&#45;&gt;Node5 -->
<g id="edge5_Node000005_Node000005" class="edge">
<title>Node5&#45;&gt;Node5</title>
<g id="a_edge5_Node000005_Node000005"><a xlink:title=" ">
<path fill="none" stroke="#63b8ff" d="M2119.15,-722.69C2110.64,-733.38 2140.44,-742.62 2208.58,-742.62 2253.29,-742.62 2281.49,-738.64 2293.19,-732.88"/>
<polygon fill="#63b8ff" stroke="#63b8ff" points="2296.25,-734.6 2297.35,-724.06 2289.92,-731.62 2296.25,-734.6"/>
</a>
</g>
</g>
<!-- Node6 -->
<g id="Node000006" class="node">
<title>Node6</title>
<g id="a_Node000006"><a xlink:href="classcom_1_1runehive_1_1game_1_1world_1_1entity_1_1mob_1_1player_1_1exchange_1_1_exchange_session.html#aaa0093dd867b19cd52bb04681335e212" target="_top" xlink:title="Constructs a new ExchangeSession.">
<ellipse fill="white" stroke="#666666" cx="2693.06" cy="-831.81" rx="214.96" ry="25.81"/>
<text xml:space="preserve" text-anchor="start" x="2549.06" y="-834.66" font-family="Helvetica,sans-Serif" font-size="12.00">com.runehive.game.world.entity.mob.player.exchange.</text>
<text xml:space="preserve" text-anchor="middle" x="2693.06" y="-820.41" font-family="Helvetica,sans-Serif" font-size="12.00">ExchangeSession.ExchangeSession</text>
</a>
</g>
</g>
<!-- Node5&#45;&gt;Node6 -->
<g id="edge6_Node000005_Node000006" class="edge">
<title>Node5&#45;&gt;Node6</title>
<g id="a_edge6_Node000005_Node000006"><a xlink:title=" ">
<path fill="none" stroke="#63b8ff" d="M2268.54,-723.97C2322.28,-746.02 2404.28,-777.49 2478.1,-796.81 2497.3,-801.84 2517.67,-806.28 2537.91,-810.16"/>
<polygon fill="#63b8ff" stroke="#63b8ff" points="2537.17,-813.58 2547.65,-811.98 2538.46,-806.7 2537.17,-813.58"/>
</a>
</g>
</g>
<!-- Node8 -->
<g id="Node000008" class="node">
<title>Node8</title>
<g id="a_Node000008"><a xlink:href="classcom_1_1runehive_1_1game_1_1world_1_1entity_1_1mob_1_1player_1_1_player.html#a448ed37dd7d81845d5493c3b63cad6f3" target="_top" xlink:title="Gets the name of this entity.">
<ellipse fill="white" stroke="#666666" cx="2693.06" cy="-761.81" rx="175.72" ry="25.81"/>
<text xml:space="preserve" text-anchor="start" x="2576.81" y="-764.66" font-family="Helvetica,sans-Serif" font-size="12.00">com.runehive.game.world.entity.mob.player.</text>
<text xml:space="preserve" text-anchor="middle" x="2693.06" y="-750.41" font-family="Helvetica,sans-Serif" font-size="12.00">Player.getName</text>
</a>
</g>
</g>
<!-- Node5&#45;&gt;Node8 -->
<g id="edge8_Node000005_Node000008" class="edge">
<title>Node5&#45;&gt;Node8</title>
<g id="a_edge8_Node000005_Node000008"><a xlink:title=" ">
<path fill="none" stroke="#63b8ff" d="M2355.97,-717.93C2417.19,-725.92 2488.1,-735.18 2548.96,-743.12"/>
<polygon fill="#63b8ff" stroke="#63b8ff" points="2548.33,-746.57 2558.7,-744.4 2549.24,-739.63 2548.33,-746.57"/>
</a>
</g>
</g>
<!-- Node7 -->
<g id="Node000007" class="node">
<title>Node7</title>
<g id="a_Node000007"><a xlink:href="classcom_1_1runehive_1_1game_1_1world_1_1entity_1_1mob_1_1player_1_1exchange_1_1_exchange_session.html#ac1d0de35c73a1a1bdd366b2599c0d905" target="_top" xlink:title="Executes the specified action for every player in this session.">
<ellipse fill="white" stroke="#666666" cx="3158.98" cy="-599.81" rx="214.96" ry="25.81"/>
<text xml:space="preserve" text-anchor="start" x="3014.98" y="-602.66" font-family="Helvetica,sans-Serif" font-size="12.00">com.runehive.game.world.entity.mob.player.exchange.</text>
<text xml:space="preserve" text-anchor="middle" x="3158.98" y="-588.41" font-family="Helvetica,sans-Serif" font-size="12.00">ExchangeSession.forEach</text>
</a>
</g>
</g>
<!-- Node6&#45;&gt;Node7 -->
<g id="edge7_Node000006_Node000007" class="edge">
<title>Node6&#45;&gt;Node7</title>
<g id="a_edge7_Node000006_Node000007"><a xlink:title=" ">
<path fill="none" stroke="#63b8ff" d="M2872.99,-817.34C2885.54,-811.97 2897.4,-805.23 2908.02,-796.81 2940.81,-770.81 2915.67,-740.59 2944.02,-709.81 2978.12,-672.76 3027.56,-646.22 3070.32,-628.49"/>
<polygon fill="#63b8ff" stroke="#63b8ff" points="3071.38,-631.84 3079.35,-624.85 3068.76,-625.35 3071.38,-631.84"/>
</a>
</g>
</g>
<!-- Node9 -->
<g id="Node000009" class="node">
<title>Node9</title>
<g id="a_Node000009"><a xlink:href="classcom_1_1runehive_1_1util_1_1_utility.html#a04d5eb201f824f0f367a9fb60f2f2814" target="_top" xlink:title=" ">
<ellipse fill="white" stroke="#666666" cx="3158.98" cy="-734.81" rx="146.55" ry="15.73"/>
<text xml:space="preserve" text-anchor="middle" x="3158.98" y="-730.53" font-family="Helvetica,sans-Serif" font-size="12.00">com.runehive.util.Utility.formatName</text>
</a>
</g>
</g>
<!-- Node8&#45;&gt;Node9 -->
<g id="edge9_Node000008_Node000009" class="edge">
<title>Node8&#45;&gt;Node9</title>
<g id="a_edge9_Node000008_Node000009"><a xlink:title=" ">
<path fill="none" stroke="#63b8ff" d="M2857.29,-752.31C2909.58,-749.27 2966.99,-745.93 3017.5,-742.99"/>
<polygon fill="#63b8ff" stroke="#63b8ff" points="3017.55,-746.49 3027.33,-742.41 3017.14,-739.5 3017.55,-746.49"/>
</a>
</g>
</g>
<!-- Node12&#45;&gt;Node8 -->
<g id="edge13_Node000012_Node000008" class="edge">
<title>Node12&#45;&gt;Node8</title>
<g id="a_edge13_Node000012_Node000008"><a xlink:title=" ">
<path fill="none" stroke="#63b8ff" d="M1817.42,-729.29C1865.63,-738.05 1922.91,-747.1 1975.05,-751.81 2156.01,-768.14 2363.68,-769.1 2508.79,-766.91"/>
<polygon fill="#63b8ff" stroke="#63b8ff" points="2508.55,-770.41 2518.49,-766.75 2508.43,-763.41 2508.55,-770.41"/>
</a>
</g>
</g>
<!-- Node15&#45;&gt;Node7 -->
<g id="edge17_Node000015_Node000007" class="edge">
<title>Node15&#45;&gt;Node7</title>
<g id="a_edge17_Node000015_Node000007"><a xlink:title=" ">
<path fill="none" stroke="#63b8ff" d="M1937.07,-400.13C2260.27,-396.1 2818.73,-393.62 2908.02,-422.81 2996.1,-451.61 3080.09,-523.22 3124.75,-566.01"/>
<polygon fill="#63b8ff" stroke="#63b8ff" points="3122.18,-568.4 3131.79,-572.85 3127.06,-563.38 3122.18,-568.4"/>
</a>
</g>
</g>
<!-- Node15&#45;&gt;Node8 -->
<g id="edge25_Node000015_Node000008" class="edge">
<title>Node15&#45;&gt;Node8</title>
<g id="a_edge25_Node000015_Node000008"><a xlink:title=" ">
<path fill="none" stroke="#63b8ff" d="M1850.83,-424.31C1883.58,-435.17 1915.57,-451.7 1939.05,-476.81 1985.58,-526.57 1923.27,-581.53 1975.05,-625.81 2054.19,-693.48 2352.8,-610.24 2442.1,-663.81 2467.47,-679.03 2453.62,-703.18 2478.1,-719.81 2494.07,-730.66 2512.18,-738.86 2530.93,-745.02"/>
<polygon fill="#63b8ff" stroke="#63b8ff" points="2529.69,-748.3 2540.28,-747.89 2531.74,-741.61 2529.69,-748.3"/>
</a>
</g>
</g>
<!-- Node16 -->
<g id="Node000016" class="node">
<title>Node16</title>
<g id="a_Node000016"><a xlink:href="classcom_1_1runehive_1_1content_1_1activity_1_1impl_1_1duelarena_1_1_duel_utils.html#a29f6fbde1d255c3a59d0a6c7a6d0546b" target="_top" xlink:title=" ">
<ellipse fill="white" stroke="#666666" cx="2208.58" cy="-349.81" rx="179.96" ry="25.81"/>
<text xml:space="preserve" text-anchor="start" x="2089.33" y="-352.66" font-family="Helvetica,sans-Serif" font-size="12.00">com.runehive.content.activity.impl.duelarena.</text>
<text xml:space="preserve" text-anchor="middle" x="2208.58" y="-338.41" font-family="Helvetica,sans-Serif" font-size="12.00">DuelUtils.getItemNames</text>
</a>
</g>
</g>
<!-- Node15&#45;&gt;Node16 -->
<g id="edge18_Node000015_Node000016" class="edge">
<title>Node15&#45;&gt;Node16</title>
<g id="a_edge18_Node000015_Node000016"><a xlink:title=" ">
<path fill="none" stroke="#63b8ff" d="M1874.77,-385.68C1932.07,-379.5 1995.83,-372.63 2052.09,-366.57"/>
<polygon fill="#63b8ff" stroke="#63b8ff" points="2052.17,-370.08 2061.73,-365.53 2051.42,-363.12 2052.17,-370.08"/>
</a>
</g>
</g>
<!-- Node23 -->
<g id="Node000023" class="node">
<title>Node23</title>
<g id="a_Node000023"><a xlink:href="classcom_1_1runehive_1_1game_1_1world_1_1entity_1_1mob_1_1player_1_1exchange_1_1duel_1_1_stake_session.html#a05d4d90298594bc32a63ebec9ce93465" target="_top" xlink:title=" ">
<ellipse fill="white" stroke="#666666" cx="2208.58" cy="-188.81" rx="233.52" ry="25.81"/>
<text xml:space="preserve" text-anchor="start" x="2051.45" y="-191.66" font-family="Helvetica,sans-Serif" font-size="12.00">com.runehive.game.world.entity.mob.player.exchange.duel.</text>
<text xml:space="preserve" text-anchor="middle" x="2208.58" y="-177.41" font-family="Helvetica,sans-Serif" font-size="12.00">StakeSession.showDuelRulesOnSecondScreen</text>
</a>
</g>
</g>
<!-- Node15&#45;&gt;Node23 -->
<g id="edge26_Node000015_Node000023" class="edge">
<title>Node15&#45;&gt;Node23</title>
<g id="a_edge26_Node000015_Node000023"><a xlink:title=" ">
<path fill="none" stroke="#63b8ff" d="M1765.48,-378.51C1858.45,-338.62 2038.74,-261.26 2137.95,-218.69"/>
<polygon fill="#63b8ff" stroke="#63b8ff" points="2139.26,-221.93 2147.07,-214.77 2136.5,-215.5 2139.26,-221.93"/>
</a>
</g>
</g>
<!-- Node31 -->
<g id="Node000031" class="node">
<title>Node31</title>
<g id="a_Node000031"><a xlink:href="classcom_1_1runehive_1_1game_1_1world_1_1entity_1_1mob_1_1player_1_1exchange_1_1duel_1_1_stake_session.html#aaff4396a92d3ae161b6c9f1fa564e359" target="_top" xlink:title="Updates the itemcontainer when an item is offered or removed.">
<ellipse fill="white" stroke="#666666" cx="2208.58" cy="-590.81" rx="233.52" ry="25.81"/>
<text xml:space="preserve" text-anchor="start" x="2051.45" y="-593.66" font-family="Helvetica,sans-Serif" font-size="12.00">com.runehive.game.world.entity.mob.player.exchange.duel.</text>
<text xml:space="preserve" text-anchor="middle" x="2208.58" y="-579.41" font-family="Helvetica,sans-Serif" font-size="12.00">StakeSession.updateOfferComponents</text>
</a>
</g>
</g>
<!-- Node15&#45;&gt;Node31 -->
<g id="edge34_Node000015_Node000031" class="edge">
<title>Node15&#45;&gt;Node31</title>
<g id="a_edge34_Node000015_Node000031"><a xlink:title=" ">
<path fill="none" stroke="#63b8ff" d="M1791.15,-428.21C1835.53,-441.56 1890.61,-458.97 1939.05,-476.81 2009.12,-502.61 2087.53,-536.5 2141.45,-560.61"/>
<polygon fill="#63b8ff" stroke="#63b8ff" points="2139.96,-563.77 2150.51,-564.67 2142.82,-557.39 2139.96,-563.77"/>
</a>
</g>
</g>
<!-- Node17 -->
<g id="Node000017" class="node">
<title>Node17</title>
<g id="a_Node000017"><a xlink:href="classcom_1_1runehive_1_1game_1_1world_1_1items_1_1_item.html#a469ed0805255f62514005f11dc213676" target="_top" xlink:title="Gets the quantity of this item.">
<ellipse fill="white" stroke="#666666" cx="2693.06" cy="-349.81" rx="132.76" ry="25.81"/>
<text xml:space="preserve" text-anchor="start" x="2607.18" y="-352.66" font-family="Helvetica,sans-Serif" font-size="12.00">com.runehive.game.world.items.</text>
<text xml:space="preserve" text-anchor="middle" x="2693.06" y="-338.41" font-family="Helvetica,sans-Serif" font-size="12.00">Item.getAmount</text>
</a>
</g>
</g>
<!-- Node16&#45;&gt;Node17 -->
<g id="edge19_Node000016_Node000017" class="edge">
<title>Node16&#45;&gt;Node17</title>
<g id="a_edge19_Node000016_Node000017"><a xlink:title=" ">
<path fill="none" stroke="#63b8ff" d="M2388.89,-349.81C2441.6,-349.81 2498.53,-349.81 2548.68,-349.81"/>
<polygon fill="#63b8ff" stroke="#63b8ff" points="2548.42,-353.31 2558.42,-349.81 2548.42,-346.31 2548.42,-353.31"/>
</a>
</g>
</g>
<!-- Node18 -->
<g id="Node000018" class="node">
<title>Node18</title>
<g id="a_Node000018"><a xlink:href="classcom_1_1runehive_1_1game_1_1world_1_1items_1_1_item.html#adc1c7b8e6620777606b083001f7d936a" target="_top" xlink:title=" ">
<ellipse fill="white" stroke="#666666" cx="2693.06" cy="-279.81" rx="132.76" ry="25.81"/>
<text xml:space="preserve" text-anchor="start" x="2607.18" y="-282.66" font-family="Helvetica,sans-Serif" font-size="12.00">com.runehive.game.world.items.</text>
<text xml:space="preserve" text-anchor="middle" x="2693.06" y="-268.41" font-family="Helvetica,sans-Serif" font-size="12.00">Item.getName</text>
</a>
</g>
</g>
<!-- Node16&#45;&gt;Node18 -->
<g id="edge20_Node000016_Node000018" class="edge">
<title>Node16&#45;&gt;Node18</title>
<g id="a_edge20_Node000016_Node000018"><a xlink:title=" ">
<path fill="none" stroke="#63b8ff" d="M2336.97,-331.33C2410.51,-320.66 2502.37,-307.33 2574.23,-296.9"/>
<polygon fill="#63b8ff" stroke="#63b8ff" points="2574.69,-300.37 2584.09,-295.47 2573.69,-293.45 2574.69,-300.37"/>
</a>
</g>
</g>
<!-- Node19 -->
<g id="Node000019" class="node">
<title>Node19</title>
<g id="a_Node000019"><a xlink:href="classcom_1_1runehive_1_1game_1_1world_1_1items_1_1_item.html#a5008cb760d4d688a1731e0406d29c335" target="_top" xlink:title="Gets the item definition for the item identifier.">
<ellipse fill="white" stroke="#666666" cx="3158.98" cy="-314.81" rx="132.76" ry="25.81"/>
<text xml:space="preserve" text-anchor="start" x="3073.1" y="-317.66" font-family="Helvetica,sans-Serif" font-size="12.00">com.runehive.game.world.items.</text>
<text xml:space="preserve" text-anchor="middle" x="3158.98" y="-303.41" font-family="Helvetica,sans-Serif" font-size="12.00">Item.getDefinition</text>
</a>
</g>
</g>
<!-- Node18&#45;&gt;Node19 -->
<g id="edge21_Node000018_Node000019" class="edge">
<title>Node18&#45;&gt;Node19</title>
<g id="a_edge21_Node000018_Node000019"><a xlink:title=" ">
<path fill="none" stroke="#63b8ff" d="M2817.47,-289.12C2880.9,-293.91 2958.33,-299.75 3023.31,-304.65"/>
<polygon fill="#63b8ff" stroke="#63b8ff" points="3022.71,-308.11 3032.95,-305.38 3023.24,-301.13 3022.71,-308.11"/>
</a>
</g>
</g>
<!-- Node22 -->
<g id="Node000022" class="node">
<title>Node22</title>
<g id="a_Node000022"><a xlink:href="classcom_1_1runehive_1_1game_1_1world_1_1items_1_1_item_definition.html#aa9479e24430ebdd5855705e1177346b4" target="_top" xlink:title="Gets the item name.">
<ellipse fill="white" stroke="#666666" cx="3158.98" cy="-244.81" rx="132.76" ry="25.81"/>
<text xml:space="preserve" text-anchor="start" x="3073.1" y="-247.66" font-family="Helvetica,sans-Serif" font-size="12.00">com.runehive.game.world.items.</text>
<text xml:space="preserve" text-anchor="middle" x="3158.98" y="-233.41" font-family="Helvetica,sans-Serif" font-size="12.00">ItemDefinition.getName</text>
</a>
</g>
</g>
<!-- Node18&#45;&gt;Node22 -->
<g id="edge24_Node000018_Node000022" class="edge">
<title>Node18&#45;&gt;Node22</title>
<g id="a_edge24_Node000018_Node000022"><a xlink:title=" ">
<path fill="none" stroke="#63b8ff" d="M2817.47,-270.5C2880.9,-265.71 2958.33,-259.87 3023.31,-254.97"/>
<polygon fill="#63b8ff" stroke="#63b8ff" points="3023.24,-258.48 3032.95,-254.24 3022.71,-251.5 3023.24,-258.48"/>
</a>
</g>
</g>
<!-- Node20 -->
<g id="Node000020" class="node">
<title>Node20</title>
<g id="a_Node000020"><a xlink:href="classcom_1_1runehive_1_1game_1_1world_1_1items_1_1_item_definition.html#a50e4924075ee157cd3f75a8107a595fa" target="_top" xlink:title="Gets an item definition.">
<ellipse fill="white" stroke="#666666" cx="3585.65" cy="-314.81" rx="132.76" ry="25.81"/>
<text xml:space="preserve" text-anchor="start" x="3499.78" y="-317.66" font-family="Helvetica,sans-Serif" font-size="12.00">com.runehive.game.world.items.</text>
<text xml:space="preserve" text-anchor="middle" x="3585.65" y="-303.41" font-family="Helvetica,sans-Serif" font-size="12.00">ItemDefinition.get</text>
</a>
</g>
</g>
<!-- Node19&#45;&gt;Node20 -->
<g id="edge22_Node000019_Node000020" class="edge">
<title>Node19&#45;&gt;Node20</title>
<g id="a_edge22_Node000019_Node000020"><a xlink:title=" ">
<path fill="none" stroke="#63b8ff" d="M3292.02,-314.81C3339.36,-314.81 3392.94,-314.81 3441.2,-314.81"/>
<polygon fill="#63b8ff" stroke="#63b8ff" points="3441.18,-318.31 3451.18,-314.81 3441.18,-311.31 3441.18,-318.31"/>
</a>
</g>
</g>
<!-- Node21 -->
<g id="Node000021" class="node">
<title>Node21</title>
<g id="a_Node000021"><a xlink:href="classcom_1_1runehive_1_1game_1_1world_1_1items_1_1_item_definition.html#a4fafaf641c0490165d697a73006e76bf" target="_top" xlink:title=" ">
<ellipse fill="white" stroke="#666666" cx="3930.13" cy="-314.81" rx="132.76" ry="25.81"/>
<text xml:space="preserve" text-anchor="start" x="3844.26" y="-317.66" font-family="Helvetica,sans-Serif" font-size="12.00">com.runehive.game.world.items.</text>
<text xml:space="preserve" text-anchor="middle" x="3930.13" y="-303.41" font-family="Helvetica,sans-Serif" font-size="12.00">ItemDefinition.ItemDefinition</text>
</a>
</g>
</g>
<!-- Node20&#45;&gt;Node21 -->
<g id="edge23_Node000020_Node000021" class="edge">
<title>Node20&#45;&gt;Node21</title>
<g id="a_edge23_Node000020_Node000021"><a xlink:title=" ">
<path fill="none" stroke="#63b8ff" d="M3718.57,-314.81C3740.58,-314.81 3763.5,-314.81 3785.77,-314.81"/>
<polygon fill="#63b8ff" stroke="#63b8ff" points="3785.48,-318.31 3795.48,-314.81 3785.48,-311.31 3785.48,-318.31"/>
</a>
</g>
</g>
<!-- Node24 -->
<g id="Node000024" class="node">
<title>Node24</title>
<g id="a_Node000024"><a xlink:href="classcom_1_1runehive_1_1content_1_1activity_1_1impl_1_1duelarena_1_1_duel_utils.html#a428a9bb0c07232b16deb4b1c16f9e20d" target="_top" xlink:title=" ">
<ellipse fill="white" stroke="#666666" cx="2693.06" cy="-209.81" rx="179.96" ry="25.81"/>
<text xml:space="preserve" text-anchor="start" x="2573.81" y="-212.66" font-family="Helvetica,sans-Serif" font-size="12.00">com.runehive.content.activity.impl.duelarena.</text>
<text xml:space="preserve" text-anchor="middle" x="2693.06" y="-198.41" font-family="Helvetica,sans-Serif" font-size="12.00">DuelUtils.getRuleText</text>
</a>
</g>
</g>
<!-- Node23&#45;&gt;Node24 -->
<g id="edge27_Node000023_Node000024" class="edge">
<title>Node23&#45;&gt;Node24</title>
<g id="a_edge27_Node000023_Node000024"><a xlink:title=" ">
<path fill="none" stroke="#63b8ff" d="M2426.82,-198.27C2454.18,-199.46 2481.95,-200.66 2508.71,-201.83"/>
<polygon fill="#63b8ff" stroke="#63b8ff" points="2508.46,-205.32 2518.61,-202.26 2508.77,-198.33 2508.46,-205.32"/>
</a>
</g>
</g>
<!-- Node25 -->
<g id="Node000025" class="node">
<title>Node25</title>
<g id="a_Node000025"><a xlink:href="classcom_1_1runehive_1_1content_1_1activity_1_1_activity.html#a3fbc6c4e8ad0d7b95d8ec156d20ea81c" target="_top" xlink:title=" ">
<ellipse fill="white" stroke="#666666" cx="2693.06" cy="-139.81" rx="121.62" ry="25.81"/>
<text xml:space="preserve" text-anchor="start" x="2615.06" y="-142.66" font-family="Helvetica,sans-Serif" font-size="12.00">com.runehive.content.activity.</text>
<text xml:space="preserve" text-anchor="middle" x="2693.06" y="-128.41" font-family="Helvetica,sans-Serif" font-size="12.00">Activity.search</text>
</a>
</g>
</g>
<!-- Node23&#45;&gt;Node25 -->
<g id="edge28_Node000023_Node000025" class="edge">
<title>Node23&#45;&gt;Node25</title>
<g id="a_edge28_Node000023_Node000025"><a xlink:title=" ">
<path fill="none" stroke="#63b8ff" d="M2382.4,-171.26C2445.01,-164.9 2514.33,-157.86 2571.48,-152.06"/>
<polygon fill="#63b8ff" stroke="#63b8ff" points="2571.64,-155.56 2581.24,-151.06 2570.93,-148.59 2571.64,-155.56"/>
</a>
</g>
</g>
<!-- Node27 -->
<g id="Node000027" class="node">
<title>Node27</title>
<g id="a_Node000027"><a xlink:href="classcom_1_1runehive_1_1game_1_1world_1_1entity_1_1mob_1_1player_1_1_player.html#ab8309e5d532b7540f48bf25f8dea92a8" target="_top" xlink:title=" ">
<ellipse fill="white" stroke="#666666" cx="2693.06" cy="-69.81" rx="175.72" ry="25.81"/>
<text xml:space="preserve" text-anchor="start" x="2576.81" y="-72.66" font-family="Helvetica,sans-Serif" font-size="12.00">com.runehive.game.world.entity.mob.player.</text>
<text xml:space="preserve" text-anchor="middle" x="2693.06" y="-58.41" font-family="Helvetica,sans-Serif" font-size="12.00">Player.send</text>
</a>
</g>
</g>
<!-- Node23&#45;&gt;Node27 -->
<g id="edge30_Node000023_Node000027" class="edge">
<title>Node23&#45;&gt;Node27</title>
<g id="a_edge30_Node000023_Node000027"><a xlink:title=" ">
<path fill="none" stroke="#63b8ff" d="M2280.05,-163.76C2333.78,-145.41 2409.89,-120.97 2478.1,-104.81 2502.18,-99.1 2528.02,-94.02 2553.11,-89.61"/>
<polygon fill="#63b8ff" stroke="#63b8ff" points="2553.44,-93.11 2562.7,-87.96 2552.25,-86.21 2553.44,-93.11"/>
</a>
</g>
</g>
<!-- Node26 -->
<g id="Node000026" class="node">
<title>Node26</title>
<g id="a_Node000026"><a xlink:href="classcom_1_1runehive_1_1content_1_1activity_1_1_activity.html#a0f85de2603ea1755bdb859319d91d50f" target="_top" xlink:title="Constructs a new SequencedMinigame object.">
<ellipse fill="white" stroke="#666666" cx="3158.98" cy="-139.81" rx="121.62" ry="25.81"/>
<text xml:space="preserve" text-anchor="start" x="3080.98" y="-142.66" font-family="Helvetica,sans-Serif" font-size="12.00">com.runehive.content.activity.</text>
<text xml:space="preserve" text-anchor="middle" x="3158.98" y="-128.41" font-family="Helvetica,sans-Serif" font-size="12.00">Activity.Activity</text>
</a>
</g>
</g>
<!-- Node25&#45;&gt;Node26 -->
<g id="edge29_Node000025_Node000026" class="edge">
<title>Node25&#45;&gt;Node26</title>
<g id="a_edge29_Node000025_Node000026"><a xlink:title=" ">
<path fill="none" stroke="#63b8ff" d="M2815.04,-139.81C2879.75,-139.81 2959.55,-139.81 3025.88,-139.81"/>
<polygon fill="#63b8ff" stroke="#63b8ff" points="3025.74,-143.31 3035.74,-139.81 3025.74,-136.31 3025.74,-143.31"/>
</a>
</g>
</g>
<!-- Node28 -->
<g id="Node000028" class="node">
<title>Node28</title>
<g id="a_Node000028"><a xlink:href="classcom_1_1runehive_1_1net_1_1packet_1_1_outgoing_packet.html#a3dde4d77b8c8bbd686b8e121fd6514a7" target="_top" xlink:title=" ">
<ellipse fill="white" stroke="#666666" cx="3158.98" cy="-69.81" rx="105.18" ry="25.81"/>
<text xml:space="preserve" text-anchor="start" x="3092.6" y="-72.66" font-family="Helvetica,sans-Serif" font-size="12.00">com.runehive.net.packet.</text>
<text xml:space="preserve" text-anchor="middle" x="3158.98" y="-58.41" font-family="Helvetica,sans-Serif" font-size="12.00">OutgoingPacket.execute</text>
</a>
</g>
</g>
<!-- Node27&#45;&gt;Node28 -->
<g id="edge31_Node000027_Node000028" class="edge">
<title>Node27&#45;&gt;Node28</title>
<g id="a_edge31_Node000027_Node000028"><a xlink:title=" ">
<path fill="none" stroke="#63b8ff" d="M2869.12,-69.81C2927,-69.81 2989.91,-69.81 3042.21,-69.81"/>
<polygon fill="#63b8ff" stroke="#63b8ff" points="3042.03,-73.31 3052.03,-69.81 3042.03,-66.31 3042.03,-73.31"/>
</a>
</g>
</g>
<!-- Node29 -->
<g id="Node000029" class="node">
<title>Node29</title>
<g id="a_Node000029"><a xlink:href="classcom_1_1runehive_1_1net_1_1packet_1_1_outgoing_packet.html#a74fc13c106ab76f87daec1e8bab6a2a1" target="_top" xlink:title=" ">
<ellipse fill="white" stroke="#666666" cx="3585.65" cy="-34.81" rx="105.18" ry="25.81"/>
<text xml:space="preserve" text-anchor="start" x="3519.28" y="-37.66" font-family="Helvetica,sans-Serif" font-size="12.00">com.runehive.net.packet.</text>
<text xml:space="preserve" text-anchor="middle" x="3585.65" y="-23.41" font-family="Helvetica,sans-Serif" font-size="12.00">OutgoingPacket.encode</text>
</a>
</g>
</g>
<!-- Node28&#45;&gt;Node29 -->
<g id="edge32_Node000028_Node000029" class="edge">
<title>Node28&#45;&gt;Node29</title>
<g id="a_edge32_Node000028_Node000029"><a xlink:title=" ">
<path fill="none" stroke="#63b8ff" d="M3259.28,-61.63C3323.7,-56.32 3407.71,-49.39 3474.23,-43.91"/>
<polygon fill="#63b8ff" stroke="#63b8ff" points="3474.4,-47.41 3484.08,-43.1 3473.83,-40.43 3474.4,-47.41"/>
</a>
</g>
</g>
<!-- Node30 -->
<g id="Node000030" class="node">
<title>Node30</title>
<g id="a_Node000030"><a xlink:href="classcom_1_1runehive_1_1game_1_1world_1_1entity_1_1mob_1_1player_1_1_player.html#a908fb61974719a74180d6300b838bfe1" target="_top" xlink:title=" ">
<ellipse fill="white" stroke="#666666" cx="3585.65" cy="-104.81" rx="175.72" ry="25.81"/>
<text xml:space="preserve" text-anchor="start" x="3469.4" y="-107.66" font-family="Helvetica,sans-Serif" font-size="12.00">com.runehive.game.world.entity.mob.player.</text>
<text xml:space="preserve" text-anchor="middle" x="3585.65" y="-93.41" font-family="Helvetica,sans-Serif" font-size="12.00">Player.getSession</text>
</a>
</g>
</g>
<!-- Node28&#45;&gt;Node30 -->
<g id="edge33_Node000028_Node000030" class="edge">
<title>Node28&#45;&gt;Node30</title>
<g id="a_edge33_Node000028_Node000030"><a xlink:title=" ">
<path fill="none" stroke="#63b8ff" d="M3259.28,-77.99C3307.21,-81.94 3365.98,-86.79 3420.33,-91.27"/>
<polygon fill="#63b8ff" stroke="#63b8ff" points="3419.73,-94.73 3429.99,-92.06 3420.31,-87.75 3419.73,-94.73"/>
</a>
</g>
</g>
<!-- Node31&#45;&gt;Node7 -->
<g id="edge35_Node000031_Node000007" class="edge">
<title>Node31&#45;&gt;Node7</title>
<g id="a_edge35_Node000031_Node000007"><a xlink:title=" ">
<path fill="none" stroke="#63b8ff" d="M2441.58,-593.01C2591.1,-594.43 2784.52,-596.27 2932.7,-597.67"/>
<polygon fill="#63b8ff" stroke="#63b8ff" points="2932.64,-601.17 2942.67,-597.77 2932.7,-594.17 2932.64,-601.17"/>
</a>
</g>
</g>
<!-- Node31&#45;&gt;Node8 -->
<g id="edge39_Node000031_Node000008" class="edge">
<title>Node31&#45;&gt;Node8</title>
<g id="a_edge39_Node000031_Node000008"><a xlink:title=" ">
<path fill="none" stroke="#63b8ff" d="M2399.39,-606C2414.78,-612.3 2429.3,-620.41 2442.1,-630.81 2475.86,-658.23 2444.54,-694.14 2478.1,-721.81 2491.19,-732.61 2506.28,-740.84 2522.25,-747.09"/>
<polygon fill="#63b8ff" stroke="#63b8ff" points="2520.85,-750.31 2531.44,-750.4 2523.22,-743.72 2520.85,-750.31"/>
</a>
</g>
</g>
<!-- Node31&#45;&gt;Node9 -->
<g id="edge36_Node000031_Node000009" class="edge">
<title>Node31&#45;&gt;Node9</title>
<g id="a_edge36_Node000031_Node000009"><a xlink:title=" ">
<path fill="none" stroke="#63b8ff" d="M2393.1,-606.95C2410.47,-612.95 2427.15,-620.74 2442.1,-630.81 2467.26,-647.76 2452.1,-673.17 2478.1,-688.81 2500.57,-702.33 2818.18,-719.19 3011.23,-728.28"/>
<polygon fill="#63b8ff" stroke="#63b8ff" points="3010.95,-731.77 3021.1,-728.74 3011.28,-724.78 3010.95,-731.77"/>
</a>
</g>
</g>
<!-- Node31&#45;&gt;Node14 -->
<g id="edge41_Node000031_Node000014" class="edge">
<title>Node31&#45;&gt;Node14</title>
<g id="a_edge41_Node000031_Node000014"><a xlink:title=" ">
<path fill="none" stroke="#63b8ff" d="M2269.07,-565.43C2322.81,-543.39 2404.52,-512.07 2478.1,-492.81 2497.3,-487.78 2517.67,-483.34 2537.91,-479.46"/>
<polygon fill="#63b8ff" stroke="#63b8ff" points="2538.46,-482.92 2547.65,-477.64 2537.17,-476.04 2538.46,-482.92"/>
</a>
</g>
</g>
<!-- Node32 -->
<g id="Node000032" class="node">
<title>Node32</title>
<g id="a_Node000032"><a xlink:href="enumcom_1_1runehive_1_1game_1_1world_1_1entity_1_1mob_1_1player_1_1_player_right.html#aab09dcf8fa6041ddf475dfcc61b2fc15" target="_top" xlink:title="Gets the crown display.">
<ellipse fill="white" stroke="#666666" cx="2693.06" cy="-527.81" rx="175.72" ry="25.81"/>
<text xml:space="preserve" text-anchor="start" x="2576.81" y="-530.66" font-family="Helvetica,sans-Serif" font-size="12.00">com.runehive.game.world.entity.mob.player.</text>
<text xml:space="preserve" text-anchor="middle" x="2693.06" y="-516.41" font-family="Helvetica,sans-Serif" font-size="12.00">PlayerRight.getCrown</text>
</a>
</g>
</g>
<!-- Node31&#45;&gt;Node32 -->
<g id="edge37_Node000031_Node000032" class="edge">
<title>Node31&#45;&gt;Node32</title>
<g id="a_edge37_Node000031_Node000032"><a xlink:title=" ">
<path fill="none" stroke="#63b8ff" d="M2361.57,-570.96C2421.52,-563.14 2490.02,-554.19 2549.05,-546.48"/>
<polygon fill="#63b8ff" stroke="#63b8ff" points="2549.38,-549.97 2558.84,-545.2 2548.48,-543.03 2549.38,-549.97"/>
</a>
</g>
</g>
<!-- Node33 -->
<g id="Node000033" class="node">
<title>Node33</title>
<g id="a_Node000033"><a xlink:href="classcom_1_1runehive_1_1game_1_1world_1_1entity_1_1mob_1_1player_1_1_player.html#abc025401d6c96ea483428bfbfbbe59f4" target="_top" xlink:title=" ">
<ellipse fill="white" stroke="#666666" cx="2693.06" cy="-653.81" rx="175.72" ry="25.81"/>
<text xml:space="preserve" text-anchor="start" x="2576.81" y="-656.66" font-family="Helvetica,sans-Serif" font-size="12.00">com.runehive.game.world.entity.mob.player.</text>
<text xml:space="preserve" text-anchor="middle" x="2693.06" y="-642.41" font-family="Helvetica,sans-Serif" font-size="12.00">Player.getUsername</text>
</a>
</g>
</g>
<!-- Node31&#45;&gt;Node33 -->
<g id="edge40_Node000031_Node000033" class="edge">
<title>Node31&#45;&gt;Node33</title>
<g id="a_edge40_Node000031_Node000033"><a xlink:title=" ">
<path fill="none" stroke="#63b8ff" d="M2361.57,-610.66C2421.52,-618.48 2490.02,-627.43 2549.05,-635.14"/>
<polygon fill="#63b8ff" stroke="#63b8ff" points="2548.48,-638.59 2558.84,-636.42 2549.38,-631.65 2548.48,-638.59"/>
</a>
</g>
</g>
<!-- Node32&#45;&gt;Node32 -->
<g id="edge38_Node000032_Node000032" class="edge">
<title>Node32&#45;&gt;Node32</title>
<g id="a_edge38_Node000032_Node000032"><a xlink:title=" ">
<path fill="none" stroke="#63b8ff" d="M2607.83,-550.8C2597.31,-561.86 2625.72,-571.62 2693.06,-571.62 2736.72,-571.62 2764.02,-567.51 2774.95,-561.61"/>
<polygon fill="#63b8ff" stroke="#63b8ff" points="2778.23,-562.83 2777.84,-552.25 2771.54,-560.77 2778.23,-562.83"/>
</a>
</g>
</g>
<!-- Node35 -->
<g id="Node000035" class="node">
<title>Node35</title>
<g id="a_Node000035"><a xlink:href="enumcom_1_1runehive_1_1content_1_1activity_1_1impl_1_1duelarena_1_1_duel_rule.html#a0f2276d407a090bfd869ffa784ee94d8" target="_top" xlink:title="Creates a new DuelRule.">
<ellipse fill="white" stroke="#666666" cx="1221.05" cy="-33.81" rx="179.96" ry="25.81"/>
<text xml:space="preserve" text-anchor="start" x="1101.8" y="-36.66" font-family="Helvetica,sans-Serif" font-size="12.00">com.runehive.content.activity.impl.duelarena.</text>
<text xml:space="preserve" text-anchor="middle" x="1221.05" y="-22.41" font-family="Helvetica,sans-Serif" font-size="12.00">DuelRule.DuelRule</text>
</a>
</g>
</g>
<!-- Node34&#45;&gt;Node35 -->
<g id="edge43_Node000034_Node000035" class="edge">
<title>Node34&#45;&gt;Node35</title>
<g id="a_edge43_Node000034_Node000035"><a xlink:title=" ">
<path fill="none" stroke="#63b8ff" d="M915.85,-28.77C953.36,-29.39 993.04,-30.05 1030.93,-30.67"/>
<polygon fill="#63b8ff" stroke="#63b8ff" points="1030.52,-34.17 1040.58,-30.83 1030.64,-27.17 1030.52,-34.17"/>
</a>
</g>
</g>
<!-- Node36&#45;&gt;Node27 -->
<g id="edge46_Node000036_Node000027" class="edge">
<title>Node36&#45;&gt;Node27</title>
<g id="a_edge46_Node000036_Node000027"><a xlink:title=" ">
<path fill="none" stroke="#63b8ff" d="M916.2,-93.43C1285.75,-88.52 2131.02,-77.27 2506.47,-72.28"/>
<polygon fill="#63b8ff" stroke="#63b8ff" points="2506.24,-75.78 2516.2,-72.15 2506.15,-68.78 2506.24,-75.78"/>
</a>
</g>
</g>
<!-- Node36&#45;&gt;Node35 -->
<g id="edge45_Node000036_Node000035" class="edge">
<title>Node36&#45;&gt;Node35</title>
<g id="a_edge45_Node000036_Node000035"><a xlink:title=" ">
<path fill="none" stroke="#63b8ff" d="M872.28,-78.5C935.14,-70.42 1010.08,-60.79 1074.26,-52.54"/>
<polygon fill="#63b8ff" stroke="#63b8ff" points="1074.31,-56.07 1083.79,-51.32 1073.42,-49.12 1074.31,-56.07"/>
</a>
</g>
</g>
</g>
</svg>
