<?xml version="1.0" encoding="UTF-8" standalone="no"?>
<!DOCTYPE svg PUBLIC "-//W3C//DTD SVG 1.1//EN"
 "http://www.w3.org/Graphics/SVG/1.1/DTD/svg11.dtd">
<!-- Generated by graphviz version 14.0.1 (20251006.0113)
 -->
<!-- Title: com.runehive.content.wintertodt.Wintertodt.doMagicAttack Pages: 1 -->
<!--zoomable 653 -->

<svg id="main" version="1.1" xmlns="http://www.w3.org/2000/svg" xmlns:xlink="http://www.w3.org/1999/xlink" xml:space="preserve" onload="init(evt)">

<style type="text/css"><![CDATA[
.node, .edge {opacity: 0.7;}
.node.selected, .edge.selected {opacity: 1;}
.edge:hover path { stroke: red; }
.edge:hover polygon { stroke: red; fill: red; }
]]></style>

<defs>
  <circle id="rim" cx="0" cy="0" r="7"/>
  <circle id="rim2" cx="0" cy="0" r="3.5"/>
  <g id="zoomPlus">
    <use xlink:href="#rim" fill="#404040"><set attributeName="fill" to="#808080" begin="zoomplus.mouseover" end="zoomplus.mouseout"/></use>
    <path d="M-4,0h8M0,-4v8" fill="none" stroke="white" stroke-width="1.5" pointer-events="none"/>
  </g>
  <g id="zoomMin">
    <use xlink:href="#rim" fill="#404040"><set attributeName="fill" to="#808080" begin="zoomminus.mouseover" end="zoomminus.mouseout"/></use>
    <path d="M-4,0h8" fill="none" stroke="white" stroke-width="1.5" pointer-events="none"/>
  </g>
  <g id="arrowUp" transform="translate(30 24)">
    <use xlink:href="#rim"/>
    <path pointer-events="none" fill="none" stroke="white" stroke-width="1.5" d="M0,-3.0v7 M-2.5,-0.5L0,-3.0L2.5,-0.5"/>
  </g>
  <g id="arrowRight" transform="rotate(90) translate(36 -43)">
    <use xlink:href="#rim"/>
    <path pointer-events="none" fill="none" stroke="white" stroke-width="1.5" d="M0,-3.0v7 M-2.5,-0.5L0,-3.0L2.5,-0.5"/>
  </g>
  <g id="arrowDown" transform="rotate(180) translate(-30 -48)">
    <use xlink:href="#rim"/>
    <path pointer-events="none" fill="none" stroke="white" stroke-width="1.5" d="M0,-3.0v7 M-2.5,-0.5L0,-3.0L2.5,-0.5"/>
  </g>
  <g id="arrowLeft" transform="rotate(270) translate(-36 17)">
    <use xlink:href="#rim"/>
    <path pointer-events="none" fill="none" stroke="white" stroke-width="1.5" d="M0,-3.0v7 M-2.5,-0.5L0,-3.0L2.5,-0.5"/>
  </g>
  <g id="resetDef">
    <use xlink:href="#rim2" fill="#404040"><set attributeName="fill" to="#808080" begin="reset.mouseover" end="reset.mouseout"/></use>
  </g>
</defs>
<script type="application/ecmascript">
var viewWidth = 2165;
var viewHeight = 653;
var sectionId = 'dynsection-16';
</script>
<script type="application/ecmascript" xlink:href="svg.min.js"/>
<svg id="graph" class="graph">
<g id="viewport">
<title>com.runehive.content.wintertodt.Wintertodt.doMagicAttack</title>
<!-- Node1 -->
<g id="Node000001" class="node">
<title>Node1</title>
<g id="a_Node000001"><a xlink:title="Handles doing the magic attack by the bnoss.">
<ellipse fill="#999999" stroke="#666666" cx="132.76" cy="-268.81" rx="132.76" ry="25.81"/>
<text xml:space="preserve" text-anchor="start" x="46.88" y="-271.66" font-family="Helvetica,sans-Serif" font-size="12.00">com.runehive.content.wintertodt.</text>
<text xml:space="preserve" text-anchor="middle" x="132.76" y="-257.41" font-family="Helvetica,sans-Serif" font-size="12.00">Wintertodt.doMagicAttack</text>
</a>
</g>
</g>
<!-- Node2 -->
<g id="Node000002" class="node">
<title>Node2</title>
<g id="a_Node000002"><a xlink:href="classcom_1_1runehive_1_1content_1_1wintertodt_1_1_wintertodt.html#aced08b2cc67114badee9ca95c6fe2cc1" target="_top" xlink:title="Handles the formula on how much the area attack can do.">
<ellipse fill="white" stroke="#666666" cx="443.82" cy="-513.81" rx="137" ry="25.81"/>
<text xml:space="preserve" text-anchor="start" x="354.95" y="-516.66" font-family="Helvetica,sans-Serif" font-size="12.00">com.runehive.content.wintertodt.</text>
<text xml:space="preserve" text-anchor="middle" x="443.82" y="-502.41" font-family="Helvetica,sans-Serif" font-size="12.00">Wintertodt.getAreaAttackDamage</text>
</a>
</g>
</g>
<!-- Node1&#45;&gt;Node2 -->
<g id="edge1_Node000001_Node000002" class="edge">
<title>Node1&#45;&gt;Node2</title>
<g id="a_edge1_Node000001_Node000002"><a xlink:title=" ">
<path fill="none" stroke="#63b8ff" d="M146.96,-294.66C171.21,-339.44 227.26,-431.23 301.52,-478.81 310.04,-484.27 319.34,-488.87 328.99,-492.76"/>
<polygon fill="#63b8ff" stroke="#63b8ff" points="327.55,-495.96 338.14,-496.17 330,-489.4 327.55,-495.96"/>
</a>
</g>
</g>
<!-- Node11 -->
<g id="Node000011" class="node">
<title>Node11</title>
<g id="a_Node000011"><a xlink:href="classcom_1_1runehive_1_1game_1_1world_1_1entity_1_1_entity.html#a8afdd0de68f242bf7082076dfbfffe37" target="_top" xlink:title=" ">
<ellipse fill="white" stroke="#666666" cx="443.82" cy="-443.81" rx="132.23" ry="25.81"/>
<text xml:space="preserve" text-anchor="start" x="358.32" y="-446.66" font-family="Helvetica,sans-Serif" font-size="12.00">com.runehive.game.world.entity.</text>
<text xml:space="preserve" text-anchor="middle" x="443.82" y="-432.41" font-family="Helvetica,sans-Serif" font-size="12.00">Entity.getPosition</text>
</a>
</g>
</g>
<!-- Node1&#45;&gt;Node11 -->
<g id="edge11_Node000001_Node000011" class="edge">
<title>Node1&#45;&gt;Node11</title>
<g id="a_edge11_Node000001_Node000011"><a xlink:title=" ">
<path fill="none" stroke="#63b8ff" d="M157.29,-294.61C187.6,-326.25 243.32,-379.31 301.52,-408.81 312.13,-414.19 323.62,-418.77 335.31,-422.68"/>
<polygon fill="#63b8ff" stroke="#63b8ff" points="334.04,-425.95 344.63,-425.61 336.15,-419.27 334.04,-425.95"/>
</a>
</g>
</g>
<!-- Node12 -->
<g id="Node000012" class="node">
<title>Node12</title>
<g id="a_Node000012"><a xlink:href="classcom_1_1runehive_1_1game_1_1world_1_1position_1_1_position.html#a7bfa5292d8c3f79100a6bc85ea27b5ea" target="_top" xlink:title="Gets the absolute x coordinate.">
<ellipse fill="white" stroke="#666666" cx="443.82" cy="-373.81" rx="142.31" ry="25.81"/>
<text xml:space="preserve" text-anchor="start" x="351.2" y="-376.66" font-family="Helvetica,sans-Serif" font-size="12.00">com.runehive.game.world.position.</text>
<text xml:space="preserve" text-anchor="middle" x="443.82" y="-362.41" font-family="Helvetica,sans-Serif" font-size="12.00">Position.getX</text>
</a>
</g>
</g>
<!-- Node1&#45;&gt;Node12 -->
<g id="edge12_Node000001_Node000012" class="edge">
<title>Node1&#45;&gt;Node12</title>
<g id="a_edge12_Node000001_Node000012"><a xlink:title=" ">
<path fill="none" stroke="#63b8ff" d="M185.5,-292.81C218.27,-307.4 261.81,-325.69 301.52,-338.81 314.4,-343.06 328.08,-347.07 341.67,-350.75"/>
<polygon fill="#63b8ff" stroke="#63b8ff" points="340.51,-354.06 351.07,-353.24 342.3,-347.3 340.51,-354.06"/>
</a>
</g>
</g>
<!-- Node13 -->
<g id="Node000013" class="node">
<title>Node13</title>
<g id="a_Node000013"><a xlink:href="classcom_1_1runehive_1_1game_1_1world_1_1entity_1_1_entity.html#a5b57714d4530546d0fd9597aacd8b330" target="_top" xlink:title=" ">
<ellipse fill="white" stroke="#666666" cx="443.82" cy="-303.81" rx="132.23" ry="25.81"/>
<text xml:space="preserve" text-anchor="start" x="358.32" y="-306.66" font-family="Helvetica,sans-Serif" font-size="12.00">com.runehive.game.world.entity.</text>
<text xml:space="preserve" text-anchor="middle" x="443.82" y="-292.41" font-family="Helvetica,sans-Serif" font-size="12.00">Entity.getY</text>
</a>
</g>
</g>
<!-- Node1&#45;&gt;Node13 -->
<g id="edge13_Node000001_Node000013" class="edge">
<title>Node1&#45;&gt;Node13</title>
<g id="a_edge13_Node000001_Node000013"><a xlink:title=" ">
<path fill="none" stroke="#63b8ff" d="M248.4,-281.79C270.74,-284.32 294.27,-286.99 316.95,-289.56"/>
<polygon fill="#63b8ff" stroke="#63b8ff" points="316.53,-293.03 326.86,-290.68 317.32,-286.07 316.53,-293.03"/>
</a>
</g>
</g>
<!-- Node14 -->
<g id="Node000014" class="node">
<title>Node14</title>
<g id="a_Node000014"><a xlink:href="classcom_1_1runehive_1_1game_1_1world_1_1position_1_1_position.html#a55498d0fafce9fdeedca16984d79aee5" target="_top" xlink:title="Gets the absolute y coordinate.">
<ellipse fill="white" stroke="#666666" cx="443.82" cy="-233.81" rx="142.31" ry="25.81"/>
<text xml:space="preserve" text-anchor="start" x="351.2" y="-236.66" font-family="Helvetica,sans-Serif" font-size="12.00">com.runehive.game.world.position.</text>
<text xml:space="preserve" text-anchor="middle" x="443.82" y="-222.41" font-family="Helvetica,sans-Serif" font-size="12.00">Position.getY</text>
</a>
</g>
</g>
<!-- Node1&#45;&gt;Node14 -->
<g id="edge14_Node000001_Node000014" class="edge">
<title>Node1&#45;&gt;Node14</title>
<g id="a_edge14_Node000001_Node000014"><a xlink:title=" ">
<path fill="none" stroke="#63b8ff" d="M248.4,-255.83C268.62,-253.54 289.82,-251.14 310.48,-248.8"/>
<polygon fill="#63b8ff" stroke="#63b8ff" points="310.85,-252.28 320.39,-247.67 310.06,-245.32 310.85,-252.28"/>
</a>
</g>
</g>
<!-- Node15 -->
<g id="Node000015" class="node">
<title>Node15</title>
<g id="a_Node000015"><a xlink:href="classcom_1_1runehive_1_1util_1_1_utility.html#a2d8d05910f1841830805cb5c58c4eb15" target="_top" xlink:title=" ">
<ellipse fill="white" stroke="#666666" cx="443.82" cy="-163.81" rx="119.5" ry="25.81"/>
<text xml:space="preserve" text-anchor="start" x="367.32" y="-166.66" font-family="Helvetica,sans-Serif" font-size="12.00">com.runehive.util.Utility.good</text>
<text xml:space="preserve" text-anchor="middle" x="443.82" y="-152.41" font-family="Helvetica,sans-Serif" font-size="12.00">Distance</text>
</a>
</g>
</g>
<!-- Node1&#45;&gt;Node15 -->
<g id="edge15_Node000001_Node000015" class="edge">
<title>Node1&#45;&gt;Node15</title>
<g id="a_edge15_Node000001_Node000015"><a xlink:title=" ">
<path fill="none" stroke="#63b8ff" d="M185.5,-244.81C218.27,-230.22 261.81,-211.93 301.52,-198.81 316.43,-193.88 332.44,-189.28 348.12,-185.15"/>
<polygon fill="#63b8ff" stroke="#63b8ff" points="348.64,-188.63 357.44,-182.74 346.89,-181.85 348.64,-188.63"/>
</a>
</g>
</g>
<!-- Node16 -->
<g id="Node000016" class="node">
<title>Node16</title>
<g id="a_Node000016"><a xlink:href="classcom_1_1runehive_1_1util_1_1_utility.html#a0961417523881e9a3bef6e9da541942a" target="_top" xlink:title=" ">
<ellipse fill="white" stroke="#666666" cx="443.82" cy="-85.81" rx="129.05" ry="15.73"/>
<text xml:space="preserve" text-anchor="middle" x="443.82" y="-81.53" font-family="Helvetica,sans-Serif" font-size="12.00">com.runehive.util.Utility.random</text>
</a>
</g>
</g>
<!-- Node1&#45;&gt;Node16 -->
<g id="edge16_Node000001_Node000016" class="edge">
<title>Node1&#45;&gt;Node16</title>
<g id="a_edge16_Node000001_Node000016"><a xlink:title=" ">
<path fill="none" stroke="#63b8ff" d="M157.82,-243.23C188.44,-212.06 244.28,-159.74 301.52,-128.81 321.78,-117.86 345.22,-109.3 367.12,-102.8"/>
<polygon fill="#63b8ff" stroke="#63b8ff" points="367.94,-106.2 376.6,-100.1 366.03,-99.47 367.94,-106.2"/>
</a>
</g>
</g>
<!-- Node17 -->
<g id="Node000017" class="node">
<title>Node17</title>
<g id="a_Node000017"><a xlink:href="classcom_1_1runehive_1_1game_1_1world_1_1_world.html#a245edcc5b77cbc6d0a4aa8a0a0125d67" target="_top" xlink:title="Submits a new event.">
<ellipse fill="white" stroke="#666666" cx="443.82" cy="-25.81" rx="110.49" ry="25.81"/>
<text xml:space="preserve" text-anchor="start" x="373.7" y="-28.66" font-family="Helvetica,sans-Serif" font-size="12.00">com.runehive.game.world.</text>
<text xml:space="preserve" text-anchor="middle" x="443.82" y="-14.41" font-family="Helvetica,sans-Serif" font-size="12.00">World.schedule</text>
</a>
</g>
</g>
<!-- Node1&#45;&gt;Node17 -->
<g id="edge18_Node000001_Node000017" class="edge">
<title>Node1&#45;&gt;Node17</title>
<g id="a_edge18_Node000001_Node000017"><a xlink:title=" ">
<path fill="none" stroke="#63b8ff" d="M147.22,-242.86C171.67,-198.37 227.77,-107.81 301.52,-60.81 313.04,-53.47 325.99,-47.67 339.26,-43.08"/>
<polygon fill="#63b8ff" stroke="#63b8ff" points="340.05,-46.5 348.51,-40.12 337.92,-39.84 340.05,-46.5"/>
</a>
</g>
</g>
<!-- Node3 -->
<g id="Node000003" class="node">
<title>Node3</title>
<g id="a_Node000003"><a xlink:href="classcom_1_1runehive_1_1game_1_1world_1_1entity_1_1skill_1_1_skill_manager.html#a8167146b6fbdc949d0d7950e5e7e3b34" target="_top" xlink:title="Gets the skill for an id.">
<ellipse fill="white" stroke="#666666" cx="771.33" cy="-618.81" rx="149.2" ry="25.81"/>
<text xml:space="preserve" text-anchor="start" x="673.83" y="-621.66" font-family="Helvetica,sans-Serif" font-size="12.00">com.runehive.game.world.entity.skill.</text>
<text xml:space="preserve" text-anchor="middle" x="771.33" y="-607.41" font-family="Helvetica,sans-Serif" font-size="12.00">SkillManager.get</text>
</a>
</g>
</g>
<!-- Node2&#45;&gt;Node3 -->
<g id="edge2_Node000002_Node000003" class="edge">
<title>Node2&#45;&gt;Node3</title>
<g id="a_edge2_Node000002_Node000003"><a xlink:title=" ">
<path fill="none" stroke="#63b8ff" d="M499.59,-537.8C534.26,-552.39 580.29,-570.68 622.13,-583.81 635.8,-588.1 650.32,-592.14 664.72,-595.84"/>
<polygon fill="#63b8ff" stroke="#63b8ff" points="663.68,-599.19 674.23,-598.24 665.39,-592.4 663.68,-599.19"/>
</a>
</g>
</g>
<!-- Node4 -->
<g id="Node000004" class="node">
<title>Node4</title>
<g id="a_Node000004"><a xlink:href="classcom_1_1runehive_1_1game_1_1world_1_1entity_1_1skill_1_1_skill.html#a5c62ad054481b82df350db8ccfb54ec3" target="_top" xlink:title="Gets the skill experience.">
<ellipse fill="white" stroke="#666666" cx="771.33" cy="-548.81" rx="149.2" ry="25.81"/>
<text xml:space="preserve" text-anchor="start" x="673.83" y="-551.66" font-family="Helvetica,sans-Serif" font-size="12.00">com.runehive.game.world.entity.skill.</text>
<text xml:space="preserve" text-anchor="middle" x="771.33" y="-537.41" font-family="Helvetica,sans-Serif" font-size="12.00">Skill.getExperience</text>
</a>
</g>
</g>
<!-- Node2&#45;&gt;Node4 -->
<g id="edge3_Node000002_Node000004" class="edge">
<title>Node2&#45;&gt;Node4</title>
<g id="a_edge3_Node000002_Node000004"><a xlink:title=" ">
<path fill="none" stroke="#63b8ff" d="M563.72,-526.59C586.04,-528.99 609.55,-531.52 632.39,-533.98"/>
<polygon fill="#63b8ff" stroke="#63b8ff" points="631.71,-537.42 642.03,-535.01 632.46,-530.47 631.71,-537.42"/>
</a>
</g>
</g>
<!-- Node5 -->
<g id="Node000005" class="node">
<title>Node5</title>
<g id="a_Node000005"><a xlink:href="classcom_1_1runehive_1_1game_1_1world_1_1entity_1_1skill_1_1_skill.html#a36501346a8b435a10918cd89a7677cc0" target="_top" xlink:title="Gets the level for a given experience amount.">
<ellipse fill="white" stroke="#666666" cx="771.33" cy="-478.81" rx="149.2" ry="25.81"/>
<text xml:space="preserve" text-anchor="start" x="673.83" y="-481.66" font-family="Helvetica,sans-Serif" font-size="12.00">com.runehive.game.world.entity.skill.</text>
<text xml:space="preserve" text-anchor="middle" x="771.33" y="-467.41" font-family="Helvetica,sans-Serif" font-size="12.00">Skill.getLevelForExperience</text>
</a>
</g>
</g>
<!-- Node2&#45;&gt;Node5 -->
<g id="edge4_Node000002_Node000005" class="edge">
<title>Node2&#45;&gt;Node5</title>
<g id="a_edge4_Node000002_Node000005"><a xlink:title=" ">
<path fill="none" stroke="#63b8ff" d="M563.72,-501.03C586.04,-498.63 609.55,-496.1 632.39,-493.64"/>
<polygon fill="#63b8ff" stroke="#63b8ff" points="632.46,-497.15 642.03,-492.6 631.71,-490.19 632.46,-497.15"/>
</a>
</g>
</g>
<!-- Node7 -->
<g id="Node000007" class="node">
<title>Node7</title>
<g id="a_Node000007"><a xlink:href="classcom_1_1runehive_1_1content_1_1wintertodt_1_1_wintertodt.html#a3b6ae8d39c4a85b977e1f140976cd523" target="_top" xlink:title="How much warm clothing the player is wearing.">
<ellipse fill="white" stroke="#666666" cx="771.33" cy="-408.81" rx="132.76" ry="25.81"/>
<text xml:space="preserve" text-anchor="start" x="685.45" y="-411.66" font-family="Helvetica,sans-Serif" font-size="12.00">com.runehive.content.wintertodt.</text>
<text xml:space="preserve" text-anchor="middle" x="771.33" y="-397.41" font-family="Helvetica,sans-Serif" font-size="12.00">Wintertodt.getWarmItemsWorn</text>
</a>
</g>
</g>
<!-- Node2&#45;&gt;Node7 -->
<g id="edge7_Node000002_Node000007" class="edge">
<title>Node2&#45;&gt;Node7</title>
<g id="a_edge7_Node000002_Node000007"><a xlink:title=" ">
<path fill="none" stroke="#63b8ff" d="M545.03,-496.04C559.3,-491.52 573.43,-485.87 586.13,-478.81 605.64,-467.97 602.56,-454.54 622.13,-443.81 633.07,-437.81 645,-432.84 657.2,-428.71"/>
<polygon fill="#63b8ff" stroke="#63b8ff" points="658.06,-432.11 666.53,-425.75 655.94,-425.44 658.06,-432.11"/>
</a>
</g>
</g>
<!-- Node6 -->
<g id="Node000006" class="node">
<title>Node6</title>
<g id="a_Node000006"><a xlink:href="classcom_1_1runehive_1_1game_1_1world_1_1entity_1_1skill_1_1_skill.html#a8ccd3bb8873995593a36bebea52b5b9a" target="_top" xlink:title="Performs a binary search to quickly search for the level at the given experience.">
<ellipse fill="white" stroke="#666666" cx="1172.55" cy="-478.81" rx="149.2" ry="25.81"/>
<text xml:space="preserve" text-anchor="start" x="1075.05" y="-481.66" font-family="Helvetica,sans-Serif" font-size="12.00">com.runehive.game.world.entity.skill.</text>
<text xml:space="preserve" text-anchor="middle" x="1172.55" y="-467.41" font-family="Helvetica,sans-Serif" font-size="12.00">Skill.binarySearch</text>
</a>
</g>
</g>
<!-- Node5&#45;&gt;Node6 -->
<g id="edge5_Node000005_Node000006" class="edge">
<title>Node5&#45;&gt;Node6</title>
<g id="a_edge5_Node000005_Node000006"><a xlink:title=" ">
<path fill="none" stroke="#63b8ff" d="M920.98,-478.81C950.57,-478.81 981.75,-478.81 1011.69,-478.81"/>
<polygon fill="#63b8ff" stroke="#63b8ff" points="1011.59,-482.31 1021.59,-478.81 1011.59,-475.31 1011.59,-482.31"/>
</a>
</g>
</g>
<!-- Node6&#45;&gt;Node6 -->
<g id="edge6_Node000006_Node000006" class="edge">
<title>Node6&#45;&gt;Node6</title>
<g id="a_edge6_Node000006_Node000006"><a xlink:title=" ">
<path fill="none" stroke="#63b8ff" d="M1099.54,-501.35C1089.44,-512.59 1113.78,-522.62 1172.55,-522.62 1210.2,-522.62 1233.72,-518.5 1243.1,-512.59"/>
<polygon fill="#63b8ff" stroke="#63b8ff" points="1246.52,-513.35 1245.23,-502.83 1239.68,-511.85 1246.52,-513.35"/>
</a>
</g>
</g>
<!-- Node8 -->
<g id="Node000008" class="node">
<title>Node8</title>
<g id="a_Node000008"><a xlink:href="classcom_1_1runehive_1_1game_1_1world_1_1items_1_1containers_1_1equipment_1_1_equipment.html#a04929f978aa4b3de9b9ce3a290c93401" target="_top" xlink:title=" ">
<ellipse fill="white" stroke="#666666" cx="1172.55" cy="-408.81" rx="216.02" ry="25.81"/>
<text xml:space="preserve" text-anchor="start" x="1027.8" y="-411.66" font-family="Helvetica,sans-Serif" font-size="12.00">com.runehive.game.world.items.containers.equipment.</text>
<text xml:space="preserve" text-anchor="middle" x="1172.55" y="-397.41" font-family="Helvetica,sans-Serif" font-size="12.00">Equipment.contains</text>
</a>
</g>
</g>
<!-- Node7&#45;&gt;Node8 -->
<g id="edge8_Node000007_Node000008" class="edge">
<title>Node7&#45;&gt;Node8</title>
<g id="a_edge8_Node000007_Node000008"><a xlink:title=" ">
<path fill="none" stroke="#63b8ff" d="M904.43,-408.81C917.47,-408.81 930.94,-408.81 944.59,-408.81"/>
<polygon fill="#63b8ff" stroke="#63b8ff" points="944.57,-412.31 954.57,-408.81 944.57,-405.31 944.57,-412.31"/>
</a>
</g>
</g>
<!-- Node9 -->
<g id="Node000009" class="node">
<title>Node9</title>
<g id="a_Node000009"><a xlink:href="classcom_1_1runehive_1_1game_1_1world_1_1items_1_1containers_1_1_item_container.html#ab45e9f23a35f49a620b43fa8508efa55" target="_top" xlink:title="Determines if this container contains any identifiers.">
<ellipse fill="white" stroke="#666666" cx="1598.7" cy="-408.81" rx="174.13" ry="25.81"/>
<text xml:space="preserve" text-anchor="start" x="1483.57" y="-411.66" font-family="Helvetica,sans-Serif" font-size="12.00">com.runehive.game.world.items.containers.</text>
<text xml:space="preserve" text-anchor="middle" x="1598.7" y="-397.41" font-family="Helvetica,sans-Serif" font-size="12.00">ItemContainer.containsAny</text>
</a>
</g>
</g>
<!-- Node8&#45;&gt;Node9 -->
<g id="edge9_Node000008_Node000009" class="edge">
<title>Node8&#45;&gt;Node9</title>
<g id="a_edge9_Node000008_Node000009"><a xlink:title=" ">
<path fill="none" stroke="#63b8ff" d="M1389.04,-408.81C1396.95,-408.81 1404.86,-408.81 1412.72,-408.81"/>
<polygon fill="#63b8ff" stroke="#63b8ff" points="1412.68,-412.31 1422.68,-408.81 1412.68,-405.31 1412.68,-412.31"/>
</a>
</g>
</g>
<!-- Node10 -->
<g id="Node000010" class="node">
<title>Node10</title>
<g id="a_Node000010"><a xlink:href="classcom_1_1runehive_1_1game_1_1world_1_1items_1_1containers_1_1_item_container.html#a8acf6f1c920076daea6c80e5afbe3404" target="_top" xlink:title="Determines if this container contains id.">
<ellipse fill="white" stroke="#666666" cx="1982.95" cy="-408.81" rx="174.13" ry="25.81"/>
<text xml:space="preserve" text-anchor="start" x="1867.82" y="-411.66" font-family="Helvetica,sans-Serif" font-size="12.00">com.runehive.game.world.items.containers.</text>
<text xml:space="preserve" text-anchor="middle" x="1982.95" y="-397.41" font-family="Helvetica,sans-Serif" font-size="12.00">ItemContainer.contains</text>
</a>
</g>
</g>
<!-- Node9&#45;&gt;Node10 -->
<g id="edge10_Node000009_Node000010" class="edge">
<title>Node9&#45;&gt;Node10</title>
<g id="a_edge10_Node000009_Node000010"><a xlink:title=" ">
<path fill="none" stroke="#63b8ff" d="M1773.2,-408.81C1781.19,-408.81 1789.21,-408.81 1797.22,-408.81"/>
<polygon fill="#63b8ff" stroke="#63b8ff" points="1797.01,-412.31 1807.01,-408.81 1797.01,-405.31 1797.01,-412.31"/>
</a>
</g>
</g>
<!-- Node16&#45;&gt;Node16 -->
<g id="edge17_Node000016_Node000016" class="edge">
<title>Node16&#45;&gt;Node16</title>
<g id="a_edge17_Node000016_Node000016"><a xlink:title=" ">
<path fill="none" stroke="#63b8ff" d="M390.37,-100.55C375.88,-110.2 393.7,-119.54 443.82,-119.54 472.8,-119.54 490.98,-116.42 498.36,-111.92"/>
<polygon fill="#63b8ff" stroke="#63b8ff" points="501.86,-111.68 497.42,-102.05 494.89,-112.34 501.86,-111.68"/>
</a>
</g>
</g>
</g>
</svg>

<g id="navigator" transform="translate(0 0)" fill="#404254">
  <rect fill="#f2f5e9" fill-opacity="0.5" stroke="#606060" stroke-width=".5" x="0" y="0" width="60" height="60"/>
  <use id="zoomplus" xlink:href="#zoomPlus" x="17" y="9" onmousedown="handleZoom(evt,'in')"/>
  <use id="zoomminus" xlink:href="#zoomMin" x="42" y="9" onmousedown="handleZoom(evt,'out')"/>
  <use id="reset" xlink:href="#resetDef" x="30" y="36" onmousedown="handleReset()"/>
   <use id="arrowup" xlink:href="#arrowUp" x="0" y="0" onmousedown="handlePan(0,-1)"/>
  <use id="arrowright" xlink:href="#arrowRight" x="0" y="0" onmousedown="handlePan(1,0)"/>
  <use id="arrowdown" xlink:href="#arrowDown" x="0" y="0" onmousedown="handlePan(0,1)"/>
  <use id="arrowleft" xlink:href="#arrowLeft" x="0" y="0" onmousedown="handlePan(-1,0)"/>
</g>
<svg viewBox="0 0 15 15" width="100%" height="30px" preserveAspectRatio="xMaxYMin meet">
 <g id="arrow_out" transform="scale(0.3 0.3)">
  <a xlink:href="classcom_1_1runehive_1_1content_1_1wintertodt_1_1_wintertodt_a2fbaf7481ab4eb998d03987977481f51_cgraph_org.svg" target="_base">
   <rect id="button" ry="5" rx="5" y="6" x="6" height="38" width="38"
        fill="#f2f5e9" fill-opacity="0.5" stroke="#606060" stroke-width="1.0"/>
   <path id="arrow"
     d="M 11.500037,31.436501 C 11.940474,20.09759 22.043105,11.32322 32.158766,21.979434 L 37.068811,17.246167 C 37.068811,17.246167 37.088388,32 37.088388,32 L 22.160133,31.978069 C 22.160133,31.978069 26.997745,27.140456 26.997745,27.140456 C 18.528582,18.264221 13.291696,25.230495 11.500037,31.436501 z"
     style="fill:#404040;"/>
  </a>
 </g>
</svg>

<style type='text/css'>
<![CDATA[
[data-mouse-over-selected='false'] { opacity: 0.7; }
[data-mouse-over-selected='true']  { opacity: 1.0; }
]]>
</style>
<script type="application/ecmascript"><![CDATA[
document.addEventListener('DOMContentLoaded', (event) => {
  highlightEdges();
  highlightAdjacentNodes();
});
]]></script>
</svg>
