<?xml version="1.0" encoding="UTF-8" standalone="no"?>
<!DOCTYPE svg PUBLIC "-//W3C//DTD SVG 1.1//EN"
 "http://www.w3.org/Graphics/SVG/1.1/DTD/svg11.dtd">
<!-- Generated by graphviz version 14.0.1 (20251006.0113)
 -->
<!-- Title: com.runehive.game.world.entity.combat.strategy.npc.boss.MutantTarn.FrozenSpecial.hit Pages: 1 -->
<svg width="1864pt" height="938pt"
 viewBox="0.00 0.00 1864.00 938.00" xmlns="http://www.w3.org/2000/svg" xmlns:xlink="http://www.w3.org/1999/xlink">
<g id="graph0" class="graph" transform="scale(1 1) rotate(0) translate(4 933.62)">
<title>com.runehive.game.world.entity.combat.strategy.npc.boss.MutantTarn.FrozenSpecial.hit</title>
<!-- Node1 -->
<g id="Node000001" class="node">
<title>Node1</title>
<g id="a_Node000001"><a xlink:title=" ">
<ellipse fill="#999999" stroke="#666666" cx="229.28" cy="-552.81" rx="229.28" ry="25.81"/>
<text xml:space="preserve" text-anchor="start" x="75.15" y="-555.66" font-family="Helvetica,sans-Serif" font-size="12.00">com.runehive.game.world.entity.combat.strategy.npc.boss.</text>
<text xml:space="preserve" text-anchor="middle" x="229.28" y="-541.41" font-family="Helvetica,sans-Serif" font-size="12.00">MutantTarn.FrozenSpecial.hit</text>
</a>
</g>
</g>
<!-- Node1&#45;&gt;Node1 -->
<g id="edge12_Node000001_Node000001" class="edge">
<title>Node1&#45;&gt;Node1</title>
<g id="a_edge12_Node000001_Node000001"><a xlink:title=" ">
<path fill="none" stroke="#63b8ff" d="M149.25,-577.14C142.7,-587.63 169.38,-596.62 229.28,-596.62 268.59,-596.62 293.59,-592.75 304.28,-587.12"/>
<polygon fill="#63b8ff" stroke="#63b8ff" points="307.26,-589 308.63,-578.49 301.01,-585.85 307.26,-589"/>
</a>
</g>
</g>
<!-- Node2 -->
<g id="Node000002" class="node">
<title>Node2</title>
<g id="a_Node000002"><a xlink:href="classcom_1_1runehive_1_1game_1_1world_1_1entity_1_1mob_1_1npc_1_1_npc.html#a4ce51cc4d17afeedf988537d0cc10bba" target="_top" xlink:title="Handles the mob death.">
<ellipse fill="white" stroke="#666666" cx="661.26" cy="-826.81" rx="166.7" ry="25.81"/>
<text xml:space="preserve" text-anchor="start" x="551.38" y="-829.66" font-family="Helvetica,sans-Serif" font-size="12.00">com.runehive.game.world.entity.mob.npc.</text>
<text xml:space="preserve" text-anchor="middle" x="661.26" y="-815.41" font-family="Helvetica,sans-Serif" font-size="12.00">Npc.appendDeath</text>
</a>
</g>
</g>
<!-- Node1&#45;&gt;Node2 -->
<g id="edge1_Node000001_Node000002" class="edge">
<title>Node1&#45;&gt;Node2</title>
<g id="a_edge1_Node000001_Node000002"><a xlink:title=" ">
<path fill="none" stroke="#63b8ff" d="M253.45,-578.9C296.42,-625.72 393.34,-724.21 494.56,-778.81 512.13,-788.29 531.78,-796.08 551.24,-802.43"/>
<polygon fill="#63b8ff" stroke="#63b8ff" points="549.99,-805.71 560.58,-805.36 552.08,-799.03 549.99,-805.71"/>
</a>
</g>
</g>
<!-- Node5 -->
<g id="Node000005" class="node">
<title>Node5</title>
<g id="a_Node000005"><a xlink:href="classcom_1_1runehive_1_1game_1_1world_1_1_world.html#a245edcc5b77cbc6d0a4aa8a0a0125d67" target="_top" xlink:title="Submits a new event.">
<ellipse fill="white" stroke="#666666" cx="1030.66" cy="-763.81" rx="110.49" ry="25.81"/>
<text xml:space="preserve" text-anchor="start" x="960.54" y="-766.66" font-family="Helvetica,sans-Serif" font-size="12.00">com.runehive.game.world.</text>
<text xml:space="preserve" text-anchor="middle" x="1030.66" y="-752.41" font-family="Helvetica,sans-Serif" font-size="12.00">World.schedule</text>
</a>
</g>
</g>
<!-- Node1&#45;&gt;Node5 -->
<g id="edge27_Node000001_Node000005" class="edge">
<title>Node1&#45;&gt;Node5</title>
<g id="a_edge27_Node000001_Node000005"><a xlink:title=" ">
<path fill="none" stroke="#63b8ff" d="M254.6,-578.7C297.88,-622.75 393.32,-710.88 494.56,-745.81 636.85,-794.9 813.25,-789.09 923.66,-778.19"/>
<polygon fill="#63b8ff" stroke="#63b8ff" points="923.7,-781.7 933.29,-777.2 922.98,-774.74 923.7,-781.7"/>
</a>
</g>
</g>
<!-- Node6 -->
<g id="Node000006" class="node">
<title>Node6</title>
<g id="a_Node000006"><a xlink:href="classcom_1_1runehive_1_1game_1_1world_1_1entity_1_1mob_1_1_mob.html#a3e5f834cec039d2c7c0c10b50914717f" target="_top" xlink:title=" ">
<ellipse fill="white" stroke="#666666" cx="661.26" cy="-622.81" rx="150.79" ry="25.81"/>
<text xml:space="preserve" text-anchor="start" x="562.63" y="-625.66" font-family="Helvetica,sans-Serif" font-size="12.00">com.runehive.game.world.entity.mob.</text>
<text xml:space="preserve" text-anchor="middle" x="661.26" y="-611.41" font-family="Helvetica,sans-Serif" font-size="12.00">Mob.damage</text>
</a>
</g>
</g>
<!-- Node1&#45;&gt;Node6 -->
<g id="edge5_Node000001_Node000006" class="edge">
<title>Node1&#45;&gt;Node6</title>
<g id="a_edge5_Node000001_Node000006"><a xlink:title=" ">
<path fill="none" stroke="#63b8ff" d="M361.92,-574.24C418.4,-583.43 483.96,-594.11 539.21,-603.1"/>
<polygon fill="#63b8ff" stroke="#63b8ff" points="538.55,-606.54 548.99,-604.69 539.68,-599.63 538.55,-606.54"/>
</a>
</g>
</g>
<!-- Node8 -->
<g id="Node000008" class="node">
<title>Node8</title>
<g id="a_Node000008"><a xlink:href="classcom_1_1runehive_1_1game_1_1world_1_1entity_1_1mob_1_1_mob.html#a7f9f09a886babdf286840872110bb538" target="_top" xlink:title=" ">
<ellipse fill="white" stroke="#666666" cx="661.26" cy="-482.81" rx="150.79" ry="25.81"/>
<text xml:space="preserve" text-anchor="start" x="562.63" y="-485.66" font-family="Helvetica,sans-Serif" font-size="12.00">com.runehive.game.world.entity.mob.</text>
<text xml:space="preserve" text-anchor="middle" x="661.26" y="-471.41" font-family="Helvetica,sans-Serif" font-size="12.00">Mob.getCurrentHealth</text>
</a>
</g>
</g>
<!-- Node1&#45;&gt;Node8 -->
<g id="edge7_Node000001_Node000008" class="edge">
<title>Node1&#45;&gt;Node8</title>
<g id="a_edge7_Node000001_Node000008"><a xlink:title=" ">
<path fill="none" stroke="#63b8ff" d="M361.92,-531.38C418.4,-522.18 483.96,-511.51 539.21,-502.52"/>
<polygon fill="#63b8ff" stroke="#63b8ff" points="539.68,-505.99 548.99,-500.92 538.55,-499.08 539.68,-505.99"/>
</a>
</g>
</g>
<!-- Node11 -->
<g id="Node000011" class="node">
<title>Node11</title>
<g id="a_Node000011"><a xlink:href="classcom_1_1runehive_1_1game_1_1world_1_1entity_1_1mob_1_1_mob.html#a035f8e9a61076bb97ffd1037476688d7" target="_top" xlink:title=" ">
<ellipse fill="white" stroke="#666666" cx="661.26" cy="-552.81" rx="150.79" ry="25.81"/>
<text xml:space="preserve" text-anchor="start" x="562.63" y="-555.66" font-family="Helvetica,sans-Serif" font-size="12.00">com.runehive.game.world.entity.mob.</text>
<text xml:space="preserve" text-anchor="middle" x="661.26" y="-541.41" font-family="Helvetica,sans-Serif" font-size="12.00">Mob.getMaximumHealth</text>
</a>
</g>
</g>
<!-- Node1&#45;&gt;Node11 -->
<g id="edge10_Node000001_Node000011" class="edge">
<title>Node1&#45;&gt;Node11</title>
<g id="a_edge10_Node000001_Node000011"><a xlink:title=" ">
<path fill="none" stroke="#63b8ff" d="M458.8,-552.81C472.24,-552.81 485.6,-552.81 498.68,-552.81"/>
<polygon fill="#63b8ff" stroke="#63b8ff" points="498.58,-556.31 508.58,-552.81 498.58,-549.31 498.58,-556.31"/>
</a>
</g>
</g>
<!-- Node12 -->
<g id="Node000012" class="node">
<title>Node12</title>
<g id="a_Node000012"><a xlink:href="classcom_1_1runehive_1_1util_1_1_utility.html#a0961417523881e9a3bef6e9da541942a" target="_top" xlink:title=" ">
<ellipse fill="white" stroke="#666666" cx="661.26" cy="-404.81" rx="129.05" ry="15.73"/>
<text xml:space="preserve" text-anchor="middle" x="661.26" y="-400.53" font-family="Helvetica,sans-Serif" font-size="12.00">com.runehive.util.Utility.random</text>
</a>
</g>
</g>
<!-- Node1&#45;&gt;Node12 -->
<g id="edge13_Node000001_Node000012" class="edge">
<title>Node1&#45;&gt;Node12</title>
<g id="a_edge13_Node000001_Node000012"><a xlink:title=" ">
<path fill="none" stroke="#63b8ff" d="M288.04,-527.45C341.07,-504.75 422.18,-471.48 494.56,-447.81 524.62,-437.98 558.31,-428.89 587.43,-421.63"/>
<polygon fill="#63b8ff" stroke="#63b8ff" points="588.01,-425.09 596.88,-419.3 586.34,-418.3 588.01,-425.09"/>
</a>
</g>
</g>
<!-- Node13 -->
<g id="Node000013" class="node">
<title>Node13</title>
<g id="a_Node000013"><a xlink:href="classcom_1_1runehive_1_1game_1_1world_1_1entity_1_1mob_1_1npc_1_1_npc.html#ace5d5360871696711001edc4282189ae" target="_top" xlink:title="Registers an entity to the World.">
<ellipse fill="white" stroke="#666666" cx="661.26" cy="-343.81" rx="166.7" ry="25.81"/>
<text xml:space="preserve" text-anchor="start" x="551.38" y="-346.66" font-family="Helvetica,sans-Serif" font-size="12.00">com.runehive.game.world.entity.mob.npc.</text>
<text xml:space="preserve" text-anchor="middle" x="661.26" y="-332.41" font-family="Helvetica,sans-Serif" font-size="12.00">Npc.register</text>
</a>
</g>
</g>
<!-- Node1&#45;&gt;Node13 -->
<g id="edge15_Node000001_Node000013" class="edge">
<title>Node1&#45;&gt;Node13</title>
<g id="a_edge15_Node000001_Node000013"><a xlink:title=" ">
<path fill="none" stroke="#63b8ff" d="M261.47,-526.84C308.81,-488.77 403.01,-418.17 494.56,-379.81 507.54,-374.37 521.45,-369.71 535.5,-365.72"/>
<polygon fill="#63b8ff" stroke="#63b8ff" points="536.05,-369.2 544.79,-363.2 534.22,-362.44 536.05,-369.2"/>
</a>
</g>
</g>
<!-- Node25 -->
<g id="Node000025" class="node">
<title>Node25</title>
<g id="a_Node000025"><a xlink:href="classcom_1_1runehive_1_1game_1_1world_1_1entity_1_1mob_1_1npc_1_1_npc.html#af692ec273dd8e66d3c8a7faa41c14dd6" target="_top" xlink:title="Unregisters an entity from the World.">
<ellipse fill="white" stroke="#666666" cx="661.26" cy="-165.81" rx="166.7" ry="25.81"/>
<text xml:space="preserve" text-anchor="start" x="551.38" y="-168.66" font-family="Helvetica,sans-Serif" font-size="12.00">com.runehive.game.world.entity.mob.npc.</text>
<text xml:space="preserve" text-anchor="middle" x="661.26" y="-154.41" font-family="Helvetica,sans-Serif" font-size="12.00">Npc.unregister</text>
</a>
</g>
</g>
<!-- Node1&#45;&gt;Node25 -->
<g id="edge28_Node000001_Node000025" class="edge">
<title>Node1&#45;&gt;Node25</title>
<g id="a_edge28_Node000001_Node000025"><a xlink:title=" ">
<path fill="none" stroke="#63b8ff" d="M257.78,-526.86C305.5,-481.93 406.98,-386.99 494.56,-308.81 537.36,-270.6 587.33,-227.71 621.11,-198.96"/>
<polygon fill="#63b8ff" stroke="#63b8ff" points="623.25,-201.73 628.6,-192.58 618.72,-196.39 623.25,-201.73"/>
</a>
</g>
</g>
<!-- Node30 -->
<g id="Node000030" class="node">
<title>Node30</title>
<g id="a_Node000030"><a xlink:href="classcom_1_1runehive_1_1game_1_1world_1_1entity_1_1mob_1_1_mob.html#ad8c9a5ff8cbfc49c63ce5fee9b1873a4" target="_top" xlink:title=" ">
<ellipse fill="white" stroke="#666666" cx="661.26" cy="-692.81" rx="150.79" ry="25.81"/>
<text xml:space="preserve" text-anchor="start" x="562.63" y="-695.66" font-family="Helvetica,sans-Serif" font-size="12.00">com.runehive.game.world.entity.mob.</text>
<text xml:space="preserve" text-anchor="middle" x="661.26" y="-681.41" font-family="Helvetica,sans-Serif" font-size="12.00">Mob.walkTo</text>
</a>
</g>
</g>
<!-- Node1&#45;&gt;Node30 -->
<g id="edge37_Node000001_Node000030" class="edge">
<title>Node1&#45;&gt;Node30</title>
<g id="a_edge37_Node000001_Node000030"><a xlink:title=" ">
<path fill="none" stroke="#63b8ff" d="M286.25,-578.28C339.08,-601.54 420.95,-635.59 494.56,-657.81 511.11,-662.81 528.8,-667.35 546.23,-671.39"/>
<polygon fill="#63b8ff" stroke="#63b8ff" points="545.03,-674.71 555.56,-673.51 546.58,-667.89 545.03,-674.71"/>
</a>
</g>
</g>
<!-- Node3 -->
<g id="Node000003" class="node">
<title>Node3</title>
<g id="a_Node000003"><a xlink:href="classcom_1_1runehive_1_1content_1_1activity_1_1_activity.html#aff6a224597d39a4c83b3b1d1cd884b20" target="_top" xlink:title=" ">
<ellipse fill="white" stroke="#666666" cx="1030.66" cy="-833.81" rx="121.62" ry="25.81"/>
<text xml:space="preserve" text-anchor="start" x="952.66" y="-836.66" font-family="Helvetica,sans-Serif" font-size="12.00">com.runehive.content.activity.</text>
<text xml:space="preserve" text-anchor="middle" x="1030.66" y="-822.41" font-family="Helvetica,sans-Serif" font-size="12.00">Activity.forActivity</text>
</a>
</g>
</g>
<!-- Node2&#45;&gt;Node3 -->
<g id="edge2_Node000002_Node000003" class="edge">
<title>Node2&#45;&gt;Node3</title>
<g id="a_edge2_Node000002_Node000003"><a xlink:title=" ">
<path fill="none" stroke="#63b8ff" d="M827.15,-829.95C850.73,-830.4 874.73,-830.86 897.57,-831.29"/>
<polygon fill="#63b8ff" stroke="#63b8ff" points="897.46,-834.79 907.53,-831.48 897.6,-827.79 897.46,-834.79"/>
</a>
</g>
</g>
<!-- Node4 -->
<g id="Node000004" class="node">
<title>Node4</title>
<g id="a_Node000004"><a xlink:href="classcom_1_1runehive_1_1game_1_1world_1_1entity_1_1mob_1_1_mob.html#abe3ff6c712833abb8b32c251907a2d9c" target="_top" xlink:title=" ">
<ellipse fill="white" stroke="#666666" cx="1030.66" cy="-903.81" rx="150.79" ry="25.81"/>
<text xml:space="preserve" text-anchor="start" x="932.04" y="-906.66" font-family="Helvetica,sans-Serif" font-size="12.00">com.runehive.game.world.entity.mob.</text>
<text xml:space="preserve" text-anchor="middle" x="1030.66" y="-892.41" font-family="Helvetica,sans-Serif" font-size="12.00">Mob.inActivity</text>
</a>
</g>
</g>
<!-- Node2&#45;&gt;Node4 -->
<g id="edge3_Node000002_Node000004" class="edge">
<title>Node2&#45;&gt;Node4</title>
<g id="a_edge3_Node000002_Node000004"><a xlink:title=" ">
<path fill="none" stroke="#63b8ff" d="M762.17,-847.75C811.86,-858.16 871.96,-870.76 922.59,-881.37"/>
<polygon fill="#63b8ff" stroke="#63b8ff" points="921.59,-884.74 932.09,-883.36 923.02,-877.88 921.59,-884.74"/>
</a>
</g>
</g>
<!-- Node2&#45;&gt;Node5 -->
<g id="edge4_Node000002_Node000005" class="edge">
<title>Node2&#45;&gt;Node5</title>
<g id="a_edge4_Node000002_Node000005"><a xlink:title=" ">
<path fill="none" stroke="#63b8ff" d="M774.74,-807.52C824.06,-799.07 881.48,-789.22 929.33,-781.01"/>
<polygon fill="#63b8ff" stroke="#63b8ff" points="929.88,-784.47 939.15,-779.33 928.7,-777.57 929.88,-784.47"/>
</a>
</g>
</g>
<!-- Node7 -->
<g id="Node000007" class="node">
<title>Node7</title>
<g id="a_Node000007"><a xlink:href="classcom_1_1runehive_1_1game_1_1world_1_1entity_1_1mob_1_1_mob.html#a385dc0248234fddaae1b093594d7bf58" target="_top" xlink:title="The combat of the mob.">
<ellipse fill="white" stroke="#666666" cx="1030.66" cy="-658.81" rx="150.79" ry="25.81"/>
<text xml:space="preserve" text-anchor="start" x="932.04" y="-661.66" font-family="Helvetica,sans-Serif" font-size="12.00">com.runehive.game.world.entity.mob.</text>
<text xml:space="preserve" text-anchor="middle" x="1030.66" y="-647.41" font-family="Helvetica,sans-Serif" font-size="12.00">Mob.getCombat</text>
</a>
</g>
</g>
<!-- Node6&#45;&gt;Node7 -->
<g id="edge6_Node000006_Node000007" class="edge">
<title>Node6&#45;&gt;Node7</title>
<g id="a_edge6_Node000006_Node000007"><a xlink:title=" ">
<path fill="none" stroke="#63b8ff" d="M793.08,-635.63C823.66,-638.62 856.36,-641.83 887.41,-644.87"/>
<polygon fill="#63b8ff" stroke="#63b8ff" points="886.96,-648.34 897.25,-645.84 887.64,-641.38 886.96,-648.34"/>
</a>
</g>
</g>
<!-- Node9 -->
<g id="Node000009" class="node">
<title>Node9</title>
<g id="a_Node000009"><a xlink:href="classcom_1_1runehive_1_1game_1_1world_1_1entity_1_1mob_1_1_mob.html#ac1ffa95e70f2c18a6695328fb2afc585" target="_top" xlink:title="Check if an entity is an npc.">
<ellipse fill="white" stroke="#666666" cx="1030.66" cy="-553.81" rx="150.79" ry="25.81"/>
<text xml:space="preserve" text-anchor="start" x="932.04" y="-556.66" font-family="Helvetica,sans-Serif" font-size="12.00">com.runehive.game.world.entity.mob.</text>
<text xml:space="preserve" text-anchor="middle" x="1030.66" y="-542.41" font-family="Helvetica,sans-Serif" font-size="12.00">Mob.isNpc</text>
</a>
</g>
</g>
<!-- Node8&#45;&gt;Node9 -->
<g id="edge8_Node000008_Node000009" class="edge">
<title>Node8&#45;&gt;Node9</title>
<g id="a_edge8_Node000008_Node000009"><a xlink:title=" ">
<path fill="none" stroke="#63b8ff" d="M762.65,-502.21C810.75,-511.51 868.51,-522.67 917.99,-532.23"/>
<polygon fill="#63b8ff" stroke="#63b8ff" points="917.1,-535.62 927.58,-534.08 918.43,-528.75 917.1,-535.62"/>
</a>
</g>
</g>
<!-- Node10 -->
<g id="Node000010" class="node">
<title>Node10</title>
<g id="a_Node000010"><a xlink:href="classcom_1_1runehive_1_1game_1_1world_1_1entity_1_1_entity.html#a64f68055122aaf4af08787378c7ac356" target="_top" xlink:title="Gets the EntityType.">
<ellipse fill="white" stroke="#666666" cx="1384.15" cy="-553.81" rx="132.23" ry="25.81"/>
<text xml:space="preserve" text-anchor="start" x="1298.65" y="-556.66" font-family="Helvetica,sans-Serif" font-size="12.00">com.runehive.game.world.entity.</text>
<text xml:space="preserve" text-anchor="middle" x="1384.15" y="-542.41" font-family="Helvetica,sans-Serif" font-size="12.00">Entity.getType</text>
</a>
</g>
</g>
<!-- Node9&#45;&gt;Node10 -->
<g id="edge9_Node000009_Node000010" class="edge">
<title>Node9&#45;&gt;Node10</title>
<g id="a_edge9_Node000009_Node000010"><a xlink:title=" ">
<path fill="none" stroke="#63b8ff" d="M1181.74,-553.81C1201.16,-553.81 1221.01,-553.81 1240.31,-553.81"/>
<polygon fill="#63b8ff" stroke="#63b8ff" points="1240.08,-557.31 1250.08,-553.81 1240.08,-550.31 1240.08,-557.31"/>
</a>
</g>
</g>
<!-- Node11&#45;&gt;Node9 -->
<g id="edge11_Node000011_Node000009" class="edge">
<title>Node11&#45;&gt;Node9</title>
<g id="a_edge11_Node000011_Node000009"><a xlink:title=" ">
<path fill="none" stroke="#63b8ff" d="M812.49,-553.22C830.8,-553.27 849.57,-553.32 868.04,-553.37"/>
<polygon fill="#63b8ff" stroke="#63b8ff" points="867.96,-556.87 877.97,-553.4 867.98,-549.87 867.96,-556.87"/>
</a>
</g>
</g>
<!-- Node12&#45;&gt;Node12 -->
<g id="edge14_Node000012_Node000012" class="edge">
<title>Node12&#45;&gt;Node12</title>
<g id="a_edge14_Node000012_Node000012"><a xlink:title=" ">
<path fill="none" stroke="#63b8ff" d="M598.76,-419.02C579.82,-428.86 600.65,-438.54 661.26,-438.54 699.14,-438.54 721.48,-434.76 728.29,-429.52"/>
<polygon fill="#63b8ff" stroke="#63b8ff" points="731.53,-428.21 724.36,-420.41 725.1,-430.98 731.53,-428.21"/>
</a>
</g>
</g>
<!-- Node14 -->
<g id="Node000014" class="node">
<title>Node14</title>
<g id="a_Node000014"><a xlink:href="classcom_1_1runehive_1_1util_1_1_utility.html#a945a6422f4443915820cead07a804e6c" target="_top" xlink:title=" ">
<ellipse fill="white" stroke="#666666" cx="1030.66" cy="-483.81" rx="112.08" ry="25.81"/>
<text xml:space="preserve" text-anchor="start" x="959.41" y="-486.66" font-family="Helvetica,sans-Serif" font-size="12.00">com.runehive.util.Utility.get</text>
<text xml:space="preserve" text-anchor="middle" x="1030.66" y="-472.41" font-family="Helvetica,sans-Serif" font-size="12.00">InnerBoundaries</text>
</a>
</g>
</g>
<!-- Node13&#45;&gt;Node14 -->
<g id="edge16_Node000013_Node000014" class="edge">
<title>Node13&#45;&gt;Node14</title>
<g id="a_edge16_Node000013_Node000014"><a xlink:title=" ">
<path fill="none" stroke="#63b8ff" d="M792.1,-360.15C804.95,-365.17 817.2,-371.59 827.96,-379.81 855.46,-400.8 836.4,-427.9 863.96,-448.81 878.31,-459.7 895.29,-467.38 912.81,-472.77"/>
<polygon fill="#63b8ff" stroke="#63b8ff" points="911.74,-476.1 922.32,-475.42 913.63,-469.36 911.74,-476.1"/>
</a>
</g>
</g>
<!-- Node17 -->
<g id="Node000017" class="node">
<title>Node17</title>
<g id="a_Node000017"><a xlink:href="classcom_1_1runehive_1_1game_1_1world_1_1_world.html#a8714230ba46958ecdbfa47cc2f3e4c70" target="_top" xlink:title=" ">
<ellipse fill="white" stroke="#666666" cx="1030.66" cy="-165.81" rx="110.49" ry="25.81"/>
<text xml:space="preserve" text-anchor="start" x="960.54" y="-168.66" font-family="Helvetica,sans-Serif" font-size="12.00">com.runehive.game.world.</text>
<text xml:space="preserve" text-anchor="middle" x="1030.66" y="-154.41" font-family="Helvetica,sans-Serif" font-size="12.00">World.getNpcs</text>
</a>
</g>
</g>
<!-- Node13&#45;&gt;Node17 -->
<g id="edge19_Node000013_Node000017" class="edge">
<title>Node13&#45;&gt;Node17</title>
<g id="a_edge19_Node000013_Node000017"><a xlink:title=" ">
<path fill="none" stroke="#63b8ff" d="M690.34,-318.13C727.34,-285.73 795.73,-230.66 863.96,-200.81 882.6,-192.66 903.26,-186.35 923.5,-181.49"/>
<polygon fill="#63b8ff" stroke="#63b8ff" points="924.24,-184.92 933.21,-179.28 922.68,-178.09 924.24,-184.92"/>
</a>
</g>
</g>
<!-- Node18 -->
<g id="Node000018" class="node">
<title>Node18</title>
<g id="a_Node000018"><a xlink:href="classcom_1_1runehive_1_1game_1_1world_1_1entity_1_1_entity.html#a8afdd0de68f242bf7082076dfbfffe37" target="_top" xlink:title=" ">
<ellipse fill="white" stroke="#666666" cx="1030.66" cy="-343.81" rx="132.23" ry="25.81"/>
<text xml:space="preserve" text-anchor="start" x="945.16" y="-346.66" font-family="Helvetica,sans-Serif" font-size="12.00">com.runehive.game.world.entity.</text>
<text xml:space="preserve" text-anchor="middle" x="1030.66" y="-332.41" font-family="Helvetica,sans-Serif" font-size="12.00">Entity.getPosition</text>
</a>
</g>
</g>
<!-- Node13&#45;&gt;Node18 -->
<g id="edge20_Node000013_Node000018" class="edge">
<title>Node13&#45;&gt;Node18</title>
<g id="a_edge20_Node000013_Node000018"><a xlink:title=" ">
<path fill="none" stroke="#63b8ff" d="M828.22,-343.81C847.69,-343.81 867.41,-343.81 886.53,-343.81"/>
<polygon fill="#63b8ff" stroke="#63b8ff" points="886.51,-347.31 896.51,-343.81 886.51,-340.31 886.51,-347.31"/>
</a>
</g>
</g>
<!-- Node19 -->
<g id="Node000019" class="node">
<title>Node19</title>
<g id="a_Node000019"><a xlink:href="classcom_1_1runehive_1_1game_1_1world_1_1entity_1_1_entity.html#a6fbe05d5095666dd6a6ce87d3176c8dc" target="_top" xlink:title=" ">
<ellipse fill="white" stroke="#666666" cx="1030.66" cy="-235.81" rx="132.23" ry="25.81"/>
<text xml:space="preserve" text-anchor="start" x="945.16" y="-238.66" font-family="Helvetica,sans-Serif" font-size="12.00">com.runehive.game.world.entity.</text>
<text xml:space="preserve" text-anchor="middle" x="1030.66" y="-224.41" font-family="Helvetica,sans-Serif" font-size="12.00">Entity.isRegistered</text>
</a>
</g>
</g>
<!-- Node13&#45;&gt;Node19 -->
<g id="edge21_Node000013_Node000019" class="edge">
<title>Node13&#45;&gt;Node19</title>
<g id="a_edge21_Node000013_Node000019"><a xlink:title=" ">
<path fill="none" stroke="#63b8ff" d="M728.57,-319.81C767.69,-306.06 818.34,-288.98 863.96,-275.81 885.61,-269.56 909.04,-263.49 931.27,-258.05"/>
<polygon fill="#63b8ff" stroke="#63b8ff" points="932.06,-261.46 940.95,-255.7 930.41,-254.65 932.06,-261.46"/>
</a>
</g>
</g>
<!-- Node20 -->
<g id="Node000020" class="node">
<title>Node20</title>
<g id="a_Node000020"><a xlink:href="classcom_1_1runehive_1_1game_1_1world_1_1entity_1_1_entity.html#afdf83a2e020bbacd7b805a8823fe662b" target="_top" xlink:title=" ">
<ellipse fill="white" stroke="#666666" cx="1030.66" cy="-413.81" rx="132.23" ry="25.81"/>
<text xml:space="preserve" text-anchor="start" x="945.16" y="-416.66" font-family="Helvetica,sans-Serif" font-size="12.00">com.runehive.game.world.entity.</text>
<text xml:space="preserve" text-anchor="middle" x="1030.66" y="-402.41" font-family="Helvetica,sans-Serif" font-size="12.00">Entity.setPosition</text>
</a>
</g>
</g>
<!-- Node13&#45;&gt;Node20 -->
<g id="edge22_Node000013_Node000020" class="edge">
<title>Node13&#45;&gt;Node20</title>
<g id="a_edge22_Node000013_Node000020"><a xlink:title=" ">
<path fill="none" stroke="#63b8ff" d="M768.03,-363.96C816.81,-373.26 874.58,-384.26 923.41,-393.57"/>
<polygon fill="#63b8ff" stroke="#63b8ff" points="922.68,-396.99 933.16,-395.42 923.99,-390.11 922.68,-396.99"/>
</a>
</g>
</g>
<!-- Node24 -->
<g id="Node000024" class="node">
<title>Node24</title>
<g id="a_Node000024"><a xlink:href="classcom_1_1runehive_1_1game_1_1world_1_1entity_1_1_entity.html#a34b9b877cdc7ee49b14d42b45ef38d22" target="_top" xlink:title=" ">
<ellipse fill="white" stroke="#666666" cx="1384.15" cy="-175.81" rx="132.23" ry="25.81"/>
<text xml:space="preserve" text-anchor="start" x="1298.65" y="-178.66" font-family="Helvetica,sans-Serif" font-size="12.00">com.runehive.game.world.entity.</text>
<text xml:space="preserve" text-anchor="middle" x="1384.15" y="-164.41" font-family="Helvetica,sans-Serif" font-size="12.00">Entity.setRegistered</text>
</a>
</g>
</g>
<!-- Node13&#45;&gt;Node24 -->
<g id="edge26_Node000013_Node000024" class="edge">
<title>Node13&#45;&gt;Node24</title>
<g id="a_edge26_Node000013_Node000024"><a xlink:title=" ">
<path fill="none" stroke="#63b8ff" d="M770.15,-323.89C800.44,-318.62 833.44,-313.19 863.96,-308.81 1011.58,-287.61 1065.2,-339.92 1197.36,-270.81 1218.85,-259.57 1213.32,-243.46 1233.36,-229.81 1251.06,-217.75 1271.77,-208.04 1292.05,-200.37"/>
<polygon fill="#63b8ff" stroke="#63b8ff" points="1292.97,-203.76 1301.17,-197.05 1290.58,-197.18 1292.97,-203.76"/>
</a>
</g>
</g>
<!-- Node15 -->
<g id="Node000015" class="node">
<title>Node15</title>
<g id="a_Node000015"><a xlink:href="classcom_1_1runehive_1_1game_1_1world_1_1position_1_1_position.html#a92154563715ed156b00ee6220e2991ff" target="_top" xlink:title="Creates a new location based on this location.">
<ellipse fill="white" stroke="#666666" cx="1384.15" cy="-483.81" rx="142.31" ry="25.81"/>
<text xml:space="preserve" text-anchor="start" x="1291.53" y="-486.66" font-family="Helvetica,sans-Serif" font-size="12.00">com.runehive.game.world.position.</text>
<text xml:space="preserve" text-anchor="middle" x="1384.15" y="-472.41" font-family="Helvetica,sans-Serif" font-size="12.00">Position.transform</text>
</a>
</g>
</g>
<!-- Node14&#45;&gt;Node15 -->
<g id="edge17_Node000014_Node000015" class="edge">
<title>Node14&#45;&gt;Node15</title>
<g id="a_edge17_Node000014_Node000015"><a xlink:title=" ">
<path fill="none" stroke="#63b8ff" d="M1142.87,-483.81C1170.61,-483.81 1200.83,-483.81 1230.19,-483.81"/>
<polygon fill="#63b8ff" stroke="#63b8ff" points="1229.88,-487.31 1239.88,-483.81 1229.88,-480.31 1229.88,-487.31"/>
</a>
</g>
</g>
<!-- Node16 -->
<g id="Node000016" class="node">
<title>Node16</title>
<g id="a_Node000016"><a xlink:href="classcom_1_1runehive_1_1game_1_1world_1_1position_1_1_position.html#a7803ff05a7b4b99d2883898ade9427f7" target="_top" xlink:title="Creates a location with a default height of 0.">
<ellipse fill="white" stroke="#666666" cx="1713.25" cy="-483.81" rx="142.31" ry="25.81"/>
<text xml:space="preserve" text-anchor="start" x="1620.62" y="-486.66" font-family="Helvetica,sans-Serif" font-size="12.00">com.runehive.game.world.position.</text>
<text xml:space="preserve" text-anchor="middle" x="1713.25" y="-472.41" font-family="Helvetica,sans-Serif" font-size="12.00">Position.Position</text>
</a>
</g>
</g>
<!-- Node15&#45;&gt;Node16 -->
<g id="edge18_Node000015_Node000016" class="edge">
<title>Node15&#45;&gt;Node16</title>
<g id="a_edge18_Node000015_Node000016"><a xlink:title=" ">
<path fill="none" stroke="#63b8ff" d="M1526.72,-483.81C1537.48,-483.81 1548.38,-483.81 1559.21,-483.81"/>
<polygon fill="#63b8ff" stroke="#63b8ff" points="1558.95,-487.31 1568.95,-483.81 1558.95,-480.31 1558.95,-487.31"/>
</a>
</g>
</g>
<!-- Node21 -->
<g id="Node000021" class="node">
<title>Node21</title>
<g id="a_Node000021"><a xlink:href="classcom_1_1runehive_1_1game_1_1world_1_1entity_1_1_entity.html#a4d41d635e97c6677d22dd90f57e45ba5" target="_top" xlink:title="Adds this entity to the specified region.">
<ellipse fill="white" stroke="#666666" cx="1384.15" cy="-413.81" rx="132.23" ry="25.81"/>
<text xml:space="preserve" text-anchor="start" x="1298.65" y="-416.66" font-family="Helvetica,sans-Serif" font-size="12.00">com.runehive.game.world.entity.</text>
<text xml:space="preserve" text-anchor="middle" x="1384.15" y="-402.41" font-family="Helvetica,sans-Serif" font-size="12.00">Entity.addToRegion</text>
</a>
</g>
</g>
<!-- Node20&#45;&gt;Node21 -->
<g id="edge23_Node000020_Node000021" class="edge">
<title>Node20&#45;&gt;Node21</title>
<g id="a_edge23_Node000020_Node000021"><a xlink:title=" ">
<path fill="none" stroke="#63b8ff" d="M1163.29,-413.81C1188.42,-413.81 1214.83,-413.81 1240.29,-413.81"/>
<polygon fill="#63b8ff" stroke="#63b8ff" points="1240.01,-417.31 1250.01,-413.81 1240.01,-410.31 1240.01,-417.31"/>
</a>
</g>
</g>
<!-- Node22 -->
<g id="Node000022" class="node">
<title>Node22</title>
<g id="a_Node000022"><a xlink:href="classcom_1_1runehive_1_1game_1_1world_1_1entity_1_1_entity.html#a561452a2370cad1b551c6f717121ab31" target="_top" xlink:title=" ">
<ellipse fill="white" stroke="#666666" cx="1384.15" cy="-343.81" rx="132.23" ry="25.81"/>
<text xml:space="preserve" text-anchor="start" x="1298.65" y="-346.66" font-family="Helvetica,sans-Serif" font-size="12.00">com.runehive.game.world.entity.</text>
<text xml:space="preserve" text-anchor="middle" x="1384.15" y="-332.41" font-family="Helvetica,sans-Serif" font-size="12.00">Entity.getHeight</text>
</a>
</g>
</g>
<!-- Node20&#45;&gt;Node22 -->
<g id="edge24_Node000020_Node000022" class="edge">
<title>Node20&#45;&gt;Node22</title>
<g id="a_edge24_Node000020_Node000022"><a xlink:title=" ">
<path fill="none" stroke="#63b8ff" d="M1124.47,-395.33C1171.93,-385.88 1229.85,-374.34 1278.85,-364.58"/>
<polygon fill="#63b8ff" stroke="#63b8ff" points="1279.52,-368.02 1288.64,-362.63 1278.15,-361.15 1279.52,-368.02"/>
</a>
</g>
</g>
<!-- Node23 -->
<g id="Node000023" class="node">
<title>Node23</title>
<g id="a_Node000023"><a xlink:href="classcom_1_1runehive_1_1game_1_1world_1_1entity_1_1_entity.html#a63126d915af5d3fb24dc111c0a5d6d63" target="_top" xlink:title="Removes this entity from the specified region.">
<ellipse fill="white" stroke="#666666" cx="1384.15" cy="-264.81" rx="132.23" ry="25.81"/>
<text xml:space="preserve" text-anchor="start" x="1298.65" y="-267.66" font-family="Helvetica,sans-Serif" font-size="12.00">com.runehive.game.world.entity.</text>
<text xml:space="preserve" text-anchor="middle" x="1384.15" y="-253.41" font-family="Helvetica,sans-Serif" font-size="12.00">Entity.removeFromRegion</text>
</a>
</g>
</g>
<!-- Node20&#45;&gt;Node23 -->
<g id="edge25_Node000020_Node000023" class="edge">
<title>Node20&#45;&gt;Node23</title>
<g id="a_edge25_Node000020_Node000023"><a xlink:title=" ">
<path fill="none" stroke="#63b8ff" d="M1150.09,-402.36C1167.06,-397 1183.45,-389.42 1197.36,-378.81 1225.17,-357.58 1206.4,-331.1 1233.36,-308.81 1244.96,-299.22 1258.57,-291.72 1272.78,-285.86"/>
<polygon fill="#63b8ff" stroke="#63b8ff" points="1273.71,-289.25 1281.8,-282.41 1271.21,-282.71 1273.71,-289.25"/>
</a>
</g>
</g>
<!-- Node25&#45;&gt;Node17 -->
<g id="edge33_Node000025_Node000017" class="edge">
<title>Node25&#45;&gt;Node17</title>
<g id="a_edge33_Node000025_Node000017"><a xlink:title=" ">
<path fill="none" stroke="#63b8ff" d="M828.22,-165.81C855.23,-165.81 882.74,-165.81 908.41,-165.81"/>
<polygon fill="#63b8ff" stroke="#63b8ff" points="908.17,-169.31 918.17,-165.81 908.17,-162.31 908.17,-169.31"/>
</a>
</g>
</g>
<!-- Node25&#45;&gt;Node19 -->
<g id="edge34_Node000025_Node000019" class="edge">
<title>Node25&#45;&gt;Node19</title>
<g id="a_edge34_Node000025_Node000019"><a xlink:title=" ">
<path fill="none" stroke="#63b8ff" d="M768.03,-185.96C816.81,-195.26 874.58,-206.26 923.41,-215.57"/>
<polygon fill="#63b8ff" stroke="#63b8ff" points="922.68,-218.99 933.16,-217.42 923.99,-212.11 922.68,-218.99"/>
</a>
</g>
</g>
<!-- Node26 -->
<g id="Node000026" class="node">
<title>Node26</title>
<g id="a_Node000026"><a xlink:href="classcom_1_1runehive_1_1game_1_1world_1_1entity_1_1_entity.html#af15cd8bc3c008a5e9ad38569b9d530e7" target="_top" xlink:title="Destroys this entity.">
<ellipse fill="white" stroke="#666666" cx="1030.66" cy="-95.81" rx="132.23" ry="25.81"/>
<text xml:space="preserve" text-anchor="start" x="945.16" y="-98.66" font-family="Helvetica,sans-Serif" font-size="12.00">com.runehive.game.world.entity.</text>
<text xml:space="preserve" text-anchor="middle" x="1030.66" y="-84.41" font-family="Helvetica,sans-Serif" font-size="12.00">Entity.destroy</text>
</a>
</g>
</g>
<!-- Node25&#45;&gt;Node26 -->
<g id="edge29_Node000025_Node000026" class="edge">
<title>Node25&#45;&gt;Node26</title>
<g id="a_edge29_Node000025_Node000026"><a xlink:title=" ">
<path fill="none" stroke="#63b8ff" d="M768.03,-145.66C816.81,-136.36 874.58,-125.36 923.41,-116.05"/>
<polygon fill="#63b8ff" stroke="#63b8ff" points="923.99,-119.5 933.16,-114.19 922.68,-112.63 923.99,-119.5"/>
</a>
</g>
</g>
<!-- Node28 -->
<g id="Node000028" class="node">
<title>Node28</title>
<g id="a_Node000028"><a xlink:href="classcom_1_1runehive_1_1game_1_1world_1_1entity_1_1mob_1_1npc_1_1_npc.html#aba5a9431f5a724ed3af7eeecfcd1d28a" target="_top" xlink:title=" ">
<ellipse fill="white" stroke="#666666" cx="1030.66" cy="-25.81" rx="166.7" ry="25.81"/>
<text xml:space="preserve" text-anchor="start" x="920.79" y="-28.66" font-family="Helvetica,sans-Serif" font-size="12.00">com.runehive.game.world.entity.mob.npc.</text>
<text xml:space="preserve" text-anchor="middle" x="1030.66" y="-14.41" font-family="Helvetica,sans-Serif" font-size="12.00">Npc.Npc</text>
</a>
</g>
</g>
<!-- Node25&#45;&gt;Node28 -->
<g id="edge35_Node000025_Node000028" class="edge">
<title>Node25&#45;&gt;Node28</title>
<g id="a_edge35_Node000025_Node000028"><a xlink:title=" ">
<path fill="none" stroke="#63b8ff" d="M702.87,-140.45C742.57,-116.69 805.43,-81.78 863.96,-60.81 877.52,-55.95 891.97,-51.67 906.46,-47.92"/>
<polygon fill="#63b8ff" stroke="#63b8ff" points="907.21,-51.34 916.06,-45.52 905.51,-44.55 907.21,-51.34"/>
</a>
</g>
</g>
<!-- Node26&#45;&gt;Node23 -->
<g id="edge31_Node000026_Node000023" class="edge">
<title>Node26&#45;&gt;Node23</title>
<g id="a_edge31_Node000026_Node000023"><a xlink:title=" ">
<path fill="none" stroke="#63b8ff" d="M1151.01,-106.76C1167.77,-112.2 1183.85,-119.93 1197.36,-130.81 1227.73,-155.27 1204.75,-184.32 1233.36,-210.81 1247.52,-223.92 1265.09,-233.89 1283.17,-241.47"/>
<polygon fill="#63b8ff" stroke="#63b8ff" points="1281.85,-244.71 1292.43,-245.11 1284.4,-238.2 1281.85,-244.71"/>
</a>
</g>
</g>
<!-- Node26&#45;&gt;Node24 -->
<g id="edge32_Node000026_Node000024" class="edge">
<title>Node26&#45;&gt;Node24</title>
<g id="a_edge32_Node000026_Node000024"><a xlink:title=" ">
<path fill="none" stroke="#63b8ff" d="M1122.93,-114.58C1147.15,-119.7 1173.27,-125.35 1197.36,-130.81 1227.5,-137.64 1260.29,-145.45 1289.81,-152.63"/>
<polygon fill="#63b8ff" stroke="#63b8ff" points="1288.94,-156.02 1299.49,-154.99 1290.6,-149.22 1288.94,-156.02"/>
</a>
</g>
</g>
<!-- Node27 -->
<g id="Node000027" class="node">
<title>Node27</title>
<g id="a_Node000027"><a xlink:href="classcom_1_1runehive_1_1game_1_1world_1_1entity_1_1_entity.html#a3fc44887104e7cc1c6b91d15c45e4918" target="_top" xlink:title=" ">
<ellipse fill="white" stroke="#666666" cx="1384.15" cy="-95.81" rx="132.23" ry="25.81"/>
<text xml:space="preserve" text-anchor="start" x="1298.65" y="-98.66" font-family="Helvetica,sans-Serif" font-size="12.00">com.runehive.game.world.entity.</text>
<text xml:space="preserve" text-anchor="middle" x="1384.15" y="-84.41" font-family="Helvetica,sans-Serif" font-size="12.00">Entity.Entity</text>
</a>
</g>
</g>
<!-- Node26&#45;&gt;Node27 -->
<g id="edge30_Node000026_Node000027" class="edge">
<title>Node26&#45;&gt;Node27</title>
<g id="a_edge30_Node000026_Node000027"><a xlink:title=" ">
<path fill="none" stroke="#63b8ff" d="M1163.29,-95.81C1188.42,-95.81 1214.83,-95.81 1240.29,-95.81"/>
<polygon fill="#63b8ff" stroke="#63b8ff" points="1240.01,-99.31 1250.01,-95.81 1240.01,-92.31 1240.01,-99.31"/>
</a>
</g>
</g>
<!-- Node29 -->
<g id="Node000029" class="node">
<title>Node29</title>
<g id="a_Node000029"><a xlink:href="classcom_1_1runehive_1_1game_1_1world_1_1entity_1_1mob_1_1_mob.html#a92ce9da19cead3d907d2516d76785ed7" target="_top" xlink:title="Constructs a new Mob.">
<ellipse fill="white" stroke="#666666" cx="1384.15" cy="-25.81" rx="150.79" ry="25.81"/>
<text xml:space="preserve" text-anchor="start" x="1285.53" y="-28.66" font-family="Helvetica,sans-Serif" font-size="12.00">com.runehive.game.world.entity.mob.</text>
<text xml:space="preserve" text-anchor="middle" x="1384.15" y="-14.41" font-family="Helvetica,sans-Serif" font-size="12.00">Mob.Mob</text>
</a>
</g>
</g>
<!-- Node28&#45;&gt;Node29 -->
<g id="edge36_Node000028_Node000029" class="edge">
<title>Node28&#45;&gt;Node29</title>
<g id="a_edge36_Node000028_Node000029"><a xlink:title=" ">
<path fill="none" stroke="#63b8ff" d="M1197.63,-25.81C1205.66,-25.81 1213.72,-25.81 1221.74,-25.81"/>
<polygon fill="#63b8ff" stroke="#63b8ff" points="1221.54,-29.31 1231.54,-25.81 1221.54,-22.31 1221.54,-29.31"/>
</a>
</g>
</g>
<!-- Node30&#45;&gt;Node7 -->
<g id="edge38_Node000030_Node000007" class="edge">
<title>Node30&#45;&gt;Node7</title>
<g id="a_edge38_Node000030_Node000007"><a xlink:title=" ">
<path fill="none" stroke="#63b8ff" d="M794.9,-680.53C824.33,-677.81 855.67,-674.91 885.54,-672.15"/>
<polygon fill="#63b8ff" stroke="#63b8ff" points="885.76,-675.64 895.4,-671.23 885.12,-668.67 885.76,-675.64"/>
</a>
</g>
</g>
<!-- Node30&#45;&gt;Node30 -->
<g id="edge39_Node000030_Node000030" class="edge">
<title>Node30&#45;&gt;Node30</title>
<g id="a_edge39_Node000030_Node000030"><a xlink:title=" ">
<path fill="none" stroke="#63b8ff" d="M593.37,-716.25C585.96,-727.12 608.59,-736.62 661.26,-736.62 695,-736.62 716.41,-732.72 725.5,-727.06"/>
<polygon fill="#63b8ff" stroke="#63b8ff" points="728.78,-728.27 728.67,-717.68 722.15,-726.03 728.78,-728.27"/>
</a>
</g>
</g>
</g>
</svg>
