<?xml version="1.0" encoding="UTF-8" standalone="no"?>
<!DOCTYPE svg PUBLIC "-//W3C//DTD SVG 1.1//EN"
 "http://www.w3.org/Graphics/SVG/1.1/DTD/svg11.dtd">
<!-- Generated by graphviz version 14.0.1 (20251006.0113)
 -->
<!-- Title: com.runehive.content.store.impl.PersonalStore.modify Pages: 1 -->
<svg width="2125pt" height="845pt"
 viewBox="0.00 0.00 2125.00 845.00" xmlns="http://www.w3.org/2000/svg" xmlns:xlink="http://www.w3.org/1999/xlink">
<g id="graph0" class="graph" transform="scale(1 1) rotate(0) translate(4 841.06)">
<title>com.runehive.content.store.impl.PersonalStore.modify</title>
<!-- Node1 -->
<g id="Node000001" class="node">
<title>Node1</title>
<g id="a_Node000001"><a xlink:title="Modifies the player&#39;s shop item.">
<ellipse fill="#999999" stroke="#666666" cx="132.76" cy="-343.81" rx="132.76" ry="25.81"/>
<text xml:space="preserve" text-anchor="start" x="46.88" y="-346.66" font-family="Helvetica,sans-Serif" font-size="12.00">com.runehive.content.store.impl.</text>
<text xml:space="preserve" text-anchor="middle" x="132.76" y="-332.41" font-family="Helvetica,sans-Serif" font-size="12.00">PersonalStore.modify</text>
</a>
</g>
</g>
<!-- Node2 -->
<g id="Node000002" class="node">
<title>Node2</title>
<g id="a_Node000002"><a xlink:href="classcom_1_1runehive_1_1content_1_1dialogue_1_1_dialogue_factory.html#a275f5293a9b15a2952a1722f219e4347" target="_top" xlink:title="Clears the current dialogue chain.">
<ellipse fill="white" stroke="#666666" cx="477.23" cy="-690.81" rx="129.05" ry="25.81"/>
<text xml:space="preserve" text-anchor="start" x="393.98" y="-693.66" font-family="Helvetica,sans-Serif" font-size="12.00">com.runehive.content.dialogue.</text>
<text xml:space="preserve" text-anchor="middle" x="477.23" y="-679.41" font-family="Helvetica,sans-Serif" font-size="12.00">DialogueFactory.clear</text>
</a>
</g>
</g>
<!-- Node1&#45;&gt;Node2 -->
<g id="edge1_Node000001_Node000002" class="edge">
<title>Node1&#45;&gt;Node2</title>
<g id="a_edge1_Node000001_Node000002"><a xlink:title=" ">
<path fill="none" stroke="#63b8ff" d="M141.33,-369.64C159.35,-426.6 210.24,-563.71 301.52,-636.81 320.34,-651.89 343.38,-662.77 366.48,-670.62"/>
<polygon fill="#63b8ff" stroke="#63b8ff" points="365.4,-673.95 375.99,-673.67 367.54,-667.29 365.4,-673.95"/>
</a>
</g>
</g>
<!-- Node4 -->
<g id="Node000004" class="node">
<title>Node4</title>
<g id="a_Node000004"><a xlink:href="classcom_1_1runehive_1_1content_1_1dialogue_1_1_dialogue_factory.html#a2487170811b723c8a8e3759c94896bd9" target="_top" xlink:title="Retrieves the next dialogue in the chain and executes it.">
<ellipse fill="white" stroke="#666666" cx="477.23" cy="-601.81" rx="129.05" ry="25.81"/>
<text xml:space="preserve" text-anchor="start" x="393.98" y="-604.66" font-family="Helvetica,sans-Serif" font-size="12.00">com.runehive.content.dialogue.</text>
<text xml:space="preserve" text-anchor="middle" x="477.23" y="-590.41" font-family="Helvetica,sans-Serif" font-size="12.00">DialogueFactory.execute</text>
</a>
</g>
</g>
<!-- Node1&#45;&gt;Node4 -->
<g id="edge3_Node000001_Node000004" class="edge">
<title>Node1&#45;&gt;Node4</title>
<g id="a_edge3_Node000001_Node000004"><a xlink:title=" ">
<path fill="none" stroke="#63b8ff" d="M153.34,-369.51C182.43,-406.35 240.25,-474.61 301.52,-518.81 332.73,-541.33 371.01,-560.32 403.77,-574.42"/>
<polygon fill="#63b8ff" stroke="#63b8ff" points="402.23,-577.57 412.81,-578.24 404.96,-571.13 402.23,-577.57"/>
</a>
</g>
</g>
<!-- Node9 -->
<g id="Node000009" class="node">
<title>Node9</title>
<g id="a_Node000009"><a xlink:href="classcom_1_1runehive_1_1util_1_1_utility.html#a490026d68b72e2dea391680a7d49a844" target="_top" xlink:title="Formats digits for integers.">
<ellipse fill="white" stroke="#666666" cx="477.23" cy="-413.81" rx="123.74" ry="25.81"/>
<text xml:space="preserve" text-anchor="start" x="397.73" y="-416.66" font-family="Helvetica,sans-Serif" font-size="12.00">com.runehive.util.Utility.format</text>
<text xml:space="preserve" text-anchor="middle" x="477.23" y="-402.41" font-family="Helvetica,sans-Serif" font-size="12.00">Digits</text>
</a>
</g>
</g>
<!-- Node1&#45;&gt;Node9 -->
<g id="edge9_Node000001_Node000009" class="edge">
<title>Node1&#45;&gt;Node9</title>
<g id="a_edge9_Node000001_Node000009"><a xlink:title=" ">
<path fill="none" stroke="#63b8ff" d="M224.28,-362.83C249.29,-368.05 276.45,-373.68 301.52,-378.81 325.44,-383.7 351.21,-388.9 375.42,-393.76"/>
<polygon fill="#63b8ff" stroke="#63b8ff" points="374.45,-397.13 384.94,-395.66 375.82,-390.27 374.45,-397.13"/>
</a>
</g>
</g>
<!-- Node10 -->
<g id="Node000010" class="node">
<title>Node10</title>
<g id="a_Node000010"><a xlink:href="classcom_1_1runehive_1_1game_1_1world_1_1items_1_1_item.html#adc1c7b8e6620777606b083001f7d936a" target="_top" xlink:title=" ">
<ellipse fill="white" stroke="#666666" cx="477.23" cy="-343.81" rx="132.76" ry="25.81"/>
<text xml:space="preserve" text-anchor="start" x="391.36" y="-346.66" font-family="Helvetica,sans-Serif" font-size="12.00">com.runehive.game.world.items.</text>
<text xml:space="preserve" text-anchor="middle" x="477.23" y="-332.41" font-family="Helvetica,sans-Serif" font-size="12.00">Item.getName</text>
</a>
</g>
</g>
<!-- Node1&#45;&gt;Node10 -->
<g id="edge10_Node000001_Node000010" class="edge">
<title>Node1&#45;&gt;Node10</title>
<g id="a_edge10_Node000001_Node000010"><a xlink:title=" ">
<path fill="none" stroke="#63b8ff" d="M265.68,-343.81C287.68,-343.81 310.6,-343.81 332.87,-343.81"/>
<polygon fill="#63b8ff" stroke="#63b8ff" points="332.59,-347.31 342.59,-343.81 332.59,-340.31 332.59,-347.31"/>
</a>
</g>
</g>
<!-- Node15 -->
<g id="Node000015" class="node">
<title>Node15</title>
<g id="a_Node000015"><a xlink:href="classcom_1_1runehive_1_1content_1_1store_1_1_store_item.html#a940ee86f090ae8882f50bb36b32a5523" target="_top" xlink:title=" ">
<ellipse fill="white" stroke="#666666" cx="477.23" cy="-273.81" rx="115.79" ry="25.81"/>
<text xml:space="preserve" text-anchor="start" x="403.36" y="-276.66" font-family="Helvetica,sans-Serif" font-size="12.00">com.runehive.content.store.</text>
<text xml:space="preserve" text-anchor="middle" x="477.23" y="-262.41" font-family="Helvetica,sans-Serif" font-size="12.00">StoreItem.getShopCurrency</text>
</a>
</g>
</g>
<!-- Node1&#45;&gt;Node15 -->
<g id="edge15_Node000001_Node000015" class="edge">
<title>Node1&#45;&gt;Node15</title>
<g id="a_edge15_Node000001_Node000015"><a xlink:title=" ">
<path fill="none" stroke="#63b8ff" d="M224.28,-324.79C249.29,-319.57 276.45,-313.94 301.52,-308.81 326.47,-303.71 353.44,-298.27 378.55,-293.24"/>
<polygon fill="#63b8ff" stroke="#63b8ff" points="378.96,-296.72 388.08,-291.33 377.58,-289.86 378.96,-296.72"/>
</a>
</g>
</g>
<!-- Node16 -->
<g id="Node000016" class="node">
<title>Node16</title>
<g id="a_Node000016"><a xlink:href="classcom_1_1runehive_1_1game_1_1world_1_1entity_1_1mob_1_1player_1_1_interface_manager.html#abeef1b9c5738fda1822c862657bb1383" target="_top" xlink:title="Checks if a certain interface is enter.">
<ellipse fill="white" stroke="#666666" cx="477.23" cy="-203.81" rx="175.72" ry="25.81"/>
<text xml:space="preserve" text-anchor="start" x="360.98" y="-206.66" font-family="Helvetica,sans-Serif" font-size="12.00">com.runehive.game.world.entity.mob.player.</text>
<text xml:space="preserve" text-anchor="middle" x="477.23" y="-192.41" font-family="Helvetica,sans-Serif" font-size="12.00">InterfaceManager.isInterfaceOpen</text>
</a>
</g>
</g>
<!-- Node1&#45;&gt;Node16 -->
<g id="edge16_Node000001_Node000016" class="edge">
<title>Node1&#45;&gt;Node16</title>
<g id="a_edge16_Node000001_Node000016"><a xlink:title=" ">
<path fill="none" stroke="#63b8ff" d="M166.2,-318.48C198.66,-294.39 250.91,-258.93 301.52,-238.81 314.69,-233.57 328.74,-229.09 342.94,-225.26"/>
<polygon fill="#63b8ff" stroke="#63b8ff" points="343.54,-228.72 352.35,-222.83 341.79,-221.94 343.54,-228.72"/>
</a>
</g>
</g>
<!-- Node17 -->
<g id="Node000017" class="node">
<title>Node17</title>
<g id="a_Node000017"><a xlink:href="classcom_1_1runehive_1_1content_1_1dialogue_1_1_dialogue_factory.html#a77baa543660723bb35d09b56e1149732" target="_top" xlink:title="Sets an action so this action can be executed after dialogues are done.">
<ellipse fill="white" stroke="#666666" cx="477.23" cy="-769.81" rx="129.05" ry="25.81"/>
<text xml:space="preserve" text-anchor="start" x="393.98" y="-772.66" font-family="Helvetica,sans-Serif" font-size="12.00">com.runehive.content.dialogue.</text>
<text xml:space="preserve" text-anchor="middle" x="477.23" y="-758.41" font-family="Helvetica,sans-Serif" font-size="12.00">DialogueFactory.onAction</text>
</a>
</g>
</g>
<!-- Node1&#45;&gt;Node17 -->
<g id="edge17_Node000001_Node000017" class="edge">
<title>Node1&#45;&gt;Node17</title>
<g id="a_edge17_Node000001_Node000017"><a xlink:title=" ">
<path fill="none" stroke="#63b8ff" d="M137.3,-370.05C148.1,-439.45 187.16,-629.12 301.52,-725.81 316.36,-738.36 334.3,-747.41 352.95,-753.92"/>
<polygon fill="#63b8ff" stroke="#63b8ff" points="351.65,-757.18 362.24,-756.91 353.79,-750.51 351.65,-757.18"/>
</a>
</g>
</g>
<!-- Node18 -->
<g id="Node000018" class="node">
<title>Node18</title>
<g id="a_Node000018"><a xlink:href="classcom_1_1runehive_1_1content_1_1store_1_1impl_1_1_personal_store.html#adf9442af0e0a24704e24dea9894e8ef0" target="_top" xlink:title=" ">
<ellipse fill="white" stroke="#666666" cx="477.23" cy="-133.81" rx="132.76" ry="25.81"/>
<text xml:space="preserve" text-anchor="start" x="391.36" y="-136.66" font-family="Helvetica,sans-Serif" font-size="12.00">com.runehive.content.store.impl.</text>
<text xml:space="preserve" text-anchor="middle" x="477.23" y="-122.41" font-family="Helvetica,sans-Serif" font-size="12.00">PersonalStore.refresh</text>
</a>
</g>
</g>
<!-- Node1&#45;&gt;Node18 -->
<g id="edge20_Node000001_Node000018" class="edge">
<title>Node1&#45;&gt;Node18</title>
<g id="a_edge20_Node000001_Node000018"><a xlink:title=" ">
<path fill="none" stroke="#63b8ff" d="M150.65,-317.96C177.6,-278.97 234.19,-205.78 301.52,-168.81 316.42,-160.63 332.98,-154.34 349.79,-149.52"/>
<polygon fill="#63b8ff" stroke="#63b8ff" points="350.65,-152.92 359.4,-146.95 348.84,-146.16 350.65,-152.92"/>
</a>
</g>
</g>
<!-- Node22 -->
<g id="Node000022" class="node">
<title>Node22</title>
<g id="a_Node000022"><a xlink:href="classcom_1_1runehive_1_1game_1_1world_1_1entity_1_1mob_1_1player_1_1_player.html#ab8309e5d532b7540f48bf25f8dea92a8" target="_top" xlink:title=" ">
<ellipse fill="white" stroke="#666666" cx="1166.19" cy="-63.81" rx="175.72" ry="25.81"/>
<text xml:space="preserve" text-anchor="start" x="1049.94" y="-66.66" font-family="Helvetica,sans-Serif" font-size="12.00">com.runehive.game.world.entity.mob.player.</text>
<text xml:space="preserve" text-anchor="middle" x="1166.19" y="-52.41" font-family="Helvetica,sans-Serif" font-size="12.00">Player.send</text>
</a>
</g>
</g>
<!-- Node1&#45;&gt;Node22 -->
<g id="edge30_Node000001_Node000022" class="edge">
<title>Node1&#45;&gt;Node22</title>
<g id="a_edge30_Node000001_Node000022"><a xlink:title=" ">
<path fill="none" stroke="#63b8ff" d="M142.52,-317.81C161.74,-265.36 213.11,-147.73 301.52,-98.81 359.05,-66.97 742.58,-62.32 978.79,-62.56"/>
<polygon fill="#63b8ff" stroke="#63b8ff" points="978.76,-66.06 988.76,-62.57 978.77,-59.06 978.76,-66.06"/>
</a>
</g>
</g>
<!-- Node28 -->
<g id="Node000028" class="node">
<title>Node28</title>
<g id="a_Node000028"><a xlink:href="classcom_1_1runehive_1_1content_1_1dialogue_1_1_dialogue_factory.html#af9f2ccdd07b0e88b0e7c40192a9afa07" target="_top" xlink:title="Appends the OptionDialogue onto the current dialogue chain.">
<ellipse fill="white" stroke="#666666" cx="477.23" cy="-483.81" rx="129.05" ry="25.81"/>
<text xml:space="preserve" text-anchor="start" x="393.98" y="-486.66" font-family="Helvetica,sans-Serif" font-size="12.00">com.runehive.content.dialogue.</text>
<text xml:space="preserve" text-anchor="middle" x="477.23" y="-472.41" font-family="Helvetica,sans-Serif" font-size="12.00">DialogueFactory.sendOption</text>
</a>
</g>
</g>
<!-- Node1&#45;&gt;Node28 -->
<g id="edge31_Node000001_Node000028" class="edge">
<title>Node1&#45;&gt;Node28</title>
<g id="a_edge31_Node000001_Node000028"><a xlink:title=" ">
<path fill="none" stroke="#63b8ff" d="M166.2,-369.14C198.66,-393.23 250.91,-428.69 301.52,-448.81 319.75,-456.06 339.66,-461.86 359.31,-466.49"/>
<polygon fill="#63b8ff" stroke="#63b8ff" points="358.51,-469.9 369.04,-468.68 360.05,-463.07 358.51,-469.9"/>
</a>
</g>
</g>
<!-- Node30 -->
<g id="Node000030" class="node">
<title>Node30</title>
<g id="a_Node000030"><a xlink:href="classcom_1_1runehive_1_1content_1_1store_1_1_store_item.html#acacaac104472fe6ae2037dc3761a33d6" target="_top" xlink:title=" ">
<ellipse fill="white" stroke="#666666" cx="477.23" cy="-25.81" rx="114.73" ry="25.81"/>
<text xml:space="preserve" text-anchor="start" x="404.11" y="-28.66" font-family="Helvetica,sans-Serif" font-size="12.00">com.runehive.content.store.</text>
<text xml:space="preserve" text-anchor="middle" x="477.23" y="-14.41" font-family="Helvetica,sans-Serif" font-size="12.00">StoreItem.setShopValue</text>
</a>
</g>
</g>
<!-- Node1&#45;&gt;Node30 -->
<g id="edge35_Node000001_Node000030" class="edge">
<title>Node1&#45;&gt;Node30</title>
<g id="a_edge35_Node000001_Node000030"><a xlink:title=" ">
<path fill="none" stroke="#63b8ff" d="M141.63,-317.96C159.94,-262.42 210.87,-131.41 301.52,-65.81 318.8,-53.3 339.35,-44.63 360.19,-38.63"/>
<polygon fill="#63b8ff" stroke="#63b8ff" points="360.87,-42.07 369.63,-36.11 359.07,-35.3 360.87,-42.07"/>
</a>
</g>
</g>
<!-- Node3 -->
<g id="Node000003" class="node">
<title>Node3</title>
<g id="a_Node000003"><a xlink:href="classcom_1_1runehive_1_1content_1_1dialogue_1_1_dialogue_factory.html#a6ce434d7d06968060ccb0f0a624358ee" target="_top" xlink:title=" ">
<ellipse fill="white" stroke="#666666" cx="821.71" cy="-699.81" rx="129.05" ry="25.81"/>
<text xml:space="preserve" text-anchor="start" x="738.46" y="-702.66" font-family="Helvetica,sans-Serif" font-size="12.00">com.runehive.content.dialogue.</text>
<text xml:space="preserve" text-anchor="middle" x="821.71" y="-688.41" font-family="Helvetica,sans-Serif" font-size="12.00">DialogueFactory.setActive</text>
</a>
</g>
</g>
<!-- Node2&#45;&gt;Node3 -->
<g id="edge2_Node000002_Node000003" class="edge">
<title>Node2&#45;&gt;Node3</title>
<g id="a_edge2_Node000002_Node000003"><a xlink:title=" ">
<path fill="none" stroke="#63b8ff" d="M605.27,-694.15C630.31,-694.81 656.7,-695.5 682.1,-696.17"/>
<polygon fill="#63b8ff" stroke="#63b8ff" points="681.7,-699.66 691.79,-696.42 681.89,-692.66 681.7,-699.66"/>
</a>
</g>
</g>
<!-- Node4&#45;&gt;Node3 -->
<g id="edge7_Node000004_Node000003" class="edge">
<title>Node4&#45;&gt;Node3</title>
<g id="a_edge7_Node000004_Node000003"><a xlink:title=" ">
<path fill="none" stroke="#63b8ff" d="M552.55,-623.07C606.31,-638.46 679.08,-659.28 735.25,-675.35"/>
<polygon fill="#63b8ff" stroke="#63b8ff" points="734.22,-678.7 744.79,-678.09 736.14,-671.97 734.22,-678.7"/>
</a>
</g>
</g>
<!-- Node5 -->
<g id="Node000005" class="node">
<title>Node5</title>
<g id="a_Node000005"><a xlink:href="classcom_1_1runehive_1_1content_1_1dialogue_1_1_dialogue_factory.html#aec64ffdeed4c31dfe340a41430f50892" target="_top" xlink:title="Creates a new DialogueFactory.">
<ellipse fill="white" stroke="#666666" cx="1166.19" cy="-556.81" rx="138.06" ry="25.81"/>
<text xml:space="preserve" text-anchor="start" x="1076.56" y="-559.66" font-family="Helvetica,sans-Serif" font-size="12.00">com.runehive.content.dialogue.</text>
<text xml:space="preserve" text-anchor="middle" x="1166.19" y="-545.41" font-family="Helvetica,sans-Serif" font-size="12.00">DialogueFactory.DialogueFactory</text>
</a>
</g>
</g>
<!-- Node4&#45;&gt;Node5 -->
<g id="edge4_Node000004_Node000005" class="edge">
<title>Node4&#45;&gt;Node5</title>
<g id="a_edge4_Node000004_Node000005"><a xlink:title=" ">
<path fill="none" stroke="#63b8ff" d="M575.57,-618.91C672.28,-633.09 824.52,-647.83 954.47,-626.81 1004.25,-618.76 1058.17,-600.66 1099.01,-584.88"/>
<polygon fill="#63b8ff" stroke="#63b8ff" points="1100.19,-588.18 1108.22,-581.27 1097.63,-581.66 1100.19,-588.18"/>
</a>
</g>
</g>
<!-- Node6 -->
<g id="Node000006" class="node">
<title>Node6</title>
<g id="a_Node000006"><a xlink:href="classcom_1_1runehive_1_1content_1_1dialogue_1_1_dialogue_factory.html#a5f56390c19e58a8e3390f46449e6c6cf" target="_top" xlink:title="Gets the current chain.">
<ellipse fill="white" stroke="#666666" cx="821.71" cy="-591.81" rx="129.05" ry="25.81"/>
<text xml:space="preserve" text-anchor="start" x="738.46" y="-594.66" font-family="Helvetica,sans-Serif" font-size="12.00">com.runehive.content.dialogue.</text>
<text xml:space="preserve" text-anchor="middle" x="821.71" y="-580.41" font-family="Helvetica,sans-Serif" font-size="12.00">DialogueFactory.getChain</text>
</a>
</g>
</g>
<!-- Node4&#45;&gt;Node6 -->
<g id="edge5_Node000004_Node000006" class="edge">
<title>Node4&#45;&gt;Node6</title>
<g id="a_edge5_Node000004_Node000006"><a xlink:title=" ">
<path fill="none" stroke="#63b8ff" d="M605.27,-598.1C630.4,-597.37 656.88,-596.59 682.36,-595.85"/>
<polygon fill="#63b8ff" stroke="#63b8ff" points="682.18,-599.36 692.08,-595.57 681.98,-592.36 682.18,-599.36"/>
</a>
</g>
</g>
<!-- Node7 -->
<g id="Node000007" class="node">
<title>Node7</title>
<g id="a_Node000007"><a xlink:href="classcom_1_1runehive_1_1content_1_1dialogue_1_1_dialogue_factory.html#a79b8587c2aac2f5cb6ef6f5e1069ab3f" target="_top" xlink:title="Gets the Optional describing the next action in the dialogue chain.">
<ellipse fill="white" stroke="#666666" cx="821.71" cy="-521.81" rx="129.05" ry="25.81"/>
<text xml:space="preserve" text-anchor="start" x="738.46" y="-524.66" font-family="Helvetica,sans-Serif" font-size="12.00">com.runehive.content.dialogue.</text>
<text xml:space="preserve" text-anchor="middle" x="821.71" y="-510.41" font-family="Helvetica,sans-Serif" font-size="12.00">DialogueFactory.getNextAction</text>
</a>
</g>
</g>
<!-- Node4&#45;&gt;Node7 -->
<g id="edge6_Node000004_Node000007" class="edge">
<title>Node4&#45;&gt;Node7</title>
<g id="a_edge6_Node000004_Node000007"><a xlink:title=" ">
<path fill="none" stroke="#63b8ff" d="M562.45,-582.14C611.72,-570.63 674.07,-556.06 725.17,-544.13"/>
<polygon fill="#63b8ff" stroke="#63b8ff" points="725.81,-547.57 734.75,-541.89 724.22,-540.76 725.81,-547.57"/>
</a>
</g>
</g>
<!-- Node8 -->
<g id="Node000008" class="node">
<title>Node8</title>
<g id="a_Node000008"><a xlink:href="classcom_1_1runehive_1_1content_1_1dialogue_1_1_dialogue_factory.html#a0b658967f161f2b4d870c947ae7851cb" target="_top" xlink:title="Sets the next action in the dialogue chain.">
<ellipse fill="white" stroke="#666666" cx="821.71" cy="-769.81" rx="129.05" ry="25.81"/>
<text xml:space="preserve" text-anchor="start" x="738.46" y="-772.66" font-family="Helvetica,sans-Serif" font-size="12.00">com.runehive.content.dialogue.</text>
<text xml:space="preserve" text-anchor="middle" x="821.71" y="-758.41" font-family="Helvetica,sans-Serif" font-size="12.00">DialogueFactory.setNextAction</text>
</a>
</g>
</g>
<!-- Node4&#45;&gt;Node8 -->
<g id="edge8_Node000004_Node000008" class="edge">
<title>Node4&#45;&gt;Node8</title>
<g id="a_edge8_Node000004_Node000008"><a xlink:title=" ">
<path fill="none" stroke="#63b8ff" d="M579.93,-617.76C606.01,-625.76 632.45,-637.78 652.95,-655.81 681.92,-681.29 659.47,-709.91 688.95,-734.81 695.43,-740.28 702.67,-744.9 710.33,-748.81"/>
<polygon fill="#63b8ff" stroke="#63b8ff" points="708.71,-751.91 719.25,-752.91 711.63,-745.56 708.71,-751.91"/>
</a>
</g>
</g>
<!-- Node11 -->
<g id="Node000011" class="node">
<title>Node11</title>
<g id="a_Node000011"><a xlink:href="classcom_1_1runehive_1_1game_1_1world_1_1items_1_1_item.html#a5008cb760d4d688a1731e0406d29c335" target="_top" xlink:title="Gets the item definition for the item identifier.">
<ellipse fill="white" stroke="#666666" cx="821.71" cy="-343.81" rx="132.76" ry="25.81"/>
<text xml:space="preserve" text-anchor="start" x="735.83" y="-346.66" font-family="Helvetica,sans-Serif" font-size="12.00">com.runehive.game.world.items.</text>
<text xml:space="preserve" text-anchor="middle" x="821.71" y="-332.41" font-family="Helvetica,sans-Serif" font-size="12.00">Item.getDefinition</text>
</a>
</g>
</g>
<!-- Node10&#45;&gt;Node11 -->
<g id="edge11_Node000010_Node000011" class="edge">
<title>Node10&#45;&gt;Node11</title>
<g id="a_edge11_Node000010_Node000011"><a xlink:title=" ">
<path fill="none" stroke="#63b8ff" d="M610.15,-343.81C632.16,-343.81 655.08,-343.81 677.35,-343.81"/>
<polygon fill="#63b8ff" stroke="#63b8ff" points="677.06,-347.31 687.06,-343.81 677.06,-340.31 677.06,-347.31"/>
</a>
</g>
</g>
<!-- Node14 -->
<g id="Node000014" class="node">
<title>Node14</title>
<g id="a_Node000014"><a xlink:href="classcom_1_1runehive_1_1game_1_1world_1_1items_1_1_item_definition.html#aa9479e24430ebdd5855705e1177346b4" target="_top" xlink:title="Gets the item name.">
<ellipse fill="white" stroke="#666666" cx="821.71" cy="-273.81" rx="132.76" ry="25.81"/>
<text xml:space="preserve" text-anchor="start" x="735.83" y="-276.66" font-family="Helvetica,sans-Serif" font-size="12.00">com.runehive.game.world.items.</text>
<text xml:space="preserve" text-anchor="middle" x="821.71" y="-262.41" font-family="Helvetica,sans-Serif" font-size="12.00">ItemDefinition.getName</text>
</a>
</g>
</g>
<!-- Node10&#45;&gt;Node14 -->
<g id="edge14_Node000010_Node000014" class="edge">
<title>Node10&#45;&gt;Node14</title>
<g id="a_edge14_Node000010_Node000014"><a xlink:title=" ">
<path fill="none" stroke="#63b8ff" d="M571.2,-325.33C597.63,-320.04 626.43,-314.23 652.95,-308.81 674.3,-304.44 697.16,-299.71 718.92,-295.18"/>
<polygon fill="#63b8ff" stroke="#63b8ff" points="719.63,-298.61 728.71,-293.14 718.21,-291.76 719.63,-298.61"/>
</a>
</g>
</g>
<!-- Node12 -->
<g id="Node000012" class="node">
<title>Node12</title>
<g id="a_Node000012"><a xlink:href="classcom_1_1runehive_1_1game_1_1world_1_1items_1_1_item_definition.html#a50e4924075ee157cd3f75a8107a595fa" target="_top" xlink:title="Gets an item definition.">
<ellipse fill="white" stroke="#666666" cx="1166.19" cy="-343.81" rx="132.76" ry="25.81"/>
<text xml:space="preserve" text-anchor="start" x="1080.31" y="-346.66" font-family="Helvetica,sans-Serif" font-size="12.00">com.runehive.game.world.items.</text>
<text xml:space="preserve" text-anchor="middle" x="1166.19" y="-332.41" font-family="Helvetica,sans-Serif" font-size="12.00">ItemDefinition.get</text>
</a>
</g>
</g>
<!-- Node11&#45;&gt;Node12 -->
<g id="edge12_Node000011_Node000012" class="edge">
<title>Node11&#45;&gt;Node12</title>
<g id="a_edge12_Node000011_Node000012"><a xlink:title=" ">
<path fill="none" stroke="#63b8ff" d="M954.63,-343.81C976.63,-343.81 999.55,-343.81 1021.82,-343.81"/>
<polygon fill="#63b8ff" stroke="#63b8ff" points="1021.54,-347.31 1031.54,-343.81 1021.54,-340.31 1021.54,-347.31"/>
</a>
</g>
</g>
<!-- Node13 -->
<g id="Node000013" class="node">
<title>Node13</title>
<g id="a_Node000013"><a xlink:href="classcom_1_1runehive_1_1game_1_1world_1_1items_1_1_item_definition.html#a4fafaf641c0490165d697a73006e76bf" target="_top" xlink:title=" ">
<ellipse fill="white" stroke="#666666" cx="1553.62" cy="-343.81" rx="132.76" ry="25.81"/>
<text xml:space="preserve" text-anchor="start" x="1467.74" y="-346.66" font-family="Helvetica,sans-Serif" font-size="12.00">com.runehive.game.world.items.</text>
<text xml:space="preserve" text-anchor="middle" x="1553.62" y="-332.41" font-family="Helvetica,sans-Serif" font-size="12.00">ItemDefinition.ItemDefinition</text>
</a>
</g>
</g>
<!-- Node12&#45;&gt;Node13 -->
<g id="edge13_Node000012_Node000013" class="edge">
<title>Node12&#45;&gt;Node13</title>
<g id="a_edge13_Node000012_Node000013"><a xlink:title=" ">
<path fill="none" stroke="#63b8ff" d="M1299.29,-343.81C1334.74,-343.81 1373.23,-343.81 1409.26,-343.81"/>
<polygon fill="#63b8ff" stroke="#63b8ff" points="1408.84,-347.31 1418.84,-343.81 1408.84,-340.31 1408.84,-347.31"/>
</a>
</g>
</g>
<!-- Node17&#45;&gt;Node5 -->
<g id="edge18_Node000017_Node000005" class="edge">
<title>Node17&#45;&gt;Node5</title>
<g id="a_edge18_Node000017_Node000005"><a xlink:title=" ">
<path fill="none" stroke="#63b8ff" d="M540.28,-792.77C634.6,-823.74 817.53,-868.15 954.47,-804.81 1049.57,-760.82 1117.47,-650.41 1147.67,-592.9"/>
<polygon fill="#63b8ff" stroke="#63b8ff" points="1150.7,-594.65 1152.17,-584.16 1144.48,-591.44 1150.7,-594.65"/>
</a>
</g>
</g>
<!-- Node17&#45;&gt;Node8 -->
<g id="edge19_Node000017_Node000008" class="edge">
<title>Node17&#45;&gt;Node8</title>
<g id="a_edge19_Node000017_Node000008"><a xlink:title=" ">
<path fill="none" stroke="#63b8ff" d="M606.73,-769.81C631.01,-769.81 656.51,-769.81 681.11,-769.81"/>
<polygon fill="#63b8ff" stroke="#63b8ff" points="680.83,-773.31 690.83,-769.81 680.83,-766.31 680.83,-773.31"/>
</a>
</g>
</g>
<!-- Node19 -->
<g id="Node000019" class="node">
<title>Node19</title>
<g id="a_Node000019"><a xlink:href="classcom_1_1runehive_1_1content_1_1store_1_1impl_1_1_personal_store.html#a39b3b572c11f930476fa2a531a00be02" target="_top" xlink:title=" ">
<ellipse fill="white" stroke="#666666" cx="821.71" cy="-133.81" rx="132.76" ry="25.81"/>
<text xml:space="preserve" text-anchor="start" x="735.83" y="-136.66" font-family="Helvetica,sans-Serif" font-size="12.00">com.runehive.content.store.impl.</text>
<text xml:space="preserve" text-anchor="middle" x="821.71" y="-122.41" font-family="Helvetica,sans-Serif" font-size="12.00">PersonalStore.open</text>
</a>
</g>
</g>
<!-- Node18&#45;&gt;Node19 -->
<g id="edge21_Node000018_Node000019" class="edge">
<title>Node18&#45;&gt;Node19</title>
<g id="a_edge21_Node000018_Node000019"><a xlink:title=" ">
<path fill="none" stroke="#63b8ff" d="M610.15,-133.81C632.16,-133.81 655.08,-133.81 677.35,-133.81"/>
<polygon fill="#63b8ff" stroke="#63b8ff" points="677.06,-137.31 687.06,-133.81 677.06,-130.31 677.06,-137.31"/>
</a>
</g>
</g>
<!-- Node20 -->
<g id="Node000020" class="node">
<title>Node20</title>
<g id="a_Node000020"><a xlink:href="classcom_1_1runehive_1_1game_1_1world_1_1entity_1_1mob_1_1player_1_1_interface_manager.html#ac6e976efae9a7322b0f287633afb0468" target="_top" xlink:title="Opens an inventory interface for the player.">
<ellipse fill="white" stroke="#666666" cx="1166.19" cy="-273.81" rx="175.72" ry="25.81"/>
<text xml:space="preserve" text-anchor="start" x="1049.94" y="-276.66" font-family="Helvetica,sans-Serif" font-size="12.00">com.runehive.game.world.entity.mob.player.</text>
<text xml:space="preserve" text-anchor="middle" x="1166.19" y="-262.41" font-family="Helvetica,sans-Serif" font-size="12.00">InterfaceManager.openInventory</text>
</a>
</g>
</g>
<!-- Node19&#45;&gt;Node20 -->
<g id="edge22_Node000019_Node000020" class="edge">
<title>Node19&#45;&gt;Node20</title>
<g id="a_edge22_Node000019_Node000020"><a xlink:title=" ">
<path fill="none" stroke="#63b8ff" d="M855.16,-159.14C887.61,-183.23 939.86,-218.69 990.47,-238.81 1003.64,-244.05 1017.69,-248.53 1031.89,-252.36"/>
<polygon fill="#63b8ff" stroke="#63b8ff" points="1030.74,-255.68 1041.3,-254.79 1032.49,-248.9 1030.74,-255.68"/>
</a>
</g>
</g>
<!-- Node19&#45;&gt;Node22 -->
<g id="edge24_Node000019_Node000022" class="edge">
<title>Node19&#45;&gt;Node22</title>
<g id="a_edge24_Node000019_Node000022"><a xlink:title=" ">
<path fill="none" stroke="#63b8ff" d="M913.23,-114.79C938.24,-109.57 965.4,-103.94 990.47,-98.81 1009.31,-94.96 1029.29,-90.91 1048.76,-87"/>
<polygon fill="#63b8ff" stroke="#63b8ff" points="1049.23,-90.47 1058.35,-85.07 1047.86,-83.61 1049.23,-90.47"/>
</a>
</g>
</g>
<!-- Node26 -->
<g id="Node000026" class="node">
<title>Node26</title>
<g id="a_Node000026"><a xlink:href="classcom_1_1runehive_1_1util_1_1generic_1_1_generic_attributes.html#ad348af5884f1b6ba48601a85e91a85ec" target="_top" xlink:title="Sets a generic attribute.">
<ellipse fill="white" stroke="#666666" cx="1166.19" cy="-203.81" rx="107.83" ry="25.81"/>
<text xml:space="preserve" text-anchor="start" x="1097.94" y="-206.66" font-family="Helvetica,sans-Serif" font-size="12.00">com.runehive.util.generic.</text>
<text xml:space="preserve" text-anchor="middle" x="1166.19" y="-192.41" font-family="Helvetica,sans-Serif" font-size="12.00">GenericAttributes.set</text>
</a>
</g>
</g>
<!-- Node19&#45;&gt;Node26 -->
<g id="edge28_Node000019_Node000026" class="edge">
<title>Node19&#45;&gt;Node26</title>
<g id="a_edge28_Node000019_Node000026"><a xlink:title=" ">
<path fill="none" stroke="#63b8ff" d="M913.23,-152.83C938.24,-158.05 965.4,-163.68 990.47,-168.81 1016.59,-174.15 1044.93,-179.86 1071.03,-185.09"/>
<polygon fill="#63b8ff" stroke="#63b8ff" points="1070.09,-188.47 1080.58,-187 1071.46,-181.61 1070.09,-188.47"/>
</a>
</g>
</g>
<!-- Node27 -->
<g id="Node000027" class="node">
<title>Node27</title>
<g id="a_Node000027"><a xlink:href="classcom_1_1runehive_1_1game_1_1world_1_1items_1_1containers_1_1_item_container.html#af80028a0ce5f11042f30e0ff42e19f39" target="_top" xlink:title="Returns a shallow copy of the backing array.">
<ellipse fill="white" stroke="#666666" cx="1166.19" cy="-133.81" rx="174.13" ry="25.81"/>
<text xml:space="preserve" text-anchor="start" x="1051.06" y="-136.66" font-family="Helvetica,sans-Serif" font-size="12.00">com.runehive.game.world.items.containers.</text>
<text xml:space="preserve" text-anchor="middle" x="1166.19" y="-122.41" font-family="Helvetica,sans-Serif" font-size="12.00">ItemContainer.toArray</text>
</a>
</g>
</g>
<!-- Node19&#45;&gt;Node27 -->
<g id="edge29_Node000019_Node000027" class="edge">
<title>Node19&#45;&gt;Node27</title>
<g id="a_edge29_Node000019_Node000027"><a xlink:title=" ">
<path fill="none" stroke="#63b8ff" d="M954.63,-133.81C963.08,-133.81 971.67,-133.81 980.3,-133.81"/>
<polygon fill="#63b8ff" stroke="#63b8ff" points="980.15,-137.31 990.15,-133.81 980.15,-130.31 980.15,-137.31"/>
</a>
</g>
</g>
<!-- Node21 -->
<g id="Node000021" class="node">
<title>Node21</title>
<g id="a_Node000021"><a xlink:href="classcom_1_1runehive_1_1game_1_1world_1_1entity_1_1mob_1_1player_1_1_interface_manager.html#af40e8a0bcc4d180ae388f31cfb94908e" target="_top" xlink:title=" ">
<ellipse fill="white" stroke="#666666" cx="1553.62" cy="-273.81" rx="175.72" ry="25.81"/>
<text xml:space="preserve" text-anchor="start" x="1437.37" y="-276.66" font-family="Helvetica,sans-Serif" font-size="12.00">com.runehive.game.world.entity.mob.player.</text>
<text xml:space="preserve" text-anchor="middle" x="1553.62" y="-262.41" font-family="Helvetica,sans-Serif" font-size="12.00">InterfaceManager.setSidebar</text>
</a>
</g>
</g>
<!-- Node20&#45;&gt;Node21 -->
<g id="edge23_Node000020_Node000021" class="edge">
<title>Node20&#45;&gt;Node21</title>
<g id="a_edge23_Node000020_Node000021"><a xlink:title=" ">
<path fill="none" stroke="#63b8ff" d="M1342.14,-273.81C1350.12,-273.81 1358.14,-273.81 1366.15,-273.81"/>
<polygon fill="#63b8ff" stroke="#63b8ff" points="1365.94,-277.31 1375.94,-273.81 1365.94,-270.31 1365.94,-277.31"/>
</a>
</g>
</g>
<!-- Node23 -->
<g id="Node000023" class="node">
<title>Node23</title>
<g id="a_Node000023"><a xlink:href="classcom_1_1runehive_1_1net_1_1packet_1_1_outgoing_packet.html#a3dde4d77b8c8bbd686b8e121fd6514a7" target="_top" xlink:title=" ">
<ellipse fill="white" stroke="#666666" cx="1553.62" cy="-63.81" rx="105.18" ry="25.81"/>
<text xml:space="preserve" text-anchor="start" x="1487.24" y="-66.66" font-family="Helvetica,sans-Serif" font-size="12.00">com.runehive.net.packet.</text>
<text xml:space="preserve" text-anchor="middle" x="1553.62" y="-52.41" font-family="Helvetica,sans-Serif" font-size="12.00">OutgoingPacket.execute</text>
</a>
</g>
</g>
<!-- Node22&#45;&gt;Node23 -->
<g id="edge25_Node000022_Node000023" class="edge">
<title>Node22&#45;&gt;Node23</title>
<g id="a_edge25_Node000022_Node000023"><a xlink:title=" ">
<path fill="none" stroke="#63b8ff" d="M1342.14,-63.81C1374.26,-63.81 1407.04,-63.81 1436.88,-63.81"/>
<polygon fill="#63b8ff" stroke="#63b8ff" points="1436.65,-67.31 1446.65,-63.81 1436.65,-60.31 1436.65,-67.31"/>
</a>
</g>
</g>
<!-- Node24 -->
<g id="Node000024" class="node">
<title>Node24</title>
<g id="a_Node000024"><a xlink:href="classcom_1_1runehive_1_1net_1_1packet_1_1_outgoing_packet.html#a74fc13c106ab76f87daec1e8bab6a2a1" target="_top" xlink:title=" ">
<ellipse fill="white" stroke="#666666" cx="1941.05" cy="-98.81" rx="105.18" ry="25.81"/>
<text xml:space="preserve" text-anchor="start" x="1874.67" y="-101.66" font-family="Helvetica,sans-Serif" font-size="12.00">com.runehive.net.packet.</text>
<text xml:space="preserve" text-anchor="middle" x="1941.05" y="-87.41" font-family="Helvetica,sans-Serif" font-size="12.00">OutgoingPacket.encode</text>
</a>
</g>
</g>
<!-- Node23&#45;&gt;Node24 -->
<g id="edge26_Node000023_Node000024" class="edge">
<title>Node23&#45;&gt;Node24</title>
<g id="a_edge26_Node000023_Node000024"><a xlink:title=" ">
<path fill="none" stroke="#63b8ff" d="M1652.88,-72.73C1707.13,-77.66 1774.65,-83.79 1830.58,-88.87"/>
<polygon fill="#63b8ff" stroke="#63b8ff" points="1830.19,-92.35 1840.46,-89.77 1830.82,-85.38 1830.19,-92.35"/>
</a>
</g>
</g>
<!-- Node25 -->
<g id="Node000025" class="node">
<title>Node25</title>
<g id="a_Node000025"><a xlink:href="classcom_1_1runehive_1_1game_1_1world_1_1entity_1_1mob_1_1player_1_1_player.html#a908fb61974719a74180d6300b838bfe1" target="_top" xlink:title=" ">
<ellipse fill="white" stroke="#666666" cx="1941.05" cy="-28.81" rx="175.72" ry="25.81"/>
<text xml:space="preserve" text-anchor="start" x="1824.8" y="-31.66" font-family="Helvetica,sans-Serif" font-size="12.00">com.runehive.game.world.entity.mob.player.</text>
<text xml:space="preserve" text-anchor="middle" x="1941.05" y="-17.41" font-family="Helvetica,sans-Serif" font-size="12.00">Player.getSession</text>
</a>
</g>
</g>
<!-- Node23&#45;&gt;Node25 -->
<g id="edge27_Node000023_Node000025" class="edge">
<title>Node23&#45;&gt;Node25</title>
<g id="a_edge27_Node000023_Node000025"><a xlink:title=" ">
<path fill="none" stroke="#63b8ff" d="M1652.88,-54.89C1691.16,-51.41 1736.06,-47.33 1778.82,-43.45"/>
<polygon fill="#63b8ff" stroke="#63b8ff" points="1779.08,-46.94 1788.72,-42.55 1778.45,-39.97 1779.08,-46.94"/>
</a>
</g>
</g>
<!-- Node28&#45;&gt;Node5 -->
<g id="edge34_Node000028_Node000005" class="edge">
<title>Node28&#45;&gt;Node5</title>
<g id="a_edge34_Node000028_Node000005"><a xlink:title=" ">
<path fill="none" stroke="#63b8ff" d="M597.52,-474.27C694.37,-468.99 834.14,-466.96 954.47,-486.81 1004.22,-495.02 1058.15,-513.11 1098.99,-528.85"/>
<polygon fill="#63b8ff" stroke="#63b8ff" points="1097.62,-532.07 1108.2,-532.45 1100.17,-525.55 1097.62,-532.07"/>
</a>
</g>
</g>
<!-- Node29 -->
<g id="Node000029" class="node">
<title>Node29</title>
<g id="a_Node000029"><a xlink:href="classcom_1_1runehive_1_1content_1_1dialogue_1_1_dialogue_factory.html#a8979431ba1fa2913a9ed65bbf8e4dd3f" target="_top" xlink:title="Appends a chain to this factory.">
<ellipse fill="white" stroke="#666666" cx="821.71" cy="-413.81" rx="129.05" ry="25.81"/>
<text xml:space="preserve" text-anchor="start" x="738.46" y="-416.66" font-family="Helvetica,sans-Serif" font-size="12.00">com.runehive.content.dialogue.</text>
<text xml:space="preserve" text-anchor="middle" x="821.71" y="-402.41" font-family="Helvetica,sans-Serif" font-size="12.00">DialogueFactory.append</text>
</a>
</g>
</g>
<!-- Node28&#45;&gt;Node29 -->
<g id="edge32_Node000028_Node000029" class="edge">
<title>Node28&#45;&gt;Node29</title>
<g id="a_edge32_Node000028_Node000029"><a xlink:title=" ">
<path fill="none" stroke="#63b8ff" d="M570.3,-465.51C596.97,-460.17 626.13,-454.29 652.95,-448.81 674.77,-444.35 698.17,-439.5 720.37,-434.88"/>
<polygon fill="#63b8ff" stroke="#63b8ff" points="720.94,-438.34 730.02,-432.87 719.51,-431.48 720.94,-438.34"/>
</a>
</g>
</g>
<!-- Node29&#45;&gt;Node5 -->
<g id="edge33_Node000029_Node000005" class="edge">
<title>Node29&#45;&gt;Node5</title>
<g id="a_edge33_Node000029_Node000005"><a xlink:title=" ">
<path fill="none" stroke="#63b8ff" d="M899.37,-434.82C917.62,-440.44 936.89,-446.9 954.47,-453.81 1008.73,-475.15 1068.22,-504.84 1110.11,-526.87"/>
<polygon fill="#63b8ff" stroke="#63b8ff" points="1108.28,-529.86 1118.76,-531.44 1111.55,-523.67 1108.28,-529.86"/>
</a>
</g>
</g>
</g>
</svg>
