<?xml version="1.0" encoding="UTF-8" standalone="no"?>
<!DOCTYPE svg PUBLIC "-//W3C//DTD SVG 1.1//EN"
 "http://www.w3.org/Graphics/SVG/1.1/DTD/svg11.dtd">
<!-- Generated by graphviz version 14.0.1 (20251006.0113)
 -->
<!-- Title: com.runehive.RuneHive.main Pages: 1 -->
<!--zoomable 320 -->

<svg id="main" version="1.1" xmlns="http://www.w3.org/2000/svg" xmlns:xlink="http://www.w3.org/1999/xlink" xml:space="preserve" onload="init(evt)">

<style type="text/css"><![CDATA[
.node, .edge {opacity: 0.7;}
.node.selected, .edge.selected {opacity: 1;}
.edge:hover path { stroke: red; }
.edge:hover polygon { stroke: red; fill: red; }
]]></style>

<defs>
  <circle id="rim" cx="0" cy="0" r="7"/>
  <circle id="rim2" cx="0" cy="0" r="3.5"/>
  <g id="zoomPlus">
    <use xlink:href="#rim" fill="#404040"><set attributeName="fill" to="#808080" begin="zoomplus.mouseover" end="zoomplus.mouseout"/></use>
    <path d="M-4,0h8M0,-4v8" fill="none" stroke="white" stroke-width="1.5" pointer-events="none"/>
  </g>
  <g id="zoomMin">
    <use xlink:href="#rim" fill="#404040"><set attributeName="fill" to="#808080" begin="zoomminus.mouseover" end="zoomminus.mouseout"/></use>
    <path d="M-4,0h8" fill="none" stroke="white" stroke-width="1.5" pointer-events="none"/>
  </g>
  <g id="arrowUp" transform="translate(30 24)">
    <use xlink:href="#rim"/>
    <path pointer-events="none" fill="none" stroke="white" stroke-width="1.5" d="M0,-3.0v7 M-2.5,-0.5L0,-3.0L2.5,-0.5"/>
  </g>
  <g id="arrowRight" transform="rotate(90) translate(36 -43)">
    <use xlink:href="#rim"/>
    <path pointer-events="none" fill="none" stroke="white" stroke-width="1.5" d="M0,-3.0v7 M-2.5,-0.5L0,-3.0L2.5,-0.5"/>
  </g>
  <g id="arrowDown" transform="rotate(180) translate(-30 -48)">
    <use xlink:href="#rim"/>
    <path pointer-events="none" fill="none" stroke="white" stroke-width="1.5" d="M0,-3.0v7 M-2.5,-0.5L0,-3.0L2.5,-0.5"/>
  </g>
  <g id="arrowLeft" transform="rotate(270) translate(-36 17)">
    <use xlink:href="#rim"/>
    <path pointer-events="none" fill="none" stroke="white" stroke-width="1.5" d="M0,-3.0v7 M-2.5,-0.5L0,-3.0L2.5,-0.5"/>
  </g>
  <g id="resetDef">
    <use xlink:href="#rim2" fill="#404040"><set attributeName="fill" to="#808080" begin="reset.mouseover" end="reset.mouseout"/></use>
  </g>
</defs>
<script type="application/ecmascript">
var viewWidth = 1675;
var viewHeight = 320;
var sectionId = 'dynsection-7';
</script>
<script type="application/ecmascript" xlink:href="svg.min.js"/>
<svg id="graph" class="graph">
<g id="viewport">
<title>com.runehive.RuneHive.main</title>
<!-- Node1 -->
<g id="Node000001" class="node">
<title>Node1</title>
<g id="a_Node000001"><a xlink:title=" ">
<ellipse fill="#999999" stroke="#666666" cx="123.21" cy="-165.81" rx="123.21" ry="15.73"/>
<text xml:space="preserve" text-anchor="middle" x="123.21" y="-161.53" font-family="Helvetica,sans-Serif" font-size="12.00">com.runehive.RuneHive.main</text>
</a>
</g>
</g>
<!-- Node2 -->
<g id="Node000002" class="node">
<title>Node2</title>
<g id="a_Node000002"><a xlink:href="classcom_1_1runehive_1_1game_1_1world_1_1_world.html#aed754a350053923b183118ac9a780a28" target="_top" xlink:title="Saves all the game data.">
<ellipse fill="white" stroke="#666666" cx="392.91" cy="-165.81" rx="110.49" ry="25.81"/>
<text xml:space="preserve" text-anchor="start" x="322.79" y="-168.66" font-family="Helvetica,sans-Serif" font-size="12.00">com.runehive.game.world.</text>
<text xml:space="preserve" text-anchor="middle" x="392.91" y="-154.41" font-family="Helvetica,sans-Serif" font-size="12.00">World.save</text>
</a>
</g>
</g>
<!-- Node1&#45;&gt;Node2 -->
<g id="edge1_Node000001_Node000002" class="edge">
<title>Node1&#45;&gt;Node2</title>
<g id="a_edge1_Node000001_Node000002"><a xlink:title=" ">
<path fill="none" stroke="#63b8ff" d="M246.7,-165.81C254.75,-165.81 262.85,-165.81 270.89,-165.81"/>
<polygon fill="#63b8ff" stroke="#63b8ff" points="270.69,-169.31 280.69,-165.81 270.69,-162.31 270.69,-169.31"/>
</a>
</g>
</g>
<!-- Node3 -->
<g id="Node000003" class="node">
<title>Node3</title>
<g id="a_Node000003"><a xlink:href="classcom_1_1runehive_1_1game_1_1world_1_1entity_1_1mob_1_1player_1_1persist_1_1_player_serializer.html#a3b19efe7bf5d296b921410fd3dcce096" target="_top" xlink:title=" ">
<ellipse fill="white" stroke="#666666" cx="742.16" cy="-285.81" rx="202.76" ry="25.81"/>
<text xml:space="preserve" text-anchor="start" x="606.79" y="-288.66" font-family="Helvetica,sans-Serif" font-size="12.00">com.runehive.game.world.entity.mob.player.persist.</text>
<text xml:space="preserve" text-anchor="middle" x="742.16" y="-274.41" font-family="Helvetica,sans-Serif" font-size="12.00">PlayerSerializer.save</text>
</a>
</g>
</g>
<!-- Node2&#45;&gt;Node3 -->
<g id="edge2_Node000002_Node000003" class="edge">
<title>Node2&#45;&gt;Node3</title>
<g id="a_edge2_Node000002_Node000003"><a xlink:title=" ">
<path fill="none" stroke="#63b8ff" d="M428.32,-190.69C456.75,-210.04 498.87,-236 539.4,-250.81 554.32,-256.26 570.18,-260.88 586.2,-264.78"/>
<polygon fill="#63b8ff" stroke="#63b8ff" points="585.29,-268.16 595.83,-267.03 586.88,-261.35 585.29,-268.16"/>
</a>
</g>
</g>
<!-- Node4 -->
<g id="Node000004" class="node">
<title>Node4</title>
<g id="a_Node000004"><a xlink:href="classcom_1_1runehive_1_1util_1_1_game_saver.html#a4c423861db66e5f3a41973aca3dc46e8" target="_top" xlink:title=" ">
<ellipse fill="white" stroke="#666666" cx="742.16" cy="-225.81" rx="142.31" ry="15.73"/>
<text xml:space="preserve" text-anchor="middle" x="742.16" y="-221.53" font-family="Helvetica,sans-Serif" font-size="12.00">com.runehive.util.GameSaver.save</text>
</a>
</g>
</g>
<!-- Node2&#45;&gt;Node4 -->
<g id="edge3_Node000002_Node000004" class="edge">
<title>Node2&#45;&gt;Node4</title>
<g id="a_edge3_Node000002_Node000004"><a xlink:title=" ">
<path fill="none" stroke="#63b8ff" d="M467.58,-185.24C490.48,-190.82 515.88,-196.54 539.4,-200.81 566.91,-205.81 596.72,-210.11 624.77,-213.66"/>
<polygon fill="#63b8ff" stroke="#63b8ff" points="623.98,-217.09 634.34,-214.85 624.85,-210.14 623.98,-217.09"/>
</a>
</g>
</g>
<!-- Node7 -->
<g id="Node000007" class="node">
<title>Node7</title>
<g id="a_Node000007"><a xlink:href="classcom_1_1runehive_1_1content_1_1clanchannel_1_1_clan_repository.html#a53d0767a1dd64115a7430ace6bf3b188" target="_top" xlink:title=" ">
<ellipse fill="white" stroke="#666666" cx="742.16" cy="-165.81" rx="145.49" ry="25.81"/>
<text xml:space="preserve" text-anchor="start" x="647.29" y="-168.66" font-family="Helvetica,sans-Serif" font-size="12.00">com.runehive.content.clanchannel.</text>
<text xml:space="preserve" text-anchor="middle" x="742.16" y="-154.41" font-family="Helvetica,sans-Serif" font-size="12.00">ClanRepository.saveAllActiveClans</text>
</a>
</g>
</g>
<!-- Node2&#45;&gt;Node7 -->
<g id="edge7_Node000002_Node000007" class="edge">
<title>Node2&#45;&gt;Node7</title>
<g id="a_edge7_Node000002_Node000007"><a xlink:title=" ">
<path fill="none" stroke="#63b8ff" d="M503.78,-165.81C529.63,-165.81 557.66,-165.81 585.11,-165.81"/>
<polygon fill="#63b8ff" stroke="#63b8ff" points="584.9,-169.31 594.9,-165.81 584.9,-162.31 584.9,-169.31"/>
</a>
</g>
</g>
<!-- Node9 -->
<g id="Node000009" class="node">
<title>Node9</title>
<g id="a_Node000009"><a xlink:href="classcom_1_1runehive_1_1content_1_1tradingpost_1_1_trading_post.html#a7e9c408eb74a71f1d396df8f39dad837" target="_top" xlink:title=" ">
<ellipse fill="white" stroke="#666666" cx="742.16" cy="-95.81" rx="138.06" ry="25.81"/>
<text xml:space="preserve" text-anchor="start" x="652.54" y="-98.66" font-family="Helvetica,sans-Serif" font-size="12.00">com.runehive.content.tradingpost.</text>
<text xml:space="preserve" text-anchor="middle" x="742.16" y="-84.41" font-family="Helvetica,sans-Serif" font-size="12.00">TradingPost.saveAllItemHistory</text>
</a>
</g>
</g>
<!-- Node2&#45;&gt;Node9 -->
<g id="edge9_Node000002_Node000009" class="edge">
<title>Node2&#45;&gt;Node9</title>
<g id="a_edge9_Node000002_Node000009"><a xlink:title=" ">
<path fill="none" stroke="#63b8ff" d="M469.21,-146.72C491.72,-141.28 516.5,-135.54 539.4,-130.81 567.06,-125.09 596.99,-119.55 625.11,-114.63"/>
<polygon fill="#63b8ff" stroke="#63b8ff" points="625.45,-118.12 634.71,-112.96 624.26,-111.22 625.45,-118.12"/>
</a>
</g>
</g>
<!-- Node10 -->
<g id="Node000010" class="node">
<title>Node10</title>
<g id="a_Node000010"><a xlink:href="classcom_1_1runehive_1_1content_1_1tradingpost_1_1_trading_post.html#a4f7ad4f762ffa65ceb5154a525bd05ef" target="_top" xlink:title=" ">
<ellipse fill="white" stroke="#666666" cx="742.16" cy="-25.81" rx="138.06" ry="25.81"/>
<text xml:space="preserve" text-anchor="start" x="652.54" y="-28.66" font-family="Helvetica,sans-Serif" font-size="12.00">com.runehive.content.tradingpost.</text>
<text xml:space="preserve" text-anchor="middle" x="742.16" y="-14.41" font-family="Helvetica,sans-Serif" font-size="12.00">TradingPost.saveRecentHistory</text>
</a>
</g>
</g>
<!-- Node2&#45;&gt;Node10 -->
<g id="edge10_Node000002_Node000010" class="edge">
<title>Node2&#45;&gt;Node10</title>
<g id="a_edge10_Node000002_Node000010"><a xlink:title=" ">
<path fill="none" stroke="#63b8ff" d="M420.82,-140.52C448.4,-116.1 493.61,-80.09 539.4,-60.81 560.9,-51.76 584.63,-45.05 608.03,-40.07"/>
<polygon fill="#63b8ff" stroke="#63b8ff" points="608.53,-43.55 617.64,-38.14 607.14,-36.68 608.53,-43.55"/>
</a>
</g>
</g>
<!-- Node5 -->
<g id="Node000005" class="node">
<title>Node5</title>
<g id="a_Node000005"><a xlink:href="classcom_1_1runehive_1_1util_1_1_game_saver.html#a76e8d0845c5f27ace715cecd3a66fa96" target="_top" xlink:title=" ">
<ellipse fill="white" stroke="#666666" cx="1130.12" cy="-225.81" rx="149.2" ry="15.73"/>
<text xml:space="preserve" text-anchor="middle" x="1130.12" y="-221.53" font-family="Helvetica,sans-Serif" font-size="12.00">com.runehive.util.GameSaver.toJson</text>
</a>
</g>
</g>
<!-- Node4&#45;&gt;Node5 -->
<g id="edge4_Node000004_Node000005" class="edge">
<title>Node4&#45;&gt;Node5</title>
<g id="a_edge4_Node000004_Node000005"><a xlink:title=" ">
<path fill="none" stroke="#63b8ff" d="M884.96,-225.81C912.37,-225.81 941.26,-225.81 969.19,-225.81"/>
<polygon fill="#63b8ff" stroke="#63b8ff" points="969.17,-229.31 979.17,-225.81 969.17,-222.31 969.17,-229.31"/>
</a>
</g>
</g>
<!-- Node6 -->
<g id="Node000006" class="node">
<title>Node6</title>
<g id="a_Node000006"><a xlink:href="enumcom_1_1runehive_1_1game_1_1world_1_1entity_1_1mob_1_1player_1_1_player_right.html#aab09dcf8fa6041ddf475dfcc61b2fc15" target="_top" xlink:title="Gets the crown display.">
<ellipse fill="white" stroke="#666666" cx="1491.04" cy="-225.81" rx="175.72" ry="25.81"/>
<text xml:space="preserve" text-anchor="start" x="1374.79" y="-228.66" font-family="Helvetica,sans-Serif" font-size="12.00">com.runehive.game.world.entity.mob.player.</text>
<text xml:space="preserve" text-anchor="middle" x="1491.04" y="-214.41" font-family="Helvetica,sans-Serif" font-size="12.00">PlayerRight.getCrown</text>
</a>
</g>
</g>
<!-- Node5&#45;&gt;Node6 -->
<g id="edge5_Node000005_Node000006" class="edge">
<title>Node5&#45;&gt;Node6</title>
<g id="a_edge5_Node000005_Node000006"><a xlink:title=" ">
<path fill="none" stroke="#63b8ff" d="M1279.7,-225.81C1287.63,-225.81 1295.64,-225.81 1303.67,-225.81"/>
<polygon fill="#63b8ff" stroke="#63b8ff" points="1303.52,-229.31 1313.52,-225.81 1303.52,-222.31 1303.52,-229.31"/>
</a>
</g>
</g>
<!-- Node6&#45;&gt;Node6 -->
<g id="edge6_Node000006_Node000006" class="edge">
<title>Node6&#45;&gt;Node6</title>
<g id="a_edge6_Node000006_Node000006"><a xlink:title=" ">
<path fill="none" stroke="#63b8ff" d="M1424.18,-250.14C1418.7,-260.63 1440.99,-269.62 1491.04,-269.62 1523.1,-269.62 1543.77,-265.93 1553.05,-260.52"/>
<polygon fill="#63b8ff" stroke="#63b8ff" points="1556.19,-262.05 1557.26,-251.51 1549.85,-259.08 1556.19,-262.05"/>
</a>
</g>
</g>
<!-- Node8 -->
<g id="Node000008" class="node">
<title>Node8</title>
<g id="a_Node000008"><a xlink:href="classcom_1_1runehive_1_1content_1_1clanchannel_1_1_clan_repository.html#a2298eec45a8d61bbf90cfe05bf2a561b" target="_top" xlink:title=" ">
<ellipse fill="white" stroke="#666666" cx="1130.12" cy="-165.81" rx="142.31" ry="25.81"/>
<text xml:space="preserve" text-anchor="start" x="1037.5" y="-168.66" font-family="Helvetica,sans-Serif" font-size="12.00">com.runehive.content.clanchannel.</text>
<text xml:space="preserve" text-anchor="middle" x="1130.12" y="-154.41" font-family="Helvetica,sans-Serif" font-size="12.00">ClanRepository.saveClan</text>
</a>
</g>
</g>
<!-- Node7&#45;&gt;Node8 -->
<g id="edge8_Node000007_Node000008" class="edge">
<title>Node7&#45;&gt;Node8</title>
<g id="a_edge8_Node000007_Node000008"><a xlink:title=" ">
<path fill="none" stroke="#63b8ff" d="M887.98,-165.81C916.68,-165.81 946.9,-165.81 975.87,-165.81"/>
<polygon fill="#63b8ff" stroke="#63b8ff" points="975.83,-169.31 985.83,-165.81 975.83,-162.31 975.83,-169.31"/>
</a>
</g>
</g>
</g>
</svg>

<g id="navigator" transform="translate(0 0)" fill="#404254">
  <rect fill="#f2f5e9" fill-opacity="0.5" stroke="#606060" stroke-width=".5" x="0" y="0" width="60" height="60"/>
  <use id="zoomplus" xlink:href="#zoomPlus" x="17" y="9" onmousedown="handleZoom(evt,'in')"/>
  <use id="zoomminus" xlink:href="#zoomMin" x="42" y="9" onmousedown="handleZoom(evt,'out')"/>
  <use id="reset" xlink:href="#resetDef" x="30" y="36" onmousedown="handleReset()"/>
   <use id="arrowup" xlink:href="#arrowUp" x="0" y="0" onmousedown="handlePan(0,-1)"/>
  <use id="arrowright" xlink:href="#arrowRight" x="0" y="0" onmousedown="handlePan(1,0)"/>
  <use id="arrowdown" xlink:href="#arrowDown" x="0" y="0" onmousedown="handlePan(0,1)"/>
  <use id="arrowleft" xlink:href="#arrowLeft" x="0" y="0" onmousedown="handlePan(-1,0)"/>
</g>
<svg viewBox="0 0 15 15" width="100%" height="30px" preserveAspectRatio="xMaxYMin meet">
 <g id="arrow_out" transform="scale(0.3 0.3)">
  <a xlink:href="classcom_1_1runehive_1_1_rune_hive_ab508238d90a476a62772743ae51d7864_cgraph_org.svg" target="_base">
   <rect id="button" ry="5" rx="5" y="6" x="6" height="38" width="38"
        fill="#f2f5e9" fill-opacity="0.5" stroke="#606060" stroke-width="1.0"/>
   <path id="arrow"
     d="M 11.500037,31.436501 C 11.940474,20.09759 22.043105,11.32322 32.158766,21.979434 L 37.068811,17.246167 C 37.068811,17.246167 37.088388,32 37.088388,32 L 22.160133,31.978069 C 22.160133,31.978069 26.997745,27.140456 26.997745,27.140456 C 18.528582,18.264221 13.291696,25.230495 11.500037,31.436501 z"
     style="fill:#404040;"/>
  </a>
 </g>
</svg>

<style type='text/css'>
<![CDATA[
[data-mouse-over-selected='false'] { opacity: 0.7; }
[data-mouse-over-selected='true']  { opacity: 1.0; }
]]>
</style>
<script type="application/ecmascript"><![CDATA[
document.addEventListener('DOMContentLoaded', (event) => {
  highlightEdges();
  highlightAdjacentNodes();
});
]]></script>
</svg>
