<?xml version="1.0" encoding="UTF-8" standalone="no"?>
<!DOCTYPE svg PUBLIC "-//W3C//DTD SVG 1.1//EN"
 "http://www.w3.org/Graphics/SVG/1.1/DTD/svg11.dtd">
<!-- Generated by graphviz version 14.0.1 (20251006.0113)
 -->
<!-- Title: com.runehive.content.wintertodt.Wintertodt.fletch Pages: 1 -->
<!--zoomable 499 -->

<svg id="main" version="1.1" xmlns="http://www.w3.org/2000/svg" xmlns:xlink="http://www.w3.org/1999/xlink" xml:space="preserve" onload="init(evt)">

<style type="text/css"><![CDATA[
.node, .edge {opacity: 0.7;}
.node.selected, .edge.selected {opacity: 1;}
.edge:hover path { stroke: red; }
.edge:hover polygon { stroke: red; fill: red; }
]]></style>

<defs>
  <circle id="rim" cx="0" cy="0" r="7"/>
  <circle id="rim2" cx="0" cy="0" r="3.5"/>
  <g id="zoomPlus">
    <use xlink:href="#rim" fill="#404040"><set attributeName="fill" to="#808080" begin="zoomplus.mouseover" end="zoomplus.mouseout"/></use>
    <path d="M-4,0h8M0,-4v8" fill="none" stroke="white" stroke-width="1.5" pointer-events="none"/>
  </g>
  <g id="zoomMin">
    <use xlink:href="#rim" fill="#404040"><set attributeName="fill" to="#808080" begin="zoomminus.mouseover" end="zoomminus.mouseout"/></use>
    <path d="M-4,0h8" fill="none" stroke="white" stroke-width="1.5" pointer-events="none"/>
  </g>
  <g id="arrowUp" transform="translate(30 24)">
    <use xlink:href="#rim"/>
    <path pointer-events="none" fill="none" stroke="white" stroke-width="1.5" d="M0,-3.0v7 M-2.5,-0.5L0,-3.0L2.5,-0.5"/>
  </g>
  <g id="arrowRight" transform="rotate(90) translate(36 -43)">
    <use xlink:href="#rim"/>
    <path pointer-events="none" fill="none" stroke="white" stroke-width="1.5" d="M0,-3.0v7 M-2.5,-0.5L0,-3.0L2.5,-0.5"/>
  </g>
  <g id="arrowDown" transform="rotate(180) translate(-30 -48)">
    <use xlink:href="#rim"/>
    <path pointer-events="none" fill="none" stroke="white" stroke-width="1.5" d="M0,-3.0v7 M-2.5,-0.5L0,-3.0L2.5,-0.5"/>
  </g>
  <g id="arrowLeft" transform="rotate(270) translate(-36 17)">
    <use xlink:href="#rim"/>
    <path pointer-events="none" fill="none" stroke="white" stroke-width="1.5" d="M0,-3.0v7 M-2.5,-0.5L0,-3.0L2.5,-0.5"/>
  </g>
  <g id="resetDef">
    <use xlink:href="#rim2" fill="#404040"><set attributeName="fill" to="#808080" begin="reset.mouseover" end="reset.mouseout"/></use>
  </g>
</defs>
<script type="application/ecmascript">
var viewWidth = 1682;
var viewHeight = 499;
var sectionId = 'dynsection-22';
</script>
<script type="application/ecmascript" xlink:href="svg.min.js"/>
<svg id="graph" class="graph">
<g id="viewport">
<title>com.runehive.content.wintertodt.Wintertodt.fletch</title>
<!-- Node1 -->
<g id="Node000001" class="node">
<title>Node1</title>
<g id="a_Node000001"><a xlink:title="Handles fetching the kindling.">
<ellipse fill="#999999" stroke="#666666" cx="132.76" cy="-262.81" rx="132.76" ry="25.81"/>
<text xml:space="preserve" text-anchor="start" x="46.88" y="-265.66" font-family="Helvetica,sans-Serif" font-size="12.00">com.runehive.content.wintertodt.</text>
<text xml:space="preserve" text-anchor="middle" x="132.76" y="-251.41" font-family="Helvetica,sans-Serif" font-size="12.00">Wintertodt.fletch</text>
</a>
</g>
</g>
<!-- Node2 -->
<g id="Node000002" class="node">
<title>Node2</title>
<g id="a_Node000002"><a xlink:href="classcom_1_1runehive_1_1game_1_1world_1_1entity_1_1mob_1_1_mob.html#a763d4a9979297da0ff66b8f4b86fd5bc" target="_top" xlink:title=" ">
<ellipse fill="white" stroke="#666666" cx="477.23" cy="-446.81" rx="150.79" ry="25.81"/>
<text xml:space="preserve" text-anchor="start" x="378.61" y="-449.66" font-family="Helvetica,sans-Serif" font-size="12.00">com.runehive.game.world.entity.mob.</text>
<text xml:space="preserve" text-anchor="middle" x="477.23" y="-435.41" font-family="Helvetica,sans-Serif" font-size="12.00">Mob.animate</text>
</a>
</g>
</g>
<!-- Node1&#45;&gt;Node2 -->
<g id="edge1_Node000001_Node000002" class="edge">
<title>Node1&#45;&gt;Node2</title>
<g id="a_edge1_Node000001_Node000002"><a xlink:title=" ">
<path fill="none" stroke="#63b8ff" d="M154.94,-288.7C184.19,-322.62 240.32,-381.34 301.52,-411.81 315,-418.52 329.67,-423.95 344.6,-428.33"/>
<polygon fill="#63b8ff" stroke="#63b8ff" points="343.46,-431.65 354.03,-430.94 345.33,-424.9 343.46,-431.65"/>
</a>
</g>
</g>
<!-- Node3 -->
<g id="Node000003" class="node">
<title>Node3</title>
<g id="a_Node000003"><a xlink:href="classcom_1_1runehive_1_1game_1_1world_1_1items_1_1containers_1_1_item_container.html#a213c1e964d911374c4b776c4fb741acc" target="_top" xlink:title="Computes the total quantity of the Items in this container with id.">
<ellipse fill="white" stroke="#666666" cx="477.23" cy="-376.81" rx="174.13" ry="25.81"/>
<text xml:space="preserve" text-anchor="start" x="362.11" y="-379.66" font-family="Helvetica,sans-Serif" font-size="12.00">com.runehive.game.world.items.containers.</text>
<text xml:space="preserve" text-anchor="middle" x="477.23" y="-365.41" font-family="Helvetica,sans-Serif" font-size="12.00">ItemContainer.computeAmountForId</text>
</a>
</g>
</g>
<!-- Node1&#45;&gt;Node3 -->
<g id="edge3_Node000001_Node000003" class="edge">
<title>Node1&#45;&gt;Node3</title>
<g id="a_edge3_Node000001_Node000003"><a xlink:title=" ">
<path fill="none" stroke="#63b8ff" d="M178.46,-287.51C211.57,-304.9 258.26,-327.53 301.52,-341.81 316.44,-346.73 332.31,-351.08 348.17,-354.89"/>
<polygon fill="#63b8ff" stroke="#63b8ff" points="347.14,-358.24 357.67,-357.1 348.72,-351.42 347.14,-358.24"/>
</a>
</g>
</g>
<!-- Node4 -->
<g id="Node000004" class="node">
<title>Node4</title>
<g id="a_Node000004"><a xlink:href="classcom_1_1runehive_1_1game_1_1world_1_1items_1_1containers_1_1_item_container.html#a8acf6f1c920076daea6c80e5afbe3404" target="_top" xlink:title="Determines if this container contains id.">
<ellipse fill="white" stroke="#666666" cx="477.23" cy="-306.81" rx="174.13" ry="25.81"/>
<text xml:space="preserve" text-anchor="start" x="362.11" y="-309.66" font-family="Helvetica,sans-Serif" font-size="12.00">com.runehive.game.world.items.containers.</text>
<text xml:space="preserve" text-anchor="middle" x="477.23" y="-295.41" font-family="Helvetica,sans-Serif" font-size="12.00">ItemContainer.contains</text>
</a>
</g>
</g>
<!-- Node1&#45;&gt;Node4 -->
<g id="edge4_Node000001_Node000004" class="edge">
<title>Node1&#45;&gt;Node4</title>
<g id="a_edge4_Node000001_Node000004"><a xlink:title=" ">
<path fill="none" stroke="#63b8ff" d="M244.48,-277.03C272.64,-280.65 303.3,-284.59 332.83,-288.39"/>
<polygon fill="#63b8ff" stroke="#63b8ff" points="332.22,-291.84 342.59,-289.64 333.11,-284.89 332.22,-291.84"/>
</a>
</g>
</g>
<!-- Node5 -->
<g id="Node000005" class="node">
<title>Node5</title>
<g id="a_Node000005"><a xlink:href="classcom_1_1runehive_1_1game_1_1action_1_1_action_manager.html#a9c429bf1d7f162f6c7f8ff0aa4e44d7e" target="_top" xlink:title=" ">
<ellipse fill="white" stroke="#666666" cx="477.23" cy="-218.81" rx="112.61" ry="25.81"/>
<text xml:space="preserve" text-anchor="start" x="405.61" y="-221.66" font-family="Helvetica,sans-Serif" font-size="12.00">com.runehive.game.action.</text>
<text xml:space="preserve" text-anchor="middle" x="477.23" y="-207.41" font-family="Helvetica,sans-Serif" font-size="12.00">ActionManager.execute</text>
</a>
</g>
</g>
<!-- Node1&#45;&gt;Node5 -->
<g id="edge5_Node000001_Node000005" class="edge">
<title>Node1&#45;&gt;Node5</title>
<g id="a_edge5_Node000001_Node000005"><a xlink:title=" ">
<path fill="none" stroke="#63b8ff" d="M244.48,-248.58C283.61,-243.56 327.58,-237.91 366.62,-232.89"/>
<polygon fill="#63b8ff" stroke="#63b8ff" points="367.05,-236.37 376.53,-231.62 366.16,-229.42 367.05,-236.37"/>
</a>
</g>
</g>
<!-- Node6 -->
<g id="Node000006" class="node">
<title>Node6</title>
<g id="a_Node000006"><a xlink:href="classcom_1_1runehive_1_1content_1_1wintertodt_1_1_wintertodt.html#ab3196c67e3725938d95640a96bee2ca4" target="_top" xlink:title=" ">
<ellipse fill="white" stroke="#666666" cx="477.23" cy="-148.81" rx="132.76" ry="25.81"/>
<text xml:space="preserve" text-anchor="start" x="391.36" y="-151.66" font-family="Helvetica,sans-Serif" font-size="12.00">com.runehive.content.wintertodt.</text>
<text xml:space="preserve" text-anchor="middle" x="477.23" y="-137.41" font-family="Helvetica,sans-Serif" font-size="12.00">Wintertodt.isActive</text>
</a>
</g>
</g>
<!-- Node1&#45;&gt;Node6 -->
<g id="edge7_Node000001_Node000006" class="edge">
<title>Node1&#45;&gt;Node6</title>
<g id="a_edge7_Node000001_Node000006"><a xlink:title=" ">
<path fill="none" stroke="#63b8ff" d="M178.46,-238.11C211.57,-220.72 258.26,-198.09 301.52,-183.81 320.73,-177.47 341.52,-172.08 361.84,-167.58"/>
<polygon fill="#63b8ff" stroke="#63b8ff" points="362.54,-171.01 371.59,-165.48 361.07,-164.16 362.54,-171.01"/>
</a>
</g>
</g>
<!-- Node7 -->
<g id="Node000007" class="node">
<title>Node7</title>
<g id="a_Node000007"><a xlink:href="classcom_1_1runehive_1_1game_1_1world_1_1entity_1_1mob_1_1player_1_1_player.html#a330f0b0f76490448f4c6f8e68ea368c5" target="_top" xlink:title=" ">
<ellipse fill="white" stroke="#666666" cx="477.23" cy="-60.81" rx="175.72" ry="25.81"/>
<text xml:space="preserve" text-anchor="start" x="360.98" y="-63.66" font-family="Helvetica,sans-Serif" font-size="12.00">com.runehive.game.world.entity.mob.player.</text>
<text xml:space="preserve" text-anchor="middle" x="477.23" y="-49.41" font-family="Helvetica,sans-Serif" font-size="12.00">Player.message</text>
</a>
</g>
</g>
<!-- Node1&#45;&gt;Node7 -->
<g id="edge8_Node000001_Node000007" class="edge">
<title>Node1&#45;&gt;Node7</title>
<g id="a_edge8_Node000001_Node000007"><a xlink:title=" ">
<path fill="none" stroke="#63b8ff" d="M156.17,-236.93C186.13,-203.86 242.38,-146.92 301.52,-113.81 321.72,-102.5 344.62,-93.33 367.03,-86"/>
<polygon fill="#63b8ff" stroke="#63b8ff" points="368.05,-89.34 376.54,-83 365.95,-82.67 368.05,-89.34"/>
</a>
</g>
</g>
<!-- Node2&#45;&gt;Node2 -->
<g id="edge2_Node000002_Node000002" class="edge">
<title>Node2&#45;&gt;Node2</title>
<g id="a_edge2_Node000002_Node000002"><a xlink:title=" ">
<path fill="none" stroke="#63b8ff" d="M413.92,-470.25C407.02,-481.12 428.12,-490.62 477.23,-490.62 508.7,-490.62 528.67,-486.72 537.14,-481.06"/>
<polygon fill="#63b8ff" stroke="#63b8ff" points="540.43,-482.28 540.09,-471.69 533.75,-480.18 540.43,-482.28"/>
</a>
</g>
</g>
<!-- Node5&#45;&gt;Node5 -->
<g id="edge6_Node000005_Node000005" class="edge">
<title>Node5&#45;&gt;Node5</title>
<g id="a_edge6_Node000005_Node000005"><a xlink:title=" ">
<path fill="none" stroke="#63b8ff" d="M415.31,-240.45C404.79,-252.05 425.43,-262.62 477.23,-262.62 510.83,-262.62 531.32,-258.17 538.7,-251.89"/>
<polygon fill="#63b8ff" stroke="#63b8ff" points="542.2,-252.09 539.1,-241.96 535.2,-251.81 542.2,-252.09"/>
</a>
</g>
</g>
<!-- Node7&#45;&gt;Node7 -->
<g id="edge9_Node000007_Node000007" class="edge">
<title>Node7&#45;&gt;Node7</title>
<g id="a_edge9_Node000007_Node000007"><a xlink:title=" ">
<path fill="none" stroke="#63b8ff" d="M413.42,-85.14C408.19,-95.63 429.47,-104.62 477.23,-104.62 507.84,-104.62 527.56,-100.93 536.42,-95.52"/>
<polygon fill="#63b8ff" stroke="#63b8ff" points="539.56,-97.08 540.43,-86.52 533.16,-94.23 539.56,-97.08"/>
</a>
</g>
</g>
<!-- Node8 -->
<g id="Node000008" class="node">
<title>Node8</title>
<g id="a_Node000008"><a xlink:href="classcom_1_1runehive_1_1game_1_1world_1_1entity_1_1mob_1_1player_1_1_player.html#ab8309e5d532b7540f48bf25f8dea92a8" target="_top" xlink:title=" ">
<ellipse fill="white" stroke="#666666" cx="864.67" cy="-60.81" rx="175.72" ry="25.81"/>
<text xml:space="preserve" text-anchor="start" x="748.42" y="-63.66" font-family="Helvetica,sans-Serif" font-size="12.00">com.runehive.game.world.entity.mob.player.</text>
<text xml:space="preserve" text-anchor="middle" x="864.67" y="-49.41" font-family="Helvetica,sans-Serif" font-size="12.00">Player.send</text>
</a>
</g>
</g>
<!-- Node7&#45;&gt;Node8 -->
<g id="edge10_Node000007_Node000008" class="edge">
<title>Node7&#45;&gt;Node8</title>
<g id="a_edge10_Node000007_Node000008"><a xlink:title=" ">
<path fill="none" stroke="#63b8ff" d="M653.19,-60.81C661.17,-60.81 669.19,-60.81 677.2,-60.81"/>
<polygon fill="#63b8ff" stroke="#63b8ff" points="676.99,-64.31 686.99,-60.81 676.99,-57.31 676.99,-64.31"/>
</a>
</g>
</g>
<!-- Node9 -->
<g id="Node000009" class="node">
<title>Node9</title>
<g id="a_Node000009"><a xlink:href="classcom_1_1runehive_1_1net_1_1packet_1_1_outgoing_packet.html#a3dde4d77b8c8bbd686b8e121fd6514a7" target="_top" xlink:title=" ">
<ellipse fill="white" stroke="#666666" cx="1181.56" cy="-60.81" rx="105.18" ry="25.81"/>
<text xml:space="preserve" text-anchor="start" x="1115.19" y="-63.66" font-family="Helvetica,sans-Serif" font-size="12.00">com.runehive.net.packet.</text>
<text xml:space="preserve" text-anchor="middle" x="1181.56" y="-49.41" font-family="Helvetica,sans-Serif" font-size="12.00">OutgoingPacket.execute</text>
</a>
</g>
</g>
<!-- Node8&#45;&gt;Node9 -->
<g id="edge11_Node000008_Node000009" class="edge">
<title>Node8&#45;&gt;Node9</title>
<g id="a_edge11_Node000008_Node000009"><a xlink:title=" ">
<path fill="none" stroke="#63b8ff" d="M1040.61,-60.81C1048.7,-60.81 1056.72,-60.81 1064.59,-60.81"/>
<polygon fill="#63b8ff" stroke="#63b8ff" points="1064.5,-64.31 1074.5,-60.81 1064.5,-57.31 1064.5,-64.31"/>
</a>
</g>
</g>
<!-- Node10 -->
<g id="Node000010" class="node">
<title>Node10</title>
<g id="a_Node000010"><a xlink:href="classcom_1_1runehive_1_1net_1_1packet_1_1_outgoing_packet.html#a74fc13c106ab76f87daec1e8bab6a2a1" target="_top" xlink:title=" ">
<ellipse fill="white" stroke="#666666" cx="1498.46" cy="-95.81" rx="105.18" ry="25.81"/>
<text xml:space="preserve" text-anchor="start" x="1432.09" y="-98.66" font-family="Helvetica,sans-Serif" font-size="12.00">com.runehive.net.packet.</text>
<text xml:space="preserve" text-anchor="middle" x="1498.46" y="-84.41" font-family="Helvetica,sans-Serif" font-size="12.00">OutgoingPacket.encode</text>
</a>
</g>
</g>
<!-- Node9&#45;&gt;Node10 -->
<g id="edge12_Node000009_Node000010" class="edge">
<title>Node9&#45;&gt;Node10</title>
<g id="a_edge12_Node000009_Node000010"><a xlink:title=" ">
<path fill="none" stroke="#63b8ff" d="M1277.9,-71.41C1313.5,-75.36 1354.14,-79.88 1390.7,-83.94"/>
<polygon fill="#63b8ff" stroke="#63b8ff" points="1390.08,-87.4 1400.41,-85.02 1390.85,-80.44 1390.08,-87.4"/>
</a>
</g>
</g>
<!-- Node11 -->
<g id="Node000011" class="node">
<title>Node11</title>
<g id="a_Node000011"><a xlink:href="classcom_1_1runehive_1_1game_1_1world_1_1entity_1_1mob_1_1player_1_1_player.html#a908fb61974719a74180d6300b838bfe1" target="_top" xlink:title=" ">
<ellipse fill="white" stroke="#666666" cx="1498.46" cy="-25.81" rx="175.72" ry="25.81"/>
<text xml:space="preserve" text-anchor="start" x="1382.21" y="-28.66" font-family="Helvetica,sans-Serif" font-size="12.00">com.runehive.game.world.entity.mob.player.</text>
<text xml:space="preserve" text-anchor="middle" x="1498.46" y="-14.41" font-family="Helvetica,sans-Serif" font-size="12.00">Player.getSession</text>
</a>
</g>
</g>
<!-- Node9&#45;&gt;Node11 -->
<g id="edge13_Node000009_Node000011" class="edge">
<title>Node9&#45;&gt;Node11</title>
<g id="a_edge13_Node000009_Node000011"><a xlink:title=" ">
<path fill="none" stroke="#63b8ff" d="M1277.9,-50.21C1299.29,-47.84 1322.5,-45.26 1345.55,-42.69"/>
<polygon fill="#63b8ff" stroke="#63b8ff" points="1345.79,-46.19 1355.35,-41.61 1345.02,-39.23 1345.79,-46.19"/>
</a>
</g>
</g>
</g>
</svg>

<g id="navigator" transform="translate(0 0)" fill="#404254">
  <rect fill="#f2f5e9" fill-opacity="0.5" stroke="#606060" stroke-width=".5" x="0" y="0" width="60" height="60"/>
  <use id="zoomplus" xlink:href="#zoomPlus" x="17" y="9" onmousedown="handleZoom(evt,'in')"/>
  <use id="zoomminus" xlink:href="#zoomMin" x="42" y="9" onmousedown="handleZoom(evt,'out')"/>
  <use id="reset" xlink:href="#resetDef" x="30" y="36" onmousedown="handleReset()"/>
   <use id="arrowup" xlink:href="#arrowUp" x="0" y="0" onmousedown="handlePan(0,-1)"/>
  <use id="arrowright" xlink:href="#arrowRight" x="0" y="0" onmousedown="handlePan(1,0)"/>
  <use id="arrowdown" xlink:href="#arrowDown" x="0" y="0" onmousedown="handlePan(0,1)"/>
  <use id="arrowleft" xlink:href="#arrowLeft" x="0" y="0" onmousedown="handlePan(-1,0)"/>
</g>
<svg viewBox="0 0 15 15" width="100%" height="30px" preserveAspectRatio="xMaxYMin meet">
 <g id="arrow_out" transform="scale(0.3 0.3)">
  <a xlink:href="classcom_1_1runehive_1_1content_1_1wintertodt_1_1_wintertodt_a5de6db5ed25597525044844dd65b939e_cgraph_org.svg" target="_base">
   <rect id="button" ry="5" rx="5" y="6" x="6" height="38" width="38"
        fill="#f2f5e9" fill-opacity="0.5" stroke="#606060" stroke-width="1.0"/>
   <path id="arrow"
     d="M 11.500037,31.436501 C 11.940474,20.09759 22.043105,11.32322 32.158766,21.979434 L 37.068811,17.246167 C 37.068811,17.246167 37.088388,32 37.088388,32 L 22.160133,31.978069 C 22.160133,31.978069 26.997745,27.140456 26.997745,27.140456 C 18.528582,18.264221 13.291696,25.230495 11.500037,31.436501 z"
     style="fill:#404040;"/>
  </a>
 </g>
</svg>

<style type='text/css'>
<![CDATA[
[data-mouse-over-selected='false'] { opacity: 0.7; }
[data-mouse-over-selected='true']  { opacity: 1.0; }
]]>
</style>
<script type="application/ecmascript"><![CDATA[
document.addEventListener('DOMContentLoaded', (event) => {
  highlightEdges();
  highlightAdjacentNodes();
});
]]></script>
</svg>
