<?xml version="1.0" encoding="UTF-8" standalone="no"?>
<!DOCTYPE svg PUBLIC "-//W3C//DTD SVG 1.1//EN"
 "http://www.w3.org/Graphics/SVG/1.1/DTD/svg11.dtd">
<!-- Generated by graphviz version 14.0.1 (20251006.0113)
 -->
<!-- Title: com.runehive.util.Utility.inRange Pages: 1 -->
<svg width="1274pt" height="2090pt"
 viewBox="0.00 0.00 1274.00 2090.00" xmlns="http://www.w3.org/2000/svg" xmlns:xlink="http://www.w3.org/1999/xlink">
<g id="graph0" class="graph" transform="scale(1 1) rotate(0) translate(4 2085.62)">
<title>com.runehive.util.Utility.inRange</title>
<!-- Node1 -->
<g id="Node000001" class="node">
<title>Node1</title>
<g id="a_Node000001"><a xlink:title=" ">
<ellipse fill="#999999" stroke="#666666" cx="1159" cy="-1084.81" rx="107.3" ry="25.81"/>
<text xml:space="preserve" text-anchor="start" x="1091.12" y="-1087.66" font-family="Helvetica,sans-Serif" font-size="12.00">com.runehive.util.Utility.in</text>
<text xml:space="preserve" text-anchor="middle" x="1159" y="-1073.41" font-family="Helvetica,sans-Serif" font-size="12.00">Range</text>
</a>
</g>
</g>
<!-- Node2 -->
<g id="Node000002" class="node">
<title>Node2</title>
<g id="a_Node000002"><a xlink:href="classcom_1_1runehive_1_1util_1_1_utility.html#a2ddbac1c08864ab0099f813c9479fc41" target="_top" xlink:title=" ">
<ellipse fill="white" stroke="#666666" cx="800.21" cy="-1198.81" rx="107.3" ry="25.81"/>
<text xml:space="preserve" text-anchor="start" x="732.33" y="-1201.66" font-family="Helvetica,sans-Serif" font-size="12.00">com.runehive.util.Utility.in</text>
<text xml:space="preserve" text-anchor="middle" x="800.21" y="-1187.41" font-family="Helvetica,sans-Serif" font-size="12.00">Range</text>
</a>
</g>
</g>
<!-- Node1&#45;&gt;Node2 -->
<g id="edge1_Node000001_Node000002" class="edge">
<title>Node1&#45;&gt;Node2</title>
<g id="a_edge1_Node000001_Node000002"><a xlink:title=" ">
<path fill="none" stroke="#63b8ff" d="M1112.35,-1115.49C1085.33,-1132.25 1049.81,-1151.96 1015.7,-1163.81 979.34,-1176.44 937.91,-1184.56 901.21,-1189.76"/>
<polygon fill="#63b8ff" stroke="#63b8ff" points="1114.03,-1118.56 1120.62,-1110.27 1110.3,-1112.64 1114.03,-1118.56"/>
</a>
</g>
</g>
<!-- Node3 -->
<g id="Node000003" class="node">
<title>Node3</title>
<g id="a_Node000003"><a xlink:href="classcom_1_1runehive_1_1game_1_1world_1_1entity_1_1combat_1_1strategy_1_1basic_1_1_magic_strategy.html#ab024f06d662117e2795eedbee8c8a698" target="_top" xlink:title=" ">
<ellipse fill="white" stroke="#666666" cx="800.21" cy="-1128.81" rx="215.49" ry="25.81"/>
<text xml:space="preserve" text-anchor="start" x="655.83" y="-1131.66" font-family="Helvetica,sans-Serif" font-size="12.00">com.runehive.game.world.entity.combat.strategy.basic.</text>
<text xml:space="preserve" text-anchor="middle" x="800.21" y="-1117.41" font-family="Helvetica,sans-Serif" font-size="12.00">MagicStrategy.withinDistance</text>
</a>
</g>
</g>
<!-- Node1&#45;&gt;Node3 -->
<g id="edge2_Node000001_Node000003" class="edge">
<title>Node1&#45;&gt;Node3</title>
<g id="a_edge2_Node000001_Node000003"><a xlink:title=" ">
<path fill="none" stroke="#63b8ff" d="M1051.53,-1097.94C1020.35,-1101.78 985.65,-1106.06 952.25,-1110.18"/>
<polygon fill="#63b8ff" stroke="#63b8ff" points="1051.86,-1101.43 1061.35,-1096.73 1051,-1094.48 1051.86,-1101.43"/>
</a>
</g>
</g>
<!-- Node4 -->
<g id="Node000004" class="node">
<title>Node4</title>
<g id="a_Node000004"><a xlink:href="classcom_1_1runehive_1_1game_1_1world_1_1entity_1_1combat_1_1strategy_1_1basic_1_1_melee_strategy.html#a87a1319e72a062e4e6052a1efbd35b1c" target="_top" xlink:title=" ">
<ellipse fill="white" stroke="#666666" cx="800.21" cy="-1040.81" rx="215.49" ry="25.81"/>
<text xml:space="preserve" text-anchor="start" x="655.83" y="-1043.66" font-family="Helvetica,sans-Serif" font-size="12.00">com.runehive.game.world.entity.combat.strategy.basic.</text>
<text xml:space="preserve" text-anchor="middle" x="800.21" y="-1029.41" font-family="Helvetica,sans-Serif" font-size="12.00">MeleeStrategy.withinDistance</text>
</a>
</g>
</g>
<!-- Node1&#45;&gt;Node4 -->
<g id="edge3_Node000001_Node000004" class="edge">
<title>Node1&#45;&gt;Node4</title>
<g id="a_edge3_Node000001_Node000004"><a xlink:title=" ">
<path fill="none" stroke="#63b8ff" d="M1051.53,-1071.68C1020.35,-1067.83 985.65,-1063.55 952.25,-1059.44"/>
<polygon fill="#63b8ff" stroke="#63b8ff" points="1051,-1075.14 1061.35,-1072.89 1051.86,-1068.19 1051,-1075.14"/>
</a>
</g>
</g>
<!-- Node35 -->
<g id="Node000035" class="node">
<title>Node35</title>
<g id="a_Node000035"><a xlink:href="classcom_1_1runehive_1_1game_1_1world_1_1entity_1_1combat_1_1strategy_1_1basic_1_1_ranged_strategy.html#a711187b271cc658bed9a66681cbe7c3a" target="_top" xlink:title=" ">
<ellipse fill="white" stroke="#666666" cx="800.21" cy="-970.81" rx="215.49" ry="25.81"/>
<text xml:space="preserve" text-anchor="start" x="655.83" y="-973.66" font-family="Helvetica,sans-Serif" font-size="12.00">com.runehive.game.world.entity.combat.strategy.basic.</text>
<text xml:space="preserve" text-anchor="middle" x="800.21" y="-959.41" font-family="Helvetica,sans-Serif" font-size="12.00">RangedStrategy.withinDistance</text>
</a>
</g>
</g>
<!-- Node1&#45;&gt;Node35 -->
<g id="edge35_Node000001_Node000035" class="edge">
<title>Node1&#45;&gt;Node35</title>
<g id="a_edge35_Node000001_Node000035"><a xlink:title=" ">
<path fill="none" stroke="#63b8ff" d="M1112.35,-1054.13C1085.33,-1037.37 1049.81,-1017.66 1015.7,-1005.81 996.27,-999.06 975.4,-993.6 954.57,-989.19"/>
<polygon fill="#63b8ff" stroke="#63b8ff" points="1110.3,-1056.97 1120.62,-1059.35 1114.03,-1051.05 1110.3,-1056.97"/>
</a>
</g>
</g>
<!-- Node4&#45;&gt;Node4 -->
<g id="edge34_Node000004_Node000004" class="edge">
<title>Node4&#45;&gt;Node4</title>
<g id="a_edge34_Node000004_Node000004"><a xlink:title=" ">
<path fill="none" stroke="#63b8ff" d="M861.79,-1075.55C852.54,-1080.95 832.01,-1084.62 800.21,-1084.62 751.15,-1084.62 728.92,-1075.88 733.52,-1065.58"/>
<polygon fill="#63b8ff" stroke="#63b8ff" points="864.77,-1077.42 866.2,-1066.93 858.53,-1074.24 864.77,-1077.42"/>
</a>
</g>
</g>
<!-- Node5 -->
<g id="Node000005" class="node">
<title>Node5</title>
<g id="a_Node000005"><a xlink:href="classcom_1_1runehive_1_1game_1_1world_1_1entity_1_1combat_1_1attack_1_1listener_1_1npc_1_1_agrith_na_na.html#a8e97c24f682a75b4293b815cb6c2a89b" target="_top" xlink:title=" ">
<ellipse fill="white" stroke="#666666" cx="274.36" cy="-2055.81" rx="231.4" ry="25.81"/>
<text xml:space="preserve" text-anchor="start" x="118.73" y="-2058.66" font-family="Helvetica,sans-Serif" font-size="12.00">com.runehive.game.world.entity.combat.attack.listener.npc.</text>
<text xml:space="preserve" text-anchor="middle" x="274.36" y="-2044.41" font-family="Helvetica,sans-Serif" font-size="12.00">AgrithNaNa.canAttack</text>
</a>
</g>
</g>
<!-- Node4&#45;&gt;Node5 -->
<g id="edge4_Node000004_Node000005" class="edge">
<title>Node4&#45;&gt;Node5</title>
<g id="a_edge4_Node000004_Node000005"><a xlink:title=" ">
<path fill="none" stroke="#63b8ff" d="M624.19,-1062.36C609.14,-1070.25 595.55,-1080.51 584.71,-1093.81 519.61,-1173.72 618.31,-1944.77 548.71,-2020.81 536.12,-2034.57 521.01,-2044.96 504.46,-2052.67"/>
<polygon fill="#63b8ff" stroke="#63b8ff" points="625.42,-1065.65 632.92,-1058.16 622.39,-1059.34 625.42,-1065.65"/>
</a>
</g>
</g>
<!-- Node6 -->
<g id="Node000006" class="node">
<title>Node6</title>
<g id="a_Node000006"><a xlink:href="classcom_1_1runehive_1_1game_1_1world_1_1entity_1_1combat_1_1attack_1_1listener_1_1npc_1_1_commander_zilyana.html#a4f00358e068023379710e4e03b54954e" target="_top" xlink:title=" ">
<ellipse fill="white" stroke="#666666" cx="274.36" cy="-1985.81" rx="231.4" ry="25.81"/>
<text xml:space="preserve" text-anchor="start" x="118.73" y="-1988.66" font-family="Helvetica,sans-Serif" font-size="12.00">com.runehive.game.world.entity.combat.attack.listener.npc.</text>
<text xml:space="preserve" text-anchor="middle" x="274.36" y="-1974.41" font-family="Helvetica,sans-Serif" font-size="12.00">CommanderZilyana.canAttack</text>
</a>
</g>
</g>
<!-- Node4&#45;&gt;Node6 -->
<g id="edge5_Node000004_Node000006" class="edge">
<title>Node4&#45;&gt;Node6</title>
<g id="a_edge5_Node000004_Node000006"><a xlink:title=" ">
<path fill="none" stroke="#63b8ff" d="M624.23,-1062.39C609.17,-1070.28 595.57,-1080.53 584.71,-1093.81 524.4,-1167.6 613.17,-1880.6 548.71,-1950.81 536.1,-1964.55 520.98,-1974.92 504.41,-1982.63"/>
<polygon fill="#63b8ff" stroke="#63b8ff" points="625.47,-1065.68 632.97,-1058.2 622.44,-1059.37 625.47,-1065.68"/>
</a>
</g>
</g>
<!-- Node7 -->
<g id="Node000007" class="node">
<title>Node7</title>
<g id="a_Node000007"><a xlink:href="classcom_1_1runehive_1_1game_1_1world_1_1entity_1_1combat_1_1attack_1_1listener_1_1npc_1_1_dessourt.html#a51e528d82f348b373ff52e34693d6407" target="_top" xlink:title=" ">
<ellipse fill="white" stroke="#666666" cx="274.36" cy="-1915.81" rx="231.4" ry="25.81"/>
<text xml:space="preserve" text-anchor="start" x="118.73" y="-1918.66" font-family="Helvetica,sans-Serif" font-size="12.00">com.runehive.game.world.entity.combat.attack.listener.npc.</text>
<text xml:space="preserve" text-anchor="middle" x="274.36" y="-1904.41" font-family="Helvetica,sans-Serif" font-size="12.00">Dessourt.canAttack</text>
</a>
</g>
</g>
<!-- Node4&#45;&gt;Node7 -->
<g id="edge6_Node000004_Node000007" class="edge">
<title>Node4&#45;&gt;Node7</title>
<g id="a_edge6_Node000004_Node000007"><a xlink:title=" ">
<path fill="none" stroke="#63b8ff" d="M624.29,-1062.43C609.21,-1070.31 595.59,-1080.55 584.71,-1093.81 529.19,-1161.48 608.03,-1816.44 548.71,-1880.81 536.07,-1894.53 520.93,-1904.88 504.36,-1912.58"/>
<polygon fill="#63b8ff" stroke="#63b8ff" points="625.52,-1065.72 633.02,-1058.24 622.49,-1059.41 625.52,-1065.72"/>
</a>
</g>
</g>
<!-- Node8 -->
<g id="Node000008" class="node">
<title>Node8</title>
<g id="a_Node000008"><a xlink:href="classcom_1_1runehive_1_1game_1_1world_1_1entity_1_1combat_1_1attack_1_1listener_1_1npc_1_1dragon_1_1_brutal_dragon.html#a80f9a3750ed89e5fd4c192321a423055" target="_top" xlink:title=" ">
<ellipse fill="white" stroke="#666666" cx="274.36" cy="-1845.81" rx="260.04" ry="25.81"/>
<text xml:space="preserve" text-anchor="start" x="98.48" y="-1848.66" font-family="Helvetica,sans-Serif" font-size="12.00">com.runehive.game.world.entity.combat.attack.listener.npc.dragon.</text>
<text xml:space="preserve" text-anchor="middle" x="274.36" y="-1834.41" font-family="Helvetica,sans-Serif" font-size="12.00">BrutalDragon.canAttack</text>
</a>
</g>
</g>
<!-- Node4&#45;&gt;Node8 -->
<g id="edge7_Node000004_Node000008" class="edge">
<title>Node4&#45;&gt;Node8</title>
<g id="a_edge7_Node000004_Node000008"><a xlink:title=" ">
<path fill="none" stroke="#63b8ff" d="M624.35,-1062.48C609.26,-1070.35 595.62,-1080.58 584.71,-1093.81 533.98,-1155.36 602.9,-1752.27 548.71,-1810.81 539.21,-1821.08 528.31,-1829.46 516.45,-1836.25"/>
<polygon fill="#63b8ff" stroke="#63b8ff" points="625.58,-1065.77 633.09,-1058.3 622.56,-1059.46 625.58,-1065.77"/>
</a>
</g>
</g>
<!-- Node9 -->
<g id="Node000009" class="node">
<title>Node9</title>
<g id="a_Node000009"><a xlink:href="classcom_1_1runehive_1_1game_1_1world_1_1entity_1_1combat_1_1attack_1_1listener_1_1npc_1_1dragon_1_1_chromatic_dragon.html#ab3987c423f2fb9f5ad5594b377377255" target="_top" xlink:title=" ">
<ellipse fill="white" stroke="#666666" cx="274.36" cy="-1775.81" rx="260.04" ry="25.81"/>
<text xml:space="preserve" text-anchor="start" x="98.48" y="-1778.66" font-family="Helvetica,sans-Serif" font-size="12.00">com.runehive.game.world.entity.combat.attack.listener.npc.dragon.</text>
<text xml:space="preserve" text-anchor="middle" x="274.36" y="-1764.41" font-family="Helvetica,sans-Serif" font-size="12.00">ChromaticDragon.canAttack</text>
</a>
</g>
</g>
<!-- Node4&#45;&gt;Node9 -->
<g id="edge8_Node000004_Node000009" class="edge">
<title>Node4&#45;&gt;Node9</title>
<g id="a_edge8_Node000004_Node000009"><a xlink:title=" ">
<path fill="none" stroke="#63b8ff" d="M624.63,-1062.43C609.45,-1070.3 595.71,-1080.55 584.71,-1093.81 492.82,-1204.68 646.82,-1635.4 548.71,-1740.81 539.18,-1751.05 528.26,-1759.41 516.38,-1766.19"/>
<polygon fill="#63b8ff" stroke="#63b8ff" points="625.9,-1065.7 633.43,-1058.25 622.9,-1059.38 625.9,-1065.7"/>
</a>
</g>
</g>
<!-- Node10 -->
<g id="Node000010" class="node">
<title>Node10</title>
<g id="a_Node000010"><a xlink:href="classcom_1_1runehive_1_1game_1_1world_1_1entity_1_1combat_1_1attack_1_1listener_1_1npc_1_1dragon_1_1_metalic_dragon.html#a0b51fca219af949653557af30a6db599" target="_top" xlink:title=" ">
<ellipse fill="white" stroke="#666666" cx="274.36" cy="-1705.81" rx="260.04" ry="25.81"/>
<text xml:space="preserve" text-anchor="start" x="98.48" y="-1708.66" font-family="Helvetica,sans-Serif" font-size="12.00">com.runehive.game.world.entity.combat.attack.listener.npc.dragon.</text>
<text xml:space="preserve" text-anchor="middle" x="274.36" y="-1694.41" font-family="Helvetica,sans-Serif" font-size="12.00">MetalicDragon.canAttack</text>
</a>
</g>
</g>
<!-- Node4&#45;&gt;Node10 -->
<g id="edge9_Node000004_Node000010" class="edge">
<title>Node4&#45;&gt;Node10</title>
<g id="a_edge9_Node000004_Node000010"><a xlink:title=" ">
<path fill="none" stroke="#63b8ff" d="M624.72,-1062.51C609.52,-1070.37 595.75,-1080.58 584.71,-1093.81 502.4,-1192.45 636.56,-1577.06 548.71,-1670.81 539.15,-1681.02 528.2,-1689.36 516.3,-1696.11"/>
<polygon fill="#63b8ff" stroke="#63b8ff" points="626,-1065.78 633.53,-1058.33 622.99,-1059.45 626,-1065.78"/>
</a>
</g>
</g>
<!-- Node11 -->
<g id="Node000011" class="node">
<title>Node11</title>
<g id="a_Node000011"><a xlink:href="classcom_1_1runehive_1_1game_1_1world_1_1entity_1_1combat_1_1attack_1_1listener_1_1npc_1_1dragon_1_1_skeletal_wyvern.html#af498f29c3b456cadcbd92ca9acdd45b1" target="_top" xlink:title=" ">
<ellipse fill="white" stroke="#666666" cx="274.36" cy="-1635.81" rx="260.04" ry="25.81"/>
<text xml:space="preserve" text-anchor="start" x="98.48" y="-1638.66" font-family="Helvetica,sans-Serif" font-size="12.00">com.runehive.game.world.entity.combat.attack.listener.npc.dragon.</text>
<text xml:space="preserve" text-anchor="middle" x="274.36" y="-1624.41" font-family="Helvetica,sans-Serif" font-size="12.00">SkeletalWyvern.canAttack</text>
</a>
</g>
</g>
<!-- Node4&#45;&gt;Node11 -->
<g id="edge10_Node000004_Node000011" class="edge">
<title>Node4&#45;&gt;Node11</title>
<g id="a_edge10_Node000004_Node000011"><a xlink:title=" ">
<path fill="none" stroke="#63b8ff" d="M625.04,-1062.5C609.74,-1070.35 595.86,-1080.57 584.71,-1093.81 511.97,-1180.22 626.3,-1518.72 548.71,-1600.81 539.02,-1611.07 527.93,-1619.43 515.89,-1626.19"/>
<polygon fill="#63b8ff" stroke="#63b8ff" points="626.36,-1065.74 633.92,-1058.32 623.38,-1059.41 626.36,-1065.74"/>
</a>
</g>
</g>
<!-- Node12 -->
<g id="Node000012" class="node">
<title>Node12</title>
<g id="a_Node000012"><a xlink:href="classcom_1_1runehive_1_1game_1_1world_1_1entity_1_1combat_1_1attack_1_1listener_1_1npc_1_1_flambleed.html#a7e7067df0bdf2e28ccad5a11e1a7cbee" target="_top" xlink:title=" ">
<ellipse fill="white" stroke="#666666" cx="274.36" cy="-1565.81" rx="231.4" ry="25.81"/>
<text xml:space="preserve" text-anchor="start" x="118.73" y="-1568.66" font-family="Helvetica,sans-Serif" font-size="12.00">com.runehive.game.world.entity.combat.attack.listener.npc.</text>
<text xml:space="preserve" text-anchor="middle" x="274.36" y="-1554.41" font-family="Helvetica,sans-Serif" font-size="12.00">Flambleed.canAttack</text>
</a>
</g>
</g>
<!-- Node4&#45;&gt;Node12 -->
<g id="edge11_Node000004_Node000012" class="edge">
<title>Node4&#45;&gt;Node12</title>
<g id="a_edge11_Node000004_Node000012"><a xlink:title=" ">
<path fill="none" stroke="#63b8ff" d="M625.19,-1062.63C609.86,-1070.45 595.93,-1080.63 584.71,-1093.81 521.54,-1168 616.04,-1460.37 548.71,-1530.81 535.82,-1544.3 520.51,-1554.49 503.82,-1562.07"/>
<polygon fill="#63b8ff" stroke="#63b8ff" points="626.52,-1065.87 634.09,-1058.46 623.55,-1059.53 626.52,-1065.87"/>
</a>
</g>
</g>
<!-- Node13 -->
<g id="Node000013" class="node">
<title>Node13</title>
<g id="a_Node000013"><a xlink:href="classcom_1_1runehive_1_1game_1_1world_1_1entity_1_1combat_1_1attack_1_1listener_1_1npc_1_1_karamel.html#a764207cdffe99e5979c9f72762a6f682" target="_top" xlink:title=" ">
<ellipse fill="white" stroke="#666666" cx="274.36" cy="-1495.81" rx="231.4" ry="25.81"/>
<text xml:space="preserve" text-anchor="start" x="118.73" y="-1498.66" font-family="Helvetica,sans-Serif" font-size="12.00">com.runehive.game.world.entity.combat.attack.listener.npc.</text>
<text xml:space="preserve" text-anchor="middle" x="274.36" y="-1484.41" font-family="Helvetica,sans-Serif" font-size="12.00">Karamel.canAttack</text>
</a>
</g>
</g>
<!-- Node4&#45;&gt;Node13 -->
<g id="edge12_Node000004_Node000013" class="edge">
<title>Node4&#45;&gt;Node13</title>
<g id="a_edge12_Node000004_Node000013"><a xlink:title=" ">
<path fill="none" stroke="#63b8ff" d="M625.82,-1062.59C610.29,-1070.42 596.14,-1080.6 584.71,-1093.81 531.1,-1155.79 605.8,-1402.01 548.71,-1460.81 535.72,-1474.2 520.34,-1484.32 503.6,-1491.86"/>
<polygon fill="#63b8ff" stroke="#63b8ff" points="627.24,-1065.8 634.84,-1058.42 624.3,-1059.44 627.24,-1065.8"/>
</a>
</g>
</g>
<!-- Node14 -->
<g id="Node000014" class="node">
<title>Node14</title>
<g id="a_Node000014"><a xlink:href="classcom_1_1runehive_1_1game_1_1world_1_1entity_1_1combat_1_1attack_1_1listener_1_1npc_1_1_ket_zek.html#a932b22ea79199e80c2371215f57c4fa3" target="_top" xlink:title=" ">
<ellipse fill="white" stroke="#666666" cx="274.36" cy="-1425.81" rx="231.4" ry="25.81"/>
<text xml:space="preserve" text-anchor="start" x="118.73" y="-1428.66" font-family="Helvetica,sans-Serif" font-size="12.00">com.runehive.game.world.entity.combat.attack.listener.npc.</text>
<text xml:space="preserve" text-anchor="middle" x="274.36" y="-1414.41" font-family="Helvetica,sans-Serif" font-size="12.00">KetZek.canAttack</text>
</a>
</g>
</g>
<!-- Node4&#45;&gt;Node14 -->
<g id="edge13_Node000004_Node000014" class="edge">
<title>Node4&#45;&gt;Node14</title>
<g id="a_edge13_Node000004_Node000014"><a xlink:title=" ">
<path fill="none" stroke="#63b8ff" d="M626.79,-1062.53C610.93,-1070.35 596.45,-1080.55 584.71,-1093.81 496.58,-1193.37 642.42,-1296.47 548.71,-1390.81 535.48,-1404.13 519.88,-1414.19 502.95,-1421.68"/>
<polygon fill="#63b8ff" stroke="#63b8ff" points="627.79,-1065.92 635.44,-1058.6 624.89,-1059.55 627.79,-1065.92"/>
</a>
</g>
</g>
<!-- Node15 -->
<g id="Node000015" class="node">
<title>Node15</title>
<g id="a_Node000015"><a xlink:href="classcom_1_1runehive_1_1content_1_1activity_1_1infernomobs_1_1_jal_tok_jad.html#a348f35f498d107890310535fe82d8409" target="_top" xlink:title=" ">
<ellipse fill="white" stroke="#666666" cx="274.36" cy="-1355.81" rx="170.41" ry="25.81"/>
<text xml:space="preserve" text-anchor="start" x="161.86" y="-1358.66" font-family="Helvetica,sans-Serif" font-size="12.00">com.runehive.content.activity.infernomobs.</text>
<text xml:space="preserve" text-anchor="middle" x="274.36" y="-1344.41" font-family="Helvetica,sans-Serif" font-size="12.00">JalTokJad.finishOutgoing</text>
</a>
</g>
</g>
<!-- Node4&#45;&gt;Node15 -->
<g id="edge14_Node000004_Node000015" class="edge">
<title>Node4&#45;&gt;Node15</title>
<g id="a_edge14_Node000004_Node000015"><a xlink:title=" ">
<path fill="none" stroke="#63b8ff" d="M627.92,-1062.66C611.72,-1070.43 596.86,-1080.59 584.71,-1093.81 515.62,-1169.04 622.02,-1249.67 548.71,-1320.81 514.72,-1353.8 466.14,-1366.51 419.34,-1369.69"/>
<polygon fill="#63b8ff" stroke="#63b8ff" points="629.05,-1065.99 636.77,-1058.74 626.21,-1059.59 629.05,-1065.99"/>
</a>
</g>
</g>
<!-- Node16 -->
<g id="Node000016" class="node">
<title>Node16</title>
<g id="a_Node000016"><a xlink:href="classcom_1_1runehive_1_1game_1_1world_1_1entity_1_1combat_1_1attack_1_1listener_1_1npc_1_1dragon_1_1_brutal_dragon.html#a8f85ca92f54973412a196be24a39fbd3" target="_top" xlink:title=" ">
<ellipse fill="white" stroke="#666666" cx="274.36" cy="-1285.81" rx="260.04" ry="25.81"/>
<text xml:space="preserve" text-anchor="start" x="98.48" y="-1288.66" font-family="Helvetica,sans-Serif" font-size="12.00">com.runehive.game.world.entity.combat.attack.listener.npc.dragon.</text>
<text xml:space="preserve" text-anchor="middle" x="274.36" y="-1274.41" font-family="Helvetica,sans-Serif" font-size="12.00">BrutalDragon.finishOutgoing</text>
</a>
</g>
</g>
<!-- Node4&#45;&gt;Node16 -->
<g id="edge15_Node000004_Node000016" class="edge">
<title>Node4&#45;&gt;Node16</title>
<g id="a_edge15_Node000004_Node000016"><a xlink:title=" ">
<path fill="none" stroke="#63b8ff" d="M629.89,-1063C613.12,-1070.69 597.58,-1080.73 584.71,-1093.81 534.52,-1144.85 601.76,-1202.73 548.71,-1250.81 537.81,-1260.69 525.59,-1268.7 512.51,-1275.15"/>
<polygon fill="#63b8ff" stroke="#63b8ff" points="631.24,-1066.23 639.09,-1059.11 628.51,-1059.79 631.24,-1066.23"/>
</a>
</g>
</g>
<!-- Node17 -->
<g id="Node000017" class="node">
<title>Node17</title>
<g id="a_Node000017"><a xlink:href="classcom_1_1runehive_1_1game_1_1world_1_1entity_1_1combat_1_1attack_1_1listener_1_1npc_1_1dragon_1_1_chromatic_dragon.html#ab84d514d418295cf178f5ba4febddecf" target="_top" xlink:title=" ">
<ellipse fill="white" stroke="#666666" cx="274.36" cy="-1215.81" rx="260.04" ry="25.81"/>
<text xml:space="preserve" text-anchor="start" x="98.48" y="-1218.66" font-family="Helvetica,sans-Serif" font-size="12.00">com.runehive.game.world.entity.combat.attack.listener.npc.dragon.</text>
<text xml:space="preserve" text-anchor="middle" x="274.36" y="-1204.41" font-family="Helvetica,sans-Serif" font-size="12.00">ChromaticDragon.finishOutgoing</text>
</a>
</g>
</g>
<!-- Node4&#45;&gt;Node17 -->
<g id="edge16_Node000004_Node000017" class="edge">
<title>Node4&#45;&gt;Node17</title>
<g id="a_edge16_Node000004_Node000017"><a xlink:title=" ">
<path fill="none" stroke="#63b8ff" d="M636.59,-1063.31C617.73,-1070.85 599.87,-1080.78 584.71,-1093.81 552.99,-1121.1 581.95,-1155.39 548.71,-1180.81 536.17,-1190.4 522.32,-1198.1 507.71,-1204.24"/>
<polygon fill="#63b8ff" stroke="#63b8ff" points="637.59,-1066.68 645.73,-1059.9 635.14,-1060.12 637.59,-1066.68"/>
</a>
</g>
</g>
<!-- Node18 -->
<g id="Node000018" class="node">
<title>Node18</title>
<g id="a_Node000018"><a xlink:href="classcom_1_1runehive_1_1game_1_1world_1_1entity_1_1combat_1_1attack_1_1listener_1_1npc_1_1dragon_1_1_skeletal_wyvern.html#a0287864d87097fa718227207764ea60d" target="_top" xlink:title=" ">
<ellipse fill="white" stroke="#666666" cx="274.36" cy="-1145.81" rx="260.04" ry="25.81"/>
<text xml:space="preserve" text-anchor="start" x="98.48" y="-1148.66" font-family="Helvetica,sans-Serif" font-size="12.00">com.runehive.game.world.entity.combat.attack.listener.npc.dragon.</text>
<text xml:space="preserve" text-anchor="middle" x="274.36" y="-1134.41" font-family="Helvetica,sans-Serif" font-size="12.00">SkeletalWyvern.finishOutgoing</text>
</a>
</g>
</g>
<!-- Node4&#45;&gt;Node18 -->
<g id="edge17_Node000004_Node000018" class="edge">
<title>Node4&#45;&gt;Node18</title>
<g id="a_edge17_Node000004_Node000018"><a xlink:title=" ">
<path fill="none" stroke="#63b8ff" d="M679.05,-1066.04C647.96,-1073.78 614.78,-1083.12 584.71,-1093.81 568.04,-1099.74 565.7,-1105.85 548.71,-1110.81 523.69,-1118.12 496.92,-1123.91 470.3,-1128.48"/>
<polygon fill="#63b8ff" stroke="#63b8ff" points="679.6,-1069.51 688.48,-1063.73 677.93,-1062.71 679.6,-1069.51"/>
</a>
</g>
</g>
<!-- Node19 -->
<g id="Node000019" class="node">
<title>Node19</title>
<g id="a_Node000019"><a xlink:href="classcom_1_1runehive_1_1game_1_1world_1_1entity_1_1combat_1_1strategy_1_1npc_1_1boss_1_1_chaos_fanatic.html#a3920b87753f3bea66edc6d2d5ae4d234" target="_top" xlink:title=" ">
<ellipse fill="white" stroke="#666666" cx="274.36" cy="-1075.81" rx="229.28" ry="25.81"/>
<text xml:space="preserve" text-anchor="start" x="120.23" y="-1078.66" font-family="Helvetica,sans-Serif" font-size="12.00">com.runehive.game.world.entity.combat.strategy.npc.boss.</text>
<text xml:space="preserve" text-anchor="middle" x="274.36" y="-1064.41" font-family="Helvetica,sans-Serif" font-size="12.00">ChaosFanatic.finishOutgoing</text>
</a>
</g>
</g>
<!-- Node4&#45;&gt;Node19 -->
<g id="edge18_Node000004_Node000019" class="edge">
<title>Node4&#45;&gt;Node19</title>
<g id="a_edge18_Node000004_Node000019"><a xlink:title=" ">
<path fill="none" stroke="#63b8ff" d="M599.45,-1054.16C557.9,-1056.93 514.13,-1059.86 472.67,-1062.63"/>
<polygon fill="#63b8ff" stroke="#63b8ff" points="599.57,-1057.66 609.31,-1053.5 599.1,-1050.67 599.57,-1057.66"/>
</a>
</g>
</g>
<!-- Node20 -->
<g id="Node000020" class="node">
<title>Node20</title>
<g id="a_Node000020"><a xlink:href="classcom_1_1runehive_1_1game_1_1world_1_1entity_1_1combat_1_1strategy_1_1npc_1_1boss_1_1_crazy_archaeologist.html#ad536013b9e9208bcce6ed6fded57b4c9" target="_top" xlink:title=" ">
<ellipse fill="white" stroke="#666666" cx="274.36" cy="-1005.81" rx="229.28" ry="25.81"/>
<text xml:space="preserve" text-anchor="start" x="120.23" y="-1008.66" font-family="Helvetica,sans-Serif" font-size="12.00">com.runehive.game.world.entity.combat.strategy.npc.boss.</text>
<text xml:space="preserve" text-anchor="middle" x="274.36" y="-994.41" font-family="Helvetica,sans-Serif" font-size="12.00">CrazyArchaeologist.finishOutgoing</text>
</a>
</g>
</g>
<!-- Node4&#45;&gt;Node20 -->
<g id="edge19_Node000004_Node000020" class="edge">
<title>Node4&#45;&gt;Node20</title>
<g id="a_edge19_Node000004_Node000020"><a xlink:title=" ">
<path fill="none" stroke="#63b8ff" d="M599.45,-1027.46C557.9,-1024.69 514.13,-1021.76 472.67,-1018.99"/>
<polygon fill="#63b8ff" stroke="#63b8ff" points="599.1,-1030.95 609.31,-1028.12 599.57,-1023.96 599.1,-1030.95"/>
</a>
</g>
</g>
<!-- Node21 -->
<g id="Node000021" class="node">
<title>Node21</title>
<g id="a_Node000021"><a xlink:href="classcom_1_1runehive_1_1game_1_1world_1_1entity_1_1combat_1_1strategy_1_1npc_1_1boss_1_1magearena_1_1_derwen.html#a1a26a53033f654d3885603ec43ed94d5" target="_top" xlink:title=" ">
<ellipse fill="white" stroke="#666666" cx="274.36" cy="-935.81" rx="274.36" ry="25.81"/>
<text xml:space="preserve" text-anchor="start" x="88.36" y="-938.66" font-family="Helvetica,sans-Serif" font-size="12.00">com.runehive.game.world.entity.combat.strategy.npc.boss.magearena.</text>
<text xml:space="preserve" text-anchor="middle" x="274.36" y="-924.41" font-family="Helvetica,sans-Serif" font-size="12.00">Derwen.finishOutgoing</text>
</a>
</g>
</g>
<!-- Node4&#45;&gt;Node21 -->
<g id="edge20_Node000004_Node000021" class="edge">
<title>Node4&#45;&gt;Node21</title>
<g id="a_edge20_Node000004_Node000021"><a xlink:title=" ">
<path fill="none" stroke="#63b8ff" d="M622.19,-1020.93C609.2,-1016.76 596.56,-1011.78 584.71,-1005.81 564.78,-995.77 568.82,-980.5 548.71,-970.81 532.12,-962.81 514.34,-956.42 496.1,-951.35"/>
<polygon fill="#63b8ff" stroke="#63b8ff" points="621.14,-1024.27 631.72,-1023.8 623.16,-1017.57 621.14,-1024.27"/>
</a>
</g>
</g>
<!-- Node22 -->
<g id="Node000022" class="node">
<title>Node22</title>
<g id="a_Node000022"><a xlink:href="classcom_1_1runehive_1_1game_1_1world_1_1entity_1_1combat_1_1strategy_1_1npc_1_1boss_1_1magearena_1_1_justiciar.html#aab8aa757e25be681a3196d101924198f" target="_top" xlink:title=" ">
<ellipse fill="white" stroke="#666666" cx="274.36" cy="-865.81" rx="274.36" ry="25.81"/>
<text xml:space="preserve" text-anchor="start" x="88.36" y="-868.66" font-family="Helvetica,sans-Serif" font-size="12.00">com.runehive.game.world.entity.combat.strategy.npc.boss.magearena.</text>
<text xml:space="preserve" text-anchor="middle" x="274.36" y="-854.41" font-family="Helvetica,sans-Serif" font-size="12.00">Justiciar.finishOutgoing</text>
</a>
</g>
</g>
<!-- Node4&#45;&gt;Node22 -->
<g id="edge21_Node000004_Node000022" class="edge">
<title>Node4&#45;&gt;Node22</title>
<g id="a_edge21_Node000004_Node000022"><a xlink:title=" ">
<path fill="none" stroke="#63b8ff" d="M608.39,-1021.79C599.98,-1017.26 592.02,-1011.98 584.71,-1005.81 547.02,-973.99 586.95,-931.98 548.71,-900.81 537.87,-891.97 525.93,-884.69 513.29,-878.73"/>
<polygon fill="#63b8ff" stroke="#63b8ff" points="606.59,-1024.8 617.11,-1026.09 609.69,-1018.52 606.59,-1024.8"/>
</a>
</g>
</g>
<!-- Node23 -->
<g id="Node000023" class="node">
<title>Node23</title>
<g id="a_Node000023"><a xlink:href="classcom_1_1runehive_1_1game_1_1world_1_1entity_1_1combat_1_1strategy_1_1npc_1_1boss_1_1magearena_1_1_porazdir.html#a2d05f71df21e9ec2af604d81a667e5d1" target="_top" xlink:title=" ">
<ellipse fill="white" stroke="#666666" cx="274.36" cy="-795.81" rx="274.36" ry="25.81"/>
<text xml:space="preserve" text-anchor="start" x="88.36" y="-798.66" font-family="Helvetica,sans-Serif" font-size="12.00">com.runehive.game.world.entity.combat.strategy.npc.boss.magearena.</text>
<text xml:space="preserve" text-anchor="middle" x="274.36" y="-784.41" font-family="Helvetica,sans-Serif" font-size="12.00">Porazdir.finishOutgoing</text>
</a>
</g>
</g>
<!-- Node4&#45;&gt;Node23 -->
<g id="edge22_Node000004_Node000023" class="edge">
<title>Node4&#45;&gt;Node23</title>
<g id="a_edge22_Node000004_Node000023"><a xlink:title=" ">
<path fill="none" stroke="#63b8ff" d="M605.44,-1021.71C598.02,-1017.16 591.06,-1011.89 584.71,-1005.81 527.42,-950.83 606.94,-884.8 548.71,-830.81 538.98,-821.78 528.14,-814.3 516.56,-808.14"/>
<polygon fill="#63b8ff" stroke="#63b8ff" points="603.68,-1024.74 614.12,-1026.55 607.09,-1018.62 603.68,-1024.74"/>
</a>
</g>
</g>
<!-- Node24 -->
<g id="Node000024" class="node">
<title>Node24</title>
<g id="a_Node000024"><a xlink:href="classcom_1_1runehive_1_1game_1_1world_1_1entity_1_1combat_1_1strategy_1_1npc_1_1boss_1_1skotizo_1_1_skotizo.html#ac8435f20a7f85fb0ea6a744b85f089c0" target="_top" xlink:title=" ">
<ellipse fill="white" stroke="#666666" cx="274.36" cy="-725.81" rx="257.92" ry="25.81"/>
<text xml:space="preserve" text-anchor="start" x="99.98" y="-728.66" font-family="Helvetica,sans-Serif" font-size="12.00">com.runehive.game.world.entity.combat.strategy.npc.boss.skotizo.</text>
<text xml:space="preserve" text-anchor="middle" x="274.36" y="-714.41" font-family="Helvetica,sans-Serif" font-size="12.00">Skotizo.finishOutgoing</text>
</a>
</g>
</g>
<!-- Node4&#45;&gt;Node24 -->
<g id="edge23_Node000004_Node000024" class="edge">
<title>Node4&#45;&gt;Node24</title>
<g id="a_edge23_Node000004_Node000024"><a xlink:title=" ">
<path fill="none" stroke="#63b8ff" d="M604.92,-1022.1C597.65,-1017.44 590.86,-1012.05 584.71,-1005.81 507.51,-927.37 627.26,-837.91 548.71,-760.81 538.3,-750.59 526.49,-742.3 513.76,-735.64"/>
<polygon fill="#63b8ff" stroke="#63b8ff" points="602.66,-1024.83 613.06,-1026.84 606.18,-1018.79 602.66,-1024.83"/>
</a>
</g>
</g>
<!-- Node25 -->
<g id="Node000025" class="node">
<title>Node25</title>
<g id="a_Node000025"><a xlink:href="classcom_1_1runehive_1_1game_1_1world_1_1entity_1_1combat_1_1strategy_1_1npc_1_1boss_1_1_venenatis.html#accd8bde799f253d4ff3a3d3125e8a717" target="_top" xlink:title=" ">
<ellipse fill="white" stroke="#666666" cx="274.36" cy="-655.81" rx="229.28" ry="25.81"/>
<text xml:space="preserve" text-anchor="start" x="120.23" y="-658.66" font-family="Helvetica,sans-Serif" font-size="12.00">com.runehive.game.world.entity.combat.strategy.npc.boss.</text>
<text xml:space="preserve" text-anchor="middle" x="274.36" y="-644.41" font-family="Helvetica,sans-Serif" font-size="12.00">Venenatis.finishOutgoing</text>
</a>
</g>
</g>
<!-- Node4&#45;&gt;Node25 -->
<g id="edge24_Node000004_Node000025" class="edge">
<title>Node4&#45;&gt;Node25</title>
<g id="a_edge24_Node000004_Node000025"><a xlink:title=" ">
<path fill="none" stroke="#63b8ff" d="M603.87,-1021.81C596.97,-1017.22 590.53,-1011.91 584.71,-1005.81 487.49,-903.81 647.68,-791.12 548.71,-690.81 535.19,-677.1 519.16,-666.84 501.75,-659.27"/>
<polygon fill="#63b8ff" stroke="#63b8ff" points="601.89,-1024.71 612.26,-1026.87 605.5,-1018.71 601.89,-1024.71"/>
</a>
</g>
</g>
<!-- Node26 -->
<g id="Node000026" class="node">
<title>Node26</title>
<g id="a_Node000026"><a xlink:href="classcom_1_1runehive_1_1game_1_1world_1_1entity_1_1combat_1_1strategy_1_1npc_1_1boss_1_1_vetion.html#a17e688be1afc0adb6576c616cb9fda6b" target="_top" xlink:title=" ">
<ellipse fill="white" stroke="#666666" cx="274.36" cy="-585.81" rx="229.28" ry="25.81"/>
<text xml:space="preserve" text-anchor="start" x="120.23" y="-588.66" font-family="Helvetica,sans-Serif" font-size="12.00">com.runehive.game.world.entity.combat.strategy.npc.boss.</text>
<text xml:space="preserve" text-anchor="middle" x="274.36" y="-574.41" font-family="Helvetica,sans-Serif" font-size="12.00">Vetion.finishOutgoing</text>
</a>
</g>
</g>
<!-- Node4&#45;&gt;Node26 -->
<g id="edge25_Node000004_Node000026" class="edge">
<title>Node4&#45;&gt;Node26</title>
<g id="a_edge25_Node000004_Node000026"><a xlink:title=" ">
<path fill="none" stroke="#63b8ff" d="M603.71,-1021.96C596.85,-1017.32 590.47,-1011.97 584.71,-1005.81 526.07,-943 608.43,-682.6 548.71,-620.81 535.33,-606.96 519.4,-596.6 502.05,-588.98"/>
<polygon fill="#63b8ff" stroke="#63b8ff" points="601.7,-1024.83 612.05,-1027.06 605.35,-1018.86 601.7,-1024.83"/>
</a>
</g>
</g>
<!-- Node27 -->
<g id="Node000027" class="node">
<title>Node27</title>
<g id="a_Node000027"><a xlink:href="classcom_1_1runehive_1_1game_1_1world_1_1entity_1_1combat_1_1strategy_1_1npc_1_1boss_1_1_wyrm.html#a64135eb521f980e9fa2e97c7cea3cb3c" target="_top" xlink:title=" ">
<ellipse fill="white" stroke="#666666" cx="274.36" cy="-515.81" rx="229.28" ry="25.81"/>
<text xml:space="preserve" text-anchor="start" x="120.23" y="-518.66" font-family="Helvetica,sans-Serif" font-size="12.00">com.runehive.game.world.entity.combat.strategy.npc.boss.</text>
<text xml:space="preserve" text-anchor="middle" x="274.36" y="-504.41" font-family="Helvetica,sans-Serif" font-size="12.00">Wyrm.finishOutgoing</text>
</a>
</g>
</g>
<!-- Node4&#45;&gt;Node27 -->
<g id="edge26_Node000004_Node000027" class="edge">
<title>Node4&#45;&gt;Node27</title>
<g id="a_edge26_Node000004_Node000027"><a xlink:title=" ">
<path fill="none" stroke="#63b8ff" d="M603.6,-1022.06C596.77,-1017.4 590.42,-1012.01 584.71,-1005.81 516.02,-931.18 618.68,-624.24 548.71,-550.81 535.43,-536.87 519.57,-526.44 502.26,-518.78"/>
<polygon fill="#63b8ff" stroke="#63b8ff" points="601.56,-1024.92 611.91,-1027.19 605.24,-1018.96 601.56,-1024.92"/>
</a>
</g>
</g>
<!-- Node28 -->
<g id="Node000028" class="node">
<title>Node28</title>
<g id="a_Node000028"><a xlink:href="classcom_1_1runehive_1_1game_1_1world_1_1entity_1_1combat_1_1attack_1_1listener_1_1npc_1_1_agrith_na_na.html#a2f1f40b39176323c877f865fbc756b69" target="_top" xlink:title=" ">
<ellipse fill="white" stroke="#666666" cx="274.36" cy="-445.81" rx="231.4" ry="25.81"/>
<text xml:space="preserve" text-anchor="start" x="118.73" y="-448.66" font-family="Helvetica,sans-Serif" font-size="12.00">com.runehive.game.world.entity.combat.attack.listener.npc.</text>
<text xml:space="preserve" text-anchor="middle" x="274.36" y="-434.41" font-family="Helvetica,sans-Serif" font-size="12.00">AgrithNaNa.start</text>
</a>
</g>
</g>
<!-- Node4&#45;&gt;Node28 -->
<g id="edge27_Node000004_Node000028" class="edge">
<title>Node4&#45;&gt;Node28</title>
<g id="a_edge27_Node000004_Node000028"><a xlink:title=" ">
<path fill="none" stroke="#63b8ff" d="M603.2,-1021.92C596.52,-1017.29 590.3,-1011.95 584.71,-1005.81 505.97,-919.35 628.93,-565.9 548.71,-480.81 535.91,-467.23 520.67,-456.98 504.02,-449.35"/>
<polygon fill="#63b8ff" stroke="#63b8ff" points="600.99,-1024.67 611.32,-1027.01 604.71,-1018.73 600.99,-1024.67"/>
</a>
</g>
</g>
<!-- Node29 -->
<g id="Node000029" class="node">
<title>Node29</title>
<g id="a_Node000029"><a xlink:href="classcom_1_1runehive_1_1game_1_1world_1_1entity_1_1combat_1_1attack_1_1listener_1_1npc_1_1_commander_zilyana.html#af87c985d1705aa4bca66afe63db30729" target="_top" xlink:title=" ">
<ellipse fill="white" stroke="#666666" cx="274.36" cy="-375.81" rx="231.4" ry="25.81"/>
<text xml:space="preserve" text-anchor="start" x="118.73" y="-378.66" font-family="Helvetica,sans-Serif" font-size="12.00">com.runehive.game.world.entity.combat.attack.listener.npc.</text>
<text xml:space="preserve" text-anchor="middle" x="274.36" y="-364.41" font-family="Helvetica,sans-Serif" font-size="12.00">CommanderZilyana.start</text>
</a>
</g>
</g>
<!-- Node4&#45;&gt;Node29 -->
<g id="edge28_Node000004_Node000029" class="edge">
<title>Node4&#45;&gt;Node29</title>
<g id="a_edge28_Node000004_Node000029"><a xlink:title=" ">
<path fill="none" stroke="#63b8ff" d="M603.14,-1021.98C596.47,-1017.33 590.28,-1011.97 584.71,-1005.81 495.91,-907.52 639.2,-507.56 548.71,-410.81 535.97,-397.18 520.76,-386.89 504.14,-379.24"/>
<polygon fill="#63b8ff" stroke="#63b8ff" points="600.92,-1024.71 611.24,-1027.08 604.65,-1018.79 600.92,-1024.71"/>
</a>
</g>
</g>
<!-- Node30 -->
<g id="Node000030" class="node">
<title>Node30</title>
<g id="a_Node000030"><a xlink:href="classcom_1_1runehive_1_1game_1_1world_1_1entity_1_1combat_1_1attack_1_1listener_1_1npc_1_1_dessourt.html#ad9c94b2e9654f96d456251dd53b90c5d" target="_top" xlink:title=" ">
<ellipse fill="white" stroke="#666666" cx="274.36" cy="-305.81" rx="231.4" ry="25.81"/>
<text xml:space="preserve" text-anchor="start" x="118.73" y="-308.66" font-family="Helvetica,sans-Serif" font-size="12.00">com.runehive.game.world.entity.combat.attack.listener.npc.</text>
<text xml:space="preserve" text-anchor="middle" x="274.36" y="-294.41" font-family="Helvetica,sans-Serif" font-size="12.00">Dessourt.start</text>
</a>
</g>
</g>
<!-- Node4&#45;&gt;Node30 -->
<g id="edge29_Node000004_Node000030" class="edge">
<title>Node4&#45;&gt;Node30</title>
<g id="a_edge29_Node000004_Node000030"><a xlink:title=" ">
<path fill="none" stroke="#63b8ff" d="M603.09,-1022.02C596.44,-1017.36 590.26,-1011.99 584.71,-1005.81 485.85,-895.68 649.46,-449.22 548.71,-340.81 536.01,-327.14 520.84,-316.82 504.23,-309.16"/>
<polygon fill="#63b8ff" stroke="#63b8ff" points="600.86,-1024.75 611.18,-1027.14 604.6,-1018.83 600.86,-1024.75"/>
</a>
</g>
</g>
<!-- Node31 -->
<g id="Node000031" class="node">
<title>Node31</title>
<g id="a_Node000031"><a xlink:href="classcom_1_1runehive_1_1game_1_1world_1_1entity_1_1combat_1_1attack_1_1listener_1_1npc_1_1dragon_1_1_metalic_dragon.html#adb0c33e5aeff0e1285833b4a33548a98" target="_top" xlink:title=" ">
<ellipse fill="white" stroke="#666666" cx="274.36" cy="-235.81" rx="260.04" ry="25.81"/>
<text xml:space="preserve" text-anchor="start" x="98.48" y="-238.66" font-family="Helvetica,sans-Serif" font-size="12.00">com.runehive.game.world.entity.combat.attack.listener.npc.dragon.</text>
<text xml:space="preserve" text-anchor="middle" x="274.36" y="-224.41" font-family="Helvetica,sans-Serif" font-size="12.00">MetalicDragon.start</text>
</a>
</g>
</g>
<!-- Node4&#45;&gt;Node31 -->
<g id="edge30_Node000004_Node000031" class="edge">
<title>Node4&#45;&gt;Node31</title>
<g id="a_edge30_Node000004_Node000031"><a xlink:title=" ">
<path fill="none" stroke="#63b8ff" d="M603.05,-1022.06C596.41,-1017.39 590.24,-1012 584.71,-1005.81 530.25,-944.83 604.22,-330.85 548.71,-270.81 539.21,-260.53 528.32,-252.15 516.46,-245.36"/>
<polygon fill="#63b8ff" stroke="#63b8ff" points="600.81,-1024.78 611.13,-1027.19 604.56,-1018.87 600.81,-1024.78"/>
</a>
</g>
</g>
<!-- Node32 -->
<g id="Node000032" class="node">
<title>Node32</title>
<g id="a_Node000032"><a xlink:href="classcom_1_1runehive_1_1game_1_1world_1_1entity_1_1combat_1_1attack_1_1listener_1_1npc_1_1_flambleed.html#aee7a4d19bcda8f806fd70c7a30ca1702" target="_top" xlink:title=" ">
<ellipse fill="white" stroke="#666666" cx="274.36" cy="-165.81" rx="231.4" ry="25.81"/>
<text xml:space="preserve" text-anchor="start" x="118.73" y="-168.66" font-family="Helvetica,sans-Serif" font-size="12.00">com.runehive.game.world.entity.combat.attack.listener.npc.</text>
<text xml:space="preserve" text-anchor="middle" x="274.36" y="-154.41" font-family="Helvetica,sans-Serif" font-size="12.00">Flambleed.start</text>
</a>
</g>
</g>
<!-- Node4&#45;&gt;Node32 -->
<g id="edge31_Node000004_Node000032" class="edge">
<title>Node4&#45;&gt;Node32</title>
<g id="a_edge31_Node000004_Node000032"><a xlink:title=" ">
<path fill="none" stroke="#63b8ff" d="M603.02,-1022.09C596.38,-1017.41 590.23,-1012.01 584.71,-1005.81 525.22,-938.9 609.36,-266.68 548.71,-200.81 536.08,-187.08 520.95,-176.72 504.37,-169.03"/>
<polygon fill="#63b8ff" stroke="#63b8ff" points="600.77,-1024.8 611.08,-1027.22 604.53,-1018.9 600.77,-1024.8"/>
</a>
</g>
</g>
<!-- Node33 -->
<g id="Node000033" class="node">
<title>Node33</title>
<g id="a_Node000033"><a xlink:href="classcom_1_1runehive_1_1game_1_1world_1_1entity_1_1combat_1_1attack_1_1listener_1_1npc_1_1_karamel.html#accc8d5ada554f3e424ffd4485779aace" target="_top" xlink:title=" ">
<ellipse fill="white" stroke="#666666" cx="274.36" cy="-95.81" rx="231.4" ry="25.81"/>
<text xml:space="preserve" text-anchor="start" x="118.73" y="-98.66" font-family="Helvetica,sans-Serif" font-size="12.00">com.runehive.game.world.entity.combat.attack.listener.npc.</text>
<text xml:space="preserve" text-anchor="middle" x="274.36" y="-84.41" font-family="Helvetica,sans-Serif" font-size="12.00">Karamel.start</text>
</a>
</g>
</g>
<!-- Node4&#45;&gt;Node33 -->
<g id="edge32_Node000004_Node000033" class="edge">
<title>Node4&#45;&gt;Node33</title>
<g id="a_edge32_Node000004_Node000033"><a xlink:title=" ">
<path fill="none" stroke="#63b8ff" d="M602.99,-1022.11C596.36,-1017.43 590.22,-1012.02 584.71,-1005.81 520.18,-932.98 614.49,-202.52 548.71,-130.81 536.1,-117.06 520.99,-106.69 504.43,-98.98"/>
<polygon fill="#63b8ff" stroke="#63b8ff" points="600.74,-1024.82 611.05,-1027.25 604.5,-1018.92 600.74,-1024.82"/>
</a>
</g>
</g>
<!-- Node34 -->
<g id="Node000034" class="node">
<title>Node34</title>
<g id="a_Node000034"><a xlink:href="classcom_1_1runehive_1_1game_1_1world_1_1entity_1_1combat_1_1attack_1_1listener_1_1npc_1_1_ket_zek.html#a12489faf1db0098b11238139e0f6e8c4" target="_top" xlink:title=" ">
<ellipse fill="white" stroke="#666666" cx="274.36" cy="-25.81" rx="231.4" ry="25.81"/>
<text xml:space="preserve" text-anchor="start" x="118.73" y="-28.66" font-family="Helvetica,sans-Serif" font-size="12.00">com.runehive.game.world.entity.combat.attack.listener.npc.</text>
<text xml:space="preserve" text-anchor="middle" x="274.36" y="-14.41" font-family="Helvetica,sans-Serif" font-size="12.00">KetZek.start</text>
</a>
</g>
</g>
<!-- Node4&#45;&gt;Node34 -->
<g id="edge33_Node000004_Node000034" class="edge">
<title>Node4&#45;&gt;Node34</title>
<g id="a_edge33_Node000004_Node000034"><a xlink:title=" ">
<path fill="none" stroke="#63b8ff" d="M602.97,-1022.13C596.35,-1017.44 590.21,-1012.03 584.71,-1005.81 515.15,-927.06 619.63,-138.35 548.71,-60.81 536.12,-47.04 521.02,-36.65 504.47,-28.94"/>
<polygon fill="#63b8ff" stroke="#63b8ff" points="600.71,-1024.84 611.02,-1027.28 604.48,-1018.94 600.71,-1024.84"/>
</a>
</g>
</g>
</g>
</svg>
