<?xml version="1.0" encoding="UTF-8" standalone="no"?>
<!DOCTYPE svg PUBLIC "-//W3C//DTD SVG 1.1//EN"
 "http://www.w3.org/Graphics/SVG/1.1/DTD/svg11.dtd">
<!-- Generated by graphviz version 14.0.1 (20251006.0113)
 -->
<!-- Title: com.runehive.content.activity.Activity.onEvent Pages: 1 -->
<!--zoomable 620 -->

<svg id="main" version="1.1" xmlns="http://www.w3.org/2000/svg" xmlns:xlink="http://www.w3.org/1999/xlink" xml:space="preserve" onload="init(evt)">

<style type="text/css"><![CDATA[
.node, .edge {opacity: 0.7;}
.node.selected, .edge.selected {opacity: 1;}
.edge:hover path { stroke: red; }
.edge:hover polygon { stroke: red; fill: red; }
]]></style>

<defs>
  <circle id="rim" cx="0" cy="0" r="7"/>
  <circle id="rim2" cx="0" cy="0" r="3.5"/>
  <g id="zoomPlus">
    <use xlink:href="#rim" fill="#404040"><set attributeName="fill" to="#808080" begin="zoomplus.mouseover" end="zoomplus.mouseout"/></use>
    <path d="M-4,0h8M0,-4v8" fill="none" stroke="white" stroke-width="1.5" pointer-events="none"/>
  </g>
  <g id="zoomMin">
    <use xlink:href="#rim" fill="#404040"><set attributeName="fill" to="#808080" begin="zoomminus.mouseover" end="zoomminus.mouseout"/></use>
    <path d="M-4,0h8" fill="none" stroke="white" stroke-width="1.5" pointer-events="none"/>
  </g>
  <g id="arrowUp" transform="translate(30 24)">
    <use xlink:href="#rim"/>
    <path pointer-events="none" fill="none" stroke="white" stroke-width="1.5" d="M0,-3.0v7 M-2.5,-0.5L0,-3.0L2.5,-0.5"/>
  </g>
  <g id="arrowRight" transform="rotate(90) translate(36 -43)">
    <use xlink:href="#rim"/>
    <path pointer-events="none" fill="none" stroke="white" stroke-width="1.5" d="M0,-3.0v7 M-2.5,-0.5L0,-3.0L2.5,-0.5"/>
  </g>
  <g id="arrowDown" transform="rotate(180) translate(-30 -48)">
    <use xlink:href="#rim"/>
    <path pointer-events="none" fill="none" stroke="white" stroke-width="1.5" d="M0,-3.0v7 M-2.5,-0.5L0,-3.0L2.5,-0.5"/>
  </g>
  <g id="arrowLeft" transform="rotate(270) translate(-36 17)">
    <use xlink:href="#rim"/>
    <path pointer-events="none" fill="none" stroke="white" stroke-width="1.5" d="M0,-3.0v7 M-2.5,-0.5L0,-3.0L2.5,-0.5"/>
  </g>
  <g id="resetDef">
    <use xlink:href="#rim2" fill="#404040"><set attributeName="fill" to="#808080" begin="reset.mouseover" end="reset.mouseout"/></use>
  </g>
</defs>
<script type="application/ecmascript">
var viewWidth = 800;
var viewHeight = 620;
var sectionId = 'dynsection-21';
</script>
<script type="application/ecmascript" xlink:href="svg.min.js"/>
<svg id="graph" class="graph">
<g id="viewport">
<title>com.runehive.content.activity.Activity.onEvent</title>
<!-- Node1 -->
<g id="Node000001" class="node">
<title>Node1</title>
<g id="a_Node000001"><a xlink:title=" ">
<ellipse fill="#999999" stroke="#666666" cx="121.62" cy="-305.81" rx="121.62" ry="25.81"/>
<text xml:space="preserve" text-anchor="start" x="43.62" y="-308.66" font-family="Helvetica,sans-Serif" font-size="12.00">com.runehive.content.activity.</text>
<text xml:space="preserve" text-anchor="middle" x="121.62" y="-294.41" font-family="Helvetica,sans-Serif" font-size="12.00">Activity.onEvent</text>
</a>
</g>
</g>
<!-- Node2 -->
<g id="Node000002" class="node">
<title>Node2</title>
<g id="a_Node000002"><a xlink:href="classcom_1_1runehive_1_1content_1_1activity_1_1_activity.html#ade67d61a76496fa9d61134876e5eba3b" target="_top" xlink:title=" ">
<ellipse fill="white" stroke="#666666" cx="400.87" cy="-585.81" rx="121.62" ry="25.81"/>
<text xml:space="preserve" text-anchor="start" x="322.87" y="-588.66" font-family="Helvetica,sans-Serif" font-size="12.00">com.runehive.content.activity.</text>
<text xml:space="preserve" text-anchor="middle" x="400.87" y="-574.41" font-family="Helvetica,sans-Serif" font-size="12.00">Activity.clickButton</text>
</a>
</g>
</g>
<!-- Node1&#45;&gt;Node2 -->
<g id="edge1_Node000001_Node000002" class="edge">
<title>Node1&#45;&gt;Node2</title>
<g id="a_edge1_Node000001_Node000002"><a xlink:title=" ">
<path fill="none" stroke="#63b8ff" d="M131.93,-331.64C151.31,-381.7 200.82,-492.15 279.24,-550.81 285.79,-555.7 293,-559.91 300.54,-563.54"/>
<polygon fill="#63b8ff" stroke="#63b8ff" points="299.05,-566.71 309.62,-567.51 301.86,-560.29 299.05,-566.71"/>
</a>
</g>
</g>
<!-- Node3 -->
<g id="Node000003" class="node">
<title>Node3</title>
<g id="a_Node000003"><a xlink:href="classcom_1_1runehive_1_1content_1_1activity_1_1_activity.html#a2dc6f2641a5ed779254549fb753233bb" target="_top" xlink:title=" ">
<ellipse fill="white" stroke="#666666" cx="400.87" cy="-515.81" rx="121.62" ry="25.81"/>
<text xml:space="preserve" text-anchor="start" x="322.87" y="-518.66" font-family="Helvetica,sans-Serif" font-size="12.00">com.runehive.content.activity.</text>
<text xml:space="preserve" text-anchor="middle" x="400.87" y="-504.41" font-family="Helvetica,sans-Serif" font-size="12.00">Activity.clickItem</text>
</a>
</g>
</g>
<!-- Node1&#45;&gt;Node3 -->
<g id="edge2_Node000001_Node000003" class="edge">
<title>Node1&#45;&gt;Node3</title>
<g id="a_edge2_Node000001_Node000003"><a xlink:title=" ">
<path fill="none" stroke="#63b8ff" d="M138.78,-331.63C164.06,-369.91 216.61,-441.4 279.24,-480.81 286.79,-485.56 295,-489.68 303.47,-493.26"/>
<polygon fill="#63b8ff" stroke="#63b8ff" points="301.91,-496.4 312.5,-496.8 304.47,-489.89 301.91,-496.4"/>
</a>
</g>
</g>
<!-- Node4 -->
<g id="Node000004" class="node">
<title>Node4</title>
<g id="a_Node000004"><a xlink:href="classcom_1_1runehive_1_1content_1_1activity_1_1_activity.html#aa8dc3c54d9e93917e1e5d4c51127d759" target="_top" xlink:title=" ">
<ellipse fill="white" stroke="#666666" cx="400.87" cy="-445.81" rx="121.62" ry="25.81"/>
<text xml:space="preserve" text-anchor="start" x="322.87" y="-448.66" font-family="Helvetica,sans-Serif" font-size="12.00">com.runehive.content.activity.</text>
<text xml:space="preserve" text-anchor="middle" x="400.87" y="-434.41" font-family="Helvetica,sans-Serif" font-size="12.00">Activity.clickNpc</text>
</a>
</g>
</g>
<!-- Node1&#45;&gt;Node4 -->
<g id="edge3_Node000001_Node000004" class="edge">
<title>Node1&#45;&gt;Node4</title>
<g id="a_edge3_Node000001_Node000004"><a xlink:title=" ">
<path fill="none" stroke="#63b8ff" d="M153.88,-331.02C184.31,-354.51 232.67,-389.08 279.24,-410.81 288.53,-415.14 298.48,-419.06 308.52,-422.58"/>
<polygon fill="#63b8ff" stroke="#63b8ff" points="307.4,-425.9 318,-425.75 309.63,-419.26 307.4,-425.9"/>
</a>
</g>
</g>
<!-- Node5 -->
<g id="Node000005" class="node">
<title>Node5</title>
<g id="a_Node000005"><a xlink:href="classcom_1_1runehive_1_1content_1_1activity_1_1_activity.html#a55bb6d106362b1e3e08d5244022c76e0" target="_top" xlink:title=" ">
<ellipse fill="white" stroke="#666666" cx="400.87" cy="-375.81" rx="121.62" ry="25.81"/>
<text xml:space="preserve" text-anchor="start" x="322.87" y="-378.66" font-family="Helvetica,sans-Serif" font-size="12.00">com.runehive.content.activity.</text>
<text xml:space="preserve" text-anchor="middle" x="400.87" y="-364.41" font-family="Helvetica,sans-Serif" font-size="12.00">Activity.clickObject</text>
</a>
</g>
</g>
<!-- Node1&#45;&gt;Node5 -->
<g id="edge4_Node000001_Node000005" class="edge">
<title>Node1&#45;&gt;Node5</title>
<g id="a_edge4_Node000001_Node000005"><a xlink:title=" ">
<path fill="none" stroke="#63b8ff" d="M201.33,-325.68C235.42,-334.29 275.5,-344.41 310.69,-353.29"/>
<polygon fill="#63b8ff" stroke="#63b8ff" points="309.42,-356.58 319.98,-355.64 311.14,-349.8 309.42,-356.58"/>
</a>
</g>
</g>
<!-- Node6 -->
<g id="Node000006" class="node">
<title>Node6</title>
<g id="a_Node000006"><a xlink:href="classcom_1_1runehive_1_1content_1_1event_1_1_event_dispatcher.html#a7198d48f0ccb00aa3dc47246b960d7f7" target="_top" xlink:title=" ">
<ellipse fill="white" stroke="#666666" cx="400.87" cy="-305.81" rx="116.85" ry="25.81"/>
<text xml:space="preserve" text-anchor="start" x="326.24" y="-308.66" font-family="Helvetica,sans-Serif" font-size="12.00">com.runehive.content.event.</text>
<text xml:space="preserve" text-anchor="middle" x="400.87" y="-294.41" font-family="Helvetica,sans-Serif" font-size="12.00">EventDispatcher.dispatch</text>
</a>
</g>
</g>
<!-- Node1&#45;&gt;Node6 -->
<g id="edge5_Node000001_Node000006" class="edge">
<title>Node1&#45;&gt;Node6</title>
<g id="a_edge5_Node000001_Node000006"><a xlink:title=" ">
<path fill="none" stroke="#63b8ff" d="M243.42,-305.81C253.07,-305.81 262.83,-305.81 272.53,-305.81"/>
<polygon fill="#63b8ff" stroke="#63b8ff" points="272.35,-309.31 282.35,-305.81 272.35,-302.31 272.35,-309.31"/>
</a>
</g>
</g>
<!-- Node8 -->
<g id="Node000008" class="node">
<title>Node8</title>
<g id="a_Node000008"><a xlink:href="classcom_1_1runehive_1_1content_1_1event_1_1_interaction_event.html#aba69a8005ee49fba86192bd7d6c2056e" target="_top" xlink:title=" ">
<ellipse fill="white" stroke="#666666" cx="400.87" cy="-235.81" rx="116.85" ry="25.81"/>
<text xml:space="preserve" text-anchor="start" x="326.24" y="-238.66" font-family="Helvetica,sans-Serif" font-size="12.00">com.runehive.content.event.</text>
<text xml:space="preserve" text-anchor="middle" x="400.87" y="-224.41" font-family="Helvetica,sans-Serif" font-size="12.00">InteractionEvent.isHandled</text>
</a>
</g>
</g>
<!-- Node1&#45;&gt;Node8 -->
<g id="edge7_Node000001_Node000008" class="edge">
<title>Node1&#45;&gt;Node8</title>
<g id="a_edge7_Node000001_Node000008"><a xlink:title=" ">
<path fill="none" stroke="#63b8ff" d="M201.33,-285.94C235.71,-277.26 276.19,-267.04 311.59,-258.1"/>
<polygon fill="#63b8ff" stroke="#63b8ff" points="312.1,-261.58 320.94,-255.74 310.38,-254.79 312.1,-261.58"/>
</a>
</g>
</g>
<!-- Node9 -->
<g id="Node000009" class="node">
<title>Node9</title>
<g id="a_Node000009"><a xlink:href="classcom_1_1runehive_1_1content_1_1activity_1_1_activity.html#a4dcebd52e4e05db5d77ae1b8329de735" target="_top" xlink:title=" ">
<ellipse fill="white" stroke="#666666" cx="400.87" cy="-165.81" rx="121.62" ry="25.81"/>
<text xml:space="preserve" text-anchor="start" x="322.87" y="-168.66" font-family="Helvetica,sans-Serif" font-size="12.00">com.runehive.content.activity.</text>
<text xml:space="preserve" text-anchor="middle" x="400.87" y="-154.41" font-family="Helvetica,sans-Serif" font-size="12.00">Activity.itemContainerAction</text>
</a>
</g>
</g>
<!-- Node1&#45;&gt;Node9 -->
<g id="edge8_Node000001_Node000009" class="edge">
<title>Node1&#45;&gt;Node9</title>
<g id="a_edge8_Node000001_Node000009"><a xlink:title=" ">
<path fill="none" stroke="#63b8ff" d="M153.88,-280.59C184.31,-257.11 232.67,-222.54 279.24,-200.81 288.53,-196.48 298.48,-192.56 308.52,-189.04"/>
<polygon fill="#63b8ff" stroke="#63b8ff" points="309.63,-192.36 318,-185.87 307.4,-185.72 309.63,-192.36"/>
</a>
</g>
</g>
<!-- Node10 -->
<g id="Node000010" class="node">
<title>Node10</title>
<g id="a_Node000010"><a xlink:href="classcom_1_1runehive_1_1content_1_1activity_1_1_activity.html#a5d352eb2fc92a0f153fb00c261f9428d" target="_top" xlink:title=" ">
<ellipse fill="white" stroke="#666666" cx="400.87" cy="-95.81" rx="121.62" ry="25.81"/>
<text xml:space="preserve" text-anchor="start" x="322.87" y="-98.66" font-family="Helvetica,sans-Serif" font-size="12.00">com.runehive.content.activity.</text>
<text xml:space="preserve" text-anchor="middle" x="400.87" y="-84.41" font-family="Helvetica,sans-Serif" font-size="12.00">Activity.pickupItem</text>
</a>
</g>
</g>
<!-- Node1&#45;&gt;Node10 -->
<g id="edge9_Node000001_Node000010" class="edge">
<title>Node1&#45;&gt;Node10</title>
<g id="a_edge9_Node000001_Node000010"><a xlink:title=" ">
<path fill="none" stroke="#63b8ff" d="M138.78,-279.99C164.06,-241.71 216.61,-170.22 279.24,-130.81 286.79,-126.06 295,-121.94 303.47,-118.36"/>
<polygon fill="#63b8ff" stroke="#63b8ff" points="304.47,-121.73 312.5,-114.82 301.91,-115.21 304.47,-121.73"/>
</a>
</g>
</g>
<!-- Node11 -->
<g id="Node000011" class="node">
<title>Node11</title>
<g id="a_Node000011"><a xlink:href="classcom_1_1runehive_1_1content_1_1activity_1_1_activity.html#a752fde3b831b61bd6905432a2b43e5b5" target="_top" xlink:title=" ">
<ellipse fill="white" stroke="#666666" cx="400.87" cy="-25.81" rx="121.62" ry="25.81"/>
<text xml:space="preserve" text-anchor="start" x="322.87" y="-28.66" font-family="Helvetica,sans-Serif" font-size="12.00">com.runehive.content.activity.</text>
<text xml:space="preserve" text-anchor="middle" x="400.87" y="-14.41" font-family="Helvetica,sans-Serif" font-size="12.00">Activity.useItem</text>
</a>
</g>
</g>
<!-- Node1&#45;&gt;Node11 -->
<g id="edge10_Node000001_Node000011" class="edge">
<title>Node1&#45;&gt;Node11</title>
<g id="a_edge10_Node000001_Node000011"><a xlink:title=" ">
<path fill="none" stroke="#63b8ff" d="M131.93,-279.98C151.31,-229.92 200.82,-119.47 279.24,-60.81 285.79,-55.92 293,-51.7 300.54,-48.08"/>
<polygon fill="#63b8ff" stroke="#63b8ff" points="301.86,-51.32 309.62,-44.1 299.05,-44.91 301.86,-51.32"/>
</a>
</g>
</g>
<!-- Node7 -->
<g id="Node000007" class="node">
<title>Node7</title>
<g id="a_Node000007"><a xlink:href="interfacecom_1_1runehive_1_1content_1_1event_1_1_event_handler.html#aed23426b070f146a6578af227120fee5" target="_top" xlink:title=" ">
<ellipse fill="white" stroke="#666666" cx="675.34" cy="-305.81" rx="116.85" ry="25.81"/>
<text xml:space="preserve" text-anchor="start" x="600.71" y="-308.66" font-family="Helvetica,sans-Serif" font-size="12.00">com.runehive.content.event.</text>
<text xml:space="preserve" text-anchor="middle" x="675.34" y="-294.41" font-family="Helvetica,sans-Serif" font-size="12.00">EventHandler.handle</text>
</a>
</g>
</g>
<!-- Node6&#45;&gt;Node7 -->
<g id="edge6_Node000006_Node000007" class="edge">
<title>Node6&#45;&gt;Node7</title>
<g id="a_edge6_Node000006_Node000007"><a xlink:title=" ">
<path fill="none" stroke="#63b8ff" d="M518.21,-305.81C527.77,-305.81 537.47,-305.81 547.11,-305.81"/>
<polygon fill="#63b8ff" stroke="#63b8ff" points="546.87,-309.31 556.87,-305.81 546.87,-302.31 546.87,-309.31"/>
</a>
</g>
</g>
</g>
</svg>

<g id="navigator" transform="translate(0 0)" fill="#404254">
  <rect fill="#f2f5e9" fill-opacity="0.5" stroke="#606060" stroke-width=".5" x="0" y="0" width="60" height="60"/>
  <use id="zoomplus" xlink:href="#zoomPlus" x="17" y="9" onmousedown="handleZoom(evt,'in')"/>
  <use id="zoomminus" xlink:href="#zoomMin" x="42" y="9" onmousedown="handleZoom(evt,'out')"/>
  <use id="reset" xlink:href="#resetDef" x="30" y="36" onmousedown="handleReset()"/>
   <use id="arrowup" xlink:href="#arrowUp" x="0" y="0" onmousedown="handlePan(0,-1)"/>
  <use id="arrowright" xlink:href="#arrowRight" x="0" y="0" onmousedown="handlePan(1,0)"/>
  <use id="arrowdown" xlink:href="#arrowDown" x="0" y="0" onmousedown="handlePan(0,1)"/>
  <use id="arrowleft" xlink:href="#arrowLeft" x="0" y="0" onmousedown="handlePan(-1,0)"/>
</g>
<svg viewBox="0 0 15 15" width="100%" height="30px" preserveAspectRatio="xMaxYMin meet">
 <g id="arrow_out" transform="scale(0.3 0.3)">
  <a xlink:href="classcom_1_1runehive_1_1content_1_1activity_1_1_activity_abe2b7fb90cff9a51ba529ce01a753e2f_cgraph_org.svg" target="_base">
   <rect id="button" ry="5" rx="5" y="6" x="6" height="38" width="38"
        fill="#f2f5e9" fill-opacity="0.5" stroke="#606060" stroke-width="1.0"/>
   <path id="arrow"
     d="M 11.500037,31.436501 C 11.940474,20.09759 22.043105,11.32322 32.158766,21.979434 L 37.068811,17.246167 C 37.068811,17.246167 37.088388,32 37.088388,32 L 22.160133,31.978069 C 22.160133,31.978069 26.997745,27.140456 26.997745,27.140456 C 18.528582,18.264221 13.291696,25.230495 11.500037,31.436501 z"
     style="fill:#404040;"/>
  </a>
 </g>
</svg>

<style type='text/css'>
<![CDATA[
[data-mouse-over-selected='false'] { opacity: 0.7; }
[data-mouse-over-selected='true']  { opacity: 1.0; }
]]>
</style>
<script type="application/ecmascript"><![CDATA[
document.addEventListener('DOMContentLoaded', (event) => {
  highlightEdges();
  highlightAdjacentNodes();
});
]]></script>
</svg>
