<?xml version="1.0" encoding="UTF-8" standalone="no"?>
<!DOCTYPE svg PUBLIC "-//W3C//DTD SVG 1.1//EN"
 "http://www.w3.org/Graphics/SVG/1.1/DTD/svg11.dtd">
<!-- Generated by graphviz version 14.0.1 (20251006.0113)
 -->
<!-- Title: com.runehive.content.skill.impl.magic.spell.SpellCasting.cast Pages: 1 -->
<svg width="1644pt" height="553pt"
 viewBox="0.00 0.00 1644.00 553.00" xmlns="http://www.w3.org/2000/svg" xmlns:xlink="http://www.w3.org/1999/xlink">
<g id="graph0" class="graph" transform="scale(1 1) rotate(0) translate(4 548.62)">
<title>com.runehive.content.skill.impl.magic.spell.SpellCasting.cast</title>
<!-- Node1 -->
<g id="Node000001" class="node">
<title>Node1</title>
<g id="a_Node000001"><a xlink:title="Handles casting a combat spell.">
<ellipse fill="#999999" stroke="#666666" cx="174.13" cy="-343.81" rx="174.13" ry="25.81"/>
<text xml:space="preserve" text-anchor="start" x="59" y="-346.66" font-family="Helvetica,sans-Serif" font-size="12.00">com.runehive.content.skill.impl.magic.spell.</text>
<text xml:space="preserve" text-anchor="middle" x="174.13" y="-332.41" font-family="Helvetica,sans-Serif" font-size="12.00">SpellCasting.cast</text>
</a>
</g>
</g>
<!-- Node2 -->
<g id="Node000002" class="node">
<title>Node2</title>
<g id="a_Node000002"><a xlink:href="classcom_1_1runehive_1_1content_1_1activity_1_1_activity.html#aca809d07e972e77c942bf91754907afe" target="_top" xlink:title=" ">
<ellipse fill="white" stroke="#666666" cx="571.1" cy="-518.81" rx="121.62" ry="25.81"/>
<text xml:space="preserve" text-anchor="start" x="493.1" y="-521.66" font-family="Helvetica,sans-Serif" font-size="12.00">com.runehive.content.activity.</text>
<text xml:space="preserve" text-anchor="middle" x="571.1" y="-507.41" font-family="Helvetica,sans-Serif" font-size="12.00">Activity.evaluate</text>
</a>
</g>
</g>
<!-- Node1&#45;&gt;Node2 -->
<g id="edge1_Node000001_Node000002" class="edge">
<title>Node1&#45;&gt;Node2</title>
<g id="a_edge1_Node000001_Node000002"><a xlink:title=" ">
<path fill="none" stroke="#63b8ff" d="M205.09,-369.67C243.79,-401.64 314.49,-455.29 384.25,-483.81 405.76,-492.6 429.59,-499.21 452.81,-504.17"/>
<polygon fill="#63b8ff" stroke="#63b8ff" points="451.8,-507.53 462.3,-506.1 453.2,-500.67 451.8,-507.53"/>
</a>
</g>
</g>
<!-- Node3 -->
<g id="Node000003" class="node">
<title>Node3</title>
<g id="a_Node000003"><a xlink:href="interfacecom_1_1runehive_1_1content_1_1skill_1_1impl_1_1magic_1_1spell_1_1_spell.html#a136be0b19c90a69a8a609ab291fcd08c" target="_top" xlink:title="Gets the level required to cast spell.">
<ellipse fill="white" stroke="#666666" cx="571.1" cy="-448.81" rx="174.13" ry="25.81"/>
<text xml:space="preserve" text-anchor="start" x="455.98" y="-451.66" font-family="Helvetica,sans-Serif" font-size="12.00">com.runehive.content.skill.impl.magic.spell.</text>
<text xml:space="preserve" text-anchor="middle" x="571.1" y="-437.41" font-family="Helvetica,sans-Serif" font-size="12.00">Spell.getLevel</text>
</a>
</g>
</g>
<!-- Node1&#45;&gt;Node3 -->
<g id="edge2_Node000001_Node000003" class="edge">
<title>Node1&#45;&gt;Node3</title>
<g id="a_edge2_Node000001_Node000003"><a xlink:title=" ">
<path fill="none" stroke="#63b8ff" d="M239.9,-368.04C280.86,-382.73 335.16,-401.03 384.25,-413.81 402.93,-418.67 422.83,-423.14 442.41,-427.15"/>
<polygon fill="#63b8ff" stroke="#63b8ff" points="441.59,-430.56 452.08,-429.1 442.97,-423.69 441.59,-430.56"/>
</a>
</g>
</g>
<!-- Node4 -->
<g id="Node000004" class="node">
<title>Node4</title>
<g id="a_Node000004"><a xlink:href="interfacecom_1_1runehive_1_1content_1_1skill_1_1impl_1_1magic_1_1spell_1_1_spell.html#aa6faa2b4ff380d14bd3914e5d940f9c1" target="_top" xlink:title="Gets the name of the spell.">
<ellipse fill="white" stroke="#666666" cx="571.1" cy="-378.81" rx="174.13" ry="25.81"/>
<text xml:space="preserve" text-anchor="start" x="455.98" y="-381.66" font-family="Helvetica,sans-Serif" font-size="12.00">com.runehive.content.skill.impl.magic.spell.</text>
<text xml:space="preserve" text-anchor="middle" x="571.1" y="-367.41" font-family="Helvetica,sans-Serif" font-size="12.00">Spell.getName</text>
</a>
</g>
</g>
<!-- Node1&#45;&gt;Node4 -->
<g id="edge3_Node000001_Node000004" class="edge">
<title>Node1&#45;&gt;Node4</title>
<g id="a_edge3_Node000001_Node000004"><a xlink:title=" ">
<path fill="none" stroke="#63b8ff" d="M324.73,-357.07C352.27,-359.51 381.13,-362.06 408.99,-364.53"/>
<polygon fill="#63b8ff" stroke="#63b8ff" points="408.66,-368.02 418.93,-365.41 409.28,-361.04 408.66,-368.02"/>
</a>
</g>
</g>
<!-- Node5 -->
<g id="Node000005" class="node">
<title>Node5</title>
<g id="a_Node000005"><a xlink:href="interfacecom_1_1runehive_1_1content_1_1skill_1_1impl_1_1magic_1_1spell_1_1_spell.html#ac29718420520442b8c68ac783d763a98" target="_top" xlink:title="Gets the runes required to cast the spell.">
<ellipse fill="white" stroke="#666666" cx="571.1" cy="-308.81" rx="174.13" ry="25.81"/>
<text xml:space="preserve" text-anchor="start" x="455.98" y="-311.66" font-family="Helvetica,sans-Serif" font-size="12.00">com.runehive.content.skill.impl.magic.spell.</text>
<text xml:space="preserve" text-anchor="middle" x="571.1" y="-297.41" font-family="Helvetica,sans-Serif" font-size="12.00">Spell.getRunes</text>
</a>
</g>
</g>
<!-- Node1&#45;&gt;Node5 -->
<g id="edge4_Node000001_Node000005" class="edge">
<title>Node1&#45;&gt;Node5</title>
<g id="a_edge4_Node000001_Node000005"><a xlink:title=" ">
<path fill="none" stroke="#63b8ff" d="M324.73,-330.55C352.27,-328.11 381.13,-325.55 408.99,-323.09"/>
<polygon fill="#63b8ff" stroke="#63b8ff" points="409.28,-326.57 418.93,-322.2 408.66,-319.6 409.28,-326.57"/>
</a>
</g>
</g>
<!-- Node6 -->
<g id="Node000006" class="node">
<title>Node6</title>
<g id="a_Node000006"><a xlink:href="enumcom_1_1runehive_1_1game_1_1world_1_1entity_1_1combat_1_1magic_1_1_magic_rune.html#abab9d18218ffd2bc992e1b7ca77ec8ee" target="_top" xlink:title=" ">
<ellipse fill="white" stroke="#666666" cx="571.1" cy="-238.81" rx="186.85" ry="25.81"/>
<text xml:space="preserve" text-anchor="start" x="446.98" y="-241.66" font-family="Helvetica,sans-Serif" font-size="12.00">com.runehive.game.world.entity.combat.magic.</text>
<text xml:space="preserve" text-anchor="middle" x="571.1" y="-227.41" font-family="Helvetica,sans-Serif" font-size="12.00">MagicRune.hasRunes</text>
</a>
</g>
</g>
<!-- Node1&#45;&gt;Node6 -->
<g id="edge5_Node000001_Node000006" class="edge">
<title>Node1&#45;&gt;Node6</title>
<g id="a_edge5_Node000001_Node000006"><a xlink:title=" ">
<path fill="none" stroke="#63b8ff" d="M239.9,-319.57C280.86,-304.89 335.16,-286.58 384.25,-273.81 401.96,-269.2 420.78,-264.94 439.37,-261.09"/>
<polygon fill="#63b8ff" stroke="#63b8ff" points="440,-264.53 449.11,-259.11 438.61,-257.67 440,-264.53"/>
</a>
</g>
</g>
<!-- Node16 -->
<g id="Node000016" class="node">
<title>Node16</title>
<g id="a_Node000016"><a xlink:href="enumcom_1_1runehive_1_1game_1_1world_1_1entity_1_1mob_1_1player_1_1_player_right.html#ab172498577cbeded823a06bb1726a849" target="_top" xlink:title="Checks if the player has developer status.">
<ellipse fill="white" stroke="#666666" cx="571.1" cy="-168.81" rx="175.72" ry="25.81"/>
<text xml:space="preserve" text-anchor="start" x="454.85" y="-171.66" font-family="Helvetica,sans-Serif" font-size="12.00">com.runehive.game.world.entity.mob.player.</text>
<text xml:space="preserve" text-anchor="middle" x="571.1" y="-157.41" font-family="Helvetica,sans-Serif" font-size="12.00">PlayerRight.isDeveloper</text>
</a>
</g>
</g>
<!-- Node1&#45;&gt;Node16 -->
<g id="edge18_Node000001_Node000016" class="edge">
<title>Node1&#45;&gt;Node16</title>
<g id="a_edge18_Node000001_Node000016"><a xlink:title=" ">
<path fill="none" stroke="#63b8ff" d="M205.09,-317.94C243.79,-285.98 314.49,-232.33 384.25,-203.81 398.57,-197.95 413.92,-193.07 429.43,-189"/>
<polygon fill="#63b8ff" stroke="#63b8ff" points="429.86,-192.5 438.71,-186.67 428.16,-185.7 429.86,-192.5"/>
</a>
</g>
</g>
<!-- Node7 -->
<g id="Node000007" class="node">
<title>Node7</title>
<g id="a_Node000007"><a xlink:href="classcom_1_1runehive_1_1content_1_1skill_1_1impl_1_1magic_1_1_rune_pouch.html#a3674d59af0717a4f119767b71faa967b" target="_top" xlink:title=" ">
<ellipse fill="white" stroke="#666666" cx="1009.98" cy="-419.81" rx="153.97" ry="25.81"/>
<text xml:space="preserve" text-anchor="start" x="909.1" y="-422.66" font-family="Helvetica,sans-Serif" font-size="12.00">com.runehive.content.skill.impl.magic.</text>
<text xml:space="preserve" text-anchor="middle" x="1009.98" y="-408.41" font-family="Helvetica,sans-Serif" font-size="12.00">RunePouch.contains</text>
</a>
</g>
</g>
<!-- Node6&#45;&gt;Node7 -->
<g id="edge6_Node000006_Node000007" class="edge">
<title>Node6&#45;&gt;Node7</title>
<g id="a_edge6_Node000006_Node000007"><a xlink:title=" ">
<path fill="none" stroke="#63b8ff" d="M725.48,-253.53C737.25,-258.77 748.29,-265.42 757.96,-273.81 795.53,-306.42 756.34,-347.24 793.96,-379.81 809.89,-393.61 829.03,-403.31 849.23,-410.03"/>
<polygon fill="#63b8ff" stroke="#63b8ff" points="848.18,-413.37 858.77,-412.93 850.22,-406.67 848.18,-413.37"/>
</a>
</g>
</g>
<!-- Node9 -->
<g id="Node000009" class="node">
<title>Node9</title>
<g id="a_Node000009"><a xlink:href="classcom_1_1runehive_1_1game_1_1world_1_1items_1_1_item.html#a1cec21ca5ef1783808d4ca9de1051a29" target="_top" xlink:title="Gets the identification of this item.">
<ellipse fill="white" stroke="#666666" cx="1448.85" cy="-365.81" rx="132.76" ry="25.81"/>
<text xml:space="preserve" text-anchor="start" x="1362.98" y="-368.66" font-family="Helvetica,sans-Serif" font-size="12.00">com.runehive.game.world.items.</text>
<text xml:space="preserve" text-anchor="middle" x="1448.85" y="-354.41" font-family="Helvetica,sans-Serif" font-size="12.00">Item.getId</text>
</a>
</g>
</g>
<!-- Node6&#45;&gt;Node9 -->
<g id="edge14_Node000006_Node000009" class="edge">
<title>Node6&#45;&gt;Node9</title>
<g id="a_edge14_Node000006_Node000009"><a xlink:title=" ">
<path fill="none" stroke="#63b8ff" d="M720.33,-254.69C733.68,-259.62 746.48,-265.88 757.96,-273.81 783.23,-291.27 767.56,-317.1 793.96,-332.81 877.93,-382.77 1144.03,-380.51 1309.76,-373.63"/>
<polygon fill="#63b8ff" stroke="#63b8ff" points="1309.67,-377.14 1319.51,-373.22 1309.37,-370.15 1309.67,-377.14"/>
</a>
</g>
</g>
<!-- Node10 -->
<g id="Node000010" class="node">
<title>Node10</title>
<g id="a_Node000010"><a xlink:href="classcom_1_1runehive_1_1game_1_1world_1_1items_1_1containers_1_1_item_container.html#a8acf6f1c920076daea6c80e5afbe3404" target="_top" xlink:title="Determines if this container contains id.">
<ellipse fill="white" stroke="#666666" cx="1448.85" cy="-284.81" rx="174.13" ry="25.81"/>
<text xml:space="preserve" text-anchor="start" x="1333.73" y="-287.66" font-family="Helvetica,sans-Serif" font-size="12.00">com.runehive.game.world.items.containers.</text>
<text xml:space="preserve" text-anchor="middle" x="1448.85" y="-273.41" font-family="Helvetica,sans-Serif" font-size="12.00">ItemContainer.contains</text>
</a>
</g>
</g>
<!-- Node6&#45;&gt;Node10 -->
<g id="edge9_Node000006_Node000010" class="edge">
<title>Node6&#45;&gt;Node10</title>
<g id="a_edge9_Node000006_Node000010"><a xlink:title=" ">
<path fill="none" stroke="#63b8ff" d="M712.13,-255.92C728.05,-260.54 743.68,-266.4 757.96,-273.81 777.76,-284.09 773.28,-300.42 793.96,-308.81 883.41,-345.13 1142.33,-322.64 1306.25,-303.42"/>
<polygon fill="#63b8ff" stroke="#63b8ff" points="1306.37,-306.93 1315.89,-302.28 1305.55,-299.98 1306.37,-306.93"/>
</a>
</g>
</g>
<!-- Node11 -->
<g id="Node000011" class="node">
<title>Node11</title>
<g id="a_Node000011"><a xlink:href="enumcom_1_1runehive_1_1game_1_1world_1_1entity_1_1combat_1_1magic_1_1_magic_rune.html#ae8756643550af3a280518538594afd1d" target="_top" xlink:title=" ">
<ellipse fill="white" stroke="#666666" cx="1009.98" cy="-273.81" rx="186.85" ry="25.81"/>
<text xml:space="preserve" text-anchor="start" x="885.85" y="-276.66" font-family="Helvetica,sans-Serif" font-size="12.00">com.runehive.game.world.entity.combat.magic.</text>
<text xml:space="preserve" text-anchor="middle" x="1009.98" y="-262.41" font-family="Helvetica,sans-Serif" font-size="12.00">MagicRune.containsCombo</text>
</a>
</g>
</g>
<!-- Node6&#45;&gt;Node11 -->
<g id="edge10_Node000006_Node000011" class="edge">
<title>Node6&#45;&gt;Node11</title>
<g id="a_edge10_Node000006_Node000011"><a xlink:title=" ">
<path fill="none" stroke="#63b8ff" d="M733.85,-251.77C767.13,-254.43 802.31,-257.25 835.98,-259.95"/>
<polygon fill="#63b8ff" stroke="#63b8ff" points="835.57,-263.43 845.82,-260.74 836.13,-256.45 835.57,-263.43"/>
</a>
</g>
</g>
<!-- Node12 -->
<g id="Node000012" class="node">
<title>Node12</title>
<g id="a_Node000012"><a xlink:href="enumcom_1_1runehive_1_1game_1_1world_1_1entity_1_1combat_1_1magic_1_1_magic_rune.html#ac2acea512687cf106fbbca361a58e01f" target="_top" xlink:title=" ">
<ellipse fill="white" stroke="#666666" cx="1009.98" cy="-203.81" rx="186.85" ry="25.81"/>
<text xml:space="preserve" text-anchor="start" x="885.85" y="-206.66" font-family="Helvetica,sans-Serif" font-size="12.00">com.runehive.game.world.entity.combat.magic.</text>
<text xml:space="preserve" text-anchor="middle" x="1009.98" y="-192.41" font-family="Helvetica,sans-Serif" font-size="12.00">MagicRune.forMainId</text>
</a>
</g>
</g>
<!-- Node6&#45;&gt;Node12 -->
<g id="edge12_Node000006_Node000012" class="edge">
<title>Node6&#45;&gt;Node12</title>
<g id="a_edge12_Node000006_Node000012"><a xlink:title=" ">
<path fill="none" stroke="#63b8ff" d="M733.85,-225.85C767.13,-223.18 802.31,-220.37 835.98,-217.67"/>
<polygon fill="#63b8ff" stroke="#63b8ff" points="836.13,-221.17 845.82,-216.88 835.57,-214.19 836.13,-221.17"/>
</a>
</g>
</g>
<!-- Node13 -->
<g id="Node000013" class="node">
<title>Node13</title>
<g id="a_Node000013"><a xlink:href="enumcom_1_1runehive_1_1game_1_1world_1_1entity_1_1combat_1_1magic_1_1_magic_rune.html#a779a75a6087abe18b40e0c9b2446bc51" target="_top" xlink:title=" ">
<ellipse fill="white" stroke="#666666" cx="1448.85" cy="-176.81" rx="186.85" ry="25.81"/>
<text xml:space="preserve" text-anchor="start" x="1324.73" y="-179.66" font-family="Helvetica,sans-Serif" font-size="12.00">com.runehive.game.world.entity.combat.magic.</text>
<text xml:space="preserve" text-anchor="middle" x="1448.85" y="-165.41" font-family="Helvetica,sans-Serif" font-size="12.00">MagicRune.MagicRune</text>
</a>
</g>
</g>
<!-- Node6&#45;&gt;Node13 -->
<g id="edge17_Node000006_Node000013" class="edge">
<title>Node6&#45;&gt;Node13</title>
<g id="a_edge17_Node000006_Node000013"><a xlink:title=" ">
<path fill="none" stroke="#63b8ff" d="M712.13,-221.7C728.05,-217.08 743.68,-211.22 757.96,-203.81 777.76,-193.53 773.28,-177.2 793.96,-168.81 879.63,-134.03 1120.99,-146.75 1285.25,-160.6"/>
<polygon fill="#63b8ff" stroke="#63b8ff" points="1284.68,-164.06 1294.94,-161.43 1285.27,-157.09 1284.68,-164.06"/>
</a>
</g>
</g>
<!-- Node14 -->
<g id="Node000014" class="node">
<title>Node14</title>
<g id="a_Node000014"><a xlink:href="classcom_1_1runehive_1_1game_1_1world_1_1items_1_1containers_1_1equipment_1_1_equipment.html#aa0dfc3c7a34a4e931df6ad3f05447f2c" target="_top" xlink:title=" ">
<ellipse fill="white" stroke="#666666" cx="1009.98" cy="-95.81" rx="216.02" ry="25.81"/>
<text xml:space="preserve" text-anchor="start" x="865.23" y="-98.66" font-family="Helvetica,sans-Serif" font-size="12.00">com.runehive.game.world.items.containers.equipment.</text>
<text xml:space="preserve" text-anchor="middle" x="1009.98" y="-84.41" font-family="Helvetica,sans-Serif" font-size="12.00">Equipment.getWeapon</text>
</a>
</g>
</g>
<!-- Node6&#45;&gt;Node14 -->
<g id="edge15_Node000006_Node000014" class="edge">
<title>Node6&#45;&gt;Node14</title>
<g id="a_edge15_Node000006_Node000014"><a xlink:title=" ">
<path fill="none" stroke="#63b8ff" d="M721.78,-223.29C734.69,-218.27 746.99,-211.89 757.96,-203.81 785.49,-183.52 766.4,-156.06 793.96,-135.81 804.71,-127.9 816.57,-121.41 829.02,-116.1"/>
<polygon fill="#63b8ff" stroke="#63b8ff" points="830.19,-119.4 838.2,-112.47 827.62,-112.89 830.19,-119.4"/>
</a>
</g>
</g>
<!-- Node15 -->
<g id="Node000015" class="node">
<title>Node15</title>
<g id="a_Node000015"><a xlink:href="enumcom_1_1runehive_1_1game_1_1world_1_1entity_1_1combat_1_1magic_1_1_magic_rune.html#a306cb948a5b010e0e681bef90a17062e" target="_top" xlink:title=" ">
<ellipse fill="white" stroke="#666666" cx="1009.98" cy="-25.81" rx="186.85" ry="25.81"/>
<text xml:space="preserve" text-anchor="start" x="885.85" y="-28.66" font-family="Helvetica,sans-Serif" font-size="12.00">com.runehive.game.world.entity.combat.magic.</text>
<text xml:space="preserve" text-anchor="middle" x="1009.98" y="-14.41" font-family="Helvetica,sans-Serif" font-size="12.00">MagicRune.isStaff</text>
</a>
</g>
</g>
<!-- Node6&#45;&gt;Node15 -->
<g id="edge16_Node000006_Node000015" class="edge">
<title>Node6&#45;&gt;Node15</title>
<g id="a_edge16_Node000006_Node000015"><a xlink:title=" ">
<path fill="none" stroke="#63b8ff" d="M727.12,-224.5C738.39,-219.14 748.87,-212.36 757.96,-203.81 805.68,-158.89 745.68,-105.13 793.96,-60.81 803.18,-52.34 813.62,-45.47 824.8,-39.94"/>
<polygon fill="#63b8ff" stroke="#63b8ff" points="826.2,-43.15 833.88,-35.85 823.32,-36.77 826.2,-43.15"/>
</a>
</g>
</g>
<!-- Node8 -->
<g id="Node000008" class="node">
<title>Node8</title>
<g id="a_Node000008"><a xlink:href="classcom_1_1runehive_1_1game_1_1world_1_1items_1_1_item.html#a469ed0805255f62514005f11dc213676" target="_top" xlink:title="Gets the quantity of this item.">
<ellipse fill="white" stroke="#666666" cx="1448.85" cy="-435.81" rx="132.76" ry="25.81"/>
<text xml:space="preserve" text-anchor="start" x="1362.98" y="-438.66" font-family="Helvetica,sans-Serif" font-size="12.00">com.runehive.game.world.items.</text>
<text xml:space="preserve" text-anchor="middle" x="1448.85" y="-424.41" font-family="Helvetica,sans-Serif" font-size="12.00">Item.getAmount</text>
</a>
</g>
</g>
<!-- Node7&#45;&gt;Node8 -->
<g id="edge7_Node000007_Node000008" class="edge">
<title>Node7&#45;&gt;Node8</title>
<g id="a_edge7_Node000007_Node000008"><a xlink:title=" ">
<path fill="none" stroke="#63b8ff" d="M1161.02,-425.3C1208.12,-427.03 1259.95,-428.93 1306.43,-430.63"/>
<polygon fill="#63b8ff" stroke="#63b8ff" points="1306.18,-434.12 1316.3,-430.99 1306.44,-427.13 1306.18,-434.12"/>
</a>
</g>
</g>
<!-- Node7&#45;&gt;Node9 -->
<g id="edge8_Node000007_Node000009" class="edge">
<title>Node7&#45;&gt;Node9</title>
<g id="a_edge8_Node000007_Node000009"><a xlink:title=" ">
<path fill="none" stroke="#63b8ff" d="M1135.29,-404.44C1194.65,-397.11 1265.47,-388.35 1324.68,-381.03"/>
<polygon fill="#63b8ff" stroke="#63b8ff" points="1324.98,-384.52 1334.48,-379.82 1324.13,-377.58 1324.98,-384.52"/>
</a>
</g>
</g>
<!-- Node11&#45;&gt;Node10 -->
<g id="edge11_Node000011_Node000010" class="edge">
<title>Node11&#45;&gt;Node10</title>
<g id="a_edge11_Node000011_Node000010"><a xlink:title=" ">
<path fill="none" stroke="#63b8ff" d="M1194.35,-278.43C1217.83,-279.02 1241.86,-279.62 1265.33,-280.21"/>
<polygon fill="#63b8ff" stroke="#63b8ff" points="1265.2,-283.71 1275.28,-280.46 1265.38,-276.71 1265.2,-283.71"/>
</a>
</g>
</g>
<!-- Node12&#45;&gt;Node13 -->
<g id="edge13_Node000012_Node000013" class="edge">
<title>Node12&#45;&gt;Node13</title>
<g id="a_edge13_Node000012_Node000013"><a xlink:title=" ">
<path fill="none" stroke="#63b8ff" d="M1181.45,-193.27C1209.25,-191.56 1238.13,-189.77 1266.19,-188.04"/>
<polygon fill="#63b8ff" stroke="#63b8ff" points="1266.04,-191.55 1275.8,-187.44 1265.6,-184.57 1266.04,-191.55"/>
</a>
</g>
</g>
</g>
</svg>
