<?xml version="1.0" encoding="UTF-8" standalone="no"?>
<!DOCTYPE svg PUBLIC "-//W3C//DTD SVG 1.1//EN"
 "http://www.w3.org/Graphics/SVG/1.1/DTD/svg11.dtd">
<!-- Generated by graphviz version 14.0.1 (20251006.0113)
 -->
<!-- Title: com.runehive.game.world.entity.mob.player.Player.getSpecialPercentage Pages: 1 -->
<svg width="1069pt" height="500pt"
 viewBox="0.00 0.00 1069.00 500.00" xmlns="http://www.w3.org/2000/svg" xmlns:xlink="http://www.w3.org/1999/xlink">
<g id="graph0" class="graph" transform="scale(1 1) rotate(0) translate(4 495.62)">
<title>com.runehive.game.world.entity.mob.player.Player.getSpecialPercentage</title>
<!-- Node1 -->
<g id="Node000001" class="node">
<title>Node1</title>
<g id="a_Node000001"><a xlink:title=" ">
<ellipse fill="#999999" stroke="#666666" cx="884.82" cy="-245.81" rx="175.72" ry="25.81"/>
<text xml:space="preserve" text-anchor="start" x="768.57" y="-248.66" font-family="Helvetica,sans-Serif" font-size="12.00">com.runehive.game.world.entity.mob.player.</text>
<text xml:space="preserve" text-anchor="middle" x="884.82" y="-234.41" font-family="Helvetica,sans-Serif" font-size="12.00">Player.getSpecialPercentage</text>
</a>
</g>
</g>
<!-- Node2 -->
<g id="Node000002" class="node">
<title>Node2</title>
<g id="a_Node000002"><a xlink:href="classcom_1_1runehive_1_1net_1_1packet_1_1out_1_1_send_special_amount.html#a1cc6f12b74d536b5912fade6fefb5f22" target="_top" xlink:title=" ">
<ellipse fill="white" stroke="#666666" cx="513.83" cy="-465.81" rx="119.5" ry="25.81"/>
<text xml:space="preserve" text-anchor="start" x="437.33" y="-468.66" font-family="Helvetica,sans-Serif" font-size="12.00">com.runehive.net.packet.out.</text>
<text xml:space="preserve" text-anchor="middle" x="513.83" y="-454.41" font-family="Helvetica,sans-Serif" font-size="12.00">SendSpecialAmount.encode</text>
</a>
</g>
</g>
<!-- Node1&#45;&gt;Node2 -->
<g id="edge1_Node000001_Node000002" class="edge">
<title>Node1&#45;&gt;Node2</title>
<g id="a_edge1_Node000001_Node000002"><a xlink:title=" ">
<path fill="none" stroke="#63b8ff" d="M854.63,-280.43C817.06,-322.64 747.7,-393.01 673.1,-430.81 655.03,-439.97 634.6,-446.75 614.58,-451.75"/>
<polygon fill="#63b8ff" stroke="#63b8ff" points="857.18,-282.83 861.15,-273.01 851.92,-278.21 857.18,-282.83"/>
</a>
</g>
</g>
<!-- Node3 -->
<g id="Node000003" class="node">
<title>Node3</title>
<g id="a_Node000003"><a xlink:href="classcom_1_1runehive_1_1content_1_1bot_1_1botclass_1_1impl_1_1_a_g_s_rune_melee.html#a55d0672cac4ec1d8f6cd327dc5882c89" target="_top" xlink:title=" ">
<ellipse fill="white" stroke="#666666" cx="513.83" cy="-377.81" rx="159.28" ry="25.81"/>
<text xml:space="preserve" text-anchor="start" x="409.2" y="-380.66" font-family="Helvetica,sans-Serif" font-size="12.00">com.runehive.content.bot.botclass.impl.</text>
<text xml:space="preserve" text-anchor="middle" x="513.83" y="-366.41" font-family="Helvetica,sans-Serif" font-size="12.00">AGSRuneMelee.hit</text>
</a>
</g>
</g>
<!-- Node1&#45;&gt;Node3 -->
<g id="edge2_Node000001_Node000003" class="edge">
<title>Node1&#45;&gt;Node3</title>
<g id="a_edge2_Node000001_Node000003"><a xlink:title=" ">
<path fill="none" stroke="#63b8ff" d="M826.67,-276.17C785.04,-297.28 726.77,-324.76 673.1,-342.81 655.9,-348.6 637.32,-353.69 619.14,-358.07"/>
<polygon fill="#63b8ff" stroke="#63b8ff" points="828.23,-279.31 835.54,-271.64 825.04,-273.07 828.23,-279.31"/>
</a>
</g>
</g>
<!-- Node5 -->
<g id="Node000005" class="node">
<title>Node5</title>
<g id="a_Node000005"><a xlink:href="classcom_1_1runehive_1_1content_1_1bot_1_1botclass_1_1impl_1_1_pure_melee.html#ae60e5a340840955b68f7c967444b8f8a" target="_top" xlink:title=" ">
<ellipse fill="white" stroke="#666666" cx="513.83" cy="-289.81" rx="159.28" ry="25.81"/>
<text xml:space="preserve" text-anchor="start" x="409.2" y="-292.66" font-family="Helvetica,sans-Serif" font-size="12.00">com.runehive.content.bot.botclass.impl.</text>
<text xml:space="preserve" text-anchor="middle" x="513.83" y="-278.41" font-family="Helvetica,sans-Serif" font-size="12.00">PureMelee.hit</text>
</a>
</g>
</g>
<!-- Node1&#45;&gt;Node5 -->
<g id="edge5_Node000001_Node000005" class="edge">
<title>Node1&#45;&gt;Node5</title>
<g id="a_edge5_Node000001_Node000005"><a xlink:title=" ">
<path fill="none" stroke="#63b8ff" d="M735.76,-263.46C705.23,-267.1 673.31,-270.91 643.53,-274.46"/>
<polygon fill="#63b8ff" stroke="#63b8ff" points="735.93,-266.97 745.44,-262.31 735.1,-260.02 735.93,-266.97"/>
</a>
</g>
</g>
<!-- Node7 -->
<g id="Node000007" class="node">
<title>Node7</title>
<g id="a_Node000007"><a xlink:href="classcom_1_1runehive_1_1content_1_1bot_1_1botclass_1_1impl_1_1_pure_range_melee.html#aa8d34bdacbb33363dbe158e542549aef" target="_top" xlink:title=" ">
<ellipse fill="white" stroke="#666666" cx="513.83" cy="-201.81" rx="159.28" ry="25.81"/>
<text xml:space="preserve" text-anchor="start" x="409.2" y="-204.66" font-family="Helvetica,sans-Serif" font-size="12.00">com.runehive.content.bot.botclass.impl.</text>
<text xml:space="preserve" text-anchor="middle" x="513.83" y="-190.41" font-family="Helvetica,sans-Serif" font-size="12.00">PureRangeMelee.hit</text>
</a>
</g>
</g>
<!-- Node1&#45;&gt;Node7 -->
<g id="edge8_Node000001_Node000007" class="edge">
<title>Node1&#45;&gt;Node7</title>
<g id="a_edge8_Node000001_Node000007"><a xlink:title=" ">
<path fill="none" stroke="#63b8ff" d="M735.76,-228.15C705.23,-224.51 673.31,-220.71 643.53,-217.16"/>
<polygon fill="#63b8ff" stroke="#63b8ff" points="735.1,-231.6 745.44,-229.31 735.93,-224.65 735.1,-231.6"/>
</a>
</g>
</g>
<!-- Node9 -->
<g id="Node000009" class="node">
<title>Node9</title>
<g id="a_Node000009"><a xlink:href="classcom_1_1runehive_1_1content_1_1bot_1_1botclass_1_1impl_1_1_welfare_rune_melee.html#a2b8a31e168f8f9a90b868e89943a5884" target="_top" xlink:title=" ">
<ellipse fill="white" stroke="#666666" cx="513.83" cy="-113.81" rx="159.28" ry="25.81"/>
<text xml:space="preserve" text-anchor="start" x="409.2" y="-116.66" font-family="Helvetica,sans-Serif" font-size="12.00">com.runehive.content.bot.botclass.impl.</text>
<text xml:space="preserve" text-anchor="middle" x="513.83" y="-102.41" font-family="Helvetica,sans-Serif" font-size="12.00">WelfareRuneMelee.hit</text>
</a>
</g>
</g>
<!-- Node1&#45;&gt;Node9 -->
<g id="edge11_Node000001_Node000009" class="edge">
<title>Node1&#45;&gt;Node9</title>
<g id="a_edge11_Node000001_Node000009"><a xlink:title=" ">
<path fill="none" stroke="#63b8ff" d="M809.87,-217.35C769.56,-202.03 718.73,-183 673.1,-166.81 644.84,-156.78 613.56,-146.2 586.32,-137.15"/>
<polygon fill="#63b8ff" stroke="#63b8ff" points="808.4,-220.54 819,-220.83 810.9,-214 808.4,-220.54"/>
</a>
</g>
</g>
<!-- Node11 -->
<g id="Node000011" class="node">
<title>Node11</title>
<g id="a_Node000011"><a xlink:href="classcom_1_1runehive_1_1content_1_1bot_1_1botclass_1_1impl_1_1_zerker_melee.html#a05e712b606f732f98528711005f89ab5" target="_top" xlink:title=" ">
<ellipse fill="white" stroke="#666666" cx="513.83" cy="-25.81" rx="159.28" ry="25.81"/>
<text xml:space="preserve" text-anchor="start" x="409.2" y="-28.66" font-family="Helvetica,sans-Serif" font-size="12.00">com.runehive.content.bot.botclass.impl.</text>
<text xml:space="preserve" text-anchor="middle" x="513.83" y="-14.41" font-family="Helvetica,sans-Serif" font-size="12.00">ZerkerMelee.hit</text>
</a>
</g>
</g>
<!-- Node1&#45;&gt;Node11 -->
<g id="edge14_Node000001_Node000011" class="edge">
<title>Node1&#45;&gt;Node11</title>
<g id="a_edge14_Node000001_Node000011"><a xlink:title=" ">
<path fill="none" stroke="#63b8ff" d="M849.72,-212.52C810.14,-175.45 741.49,-115.87 673.1,-78.81 650.05,-66.31 623.51,-56.03 598.84,-47.95"/>
<polygon fill="#63b8ff" stroke="#63b8ff" points="846.94,-214.71 856.62,-219.04 851.75,-209.63 846.94,-214.71"/>
</a>
</g>
</g>
<!-- Node3&#45;&gt;Node3 -->
<g id="edge4_Node000003_Node000003" class="edge">
<title>Node3&#45;&gt;Node3</title>
<g id="a_edge4_Node000003_Node000003"><a xlink:title=" ">
<path fill="none" stroke="#63b8ff" d="M575.12,-412.29C566.2,-417.83 545.77,-421.62 513.83,-421.62 463.97,-421.62 442.16,-412.38 448.39,-401.69"/>
<polygon fill="#63b8ff" stroke="#63b8ff" points="578.33,-413.69 578.72,-403.1 571.81,-411.14 578.33,-413.69"/>
</a>
</g>
</g>
<!-- Node4 -->
<g id="Node000004" class="node">
<title>Node4</title>
<g id="a_Node000004"><a xlink:href="classcom_1_1runehive_1_1content_1_1bot_1_1botclass_1_1impl_1_1_a_g_s_rune_melee.html#ae88df71dfcbe7edff62eab775f53aa84" target="_top" xlink:title=" ">
<ellipse fill="white" stroke="#666666" cx="159.28" cy="-377.81" rx="159.28" ry="25.81"/>
<text xml:space="preserve" text-anchor="start" x="54.65" y="-380.66" font-family="Helvetica,sans-Serif" font-size="12.00">com.runehive.content.bot.botclass.impl.</text>
<text xml:space="preserve" text-anchor="middle" x="159.28" y="-366.41" font-family="Helvetica,sans-Serif" font-size="12.00">AGSRuneMelee.block</text>
</a>
</g>
</g>
<!-- Node3&#45;&gt;Node4 -->
<g id="edge3_Node000003_Node000004" class="edge">
<title>Node3&#45;&gt;Node4</title>
<g id="a_edge3_Node000003_Node000004"><a xlink:title=" ">
<path fill="none" stroke="#63b8ff" d="M342.82,-377.81C334.84,-377.81 326.84,-377.81 318.89,-377.81"/>
<polygon fill="#63b8ff" stroke="#63b8ff" points="342.57,-381.31 352.57,-377.81 342.57,-374.31 342.57,-381.31"/>
</a>
</g>
</g>
<!-- Node5&#45;&gt;Node5 -->
<g id="edge7_Node000005_Node000005" class="edge">
<title>Node5&#45;&gt;Node5</title>
<g id="a_edge7_Node000005_Node000005"><a xlink:title=" ">
<path fill="none" stroke="#63b8ff" d="M575.12,-324.29C566.2,-329.83 545.77,-333.62 513.83,-333.62 463.97,-333.62 442.16,-324.38 448.39,-313.69"/>
<polygon fill="#63b8ff" stroke="#63b8ff" points="578.33,-325.69 578.72,-315.1 571.81,-323.14 578.33,-325.69"/>
</a>
</g>
</g>
<!-- Node6 -->
<g id="Node000006" class="node">
<title>Node6</title>
<g id="a_Node000006"><a xlink:href="classcom_1_1runehive_1_1content_1_1bot_1_1botclass_1_1impl_1_1_pure_melee.html#a36224fc0f932bb58cf7e6be2e619939c" target="_top" xlink:title=" ">
<ellipse fill="white" stroke="#666666" cx="159.28" cy="-289.81" rx="159.28" ry="25.81"/>
<text xml:space="preserve" text-anchor="start" x="54.65" y="-292.66" font-family="Helvetica,sans-Serif" font-size="12.00">com.runehive.content.bot.botclass.impl.</text>
<text xml:space="preserve" text-anchor="middle" x="159.28" y="-278.41" font-family="Helvetica,sans-Serif" font-size="12.00">PureMelee.block</text>
</a>
</g>
</g>
<!-- Node5&#45;&gt;Node6 -->
<g id="edge6_Node000005_Node000006" class="edge">
<title>Node5&#45;&gt;Node6</title>
<g id="a_edge6_Node000005_Node000006"><a xlink:title=" ">
<path fill="none" stroke="#63b8ff" d="M342.82,-289.81C334.84,-289.81 326.84,-289.81 318.89,-289.81"/>
<polygon fill="#63b8ff" stroke="#63b8ff" points="342.57,-293.31 352.57,-289.81 342.57,-286.31 342.57,-293.31"/>
</a>
</g>
</g>
<!-- Node7&#45;&gt;Node7 -->
<g id="edge10_Node000007_Node000007" class="edge">
<title>Node7&#45;&gt;Node7</title>
<g id="a_edge10_Node000007_Node000007"><a xlink:title=" ">
<path fill="none" stroke="#63b8ff" d="M575.12,-236.29C566.2,-241.83 545.77,-245.62 513.83,-245.62 463.97,-245.62 442.16,-236.38 448.39,-225.69"/>
<polygon fill="#63b8ff" stroke="#63b8ff" points="578.33,-237.69 578.72,-227.1 571.81,-235.14 578.33,-237.69"/>
</a>
</g>
</g>
<!-- Node8 -->
<g id="Node000008" class="node">
<title>Node8</title>
<g id="a_Node000008"><a xlink:href="classcom_1_1runehive_1_1content_1_1bot_1_1botclass_1_1impl_1_1_pure_range_melee.html#a5fbe79a157d24bf0807ef67ff78725f3" target="_top" xlink:title=" ">
<ellipse fill="white" stroke="#666666" cx="159.28" cy="-201.81" rx="159.28" ry="25.81"/>
<text xml:space="preserve" text-anchor="start" x="54.65" y="-204.66" font-family="Helvetica,sans-Serif" font-size="12.00">com.runehive.content.bot.botclass.impl.</text>
<text xml:space="preserve" text-anchor="middle" x="159.28" y="-190.41" font-family="Helvetica,sans-Serif" font-size="12.00">PureRangeMelee.block</text>
</a>
</g>
</g>
<!-- Node7&#45;&gt;Node8 -->
<g id="edge9_Node000007_Node000008" class="edge">
<title>Node7&#45;&gt;Node8</title>
<g id="a_edge9_Node000007_Node000008"><a xlink:title=" ">
<path fill="none" stroke="#63b8ff" d="M342.82,-201.81C334.84,-201.81 326.84,-201.81 318.89,-201.81"/>
<polygon fill="#63b8ff" stroke="#63b8ff" points="342.57,-205.31 352.57,-201.81 342.57,-198.31 342.57,-205.31"/>
</a>
</g>
</g>
<!-- Node9&#45;&gt;Node9 -->
<g id="edge13_Node000009_Node000009" class="edge">
<title>Node9&#45;&gt;Node9</title>
<g id="a_edge13_Node000009_Node000009"><a xlink:title=" ">
<path fill="none" stroke="#63b8ff" d="M575.12,-148.29C566.2,-153.83 545.77,-157.62 513.83,-157.62 463.97,-157.62 442.16,-148.38 448.39,-137.69"/>
<polygon fill="#63b8ff" stroke="#63b8ff" points="578.33,-149.69 578.72,-139.1 571.81,-147.14 578.33,-149.69"/>
</a>
</g>
</g>
<!-- Node10 -->
<g id="Node000010" class="node">
<title>Node10</title>
<g id="a_Node000010"><a xlink:href="classcom_1_1runehive_1_1content_1_1bot_1_1botclass_1_1impl_1_1_welfare_rune_melee.html#ac9bb6b0adc24d557869aaa166af92f1b" target="_top" xlink:title=" ">
<ellipse fill="white" stroke="#666666" cx="159.28" cy="-113.81" rx="159.28" ry="25.81"/>
<text xml:space="preserve" text-anchor="start" x="54.65" y="-116.66" font-family="Helvetica,sans-Serif" font-size="12.00">com.runehive.content.bot.botclass.impl.</text>
<text xml:space="preserve" text-anchor="middle" x="159.28" y="-102.41" font-family="Helvetica,sans-Serif" font-size="12.00">WelfareRuneMelee.block</text>
</a>
</g>
</g>
<!-- Node9&#45;&gt;Node10 -->
<g id="edge12_Node000009_Node000010" class="edge">
<title>Node9&#45;&gt;Node10</title>
<g id="a_edge12_Node000009_Node000010"><a xlink:title=" ">
<path fill="none" stroke="#63b8ff" d="M342.82,-113.81C334.84,-113.81 326.84,-113.81 318.89,-113.81"/>
<polygon fill="#63b8ff" stroke="#63b8ff" points="342.57,-117.31 352.57,-113.81 342.57,-110.31 342.57,-117.31"/>
</a>
</g>
</g>
<!-- Node11&#45;&gt;Node11 -->
<g id="edge16_Node000011_Node000011" class="edge">
<title>Node11&#45;&gt;Node11</title>
<g id="a_edge16_Node000011_Node000011"><a xlink:title=" ">
<path fill="none" stroke="#63b8ff" d="M575.12,-60.29C566.2,-65.83 545.77,-69.62 513.83,-69.62 463.97,-69.62 442.16,-60.38 448.39,-49.69"/>
<polygon fill="#63b8ff" stroke="#63b8ff" points="578.33,-61.69 578.72,-51.1 571.81,-59.14 578.33,-61.69"/>
</a>
</g>
</g>
<!-- Node12 -->
<g id="Node000012" class="node">
<title>Node12</title>
<g id="a_Node000012"><a xlink:href="classcom_1_1runehive_1_1content_1_1bot_1_1botclass_1_1impl_1_1_zerker_melee.html#afd0c47e0e1afad33979b3a31007661c4" target="_top" xlink:title=" ">
<ellipse fill="white" stroke="#666666" cx="159.28" cy="-25.81" rx="159.28" ry="25.81"/>
<text xml:space="preserve" text-anchor="start" x="54.65" y="-28.66" font-family="Helvetica,sans-Serif" font-size="12.00">com.runehive.content.bot.botclass.impl.</text>
<text xml:space="preserve" text-anchor="middle" x="159.28" y="-14.41" font-family="Helvetica,sans-Serif" font-size="12.00">ZerkerMelee.block</text>
</a>
</g>
</g>
<!-- Node11&#45;&gt;Node12 -->
<g id="edge15_Node000011_Node000012" class="edge">
<title>Node11&#45;&gt;Node12</title>
<g id="a_edge15_Node000011_Node000012"><a xlink:title=" ">
<path fill="none" stroke="#63b8ff" d="M342.82,-25.81C334.84,-25.81 326.84,-25.81 318.89,-25.81"/>
<polygon fill="#63b8ff" stroke="#63b8ff" points="342.57,-29.31 352.57,-25.81 342.57,-22.31 342.57,-29.31"/>
</a>
</g>
</g>
</g>
</svg>
