<?xml version="1.0" encoding="UTF-8" standalone="no"?>
<!DOCTYPE svg PUBLIC "-//W3C//DTD SVG 1.1//EN"
 "http://www.w3.org/Graphics/SVG/1.1/DTD/svg11.dtd">
<!-- Generated by graphviz version 14.0.1 (20251006.0113)
 -->
<!-- Title: com.runehive.content.clanchannel.channel.ClanChannel.setName Pages: 1 -->
<svg width="2234pt" height="405pt"
 viewBox="0.00 0.00 2234.00 405.00" xmlns="http://www.w3.org/2000/svg" xmlns:xlink="http://www.w3.org/1999/xlink">
<g id="graph0" class="graph" transform="scale(1 1) rotate(0) translate(4 400.85)">
<title>com.runehive.content.clanchannel.channel.ClanChannel.setName</title>
<!-- Node1 -->
<g id="Node000001" class="node">
<title>Node1</title>
<g id="a_Node000001"><a xlink:title=" ">
<ellipse fill="#999999" stroke="#666666" cx="174.66" cy="-184.81" rx="174.66" ry="25.81"/>
<text xml:space="preserve" text-anchor="start" x="59.16" y="-187.66" font-family="Helvetica,sans-Serif" font-size="12.00">com.runehive.content.clanchannel.channel.</text>
<text xml:space="preserve" text-anchor="middle" x="174.66" y="-173.41" font-family="Helvetica,sans-Serif" font-size="12.00">ClanChannel.setName</text>
</a>
</g>
</g>
<!-- Node2 -->
<g id="Node000002" class="node">
<title>Node2</title>
<g id="a_Node000002"><a xlink:href="classcom_1_1runehive_1_1util_1_1_utility.html#a04d5eb201f824f0f367a9fb60f2f2814" target="_top" xlink:title=" ">
<ellipse fill="white" stroke="#666666" cx="1692.03" cy="-311.81" rx="146.55" ry="15.73"/>
<text xml:space="preserve" text-anchor="middle" x="1692.03" y="-307.53" font-family="Helvetica,sans-Serif" font-size="12.00">com.runehive.util.Utility.formatName</text>
</a>
</g>
</g>
<!-- Node1&#45;&gt;Node2 -->
<g id="edge1_Node000001_Node000002" class="edge">
<title>Node1&#45;&gt;Node2</title>
<g id="a_edge1_Node000001_Node000002"><a xlink:title=" ">
<path fill="none" stroke="#63b8ff" d="M202.68,-210.73C240.14,-244.67 311.59,-302.46 385.31,-324.81 832.98,-460.54 1407.31,-369.01 1613.25,-328.4"/>
<polygon fill="#63b8ff" stroke="#63b8ff" points="1613.93,-331.84 1623.05,-326.45 1612.56,-324.97 1613.93,-331.84"/>
</a>
</g>
</g>
<!-- Node3 -->
<g id="Node000003" class="node">
<title>Node3</title>
<g id="a_Node000003"><a xlink:href="classcom_1_1runehive_1_1content_1_1clanchannel_1_1channel_1_1_clan_channel.html#abf034de220e68f17f1d600d5211c67f8" target="_top" xlink:title=" ">
<ellipse fill="white" stroke="#666666" cx="559.97" cy="-289.81" rx="174.66" ry="25.81"/>
<text xml:space="preserve" text-anchor="start" x="444.47" y="-292.66" font-family="Helvetica,sans-Serif" font-size="12.00">com.runehive.content.clanchannel.channel.</text>
<text xml:space="preserve" text-anchor="middle" x="559.97" y="-278.41" font-family="Helvetica,sans-Serif" font-size="12.00">ClanChannel.getName</text>
</a>
</g>
</g>
<!-- Node1&#45;&gt;Node3 -->
<g id="edge2_Node000001_Node000003" class="edge">
<title>Node1&#45;&gt;Node3</title>
<g id="a_edge2_Node000001_Node000003"><a xlink:title=" ">
<path fill="none" stroke="#63b8ff" d="M241.12,-208.98C282.16,-223.56 336.37,-241.76 385.31,-254.81 402.04,-259.27 419.82,-263.46 437.37,-267.29"/>
<polygon fill="#63b8ff" stroke="#63b8ff" points="436.26,-270.63 446.77,-269.31 437.73,-263.79 436.26,-270.63"/>
</a>
</g>
</g>
<!-- Node4 -->
<g id="Node000004" class="node">
<title>Node4</title>
<g id="a_Node000004"><a xlink:href="classcom_1_1runehive_1_1content_1_1clanchannel_1_1channel_1_1_clan_channel.html#adf0f6f74bbc0346647877b7171a35a61" target="_top" xlink:title="Handles messaging all the members in the clan channel.">
<ellipse fill="white" stroke="#666666" cx="559.97" cy="-219.81" rx="174.66" ry="25.81"/>
<text xml:space="preserve" text-anchor="start" x="444.47" y="-222.66" font-family="Helvetica,sans-Serif" font-size="12.00">com.runehive.content.clanchannel.channel.</text>
<text xml:space="preserve" text-anchor="middle" x="559.97" y="-208.41" font-family="Helvetica,sans-Serif" font-size="12.00">ClanChannel.message</text>
</a>
</g>
</g>
<!-- Node1&#45;&gt;Node4 -->
<g id="edge3_Node000001_Node000004" class="edge">
<title>Node1&#45;&gt;Node4</title>
<g id="a_edge3_Node000001_Node000004"><a xlink:title=" ">
<path fill="none" stroke="#63b8ff" d="M324.4,-198.39C348.86,-200.62 374.29,-202.95 399.01,-205.2"/>
<polygon fill="#63b8ff" stroke="#63b8ff" points="398.52,-208.67 408.8,-206.1 399.16,-201.7 398.52,-208.67"/>
</a>
</g>
</g>
<!-- Node6 -->
<g id="Node000006" class="node">
<title>Node6</title>
<g id="a_Node000006"><a xlink:href="classcom_1_1runehive_1_1game_1_1world_1_1entity_1_1mob_1_1player_1_1_player.html#a330f0b0f76490448f4c6f8e68ea368c5" target="_top" xlink:title=" ">
<ellipse fill="white" stroke="#666666" cx="946.34" cy="-25.81" rx="175.72" ry="25.81"/>
<text xml:space="preserve" text-anchor="start" x="830.09" y="-28.66" font-family="Helvetica,sans-Serif" font-size="12.00">com.runehive.game.world.entity.mob.player.</text>
<text xml:space="preserve" text-anchor="middle" x="946.34" y="-14.41" font-family="Helvetica,sans-Serif" font-size="12.00">Player.message</text>
</a>
</g>
</g>
<!-- Node1&#45;&gt;Node6 -->
<g id="edge5_Node000001_Node000006" class="edge">
<title>Node1&#45;&gt;Node6</title>
<g id="a_edge5_Node000001_Node000006"><a xlink:title=" ">
<path fill="none" stroke="#63b8ff" d="M203.12,-158.97C240.79,-125.4 312.19,-68.34 385.31,-44.81 519.18,-1.73 680.44,-1.24 795.47,-8.99"/>
<polygon fill="#63b8ff" stroke="#63b8ff" points="795.07,-12.47 805.29,-9.68 795.56,-5.48 795.07,-12.47"/>
</a>
</g>
</g>
<!-- Node11 -->
<g id="Node000011" class="node">
<title>Node11</title>
<g id="a_Node000011"><a xlink:href="classcom_1_1runehive_1_1content_1_1clanchannel_1_1_clan_repository.html#acdb0f84822791a56f3f1a1b216f40d10" target="_top" xlink:title=" ">
<ellipse fill="white" stroke="#666666" cx="559.97" cy="-79.81" rx="142.31" ry="25.81"/>
<text xml:space="preserve" text-anchor="start" x="467.34" y="-82.66" font-family="Helvetica,sans-Serif" font-size="12.00">com.runehive.content.clanchannel.</text>
<text xml:space="preserve" text-anchor="middle" x="559.97" y="-68.41" font-family="Helvetica,sans-Serif" font-size="12.00">ClanRepository.nameExist</text>
</a>
</g>
</g>
<!-- Node1&#45;&gt;Node11 -->
<g id="edge11_Node000001_Node000011" class="edge">
<title>Node1&#45;&gt;Node11</title>
<g id="a_edge11_Node000001_Node000011"><a xlink:title=" ">
<path fill="none" stroke="#63b8ff" d="M241.12,-160.63C282.16,-146.06 336.37,-127.86 385.31,-114.81 404.87,-109.59 425.85,-104.75 446.22,-100.43"/>
<polygon fill="#63b8ff" stroke="#63b8ff" points="446.91,-103.86 455.99,-98.39 445.48,-97 446.91,-103.86"/>
</a>
</g>
</g>
<!-- Node12 -->
<g id="Node000012" class="node">
<title>Node12</title>
<g id="a_Node000012"><a xlink:href="classcom_1_1runehive_1_1content_1_1clanchannel_1_1content_1_1_clan_viewer.html#a8b9b8ff343deb9ccfe29a38377639ae1" target="_top" xlink:title=" ">
<ellipse fill="white" stroke="#666666" cx="559.97" cy="-149.81" rx="172" ry="25.81"/>
<text xml:space="preserve" text-anchor="start" x="446.34" y="-152.66" font-family="Helvetica,sans-Serif" font-size="12.00">com.runehive.content.clanchannel.content.</text>
<text xml:space="preserve" text-anchor="middle" x="559.97" y="-138.41" font-family="Helvetica,sans-Serif" font-size="12.00">ClanViewer.update</text>
</a>
</g>
</g>
<!-- Node1&#45;&gt;Node12 -->
<g id="edge12_Node000001_Node000012" class="edge">
<title>Node1&#45;&gt;Node12</title>
<g id="a_edge12_Node000001_Node000012"><a xlink:title=" ">
<path fill="none" stroke="#63b8ff" d="M324.4,-171.23C349.42,-168.94 375.48,-166.56 400.73,-164.26"/>
<polygon fill="#63b8ff" stroke="#63b8ff" points="400.73,-167.77 410.37,-163.38 400.1,-160.8 400.73,-167.77"/>
</a>
</g>
</g>
<!-- Node5 -->
<g id="Node000005" class="node">
<title>Node5</title>
<g id="a_Node000005"><a xlink:href="classcom_1_1runehive_1_1content_1_1clanchannel_1_1channel_1_1_clan_channel.html#ac8235f1545a0d4c0d6912ce611dd314d" target="_top" xlink:title="Handles looping through each clan member.">
<ellipse fill="white" stroke="#666666" cx="946.34" cy="-271.81" rx="174.66" ry="25.81"/>
<text xml:space="preserve" text-anchor="start" x="830.84" y="-274.66" font-family="Helvetica,sans-Serif" font-size="12.00">com.runehive.content.clanchannel.channel.</text>
<text xml:space="preserve" text-anchor="middle" x="946.34" y="-260.41" font-family="Helvetica,sans-Serif" font-size="12.00">ClanChannel.forEach</text>
</a>
</g>
</g>
<!-- Node4&#45;&gt;Node5 -->
<g id="edge4_Node000004_Node000005" class="edge">
<title>Node4&#45;&gt;Node5</title>
<g id="a_edge4_Node000004_Node000005"><a xlink:title=" ">
<path fill="none" stroke="#63b8ff" d="M690.56,-237.34C727.36,-242.32 767.59,-247.76 804.99,-252.82"/>
<polygon fill="#63b8ff" stroke="#63b8ff" points="804.1,-256.23 814.48,-254.11 805.04,-249.3 804.1,-256.23"/>
</a>
</g>
</g>
<!-- Node6&#45;&gt;Node6 -->
<g id="edge6_Node000006_Node000006" class="edge">
<title>Node6&#45;&gt;Node6</title>
<g id="a_edge6_Node000006_Node000006"><a xlink:title=" ">
<path fill="none" stroke="#63b8ff" d="M875.02,-49.69C868.23,-60.38 892,-69.62 946.34,-69.62 981.57,-69.62 1003.95,-65.73 1013.48,-60.09"/>
<polygon fill="#63b8ff" stroke="#63b8ff" points="1016.61,-61.68 1017.09,-51.1 1010.12,-59.08 1016.61,-61.68"/>
</a>
</g>
</g>
<!-- Node7 -->
<g id="Node000007" class="node">
<title>Node7</title>
<g id="a_Node000007"><a xlink:href="classcom_1_1runehive_1_1game_1_1world_1_1entity_1_1mob_1_1player_1_1_player.html#ab8309e5d532b7540f48bf25f8dea92a8" target="_top" xlink:title=" ">
<ellipse fill="white" stroke="#666666" cx="1333.77" cy="-78.81" rx="175.72" ry="25.81"/>
<text xml:space="preserve" text-anchor="start" x="1217.52" y="-81.66" font-family="Helvetica,sans-Serif" font-size="12.00">com.runehive.game.world.entity.mob.player.</text>
<text xml:space="preserve" text-anchor="middle" x="1333.77" y="-67.41" font-family="Helvetica,sans-Serif" font-size="12.00">Player.send</text>
</a>
</g>
</g>
<!-- Node6&#45;&gt;Node7 -->
<g id="edge7_Node000006_Node000007" class="edge">
<title>Node6&#45;&gt;Node7</title>
<g id="a_edge7_Node000006_Node000007"><a xlink:title=" ">
<path fill="none" stroke="#63b8ff" d="M1076.22,-43.53C1113.66,-48.68 1154.73,-54.33 1192.83,-59.57"/>
<polygon fill="#63b8ff" stroke="#63b8ff" points="1192.13,-63 1202.51,-60.9 1193.08,-56.07 1192.13,-63"/>
</a>
</g>
</g>
<!-- Node8 -->
<g id="Node000008" class="node">
<title>Node8</title>
<g id="a_Node000008"><a xlink:href="classcom_1_1runehive_1_1net_1_1packet_1_1_outgoing_packet.html#a3dde4d77b8c8bbd686b8e121fd6514a7" target="_top" xlink:title=" ">
<ellipse fill="white" stroke="#666666" cx="1692.03" cy="-78.81" rx="105.18" ry="25.81"/>
<text xml:space="preserve" text-anchor="start" x="1625.66" y="-81.66" font-family="Helvetica,sans-Serif" font-size="12.00">com.runehive.net.packet.</text>
<text xml:space="preserve" text-anchor="middle" x="1692.03" y="-67.41" font-family="Helvetica,sans-Serif" font-size="12.00">OutgoingPacket.execute</text>
</a>
</g>
</g>
<!-- Node7&#45;&gt;Node8 -->
<g id="edge8_Node000007_Node000008" class="edge">
<title>Node7&#45;&gt;Node8</title>
<g id="a_edge8_Node000007_Node000008"><a xlink:title=" ">
<path fill="none" stroke="#63b8ff" d="M1509.77,-78.81C1531.89,-78.81 1554.08,-78.81 1574.97,-78.81"/>
<polygon fill="#63b8ff" stroke="#63b8ff" points="1574.91,-82.31 1584.91,-78.81 1574.91,-75.31 1574.91,-82.31"/>
</a>
</g>
</g>
<!-- Node9 -->
<g id="Node000009" class="node">
<title>Node9</title>
<g id="a_Node000009"><a xlink:href="classcom_1_1runehive_1_1net_1_1packet_1_1_outgoing_packet.html#a74fc13c106ab76f87daec1e8bab6a2a1" target="_top" xlink:title=" ">
<ellipse fill="white" stroke="#666666" cx="2050.3" cy="-113.81" rx="105.18" ry="25.81"/>
<text xml:space="preserve" text-anchor="start" x="1983.92" y="-116.66" font-family="Helvetica,sans-Serif" font-size="12.00">com.runehive.net.packet.</text>
<text xml:space="preserve" text-anchor="middle" x="2050.3" y="-102.41" font-family="Helvetica,sans-Serif" font-size="12.00">OutgoingPacket.encode</text>
</a>
</g>
</g>
<!-- Node8&#45;&gt;Node9 -->
<g id="edge9_Node000008_Node000009" class="edge">
<title>Node8&#45;&gt;Node9</title>
<g id="a_edge9_Node000008_Node000009"><a xlink:title=" ">
<path fill="none" stroke="#63b8ff" d="M1790.38,-88.37C1836.92,-92.95 1892.79,-98.43 1940.7,-103.14"/>
<polygon fill="#63b8ff" stroke="#63b8ff" points="1940.26,-106.61 1950.56,-104.11 1940.95,-99.65 1940.26,-106.61"/>
</a>
</g>
</g>
<!-- Node10 -->
<g id="Node000010" class="node">
<title>Node10</title>
<g id="a_Node000010"><a xlink:href="classcom_1_1runehive_1_1game_1_1world_1_1entity_1_1mob_1_1player_1_1_player.html#a908fb61974719a74180d6300b838bfe1" target="_top" xlink:title=" ">
<ellipse fill="white" stroke="#666666" cx="2050.3" cy="-43.81" rx="175.72" ry="25.81"/>
<text xml:space="preserve" text-anchor="start" x="1934.05" y="-46.66" font-family="Helvetica,sans-Serif" font-size="12.00">com.runehive.game.world.entity.mob.player.</text>
<text xml:space="preserve" text-anchor="middle" x="2050.3" y="-32.41" font-family="Helvetica,sans-Serif" font-size="12.00">Player.getSession</text>
</a>
</g>
</g>
<!-- Node8&#45;&gt;Node10 -->
<g id="edge10_Node000008_Node000010" class="edge">
<title>Node8&#45;&gt;Node10</title>
<g id="a_edge10_Node000008_Node000010"><a xlink:title=" ">
<path fill="none" stroke="#63b8ff" d="M1790.38,-69.25C1821.71,-66.17 1857.26,-62.68 1891.77,-59.29"/>
<polygon fill="#63b8ff" stroke="#63b8ff" points="1891.81,-62.8 1901.42,-58.34 1891.13,-55.83 1891.81,-62.8"/>
</a>
</g>
</g>
<!-- Node13 -->
<g id="Node000013" class="node">
<title>Node13</title>
<g id="a_Node000013"><a xlink:href="classcom_1_1runehive_1_1content_1_1clanchannel_1_1channel_1_1_clan_channel_handler.html#a9b8c8d48b89c93e16823e2aa9300c0e4" target="_top" xlink:title=" ">
<ellipse fill="white" stroke="#666666" cx="946.34" cy="-201.81" rx="174.66" ry="25.81"/>
<text xml:space="preserve" text-anchor="start" x="830.84" y="-204.66" font-family="Helvetica,sans-Serif" font-size="12.00">com.runehive.content.clanchannel.channel.</text>
<text xml:space="preserve" text-anchor="middle" x="946.34" y="-190.41" font-family="Helvetica,sans-Serif" font-size="12.00">ClanChannelHandler.manage</text>
</a>
</g>
</g>
<!-- Node12&#45;&gt;Node13 -->
<g id="edge13_Node000012_Node000013" class="edge">
<title>Node12&#45;&gt;Node13</title>
<g id="a_edge13_Node000012_Node000013"><a xlink:title=" ">
<path fill="none" stroke="#63b8ff" d="M689.22,-167.16C726.28,-172.17 766.92,-177.67 804.69,-182.78"/>
<polygon fill="#63b8ff" stroke="#63b8ff" points="803.9,-186.21 814.28,-184.08 804.84,-179.27 803.9,-186.21"/>
</a>
</g>
</g>
<!-- Node16 -->
<g id="Node000016" class="node">
<title>Node16</title>
<g id="a_Node000016"><a xlink:href="classcom_1_1runehive_1_1content_1_1clanchannel_1_1content_1_1_clan_viewer.html#a61829dcde609446d3ff216aea5ff692d" target="_top" xlink:title=" ">
<ellipse fill="white" stroke="#666666" cx="946.34" cy="-113.81" rx="172" ry="25.81"/>
<text xml:space="preserve" text-anchor="start" x="832.71" y="-116.66" font-family="Helvetica,sans-Serif" font-size="12.00">com.runehive.content.clanchannel.content.</text>
<text xml:space="preserve" text-anchor="middle" x="946.34" y="-102.41" font-family="Helvetica,sans-Serif" font-size="12.00">ClanViewer.open</text>
</a>
</g>
</g>
<!-- Node12&#45;&gt;Node16 -->
<g id="edge18_Node000012_Node000016" class="edge">
<title>Node12&#45;&gt;Node16</title>
<g id="a_edge18_Node000012_Node000016"><a xlink:title=" ">
<path fill="none" stroke="#63b8ff" d="M707.1,-136.12C733.48,-133.65 761.08,-131.07 787.76,-128.57"/>
<polygon fill="#63b8ff" stroke="#63b8ff" points="788,-132.06 797.63,-127.64 787.35,-125.09 788,-132.06"/>
</a>
</g>
</g>
<!-- Node13&#45;&gt;Node7 -->
<g id="edge16_Node000013_Node000007" class="edge">
<title>Node13&#45;&gt;Node7</title>
<g id="a_edge16_Node000013_Node000007"><a xlink:title=" ">
<path fill="none" stroke="#63b8ff" d="M1062.34,-182.15C1082.41,-177.76 1102.97,-172.64 1122.05,-166.81 1173.32,-151.14 1229.22,-127.47 1270.56,-108.62"/>
<polygon fill="#63b8ff" stroke="#63b8ff" points="1272.01,-111.81 1279.63,-104.45 1269.09,-105.45 1272.01,-111.81"/>
</a>
</g>
</g>
<!-- Node14 -->
<g id="Node000014" class="node">
<title>Node14</title>
<g id="a_Node000014"><a xlink:href="classcom_1_1runehive_1_1game_1_1world_1_1entity_1_1mob_1_1player_1_1_player.html#a448ed37dd7d81845d5493c3b63cad6f3" target="_top" xlink:title="Gets the name of this entity.">
<ellipse fill="white" stroke="#666666" cx="1333.77" cy="-280.81" rx="175.72" ry="25.81"/>
<text xml:space="preserve" text-anchor="start" x="1217.52" y="-283.66" font-family="Helvetica,sans-Serif" font-size="12.00">com.runehive.game.world.entity.mob.player.</text>
<text xml:space="preserve" text-anchor="middle" x="1333.77" y="-269.41" font-family="Helvetica,sans-Serif" font-size="12.00">Player.getName</text>
</a>
</g>
</g>
<!-- Node13&#45;&gt;Node14 -->
<g id="edge14_Node000013_Node000014" class="edge">
<title>Node13&#45;&gt;Node14</title>
<g id="a_edge14_Node000013_Node000014"><a xlink:title=" ">
<path fill="none" stroke="#63b8ff" d="M1052.23,-222.68C1075.24,-227.3 1099.47,-232.19 1122.05,-236.81 1153.9,-243.33 1188.44,-250.49 1220.16,-257.12"/>
<polygon fill="#63b8ff" stroke="#63b8ff" points="1219.27,-260.51 1229.77,-259.13 1220.7,-253.66 1219.27,-260.51"/>
</a>
</g>
</g>
<!-- Node15 -->
<g id="Node000015" class="node">
<title>Node15</title>
<g id="a_Node000015"><a xlink:href="classcom_1_1runehive_1_1game_1_1world_1_1entity_1_1mob_1_1player_1_1_interface_manager.html#af40e8a0bcc4d180ae388f31cfb94908e" target="_top" xlink:title=" ">
<ellipse fill="white" stroke="#666666" cx="1333.77" cy="-201.81" rx="175.72" ry="25.81"/>
<text xml:space="preserve" text-anchor="start" x="1217.52" y="-204.66" font-family="Helvetica,sans-Serif" font-size="12.00">com.runehive.game.world.entity.mob.player.</text>
<text xml:space="preserve" text-anchor="middle" x="1333.77" y="-190.41" font-family="Helvetica,sans-Serif" font-size="12.00">InterfaceManager.setSidebar</text>
</a>
</g>
</g>
<!-- Node13&#45;&gt;Node15 -->
<g id="edge17_Node000013_Node000015" class="edge">
<title>Node13&#45;&gt;Node15</title>
<g id="a_edge17_Node000013_Node000015"><a xlink:title=" ">
<path fill="none" stroke="#63b8ff" d="M1121.45,-201.81C1129.75,-201.81 1138.09,-201.81 1146.42,-201.81"/>
<polygon fill="#63b8ff" stroke="#63b8ff" points="1146.25,-205.31 1156.25,-201.81 1146.25,-198.31 1146.25,-205.31"/>
</a>
</g>
</g>
<!-- Node14&#45;&gt;Node2 -->
<g id="edge15_Node000014_Node000002" class="edge">
<title>Node14&#45;&gt;Node2</title>
<g id="a_edge15_Node000014_Node000002"><a xlink:title=" ">
<path fill="none" stroke="#63b8ff" d="M1486.12,-293.98C1512.45,-296.27 1539.58,-298.63 1565.13,-300.85"/>
<polygon fill="#63b8ff" stroke="#63b8ff" points="1564.6,-304.32 1574.86,-301.7 1565.2,-297.35 1564.6,-304.32"/>
</a>
</g>
</g>
<!-- Node16&#45;&gt;Node16 -->
<g id="edge19_Node000016_Node000016" class="edge">
<title>Node16&#45;&gt;Node16</title>
<g id="a_edge19_Node000016_Node000016"><a xlink:title=" ">
<path fill="none" stroke="#63b8ff" d="M875.02,-137.69C868.23,-148.38 892,-157.62 946.34,-157.62 981.57,-157.62 1003.95,-153.73 1013.48,-148.09"/>
<polygon fill="#63b8ff" stroke="#63b8ff" points="1016.61,-149.68 1017.09,-139.1 1010.12,-147.08 1016.61,-149.68"/>
</a>
</g>
</g>
</g>
</svg>
