<?xml version="1.0" encoding="UTF-8" standalone="no"?>
<!DOCTYPE svg PUBLIC "-//W3C//DTD SVG 1.1//EN"
 "http://www.w3.org/Graphics/SVG/1.1/DTD/svg11.dtd">
<!-- Generated by graphviz version 14.0.1 (20251006.0113)
 -->
<!-- Title: com.runehive.game.world.entity.mob.movement.waypoint.CombatWaypoint.withinDistance Pages: 1 -->
<!--zoomable 473 -->

<svg id="main" version="1.1" xmlns="http://www.w3.org/2000/svg" xmlns:xlink="http://www.w3.org/1999/xlink" xml:space="preserve" onload="init(evt)">

<style type="text/css"><![CDATA[
.node, .edge {opacity: 0.7;}
.node.selected, .edge.selected {opacity: 1;}
.edge:hover path { stroke: red; }
.edge:hover polygon { stroke: red; fill: red; }
]]></style>

<defs>
  <circle id="rim" cx="0" cy="0" r="7"/>
  <circle id="rim2" cx="0" cy="0" r="3.5"/>
  <g id="zoomPlus">
    <use xlink:href="#rim" fill="#404040"><set attributeName="fill" to="#808080" begin="zoomplus.mouseover" end="zoomplus.mouseout"/></use>
    <path d="M-4,0h8M0,-4v8" fill="none" stroke="white" stroke-width="1.5" pointer-events="none"/>
  </g>
  <g id="zoomMin">
    <use xlink:href="#rim" fill="#404040"><set attributeName="fill" to="#808080" begin="zoomminus.mouseover" end="zoomminus.mouseout"/></use>
    <path d="M-4,0h8" fill="none" stroke="white" stroke-width="1.5" pointer-events="none"/>
  </g>
  <g id="arrowUp" transform="translate(30 24)">
    <use xlink:href="#rim"/>
    <path pointer-events="none" fill="none" stroke="white" stroke-width="1.5" d="M0,-3.0v7 M-2.5,-0.5L0,-3.0L2.5,-0.5"/>
  </g>
  <g id="arrowRight" transform="rotate(90) translate(36 -43)">
    <use xlink:href="#rim"/>
    <path pointer-events="none" fill="none" stroke="white" stroke-width="1.5" d="M0,-3.0v7 M-2.5,-0.5L0,-3.0L2.5,-0.5"/>
  </g>
  <g id="arrowDown" transform="rotate(180) translate(-30 -48)">
    <use xlink:href="#rim"/>
    <path pointer-events="none" fill="none" stroke="white" stroke-width="1.5" d="M0,-3.0v7 M-2.5,-0.5L0,-3.0L2.5,-0.5"/>
  </g>
  <g id="arrowLeft" transform="rotate(270) translate(-36 17)">
    <use xlink:href="#rim"/>
    <path pointer-events="none" fill="none" stroke="white" stroke-width="1.5" d="M0,-3.0v7 M-2.5,-0.5L0,-3.0L2.5,-0.5"/>
  </g>
  <g id="resetDef">
    <use xlink:href="#rim2" fill="#404040"><set attributeName="fill" to="#808080" begin="reset.mouseover" end="reset.mouseout"/></use>
  </g>
</defs>
<script type="application/ecmascript">
var viewWidth = 1598;
var viewHeight = 473;
var sectionId = 'dynsection-3';
</script>
<script type="application/ecmascript" xlink:href="svg.min.js"/>
<svg id="graph" class="graph">
<g id="viewport">
<title>com.runehive.game.world.entity.mob.movement.waypoint.CombatWaypoint.withinDistance</title>
<!-- Node1 -->
<g id="Node000001" class="node">
<title>Node1</title>
<g id="a_Node000001"><a xlink:title=" ">
<ellipse fill="#999999" stroke="#666666" cx="228.22" cy="-238.81" rx="228.22" ry="25.81"/>
<text xml:space="preserve" text-anchor="start" x="74.84" y="-241.66" font-family="Helvetica,sans-Serif" font-size="12.00">com.runehive.game.world.entity.mob.movement.waypoint.</text>
<text xml:space="preserve" text-anchor="middle" x="228.22" y="-227.41" font-family="Helvetica,sans-Serif" font-size="12.00">CombatWaypoint.withinDistance</text>
</a>
</g>
</g>
<!-- Node2 -->
<g id="Node000002" class="node">
<title>Node2</title>
<g id="a_Node000002"><a xlink:href="classcom_1_1runehive_1_1content_1_1activity_1_1_activity.html#aca809d07e972e77c942bf91754907afe" target="_top" xlink:title=" ">
<ellipse fill="white" stroke="#666666" cx="720.66" cy="-308.81" rx="121.62" ry="25.81"/>
<text xml:space="preserve" text-anchor="start" x="642.66" y="-311.66" font-family="Helvetica,sans-Serif" font-size="12.00">com.runehive.content.activity.</text>
<text xml:space="preserve" text-anchor="middle" x="720.66" y="-297.41" font-family="Helvetica,sans-Serif" font-size="12.00">Activity.evaluate</text>
</a>
</g>
</g>
<!-- Node1&#45;&gt;Node2 -->
<g id="edge1_Node000001_Node000002" class="edge">
<title>Node1&#45;&gt;Node2</title>
<g id="a_edge1_Node000001_Node000002"><a xlink:title=" ">
<path fill="none" stroke="#63b8ff" d="M372.06,-259.2C447.08,-269.91 537.69,-282.84 607.58,-292.81"/>
<polygon fill="#63b8ff" stroke="#63b8ff" points="606.72,-296.23 617.12,-294.17 607.71,-289.3 606.72,-296.23"/>
</a>
</g>
</g>
<!-- Node3 -->
<g id="Node000003" class="node">
<title>Node3</title>
<g id="a_Node000003"><a xlink:href="classcom_1_1runehive_1_1util_1_1_utility.html#a551396449bf2c3e196ba267f3efdc899" target="_top" xlink:title=" ">
<ellipse fill="white" stroke="#666666" cx="720.66" cy="-238.81" rx="112.08" ry="25.81"/>
<text xml:space="preserve" text-anchor="start" x="649.41" y="-241.66" font-family="Helvetica,sans-Serif" font-size="12.00">com.runehive.util.Utility.get</text>
<text xml:space="preserve" text-anchor="middle" x="720.66" y="-227.41" font-family="Helvetica,sans-Serif" font-size="12.00">Distance</text>
</a>
</g>
</g>
<!-- Node1&#45;&gt;Node3 -->
<g id="edge2_Node000001_Node000003" class="edge">
<title>Node1&#45;&gt;Node3</title>
<g id="a_edge2_Node000001_Node000003"><a xlink:title=" ">
<path fill="none" stroke="#63b8ff" d="M456.85,-238.81C505.11,-238.81 554.29,-238.81 596.85,-238.81"/>
<polygon fill="#63b8ff" stroke="#63b8ff" points="596.58,-242.31 606.58,-238.81 596.58,-235.31 596.58,-242.31"/>
</a>
</g>
</g>
<!-- Node13 -->
<g id="Node000013" class="node">
<title>Node13</title>
<g id="a_Node000013"><a xlink:href="classcom_1_1runehive_1_1game_1_1world_1_1entity_1_1mob_1_1movement_1_1waypoint_1_1_combat_waypoint.html#a6757b41caec83744b09765d5e7f997b5" target="_top" xlink:title=" ">
<ellipse fill="white" stroke="#666666" cx="720.66" cy="-168.81" rx="228.22" ry="25.81"/>
<text xml:space="preserve" text-anchor="start" x="567.28" y="-171.66" font-family="Helvetica,sans-Serif" font-size="12.00">com.runehive.game.world.entity.mob.movement.waypoint.</text>
<text xml:space="preserve" text-anchor="middle" x="720.66" y="-157.41" font-family="Helvetica,sans-Serif" font-size="12.00">CombatWaypoint.getRadius</text>
</a>
</g>
</g>
<!-- Node1&#45;&gt;Node13 -->
<g id="edge16_Node000001_Node000013" class="edge">
<title>Node1&#45;&gt;Node13</title>
<g id="a_edge16_Node000001_Node000013"><a xlink:title=" ">
<path fill="none" stroke="#63b8ff" d="M372.06,-218.42C432.75,-209.76 503.63,-199.64 565.5,-190.81"/>
<polygon fill="#63b8ff" stroke="#63b8ff" points="565.64,-194.33 575.05,-189.45 564.65,-187.4 565.64,-194.33"/>
</a>
</g>
</g>
<!-- Node4 -->
<g id="Node000004" class="node">
<title>Node4</title>
<g id="a_Node000004"><a xlink:href="interfacecom_1_1runehive_1_1game_1_1world_1_1_interactable.html#a49e07a60c6643c0ba33bc9754305c352" target="_top" xlink:title=" ">
<ellipse fill="white" stroke="#666666" cx="1447.79" cy="-381.81" rx="110.49" ry="25.81"/>
<text xml:space="preserve" text-anchor="start" x="1377.67" y="-384.66" font-family="Helvetica,sans-Serif" font-size="12.00">com.runehive.game.world.</text>
<text xml:space="preserve" text-anchor="middle" x="1447.79" y="-370.41" font-family="Helvetica,sans-Serif" font-size="12.00">Interactable.getPosition</text>
</a>
</g>
</g>
<!-- Node3&#45;&gt;Node4 -->
<g id="edge3_Node000003_Node000004" class="edge">
<title>Node3&#45;&gt;Node4</title>
<g id="a_edge3_Node000003_Node000004"><a xlink:title=" ">
<path fill="none" stroke="#63b8ff" d="M828.26,-231.19C870.53,-233.78 916.63,-244.46 948.87,-273.81 997.34,-317.93 933.18,-376.52 984.87,-416.81 1102.26,-508.31 1291.32,-449.23 1387.08,-409.46"/>
<polygon fill="#63b8ff" stroke="#63b8ff" points="1388.21,-412.78 1396.06,-405.67 1385.48,-406.34 1388.21,-412.78"/>
</a>
</g>
</g>
<!-- Node5 -->
<g id="Node000005" class="node">
<title>Node5</title>
<g id="a_Node000005"><a xlink:href="interfacecom_1_1runehive_1_1game_1_1world_1_1_interactable.html#a709f3328972af0a98047591417fd5d4b" target="_top" xlink:title=" ">
<ellipse fill="white" stroke="#666666" cx="1127.18" cy="-381.81" rx="110.49" ry="25.81"/>
<text xml:space="preserve" text-anchor="start" x="1057.06" y="-384.66" font-family="Helvetica,sans-Serif" font-size="12.00">com.runehive.game.world.</text>
<text xml:space="preserve" text-anchor="middle" x="1127.18" y="-370.41" font-family="Helvetica,sans-Serif" font-size="12.00">Interactable.getX</text>
</a>
</g>
</g>
<!-- Node3&#45;&gt;Node5 -->
<g id="edge4_Node000003_Node000005" class="edge">
<title>Node3&#45;&gt;Node5</title>
<g id="a_edge4_Node000003_Node000005"><a xlink:title=" ">
<path fill="none" stroke="#63b8ff" d="M832.02,-235.27C872.05,-238.98 915.56,-249.38 948.87,-273.81 978.05,-295.2 956.69,-324.13 984.87,-346.81 994.77,-354.78 1006.23,-360.96 1018.26,-365.76"/>
<polygon fill="#63b8ff" stroke="#63b8ff" points="1016.93,-369.01 1027.53,-369.12 1019.31,-362.42 1016.93,-369.01"/>
</a>
</g>
</g>
<!-- Node6 -->
<g id="Node000006" class="node">
<title>Node6</title>
<g id="a_Node000006"><a xlink:href="classcom_1_1runehive_1_1game_1_1world_1_1position_1_1_position.html#a7bfa5292d8c3f79100a6bc85ea27b5ea" target="_top" xlink:title="Gets the absolute x coordinate.">
<ellipse fill="white" stroke="#666666" cx="1447.79" cy="-300.81" rx="142.31" ry="25.81"/>
<text xml:space="preserve" text-anchor="start" x="1355.17" y="-303.66" font-family="Helvetica,sans-Serif" font-size="12.00">com.runehive.game.world.position.</text>
<text xml:space="preserve" text-anchor="middle" x="1447.79" y="-289.41" font-family="Helvetica,sans-Serif" font-size="12.00">Position.getX</text>
</a>
</g>
</g>
<!-- Node3&#45;&gt;Node6 -->
<g id="edge7_Node000003_Node000006" class="edge">
<title>Node3&#45;&gt;Node6</title>
<g id="a_edge7_Node000003_Node000006"><a xlink:title=" ">
<path fill="none" stroke="#63b8ff" d="M830.71,-244.27C941.4,-250.31 1117.62,-261.28 1269.49,-276.81 1287.27,-278.63 1306.02,-280.84 1324.4,-283.18"/>
<polygon fill="#63b8ff" stroke="#63b8ff" points="1323.92,-286.65 1334.29,-284.46 1324.82,-279.71 1323.92,-286.65"/>
</a>
</g>
</g>
<!-- Node7 -->
<g id="Node000007" class="node">
<title>Node7</title>
<g id="a_Node000007"><a xlink:href="interfacecom_1_1runehive_1_1game_1_1world_1_1_interactable.html#a4fe2dfd0c67da8fd088077795154e218" target="_top" xlink:title=" ">
<ellipse fill="white" stroke="#666666" cx="1127.18" cy="-311.81" rx="110.49" ry="25.81"/>
<text xml:space="preserve" text-anchor="start" x="1057.06" y="-314.66" font-family="Helvetica,sans-Serif" font-size="12.00">com.runehive.game.world.</text>
<text xml:space="preserve" text-anchor="middle" x="1127.18" y="-300.41" font-family="Helvetica,sans-Serif" font-size="12.00">Interactable.getY</text>
</a>
</g>
</g>
<!-- Node3&#45;&gt;Node7 -->
<g id="edge8_Node000003_Node000007" class="edge">
<title>Node3&#45;&gt;Node7</title>
<g id="a_edge8_Node000003_Node000007"><a xlink:title=" ">
<path fill="none" stroke="#63b8ff" d="M817.22,-252.26C857.89,-258.32 905.79,-265.88 948.87,-273.81 977.3,-279.04 1008.14,-285.41 1036.01,-291.42"/>
<polygon fill="#63b8ff" stroke="#63b8ff" points="1034.95,-294.77 1045.46,-293.47 1036.43,-287.93 1034.95,-294.77"/>
</a>
</g>
</g>
<!-- Node8 -->
<g id="Node000008" class="node">
<title>Node8</title>
<g id="a_Node000008"><a xlink:href="classcom_1_1runehive_1_1game_1_1world_1_1position_1_1_position.html#a55498d0fafce9fdeedca16984d79aee5" target="_top" xlink:title="Gets the absolute y coordinate.">
<ellipse fill="white" stroke="#666666" cx="1447.79" cy="-224.81" rx="142.31" ry="25.81"/>
<text xml:space="preserve" text-anchor="start" x="1355.17" y="-227.66" font-family="Helvetica,sans-Serif" font-size="12.00">com.runehive.game.world.position.</text>
<text xml:space="preserve" text-anchor="middle" x="1447.79" y="-213.41" font-family="Helvetica,sans-Serif" font-size="12.00">Position.getY</text>
</a>
</g>
</g>
<!-- Node3&#45;&gt;Node8 -->
<g id="edge11_Node000003_Node000008" class="edge">
<title>Node3&#45;&gt;Node8</title>
<g id="a_edge11_Node000003_Node000008"><a xlink:title=" ">
<path fill="none" stroke="#63b8ff" d="M832.58,-236.67C956.06,-234.28 1156.4,-230.42 1294.51,-227.75"/>
<polygon fill="#63b8ff" stroke="#63b8ff" points="1294.57,-231.25 1304.5,-227.56 1294.43,-224.25 1294.57,-231.25"/>
</a>
</g>
</g>
<!-- Node9 -->
<g id="Node000009" class="node">
<title>Node9</title>
<g id="a_Node000009"><a xlink:href="interfacecom_1_1runehive_1_1game_1_1world_1_1_interactable.html#a9513e5e63159a738b417ceba87cd1de8" target="_top" xlink:title=" ">
<ellipse fill="white" stroke="#666666" cx="1127.18" cy="-165.81" rx="110.49" ry="25.81"/>
<text xml:space="preserve" text-anchor="start" x="1057.06" y="-168.66" font-family="Helvetica,sans-Serif" font-size="12.00">com.runehive.game.world.</text>
<text xml:space="preserve" text-anchor="middle" x="1127.18" y="-154.41" font-family="Helvetica,sans-Serif" font-size="12.00">Interactable.length</text>
</a>
</g>
</g>
<!-- Node3&#45;&gt;Node9 -->
<g id="edge12_Node000003_Node000009" class="edge">
<title>Node3&#45;&gt;Node9</title>
<g id="a_edge12_Node000003_Node000009"><a xlink:title=" ">
<path fill="none" stroke="#63b8ff" d="M817.22,-225.35C857.89,-219.3 905.79,-211.74 948.87,-203.81 977.3,-198.58 1008.14,-192.21 1036.01,-186.2"/>
<polygon fill="#63b8ff" stroke="#63b8ff" points="1036.43,-189.69 1045.46,-184.15 1034.95,-182.85 1036.43,-189.69"/>
</a>
</g>
</g>
<!-- Node10 -->
<g id="Node000010" class="node">
<title>Node10</title>
<g id="a_Node000010"><a xlink:href="classcom_1_1runehive_1_1game_1_1world_1_1position_1_1_position.html#a92154563715ed156b00ee6220e2991ff" target="_top" xlink:title="Creates a new location based on this location.">
<ellipse fill="white" stroke="#666666" cx="1127.18" cy="-95.81" rx="142.31" ry="25.81"/>
<text xml:space="preserve" text-anchor="start" x="1034.56" y="-98.66" font-family="Helvetica,sans-Serif" font-size="12.00">com.runehive.game.world.position.</text>
<text xml:space="preserve" text-anchor="middle" x="1127.18" y="-84.41" font-family="Helvetica,sans-Serif" font-size="12.00">Position.transform</text>
</a>
</g>
</g>
<!-- Node3&#45;&gt;Node10 -->
<g id="edge13_Node000003_Node000010" class="edge">
<title>Node3&#45;&gt;Node10</title>
<g id="a_edge13_Node000003_Node000010"><a xlink:title=" ">
<path fill="none" stroke="#63b8ff" d="M832.02,-242.35C872.05,-238.64 915.56,-228.24 948.87,-203.81 978.05,-182.42 956.69,-153.49 984.87,-130.81 991.51,-125.47 998.86,-120.92 1006.6,-117.06"/>
<polygon fill="#63b8ff" stroke="#63b8ff" points="1007.94,-120.3 1015.61,-112.99 1005.06,-113.92 1007.94,-120.3"/>
</a>
</g>
</g>
<!-- Node12 -->
<g id="Node000012" class="node">
<title>Node12</title>
<g id="a_Node000012"><a xlink:href="interfacecom_1_1runehive_1_1game_1_1world_1_1_interactable.html#ad7eb47dad8c89c478cedc32ea6fe3a5b" target="_top" xlink:title=" ">
<ellipse fill="white" stroke="#666666" cx="1127.18" cy="-25.81" rx="110.49" ry="25.81"/>
<text xml:space="preserve" text-anchor="start" x="1057.06" y="-28.66" font-family="Helvetica,sans-Serif" font-size="12.00">com.runehive.game.world.</text>
<text xml:space="preserve" text-anchor="middle" x="1127.18" y="-14.41" font-family="Helvetica,sans-Serif" font-size="12.00">Interactable.width</text>
</a>
</g>
</g>
<!-- Node3&#45;&gt;Node12 -->
<g id="edge15_Node000003_Node000012" class="edge">
<title>Node3&#45;&gt;Node12</title>
<g id="a_edge15_Node000003_Node000012"><a xlink:title=" ">
<path fill="none" stroke="#63b8ff" d="M828.26,-246.43C870.53,-243.84 916.63,-233.16 948.87,-203.81 997.34,-159.69 938.44,-107.06 984.87,-60.81 993.51,-52.21 1003.91,-45.6 1015.1,-40.55"/>
<polygon fill="#63b8ff" stroke="#63b8ff" points="1016.2,-43.88 1024.17,-36.9 1013.58,-37.39 1016.2,-43.88"/>
</a>
</g>
</g>
<!-- Node5&#45;&gt;Node4 -->
<g id="edge5_Node000005_Node000004" class="edge">
<title>Node5&#45;&gt;Node4</title>
<g id="a_edge5_Node000005_Node000004"><a xlink:title=" ">
<path fill="none" stroke="#63b8ff" d="M1237.83,-381.81C1266.11,-381.81 1296.72,-381.81 1325.56,-381.81"/>
<polygon fill="#63b8ff" stroke="#63b8ff" points="1325.43,-385.31 1335.43,-381.81 1325.43,-378.31 1325.43,-385.31"/>
</a>
</g>
</g>
<!-- Node5&#45;&gt;Node6 -->
<g id="edge6_Node000005_Node000006" class="edge">
<title>Node5&#45;&gt;Node6</title>
<g id="a_edge6_Node000005_Node000006"><a xlink:title=" ">
<path fill="none" stroke="#63b8ff" d="M1204.49,-363.07C1225.56,-357.85 1248.42,-352.15 1269.49,-346.81 1296.98,-339.84 1326.85,-332.14 1354.09,-325.07"/>
<polygon fill="#63b8ff" stroke="#63b8ff" points="1354.93,-328.46 1363.72,-322.56 1353.17,-321.69 1354.93,-328.46"/>
</a>
</g>
</g>
<!-- Node7&#45;&gt;Node4 -->
<g id="edge9_Node000007_Node000004" class="edge">
<title>Node7&#45;&gt;Node4</title>
<g id="a_edge9_Node000007_Node000004"><a xlink:title=" ">
<path fill="none" stroke="#63b8ff" d="M1208.99,-329.56C1253.44,-339.33 1308.77,-351.48 1354.86,-361.61"/>
<polygon fill="#63b8ff" stroke="#63b8ff" points="1354.07,-365.02 1364.59,-363.75 1355.57,-358.18 1354.07,-365.02"/>
</a>
</g>
</g>
<!-- Node7&#45;&gt;Node8 -->
<g id="edge10_Node000007_Node000008" class="edge">
<title>Node7&#45;&gt;Node8</title>
<g id="a_edge10_Node000007_Node000008"><a xlink:title=" ">
<path fill="none" stroke="#63b8ff" d="M1200.48,-292.07C1246.65,-279.46 1306.89,-263.01 1356.24,-249.54"/>
<polygon fill="#63b8ff" stroke="#63b8ff" points="1357.05,-252.94 1365.77,-246.93 1355.21,-246.19 1357.05,-252.94"/>
</a>
</g>
</g>
<!-- Node11 -->
<g id="Node000011" class="node">
<title>Node11</title>
<g id="a_Node000011"><a xlink:href="classcom_1_1runehive_1_1game_1_1world_1_1position_1_1_position.html#a7803ff05a7b4b99d2883898ade9427f7" target="_top" xlink:title="Creates a location with a default height of 0.">
<ellipse fill="white" stroke="#666666" cx="1447.79" cy="-95.81" rx="142.31" ry="25.81"/>
<text xml:space="preserve" text-anchor="start" x="1355.17" y="-98.66" font-family="Helvetica,sans-Serif" font-size="12.00">com.runehive.game.world.position.</text>
<text xml:space="preserve" text-anchor="middle" x="1447.79" y="-84.41" font-family="Helvetica,sans-Serif" font-size="12.00">Position.Position</text>
</a>
</g>
</g>
<!-- Node10&#45;&gt;Node11 -->
<g id="edge14_Node000010_Node000011" class="edge">
<title>Node10&#45;&gt;Node11</title>
<g id="a_edge14_Node000010_Node000011"><a xlink:title=" ">
<path fill="none" stroke="#63b8ff" d="M1269.78,-95.81C1277.8,-95.81 1285.88,-95.81 1293.94,-95.81"/>
<polygon fill="#63b8ff" stroke="#63b8ff" points="1293.8,-99.31 1303.8,-95.81 1293.8,-92.31 1293.8,-99.31"/>
</a>
</g>
</g>
</g>
</svg>

<g id="navigator" transform="translate(0 0)" fill="#404254">
  <rect fill="#f2f5e9" fill-opacity="0.5" stroke="#606060" stroke-width=".5" x="0" y="0" width="60" height="60"/>
  <use id="zoomplus" xlink:href="#zoomPlus" x="17" y="9" onmousedown="handleZoom(evt,'in')"/>
  <use id="zoomminus" xlink:href="#zoomMin" x="42" y="9" onmousedown="handleZoom(evt,'out')"/>
  <use id="reset" xlink:href="#resetDef" x="30" y="36" onmousedown="handleReset()"/>
   <use id="arrowup" xlink:href="#arrowUp" x="0" y="0" onmousedown="handlePan(0,-1)"/>
  <use id="arrowright" xlink:href="#arrowRight" x="0" y="0" onmousedown="handlePan(1,0)"/>
  <use id="arrowdown" xlink:href="#arrowDown" x="0" y="0" onmousedown="handlePan(0,1)"/>
  <use id="arrowleft" xlink:href="#arrowLeft" x="0" y="0" onmousedown="handlePan(-1,0)"/>
</g>
<svg viewBox="0 0 15 15" width="100%" height="30px" preserveAspectRatio="xMaxYMin meet">
 <g id="arrow_out" transform="scale(0.3 0.3)">
  <a xlink:href="classcom_1_1runehive_1_1game_1_1world_1_1entity_1_1mob_1_1movement_1_1waypoint_1_1_combat_waypoint_a299bad30602d8a1e9361e9759bed9dd8_cgraph_org.svg" target="_base">
   <rect id="button" ry="5" rx="5" y="6" x="6" height="38" width="38"
        fill="#f2f5e9" fill-opacity="0.5" stroke="#606060" stroke-width="1.0"/>
   <path id="arrow"
     d="M 11.500037,31.436501 C 11.940474,20.09759 22.043105,11.32322 32.158766,21.979434 L 37.068811,17.246167 C 37.068811,17.246167 37.088388,32 37.088388,32 L 22.160133,31.978069 C 22.160133,31.978069 26.997745,27.140456 26.997745,27.140456 C 18.528582,18.264221 13.291696,25.230495 11.500037,31.436501 z"
     style="fill:#404040;"/>
  </a>
 </g>
</svg>

<style type='text/css'>
<![CDATA[
[data-mouse-over-selected='false'] { opacity: 0.7; }
[data-mouse-over-selected='true']  { opacity: 1.0; }
]]>
</style>
<script type="application/ecmascript"><![CDATA[
document.addEventListener('DOMContentLoaded', (event) => {
  highlightEdges();
  highlightAdjacentNodes();
});
]]></script>
</svg>
