<?xml version="1.0" encoding="UTF-8" standalone="no"?>
<!DOCTYPE svg PUBLIC "-//W3C//DTD SVG 1.1//EN"
 "http://www.w3.org/Graphics/SVG/1.1/DTD/svg11.dtd">
<!-- Generated by graphviz version 14.0.1 (20251006.0113)
 -->
<!-- Title: com.runehive.game.world.entity.combat.strategy.player.PlayerMagicStrategy.hit Pages: 1 -->
<!--zoomable 410 -->

<svg id="main" version="1.1" xmlns="http://www.w3.org/2000/svg" xmlns:xlink="http://www.w3.org/1999/xlink" xml:space="preserve" onload="init(evt)">

<style type="text/css"><![CDATA[
.node, .edge {opacity: 0.7;}
.node.selected, .edge.selected {opacity: 1;}
.edge:hover path { stroke: red; }
.edge:hover polygon { stroke: red; fill: red; }
]]></style>

<defs>
  <circle id="rim" cx="0" cy="0" r="7"/>
  <circle id="rim2" cx="0" cy="0" r="3.5"/>
  <g id="zoomPlus">
    <use xlink:href="#rim" fill="#404040"><set attributeName="fill" to="#808080" begin="zoomplus.mouseover" end="zoomplus.mouseout"/></use>
    <path d="M-4,0h8M0,-4v8" fill="none" stroke="white" stroke-width="1.5" pointer-events="none"/>
  </g>
  <g id="zoomMin">
    <use xlink:href="#rim" fill="#404040"><set attributeName="fill" to="#808080" begin="zoomminus.mouseover" end="zoomminus.mouseout"/></use>
    <path d="M-4,0h8" fill="none" stroke="white" stroke-width="1.5" pointer-events="none"/>
  </g>
  <g id="arrowUp" transform="translate(30 24)">
    <use xlink:href="#rim"/>
    <path pointer-events="none" fill="none" stroke="white" stroke-width="1.5" d="M0,-3.0v7 M-2.5,-0.5L0,-3.0L2.5,-0.5"/>
  </g>
  <g id="arrowRight" transform="rotate(90) translate(36 -43)">
    <use xlink:href="#rim"/>
    <path pointer-events="none" fill="none" stroke="white" stroke-width="1.5" d="M0,-3.0v7 M-2.5,-0.5L0,-3.0L2.5,-0.5"/>
  </g>
  <g id="arrowDown" transform="rotate(180) translate(-30 -48)">
    <use xlink:href="#rim"/>
    <path pointer-events="none" fill="none" stroke="white" stroke-width="1.5" d="M0,-3.0v7 M-2.5,-0.5L0,-3.0L2.5,-0.5"/>
  </g>
  <g id="arrowLeft" transform="rotate(270) translate(-36 17)">
    <use xlink:href="#rim"/>
    <path pointer-events="none" fill="none" stroke="white" stroke-width="1.5" d="M0,-3.0v7 M-2.5,-0.5L0,-3.0L2.5,-0.5"/>
  </g>
  <g id="resetDef">
    <use xlink:href="#rim2" fill="#404040"><set attributeName="fill" to="#808080" begin="reset.mouseover" end="reset.mouseout"/></use>
  </g>
</defs>
<script type="application/ecmascript">
var viewWidth = 1192;
var viewHeight = 410;
var sectionId = 'dynsection-6';
</script>
<script type="application/ecmascript" xlink:href="svg.min.js"/>
<svg id="graph" class="graph">
<g id="viewport">
<title>com.runehive.game.world.entity.combat.strategy.player.PlayerMagicStrategy.hit</title>
<!-- Node1 -->
<g id="Node000001" class="node">
<title>Node1</title>
<g id="a_Node000001"><a xlink:title=" ">
<ellipse fill="#999999" stroke="#666666" cx="218.14" cy="-200.81" rx="218.14" ry="25.81"/>
<text xml:space="preserve" text-anchor="start" x="71.89" y="-203.66" font-family="Helvetica,sans-Serif" font-size="12.00">com.runehive.game.world.entity.combat.strategy.player.</text>
<text xml:space="preserve" text-anchor="middle" x="218.14" y="-189.41" font-family="Helvetica,sans-Serif" font-size="12.00">PlayerMagicStrategy.hit</text>
</a>
</g>
</g>
<!-- Node1&#45;&gt;Node1 -->
<g id="edge1_Node000001_Node000001" class="edge">
<title>Node1&#45;&gt;Node1</title>
<g id="a_edge1_Node000001_Node000001"><a xlink:title=" ">
<path fill="none" stroke="#63b8ff" d="M138.51,-225.14C131.99,-235.63 158.53,-244.62 218.14,-244.62 257.26,-244.62 282.14,-240.75 292.78,-235.12"/>
<polygon fill="#63b8ff" stroke="#63b8ff" points="295.75,-237 297.1,-226.49 289.49,-233.87 295.75,-237"/>
</a>
</g>
</g>
<!-- Node2 -->
<g id="Node000002" class="node">
<title>Node2</title>
<g id="a_Node000002"><a xlink:href="classcom_1_1runehive_1_1game_1_1world_1_1entity_1_1mob_1_1player_1_1_player.html#ae108b816849177b3e7542c5ee956b30d" target="_top" xlink:title=" ">
<ellipse fill="white" stroke="#666666" cx="648" cy="-375.81" rx="175.72" ry="25.81"/>
<text xml:space="preserve" text-anchor="start" x="531.75" y="-378.66" font-family="Helvetica,sans-Serif" font-size="12.00">com.runehive.game.world.entity.mob.player.</text>
<text xml:space="preserve" text-anchor="middle" x="648" y="-364.41" font-family="Helvetica,sans-Serif" font-size="12.00">Player.isAutocast</text>
</a>
</g>
</g>
<!-- Node1&#45;&gt;Node2 -->
<g id="edge2_Node000001_Node000002" class="edge">
<title>Node1&#45;&gt;Node2</title>
<g id="a_edge2_Node000001_Node000002"><a xlink:title=" ">
<path fill="none" stroke="#63b8ff" d="M256.83,-226.53C304.79,-258.1 391.18,-311.07 472.28,-340.81 486.19,-345.91 501.01,-350.32 515.91,-354.13"/>
<polygon fill="#63b8ff" stroke="#63b8ff" points="514.74,-357.45 525.29,-356.44 516.41,-350.65 514.74,-357.45"/>
</a>
</g>
</g>
<!-- Node3 -->
<g id="Node000003" class="node">
<title>Node3</title>
<g id="a_Node000003"><a xlink:href="classcom_1_1runehive_1_1game_1_1world_1_1entity_1_1mob_1_1player_1_1_player.html#a4cf7bb71ab5c4a04c49e90c0f26cde91" target="_top" xlink:title=" ">
<ellipse fill="white" stroke="#666666" cx="648" cy="-305.81" rx="175.72" ry="25.81"/>
<text xml:space="preserve" text-anchor="start" x="531.75" y="-308.66" font-family="Helvetica,sans-Serif" font-size="12.00">com.runehive.game.world.entity.mob.player.</text>
<text xml:space="preserve" text-anchor="middle" x="648" y="-294.41" font-family="Helvetica,sans-Serif" font-size="12.00">Player.isSingleCast</text>
</a>
</g>
</g>
<!-- Node1&#45;&gt;Node3 -->
<g id="edge3_Node000001_Node000003" class="edge">
<title>Node1&#45;&gt;Node3</title>
<g id="a_edge3_Node000001_Node000003"><a xlink:title=" ">
<path fill="none" stroke="#63b8ff" d="M301.12,-225.09C350.49,-239.31 414.73,-257.11 472.28,-270.81 489.94,-275.01 508.67,-279.13 527.07,-282.97"/>
<polygon fill="#63b8ff" stroke="#63b8ff" points="526.17,-286.36 536.68,-284.96 527.59,-279.51 526.17,-286.36"/>
</a>
</g>
</g>
<!-- Node4 -->
<g id="Node000004" class="node">
<title>Node4</title>
<g id="a_Node000004"><a xlink:href="classcom_1_1runehive_1_1game_1_1world_1_1entity_1_1mob_1_1_mob.html#ada8b3342903dae696a350045399e39ca" target="_top" xlink:title="Resets the mob&#39;s face location.">
<ellipse fill="white" stroke="#666666" cx="648" cy="-235.81" rx="150.79" ry="25.81"/>
<text xml:space="preserve" text-anchor="start" x="549.38" y="-238.66" font-family="Helvetica,sans-Serif" font-size="12.00">com.runehive.game.world.entity.mob.</text>
<text xml:space="preserve" text-anchor="middle" x="648" y="-224.41" font-family="Helvetica,sans-Serif" font-size="12.00">Mob.resetFace</text>
</a>
</g>
</g>
<!-- Node1&#45;&gt;Node4 -->
<g id="edge4_Node000001_Node000004" class="edge">
<title>Node1&#45;&gt;Node4</title>
<g id="a_edge4_Node000001_Node000004"><a xlink:title=" ">
<path fill="none" stroke="#63b8ff" d="M399.04,-215.53C432.57,-218.27 467.24,-221.1 499.65,-223.76"/>
<polygon fill="#63b8ff" stroke="#63b8ff" points="499.25,-227.23 509.5,-224.56 499.82,-220.26 499.25,-227.23"/>
</a>
</g>
</g>
<!-- Node5 -->
<g id="Node000005" class="node">
<title>Node5</title>
<g id="a_Node000005"><a xlink:href="classcom_1_1runehive_1_1game_1_1world_1_1items_1_1containers_1_1_item_container.html#a793fa95415f6842dbfbd93a52f1cf2ed" target="_top" xlink:title="Retrieves the item located on index.">
<ellipse fill="white" stroke="#666666" cx="648" cy="-165.81" rx="174.13" ry="25.81"/>
<text xml:space="preserve" text-anchor="start" x="532.88" y="-168.66" font-family="Helvetica,sans-Serif" font-size="12.00">com.runehive.game.world.items.containers.</text>
<text xml:space="preserve" text-anchor="middle" x="648" y="-154.41" font-family="Helvetica,sans-Serif" font-size="12.00">ItemContainer.retrieve</text>
</a>
</g>
</g>
<!-- Node1&#45;&gt;Node5 -->
<g id="edge5_Node000001_Node000005" class="edge">
<title>Node1&#45;&gt;Node5</title>
<g id="a_edge5_Node000001_Node000005"><a xlink:title=" ">
<path fill="none" stroke="#63b8ff" d="M399.04,-186.09C426.96,-183.81 455.68,-181.46 483.21,-179.21"/>
<polygon fill="#63b8ff" stroke="#63b8ff" points="483.33,-182.71 493.02,-178.41 482.76,-175.73 483.33,-182.71"/>
</a>
</g>
</g>
<!-- Node6 -->
<g id="Node000006" class="node">
<title>Node6</title>
<g id="a_Node000006"><a xlink:href="classcom_1_1runehive_1_1util_1_1_random_utils.html#ae851906399232ad944de15c2fd29c5b8" target="_top" xlink:title="Determines if a pseudorandomly generated double rounded to two decimal places is below or equal to va...">
<ellipse fill="white" stroke="#666666" cx="648" cy="-95.81" rx="109.96" ry="25.81"/>
<text xml:space="preserve" text-anchor="start" x="578.25" y="-98.66" font-family="Helvetica,sans-Serif" font-size="12.00">com.runehive.util.Random</text>
<text xml:space="preserve" text-anchor="middle" x="648" y="-84.41" font-family="Helvetica,sans-Serif" font-size="12.00">Utils.success</text>
</a>
</g>
</g>
<!-- Node1&#45;&gt;Node6 -->
<g id="edge6_Node000001_Node000006" class="edge">
<title>Node1&#45;&gt;Node6</title>
<g id="a_edge6_Node000001_Node000006"><a xlink:title=" ">
<path fill="none" stroke="#63b8ff" d="M301.12,-176.53C350.49,-162.31 414.73,-144.51 472.28,-130.81 497.19,-124.88 524.25,-119.13 549.47,-114.06"/>
<polygon fill="#63b8ff" stroke="#63b8ff" points="549.92,-117.53 559.05,-112.15 548.56,-110.67 549.92,-117.53"/>
</a>
</g>
</g>
<!-- Node7 -->
<g id="Node000007" class="node">
<title>Node7</title>
<g id="a_Node000007"><a xlink:href="classcom_1_1runehive_1_1game_1_1world_1_1entity_1_1mob_1_1_mob.html#af65a7a0b8842f43cca49f559a0c1c440" target="_top" xlink:title="Applies venom to the entity.">
<ellipse fill="white" stroke="#666666" cx="648" cy="-25.81" rx="150.79" ry="25.81"/>
<text xml:space="preserve" text-anchor="start" x="549.38" y="-28.66" font-family="Helvetica,sans-Serif" font-size="12.00">com.runehive.game.world.entity.mob.</text>
<text xml:space="preserve" text-anchor="middle" x="648" y="-14.41" font-family="Helvetica,sans-Serif" font-size="12.00">Mob.venom</text>
</a>
</g>
</g>
<!-- Node1&#45;&gt;Node7 -->
<g id="edge7_Node000001_Node000007" class="edge">
<title>Node1&#45;&gt;Node7</title>
<g id="a_edge7_Node000001_Node000007"><a xlink:title=" ">
<path fill="none" stroke="#63b8ff" d="M256.83,-175.09C304.79,-143.52 391.18,-90.55 472.28,-60.81 488.52,-54.86 506,-49.83 523.4,-45.62"/>
<polygon fill="#63b8ff" stroke="#63b8ff" points="523.79,-49.12 532.73,-43.44 522.2,-42.31 523.79,-49.12"/>
</a>
</g>
</g>
<!-- Node8 -->
<g id="Node000008" class="node">
<title>Node8</title>
<g id="a_Node000008"><a xlink:href="classcom_1_1runehive_1_1game_1_1world_1_1entity_1_1combat_1_1_combat_util.html#a59d6e62ebcc26a130e426dca2a2a02c9" target="_top" xlink:title="Applies the effect in any context.">
<ellipse fill="white" stroke="#666666" cx="1021.64" cy="-25.81" rx="161.93" ry="25.81"/>
<text xml:space="preserve" text-anchor="start" x="915.14" y="-28.66" font-family="Helvetica,sans-Serif" font-size="12.00">com.runehive.game.world.entity.combat.</text>
<text xml:space="preserve" text-anchor="middle" x="1021.64" y="-14.41" font-family="Helvetica,sans-Serif" font-size="12.00">CombatUtil.effect</text>
</a>
</g>
</g>
<!-- Node7&#45;&gt;Node8 -->
<g id="edge8_Node000007_Node000008" class="edge">
<title>Node7&#45;&gt;Node8</title>
<g id="a_edge8_Node000007_Node000008"><a xlink:title=" ">
<path fill="none" stroke="#63b8ff" d="M799.09,-25.81C815.21,-25.81 831.71,-25.81 848.07,-25.81"/>
<polygon fill="#63b8ff" stroke="#63b8ff" points="847.85,-29.31 857.85,-25.81 847.85,-22.31 847.85,-29.31"/>
</a>
</g>
</g>
<!-- Node8&#45;&gt;Node8 -->
<g id="edge9_Node000008_Node000008" class="edge">
<title>Node8&#45;&gt;Node8</title>
<g id="a_edge9_Node000008_Node000008"><a xlink:title=" ">
<path fill="none" stroke="#63b8ff" d="M952.97,-49.25C945.48,-60.12 968.37,-69.62 1021.64,-69.62 1055.77,-69.62 1077.43,-65.72 1086.62,-60.06"/>
<polygon fill="#63b8ff" stroke="#63b8ff" points="1089.91,-61.27 1089.83,-50.68 1083.28,-59.01 1089.91,-61.27"/>
</a>
</g>
</g>
</g>
</svg>

<g id="navigator" transform="translate(0 0)" fill="#404254">
  <rect fill="#f2f5e9" fill-opacity="0.5" stroke="#606060" stroke-width=".5" x="0" y="0" width="60" height="60"/>
  <use id="zoomplus" xlink:href="#zoomPlus" x="17" y="9" onmousedown="handleZoom(evt,'in')"/>
  <use id="zoomminus" xlink:href="#zoomMin" x="42" y="9" onmousedown="handleZoom(evt,'out')"/>
  <use id="reset" xlink:href="#resetDef" x="30" y="36" onmousedown="handleReset()"/>
   <use id="arrowup" xlink:href="#arrowUp" x="0" y="0" onmousedown="handlePan(0,-1)"/>
  <use id="arrowright" xlink:href="#arrowRight" x="0" y="0" onmousedown="handlePan(1,0)"/>
  <use id="arrowdown" xlink:href="#arrowDown" x="0" y="0" onmousedown="handlePan(0,1)"/>
  <use id="arrowleft" xlink:href="#arrowLeft" x="0" y="0" onmousedown="handlePan(-1,0)"/>
</g>
<svg viewBox="0 0 15 15" width="100%" height="30px" preserveAspectRatio="xMaxYMin meet">
 <g id="arrow_out" transform="scale(0.3 0.3)">
  <a xlink:href="classcom_1_1runehive_1_1game_1_1world_1_1entity_1_1combat_1_1strategy_1_1player_1_1_player_magic_strategy_a245fce908b30a83b4f820c492776acab_cgraph_org.svg" target="_base">
   <rect id="button" ry="5" rx="5" y="6" x="6" height="38" width="38"
        fill="#f2f5e9" fill-opacity="0.5" stroke="#606060" stroke-width="1.0"/>
   <path id="arrow"
     d="M 11.500037,31.436501 C 11.940474,20.09759 22.043105,11.32322 32.158766,21.979434 L 37.068811,17.246167 C 37.068811,17.246167 37.088388,32 37.088388,32 L 22.160133,31.978069 C 22.160133,31.978069 26.997745,27.140456 26.997745,27.140456 C 18.528582,18.264221 13.291696,25.230495 11.500037,31.436501 z"
     style="fill:#404040;"/>
  </a>
 </g>
</svg>

<style type='text/css'>
<![CDATA[
[data-mouse-over-selected='false'] { opacity: 0.7; }
[data-mouse-over-selected='true']  { opacity: 1.0; }
]]>
</style>
<script type="application/ecmascript"><![CDATA[
document.addEventListener('DOMContentLoaded', (event) => {
  highlightEdges();
  highlightAdjacentNodes();
});
]]></script>
</svg>
