<?xml version="1.0" encoding="UTF-8" standalone="no"?>
<!DOCTYPE svg PUBLIC "-//W3C//DTD SVG 1.1//EN"
 "http://www.w3.org/Graphics/SVG/1.1/DTD/svg11.dtd">
<!-- Generated by graphviz version 14.0.1 (20251006.0113)
 -->
<!-- Title: com.runehive.game.world.entity.combat.strategy.player.special.melee.SaradominGodsword.attack Pages: 1 -->
<svg width="1469pt" height="236pt"
 viewBox="0.00 0.00 1469.00 236.00" xmlns="http://www.w3.org/2000/svg" xmlns:xlink="http://www.w3.org/1999/xlink">
<g id="graph0" class="graph" transform="scale(1 1) rotate(0) translate(4 231.62)">
<title>com.runehive.game.world.entity.combat.strategy.player.special.melee.SaradominGodsword.attack</title>
<!-- Node1 -->
<g id="Node000001" class="node">
<title>Node1</title>
<g id="a_Node000001"><a xlink:title=" ">
<ellipse fill="#999999" stroke="#666666" cx="272.77" cy="-113.81" rx="272.77" ry="25.81"/>
<text xml:space="preserve" text-anchor="start" x="87.89" y="-116.66" font-family="Helvetica,sans-Serif" font-size="12.00">com.runehive.game.world.entity.combat.strategy.player.special.melee.</text>
<text xml:space="preserve" text-anchor="middle" x="272.77" y="-102.41" font-family="Helvetica,sans-Serif" font-size="12.00">SaradominGodsword.attack</text>
</a>
</g>
</g>
<!-- Node2 -->
<g id="Node000002" class="node">
<title>Node2</title>
<g id="a_Node000002"><a xlink:href="classcom_1_1runehive_1_1game_1_1world_1_1entity_1_1skill_1_1_skill_manager.html#a8167146b6fbdc949d0d7950e5e7e3b34" target="_top" xlink:title="Gets the skill for an id.">
<ellipse fill="white" stroke="#666666" cx="854.3" cy="-201.81" rx="149.2" ry="25.81"/>
<text xml:space="preserve" text-anchor="start" x="756.8" y="-204.66" font-family="Helvetica,sans-Serif" font-size="12.00">com.runehive.game.world.entity.skill.</text>
<text xml:space="preserve" text-anchor="middle" x="854.3" y="-190.41" font-family="Helvetica,sans-Serif" font-size="12.00">SkillManager.get</text>
</a>
</g>
</g>
<!-- Node1&#45;&gt;Node2 -->
<g id="edge1_Node000001_Node000002" class="edge">
<title>Node1&#45;&gt;Node2</title>
<g id="a_edge1_Node000001_Node000002"><a xlink:title=" ">
<path fill="none" stroke="#63b8ff" d="M401.22,-137.01C456.55,-146.75 522.15,-157.88 581.53,-166.81 626.21,-173.53 675.15,-180.08 719.03,-185.67"/>
<polygon fill="#63b8ff" stroke="#63b8ff" points="718.51,-189.13 728.87,-186.91 719.39,-182.18 718.51,-189.13"/>
</a>
</g>
</g>
<!-- Node3 -->
<g id="Node000003" class="node">
<title>Node3</title>
<g id="a_Node000003"><a xlink:href="classcom_1_1runehive_1_1game_1_1world_1_1entity_1_1combat_1_1strategy_1_1player_1_1special_1_1melee_1_1_saradomin_godsword.html#aecf65a48b195bde219588991c736d7c5" target="_top" xlink:title=" ">
<ellipse fill="white" stroke="#666666" cx="854.3" cy="-113.81" rx="272.77" ry="25.81"/>
<text xml:space="preserve" text-anchor="start" x="669.42" y="-116.66" font-family="Helvetica,sans-Serif" font-size="12.00">com.runehive.game.world.entity.combat.strategy.player.special.melee.</text>
<text xml:space="preserve" text-anchor="middle" x="854.3" y="-102.41" font-family="Helvetica,sans-Serif" font-size="12.00">SaradominGodsword.hit</text>
</a>
</g>
</g>
<!-- Node1&#45;&gt;Node3 -->
<g id="edge2_Node000001_Node000003" class="edge">
<title>Node1&#45;&gt;Node3</title>
<g id="a_edge2_Node000001_Node000003"><a xlink:title=" ">
<path fill="none" stroke="#63b8ff" d="M545.72,-113.81C553.71,-113.81 561.72,-113.81 569.73,-113.81"/>
<polygon fill="#63b8ff" stroke="#63b8ff" points="569.53,-117.31 579.53,-113.81 569.53,-110.31 569.53,-117.31"/>
</a>
</g>
</g>
<!-- Node4 -->
<g id="Node000004" class="node">
<title>Node4</title>
<g id="a_Node000004"><a xlink:href="classcom_1_1runehive_1_1game_1_1world_1_1entity_1_1skill_1_1_skill_manager.html#adff2c957e0ad7f7155953c5922812a44" target="_top" xlink:title="Sets the level of a skill.">
<ellipse fill="white" stroke="#666666" cx="854.3" cy="-25.81" rx="149.2" ry="25.81"/>
<text xml:space="preserve" text-anchor="start" x="756.8" y="-28.66" font-family="Helvetica,sans-Serif" font-size="12.00">com.runehive.game.world.entity.skill.</text>
<text xml:space="preserve" text-anchor="middle" x="854.3" y="-14.41" font-family="Helvetica,sans-Serif" font-size="12.00">SkillManager.setLevel</text>
</a>
</g>
</g>
<!-- Node1&#45;&gt;Node4 -->
<g id="edge4_Node000001_Node000004" class="edge">
<title>Node1&#45;&gt;Node4</title>
<g id="a_edge4_Node000001_Node000004"><a xlink:title=" ">
<path fill="none" stroke="#63b8ff" d="M419.63,-91.66C515.23,-77.14 638.83,-58.38 729.61,-44.59"/>
<polygon fill="#63b8ff" stroke="#63b8ff" points="729.93,-48.08 739.3,-43.12 728.88,-41.16 729.93,-48.08"/>
</a>
</g>
</g>
<!-- Node3&#45;&gt;Node3 -->
<g id="edge3_Node000003_Node000003" class="edge">
<title>Node3&#45;&gt;Node3</title>
<g id="a_edge3_Node000003_Node000003"><a xlink:title=" ">
<path fill="none" stroke="#63b8ff" d="M769.19,-138.58C763.32,-148.88 791.69,-157.62 854.3,-157.62 895.88,-157.62 922.36,-153.77 933.74,-148.16"/>
<polygon fill="#63b8ff" stroke="#63b8ff" points="936.56,-150.27 938.64,-139.88 930.53,-146.7 936.56,-150.27"/>
</a>
</g>
</g>
<!-- Node4&#45;&gt;Node4 -->
<g id="edge7_Node000004_Node000004" class="edge">
<title>Node4&#45;&gt;Node4</title>
<g id="a_edge7_Node000004_Node000004"><a xlink:title=" ">
<path fill="none" stroke="#63b8ff" d="M771.71,-47.67C758.34,-59.19 785.87,-69.62 854.3,-69.62 898.67,-69.62 925.84,-65.23 935.82,-59.01"/>
<polygon fill="#63b8ff" stroke="#63b8ff" points="939.3,-59.47 936.75,-49.18 932.33,-58.81 939.3,-59.47"/>
</a>
</g>
</g>
<!-- Node5 -->
<g id="Node000005" class="node">
<title>Node5</title>
<g id="a_Node000005"><a xlink:href="classcom_1_1runehive_1_1game_1_1world_1_1entity_1_1skill_1_1_skill_manager.html#a9d2f706cb24e30ca8451a4f49401df4c" target="_top" xlink:title="Refreshes all the skills for the mob.">
<ellipse fill="white" stroke="#666666" cx="1312.27" cy="-25.81" rx="149.2" ry="25.81"/>
<text xml:space="preserve" text-anchor="start" x="1214.77" y="-28.66" font-family="Helvetica,sans-Serif" font-size="12.00">com.runehive.game.world.entity.skill.</text>
<text xml:space="preserve" text-anchor="middle" x="1312.27" y="-14.41" font-family="Helvetica,sans-Serif" font-size="12.00">SkillManager.refresh</text>
</a>
</g>
</g>
<!-- Node4&#45;&gt;Node5 -->
<g id="edge5_Node000004_Node000005" class="edge">
<title>Node4&#45;&gt;Node5</title>
<g id="a_edge5_Node000004_Node000005"><a xlink:title=" ">
<path fill="none" stroke="#63b8ff" d="M1003.97,-25.81C1051.13,-25.81 1103.45,-25.81 1151.36,-25.81"/>
<polygon fill="#63b8ff" stroke="#63b8ff" points="1151.28,-29.31 1161.28,-25.81 1151.28,-22.31 1151.28,-29.31"/>
</a>
</g>
</g>
<!-- Node5&#45;&gt;Node5 -->
<g id="edge6_Node000005_Node000005" class="edge">
<title>Node5&#45;&gt;Node5</title>
<g id="a_edge6_Node000005_Node000005"><a xlink:title=" ">
<path fill="none" stroke="#63b8ff" d="M1229.67,-47.67C1216.31,-59.19 1243.84,-69.62 1312.27,-69.62 1356.64,-69.62 1383.81,-65.23 1393.79,-59.01"/>
<polygon fill="#63b8ff" stroke="#63b8ff" points="1397.26,-59.47 1394.72,-49.18 1390.29,-58.81 1397.26,-59.47"/>
</a>
</g>
</g>
</g>
</svg>
