<?xml version="1.0" encoding="UTF-8" standalone="no"?>
<!DOCTYPE svg PUBLIC "-//W3C//DTD SVG 1.1//EN"
 "http://www.w3.org/Graphics/SVG/1.1/DTD/svg11.dtd">
<!-- Generated by graphviz version 14.0.1 (20251006.0113)
 -->
<!-- Title: com.runehive.game.world.region.Region.reachable Pages: 1 -->
<!--zoomable 652 -->

<svg id="main" version="1.1" xmlns="http://www.w3.org/2000/svg" xmlns:xlink="http://www.w3.org/1999/xlink" xml:space="preserve" onload="init(evt)">

<style type="text/css"><![CDATA[
.node, .edge {opacity: 0.7;}
.node.selected, .edge.selected {opacity: 1;}
.edge:hover path { stroke: red; }
.edge:hover polygon { stroke: red; fill: red; }
]]></style>

<defs>
  <circle id="rim" cx="0" cy="0" r="7"/>
  <circle id="rim2" cx="0" cy="0" r="3.5"/>
  <g id="zoomPlus">
    <use xlink:href="#rim" fill="#404040"><set attributeName="fill" to="#808080" begin="zoomplus.mouseover" end="zoomplus.mouseout"/></use>
    <path d="M-4,0h8M0,-4v8" fill="none" stroke="white" stroke-width="1.5" pointer-events="none"/>
  </g>
  <g id="zoomMin">
    <use xlink:href="#rim" fill="#404040"><set attributeName="fill" to="#808080" begin="zoomminus.mouseover" end="zoomminus.mouseout"/></use>
    <path d="M-4,0h8" fill="none" stroke="white" stroke-width="1.5" pointer-events="none"/>
  </g>
  <g id="arrowUp" transform="translate(30 24)">
    <use xlink:href="#rim"/>
    <path pointer-events="none" fill="none" stroke="white" stroke-width="1.5" d="M0,-3.0v7 M-2.5,-0.5L0,-3.0L2.5,-0.5"/>
  </g>
  <g id="arrowRight" transform="rotate(90) translate(36 -43)">
    <use xlink:href="#rim"/>
    <path pointer-events="none" fill="none" stroke="white" stroke-width="1.5" d="M0,-3.0v7 M-2.5,-0.5L0,-3.0L2.5,-0.5"/>
  </g>
  <g id="arrowDown" transform="rotate(180) translate(-30 -48)">
    <use xlink:href="#rim"/>
    <path pointer-events="none" fill="none" stroke="white" stroke-width="1.5" d="M0,-3.0v7 M-2.5,-0.5L0,-3.0L2.5,-0.5"/>
  </g>
  <g id="arrowLeft" transform="rotate(270) translate(-36 17)">
    <use xlink:href="#rim"/>
    <path pointer-events="none" fill="none" stroke="white" stroke-width="1.5" d="M0,-3.0v7 M-2.5,-0.5L0,-3.0L2.5,-0.5"/>
  </g>
  <g id="resetDef">
    <use xlink:href="#rim2" fill="#404040"><set attributeName="fill" to="#808080" begin="reset.mouseover" end="reset.mouseout"/></use>
  </g>
</defs>
<script type="application/ecmascript">
var viewWidth = 971;
var viewHeight = 652;
var sectionId = 'dynsection-30';
</script>
<script type="application/ecmascript" xlink:href="svg.min.js"/>
<svg id="graph" class="graph">
<g id="viewport">
<title>com.runehive.game.world.region.Region.reachable</title>
<!-- Node1 -->
<g id="Node000001" class="node">
<title>Node1</title>
<g id="a_Node000001"><a xlink:title=" ">
<ellipse fill="#999999" stroke="#666666" cx="136.47" cy="-322.81" rx="136.47" ry="25.81"/>
<text xml:space="preserve" text-anchor="start" x="47.97" y="-325.66" font-family="Helvetica,sans-Serif" font-size="12.00">com.runehive.game.world.region.</text>
<text xml:space="preserve" text-anchor="middle" x="136.47" y="-311.41" font-family="Helvetica,sans-Serif" font-size="12.00">Region.reachable</text>
</a>
</g>
</g>
<!-- Node2 -->
<g id="Node000002" class="node">
<title>Node2</title>
<g id="a_Node000002"><a xlink:href="classcom_1_1runehive_1_1game_1_1world_1_1pathfinding_1_1_traversal_map.html#a57405771dde17b32cf113f6c38cc4621" target="_top" xlink:title=" ">
<ellipse fill="white" stroke="#666666" cx="463.45" cy="-589.81" rx="154.5" ry="25.81"/>
<text xml:space="preserve" text-anchor="start" x="362.2" y="-592.66" font-family="Helvetica,sans-Serif" font-size="12.00">com.runehive.game.world.pathfinding.</text>
<text xml:space="preserve" text-anchor="middle" x="463.45" y="-578.41" font-family="Helvetica,sans-Serif" font-size="12.00">TraversalMap.blockedEast</text>
</a>
</g>
</g>
<!-- Node1&#45;&gt;Node2 -->
<g id="edge1_Node000001_Node000002" class="edge">
<title>Node1&#45;&gt;Node2</title>
<g id="a_edge1_Node000001_Node000002"><a xlink:title=" ">
<path fill="none" stroke="#63b8ff" d="M150.93,-348.93C175.88,-394.78 233.67,-489.78 308.94,-541.81 322.98,-551.51 339.06,-559.32 355.42,-565.58"/>
<polygon fill="#63b8ff" stroke="#63b8ff" points="354.16,-568.85 364.76,-568.96 356.55,-562.27 354.16,-568.85"/>
</a>
</g>
</g>
<!-- Node4 -->
<g id="Node000004" class="node">
<title>Node4</title>
<g id="a_Node000004"><a xlink:href="classcom_1_1runehive_1_1game_1_1world_1_1pathfinding_1_1_traversal_map.html#a4e3756a470cdf1a5fbfbccf20b898043" target="_top" xlink:title=" ">
<ellipse fill="white" stroke="#666666" cx="463.45" cy="-506.81" rx="154.5" ry="25.81"/>
<text xml:space="preserve" text-anchor="start" x="362.2" y="-509.66" font-family="Helvetica,sans-Serif" font-size="12.00">com.runehive.game.world.pathfinding.</text>
<text xml:space="preserve" text-anchor="middle" x="463.45" y="-495.41" font-family="Helvetica,sans-Serif" font-size="12.00">TraversalMap.blockedNorth</text>
</a>
</g>
</g>
<!-- Node1&#45;&gt;Node4 -->
<g id="edge4_Node000001_Node000004" class="edge">
<title>Node1&#45;&gt;Node4</title>
<g id="a_edge4_Node000001_Node000004"><a xlink:title=" ">
<path fill="none" stroke="#63b8ff" d="M162.1,-348.51C193.43,-379.81 250.54,-432.26 308.94,-462.81 323.96,-470.66 340.55,-477.27 357.11,-482.79"/>
<polygon fill="#63b8ff" stroke="#63b8ff" points="355.94,-486.09 366.53,-485.79 358.07,-479.42 355.94,-486.09"/>
</a>
</g>
</g>
<!-- Node6 -->
<g id="Node000006" class="node">
<title>Node6</title>
<g id="a_Node000006"><a xlink:href="classcom_1_1runehive_1_1game_1_1world_1_1pathfinding_1_1_traversal_map.html#a20f7fcf703a1bf8c6bdd1f001975fe9c" target="_top" xlink:title=" ">
<ellipse fill="white" stroke="#666666" cx="463.45" cy="-427.81" rx="154.5" ry="25.81"/>
<text xml:space="preserve" text-anchor="start" x="362.2" y="-430.66" font-family="Helvetica,sans-Serif" font-size="12.00">com.runehive.game.world.pathfinding.</text>
<text xml:space="preserve" text-anchor="middle" x="463.45" y="-416.41" font-family="Helvetica,sans-Serif" font-size="12.00">TraversalMap.blockedSouth</text>
</a>
</g>
</g>
<!-- Node1&#45;&gt;Node6 -->
<g id="edge7_Node000001_Node000006" class="edge">
<title>Node1&#45;&gt;Node6</title>
<g id="a_edge7_Node000001_Node000006"><a xlink:title=" ">
<path fill="none" stroke="#63b8ff" d="M189.94,-346.84C223.47,-361.54 268.16,-379.93 308.94,-392.81 323,-397.25 337.94,-401.37 352.77,-405.11"/>
<polygon fill="#63b8ff" stroke="#63b8ff" points="351.52,-408.41 362.07,-407.4 353.2,-401.61 351.52,-408.41"/>
</a>
</g>
</g>
<!-- Node8 -->
<g id="Node000008" class="node">
<title>Node8</title>
<g id="a_Node000008"><a xlink:href="classcom_1_1runehive_1_1game_1_1world_1_1pathfinding_1_1_traversal_map.html#a92354fb79cdc21c2b1abad4a34755ae0" target="_top" xlink:title=" ">
<ellipse fill="white" stroke="#666666" cx="463.45" cy="-357.81" rx="154.5" ry="25.81"/>
<text xml:space="preserve" text-anchor="start" x="362.2" y="-360.66" font-family="Helvetica,sans-Serif" font-size="12.00">com.runehive.game.world.pathfinding.</text>
<text xml:space="preserve" text-anchor="middle" x="463.45" y="-346.41" font-family="Helvetica,sans-Serif" font-size="12.00">TraversalMap.blockedWest</text>
</a>
</g>
</g>
<!-- Node1&#45;&gt;Node8 -->
<g id="edge10_Node000001_Node000008" class="edge">
<title>Node1&#45;&gt;Node8</title>
<g id="a_edge10_Node000001_Node000008"><a xlink:title=" ">
<path fill="none" stroke="#63b8ff" d="M256.17,-335.59C277.33,-337.87 299.55,-340.27 321.26,-342.6"/>
<polygon fill="#63b8ff" stroke="#63b8ff" points="320.73,-346.07 331.05,-343.66 321.48,-339.11 320.73,-346.07"/>
</a>
</g>
</g>
<!-- Node10 -->
<g id="Node000010" class="node">
<title>Node10</title>
<g id="a_Node000010"><a xlink:href="classcom_1_1runehive_1_1game_1_1world_1_1position_1_1_position.html#a7bfa5292d8c3f79100a6bc85ea27b5ea" target="_top" xlink:title="Gets the absolute x coordinate.">
<ellipse fill="white" stroke="#666666" cx="463.45" cy="-287.81" rx="142.31" ry="25.81"/>
<text xml:space="preserve" text-anchor="start" x="370.82" y="-290.66" font-family="Helvetica,sans-Serif" font-size="12.00">com.runehive.game.world.position.</text>
<text xml:space="preserve" text-anchor="middle" x="463.45" y="-276.41" font-family="Helvetica,sans-Serif" font-size="12.00">Position.getX</text>
</a>
</g>
</g>
<!-- Node1&#45;&gt;Node10 -->
<g id="edge13_Node000001_Node000010" class="edge">
<title>Node1&#45;&gt;Node10</title>
<g id="a_edge13_Node000001_Node000010"><a xlink:title=" ">
<path fill="none" stroke="#63b8ff" d="M256.17,-310.03C279.73,-307.49 304.62,-304.81 328.64,-302.22"/>
<polygon fill="#63b8ff" stroke="#63b8ff" points="328.9,-305.71 338.47,-301.16 328.15,-298.75 328.9,-305.71"/>
</a>
</g>
</g>
<!-- Node11 -->
<g id="Node000011" class="node">
<title>Node11</title>
<g id="a_Node000011"><a xlink:href="classcom_1_1runehive_1_1game_1_1world_1_1position_1_1_position.html#a55498d0fafce9fdeedca16984d79aee5" target="_top" xlink:title="Gets the absolute y coordinate.">
<ellipse fill="white" stroke="#666666" cx="463.45" cy="-217.81" rx="142.31" ry="25.81"/>
<text xml:space="preserve" text-anchor="start" x="370.82" y="-220.66" font-family="Helvetica,sans-Serif" font-size="12.00">com.runehive.game.world.position.</text>
<text xml:space="preserve" text-anchor="middle" x="463.45" y="-206.41" font-family="Helvetica,sans-Serif" font-size="12.00">Position.getY</text>
</a>
</g>
</g>
<!-- Node1&#45;&gt;Node11 -->
<g id="edge14_Node000001_Node000011" class="edge">
<title>Node1&#45;&gt;Node11</title>
<g id="a_edge14_Node000001_Node000011"><a xlink:title=" ">
<path fill="none" stroke="#63b8ff" d="M189.94,-298.78C223.47,-284.08 268.16,-265.69 308.94,-252.81 323.98,-248.06 340.03,-243.68 355.88,-239.73"/>
<polygon fill="#63b8ff" stroke="#63b8ff" points="356.45,-243.19 365.34,-237.43 354.79,-236.39 356.45,-243.19"/>
</a>
</g>
</g>
<!-- Node12 -->
<g id="Node000012" class="node">
<title>Node12</title>
<g id="a_Node000012"><a xlink:href="classcom_1_1runehive_1_1util_1_1_utility.html#a45c85d6a6d931e16eabd12b10fb4b89a" target="_top" xlink:title=" ">
<ellipse fill="white" stroke="#666666" cx="463.45" cy="-139.81" rx="123.21" ry="15.73"/>
<text xml:space="preserve" text-anchor="middle" x="463.45" y="-135.53" font-family="Helvetica,sans-Serif" font-size="12.00">com.runehive.util.Utility.inside</text>
</a>
</g>
</g>
<!-- Node1&#45;&gt;Node12 -->
<g id="edge15_Node000001_Node000012" class="edge">
<title>Node1&#45;&gt;Node12</title>
<g id="a_edge15_Node000001_Node000012"><a xlink:title=" ">
<path fill="none" stroke="#63b8ff" d="M162.07,-297.05C193.37,-265.69 250.45,-213.18 308.94,-182.81 331.31,-171.2 357.18,-162.41 381.24,-155.9"/>
<polygon fill="#63b8ff" stroke="#63b8ff" points="381.88,-159.35 390.68,-153.45 380.13,-152.57 381.88,-159.35"/>
</a>
</g>
</g>
<!-- Node16 -->
<g id="Node000016" class="node">
<title>Node16</title>
<g id="a_Node000016"><a xlink:href="classcom_1_1runehive_1_1game_1_1world_1_1position_1_1_position.html#a92154563715ed156b00ee6220e2991ff" target="_top" xlink:title="Creates a new location based on this location.">
<ellipse fill="white" stroke="#666666" cx="463.45" cy="-69.81" rx="142.31" ry="25.81"/>
<text xml:space="preserve" text-anchor="start" x="370.82" y="-72.66" font-family="Helvetica,sans-Serif" font-size="12.00">com.runehive.game.world.position.</text>
<text xml:space="preserve" text-anchor="middle" x="463.45" y="-58.41" font-family="Helvetica,sans-Serif" font-size="12.00">Position.transform</text>
</a>
</g>
</g>
<!-- Node1&#45;&gt;Node16 -->
<g id="edge20_Node000001_Node000016" class="edge">
<title>Node1&#45;&gt;Node16</title>
<g id="a_edge20_Node000001_Node000016"><a xlink:title=" ">
<path fill="none" stroke="#63b8ff" d="M151.8,-296.84C177.45,-252.73 235.51,-163.27 308.94,-114.81 322.82,-105.65 338.61,-98.31 354.65,-92.45"/>
<polygon fill="#63b8ff" stroke="#63b8ff" points="355.47,-95.87 363.78,-89.3 353.19,-89.25 355.47,-95.87"/>
</a>
</g>
</g>
<!-- Node3 -->
<g id="Node000003" class="node">
<title>Node3</title>
<g id="a_Node000003"><a xlink:href="classcom_1_1runehive_1_1game_1_1world_1_1pathfinding_1_1_traversal_map.html#ad7635d8bfcc232240f91a46d8ebb47fc" target="_top" xlink:title="Tests if the specified position can be traversed east.">
<ellipse fill="white" stroke="#666666" cx="808.45" cy="-599.81" rx="154.5" ry="25.81"/>
<text xml:space="preserve" text-anchor="start" x="707.2" y="-602.66" font-family="Helvetica,sans-Serif" font-size="12.00">com.runehive.game.world.pathfinding.</text>
<text xml:space="preserve" text-anchor="middle" x="808.45" y="-588.41" font-family="Helvetica,sans-Serif" font-size="12.00">TraversalMap.isTraversableEast</text>
</a>
</g>
</g>
<!-- Node2&#45;&gt;Node3 -->
<g id="edge2_Node000002_Node000003" class="edge">
<title>Node2&#45;&gt;Node3</title>
<g id="a_edge2_Node000002_Node000003"><a xlink:title=" ">
<path fill="none" stroke="#63b8ff" d="M615.89,-594.22C625.44,-594.5 635.07,-594.78 644.66,-595.06"/>
<polygon fill="#63b8ff" stroke="#63b8ff" points="644.29,-598.55 654.38,-595.35 644.49,-591.56 644.29,-598.55"/>
</a>
</g>
</g>
<!-- Node3&#45;&gt;Node3 -->
<g id="edge3_Node000003_Node000003" class="edge">
<title>Node3&#45;&gt;Node3</title>
<g id="a_edge3_Node000003_Node000003"><a xlink:title=" ">
<path fill="none" stroke="#63b8ff" d="M744.77,-623.69C738.71,-634.38 759.94,-643.62 808.45,-643.62 839.53,-643.62 859.41,-639.83 868.09,-634.29"/>
<polygon fill="#63b8ff" stroke="#63b8ff" points="871.3,-635.7 871.59,-625.11 864.76,-633.21 871.3,-635.7"/>
</a>
</g>
</g>
<!-- Node5 -->
<g id="Node000005" class="node">
<title>Node5</title>
<g id="a_Node000005"><a xlink:href="classcom_1_1runehive_1_1game_1_1world_1_1pathfinding_1_1_traversal_map.html#a0dde08a402da84bf025e94dd634fb873" target="_top" xlink:title="Tests if the specified position can be traversed north.">
<ellipse fill="white" stroke="#666666" cx="808.45" cy="-511.81" rx="154.5" ry="25.81"/>
<text xml:space="preserve" text-anchor="start" x="707.2" y="-514.66" font-family="Helvetica,sans-Serif" font-size="12.00">com.runehive.game.world.pathfinding.</text>
<text xml:space="preserve" text-anchor="middle" x="808.45" y="-500.41" font-family="Helvetica,sans-Serif" font-size="12.00">TraversalMap.isTraversableNorth</text>
</a>
</g>
</g>
<!-- Node4&#45;&gt;Node5 -->
<g id="edge5_Node000004_Node000005" class="edge">
<title>Node4&#45;&gt;Node5</title>
<g id="a_edge5_Node000004_Node000005"><a xlink:title=" ">
<path fill="none" stroke="#63b8ff" d="M617.39,-509.04C625.8,-509.16 634.28,-509.29 642.73,-509.41"/>
<polygon fill="#63b8ff" stroke="#63b8ff" points="642.67,-512.91 652.72,-509.55 642.77,-505.91 642.67,-512.91"/>
</a>
</g>
</g>
<!-- Node5&#45;&gt;Node5 -->
<g id="edge6_Node000005_Node000005" class="edge">
<title>Node5&#45;&gt;Node5</title>
<g id="a_edge6_Node000005_Node000005"><a xlink:title=" ">
<path fill="none" stroke="#63b8ff" d="M744.77,-535.69C738.71,-546.38 759.94,-555.62 808.45,-555.62 839.53,-555.62 859.41,-551.83 868.09,-546.29"/>
<polygon fill="#63b8ff" stroke="#63b8ff" points="871.3,-547.7 871.59,-537.11 864.76,-545.21 871.3,-547.7"/>
</a>
</g>
</g>
<!-- Node7 -->
<g id="Node000007" class="node">
<title>Node7</title>
<g id="a_Node000007"><a xlink:href="classcom_1_1runehive_1_1game_1_1world_1_1pathfinding_1_1_traversal_map.html#a59ad6ec2e989356d4ccf28a236e5e1d9" target="_top" xlink:title="Tests if the specified position can be traversed south.">
<ellipse fill="white" stroke="#666666" cx="808.45" cy="-423.81" rx="154.5" ry="25.81"/>
<text xml:space="preserve" text-anchor="start" x="707.2" y="-426.66" font-family="Helvetica,sans-Serif" font-size="12.00">com.runehive.game.world.pathfinding.</text>
<text xml:space="preserve" text-anchor="middle" x="808.45" y="-412.41" font-family="Helvetica,sans-Serif" font-size="12.00">TraversalMap.isTraversableSouth</text>
</a>
</g>
</g>
<!-- Node6&#45;&gt;Node7 -->
<g id="edge8_Node000006_Node000007" class="edge">
<title>Node6&#45;&gt;Node7</title>
<g id="a_edge8_Node000006_Node000007"><a xlink:title=" ">
<path fill="none" stroke="#63b8ff" d="M617.89,-426.02C626.11,-425.92 634.38,-425.83 642.63,-425.73"/>
<polygon fill="#63b8ff" stroke="#63b8ff" points="642.39,-429.23 652.35,-425.62 642.31,-422.24 642.39,-429.23"/>
</a>
</g>
</g>
<!-- Node7&#45;&gt;Node7 -->
<g id="edge9_Node000007_Node000007" class="edge">
<title>Node7&#45;&gt;Node7</title>
<g id="a_edge9_Node000007_Node000007"><a xlink:title=" ">
<path fill="none" stroke="#63b8ff" d="M744.77,-447.69C738.71,-458.38 759.94,-467.62 808.45,-467.62 839.53,-467.62 859.41,-463.83 868.09,-458.29"/>
<polygon fill="#63b8ff" stroke="#63b8ff" points="871.3,-459.7 871.59,-449.11 864.76,-457.21 871.3,-459.7"/>
</a>
</g>
</g>
<!-- Node9 -->
<g id="Node000009" class="node">
<title>Node9</title>
<g id="a_Node000009"><a xlink:href="classcom_1_1runehive_1_1game_1_1world_1_1pathfinding_1_1_traversal_map.html#a9e542e1da297008e9ca79d77f5b4430a" target="_top" xlink:title="Tests if the specified position can be traversed west.">
<ellipse fill="white" stroke="#666666" cx="808.45" cy="-335.81" rx="154.5" ry="25.81"/>
<text xml:space="preserve" text-anchor="start" x="707.2" y="-338.66" font-family="Helvetica,sans-Serif" font-size="12.00">com.runehive.game.world.pathfinding.</text>
<text xml:space="preserve" text-anchor="middle" x="808.45" y="-324.41" font-family="Helvetica,sans-Serif" font-size="12.00">TraversalMap.isTraversableWest</text>
</a>
</g>
</g>
<!-- Node8&#45;&gt;Node9 -->
<g id="edge11_Node000008_Node000009" class="edge">
<title>Node8&#45;&gt;Node9</title>
<g id="a_edge11_Node000008_Node000009"><a xlink:title=" ">
<path fill="none" stroke="#63b8ff" d="M608.42,-348.58C622.96,-347.64 637.76,-346.69 652.41,-345.75"/>
<polygon fill="#63b8ff" stroke="#63b8ff" points="652.31,-349.27 662.06,-345.13 651.86,-342.28 652.31,-349.27"/>
</a>
</g>
</g>
<!-- Node9&#45;&gt;Node9 -->
<g id="edge12_Node000009_Node000009" class="edge">
<title>Node9&#45;&gt;Node9</title>
<g id="a_edge12_Node000009_Node000009"><a xlink:title=" ">
<path fill="none" stroke="#63b8ff" d="M744.77,-359.69C738.71,-370.38 759.94,-379.62 808.45,-379.62 839.53,-379.62 859.41,-375.83 868.09,-370.29"/>
<polygon fill="#63b8ff" stroke="#63b8ff" points="871.3,-371.7 871.59,-361.11 864.76,-369.21 871.3,-371.7"/>
</a>
</g>
</g>
<!-- Node12&#45;&gt;Node12 -->
<g id="edge17_Node000012_Node000012" class="edge">
<title>Node12&#45;&gt;Node12</title>
<g id="a_edge17_Node000012_Node000012"><a xlink:title=" ">
<path fill="none" stroke="#63b8ff" d="M407.83,-154.2C391.58,-163.97 410.12,-173.54 463.45,-173.54 495.11,-173.54 514.51,-170.17 521.64,-165.38"/>
<polygon fill="#63b8ff" stroke="#63b8ff" points="525.06,-164.63 519.4,-155.67 518.24,-166.2 525.06,-164.63"/>
</a>
</g>
</g>
<!-- Node13 -->
<g id="Node000013" class="node">
<title>Node13</title>
<g id="a_Node000013"><a xlink:href="interfacecom_1_1runehive_1_1game_1_1world_1_1_interactable.html#a49e07a60c6643c0ba33bc9754305c352" target="_top" xlink:title=" ">
<ellipse fill="white" stroke="#666666" cx="808.45" cy="-235.81" rx="110.49" ry="25.81"/>
<text xml:space="preserve" text-anchor="start" x="738.33" y="-238.66" font-family="Helvetica,sans-Serif" font-size="12.00">com.runehive.game.world.</text>
<text xml:space="preserve" text-anchor="middle" x="808.45" y="-224.41" font-family="Helvetica,sans-Serif" font-size="12.00">Interactable.getPosition</text>
</a>
</g>
</g>
<!-- Node12&#45;&gt;Node13 -->
<g id="edge16_Node000012_Node000013" class="edge">
<title>Node12&#45;&gt;Node13</title>
<g id="a_edge16_Node000012_Node000013"><a xlink:title=" ">
<path fill="none" stroke="#63b8ff" d="M524.72,-153.86C553.38,-161.25 587.87,-171.2 617.95,-182.81 634.64,-189.25 637.11,-194.78 653.95,-200.81 671.7,-207.17 691.02,-212.64 709.79,-217.24"/>
<polygon fill="#63b8ff" stroke="#63b8ff" points="708.74,-220.59 719.28,-219.5 710.36,-213.78 708.74,-220.59"/>
</a>
</g>
</g>
<!-- Node14 -->
<g id="Node000014" class="node">
<title>Node14</title>
<g id="a_Node000014"><a xlink:href="interfacecom_1_1runehive_1_1game_1_1world_1_1_interactable.html#a9513e5e63159a738b417ceba87cd1de8" target="_top" xlink:title=" ">
<ellipse fill="white" stroke="#666666" cx="808.45" cy="-165.81" rx="110.49" ry="25.81"/>
<text xml:space="preserve" text-anchor="start" x="738.33" y="-168.66" font-family="Helvetica,sans-Serif" font-size="12.00">com.runehive.game.world.</text>
<text xml:space="preserve" text-anchor="middle" x="808.45" y="-154.41" font-family="Helvetica,sans-Serif" font-size="12.00">Interactable.length</text>
</a>
</g>
</g>
<!-- Node12&#45;&gt;Node14 -->
<g id="edge18_Node000012_Node000014" class="edge">
<title>Node12&#45;&gt;Node14</title>
<g id="a_edge18_Node000012_Node000014"><a xlink:title=" ">
<path fill="none" stroke="#63b8ff" d="M570.63,-147.86C608.86,-150.76 652.18,-154.04 691.23,-157"/>
<polygon fill="#63b8ff" stroke="#63b8ff" points="690.91,-160.49 701.15,-157.75 691.44,-153.51 690.91,-160.49"/>
</a>
</g>
</g>
<!-- Node15 -->
<g id="Node000015" class="node">
<title>Node15</title>
<g id="a_Node000015"><a xlink:href="interfacecom_1_1runehive_1_1game_1_1world_1_1_interactable.html#ad7eb47dad8c89c478cedc32ea6fe3a5b" target="_top" xlink:title=" ">
<ellipse fill="white" stroke="#666666" cx="808.45" cy="-95.81" rx="110.49" ry="25.81"/>
<text xml:space="preserve" text-anchor="start" x="738.33" y="-98.66" font-family="Helvetica,sans-Serif" font-size="12.00">com.runehive.game.world.</text>
<text xml:space="preserve" text-anchor="middle" x="808.45" y="-84.41" font-family="Helvetica,sans-Serif" font-size="12.00">Interactable.width</text>
</a>
</g>
</g>
<!-- Node12&#45;&gt;Node15 -->
<g id="edge19_Node000012_Node000015" class="edge">
<title>Node12&#45;&gt;Node15</title>
<g id="a_edge19_Node000012_Node000015"><a xlink:title=" ">
<path fill="none" stroke="#63b8ff" d="M552.33,-128.54C597.17,-122.78 652.1,-115.74 699.5,-109.66"/>
<polygon fill="#63b8ff" stroke="#63b8ff" points="699.76,-113.15 709.24,-108.41 698.87,-106.21 699.76,-113.15"/>
</a>
</g>
</g>
<!-- Node17 -->
<g id="Node000017" class="node">
<title>Node17</title>
<g id="a_Node000017"><a xlink:href="classcom_1_1runehive_1_1game_1_1world_1_1position_1_1_position.html#a7803ff05a7b4b99d2883898ade9427f7" target="_top" xlink:title="Creates a location with a default height of 0.">
<ellipse fill="white" stroke="#666666" cx="808.45" cy="-25.81" rx="142.31" ry="25.81"/>
<text xml:space="preserve" text-anchor="start" x="715.83" y="-28.66" font-family="Helvetica,sans-Serif" font-size="12.00">com.runehive.game.world.position.</text>
<text xml:space="preserve" text-anchor="middle" x="808.45" y="-14.41" font-family="Helvetica,sans-Serif" font-size="12.00">Position.Position</text>
</a>
</g>
</g>
<!-- Node16&#45;&gt;Node17 -->
<g id="edge21_Node000016_Node000017" class="edge">
<title>Node16&#45;&gt;Node17</title>
<g id="a_edge21_Node000016_Node000017"><a xlink:title=" ">
<path fill="none" stroke="#63b8ff" d="M580.57,-54.91C612.47,-50.82 647.24,-46.36 679.76,-42.19"/>
<polygon fill="#63b8ff" stroke="#63b8ff" points="680.18,-45.66 689.65,-40.92 679.29,-38.72 680.18,-45.66"/>
</a>
</g>
</g>
</g>
</svg>

<g id="navigator" transform="translate(0 0)" fill="#404254">
  <rect fill="#f2f5e9" fill-opacity="0.5" stroke="#606060" stroke-width=".5" x="0" y="0" width="60" height="60"/>
  <use id="zoomplus" xlink:href="#zoomPlus" x="17" y="9" onmousedown="handleZoom(evt,'in')"/>
  <use id="zoomminus" xlink:href="#zoomMin" x="42" y="9" onmousedown="handleZoom(evt,'out')"/>
  <use id="reset" xlink:href="#resetDef" x="30" y="36" onmousedown="handleReset()"/>
   <use id="arrowup" xlink:href="#arrowUp" x="0" y="0" onmousedown="handlePan(0,-1)"/>
  <use id="arrowright" xlink:href="#arrowRight" x="0" y="0" onmousedown="handlePan(1,0)"/>
  <use id="arrowdown" xlink:href="#arrowDown" x="0" y="0" onmousedown="handlePan(0,1)"/>
  <use id="arrowleft" xlink:href="#arrowLeft" x="0" y="0" onmousedown="handlePan(-1,0)"/>
</g>
<svg viewBox="0 0 15 15" width="100%" height="30px" preserveAspectRatio="xMaxYMin meet">
 <g id="arrow_out" transform="scale(0.3 0.3)">
  <a xlink:href="classcom_1_1runehive_1_1game_1_1world_1_1region_1_1_region_aa8a0d1cc9bf7d3315e1dc9aee57b15b1_cgraph_org.svg" target="_base">
   <rect id="button" ry="5" rx="5" y="6" x="6" height="38" width="38"
        fill="#f2f5e9" fill-opacity="0.5" stroke="#606060" stroke-width="1.0"/>
   <path id="arrow"
     d="M 11.500037,31.436501 C 11.940474,20.09759 22.043105,11.32322 32.158766,21.979434 L 37.068811,17.246167 C 37.068811,17.246167 37.088388,32 37.088388,32 L 22.160133,31.978069 C 22.160133,31.978069 26.997745,27.140456 26.997745,27.140456 C 18.528582,18.264221 13.291696,25.230495 11.500037,31.436501 z"
     style="fill:#404040;"/>
  </a>
 </g>
</svg>

<style type='text/css'>
<![CDATA[
[data-mouse-over-selected='false'] { opacity: 0.7; }
[data-mouse-over-selected='true']  { opacity: 1.0; }
]]>
</style>
<script type="application/ecmascript"><![CDATA[
document.addEventListener('DOMContentLoaded', (event) => {
  highlightEdges();
  highlightAdjacentNodes();
});
]]></script>
</svg>
