<?xml version="1.0" encoding="UTF-8" standalone="no"?>
<!DOCTYPE svg PUBLIC "-//W3C//DTD SVG 1.1//EN"
 "http://www.w3.org/Graphics/SVG/1.1/DTD/svg11.dtd">
<!-- Generated by graphviz version 14.0.1 (20251006.0113)
 -->
<!-- Title: com.runehive.game.world.entity.skill.Skill.getLevel Pages: 1 -->
<!--zoomable 848 -->

<svg id="main" version="1.1" xmlns="http://www.w3.org/2000/svg" xmlns:xlink="http://www.w3.org/1999/xlink" xml:space="preserve" onload="init(evt)">

<style type="text/css"><![CDATA[
.node, .edge {opacity: 0.7;}
.node.selected, .edge.selected {opacity: 1;}
.edge:hover path { stroke: red; }
.edge:hover polygon { stroke: red; fill: red; }
]]></style>

<defs>
  <circle id="rim" cx="0" cy="0" r="7"/>
  <circle id="rim2" cx="0" cy="0" r="3.5"/>
  <g id="zoomPlus">
    <use xlink:href="#rim" fill="#404040"><set attributeName="fill" to="#808080" begin="zoomplus.mouseover" end="zoomplus.mouseout"/></use>
    <path d="M-4,0h8M0,-4v8" fill="none" stroke="white" stroke-width="1.5" pointer-events="none"/>
  </g>
  <g id="zoomMin">
    <use xlink:href="#rim" fill="#404040"><set attributeName="fill" to="#808080" begin="zoomminus.mouseover" end="zoomminus.mouseout"/></use>
    <path d="M-4,0h8" fill="none" stroke="white" stroke-width="1.5" pointer-events="none"/>
  </g>
  <g id="arrowUp" transform="translate(30 24)">
    <use xlink:href="#rim"/>
    <path pointer-events="none" fill="none" stroke="white" stroke-width="1.5" d="M0,-3.0v7 M-2.5,-0.5L0,-3.0L2.5,-0.5"/>
  </g>
  <g id="arrowRight" transform="rotate(90) translate(36 -43)">
    <use xlink:href="#rim"/>
    <path pointer-events="none" fill="none" stroke="white" stroke-width="1.5" d="M0,-3.0v7 M-2.5,-0.5L0,-3.0L2.5,-0.5"/>
  </g>
  <g id="arrowDown" transform="rotate(180) translate(-30 -48)">
    <use xlink:href="#rim"/>
    <path pointer-events="none" fill="none" stroke="white" stroke-width="1.5" d="M0,-3.0v7 M-2.5,-0.5L0,-3.0L2.5,-0.5"/>
  </g>
  <g id="arrowLeft" transform="rotate(270) translate(-36 17)">
    <use xlink:href="#rim"/>
    <path pointer-events="none" fill="none" stroke="white" stroke-width="1.5" d="M0,-3.0v7 M-2.5,-0.5L0,-3.0L2.5,-0.5"/>
  </g>
  <g id="resetDef">
    <use xlink:href="#rim2" fill="#404040"><set attributeName="fill" to="#808080" begin="reset.mouseover" end="reset.mouseout"/></use>
  </g>
</defs>
<script type="application/ecmascript">
var viewWidth = 1889;
var viewHeight = 848;
var sectionId = 'dynsection-17';
</script>
<script type="application/ecmascript" xlink:href="svg.min.js"/>
<svg id="graph" class="graph">
<g id="viewport">
<title>com.runehive.game.world.entity.skill.Skill.getLevel</title>
<!-- Node1 -->
<g id="Node000001" class="node">
<title>Node1</title>
<g id="a_Node000001"><a xlink:title="Gets the current skill level.">
<ellipse fill="#999999" stroke="#666666" cx="1731.81" cy="-410.81" rx="149.2" ry="25.81"/>
<text xml:space="preserve" text-anchor="start" x="1634.31" y="-413.66" font-family="Helvetica,sans-Serif" font-size="12.00">com.runehive.game.world.entity.skill.</text>
<text xml:space="preserve" text-anchor="middle" x="1731.81" y="-399.41" font-family="Helvetica,sans-Serif" font-size="12.00">Skill.getLevel</text>
</a>
</g>
</g>
<!-- Node2 -->
<g id="Node000002" class="node">
<title>Node2</title>
<g id="a_Node000002"><a xlink:href="classcom_1_1runehive_1_1content_1_1skill_1_1impl_1_1fishing_1_1_fishing.html#a18eef882158c9e110084a10bac9828fd" target="_top" xlink:title=" ">
<ellipse fill="white" stroke="#666666" cx="1315.21" cy="-813.81" rx="156.09" ry="25.81"/>
<text xml:space="preserve" text-anchor="start" x="1212.83" y="-816.66" font-family="Helvetica,sans-Serif" font-size="12.00">com.runehive.content.skill.impl.fishing.</text>
<text xml:space="preserve" text-anchor="middle" x="1315.21" y="-802.41" font-family="Helvetica,sans-Serif" font-size="12.00">Fishing.canFish</text>
</a>
</g>
</g>
<!-- Node1&#45;&gt;Node2 -->
<g id="edge1_Node000001_Node000002" class="edge">
<title>Node1&#45;&gt;Node2</title>
<g id="a_edge1_Node000001_Node000002"><a xlink:title=" ">
<path fill="none" stroke="#63b8ff" d="M1723.96,-447.92C1707.87,-523.76 1660.1,-696.28 1546.61,-778.81 1524.44,-794.93 1497.87,-804.97 1470.78,-811.02"/>
<polygon fill="#63b8ff" stroke="#63b8ff" points="1727.31,-449.01 1725.89,-438.52 1720.45,-447.61 1727.31,-449.01"/>
</a>
</g>
</g>
<!-- Node6 -->
<g id="Node000006" class="node">
<title>Node6</title>
<g id="a_Node000006"><a xlink:href="classcom_1_1runehive_1_1content_1_1skill_1_1impl_1_1herblore_1_1_herblore.html#ac45e088b53bb7a8c99308e26d8d9dbd2" target="_top" xlink:title=" ">
<ellipse fill="white" stroke="#666666" cx="1315.21" cy="-743.81" rx="162.46" ry="25.81"/>
<text xml:space="preserve" text-anchor="start" x="1208.33" y="-746.66" font-family="Helvetica,sans-Serif" font-size="12.00">com.runehive.content.skill.impl.herblore.</text>
<text xml:space="preserve" text-anchor="middle" x="1315.21" y="-732.41" font-family="Helvetica,sans-Serif" font-size="12.00">Herblore.clickItem</text>
</a>
</g>
</g>
<!-- Node1&#45;&gt;Node6 -->
<g id="edge6_Node000001_Node000006" class="edge">
<title>Node1&#45;&gt;Node6</title>
<g id="a_edge6_Node000001_Node000006"><a xlink:title=" ">
<path fill="none" stroke="#63b8ff" d="M1719.48,-447.71C1697.56,-512.35 1642.82,-645.23 1546.61,-708.81 1525.09,-723.03 1500,-732.34 1474.45,-738.3"/>
<polygon fill="#63b8ff" stroke="#63b8ff" points="1722.79,-448.86 1722.6,-438.27 1716.14,-446.66 1722.79,-448.86"/>
</a>
</g>
</g>
<!-- Node7 -->
<g id="Node000007" class="node">
<title>Node7</title>
<g id="a_Node000007"><a xlink:href="classcom_1_1runehive_1_1content_1_1skill_1_1impl_1_1thieving_1_1_thieving.html#a89472c2915b9666942488102119e950d" target="_top" xlink:title=" ">
<ellipse fill="white" stroke="#666666" cx="1315.21" cy="-673.81" rx="160.87" ry="25.81"/>
<text xml:space="preserve" text-anchor="start" x="1209.46" y="-676.66" font-family="Helvetica,sans-Serif" font-size="12.00">com.runehive.content.skill.impl.thieving.</text>
<text xml:space="preserve" text-anchor="middle" x="1315.21" y="-662.41" font-family="Helvetica,sans-Serif" font-size="12.00">Thieving.clickObject</text>
</a>
</g>
</g>
<!-- Node1&#45;&gt;Node7 -->
<g id="edge7_Node000001_Node000007" class="edge">
<title>Node1&#45;&gt;Node7</title>
<g id="a_edge7_Node000001_Node000007"><a xlink:title=" ">
<path fill="none" stroke="#63b8ff" d="M1712.79,-447.03C1684.9,-498.92 1626.09,-593.19 1546.61,-638.81 1523.45,-652.1 1496.92,-660.87 1470.29,-666.55"/>
<polygon fill="#63b8ff" stroke="#63b8ff" points="1715.84,-448.75 1717.41,-438.27 1709.65,-445.49 1715.84,-448.75"/>
</a>
</g>
</g>
<!-- Node8 -->
<g id="Node000008" class="node">
<title>Node8</title>
<g id="a_Node000008"><a xlink:href="classcom_1_1runehive_1_1game_1_1world_1_1entity_1_1combat_1_1attack_1_1listener_1_1npc_1_1_tz_kih_listener.html#a7daba2dee73cadefa57ec6fd457cb524" target="_top" xlink:title=" ">
<ellipse fill="white" stroke="#666666" cx="1315.21" cy="-585.81" rx="231.4" ry="25.81"/>
<text xml:space="preserve" text-anchor="start" x="1159.58" y="-588.66" font-family="Helvetica,sans-Serif" font-size="12.00">com.runehive.game.world.entity.combat.attack.listener.npc.</text>
<text xml:space="preserve" text-anchor="middle" x="1315.21" y="-574.41" font-family="Helvetica,sans-Serif" font-size="12.00">TzKihListener.hit</text>
</a>
</g>
</g>
<!-- Node1&#45;&gt;Node8 -->
<g id="edge8_Node000001_Node000008" class="edge">
<title>Node1&#45;&gt;Node8</title>
<g id="a_edge8_Node000001_Node000008"><a xlink:title=" ">
<path fill="none" stroke="#63b8ff" d="M1697.46,-444.57C1662.91,-477.37 1605.77,-525.77 1546.61,-550.81 1529.1,-558.22 1510.25,-564.09 1491.15,-568.73"/>
<polygon fill="#63b8ff" stroke="#63b8ff" points="1699.88,-447.1 1704.65,-437.65 1695.02,-442.06 1699.88,-447.1"/>
</a>
</g>
</g>
<!-- Node9 -->
<g id="Node000009" class="node">
<title>Node9</title>
<g id="a_Node000009"><a xlink:href="classcom_1_1runehive_1_1content_1_1lms_1_1lobby_1_1_l_m_s_lobby.html#a5837633dfee4c81d1a79cb36b87595c7" target="_top" xlink:title="Handles joining the lobby.">
<ellipse fill="white" stroke="#666666" cx="1315.21" cy="-515.81" rx="131.7" ry="25.81"/>
<text xml:space="preserve" text-anchor="start" x="1230.08" y="-518.66" font-family="Helvetica,sans-Serif" font-size="12.00">com.runehive.content.lms.lobby.</text>
<text xml:space="preserve" text-anchor="middle" x="1315.21" y="-504.41" font-family="Helvetica,sans-Serif" font-size="12.00">LMSLobby.joinLobby</text>
</a>
</g>
</g>
<!-- Node1&#45;&gt;Node9 -->
<g id="edge10_Node000001_Node000009" class="edge">
<title>Node1&#45;&gt;Node9</title>
<g id="a_edge10_Node000001_Node000009"><a xlink:title=" ">
<path fill="none" stroke="#63b8ff" d="M1665.71,-439.43C1630.95,-453.71 1587.09,-470.17 1546.61,-480.81 1509.53,-490.55 1468.34,-497.88 1431.16,-503.24"/>
<polygon fill="#63b8ff" stroke="#63b8ff" points="1666.9,-442.72 1674.8,-435.66 1664.22,-436.26 1666.9,-442.72"/>
</a>
</g>
</g>
<!-- Node10 -->
<g id="Node000010" class="node">
<title>Node10</title>
<g id="a_Node000010"><a xlink:href="enumcom_1_1runehive_1_1content_1_1consume_1_1_potion_data.html#acb19c1fd40b91f1aefb8d2df656a1f7a" target="_top" xlink:title="The method that executes the basic effect potion action that will append the level of skill.">
<ellipse fill="white" stroke="#666666" cx="1315.21" cy="-305.81" rx="130.64" ry="25.81"/>
<text xml:space="preserve" text-anchor="start" x="1230.83" y="-308.66" font-family="Helvetica,sans-Serif" font-size="12.00">com.runehive.content.consume.</text>
<text xml:space="preserve" text-anchor="middle" x="1315.21" y="-294.41" font-family="Helvetica,sans-Serif" font-size="12.00">PotionData.modifySkill</text>
</a>
</g>
</g>
<!-- Node1&#45;&gt;Node10 -->
<g id="edge11_Node000001_Node000010" class="edge">
<title>Node1&#45;&gt;Node10</title>
<g id="a_edge11_Node000001_Node000010"><a xlink:title=" ">
<path fill="none" stroke="#63b8ff" d="M1665.71,-382.19C1630.95,-367.9 1587.09,-351.45 1546.61,-340.81 1509.34,-331.02 1467.9,-323.66 1430.57,-318.29"/>
<polygon fill="#63b8ff" stroke="#63b8ff" points="1664.22,-385.36 1674.8,-385.96 1666.9,-378.89 1664.22,-385.36"/>
</a>
</g>
</g>
<!-- Node14 -->
<g id="Node000014" class="node">
<title>Node14</title>
<g id="a_Node000014"><a xlink:href="classcom_1_1runehive_1_1game_1_1world_1_1entity_1_1skill_1_1_skill_manager.html#ac34613cf6b2bd7725e8a91ebf5f6cef7" target="_top" xlink:title="Handles regressing the skills.">
<ellipse fill="white" stroke="#666666" cx="1315.21" cy="-375.81" rx="149.2" ry="25.81"/>
<text xml:space="preserve" text-anchor="start" x="1217.71" y="-378.66" font-family="Helvetica,sans-Serif" font-size="12.00">com.runehive.game.world.entity.skill.</text>
<text xml:space="preserve" text-anchor="middle" x="1315.21" y="-364.41" font-family="Helvetica,sans-Serif" font-size="12.00">SkillManager.regress</text>
</a>
</g>
</g>
<!-- Node1&#45;&gt;Node14 -->
<g id="edge15_Node000001_Node000014" class="edge">
<title>Node1&#45;&gt;Node14</title>
<g id="a_edge15_Node000001_Node000014"><a xlink:title=" ">
<path fill="none" stroke="#63b8ff" d="M1585.39,-398.53C1541.4,-394.82 1493.33,-390.76 1450.14,-387.12"/>
<polygon fill="#63b8ff" stroke="#63b8ff" points="1585,-402.01 1595.26,-399.37 1585.59,-395.04 1585,-402.01"/>
</a>
</g>
</g>
<!-- Node15 -->
<g id="Node000015" class="node">
<title>Node15</title>
<g id="a_Node000015"><a xlink:href="classcom_1_1runehive_1_1content_1_1lms_1_1_l_m_s_game.html#a7b0f2b6f9661d78450872bc143f47e4d" target="_top" xlink:title="Handles resetting the copied stats to the player.">
<ellipse fill="white" stroke="#666666" cx="1315.21" cy="-165.81" rx="109.42" ry="25.81"/>
<text xml:space="preserve" text-anchor="start" x="1245.83" y="-168.66" font-family="Helvetica,sans-Serif" font-size="12.00">com.runehive.content.lms.</text>
<text xml:space="preserve" text-anchor="middle" x="1315.21" y="-154.41" font-family="Helvetica,sans-Serif" font-size="12.00">LMSGame.resetLevels</text>
</a>
</g>
</g>
<!-- Node1&#45;&gt;Node15 -->
<g id="edge16_Node000001_Node000015" class="edge">
<title>Node1&#45;&gt;Node15</title>
<g id="a_edge16_Node000001_Node000015"><a xlink:title=" ">
<path fill="none" stroke="#63b8ff" d="M1710.71,-375.24C1681.39,-327 1622.07,-242.11 1546.61,-200.81 1509.88,-180.71 1465.18,-171.14 1424.97,-166.87"/>
<polygon fill="#63b8ff" stroke="#63b8ff" points="1707.6,-376.86 1715.73,-383.65 1713.61,-373.27 1707.6,-376.86"/>
</a>
</g>
</g>
<!-- Node20 -->
<g id="Node000020" class="node">
<title>Node20</title>
<g id="a_Node000020"><a xlink:href="classcom_1_1runehive_1_1net_1_1packet_1_1out_1_1_send_skill.html#acdabf6f599771c7240b87f5865f7f159" target="_top" xlink:title=" ">
<ellipse fill="white" stroke="#666666" cx="1315.21" cy="-235.81" rx="118.97" ry="25.81"/>
<text xml:space="preserve" text-anchor="start" x="1239.08" y="-238.66" font-family="Helvetica,sans-Serif" font-size="12.00">com.runehive.net.packet.out.</text>
<text xml:space="preserve" text-anchor="middle" x="1315.21" y="-224.41" font-family="Helvetica,sans-Serif" font-size="12.00">SendSkill.SendSkill</text>
</a>
</g>
</g>
<!-- Node1&#45;&gt;Node20 -->
<g id="edge22_Node000001_Node000020" class="edge">
<title>Node1&#45;&gt;Node20</title>
<g id="a_edge22_Node000001_Node000020"><a xlink:title=" ">
<path fill="none" stroke="#63b8ff" d="M1697.46,-377.05C1662.91,-344.25 1605.77,-295.85 1546.61,-270.81 1510.65,-255.59 1469.07,-246.88 1431.2,-241.92"/>
<polygon fill="#63b8ff" stroke="#63b8ff" points="1695.02,-379.56 1704.65,-383.97 1699.88,-374.52 1695.02,-379.56"/>
</a>
</g>
</g>
<!-- Node21 -->
<g id="Node000021" class="node">
<title>Node21</title>
<g id="a_Node000021"><a xlink:href="classcom_1_1runehive_1_1content_1_1skill_1_1impl_1_1fishing_1_1_fishing.html#a06679f83e26ee06eda24bcffc9f380f3" target="_top" xlink:title=" ">
<ellipse fill="white" stroke="#666666" cx="1315.21" cy="-445.81" rx="156.09" ry="25.81"/>
<text xml:space="preserve" text-anchor="start" x="1212.83" y="-448.66" font-family="Helvetica,sans-Serif" font-size="12.00">com.runehive.content.skill.impl.fishing.</text>
<text xml:space="preserve" text-anchor="middle" x="1315.21" y="-434.41" font-family="Helvetica,sans-Serif" font-size="12.00">Fishing.success</text>
</a>
</g>
</g>
<!-- Node1&#45;&gt;Node21 -->
<g id="edge23_Node000001_Node000021" class="edge">
<title>Node1&#45;&gt;Node21</title>
<g id="a_edge23_Node000001_Node000021"><a xlink:title=" ">
<path fill="none" stroke="#63b8ff" d="M1585.52,-423.07C1543.19,-426.65 1497.06,-430.54 1455.13,-434.08"/>
<polygon fill="#63b8ff" stroke="#63b8ff" points="1585.59,-426.58 1595.26,-422.25 1585,-419.61 1585.59,-426.58"/>
</a>
</g>
</g>
<!-- Node22 -->
<g id="Node000022" class="node">
<title>Node22</title>
<g id="a_Node000022"><a xlink:href="classcom_1_1runehive_1_1content_1_1skill_1_1impl_1_1cooking_1_1_cooking.html#ac049ff080152a3cdbaa2785d7f416fce" target="_top" xlink:title=" ">
<ellipse fill="white" stroke="#666666" cx="1315.21" cy="-95.81" rx="160.87" ry="25.81"/>
<text xml:space="preserve" text-anchor="start" x="1209.46" y="-98.66" font-family="Helvetica,sans-Serif" font-size="12.00">com.runehive.content.skill.impl.cooking.</text>
<text xml:space="preserve" text-anchor="middle" x="1315.21" y="-84.41" font-family="Helvetica,sans-Serif" font-size="12.00">Cooking.useItem</text>
</a>
</g>
</g>
<!-- Node1&#45;&gt;Node22 -->
<g id="edge25_Node000001_Node000022" class="edge">
<title>Node1&#45;&gt;Node22</title>
<g id="a_edge25_Node000001_Node000022"><a xlink:title=" ">
<path fill="none" stroke="#63b8ff" d="M1717.97,-373.88C1694.49,-312.3 1638.39,-189.62 1546.61,-130.81 1524.47,-116.62 1498.71,-107.38 1472.61,-101.49"/>
<polygon fill="#63b8ff" stroke="#63b8ff" points="1714.68,-375.07 1721.45,-383.22 1721.24,-372.63 1714.68,-375.07"/>
</a>
</g>
</g>
<!-- Node23 -->
<g id="Node000023" class="node">
<title>Node23</title>
<g id="a_Node000023"><a xlink:href="classcom_1_1runehive_1_1content_1_1skill_1_1impl_1_1herblore_1_1_herblore.html#a110c5b1c50222c83e94a524e22dbe371" target="_top" xlink:title=" ">
<ellipse fill="white" stroke="#666666" cx="1315.21" cy="-25.81" rx="162.46" ry="25.81"/>
<text xml:space="preserve" text-anchor="start" x="1208.33" y="-28.66" font-family="Helvetica,sans-Serif" font-size="12.00">com.runehive.content.skill.impl.herblore.</text>
<text xml:space="preserve" text-anchor="middle" x="1315.21" y="-14.41" font-family="Helvetica,sans-Serif" font-size="12.00">Herblore.useItem</text>
</a>
</g>
</g>
<!-- Node1&#45;&gt;Node23 -->
<g id="edge26_Node000001_Node000023" class="edge">
<title>Node1&#45;&gt;Node23</title>
<g id="a_edge26_Node000001_Node000023"><a xlink:title=" ">
<path fill="none" stroke="#63b8ff" d="M1723.02,-373.96C1705.5,-300.99 1655.73,-138.48 1546.61,-60.81 1525.68,-45.91 1500.95,-36.25 1475.61,-30.15"/>
<polygon fill="#63b8ff" stroke="#63b8ff" points="1719.54,-374.45 1725.21,-383.4 1726.36,-372.87 1719.54,-374.45"/>
</a>
</g>
</g>
<!-- Node3 -->
<g id="Node000003" class="node">
<title>Node3</title>
<g id="a_Node000003"><a xlink:href="classcom_1_1runehive_1_1content_1_1skill_1_1impl_1_1fishing_1_1_fishing.html#aa7d582f1831a1cefb83a58c1a40d7504" target="_top" xlink:title=" ">
<ellipse fill="white" stroke="#666666" cx="891.71" cy="-813.81" rx="156.09" ry="25.81"/>
<text xml:space="preserve" text-anchor="start" x="789.34" y="-816.66" font-family="Helvetica,sans-Serif" font-size="12.00">com.runehive.content.skill.impl.fishing.</text>
<text xml:space="preserve" text-anchor="middle" x="891.71" y="-802.41" font-family="Helvetica,sans-Serif" font-size="12.00">Fishing.clickNpc</text>
</a>
</g>
</g>
<!-- Node2&#45;&gt;Node3 -->
<g id="edge2_Node000002_Node000003" class="edge">
<title>Node2&#45;&gt;Node3</title>
<g id="a_edge2_Node000002_Node000003"><a xlink:title=" ">
<path fill="none" stroke="#63b8ff" d="M1147.25,-813.81C1114.54,-813.81 1080.35,-813.81 1048.03,-813.81"/>
<polygon fill="#63b8ff" stroke="#63b8ff" points="1147.24,-817.31 1157.24,-813.81 1147.24,-810.31 1147.24,-817.31"/>
</a>
</g>
</g>
<!-- Node4 -->
<g id="Node000004" class="node">
<title>Node4</title>
<g id="a_Node000004"><a xlink:href="classcom_1_1runehive_1_1content_1_1skill_1_1impl_1_1fishing_1_1_fishing_action.html#a39be6034d61f5b722080ec55da0f99a4" target="_top" xlink:title=" ">
<ellipse fill="white" stroke="#666666" cx="891.71" cy="-445.81" rx="156.09" ry="25.81"/>
<text xml:space="preserve" text-anchor="start" x="789.34" y="-448.66" font-family="Helvetica,sans-Serif" font-size="12.00">com.runehive.content.skill.impl.fishing.</text>
<text xml:space="preserve" text-anchor="middle" x="891.71" y="-434.41" font-family="Helvetica,sans-Serif" font-size="12.00">FishingAction.fish</text>
</a>
</g>
</g>
<!-- Node2&#45;&gt;Node4 -->
<g id="edge3_Node000002_Node000004" class="edge">
<title>Node2&#45;&gt;Node4</title>
<g id="a_edge3_Node000002_Node000004"><a xlink:title=" ">
<path fill="none" stroke="#63b8ff" d="M1149.26,-807.33C1125.96,-801.26 1103.33,-792.18 1083.81,-778.81 971.6,-702 916.88,-536.15 899.28,-471.94"/>
<polygon fill="#63b8ff" stroke="#63b8ff" points="1148.36,-810.71 1158.9,-809.63 1149.99,-803.9 1148.36,-810.71"/>
</a>
</g>
</g>
<!-- Node4&#45;&gt;Node4 -->
<g id="edge5_Node000004_Node000004" class="edge">
<title>Node4&#45;&gt;Node4</title>
<g id="a_edge5_Node000004_Node000004"><a xlink:title=" ">
<path fill="none" stroke="#63b8ff" d="M951.91,-480.29C943.15,-485.83 923.08,-489.62 891.71,-489.62 842.75,-489.62 821.33,-480.38 827.45,-469.69"/>
<polygon fill="#63b8ff" stroke="#63b8ff" points="955.12,-481.7 955.44,-471.11 948.58,-479.18 955.12,-481.7"/>
</a>
</g>
</g>
<!-- Node5 -->
<g id="Node000005" class="node">
<title>Node5</title>
<g id="a_Node000005"><a xlink:href="classcom_1_1runehive_1_1content_1_1skill_1_1impl_1_1fishing_1_1_fishing_action.html#acc66ae97ad9d02a404da69adfc7a62bb" target="_top" xlink:title="A function representing the unit of work that will be carried out.">
<ellipse fill="white" stroke="#666666" cx="543.53" cy="-445.81" rx="156.09" ry="25.81"/>
<text xml:space="preserve" text-anchor="start" x="441.15" y="-448.66" font-family="Helvetica,sans-Serif" font-size="12.00">com.runehive.content.skill.impl.fishing.</text>
<text xml:space="preserve" text-anchor="middle" x="543.53" y="-434.41" font-family="Helvetica,sans-Serif" font-size="12.00">FishingAction.execute</text>
</a>
</g>
</g>
<!-- Node4&#45;&gt;Node5 -->
<g id="edge4_Node000004_Node000005" class="edge">
<title>Node4&#45;&gt;Node5</title>
<g id="a_edge4_Node000004_Node000005"><a xlink:title=" ">
<path fill="none" stroke="#63b8ff" d="M724,-445.81C715.97,-445.81 707.91,-445.81 699.91,-445.81"/>
<polygon fill="#63b8ff" stroke="#63b8ff" points="723.83,-449.31 733.83,-445.81 723.83,-442.31 723.83,-449.31"/>
</a>
</g>
</g>
<!-- Node8&#45;&gt;Node8 -->
<g id="edge9_Node000008_Node000008" class="edge">
<title>Node8&#45;&gt;Node8</title>
<g id="a_edge9_Node000008_Node000008"><a xlink:title=" ">
<path fill="none" stroke="#63b8ff" d="M1387.1,-620.36C1376.55,-625.86 1352.59,-629.62 1315.21,-629.62 1258.25,-629.62 1232.44,-620.88 1237.78,-610.58"/>
<polygon fill="#63b8ff" stroke="#63b8ff" points="1390.01,-622.32 1391.89,-611.9 1383.92,-618.88 1390.01,-622.32"/>
</a>
</g>
</g>
<!-- Node11 -->
<g id="Node000011" class="node">
<title>Node11</title>
<g id="a_Node000011"><a xlink:href="enumcom_1_1runehive_1_1content_1_1consume_1_1_potion_data.html#aa49b41effd8475f100ee611626c89dd9" target="_top" xlink:title="The method that executes the basic effect potion action that will append the level of skill.">
<ellipse fill="white" stroke="#666666" cx="891.71" cy="-375.81" rx="130.64" ry="25.81"/>
<text xml:space="preserve" text-anchor="start" x="807.34" y="-378.66" font-family="Helvetica,sans-Serif" font-size="12.00">com.runehive.content.consume.</text>
<text xml:space="preserve" text-anchor="middle" x="891.71" y="-364.41" font-family="Helvetica,sans-Serif" font-size="12.00">PotionData.onBasicEffect</text>
</a>
</g>
</g>
<!-- Node10&#45;&gt;Node11 -->
<g id="edge12_Node000010_Node000011" class="edge">
<title>Node10&#45;&gt;Node11</title>
<g id="a_edge12_Node000010_Node000011"><a xlink:title=" ">
<path fill="none" stroke="#63b8ff" d="M1197.67,-322.81C1161.18,-328.32 1120.78,-334.62 1083.81,-340.81 1052.37,-346.07 1018.11,-352.22 987.38,-357.88"/>
<polygon fill="#63b8ff" stroke="#63b8ff" points="1198,-326.3 1207.37,-321.35 1196.96,-319.38 1198,-326.3"/>
</a>
</g>
</g>
<!-- Node12 -->
<g id="Node000012" class="node">
<title>Node12</title>
<g id="a_Node000012"><a xlink:href="enumcom_1_1runehive_1_1content_1_1consume_1_1_potion_data.html#a8b2435b3d2fa10a5401aa18216822e31" target="_top" xlink:title="The method that executes the Saradomin brew action.">
<ellipse fill="white" stroke="#666666" cx="891.71" cy="-305.81" rx="130.64" ry="25.81"/>
<text xml:space="preserve" text-anchor="start" x="807.34" y="-308.66" font-family="Helvetica,sans-Serif" font-size="12.00">com.runehive.content.consume.</text>
<text xml:space="preserve" text-anchor="middle" x="891.71" y="-294.41" font-family="Helvetica,sans-Serif" font-size="12.00">PotionData.onSaradominEffect</text>
</a>
</g>
</g>
<!-- Node10&#45;&gt;Node12 -->
<g id="edge13_Node000010_Node000012" class="edge">
<title>Node10&#45;&gt;Node12</title>
<g id="a_edge13_Node000010_Node000012"><a xlink:title=" ">
<path fill="none" stroke="#63b8ff" d="M1173.05,-305.81C1124.42,-305.81 1070.23,-305.81 1022.55,-305.81"/>
<polygon fill="#63b8ff" stroke="#63b8ff" points="1172.79,-309.31 1182.79,-305.81 1172.79,-302.31 1172.79,-309.31"/>
</a>
</g>
</g>
<!-- Node13 -->
<g id="Node000013" class="node">
<title>Node13</title>
<g id="a_Node000013"><a xlink:href="enumcom_1_1runehive_1_1content_1_1consume_1_1_potion_data.html#af1ac88cca1876abf328eef8f418d39b9" target="_top" xlink:title="The method that executes the Zamorak brew action.">
<ellipse fill="white" stroke="#666666" cx="891.71" cy="-235.81" rx="130.64" ry="25.81"/>
<text xml:space="preserve" text-anchor="start" x="807.34" y="-238.66" font-family="Helvetica,sans-Serif" font-size="12.00">com.runehive.content.consume.</text>
<text xml:space="preserve" text-anchor="middle" x="891.71" y="-224.41" font-family="Helvetica,sans-Serif" font-size="12.00">PotionData.onZamorakEffect</text>
</a>
</g>
</g>
<!-- Node10&#45;&gt;Node13 -->
<g id="edge14_Node000010_Node000013" class="edge">
<title>Node10&#45;&gt;Node13</title>
<g id="a_edge14_Node000010_Node000013"><a xlink:title=" ">
<path fill="none" stroke="#63b8ff" d="M1197.67,-288.81C1161.18,-283.3 1120.78,-277 1083.81,-270.81 1052.37,-265.54 1018.11,-259.4 987.38,-253.74"/>
<polygon fill="#63b8ff" stroke="#63b8ff" points="1196.96,-292.24 1207.37,-290.27 1198,-285.32 1196.96,-292.24"/>
</a>
</g>
</g>
<!-- Node16 -->
<g id="Node000016" class="node">
<title>Node16</title>
<g id="a_Node000016"><a xlink:href="classcom_1_1runehive_1_1content_1_1lms_1_1_l_m_s_game.html#af1aa6d24cbd52284a000c5556eeaf363" target="_top" xlink:title="Handles resetting the player that was in the game and either left by dying or other means.">
<ellipse fill="white" stroke="#666666" cx="891.71" cy="-165.81" rx="109.42" ry="25.81"/>
<text xml:space="preserve" text-anchor="start" x="822.34" y="-168.66" font-family="Helvetica,sans-Serif" font-size="12.00">com.runehive.content.lms.</text>
<text xml:space="preserve" text-anchor="middle" x="891.71" y="-154.41" font-family="Helvetica,sans-Serif" font-size="12.00">LMSGame.reset</text>
</a>
</g>
</g>
<!-- Node15&#45;&gt;Node16 -->
<g id="edge17_Node000015_Node000016" class="edge">
<title>Node15&#45;&gt;Node16</title>
<g id="a_edge17_Node000015_Node000016"><a xlink:title=" ">
<path fill="none" stroke="#63b8ff" d="M1194.21,-165.81C1133.55,-165.81 1060.49,-165.81 1001.49,-165.81"/>
<polygon fill="#63b8ff" stroke="#63b8ff" points="1193.88,-169.31 1203.88,-165.81 1193.88,-162.31 1193.88,-169.31"/>
</a>
</g>
</g>
<!-- Node17 -->
<g id="Node000017" class="node">
<title>Node17</title>
<g id="a_Node000017"><a xlink:href="classcom_1_1runehive_1_1content_1_1lms_1_1_l_m_s_game.html#aa31bcbadf3dad6f812263b0d6f171a8b" target="_top" xlink:title="Handles when a player within the LMS game dies.">
<ellipse fill="white" stroke="#666666" cx="543.53" cy="-165.81" rx="109.42" ry="25.81"/>
<text xml:space="preserve" text-anchor="start" x="474.15" y="-168.66" font-family="Helvetica,sans-Serif" font-size="12.00">com.runehive.content.lms.</text>
<text xml:space="preserve" text-anchor="middle" x="543.53" y="-154.41" font-family="Helvetica,sans-Serif" font-size="12.00">LMSGame.onDeath</text>
</a>
</g>
</g>
<!-- Node16&#45;&gt;Node17 -->
<g id="edge18_Node000016_Node000017" class="edge">
<title>Node16&#45;&gt;Node17</title>
<g id="a_edge18_Node000016_Node000017"><a xlink:title=" ">
<path fill="none" stroke="#63b8ff" d="M770.94,-165.81C732.74,-165.81 690.7,-165.81 653.32,-165.81"/>
<polygon fill="#63b8ff" stroke="#63b8ff" points="770.61,-169.31 780.61,-165.81 770.61,-162.31 770.61,-169.31"/>
</a>
</g>
</g>
<!-- Node18 -->
<g id="Node000018" class="node">
<title>Node18</title>
<g id="a_Node000018"><a xlink:href="classcom_1_1runehive_1_1game_1_1world_1_1entity_1_1mob_1_1player_1_1_player_death.html#a74447daa1d6fbc229699e4b383cdd8e0" target="_top" xlink:title="The last part of the death process where the character is reset.">
<ellipse fill="white" stroke="#666666" cx="175.72" cy="-200.81" rx="175.72" ry="25.81"/>
<text xml:space="preserve" text-anchor="start" x="59.47" y="-203.66" font-family="Helvetica,sans-Serif" font-size="12.00">com.runehive.game.world.entity.mob.player.</text>
<text xml:space="preserve" text-anchor="middle" x="175.72" y="-189.41" font-family="Helvetica,sans-Serif" font-size="12.00">PlayerDeath.postDeath</text>
</a>
</g>
</g>
<!-- Node17&#45;&gt;Node18 -->
<g id="edge19_Node000017_Node000018" class="edge">
<title>Node17&#45;&gt;Node18</title>
<g id="a_edge19_Node000017_Node000018"><a xlink:title=" ">
<path fill="none" stroke="#63b8ff" d="M430.39,-176.54C396.88,-179.74 359.64,-183.31 324.23,-186.7"/>
<polygon fill="#63b8ff" stroke="#63b8ff" points="430.47,-180.05 440.09,-175.61 429.8,-173.08 430.47,-180.05"/>
</a>
</g>
</g>
<!-- Node19 -->
<g id="Node000019" class="node">
<title>Node19</title>
<g id="a_Node000019"><a xlink:href="classcom_1_1runehive_1_1game_1_1world_1_1entity_1_1mob_1_1player_1_1_player.html#a2f63e67e6e58a4919fd1140aff2d91a6" target="_top" xlink:title="Unregisters an entity from the World.">
<ellipse fill="white" stroke="#666666" cx="175.72" cy="-130.81" rx="175.72" ry="25.81"/>
<text xml:space="preserve" text-anchor="start" x="59.47" y="-133.66" font-family="Helvetica,sans-Serif" font-size="12.00">com.runehive.game.world.entity.mob.player.</text>
<text xml:space="preserve" text-anchor="middle" x="175.72" y="-119.41" font-family="Helvetica,sans-Serif" font-size="12.00">Player.unregister</text>
</a>
</g>
</g>
<!-- Node17&#45;&gt;Node19 -->
<g id="edge21_Node000017_Node000019" class="edge">
<title>Node17&#45;&gt;Node19</title>
<g id="a_edge21_Node000017_Node000019"><a xlink:title=" ">
<path fill="none" stroke="#63b8ff" d="M430.39,-155.08C396.88,-151.87 359.64,-148.31 324.23,-144.92"/>
<polygon fill="#63b8ff" stroke="#63b8ff" points="429.8,-158.54 440.09,-156.01 430.47,-151.57 429.8,-158.54"/>
</a>
</g>
</g>
<!-- Node18&#45;&gt;Node18 -->
<g id="edge20_Node000018_Node000018" class="edge">
<title>Node18&#45;&gt;Node18</title>
<g id="a_edge20_Node000018_Node000018"><a xlink:title=" ">
<path fill="none" stroke="#63b8ff" d="M239.3,-235.29C230.05,-240.83 208.85,-244.62 175.72,-244.62 123.99,-244.62 101.36,-235.38 107.83,-224.69"/>
<polygon fill="#63b8ff" stroke="#63b8ff" points="242.52,-236.68 243.03,-226.1 236.03,-234.04 242.52,-236.68"/>
</a>
</g>
</g>
<!-- Node21&#45;&gt;Node4 -->
<g id="edge24_Node000021_Node000004" class="edge">
<title>Node21&#45;&gt;Node4</title>
<g id="a_edge24_Node000021_Node000004"><a xlink:title=" ">
<path fill="none" stroke="#63b8ff" d="M1147.25,-445.81C1114.54,-445.81 1080.35,-445.81 1048.03,-445.81"/>
<polygon fill="#63b8ff" stroke="#63b8ff" points="1147.24,-449.31 1157.24,-445.81 1147.24,-442.31 1147.24,-449.31"/>
</a>
</g>
</g>
</g>
</svg>

<g id="navigator" transform="translate(0 0)" fill="#404254">
  <rect fill="#f2f5e9" fill-opacity="0.5" stroke="#606060" stroke-width=".5" x="0" y="0" width="60" height="60"/>
  <use id="zoomplus" xlink:href="#zoomPlus" x="17" y="9" onmousedown="handleZoom(evt,'in')"/>
  <use id="zoomminus" xlink:href="#zoomMin" x="42" y="9" onmousedown="handleZoom(evt,'out')"/>
  <use id="reset" xlink:href="#resetDef" x="30" y="36" onmousedown="handleReset()"/>
   <use id="arrowup" xlink:href="#arrowUp" x="0" y="0" onmousedown="handlePan(0,-1)"/>
  <use id="arrowright" xlink:href="#arrowRight" x="0" y="0" onmousedown="handlePan(1,0)"/>
  <use id="arrowdown" xlink:href="#arrowDown" x="0" y="0" onmousedown="handlePan(0,1)"/>
  <use id="arrowleft" xlink:href="#arrowLeft" x="0" y="0" onmousedown="handlePan(-1,0)"/>
</g>
<svg viewBox="0 0 15 15" width="100%" height="30px" preserveAspectRatio="xMaxYMin meet">
 <g id="arrow_out" transform="scale(0.3 0.3)">
  <a xlink:href="classcom_1_1runehive_1_1game_1_1world_1_1entity_1_1skill_1_1_skill_a635cfacdd28d86af90cf45a3f4df39b9_icgraph_org.svg" target="_base">
   <rect id="button" ry="5" rx="5" y="6" x="6" height="38" width="38"
        fill="#f2f5e9" fill-opacity="0.5" stroke="#606060" stroke-width="1.0"/>
   <path id="arrow"
     d="M 11.500037,31.436501 C 11.940474,20.09759 22.043105,11.32322 32.158766,21.979434 L 37.068811,17.246167 C 37.068811,17.246167 37.088388,32 37.088388,32 L 22.160133,31.978069 C 22.160133,31.978069 26.997745,27.140456 26.997745,27.140456 C 18.528582,18.264221 13.291696,25.230495 11.500037,31.436501 z"
     style="fill:#404040;"/>
  </a>
 </g>
</svg>

<style type='text/css'>
<![CDATA[
[data-mouse-over-selected='false'] { opacity: 0.7; }
[data-mouse-over-selected='true']  { opacity: 1.0; }
]]>
</style>
<script type="application/ecmascript"><![CDATA[
document.addEventListener('DOMContentLoaded', (event) => {
  highlightEdges();
  highlightAdjacentNodes();
});
]]></script>
</svg>
