<?xml version="1.0" encoding="UTF-8" standalone="no"?>
<!DOCTYPE svg PUBLIC "-//W3C//DTD SVG 1.1//EN"
 "http://www.w3.org/Graphics/SVG/1.1/DTD/svg11.dtd">
<!-- Generated by graphviz version 14.0.1 (20251006.0113)
 -->
<!-- Title: com.runehive.game.world.entity.mob.Mob.venom Pages: 1 -->
<svg width="1419pt" height="744pt"
 viewBox="0.00 0.00 1419.00 744.00" xmlns="http://www.w3.org/2000/svg" xmlns:xlink="http://www.w3.org/1999/xlink">
<g id="graph0" class="graph" transform="scale(1 1) rotate(0) translate(4 739.62)">
<title>com.runehive.game.world.entity.mob.Mob.venom</title>
<!-- Node1 -->
<g id="Node000001" class="node">
<title>Node1</title>
<g id="a_Node000001"><a xlink:title="Applies venom to the entity.">
<ellipse fill="#999999" stroke="#666666" cx="1259.76" cy="-349.81" rx="150.79" ry="25.81"/>
<text xml:space="preserve" text-anchor="start" x="1161.14" y="-352.66" font-family="Helvetica,sans-Serif" font-size="12.00">com.runehive.game.world.entity.mob.</text>
<text xml:space="preserve" text-anchor="middle" x="1259.76" y="-338.41" font-family="Helvetica,sans-Serif" font-size="12.00">Mob.venom</text>
</a>
</g>
</g>
<!-- Node2 -->
<g id="Node000002" class="node">
<title>Node2</title>
<g id="a_Node000002"><a xlink:href="classcom_1_1runehive_1_1game_1_1world_1_1entity_1_1combat_1_1strategy_1_1npc_1_1_npc_melee_strategy.html#a7284865b73d3ec173a0dfdae9acc81e0" target="_top" xlink:title=" ">
<ellipse fill="white" stroke="#666666" cx="825.66" cy="-709.81" rx="209.13" ry="25.81"/>
<text xml:space="preserve" text-anchor="start" x="685.79" y="-712.66" font-family="Helvetica,sans-Serif" font-size="12.00">com.runehive.game.world.entity.combat.strategy.npc.</text>
<text xml:space="preserve" text-anchor="middle" x="825.66" y="-698.41" font-family="Helvetica,sans-Serif" font-size="12.00">NpcMeleeStrategy.attack</text>
</a>
</g>
</g>
<!-- Node1&#45;&gt;Node2 -->
<g id="edge1_Node000001_Node000002" class="edge">
<title>Node1&#45;&gt;Node2</title>
<g id="a_edge1_Node000001_Node000002"><a xlink:title=" ">
<path fill="none" stroke="#63b8ff" d="M1249.33,-386.62C1229.53,-455.77 1176.63,-604.45 1072.97,-674.81 1056.8,-685.79 1038.65,-693.97 1019.73,-700.02"/>
<polygon fill="#63b8ff" stroke="#63b8ff" points="1252.62,-387.87 1251.93,-377.3 1245.87,-385.99 1252.62,-387.87"/>
</a>
</g>
</g>
<!-- Node3 -->
<g id="Node000003" class="node">
<title>Node3</title>
<g id="a_Node000003"><a xlink:href="classcom_1_1runehive_1_1game_1_1world_1_1entity_1_1combat_1_1strategy_1_1npc_1_1_npc_ranged_strategy.html#a1a0633ca2dd1caff2ac37e6aff60bc7e" target="_top" xlink:title=" ">
<ellipse fill="white" stroke="#666666" cx="825.66" cy="-639.81" rx="209.13" ry="25.81"/>
<text xml:space="preserve" text-anchor="start" x="685.79" y="-642.66" font-family="Helvetica,sans-Serif" font-size="12.00">com.runehive.game.world.entity.combat.strategy.npc.</text>
<text xml:space="preserve" text-anchor="middle" x="825.66" y="-628.41" font-family="Helvetica,sans-Serif" font-size="12.00">NpcRangedStrategy.attack</text>
</a>
</g>
</g>
<!-- Node1&#45;&gt;Node3 -->
<g id="edge2_Node000001_Node000003" class="edge">
<title>Node1&#45;&gt;Node3</title>
<g id="a_edge2_Node000001_Node000003"><a xlink:title=" ">
<path fill="none" stroke="#63b8ff" d="M1243.69,-386.1C1217.92,-443.16 1159.64,-552.72 1072.97,-604.81 1055.48,-615.32 1036.05,-623.15 1016,-628.92"/>
<polygon fill="#63b8ff" stroke="#63b8ff" points="1246.81,-387.69 1247.66,-377.13 1240.41,-384.86 1246.81,-387.69"/>
</a>
</g>
</g>
<!-- Node5 -->
<g id="Node000005" class="node">
<title>Node5</title>
<g id="a_Node000005"><a xlink:href="classcom_1_1runehive_1_1game_1_1world_1_1entity_1_1combat_1_1strategy_1_1player_1_1custom_1_1_toxic_blowpipe_strategy.html#a799c041b3c0db5efecf835c3502541bb" target="_top" xlink:title=" ">
<ellipse fill="white" stroke="#666666" cx="825.66" cy="-569.81" rx="247.31" ry="25.81"/>
<text xml:space="preserve" text-anchor="start" x="658.79" y="-572.66" font-family="Helvetica,sans-Serif" font-size="12.00">com.runehive.game.world.entity.combat.strategy.player.custom.</text>
<text xml:space="preserve" text-anchor="middle" x="825.66" y="-558.41" font-family="Helvetica,sans-Serif" font-size="12.00">ToxicBlowpipeStrategy.attack</text>
</a>
</g>
</g>
<!-- Node1&#45;&gt;Node5 -->
<g id="edge5_Node000001_Node000005" class="edge">
<title>Node1&#45;&gt;Node5</title>
<g id="a_edge5_Node000001_Node000005"><a xlink:title=" ">
<path fill="none" stroke="#63b8ff" d="M1234.77,-384.87C1203.15,-428.01 1143.24,-499.8 1072.97,-534.81 1057.12,-542.71 1040.03,-548.97 1022.5,-553.92"/>
<polygon fill="#63b8ff" stroke="#63b8ff" points="1237.55,-386.99 1240.56,-376.83 1231.88,-382.9 1237.55,-386.99"/>
</a>
</g>
</g>
<!-- Node7 -->
<g id="Node000007" class="node">
<title>Node7</title>
<g id="a_Node000007"><a xlink:href="classcom_1_1runehive_1_1game_1_1world_1_1entity_1_1combat_1_1strategy_1_1npc_1_1boss_1_1_vorkath_1_1_venom_dragonfire_attack.html#a0c6e4fb286d45c089d14d742a987b927" target="_top" xlink:title=" ">
<ellipse fill="white" stroke="#666666" cx="825.66" cy="-481.81" rx="229.28" ry="25.81"/>
<text xml:space="preserve" text-anchor="start" x="671.54" y="-484.66" font-family="Helvetica,sans-Serif" font-size="12.00">com.runehive.game.world.entity.combat.strategy.npc.boss.</text>
<text xml:space="preserve" text-anchor="middle" x="825.66" y="-470.41" font-family="Helvetica,sans-Serif" font-size="12.00">Vorkath.VenomDragonfireAttack.hit</text>
</a>
</g>
</g>
<!-- Node1&#45;&gt;Node7 -->
<g id="edge7_Node000001_Node000007" class="edge">
<title>Node1&#45;&gt;Node7</title>
<g id="a_edge7_Node000001_Node000007"><a xlink:title=" ">
<path fill="none" stroke="#63b8ff" d="M1210.53,-380.84C1174.15,-402.76 1122.26,-430.96 1072.97,-446.81 1049.84,-454.25 1024.99,-460.11 1000.28,-464.72"/>
<polygon fill="#63b8ff" stroke="#63b8ff" points="1211.89,-384.11 1218.6,-375.92 1208.24,-378.14 1211.89,-384.11"/>
</a>
</g>
</g>
<!-- Node8 -->
<g id="Node000008" class="node">
<title>Node8</title>
<g id="a_Node000008"><a xlink:href="classcom_1_1runehive_1_1game_1_1world_1_1entity_1_1combat_1_1strategy_1_1player_1_1custom_1_1_trident_of_the_swamp_strategy.html#aeffd728fac6f35c55bdac4273fd27a8e" target="_top" xlink:title=" ">
<ellipse fill="white" stroke="#666666" cx="825.66" cy="-393.81" rx="247.31" ry="25.81"/>
<text xml:space="preserve" text-anchor="start" x="658.79" y="-396.66" font-family="Helvetica,sans-Serif" font-size="12.00">com.runehive.game.world.entity.combat.strategy.player.custom.</text>
<text xml:space="preserve" text-anchor="middle" x="825.66" y="-382.41" font-family="Helvetica,sans-Serif" font-size="12.00">TridentOfTheSwampStrategy.hit</text>
</a>
</g>
</g>
<!-- Node1&#45;&gt;Node8 -->
<g id="edge9_Node000001_Node000008" class="edge">
<title>Node1&#45;&gt;Node8</title>
<g id="a_edge9_Node000001_Node000008"><a xlink:title=" ">
<path fill="none" stroke="#63b8ff" d="M1118.03,-364.14C1081.94,-367.81 1042.66,-371.82 1004.95,-375.65"/>
<polygon fill="#63b8ff" stroke="#63b8ff" points="1118.02,-367.66 1127.61,-363.16 1117.31,-360.7 1118.02,-367.66"/>
</a>
</g>
</g>
<!-- Node11 -->
<g id="Node000011" class="node">
<title>Node11</title>
<g id="a_Node000011"><a xlink:href="classcom_1_1runehive_1_1game_1_1world_1_1entity_1_1combat_1_1strategy_1_1player_1_1_player_magic_strategy.html#a245fce908b30a83b4f820c492776acab" target="_top" xlink:title=" ">
<ellipse fill="white" stroke="#666666" cx="825.66" cy="-305.81" rx="218.14" ry="25.81"/>
<text xml:space="preserve" text-anchor="start" x="679.41" y="-308.66" font-family="Helvetica,sans-Serif" font-size="12.00">com.runehive.game.world.entity.combat.strategy.player.</text>
<text xml:space="preserve" text-anchor="middle" x="825.66" y="-294.41" font-family="Helvetica,sans-Serif" font-size="12.00">PlayerMagicStrategy.hit</text>
</a>
</g>
</g>
<!-- Node1&#45;&gt;Node11 -->
<g id="edge13_Node000001_Node000011" class="edge">
<title>Node1&#45;&gt;Node11</title>
<g id="a_edge13_Node000001_Node000011"><a xlink:title=" ">
<path fill="none" stroke="#63b8ff" d="M1117.69,-335.44C1077.77,-331.38 1033.94,-326.92 992.69,-322.72"/>
<polygon fill="#63b8ff" stroke="#63b8ff" points="1117.31,-338.92 1127.61,-336.45 1118.02,-331.96 1117.31,-338.92"/>
</a>
</g>
</g>
<!-- Node14 -->
<g id="Node000014" class="node">
<title>Node14</title>
<g id="a_Node000014"><a xlink:href="classcom_1_1runehive_1_1game_1_1world_1_1entity_1_1combat_1_1attack_1_1listener_1_1item_1_1_zulrah_helm.html#a138f0d587dcadfb1a8f8abca524421cb" target="_top" xlink:title=" ">
<ellipse fill="white" stroke="#666666" cx="825.66" cy="-235.81" rx="233.52" ry="25.81"/>
<text xml:space="preserve" text-anchor="start" x="668.54" y="-238.66" font-family="Helvetica,sans-Serif" font-size="12.00">com.runehive.game.world.entity.combat.attack.listener.item.</text>
<text xml:space="preserve" text-anchor="middle" x="825.66" y="-224.41" font-family="Helvetica,sans-Serif" font-size="12.00">ZulrahHelm.magma</text>
</a>
</g>
</g>
<!-- Node1&#45;&gt;Node14 -->
<g id="edge17_Node000001_Node000014" class="edge">
<title>Node1&#45;&gt;Node14</title>
<g id="a_edge17_Node000001_Node000014"><a xlink:title=" ">
<path fill="none" stroke="#63b8ff" d="M1200.07,-320.18C1164.2,-303.26 1116.92,-283.05 1072.97,-270.81 1048.22,-263.92 1021.66,-258.33 995.48,-253.83"/>
<polygon fill="#63b8ff" stroke="#63b8ff" points="1198.45,-323.28 1208.98,-324.43 1201.46,-316.96 1198.45,-323.28"/>
</a>
</g>
</g>
<!-- Node16 -->
<g id="Node000016" class="node">
<title>Node16</title>
<g id="a_Node000016"><a xlink:href="classcom_1_1runehive_1_1game_1_1world_1_1entity_1_1combat_1_1strategy_1_1npc_1_1_npc_magic_strategy.html#a4a3c8709c7613be200ac69266a562a71" target="_top" xlink:title=" ">
<ellipse fill="white" stroke="#666666" cx="825.66" cy="-25.81" rx="209.13" ry="25.81"/>
<text xml:space="preserve" text-anchor="start" x="685.79" y="-28.66" font-family="Helvetica,sans-Serif" font-size="12.00">com.runehive.game.world.entity.combat.strategy.npc.</text>
<text xml:space="preserve" text-anchor="middle" x="825.66" y="-14.41" font-family="Helvetica,sans-Serif" font-size="12.00">NpcMagicStrategy.sendProjectile</text>
</a>
</g>
</g>
<!-- Node1&#45;&gt;Node16 -->
<g id="edge20_Node000001_Node000016" class="edge">
<title>Node1&#45;&gt;Node16</title>
<g id="a_edge20_Node000001_Node000016"><a xlink:title=" ">
<path fill="none" stroke="#63b8ff" d="M1246.63,-312.96C1223.71,-249.74 1167.7,-121.57 1072.97,-60.81 1056.25,-50.08 1037.58,-42.08 1018.21,-36.17"/>
<polygon fill="#63b8ff" stroke="#63b8ff" points="1243.26,-313.93 1249.89,-322.19 1249.86,-311.6 1243.26,-313.93"/>
</a>
</g>
</g>
<!-- Node18 -->
<g id="Node000018" class="node">
<title>Node18</title>
<g id="a_Node000018"><a xlink:href="classcom_1_1runehive_1_1game_1_1world_1_1entity_1_1combat_1_1attack_1_1listener_1_1item_1_1_zulrah_helm.html#a3c390a666f814fa7b7b5a219c4eb511f" target="_top" xlink:title=" ">
<ellipse fill="white" stroke="#666666" cx="825.66" cy="-165.81" rx="233.52" ry="25.81"/>
<text xml:space="preserve" text-anchor="start" x="668.54" y="-168.66" font-family="Helvetica,sans-Serif" font-size="12.00">com.runehive.game.world.entity.combat.attack.listener.item.</text>
<text xml:space="preserve" text-anchor="middle" x="825.66" y="-154.41" font-family="Helvetica,sans-Serif" font-size="12.00">ZulrahHelm.serp</text>
</a>
</g>
</g>
<!-- Node1&#45;&gt;Node18 -->
<g id="edge22_Node000001_Node000018" class="edge">
<title>Node1&#45;&gt;Node18</title>
<g id="a_edge22_Node000001_Node000018"><a xlink:title=" ">
<path fill="none" stroke="#63b8ff" d="M1227.76,-315.96C1193.52,-280.93 1134.97,-227.65 1072.97,-200.81 1054.14,-192.66 1033.82,-186.33 1013.21,-181.42"/>
<polygon fill="#63b8ff" stroke="#63b8ff" points="1225.01,-318.15 1234.46,-322.92 1230.05,-313.29 1225.01,-318.15"/>
</a>
</g>
</g>
<!-- Node19 -->
<g id="Node000019" class="node">
<title>Node19</title>
<g id="a_Node000019"><a xlink:href="classcom_1_1runehive_1_1game_1_1world_1_1entity_1_1combat_1_1attack_1_1listener_1_1item_1_1_zulrah_helm.html#afe9868ec81b1febfb4b9fcd585f1e75f" target="_top" xlink:title=" ">
<ellipse fill="white" stroke="#666666" cx="825.66" cy="-95.81" rx="233.52" ry="25.81"/>
<text xml:space="preserve" text-anchor="start" x="668.54" y="-98.66" font-family="Helvetica,sans-Serif" font-size="12.00">com.runehive.game.world.entity.combat.attack.listener.item.</text>
<text xml:space="preserve" text-anchor="middle" x="825.66" y="-84.41" font-family="Helvetica,sans-Serif" font-size="12.00">ZulrahHelm.tanz</text>
</a>
</g>
</g>
<!-- Node1&#45;&gt;Node19 -->
<g id="edge24_Node000001_Node000019" class="edge">
<title>Node1&#45;&gt;Node19</title>
<g id="a_edge24_Node000001_Node000019"><a xlink:title=" ">
<path fill="none" stroke="#63b8ff" d="M1239.73,-314.12C1210.92,-263.98 1151.18,-173.96 1072.97,-130.81 1057.18,-122.1 1039.99,-115.3 1022.28,-110.01"/>
<polygon fill="#63b8ff" stroke="#63b8ff" points="1236.54,-315.58 1244.5,-322.57 1242.64,-312.15 1236.54,-315.58"/>
</a>
</g>
</g>
<!-- Node4 -->
<g id="Node000004" class="node">
<title>Node4</title>
<g id="a_Node000004"><a xlink:href="classcom_1_1runehive_1_1content_1_1activity_1_1infernomobs_1_1_mej_rah_1_1_ranged.html#ab5938aa8817fe8d82f293c4b27af113b" target="_top" xlink:title=" ">
<ellipse fill="white" stroke="#666666" cx="271.18" cy="-639.81" rx="170.41" ry="25.81"/>
<text xml:space="preserve" text-anchor="start" x="158.68" y="-642.66" font-family="Helvetica,sans-Serif" font-size="12.00">com.runehive.content.activity.infernomobs.</text>
<text xml:space="preserve" text-anchor="middle" x="271.18" y="-628.41" font-family="Helvetica,sans-Serif" font-size="12.00">MejRah.Ranged.hit</text>
</a>
</g>
</g>
<!-- Node3&#45;&gt;Node4 -->
<g id="edge3_Node000003_Node000004" class="edge">
<title>Node3&#45;&gt;Node4</title>
<g id="a_edge3_Node000003_Node000004"><a xlink:title=" ">
<path fill="none" stroke="#63b8ff" d="M604.68,-639.81C550.55,-639.81 493.4,-639.81 442.05,-639.81"/>
<polygon fill="#63b8ff" stroke="#63b8ff" points="604.67,-643.31 614.67,-639.81 604.67,-636.31 604.67,-643.31"/>
</a>
</g>
</g>
<!-- Node4&#45;&gt;Node4 -->
<g id="edge4_Node000004_Node000004" class="edge">
<title>Node4&#45;&gt;Node4</title>
<g id="a_edge4_Node000004_Node000004"><a xlink:title=" ">
<path fill="none" stroke="#63b8ff" d="M370.97,-672.41C359.88,-678.95 326.61,-683.62 271.18,-683.62 186.7,-683.62 153.71,-672.77 172.18,-661"/>
<polygon fill="#63b8ff" stroke="#63b8ff" points="374.47,-672.23 370.27,-662.51 367.49,-672.73 374.47,-672.23"/>
</a>
</g>
</g>
<!-- Node6 -->
<g id="Node000006" class="node">
<title>Node6</title>
<g id="a_Node000006"><a xlink:href="classcom_1_1runehive_1_1game_1_1world_1_1entity_1_1combat_1_1strategy_1_1player_1_1special_1_1range_1_1_blowpipe.html#acb5f3cf5f40c4ba10861b488ee991287" target="_top" xlink:title=" ">
<ellipse fill="white" stroke="#666666" cx="271.18" cy="-569.81" rx="271.18" ry="25.81"/>
<text xml:space="preserve" text-anchor="start" x="87.43" y="-572.66" font-family="Helvetica,sans-Serif" font-size="12.00">com.runehive.game.world.entity.combat.strategy.player.special.range.</text>
<text xml:space="preserve" text-anchor="middle" x="271.18" y="-558.41" font-family="Helvetica,sans-Serif" font-size="12.00">Blowpipe.attack</text>
</a>
</g>
</g>
<!-- Node5&#45;&gt;Node6 -->
<g id="edge6_Node000005_Node000006" class="edge">
<title>Node5&#45;&gt;Node6</title>
<g id="a_edge6_Node000005_Node000006"><a xlink:title=" ">
<path fill="none" stroke="#63b8ff" d="M566.43,-569.81C558.58,-569.81 550.71,-569.81 542.84,-569.81"/>
<polygon fill="#63b8ff" stroke="#63b8ff" points="566.39,-573.31 576.39,-569.81 566.39,-566.31 566.39,-573.31"/>
</a>
</g>
</g>
<!-- Node7&#45;&gt;Node7 -->
<g id="edge8_Node000007_Node000007" class="edge">
<title>Node7&#45;&gt;Node7</title>
<g id="a_edge8_Node000007_Node000007"><a xlink:title=" ">
<path fill="none" stroke="#63b8ff" d="M901.03,-516.12C890.29,-521.75 865.17,-525.62 825.66,-525.62 765.46,-525.62 738.66,-516.63 745.24,-506.14"/>
<polygon fill="#63b8ff" stroke="#63b8ff" points="904.01,-517.99 905.4,-507.49 897.76,-514.83 904.01,-517.99"/>
</a>
</g>
</g>
<!-- Node8&#45;&gt;Node8 -->
<g id="edge11_Node000008_Node000008" class="edge">
<title>Node8&#45;&gt;Node8</title>
<g id="a_edge11_Node000008_Node000008"><a xlink:title=" ">
<path fill="none" stroke="#63b8ff" d="M900.57,-428.36C889.58,-433.86 864.61,-437.62 825.66,-437.62 766.31,-437.62 739.42,-428.88 744.98,-418.58"/>
<polygon fill="#63b8ff" stroke="#63b8ff" points="903.51,-430.27 905.57,-419.88 897.48,-426.72 903.51,-430.27"/>
</a>
</g>
</g>
<!-- Node9 -->
<g id="Node000009" class="node">
<title>Node9</title>
<g id="a_Node000009"><a xlink:href="classcom_1_1runehive_1_1game_1_1world_1_1entity_1_1combat_1_1strategy_1_1player_1_1custom_1_1_trident_of_the_swamp_strategy.html#a6b2d3318114c20f66b1ab096b51acf52" target="_top" xlink:title=" ">
<ellipse fill="white" stroke="#666666" cx="271.18" cy="-463.81" rx="247.31" ry="25.81"/>
<text xml:space="preserve" text-anchor="start" x="104.3" y="-466.66" font-family="Helvetica,sans-Serif" font-size="12.00">com.runehive.game.world.entity.combat.strategy.player.custom.</text>
<text xml:space="preserve" text-anchor="middle" x="271.18" y="-452.41" font-family="Helvetica,sans-Serif" font-size="12.00">TridentOfTheSwampStrategy.attack</text>
</a>
</g>
</g>
<!-- Node8&#45;&gt;Node9 -->
<g id="edge10_Node000008_Node000009" class="edge">
<title>Node8&#45;&gt;Node9</title>
<g id="a_edge10_Node000008_Node000009"><a xlink:title=" ">
<path fill="none" stroke="#63b8ff" d="M654.62,-415.35C583.31,-424.39 500.85,-434.84 430.79,-443.71"/>
<polygon fill="#63b8ff" stroke="#63b8ff" points="654.99,-418.83 664.47,-414.11 654.11,-411.89 654.99,-418.83"/>
</a>
</g>
</g>
<!-- Node10 -->
<g id="Node000010" class="node">
<title>Node10</title>
<g id="a_Node000010"><a xlink:href="classcom_1_1runehive_1_1game_1_1world_1_1entity_1_1combat_1_1strategy_1_1player_1_1custom_1_1_trident_of_the_swamp_strategy.html#ac873dde053078357bac84bc2dc1c183f" target="_top" xlink:title=" ">
<ellipse fill="white" stroke="#666666" cx="271.18" cy="-393.81" rx="247.31" ry="25.81"/>
<text xml:space="preserve" text-anchor="start" x="104.3" y="-396.66" font-family="Helvetica,sans-Serif" font-size="12.00">com.runehive.game.world.entity.combat.strategy.player.custom.</text>
<text xml:space="preserve" text-anchor="middle" x="271.18" y="-382.41" font-family="Helvetica,sans-Serif" font-size="12.00">TridentOfTheSwampStrategy.start</text>
</a>
</g>
</g>
<!-- Node8&#45;&gt;Node10 -->
<g id="edge12_Node000008_Node000010" class="edge">
<title>Node8&#45;&gt;Node10</title>
<g id="a_edge12_Node000008_Node000010"><a xlink:title=" ">
<path fill="none" stroke="#63b8ff" d="M566.81,-393.81C550.76,-393.81 534.62,-393.81 518.62,-393.81"/>
<polygon fill="#63b8ff" stroke="#63b8ff" points="566.39,-397.31 576.39,-393.81 566.39,-390.31 566.39,-397.31"/>
</a>
</g>
</g>
<!-- Node11&#45;&gt;Node11 -->
<g id="edge14_Node000011_Node000011" class="edge">
<title>Node11&#45;&gt;Node11</title>
<g id="a_edge14_Node000011_Node000011"><a xlink:title=" ">
<path fill="none" stroke="#63b8ff" d="M901.03,-340.12C890.29,-345.75 865.17,-349.62 825.66,-349.62 765.46,-349.62 738.66,-340.63 745.24,-330.14"/>
<polygon fill="#63b8ff" stroke="#63b8ff" points="904.01,-341.99 905.4,-331.49 897.76,-338.83 904.01,-341.99"/>
</a>
</g>
</g>
<!-- Node12 -->
<g id="Node000012" class="node">
<title>Node12</title>
<g id="a_Node000012"><a xlink:href="classcom_1_1runehive_1_1game_1_1world_1_1entity_1_1combat_1_1strategy_1_1player_1_1_player_magic_strategy.html#a11c9ff7da7e9fb204cd19fa7e58d58aa" target="_top" xlink:title=" ">
<ellipse fill="white" stroke="#666666" cx="271.18" cy="-323.81" rx="218.14" ry="25.81"/>
<text xml:space="preserve" text-anchor="start" x="124.93" y="-326.66" font-family="Helvetica,sans-Serif" font-size="12.00">com.runehive.game.world.entity.combat.strategy.player.</text>
<text xml:space="preserve" text-anchor="middle" x="271.18" y="-312.41" font-family="Helvetica,sans-Serif" font-size="12.00">PlayerMagicStrategy.hitsplat</text>
</a>
</g>
</g>
<!-- Node11&#45;&gt;Node12 -->
<g id="edge15_Node000011_Node000012" class="edge">
<title>Node11&#45;&gt;Node12</title>
<g id="a_edge15_Node000011_Node000012"><a xlink:title=" ">
<path fill="none" stroke="#63b8ff" d="M603.35,-313.02C563.28,-314.33 521.59,-315.68 481.86,-316.98"/>
<polygon fill="#63b8ff" stroke="#63b8ff" points="603.21,-316.53 613.1,-312.7 602.99,-309.53 603.21,-316.53"/>
</a>
</g>
</g>
<!-- Node13 -->
<g id="Node000013" class="node">
<title>Node13</title>
<g id="a_Node000013"><a xlink:href="classcom_1_1runehive_1_1game_1_1world_1_1entity_1_1combat_1_1strategy_1_1player_1_1_player_magic_strategy.html#a9ed23335699a53de8d4ae2eada6d488a" target="_top" xlink:title=" ">
<ellipse fill="white" stroke="#666666" cx="271.18" cy="-253.81" rx="218.14" ry="25.81"/>
<text xml:space="preserve" text-anchor="start" x="124.93" y="-256.66" font-family="Helvetica,sans-Serif" font-size="12.00">com.runehive.game.world.entity.combat.strategy.player.</text>
<text xml:space="preserve" text-anchor="middle" x="271.18" y="-242.41" font-family="Helvetica,sans-Serif" font-size="12.00">PlayerMagicStrategy.start</text>
</a>
</g>
</g>
<!-- Node11&#45;&gt;Node13 -->
<g id="edge16_Node000011_Node000013" class="edge">
<title>Node11&#45;&gt;Node13</title>
<g id="a_edge16_Node000011_Node000013"><a xlink:title=" ">
<path fill="none" stroke="#63b8ff" d="M641.84,-288.6C577.95,-282.59 506.52,-275.87 443.6,-269.94"/>
<polygon fill="#63b8ff" stroke="#63b8ff" points="641.47,-292.08 651.75,-289.54 642.12,-285.11 641.47,-292.08"/>
</a>
</g>
</g>
<!-- Node15 -->
<g id="Node000015" class="node">
<title>Node15</title>
<g id="a_Node000015"><a xlink:href="classcom_1_1runehive_1_1game_1_1world_1_1entity_1_1combat_1_1attack_1_1listener_1_1item_1_1_zulrah_helm.html#a4c8acce1767dfeffe28f65f3b48baf74" target="_top" xlink:title=" ">
<ellipse fill="white" stroke="#666666" cx="271.18" cy="-165.81" rx="233.52" ry="25.81"/>
<text xml:space="preserve" text-anchor="start" x="114.05" y="-168.66" font-family="Helvetica,sans-Serif" font-size="12.00">com.runehive.game.world.entity.combat.attack.listener.item.</text>
<text xml:space="preserve" text-anchor="middle" x="271.18" y="-154.41" font-family="Helvetica,sans-Serif" font-size="12.00">ZulrahHelm.hit</text>
</a>
</g>
</g>
<!-- Node14&#45;&gt;Node15 -->
<g id="edge18_Node000014_Node000015" class="edge">
<title>Node14&#45;&gt;Node15</title>
<g id="a_edge18_Node000014_Node000015"><a xlink:title=" ">
<path fill="none" stroke="#63b8ff" d="M658.79,-214.79C585.17,-205.47 499.03,-194.55 426.77,-185.4"/>
<polygon fill="#63b8ff" stroke="#63b8ff" points="658.17,-218.24 668.53,-216.03 659.05,-211.3 658.17,-218.24"/>
</a>
</g>
</g>
<!-- Node15&#45;&gt;Node15 -->
<g id="edge19_Node000015_Node000015" class="edge">
<title>Node15&#45;&gt;Node15</title>
<g id="a_edge19_Node000015_Node000015"><a xlink:title=" ">
<path fill="none" stroke="#63b8ff" d="M368.57,-199.64C355.52,-205.53 323.06,-209.62 271.18,-209.62 192.12,-209.62 158.15,-200.12 169.27,-189.25"/>
<polygon fill="#63b8ff" stroke="#63b8ff" points="371.71,-201.2 372.48,-190.63 365.29,-198.41 371.71,-201.2"/>
</a>
</g>
</g>
<!-- Node17 -->
<g id="Node000017" class="node">
<title>Node17</title>
<g id="a_Node000017"><a xlink:href="classcom_1_1runehive_1_1game_1_1world_1_1entity_1_1combat_1_1strategy_1_1npc_1_1_npc_magic_strategy.html#ac8527e6e2bb7ddeea1c7f686eee03960" target="_top" xlink:title=" ">
<ellipse fill="white" stroke="#666666" cx="271.18" cy="-25.81" rx="209.13" ry="25.81"/>
<text xml:space="preserve" text-anchor="start" x="131.3" y="-28.66" font-family="Helvetica,sans-Serif" font-size="12.00">com.runehive.game.world.entity.combat.strategy.npc.</text>
<text xml:space="preserve" text-anchor="middle" x="271.18" y="-14.41" font-family="Helvetica,sans-Serif" font-size="12.00">NpcMagicStrategy.start</text>
</a>
</g>
</g>
<!-- Node16&#45;&gt;Node17 -->
<g id="edge21_Node000016_Node000017" class="edge">
<title>Node16&#45;&gt;Node17</title>
<g id="a_edge21_Node000016_Node000017"><a xlink:title=" ">
<path fill="none" stroke="#63b8ff" d="M604.7,-25.81C563.83,-25.81 521.23,-25.81 480.71,-25.81"/>
<polygon fill="#63b8ff" stroke="#63b8ff" points="604.67,-29.31 614.67,-25.81 604.67,-22.31 604.67,-29.31"/>
</a>
</g>
</g>
<!-- Node18&#45;&gt;Node15 -->
<g id="edge23_Node000018_Node000015" class="edge">
<title>Node18&#45;&gt;Node15</title>
<g id="a_edge23_Node000018_Node000015"><a xlink:title=" ">
<path fill="none" stroke="#63b8ff" d="M580.47,-165.81C555.41,-165.81 529.99,-165.81 505.05,-165.81"/>
<polygon fill="#63b8ff" stroke="#63b8ff" points="580.45,-169.31 590.45,-165.81 580.45,-162.31 580.45,-169.31"/>
</a>
</g>
</g>
<!-- Node19&#45;&gt;Node15 -->
<g id="edge25_Node000019_Node000015" class="edge">
<title>Node19&#45;&gt;Node15</title>
<g id="a_edge25_Node000019_Node000015"><a xlink:title=" ">
<path fill="none" stroke="#63b8ff" d="M658.79,-116.82C585.17,-126.15 499.03,-137.07 426.77,-146.22"/>
<polygon fill="#63b8ff" stroke="#63b8ff" points="659.05,-120.32 668.53,-115.59 658.17,-113.38 659.05,-120.32"/>
</a>
</g>
</g>
</g>
</svg>
