<?xml version="1.0" encoding="UTF-8" standalone="no"?>
<!DOCTYPE svg PUBLIC "-//W3C//DTD SVG 1.1//EN"
 "http://www.w3.org/Graphics/SVG/1.1/DTD/svg11.dtd">
<!-- Generated by graphviz version 14.0.1 (20251006.0113)
 -->
<!-- Title: com.runehive.content.tradingpost.TradingPost.displayMostRecentListings Pages: 1 -->
<!--zoomable 658 -->

<svg id="main" version="1.1" xmlns="http://www.w3.org/2000/svg" xmlns:xlink="http://www.w3.org/1999/xlink" xml:space="preserve" onload="init(evt)">

<style type="text/css"><![CDATA[
.node, .edge {opacity: 0.7;}
.node.selected, .edge.selected {opacity: 1;}
.edge:hover path { stroke: red; }
.edge:hover polygon { stroke: red; fill: red; }
]]></style>

<defs>
  <circle id="rim" cx="0" cy="0" r="7"/>
  <circle id="rim2" cx="0" cy="0" r="3.5"/>
  <g id="zoomPlus">
    <use xlink:href="#rim" fill="#404040"><set attributeName="fill" to="#808080" begin="zoomplus.mouseover" end="zoomplus.mouseout"/></use>
    <path d="M-4,0h8M0,-4v8" fill="none" stroke="white" stroke-width="1.5" pointer-events="none"/>
  </g>
  <g id="zoomMin">
    <use xlink:href="#rim" fill="#404040"><set attributeName="fill" to="#808080" begin="zoomminus.mouseover" end="zoomminus.mouseout"/></use>
    <path d="M-4,0h8" fill="none" stroke="white" stroke-width="1.5" pointer-events="none"/>
  </g>
  <g id="arrowUp" transform="translate(30 24)">
    <use xlink:href="#rim"/>
    <path pointer-events="none" fill="none" stroke="white" stroke-width="1.5" d="M0,-3.0v7 M-2.5,-0.5L0,-3.0L2.5,-0.5"/>
  </g>
  <g id="arrowRight" transform="rotate(90) translate(36 -43)">
    <use xlink:href="#rim"/>
    <path pointer-events="none" fill="none" stroke="white" stroke-width="1.5" d="M0,-3.0v7 M-2.5,-0.5L0,-3.0L2.5,-0.5"/>
  </g>
  <g id="arrowDown" transform="rotate(180) translate(-30 -48)">
    <use xlink:href="#rim"/>
    <path pointer-events="none" fill="none" stroke="white" stroke-width="1.5" d="M0,-3.0v7 M-2.5,-0.5L0,-3.0L2.5,-0.5"/>
  </g>
  <g id="arrowLeft" transform="rotate(270) translate(-36 17)">
    <use xlink:href="#rim"/>
    <path pointer-events="none" fill="none" stroke="white" stroke-width="1.5" d="M0,-3.0v7 M-2.5,-0.5L0,-3.0L2.5,-0.5"/>
  </g>
  <g id="resetDef">
    <use xlink:href="#rim2" fill="#404040"><set attributeName="fill" to="#808080" begin="reset.mouseover" end="reset.mouseout"/></use>
  </g>
</defs>
<script type="application/ecmascript">
var viewWidth = 2082;
var viewHeight = 658;
var sectionId = 'dynsection-17';
</script>
<script type="application/ecmascript" xlink:href="svg.min.js"/>
<svg id="graph" class="graph">
<g id="viewport">
<title>com.runehive.content.tradingpost.TradingPost.displayMostRecentListings</title>
<!-- Node1 -->
<g id="Node000001" class="node">
<title>Node1</title>
<g id="a_Node000001"><a xlink:title=" ">
<ellipse fill="#999999" stroke="#666666" cx="160.34" cy="-553.81" rx="160.34" ry="25.81"/>
<text xml:space="preserve" text-anchor="start" x="54.96" y="-556.66" font-family="Helvetica,sans-Serif" font-size="12.00">com.runehive.content.tradingpost.</text>
<text xml:space="preserve" text-anchor="middle" x="160.34" y="-542.41" font-family="Helvetica,sans-Serif" font-size="12.00">TradingPost.displayMostRecentListings</text>
</a>
</g>
</g>
<!-- Node2 -->
<g id="Node000002" class="node">
<title>Node2</title>
<g id="a_Node000002"><a xlink:href="classcom_1_1runehive_1_1content_1_1tradingpost_1_1_trading_post.html#a092d89dc8146869a5890cb8a8ea7e602" target="_top" xlink:title=" ">
<ellipse fill="white" stroke="#666666" cx="528.68" cy="-553.81" rx="172" ry="35.89"/>
<text xml:space="preserve" text-anchor="start" x="415.05" y="-563.78" font-family="Helvetica,sans-Serif" font-size="12.00">com.runehive.content.tradingpost.</text>
<text xml:space="preserve" text-anchor="start" x="415.05" y="-549.53" font-family="Helvetica,sans-Serif" font-size="12.00">TradingPost.addSearchResultsAndUpdate</text>
<text xml:space="preserve" text-anchor="middle" x="528.68" y="-535.28" font-family="Helvetica,sans-Serif" font-size="12.00">Interface</text>
</a>
</g>
</g>
<!-- Node1&#45;&gt;Node2 -->
<g id="edge1_Node000001_Node000002" class="edge">
<title>Node1&#45;&gt;Node2</title>
<g id="a_edge1_Node000001_Node000002"><a xlink:title=" ">
<path fill="none" stroke="#63b8ff" d="M320.95,-553.81C328.95,-553.81 337,-553.81 345.06,-553.81"/>
<polygon fill="#63b8ff" stroke="#63b8ff" points="344.92,-557.31 354.92,-553.81 344.92,-550.31 344.92,-557.31"/>
</a>
</g>
</g>
<!-- Node3 -->
<g id="Node000003" class="node">
<title>Node3</title>
<g id="a_Node000003"><a xlink:href="classcom_1_1runehive_1_1content_1_1tradingpost_1_1_trading_post.html#a5d25d21f5529550f45274c2ab91a2c5e" target="_top" xlink:title=" ">
<ellipse fill="white" stroke="#666666" cx="899.14" cy="-623.81" rx="138.06" ry="25.81"/>
<text xml:space="preserve" text-anchor="start" x="809.51" y="-626.66" font-family="Helvetica,sans-Serif" font-size="12.00">com.runehive.content.tradingpost.</text>
<text xml:space="preserve" text-anchor="middle" x="899.14" y="-612.41" font-family="Helvetica,sans-Serif" font-size="12.00">TradingPost.getPageListings</text>
</a>
</g>
</g>
<!-- Node2&#45;&gt;Node3 -->
<g id="edge2_Node000002_Node000003" class="edge">
<title>Node2&#45;&gt;Node3</title>
<g id="a_edge2_Node000002_Node000003"><a xlink:title=" ">
<path fill="none" stroke="#63b8ff" d="M657.25,-578.05C700.4,-586.24 748.13,-595.31 789.65,-603.2"/>
<polygon fill="#63b8ff" stroke="#63b8ff" points="788.94,-606.63 799.42,-605.05 790.24,-599.75 788.94,-606.63"/>
</a>
</g>
</g>
<!-- Node4 -->
<g id="Node000004" class="node">
<title>Node4</title>
<g id="a_Node000004"><a xlink:href="classcom_1_1runehive_1_1content_1_1tradingpost_1_1_trading_post.html#ad990a07f12ccac6f476679c83d2b6f32" target="_top" xlink:title=" ">
<ellipse fill="white" stroke="#666666" cx="899.14" cy="-553.81" rx="138.06" ry="25.81"/>
<text xml:space="preserve" text-anchor="start" x="809.51" y="-556.66" font-family="Helvetica,sans-Serif" font-size="12.00">com.runehive.content.tradingpost.</text>
<text xml:space="preserve" text-anchor="middle" x="899.14" y="-542.41" font-family="Helvetica,sans-Serif" font-size="12.00">TradingPost.getSearchResults</text>
</a>
</g>
</g>
<!-- Node2&#45;&gt;Node4 -->
<g id="edge3_Node000002_Node000004" class="edge">
<title>Node2&#45;&gt;Node4</title>
<g id="a_edge3_Node000002_Node000004"><a xlink:title=" ">
<path fill="none" stroke="#63b8ff" d="M700.96,-553.81C717.07,-553.81 733.31,-553.81 749.18,-553.81"/>
<polygon fill="#63b8ff" stroke="#63b8ff" points="749.16,-557.31 759.16,-553.81 749.16,-550.31 749.16,-557.31"/>
</a>
</g>
</g>
<!-- Node8 -->
<g id="Node000008" class="node">
<title>Node8</title>
<g id="a_Node000008"><a xlink:href="classcom_1_1runehive_1_1content_1_1tradingpost_1_1_trading_post.html#ade08bc65b323ceb29793b90b647771a2" target="_top" xlink:title=" ">
<ellipse fill="white" stroke="#666666" cx="899.14" cy="-340.81" rx="162.46" ry="25.81"/>
<text xml:space="preserve" text-anchor="start" x="792.26" y="-343.66" font-family="Helvetica,sans-Serif" font-size="12.00">com.runehive.content.tradingpost.</text>
<text xml:space="preserve" text-anchor="middle" x="899.14" y="-329.41" font-family="Helvetica,sans-Serif" font-size="12.00">TradingPost.updateBuyingPageWidgets</text>
</a>
</g>
</g>
<!-- Node2&#45;&gt;Node8 -->
<g id="edge7_Node000002_Node000008" class="edge">
<title>Node2&#45;&gt;Node8</title>
<g id="a_edge7_Node000002_Node000008"><a xlink:title=" ">
<path fill="none" stroke="#63b8ff" d="M588.47,-519.82C659.15,-478.96 776.75,-410.98 844.87,-371.6"/>
<polygon fill="#63b8ff" stroke="#63b8ff" points="846.34,-374.8 853.25,-366.76 842.84,-368.74 846.34,-374.8"/>
</a>
</g>
</g>
<!-- Node5 -->
<g id="Node000005" class="node">
<title>Node5</title>
<g id="a_Node000005"><a xlink:href="classcom_1_1runehive_1_1game_1_1world_1_1items_1_1_item_definition.html#a50e4924075ee157cd3f75a8107a595fa" target="_top" xlink:title="Gets an item definition.">
<ellipse fill="white" stroke="#666666" cx="1640.06" cy="-499.81" rx="132.76" ry="25.81"/>
<text xml:space="preserve" text-anchor="start" x="1554.19" y="-502.66" font-family="Helvetica,sans-Serif" font-size="12.00">com.runehive.game.world.items.</text>
<text xml:space="preserve" text-anchor="middle" x="1640.06" y="-488.41" font-family="Helvetica,sans-Serif" font-size="12.00">ItemDefinition.get</text>
</a>
</g>
</g>
<!-- Node4&#45;&gt;Node5 -->
<g id="edge4_Node000004_Node000005" class="edge">
<title>Node4&#45;&gt;Node5</title>
<g id="a_edge4_Node000004_Node000005"><a xlink:title=" ">
<path fill="none" stroke="#63b8ff" d="M991.12,-573.38C1024.44,-579.63 1062.57,-585.73 1097.6,-588.81 1263.05,-603.36 1310.13,-628.92 1471.3,-588.81 1515.95,-577.7 1561.78,-552.25 1594.23,-531.4"/>
<polygon fill="#63b8ff" stroke="#63b8ff" points="1596.14,-534.33 1602.59,-525.93 1592.3,-528.48 1596.14,-534.33"/>
</a>
</g>
</g>
<!-- Node7 -->
<g id="Node000007" class="node">
<title>Node7</title>
<g id="a_Node000007"><a xlink:href="classcom_1_1runehive_1_1game_1_1world_1_1items_1_1_item_definition.html#aa9479e24430ebdd5855705e1177346b4" target="_top" xlink:title="Gets the item name.">
<ellipse fill="white" stroke="#666666" cx="1284.45" cy="-553.81" rx="132.76" ry="25.81"/>
<text xml:space="preserve" text-anchor="start" x="1198.57" y="-556.66" font-family="Helvetica,sans-Serif" font-size="12.00">com.runehive.game.world.items.</text>
<text xml:space="preserve" text-anchor="middle" x="1284.45" y="-542.41" font-family="Helvetica,sans-Serif" font-size="12.00">ItemDefinition.getName</text>
</a>
</g>
</g>
<!-- Node4&#45;&gt;Node7 -->
<g id="edge6_Node000004_Node000007" class="edge">
<title>Node4&#45;&gt;Node7</title>
<g id="a_edge6_Node000004_Node000007"><a xlink:title=" ">
<path fill="none" stroke="#63b8ff" d="M1037.44,-553.81C1070.73,-553.81 1106.41,-553.81 1139.98,-553.81"/>
<polygon fill="#63b8ff" stroke="#63b8ff" points="1139.76,-557.31 1149.76,-553.81 1139.76,-550.31 1139.76,-557.31"/>
</a>
</g>
</g>
<!-- Node6 -->
<g id="Node000006" class="node">
<title>Node6</title>
<g id="a_Node000006"><a xlink:href="classcom_1_1runehive_1_1game_1_1world_1_1items_1_1_item_definition.html#a4fafaf641c0490165d697a73006e76bf" target="_top" xlink:title=" ">
<ellipse fill="white" stroke="#666666" cx="1941.58" cy="-499.81" rx="132.76" ry="25.81"/>
<text xml:space="preserve" text-anchor="start" x="1855.7" y="-502.66" font-family="Helvetica,sans-Serif" font-size="12.00">com.runehive.game.world.items.</text>
<text xml:space="preserve" text-anchor="middle" x="1941.58" y="-488.41" font-family="Helvetica,sans-Serif" font-size="12.00">ItemDefinition.ItemDefinition</text>
</a>
</g>
</g>
<!-- Node5&#45;&gt;Node6 -->
<g id="edge5_Node000005_Node000006" class="edge">
<title>Node5&#45;&gt;Node6</title>
<g id="a_edge5_Node000005_Node000006"><a xlink:title=" ">
<path fill="none" stroke="#63b8ff" d="M1773.31,-499.81C1781.29,-499.81 1789.35,-499.81 1797.38,-499.81"/>
<polygon fill="#63b8ff" stroke="#63b8ff" points="1797.2,-503.31 1807.2,-499.81 1797.2,-496.31 1797.2,-503.31"/>
</a>
</g>
</g>
<!-- Node8&#45;&gt;Node5 -->
<g id="edge9_Node000008_Node000005" class="edge">
<title>Node8&#45;&gt;Node5</title>
<g id="a_edge9_Node000008_Node000005"><a xlink:title=" ">
<path fill="none" stroke="#63b8ff" d="M925.71,-366.63C960.86,-400.16 1027.73,-457.2 1097.6,-480.81 1168.78,-504.87 1361.99,-506.3 1497.2,-503.97"/>
<polygon fill="#63b8ff" stroke="#63b8ff" points="1497.01,-507.48 1506.95,-503.8 1496.89,-500.48 1497.01,-507.48"/>
</a>
</g>
</g>
<!-- Node8&#45;&gt;Node7 -->
<g id="edge15_Node000008_Node000007" class="edge">
<title>Node8&#45;&gt;Node7</title>
<g id="a_edge15_Node000008_Node000007"><a xlink:title=" ">
<path fill="none" stroke="#63b8ff" d="M921.79,-366.8C955.32,-405.23 1023.68,-476.66 1097.6,-513.81 1117.4,-523.76 1139.6,-531.25 1161.58,-536.87"/>
<polygon fill="#63b8ff" stroke="#63b8ff" points="1160.68,-540.25 1171.22,-539.21 1162.33,-533.45 1160.68,-540.25"/>
</a>
</g>
</g>
<!-- Node9 -->
<g id="Node000009" class="node">
<title>Node9</title>
<g id="a_Node000009"><a xlink:href="classcom_1_1runehive_1_1util_1_1_utility.html#a490026d68b72e2dea391680a7d49a844" target="_top" xlink:title="Formats digits for integers.">
<ellipse fill="white" stroke="#666666" cx="1284.45" cy="-445.81" rx="123.74" ry="25.81"/>
<text xml:space="preserve" text-anchor="start" x="1204.95" y="-448.66" font-family="Helvetica,sans-Serif" font-size="12.00">com.runehive.util.Utility.format</text>
<text xml:space="preserve" text-anchor="middle" x="1284.45" y="-434.41" font-family="Helvetica,sans-Serif" font-size="12.00">Digits</text>
</a>
</g>
</g>
<!-- Node8&#45;&gt;Node9 -->
<g id="edge8_Node000008_Node000009" class="edge">
<title>Node8&#45;&gt;Node9</title>
<g id="a_edge8_Node000008_Node000009"><a xlink:title=" ">
<path fill="none" stroke="#63b8ff" d="M960.74,-365.04C999.42,-379.81 1050.89,-398.21 1097.6,-410.81 1122.03,-417.4 1148.61,-423.2 1173.82,-428.08"/>
<polygon fill="#63b8ff" stroke="#63b8ff" points="1172.94,-431.47 1183.42,-429.9 1174.25,-424.6 1172.94,-431.47"/>
</a>
</g>
</g>
<!-- Node10 -->
<g id="Node000010" class="node">
<title>Node10</title>
<g id="a_Node000010"><a xlink:href="classcom_1_1runehive_1_1content_1_1tradingpost_1_1_trading_post_listing.html#a1da368379fb26a922aa566bb0d0f47e1" target="_top" xlink:title=" ">
<ellipse fill="white" stroke="#666666" cx="1284.45" cy="-375.81" rx="138.59" ry="25.81"/>
<text xml:space="preserve" text-anchor="start" x="1194.45" y="-378.66" font-family="Helvetica,sans-Serif" font-size="12.00">com.runehive.content.tradingpost.</text>
<text xml:space="preserve" text-anchor="middle" x="1284.45" y="-364.41" font-family="Helvetica,sans-Serif" font-size="12.00">TradingPostListing.getAmountLeft</text>
</a>
</g>
</g>
<!-- Node8&#45;&gt;Node10 -->
<g id="edge10_Node000008_Node000010" class="edge">
<title>Node8&#45;&gt;Node10</title>
<g id="a_edge10_Node000008_Node000010"><a xlink:title=" ">
<path fill="none" stroke="#63b8ff" d="M1040.96,-353.67C1075.94,-356.86 1113.35,-360.28 1148.06,-363.45"/>
<polygon fill="#63b8ff" stroke="#63b8ff" points="1147.45,-366.91 1157.72,-364.33 1148.08,-359.93 1147.45,-366.91"/>
</a>
</g>
</g>
<!-- Node11 -->
<g id="Node000011" class="node">
<title>Node11</title>
<g id="a_Node000011"><a xlink:href="classcom_1_1runehive_1_1content_1_1tradingpost_1_1_trading_post.html#a10e1c838e60e7ab86ea26d19bb66cd51" target="_top" xlink:title=" ">
<ellipse fill="white" stroke="#666666" cx="1284.45" cy="-305.81" rx="178.9" ry="25.81"/>
<text xml:space="preserve" text-anchor="start" x="1165.95" y="-308.66" font-family="Helvetica,sans-Serif" font-size="12.00">com.runehive.content.tradingpost.</text>
<text xml:space="preserve" text-anchor="middle" x="1284.45" y="-294.41" font-family="Helvetica,sans-Serif" font-size="12.00">TradingPost.getItemArrayFromActiveListings</text>
</a>
</g>
</g>
<!-- Node8&#45;&gt;Node11 -->
<g id="edge11_Node000008_Node000011" class="edge">
<title>Node8&#45;&gt;Node11</title>
<g id="a_edge11_Node000008_Node000011"><a xlink:title=" ">
<path fill="none" stroke="#63b8ff" d="M1040.96,-327.95C1066.94,-325.58 1094.26,-323.08 1120.81,-320.66"/>
<polygon fill="#63b8ff" stroke="#63b8ff" points="1120.99,-324.16 1130.63,-319.76 1120.36,-317.19 1120.99,-324.16"/>
</a>
</g>
</g>
<!-- Node13 -->
<g id="Node000013" class="node">
<title>Node13</title>
<g id="a_Node000013"><a xlink:href="classcom_1_1runehive_1_1content_1_1tradingpost_1_1_trading_post_listing.html#aabefa78a76c6fd5a1fadad0e68816391" target="_top" xlink:title=" ">
<ellipse fill="white" stroke="#666666" cx="1284.45" cy="-235.81" rx="138.06" ry="25.81"/>
<text xml:space="preserve" text-anchor="start" x="1194.82" y="-238.66" font-family="Helvetica,sans-Serif" font-size="12.00">com.runehive.content.tradingpost.</text>
<text xml:space="preserve" text-anchor="middle" x="1284.45" y="-224.41" font-family="Helvetica,sans-Serif" font-size="12.00">TradingPostListing.getItemId</text>
</a>
</g>
</g>
<!-- Node8&#45;&gt;Node13 -->
<g id="edge14_Node000008_Node000013" class="edge">
<title>Node8&#45;&gt;Node13</title>
<g id="a_edge14_Node000008_Node000013"><a xlink:title=" ">
<path fill="none" stroke="#63b8ff" d="M960.74,-316.58C999.42,-301.81 1050.89,-283.4 1097.6,-270.81 1120.04,-264.76 1144.28,-259.38 1167.61,-254.76"/>
<polygon fill="#63b8ff" stroke="#63b8ff" points="1167.98,-258.25 1177.13,-252.91 1166.64,-251.38 1167.98,-258.25"/>
</a>
</g>
</g>
<!-- Node14 -->
<g id="Node000014" class="node">
<title>Node14</title>
<g id="a_Node000014"><a xlink:href="classcom_1_1runehive_1_1content_1_1tradingpost_1_1_trading_post_listing.html#a21f52cf795b5f9c154da3352a04716ff" target="_top" xlink:title=" ">
<ellipse fill="white" stroke="#666666" cx="1284.45" cy="-165.81" rx="138.06" ry="25.81"/>
<text xml:space="preserve" text-anchor="start" x="1194.82" y="-168.66" font-family="Helvetica,sans-Serif" font-size="12.00">com.runehive.content.tradingpost.</text>
<text xml:space="preserve" text-anchor="middle" x="1284.45" y="-154.41" font-family="Helvetica,sans-Serif" font-size="12.00">TradingPostListing.getPrice</text>
</a>
</g>
</g>
<!-- Node8&#45;&gt;Node14 -->
<g id="edge16_Node000008_Node000014" class="edge">
<title>Node8&#45;&gt;Node14</title>
<g id="a_edge16_Node000008_Node000014"><a xlink:title=" ">
<path fill="none" stroke="#63b8ff" d="M927.84,-315.16C964.03,-283.17 1030.68,-229.22 1097.6,-200.81 1115.96,-193.02 1136.07,-186.95 1156.07,-182.23"/>
<polygon fill="#63b8ff" stroke="#63b8ff" points="1156.69,-185.68 1165.68,-180.08 1155.15,-178.85 1156.69,-185.68"/>
</a>
</g>
</g>
<!-- Node15 -->
<g id="Node000015" class="node">
<title>Node15</title>
<g id="a_Node000015"><a xlink:href="classcom_1_1runehive_1_1content_1_1tradingpost_1_1_trading_post_listing.html#ace279895b1d1ce0a47e86a05f1325e0b" target="_top" xlink:title=" ">
<ellipse fill="white" stroke="#666666" cx="1284.45" cy="-95.81" rx="138.06" ry="25.81"/>
<text xml:space="preserve" text-anchor="start" x="1194.82" y="-98.66" font-family="Helvetica,sans-Serif" font-size="12.00">com.runehive.content.tradingpost.</text>
<text xml:space="preserve" text-anchor="middle" x="1284.45" y="-84.41" font-family="Helvetica,sans-Serif" font-size="12.00">TradingPostListing.getSeller</text>
</a>
</g>
</g>
<!-- Node8&#45;&gt;Node15 -->
<g id="edge17_Node000008_Node000015" class="edge">
<title>Node8&#45;&gt;Node15</title>
<g id="a_edge17_Node000008_Node000015"><a xlink:title=" ">
<path fill="none" stroke="#63b8ff" d="M916.35,-314.88C946.19,-269.55 1014.42,-176.37 1097.6,-130.81 1113.65,-122.02 1131.52,-115.39 1149.66,-110.41"/>
<polygon fill="#63b8ff" stroke="#63b8ff" points="1150.39,-113.84 1159.2,-107.97 1148.65,-107.06 1150.39,-113.84"/>
</a>
</g>
</g>
<!-- Node16 -->
<g id="Node000016" class="node">
<title>Node16</title>
<g id="a_Node000016"><a xlink:href="classcom_1_1runehive_1_1content_1_1tradingpost_1_1_trading_post.html#ae42aadd47e3438637121a8d9305e7ebb" target="_top" xlink:title=" ">
<ellipse fill="white" stroke="#666666" cx="1284.45" cy="-25.81" rx="186.85" ry="25.81"/>
<text xml:space="preserve" text-anchor="start" x="1160.32" y="-28.66" font-family="Helvetica,sans-Serif" font-size="12.00">com.runehive.content.tradingpost.</text>
<text xml:space="preserve" text-anchor="middle" x="1284.45" y="-14.41" font-family="Helvetica,sans-Serif" font-size="12.00">TradingPost.toggleBuyingPageWidgetVisibility</text>
</a>
</g>
</g>
<!-- Node8&#45;&gt;Node16 -->
<g id="edge18_Node000008_Node000016" class="edge">
<title>Node8&#45;&gt;Node16</title>
<g id="a_edge18_Node000008_Node000016"><a xlink:title=" ">
<path fill="none" stroke="#63b8ff" d="M910.34,-314.87C933.94,-258.51 998.03,-124.82 1097.6,-60.81 1106.62,-55.01 1116.36,-50.12 1126.49,-46.01"/>
<polygon fill="#63b8ff" stroke="#63b8ff" points="1127.63,-49.32 1135.76,-42.52 1125.17,-42.76 1127.63,-49.32"/>
</a>
</g>
</g>
<!-- Node11&#45;&gt;Node5 -->
<g id="edge12_Node000011_Node000005" class="edge">
<title>Node11&#45;&gt;Node5</title>
<g id="a_edge12_Node000011_Node000005"><a xlink:title=" ">
<path fill="none" stroke="#63b8ff" d="M1422.94,-322.4C1439.72,-327.1 1456.24,-333.12 1471.3,-340.81 1530.1,-370.85 1582.63,-427.97 1612.65,-464.94"/>
<polygon fill="#63b8ff" stroke="#63b8ff" points="1609.86,-467.06 1618.84,-472.69 1615.33,-462.7 1609.86,-467.06"/>
</a>
</g>
</g>
<!-- Node12 -->
<g id="Node000012" class="node">
<title>Node12</title>
<g id="a_Node000012"><a xlink:href="classcom_1_1runehive_1_1game_1_1world_1_1items_1_1_item_definition.html#a02ac54bf30eac3ffea93fd35b2db8f03" target="_top" xlink:title="Gets the item note state.">
<ellipse fill="white" stroke="#666666" cx="1640.06" cy="-305.81" rx="132.76" ry="25.81"/>
<text xml:space="preserve" text-anchor="start" x="1554.19" y="-308.66" font-family="Helvetica,sans-Serif" font-size="12.00">com.runehive.game.world.items.</text>
<text xml:space="preserve" text-anchor="middle" x="1640.06" y="-294.41" font-family="Helvetica,sans-Serif" font-size="12.00">ItemDefinition.isNoted</text>
</a>
</g>
</g>
<!-- Node11&#45;&gt;Node12 -->
<g id="edge13_Node000011_Node000012" class="edge">
<title>Node11&#45;&gt;Node12</title>
<g id="a_edge13_Node000011_Node000012"><a xlink:title=" ">
<path fill="none" stroke="#63b8ff" d="M1463.81,-305.81C1474.52,-305.81 1485.23,-305.81 1495.77,-305.81"/>
<polygon fill="#63b8ff" stroke="#63b8ff" points="1495.63,-309.31 1505.63,-305.81 1495.63,-302.31 1495.63,-309.31"/>
</a>
</g>
</g>
</g>
</svg>

<g id="navigator" transform="translate(0 0)" fill="#404254">
  <rect fill="#f2f5e9" fill-opacity="0.5" stroke="#606060" stroke-width=".5" x="0" y="0" width="60" height="60"/>
  <use id="zoomplus" xlink:href="#zoomPlus" x="17" y="9" onmousedown="handleZoom(evt,'in')"/>
  <use id="zoomminus" xlink:href="#zoomMin" x="42" y="9" onmousedown="handleZoom(evt,'out')"/>
  <use id="reset" xlink:href="#resetDef" x="30" y="36" onmousedown="handleReset()"/>
   <use id="arrowup" xlink:href="#arrowUp" x="0" y="0" onmousedown="handlePan(0,-1)"/>
  <use id="arrowright" xlink:href="#arrowRight" x="0" y="0" onmousedown="handlePan(1,0)"/>
  <use id="arrowdown" xlink:href="#arrowDown" x="0" y="0" onmousedown="handlePan(0,1)"/>
  <use id="arrowleft" xlink:href="#arrowLeft" x="0" y="0" onmousedown="handlePan(-1,0)"/>
</g>
<svg viewBox="0 0 15 15" width="100%" height="30px" preserveAspectRatio="xMaxYMin meet">
 <g id="arrow_out" transform="scale(0.3 0.3)">
  <a xlink:href="classcom_1_1runehive_1_1content_1_1tradingpost_1_1_trading_post_a10d70e673061289a3d56504bf845d201_cgraph_org.svg" target="_base">
   <rect id="button" ry="5" rx="5" y="6" x="6" height="38" width="38"
        fill="#f2f5e9" fill-opacity="0.5" stroke="#606060" stroke-width="1.0"/>
   <path id="arrow"
     d="M 11.500037,31.436501 C 11.940474,20.09759 22.043105,11.32322 32.158766,21.979434 L 37.068811,17.246167 C 37.068811,17.246167 37.088388,32 37.088388,32 L 22.160133,31.978069 C 22.160133,31.978069 26.997745,27.140456 26.997745,27.140456 C 18.528582,18.264221 13.291696,25.230495 11.500037,31.436501 z"
     style="fill:#404040;"/>
  </a>
 </g>
</svg>

<style type='text/css'>
<![CDATA[
[data-mouse-over-selected='false'] { opacity: 0.7; }
[data-mouse-over-selected='true']  { opacity: 1.0; }
]]>
</style>
<script type="application/ecmascript"><![CDATA[
document.addEventListener('DOMContentLoaded', (event) => {
  highlightEdges();
  highlightAdjacentNodes();
});
]]></script>
</svg>
