<?xml version="1.0" encoding="UTF-8" standalone="no"?>
<!DOCTYPE svg PUBLIC "-//W3C//DTD SVG 1.1//EN"
 "http://www.w3.org/Graphics/SVG/1.1/DTD/svg11.dtd">
<!-- Generated by graphviz version 14.0.1 (20251006.0113)
 -->
<!-- Title: com.runehive.util.MutableNumber.intValue Pages: 1 -->
<!--zoomable 430 -->

<svg id="main" version="1.1" xmlns="http://www.w3.org/2000/svg" xmlns:xlink="http://www.w3.org/1999/xlink" xml:space="preserve" onload="init(evt)">

<style type="text/css"><![CDATA[
.node, .edge {opacity: 0.7;}
.node.selected, .edge.selected {opacity: 1;}
.edge:hover path { stroke: red; }
.edge:hover polygon { stroke: red; fill: red; }
]]></style>

<defs>
  <circle id="rim" cx="0" cy="0" r="7"/>
  <circle id="rim2" cx="0" cy="0" r="3.5"/>
  <g id="zoomPlus">
    <use xlink:href="#rim" fill="#404040"><set attributeName="fill" to="#808080" begin="zoomplus.mouseover" end="zoomplus.mouseout"/></use>
    <path d="M-4,0h8M0,-4v8" fill="none" stroke="white" stroke-width="1.5" pointer-events="none"/>
  </g>
  <g id="zoomMin">
    <use xlink:href="#rim" fill="#404040"><set attributeName="fill" to="#808080" begin="zoomminus.mouseover" end="zoomminus.mouseout"/></use>
    <path d="M-4,0h8" fill="none" stroke="white" stroke-width="1.5" pointer-events="none"/>
  </g>
  <g id="arrowUp" transform="translate(30 24)">
    <use xlink:href="#rim"/>
    <path pointer-events="none" fill="none" stroke="white" stroke-width="1.5" d="M0,-3.0v7 M-2.5,-0.5L0,-3.0L2.5,-0.5"/>
  </g>
  <g id="arrowRight" transform="rotate(90) translate(36 -43)">
    <use xlink:href="#rim"/>
    <path pointer-events="none" fill="none" stroke="white" stroke-width="1.5" d="M0,-3.0v7 M-2.5,-0.5L0,-3.0L2.5,-0.5"/>
  </g>
  <g id="arrowDown" transform="rotate(180) translate(-30 -48)">
    <use xlink:href="#rim"/>
    <path pointer-events="none" fill="none" stroke="white" stroke-width="1.5" d="M0,-3.0v7 M-2.5,-0.5L0,-3.0L2.5,-0.5"/>
  </g>
  <g id="arrowLeft" transform="rotate(270) translate(-36 17)">
    <use xlink:href="#rim"/>
    <path pointer-events="none" fill="none" stroke="white" stroke-width="1.5" d="M0,-3.0v7 M-2.5,-0.5L0,-3.0L2.5,-0.5"/>
  </g>
  <g id="resetDef">
    <use xlink:href="#rim2" fill="#404040"><set attributeName="fill" to="#808080" begin="reset.mouseover" end="reset.mouseout"/></use>
  </g>
</defs>
<script type="application/ecmascript">
var viewWidth = 933;
var viewHeight = 430;
var sectionId = 'dynsection-21';
</script>
<script type="application/ecmascript" xlink:href="svg.min.js"/>
<svg id="graph" class="graph">
<g id="viewport">
<title>com.runehive.util.MutableNumber.intValue</title>
<!-- Node1 -->
<g id="Node000001" class="node">
<title>Node1</title>
<g id="a_Node000001"><a xlink:title=" ">
<ellipse fill="#999999" stroke="#666666" cx="816.94" cy="-201.81" rx="107.83" ry="25.81"/>
<text xml:space="preserve" text-anchor="start" x="748.69" y="-204.66" font-family="Helvetica,sans-Serif" font-size="12.00">com.runehive.util.Mutable</text>
<text xml:space="preserve" text-anchor="middle" x="816.94" y="-190.41" font-family="Helvetica,sans-Serif" font-size="12.00">Number.intValue</text>
</a>
</g>
</g>
<!-- Node2 -->
<g id="Node000002" class="node">
<title>Node2</title>
<g id="a_Node000002"><a xlink:href="classcom_1_1runehive_1_1content_1_1bot_1_1botclass_1_1impl_1_1_a_g_s_rune_melee.html#a55d0672cac4ec1d8f6cd327dc5882c89" target="_top" xlink:title=" ">
<ellipse fill="white" stroke="#666666" cx="513.83" cy="-377.81" rx="159.28" ry="25.81"/>
<text xml:space="preserve" text-anchor="start" x="409.2" y="-380.66" font-family="Helvetica,sans-Serif" font-size="12.00">com.runehive.content.bot.botclass.impl.</text>
<text xml:space="preserve" text-anchor="middle" x="513.83" y="-366.41" font-family="Helvetica,sans-Serif" font-size="12.00">AGSRuneMelee.hit</text>
</a>
</g>
</g>
<!-- Node1&#45;&gt;Node2 -->
<g id="edge1_Node000001_Node000002" class="edge">
<title>Node1&#45;&gt;Node2</title>
<g id="a_edge1_Node000001_Node000002"><a xlink:title=" ">
<path fill="none" stroke="#63b8ff" d="M790.49,-236.33C764.61,-268.87 721.5,-316.48 673.1,-342.81 660.13,-349.87 645.81,-355.51 631.26,-360.01"/>
<polygon fill="#63b8ff" stroke="#63b8ff" points="793,-238.81 796.4,-228.77 787.48,-234.5 793,-238.81"/>
</a>
</g>
</g>
<!-- Node4 -->
<g id="Node000004" class="node">
<title>Node4</title>
<g id="a_Node000004"><a xlink:href="classcom_1_1runehive_1_1content_1_1bot_1_1botclass_1_1impl_1_1_pure_melee.html#ae60e5a340840955b68f7c967444b8f8a" target="_top" xlink:title=" ">
<ellipse fill="white" stroke="#666666" cx="513.83" cy="-289.81" rx="159.28" ry="25.81"/>
<text xml:space="preserve" text-anchor="start" x="409.2" y="-292.66" font-family="Helvetica,sans-Serif" font-size="12.00">com.runehive.content.bot.botclass.impl.</text>
<text xml:space="preserve" text-anchor="middle" x="513.83" y="-278.41" font-family="Helvetica,sans-Serif" font-size="12.00">PureMelee.hit</text>
</a>
</g>
</g>
<!-- Node1&#45;&gt;Node4 -->
<g id="edge4_Node000001_Node000004" class="edge">
<title>Node1&#45;&gt;Node4</title>
<g id="a_edge4_Node000001_Node000004"><a xlink:title=" ">
<path fill="none" stroke="#63b8ff" d="M750.47,-228.26C726.39,-237.41 698.74,-247.26 673.1,-254.81 654.75,-260.22 634.97,-265.22 615.83,-269.65"/>
<polygon fill="#63b8ff" stroke="#63b8ff" points="751.42,-231.64 759.5,-224.79 748.91,-225.11 751.42,-231.64"/>
</a>
</g>
</g>
<!-- Node6 -->
<g id="Node000006" class="node">
<title>Node6</title>
<g id="a_Node000006"><a xlink:href="classcom_1_1runehive_1_1content_1_1bot_1_1botclass_1_1impl_1_1_pure_range_melee.html#aa8d34bdacbb33363dbe158e542549aef" target="_top" xlink:title=" ">
<ellipse fill="white" stroke="#666666" cx="513.83" cy="-201.81" rx="159.28" ry="25.81"/>
<text xml:space="preserve" text-anchor="start" x="409.2" y="-204.66" font-family="Helvetica,sans-Serif" font-size="12.00">com.runehive.content.bot.botclass.impl.</text>
<text xml:space="preserve" text-anchor="middle" x="513.83" y="-190.41" font-family="Helvetica,sans-Serif" font-size="12.00">PureRangeMelee.hit</text>
</a>
</g>
</g>
<!-- Node1&#45;&gt;Node6 -->
<g id="edge7_Node000001_Node000006" class="edge">
<title>Node1&#45;&gt;Node6</title>
<g id="a_edge7_Node000001_Node000006"><a xlink:title=" ">
<path fill="none" stroke="#63b8ff" d="M697.42,-201.81C689.5,-201.81 681.45,-201.81 673.37,-201.81"/>
<polygon fill="#63b8ff" stroke="#63b8ff" points="697.42,-205.31 707.42,-201.81 697.42,-198.31 697.42,-205.31"/>
</a>
</g>
</g>
<!-- Node8 -->
<g id="Node000008" class="node">
<title>Node8</title>
<g id="a_Node000008"><a xlink:href="classcom_1_1runehive_1_1content_1_1bot_1_1botclass_1_1impl_1_1_welfare_rune_melee.html#a2b8a31e168f8f9a90b868e89943a5884" target="_top" xlink:title=" ">
<ellipse fill="white" stroke="#666666" cx="513.83" cy="-113.81" rx="159.28" ry="25.81"/>
<text xml:space="preserve" text-anchor="start" x="409.2" y="-116.66" font-family="Helvetica,sans-Serif" font-size="12.00">com.runehive.content.bot.botclass.impl.</text>
<text xml:space="preserve" text-anchor="middle" x="513.83" y="-102.41" font-family="Helvetica,sans-Serif" font-size="12.00">WelfareRuneMelee.hit</text>
</a>
</g>
</g>
<!-- Node1&#45;&gt;Node8 -->
<g id="edge10_Node000001_Node000008" class="edge">
<title>Node1&#45;&gt;Node8</title>
<g id="a_edge10_Node000001_Node000008"><a xlink:title=" ">
<path fill="none" stroke="#63b8ff" d="M736.2,-178.51C691.84,-165.54 636.86,-149.47 592.79,-136.59"/>
<polygon fill="#63b8ff" stroke="#63b8ff" points="735.2,-181.86 745.78,-181.31 737.16,-175.14 735.2,-181.86"/>
</a>
</g>
</g>
<!-- Node10 -->
<g id="Node000010" class="node">
<title>Node10</title>
<g id="a_Node000010"><a xlink:href="classcom_1_1runehive_1_1content_1_1bot_1_1botclass_1_1impl_1_1_zerker_melee.html#a05e712b606f732f98528711005f89ab5" target="_top" xlink:title=" ">
<ellipse fill="white" stroke="#666666" cx="513.83" cy="-25.81" rx="159.28" ry="25.81"/>
<text xml:space="preserve" text-anchor="start" x="409.2" y="-28.66" font-family="Helvetica,sans-Serif" font-size="12.00">com.runehive.content.bot.botclass.impl.</text>
<text xml:space="preserve" text-anchor="middle" x="513.83" y="-14.41" font-family="Helvetica,sans-Serif" font-size="12.00">ZerkerMelee.hit</text>
</a>
</g>
</g>
<!-- Node1&#45;&gt;Node10 -->
<g id="edge13_Node000001_Node000010" class="edge">
<title>Node1&#45;&gt;Node10</title>
<g id="a_edge13_Node000001_Node000010"><a xlink:title=" ">
<path fill="none" stroke="#63b8ff" d="M784.44,-168.23C757.22,-140.89 715.64,-103 673.1,-78.81 650.68,-66.06 624.72,-55.77 600.39,-47.77"/>
<polygon fill="#63b8ff" stroke="#63b8ff" points="781.85,-170.59 791.36,-175.27 786.85,-165.68 781.85,-170.59"/>
</a>
</g>
</g>
<!-- Node2&#45;&gt;Node2 -->
<g id="edge3_Node000002_Node000002" class="edge">
<title>Node2&#45;&gt;Node2</title>
<g id="a_edge3_Node000002_Node000002"><a xlink:title=" ">
<path fill="none" stroke="#63b8ff" d="M565.61,-412.72C557.69,-418.02 540.43,-421.62 513.83,-421.62 471.79,-421.62 453.08,-412.63 457.67,-402.14"/>
<polygon fill="#63b8ff" stroke="#63b8ff" points="568.82,-414.12 569.4,-403.54 562.35,-411.45 568.82,-414.12"/>
</a>
</g>
</g>
<!-- Node3 -->
<g id="Node000003" class="node">
<title>Node3</title>
<g id="a_Node000003"><a xlink:href="classcom_1_1runehive_1_1content_1_1bot_1_1botclass_1_1impl_1_1_a_g_s_rune_melee.html#ae88df71dfcbe7edff62eab775f53aa84" target="_top" xlink:title=" ">
<ellipse fill="white" stroke="#666666" cx="159.28" cy="-377.81" rx="159.28" ry="25.81"/>
<text xml:space="preserve" text-anchor="start" x="54.65" y="-380.66" font-family="Helvetica,sans-Serif" font-size="12.00">com.runehive.content.bot.botclass.impl.</text>
<text xml:space="preserve" text-anchor="middle" x="159.28" y="-366.41" font-family="Helvetica,sans-Serif" font-size="12.00">AGSRuneMelee.block</text>
</a>
</g>
</g>
<!-- Node2&#45;&gt;Node3 -->
<g id="edge2_Node000002_Node000003" class="edge">
<title>Node2&#45;&gt;Node3</title>
<g id="a_edge2_Node000002_Node000003"><a xlink:title=" ">
<path fill="none" stroke="#63b8ff" d="M342.82,-377.81C334.84,-377.81 326.84,-377.81 318.89,-377.81"/>
<polygon fill="#63b8ff" stroke="#63b8ff" points="342.57,-381.31 352.57,-377.81 342.57,-374.31 342.57,-381.31"/>
</a>
</g>
</g>
<!-- Node4&#45;&gt;Node4 -->
<g id="edge6_Node000004_Node000004" class="edge">
<title>Node4&#45;&gt;Node4</title>
<g id="a_edge6_Node000004_Node000004"><a xlink:title=" ">
<path fill="none" stroke="#63b8ff" d="M565.61,-324.72C557.69,-330.02 540.43,-333.62 513.83,-333.62 471.79,-333.62 453.08,-324.63 457.67,-314.14"/>
<polygon fill="#63b8ff" stroke="#63b8ff" points="568.82,-326.12 569.4,-315.54 562.35,-323.45 568.82,-326.12"/>
</a>
</g>
</g>
<!-- Node5 -->
<g id="Node000005" class="node">
<title>Node5</title>
<g id="a_Node000005"><a xlink:href="classcom_1_1runehive_1_1content_1_1bot_1_1botclass_1_1impl_1_1_pure_melee.html#a36224fc0f932bb58cf7e6be2e619939c" target="_top" xlink:title=" ">
<ellipse fill="white" stroke="#666666" cx="159.28" cy="-289.81" rx="159.28" ry="25.81"/>
<text xml:space="preserve" text-anchor="start" x="54.65" y="-292.66" font-family="Helvetica,sans-Serif" font-size="12.00">com.runehive.content.bot.botclass.impl.</text>
<text xml:space="preserve" text-anchor="middle" x="159.28" y="-278.41" font-family="Helvetica,sans-Serif" font-size="12.00">PureMelee.block</text>
</a>
</g>
</g>
<!-- Node4&#45;&gt;Node5 -->
<g id="edge5_Node000004_Node000005" class="edge">
<title>Node4&#45;&gt;Node5</title>
<g id="a_edge5_Node000004_Node000005"><a xlink:title=" ">
<path fill="none" stroke="#63b8ff" d="M342.82,-289.81C334.84,-289.81 326.84,-289.81 318.89,-289.81"/>
<polygon fill="#63b8ff" stroke="#63b8ff" points="342.57,-293.31 352.57,-289.81 342.57,-286.31 342.57,-293.31"/>
</a>
</g>
</g>
<!-- Node6&#45;&gt;Node6 -->
<g id="edge9_Node000006_Node000006" class="edge">
<title>Node6&#45;&gt;Node6</title>
<g id="a_edge9_Node000006_Node000006"><a xlink:title=" ">
<path fill="none" stroke="#63b8ff" d="M565.61,-236.72C557.69,-242.02 540.43,-245.62 513.83,-245.62 471.79,-245.62 453.08,-236.63 457.67,-226.14"/>
<polygon fill="#63b8ff" stroke="#63b8ff" points="568.82,-238.12 569.4,-227.54 562.35,-235.45 568.82,-238.12"/>
</a>
</g>
</g>
<!-- Node7 -->
<g id="Node000007" class="node">
<title>Node7</title>
<g id="a_Node000007"><a xlink:href="classcom_1_1runehive_1_1content_1_1bot_1_1botclass_1_1impl_1_1_pure_range_melee.html#a5fbe79a157d24bf0807ef67ff78725f3" target="_top" xlink:title=" ">
<ellipse fill="white" stroke="#666666" cx="159.28" cy="-201.81" rx="159.28" ry="25.81"/>
<text xml:space="preserve" text-anchor="start" x="54.65" y="-204.66" font-family="Helvetica,sans-Serif" font-size="12.00">com.runehive.content.bot.botclass.impl.</text>
<text xml:space="preserve" text-anchor="middle" x="159.28" y="-190.41" font-family="Helvetica,sans-Serif" font-size="12.00">PureRangeMelee.block</text>
</a>
</g>
</g>
<!-- Node6&#45;&gt;Node7 -->
<g id="edge8_Node000006_Node000007" class="edge">
<title>Node6&#45;&gt;Node7</title>
<g id="a_edge8_Node000006_Node000007"><a xlink:title=" ">
<path fill="none" stroke="#63b8ff" d="M342.82,-201.81C334.84,-201.81 326.84,-201.81 318.89,-201.81"/>
<polygon fill="#63b8ff" stroke="#63b8ff" points="342.57,-205.31 352.57,-201.81 342.57,-198.31 342.57,-205.31"/>
</a>
</g>
</g>
<!-- Node8&#45;&gt;Node8 -->
<g id="edge12_Node000008_Node000008" class="edge">
<title>Node8&#45;&gt;Node8</title>
<g id="a_edge12_Node000008_Node000008"><a xlink:title=" ">
<path fill="none" stroke="#63b8ff" d="M565.61,-148.72C557.69,-154.02 540.43,-157.62 513.83,-157.62 471.79,-157.62 453.08,-148.63 457.67,-138.14"/>
<polygon fill="#63b8ff" stroke="#63b8ff" points="568.82,-150.12 569.4,-139.54 562.35,-147.45 568.82,-150.12"/>
</a>
</g>
</g>
<!-- Node9 -->
<g id="Node000009" class="node">
<title>Node9</title>
<g id="a_Node000009"><a xlink:href="classcom_1_1runehive_1_1content_1_1bot_1_1botclass_1_1impl_1_1_welfare_rune_melee.html#ac9bb6b0adc24d557869aaa166af92f1b" target="_top" xlink:title=" ">
<ellipse fill="white" stroke="#666666" cx="159.28" cy="-113.81" rx="159.28" ry="25.81"/>
<text xml:space="preserve" text-anchor="start" x="54.65" y="-116.66" font-family="Helvetica,sans-Serif" font-size="12.00">com.runehive.content.bot.botclass.impl.</text>
<text xml:space="preserve" text-anchor="middle" x="159.28" y="-102.41" font-family="Helvetica,sans-Serif" font-size="12.00">WelfareRuneMelee.block</text>
</a>
</g>
</g>
<!-- Node8&#45;&gt;Node9 -->
<g id="edge11_Node000008_Node000009" class="edge">
<title>Node8&#45;&gt;Node9</title>
<g id="a_edge11_Node000008_Node000009"><a xlink:title=" ">
<path fill="none" stroke="#63b8ff" d="M342.82,-113.81C334.84,-113.81 326.84,-113.81 318.89,-113.81"/>
<polygon fill="#63b8ff" stroke="#63b8ff" points="342.57,-117.31 352.57,-113.81 342.57,-110.31 342.57,-117.31"/>
</a>
</g>
</g>
<!-- Node10&#45;&gt;Node10 -->
<g id="edge15_Node000010_Node000010" class="edge">
<title>Node10&#45;&gt;Node10</title>
<g id="a_edge15_Node000010_Node000010"><a xlink:title=" ">
<path fill="none" stroke="#63b8ff" d="M565.61,-60.72C557.69,-66.02 540.43,-69.62 513.83,-69.62 471.79,-69.62 453.08,-60.63 457.67,-50.14"/>
<polygon fill="#63b8ff" stroke="#63b8ff" points="568.82,-62.12 569.4,-51.54 562.35,-59.45 568.82,-62.12"/>
</a>
</g>
</g>
<!-- Node11 -->
<g id="Node000011" class="node">
<title>Node11</title>
<g id="a_Node000011"><a xlink:href="classcom_1_1runehive_1_1content_1_1bot_1_1botclass_1_1impl_1_1_zerker_melee.html#afd0c47e0e1afad33979b3a31007661c4" target="_top" xlink:title=" ">
<ellipse fill="white" stroke="#666666" cx="159.28" cy="-25.81" rx="159.28" ry="25.81"/>
<text xml:space="preserve" text-anchor="start" x="54.65" y="-28.66" font-family="Helvetica,sans-Serif" font-size="12.00">com.runehive.content.bot.botclass.impl.</text>
<text xml:space="preserve" text-anchor="middle" x="159.28" y="-14.41" font-family="Helvetica,sans-Serif" font-size="12.00">ZerkerMelee.block</text>
</a>
</g>
</g>
<!-- Node10&#45;&gt;Node11 -->
<g id="edge14_Node000010_Node000011" class="edge">
<title>Node10&#45;&gt;Node11</title>
<g id="a_edge14_Node000010_Node000011"><a xlink:title=" ">
<path fill="none" stroke="#63b8ff" d="M342.82,-25.81C334.84,-25.81 326.84,-25.81 318.89,-25.81"/>
<polygon fill="#63b8ff" stroke="#63b8ff" points="342.57,-29.31 352.57,-25.81 342.57,-22.31 342.57,-29.31"/>
</a>
</g>
</g>
</g>
</svg>

<g id="navigator" transform="translate(0 0)" fill="#404254">
  <rect fill="#f2f5e9" fill-opacity="0.5" stroke="#606060" stroke-width=".5" x="0" y="0" width="60" height="60"/>
  <use id="zoomplus" xlink:href="#zoomPlus" x="17" y="9" onmousedown="handleZoom(evt,'in')"/>
  <use id="zoomminus" xlink:href="#zoomMin" x="42" y="9" onmousedown="handleZoom(evt,'out')"/>
  <use id="reset" xlink:href="#resetDef" x="30" y="36" onmousedown="handleReset()"/>
   <use id="arrowup" xlink:href="#arrowUp" x="0" y="0" onmousedown="handlePan(0,-1)"/>
  <use id="arrowright" xlink:href="#arrowRight" x="0" y="0" onmousedown="handlePan(1,0)"/>
  <use id="arrowdown" xlink:href="#arrowDown" x="0" y="0" onmousedown="handlePan(0,1)"/>
  <use id="arrowleft" xlink:href="#arrowLeft" x="0" y="0" onmousedown="handlePan(-1,0)"/>
</g>
<svg viewBox="0 0 15 15" width="100%" height="30px" preserveAspectRatio="xMaxYMin meet">
 <g id="arrow_out" transform="scale(0.3 0.3)">
  <a xlink:href="classcom_1_1runehive_1_1util_1_1_mutable_number_ad345ecbb340825817f960ac860c00f2f_icgraph_org.svg" target="_base">
   <rect id="button" ry="5" rx="5" y="6" x="6" height="38" width="38"
        fill="#f2f5e9" fill-opacity="0.5" stroke="#606060" stroke-width="1.0"/>
   <path id="arrow"
     d="M 11.500037,31.436501 C 11.940474,20.09759 22.043105,11.32322 32.158766,21.979434 L 37.068811,17.246167 C 37.068811,17.246167 37.088388,32 37.088388,32 L 22.160133,31.978069 C 22.160133,31.978069 26.997745,27.140456 26.997745,27.140456 C 18.528582,18.264221 13.291696,25.230495 11.500037,31.436501 z"
     style="fill:#404040;"/>
  </a>
 </g>
</svg>

<style type='text/css'>
<![CDATA[
[data-mouse-over-selected='false'] { opacity: 0.7; }
[data-mouse-over-selected='true']  { opacity: 1.0; }
]]>
</style>
<script type="application/ecmascript"><![CDATA[
document.addEventListener('DOMContentLoaded', (event) => {
  highlightEdges();
  highlightAdjacentNodes();
});
]]></script>
</svg>
