<?xml version="1.0" encoding="UTF-8" standalone="no"?>
<!DOCTYPE svg PUBLIC "-//W3C//DTD SVG 1.1//EN"
 "http://www.w3.org/Graphics/SVG/1.1/DTD/svg11.dtd">
<!-- Generated by graphviz version 14.0.1 (20251006.0113)
 -->
<!-- Title: com.runehive.game.world.items.Item.getBonuses Pages: 1 -->
<!--zoomable 174 -->

<svg id="main" version="1.1" xmlns="http://www.w3.org/2000/svg" xmlns:xlink="http://www.w3.org/1999/xlink" xml:space="preserve" onload="init(evt)">

<style type="text/css"><![CDATA[
.node, .edge {opacity: 0.7;}
.node.selected, .edge.selected {opacity: 1;}
.edge:hover path { stroke: red; }
.edge:hover polygon { stroke: red; fill: red; }
]]></style>

<defs>
  <circle id="rim" cx="0" cy="0" r="7"/>
  <circle id="rim2" cx="0" cy="0" r="3.5"/>
  <g id="zoomPlus">
    <use xlink:href="#rim" fill="#404040"><set attributeName="fill" to="#808080" begin="zoomplus.mouseover" end="zoomplus.mouseout"/></use>
    <path d="M-4,0h8M0,-4v8" fill="none" stroke="white" stroke-width="1.5" pointer-events="none"/>
  </g>
  <g id="zoomMin">
    <use xlink:href="#rim" fill="#404040"><set attributeName="fill" to="#808080" begin="zoomminus.mouseover" end="zoomminus.mouseout"/></use>
    <path d="M-4,0h8" fill="none" stroke="white" stroke-width="1.5" pointer-events="none"/>
  </g>
  <g id="arrowUp" transform="translate(30 24)">
    <use xlink:href="#rim"/>
    <path pointer-events="none" fill="none" stroke="white" stroke-width="1.5" d="M0,-3.0v7 M-2.5,-0.5L0,-3.0L2.5,-0.5"/>
  </g>
  <g id="arrowRight" transform="rotate(90) translate(36 -43)">
    <use xlink:href="#rim"/>
    <path pointer-events="none" fill="none" stroke="white" stroke-width="1.5" d="M0,-3.0v7 M-2.5,-0.5L0,-3.0L2.5,-0.5"/>
  </g>
  <g id="arrowDown" transform="rotate(180) translate(-30 -48)">
    <use xlink:href="#rim"/>
    <path pointer-events="none" fill="none" stroke="white" stroke-width="1.5" d="M0,-3.0v7 M-2.5,-0.5L0,-3.0L2.5,-0.5"/>
  </g>
  <g id="arrowLeft" transform="rotate(270) translate(-36 17)">
    <use xlink:href="#rim"/>
    <path pointer-events="none" fill="none" stroke="white" stroke-width="1.5" d="M0,-3.0v7 M-2.5,-0.5L0,-3.0L2.5,-0.5"/>
  </g>
  <g id="resetDef">
    <use xlink:href="#rim2" fill="#404040"><set attributeName="fill" to="#808080" begin="reset.mouseover" end="reset.mouseout"/></use>
  </g>
</defs>
<script type="application/ecmascript">
var viewWidth = 1678;
var viewHeight = 174;
var sectionId = 'dynsection-33';
</script>
<script type="application/ecmascript" xlink:href="svg.min.js"/>
<svg id="graph" class="graph">
<g id="viewport">
<title>com.runehive.game.world.items.Item.getBonuses</title>
<!-- Node1 -->
<g id="Node000001" class="node">
<title>Node1</title>
<g id="a_Node000001"><a xlink:title=" ">
<ellipse fill="#999999" stroke="#666666" cx="1536.89" cy="-82.88" rx="132.76" ry="25.81"/>
<text xml:space="preserve" text-anchor="start" x="1451.01" y="-85.73" font-family="Helvetica,sans-Serif" font-size="12.00">com.runehive.game.world.items.</text>
<text xml:space="preserve" text-anchor="middle" x="1536.89" y="-71.48" font-family="Helvetica,sans-Serif" font-size="12.00">Item.getBonuses</text>
</a>
</g>
</g>
<!-- Node2 -->
<g id="Node000002" class="node">
<title>Node2</title>
<g id="a_Node000002"><a xlink:href="classcom_1_1runehive_1_1game_1_1world_1_1items_1_1containers_1_1equipment_1_1_equipment.html#a0e2a2a5d8b6d0a9da8174f89f9e9416a" target="_top" xlink:title=" ">
<ellipse fill="white" stroke="#666666" cx="1152.11" cy="-117.88" rx="216.02" ry="25.81"/>
<text xml:space="preserve" text-anchor="start" x="1007.36" y="-120.73" font-family="Helvetica,sans-Serif" font-size="12.00">com.runehive.game.world.items.containers.equipment.</text>
<text xml:space="preserve" text-anchor="middle" x="1152.11" y="-106.48" font-family="Helvetica,sans-Serif" font-size="12.00">Equipment.addBonus</text>
</a>
</g>
</g>
<!-- Node1&#45;&gt;Node2 -->
<g id="edge1_Node000001_Node000002" class="edge">
<title>Node1&#45;&gt;Node2</title>
<g id="a_edge1_Node000001_Node000002"><a xlink:title=" ">
<path fill="none" stroke="#63b8ff" d="M1404.6,-94.89C1379.06,-97.22 1351.94,-99.7 1325.31,-102.14"/>
<polygon fill="#63b8ff" stroke="#63b8ff" points="1404.68,-98.4 1414.31,-94 1404.04,-91.42 1404.68,-98.4"/>
</a>
</g>
</g>
<!-- Node6 -->
<g id="Node000006" class="node">
<title>Node6</title>
<g id="a_Node000006"><a xlink:href="classcom_1_1runehive_1_1game_1_1world_1_1items_1_1containers_1_1equipment_1_1_equipment.html#a98fbc8efe5acc4b8bf5261b66496a186" target="_top" xlink:title=" ">
<ellipse fill="white" stroke="#666666" cx="1152.11" cy="-47.88" rx="216.02" ry="25.81"/>
<text xml:space="preserve" text-anchor="start" x="1007.36" y="-50.73" font-family="Helvetica,sans-Serif" font-size="12.00">com.runehive.game.world.items.containers.equipment.</text>
<text xml:space="preserve" text-anchor="middle" x="1152.11" y="-36.48" font-family="Helvetica,sans-Serif" font-size="12.00">Equipment.removeBonus</text>
</a>
</g>
</g>
<!-- Node1&#45;&gt;Node6 -->
<g id="edge7_Node000001_Node000006" class="edge">
<title>Node1&#45;&gt;Node6</title>
<g id="a_edge7_Node000001_Node000006"><a xlink:title=" ">
<path fill="none" stroke="#63b8ff" d="M1404.6,-70.88C1379.06,-68.54 1351.94,-66.06 1325.31,-63.63"/>
<polygon fill="#63b8ff" stroke="#63b8ff" points="1404.04,-74.34 1414.31,-71.77 1404.68,-67.37 1404.04,-74.34"/>
</a>
</g>
</g>
<!-- Node3 -->
<g id="Node000003" class="node">
<title>Node3</title>
<g id="a_Node000003"><a xlink:href="classcom_1_1runehive_1_1game_1_1world_1_1items_1_1containers_1_1equipment_1_1_equipment_1_1_equipment_listener.html#a7542eae12d6631c73114abd0966326e7" target="_top" xlink:title="Fired when an Item is added, removed, or replaced.">
<ellipse fill="white" stroke="#666666" cx="216.02" cy="-82.88" rx="216.02" ry="25.81"/>
<text xml:space="preserve" text-anchor="start" x="71.27" y="-85.73" font-family="Helvetica,sans-Serif" font-size="12.00">com.runehive.game.world.items.containers.equipment.</text>
<text xml:space="preserve" text-anchor="middle" x="216.02" y="-71.48" font-family="Helvetica,sans-Serif" font-size="12.00">Equipment.EquipmentListener.itemUpdated</text>
</a>
</g>
</g>
<!-- Node2&#45;&gt;Node3 -->
<g id="edge2_Node000002_Node000003" class="edge">
<title>Node2&#45;&gt;Node3</title>
<g id="a_edge2_Node000002_Node000003"><a xlink:title=" ">
<path fill="none" stroke="#63b8ff" d="M1010.37,-140.36C871.81,-158.91 654.46,-178.39 468.04,-152.88 405.29,-144.3 336.1,-124.17 286.28,-107.69"/>
<polygon fill="#63b8ff" stroke="#63b8ff" points="1010.51,-143.88 1019.95,-139.06 1009.57,-136.94 1010.51,-143.88"/>
</a>
</g>
</g>
<!-- Node4 -->
<g id="Node000004" class="node">
<title>Node4</title>
<g id="a_Node000004"><a xlink:href="classcom_1_1runehive_1_1game_1_1world_1_1items_1_1containers_1_1equipment_1_1_equipment.html#a5132877e4269c9a04a5d268898e75845" target="_top" xlink:title=" ">
<ellipse fill="white" stroke="#666666" cx="684.06" cy="-117.88" rx="216.02" ry="25.81"/>
<text xml:space="preserve" text-anchor="start" x="539.31" y="-120.73" font-family="Helvetica,sans-Serif" font-size="12.00">com.runehive.game.world.items.containers.equipment.</text>
<text xml:space="preserve" text-anchor="middle" x="684.06" y="-106.48" font-family="Helvetica,sans-Serif" font-size="12.00">Equipment.onEquip</text>
</a>
</g>
</g>
<!-- Node2&#45;&gt;Node4 -->
<g id="edge3_Node000002_Node000004" class="edge">
<title>Node2&#45;&gt;Node4</title>
<g id="a_edge3_Node000002_Node000004"><a xlink:title=" ">
<path fill="none" stroke="#63b8ff" d="M924.46,-117.88C916.42,-117.88 908.36,-117.88 900.34,-117.88"/>
<polygon fill="#63b8ff" stroke="#63b8ff" points="924.31,-121.38 934.31,-117.88 924.31,-114.38 924.31,-121.38"/>
</a>
</g>
</g>
<!-- Node5 -->
<g id="Node000005" class="node">
<title>Node5</title>
<g id="a_Node000005"><a xlink:href="classcom_1_1runehive_1_1game_1_1world_1_1items_1_1containers_1_1equipment_1_1_equipment.html#a098f07f276790cc1870ec61206c79661" target="_top" xlink:title=" ">
<ellipse fill="white" stroke="#666666" cx="684.06" cy="-47.88" rx="216.02" ry="25.81"/>
<text xml:space="preserve" text-anchor="start" x="539.31" y="-50.73" font-family="Helvetica,sans-Serif" font-size="12.00">com.runehive.game.world.items.containers.equipment.</text>
<text xml:space="preserve" text-anchor="middle" x="684.06" y="-36.48" font-family="Helvetica,sans-Serif" font-size="12.00">Equipment.onRemove</text>
</a>
</g>
</g>
<!-- Node2&#45;&gt;Node5 -->
<g id="edge5_Node000002_Node000005" class="edge">
<title>Node2&#45;&gt;Node5</title>
<g id="a_edge5_Node000002_Node000005"><a xlink:title=" ">
<path fill="none" stroke="#63b8ff" d="M1004.12,-95.81C945.4,-86.99 878.19,-76.89 820.65,-68.25"/>
<polygon fill="#63b8ff" stroke="#63b8ff" points="1003.46,-99.25 1013.87,-97.27 1004.5,-92.32 1003.46,-99.25"/>
</a>
</g>
</g>
<!-- Node4&#45;&gt;Node3 -->
<g id="edge4_Node000004_Node000003" class="edge">
<title>Node4&#45;&gt;Node3</title>
<g id="a_edge4_Node000004_Node000003"><a xlink:title=" ">
<path fill="none" stroke="#63b8ff" d="M488.7,-103.29C459.41,-101.09 429.29,-98.82 400.25,-96.64"/>
<polygon fill="#63b8ff" stroke="#63b8ff" points="488.13,-106.75 498.37,-104.01 488.66,-99.77 488.13,-106.75"/>
</a>
</g>
</g>
<!-- Node5&#45;&gt;Node3 -->
<g id="edge6_Node000005_Node000003" class="edge">
<title>Node5&#45;&gt;Node3</title>
<g id="a_edge6_Node000005_Node000003"><a xlink:title=" ">
<path fill="none" stroke="#63b8ff" d="M488.7,-62.48C459.41,-64.68 429.29,-66.94 400.25,-69.12"/>
<polygon fill="#63b8ff" stroke="#63b8ff" points="488.66,-65.99 498.37,-61.75 488.13,-59.01 488.66,-65.99"/>
</a>
</g>
</g>
<!-- Node6&#45;&gt;Node3 -->
<g id="edge8_Node000006_Node000003" class="edge">
<title>Node6&#45;&gt;Node3</title>
<g id="a_edge8_Node000006_Node000003"><a xlink:title=" ">
<path fill="none" stroke="#63b8ff" d="M1010.37,-25.4C871.81,-6.86 654.46,12.62 468.04,-12.88 405.29,-21.47 336.1,-41.6 286.28,-58.08"/>
<polygon fill="#63b8ff" stroke="#63b8ff" points="1009.57,-28.83 1019.95,-26.7 1010.51,-21.89 1009.57,-28.83"/>
</a>
</g>
</g>
<!-- Node6&#45;&gt;Node4 -->
<g id="edge9_Node000006_Node000004" class="edge">
<title>Node6&#45;&gt;Node4</title>
<g id="a_edge9_Node000006_Node000004"><a xlink:title=" ">
<path fill="none" stroke="#63b8ff" d="M1004.12,-69.96C945.4,-78.78 878.19,-88.88 820.65,-97.52"/>
<polygon fill="#63b8ff" stroke="#63b8ff" points="1004.5,-73.44 1013.87,-68.5 1003.46,-66.52 1004.5,-73.44"/>
</a>
</g>
</g>
<!-- Node6&#45;&gt;Node5 -->
<g id="edge10_Node000006_Node000005" class="edge">
<title>Node6&#45;&gt;Node5</title>
<g id="a_edge10_Node000006_Node000005"><a xlink:title=" ">
<path fill="none" stroke="#63b8ff" d="M924.46,-47.88C916.42,-47.88 908.36,-47.88 900.34,-47.88"/>
<polygon fill="#63b8ff" stroke="#63b8ff" points="924.31,-51.38 934.31,-47.88 924.31,-44.38 924.31,-51.38"/>
</a>
</g>
</g>
</g>
</svg>

<g id="navigator" transform="translate(0 0)" fill="#404254">
  <rect fill="#f2f5e9" fill-opacity="0.5" stroke="#606060" stroke-width=".5" x="0" y="0" width="60" height="60"/>
  <use id="zoomplus" xlink:href="#zoomPlus" x="17" y="9" onmousedown="handleZoom(evt,'in')"/>
  <use id="zoomminus" xlink:href="#zoomMin" x="42" y="9" onmousedown="handleZoom(evt,'out')"/>
  <use id="reset" xlink:href="#resetDef" x="30" y="36" onmousedown="handleReset()"/>
   <use id="arrowup" xlink:href="#arrowUp" x="0" y="0" onmousedown="handlePan(0,-1)"/>
  <use id="arrowright" xlink:href="#arrowRight" x="0" y="0" onmousedown="handlePan(1,0)"/>
  <use id="arrowdown" xlink:href="#arrowDown" x="0" y="0" onmousedown="handlePan(0,1)"/>
  <use id="arrowleft" xlink:href="#arrowLeft" x="0" y="0" onmousedown="handlePan(-1,0)"/>
</g>
<svg viewBox="0 0 15 15" width="100%" height="30px" preserveAspectRatio="xMaxYMin meet">
 <g id="arrow_out" transform="scale(0.3 0.3)">
  <a xlink:href="classcom_1_1runehive_1_1game_1_1world_1_1items_1_1_item_acb272494e180f2df16fd5c01a34b8cd1_icgraph_org.svg" target="_base">
   <rect id="button" ry="5" rx="5" y="6" x="6" height="38" width="38"
        fill="#f2f5e9" fill-opacity="0.5" stroke="#606060" stroke-width="1.0"/>
   <path id="arrow"
     d="M 11.500037,31.436501 C 11.940474,20.09759 22.043105,11.32322 32.158766,21.979434 L 37.068811,17.246167 C 37.068811,17.246167 37.088388,32 37.088388,32 L 22.160133,31.978069 C 22.160133,31.978069 26.997745,27.140456 26.997745,27.140456 C 18.528582,18.264221 13.291696,25.230495 11.500037,31.436501 z"
     style="fill:#404040;"/>
  </a>
 </g>
</svg>

<style type='text/css'>
<![CDATA[
[data-mouse-over-selected='false'] { opacity: 0.7; }
[data-mouse-over-selected='true']  { opacity: 1.0; }
]]>
</style>
<script type="application/ecmascript"><![CDATA[
document.addEventListener('DOMContentLoaded', (event) => {
  highlightEdges();
  highlightAdjacentNodes();
});
]]></script>
</svg>
