<?xml version="1.0" encoding="UTF-8" standalone="no"?>
<!DOCTYPE svg PUBLIC "-//W3C//DTD SVG 1.1//EN"
 "http://www.w3.org/Graphics/SVG/1.1/DTD/svg11.dtd">
<!-- Generated by graphviz version 14.0.1 (20251006.0113)
 -->
<!-- Title: com.runehive.game.world.entity.mob.player.PlayerAssistant.getMaxHit Pages: 1 -->
<svg width="4409pt" height="889pt"
 viewBox="0.00 0.00 4409.00 889.00" xmlns="http://www.w3.org/2000/svg" xmlns:xlink="http://www.w3.org/1999/xlink">
<g id="graph0" class="graph" transform="scale(1 1) rotate(0) translate(4 885.03)">
<title>com.runehive.game.world.entity.mob.player.PlayerAssistant.getMaxHit</title>
<!-- Node1 -->
<g id="Node000001" class="node">
<title>Node1</title>
<g id="a_Node000001"><a xlink:title="Gets the max hit of a combat type.">
<ellipse fill="#999999" stroke="#666666" cx="175.72" cy="-747.22" rx="175.72" ry="25.81"/>
<text xml:space="preserve" text-anchor="start" x="59.47" y="-750.07" font-family="Helvetica,sans-Serif" font-size="12.00">com.runehive.game.world.entity.mob.player.</text>
<text xml:space="preserve" text-anchor="middle" x="175.72" y="-735.82" font-family="Helvetica,sans-Serif" font-size="12.00">PlayerAssistant.getMaxHit</text>
</a>
</g>
</g>
<!-- Node2 -->
<g id="Node000002" class="node">
<title>Node2</title>
<g id="a_Node000002"><a xlink:href="classcom_1_1runehive_1_1game_1_1world_1_1entity_1_1combat_1_1attack_1_1_formula_factory.html#a8c206e85ff648c3440dc428c6d96bcf3" target="_top" xlink:title=" ">
<ellipse fill="white" stroke="#666666" cx="573.75" cy="-747.22" rx="186.32" ry="25.81"/>
<text xml:space="preserve" text-anchor="start" x="450" y="-750.07" font-family="Helvetica,sans-Serif" font-size="12.00">com.runehive.game.world.entity.combat.attack.</text>
<text xml:space="preserve" text-anchor="middle" x="573.75" y="-735.82" font-family="Helvetica,sans-Serif" font-size="12.00">FormulaFactory.getModifiedMaxHit</text>
</a>
</g>
</g>
<!-- Node1&#45;&gt;Node2 -->
<g id="edge1_Node000001_Node000002" class="edge">
<title>Node1&#45;&gt;Node2</title>
<g id="a_edge1_Node000001_Node000002"><a xlink:title=" ">
<path fill="none" stroke="#63b8ff" d="M351.87,-747.22C359.82,-747.22 367.82,-747.22 375.82,-747.22"/>
<polygon fill="#63b8ff" stroke="#63b8ff" points="375.61,-750.72 385.61,-747.22 375.61,-743.72 375.61,-750.72"/>
</a>
</g>
</g>
<!-- Node3 -->
<g id="Node000003" class="node">
<title>Node3</title>
<g id="a_Node000003"><a xlink:href="enumcom_1_1runehive_1_1game_1_1world_1_1entity_1_1combat_1_1_combat_type.html#a20d98abecf93017b4a373baaf3e0db12" target="_top" xlink:title=" ">
<ellipse fill="white" stroke="#666666" cx="985.05" cy="-855.22" rx="161.93" ry="25.81"/>
<text xml:space="preserve" text-anchor="start" x="878.55" y="-858.07" font-family="Helvetica,sans-Serif" font-size="12.00">com.runehive.game.world.entity.combat.</text>
<text xml:space="preserve" text-anchor="middle" x="985.05" y="-843.82" font-family="Helvetica,sans-Serif" font-size="12.00">CombatType.getFormula</text>
</a>
</g>
</g>
<!-- Node2&#45;&gt;Node3 -->
<g id="edge2_Node000002_Node000003" class="edge">
<title>Node2&#45;&gt;Node3</title>
<g id="a_edge2_Node000002_Node000003"><a xlink:title=" ">
<path fill="none" stroke="#63b8ff" d="M647.56,-771.37C690.51,-785.17 746.08,-802.25 796.08,-815.22 819.88,-821.4 845.56,-827.34 870.07,-832.66"/>
<polygon fill="#63b8ff" stroke="#63b8ff" points="869.24,-836.06 879.75,-834.74 870.71,-829.22 869.24,-836.06"/>
</a>
</g>
</g>
<!-- Node4 -->
<g id="Node000004" class="node">
<title>Node4</title>
<g id="a_Node000004"><a xlink:href="classcom_1_1runehive_1_1game_1_1world_1_1entity_1_1mob_1_1_mob.html#a0a21470fb2a782842e6a318d785955a3" target="_top" xlink:title="The combat strategy of the mob.">
<ellipse fill="white" stroke="#666666" cx="2628.12" cy="-704.22" rx="150.79" ry="25.81"/>
<text xml:space="preserve" text-anchor="start" x="2529.49" y="-707.07" font-family="Helvetica,sans-Serif" font-size="12.00">com.runehive.game.world.entity.mob.</text>
<text xml:space="preserve" text-anchor="middle" x="2628.12" y="-692.82" font-family="Helvetica,sans-Serif" font-size="12.00">Mob.getStrategy</text>
</a>
</g>
</g>
<!-- Node2&#45;&gt;Node4 -->
<g id="edge3_Node000002_Node000004" class="edge">
<title>Node2&#45;&gt;Node4</title>
<g id="a_edge3_Node000002_Node000004"><a xlink:title=" ">
<path fill="none" stroke="#63b8ff" d="M688.14,-767.95C722.68,-773.51 760.83,-778.9 796.08,-782.22 1062.55,-807.4 1130.35,-801.22 1398,-801.22 1398,-801.22 1398,-801.22 1813.95,-801.22 2081.6,-801.22 2153.17,-833.47 2415.87,-782.22 2467.58,-772.14 2523.39,-751.05 2564.66,-733.35"/>
<polygon fill="#63b8ff" stroke="#63b8ff" points="2565.93,-736.61 2573.7,-729.41 2563.13,-730.19 2565.93,-736.61"/>
</a>
</g>
</g>
<!-- Node5 -->
<g id="Node000005" class="node">
<title>Node5</title>
<g id="a_Node000005"><a xlink:href="classcom_1_1runehive_1_1game_1_1world_1_1entity_1_1combat_1_1attack_1_1_formula_factory.html#a98c50e17a7007fc6dba4566f9c650a1e" target="_top" xlink:title=" ">
<ellipse fill="white" stroke="#666666" cx="985.05" cy="-747.22" rx="186.32" ry="25.81"/>
<text xml:space="preserve" text-anchor="start" x="861.3" y="-750.07" font-family="Helvetica,sans-Serif" font-size="12.00">com.runehive.game.world.entity.combat.attack.</text>
<text xml:space="preserve" text-anchor="middle" x="985.05" y="-735.82" font-family="Helvetica,sans-Serif" font-size="12.00">FormulaFactory.maxHit</text>
</a>
</g>
</g>
<!-- Node2&#45;&gt;Node5 -->
<g id="edge4_Node000002_Node000005" class="edge">
<title>Node2&#45;&gt;Node5</title>
<g id="a_edge4_Node000002_Node000005"><a xlink:title=" ">
<path fill="none" stroke="#63b8ff" d="M760.54,-747.22C769.38,-747.22 778.27,-747.22 787.14,-747.22"/>
<polygon fill="#63b8ff" stroke="#63b8ff" points="786.85,-750.72 796.85,-747.22 786.85,-743.72 786.85,-750.72"/>
</a>
</g>
</g>
<!-- Node6 -->
<g id="Node000006" class="node">
<title>Node6</title>
<g id="a_Node000006"><a xlink:href="classcom_1_1runehive_1_1game_1_1world_1_1entity_1_1combat_1_1maxhit_1_1_melee_max_hit.html#af0630fb9b7e5eace598a387b45a10068" target="_top" xlink:title=" ">
<ellipse fill="white" stroke="#666666" cx="985.05" cy="-659.22" rx="188.97" ry="25.81"/>
<text xml:space="preserve" text-anchor="start" x="859.43" y="-662.07" font-family="Helvetica,sans-Serif" font-size="12.00">com.runehive.game.world.entity.combat.maxhit.</text>
<text xml:space="preserve" text-anchor="middle" x="985.05" y="-647.82" font-family="Helvetica,sans-Serif" font-size="12.00">MeleeMaxHit.maxHit</text>
</a>
</g>
</g>
<!-- Node2&#45;&gt;Node6 -->
<g id="edge5_Node000002_Node000006" class="edge">
<title>Node2&#45;&gt;Node6</title>
<g id="a_edge5_Node000002_Node000006"><a xlink:title=" ">
<path fill="none" stroke="#63b8ff" d="M676.72,-725.3C735.56,-712.65 809.69,-696.71 870.41,-683.66"/>
<polygon fill="#63b8ff" stroke="#63b8ff" points="871.06,-687.1 880.1,-681.57 869.59,-680.25 871.06,-687.1"/>
</a>
</g>
</g>
<!-- Node19 -->
<g id="Node000019" class="node">
<title>Node19</title>
<g id="a_Node000019"><a xlink:href="classcom_1_1runehive_1_1game_1_1world_1_1entity_1_1combat_1_1maxhit_1_1_range_max_hit.html#ab6172bc75fede3f8c7881d2bddc9b90f" target="_top" xlink:title=" ">
<ellipse fill="white" stroke="#666666" cx="985.05" cy="-571.22" rx="188.97" ry="25.81"/>
<text xml:space="preserve" text-anchor="start" x="859.43" y="-574.07" font-family="Helvetica,sans-Serif" font-size="12.00">com.runehive.game.world.entity.combat.maxhit.</text>
<text xml:space="preserve" text-anchor="middle" x="985.05" y="-559.82" font-family="Helvetica,sans-Serif" font-size="12.00">RangeMaxHit.maxHit</text>
</a>
</g>
</g>
<!-- Node2&#45;&gt;Node19 -->
<g id="edge21_Node000002_Node000019" class="edge">
<title>Node2&#45;&gt;Node19</title>
<g id="a_edge21_Node000002_Node000019"><a xlink:title=" ">
<path fill="none" stroke="#63b8ff" d="M614.14,-721.63C657.34,-694.45 729.43,-651.7 796.08,-624.22 821.7,-613.66 850.12,-604.44 876.95,-596.78"/>
<polygon fill="#63b8ff" stroke="#63b8ff" points="877.79,-600.18 886.48,-594.11 875.9,-593.44 877.79,-600.18"/>
</a>
</g>
</g>
<!-- Node6&#45;&gt;Node6 -->
<g id="edge18_Node000006_Node000006" class="edge">
<title>Node6&#45;&gt;Node6</title>
<g id="a_edge18_Node000006_Node000006"><a xlink:title=" ">
<path fill="none" stroke="#63b8ff" d="M909.14,-683.11C901.91,-693.79 927.21,-703.03 985.05,-703.03 1022.56,-703.03 1046.38,-699.15 1056.53,-693.5"/>
<polygon fill="#63b8ff" stroke="#63b8ff" points="1059.66,-695.07 1060.37,-684.5 1053.23,-692.32 1059.66,-695.07"/>
</a>
</g>
</g>
<!-- Node7 -->
<g id="Node000007" class="node">
<title>Node7</title>
<g id="a_Node000007"><a xlink:href="classcom_1_1runehive_1_1game_1_1world_1_1entity_1_1combat_1_1maxhit_1_1_melee_max_hit.html#a5050e0e90ef10ebda448db68811d2f3d" target="_top" xlink:title=" ">
<ellipse fill="white" stroke="#666666" cx="1399" cy="-734.22" rx="188.97" ry="25.81"/>
<text xml:space="preserve" text-anchor="start" x="1273.38" y="-737.07" font-family="Helvetica,sans-Serif" font-size="12.00">com.runehive.game.world.entity.combat.maxhit.</text>
<text xml:space="preserve" text-anchor="middle" x="1399" y="-722.82" font-family="Helvetica,sans-Serif" font-size="12.00">MeleeMaxHit.getBaseDamage</text>
</a>
</g>
</g>
<!-- Node6&#45;&gt;Node7 -->
<g id="edge6_Node000006_Node000007" class="edge">
<title>Node6&#45;&gt;Node7</title>
<g id="a_edge6_Node000006_Node000007"><a xlink:title=" ">
<path fill="none" stroke="#63b8ff" d="M1100.53,-680.07C1153.99,-689.8 1217.77,-701.41 1272.54,-711.38"/>
<polygon fill="#63b8ff" stroke="#63b8ff" points="1271.77,-714.8 1282.23,-713.15 1273.02,-707.91 1271.77,-714.8"/>
</a>
</g>
</g>
<!-- Node18 -->
<g id="Node000018" class="node">
<title>Node18</title>
<g id="a_Node000018"><a xlink:href="classcom_1_1runehive_1_1game_1_1world_1_1entity_1_1combat_1_1maxhit_1_1_melee_max_hit.html#a00bd61113738249895f5a085a27b72ee" target="_top" xlink:title=" ">
<ellipse fill="white" stroke="#666666" cx="1399" cy="-646.22" rx="188.97" ry="25.81"/>
<text xml:space="preserve" text-anchor="start" x="1273.38" y="-649.07" font-family="Helvetica,sans-Serif" font-size="12.00">com.runehive.game.world.entity.combat.maxhit.</text>
<text xml:space="preserve" text-anchor="middle" x="1399" y="-634.82" font-family="Helvetica,sans-Serif" font-size="12.00">MeleeMaxHit.slayerPerkBonus</text>
</a>
</g>
</g>
<!-- Node6&#45;&gt;Node18 -->
<g id="edge19_Node000006_Node000018" class="edge">
<title>Node6&#45;&gt;Node18</title>
<g id="a_edge19_Node000006_Node000018"><a xlink:title=" ">
<path fill="none" stroke="#63b8ff" d="M1169.74,-653.43C1180.73,-653.08 1191.8,-652.73 1202.83,-652.38"/>
<polygon fill="#63b8ff" stroke="#63b8ff" points="1202.91,-655.88 1212.79,-652.07 1202.69,-648.89 1202.91,-655.88"/>
</a>
</g>
</g>
<!-- Node8 -->
<g id="Node000008" class="node">
<title>Node8</title>
<g id="a_Node000008"><a xlink:href="classcom_1_1runehive_1_1game_1_1world_1_1entity_1_1combat_1_1maxhit_1_1_melee_max_hit.html#a0e47155f9828a6b5caac8ad50fbec233" target="_top" xlink:title=" ">
<ellipse fill="white" stroke="#666666" cx="1812.95" cy="-607.22" rx="188.97" ry="25.81"/>
<text xml:space="preserve" text-anchor="start" x="1687.32" y="-610.07" font-family="Helvetica,sans-Serif" font-size="12.00">com.runehive.game.world.entity.combat.maxhit.</text>
<text xml:space="preserve" text-anchor="middle" x="1812.95" y="-595.82" font-family="Helvetica,sans-Serif" font-size="12.00">MeleeMaxHit.getEffectiveStrength</text>
</a>
</g>
</g>
<!-- Node7&#45;&gt;Node8 -->
<g id="edge7_Node000007_Node000008" class="edge">
<title>Node7&#45;&gt;Node8</title>
<g id="a_edge7_Node000007_Node000008"><a xlink:title=" ">
<path fill="none" stroke="#63b8ff" d="M1525.22,-714.63C1546.35,-710.27 1567.92,-705.14 1587.97,-699.22 1643.96,-682.7 1705.12,-657.04 1749.35,-637.01"/>
<polygon fill="#63b8ff" stroke="#63b8ff" points="1750.63,-640.27 1758.28,-632.93 1747.73,-633.9 1750.63,-640.27"/>
</a>
</g>
</g>
<!-- Node16 -->
<g id="Node000016" class="node">
<title>Node16</title>
<g id="a_Node000016"><a xlink:href="classcom_1_1runehive_1_1game_1_1world_1_1entity_1_1combat_1_1maxhit_1_1_melee_max_hit.html#adf28863bc0e5b25ccc8f38646df36791" target="_top" xlink:title=" ">
<ellipse fill="white" stroke="#666666" cx="1812.95" cy="-743.22" rx="188.97" ry="25.81"/>
<text xml:space="preserve" text-anchor="start" x="1687.32" y="-746.07" font-family="Helvetica,sans-Serif" font-size="12.00">com.runehive.game.world.entity.combat.maxhit.</text>
<text xml:space="preserve" text-anchor="middle" x="1812.95" y="-731.82" font-family="Helvetica,sans-Serif" font-size="12.00">MeleeMaxHit.getStrengthBonus</text>
</a>
</g>
</g>
<!-- Node7&#45;&gt;Node16 -->
<g id="edge16_Node000007_Node000016" class="edge">
<title>Node7&#45;&gt;Node16</title>
<g id="a_edge16_Node000007_Node000016"><a xlink:title=" ">
<path fill="none" stroke="#63b8ff" d="M1586.09,-738.29C1595.49,-738.5 1604.94,-738.7 1614.37,-738.91"/>
<polygon fill="#63b8ff" stroke="#63b8ff" points="1614.27,-742.41 1624.34,-739.13 1614.42,-735.41 1614.27,-742.41"/>
</a>
</g>
</g>
<!-- Node9 -->
<g id="Node000009" class="node">
<title>Node9</title>
<g id="a_Node000009"><a xlink:href="classcom_1_1runehive_1_1game_1_1world_1_1entity_1_1combat_1_1maxhit_1_1_melee_max_hit.html#ab06c7806a64a99ea74ca122db154bd3c" target="_top" xlink:title=" ">
<ellipse fill="white" stroke="#666666" cx="2226.9" cy="-677.22" rx="188.97" ry="25.81"/>
<text xml:space="preserve" text-anchor="start" x="2101.27" y="-680.07" font-family="Helvetica,sans-Serif" font-size="12.00">com.runehive.game.world.entity.combat.maxhit.</text>
<text xml:space="preserve" text-anchor="middle" x="2226.9" y="-665.82" font-family="Helvetica,sans-Serif" font-size="12.00">MeleeMaxHit.getOtherBonus</text>
</a>
</g>
</g>
<!-- Node8&#45;&gt;Node9 -->
<g id="edge8_Node000008_Node000009" class="edge">
<title>Node8&#45;&gt;Node9</title>
<g id="a_edge8_Node000008_Node000009"><a xlink:title=" ">
<path fill="none" stroke="#63b8ff" d="M1933.38,-627.52C1984.07,-636.13 2043.3,-646.2 2095.16,-655.01"/>
<polygon fill="#63b8ff" stroke="#63b8ff" points="2094.52,-658.45 2104.96,-656.67 2095.69,-651.55 2094.52,-658.45"/>
</a>
</g>
</g>
<!-- Node10 -->
<g id="Node000010" class="node">
<title>Node10</title>
<g id="a_Node000010"><a xlink:href="classcom_1_1runehive_1_1game_1_1world_1_1entity_1_1combat_1_1maxhit_1_1_melee_max_hit.html#ab90156b8e3f296e83aa9798999ee03a7" target="_top" xlink:title=" ">
<ellipse fill="white" stroke="#666666" cx="2226.9" cy="-607.22" rx="188.97" ry="25.81"/>
<text xml:space="preserve" text-anchor="start" x="2101.27" y="-610.07" font-family="Helvetica,sans-Serif" font-size="12.00">com.runehive.game.world.entity.combat.maxhit.</text>
<text xml:space="preserve" text-anchor="middle" x="2226.9" y="-595.82" font-family="Helvetica,sans-Serif" font-size="12.00">MeleeMaxHit.getPrayerBonus</text>
</a>
</g>
</g>
<!-- Node8&#45;&gt;Node10 -->
<g id="edge9_Node000008_Node000010" class="edge">
<title>Node8&#45;&gt;Node10</title>
<g id="a_edge9_Node000008_Node000010"><a xlink:title=" ">
<path fill="none" stroke="#63b8ff" d="M2002.14,-607.22C2010.14,-607.22 2018.17,-607.22 2026.2,-607.22"/>
<polygon fill="#63b8ff" stroke="#63b8ff" points="2026.01,-610.72 2036.01,-607.22 2026.01,-603.72 2026.01,-610.72"/>
</a>
</g>
</g>
<!-- Node12 -->
<g id="Node000012" class="node">
<title>Node12</title>
<g id="a_Node000012"><a xlink:href="classcom_1_1runehive_1_1game_1_1world_1_1entity_1_1combat_1_1maxhit_1_1_melee_max_hit.html#ae62cf9f92fe4514876e3661cdc47ae56" target="_top" xlink:title=" ">
<ellipse fill="white" stroke="#666666" cx="2226.9" cy="-467.22" rx="188.97" ry="25.81"/>
<text xml:space="preserve" text-anchor="start" x="2101.27" y="-470.07" font-family="Helvetica,sans-Serif" font-size="12.00">com.runehive.game.world.entity.combat.maxhit.</text>
<text xml:space="preserve" text-anchor="middle" x="2226.9" y="-455.82" font-family="Helvetica,sans-Serif" font-size="12.00">MeleeMaxHit.getStrengthLevel</text>
</a>
</g>
</g>
<!-- Node8&#45;&gt;Node12 -->
<g id="edge11_Node000008_Node000012" class="edge">
<title>Node8&#45;&gt;Node12</title>
<g id="a_edge11_Node000008_Node000012"><a xlink:title=" ">
<path fill="none" stroke="#63b8ff" d="M1859.31,-581.75C1903.6,-557.91 1973.53,-522.94 2037.92,-502.22 2053.67,-497.16 2070.41,-492.74 2087.16,-488.91"/>
<polygon fill="#63b8ff" stroke="#63b8ff" points="2087.67,-492.38 2096.68,-486.8 2086.16,-485.54 2087.67,-492.38"/>
</a>
</g>
</g>
<!-- Node14 -->
<g id="Node000014" class="node">
<title>Node14</title>
<g id="a_Node000014"><a xlink:href="classcom_1_1runehive_1_1game_1_1world_1_1entity_1_1combat_1_1maxhit_1_1_melee_max_hit.html#a3cda87c70ed749c87d1736750677558e" target="_top" xlink:title=" ">
<ellipse fill="white" stroke="#666666" cx="2226.9" cy="-327.22" rx="188.97" ry="25.81"/>
<text xml:space="preserve" text-anchor="start" x="2101.27" y="-330.07" font-family="Helvetica,sans-Serif" font-size="12.00">com.runehive.game.world.entity.combat.maxhit.</text>
<text xml:space="preserve" text-anchor="middle" x="2226.9" y="-315.82" font-family="Helvetica,sans-Serif" font-size="12.00">MeleeMaxHit.getStyleBonus</text>
</a>
</g>
</g>
<!-- Node8&#45;&gt;Node14 -->
<g id="edge14_Node000008_Node000014" class="edge">
<title>Node8&#45;&gt;Node14</title>
<g id="a_edge14_Node000008_Node000014"><a xlink:title=" ">
<path fill="none" stroke="#63b8ff" d="M1848.2,-581.42C1888.69,-549.66 1956.3,-492.48 2001.92,-432.22 2023.04,-404.33 2009.86,-383.12 2037.92,-362.22 2045.86,-356.32 2054.49,-351.32 2063.55,-347.08"/>
<polygon fill="#63b8ff" stroke="#63b8ff" points="2064.74,-350.38 2072.55,-343.22 2061.98,-343.94 2064.74,-350.38"/>
</a>
</g>
</g>
<!-- Node11 -->
<g id="Node000011" class="node">
<title>Node11</title>
<g id="a_Node000011"><a xlink:href="classcom_1_1runehive_1_1game_1_1world_1_1entity_1_1mob_1_1prayer_1_1_prayer_book.html#ab410a6704bdd57b8f722a17f2d874a93" target="_top" xlink:title="Checks if all given prayers are active.">
<ellipse fill="white" stroke="#666666" cx="2628.12" cy="-559.22" rx="176.25" ry="25.81"/>
<text xml:space="preserve" text-anchor="start" x="2511.49" y="-562.07" font-family="Helvetica,sans-Serif" font-size="12.00">com.runehive.game.world.entity.mob.prayer.</text>
<text xml:space="preserve" text-anchor="middle" x="2628.12" y="-547.82" font-family="Helvetica,sans-Serif" font-size="12.00">PrayerBook.isActive</text>
</a>
</g>
</g>
<!-- Node10&#45;&gt;Node11 -->
<g id="edge10_Node000010_Node000011" class="edge">
<title>Node10&#45;&gt;Node11</title>
<g id="a_edge10_Node000010_Node000011"><a xlink:title=" ">
<path fill="none" stroke="#63b8ff" d="M2370.33,-590.1C2405.75,-585.84 2443.78,-581.27 2479.44,-576.98"/>
<polygon fill="#63b8ff" stroke="#63b8ff" points="2479.41,-580.51 2488.92,-575.84 2478.57,-573.56 2479.41,-580.51"/>
</a>
</g>
</g>
<!-- Node13 -->
<g id="Node000013" class="node">
<title>Node13</title>
<g id="a_Node000013"><a xlink:href="classcom_1_1runehive_1_1game_1_1world_1_1entity_1_1skill_1_1_skill_manager.html#a413f91a2ac68dc4f5d610c7195caf347" target="_top" xlink:title="Gets the level of a skill.">
<ellipse fill="white" stroke="#666666" cx="2628.12" cy="-445.22" rx="149.2" ry="25.81"/>
<text xml:space="preserve" text-anchor="start" x="2530.62" y="-448.07" font-family="Helvetica,sans-Serif" font-size="12.00">com.runehive.game.world.entity.skill.</text>
<text xml:space="preserve" text-anchor="middle" x="2628.12" y="-433.82" font-family="Helvetica,sans-Serif" font-size="12.00">SkillManager.getLevel</text>
</a>
</g>
</g>
<!-- Node12&#45;&gt;Node13 -->
<g id="edge12_Node000012_Node000013" class="edge">
<title>Node12&#45;&gt;Node13</title>
<g id="a_edge12_Node000012_Node000013"><a xlink:title=" ">
<path fill="none" stroke="#63b8ff" d="M2403,-457.58C2426.68,-456.27 2450.82,-454.94 2474.07,-453.66"/>
<polygon fill="#63b8ff" stroke="#63b8ff" points="2474.1,-457.16 2483.89,-453.12 2473.72,-450.17 2474.1,-457.16"/>
</a>
</g>
</g>
<!-- Node13&#45;&gt;Node13 -->
<g id="edge13_Node000013_Node000013" class="edge">
<title>Node13&#45;&gt;Node13</title>
<g id="a_edge13_Node000013_Node000013"><a xlink:title=" ">
<path fill="none" stroke="#63b8ff" d="M2559.67,-468.21C2551.22,-479.27 2574.04,-489.03 2628.12,-489.03 2662.76,-489.03 2684.58,-485.03 2693.56,-479.24"/>
<polygon fill="#63b8ff" stroke="#63b8ff" points="2696.91,-480.24 2696.16,-469.67 2690.16,-478.4 2696.91,-480.24"/>
</a>
</g>
</g>
<!-- Node15 -->
<g id="Node000015" class="node">
<title>Node15</title>
<g id="a_Node000015"><a xlink:href="classcom_1_1runehive_1_1game_1_1world_1_1entity_1_1mob_1_1_mob.html#a385dc0248234fddaae1b093594d7bf58" target="_top" xlink:title="The combat of the mob.">
<ellipse fill="white" stroke="#666666" cx="2628.12" cy="-327.22" rx="150.79" ry="25.81"/>
<text xml:space="preserve" text-anchor="start" x="2529.49" y="-330.07" font-family="Helvetica,sans-Serif" font-size="12.00">com.runehive.game.world.entity.mob.</text>
<text xml:space="preserve" text-anchor="middle" x="2628.12" y="-315.82" font-family="Helvetica,sans-Serif" font-size="12.00">Mob.getCombat</text>
</a>
</g>
</g>
<!-- Node14&#45;&gt;Node15 -->
<g id="edge15_Node000014_Node000015" class="edge">
<title>Node14&#45;&gt;Node15</title>
<g id="a_edge15_Node000014_Node000015"><a xlink:title=" ">
<path fill="none" stroke="#63b8ff" d="M2416.11,-327.22C2432.69,-327.22 2449.38,-327.22 2465.71,-327.22"/>
<polygon fill="#63b8ff" stroke="#63b8ff" points="2465.44,-330.72 2475.44,-327.22 2465.44,-323.72 2465.44,-330.72"/>
</a>
</g>
</g>
<!-- Node17 -->
<g id="Node000017" class="node">
<title>Node17</title>
<g id="a_Node000017"><a xlink:href="classcom_1_1runehive_1_1game_1_1world_1_1entity_1_1mob_1_1_mob.html#a15c70b1ab880b5e8dab6a8a3006df952" target="_top" xlink:title=" ">
<ellipse fill="white" stroke="#666666" cx="2226.9" cy="-747.22" rx="150.79" ry="25.81"/>
<text xml:space="preserve" text-anchor="start" x="2128.27" y="-750.07" font-family="Helvetica,sans-Serif" font-size="12.00">com.runehive.game.world.entity.mob.</text>
<text xml:space="preserve" text-anchor="middle" x="2226.9" y="-735.82" font-family="Helvetica,sans-Serif" font-size="12.00">Mob.getBonus</text>
</a>
</g>
</g>
<!-- Node16&#45;&gt;Node17 -->
<g id="edge17_Node000016_Node000017" class="edge">
<title>Node16&#45;&gt;Node17</title>
<g id="a_edge17_Node000016_Node000017"><a xlink:title=" ">
<path fill="none" stroke="#63b8ff" d="M2001.84,-745.05C2022.79,-745.25 2043.99,-745.46 2064.56,-745.66"/>
<polygon fill="#63b8ff" stroke="#63b8ff" points="2064.38,-749.16 2074.41,-745.75 2064.45,-742.16 2064.38,-749.16"/>
</a>
</g>
</g>
<!-- Node18&#45;&gt;Node18 -->
<g id="edge20_Node000018_Node000018" class="edge">
<title>Node18&#45;&gt;Node18</title>
<g id="a_edge20_Node000018_Node000018"><a xlink:title=" ">
<path fill="none" stroke="#63b8ff" d="M1322.6,-670.11C1315.32,-680.79 1340.79,-690.03 1399,-690.03 1436.75,-690.03 1460.73,-686.15 1470.94,-680.5"/>
<polygon fill="#63b8ff" stroke="#63b8ff" points="1474.07,-682.07 1474.81,-671.5 1467.64,-679.3 1474.07,-682.07"/>
</a>
</g>
</g>
<!-- Node19&#45;&gt;Node19 -->
<g id="edge47_Node000019_Node000019" class="edge">
<title>Node19&#45;&gt;Node19</title>
<g id="a_edge47_Node000019_Node000019"><a xlink:title=" ">
<path fill="none" stroke="#63b8ff" d="M909.14,-595.11C901.91,-605.79 927.21,-615.03 985.05,-615.03 1022.56,-615.03 1046.38,-611.15 1056.53,-605.5"/>
<polygon fill="#63b8ff" stroke="#63b8ff" points="1059.66,-607.07 1060.37,-596.5 1053.23,-604.32 1059.66,-607.07"/>
</a>
</g>
</g>
<!-- Node20 -->
<g id="Node000020" class="node">
<title>Node20</title>
<g id="a_Node000020"><a xlink:href="classcom_1_1runehive_1_1game_1_1world_1_1entity_1_1combat_1_1maxhit_1_1_range_max_hit.html#a1160ad5634b5b8fe0591102122977353" target="_top" xlink:title=" ">
<ellipse fill="white" stroke="#666666" cx="1399" cy="-571.22" rx="188.97" ry="25.81"/>
<text xml:space="preserve" text-anchor="start" x="1273.38" y="-574.07" font-family="Helvetica,sans-Serif" font-size="12.00">com.runehive.game.world.entity.combat.maxhit.</text>
<text xml:space="preserve" text-anchor="middle" x="1399" y="-559.82" font-family="Helvetica,sans-Serif" font-size="12.00">RangeMaxHit.getBaseDamage</text>
</a>
</g>
</g>
<!-- Node19&#45;&gt;Node20 -->
<g id="edge22_Node000019_Node000020" class="edge">
<title>Node19&#45;&gt;Node20</title>
<g id="a_edge22_Node000019_Node000020"><a xlink:title=" ">
<path fill="none" stroke="#63b8ff" d="M1174.24,-571.22C1182.24,-571.22 1190.28,-571.22 1198.3,-571.22"/>
<polygon fill="#63b8ff" stroke="#63b8ff" points="1198.11,-574.72 1208.11,-571.22 1198.11,-567.72 1198.11,-574.72"/>
</a>
</g>
</g>
<!-- Node20&#45;&gt;Node17 -->
<g id="edge23_Node000020_Node000017" class="edge">
<title>Node20&#45;&gt;Node17</title>
<g id="a_edge23_Node000020_Node000017"><a xlink:title=" ">
<path fill="none" stroke="#63b8ff" d="M1530.3,-590.02C1550.18,-595.41 1570.04,-602.33 1587.97,-611.22 1606.89,-620.6 1604.89,-633.2 1623.97,-642.22 1624.32,-642.39 1933.34,-696.25 2108.41,-726.76"/>
<polygon fill="#63b8ff" stroke="#63b8ff" points="2107.8,-730.2 2118.26,-728.47 2109,-723.31 2107.8,-730.2"/>
</a>
</g>
</g>
<!-- Node21 -->
<g id="Node000021" class="node">
<title>Node21</title>
<g id="a_Node000021"><a xlink:href="classcom_1_1runehive_1_1game_1_1world_1_1entity_1_1combat_1_1maxhit_1_1_range_max_hit.html#ade0ca33f30a304badc494fceeea69b8a" target="_top" xlink:title=" ">
<ellipse fill="white" stroke="#666666" cx="1812.95" cy="-397.22" rx="188.97" ry="25.81"/>
<text xml:space="preserve" text-anchor="start" x="1687.32" y="-400.07" font-family="Helvetica,sans-Serif" font-size="12.00">com.runehive.game.world.entity.combat.maxhit.</text>
<text xml:space="preserve" text-anchor="middle" x="1812.95" y="-385.82" font-family="Helvetica,sans-Serif" font-size="12.00">RangeMaxHit.getEffectiveRanged</text>
</a>
</g>
</g>
<!-- Node20&#45;&gt;Node21 -->
<g id="edge24_Node000020_Node000021" class="edge">
<title>Node20&#45;&gt;Node21</title>
<g id="a_edge24_Node000020_Node000021"><a xlink:title=" ">
<path fill="none" stroke="#63b8ff" d="M1459.02,-546.29C1533.97,-514.64 1663.08,-460.11 1742.63,-426.5"/>
<polygon fill="#63b8ff" stroke="#63b8ff" points="1743.79,-429.81 1751.64,-422.7 1741.07,-423.36 1743.79,-429.81"/>
</a>
</g>
</g>
<!-- Node22 -->
<g id="Node000022" class="node">
<title>Node22</title>
<g id="a_Node000022"><a xlink:href="classcom_1_1runehive_1_1game_1_1world_1_1entity_1_1combat_1_1maxhit_1_1_range_max_hit.html#a9ae12725c4c552b12d49001ebac44ab5" target="_top" xlink:title=" ">
<ellipse fill="white" stroke="#666666" cx="2226.9" cy="-187.22" rx="188.97" ry="25.81"/>
<text xml:space="preserve" text-anchor="start" x="2101.27" y="-190.07" font-family="Helvetica,sans-Serif" font-size="12.00">com.runehive.game.world.entity.combat.maxhit.</text>
<text xml:space="preserve" text-anchor="middle" x="2226.9" y="-175.82" font-family="Helvetica,sans-Serif" font-size="12.00">RangeMaxHit.getOtherBonus</text>
</a>
</g>
</g>
<!-- Node21&#45;&gt;Node22 -->
<g id="edge25_Node000021_Node000022" class="edge">
<title>Node21&#45;&gt;Node22</title>
<g id="a_edge25_Node000021_Node000022"><a xlink:title=" ">
<path fill="none" stroke="#63b8ff" d="M1838.43,-371.39C1876.96,-332.42 1955.83,-259.25 2037.92,-222.22 2050.34,-216.63 2063.6,-211.92 2077.13,-207.97"/>
<polygon fill="#63b8ff" stroke="#63b8ff" points="2077.85,-211.4 2086.56,-205.36 2075.99,-204.65 2077.85,-211.4"/>
</a>
</g>
</g>
<!-- Node33 -->
<g id="Node000033" class="node">
<title>Node33</title>
<g id="a_Node000033"><a xlink:href="classcom_1_1runehive_1_1game_1_1world_1_1entity_1_1combat_1_1maxhit_1_1_range_max_hit.html#a55ec5e1035efe32a033f4dfbb3eceea5" target="_top" xlink:title=" ">
<ellipse fill="white" stroke="#666666" cx="2226.9" cy="-537.22" rx="188.97" ry="25.81"/>
<text xml:space="preserve" text-anchor="start" x="2101.27" y="-540.07" font-family="Helvetica,sans-Serif" font-size="12.00">com.runehive.game.world.entity.combat.maxhit.</text>
<text xml:space="preserve" text-anchor="middle" x="2226.9" y="-525.82" font-family="Helvetica,sans-Serif" font-size="12.00">RangeMaxHit.getPrayerBonus</text>
</a>
</g>
</g>
<!-- Node21&#45;&gt;Node33 -->
<g id="edge40_Node000021_Node000033" class="edge">
<title>Node21&#45;&gt;Node33</title>
<g id="a_edge40_Node000021_Node000033"><a xlink:title=" ">
<path fill="none" stroke="#63b8ff" d="M1859.31,-422.7C1903.6,-446.54 1973.53,-481.51 2037.92,-502.22 2053.67,-507.29 2070.41,-511.71 2087.16,-515.54"/>
<polygon fill="#63b8ff" stroke="#63b8ff" points="2086.16,-518.91 2096.68,-517.65 2087.67,-512.07 2086.16,-518.91"/>
</a>
</g>
</g>
<!-- Node34 -->
<g id="Node000034" class="node">
<title>Node34</title>
<g id="a_Node000034"><a xlink:href="classcom_1_1runehive_1_1game_1_1world_1_1entity_1_1combat_1_1maxhit_1_1_range_max_hit.html#a43e0023bb51a157adf3a729e015095ed" target="_top" xlink:title=" ">
<ellipse fill="white" stroke="#666666" cx="2226.9" cy="-397.22" rx="188.97" ry="25.81"/>
<text xml:space="preserve" text-anchor="start" x="2101.27" y="-400.07" font-family="Helvetica,sans-Serif" font-size="12.00">com.runehive.game.world.entity.combat.maxhit.</text>
<text xml:space="preserve" text-anchor="middle" x="2226.9" y="-385.82" font-family="Helvetica,sans-Serif" font-size="12.00">RangeMaxHit.getRangedlevel</text>
</a>
</g>
</g>
<!-- Node21&#45;&gt;Node34 -->
<g id="edge43_Node000021_Node000034" class="edge">
<title>Node21&#45;&gt;Node34</title>
<g id="a_edge43_Node000021_Node000034"><a xlink:title=" ">
<path fill="none" stroke="#63b8ff" d="M2002.14,-397.22C2010.14,-397.22 2018.17,-397.22 2026.2,-397.22"/>
<polygon fill="#63b8ff" stroke="#63b8ff" points="2026.01,-400.72 2036.01,-397.22 2026.01,-393.72 2026.01,-400.72"/>
</a>
</g>
</g>
<!-- Node35 -->
<g id="Node000035" class="node">
<title>Node35</title>
<g id="a_Node000035"><a xlink:href="classcom_1_1runehive_1_1game_1_1world_1_1entity_1_1combat_1_1maxhit_1_1_range_max_hit.html#aefc29647ac3432b71affc559ed01f9d0" target="_top" xlink:title=" ">
<ellipse fill="white" stroke="#666666" cx="2226.9" cy="-257.22" rx="188.97" ry="25.81"/>
<text xml:space="preserve" text-anchor="start" x="2101.27" y="-260.07" font-family="Helvetica,sans-Serif" font-size="12.00">com.runehive.game.world.entity.combat.maxhit.</text>
<text xml:space="preserve" text-anchor="middle" x="2226.9" y="-245.82" font-family="Helvetica,sans-Serif" font-size="12.00">RangeMaxHit.getStyleBonus</text>
</a>
</g>
</g>
<!-- Node21&#45;&gt;Node35 -->
<g id="edge45_Node000021_Node000035" class="edge">
<title>Node21&#45;&gt;Node35</title>
<g id="a_edge45_Node000021_Node000035"><a xlink:title=" ">
<path fill="none" stroke="#63b8ff" d="M1859.31,-371.75C1903.6,-347.91 1973.53,-312.94 2037.92,-292.22 2053.67,-287.16 2070.41,-282.74 2087.16,-278.91"/>
<polygon fill="#63b8ff" stroke="#63b8ff" points="2087.67,-282.38 2096.68,-276.8 2086.16,-275.54 2087.67,-282.38"/>
</a>
</g>
</g>
<!-- Node22&#45;&gt;Node15 -->
<g id="edge26_Node000022_Node000015" class="edge">
<title>Node22&#45;&gt;Node15</title>
<g id="a_edge26_Node000022_Node000015"><a xlink:title=" ">
<path fill="none" stroke="#63b8ff" d="M2379.85,-202.62C2392.71,-207.68 2404.95,-214.1 2415.87,-222.22 2443.93,-243.12 2423.95,-271.15 2451.87,-292.22 2461.93,-299.81 2473.2,-305.88 2485.06,-310.7"/>
<polygon fill="#63b8ff" stroke="#63b8ff" points="2483.6,-313.89 2494.19,-314.11 2486.04,-307.34 2483.6,-313.89"/>
</a>
</g>
</g>
<!-- Node23 -->
<g id="Node000023" class="node">
<title>Node23</title>
<g id="a_Node000023"><a xlink:href="classcom_1_1runehive_1_1game_1_1world_1_1entity_1_1combat_1_1_formula_utils.html#a8028e119207e57ef6cab3e6dff67a8f8" target="_top" xlink:title=" ">
<ellipse fill="white" stroke="#666666" cx="2628.12" cy="-187.22" rx="161.93" ry="25.81"/>
<text xml:space="preserve" text-anchor="start" x="2521.62" y="-190.07" font-family="Helvetica,sans-Serif" font-size="12.00">com.runehive.game.world.entity.combat.</text>
<text xml:space="preserve" text-anchor="middle" x="2628.12" y="-175.82" font-family="Helvetica,sans-Serif" font-size="12.00">FormulaUtils.hasCrawsBow</text>
</a>
</g>
</g>
<!-- Node22&#45;&gt;Node23 -->
<g id="edge27_Node000022_Node000023" class="edge">
<title>Node22&#45;&gt;Node23</title>
<g id="a_edge27_Node000022_Node000023"><a xlink:title=" ">
<path fill="none" stroke="#63b8ff" d="M2416.11,-187.22C2429,-187.22 2441.96,-187.22 2454.76,-187.22"/>
<polygon fill="#63b8ff" stroke="#63b8ff" points="2454.46,-190.72 2464.46,-187.22 2454.46,-183.72 2454.46,-190.72"/>
</a>
</g>
</g>
<!-- Node28 -->
<g id="Node000028" class="node">
<title>Node28</title>
<g id="a_Node000028"><a xlink:href="classcom_1_1runehive_1_1game_1_1world_1_1entity_1_1mob_1_1_mob.html#ac1ffa95e70f2c18a6695328fb2afc585" target="_top" xlink:title="Check if an entity is an npc.">
<ellipse fill="white" stroke="#666666" cx="2628.12" cy="-257.22" rx="150.79" ry="25.81"/>
<text xml:space="preserve" text-anchor="start" x="2529.49" y="-260.07" font-family="Helvetica,sans-Serif" font-size="12.00">com.runehive.game.world.entity.mob.</text>
<text xml:space="preserve" text-anchor="middle" x="2628.12" y="-245.82" font-family="Helvetica,sans-Serif" font-size="12.00">Mob.isNpc</text>
</a>
</g>
</g>
<!-- Node22&#45;&gt;Node28 -->
<g id="edge32_Node000022_Node000028" class="edge">
<title>Node22&#45;&gt;Node28</title>
<g id="a_edge32_Node000022_Node000028"><a xlink:title=" ">
<path fill="none" stroke="#63b8ff" d="M2344.98,-207.75C2396.96,-216.87 2458,-227.57 2509.98,-236.69"/>
<polygon fill="#63b8ff" stroke="#63b8ff" points="2509.33,-240.12 2519.78,-238.4 2510.54,-233.23 2509.33,-240.12"/>
</a>
</g>
</g>
<!-- Node30 -->
<g id="Node000030" class="node">
<title>Node30</title>
<g id="a_Node000030"><a xlink:href="classcom_1_1runehive_1_1game_1_1world_1_1entity_1_1combat_1_1_formula_utils.html#aeff769abc3d7165ecde2b3095ff52f13" target="_top" xlink:title=" ">
<ellipse fill="white" stroke="#666666" cx="2628.12" cy="-47.22" rx="161.93" ry="25.81"/>
<text xml:space="preserve" text-anchor="start" x="2521.62" y="-50.07" font-family="Helvetica,sans-Serif" font-size="12.00">com.runehive.game.world.entity.combat.</text>
<text xml:space="preserve" text-anchor="middle" x="2628.12" y="-35.82" font-family="Helvetica,sans-Serif" font-size="12.00">FormulaUtils.voidRanger</text>
</a>
</g>
</g>
<!-- Node22&#45;&gt;Node30 -->
<g id="edge34_Node000022_Node000030" class="edge">
<title>Node22&#45;&gt;Node30</title>
<g id="a_edge34_Node000022_Node000030"><a xlink:title=" ">
<path fill="none" stroke="#63b8ff" d="M2297.44,-162.84C2367.6,-138.24 2475.73,-100.32 2548.85,-74.67"/>
<polygon fill="#63b8ff" stroke="#63b8ff" points="2549.67,-78.09 2557.95,-71.48 2547.35,-71.49 2549.67,-78.09"/>
</a>
</g>
</g>
<!-- Node32 -->
<g id="Node000032" class="node">
<title>Node32</title>
<g id="a_Node000032"><a xlink:href="classcom_1_1runehive_1_1game_1_1world_1_1entity_1_1combat_1_1_formula_utils.html#a8fa667cc06decb5fa3749c4a10c20e83" target="_top" xlink:title=" ">
<ellipse fill="white" stroke="#666666" cx="3002.29" cy="-117.22" rx="161.93" ry="25.81"/>
<text xml:space="preserve" text-anchor="start" x="2895.79" y="-120.07" font-family="Helvetica,sans-Serif" font-size="12.00">com.runehive.game.world.entity.combat.</text>
<text xml:space="preserve" text-anchor="middle" x="3002.29" y="-105.82" font-family="Helvetica,sans-Serif" font-size="12.00">FormulaUtils.wearingEliteVoid</text>
</a>
</g>
</g>
<!-- Node22&#45;&gt;Node32 -->
<g id="edge38_Node000022_Node000032" class="edge">
<title>Node22&#45;&gt;Node32</title>
<g id="a_edge38_Node000022_Node000032"><a xlink:title=" ">
<path fill="none" stroke="#63b8ff" d="M2345.61,-166.76C2379.8,-161.38 2417.25,-156.02 2451.87,-152.22 2579.42,-138.23 2724.29,-129.28 2833.23,-123.95"/>
<polygon fill="#63b8ff" stroke="#63b8ff" points="2833.33,-127.44 2843.15,-123.47 2832.99,-120.45 2833.33,-127.44"/>
</a>
</g>
</g>
<!-- Node24 -->
<g id="Node000024" class="node">
<title>Node24</title>
<g id="a_Node000024"><a xlink:href="classcom_1_1runehive_1_1game_1_1world_1_1items_1_1containers_1_1equipment_1_1_equipment.html#a04929f978aa4b3de9b9ce3a290c93401" target="_top" xlink:title=" ">
<ellipse fill="white" stroke="#666666" cx="3416.24" cy="-82.22" rx="216.02" ry="25.81"/>
<text xml:space="preserve" text-anchor="start" x="3271.49" y="-85.07" font-family="Helvetica,sans-Serif" font-size="12.00">com.runehive.game.world.items.containers.equipment.</text>
<text xml:space="preserve" text-anchor="middle" x="3416.24" y="-70.82" font-family="Helvetica,sans-Serif" font-size="12.00">Equipment.contains</text>
</a>
</g>
</g>
<!-- Node23&#45;&gt;Node24 -->
<g id="edge28_Node000023_Node000024" class="edge">
<title>Node23&#45;&gt;Node24</title>
<g id="a_edge28_Node000023_Node000024"><a xlink:title=" ">
<path fill="none" stroke="#63b8ff" d="M2730.77,-207.54C2765.39,-213.53 2804.43,-219.27 2840.36,-222.22 2983.82,-234.03 3024.92,-258.44 3164.22,-222.22 3244.13,-201.45 3325.61,-149.04 3373.25,-114.57"/>
<polygon fill="#63b8ff" stroke="#63b8ff" points="3375.09,-117.56 3381.09,-108.83 3370.96,-111.91 3375.09,-117.56"/>
</a>
</g>
</g>
<!-- Node27 -->
<g id="Node000027" class="node">
<title>Node27</title>
<g id="a_Node000027"><a xlink:href="classcom_1_1runehive_1_1game_1_1world_1_1position_1_1_area.html#ab9375a2c4a03fb08f1091f57b8ef70ba" target="_top" xlink:title=" ">
<ellipse fill="white" stroke="#666666" cx="3002.29" cy="-187.22" rx="142.31" ry="25.81"/>
<text xml:space="preserve" text-anchor="start" x="2909.67" y="-190.07" font-family="Helvetica,sans-Serif" font-size="12.00">com.runehive.game.world.position.</text>
<text xml:space="preserve" text-anchor="middle" x="3002.29" y="-175.82" font-family="Helvetica,sans-Serif" font-size="12.00">Area.inWilderness</text>
</a>
</g>
</g>
<!-- Node23&#45;&gt;Node27 -->
<g id="edge31_Node000023_Node000027" class="edge">
<title>Node23&#45;&gt;Node27</title>
<g id="a_edge31_Node000023_Node000027"><a xlink:title=" ">
<path fill="none" stroke="#63b8ff" d="M2790.46,-187.22C2809.66,-187.22 2829.21,-187.22 2848.28,-187.22"/>
<polygon fill="#63b8ff" stroke="#63b8ff" points="2848.25,-190.72 2858.25,-187.22 2848.25,-183.72 2848.25,-190.72"/>
</a>
</g>
</g>
<!-- Node25 -->
<g id="Node000025" class="node">
<title>Node25</title>
<g id="a_Node000025"><a xlink:href="classcom_1_1runehive_1_1game_1_1world_1_1items_1_1containers_1_1_item_container.html#ab45e9f23a35f49a620b43fa8508efa55" target="_top" xlink:title="Determines if this container contains any identifiers.">
<ellipse fill="white" stroke="#666666" cx="3842.39" cy="-82.22" rx="174.13" ry="25.81"/>
<text xml:space="preserve" text-anchor="start" x="3727.26" y="-85.07" font-family="Helvetica,sans-Serif" font-size="12.00">com.runehive.game.world.items.containers.</text>
<text xml:space="preserve" text-anchor="middle" x="3842.39" y="-70.82" font-family="Helvetica,sans-Serif" font-size="12.00">ItemContainer.containsAny</text>
</a>
</g>
</g>
<!-- Node24&#45;&gt;Node25 -->
<g id="edge29_Node000024_Node000025" class="edge">
<title>Node24&#45;&gt;Node25</title>
<g id="a_edge29_Node000024_Node000025"><a xlink:title=" ">
<path fill="none" stroke="#63b8ff" d="M3632.73,-82.22C3640.64,-82.22 3648.55,-82.22 3656.41,-82.22"/>
<polygon fill="#63b8ff" stroke="#63b8ff" points="3656.37,-85.72 3666.37,-82.22 3656.37,-78.72 3656.37,-85.72"/>
</a>
</g>
</g>
<!-- Node26 -->
<g id="Node000026" class="node">
<title>Node26</title>
<g id="a_Node000026"><a xlink:href="classcom_1_1runehive_1_1game_1_1world_1_1items_1_1containers_1_1_item_container.html#a8acf6f1c920076daea6c80e5afbe3404" target="_top" xlink:title="Determines if this container contains id.">
<ellipse fill="white" stroke="#666666" cx="4226.64" cy="-82.22" rx="174.13" ry="25.81"/>
<text xml:space="preserve" text-anchor="start" x="4111.51" y="-85.07" font-family="Helvetica,sans-Serif" font-size="12.00">com.runehive.game.world.items.containers.</text>
<text xml:space="preserve" text-anchor="middle" x="4226.64" y="-70.82" font-family="Helvetica,sans-Serif" font-size="12.00">ItemContainer.contains</text>
</a>
</g>
</g>
<!-- Node25&#45;&gt;Node26 -->
<g id="edge30_Node000025_Node000026" class="edge">
<title>Node25&#45;&gt;Node26</title>
<g id="a_edge30_Node000025_Node000026"><a xlink:title=" ">
<path fill="none" stroke="#63b8ff" d="M4016.9,-82.22C4024.88,-82.22 4032.9,-82.22 4040.91,-82.22"/>
<polygon fill="#63b8ff" stroke="#63b8ff" points="4040.7,-85.72 4050.7,-82.22 4040.7,-78.72 4040.7,-85.72"/>
</a>
</g>
</g>
<!-- Node29 -->
<g id="Node000029" class="node">
<title>Node29</title>
<g id="a_Node000029"><a xlink:href="classcom_1_1runehive_1_1game_1_1world_1_1entity_1_1_entity.html#a64f68055122aaf4af08787378c7ac356" target="_top" xlink:title="Gets the EntityType.">
<ellipse fill="white" stroke="#666666" cx="3002.29" cy="-295.22" rx="132.23" ry="25.81"/>
<text xml:space="preserve" text-anchor="start" x="2916.79" y="-298.07" font-family="Helvetica,sans-Serif" font-size="12.00">com.runehive.game.world.entity.</text>
<text xml:space="preserve" text-anchor="middle" x="3002.29" y="-283.82" font-family="Helvetica,sans-Serif" font-size="12.00">Entity.getType</text>
</a>
</g>
</g>
<!-- Node28&#45;&gt;Node29 -->
<g id="edge33_Node000028_Node000029" class="edge">
<title>Node28&#45;&gt;Node29</title>
<g id="a_edge33_Node000028_Node000029"><a xlink:title=" ">
<path fill="none" stroke="#63b8ff" d="M2758.76,-270.46C2795.74,-274.24 2836,-278.35 2872.91,-282.12"/>
<polygon fill="#63b8ff" stroke="#63b8ff" points="2872.43,-285.59 2882.74,-283.12 2873.14,-278.62 2872.43,-285.59"/>
</a>
</g>
</g>
<!-- Node30&#45;&gt;Node24 -->
<g id="edge35_Node000030_Node000024" class="edge">
<title>Node30&#45;&gt;Node24</title>
<g id="a_edge35_Node000030_Node000024"><a xlink:title=" ">
<path fill="none" stroke="#63b8ff" d="M2730.77,-26.91C2765.39,-20.92 2804.43,-15.18 2840.36,-12.22 2983.82,-0.42 3021.61,7.29 3164.22,-12.22 3222.56,-20.21 3286.47,-38.17 3335.2,-53.9"/>
<polygon fill="#63b8ff" stroke="#63b8ff" points="3333.95,-57.17 3344.54,-56.95 3336.13,-50.52 3333.95,-57.17"/>
</a>
</g>
</g>
<!-- Node31 -->
<g id="Node000031" class="node">
<title>Node31</title>
<g id="a_Node000031"><a xlink:href="classcom_1_1runehive_1_1game_1_1world_1_1entity_1_1combat_1_1_formula_utils.html#a363cfae7c89fe24a1fa44350ce78110a" target="_top" xlink:title=" ">
<ellipse fill="white" stroke="#666666" cx="3002.29" cy="-47.22" rx="161.93" ry="25.81"/>
<text xml:space="preserve" text-anchor="start" x="2895.79" y="-50.07" font-family="Helvetica,sans-Serif" font-size="12.00">com.runehive.game.world.entity.combat.</text>
<text xml:space="preserve" text-anchor="middle" x="3002.29" y="-35.82" font-family="Helvetica,sans-Serif" font-size="12.00">FormulaUtils.voidBase</text>
</a>
</g>
</g>
<!-- Node30&#45;&gt;Node31 -->
<g id="edge36_Node000030_Node000031" class="edge">
<title>Node30&#45;&gt;Node31</title>
<g id="a_edge36_Node000030_Node000031"><a xlink:title=" ">
<path fill="none" stroke="#63b8ff" d="M2790.46,-47.22C2803.14,-47.22 2815.98,-47.22 2828.73,-47.22"/>
<polygon fill="#63b8ff" stroke="#63b8ff" points="2828.39,-50.72 2838.39,-47.22 2828.39,-43.72 2828.39,-50.72"/>
</a>
</g>
</g>
<!-- Node31&#45;&gt;Node24 -->
<g id="edge37_Node000031_Node000024" class="edge">
<title>Node31&#45;&gt;Node24</title>
<g id="a_edge37_Node000031_Node000024"><a xlink:title=" ">
<path fill="none" stroke="#63b8ff" d="M3146.22,-59.37C3172.46,-61.6 3200.22,-63.96 3227.54,-66.28"/>
<polygon fill="#63b8ff" stroke="#63b8ff" points="3227.04,-69.75 3237.3,-67.11 3227.63,-62.77 3227.04,-69.75"/>
</a>
</g>
</g>
<!-- Node32&#45;&gt;Node24 -->
<g id="edge39_Node000032_Node000024" class="edge">
<title>Node32&#45;&gt;Node24</title>
<g id="a_edge39_Node000032_Node000024"><a xlink:title=" ">
<path fill="none" stroke="#63b8ff" d="M3146.22,-105.08C3172.46,-102.85 3200.22,-100.49 3227.54,-98.17"/>
<polygon fill="#63b8ff" stroke="#63b8ff" points="3227.63,-101.68 3237.3,-97.34 3227.04,-94.7 3227.63,-101.68"/>
</a>
</g>
</g>
<!-- Node33&#45;&gt;Node4 -->
<g id="edge41_Node000033_Node000004" class="edge">
<title>Node33&#45;&gt;Node4</title>
<g id="a_edge41_Node000033_Node000004"><a xlink:title=" ">
<path fill="none" stroke="#63b8ff" d="M2361.6,-555.7C2380.14,-560.11 2398.7,-565.54 2415.87,-572.22 2418.07,-573.08 2515.6,-634.21 2577.35,-672.97"/>
<polygon fill="#63b8ff" stroke="#63b8ff" points="2575.33,-675.83 2585.66,-678.18 2579.05,-669.9 2575.33,-675.83"/>
</a>
</g>
</g>
<!-- Node33&#45;&gt;Node11 -->
<g id="edge42_Node000033_Node000011" class="edge">
<title>Node33&#45;&gt;Node11</title>
<g id="a_edge42_Node000033_Node000011"><a xlink:title=" ">
<path fill="none" stroke="#63b8ff" d="M2403,-546.87C2419,-547.76 2435.22,-548.65 2451.22,-549.53"/>
<polygon fill="#63b8ff" stroke="#63b8ff" points="2450.58,-553 2460.76,-550.06 2450.96,-546.01 2450.58,-553"/>
</a>
</g>
</g>
<!-- Node34&#45;&gt;Node13 -->
<g id="edge44_Node000034_Node000013" class="edge">
<title>Node34&#45;&gt;Node13</title>
<g id="a_edge44_Node000034_Node000013"><a xlink:title=" ">
<path fill="none" stroke="#63b8ff" d="M2370.33,-414.35C2410.37,-419.16 2453.75,-424.38 2493.26,-429.13"/>
<polygon fill="#63b8ff" stroke="#63b8ff" points="2492.72,-432.59 2503.07,-430.31 2493.56,-425.64 2492.72,-432.59"/>
</a>
</g>
</g>
<!-- Node35&#45;&gt;Node15 -->
<g id="edge46_Node000035_Node000015" class="edge">
<title>Node35&#45;&gt;Node15</title>
<g id="a_edge46_Node000035_Node000015"><a xlink:title=" ">
<path fill="none" stroke="#63b8ff" d="M2344.98,-277.75C2396.96,-286.87 2458,-297.57 2509.98,-306.69"/>
<polygon fill="#63b8ff" stroke="#63b8ff" points="2509.33,-310.12 2519.78,-308.4 2510.54,-303.23 2509.33,-310.12"/>
</a>
</g>
</g>
</g>
</svg>
