<?xml version="1.0" encoding="UTF-8" standalone="no"?>
<!DOCTYPE svg PUBLIC "-//W3C//DTD SVG 1.1//EN"
 "http://www.w3.org/Graphics/SVG/1.1/DTD/svg11.dtd">
<!-- Generated by graphviz version 14.0.1 (20251006.0113)
 -->
<!-- Title: com.runehive.content.overrides.Overrides.loadPreset Pages: 1 -->
<svg width="2073pt" height="261pt"
 viewBox="0.00 0.00 2073.00 261.00" xmlns="http://www.w3.org/2000/svg" xmlns:xlink="http://www.w3.org/1999/xlink">
<g id="graph0" class="graph" transform="scale(1 1) rotate(0) translate(4 256.77)">
<title>com.runehive.content.overrides.Overrides.loadPreset</title>
<!-- Node1 -->
<g id="Node000001" class="node">
<title>Node1</title>
<g id="a_Node000001"><a xlink:title=" ">
<ellipse fill="#999999" stroke="#666666" cx="131.17" cy="-83.96" rx="131.17" ry="25.81"/>
<text xml:space="preserve" text-anchor="start" x="46.42" y="-86.81" font-family="Helvetica,sans-Serif" font-size="12.00">com.runehive.content.overrides.</text>
<text xml:space="preserve" text-anchor="middle" x="131.17" y="-72.56" font-family="Helvetica,sans-Serif" font-size="12.00">Overrides.loadPreset</text>
</a>
</g>
</g>
<!-- Node2 -->
<g id="Node000002" class="node">
<title>Node2</title>
<g id="a_Node000002"><a xlink:href="classcom_1_1runehive_1_1content_1_1overrides_1_1_overrides.html#ae0390ba37bd8930309ae76d13165f8b1" target="_top" xlink:title=" ">
<ellipse fill="white" stroke="#666666" cx="727.84" cy="-118.96" rx="131.17" ry="25.81"/>
<text xml:space="preserve" text-anchor="start" x="643.09" y="-121.81" font-family="Helvetica,sans-Serif" font-size="12.00">com.runehive.content.overrides.</text>
<text xml:space="preserve" text-anchor="middle" x="727.84" y="-107.56" font-family="Helvetica,sans-Serif" font-size="12.00">Overrides.equipOverride</text>
</a>
</g>
</g>
<!-- Node1&#45;&gt;Node2 -->
<g id="edge1_Node000001_Node000002" class="edge">
<title>Node1&#45;&gt;Node2</title>
<g id="a_edge1_Node000001_Node000002"><a xlink:title=" ">
<path fill="none" stroke="#63b8ff" d="M257.19,-91.32C354.62,-97.05 489.73,-105 590.03,-110.91"/>
<polygon fill="#63b8ff" stroke="#63b8ff" points="589.77,-114.4 599.96,-111.49 590.18,-107.41 589.77,-114.4"/>
</a>
</g>
</g>
<!-- Node9 -->
<g id="Node000009" class="node">
<title>Node9</title>
<g id="a_Node000009"><a xlink:href="classcom_1_1runehive_1_1content_1_1overrides_1_1_overrides.html#a87acfc80422b27d673d0ef1d34978efa" target="_top" xlink:title=" ">
<ellipse fill="white" stroke="#666666" cx="429.5" cy="-56.96" rx="131.17" ry="25.81"/>
<text xml:space="preserve" text-anchor="start" x="344.75" y="-59.81" font-family="Helvetica,sans-Serif" font-size="12.00">com.runehive.content.overrides.</text>
<text xml:space="preserve" text-anchor="middle" x="429.5" y="-45.56" font-family="Helvetica,sans-Serif" font-size="12.00">Overrides.removeAllOverrides</text>
</a>
</g>
</g>
<!-- Node1&#45;&gt;Node9 -->
<g id="edge10_Node000001_Node000009" class="edge">
<title>Node1&#45;&gt;Node9</title>
<g id="a_edge10_Node000001_Node000009"><a xlink:title=" ">
<path fill="none" stroke="#63b8ff" d="M250.99,-73.13C266.54,-71.72 282.54,-70.26 298.26,-68.83"/>
<polygon fill="#63b8ff" stroke="#63b8ff" points="298.51,-72.32 308.15,-67.93 297.87,-65.35 298.51,-72.32"/>
</a>
</g>
</g>
<!-- Node3 -->
<g id="Node000003" class="node">
<title>Node3</title>
<g id="a_Node000003"><a xlink:href="classcom_1_1runehive_1_1content_1_1overrides_1_1_overrides.html#a473dbe0fb03612e73a48ee24e585300b" target="_top" xlink:title=" ">
<ellipse fill="white" stroke="#666666" cx="1027.77" cy="-48.96" rx="131.17" ry="25.81"/>
<text xml:space="preserve" text-anchor="start" x="943.02" y="-51.81" font-family="Helvetica,sans-Serif" font-size="12.00">com.runehive.content.overrides.</text>
<text xml:space="preserve" text-anchor="middle" x="1027.77" y="-37.56" font-family="Helvetica,sans-Serif" font-size="12.00">Overrides.determineContainer</text>
</a>
</g>
</g>
<!-- Node2&#45;&gt;Node3 -->
<g id="edge2_Node000002_Node000003" class="edge">
<title>Node2&#45;&gt;Node3</title>
<g id="a_edge2_Node000002_Node000003"><a xlink:title=" ">
<path fill="none" stroke="#63b8ff" d="M813.42,-99.09C850.06,-90.48 893.13,-80.36 930.95,-71.47"/>
<polygon fill="#63b8ff" stroke="#63b8ff" points="931.57,-74.92 940.51,-69.23 929.97,-68.11 931.57,-74.92"/>
</a>
</g>
</g>
<!-- Node4 -->
<g id="Node000004" class="node">
<title>Node4</title>
<g id="a_Node000004"><a xlink:href="classcom_1_1runehive_1_1game_1_1world_1_1items_1_1_item.html#a5008cb760d4d688a1731e0406d29c335" target="_top" xlink:title="Gets the item definition for the item identifier.">
<ellipse fill="white" stroke="#666666" cx="1329.29" cy="-83.96" rx="132.76" ry="25.81"/>
<text xml:space="preserve" text-anchor="start" x="1243.41" y="-86.81" font-family="Helvetica,sans-Serif" font-size="12.00">com.runehive.game.world.items.</text>
<text xml:space="preserve" text-anchor="middle" x="1329.29" y="-72.56" font-family="Helvetica,sans-Serif" font-size="12.00">Item.getDefinition</text>
</a>
</g>
</g>
<!-- Node2&#45;&gt;Node4 -->
<g id="edge6_Node000002_Node000004" class="edge">
<title>Node2&#45;&gt;Node4</title>
<g id="a_edge6_Node000002_Node000004"><a xlink:title=" ">
<path fill="none" stroke="#63b8ff" d="M809.44,-139.45C836.45,-145.37 866.86,-151.03 895.01,-153.96 1012.38,-166.19 1044.82,-177.13 1160.53,-153.96 1199.76,-146.1 1241.28,-128.86 1273.2,-113.45"/>
<polygon fill="#63b8ff" stroke="#63b8ff" points="1274.42,-116.75 1281.85,-109.2 1271.33,-110.47 1274.42,-116.75"/>
</a>
</g>
</g>
<!-- Node7 -->
<g id="Node000007" class="node">
<title>Node7</title>
<g id="a_Node000007"><a xlink:href="classcom_1_1runehive_1_1game_1_1world_1_1items_1_1_item.html#a1cec21ca5ef1783808d4ca9de1051a29" target="_top" xlink:title="Gets the identification of this item.">
<ellipse fill="white" stroke="#666666" cx="1027.77" cy="-226.96" rx="132.76" ry="25.81"/>
<text xml:space="preserve" text-anchor="start" x="941.89" y="-229.81" font-family="Helvetica,sans-Serif" font-size="12.00">com.runehive.game.world.items.</text>
<text xml:space="preserve" text-anchor="middle" x="1027.77" y="-215.56" font-family="Helvetica,sans-Serif" font-size="12.00">Item.getId</text>
</a>
</g>
</g>
<!-- Node2&#45;&gt;Node7 -->
<g id="edge7_Node000002_Node000007" class="edge">
<title>Node2&#45;&gt;Node7</title>
<g id="a_edge7_Node000002_Node000007"><a xlink:title=" ">
<path fill="none" stroke="#63b8ff" d="M783.35,-142.78C815.55,-156.46 857.27,-173.54 895.01,-186.96 909.6,-192.15 925.24,-197.27 940.47,-202.03"/>
<polygon fill="#63b8ff" stroke="#63b8ff" points="939.43,-205.37 950.02,-204.98 941.5,-198.68 939.43,-205.37"/>
</a>
</g>
</g>
<!-- Node8 -->
<g id="Node000008" class="node">
<title>Node8</title>
<g id="a_Node000008"><a xlink:href="classcom_1_1runehive_1_1content_1_1overrides_1_1_overrides.html#ae0aba8edaecd78de9ab9ab4aab2d3242" target="_top" xlink:title=" ">
<ellipse fill="white" stroke="#666666" cx="1027.77" cy="-118.96" rx="131.17" ry="25.81"/>
<text xml:space="preserve" text-anchor="start" x="943.02" y="-121.81" font-family="Helvetica,sans-Serif" font-size="12.00">com.runehive.content.overrides.</text>
<text xml:space="preserve" text-anchor="middle" x="1027.77" y="-107.56" font-family="Helvetica,sans-Serif" font-size="12.00">Overrides.toggleConfig</text>
</a>
</g>
</g>
<!-- Node2&#45;&gt;Node8 -->
<g id="edge8_Node000002_Node000008" class="edge">
<title>Node2&#45;&gt;Node8</title>
<g id="a_edge8_Node000002_Node000008"><a xlink:title=" ">
<path fill="none" stroke="#63b8ff" d="M859.08,-118.96C867.68,-118.96 876.37,-118.96 885.02,-118.96"/>
<polygon fill="#63b8ff" stroke="#63b8ff" points="884.86,-122.46 894.86,-118.96 884.86,-115.46 884.86,-122.46"/>
</a>
</g>
</g>
<!-- Node3&#45;&gt;Node4 -->
<g id="edge3_Node000003_Node000004" class="edge">
<title>Node3&#45;&gt;Node4</title>
<g id="a_edge3_Node000003_Node000004"><a xlink:title=" ">
<path fill="none" stroke="#63b8ff" d="M1141.58,-62.14C1161.73,-64.5 1182.83,-66.96 1203.29,-69.35"/>
<polygon fill="#63b8ff" stroke="#63b8ff" points="1202.74,-72.81 1213.08,-70.5 1203.56,-65.86 1202.74,-72.81"/>
</a>
</g>
</g>
<!-- Node5 -->
<g id="Node000005" class="node">
<title>Node5</title>
<g id="a_Node000005"><a xlink:href="classcom_1_1runehive_1_1game_1_1world_1_1items_1_1_item_definition.html#a50e4924075ee157cd3f75a8107a595fa" target="_top" xlink:title="Gets an item definition.">
<ellipse fill="white" stroke="#666666" cx="1630.81" cy="-83.96" rx="132.76" ry="25.81"/>
<text xml:space="preserve" text-anchor="start" x="1544.93" y="-86.81" font-family="Helvetica,sans-Serif" font-size="12.00">com.runehive.game.world.items.</text>
<text xml:space="preserve" text-anchor="middle" x="1630.81" y="-72.56" font-family="Helvetica,sans-Serif" font-size="12.00">ItemDefinition.get</text>
</a>
</g>
</g>
<!-- Node4&#45;&gt;Node5 -->
<g id="edge4_Node000004_Node000005" class="edge">
<title>Node4&#45;&gt;Node5</title>
<g id="a_edge4_Node000004_Node000005"><a xlink:title=" ">
<path fill="none" stroke="#63b8ff" d="M1462.53,-83.96C1470.52,-83.96 1478.58,-83.96 1486.61,-83.96"/>
<polygon fill="#63b8ff" stroke="#63b8ff" points="1486.42,-87.46 1496.42,-83.96 1486.42,-80.46 1486.42,-87.46"/>
</a>
</g>
</g>
<!-- Node6 -->
<g id="Node000006" class="node">
<title>Node6</title>
<g id="a_Node000006"><a xlink:href="classcom_1_1runehive_1_1game_1_1world_1_1items_1_1_item_definition.html#a4fafaf641c0490165d697a73006e76bf" target="_top" xlink:title=" ">
<ellipse fill="white" stroke="#666666" cx="1932.32" cy="-83.96" rx="132.76" ry="25.81"/>
<text xml:space="preserve" text-anchor="start" x="1846.45" y="-86.81" font-family="Helvetica,sans-Serif" font-size="12.00">com.runehive.game.world.items.</text>
<text xml:space="preserve" text-anchor="middle" x="1932.32" y="-72.56" font-family="Helvetica,sans-Serif" font-size="12.00">ItemDefinition.ItemDefinition</text>
</a>
</g>
</g>
<!-- Node5&#45;&gt;Node6 -->
<g id="edge5_Node000005_Node000006" class="edge">
<title>Node5&#45;&gt;Node6</title>
<g id="a_edge5_Node000005_Node000006"><a xlink:title=" ">
<path fill="none" stroke="#63b8ff" d="M1764.05,-83.96C1772.04,-83.96 1780.1,-83.96 1788.13,-83.96"/>
<polygon fill="#63b8ff" stroke="#63b8ff" points="1787.94,-87.46 1797.94,-83.96 1787.94,-80.46 1787.94,-87.46"/>
</a>
</g>
</g>
<!-- Node8&#45;&gt;Node4 -->
<g id="edge9_Node000008_Node000004" class="edge">
<title>Node8&#45;&gt;Node4</title>
<g id="a_edge9_Node000008_Node000004"><a xlink:title=" ">
<path fill="none" stroke="#63b8ff" d="M1141.58,-105.78C1161.73,-103.42 1182.83,-100.96 1203.29,-98.57"/>
<polygon fill="#63b8ff" stroke="#63b8ff" points="1203.56,-102.06 1213.08,-97.42 1202.74,-95.11 1203.56,-102.06"/>
</a>
</g>
</g>
<!-- Node10 -->
<g id="Node000010" class="node">
<title>Node10</title>
<g id="a_Node000010"><a xlink:href="classcom_1_1runehive_1_1content_1_1overrides_1_1_overrides.html#a574c7c0b4ae542b0dc4bb99eb0ac819a" target="_top" xlink:title=" ">
<ellipse fill="white" stroke="#666666" cx="727.84" cy="-48.96" rx="131.17" ry="25.81"/>
<text xml:space="preserve" text-anchor="start" x="643.09" y="-51.81" font-family="Helvetica,sans-Serif" font-size="12.00">com.runehive.content.overrides.</text>
<text xml:space="preserve" text-anchor="middle" x="727.84" y="-37.56" font-family="Helvetica,sans-Serif" font-size="12.00">Overrides.removeOverride</text>
</a>
</g>
</g>
<!-- Node9&#45;&gt;Node10 -->
<g id="edge11_Node000009_Node000010" class="edge">
<title>Node9&#45;&gt;Node10</title>
<g id="a_edge11_Node000009_Node000010"><a xlink:title=" ">
<path fill="none" stroke="#63b8ff" d="M559.62,-53.47C568.5,-53.23 577.48,-52.99 586.42,-52.75"/>
<polygon fill="#63b8ff" stroke="#63b8ff" points="586.29,-56.25 596.2,-52.49 586.11,-49.26 586.29,-56.25"/>
</a>
</g>
</g>
<!-- Node10&#45;&gt;Node3 -->
<g id="edge12_Node000010_Node000003" class="edge">
<title>Node10&#45;&gt;Node3</title>
<g id="a_edge12_Node000010_Node000003"><a xlink:title=" ">
<path fill="none" stroke="#63b8ff" d="M859.08,-48.96C867.68,-48.96 876.37,-48.96 885.02,-48.96"/>
<polygon fill="#63b8ff" stroke="#63b8ff" points="884.86,-52.46 894.86,-48.96 884.86,-45.46 884.86,-52.46"/>
</a>
</g>
</g>
<!-- Node10&#45;&gt;Node4 -->
<g id="edge13_Node000010_Node000004" class="edge">
<title>Node10&#45;&gt;Node4</title>
<g id="a_edge13_Node000010_Node000004"><a xlink:title=" ">
<path fill="none" stroke="#63b8ff" d="M809.44,-28.47C836.45,-22.55 866.86,-16.89 895.01,-13.96 1012.38,-1.73 1044.82,9.21 1160.53,-13.96 1199.76,-21.82 1241.28,-39.06 1273.2,-54.46"/>
<polygon fill="#63b8ff" stroke="#63b8ff" points="1271.33,-57.45 1281.85,-58.72 1274.42,-51.16 1271.33,-57.45"/>
</a>
</g>
</g>
<!-- Node10&#45;&gt;Node8 -->
<g id="edge14_Node000010_Node000008" class="edge">
<title>Node10&#45;&gt;Node8</title>
<g id="a_edge14_Node000010_Node000008"><a xlink:title=" ">
<path fill="none" stroke="#63b8ff" d="M813.42,-68.83C850.06,-77.44 893.13,-87.56 930.95,-96.44"/>
<polygon fill="#63b8ff" stroke="#63b8ff" points="929.97,-99.81 940.51,-98.69 931.57,-93 929.97,-99.81"/>
</a>
</g>
</g>
</g>
</svg>
