<?xml version="1.0" encoding="UTF-8" standalone="no"?>
<!DOCTYPE svg PUBLIC "-//W3C//DTD SVG 1.1//EN"
 "http://www.w3.org/Graphics/SVG/1.1/DTD/svg11.dtd">
<!-- Generated by graphviz version 14.0.1 (20251006.0113)
 -->
<!-- Title: com.runehive.content.skill.impl.cooking.Cooking.success Pages: 1 -->
<svg width="1650pt" height="410pt"
 viewBox="0.00 0.00 1650.00 410.00" xmlns="http://www.w3.org/2000/svg" xmlns:xlink="http://www.w3.org/1999/xlink">
<g id="graph0" class="graph" transform="scale(1 1) rotate(0) translate(4 405.62)">
<title>com.runehive.content.skill.impl.cooking.Cooking.success</title>
<!-- Node1 -->
<g id="Node000001" class="node">
<title>Node1</title>
<g id="a_Node000001"><a xlink:title=" ">
<ellipse fill="#999999" stroke="#666666" cx="160.87" cy="-178.81" rx="160.87" ry="25.81"/>
<text xml:space="preserve" text-anchor="start" x="55.12" y="-181.66" font-family="Helvetica,sans-Serif" font-size="12.00">com.runehive.content.skill.impl.cooking.</text>
<text xml:space="preserve" text-anchor="middle" x="160.87" y="-167.41" font-family="Helvetica,sans-Serif" font-size="12.00">Cooking.success</text>
</a>
</g>
</g>
<!-- Node2 -->
<g id="Node000002" class="node">
<title>Node2</title>
<g id="a_Node000002"><a xlink:href="classcom_1_1runehive_1_1game_1_1world_1_1items_1_1containers_1_1equipment_1_1_equipment.html#a04929f978aa4b3de9b9ce3a290c93401" target="_top" xlink:title=" ">
<ellipse fill="white" stroke="#666666" cx="573.75" cy="-362.81" rx="216.02" ry="25.81"/>
<text xml:space="preserve" text-anchor="start" x="429" y="-365.66" font-family="Helvetica,sans-Serif" font-size="12.00">com.runehive.game.world.items.containers.equipment.</text>
<text xml:space="preserve" text-anchor="middle" x="573.75" y="-351.41" font-family="Helvetica,sans-Serif" font-size="12.00">Equipment.contains</text>
</a>
</g>
</g>
<!-- Node1&#45;&gt;Node2 -->
<g id="edge1_Node000001_Node000002" class="edge">
<title>Node1&#45;&gt;Node2</title>
<g id="a_edge1_Node000001_Node000002"><a xlink:title=" ">
<path fill="none" stroke="#63b8ff" d="M195.92,-204.43C233.72,-231.83 297.38,-274.96 357.73,-301.81 389.48,-315.93 425.34,-327.64 458.53,-336.9"/>
<polygon fill="#63b8ff" stroke="#63b8ff" points="457.18,-340.15 467.75,-339.41 459.02,-333.4 457.18,-340.15"/>
</a>
</g>
</g>
<!-- Node5 -->
<g id="Node000005" class="node">
<title>Node5</title>
<g id="a_Node000005"><a xlink:href="classcom_1_1runehive_1_1game_1_1world_1_1entity_1_1skill_1_1_skill_manager.html#a413f91a2ac68dc4f5d610c7195caf347" target="_top" xlink:title="Gets the level of a skill.">
<ellipse fill="white" stroke="#666666" cx="573.75" cy="-248.81" rx="149.2" ry="25.81"/>
<text xml:space="preserve" text-anchor="start" x="476.25" y="-251.66" font-family="Helvetica,sans-Serif" font-size="12.00">com.runehive.game.world.entity.skill.</text>
<text xml:space="preserve" text-anchor="middle" x="573.75" y="-237.41" font-family="Helvetica,sans-Serif" font-size="12.00">SkillManager.getLevel</text>
</a>
</g>
</g>
<!-- Node1&#45;&gt;Node5 -->
<g id="edge4_Node000001_Node000005" class="edge">
<title>Node1&#45;&gt;Node5</title>
<g id="a_edge4_Node000001_Node000005"><a xlink:title=" ">
<path fill="none" stroke="#63b8ff" d="M269.06,-198.27C297.84,-203.41 328.96,-208.9 357.73,-213.81 388.12,-219 420.94,-224.43 451.58,-229.42"/>
<polygon fill="#63b8ff" stroke="#63b8ff" points="450.83,-232.85 461.27,-231 451.96,-225.94 450.83,-232.85"/>
</a>
</g>
</g>
<!-- Node6 -->
<g id="Node000006" class="node">
<title>Node6</title>
<g id="a_Node000006"><a xlink:href="enumcom_1_1runehive_1_1content_1_1skillcape_1_1_skill_cape.html#a8e2e75d7f005cf0f2a3a1874711f2d4d" target="_top" xlink:title=" ">
<ellipse fill="white" stroke="#666666" cx="573.75" cy="-178.81" rx="129.58" ry="25.81"/>
<text xml:space="preserve" text-anchor="start" x="490.13" y="-181.66" font-family="Helvetica,sans-Serif" font-size="12.00">com.runehive.content.skillcape.</text>
<text xml:space="preserve" text-anchor="middle" x="573.75" y="-167.41" font-family="Helvetica,sans-Serif" font-size="12.00">SkillCape.isEquipped</text>
</a>
</g>
</g>
<!-- Node1&#45;&gt;Node6 -->
<g id="edge6_Node000001_Node000006" class="edge">
<title>Node1&#45;&gt;Node6</title>
<g id="a_edge6_Node000001_Node000006"><a xlink:title=" ">
<path fill="none" stroke="#63b8ff" d="M322.2,-178.81C358.57,-178.81 396.93,-178.81 432.41,-178.81"/>
<polygon fill="#63b8ff" stroke="#63b8ff" points="432.3,-182.31 442.3,-178.81 432.3,-175.31 432.3,-182.31"/>
</a>
</g>
</g>
<!-- Node11 -->
<g id="Node000011" class="node">
<title>Node11</title>
<g id="a_Node000011"><a xlink:href="classcom_1_1runehive_1_1util_1_1_utility.html#a0961417523881e9a3bef6e9da541942a" target="_top" xlink:title=" ">
<ellipse fill="white" stroke="#666666" cx="573.75" cy="-100.81" rx="129.05" ry="15.73"/>
<text xml:space="preserve" text-anchor="middle" x="573.75" y="-96.53" font-family="Helvetica,sans-Serif" font-size="12.00">com.runehive.util.Utility.random</text>
</a>
</g>
</g>
<!-- Node1&#45;&gt;Node11 -->
<g id="edge11_Node000001_Node000011" class="edge">
<title>Node1&#45;&gt;Node11</title>
<g id="a_edge11_Node000001_Node000011"><a xlink:title=" ">
<path fill="none" stroke="#63b8ff" d="M266.35,-158.98C336.02,-145.75 426.32,-128.61 490.8,-116.37"/>
<polygon fill="#63b8ff" stroke="#63b8ff" points="491.07,-119.88 500.24,-114.58 489.76,-113 491.07,-119.88"/>
</a>
</g>
</g>
<!-- Node12 -->
<g id="Node000012" class="node">
<title>Node12</title>
<g id="a_Node000012"><a xlink:href="classcom_1_1runehive_1_1game_1_1world_1_1entity_1_1skill_1_1_skill.html#af7d5922b9dc2d188abf081584f1d7ef0" target="_top" xlink:title="Constructs a new Skill.">
<ellipse fill="white" stroke="#666666" cx="573.75" cy="-39.81" rx="149.2" ry="25.81"/>
<text xml:space="preserve" text-anchor="start" x="476.25" y="-42.66" font-family="Helvetica,sans-Serif" font-size="12.00">com.runehive.game.world.entity.skill.</text>
<text xml:space="preserve" text-anchor="middle" x="573.75" y="-28.41" font-family="Helvetica,sans-Serif" font-size="12.00">Skill.Skill</text>
</a>
</g>
</g>
<!-- Node1&#45;&gt;Node12 -->
<g id="edge13_Node000001_Node000012" class="edge">
<title>Node1&#45;&gt;Node12</title>
<g id="a_edge13_Node000001_Node000012"><a xlink:title=" ">
<path fill="none" stroke="#63b8ff" d="M201.08,-153.38C239.47,-129.67 300.39,-95.13 357.73,-75.81 382.61,-67.43 409.78,-60.95 436.18,-55.95"/>
<polygon fill="#63b8ff" stroke="#63b8ff" points="436.75,-59.41 445.96,-54.17 435.49,-52.52 436.75,-59.41"/>
</a>
</g>
</g>
<!-- Node3 -->
<g id="Node000003" class="node">
<title>Node3</title>
<g id="a_Node000003"><a xlink:href="classcom_1_1runehive_1_1game_1_1world_1_1items_1_1containers_1_1_item_container.html#ab45e9f23a35f49a620b43fa8508efa55" target="_top" xlink:title="Determines if this container contains any identifiers.">
<ellipse fill="white" stroke="#666666" cx="1041.8" cy="-375.81" rx="174.13" ry="25.81"/>
<text xml:space="preserve" text-anchor="start" x="926.67" y="-378.66" font-family="Helvetica,sans-Serif" font-size="12.00">com.runehive.game.world.items.containers.</text>
<text xml:space="preserve" text-anchor="middle" x="1041.8" y="-364.41" font-family="Helvetica,sans-Serif" font-size="12.00">ItemContainer.containsAny</text>
</a>
</g>
</g>
<!-- Node2&#45;&gt;Node3 -->
<g id="edge2_Node000002_Node000003" class="edge">
<title>Node2&#45;&gt;Node3</title>
<g id="a_edge2_Node000002_Node000003"><a xlink:title=" ">
<path fill="none" stroke="#63b8ff" d="M784.6,-368.66C809.31,-369.35 834.38,-370.05 858.67,-370.73"/>
<polygon fill="#63b8ff" stroke="#63b8ff" points="858.54,-374.23 868.64,-371.01 858.74,-367.23 858.54,-374.23"/>
</a>
</g>
</g>
<!-- Node4 -->
<g id="Node000004" class="node">
<title>Node4</title>
<g id="a_Node000004"><a xlink:href="classcom_1_1runehive_1_1game_1_1world_1_1items_1_1containers_1_1_item_container.html#a8acf6f1c920076daea6c80e5afbe3404" target="_top" xlink:title="Determines if this container contains id.">
<ellipse fill="white" stroke="#666666" cx="1467.94" cy="-375.81" rx="174.13" ry="25.81"/>
<text xml:space="preserve" text-anchor="start" x="1352.82" y="-378.66" font-family="Helvetica,sans-Serif" font-size="12.00">com.runehive.game.world.items.containers.</text>
<text xml:space="preserve" text-anchor="middle" x="1467.94" y="-364.41" font-family="Helvetica,sans-Serif" font-size="12.00">ItemContainer.contains</text>
</a>
</g>
</g>
<!-- Node3&#45;&gt;Node4 -->
<g id="edge3_Node000003_Node000004" class="edge">
<title>Node3&#45;&gt;Node4</title>
<g id="a_edge3_Node000003_Node000004"><a xlink:title=" ">
<path fill="none" stroke="#63b8ff" d="M1216.23,-375.81C1237.97,-375.81 1260.26,-375.81 1282.16,-375.81"/>
<polygon fill="#63b8ff" stroke="#63b8ff" points="1282.06,-379.31 1292.06,-375.81 1282.06,-372.31 1282.06,-379.31"/>
</a>
</g>
</g>
<!-- Node5&#45;&gt;Node5 -->
<g id="edge5_Node000005_Node000005" class="edge">
<title>Node5&#45;&gt;Node5</title>
<g id="a_edge5_Node000005_Node000005"><a xlink:title=" ">
<path fill="none" stroke="#63b8ff" d="M498.63,-271.35C488.23,-282.59 513.27,-292.62 573.75,-292.62 612.97,-292.62 637.29,-288.4 646.71,-282.37"/>
<polygon fill="#63b8ff" stroke="#63b8ff" points="650.09,-283.32 648.59,-272.84 643.22,-281.97 650.09,-283.32"/>
</a>
</g>
</g>
<!-- Node7 -->
<g id="Node000007" class="node">
<title>Node7</title>
<g id="a_Node000007"><a xlink:href="classcom_1_1runehive_1_1game_1_1world_1_1items_1_1containers_1_1equipment_1_1_equipment.html#aab354419bc54be848b4da84f7a16df63" target="_top" xlink:title=" ">
<ellipse fill="white" stroke="#666666" cx="1041.8" cy="-305.81" rx="216.02" ry="25.81"/>
<text xml:space="preserve" text-anchor="start" x="897.05" y="-308.66" font-family="Helvetica,sans-Serif" font-size="12.00">com.runehive.game.world.items.containers.equipment.</text>
<text xml:space="preserve" text-anchor="middle" x="1041.8" y="-294.41" font-family="Helvetica,sans-Serif" font-size="12.00">Equipment.getCape</text>
</a>
</g>
</g>
<!-- Node6&#45;&gt;Node7 -->
<g id="edge7_Node000006_Node000007" class="edge">
<title>Node6&#45;&gt;Node7</title>
<g id="a_edge7_Node000006_Node000007"><a xlink:title=" ">
<path fill="none" stroke="#63b8ff" d="M702.72,-181.77C733.13,-187.14 764.15,-196.86 789.78,-213.81 814.77,-230.34 800.79,-254.28 825.78,-270.81 835,-276.91 844.93,-282.08 855.27,-286.44"/>
<polygon fill="#63b8ff" stroke="#63b8ff" points="853.75,-289.6 864.34,-289.99 856.3,-283.08 853.75,-289.6"/>
</a>
</g>
</g>
<!-- Node8 -->
<g id="Node000008" class="node">
<title>Node8</title>
<g id="a_Node000008"><a xlink:href="classcom_1_1runehive_1_1game_1_1world_1_1items_1_1_item.html#a1cec21ca5ef1783808d4ca9de1051a29" target="_top" xlink:title="Gets the identification of this item.">
<ellipse fill="white" stroke="#666666" cx="1041.8" cy="-235.81" rx="132.76" ry="25.81"/>
<text xml:space="preserve" text-anchor="start" x="955.92" y="-238.66" font-family="Helvetica,sans-Serif" font-size="12.00">com.runehive.game.world.items.</text>
<text xml:space="preserve" text-anchor="middle" x="1041.8" y="-224.41" font-family="Helvetica,sans-Serif" font-size="12.00">Item.getId</text>
</a>
</g>
</g>
<!-- Node6&#45;&gt;Node8 -->
<g id="edge8_Node000006_Node000008" class="edge">
<title>Node6&#45;&gt;Node8</title>
<g id="a_edge8_Node000006_Node000008"><a xlink:title=" ">
<path fill="none" stroke="#63b8ff" d="M685.2,-192.32C754.82,-200.83 844.86,-211.84 916.91,-220.66"/>
<polygon fill="#63b8ff" stroke="#63b8ff" points="916.46,-224.13 926.81,-221.87 917.31,-217.18 916.46,-224.13"/>
</a>
</g>
</g>
<!-- Node9 -->
<g id="Node000009" class="node">
<title>Node9</title>
<g id="a_Node000009"><a xlink:href="enumcom_1_1runehive_1_1content_1_1skillcape_1_1_skill_cape.html#aee16d723f26396ffda3d57e42b2a01ac" target="_top" xlink:title=" ">
<ellipse fill="white" stroke="#666666" cx="1041.8" cy="-165.81" rx="129.58" ry="25.81"/>
<text xml:space="preserve" text-anchor="start" x="958.17" y="-168.66" font-family="Helvetica,sans-Serif" font-size="12.00">com.runehive.content.skillcape.</text>
<text xml:space="preserve" text-anchor="middle" x="1041.8" y="-154.41" font-family="Helvetica,sans-Serif" font-size="12.00">SkillCape.getItemId</text>
</a>
</g>
</g>
<!-- Node6&#45;&gt;Node9 -->
<g id="edge9_Node000006_Node000009" class="edge">
<title>Node6&#45;&gt;Node9</title>
<g id="a_edge9_Node000006_Node000009"><a xlink:title=" ">
<path fill="none" stroke="#63b8ff" d="M702.41,-175.25C764.19,-173.53 838.48,-171.45 901.69,-169.69"/>
<polygon fill="#63b8ff" stroke="#63b8ff" points="901.54,-173.2 911.44,-169.42 901.35,-166.2 901.54,-173.2"/>
</a>
</g>
</g>
<!-- Node10 -->
<g id="Node000010" class="node">
<title>Node10</title>
<g id="a_Node000010"><a xlink:href="enumcom_1_1runehive_1_1content_1_1skillcape_1_1_skill_cape.html#a5544008a3881e7b50e8cd1dbe88702f3" target="_top" xlink:title=" ">
<ellipse fill="white" stroke="#666666" cx="1041.8" cy="-95.81" rx="129.58" ry="25.81"/>
<text xml:space="preserve" text-anchor="start" x="958.17" y="-98.66" font-family="Helvetica,sans-Serif" font-size="12.00">com.runehive.content.skillcape.</text>
<text xml:space="preserve" text-anchor="middle" x="1041.8" y="-84.41" font-family="Helvetica,sans-Serif" font-size="12.00">SkillCape.SkillCape</text>
</a>
</g>
</g>
<!-- Node6&#45;&gt;Node10 -->
<g id="edge10_Node000006_Node000010" class="edge">
<title>Node6&#45;&gt;Node10</title>
<g id="a_edge10_Node000006_Node000010"><a xlink:title=" ">
<path fill="none" stroke="#63b8ff" d="M684.13,-165.01C718.25,-159.64 755.82,-152.62 789.78,-143.81 806.24,-139.54 809.31,-135.08 825.78,-130.81 856.02,-122.96 889.13,-116.53 920.11,-111.43"/>
<polygon fill="#63b8ff" stroke="#63b8ff" points="920.61,-114.89 929.93,-109.84 919.5,-107.98 920.61,-114.89"/>
</a>
</g>
</g>
<!-- Node11&#45;&gt;Node11 -->
<g id="edge12_Node000011_Node000011" class="edge">
<title>Node11&#45;&gt;Node11</title>
<g id="a_edge12_Node000011_Node000011"><a xlink:title=" ">
<path fill="none" stroke="#63b8ff" d="M505.07,-114.49C481.91,-124.51 504.81,-134.54 573.75,-134.54 625.47,-134.54 651.27,-128.9 651.17,-121.85"/>
<polygon fill="#63b8ff" stroke="#63b8ff" points="653.5,-119.23 643.59,-115.47 648.99,-124.59 653.5,-119.23"/>
</a>
</g>
</g>
<!-- Node13 -->
<g id="Node000013" class="node">
<title>Node13</title>
<g id="a_Node000013"><a xlink:href="classcom_1_1runehive_1_1game_1_1world_1_1entity_1_1skill_1_1_skill.html#a36501346a8b435a10918cd89a7677cc0" target="_top" xlink:title="Gets the level for a given experience amount.">
<ellipse fill="white" stroke="#666666" cx="1041.8" cy="-25.81" rx="149.2" ry="25.81"/>
<text xml:space="preserve" text-anchor="start" x="944.3" y="-28.66" font-family="Helvetica,sans-Serif" font-size="12.00">com.runehive.game.world.entity.skill.</text>
<text xml:space="preserve" text-anchor="middle" x="1041.8" y="-14.41" font-family="Helvetica,sans-Serif" font-size="12.00">Skill.getLevelForExperience</text>
</a>
</g>
</g>
<!-- Node12&#45;&gt;Node13 -->
<g id="edge14_Node000012_Node000013" class="edge">
<title>Node12&#45;&gt;Node13</title>
<g id="a_edge14_Node000012_Node000013"><a xlink:title=" ">
<path fill="none" stroke="#63b8ff" d="M721.25,-35.41C772.72,-33.86 830.75,-32.12 883.1,-30.55"/>
<polygon fill="#63b8ff" stroke="#63b8ff" points="883.12,-34.05 893.01,-30.25 882.91,-27.05 883.12,-34.05"/>
</a>
</g>
</g>
<!-- Node14 -->
<g id="Node000014" class="node">
<title>Node14</title>
<g id="a_Node000014"><a xlink:href="classcom_1_1runehive_1_1game_1_1world_1_1entity_1_1skill_1_1_skill.html#a8ccd3bb8873995593a36bebea52b5b9a" target="_top" xlink:title="Performs a binary search to quickly search for the level at the given experience.">
<ellipse fill="white" stroke="#666666" cx="1467.94" cy="-25.81" rx="149.2" ry="25.81"/>
<text xml:space="preserve" text-anchor="start" x="1370.44" y="-28.66" font-family="Helvetica,sans-Serif" font-size="12.00">com.runehive.game.world.entity.skill.</text>
<text xml:space="preserve" text-anchor="middle" x="1467.94" y="-14.41" font-family="Helvetica,sans-Serif" font-size="12.00">Skill.binarySearch</text>
</a>
</g>
</g>
<!-- Node13&#45;&gt;Node14 -->
<g id="edge15_Node000013_Node000014" class="edge">
<title>Node13&#45;&gt;Node14</title>
<g id="a_edge15_Node000013_Node000014"><a xlink:title=" ">
<path fill="none" stroke="#63b8ff" d="M1191.44,-25.81C1228.93,-25.81 1269.34,-25.81 1307.34,-25.81"/>
<polygon fill="#63b8ff" stroke="#63b8ff" points="1307.01,-29.31 1317.01,-25.81 1307.01,-22.31 1307.01,-29.31"/>
</a>
</g>
</g>
<!-- Node14&#45;&gt;Node14 -->
<g id="edge16_Node000014_Node000014" class="edge">
<title>Node14&#45;&gt;Node14</title>
<g id="a_edge16_Node000014_Node000014"><a xlink:title=" ">
<path fill="none" stroke="#63b8ff" d="M1390.85,-47.9C1378.99,-59.32 1404.69,-69.62 1467.94,-69.62 1508.96,-69.62 1534.19,-65.29 1543.62,-59.13"/>
<polygon fill="#63b8ff" stroke="#63b8ff" points="1547.07,-59.76 1544.85,-49.4 1540.12,-58.88 1547.07,-59.76"/>
</a>
</g>
</g>
</g>
</svg>
