<?xml version="1.0" encoding="UTF-8" standalone="no"?>
<!DOCTYPE svg PUBLIC "-//W3C//DTD SVG 1.1//EN"
 "http://www.w3.org/Graphics/SVG/1.1/DTD/svg11.dtd">
<!-- Generated by graphviz version 14.0.1 (20251006.0113)
 -->
<!-- Title: com.runehive.content.pet.Pets.openLostPets Pages: 1 -->
<!--zoomable 253 -->

<svg id="main" version="1.1" xmlns="http://www.w3.org/2000/svg" xmlns:xlink="http://www.w3.org/1999/xlink" xml:space="preserve" onload="init(evt)">

<style type="text/css"><![CDATA[
.node, .edge {opacity: 0.7;}
.node.selected, .edge.selected {opacity: 1;}
.edge:hover path { stroke: red; }
.edge:hover polygon { stroke: red; fill: red; }
]]></style>

<defs>
  <circle id="rim" cx="0" cy="0" r="7"/>
  <circle id="rim2" cx="0" cy="0" r="3.5"/>
  <g id="zoomPlus">
    <use xlink:href="#rim" fill="#404040"><set attributeName="fill" to="#808080" begin="zoomplus.mouseover" end="zoomplus.mouseout"/></use>
    <path d="M-4,0h8M0,-4v8" fill="none" stroke="white" stroke-width="1.5" pointer-events="none"/>
  </g>
  <g id="zoomMin">
    <use xlink:href="#rim" fill="#404040"><set attributeName="fill" to="#808080" begin="zoomminus.mouseover" end="zoomminus.mouseout"/></use>
    <path d="M-4,0h8" fill="none" stroke="white" stroke-width="1.5" pointer-events="none"/>
  </g>
  <g id="arrowUp" transform="translate(30 24)">
    <use xlink:href="#rim"/>
    <path pointer-events="none" fill="none" stroke="white" stroke-width="1.5" d="M0,-3.0v7 M-2.5,-0.5L0,-3.0L2.5,-0.5"/>
  </g>
  <g id="arrowRight" transform="rotate(90) translate(36 -43)">
    <use xlink:href="#rim"/>
    <path pointer-events="none" fill="none" stroke="white" stroke-width="1.5" d="M0,-3.0v7 M-2.5,-0.5L0,-3.0L2.5,-0.5"/>
  </g>
  <g id="arrowDown" transform="rotate(180) translate(-30 -48)">
    <use xlink:href="#rim"/>
    <path pointer-events="none" fill="none" stroke="white" stroke-width="1.5" d="M0,-3.0v7 M-2.5,-0.5L0,-3.0L2.5,-0.5"/>
  </g>
  <g id="arrowLeft" transform="rotate(270) translate(-36 17)">
    <use xlink:href="#rim"/>
    <path pointer-events="none" fill="none" stroke="white" stroke-width="1.5" d="M0,-3.0v7 M-2.5,-0.5L0,-3.0L2.5,-0.5"/>
  </g>
  <g id="resetDef">
    <use xlink:href="#rim2" fill="#404040"><set attributeName="fill" to="#808080" begin="reset.mouseover" end="reset.mouseout"/></use>
  </g>
</defs>
<script type="application/ecmascript">
var viewWidth = 1245;
var viewHeight = 253;
var sectionId = 'dynsection-21';
</script>
<script type="application/ecmascript" xlink:href="svg.min.js"/>
<svg id="graph" class="graph">
<g id="viewport">
<title>com.runehive.content.pet.Pets.openLostPets</title>
<!-- Node1 -->
<g id="Node000001" class="node">
<title>Node1</title>
<g id="a_Node000001"><a xlink:title="Handles opening the insurance interface.">
<ellipse fill="#999999" stroke="#666666" cx="107.83" cy="-130.81" rx="107.83" ry="25.81"/>
<text xml:space="preserve" text-anchor="start" x="39.58" y="-133.66" font-family="Helvetica,sans-Serif" font-size="12.00">com.runehive.content.pet.</text>
<text xml:space="preserve" text-anchor="middle" x="107.83" y="-119.41" font-family="Helvetica,sans-Serif" font-size="12.00">Pets.openLostPets</text>
</a>
</g>
</g>
<!-- Node2 -->
<g id="Node000002" class="node">
<title>Node2</title>
<g id="a_Node000002"><a xlink:href="classcom_1_1runehive_1_1util_1_1_utility.html#a490026d68b72e2dea391680a7d49a844" target="_top" xlink:title="Formats digits for integers.">
<ellipse fill="white" stroke="#666666" cx="427.38" cy="-218.81" rx="123.74" ry="25.81"/>
<text xml:space="preserve" text-anchor="start" x="347.88" y="-221.66" font-family="Helvetica,sans-Serif" font-size="12.00">com.runehive.util.Utility.format</text>
<text xml:space="preserve" text-anchor="middle" x="427.38" y="-207.41" font-family="Helvetica,sans-Serif" font-size="12.00">Digits</text>
</a>
</g>
</g>
<!-- Node1&#45;&gt;Node2 -->
<g id="edge1_Node000001_Node000002" class="edge">
<title>Node1&#45;&gt;Node2</title>
<g id="a_edge1_Node000001_Node000002"><a xlink:title=" ">
<path fill="none" stroke="#63b8ff" d="M163.44,-153.38C189.78,-163.67 222.02,-175.4 251.67,-183.81 273.41,-189.98 296.96,-195.48 319.53,-200.18"/>
<polygon fill="#63b8ff" stroke="#63b8ff" points="318.54,-203.55 329.04,-202.13 319.94,-196.7 318.54,-203.55"/>
</a>
</g>
</g>
<!-- Node3 -->
<g id="Node000003" class="node">
<title>Node3</title>
<g id="a_Node000003"><a xlink:href="classcom_1_1runehive_1_1game_1_1world_1_1entity_1_1mob_1_1player_1_1_interface_manager.html#adebec4d4ec0e26a757e34f40cd0c7626" target="_top" xlink:title="Opens an interface for the player.">
<ellipse fill="white" stroke="#666666" cx="427.38" cy="-130.81" rx="175.72" ry="25.81"/>
<text xml:space="preserve" text-anchor="start" x="311.13" y="-133.66" font-family="Helvetica,sans-Serif" font-size="12.00">com.runehive.game.world.entity.mob.player.</text>
<text xml:space="preserve" text-anchor="middle" x="427.38" y="-119.41" font-family="Helvetica,sans-Serif" font-size="12.00">InterfaceManager.open</text>
</a>
</g>
</g>
<!-- Node1&#45;&gt;Node3 -->
<g id="edge2_Node000001_Node000003" class="edge">
<title>Node1&#45;&gt;Node3</title>
<g id="a_edge2_Node000001_Node000003"><a xlink:title=" ">
<path fill="none" stroke="#63b8ff" d="M215.9,-130.81C223.82,-130.81 231.94,-130.81 240.15,-130.81"/>
<polygon fill="#63b8ff" stroke="#63b8ff" points="239.9,-134.31 249.9,-130.81 239.9,-127.31 239.9,-134.31"/>
</a>
</g>
</g>
<!-- Node4 -->
<g id="Node000004" class="node">
<title>Node4</title>
<g id="a_Node000004"><a xlink:href="classcom_1_1runehive_1_1game_1_1world_1_1entity_1_1mob_1_1player_1_1_player.html#ab8309e5d532b7540f48bf25f8dea92a8" target="_top" xlink:title=" ">
<ellipse fill="white" stroke="#666666" cx="427.38" cy="-60.81" rx="175.72" ry="25.81"/>
<text xml:space="preserve" text-anchor="start" x="311.13" y="-63.66" font-family="Helvetica,sans-Serif" font-size="12.00">com.runehive.game.world.entity.mob.player.</text>
<text xml:space="preserve" text-anchor="middle" x="427.38" y="-49.41" font-family="Helvetica,sans-Serif" font-size="12.00">Player.send</text>
</a>
</g>
</g>
<!-- Node1&#45;&gt;Node4 -->
<g id="edge4_Node000001_Node000004" class="edge">
<title>Node1&#45;&gt;Node4</title>
<g id="a_edge4_Node000001_Node000004"><a xlink:title=" ">
<path fill="none" stroke="#63b8ff" d="M183.2,-111.95C205.2,-106.55 229.36,-100.77 251.67,-95.81 269.97,-91.74 289.4,-87.63 308.39,-83.73"/>
<polygon fill="#63b8ff" stroke="#63b8ff" points="308.93,-87.2 318.03,-81.77 307.53,-80.34 308.93,-87.2"/>
</a>
</g>
</g>
<!-- Node3&#45;&gt;Node3 -->
<g id="edge3_Node000003_Node000003" class="edge">
<title>Node3&#45;&gt;Node3</title>
<g id="a_edge3_Node000003_Node000003"><a xlink:title=" ">
<path fill="none" stroke="#63b8ff" d="M368.49,-155.58C364.43,-165.88 384.06,-174.62 427.38,-174.62 455.14,-174.62 473.17,-171.03 481.48,-165.75"/>
<polygon fill="#63b8ff" stroke="#63b8ff" points="484.53,-167.49 485.63,-156.95 478.2,-164.5 484.53,-167.49"/>
</a>
</g>
</g>
<!-- Node5 -->
<g id="Node000005" class="node">
<title>Node5</title>
<g id="a_Node000005"><a xlink:href="classcom_1_1runehive_1_1net_1_1packet_1_1_outgoing_packet.html#a3dde4d77b8c8bbd686b8e121fd6514a7" target="_top" xlink:title=" ">
<ellipse fill="white" stroke="#666666" cx="744.28" cy="-60.81" rx="105.18" ry="25.81"/>
<text xml:space="preserve" text-anchor="start" x="677.91" y="-63.66" font-family="Helvetica,sans-Serif" font-size="12.00">com.runehive.net.packet.</text>
<text xml:space="preserve" text-anchor="middle" x="744.28" y="-49.41" font-family="Helvetica,sans-Serif" font-size="12.00">OutgoingPacket.execute</text>
</a>
</g>
</g>
<!-- Node4&#45;&gt;Node5 -->
<g id="edge5_Node000004_Node000005" class="edge">
<title>Node4&#45;&gt;Node5</title>
<g id="a_edge5_Node000004_Node000005"><a xlink:title=" ">
<path fill="none" stroke="#63b8ff" d="M603.33,-60.81C611.41,-60.81 619.44,-60.81 627.31,-60.81"/>
<polygon fill="#63b8ff" stroke="#63b8ff" points="627.21,-64.31 637.21,-60.81 627.21,-57.31 627.21,-64.31"/>
</a>
</g>
</g>
<!-- Node6 -->
<g id="Node000006" class="node">
<title>Node6</title>
<g id="a_Node000006"><a xlink:href="classcom_1_1runehive_1_1net_1_1packet_1_1_outgoing_packet.html#a74fc13c106ab76f87daec1e8bab6a2a1" target="_top" xlink:title=" ">
<ellipse fill="white" stroke="#666666" cx="1061.18" cy="-95.81" rx="105.18" ry="25.81"/>
<text xml:space="preserve" text-anchor="start" x="994.8" y="-98.66" font-family="Helvetica,sans-Serif" font-size="12.00">com.runehive.net.packet.</text>
<text xml:space="preserve" text-anchor="middle" x="1061.18" y="-84.41" font-family="Helvetica,sans-Serif" font-size="12.00">OutgoingPacket.encode</text>
</a>
</g>
</g>
<!-- Node5&#45;&gt;Node6 -->
<g id="edge6_Node000005_Node000006" class="edge">
<title>Node5&#45;&gt;Node6</title>
<g id="a_edge6_Node000005_Node000006"><a xlink:title=" ">
<path fill="none" stroke="#63b8ff" d="M840.62,-71.41C876.22,-75.36 916.86,-79.88 953.42,-83.94"/>
<polygon fill="#63b8ff" stroke="#63b8ff" points="952.8,-87.4 963.12,-85.02 953.57,-80.44 952.8,-87.4"/>
</a>
</g>
</g>
<!-- Node7 -->
<g id="Node000007" class="node">
<title>Node7</title>
<g id="a_Node000007"><a xlink:href="classcom_1_1runehive_1_1game_1_1world_1_1entity_1_1mob_1_1player_1_1_player.html#a908fb61974719a74180d6300b838bfe1" target="_top" xlink:title=" ">
<ellipse fill="white" stroke="#666666" cx="1061.18" cy="-25.81" rx="175.72" ry="25.81"/>
<text xml:space="preserve" text-anchor="start" x="944.93" y="-28.66" font-family="Helvetica,sans-Serif" font-size="12.00">com.runehive.game.world.entity.mob.player.</text>
<text xml:space="preserve" text-anchor="middle" x="1061.18" y="-14.41" font-family="Helvetica,sans-Serif" font-size="12.00">Player.getSession</text>
</a>
</g>
</g>
<!-- Node5&#45;&gt;Node7 -->
<g id="edge7_Node000005_Node000007" class="edge">
<title>Node5&#45;&gt;Node7</title>
<g id="a_edge7_Node000005_Node000007"><a xlink:title=" ">
<path fill="none" stroke="#63b8ff" d="M840.62,-50.21C862.01,-47.84 885.22,-45.26 908.27,-42.69"/>
<polygon fill="#63b8ff" stroke="#63b8ff" points="908.51,-46.19 918.06,-41.61 907.74,-39.23 908.51,-46.19"/>
</a>
</g>
</g>
</g>
</svg>

<g id="navigator" transform="translate(0 0)" fill="#404254">
  <rect fill="#f2f5e9" fill-opacity="0.5" stroke="#606060" stroke-width=".5" x="0" y="0" width="60" height="60"/>
  <use id="zoomplus" xlink:href="#zoomPlus" x="17" y="9" onmousedown="handleZoom(evt,'in')"/>
  <use id="zoomminus" xlink:href="#zoomMin" x="42" y="9" onmousedown="handleZoom(evt,'out')"/>
  <use id="reset" xlink:href="#resetDef" x="30" y="36" onmousedown="handleReset()"/>
   <use id="arrowup" xlink:href="#arrowUp" x="0" y="0" onmousedown="handlePan(0,-1)"/>
  <use id="arrowright" xlink:href="#arrowRight" x="0" y="0" onmousedown="handlePan(1,0)"/>
  <use id="arrowdown" xlink:href="#arrowDown" x="0" y="0" onmousedown="handlePan(0,1)"/>
  <use id="arrowleft" xlink:href="#arrowLeft" x="0" y="0" onmousedown="handlePan(-1,0)"/>
</g>
<svg viewBox="0 0 15 15" width="100%" height="30px" preserveAspectRatio="xMaxYMin meet">
 <g id="arrow_out" transform="scale(0.3 0.3)">
  <a xlink:href="classcom_1_1runehive_1_1content_1_1pet_1_1_pets_abe4413943065590978daa83e2e109011_cgraph_org.svg" target="_base">
   <rect id="button" ry="5" rx="5" y="6" x="6" height="38" width="38"
        fill="#f2f5e9" fill-opacity="0.5" stroke="#606060" stroke-width="1.0"/>
   <path id="arrow"
     d="M 11.500037,31.436501 C 11.940474,20.09759 22.043105,11.32322 32.158766,21.979434 L 37.068811,17.246167 C 37.068811,17.246167 37.088388,32 37.088388,32 L 22.160133,31.978069 C 22.160133,31.978069 26.997745,27.140456 26.997745,27.140456 C 18.528582,18.264221 13.291696,25.230495 11.500037,31.436501 z"
     style="fill:#404040;"/>
  </a>
 </g>
</svg>

<style type='text/css'>
<![CDATA[
[data-mouse-over-selected='false'] { opacity: 0.7; }
[data-mouse-over-selected='true']  { opacity: 1.0; }
]]>
</style>
<script type="application/ecmascript"><![CDATA[
document.addEventListener('DOMContentLoaded', (event) => {
  highlightEdges();
  highlightAdjacentNodes();
});
]]></script>
</svg>
