<?xml version="1.0" encoding="UTF-8" standalone="no"?>
<!DOCTYPE svg PUBLIC "-//W3C//DTD SVG 1.1//EN"
 "http://www.w3.org/Graphics/SVG/1.1/DTD/svg11.dtd">
<!-- Generated by graphviz version 14.0.1 (20251006.0113)
 -->
<!-- Title: com.runehive.net.session.LoginSession.evaluate Pages: 1 -->
<!--zoomable 868 -->

<svg id="main" version="1.1" xmlns="http://www.w3.org/2000/svg" xmlns:xlink="http://www.w3.org/1999/xlink" xml:space="preserve" onload="init(evt)">

<style type="text/css"><![CDATA[
.node, .edge {opacity: 0.7;}
.node.selected, .edge.selected {opacity: 1;}
.edge:hover path { stroke: red; }
.edge:hover polygon { stroke: red; fill: red; }
]]></style>

<defs>
  <circle id="rim" cx="0" cy="0" r="7"/>
  <circle id="rim2" cx="0" cy="0" r="3.5"/>
  <g id="zoomPlus">
    <use xlink:href="#rim" fill="#404040"><set attributeName="fill" to="#808080" begin="zoomplus.mouseover" end="zoomplus.mouseout"/></use>
    <path d="M-4,0h8M0,-4v8" fill="none" stroke="white" stroke-width="1.5" pointer-events="none"/>
  </g>
  <g id="zoomMin">
    <use xlink:href="#rim" fill="#404040"><set attributeName="fill" to="#808080" begin="zoomminus.mouseover" end="zoomminus.mouseout"/></use>
    <path d="M-4,0h8" fill="none" stroke="white" stroke-width="1.5" pointer-events="none"/>
  </g>
  <g id="arrowUp" transform="translate(30 24)">
    <use xlink:href="#rim"/>
    <path pointer-events="none" fill="none" stroke="white" stroke-width="1.5" d="M0,-3.0v7 M-2.5,-0.5L0,-3.0L2.5,-0.5"/>
  </g>
  <g id="arrowRight" transform="rotate(90) translate(36 -43)">
    <use xlink:href="#rim"/>
    <path pointer-events="none" fill="none" stroke="white" stroke-width="1.5" d="M0,-3.0v7 M-2.5,-0.5L0,-3.0L2.5,-0.5"/>
  </g>
  <g id="arrowDown" transform="rotate(180) translate(-30 -48)">
    <use xlink:href="#rim"/>
    <path pointer-events="none" fill="none" stroke="white" stroke-width="1.5" d="M0,-3.0v7 M-2.5,-0.5L0,-3.0L2.5,-0.5"/>
  </g>
  <g id="arrowLeft" transform="rotate(270) translate(-36 17)">
    <use xlink:href="#rim"/>
    <path pointer-events="none" fill="none" stroke="white" stroke-width="1.5" d="M0,-3.0v7 M-2.5,-0.5L0,-3.0L2.5,-0.5"/>
  </g>
  <g id="resetDef">
    <use xlink:href="#rim2" fill="#404040"><set attributeName="fill" to="#808080" begin="reset.mouseover" end="reset.mouseout"/></use>
  </g>
</defs>
<script type="application/ecmascript">
var viewWidth = 1609;
var viewHeight = 868;
var sectionId = 'dynsection-5';
</script>
<script type="application/ecmascript" xlink:href="svg.min.js"/>
<svg id="graph" class="graph">
<g id="viewport">
<title>com.runehive.net.session.LoginSession.evaluate</title>
<!-- Node1 -->
<g id="Node000001" class="node">
<title>Node1</title>
<g id="a_Node000001"><a xlink:title=" ">
<ellipse fill="#999999" stroke="#666666" cx="109.42" cy="-305.81" rx="109.42" ry="25.81"/>
<text xml:space="preserve" text-anchor="start" x="40.05" y="-308.66" font-family="Helvetica,sans-Serif" font-size="12.00">com.runehive.net.session.</text>
<text xml:space="preserve" text-anchor="middle" x="109.42" y="-294.41" font-family="Helvetica,sans-Serif" font-size="12.00">LoginSession.evaluate</text>
</a>
</g>
</g>
<!-- Node2 -->
<g id="Node000002" class="node">
<title>Node2</title>
<g id="a_Node000002"><a xlink:href="classcom_1_1runehive_1_1net_1_1session_1_1_login_session.html#aa10d374ad12b0f0cc159313b2d7b6122" target="_top" xlink:title=" ">
<ellipse fill="white" stroke="#666666" cx="457.61" cy="-588.81" rx="158.75" ry="25.81"/>
<text xml:space="preserve" text-anchor="start" x="353.36" y="-591.66" font-family="Helvetica,sans-Serif" font-size="12.00">com.runehive.net.session.</text>
<text xml:space="preserve" text-anchor="middle" x="457.61" y="-577.41" font-family="Helvetica,sans-Serif" font-size="12.00">LoginSession.authenticatedForumUser</text>
</a>
</g>
</g>
<!-- Node1&#45;&gt;Node2 -->
<g id="edge1_Node000001_Node000002" class="edge">
<title>Node1&#45;&gt;Node2</title>
<g id="a_edge1_Node000001_Node000002"><a xlink:title=" ">
<path fill="none" stroke="#63b8ff" d="M141.15,-330.92C203.91,-382.23 346.8,-499.04 416.66,-556.15"/>
<polygon fill="#63b8ff" stroke="#63b8ff" points="414.08,-558.56 424.04,-562.18 418.51,-553.14 414.08,-558.56"/>
</a>
</g>
</g>
<!-- Node4 -->
<g id="Node000004" class="node">
<title>Node4</title>
<g id="a_Node000004"><a xlink:href="classcom_1_1runehive_1_1game_1_1world_1_1entity_1_1mob_1_1player_1_1_player.html#ad17590f818866bf633df9ac5c519b982" target="_top" xlink:title=" ">
<ellipse fill="white" stroke="#666666" cx="872.09" cy="-833.81" rx="175.72" ry="25.81"/>
<text xml:space="preserve" text-anchor="start" x="755.84" y="-836.66" font-family="Helvetica,sans-Serif" font-size="12.00">com.runehive.game.world.entity.mob.player.</text>
<text xml:space="preserve" text-anchor="middle" x="872.09" y="-822.41" font-family="Helvetica,sans-Serif" font-size="12.00">Player.getPassword</text>
</a>
</g>
</g>
<!-- Node1&#45;&gt;Node4 -->
<g id="edge12_Node000001_Node000004" class="edge">
<title>Node1&#45;&gt;Node4</title>
<g id="a_edge12_Node000001_Node000004"><a xlink:title=" ">
<path fill="none" stroke="#63b8ff" d="M115.34,-331.9C127.89,-391.66 166.59,-539.76 254.85,-623.81 380.67,-743.62 577.57,-795.26 714.83,-817.4"/>
<polygon fill="#63b8ff" stroke="#63b8ff" points="713.92,-820.8 724.35,-818.9 715.01,-813.89 713.92,-820.8"/>
</a>
</g>
</g>
<!-- Node5 -->
<g id="Node000005" class="node">
<title>Node5</title>
<g id="a_Node000005"><a xlink:href="classcom_1_1runehive_1_1game_1_1world_1_1entity_1_1mob_1_1player_1_1_player.html#abc025401d6c96ea483428bfbfbbe59f4" target="_top" xlink:title=" ">
<ellipse fill="white" stroke="#666666" cx="872.09" cy="-413.81" rx="175.72" ry="25.81"/>
<text xml:space="preserve" text-anchor="start" x="755.84" y="-416.66" font-family="Helvetica,sans-Serif" font-size="12.00">com.runehive.game.world.entity.mob.player.</text>
<text xml:space="preserve" text-anchor="middle" x="872.09" y="-402.41" font-family="Helvetica,sans-Serif" font-size="12.00">Player.getUsername</text>
</a>
</g>
</g>
<!-- Node1&#45;&gt;Node5 -->
<g id="edge17_Node000001_Node000005" class="edge">
<title>Node1&#45;&gt;Node5</title>
<g id="a_edge17_Node000001_Node000005"><a xlink:title=" ">
<path fill="none" stroke="#63b8ff" d="M151.2,-330.08C179.31,-345.52 218.08,-364.33 254.85,-373.81 397.55,-410.62 564.68,-419.43 688.85,-419.7"/>
<polygon fill="#63b8ff" stroke="#63b8ff" points="688.84,-423.2 698.84,-419.7 688.84,-416.2 688.84,-423.2"/>
</a>
</g>
</g>
<!-- Node10 -->
<g id="Node000010" class="node">
<title>Node10</title>
<g id="a_Node000010"><a xlink:href="classcom_1_1runehive_1_1util_1_1_utility.html#a13cc7b1fc7531adccfa698ac2b3b4381" target="_top" xlink:title="Converts the first 12 characters in a string of text to a hash.">
<ellipse fill="white" stroke="#666666" cx="1205.43" cy="-421.81" rx="121.62" ry="25.81"/>
<text xml:space="preserve" text-anchor="start" x="1127.43" y="-424.66" font-family="Helvetica,sans-Serif" font-size="12.00">com.runehive.util.Utility.name</text>
<text xml:space="preserve" text-anchor="middle" x="1205.43" y="-410.41" font-family="Helvetica,sans-Serif" font-size="12.00">ToLong</text>
</a>
</g>
</g>
<!-- Node1&#45;&gt;Node10 -->
<g id="edge19_Node000001_Node000010" class="edge">
<title>Node1&#45;&gt;Node10</title>
<g id="a_edge19_Node000001_Node000010"><a xlink:title=" ">
<path fill="none" stroke="#63b8ff" d="M180.79,-325.7C204.17,-331.54 230.46,-337.3 254.85,-340.81 604.09,-391.03 699.37,-323.32 1047.81,-378.81 1073.88,-382.96 1101.84,-389.83 1126.81,-396.87"/>
<polygon fill="#63b8ff" stroke="#63b8ff" points="1125.65,-400.18 1136.23,-399.58 1127.59,-393.45 1125.65,-400.18"/>
</a>
</g>
</g>
<!-- Node12 -->
<g id="Node000012" class="node">
<title>Node12</title>
<g id="a_Node000012"><a xlink:href="classcom_1_1runehive_1_1game_1_1world_1_1_world.html#a78b6f9160d3fddbf0b88b8b4c58715da" target="_top" xlink:title=" ">
<ellipse fill="white" stroke="#666666" cx="457.61" cy="-235.81" rx="110.49" ry="25.81"/>
<text xml:space="preserve" text-anchor="start" x="387.49" y="-238.66" font-family="Helvetica,sans-Serif" font-size="12.00">com.runehive.game.world.</text>
<text xml:space="preserve" text-anchor="middle" x="457.61" y="-224.41" font-family="Helvetica,sans-Serif" font-size="12.00">World.getPlayerByHash</text>
</a>
</g>
</g>
<!-- Node1&#45;&gt;Node12 -->
<g id="edge13_Node000001_Node000012" class="edge">
<title>Node1&#45;&gt;Node12</title>
<g id="a_edge13_Node000001_Node000012"><a xlink:title=" ">
<path fill="none" stroke="#63b8ff" d="M184.8,-286.79C207.24,-281.32 231.99,-275.56 254.85,-270.81 287,-264.13 322.21,-257.72 354.1,-252.25"/>
<polygon fill="#63b8ff" stroke="#63b8ff" points="354.46,-255.73 363.73,-250.6 353.29,-248.83 354.46,-255.73"/>
</a>
</g>
</g>
<!-- Node14 -->
<g id="Node000014" class="node">
<title>Node14</title>
<g id="a_Node000014"><a xlink:href="classcom_1_1runehive_1_1game_1_1world_1_1_world.html#a33188d9a5420dcca7303a36f4a8ec1d6" target="_top" xlink:title="Gets the amount of valid players online.">
<ellipse fill="white" stroke="#666666" cx="457.61" cy="-305.81" rx="110.49" ry="25.81"/>
<text xml:space="preserve" text-anchor="start" x="387.49" y="-308.66" font-family="Helvetica,sans-Serif" font-size="12.00">com.runehive.game.world.</text>
<text xml:space="preserve" text-anchor="middle" x="457.61" y="-294.41" font-family="Helvetica,sans-Serif" font-size="12.00">World.getPlayerCount</text>
</a>
</g>
</g>
<!-- Node1&#45;&gt;Node14 -->
<g id="edge15_Node000001_Node000014" class="edge">
<title>Node1&#45;&gt;Node14</title>
<g id="a_edge15_Node000001_Node000014"><a xlink:title=" ">
<path fill="none" stroke="#63b8ff" d="M219.01,-305.81C256.1,-305.81 297.8,-305.81 335.79,-305.81"/>
<polygon fill="#63b8ff" stroke="#63b8ff" points="335.41,-309.31 345.41,-305.81 335.41,-302.31 335.41,-309.31"/>
</a>
</g>
</g>
<!-- Node16 -->
<g id="Node000016" class="node">
<title>Node16</title>
<g id="a_Node000016"><a xlink:href="classcom_1_1runehive_1_1game_1_1world_1_1entity_1_1mob_1_1player_1_1persist_1_1_player_serializer.html#a86f143885d70505908c20aa8f2f3c08d" target="_top" xlink:title=" ">
<ellipse fill="white" stroke="#666666" cx="457.61" cy="-165.81" rx="202.76" ry="25.81"/>
<text xml:space="preserve" text-anchor="start" x="322.24" y="-168.66" font-family="Helvetica,sans-Serif" font-size="12.00">com.runehive.game.world.entity.mob.player.persist.</text>
<text xml:space="preserve" text-anchor="middle" x="457.61" y="-154.41" font-family="Helvetica,sans-Serif" font-size="12.00">PlayerSerializer.load</text>
</a>
</g>
</g>
<!-- Node1&#45;&gt;Node16 -->
<g id="edge18_Node000001_Node000016" class="edge">
<title>Node1&#45;&gt;Node16</title>
<g id="a_edge18_Node000001_Node000016"><a xlink:title=" ">
<path fill="none" stroke="#63b8ff" d="M137.11,-280.51C164.45,-256.09 209.31,-220.07 254.85,-200.81 268.22,-195.15 282.46,-190.41 296.95,-186.43"/>
<polygon fill="#63b8ff" stroke="#63b8ff" points="297.81,-189.83 306.61,-183.92 296.05,-183.05 297.81,-189.83"/>
</a>
</g>
</g>
<!-- Node17 -->
<g id="Node000017" class="node">
<title>Node17</title>
<g id="a_Node000017"><a xlink:href="classcom_1_1runehive_1_1game_1_1world_1_1_world.html#a590d2ef2c73cff5df6003fe2440f317d" target="_top" xlink:title="Gets a player by name.">
<ellipse fill="white" stroke="#666666" cx="457.61" cy="-95.81" rx="110.49" ry="25.81"/>
<text xml:space="preserve" text-anchor="start" x="387.49" y="-98.66" font-family="Helvetica,sans-Serif" font-size="12.00">com.runehive.game.world.</text>
<text xml:space="preserve" text-anchor="middle" x="457.61" y="-84.41" font-family="Helvetica,sans-Serif" font-size="12.00">World.search</text>
</a>
</g>
</g>
<!-- Node1&#45;&gt;Node17 -->
<g id="edge20_Node000001_Node000017" class="edge">
<title>Node1&#45;&gt;Node17</title>
<g id="a_edge20_Node000001_Node000017"><a xlink:title=" ">
<path fill="none" stroke="#63b8ff" d="M123.93,-279.75C145.76,-240.48 192.69,-166.92 254.85,-130.81 279.61,-116.42 308.77,-107.63 337.1,-102.32"/>
<polygon fill="#63b8ff" stroke="#63b8ff" points="337.58,-105.79 346.84,-100.65 336.39,-98.89 337.58,-105.79"/>
</a>
</g>
</g>
<!-- Node18 -->
<g id="Node000018" class="node">
<title>Node18</title>
<g id="a_Node000018"><a xlink:href="classcom_1_1runehive_1_1game_1_1world_1_1_world.html#adef7de867e0fc33646528b2ecbea207e" target="_top" xlink:title=" ">
<ellipse fill="white" stroke="#666666" cx="457.61" cy="-25.81" rx="110.49" ry="25.81"/>
<text xml:space="preserve" text-anchor="start" x="387.49" y="-28.66" font-family="Helvetica,sans-Serif" font-size="12.00">com.runehive.game.world.</text>
<text xml:space="preserve" text-anchor="middle" x="457.61" y="-14.41" font-family="Helvetica,sans-Serif" font-size="12.00">World.searchAll</text>
</a>
</g>
</g>
<!-- Node1&#45;&gt;Node18 -->
<g id="edge21_Node000001_Node000018" class="edge">
<title>Node1&#45;&gt;Node18</title>
<g id="a_edge21_Node000001_Node000018"><a xlink:title=" ">
<path fill="none" stroke="#63b8ff" d="M117.75,-279.64C133.53,-228.48 175.86,-115.43 254.85,-60.81 278.54,-44.43 307.43,-34.92 335.87,-29.56"/>
<polygon fill="#63b8ff" stroke="#63b8ff" points="336.39,-33.02 345.66,-27.89 335.22,-26.12 336.39,-33.02"/>
</a>
</g>
</g>
<!-- Node3 -->
<g id="Node000003" class="node">
<title>Node3</title>
<g id="a_Node000003"><a xlink:href="classcom_1_1runehive_1_1game_1_1service_1_1_forum_service.html#a728adb7858b1c54ac7ce13ec61916942" target="_top" xlink:title=" ">
<ellipse fill="white" stroke="#666666" cx="872.09" cy="-763.81" rx="139.12" ry="25.81"/>
<text xml:space="preserve" text-anchor="start" x="781.72" y="-766.66" font-family="Helvetica,sans-Serif" font-size="12.00">com.runehive.game.service.</text>
<text xml:space="preserve" text-anchor="middle" x="872.09" y="-752.41" font-family="Helvetica,sans-Serif" font-size="12.00">ForumService.getConnectionPool</text>
</a>
</g>
</g>
<!-- Node2&#45;&gt;Node3 -->
<g id="edge2_Node000002_Node000003" class="edge">
<title>Node2&#45;&gt;Node3</title>
<g id="a_edge2_Node000002_Node000003"><a xlink:title=" ">
<path fill="none" stroke="#63b8ff" d="M502.05,-613.89C543.01,-637.61 606.04,-674.32 660.38,-706.81 676.47,-716.43 678.91,-721.97 696.38,-728.81 713.39,-735.47 731.86,-740.92 750.2,-745.37"/>
<polygon fill="#63b8ff" stroke="#63b8ff" points="749.27,-748.74 759.81,-747.59 750.86,-741.93 749.27,-748.74"/>
</a>
</g>
</g>
<!-- Node2&#45;&gt;Node4 -->
<g id="edge3_Node000002_Node000004" class="edge">
<title>Node2&#45;&gt;Node4</title>
<g id="a_edge3_Node000002_Node000004"><a xlink:title=" ">
<path fill="none" stroke="#63b8ff" d="M522.14,-612.73C566.17,-632.16 623.33,-663.47 660.38,-706.81 688.91,-740.18 662.73,-770.6 696.38,-798.81 703.37,-804.67 711.07,-809.65 719.23,-813.87"/>
<polygon fill="#63b8ff" stroke="#63b8ff" points="717.47,-816.91 728.01,-818 720.45,-810.58 717.47,-816.91"/>
</a>
</g>
</g>
<!-- Node2&#45;&gt;Node5 -->
<g id="edge4_Node000002_Node000005" class="edge">
<title>Node2&#45;&gt;Node5</title>
<g id="a_edge4_Node000002_Node000005"><a xlink:title=" ">
<path fill="none" stroke="#63b8ff" d="M493.36,-563.25C538.07,-531.61 619.18,-478.3 696.38,-448.81 709.85,-443.66 724.21,-439.23 738.68,-435.42"/>
<polygon fill="#63b8ff" stroke="#63b8ff" points="739.45,-438.84 748.29,-433 737.74,-432.05 739.45,-438.84"/>
</a>
</g>
</g>
<!-- Node6 -->
<g id="Node000006" class="node">
<title>Node6</title>
<g id="a_Node000006"><a xlink:href="classcom_1_1runehive_1_1net_1_1session_1_1_login_session.html#ae87ef0117b0e7a1befc39b2cd1141463" target="_top" xlink:title=" ">
<ellipse fill="white" stroke="#666666" cx="872.09" cy="-693.81" rx="109.42" ry="25.81"/>
<text xml:space="preserve" text-anchor="start" x="802.72" y="-696.66" font-family="Helvetica,sans-Serif" font-size="12.00">com.runehive.net.session.</text>
<text xml:space="preserve" text-anchor="middle" x="872.09" y="-682.41" font-family="Helvetica,sans-Serif" font-size="12.00">LoginSession.isBanned</text>
</a>
</g>
</g>
<!-- Node2&#45;&gt;Node6 -->
<g id="edge5_Node000002_Node000006" class="edge">
<title>Node2&#45;&gt;Node6</title>
<g id="a_edge5_Node000002_Node000006"><a xlink:title=" ">
<path fill="none" stroke="#63b8ff" d="M531.53,-612.1C578.34,-626.6 640.6,-645.04 696.38,-658.81 721.23,-664.94 748.27,-670.77 773.49,-675.85"/>
<polygon fill="#63b8ff" stroke="#63b8ff" points="772.58,-679.23 783.07,-677.75 773.95,-672.37 772.58,-679.23"/>
</a>
</g>
</g>
<!-- Node7 -->
<g id="Node000007" class="node">
<title>Node7</title>
<g id="a_Node000007"><a xlink:href="classcom_1_1runehive_1_1game_1_1world_1_1entity_1_1mob_1_1player_1_1_player.html#a32e73ff71622efe30d2d42c565d5669e" target="_top" xlink:title=" ">
<ellipse fill="white" stroke="#666666" cx="872.09" cy="-623.81" rx="175.72" ry="25.81"/>
<text xml:space="preserve" text-anchor="start" x="755.84" y="-626.66" font-family="Helvetica,sans-Serif" font-size="12.00">com.runehive.game.world.entity.mob.player.</text>
<text xml:space="preserve" text-anchor="middle" x="872.09" y="-612.41" font-family="Helvetica,sans-Serif" font-size="12.00">Player.setMemberId</text>
</a>
</g>
</g>
<!-- Node2&#45;&gt;Node7 -->
<g id="edge6_Node000002_Node000007" class="edge">
<title>Node2&#45;&gt;Node7</title>
<g id="a_edge6_Node000002_Node000007"><a xlink:title=" ">
<path fill="none" stroke="#63b8ff" d="M599.41,-600.76C634.31,-603.72 672,-606.92 707.87,-609.96"/>
<polygon fill="#63b8ff" stroke="#63b8ff" points="707.17,-613.41 717.43,-610.77 707.76,-606.44 707.17,-613.41"/>
</a>
</g>
</g>
<!-- Node8 -->
<g id="Node000008" class="node">
<title>Node8</title>
<g id="a_Node000008"><a xlink:href="classcom_1_1runehive_1_1game_1_1world_1_1entity_1_1mob_1_1player_1_1_player.html#a22fa267b11adf828a85731fcb728317f" target="_top" xlink:title=" ">
<ellipse fill="white" stroke="#666666" cx="872.09" cy="-553.81" rx="175.72" ry="25.81"/>
<text xml:space="preserve" text-anchor="start" x="755.84" y="-556.66" font-family="Helvetica,sans-Serif" font-size="12.00">com.runehive.game.world.entity.mob.player.</text>
<text xml:space="preserve" text-anchor="middle" x="872.09" y="-542.41" font-family="Helvetica,sans-Serif" font-size="12.00">Player.setPassword</text>
</a>
</g>
</g>
<!-- Node2&#45;&gt;Node8 -->
<g id="edge7_Node000002_Node000008" class="edge">
<title>Node2&#45;&gt;Node8</title>
<g id="a_edge7_Node000002_Node000008"><a xlink:title=" ">
<path fill="none" stroke="#63b8ff" d="M599.41,-576.86C634.31,-573.9 672,-570.7 707.87,-567.66"/>
<polygon fill="#63b8ff" stroke="#63b8ff" points="707.76,-571.18 717.43,-566.85 707.17,-564.21 707.76,-571.18"/>
</a>
</g>
</g>
<!-- Node9 -->
<g id="Node000009" class="node">
<title>Node9</title>
<g id="a_Node000009"><a xlink:href="classcom_1_1runehive_1_1game_1_1world_1_1entity_1_1mob_1_1player_1_1_player.html#a0d295a4ce078269e927a6de92a72ba77" target="_top" xlink:title=" ">
<ellipse fill="white" stroke="#666666" cx="872.09" cy="-483.81" rx="175.72" ry="25.81"/>
<text xml:space="preserve" text-anchor="start" x="755.84" y="-486.66" font-family="Helvetica,sans-Serif" font-size="12.00">com.runehive.game.world.entity.mob.player.</text>
<text xml:space="preserve" text-anchor="middle" x="872.09" y="-472.41" font-family="Helvetica,sans-Serif" font-size="12.00">Player.setUsername</text>
</a>
</g>
</g>
<!-- Node2&#45;&gt;Node9 -->
<g id="edge8_Node000002_Node000009" class="edge">
<title>Node2&#45;&gt;Node9</title>
<g id="a_edge8_Node000002_Node000009"><a xlink:title=" ">
<path fill="none" stroke="#63b8ff" d="M531.53,-565.52C578.34,-551.02 640.6,-532.58 696.38,-518.81 713.79,-514.51 732.27,-510.37 750.45,-506.52"/>
<polygon fill="#63b8ff" stroke="#63b8ff" points="751.16,-509.95 760.23,-504.48 749.73,-503.1 751.16,-509.95"/>
</a>
</g>
</g>
<!-- Node9&#45;&gt;Node10 -->
<g id="edge9_Node000009_Node000010" class="edge">
<title>Node9&#45;&gt;Node10</title>
<g id="a_edge9_Node000009_Node000010"><a xlink:title=" ">
<path fill="none" stroke="#63b8ff" d="M982.5,-463.34C1020.93,-456.15 1063.95,-448.1 1101.8,-441.01"/>
<polygon fill="#63b8ff" stroke="#63b8ff" points="1102.17,-444.5 1111.36,-439.22 1100.89,-437.62 1102.17,-444.5"/>
</a>
</g>
</g>
<!-- Node11 -->
<g id="Node000011" class="node">
<title>Node11</title>
<g id="a_Node000011"><a xlink:href="classcom_1_1runehive_1_1util_1_1_utility.html#a31d61a706664cf644fd3780f89897e26" target="_top" xlink:title=" ">
<ellipse fill="white" stroke="#666666" cx="1482.02" cy="-421.81" rx="118.97" ry="15.73"/>
<text xml:space="preserve" text-anchor="middle" x="1482.02" y="-417.53" font-family="Helvetica,sans-Serif" font-size="12.00">com.runehive.util.Utility.hash</text>
</a>
</g>
</g>
<!-- Node10&#45;&gt;Node11 -->
<g id="edge10_Node000010_Node000011" class="edge">
<title>Node10&#45;&gt;Node11</title>
<g id="a_edge10_Node000010_Node000011"><a xlink:title=" ">
<path fill="none" stroke="#63b8ff" d="M1327.27,-421.81C1335.29,-421.81 1343.38,-421.81 1351.44,-421.81"/>
<polygon fill="#63b8ff" stroke="#63b8ff" points="1351.29,-425.31 1361.29,-421.81 1351.29,-418.31 1351.29,-425.31"/>
</a>
</g>
</g>
<!-- Node11&#45;&gt;Node11 -->
<g id="edge11_Node000011_Node000011" class="edge">
<title>Node11&#45;&gt;Node11</title>
<g id="a_edge11_Node000011_Node000011"><a xlink:title=" ">
<path fill="none" stroke="#63b8ff" d="M1434.73,-436.37C1421.42,-446.09 1437.18,-455.54 1482.02,-455.54 1508.3,-455.54 1524.59,-452.3 1530.89,-447.65"/>
<polygon fill="#63b8ff" stroke="#63b8ff" points="1534.38,-447.29 1529.52,-437.87 1527.44,-448.26 1534.38,-447.29"/>
</a>
</g>
</g>
<!-- Node13 -->
<g id="Node000013" class="node">
<title>Node13</title>
<g id="a_Node000013"><a xlink:href="classcom_1_1runehive_1_1game_1_1world_1_1_world.html#a18b7d62253b5c8d79814b9bcbe212ab0" target="_top" xlink:title=" ">
<ellipse fill="white" stroke="#666666" cx="872.09" cy="-130.81" rx="110.49" ry="25.81"/>
<text xml:space="preserve" text-anchor="start" x="801.97" y="-133.66" font-family="Helvetica,sans-Serif" font-size="12.00">com.runehive.game.world.</text>
<text xml:space="preserve" text-anchor="middle" x="872.09" y="-119.41" font-family="Helvetica,sans-Serif" font-size="12.00">World.World</text>
</a>
</g>
</g>
<!-- Node12&#45;&gt;Node13 -->
<g id="edge14_Node000012_Node000013" class="edge">
<title>Node12&#45;&gt;Node13</title>
<g id="a_edge14_Node000012_Node000013"><a xlink:title=" ">
<path fill="none" stroke="#63b8ff" d="M552.9,-222.44C586.99,-216.82 625.64,-209.54 660.38,-200.81 708.25,-188.78 760.95,-171.27 801.68,-156.77"/>
<polygon fill="#63b8ff" stroke="#63b8ff" points="802.64,-160.14 810.87,-153.47 800.28,-153.55 802.64,-160.14"/>
</a>
</g>
</g>
<!-- Node15 -->
<g id="Node000015" class="node">
<title>Node15</title>
<g id="a_Node000015"><a xlink:href="classcom_1_1runehive_1_1game_1_1world_1_1_world.html#aea9414faed608c5daf7defab8f0a1f07" target="_top" xlink:title=" ">
<ellipse fill="white" stroke="#666666" cx="872.09" cy="-305.81" rx="110.49" ry="25.81"/>
<text xml:space="preserve" text-anchor="start" x="801.97" y="-308.66" font-family="Helvetica,sans-Serif" font-size="12.00">com.runehive.game.world.</text>
<text xml:space="preserve" text-anchor="middle" x="872.09" y="-294.41" font-family="Helvetica,sans-Serif" font-size="12.00">World.getPlayers</text>
</a>
</g>
</g>
<!-- Node14&#45;&gt;Node15 -->
<g id="edge16_Node000014_Node000015" class="edge">
<title>Node14&#45;&gt;Node15</title>
<g id="a_edge16_Node000014_Node000015"><a xlink:title=" ">
<path fill="none" stroke="#63b8ff" d="M568.34,-305.81C624.27,-305.81 692.44,-305.81 749.92,-305.81"/>
<polygon fill="#63b8ff" stroke="#63b8ff" points="749.75,-309.31 759.75,-305.81 749.75,-302.31 749.75,-309.31"/>
</a>
</g>
</g>
<!-- Node18&#45;&gt;Node13 -->
<g id="edge22_Node000018_Node000013" class="edge">
<title>Node18&#45;&gt;Node13</title>
<g id="a_edge22_Node000018_Node000013"><a xlink:title=" ">
<path fill="none" stroke="#63b8ff" d="M552.9,-39.18C586.99,-44.8 625.64,-52.08 660.38,-60.81 708.25,-72.84 760.95,-90.35 801.68,-104.85"/>
<polygon fill="#63b8ff" stroke="#63b8ff" points="800.28,-108.07 810.87,-108.15 802.64,-101.48 800.28,-108.07"/>
</a>
</g>
</g>
</g>
</svg>

<g id="navigator" transform="translate(0 0)" fill="#404254">
  <rect fill="#f2f5e9" fill-opacity="0.5" stroke="#606060" stroke-width=".5" x="0" y="0" width="60" height="60"/>
  <use id="zoomplus" xlink:href="#zoomPlus" x="17" y="9" onmousedown="handleZoom(evt,'in')"/>
  <use id="zoomminus" xlink:href="#zoomMin" x="42" y="9" onmousedown="handleZoom(evt,'out')"/>
  <use id="reset" xlink:href="#resetDef" x="30" y="36" onmousedown="handleReset()"/>
   <use id="arrowup" xlink:href="#arrowUp" x="0" y="0" onmousedown="handlePan(0,-1)"/>
  <use id="arrowright" xlink:href="#arrowRight" x="0" y="0" onmousedown="handlePan(1,0)"/>
  <use id="arrowdown" xlink:href="#arrowDown" x="0" y="0" onmousedown="handlePan(0,1)"/>
  <use id="arrowleft" xlink:href="#arrowLeft" x="0" y="0" onmousedown="handlePan(-1,0)"/>
</g>
<svg viewBox="0 0 15 15" width="100%" height="30px" preserveAspectRatio="xMaxYMin meet">
 <g id="arrow_out" transform="scale(0.3 0.3)">
  <a xlink:href="classcom_1_1runehive_1_1net_1_1session_1_1_login_session_a3f6bc3fc6ff7cfadb2a9679d6e210220_cgraph_org.svg" target="_base">
   <rect id="button" ry="5" rx="5" y="6" x="6" height="38" width="38"
        fill="#f2f5e9" fill-opacity="0.5" stroke="#606060" stroke-width="1.0"/>
   <path id="arrow"
     d="M 11.500037,31.436501 C 11.940474,20.09759 22.043105,11.32322 32.158766,21.979434 L 37.068811,17.246167 C 37.068811,17.246167 37.088388,32 37.088388,32 L 22.160133,31.978069 C 22.160133,31.978069 26.997745,27.140456 26.997745,27.140456 C 18.528582,18.264221 13.291696,25.230495 11.500037,31.436501 z"
     style="fill:#404040;"/>
  </a>
 </g>
</svg>

<style type='text/css'>
<![CDATA[
[data-mouse-over-selected='false'] { opacity: 0.7; }
[data-mouse-over-selected='true']  { opacity: 1.0; }
]]>
</style>
<script type="application/ecmascript"><![CDATA[
document.addEventListener('DOMContentLoaded', (event) => {
  highlightEdges();
  highlightAdjacentNodes();
});
]]></script>
</svg>
