<?xml version="1.0" encoding="UTF-8" standalone="no"?>
<!DOCTYPE svg PUBLIC "-//W3C//DTD SVG 1.1//EN"
 "http://www.w3.org/Graphics/SVG/1.1/DTD/svg11.dtd">
<!-- Generated by graphviz version 14.0.1 (20251006.0113)
 -->
<!-- Title: com.runehive.game.world.entity.mob.Mob.transform Pages: 1 -->
<svg width="1687pt" height="498pt"
 viewBox="0.00 0.00 1687.00 498.00" xmlns="http://www.w3.org/2000/svg" xmlns:xlink="http://www.w3.org/1999/xlink">
<g id="graph0" class="graph" transform="scale(1 1) rotate(0) translate(4 493.62)">
<title>com.runehive.game.world.entity.mob.Mob.transform</title>
<!-- Node1 -->
<g id="Node000001" class="node">
<title>Node1</title>
<g id="a_Node000001"><a xlink:title=" ">
<ellipse fill="#999999" stroke="#666666" cx="1528.69" cy="-253.81" rx="150.79" ry="25.81"/>
<text xml:space="preserve" text-anchor="start" x="1430.07" y="-256.66" font-family="Helvetica,sans-Serif" font-size="12.00">com.runehive.game.world.entity.mob.</text>
<text xml:space="preserve" text-anchor="middle" x="1528.69" y="-242.41" font-family="Helvetica,sans-Serif" font-size="12.00">Mob.transform</text>
</a>
</g>
</g>
<!-- Node1&#45;&gt;Node1 -->
<g id="edge12_Node000001_Node000001" class="edge">
<title>Node1&#45;&gt;Node1</title>
<g id="a_edge12_Node000001_Node000001"><a xlink:title=" ">
<path fill="none" stroke="#63b8ff" d="M1602.21,-287.37C1592.72,-293.4 1568.21,-297.62 1528.69,-297.62 1467.74,-297.62 1442.51,-287.59 1452.98,-276.35"/>
<polygon fill="#63b8ff" stroke="#63b8ff" points="1605.59,-288.33 1604.11,-277.83 1598.72,-286.96 1605.59,-288.33"/>
</a>
</g>
</g>
<!-- Node2 -->
<g id="Node000002" class="node">
<title>Node2</title>
<g id="a_Node000002"><a xlink:href="classcom_1_1runehive_1_1content_1_1wintertodt_1_1_wintertodt.html#a3119a0618a5480cedf0ba944a4e5800b" target="_top" xlink:title="Handles attacking the pyromancers.">
<ellipse fill="white" stroke="#666666" cx="1112.62" cy="-463.81" rx="132.76" ry="25.81"/>
<text xml:space="preserve" text-anchor="start" x="1026.75" y="-466.66" font-family="Helvetica,sans-Serif" font-size="12.00">com.runehive.content.wintertodt.</text>
<text xml:space="preserve" text-anchor="middle" x="1112.62" y="-452.41" font-family="Helvetica,sans-Serif" font-size="12.00">Wintertodt.attackPyromancers</text>
</a>
</g>
</g>
<!-- Node1&#45;&gt;Node2 -->
<g id="edge1_Node000001_Node000002" class="edge">
<title>Node1&#45;&gt;Node2</title>
<g id="a_edge1_Node000001_Node000002"><a xlink:title=" ">
<path fill="none" stroke="#63b8ff" d="M1501.67,-288.77C1469.16,-329.63 1409.52,-395.83 1341.9,-428.81 1311.27,-443.75 1275.81,-452.63 1242.11,-457.82"/>
<polygon fill="#63b8ff" stroke="#63b8ff" points="1504.42,-290.93 1507.83,-280.9 1498.91,-286.62 1504.42,-290.93"/>
</a>
</g>
</g>
<!-- Node6 -->
<g id="Node000006" class="node">
<title>Node6</title>
<g id="a_Node000006"><a xlink:href="classcom_1_1runehive_1_1game_1_1world_1_1entity_1_1combat_1_1strategy_1_1npc_1_1boss_1_1_demonic_gorillas.html#a2e7b39e8d2bf38c3d371c87f8bbd5dd5" target="_top" xlink:title=" ">
<ellipse fill="white" stroke="#666666" cx="1112.62" cy="-393.81" rx="229.28" ry="25.81"/>
<text xml:space="preserve" text-anchor="start" x="958.5" y="-396.66" font-family="Helvetica,sans-Serif" font-size="12.00">com.runehive.game.world.entity.combat.strategy.npc.boss.</text>
<text xml:space="preserve" text-anchor="middle" x="1112.62" y="-382.41" font-family="Helvetica,sans-Serif" font-size="12.00">DemonicGorillas.block</text>
</a>
</g>
</g>
<!-- Node1&#45;&gt;Node6 -->
<g id="edge5_Node000001_Node000006" class="edge">
<title>Node1&#45;&gt;Node6</title>
<g id="a_edge5_Node000001_Node000006"><a xlink:title=" ">
<path fill="none" stroke="#63b8ff" d="M1482.54,-285.53C1446.23,-309.47 1393,-341.12 1341.9,-358.81 1321.91,-365.73 1300.47,-371.28 1279.02,-375.74"/>
<polygon fill="#63b8ff" stroke="#63b8ff" points="1484.23,-288.61 1490.6,-280.15 1480.34,-282.79 1484.23,-288.61"/>
</a>
</g>
</g>
<!-- Node7 -->
<g id="Node000007" class="node">
<title>Node7</title>
<g id="a_Node000007"><a xlink:href="classcom_1_1runehive_1_1game_1_1world_1_1entity_1_1combat_1_1strategy_1_1npc_1_1boss_1_1_wyrm.html#addd76821a7e235d379ff59ef3f66fc43" target="_top" xlink:title=" ">
<ellipse fill="white" stroke="#666666" cx="1112.62" cy="-323.81" rx="229.28" ry="25.81"/>
<text xml:space="preserve" text-anchor="start" x="958.5" y="-326.66" font-family="Helvetica,sans-Serif" font-size="12.00">com.runehive.game.world.entity.combat.strategy.npc.boss.</text>
<text xml:space="preserve" text-anchor="middle" x="1112.62" y="-312.41" font-family="Helvetica,sans-Serif" font-size="12.00">Wyrm.block</text>
</a>
</g>
</g>
<!-- Node1&#45;&gt;Node7 -->
<g id="edge6_Node000001_Node000007" class="edge">
<title>Node1&#45;&gt;Node7</title>
<g id="a_edge6_Node000001_Node000007"><a xlink:title=" ">
<path fill="none" stroke="#63b8ff" d="M1416.37,-275.42C1391.87,-280 1366.03,-284.69 1341.9,-288.81 1313.45,-293.67 1282.94,-298.56 1253.79,-303.09"/>
<polygon fill="#63b8ff" stroke="#63b8ff" points="1416.86,-278.89 1426.04,-273.61 1415.56,-272.01 1416.86,-278.89"/>
</a>
</g>
</g>
<!-- Node8 -->
<g id="Node000008" class="node">
<title>Node8</title>
<g id="a_Node000008"><a xlink:href="classcom_1_1runehive_1_1content_1_1wintertodt_1_1_wintertodt.html#a15d8374db33d56891f20a3ff1c89848d" target="_top" xlink:title="Handles healing the pyromancer.">
<ellipse fill="white" stroke="#666666" cx="1112.62" cy="-253.81" rx="132.76" ry="25.81"/>
<text xml:space="preserve" text-anchor="start" x="1026.75" y="-256.66" font-family="Helvetica,sans-Serif" font-size="12.00">com.runehive.content.wintertodt.</text>
<text xml:space="preserve" text-anchor="middle" x="1112.62" y="-242.41" font-family="Helvetica,sans-Serif" font-size="12.00">Wintertodt.healPyromancer</text>
</a>
</g>
</g>
<!-- Node1&#45;&gt;Node8 -->
<g id="edge7_Node000001_Node000008" class="edge">
<title>Node1&#45;&gt;Node8</title>
<g id="a_edge7_Node000001_Node000008"><a xlink:title=" ">
<path fill="none" stroke="#63b8ff" d="M1366.16,-253.81C1326.27,-253.81 1284.02,-253.81 1245.72,-253.81"/>
<polygon fill="#63b8ff" stroke="#63b8ff" points="1366.1,-257.31 1376.1,-253.81 1366.1,-250.31 1366.1,-257.31"/>
</a>
</g>
</g>
<!-- Node9 -->
<g id="Node000009" class="node">
<title>Node9</title>
<g id="a_Node000009"><a xlink:href="classcom_1_1runehive_1_1game_1_1world_1_1entity_1_1combat_1_1strategy_1_1npc_1_1boss_1_1_vetion.html#acc43957ea47187dc7f5869eaa2f6e79e" target="_top" xlink:title=" ">
<ellipse fill="white" stroke="#666666" cx="1112.62" cy="-183.81" rx="229.28" ry="25.81"/>
<text xml:space="preserve" text-anchor="start" x="958.5" y="-186.66" font-family="Helvetica,sans-Serif" font-size="12.00">com.runehive.game.world.entity.combat.strategy.npc.boss.</text>
<text xml:space="preserve" text-anchor="middle" x="1112.62" y="-172.41" font-family="Helvetica,sans-Serif" font-size="12.00">Vetion.preDeath</text>
</a>
</g>
</g>
<!-- Node1&#45;&gt;Node9 -->
<g id="edge8_Node000001_Node000009" class="edge">
<title>Node1&#45;&gt;Node9</title>
<g id="a_edge8_Node000001_Node000009"><a xlink:title=" ">
<path fill="none" stroke="#63b8ff" d="M1416.37,-232.2C1391.87,-227.62 1366.03,-222.93 1341.9,-218.81 1313.45,-213.95 1282.94,-209.05 1253.79,-204.53"/>
<polygon fill="#63b8ff" stroke="#63b8ff" points="1415.56,-235.61 1426.04,-234.01 1416.86,-228.73 1415.56,-235.61"/>
</a>
</g>
</g>
<!-- Node10 -->
<g id="Node000010" class="node">
<title>Node10</title>
<g id="a_Node000010"><a xlink:href="classcom_1_1runehive_1_1game_1_1world_1_1entity_1_1combat_1_1strategy_1_1npc_1_1boss_1_1_stone_guardian_1_1_transform.html#aabeaccd1fcb79f7e1c72d8535bc7c661" target="_top" xlink:title=" ">
<ellipse fill="white" stroke="#666666" cx="1112.62" cy="-113.81" rx="229.28" ry="25.81"/>
<text xml:space="preserve" text-anchor="start" x="958.5" y="-116.66" font-family="Helvetica,sans-Serif" font-size="12.00">com.runehive.game.world.entity.combat.strategy.npc.boss.</text>
<text xml:space="preserve" text-anchor="middle" x="1112.62" y="-102.41" font-family="Helvetica,sans-Serif" font-size="12.00">StoneGuardian.Transform.start</text>
</a>
</g>
</g>
<!-- Node1&#45;&gt;Node10 -->
<g id="edge9_Node000001_Node000010" class="edge">
<title>Node1&#45;&gt;Node10</title>
<g id="a_edge9_Node000001_Node000010"><a xlink:title=" ">
<path fill="none" stroke="#63b8ff" d="M1482.54,-222.09C1446.23,-198.15 1393,-166.5 1341.9,-148.81 1321.91,-141.89 1300.47,-136.34 1279.02,-131.88"/>
<polygon fill="#63b8ff" stroke="#63b8ff" points="1480.34,-224.83 1490.6,-227.47 1484.23,-219.01 1480.34,-224.83"/>
</a>
</g>
</g>
<!-- Node11 -->
<g id="Node000011" class="node">
<title>Node11</title>
<g id="a_Node000011"><a xlink:href="classcom_1_1runehive_1_1content_1_1activity_1_1impl_1_1kraken_1_1_kraken_activity.html#a76de5dc7162442251dc85fcb15401008" target="_top" xlink:title="Handles transforming a Npc.">
<ellipse fill="white" stroke="#666666" cx="1112.62" cy="-25.81" rx="167.23" ry="25.81"/>
<text xml:space="preserve" text-anchor="start" x="1002.37" y="-28.66" font-family="Helvetica,sans-Serif" font-size="12.00">com.runehive.content.activity.impl.kraken.</text>
<text xml:space="preserve" text-anchor="middle" x="1112.62" y="-14.41" font-family="Helvetica,sans-Serif" font-size="12.00">KrakenActivity.transform</text>
</a>
</g>
</g>
<!-- Node1&#45;&gt;Node11 -->
<g id="edge10_Node000001_Node000011" class="edge">
<title>Node1&#45;&gt;Node11</title>
<g id="a_edge10_Node000001_Node000011"><a xlink:title=" ">
<path fill="none" stroke="#63b8ff" d="M1500.69,-219.06C1467.63,-178.99 1407.85,-114.14 1341.9,-78.81 1310.79,-62.14 1274.55,-50.68 1240.23,-42.82"/>
<polygon fill="#63b8ff" stroke="#63b8ff" points="1497.93,-221.22 1506.96,-226.77 1503.36,-216.8 1497.93,-221.22"/>
</a>
</g>
</g>
<!-- Node3 -->
<g id="Node000003" class="node">
<title>Node3</title>
<g id="a_Node000003"><a xlink:href="classcom_1_1runehive_1_1content_1_1wintertodt_1_1_wintertodt.html#ae4af45a5fcdf15d8085fd761dde9bf06" target="_top" xlink:title=" ">
<ellipse fill="white" stroke="#666666" cx="714.58" cy="-463.81" rx="132.76" ry="25.81"/>
<text xml:space="preserve" text-anchor="start" x="628.71" y="-466.66" font-family="Helvetica,sans-Serif" font-size="12.00">com.runehive.content.wintertodt.</text>
<text xml:space="preserve" text-anchor="middle" x="714.58" y="-452.41" font-family="Helvetica,sans-Serif" font-size="12.00">Wintertodt.init</text>
</a>
</g>
</g>
<!-- Node2&#45;&gt;Node3 -->
<g id="edge2_Node000002_Node000003" class="edge">
<title>Node2&#45;&gt;Node3</title>
<g id="a_edge2_Node000002_Node000003"><a xlink:title=" ">
<path fill="none" stroke="#63b8ff" d="M968.19,-463.81C928.85,-463.81 886.39,-463.81 847.72,-463.81"/>
<polygon fill="#63b8ff" stroke="#63b8ff" points="967.96,-467.31 977.96,-463.81 967.96,-460.31 967.96,-467.31"/>
</a>
</g>
</g>
<!-- Node4 -->
<g id="Node000004" class="node">
<title>Node4</title>
<g id="a_Node000004"><a xlink:href="classcom_1_1runehive_1_1_rune_hive.html#a17f40f99cb718b86302b394cf505f0a8" target="_top" xlink:title=" ">
<ellipse fill="white" stroke="#666666" cx="411.47" cy="-463.81" rx="134.35" ry="25.81"/>
<text xml:space="preserve" text-anchor="start" x="324.47" y="-466.66" font-family="Helvetica,sans-Serif" font-size="12.00">com.runehive.RuneHive.process</text>
<text xml:space="preserve" text-anchor="middle" x="411.47" y="-452.41" font-family="Helvetica,sans-Serif" font-size="12.00">SequentialStartupTasks</text>
</a>
</g>
</g>
<!-- Node3&#45;&gt;Node4 -->
<g id="edge3_Node000003_Node000004" class="edge">
<title>Node3&#45;&gt;Node4</title>
<g id="a_edge3_Node000003_Node000004"><a xlink:title=" ">
<path fill="none" stroke="#63b8ff" d="M570.24,-463.81C562.25,-463.81 554.22,-463.81 546.27,-463.81"/>
<polygon fill="#63b8ff" stroke="#63b8ff" points="570,-467.31 580,-463.81 570,-460.31 570,-467.31"/>
</a>
</g>
</g>
<!-- Node5 -->
<g id="Node000005" class="node">
<title>Node5</title>
<g id="a_Node000005"><a xlink:href="classcom_1_1runehive_1_1_rune_hive.html#ab9a24653997a7d8bb955f26c59b7f8ea" target="_top" xlink:title=" ">
<ellipse fill="white" stroke="#666666" cx="120.56" cy="-463.81" rx="120.56" ry="15.73"/>
<text xml:space="preserve" text-anchor="middle" x="120.56" y="-459.53" font-family="Helvetica,sans-Serif" font-size="12.00">com.runehive.RuneHive.start</text>
</a>
</g>
</g>
<!-- Node4&#45;&gt;Node5 -->
<g id="edge4_Node000004_Node000005" class="edge">
<title>Node4&#45;&gt;Node5</title>
<g id="a_edge4_Node000004_Node000005"><a xlink:title=" ">
<path fill="none" stroke="#63b8ff" d="M265.63,-463.81C257.57,-463.81 249.51,-463.81 241.55,-463.81"/>
<polygon fill="#63b8ff" stroke="#63b8ff" points="265.5,-467.31 275.5,-463.81 265.5,-460.31 265.5,-467.31"/>
</a>
</g>
</g>
<!-- Node11&#45;&gt;Node11 -->
<g id="edge11_Node000011_Node000011" class="edge">
<title>Node11&#45;&gt;Node11</title>
<g id="a_edge11_Node000011_Node000011"><a xlink:title=" ">
<path fill="none" stroke="#63b8ff" d="M1181.84,-60.06C1172.05,-65.72 1148.98,-69.62 1112.62,-69.62 1055.87,-69.62 1031.48,-60.12 1039.47,-49.25"/>
<polygon fill="#63b8ff" stroke="#63b8ff" points="1185.13,-61.26 1185.26,-50.67 1178.55,-58.87 1185.13,-61.26"/>
</a>
</g>
</g>
</g>
</svg>
