<?xml version="1.0" encoding="UTF-8" standalone="no"?>
<!DOCTYPE svg PUBLIC "-//W3C//DTD SVG 1.1//EN"
 "http://www.w3.org/Graphics/SVG/1.1/DTD/svg11.dtd">
<!-- Generated by graphviz version 14.0.1 (20251006.0113)
 -->
<!-- Title: com.runehive.fs.cache.decoder.Buffer.readUnsignedShort Pages: 1 -->
<!--zoomable 627 -->

<svg id="main" version="1.1" xmlns="http://www.w3.org/2000/svg" xmlns:xlink="http://www.w3.org/1999/xlink" xml:space="preserve" onload="init(evt)">

<style type="text/css"><![CDATA[
.node, .edge {opacity: 0.7;}
.node.selected, .edge.selected {opacity: 1;}
.edge:hover path { stroke: red; }
.edge:hover polygon { stroke: red; fill: red; }
]]></style>

<defs>
  <circle id="rim" cx="0" cy="0" r="7"/>
  <circle id="rim2" cx="0" cy="0" r="3.5"/>
  <g id="zoomPlus">
    <use xlink:href="#rim" fill="#404040"><set attributeName="fill" to="#808080" begin="zoomplus.mouseover" end="zoomplus.mouseout"/></use>
    <path d="M-4,0h8M0,-4v8" fill="none" stroke="white" stroke-width="1.5" pointer-events="none"/>
  </g>
  <g id="zoomMin">
    <use xlink:href="#rim" fill="#404040"><set attributeName="fill" to="#808080" begin="zoomminus.mouseover" end="zoomminus.mouseout"/></use>
    <path d="M-4,0h8" fill="none" stroke="white" stroke-width="1.5" pointer-events="none"/>
  </g>
  <g id="arrowUp" transform="translate(30 24)">
    <use xlink:href="#rim"/>
    <path pointer-events="none" fill="none" stroke="white" stroke-width="1.5" d="M0,-3.0v7 M-2.5,-0.5L0,-3.0L2.5,-0.5"/>
  </g>
  <g id="arrowRight" transform="rotate(90) translate(36 -43)">
    <use xlink:href="#rim"/>
    <path pointer-events="none" fill="none" stroke="white" stroke-width="1.5" d="M0,-3.0v7 M-2.5,-0.5L0,-3.0L2.5,-0.5"/>
  </g>
  <g id="arrowDown" transform="rotate(180) translate(-30 -48)">
    <use xlink:href="#rim"/>
    <path pointer-events="none" fill="none" stroke="white" stroke-width="1.5" d="M0,-3.0v7 M-2.5,-0.5L0,-3.0L2.5,-0.5"/>
  </g>
  <g id="arrowLeft" transform="rotate(270) translate(-36 17)">
    <use xlink:href="#rim"/>
    <path pointer-events="none" fill="none" stroke="white" stroke-width="1.5" d="M0,-3.0v7 M-2.5,-0.5L0,-3.0L2.5,-0.5"/>
  </g>
  <g id="resetDef">
    <use xlink:href="#rim2" fill="#404040"><set attributeName="fill" to="#808080" begin="reset.mouseover" end="reset.mouseout"/></use>
  </g>
</defs>
<script type="application/ecmascript">
var viewWidth = 2782;
var viewHeight = 627;
var sectionId = 'dynsection-26';
</script>
<script type="application/ecmascript" xlink:href="svg.min.js"/>
<svg id="graph" class="graph">
<g id="viewport">
<title>com.runehive.fs.cache.decoder.Buffer.readUnsignedShort</title>
<!-- Node1 -->
<g id="Node000001" class="node">
<title>Node1</title>
<g id="a_Node000001"><a xlink:title=" ">
<ellipse fill="#999999" stroke="#666666" cx="2643.79" cy="-328.37" rx="130.11" ry="25.81"/>
<text xml:space="preserve" text-anchor="start" x="2559.79" y="-331.22" font-family="Helvetica,sans-Serif" font-size="12.00">com.runehive.fs.cache.decoder.</text>
<text xml:space="preserve" text-anchor="middle" x="2643.79" y="-316.97" font-family="Helvetica,sans-Serif" font-size="12.00">Buffer.readUnsignedShort</text>
</a>
</g>
</g>
<!-- Node2 -->
<g id="Node000002" class="node">
<title>Node2</title>
<g id="a_Node000002"><a xlink:href="classcom_1_1runehive_1_1fs_1_1cache_1_1decoder_1_1_cache_npc_definition.html#abce9e800e4d526cb60f59843565f24a3" target="_top" xlink:title=" ">
<ellipse fill="white" stroke="#666666" cx="1961.73" cy="-433.37" rx="130.11" ry="25.81"/>
<text xml:space="preserve" text-anchor="start" x="1877.73" y="-436.22" font-family="Helvetica,sans-Serif" font-size="12.00">com.runehive.fs.cache.decoder.</text>
<text xml:space="preserve" text-anchor="middle" x="1961.73" y="-421.97" font-family="Helvetica,sans-Serif" font-size="12.00">CacheNpcDefinition.decode</text>
</a>
</g>
</g>
<!-- Node1&#45;&gt;Node2 -->
<g id="edge1_Node000001_Node000002" class="edge">
<title>Node1&#45;&gt;Node2</title>
<g id="a_edge1_Node000001_Node000002"><a xlink:title=" ">
<path fill="none" stroke="#63b8ff" d="M2630.8,-364.89C2609.96,-421.62 2561.1,-528.99 2477.68,-573.37 2344.36,-644.29 2280.42,-623.32 2137.92,-573.37 2073.25,-550.71 2014.7,-493.03 1984.42,-459.2"/>
<polygon fill="#63b8ff" stroke="#63b8ff" points="2634.02,-366.27 2634.09,-355.68 2627.43,-363.92 2634.02,-366.27"/>
</a>
</g>
</g>
<!-- Node12 -->
<g id="Node000012" class="node">
<title>Node12</title>
<g id="a_Node000012"><a xlink:href="classcom_1_1runehive_1_1fs_1_1cache_1_1decoder_1_1_buffer.html#aeb9cf7c59a1a71cd784b601da2579638" target="_top" xlink:title=" ">
<ellipse fill="white" stroke="#666666" cx="2307.8" cy="-538.37" rx="130.11" ry="25.81"/>
<text xml:space="preserve" text-anchor="start" x="2223.8" y="-541.22" font-family="Helvetica,sans-Serif" font-size="12.00">com.runehive.fs.cache.decoder.</text>
<text xml:space="preserve" text-anchor="middle" x="2307.8" y="-526.97" font-family="Helvetica,sans-Serif" font-size="12.00">Buffer.method421</text>
</a>
</g>
</g>
<!-- Node1&#45;&gt;Node12 -->
<g id="edge11_Node000001_Node000012" class="edge">
<title>Node1&#45;&gt;Node12</title>
<g id="a_edge11_Node000001_Node000012"><a xlink:title=" ">
<path fill="none" stroke="#63b8ff" d="M2619.69,-363.63C2591.28,-404.02 2539.16,-469.03 2477.68,-503.37 2460.17,-513.15 2440.25,-520.21 2420.39,-525.31"/>
<polygon fill="#63b8ff" stroke="#63b8ff" points="2622.56,-365.63 2625.37,-355.42 2616.8,-361.65 2622.56,-365.63"/>
</a>
</g>
</g>
<!-- Node13 -->
<g id="Node000013" class="node">
<title>Node13</title>
<g id="a_Node000013"><a xlink:href="classcom_1_1runehive_1_1fs_1_1cache_1_1decoder_1_1_buffer.html#a7f273372c3e023c8853040a58bce7bfc" target="_top" xlink:title=" ">
<ellipse fill="white" stroke="#666666" cx="2307.8" cy="-188.37" rx="130.11" ry="25.81"/>
<text xml:space="preserve" text-anchor="start" x="2223.8" y="-191.22" font-family="Helvetica,sans-Serif" font-size="12.00">com.runehive.fs.cache.decoder.</text>
<text xml:space="preserve" text-anchor="middle" x="2307.8" y="-176.97" font-family="Helvetica,sans-Serif" font-size="12.00">Buffer.method422</text>
</a>
</g>
</g>
<!-- Node1&#45;&gt;Node13 -->
<g id="edge12_Node000001_Node000013" class="edge">
<title>Node1&#45;&gt;Node13</title>
<g id="a_edge12_Node000001_Node000013"><a xlink:title=" ">
<path fill="none" stroke="#63b8ff" d="M2601.84,-296.35C2569.75,-272.79 2523.09,-241.79 2477.68,-223.37 2457.43,-215.15 2434.99,-208.78 2413.26,-203.86"/>
<polygon fill="#63b8ff" stroke="#63b8ff" points="2599.57,-299.02 2609.68,-302.18 2603.75,-293.41 2599.57,-299.02"/>
</a>
</g>
</g>
<!-- Node16 -->
<g id="Node000016" class="node">
<title>Node16</title>
<g id="a_Node000016"><a xlink:href="classcom_1_1runehive_1_1fs_1_1cache_1_1decoder_1_1_buffer.html#aaec16ae77955405c51e4923779d637bf" target="_top" xlink:title=" ">
<ellipse fill="white" stroke="#666666" cx="2307.8" cy="-468.37" rx="130.11" ry="25.81"/>
<text xml:space="preserve" text-anchor="start" x="2223.8" y="-471.22" font-family="Helvetica,sans-Serif" font-size="12.00">com.runehive.fs.cache.decoder.</text>
<text xml:space="preserve" text-anchor="middle" x="2307.8" y="-456.97" font-family="Helvetica,sans-Serif" font-size="12.00">Buffer.readBigSmart2</text>
</a>
</g>
</g>
<!-- Node1&#45;&gt;Node16 -->
<g id="edge15_Node000001_Node000016" class="edge">
<title>Node1&#45;&gt;Node16</title>
<g id="a_edge15_Node000001_Node000016"><a xlink:title=" ">
<path fill="none" stroke="#63b8ff" d="M2601.84,-360.39C2569.75,-383.95 2523.09,-414.95 2477.68,-433.37 2457.43,-441.59 2434.99,-447.96 2413.26,-452.88"/>
<polygon fill="#63b8ff" stroke="#63b8ff" points="2603.75,-363.33 2609.68,-354.56 2599.57,-357.72 2603.75,-363.33"/>
</a>
</g>
</g>
<!-- Node17 -->
<g id="Node000017" class="node">
<title>Node17</title>
<g id="a_Node000017"><a xlink:href="classcom_1_1runehive_1_1fs_1_1cache_1_1decoder_1_1_buffer.html#a5d05d414a157d9578a79819cd6a8eae3" target="_top" xlink:title=" ">
<ellipse fill="white" stroke="#666666" cx="2307.8" cy="-328.37" rx="130.11" ry="25.81"/>
<text xml:space="preserve" text-anchor="start" x="2223.8" y="-331.22" font-family="Helvetica,sans-Serif" font-size="12.00">com.runehive.fs.cache.decoder.</text>
<text xml:space="preserve" text-anchor="middle" x="2307.8" y="-316.97" font-family="Helvetica,sans-Serif" font-size="12.00">Buffer.readShortSmart</text>
</a>
</g>
</g>
<!-- Node1&#45;&gt;Node17 -->
<g id="edge17_Node000001_Node000017" class="edge">
<title>Node1&#45;&gt;Node17</title>
<g id="a_edge17_Node000001_Node000017"><a xlink:title=" ">
<path fill="none" stroke="#63b8ff" d="M2501.88,-328.37C2480.8,-328.37 2459.16,-328.37 2438.33,-328.37"/>
<polygon fill="#63b8ff" stroke="#63b8ff" points="2501.67,-331.87 2511.67,-328.37 2501.67,-324.87 2501.67,-331.87"/>
</a>
</g>
</g>
<!-- Node18 -->
<g id="Node000018" class="node">
<title>Node18</title>
<g id="a_Node000018"><a xlink:href="classcom_1_1runehive_1_1fs_1_1cache_1_1decoder_1_1_buffer.html#a50e55e276640163aaba2c56fa9f46874" target="_top" xlink:title=" ">
<ellipse fill="white" stroke="#666666" cx="2307.8" cy="-258.37" rx="130.11" ry="25.81"/>
<text xml:space="preserve" text-anchor="start" x="2223.8" y="-261.22" font-family="Helvetica,sans-Serif" font-size="12.00">com.runehive.fs.cache.decoder.</text>
<text xml:space="preserve" text-anchor="middle" x="2307.8" y="-246.97" font-family="Helvetica,sans-Serif" font-size="12.00">Buffer.readSignedSmart</text>
</a>
</g>
</g>
<!-- Node1&#45;&gt;Node18 -->
<g id="edge18_Node000001_Node000018" class="edge">
<title>Node1&#45;&gt;Node18</title>
<g id="a_edge18_Node000001_Node000018"><a xlink:title=" ">
<path fill="none" stroke="#63b8ff" d="M2542.6,-307.06C2521.18,-302.52 2498.68,-297.77 2477.68,-293.37 2452.33,-288.06 2424.83,-282.34 2399.53,-277.09"/>
<polygon fill="#63b8ff" stroke="#63b8ff" points="2541.7,-310.44 2552.21,-309.09 2543.15,-303.59 2541.7,-310.44"/>
</a>
</g>
</g>
<!-- Node19 -->
<g id="Node000019" class="node">
<title>Node19</title>
<g id="a_Node000019"><a xlink:href="classcom_1_1runehive_1_1fs_1_1cache_1_1decoder_1_1_buffer.html#ad6400b1328f782b2fb925a823042643d" target="_top" xlink:title=" ">
<ellipse fill="white" stroke="#666666" cx="2307.8" cy="-118.37" rx="131.17" ry="25.81"/>
<text xml:space="preserve" text-anchor="start" x="2223.05" y="-121.22" font-family="Helvetica,sans-Serif" font-size="12.00">com.runehive.fs.cache.decoder.</text>
<text xml:space="preserve" text-anchor="middle" x="2307.8" y="-106.97" font-family="Helvetica,sans-Serif" font-size="12.00">Buffer.readUnsignedShortSmart</text>
</a>
</g>
</g>
<!-- Node1&#45;&gt;Node19 -->
<g id="edge19_Node000001_Node000019" class="edge">
<title>Node1&#45;&gt;Node19</title>
<g id="a_edge19_Node000001_Node000019"><a xlink:title=" ">
<path fill="none" stroke="#63b8ff" d="M2619.69,-293.11C2591.28,-252.72 2539.16,-187.71 2477.68,-153.37 2460.43,-143.73 2440.85,-136.74 2421.28,-131.66"/>
<polygon fill="#63b8ff" stroke="#63b8ff" points="2616.8,-295.09 2625.37,-301.32 2622.56,-291.11 2616.8,-295.09"/>
</a>
</g>
</g>
<!-- Node21 -->
<g id="Node000021" class="node">
<title>Node21</title>
<g id="a_Node000021"><a xlink:href="classcom_1_1runehive_1_1fs_1_1cache_1_1decoder_1_1_buffer.html#ae4de491dd432dbf0bd92adfb3bbda73e" target="_top" xlink:title=" ">
<ellipse fill="white" stroke="#666666" cx="2307.8" cy="-398.37" rx="169.88" ry="25.81"/>
<text xml:space="preserve" text-anchor="start" x="2195.67" y="-401.22" font-family="Helvetica,sans-Serif" font-size="12.00">com.runehive.fs.cache.decoder.</text>
<text xml:space="preserve" text-anchor="middle" x="2307.8" y="-386.97" font-family="Helvetica,sans-Serif" font-size="12.00">Buffer.readUnsignedShortSmartMinusOne</text>
</a>
</g>
</g>
<!-- Node1&#45;&gt;Node21 -->
<g id="edge21_Node000001_Node000021" class="edge">
<title>Node1&#45;&gt;Node21</title>
<g id="a_edge21_Node000001_Node000021"><a xlink:title=" ">
<path fill="none" stroke="#63b8ff" d="M2542.6,-349.68C2521.18,-354.22 2498.68,-358.97 2477.68,-363.37 2455.85,-367.95 2432.42,-372.82 2410.17,-377.44"/>
<polygon fill="#63b8ff" stroke="#63b8ff" points="2543.15,-353.15 2552.21,-347.65 2541.7,-346.3 2543.15,-353.15"/>
</a>
</g>
</g>
<!-- Node22 -->
<g id="Node000022" class="node">
<title>Node22</title>
<g id="a_Node000022"><a xlink:href="classcom_1_1runehive_1_1fs_1_1cache_1_1decoder_1_1_cache_npc_definition.html#ac3478ffa5b3697fffb8f0451ec998ace" target="_top" xlink:title=" ">
<ellipse fill="white" stroke="#666666" cx="1643.24" cy="-156.37" rx="142.31" ry="25.81"/>
<text xml:space="preserve" text-anchor="start" x="1550.62" y="-159.22" font-family="Helvetica,sans-Serif" font-size="12.00">com.runehive.fs.cache.decoder.</text>
<text xml:space="preserve" text-anchor="middle" x="1643.24" y="-144.97" font-family="Helvetica,sans-Serif" font-size="12.00">CacheNpcDefinition.unpackConfig</text>
</a>
</g>
</g>
<!-- Node1&#45;&gt;Node22 -->
<g id="edge23_Node000001_Node000022" class="edge">
<title>Node1&#45;&gt;Node22</title>
<g id="a_edge23_Node000001_Node000022"><a xlink:title=" ">
<path fill="none" stroke="#63b8ff" d="M2630.5,-291.68C2609.37,-235.2 2560.29,-128.74 2477.68,-83.37 2222.04,57.02 2106.24,-10.03 1821.55,-73.37 1771.62,-84.48 1719.11,-111.21 1684.32,-131.36"/>
<polygon fill="#63b8ff" stroke="#63b8ff" points="2627.13,-292.65 2633.84,-300.86 2633.71,-290.26 2627.13,-292.65"/>
</a>
</g>
</g>
<!-- Node3 -->
<g id="Node000003" class="node">
<title>Node3</title>
<g id="a_Node000003"><a xlink:href="classcom_1_1runehive_1_1fs_1_1cache_1_1decoder_1_1_cache_npc_definition.html#a21444151f4881d3ad0e85eb7939fd9f5" target="_top" xlink:title=" ">
<ellipse fill="white" stroke="#666666" cx="1643.24" cy="-391.37" rx="130.11" ry="25.81"/>
<text xml:space="preserve" text-anchor="start" x="1559.24" y="-394.22" font-family="Helvetica,sans-Serif" font-size="12.00">com.runehive.fs.cache.decoder.</text>
<text xml:space="preserve" text-anchor="middle" x="1643.24" y="-379.97" font-family="Helvetica,sans-Serif" font-size="12.00">CacheNpcDefinition.lookup</text>
</a>
</g>
</g>
<!-- Node2&#45;&gt;Node3 -->
<g id="edge2_Node000002_Node000003" class="edge">
<title>Node2&#45;&gt;Node3</title>
<g id="a_edge2_Node000002_Node000003"><a xlink:title=" ">
<path fill="none" stroke="#63b8ff" d="M1841.6,-417.56C1812.39,-413.68 1781.27,-409.55 1752.59,-405.75"/>
<polygon fill="#63b8ff" stroke="#63b8ff" points="1840.83,-420.99 1851.2,-418.83 1841.75,-414.05 1840.83,-420.99"/>
</a>
</g>
</g>
<!-- Node4 -->
<g id="Node000004" class="node">
<title>Node4</title>
<g id="a_Node000004"><a xlink:href="classcom_1_1runehive_1_1game_1_1world_1_1entity_1_1mob_1_1npc_1_1definition_1_1_npc_definition.html#ae1cb9a5125945cf71e7244336fd17c97" target="_top" xlink:title=" ">
<ellipse fill="white" stroke="#666666" cx="1261.64" cy="-385.37" rx="203.29" ry="25.81"/>
<text xml:space="preserve" text-anchor="start" x="1125.89" y="-388.22" font-family="Helvetica,sans-Serif" font-size="12.00">com.runehive.game.world.entity.mob.npc.definition.</text>
<text xml:space="preserve" text-anchor="middle" x="1261.64" y="-373.97" font-family="Helvetica,sans-Serif" font-size="12.00">NpcDefinition.createParser</text>
</a>
</g>
</g>
<!-- Node3&#45;&gt;Node4 -->
<g id="edge3_Node000003_Node000004" class="edge">
<title>Node3&#45;&gt;Node4</title>
<g id="a_edge3_Node000003_Node000004"><a xlink:title=" ">
<path fill="none" stroke="#63b8ff" d="M1501.84,-389.15C1489.37,-388.95 1476.6,-388.75 1463.75,-388.55"/>
<polygon fill="#63b8ff" stroke="#63b8ff" points="1501.63,-392.65 1511.69,-389.31 1501.74,-385.65 1501.63,-392.65"/>
</a>
</g>
</g>
<!-- Node5 -->
<g id="Node000005" class="node">
<title>Node5</title>
<g id="a_Node000005"><a xlink:href="classcom_1_1runehive_1_1util_1_1tools_1_1wiki_1_1impl_1_1_npc_drops_parser.html#aef7264960af151dd2d661e7f996d0192" target="_top" xlink:title=" ">
<ellipse fill="white" stroke="#666666" cx="819.06" cy="-385.37" rx="134.35" ry="25.81"/>
<text xml:space="preserve" text-anchor="start" x="732.06" y="-388.22" font-family="Helvetica,sans-Serif" font-size="12.00">com.runehive.util.tools.wiki.impl.</text>
<text xml:space="preserve" text-anchor="middle" x="819.06" y="-373.97" font-family="Helvetica,sans-Serif" font-size="12.00">NpcDropsParser.generateTables</text>
</a>
</g>
</g>
<!-- Node4&#45;&gt;Node5 -->
<g id="edge4_Node000004_Node000005" class="edge">
<title>Node4&#45;&gt;Node5</title>
<g id="a_edge4_Node000004_Node000005"><a xlink:title=" ">
<path fill="none" stroke="#63b8ff" d="M1046.87,-385.37C1015.15,-385.37 983.25,-385.37 953.8,-385.37"/>
<polygon fill="#63b8ff" stroke="#63b8ff" points="1046.57,-388.87 1056.57,-385.37 1046.57,-381.87 1046.57,-388.87"/>
</a>
</g>
</g>
<!-- Node8 -->
<g id="Node000008" class="node">
<title>Node8</title>
<g id="a_Node000008"><a xlink:href="classcom_1_1runehive_1_1game_1_1world_1_1entity_1_1mob_1_1npc_1_1definition_1_1_npc_definition.html#a2fc7cb5aedccba98be68d20cabf3500c" target="_top" xlink:title=" ">
<ellipse fill="white" stroke="#666666" cx="819.06" cy="-315.37" rx="203.29" ry="25.81"/>
<text xml:space="preserve" text-anchor="start" x="683.31" y="-318.22" font-family="Helvetica,sans-Serif" font-size="12.00">com.runehive.game.world.entity.mob.npc.definition.</text>
<text xml:space="preserve" text-anchor="middle" x="819.06" y="-303.97" font-family="Helvetica,sans-Serif" font-size="12.00">NpcDefinition.main</text>
</a>
</g>
</g>
<!-- Node4&#45;&gt;Node8 -->
<g id="edge7_Node000004_Node000008" class="edge">
<title>Node4&#45;&gt;Node8</title>
<g id="a_edge7_Node000004_Node000008"><a xlink:title=" ">
<path fill="none" stroke="#63b8ff" d="M1121.27,-363.23C1065.78,-354.41 1002.33,-344.33 948.02,-335.7"/>
<polygon fill="#63b8ff" stroke="#63b8ff" points="1120.7,-366.68 1131.12,-364.79 1121.8,-359.77 1120.7,-366.68"/>
</a>
</g>
</g>
<!-- Node9 -->
<g id="Node000009" class="node">
<title>Node9</title>
<g id="a_Node000009"><a xlink:href="classcom_1_1runehive_1_1util_1_1tools_1_1_drop_definition_dumper.html#a2e74d13c9625f19ba8bd86f824f05e58" target="_top" xlink:title=" ">
<ellipse fill="white" stroke="#666666" cx="819.06" cy="-455.37" rx="116.32" ry="25.81"/>
<text xml:space="preserve" text-anchor="start" x="744.81" y="-458.22" font-family="Helvetica,sans-Serif" font-size="12.00">com.runehive.util.tools.</text>
<text xml:space="preserve" text-anchor="middle" x="819.06" y="-443.97" font-family="Helvetica,sans-Serif" font-size="12.00">DropDefinitionDumper.main</text>
</a>
</g>
</g>
<!-- Node4&#45;&gt;Node9 -->
<g id="edge8_Node000004_Node000009" class="edge">
<title>Node4&#45;&gt;Node9</title>
<g id="a_edge8_Node000004_Node000009"><a xlink:title=" ">
<path fill="none" stroke="#63b8ff" d="M1121.48,-407.48C1054.14,-418.18 975.03,-430.75 914.75,-440.32"/>
<polygon fill="#63b8ff" stroke="#63b8ff" points="1121.8,-410.97 1131.12,-405.95 1120.7,-404.06 1121.8,-410.97"/>
</a>
</g>
</g>
<!-- Node10 -->
<g id="Node000010" class="node">
<title>Node10</title>
<g id="a_Node000010"><a xlink:href="classcom_1_1runehive_1_1_rune_hive.html#a17f40f99cb718b86302b394cf505f0a8" target="_top" xlink:title=" ">
<ellipse fill="white" stroke="#666666" cx="819.06" cy="-232.37" rx="134.35" ry="25.81"/>
<text xml:space="preserve" text-anchor="start" x="732.06" y="-235.22" font-family="Helvetica,sans-Serif" font-size="12.00">com.runehive.RuneHive.process</text>
<text xml:space="preserve" text-anchor="middle" x="819.06" y="-220.97" font-family="Helvetica,sans-Serif" font-size="12.00">SequentialStartupTasks</text>
</a>
</g>
</g>
<!-- Node4&#45;&gt;Node10 -->
<g id="edge9_Node000004_Node000010" class="edge">
<title>Node4&#45;&gt;Node10</title>
<g id="a_edge9_Node000004_Node000010"><a xlink:title=" ">
<path fill="none" stroke="#63b8ff" d="M1200.47,-355.2C1153,-332.3 1084.64,-301.29 1022.35,-280.37 987.62,-268.71 948.63,-258.75 914.22,-250.97"/>
<polygon fill="#63b8ff" stroke="#63b8ff" points="1198.69,-358.22 1209.21,-359.44 1201.74,-351.92 1198.69,-358.22"/>
</a>
</g>
</g>
<!-- Node6 -->
<g id="Node000006" class="node">
<title>Node6</title>
<g id="a_Node000006"><a xlink:href="classcom_1_1runehive_1_1util_1_1tools_1_1wiki_1_1impl_1_1_npc_drops_parser.html#a05a0e91f95afd82b26159c3af031d3b1" target="_top" xlink:title=" ">
<ellipse fill="white" stroke="#666666" cx="440.64" cy="-385.37" rx="139.12" ry="25.81"/>
<text xml:space="preserve" text-anchor="start" x="350.27" y="-388.22" font-family="Helvetica,sans-Serif" font-size="12.00">com.runehive.util.tools.wiki.impl.</text>
<text xml:space="preserve" text-anchor="middle" x="440.64" y="-373.97" font-family="Helvetica,sans-Serif" font-size="12.00">NpcDropsParser.NpcDropsParser</text>
</a>
</g>
</g>
<!-- Node5&#45;&gt;Node6 -->
<g id="edge5_Node000005_Node000006" class="edge">
<title>Node5&#45;&gt;Node6</title>
<g id="a_edge5_Node000005_Node000006"><a xlink:title=" ">
<path fill="none" stroke="#63b8ff" d="M673.11,-385.37C642.55,-385.37 610.38,-385.37 580.07,-385.37"/>
<polygon fill="#63b8ff" stroke="#63b8ff" points="672.77,-388.87 682.77,-385.37 672.77,-381.87 672.77,-388.87"/>
</a>
</g>
</g>
<!-- Node7 -->
<g id="Node000007" class="node">
<title>Node7</title>
<g id="a_Node000007"><a xlink:href="classcom_1_1runehive_1_1util_1_1tools_1_1wiki_1_1impl_1_1_npc_drops_parser.html#ae13609194c88cce7bb848aefa81afd4c" target="_top" xlink:title=" ">
<ellipse fill="white" stroke="#666666" cx="132.76" cy="-385.37" rx="132.76" ry="25.81"/>
<text xml:space="preserve" text-anchor="start" x="46.88" y="-388.22" font-family="Helvetica,sans-Serif" font-size="12.00">com.runehive.util.tools.wiki.impl.</text>
<text xml:space="preserve" text-anchor="middle" x="132.76" y="-373.97" font-family="Helvetica,sans-Serif" font-size="12.00">NpcDropsParser.main</text>
</a>
</g>
</g>
<!-- Node6&#45;&gt;Node7 -->
<g id="edge6_Node000006_Node000007" class="edge">
<title>Node6&#45;&gt;Node7</title>
<g id="a_edge6_Node000006_Node000007"><a xlink:title=" ">
<path fill="none" stroke="#63b8ff" d="M289.75,-385.37C281.77,-385.37 273.78,-385.37 265.87,-385.37"/>
<polygon fill="#63b8ff" stroke="#63b8ff" points="289.51,-388.87 299.51,-385.37 289.51,-381.87 289.51,-388.87"/>
</a>
</g>
</g>
<!-- Node11 -->
<g id="Node000011" class="node">
<title>Node11</title>
<g id="a_Node000011"><a xlink:href="classcom_1_1runehive_1_1_rune_hive.html#ab9a24653997a7d8bb955f26c59b7f8ea" target="_top" xlink:title=" ">
<ellipse fill="white" stroke="#666666" cx="440.64" cy="-232.37" rx="120.56" ry="15.73"/>
<text xml:space="preserve" text-anchor="middle" x="440.64" y="-228.1" font-family="Helvetica,sans-Serif" font-size="12.00">com.runehive.RuneHive.start</text>
</a>
</g>
</g>
<!-- Node10&#45;&gt;Node11 -->
<g id="edge10_Node000010_Node000011" class="edge">
<title>Node10&#45;&gt;Node11</title>
<g id="a_edge10_Node000010_Node000011"><a xlink:title=" ">
<path fill="none" stroke="#63b8ff" d="M672.94,-232.37C636.1,-232.37 596.94,-232.37 561.51,-232.37"/>
<polygon fill="#63b8ff" stroke="#63b8ff" points="672.77,-235.87 682.77,-232.37 672.77,-228.87 672.77,-235.87"/>
</a>
</g>
</g>
<!-- Node14 -->
<g id="Node000014" class="node">
<title>Node14</title>
<g id="a_Node000014"><a xlink:href="classcom_1_1runehive_1_1fs_1_1cache_1_1decoder_1_1_buffer.html#af08df4a364b0cd4ebb418042825e0c71" target="_top" xlink:title=" ">
<ellipse fill="white" stroke="#666666" cx="1961.73" cy="-198.37" rx="130.11" ry="25.81"/>
<text xml:space="preserve" text-anchor="start" x="1877.73" y="-201.22" font-family="Helvetica,sans-Serif" font-size="12.00">com.runehive.fs.cache.decoder.</text>
<text xml:space="preserve" text-anchor="middle" x="1961.73" y="-186.97" font-family="Helvetica,sans-Serif" font-size="12.00">Buffer.getUIncrementalSmart</text>
</a>
</g>
</g>
<!-- Node13&#45;&gt;Node14 -->
<g id="edge13_Node000013_Node000014" class="edge">
<title>Node13&#45;&gt;Node14</title>
<g id="a_edge13_Node000013_Node000014"><a xlink:title=" ">
<path fill="none" stroke="#63b8ff" d="M2167.18,-192.43C2141.98,-193.16 2115.81,-193.92 2090.96,-194.64"/>
<polygon fill="#63b8ff" stroke="#63b8ff" points="2167.27,-195.93 2177.17,-192.14 2167.07,-188.93 2167.27,-195.93"/>
</a>
</g>
</g>
<!-- Node15 -->
<g id="Node000015" class="node">
<title>Node15</title>
<g id="a_Node000015"><a xlink:href="classcom_1_1runehive_1_1fs_1_1cache_1_1decoder_1_1_buffer.html#a8fd599cc47b799e6b0168f2a00051ba3" target="_top" xlink:title=" ">
<ellipse fill="white" stroke="#666666" cx="1961.73" cy="-268.37" rx="130.11" ry="25.81"/>
<text xml:space="preserve" text-anchor="start" x="1877.73" y="-271.22" font-family="Helvetica,sans-Serif" font-size="12.00">com.runehive.fs.cache.decoder.</text>
<text xml:space="preserve" text-anchor="middle" x="1961.73" y="-256.97" font-family="Helvetica,sans-Serif" font-size="12.00">Buffer.readUSmart2</text>
</a>
</g>
</g>
<!-- Node13&#45;&gt;Node15 -->
<g id="edge14_Node000013_Node000015" class="edge">
<title>Node13&#45;&gt;Node15</title>
<g id="a_edge14_Node000013_Node000015"><a xlink:title=" ">
<path fill="none" stroke="#63b8ff" d="M2202.53,-208.84C2181.1,-213.37 2158.73,-218.33 2137.92,-223.37 2121.78,-227.28 2117.97,-229.12 2101.92,-233.37 2083.37,-238.28 2063.39,-243.4 2044.51,-248.16"/>
<polygon fill="#63b8ff" stroke="#63b8ff" points="2203.09,-212.3 2212.16,-206.83 2201.65,-205.45 2203.09,-212.3"/>
</a>
</g>
</g>
<!-- Node16&#45;&gt;Node2 -->
<g id="edge16_Node000016_Node000002" class="edge">
<title>Node16&#45;&gt;Node2</title>
<g id="a_edge16_Node000016_Node000002"><a xlink:title=" ">
<path fill="none" stroke="#63b8ff" d="M2180.07,-455.48C2146.73,-452.09 2110.96,-448.45 2078.25,-445.12"/>
<polygon fill="#63b8ff" stroke="#63b8ff" points="2179.46,-458.93 2189.77,-456.47 2180.17,-451.97 2179.46,-458.93"/>
</a>
</g>
</g>
<!-- Node20 -->
<g id="Node000020" class="node">
<title>Node20</title>
<g id="a_Node000020"><a xlink:href="classcom_1_1runehive_1_1fs_1_1cache_1_1decoder_1_1_buffer.html#a9d174a0d702c6c36da4b945ff79762ec" target="_top" xlink:title=" ">
<ellipse fill="white" stroke="#666666" cx="1961.73" cy="-118.37" rx="140.18" ry="35.89"/>
<text xml:space="preserve" text-anchor="start" x="1870.61" y="-128.35" font-family="Helvetica,sans-Serif" font-size="12.00">com.runehive.fs.cache.decoder.</text>
<text xml:space="preserve" text-anchor="start" x="1870.61" y="-114.1" font-family="Helvetica,sans-Serif" font-size="12.00">Buffer.readUnsignedIntSmartShort</text>
<text xml:space="preserve" text-anchor="middle" x="1961.73" y="-99.85" font-family="Helvetica,sans-Serif" font-size="12.00">Compat</text>
</a>
</g>
</g>
<!-- Node19&#45;&gt;Node20 -->
<g id="edge20_Node000019_Node000020" class="edge">
<title>Node19&#45;&gt;Node20</title>
<g id="a_edge20_Node000019_Node000020"><a xlink:title=" ">
<path fill="none" stroke="#63b8ff" d="M2164.84,-118.37C2144.2,-118.37 2122.97,-118.37 2102.39,-118.37"/>
<polygon fill="#63b8ff" stroke="#63b8ff" points="2164.72,-121.87 2174.72,-118.37 2164.72,-114.87 2164.72,-121.87"/>
</a>
</g>
</g>
<!-- Node21&#45;&gt;Node2 -->
<g id="edge22_Node000021_Node000002" class="edge">
<title>Node21&#45;&gt;Node2</title>
<g id="a_edge22_Node000021_Node000002"><a xlink:title=" ">
<path fill="none" stroke="#63b8ff" d="M2154.13,-413.9C2128.73,-416.48 2102.75,-419.13 2078.46,-421.6"/>
<polygon fill="#63b8ff" stroke="#63b8ff" points="2154.26,-417.4 2163.86,-412.91 2153.56,-410.44 2154.26,-417.4"/>
</a>
</g>
</g>
<!-- Node22&#45;&gt;Node10 -->
<g id="edge24_Node000022_Node000010" class="edge">
<title>Node22&#45;&gt;Node10</title>
<g id="a_edge24_Node000022_Node000010"><a xlink:title=" ">
<path fill="none" stroke="#63b8ff" d="M1504.4,-169.11C1346.71,-183.69 1091,-207.33 940.84,-221.21"/>
<polygon fill="#63b8ff" stroke="#63b8ff" points="1504.44,-172.62 1514.07,-168.22 1503.79,-165.65 1504.44,-172.62"/>
</a>
</g>
</g>
</g>
</svg>

<g id="navigator" transform="translate(0 0)" fill="#404254">
  <rect fill="#f2f5e9" fill-opacity="0.5" stroke="#606060" stroke-width=".5" x="0" y="0" width="60" height="60"/>
  <use id="zoomplus" xlink:href="#zoomPlus" x="17" y="9" onmousedown="handleZoom(evt,'in')"/>
  <use id="zoomminus" xlink:href="#zoomMin" x="42" y="9" onmousedown="handleZoom(evt,'out')"/>
  <use id="reset" xlink:href="#resetDef" x="30" y="36" onmousedown="handleReset()"/>
   <use id="arrowup" xlink:href="#arrowUp" x="0" y="0" onmousedown="handlePan(0,-1)"/>
  <use id="arrowright" xlink:href="#arrowRight" x="0" y="0" onmousedown="handlePan(1,0)"/>
  <use id="arrowdown" xlink:href="#arrowDown" x="0" y="0" onmousedown="handlePan(0,1)"/>
  <use id="arrowleft" xlink:href="#arrowLeft" x="0" y="0" onmousedown="handlePan(-1,0)"/>
</g>
<svg viewBox="0 0 15 15" width="100%" height="30px" preserveAspectRatio="xMaxYMin meet">
 <g id="arrow_out" transform="scale(0.3 0.3)">
  <a xlink:href="classcom_1_1runehive_1_1fs_1_1cache_1_1decoder_1_1_buffer_aa913740e120d65fd11af59b5077663d6_icgraph_org.svg" target="_base">
   <rect id="button" ry="5" rx="5" y="6" x="6" height="38" width="38"
        fill="#f2f5e9" fill-opacity="0.5" stroke="#606060" stroke-width="1.0"/>
   <path id="arrow"
     d="M 11.500037,31.436501 C 11.940474,20.09759 22.043105,11.32322 32.158766,21.979434 L 37.068811,17.246167 C 37.068811,17.246167 37.088388,32 37.088388,32 L 22.160133,31.978069 C 22.160133,31.978069 26.997745,27.140456 26.997745,27.140456 C 18.528582,18.264221 13.291696,25.230495 11.500037,31.436501 z"
     style="fill:#404040;"/>
  </a>
 </g>
</svg>

<style type='text/css'>
<![CDATA[
[data-mouse-over-selected='false'] { opacity: 0.7; }
[data-mouse-over-selected='true']  { opacity: 1.0; }
]]>
</style>
<script type="application/ecmascript"><![CDATA[
document.addEventListener('DOMContentLoaded', (event) => {
  highlightEdges();
  highlightAdjacentNodes();
});
]]></script>
</svg>
