<?xml version="1.0" encoding="UTF-8" standalone="no"?>
<!DOCTYPE svg PUBLIC "-//W3C//DTD SVG 1.1//EN"
 "http://www.w3.org/Graphics/SVG/1.1/DTD/svg11.dtd">
<!-- Generated by graphviz version 14.0.1 (20251006.0113)
 -->
<!-- Title: com.runehive.content.activity.impl.barrows.Barrows.clickNpc Pages: 1 -->
<svg width="1438pt" height="552pt"
 viewBox="0.00 0.00 1438.00 552.00" xmlns="http://www.w3.org/2000/svg" xmlns:xlink="http://www.w3.org/1999/xlink">
<g id="graph0" class="graph" transform="scale(1 1) rotate(0) translate(4 548.38)">
<title>com.runehive.content.activity.impl.barrows.Barrows.clickNpc</title>
<!-- Node1 -->
<g id="Node000001" class="node">
<title>Node1</title>
<g id="a_Node000001"><a xlink:title=" ">
<ellipse fill="#999999" stroke="#666666" cx="172" cy="-387.81" rx="172" ry="25.81"/>
<text xml:space="preserve" text-anchor="start" x="58.38" y="-390.66" font-family="Helvetica,sans-Serif" font-size="12.00">com.runehive.content.activity.impl.barrows.</text>
<text xml:space="preserve" text-anchor="middle" x="172" y="-376.41" font-family="Helvetica,sans-Serif" font-size="12.00">Barrows.clickNpc</text>
</a>
</g>
</g>
<!-- Node2 -->
<g id="Node000002" class="node">
<title>Node2</title>
<g id="a_Node000002"><a xlink:href="classcom_1_1runehive_1_1content_1_1dialogue_1_1_dialogue_factory.html#a2487170811b723c8a8e3759c94896bd9" target="_top" xlink:title="Retrieves the next dialogue in the chain and executes it.">
<ellipse fill="white" stroke="#666666" cx="552.01" cy="-314.81" rx="129.05" ry="25.81"/>
<text xml:space="preserve" text-anchor="start" x="468.76" y="-317.66" font-family="Helvetica,sans-Serif" font-size="12.00">com.runehive.content.dialogue.</text>
<text xml:space="preserve" text-anchor="middle" x="552.01" y="-303.41" font-family="Helvetica,sans-Serif" font-size="12.00">DialogueFactory.execute</text>
</a>
</g>
</g>
<!-- Node1&#45;&gt;Node2 -->
<g id="edge1_Node000001_Node000002" class="edge">
<title>Node1&#45;&gt;Node2</title>
<g id="a_edge1_Node000001_Node000002"><a xlink:title=" ">
<path fill="none" stroke="#63b8ff" d="M279.31,-367.28C331.59,-357.18 394.39,-345.06 446.44,-335"/>
<polygon fill="#63b8ff" stroke="#63b8ff" points="447.08,-338.45 456.23,-333.11 445.75,-331.57 447.08,-338.45"/>
</a>
</g>
</g>
<!-- Node8 -->
<g id="Node000008" class="node">
<title>Node8</title>
<g id="a_Node000008"><a xlink:href="classcom_1_1runehive_1_1content_1_1activity_1_1impl_1_1barrows_1_1_barrows.html#ac500f814053f7b5a9e50855e69b41f2d" target="_top" xlink:title=" ">
<ellipse fill="white" stroke="#666666" cx="552.01" cy="-174.81" rx="172" ry="25.81"/>
<text xml:space="preserve" text-anchor="start" x="438.39" y="-177.66" font-family="Helvetica,sans-Serif" font-size="12.00">com.runehive.content.activity.impl.barrows.</text>
<text xml:space="preserve" text-anchor="middle" x="552.01" y="-163.41" font-family="Helvetica,sans-Serif" font-size="12.00">Barrows.reset</text>
</a>
</g>
</g>
<!-- Node1&#45;&gt;Node8 -->
<g id="edge7_Node000001_Node000008" class="edge">
<title>Node1&#45;&gt;Node8</title>
<g id="a_edge7_Node000001_Node000008"><a xlink:title=" ">
<path fill="none" stroke="#63b8ff" d="M217.85,-362.54C287.48,-323.31 421.36,-247.87 496.47,-205.54"/>
<polygon fill="#63b8ff" stroke="#63b8ff" points="497.91,-208.75 504.9,-200.79 494.47,-202.65 497.91,-208.75"/>
</a>
</g>
</g>
<!-- Node12 -->
<g id="Node000012" class="node">
<title>Node12</title>
<g id="a_Node000012"><a xlink:href="classcom_1_1runehive_1_1content_1_1dialogue_1_1_dialogue_factory.html#af6060840bdd176789121b6d380adb162" target="_top" xlink:title="Appends an NpcDialogue to the current dialogue chain.">
<ellipse fill="white" stroke="#666666" cx="552.01" cy="-503.81" rx="129.05" ry="25.81"/>
<text xml:space="preserve" text-anchor="start" x="468.76" y="-506.66" font-family="Helvetica,sans-Serif" font-size="12.00">com.runehive.content.dialogue.</text>
<text xml:space="preserve" text-anchor="middle" x="552.01" y="-492.41" font-family="Helvetica,sans-Serif" font-size="12.00">DialogueFactory.sendNpcChat</text>
</a>
</g>
</g>
<!-- Node1&#45;&gt;Node12 -->
<g id="edge12_Node000001_Node000012" class="edge">
<title>Node1&#45;&gt;Node12</title>
<g id="a_edge12_Node000001_Node000012"><a xlink:title=" ">
<path fill="none" stroke="#63b8ff" d="M228.76,-412.64C269.92,-430.21 327.64,-453.33 380.01,-468.81 399.96,-474.71 421.51,-479.96 442.37,-484.49"/>
<polygon fill="#63b8ff" stroke="#63b8ff" points="441.54,-487.89 452.05,-486.54 443,-481.04 441.54,-487.89"/>
</a>
</g>
</g>
<!-- Node14 -->
<g id="Node000014" class="node">
<title>Node14</title>
<g id="a_Node000014"><a xlink:href="classcom_1_1runehive_1_1content_1_1dialogue_1_1_dialogue_factory.html#af9f2ccdd07b0e88b0e7c40192a9afa07" target="_top" xlink:title="Appends the OptionDialogue onto the current dialogue chain.">
<ellipse fill="white" stroke="#666666" cx="552.01" cy="-433.81" rx="129.05" ry="25.81"/>
<text xml:space="preserve" text-anchor="start" x="468.76" y="-436.66" font-family="Helvetica,sans-Serif" font-size="12.00">com.runehive.content.dialogue.</text>
<text xml:space="preserve" text-anchor="middle" x="552.01" y="-422.41" font-family="Helvetica,sans-Serif" font-size="12.00">DialogueFactory.sendOption</text>
</a>
</g>
</g>
<!-- Node1&#45;&gt;Node14 -->
<g id="edge16_Node000001_Node000014" class="edge">
<title>Node1&#45;&gt;Node14</title>
<g id="a_edge16_Node000001_Node000014"><a xlink:title=" ">
<path fill="none" stroke="#63b8ff" d="M307.07,-404.12C346.88,-408.97 390.24,-414.25 429.22,-418.99"/>
<polygon fill="#63b8ff" stroke="#63b8ff" points="428.77,-422.46 439.12,-420.19 429.62,-415.51 428.77,-422.46"/>
</a>
</g>
</g>
<!-- Node3 -->
<g id="Node000003" class="node">
<title>Node3</title>
<g id="a_Node000003"><a xlink:href="classcom_1_1runehive_1_1content_1_1dialogue_1_1_dialogue_factory.html#aec64ffdeed4c31dfe340a41430f50892" target="_top" xlink:title="Creates a new DialogueFactory.">
<ellipse fill="white" stroke="#666666" cx="1284.98" cy="-468.81" rx="138.06" ry="25.81"/>
<text xml:space="preserve" text-anchor="start" x="1195.35" y="-471.66" font-family="Helvetica,sans-Serif" font-size="12.00">com.runehive.content.dialogue.</text>
<text xml:space="preserve" text-anchor="middle" x="1284.98" y="-457.41" font-family="Helvetica,sans-Serif" font-size="12.00">DialogueFactory.DialogueFactory</text>
</a>
</g>
</g>
<!-- Node2&#45;&gt;Node3 -->
<g id="edge2_Node000002_Node000003" class="edge">
<title>Node2&#45;&gt;Node3</title>
<g id="a_edge2_Node000002_Node000003"><a xlink:title=" ">
<path fill="none" stroke="#63b8ff" d="M612.46,-337.87C653.42,-353.03 709.38,-372.29 760.01,-384.81 910.33,-421.96 951.15,-415.27 1104.02,-439.81 1124.78,-443.14 1146.88,-446.7 1168.22,-450.13"/>
<polygon fill="#63b8ff" stroke="#63b8ff" points="1167.38,-453.54 1177.81,-451.68 1168.5,-446.63 1167.38,-453.54"/>
</a>
</g>
</g>
<!-- Node4 -->
<g id="Node000004" class="node">
<title>Node4</title>
<g id="a_Node000004"><a xlink:href="classcom_1_1runehive_1_1content_1_1dialogue_1_1_dialogue_factory.html#a5f56390c19e58a8e3390f46449e6c6cf" target="_top" xlink:title="Gets the current chain.">
<ellipse fill="white" stroke="#666666" cx="932.02" cy="-349.81" rx="129.05" ry="25.81"/>
<text xml:space="preserve" text-anchor="start" x="848.77" y="-352.66" font-family="Helvetica,sans-Serif" font-size="12.00">com.runehive.content.dialogue.</text>
<text xml:space="preserve" text-anchor="middle" x="932.02" y="-338.41" font-family="Helvetica,sans-Serif" font-size="12.00">DialogueFactory.getChain</text>
</a>
</g>
</g>
<!-- Node2&#45;&gt;Node4 -->
<g id="edge3_Node000002_Node000004" class="edge">
<title>Node2&#45;&gt;Node4</title>
<g id="a_edge3_Node000002_Node000004"><a xlink:title=" ">
<path fill="none" stroke="#63b8ff" d="M670.03,-325.64C712.12,-329.54 759.82,-333.96 802.82,-337.94"/>
<polygon fill="#63b8ff" stroke="#63b8ff" points="802.44,-341.42 812.72,-338.86 803.09,-334.45 802.44,-341.42"/>
</a>
</g>
</g>
<!-- Node5 -->
<g id="Node000005" class="node">
<title>Node5</title>
<g id="a_Node000005"><a xlink:href="classcom_1_1runehive_1_1content_1_1dialogue_1_1_dialogue_factory.html#a79b8587c2aac2f5cb6ef6f5e1069ab3f" target="_top" xlink:title="Gets the Optional describing the next action in the dialogue chain.">
<ellipse fill="white" stroke="#666666" cx="932.02" cy="-279.81" rx="129.05" ry="25.81"/>
<text xml:space="preserve" text-anchor="start" x="848.77" y="-282.66" font-family="Helvetica,sans-Serif" font-size="12.00">com.runehive.content.dialogue.</text>
<text xml:space="preserve" text-anchor="middle" x="932.02" y="-268.41" font-family="Helvetica,sans-Serif" font-size="12.00">DialogueFactory.getNextAction</text>
</a>
</g>
</g>
<!-- Node2&#45;&gt;Node5 -->
<g id="edge4_Node000002_Node000005" class="edge">
<title>Node2&#45;&gt;Node5</title>
<g id="a_edge4_Node000002_Node000005"><a xlink:title=" ">
<path fill="none" stroke="#63b8ff" d="M670.03,-303.97C712.12,-300.08 759.82,-295.66 802.82,-291.68"/>
<polygon fill="#63b8ff" stroke="#63b8ff" points="803.09,-295.17 812.72,-290.76 802.44,-288.2 803.09,-295.17"/>
</a>
</g>
</g>
<!-- Node6 -->
<g id="Node000006" class="node">
<title>Node6</title>
<g id="a_Node000006"><a xlink:href="classcom_1_1runehive_1_1content_1_1dialogue_1_1_dialogue_factory.html#a6ce434d7d06968060ccb0f0a624358ee" target="_top" xlink:title=" ">
<ellipse fill="white" stroke="#666666" cx="932.02" cy="-209.81" rx="129.05" ry="25.81"/>
<text xml:space="preserve" text-anchor="start" x="848.77" y="-212.66" font-family="Helvetica,sans-Serif" font-size="12.00">com.runehive.content.dialogue.</text>
<text xml:space="preserve" text-anchor="middle" x="932.02" y="-198.41" font-family="Helvetica,sans-Serif" font-size="12.00">DialogueFactory.setActive</text>
</a>
</g>
</g>
<!-- Node2&#45;&gt;Node6 -->
<g id="edge5_Node000002_Node000006" class="edge">
<title>Node2&#45;&gt;Node6</title>
<g id="a_edge5_Node000002_Node000006"><a xlink:title=" ">
<path fill="none" stroke="#63b8ff" d="M614.44,-291.8C655.31,-277.05 710.39,-258.22 760.01,-244.81 780.57,-239.25 802.72,-234.11 824.04,-229.57"/>
<polygon fill="#63b8ff" stroke="#63b8ff" points="824.55,-233.04 833.62,-227.57 823.12,-226.19 824.55,-233.04"/>
</a>
</g>
</g>
<!-- Node7 -->
<g id="Node000007" class="node">
<title>Node7</title>
<g id="a_Node000007"><a xlink:href="classcom_1_1runehive_1_1content_1_1dialogue_1_1_dialogue_factory.html#a0b658967f161f2b4d870c947ae7851cb" target="_top" xlink:title="Sets the next action in the dialogue chain.">
<ellipse fill="white" stroke="#666666" cx="932.02" cy="-139.81" rx="129.05" ry="25.81"/>
<text xml:space="preserve" text-anchor="start" x="848.77" y="-142.66" font-family="Helvetica,sans-Serif" font-size="12.00">com.runehive.content.dialogue.</text>
<text xml:space="preserve" text-anchor="middle" x="932.02" y="-128.41" font-family="Helvetica,sans-Serif" font-size="12.00">DialogueFactory.setNextAction</text>
</a>
</g>
</g>
<!-- Node2&#45;&gt;Node7 -->
<g id="edge6_Node000002_Node000007" class="edge">
<title>Node2&#45;&gt;Node7</title>
<g id="a_edge6_Node000002_Node000007"><a xlink:title=" ">
<path fill="none" stroke="#63b8ff" d="M598.72,-290.4C634.23,-270.59 684,-240.93 724.01,-209.81 741.63,-196.11 740.29,-185.24 760.01,-174.81 775.32,-166.71 792.31,-160.49 809.48,-155.7"/>
<polygon fill="#63b8ff" stroke="#63b8ff" points="809.92,-159.2 818.71,-153.28 808.15,-152.43 809.92,-159.2"/>
</a>
</g>
</g>
<!-- Node9 -->
<g id="Node000009" class="node">
<title>Node9</title>
<g id="a_Node000009"><a xlink:href="classcom_1_1runehive_1_1content_1_1activity_1_1impl_1_1barrows_1_1_barrows.html#a93d2e493ae20982e925c3719f013d505" target="_top" xlink:title="The update method.">
<ellipse fill="white" stroke="#666666" cx="932.02" cy="-69.81" rx="172" ry="25.81"/>
<text xml:space="preserve" text-anchor="start" x="818.39" y="-72.66" font-family="Helvetica,sans-Serif" font-size="12.00">com.runehive.content.activity.impl.barrows.</text>
<text xml:space="preserve" text-anchor="middle" x="932.02" y="-58.41" font-family="Helvetica,sans-Serif" font-size="12.00">Barrows.update</text>
</a>
</g>
</g>
<!-- Node8&#45;&gt;Node9 -->
<g id="edge8_Node000008_Node000009" class="edge">
<title>Node8&#45;&gt;Node9</title>
<g id="a_edge8_Node000008_Node000009"><a xlink:title=" ">
<path fill="none" stroke="#63b8ff" d="M617.64,-150.65C658.15,-136.08 711.67,-117.88 760.01,-104.81 776.33,-100.4 793.66,-96.25 810.78,-92.45"/>
<polygon fill="#63b8ff" stroke="#63b8ff" points="811.48,-95.88 820.51,-90.34 809.99,-89.04 811.48,-95.88"/>
</a>
</g>
</g>
<!-- Node10 -->
<g id="Node000010" class="node">
<title>Node10</title>
<g id="a_Node000010"><a xlink:href="classcom_1_1runehive_1_1util_1_1_utility.html#a493263be718b90fac4e54a5fd5f960c4" target="_top" xlink:title="Gets a percentage amount.">
<ellipse fill="white" stroke="#666666" cx="1284.98" cy="-113.81" rx="112.08" ry="25.81"/>
<text xml:space="preserve" text-anchor="start" x="1213.73" y="-116.66" font-family="Helvetica,sans-Serif" font-size="12.00">com.runehive.util.Utility.get</text>
<text xml:space="preserve" text-anchor="middle" x="1284.98" y="-102.41" font-family="Helvetica,sans-Serif" font-size="12.00">PercentageAmount</text>
</a>
</g>
</g>
<!-- Node9&#45;&gt;Node10 -->
<g id="edge9_Node000009_Node000010" class="edge">
<title>Node9&#45;&gt;Node10</title>
<g id="a_edge9_Node000009_Node000010"><a xlink:title=" ">
<path fill="none" stroke="#63b8ff" d="M1065.2,-86.38C1101.23,-90.9 1139.86,-95.74 1174.48,-100.08"/>
<polygon fill="#63b8ff" stroke="#63b8ff" points="1173.71,-103.51 1184.07,-101.28 1174.58,-96.57 1173.71,-103.51"/>
</a>
</g>
</g>
<!-- Node11 -->
<g id="Node000011" class="node">
<title>Node11</title>
<g id="a_Node000011"><a xlink:href="classcom_1_1runehive_1_1content_1_1activity_1_1panel_1_1_activity_panel.html#a7ffba562a8efc282cfbd57985eba70ef" target="_top" xlink:title="Sends all the information for the activity panel.">
<ellipse fill="white" stroke="#666666" cx="1284.98" cy="-25.81" rx="144.96" ry="25.81"/>
<text xml:space="preserve" text-anchor="start" x="1190.48" y="-28.66" font-family="Helvetica,sans-Serif" font-size="12.00">com.runehive.content.activity.panel.</text>
<text xml:space="preserve" text-anchor="middle" x="1284.98" y="-14.41" font-family="Helvetica,sans-Serif" font-size="12.00">ActivityPanel.update</text>
</a>
</g>
</g>
<!-- Node9&#45;&gt;Node11 -->
<g id="edge10_Node000009_Node000011" class="edge">
<title>Node9&#45;&gt;Node11</title>
<g id="a_edge10_Node000009_Node000011"><a xlink:title=" ">
<path fill="none" stroke="#63b8ff" d="M1065.2,-53.24C1094.19,-49.6 1124.86,-45.76 1153.78,-42.13"/>
<polygon fill="#63b8ff" stroke="#63b8ff" points="1154.2,-45.61 1163.69,-40.89 1153.33,-38.66 1154.2,-45.61"/>
</a>
</g>
</g>
<!-- Node11&#45;&gt;Node11 -->
<g id="edge11_Node000011_Node000011" class="edge">
<title>Node11&#45;&gt;Node11</title>
<g id="a_edge11_Node000011_Node000011"><a xlink:title=" ">
<path fill="none" stroke="#63b8ff" d="M1220.11,-49.25C1213.03,-60.12 1234.65,-69.62 1284.98,-69.62 1317.22,-69.62 1337.68,-65.72 1346.36,-60.06"/>
<polygon fill="#63b8ff" stroke="#63b8ff" points="1349.64,-61.28 1349.39,-50.69 1342.98,-59.13 1349.64,-61.28"/>
</a>
</g>
</g>
<!-- Node12&#45;&gt;Node3 -->
<g id="edge15_Node000012_Node000003" class="edge">
<title>Node12&#45;&gt;Node3</title>
<g id="a_edge15_Node000012_Node000003"><a xlink:title=" ">
<path fill="none" stroke="#63b8ff" d="M649.8,-520.98C760.41,-537.74 946.51,-557.18 1104.02,-530.81 1143.28,-524.24 1185.44,-510.12 1219.08,-497.02"/>
<polygon fill="#63b8ff" stroke="#63b8ff" points="1220.27,-500.31 1228.28,-493.37 1217.69,-493.8 1220.27,-500.31"/>
</a>
</g>
</g>
<!-- Node13 -->
<g id="Node000013" class="node">
<title>Node13</title>
<g id="a_Node000013"><a xlink:href="classcom_1_1runehive_1_1content_1_1dialogue_1_1_dialogue_factory.html#a8979431ba1fa2913a9ed65bbf8e4dd3f" target="_top" xlink:title="Appends a chain to this factory.">
<ellipse fill="white" stroke="#666666" cx="932.02" cy="-495.81" rx="129.05" ry="25.81"/>
<text xml:space="preserve" text-anchor="start" x="848.77" y="-498.66" font-family="Helvetica,sans-Serif" font-size="12.00">com.runehive.content.dialogue.</text>
<text xml:space="preserve" text-anchor="middle" x="932.02" y="-484.41" font-family="Helvetica,sans-Serif" font-size="12.00">DialogueFactory.append</text>
</a>
</g>
</g>
<!-- Node12&#45;&gt;Node13 -->
<g id="edge13_Node000012_Node000013" class="edge">
<title>Node12&#45;&gt;Node13</title>
<g id="a_edge13_Node000012_Node000013"><a xlink:title=" ">
<path fill="none" stroke="#63b8ff" d="M680.72,-501.11C716.55,-500.35 755.67,-499.52 792.11,-498.75"/>
<polygon fill="#63b8ff" stroke="#63b8ff" points="791.89,-502.25 801.81,-498.54 791.74,-495.26 791.89,-502.25"/>
</a>
</g>
</g>
<!-- Node13&#45;&gt;Node3 -->
<g id="edge14_Node000013_Node000003" class="edge">
<title>Node13&#45;&gt;Node3</title>
<g id="a_edge14_Node000013_Node000003"><a xlink:title=" ">
<path fill="none" stroke="#63b8ff" d="M1052.82,-486.59C1082.62,-484.3 1114.81,-481.82 1145.43,-479.47"/>
<polygon fill="#63b8ff" stroke="#63b8ff" points="1145.42,-482.98 1155.12,-478.72 1144.88,-476 1145.42,-482.98"/>
</a>
</g>
</g>
<!-- Node14&#45;&gt;Node3 -->
<g id="edge18_Node000014_Node000003" class="edge">
<title>Node14&#45;&gt;Node3</title>
<g id="a_edge18_Node000014_Node000003"><a xlink:title=" ">
<path fill="none" stroke="#63b8ff" d="M677.84,-439.79C805.84,-445.92 1004.75,-455.44 1139.49,-461.89"/>
<polygon fill="#63b8ff" stroke="#63b8ff" points="1139.03,-465.37 1149.19,-462.36 1139.37,-458.38 1139.03,-465.37"/>
</a>
</g>
</g>
<!-- Node14&#45;&gt;Node13 -->
<g id="edge17_Node000014_Node000013" class="edge">
<title>Node14&#45;&gt;Node13</title>
<g id="a_edge17_Node000014_Node000013"><a xlink:title=" ">
<path fill="none" stroke="#63b8ff" d="M652.82,-450.18C704.18,-458.6 766.94,-468.9 819.84,-477.57"/>
<polygon fill="#63b8ff" stroke="#63b8ff" points="819.05,-480.99 829.48,-479.16 820.18,-474.08 819.05,-480.99"/>
</a>
</g>
</g>
</g>
</svg>
