<?xml version="1.0" encoding="UTF-8" standalone="no"?>
<!DOCTYPE svg PUBLIC "-//W3C//DTD SVG 1.1//EN"
 "http://www.w3.org/Graphics/SVG/1.1/DTD/svg11.dtd">
<!-- Generated by graphviz version 14.0.1 (20251006.0113)
 -->
<!-- Title: com.runehive.content.tradingpost.TradingPost.buyingDialogueOptions Pages: 1 -->
<!--zoomable 932 -->

<svg id="main" version="1.1" xmlns="http://www.w3.org/2000/svg" xmlns:xlink="http://www.w3.org/1999/xlink" xml:space="preserve" onload="init(evt)">

<style type="text/css"><![CDATA[
.node, .edge {opacity: 0.7;}
.node.selected, .edge.selected {opacity: 1;}
.edge:hover path { stroke: red; }
.edge:hover polygon { stroke: red; fill: red; }
]]></style>

<defs>
  <circle id="rim" cx="0" cy="0" r="7"/>
  <circle id="rim2" cx="0" cy="0" r="3.5"/>
  <g id="zoomPlus">
    <use xlink:href="#rim" fill="#404040"><set attributeName="fill" to="#808080" begin="zoomplus.mouseover" end="zoomplus.mouseout"/></use>
    <path d="M-4,0h8M0,-4v8" fill="none" stroke="white" stroke-width="1.5" pointer-events="none"/>
  </g>
  <g id="zoomMin">
    <use xlink:href="#rim" fill="#404040"><set attributeName="fill" to="#808080" begin="zoomminus.mouseover" end="zoomminus.mouseout"/></use>
    <path d="M-4,0h8" fill="none" stroke="white" stroke-width="1.5" pointer-events="none"/>
  </g>
  <g id="arrowUp" transform="translate(30 24)">
    <use xlink:href="#rim"/>
    <path pointer-events="none" fill="none" stroke="white" stroke-width="1.5" d="M0,-3.0v7 M-2.5,-0.5L0,-3.0L2.5,-0.5"/>
  </g>
  <g id="arrowRight" transform="rotate(90) translate(36 -43)">
    <use xlink:href="#rim"/>
    <path pointer-events="none" fill="none" stroke="white" stroke-width="1.5" d="M0,-3.0v7 M-2.5,-0.5L0,-3.0L2.5,-0.5"/>
  </g>
  <g id="arrowDown" transform="rotate(180) translate(-30 -48)">
    <use xlink:href="#rim"/>
    <path pointer-events="none" fill="none" stroke="white" stroke-width="1.5" d="M0,-3.0v7 M-2.5,-0.5L0,-3.0L2.5,-0.5"/>
  </g>
  <g id="arrowLeft" transform="rotate(270) translate(-36 17)">
    <use xlink:href="#rim"/>
    <path pointer-events="none" fill="none" stroke="white" stroke-width="1.5" d="M0,-3.0v7 M-2.5,-0.5L0,-3.0L2.5,-0.5"/>
  </g>
  <g id="resetDef">
    <use xlink:href="#rim2" fill="#404040"><set attributeName="fill" to="#808080" begin="reset.mouseover" end="reset.mouseout"/></use>
  </g>
</defs>
<script type="application/ecmascript">
var viewWidth = 2745;
var viewHeight = 932;
var sectionId = 'dynsection-9';
</script>
<script type="application/ecmascript" xlink:href="svg.min.js"/>
<svg id="graph" class="graph">
<g id="viewport">
<title>com.runehive.content.tradingpost.TradingPost.buyingDialogueOptions</title>
<!-- Node1 -->
<g id="Node000001" class="node">
<title>Node1</title>
<g id="a_Node000001"><a xlink:title=" ">
<ellipse fill="#999999" stroke="#666666" cx="148.14" cy="-604.81" rx="148.14" ry="25.81"/>
<text xml:space="preserve" text-anchor="start" x="51.39" y="-607.66" font-family="Helvetica,sans-Serif" font-size="12.00">com.runehive.content.tradingpost.</text>
<text xml:space="preserve" text-anchor="middle" x="148.14" y="-593.41" font-family="Helvetica,sans-Serif" font-size="12.00">TradingPost.buyingDialogueOptions</text>
</a>
</g>
</g>
<!-- Node2 -->
<g id="Node000002" class="node">
<title>Node2</title>
<g id="a_Node000002"><a xlink:href="classcom_1_1runehive_1_1util_1_1_utility.html#a490026d68b72e2dea391680a7d49a844" target="_top" xlink:title="Formats digits for integers.">
<ellipse fill="white" stroke="#666666" cx="1946.88" cy="-785.81" rx="123.74" ry="25.81"/>
<text xml:space="preserve" text-anchor="start" x="1867.38" y="-788.66" font-family="Helvetica,sans-Serif" font-size="12.00">com.runehive.util.Utility.format</text>
<text xml:space="preserve" text-anchor="middle" x="1946.88" y="-774.41" font-family="Helvetica,sans-Serif" font-size="12.00">Digits</text>
</a>
</g>
</g>
<!-- Node1&#45;&gt;Node2 -->
<g id="edge1_Node000001_Node000002" class="edge">
<title>Node1&#45;&gt;Node2</title>
<g id="a_edge1_Node000001_Node000002"><a xlink:title=" ">
<path fill="none" stroke="#63b8ff" d="M196.52,-629.56C302.35,-682.47 567.27,-801.81 803.74,-801.81 803.74,-801.81 803.74,-801.81 1183.1,-801.81 1404.07,-801.81 1660.97,-795.01 1813.13,-790.28"/>
<polygon fill="#63b8ff" stroke="#63b8ff" points="1812.96,-793.79 1822.85,-789.98 1812.74,-786.79 1812.96,-793.79"/>
</a>
</g>
</g>
<!-- Node3 -->
<g id="Node000003" class="node">
<title>Node3</title>
<g id="a_Node000003"><a xlink:href="classcom_1_1runehive_1_1game_1_1world_1_1items_1_1_item_definition.html#a50e4924075ee157cd3f75a8107a595fa" target="_top" xlink:title="Gets an item definition.">
<ellipse fill="white" stroke="#666666" cx="2302.5" cy="-510.81" rx="132.76" ry="25.81"/>
<text xml:space="preserve" text-anchor="start" x="2216.62" y="-513.66" font-family="Helvetica,sans-Serif" font-size="12.00">com.runehive.game.world.items.</text>
<text xml:space="preserve" text-anchor="middle" x="2302.5" y="-499.41" font-family="Helvetica,sans-Serif" font-size="12.00">ItemDefinition.get</text>
</a>
</g>
</g>
<!-- Node1&#45;&gt;Node3 -->
<g id="edge2_Node000001_Node000003" class="edge">
<title>Node1&#45;&gt;Node3</title>
<g id="a_edge2_Node000001_Node000003"><a xlink:title=" ">
<path fill="none" stroke="#63b8ff" d="M174.7,-630.48C208.12,-662.63 269.79,-717.33 332.28,-748.81 526.29,-846.56 586.5,-877.81 803.74,-877.81 803.74,-877.81 803.74,-877.81 1562.57,-877.81 1816.61,-877.81 1921.01,-994.68 2133.74,-855.81 2242.52,-784.79 2282.93,-621.69 2296,-548.07"/>
<polygon fill="#63b8ff" stroke="#63b8ff" points="2299.39,-548.99 2297.61,-538.55 2292.49,-547.82 2299.39,-548.99"/>
</a>
</g>
</g>
<!-- Node5 -->
<g id="Node000005" class="node">
<title>Node5</title>
<g id="a_Node000005"><a xlink:href="classcom_1_1runehive_1_1game_1_1world_1_1items_1_1_item_definition.html#aa9479e24430ebdd5855705e1177346b4" target="_top" xlink:title="Gets the item name.">
<ellipse fill="white" stroke="#666666" cx="1946.88" cy="-219.81" rx="132.76" ry="25.81"/>
<text xml:space="preserve" text-anchor="start" x="1861.01" y="-222.66" font-family="Helvetica,sans-Serif" font-size="12.00">com.runehive.game.world.items.</text>
<text xml:space="preserve" text-anchor="middle" x="1946.88" y="-208.41" font-family="Helvetica,sans-Serif" font-size="12.00">ItemDefinition.getName</text>
</a>
</g>
</g>
<!-- Node1&#45;&gt;Node5 -->
<g id="edge4_Node000001_Node000005" class="edge">
<title>Node1&#45;&gt;Node5</title>
<g id="a_edge4_Node000001_Node000005"><a xlink:title=" ">
<path fill="none" stroke="#63b8ff" d="M161.04,-578.72C185.91,-526.83 248.13,-409.73 332.28,-340.81 449.2,-245.04 496.4,-236.45 644.4,-205.81 755.29,-182.86 1490.54,-204.43 1804.35,-214.88"/>
<polygon fill="#63b8ff" stroke="#63b8ff" points="1804.16,-218.37 1814.27,-215.21 1804.4,-211.38 1804.16,-218.37"/>
</a>
</g>
</g>
<!-- Node6 -->
<g id="Node000006" class="node">
<title>Node6</title>
<g id="a_Node000006"><a xlink:href="classcom_1_1runehive_1_1content_1_1tradingpost_1_1_trading_post.html#a16a7c9e73cb8f49283a2378de17ddf0b" target="_top" xlink:title=" ">
<ellipse fill="white" stroke="#666666" cx="470.34" cy="-375.81" rx="138.06" ry="25.81"/>
<text xml:space="preserve" text-anchor="start" x="380.72" y="-378.66" font-family="Helvetica,sans-Serif" font-size="12.00">com.runehive.content.tradingpost.</text>
<text xml:space="preserve" text-anchor="middle" x="470.34" y="-364.41" font-family="Helvetica,sans-Serif" font-size="12.00">TradingPost.purchase</text>
</a>
</g>
</g>
<!-- Node1&#45;&gt;Node6 -->
<g id="edge5_Node000001_Node000006" class="edge">
<title>Node1&#45;&gt;Node6</title>
<g id="a_edge5_Node000001_Node000006"><a xlink:title=" ">
<path fill="none" stroke="#63b8ff" d="M184.63,-579.43C243.45,-537.36 360.99,-453.3 425.12,-407.44"/>
<polygon fill="#63b8ff" stroke="#63b8ff" points="426.85,-410.5 432.95,-401.84 422.78,-404.81 426.85,-410.5"/>
</a>
</g>
</g>
<!-- Node4 -->
<g id="Node000004" class="node">
<title>Node4</title>
<g id="a_Node000004"><a xlink:href="classcom_1_1runehive_1_1game_1_1world_1_1items_1_1_item_definition.html#a4fafaf641c0490165d697a73006e76bf" target="_top" xlink:title=" ">
<ellipse fill="white" stroke="#666666" cx="2604.01" cy="-510.81" rx="132.76" ry="25.81"/>
<text xml:space="preserve" text-anchor="start" x="2518.14" y="-513.66" font-family="Helvetica,sans-Serif" font-size="12.00">com.runehive.game.world.items.</text>
<text xml:space="preserve" text-anchor="middle" x="2604.01" y="-499.41" font-family="Helvetica,sans-Serif" font-size="12.00">ItemDefinition.ItemDefinition</text>
</a>
</g>
</g>
<!-- Node3&#45;&gt;Node4 -->
<g id="edge3_Node000003_Node000004" class="edge">
<title>Node3&#45;&gt;Node4</title>
<g id="a_edge3_Node000003_Node000004"><a xlink:title=" ">
<path fill="none" stroke="#63b8ff" d="M2435.74,-510.81C2443.73,-510.81 2451.79,-510.81 2459.82,-510.81"/>
<polygon fill="#63b8ff" stroke="#63b8ff" points="2459.63,-514.31 2469.63,-510.81 2459.63,-507.31 2459.63,-514.31"/>
</a>
</g>
</g>
<!-- Node6&#45;&gt;Node3 -->
<g id="edge38_Node000006_Node000003" class="edge">
<title>Node6&#45;&gt;Node3</title>
<g id="a_edge38_Node000006_Node000003"><a xlink:title=" ">
<path fill="none" stroke="#63b8ff" d="M487.82,-401.69C515.17,-442.42 573.97,-521.04 644.4,-561.81 1084.93,-816.83 1254.32,-762.88 1760.03,-820.81 1925.04,-839.71 1991.05,-905.83 2133.74,-820.81 2234.62,-760.7 2278.52,-616.52 2294.18,-548.08"/>
<polygon fill="#63b8ff" stroke="#63b8ff" points="2297.57,-548.99 2296.3,-538.47 2290.73,-547.48 2297.57,-548.99"/>
</a>
</g>
</g>
<!-- Node6&#45;&gt;Node5 -->
<g id="edge40_Node000006_Node000005" class="edge">
<title>Node6&#45;&gt;Node5</title>
<g id="a_edge40_Node000006_Node000005"><a xlink:title=" ">
<path fill="none" stroke="#63b8ff" d="M526.34,-351.76C559.81,-338.23 603.81,-322.38 644.4,-313.81 700.66,-301.93 1486.29,-249.77 1809,-228.69"/>
<polygon fill="#63b8ff" stroke="#63b8ff" points="1809.03,-232.2 1818.78,-228.05 1808.57,-225.21 1809.03,-232.2"/>
</a>
</g>
</g>
<!-- Node7 -->
<g id="Node000007" class="node">
<title>Node7</title>
<g id="a_Node000007"><a xlink:href="classcom_1_1runehive_1_1content_1_1tradingpost_1_1_trading_post.html#a092d89dc8146869a5890cb8a8ea7e602" target="_top" xlink:title=" ">
<ellipse fill="white" stroke="#666666" cx="1182.1" cy="-402.81" rx="172" ry="35.89"/>
<text xml:space="preserve" text-anchor="start" x="1068.47" y="-412.78" font-family="Helvetica,sans-Serif" font-size="12.00">com.runehive.content.tradingpost.</text>
<text xml:space="preserve" text-anchor="start" x="1068.47" y="-398.53" font-family="Helvetica,sans-Serif" font-size="12.00">TradingPost.addSearchResultsAndUpdate</text>
<text xml:space="preserve" text-anchor="middle" x="1182.1" y="-384.28" font-family="Helvetica,sans-Serif" font-size="12.00">Interface</text>
</a>
</g>
</g>
<!-- Node6&#45;&gt;Node7 -->
<g id="edge6_Node000006_Node000007" class="edge">
<title>Node6&#45;&gt;Node7</title>
<g id="a_edge6_Node000006_Node000007"><a xlink:title=" ">
<path fill="none" stroke="#63b8ff" d="M604.56,-382.11C618.02,-382.71 631.48,-383.28 644.4,-383.81 763.05,-388.65 896.47,-393.38 1000.61,-396.91"/>
<polygon fill="#63b8ff" stroke="#63b8ff" points="1000.25,-400.4 1010.36,-397.24 1000.49,-393.4 1000.25,-400.4"/>
</a>
</g>
</g>
<!-- Node18 -->
<g id="Node000018" class="node">
<title>Node18</title>
<g id="a_Node000018"><a xlink:href="classcom_1_1runehive_1_1content_1_1tradingpost_1_1_trading_post.html#a1edc841066fcf647cd9ff7118c7dac26" target="_top" xlink:title=" ">
<ellipse fill="white" stroke="#666666" cx="804.74" cy="-89.81" rx="138.06" ry="25.81"/>
<text xml:space="preserve" text-anchor="start" x="715.11" y="-92.66" font-family="Helvetica,sans-Serif" font-size="12.00">com.runehive.content.tradingpost.</text>
<text xml:space="preserve" text-anchor="middle" x="804.74" y="-78.41" font-family="Helvetica,sans-Serif" font-size="12.00">TradingPost.addToCoffer</text>
</a>
</g>
</g>
<!-- Node6&#45;&gt;Node18 -->
<g id="edge23_Node000006_Node000018" class="edge">
<title>Node6&#45;&gt;Node18</title>
<g id="a_edge23_Node000006_Node000018"><a xlink:title=" ">
<path fill="none" stroke="#63b8ff" d="M488.43,-349.94C516.85,-308.43 577.38,-226.18 644.4,-172.81 671.79,-151 705.8,-132.35 735.36,-118.29"/>
<polygon fill="#63b8ff" stroke="#63b8ff" points="736.65,-121.55 744.24,-114.15 733.69,-115.21 736.65,-121.55"/>
</a>
</g>
</g>
<!-- Node23 -->
<g id="Node000023" class="node">
<title>Node23</title>
<g id="a_Node000023"><a xlink:href="classcom_1_1runehive_1_1content_1_1tradingpost_1_1_trading_post.html#aefba6a614b29c5e30c5b818ca7a2a89f" target="_top" xlink:title=" ">
<ellipse fill="white" stroke="#666666" cx="1561.57" cy="-165.81" rx="138.06" ry="25.81"/>
<text xml:space="preserve" text-anchor="start" x="1471.95" y="-168.66" font-family="Helvetica,sans-Serif" font-size="12.00">com.runehive.content.tradingpost.</text>
<text xml:space="preserve" text-anchor="middle" x="1561.57" y="-154.41" font-family="Helvetica,sans-Serif" font-size="12.00">TradingPost.addToItemHistory</text>
</a>
</g>
</g>
<!-- Node6&#45;&gt;Node23 -->
<g id="edge30_Node000006_Node000023" class="edge">
<title>Node6&#45;&gt;Node23</title>
<g id="a_edge30_Node000006_Node000023"><a xlink:title=" ">
<path fill="none" stroke="#63b8ff" d="M488.07,-350.04C515.34,-310.61 573.53,-236.62 644.4,-205.81 778.59,-147.48 1192.38,-152.29 1415.09,-159.64"/>
<polygon fill="#63b8ff" stroke="#63b8ff" points="1414.91,-163.14 1425.02,-159.98 1415.14,-156.14 1414.91,-163.14"/>
</a>
</g>
</g>
<!-- Node25 -->
<g id="Node000025" class="node">
<title>Node25</title>
<g id="a_Node000025"><a xlink:href="classcom_1_1runehive_1_1content_1_1tradingpost_1_1_trading_post.html#a7980c3efbfddcf27bce38fae24fc190d" target="_top" xlink:title=" ">
<ellipse fill="white" stroke="#666666" cx="804.74" cy="-526.81" rx="138.06" ry="25.81"/>
<text xml:space="preserve" text-anchor="start" x="715.11" y="-529.66" font-family="Helvetica,sans-Serif" font-size="12.00">com.runehive.content.tradingpost.</text>
<text xml:space="preserve" text-anchor="middle" x="804.74" y="-515.41" font-family="Helvetica,sans-Serif" font-size="12.00">TradingPost.alertSeller</text>
</a>
</g>
</g>
<!-- Node6&#45;&gt;Node25 -->
<g id="edge34_Node000006_Node000025" class="edge">
<title>Node6&#45;&gt;Node25</title>
<g id="a_edge34_Node000006_Node000025"><a xlink:title=" ">
<path fill="none" stroke="#63b8ff" d="M501.49,-401.21C534.5,-427.72 590.01,-468.6 644.4,-491.81 658.34,-497.76 673.42,-502.75 688.54,-506.92"/>
<polygon fill="#63b8ff" stroke="#63b8ff" points="687.52,-510.27 698.08,-509.43 689.3,-503.5 687.52,-510.27"/>
</a>
</g>
</g>
<!-- Node27 -->
<g id="Node000027" class="node">
<title>Node27</title>
<g id="a_Node000027"><a xlink:href="classcom_1_1runehive_1_1content_1_1tradingpost_1_1_trading_post.html#a10d70e673061289a3d56504bf845d201" target="_top" xlink:title=" ">
<ellipse fill="white" stroke="#666666" cx="804.74" cy="-348.81" rx="160.34" ry="25.81"/>
<text xml:space="preserve" text-anchor="start" x="699.36" y="-351.66" font-family="Helvetica,sans-Serif" font-size="12.00">com.runehive.content.tradingpost.</text>
<text xml:space="preserve" text-anchor="middle" x="804.74" y="-337.41" font-family="Helvetica,sans-Serif" font-size="12.00">TradingPost.displayMostRecentListings</text>
</a>
</g>
</g>
<!-- Node6&#45;&gt;Node27 -->
<g id="edge36_Node000006_Node000027" class="edge">
<title>Node6&#45;&gt;Node27</title>
<g id="a_edge36_Node000006_Node000027"><a xlink:title=" ">
<path fill="none" stroke="#63b8ff" d="M597.48,-365.56C614.43,-364.19 631.97,-362.76 649.34,-361.35"/>
<polygon fill="#63b8ff" stroke="#63b8ff" points="649.52,-364.85 659.21,-360.55 648.96,-357.87 649.52,-364.85"/>
</a>
</g>
</g>
<!-- Node28 -->
<g id="Node000028" class="node">
<title>Node28</title>
<g id="a_Node000028"><a xlink:href="classcom_1_1runehive_1_1content_1_1tradingpost_1_1_trading_post.html#aa0b15cb1d834d2c1fe70eaaddf1f8047" target="_top" xlink:title=" ">
<ellipse fill="white" stroke="#666666" cx="804.74" cy="-456.81" rx="138.06" ry="25.81"/>
<text xml:space="preserve" text-anchor="start" x="715.11" y="-459.66" font-family="Helvetica,sans-Serif" font-size="12.00">com.runehive.content.tradingpost.</text>
<text xml:space="preserve" text-anchor="middle" x="804.74" y="-445.41" font-family="Helvetica,sans-Serif" font-size="12.00">TradingPost.getListingsByName</text>
</a>
</g>
</g>
<!-- Node6&#45;&gt;Node28 -->
<g id="edge39_Node000006_Node000028" class="edge">
<title>Node6&#45;&gt;Node28</title>
<g id="a_edge39_Node000006_Node000028"><a xlink:title=" ">
<path fill="none" stroke="#63b8ff" d="M556.08,-396.46C602.47,-407.76 660.12,-421.81 708.12,-433.51"/>
<polygon fill="#63b8ff" stroke="#63b8ff" points="707.14,-436.87 717.69,-435.84 708.8,-430.07 707.14,-436.87"/>
</a>
</g>
</g>
<!-- Node29 -->
<g id="Node000029" class="node">
<title>Node29</title>
<g id="a_Node000029"><a xlink:href="classcom_1_1runehive_1_1content_1_1tradingpost_1_1_trading_post.html#ad26ef0d521ff5312a1dedf552eef67ca" target="_top" xlink:title=" ">
<ellipse fill="white" stroke="#666666" cx="804.74" cy="-240.81" rx="138.06" ry="25.81"/>
<text xml:space="preserve" text-anchor="start" x="715.11" y="-243.66" font-family="Helvetica,sans-Serif" font-size="12.00">com.runehive.content.tradingpost.</text>
<text xml:space="preserve" text-anchor="middle" x="804.74" y="-229.41" font-family="Helvetica,sans-Serif" font-size="12.00">TradingPost.saveListings</text>
</a>
</g>
</g>
<!-- Node6&#45;&gt;Node29 -->
<g id="edge41_Node000006_Node000029" class="edge">
<title>Node6&#45;&gt;Node29</title>
<g id="a_edge41_Node000006_Node000029"><a xlink:title=" ">
<path fill="none" stroke="#63b8ff" d="M510.15,-350.73C544.33,-329.57 596.07,-299.78 644.4,-280.81 661.82,-273.97 680.78,-268.01 699.35,-262.93"/>
<polygon fill="#63b8ff" stroke="#63b8ff" points="699.99,-266.38 708.76,-260.43 698.19,-259.61 699.99,-266.38"/>
</a>
</g>
</g>
<!-- Node8 -->
<g id="Node000008" class="node">
<title>Node8</title>
<g id="a_Node000008"><a xlink:href="classcom_1_1runehive_1_1content_1_1tradingpost_1_1_trading_post.html#a5d25d21f5529550f45274c2ab91a2c5e" target="_top" xlink:title=" ">
<ellipse fill="white" stroke="#666666" cx="1561.57" cy="-418.81" rx="138.06" ry="25.81"/>
<text xml:space="preserve" text-anchor="start" x="1471.95" y="-421.66" font-family="Helvetica,sans-Serif" font-size="12.00">com.runehive.content.tradingpost.</text>
<text xml:space="preserve" text-anchor="middle" x="1561.57" y="-407.41" font-family="Helvetica,sans-Serif" font-size="12.00">TradingPost.getPageListings</text>
</a>
</g>
</g>
<!-- Node7&#45;&gt;Node8 -->
<g id="edge7_Node000007_Node000008" class="edge">
<title>Node7&#45;&gt;Node8</title>
<g id="a_edge7_Node000007_Node000008"><a xlink:title=" ">
<path fill="none" stroke="#63b8ff" d="M1351.14,-409.93C1372.48,-410.84 1394.19,-411.76 1415.14,-412.65"/>
<polygon fill="#63b8ff" stroke="#63b8ff" points="1414.71,-416.13 1424.85,-413.06 1415,-409.14 1414.71,-416.13"/>
</a>
</g>
</g>
<!-- Node9 -->
<g id="Node000009" class="node">
<title>Node9</title>
<g id="a_Node000009"><a xlink:href="classcom_1_1runehive_1_1content_1_1tradingpost_1_1_trading_post.html#ad990a07f12ccac6f476679c83d2b6f32" target="_top" xlink:title=" ">
<ellipse fill="white" stroke="#666666" cx="1561.57" cy="-348.81" rx="138.06" ry="25.81"/>
<text xml:space="preserve" text-anchor="start" x="1471.95" y="-351.66" font-family="Helvetica,sans-Serif" font-size="12.00">com.runehive.content.tradingpost.</text>
<text xml:space="preserve" text-anchor="middle" x="1561.57" y="-337.41" font-family="Helvetica,sans-Serif" font-size="12.00">TradingPost.getSearchResults</text>
</a>
</g>
</g>
<!-- Node7&#45;&gt;Node9 -->
<g id="edge8_Node000007_Node000009" class="edge">
<title>Node7&#45;&gt;Node9</title>
<g id="a_edge8_Node000007_Node000009"><a xlink:title=" ">
<path fill="none" stroke="#63b8ff" d="M1325,-382.51C1362.71,-377.12 1403.08,-371.34 1439.56,-366.12"/>
<polygon fill="#63b8ff" stroke="#63b8ff" points="1439.85,-369.62 1449.25,-364.73 1438.85,-362.69 1439.85,-369.62"/>
</a>
</g>
</g>
<!-- Node10 -->
<g id="Node000010" class="node">
<title>Node10</title>
<g id="a_Node000010"><a xlink:href="classcom_1_1runehive_1_1content_1_1tradingpost_1_1_trading_post.html#ade08bc65b323ceb29793b90b647771a2" target="_top" xlink:title=" ">
<ellipse fill="white" stroke="#666666" cx="1561.57" cy="-515.81" rx="162.46" ry="25.81"/>
<text xml:space="preserve" text-anchor="start" x="1454.7" y="-518.66" font-family="Helvetica,sans-Serif" font-size="12.00">com.runehive.content.tradingpost.</text>
<text xml:space="preserve" text-anchor="middle" x="1561.57" y="-504.41" font-family="Helvetica,sans-Serif" font-size="12.00">TradingPost.updateBuyingPageWidgets</text>
</a>
</g>
</g>
<!-- Node7&#45;&gt;Node10 -->
<g id="edge11_Node000007_Node000010" class="edge">
<title>Node7&#45;&gt;Node10</title>
<g id="a_edge11_Node000007_Node000010"><a xlink:title=" ">
<path fill="none" stroke="#63b8ff" d="M1281.78,-432.35C1340.99,-450.07 1415.63,-472.42 1472.78,-489.53"/>
<polygon fill="#63b8ff" stroke="#63b8ff" points="1471.57,-492.82 1482.16,-492.33 1473.58,-486.11 1471.57,-492.82"/>
</a>
</g>
</g>
<!-- Node9&#45;&gt;Node3 -->
<g id="edge9_Node000009_Node000003" class="edge">
<title>Node9&#45;&gt;Node3</title>
<g id="a_edge9_Node000009_Node000003"><a xlink:title=" ">
<path fill="none" stroke="#63b8ff" d="M1694.68,-341.71C1838.05,-335.81 2056.8,-332.64 2133.74,-362.81 2193.07,-386.08 2245.27,-440.32 2275.1,-476.28"/>
<polygon fill="#63b8ff" stroke="#63b8ff" points="2272.21,-478.27 2281.23,-483.82 2277.64,-473.85 2272.21,-478.27"/>
</a>
</g>
</g>
<!-- Node9&#45;&gt;Node5 -->
<g id="edge10_Node000009_Node000005" class="edge">
<title>Node9&#45;&gt;Node5</title>
<g id="a_edge10_Node000009_Node000005"><a xlink:title=" ">
<path fill="none" stroke="#63b8ff" d="M1672.45,-333.27C1690.71,-327.5 1708.68,-319.61 1724.03,-308.81 1747.63,-292.22 1735.97,-270.72 1760.03,-254.81 1775.41,-244.64 1792.99,-237.24 1811.05,-231.9"/>
<polygon fill="#63b8ff" stroke="#63b8ff" points="1811.85,-235.31 1820.58,-229.3 1810.02,-228.55 1811.85,-235.31"/>
</a>
</g>
</g>
<!-- Node10&#45;&gt;Node2 -->
<g id="edge12_Node000010_Node000002" class="edge">
<title>Node10&#45;&gt;Node2</title>
<g id="a_edge12_Node000010_Node000002"><a xlink:title=" ">
<path fill="none" stroke="#63b8ff" d="M1576.22,-541.68C1603.75,-591.14 1671.01,-698.76 1760.03,-750.81 1778.05,-761.34 1798.58,-768.81 1819.27,-774.07"/>
<polygon fill="#63b8ff" stroke="#63b8ff" points="1818.41,-777.46 1828.95,-776.35 1820.02,-770.65 1818.41,-777.46"/>
</a>
</g>
</g>
<!-- Node10&#45;&gt;Node3 -->
<g id="edge13_Node000010_Node000003" class="edge">
<title>Node10&#45;&gt;Node3</title>
<g id="a_edge13_Node000010_Node000003"><a xlink:title=" ">
<path fill="none" stroke="#63b8ff" d="M1590.67,-541.47C1626.75,-572.51 1692.77,-623.05 1760.03,-642.81 1919.39,-689.63 1976.79,-697.15 2133.74,-642.81 2189.51,-623.5 2240.82,-577.12 2271.63,-544.83"/>
<polygon fill="#63b8ff" stroke="#63b8ff" points="2274.08,-547.34 2278.35,-537.65 2268.96,-542.56 2274.08,-547.34"/>
</a>
</g>
</g>
<!-- Node10&#45;&gt;Node5 -->
<g id="edge19_Node000010_Node000005" class="edge">
<title>Node10&#45;&gt;Node5</title>
<g id="a_edge19_Node000010_Node000005"><a xlink:title=" ">
<path fill="none" stroke="#63b8ff" d="M1662.76,-495.27C1685.85,-486.11 1708.23,-472.89 1724.03,-453.81 1781.35,-384.58 1696.7,-318.59 1760.03,-254.81 1772.58,-242.17 1788.15,-233.32 1804.91,-227.21"/>
<polygon fill="#63b8ff" stroke="#63b8ff" points="1805.62,-230.66 1814.04,-224.23 1803.44,-224.01 1805.62,-230.66"/>
</a>
</g>
</g>
<!-- Node11 -->
<g id="Node000011" class="node">
<title>Node11</title>
<g id="a_Node000011"><a xlink:href="classcom_1_1runehive_1_1content_1_1tradingpost_1_1_trading_post_listing.html#a1da368379fb26a922aa566bb0d0f47e1" target="_top" xlink:title=" ">
<ellipse fill="white" stroke="#666666" cx="1946.88" cy="-607.81" rx="138.59" ry="25.81"/>
<text xml:space="preserve" text-anchor="start" x="1856.88" y="-610.66" font-family="Helvetica,sans-Serif" font-size="12.00">com.runehive.content.tradingpost.</text>
<text xml:space="preserve" text-anchor="middle" x="1946.88" y="-596.41" font-family="Helvetica,sans-Serif" font-size="12.00">TradingPostListing.getAmountLeft</text>
</a>
</g>
</g>
<!-- Node10&#45;&gt;Node11 -->
<g id="edge14_Node000010_Node000011" class="edge">
<title>Node10&#45;&gt;Node11</title>
<g id="a_edge14_Node000010_Node000011"><a xlink:title=" ">
<path fill="none" stroke="#63b8ff" d="M1636.67,-539.01C1673.54,-550.08 1718.9,-563.02 1760.03,-572.81 1783.19,-578.32 1808.15,-583.52 1832.02,-588.14"/>
<polygon fill="#63b8ff" stroke="#63b8ff" points="1831.3,-591.56 1841.78,-590 1832.61,-584.69 1831.3,-591.56"/>
</a>
</g>
</g>
<!-- Node12 -->
<g id="Node000012" class="node">
<title>Node12</title>
<g id="a_Node000012"><a xlink:href="classcom_1_1runehive_1_1content_1_1tradingpost_1_1_trading_post.html#a10e1c838e60e7ab86ea26d19bb66cd51" target="_top" xlink:title=" ">
<ellipse fill="white" stroke="#666666" cx="1946.88" cy="-289.81" rx="178.9" ry="25.81"/>
<text xml:space="preserve" text-anchor="start" x="1828.38" y="-292.66" font-family="Helvetica,sans-Serif" font-size="12.00">com.runehive.content.tradingpost.</text>
<text xml:space="preserve" text-anchor="middle" x="1946.88" y="-278.41" font-family="Helvetica,sans-Serif" font-size="12.00">TradingPost.getItemArrayFromActiveListings</text>
</a>
</g>
</g>
<!-- Node10&#45;&gt;Node12 -->
<g id="edge15_Node000010_Node000012" class="edge">
<title>Node10&#45;&gt;Node12</title>
<g id="a_edge15_Node000010_Node000012"><a xlink:title=" ">
<path fill="none" stroke="#63b8ff" d="M1656.49,-494.45C1680.87,-485.24 1705.47,-472.19 1724.03,-453.81 1754.94,-423.21 1729.24,-393.53 1760.03,-362.81 1781.25,-341.64 1809.33,-326.45 1837.22,-315.6"/>
<polygon fill="#63b8ff" stroke="#63b8ff" points="1838.31,-318.94 1846.47,-312.18 1835.88,-312.37 1838.31,-318.94"/>
</a>
</g>
</g>
<!-- Node14 -->
<g id="Node000014" class="node">
<title>Node14</title>
<g id="a_Node000014"><a xlink:href="classcom_1_1runehive_1_1content_1_1tradingpost_1_1_trading_post_listing.html#aabefa78a76c6fd5a1fadad0e68816391" target="_top" xlink:title=" ">
<ellipse fill="white" stroke="#666666" cx="1946.88" cy="-537.81" rx="138.06" ry="25.81"/>
<text xml:space="preserve" text-anchor="start" x="1857.26" y="-540.66" font-family="Helvetica,sans-Serif" font-size="12.00">com.runehive.content.tradingpost.</text>
<text xml:space="preserve" text-anchor="middle" x="1946.88" y="-526.41" font-family="Helvetica,sans-Serif" font-size="12.00">TradingPostListing.getItemId</text>
</a>
</g>
</g>
<!-- Node10&#45;&gt;Node14 -->
<g id="edge18_Node000010_Node000014" class="edge">
<title>Node10&#45;&gt;Node14</title>
<g id="a_edge18_Node000010_Node000014"><a xlink:title=" ">
<path fill="none" stroke="#63b8ff" d="M1715.17,-524.57C1744.1,-526.23 1774.28,-527.96 1802.91,-529.6"/>
<polygon fill="#63b8ff" stroke="#63b8ff" points="1802.52,-533.09 1812.71,-530.17 1802.92,-526.1 1802.52,-533.09"/>
</a>
</g>
</g>
<!-- Node15 -->
<g id="Node000015" class="node">
<title>Node15</title>
<g id="a_Node000015"><a xlink:href="classcom_1_1runehive_1_1content_1_1tradingpost_1_1_trading_post_listing.html#a21f52cf795b5f9c154da3352a04716ff" target="_top" xlink:title=" ">
<ellipse fill="white" stroke="#666666" cx="1946.88" cy="-467.81" rx="138.06" ry="25.81"/>
<text xml:space="preserve" text-anchor="start" x="1857.26" y="-470.66" font-family="Helvetica,sans-Serif" font-size="12.00">com.runehive.content.tradingpost.</text>
<text xml:space="preserve" text-anchor="middle" x="1946.88" y="-456.41" font-family="Helvetica,sans-Serif" font-size="12.00">TradingPostListing.getPrice</text>
</a>
</g>
</g>
<!-- Node10&#45;&gt;Node15 -->
<g id="edge20_Node000010_Node000015" class="edge">
<title>Node10&#45;&gt;Node15</title>
<g id="a_edge20_Node000010_Node000015"><a xlink:title=" ">
<path fill="none" stroke="#63b8ff" d="M1690.48,-499.79C1732.16,-494.57 1778.38,-488.79 1819.91,-483.58"/>
<polygon fill="#63b8ff" stroke="#63b8ff" points="1820.22,-487.07 1829.71,-482.36 1819.35,-480.13 1820.22,-487.07"/>
</a>
</g>
</g>
<!-- Node16 -->
<g id="Node000016" class="node">
<title>Node16</title>
<g id="a_Node000016"><a xlink:href="classcom_1_1runehive_1_1content_1_1tradingpost_1_1_trading_post_listing.html#ace279895b1d1ce0a47e86a05f1325e0b" target="_top" xlink:title=" ">
<ellipse fill="white" stroke="#666666" cx="1946.88" cy="-397.81" rx="138.06" ry="25.81"/>
<text xml:space="preserve" text-anchor="start" x="1857.26" y="-400.66" font-family="Helvetica,sans-Serif" font-size="12.00">com.runehive.content.tradingpost.</text>
<text xml:space="preserve" text-anchor="middle" x="1946.88" y="-386.41" font-family="Helvetica,sans-Serif" font-size="12.00">TradingPostListing.getSeller</text>
</a>
</g>
</g>
<!-- Node10&#45;&gt;Node16 -->
<g id="edge21_Node000010_Node000016" class="edge">
<title>Node10&#45;&gt;Node16</title>
<g id="a_edge21_Node000010_Node000016"><a xlink:title=" ">
<path fill="none" stroke="#63b8ff" d="M1631.56,-492.11C1660.56,-481.43 1694.39,-468.03 1724.03,-453.81 1740.73,-445.8 1742.68,-439.28 1760.03,-432.81 1779.68,-425.48 1801.09,-419.63 1822.16,-414.97"/>
<polygon fill="#63b8ff" stroke="#63b8ff" points="1822.6,-418.46 1831.66,-412.96 1821.15,-411.61 1822.6,-418.46"/>
</a>
</g>
</g>
<!-- Node17 -->
<g id="Node000017" class="node">
<title>Node17</title>
<g id="a_Node000017"><a xlink:href="classcom_1_1runehive_1_1content_1_1tradingpost_1_1_trading_post.html#ae42aadd47e3438637121a8d9305e7ebb" target="_top" xlink:title=" ">
<ellipse fill="white" stroke="#666666" cx="1946.88" cy="-715.81" rx="186.85" ry="25.81"/>
<text xml:space="preserve" text-anchor="start" x="1822.76" y="-718.66" font-family="Helvetica,sans-Serif" font-size="12.00">com.runehive.content.tradingpost.</text>
<text xml:space="preserve" text-anchor="middle" x="1946.88" y="-704.41" font-family="Helvetica,sans-Serif" font-size="12.00">TradingPost.toggleBuyingPageWidgetVisibility</text>
</a>
</g>
</g>
<!-- Node10&#45;&gt;Node17 -->
<g id="edge22_Node000010_Node000017" class="edge">
<title>Node10&#45;&gt;Node17</title>
<g id="a_edge22_Node000010_Node000017"><a xlink:title=" ">
<path fill="none" stroke="#63b8ff" d="M1586.37,-541.57C1621.02,-577.43 1688.99,-641.8 1760.03,-675.81 1775.05,-683 1791.37,-688.91 1807.89,-693.76"/>
<polygon fill="#63b8ff" stroke="#63b8ff" points="1806.73,-697.07 1817.3,-696.4 1808.61,-690.33 1806.73,-697.07"/>
</a>
</g>
</g>
<!-- Node12&#45;&gt;Node3 -->
<g id="edge16_Node000012_Node000003" class="edge">
<title>Node12&#45;&gt;Node3</title>
<g id="a_edge16_Node000012_Node000003"><a xlink:title=" ">
<path fill="none" stroke="#63b8ff" d="M2079.1,-307.44C2098.14,-312.98 2116.96,-320.25 2133.74,-329.81 2196.98,-365.83 2250.16,-433.75 2278.79,-475.37"/>
<polygon fill="#63b8ff" stroke="#63b8ff" points="2275.84,-477.26 2284.34,-483.59 2281.64,-473.34 2275.84,-477.26"/>
</a>
</g>
</g>
<!-- Node13 -->
<g id="Node000013" class="node">
<title>Node13</title>
<g id="a_Node000013"><a xlink:href="classcom_1_1runehive_1_1game_1_1world_1_1items_1_1_item_definition.html#a02ac54bf30eac3ffea93fd35b2db8f03" target="_top" xlink:title="Gets the item note state.">
<ellipse fill="white" stroke="#666666" cx="2302.5" cy="-289.81" rx="132.76" ry="25.81"/>
<text xml:space="preserve" text-anchor="start" x="2216.62" y="-292.66" font-family="Helvetica,sans-Serif" font-size="12.00">com.runehive.game.world.items.</text>
<text xml:space="preserve" text-anchor="middle" x="2302.5" y="-278.41" font-family="Helvetica,sans-Serif" font-size="12.00">ItemDefinition.isNoted</text>
</a>
</g>
</g>
<!-- Node12&#45;&gt;Node13 -->
<g id="edge17_Node000012_Node000013" class="edge">
<title>Node12&#45;&gt;Node13</title>
<g id="a_edge17_Node000012_Node000013"><a xlink:title=" ">
<path fill="none" stroke="#63b8ff" d="M2126.24,-289.81C2136.96,-289.81 2147.66,-289.81 2158.21,-289.81"/>
<polygon fill="#63b8ff" stroke="#63b8ff" points="2158.06,-293.31 2168.06,-289.81 2158.06,-286.31 2158.06,-293.31"/>
</a>
</g>
</g>
<!-- Node19 -->
<g id="Node000019" class="node">
<title>Node19</title>
<g id="a_Node000019"><a xlink:href="classcom_1_1runehive_1_1content_1_1tradingpost_1_1_trading_post.html#a79b31da1b24fd879375f09e6c43bad92" target="_top" xlink:title=" ">
<ellipse fill="white" stroke="#666666" cx="1182.1" cy="-89.81" rx="181.02" ry="25.81"/>
<text xml:space="preserve" text-anchor="start" x="1062.1" y="-92.66" font-family="Helvetica,sans-Serif" font-size="12.00">com.runehive.content.tradingpost.</text>
<text xml:space="preserve" text-anchor="middle" x="1182.1" y="-78.41" font-family="Helvetica,sans-Serif" font-size="12.00">TradingPost.getOrMakeNewCofferIfNotExists</text>
</a>
</g>
</g>
<!-- Node18&#45;&gt;Node19 -->
<g id="edge24_Node000018_Node000019" class="edge">
<title>Node18&#45;&gt;Node19</title>
<g id="a_edge24_Node000018_Node000019"><a xlink:title=" ">
<path fill="none" stroke="#63b8ff" d="M943.11,-89.81C958.19,-89.81 973.73,-89.81 989.31,-89.81"/>
<polygon fill="#63b8ff" stroke="#63b8ff" points="989.14,-93.31 999.14,-89.81 989.14,-86.31 989.14,-93.31"/>
</a>
</g>
</g>
<!-- Node22 -->
<g id="Node000022" class="node">
<title>Node22</title>
<g id="a_Node000022"><a xlink:href="classcom_1_1runehive_1_1content_1_1tradingpost_1_1_trading_post.html#aef532c10f0791ffc975b3c26fca6e37e" target="_top" xlink:title=" ">
<ellipse fill="white" stroke="#666666" cx="1561.57" cy="-25.81" rx="138.06" ry="25.81"/>
<text xml:space="preserve" text-anchor="start" x="1471.95" y="-28.66" font-family="Helvetica,sans-Serif" font-size="12.00">com.runehive.content.tradingpost.</text>
<text xml:space="preserve" text-anchor="middle" x="1561.57" y="-14.41" font-family="Helvetica,sans-Serif" font-size="12.00">TradingPost.saveCoffer</text>
</a>
</g>
</g>
<!-- Node18&#45;&gt;Node22 -->
<g id="edge29_Node000018_Node000022" class="edge">
<title>Node18&#45;&gt;Node22</title>
<g id="a_edge29_Node000018_Node000022"><a xlink:title=" ">
<path fill="none" stroke="#63b8ff" d="M899.28,-70.59C931.42,-64.64 967.7,-58.65 1001.08,-54.81 1139.92,-38.84 1299.17,-31.66 1412.17,-28.43"/>
<polygon fill="#63b8ff" stroke="#63b8ff" points="1412.24,-31.93 1422.14,-28.16 1412.04,-24.94 1412.24,-31.93"/>
</a>
</g>
</g>
<!-- Node20 -->
<g id="Node000020" class="node">
<title>Node20</title>
<g id="a_Node000020"><a xlink:href="classcom_1_1runehive_1_1content_1_1tradingpost_1_1_trading_post.html#affe2409ec2c2ffbeab7c4d739b3eb164" target="_top" xlink:title=" ">
<ellipse fill="white" stroke="#666666" cx="1561.57" cy="-95.81" rx="138.06" ry="25.81"/>
<text xml:space="preserve" text-anchor="start" x="1471.95" y="-98.66" font-family="Helvetica,sans-Serif" font-size="12.00">com.runehive.content.tradingpost.</text>
<text xml:space="preserve" text-anchor="middle" x="1561.57" y="-84.41" font-family="Helvetica,sans-Serif" font-size="12.00">TradingPost.getCoffer</text>
</a>
</g>
</g>
<!-- Node19&#45;&gt;Node20 -->
<g id="edge25_Node000019_Node000020" class="edge">
<title>Node19&#45;&gt;Node20</title>
<g id="a_edge25_Node000019_Node000020"><a xlink:title=" ">
<path fill="none" stroke="#63b8ff" d="M1362.44,-92.66C1379.13,-92.93 1395.92,-93.19 1412.28,-93.45"/>
<polygon fill="#63b8ff" stroke="#63b8ff" points="1411.97,-96.95 1422.03,-93.61 1412.08,-89.95 1411.97,-96.95"/>
</a>
</g>
</g>
<!-- Node19&#45;&gt;Node22 -->
<g id="edge27_Node000019_Node000022" class="edge">
<title>Node19&#45;&gt;Node22</title>
<g id="a_edge27_Node000019_Node000022"><a xlink:title=" ">
<path fill="none" stroke="#63b8ff" d="M1300.46,-69.91C1347.05,-62.01 1400.44,-52.96 1446.68,-45.12"/>
<polygon fill="#63b8ff" stroke="#63b8ff" points="1447.19,-48.58 1456.47,-43.46 1446.02,-41.68 1447.19,-48.58"/>
</a>
</g>
</g>
<!-- Node21 -->
<g id="Node000021" class="node">
<title>Node21</title>
<g id="a_Node000021"><a xlink:href="classcom_1_1runehive_1_1content_1_1tradingpost_1_1_coffer.html#a5954905246cc8a6ed1e999f369fe7651" target="_top" xlink:title=" ">
<ellipse fill="white" stroke="#666666" cx="1946.88" cy="-33.81" rx="138.06" ry="25.81"/>
<text xml:space="preserve" text-anchor="start" x="1857.26" y="-36.66" font-family="Helvetica,sans-Serif" font-size="12.00">com.runehive.content.tradingpost.</text>
<text xml:space="preserve" text-anchor="middle" x="1946.88" y="-22.41" font-family="Helvetica,sans-Serif" font-size="12.00">Coffer.getOwner</text>
</a>
</g>
</g>
<!-- Node20&#45;&gt;Node21 -->
<g id="edge26_Node000020_Node000021" class="edge">
<title>Node20&#45;&gt;Node21</title>
<g id="a_edge26_Node000020_Node000021"><a xlink:title=" ">
<path fill="none" stroke="#63b8ff" d="M1667.31,-78.87C1717.7,-70.72 1778.26,-60.92 1830.02,-52.55"/>
<polygon fill="#63b8ff" stroke="#63b8ff" points="1830.46,-56.02 1839.77,-50.97 1829.34,-49.11 1830.46,-56.02"/>
</a>
</g>
</g>
<!-- Node22&#45;&gt;Node21 -->
<g id="edge28_Node000022_Node000021" class="edge">
<title>Node22&#45;&gt;Node21</title>
<g id="a_edge28_Node000022_Node000021"><a xlink:title=" ">
<path fill="none" stroke="#63b8ff" d="M1699.06,-28.66C1731.1,-29.33 1765.38,-30.04 1797.9,-30.72"/>
<polygon fill="#63b8ff" stroke="#63b8ff" points="1797.73,-34.22 1807.8,-30.93 1797.88,-27.22 1797.73,-34.22"/>
</a>
</g>
</g>
<!-- Node23&#45;&gt;Node3 -->
<g id="edge31_Node000023_Node000003" class="edge">
<title>Node23&#45;&gt;Node3</title>
<g id="a_edge31_Node000023_Node000003"><a xlink:title=" ">
<path fill="none" stroke="#63b8ff" d="M1698.37,-161.93C1856.57,-158.71 2100.63,-158.25 2133.74,-184.81 2183.85,-225.02 2142.72,-266.52 2169.74,-324.81 2196.43,-382.4 2241.4,-440.85 2271.27,-476.46"/>
<polygon fill="#63b8ff" stroke="#63b8ff" points="2268.4,-478.49 2277.53,-483.86 2273.74,-473.97 2268.4,-478.49"/>
</a>
</g>
</g>
<!-- Node23&#45;&gt;Node5 -->
<g id="edge33_Node000023_Node000005" class="edge">
<title>Node23&#45;&gt;Node5</title>
<g id="a_edge33_Node000023_Node000005"><a xlink:title=" ">
<path fill="none" stroke="#63b8ff" d="M1673.18,-181.39C1721.29,-188.17 1777.75,-196.12 1826.78,-203.03"/>
<polygon fill="#63b8ff" stroke="#63b8ff" points="1826.21,-206.48 1836.6,-204.41 1827.18,-199.55 1826.21,-206.48"/>
</a>
</g>
</g>
<!-- Node24 -->
<g id="Node000024" class="node">
<title>Node24</title>
<g id="a_Node000024"><a xlink:href="classcom_1_1runehive_1_1content_1_1tradingpost_1_1_item_history.html#a3c94943cd582bea48b9e64afffd46781" target="_top" xlink:title=" ">
<ellipse fill="white" stroke="#666666" cx="1946.88" cy="-111.81" rx="138.06" ry="25.81"/>
<text xml:space="preserve" text-anchor="start" x="1857.26" y="-114.66" font-family="Helvetica,sans-Serif" font-size="12.00">com.runehive.content.tradingpost.</text>
<text xml:space="preserve" text-anchor="middle" x="1946.88" y="-100.41" font-family="Helvetica,sans-Serif" font-size="12.00">ItemHistory.getItemId</text>
</a>
</g>
</g>
<!-- Node23&#45;&gt;Node24 -->
<g id="edge32_Node000023_Node000024" class="edge">
<title>Node23&#45;&gt;Node24</title>
<g id="a_edge32_Node000023_Node000024"><a xlink:title=" ">
<path fill="none" stroke="#63b8ff" d="M1673.18,-150.23C1720.47,-143.56 1775.83,-135.77 1824.27,-128.94"/>
<polygon fill="#63b8ff" stroke="#63b8ff" points="1824.54,-132.44 1833.95,-127.58 1823.56,-125.51 1824.54,-132.44"/>
</a>
</g>
</g>
<!-- Node26 -->
<g id="Node000026" class="node">
<title>Node26</title>
<g id="a_Node000026"><a xlink:href="classcom_1_1runehive_1_1game_1_1world_1_1_world.html#a590d2ef2c73cff5df6003fe2440f317d" target="_top" xlink:title="Gets a player by name.">
<ellipse fill="white" stroke="#666666" cx="1182.1" cy="-526.81" rx="110.49" ry="25.81"/>
<text xml:space="preserve" text-anchor="start" x="1111.97" y="-529.66" font-family="Helvetica,sans-Serif" font-size="12.00">com.runehive.game.world.</text>
<text xml:space="preserve" text-anchor="middle" x="1182.1" y="-515.41" font-family="Helvetica,sans-Serif" font-size="12.00">World.search</text>
</a>
</g>
</g>
<!-- Node25&#45;&gt;Node26 -->
<g id="edge35_Node000025_Node000026" class="edge">
<title>Node25&#45;&gt;Node26</title>
<g id="a_edge35_Node000025_Node000026"><a xlink:title=" ">
<path fill="none" stroke="#63b8ff" d="M943.11,-526.81C981.34,-526.81 1022.57,-526.81 1059.8,-526.81"/>
<polygon fill="#63b8ff" stroke="#63b8ff" points="1059.7,-530.31 1069.7,-526.81 1059.7,-523.31 1059.7,-530.31"/>
</a>
</g>
</g>
<!-- Node27&#45;&gt;Node7 -->
<g id="edge37_Node000027_Node000007" class="edge">
<title>Node27&#45;&gt;Node7</title>
<g id="a_edge37_Node000027_Node000007"><a xlink:title=" ">
<path fill="none" stroke="#63b8ff" d="M925.79,-366.08C958.41,-370.77 994.16,-375.92 1028.32,-380.83"/>
<polygon fill="#63b8ff" stroke="#63b8ff" points="1027.46,-384.24 1037.85,-382.2 1028.45,-377.31 1027.46,-384.24"/>
</a>
</g>
</g>
</g>
</svg>

<g id="navigator" transform="translate(0 0)" fill="#404254">
  <rect fill="#f2f5e9" fill-opacity="0.5" stroke="#606060" stroke-width=".5" x="0" y="0" width="60" height="60"/>
  <use id="zoomplus" xlink:href="#zoomPlus" x="17" y="9" onmousedown="handleZoom(evt,'in')"/>
  <use id="zoomminus" xlink:href="#zoomMin" x="42" y="9" onmousedown="handleZoom(evt,'out')"/>
  <use id="reset" xlink:href="#resetDef" x="30" y="36" onmousedown="handleReset()"/>
   <use id="arrowup" xlink:href="#arrowUp" x="0" y="0" onmousedown="handlePan(0,-1)"/>
  <use id="arrowright" xlink:href="#arrowRight" x="0" y="0" onmousedown="handlePan(1,0)"/>
  <use id="arrowdown" xlink:href="#arrowDown" x="0" y="0" onmousedown="handlePan(0,1)"/>
  <use id="arrowleft" xlink:href="#arrowLeft" x="0" y="0" onmousedown="handlePan(-1,0)"/>
</g>
<svg viewBox="0 0 15 15" width="100%" height="30px" preserveAspectRatio="xMaxYMin meet">
 <g id="arrow_out" transform="scale(0.3 0.3)">
  <a xlink:href="classcom_1_1runehive_1_1content_1_1tradingpost_1_1_trading_post_a770f1d7ebfac91146e44bc93f5ac1e11_cgraph_org.svg" target="_base">
   <rect id="button" ry="5" rx="5" y="6" x="6" height="38" width="38"
        fill="#f2f5e9" fill-opacity="0.5" stroke="#606060" stroke-width="1.0"/>
   <path id="arrow"
     d="M 11.500037,31.436501 C 11.940474,20.09759 22.043105,11.32322 32.158766,21.979434 L 37.068811,17.246167 C 37.068811,17.246167 37.088388,32 37.088388,32 L 22.160133,31.978069 C 22.160133,31.978069 26.997745,27.140456 26.997745,27.140456 C 18.528582,18.264221 13.291696,25.230495 11.500037,31.436501 z"
     style="fill:#404040;"/>
  </a>
 </g>
</svg>

<style type='text/css'>
<![CDATA[
[data-mouse-over-selected='false'] { opacity: 0.7; }
[data-mouse-over-selected='true']  { opacity: 1.0; }
]]>
</style>
<script type="application/ecmascript"><![CDATA[
document.addEventListener('DOMContentLoaded', (event) => {
  highlightEdges();
  highlightAdjacentNodes();
});
]]></script>
</svg>
