<?xml version="1.0" encoding="UTF-8" standalone="no"?>
<!DOCTYPE svg PUBLIC "-//W3C//DTD SVG 1.1//EN"
 "http://www.w3.org/Graphics/SVG/1.1/DTD/svg11.dtd">
<!-- Generated by graphviz version 14.0.1 (20251006.0113)
 -->
<!-- Title: com.runehive.content.store.Store.sell Pages: 1 -->
<svg width="2000pt" height="1081pt"
 viewBox="0.00 0.00 2000.00 1081.00" xmlns="http://www.w3.org/2000/svg" xmlns:xlink="http://www.w3.org/1999/xlink">
<g id="graph0" class="graph" transform="scale(1 1) rotate(0) translate(4 1076.62)">
<title>com.runehive.content.store.Store.sell</title>
<!-- Node1 -->
<g id="Node000001" class="node">
<title>Node1</title>
<g id="a_Node000001"><a xlink:title=" ">
<ellipse fill="#999999" stroke="#666666" cx="114.73" cy="-561.81" rx="114.73" ry="25.81"/>
<text xml:space="preserve" text-anchor="start" x="41.6" y="-564.66" font-family="Helvetica,sans-Serif" font-size="12.00">com.runehive.content.store.</text>
<text xml:space="preserve" text-anchor="middle" x="114.73" y="-550.41" font-family="Helvetica,sans-Serif" font-size="12.00">Store.sell</text>
</a>
</g>
</g>
<!-- Node2 -->
<g id="Node000002" class="node">
<title>Node2</title>
<g id="a_Node000002"><a xlink:href="classcom_1_1runehive_1_1game_1_1world_1_1items_1_1containers_1_1_item_container.html#a213c1e964d911374c4b776c4fb741acc" target="_top" xlink:title="Computes the total quantity of the Items in this container with id.">
<ellipse fill="white" stroke="#666666" cx="441.17" cy="-1046.81" rx="174.13" ry="25.81"/>
<text xml:space="preserve" text-anchor="start" x="326.05" y="-1049.66" font-family="Helvetica,sans-Serif" font-size="12.00">com.runehive.game.world.items.containers.</text>
<text xml:space="preserve" text-anchor="middle" x="441.17" y="-1035.41" font-family="Helvetica,sans-Serif" font-size="12.00">ItemContainer.computeAmountForId</text>
</a>
</g>
</g>
<!-- Node1&#45;&gt;Node2 -->
<g id="edge1_Node000001_Node000002" class="edge">
<title>Node1&#45;&gt;Node2</title>
<g id="a_edge1_Node000001_Node000002"><a xlink:title=" ">
<path fill="none" stroke="#63b8ff" d="M115.91,-587.97C117.97,-665.67 135.26,-896.78 265.46,-1011.81 272.14,-1017.71 279.53,-1022.73 287.39,-1026.99"/>
<polygon fill="#63b8ff" stroke="#63b8ff" points="285.7,-1030.06 296.22,-1031.32 288.78,-1023.77 285.7,-1030.06"/>
</a>
</g>
</g>
<!-- Node3 -->
<g id="Node000003" class="node">
<title>Node3</title>
<g id="a_Node000003"><a xlink:href="classcom_1_1runehive_1_1game_1_1world_1_1items_1_1containers_1_1_item_container.html#a2a021797c58d8e97bf41d1c07ec1fc9f" target="_top" xlink:title="Gets the Item located on index.">
<ellipse fill="white" stroke="#666666" cx="441.17" cy="-976.81" rx="174.13" ry="25.81"/>
<text xml:space="preserve" text-anchor="start" x="326.05" y="-979.66" font-family="Helvetica,sans-Serif" font-size="12.00">com.runehive.game.world.items.containers.</text>
<text xml:space="preserve" text-anchor="middle" x="441.17" y="-965.41" font-family="Helvetica,sans-Serif" font-size="12.00">ItemContainer.get</text>
</a>
</g>
</g>
<!-- Node1&#45;&gt;Node3 -->
<g id="edge2_Node000001_Node000003" class="edge">
<title>Node1&#45;&gt;Node3</title>
<g id="a_edge2_Node000001_Node000003"><a xlink:title=" ">
<path fill="none" stroke="#63b8ff" d="M117.71,-587.89C124.46,-657.31 152.87,-847.63 265.46,-941.81 272.54,-947.74 280.35,-952.76 288.62,-957"/>
<polygon fill="#63b8ff" stroke="#63b8ff" points="287,-960.11 297.54,-961.16 289.96,-953.76 287,-960.11"/>
</a>
</g>
</g>
<!-- Node4 -->
<g id="Node000004" class="node">
<title>Node4</title>
<g id="a_Node000004"><a xlink:href="classcom_1_1runehive_1_1game_1_1world_1_1items_1_1_item.html#a469ed0805255f62514005f11dc213676" target="_top" xlink:title="Gets the quantity of this item.">
<ellipse fill="white" stroke="#666666" cx="441.17" cy="-906.81" rx="132.76" ry="25.81"/>
<text xml:space="preserve" text-anchor="start" x="355.3" y="-909.66" font-family="Helvetica,sans-Serif" font-size="12.00">com.runehive.game.world.items.</text>
<text xml:space="preserve" text-anchor="middle" x="441.17" y="-895.41" font-family="Helvetica,sans-Serif" font-size="12.00">Item.getAmount</text>
</a>
</g>
</g>
<!-- Node1&#45;&gt;Node4 -->
<g id="edge3_Node000001_Node000004" class="edge">
<title>Node1&#45;&gt;Node4</title>
<g id="a_edge3_Node000001_Node000004"><a xlink:title=" ">
<path fill="none" stroke="#63b8ff" d="M120.25,-587.95C132.16,-648.34 170.26,-798.04 265.46,-871.81 277.66,-881.26 291.74,-888.36 306.5,-893.66"/>
<polygon fill="#63b8ff" stroke="#63b8ff" points="305.32,-896.96 315.92,-896.74 307.5,-890.31 305.32,-896.96"/>
</a>
</g>
</g>
<!-- Node5 -->
<g id="Node000005" class="node">
<title>Node5</title>
<g id="a_Node000005"><a xlink:href="classcom_1_1runehive_1_1game_1_1world_1_1items_1_1_item.html#a1cec21ca5ef1783808d4ca9de1051a29" target="_top" xlink:title="Gets the identification of this item.">
<ellipse fill="white" stroke="#666666" cx="441.17" cy="-836.81" rx="132.76" ry="25.81"/>
<text xml:space="preserve" text-anchor="start" x="355.3" y="-839.66" font-family="Helvetica,sans-Serif" font-size="12.00">com.runehive.game.world.items.</text>
<text xml:space="preserve" text-anchor="middle" x="441.17" y="-825.41" font-family="Helvetica,sans-Serif" font-size="12.00">Item.getId</text>
</a>
</g>
</g>
<!-- Node1&#45;&gt;Node5 -->
<g id="edge4_Node000001_Node000005" class="edge">
<title>Node1&#45;&gt;Node5</title>
<g id="a_edge4_Node000001_Node000005"><a xlink:title=" ">
<path fill="none" stroke="#63b8ff" d="M124.04,-587.68C141.52,-637.72 187.11,-747.59 265.46,-801.81 278.58,-810.89 293.51,-817.74 308.99,-822.87"/>
<polygon fill="#63b8ff" stroke="#63b8ff" points="307.74,-826.15 318.33,-825.72 309.78,-819.46 307.74,-826.15"/>
</a>
</g>
</g>
<!-- Node6 -->
<g id="Node000006" class="node">
<title>Node6</title>
<g id="a_Node000006"><a xlink:href="classcom_1_1runehive_1_1game_1_1world_1_1items_1_1_item.html#adc1c7b8e6620777606b083001f7d936a" target="_top" xlink:title=" ">
<ellipse fill="white" stroke="#666666" cx="441.17" cy="-588.81" rx="132.76" ry="25.81"/>
<text xml:space="preserve" text-anchor="start" x="355.3" y="-591.66" font-family="Helvetica,sans-Serif" font-size="12.00">com.runehive.game.world.items.</text>
<text xml:space="preserve" text-anchor="middle" x="441.17" y="-577.41" font-family="Helvetica,sans-Serif" font-size="12.00">Item.getName</text>
</a>
</g>
</g>
<!-- Node1&#45;&gt;Node6 -->
<g id="edge5_Node000001_Node000006" class="edge">
<title>Node1&#45;&gt;Node6</title>
<g id="a_edge5_Node000001_Node000006"><a xlink:title=" ">
<path fill="none" stroke="#63b8ff" d="M222.86,-570.73C249.83,-572.97 279.1,-575.41 307.17,-577.74"/>
<polygon fill="#63b8ff" stroke="#63b8ff" points="306.51,-581.2 316.76,-578.54 307.09,-574.22 306.51,-581.2"/>
</a>
</g>
</g>
<!-- Node11 -->
<g id="Node000011" class="node">
<title>Node11</title>
<g id="a_Node000011"><a xlink:href="classcom_1_1runehive_1_1game_1_1world_1_1items_1_1_item.html#a04bb5c6d34282179403315898434fd73" target="_top" xlink:title=" ">
<ellipse fill="white" stroke="#666666" cx="441.17" cy="-766.81" rx="132.76" ry="25.81"/>
<text xml:space="preserve" text-anchor="start" x="355.3" y="-769.66" font-family="Helvetica,sans-Serif" font-size="12.00">com.runehive.game.world.items.</text>
<text xml:space="preserve" text-anchor="middle" x="441.17" y="-755.41" font-family="Helvetica,sans-Serif" font-size="12.00">Item.getSellValue</text>
</a>
</g>
</g>
<!-- Node1&#45;&gt;Node11 -->
<g id="edge10_Node000001_Node000011" class="edge">
<title>Node1&#45;&gt;Node11</title>
<g id="a_edge10_Node000001_Node000011"><a xlink:title=" ">
<path fill="none" stroke="#63b8ff" d="M131.79,-587.81C156.03,-624.73 205.53,-691.74 265.46,-726.81 281.84,-736.4 300.35,-743.69 319.03,-749.23"/>
<polygon fill="#63b8ff" stroke="#63b8ff" points="318,-752.58 328.57,-751.89 319.88,-745.84 318,-752.58"/>
</a>
</g>
</g>
<!-- Node13 -->
<g id="Node000013" class="node">
<title>Node13</title>
<g id="a_Node000013"><a xlink:href="enumcom_1_1runehive_1_1content_1_1store_1_1currency_1_1_currency_type.html#a2075b903e47e650d6da6c000e8a06287" target="_top" xlink:title=" ">
<ellipse fill="white" stroke="#666666" cx="441.17" cy="-658.81" rx="148.67" ry="25.81"/>
<text xml:space="preserve" text-anchor="start" x="344.05" y="-661.66" font-family="Helvetica,sans-Serif" font-size="12.00">com.runehive.content.store.currency.</text>
<text xml:space="preserve" text-anchor="middle" x="441.17" y="-647.41" font-family="Helvetica,sans-Serif" font-size="12.00">CurrencyType.isCurrency</text>
</a>
</g>
</g>
<!-- Node1&#45;&gt;Node13 -->
<g id="edge13_Node000001_Node000013" class="edge">
<title>Node1&#45;&gt;Node13</title>
<g id="a_edge13_Node000001_Node000013"><a xlink:title=" ">
<path fill="none" stroke="#63b8ff" d="M165.43,-585.26C194.15,-598.08 231.27,-613.42 265.46,-623.81 283.52,-629.3 302.9,-634.16 321.94,-638.38"/>
<polygon fill="#63b8ff" stroke="#63b8ff" points="321.1,-641.78 331.62,-640.47 322.58,-634.94 321.1,-641.78"/>
</a>
</g>
</g>
<!-- Node14 -->
<g id="Node000014" class="node">
<title>Node14</title>
<g id="a_Node000014"><a xlink:href="classcom_1_1runehive_1_1game_1_1world_1_1items_1_1_item.html#a3c3c8fd729f4e26fc67eb83adefe4972" target="_top" xlink:title=" ">
<ellipse fill="white" stroke="#666666" cx="827.01" cy="-704.81" rx="132.76" ry="25.81"/>
<text xml:space="preserve" text-anchor="start" x="741.14" y="-707.66" font-family="Helvetica,sans-Serif" font-size="12.00">com.runehive.game.world.items.</text>
<text xml:space="preserve" text-anchor="middle" x="827.01" y="-693.41" font-family="Helvetica,sans-Serif" font-size="12.00">Item.isStackable</text>
</a>
</g>
</g>
<!-- Node1&#45;&gt;Node14 -->
<g id="edge14_Node000001_Node000014" class="edge">
<title>Node1&#45;&gt;Node14</title>
<g id="a_edge14_Node000001_Node000014"><a xlink:title=" ">
<path fill="none" stroke="#63b8ff" d="M135.12,-587.58C160.85,-619.43 209.59,-672.07 265.46,-693.81 339.59,-722.66 547.57,-719.15 688.26,-712.85"/>
<polygon fill="#63b8ff" stroke="#63b8ff" points="688.2,-716.35 698.02,-712.4 687.87,-709.36 688.2,-716.35"/>
</a>
</g>
</g>
<!-- Node15 -->
<g id="Node000015" class="node">
<title>Node15</title>
<g id="a_Node000015"><a xlink:href="classcom_1_1runehive_1_1game_1_1world_1_1items_1_1_item.html#a6cf8fb321f42b6b3830aa27258e2bf56" target="_top" xlink:title=" ">
<ellipse fill="white" stroke="#666666" cx="827.01" cy="-526.81" rx="132.76" ry="25.81"/>
<text xml:space="preserve" text-anchor="start" x="741.14" y="-529.66" font-family="Helvetica,sans-Serif" font-size="12.00">com.runehive.game.world.items.</text>
<text xml:space="preserve" text-anchor="middle" x="827.01" y="-515.41" font-family="Helvetica,sans-Serif" font-size="12.00">Item.isTradeable</text>
</a>
</g>
</g>
<!-- Node1&#45;&gt;Node15 -->
<g id="edge16_Node000001_Node000015" class="edge">
<title>Node1&#45;&gt;Node15</title>
<g id="a_edge16_Node000001_Node000015"><a xlink:title=" ">
<path fill="none" stroke="#63b8ff" d="M226.52,-555.82C239.64,-555.13 252.85,-554.45 265.46,-553.81 408.83,-546.53 572.86,-538.68 686.27,-533.34"/>
<polygon fill="#63b8ff" stroke="#63b8ff" points="686.09,-536.85 695.92,-532.88 685.76,-529.86 686.09,-536.85"/>
</a>
</g>
</g>
<!-- Node16 -->
<g id="Node000016" class="node">
<title>Node16</title>
<g id="a_Node000016"><a xlink:href="classcom_1_1runehive_1_1content_1_1store_1_1_store.html#ad081eee90de1d32744c752df26457add" target="_top" xlink:title=" ">
<ellipse fill="white" stroke="#666666" cx="441.17" cy="-480.81" rx="114.73" ry="25.81"/>
<text xml:space="preserve" text-anchor="start" x="368.05" y="-483.66" font-family="Helvetica,sans-Serif" font-size="12.00">com.runehive.content.store.</text>
<text xml:space="preserve" text-anchor="middle" x="441.17" y="-469.41" font-family="Helvetica,sans-Serif" font-size="12.00">Store.refresh</text>
</a>
</g>
</g>
<!-- Node1&#45;&gt;Node16 -->
<g id="edge18_Node000001_Node000016" class="edge">
<title>Node1&#45;&gt;Node16</title>
<g id="a_edge18_Node000001_Node000016"><a xlink:title=" ">
<path fill="none" stroke="#63b8ff" d="M187.54,-541.49C212.18,-534.69 239.97,-527.21 265.46,-520.81 291.73,-514.21 320.34,-507.47 346.66,-501.45"/>
<polygon fill="#63b8ff" stroke="#63b8ff" points="347.34,-504.89 356.31,-499.26 345.78,-498.06 347.34,-504.89"/>
</a>
</g>
</g>
<!-- Node17 -->
<g id="Node000017" class="node">
<title>Node17</title>
<g id="a_Node000017"><a xlink:href="classcom_1_1runehive_1_1game_1_1world_1_1items_1_1containers_1_1_item_container.html#af49932813506a23f39b9a030da0a4af0" target="_top" xlink:title=" ">
<ellipse fill="white" stroke="#666666" cx="441.17" cy="-410.81" rx="174.13" ry="25.81"/>
<text xml:space="preserve" text-anchor="start" x="326.05" y="-413.66" font-family="Helvetica,sans-Serif" font-size="12.00">com.runehive.game.world.items.containers.</text>
<text xml:space="preserve" text-anchor="middle" x="441.17" y="-399.41" font-family="Helvetica,sans-Serif" font-size="12.00">ItemContainer.remaining</text>
</a>
</g>
</g>
<!-- Node1&#45;&gt;Node17 -->
<g id="edge19_Node000001_Node000017" class="edge">
<title>Node1&#45;&gt;Node17</title>
<g id="a_edge19_Node000001_Node000017"><a xlink:title=" ">
<path fill="none" stroke="#63b8ff" d="M140.84,-536.31C168.75,-509.52 216.4,-468.21 265.46,-445.81 277.44,-440.34 290.27,-435.72 303.33,-431.82"/>
<polygon fill="#63b8ff" stroke="#63b8ff" points="304.21,-435.2 312.89,-429.12 302.31,-428.47 304.21,-435.2"/>
</a>
</g>
</g>
<!-- Node19 -->
<g id="Node000019" class="node">
<title>Node19</title>
<g id="a_Node000019"><a xlink:href="classcom_1_1runehive_1_1game_1_1world_1_1items_1_1containers_1_1_item_container.html#a2326fe5cc05022e98fbb7a1d85b45ce6" target="_top" xlink:title="Attempts to withdraw item from this container.">
<ellipse fill="white" stroke="#666666" cx="441.17" cy="-340.81" rx="174.13" ry="25.81"/>
<text xml:space="preserve" text-anchor="start" x="326.05" y="-343.66" font-family="Helvetica,sans-Serif" font-size="12.00">com.runehive.game.world.items.containers.</text>
<text xml:space="preserve" text-anchor="middle" x="441.17" y="-329.41" font-family="Helvetica,sans-Serif" font-size="12.00">ItemContainer.remove</text>
</a>
</g>
</g>
<!-- Node1&#45;&gt;Node19 -->
<g id="edge21_Node000001_Node000019" class="edge">
<title>Node1&#45;&gt;Node19</title>
<g id="a_edge21_Node000001_Node000019"><a xlink:title=" ">
<path fill="none" stroke="#63b8ff" d="M128.76,-536C150.89,-495.01 199.89,-415.59 265.46,-375.81 274.88,-370.09 285.06,-365.29 295.61,-361.26"/>
<polygon fill="#63b8ff" stroke="#63b8ff" points="296.59,-364.62 304.84,-357.98 294.25,-358.03 296.59,-364.62"/>
</a>
</g>
</g>
<!-- Node20 -->
<g id="Node000020" class="node">
<title>Node20</title>
<g id="a_Node000020"><a xlink:href="classcom_1_1runehive_1_1content_1_1store_1_1_store.html#a0a3e3c05279502d2bf36436228e4fe38" target="_top" xlink:title=" ">
<ellipse fill="white" stroke="#666666" cx="441.17" cy="-270.81" rx="114.73" ry="25.81"/>
<text xml:space="preserve" text-anchor="start" x="368.05" y="-273.66" font-family="Helvetica,sans-Serif" font-size="12.00">com.runehive.content.store.</text>
<text xml:space="preserve" text-anchor="middle" x="441.17" y="-259.41" font-family="Helvetica,sans-Serif" font-size="12.00">Store.sellType</text>
</a>
</g>
</g>
<!-- Node1&#45;&gt;Node20 -->
<g id="edge22_Node000001_Node000020" class="edge">
<title>Node1&#45;&gt;Node20</title>
<g id="a_edge22_Node000001_Node000020"><a xlink:title=" ">
<path fill="none" stroke="#63b8ff" d="M123.01,-535.87C139.18,-483.34 183.3,-364.42 265.46,-305.81 281.53,-294.34 300.45,-286.42 319.8,-280.98"/>
<polygon fill="#63b8ff" stroke="#63b8ff" points="320.61,-284.39 329.43,-278.51 318.87,-277.61 320.61,-284.39"/>
</a>
</g>
</g>
<!-- Node21 -->
<g id="Node000021" class="node">
<title>Node21</title>
<g id="a_Node000021"><a xlink:href="classcom_1_1runehive_1_1game_1_1world_1_1entity_1_1mob_1_1player_1_1_player.html#ab8309e5d532b7540f48bf25f8dea92a8" target="_top" xlink:title=" ">
<ellipse fill="white" stroke="#666666" cx="441.17" cy="-60.81" rx="175.72" ry="25.81"/>
<text xml:space="preserve" text-anchor="start" x="324.92" y="-63.66" font-family="Helvetica,sans-Serif" font-size="12.00">com.runehive.game.world.entity.mob.player.</text>
<text xml:space="preserve" text-anchor="middle" x="441.17" y="-49.41" font-family="Helvetica,sans-Serif" font-size="12.00">Player.send</text>
</a>
</g>
</g>
<!-- Node1&#45;&gt;Node21 -->
<g id="edge23_Node000001_Node000021" class="edge">
<title>Node1&#45;&gt;Node21</title>
<g id="a_edge23_Node000001_Node000021"><a xlink:title=" ">
<path fill="none" stroke="#63b8ff" d="M115.57,-535.59C116.61,-456.06 131.23,-215.64 265.46,-95.81 271.95,-90.01 279.14,-85.06 286.78,-80.85"/>
<polygon fill="#63b8ff" stroke="#63b8ff" points="288.32,-83.99 295.7,-76.4 285.19,-77.72 288.32,-83.99"/>
</a>
</g>
</g>
<!-- Node25 -->
<g id="Node000025" class="node">
<title>Node25</title>
<g id="a_Node000025"><a xlink:href="classcom_1_1runehive_1_1game_1_1world_1_1items_1_1_item.html#a05ea6fb3c13b43190ac60fddb90ab365" target="_top" xlink:title="Sets the quantity of this item.">
<ellipse fill="white" stroke="#666666" cx="441.17" cy="-130.81" rx="132.76" ry="25.81"/>
<text xml:space="preserve" text-anchor="start" x="355.3" y="-133.66" font-family="Helvetica,sans-Serif" font-size="12.00">com.runehive.game.world.items.</text>
<text xml:space="preserve" text-anchor="middle" x="441.17" y="-119.41" font-family="Helvetica,sans-Serif" font-size="12.00">Item.setAmount</text>
</a>
</g>
</g>
<!-- Node1&#45;&gt;Node25 -->
<g id="edge27_Node000001_Node000025" class="edge">
<title>Node1&#45;&gt;Node25</title>
<g id="a_edge27_Node000001_Node000025"><a xlink:title=" ">
<path fill="none" stroke="#63b8ff" d="M117.25,-535.7C122.89,-464.32 148.87,-264.71 265.46,-165.81 277.04,-155.99 290.6,-148.64 304.96,-143.19"/>
<polygon fill="#63b8ff" stroke="#63b8ff" points="305.79,-146.61 314.11,-140.04 303.51,-139.99 305.79,-146.61"/>
</a>
</g>
</g>
<!-- Node26 -->
<g id="Node000026" class="node">
<title>Node26</title>
<g id="a_Node000026"><a xlink:href="classcom_1_1runehive_1_1game_1_1world_1_1items_1_1_item.html#a4222386654d627b72568a25f34ea7091" target="_top" xlink:title="Determines if item is valid.">
<ellipse fill="white" stroke="#666666" cx="441.17" cy="-200.81" rx="132.76" ry="25.81"/>
<text xml:space="preserve" text-anchor="start" x="355.3" y="-203.66" font-family="Helvetica,sans-Serif" font-size="12.00">com.runehive.game.world.items.</text>
<text xml:space="preserve" text-anchor="middle" x="441.17" y="-189.41" font-family="Helvetica,sans-Serif" font-size="12.00">Item.valid</text>
</a>
</g>
</g>
<!-- Node1&#45;&gt;Node26 -->
<g id="edge28_Node000001_Node000026" class="edge">
<title>Node1&#45;&gt;Node26</title>
<g id="a_edge28_Node000001_Node000026"><a xlink:title=" ">
<path fill="none" stroke="#63b8ff" d="M119.57,-535.76C130.24,-473.26 166.28,-314.22 265.46,-235.81 277.56,-226.24 291.59,-219.07 306.32,-213.73"/>
<polygon fill="#63b8ff" stroke="#63b8ff" points="307.32,-217.08 315.72,-210.63 305.13,-210.43 307.32,-217.08"/>
</a>
</g>
</g>
<!-- Node7 -->
<g id="Node000007" class="node">
<title>Node7</title>
<g id="a_Node000007"><a xlink:href="classcom_1_1runehive_1_1game_1_1world_1_1items_1_1_item.html#a5008cb760d4d688a1731e0406d29c335" target="_top" xlink:title="Gets the item definition for the item identifier.">
<ellipse fill="white" stroke="#666666" cx="1212.85" cy="-580.81" rx="132.76" ry="25.81"/>
<text xml:space="preserve" text-anchor="start" x="1126.98" y="-583.66" font-family="Helvetica,sans-Serif" font-size="12.00">com.runehive.game.world.items.</text>
<text xml:space="preserve" text-anchor="middle" x="1212.85" y="-569.41" font-family="Helvetica,sans-Serif" font-size="12.00">Item.getDefinition</text>
</a>
</g>
</g>
<!-- Node6&#45;&gt;Node7 -->
<g id="edge6_Node000006_Node000007" class="edge">
<title>Node6&#45;&gt;Node7</title>
<g id="a_edge6_Node000006_Node000007"><a xlink:title=" ">
<path fill="none" stroke="#63b8ff" d="M574.05,-587.44C711.65,-586.01 926.73,-583.77 1068.47,-582.3"/>
<polygon fill="#63b8ff" stroke="#63b8ff" points="1068.35,-585.8 1078.31,-582.2 1068.28,-578.8 1068.35,-585.8"/>
</a>
</g>
</g>
<!-- Node10 -->
<g id="Node000010" class="node">
<title>Node10</title>
<g id="a_Node000010"><a xlink:href="classcom_1_1runehive_1_1game_1_1world_1_1items_1_1_item_definition.html#aa9479e24430ebdd5855705e1177346b4" target="_top" xlink:title="Gets the item name.">
<ellipse fill="white" stroke="#666666" cx="827.01" cy="-634.81" rx="132.76" ry="25.81"/>
<text xml:space="preserve" text-anchor="start" x="741.14" y="-637.66" font-family="Helvetica,sans-Serif" font-size="12.00">com.runehive.game.world.items.</text>
<text xml:space="preserve" text-anchor="middle" x="827.01" y="-623.41" font-family="Helvetica,sans-Serif" font-size="12.00">ItemDefinition.getName</text>
</a>
</g>
</g>
<!-- Node6&#45;&gt;Node10 -->
<g id="edge9_Node000006_Node000010" class="edge">
<title>Node6&#45;&gt;Node10</title>
<g id="a_edge9_Node000006_Node000010"><a xlink:title=" ">
<path fill="none" stroke="#63b8ff" d="M555.26,-602.36C601.32,-607.88 654.72,-614.28 701.86,-619.93"/>
<polygon fill="#63b8ff" stroke="#63b8ff" points="701.22,-623.38 711.57,-621.09 702.05,-616.43 701.22,-623.38"/>
</a>
</g>
</g>
<!-- Node8 -->
<g id="Node000008" class="node">
<title>Node8</title>
<g id="a_Node000008"><a xlink:href="classcom_1_1runehive_1_1game_1_1world_1_1items_1_1_item_definition.html#a50e4924075ee157cd3f75a8107a595fa" target="_top" xlink:title="Gets an item definition.">
<ellipse fill="white" stroke="#666666" cx="1557.33" cy="-580.81" rx="132.76" ry="25.81"/>
<text xml:space="preserve" text-anchor="start" x="1471.45" y="-583.66" font-family="Helvetica,sans-Serif" font-size="12.00">com.runehive.game.world.items.</text>
<text xml:space="preserve" text-anchor="middle" x="1557.33" y="-569.41" font-family="Helvetica,sans-Serif" font-size="12.00">ItemDefinition.get</text>
</a>
</g>
</g>
<!-- Node7&#45;&gt;Node8 -->
<g id="edge7_Node000007_Node000008" class="edge">
<title>Node7&#45;&gt;Node8</title>
<g id="a_edge7_Node000007_Node000008"><a xlink:title=" ">
<path fill="none" stroke="#63b8ff" d="M1345.77,-580.81C1367.78,-580.81 1390.7,-580.81 1412.97,-580.81"/>
<polygon fill="#63b8ff" stroke="#63b8ff" points="1412.68,-584.31 1422.68,-580.81 1412.68,-577.31 1412.68,-584.31"/>
</a>
</g>
</g>
<!-- Node9 -->
<g id="Node000009" class="node">
<title>Node9</title>
<g id="a_Node000009"><a xlink:href="classcom_1_1runehive_1_1game_1_1world_1_1items_1_1_item_definition.html#a4fafaf641c0490165d697a73006e76bf" target="_top" xlink:title=" ">
<ellipse fill="white" stroke="#666666" cx="1858.85" cy="-580.81" rx="132.76" ry="25.81"/>
<text xml:space="preserve" text-anchor="start" x="1772.97" y="-583.66" font-family="Helvetica,sans-Serif" font-size="12.00">com.runehive.game.world.items.</text>
<text xml:space="preserve" text-anchor="middle" x="1858.85" y="-569.41" font-family="Helvetica,sans-Serif" font-size="12.00">ItemDefinition.ItemDefinition</text>
</a>
</g>
</g>
<!-- Node8&#45;&gt;Node9 -->
<g id="edge8_Node000008_Node000009" class="edge">
<title>Node8&#45;&gt;Node9</title>
<g id="a_edge8_Node000008_Node000009"><a xlink:title=" ">
<path fill="none" stroke="#63b8ff" d="M1690.57,-580.81C1698.56,-580.81 1706.62,-580.81 1714.65,-580.81"/>
<polygon fill="#63b8ff" stroke="#63b8ff" points="1714.46,-584.31 1724.46,-580.81 1714.46,-577.31 1714.46,-584.31"/>
</a>
</g>
</g>
<!-- Node12 -->
<g id="Node000012" class="node">
<title>Node12</title>
<g id="a_Node000012"><a xlink:href="classcom_1_1runehive_1_1game_1_1world_1_1items_1_1_item.html#a2efe9cf6561e7be042430ed853fc46a6" target="_top" xlink:title="Gets the value for this item.">
<ellipse fill="white" stroke="#666666" cx="827.01" cy="-774.81" rx="132.76" ry="25.81"/>
<text xml:space="preserve" text-anchor="start" x="741.14" y="-777.66" font-family="Helvetica,sans-Serif" font-size="12.00">com.runehive.game.world.items.</text>
<text xml:space="preserve" text-anchor="middle" x="827.01" y="-763.41" font-family="Helvetica,sans-Serif" font-size="12.00">Item.getValue</text>
</a>
</g>
</g>
<!-- Node11&#45;&gt;Node12 -->
<g id="edge11_Node000011_Node000012" class="edge">
<title>Node11&#45;&gt;Node12</title>
<g id="a_edge11_Node000011_Node000012"><a xlink:title=" ">
<path fill="none" stroke="#63b8ff" d="M573.46,-769.55C608.98,-770.29 647.58,-771.09 683.66,-771.84"/>
<polygon fill="#63b8ff" stroke="#63b8ff" points="683.19,-775.33 693.26,-772.04 683.34,-768.33 683.19,-775.33"/>
</a>
</g>
</g>
<!-- Node12&#45;&gt;Node7 -->
<g id="edge12_Node000012_Node000007" class="edge">
<title>Node12&#45;&gt;Node7</title>
<g id="a_edge12_Node000012_Node000007"><a xlink:title=" ">
<path fill="none" stroke="#63b8ff" d="M937.93,-760.29C959.44,-755.32 981.42,-748.68 1001.14,-739.81 1070.78,-708.46 1139.05,-650.55 1178.21,-613.94"/>
<polygon fill="#63b8ff" stroke="#63b8ff" points="1180.16,-616.92 1185.02,-607.51 1175.35,-611.83 1180.16,-616.92"/>
</a>
</g>
</g>
<!-- Node14&#45;&gt;Node7 -->
<g id="edge15_Node000014_Node000007" class="edge">
<title>Node14&#45;&gt;Node7</title>
<g id="a_edge15_Node000014_Node000007"><a xlink:title=" ">
<path fill="none" stroke="#63b8ff" d="M929.11,-687.91C952.97,-682.95 978.14,-676.91 1001.14,-669.81 1053.43,-653.66 1110.49,-629.1 1152.03,-609.87"/>
<polygon fill="#63b8ff" stroke="#63b8ff" points="1153.29,-613.15 1160.87,-605.75 1150.33,-606.8 1153.29,-613.15"/>
</a>
</g>
</g>
<!-- Node15&#45;&gt;Node7 -->
<g id="edge17_Node000015_Node000007" class="edge">
<title>Node15&#45;&gt;Node7</title>
<g id="a_edge17_Node000015_Node000007"><a xlink:title=" ">
<path fill="none" stroke="#63b8ff" d="M935.7,-541.96C984.67,-548.85 1042.76,-557.02 1093,-564.09"/>
<polygon fill="#63b8ff" stroke="#63b8ff" points="1092.36,-567.53 1102.75,-565.46 1093.34,-560.6 1092.36,-567.53"/>
</a>
</g>
</g>
<!-- Node18 -->
<g id="Node000018" class="node">
<title>Node18</title>
<g id="a_Node000018"><a xlink:href="classcom_1_1runehive_1_1game_1_1world_1_1items_1_1containers_1_1_item_container.html#a4453fd20aa3bc42e4aac1a82bee5f5d7" target="_top" xlink:title=" ">
<ellipse fill="white" stroke="#666666" cx="827.01" cy="-410.81" rx="174.13" ry="25.81"/>
<text xml:space="preserve" text-anchor="start" x="711.89" y="-413.66" font-family="Helvetica,sans-Serif" font-size="12.00">com.runehive.game.world.items.containers.</text>
<text xml:space="preserve" text-anchor="middle" x="827.01" y="-399.41" font-family="Helvetica,sans-Serif" font-size="12.00">ItemContainer.size</text>
</a>
</g>
</g>
<!-- Node17&#45;&gt;Node18 -->
<g id="edge20_Node000017_Node000018" class="edge">
<title>Node17&#45;&gt;Node18</title>
<g id="a_edge20_Node000017_Node000018"><a xlink:title=" ">
<path fill="none" stroke="#63b8ff" d="M615.56,-410.81C624.13,-410.81 632.74,-410.81 641.34,-410.81"/>
<polygon fill="#63b8ff" stroke="#63b8ff" points="641.11,-414.31 651.11,-410.81 641.11,-407.31 641.11,-414.31"/>
</a>
</g>
</g>
<!-- Node22 -->
<g id="Node000022" class="node">
<title>Node22</title>
<g id="a_Node000022"><a xlink:href="classcom_1_1runehive_1_1net_1_1packet_1_1_outgoing_packet.html#a3dde4d77b8c8bbd686b8e121fd6514a7" target="_top" xlink:title=" ">
<ellipse fill="white" stroke="#666666" cx="827.01" cy="-60.81" rx="105.18" ry="25.81"/>
<text xml:space="preserve" text-anchor="start" x="760.64" y="-63.66" font-family="Helvetica,sans-Serif" font-size="12.00">com.runehive.net.packet.</text>
<text xml:space="preserve" text-anchor="middle" x="827.01" y="-49.41" font-family="Helvetica,sans-Serif" font-size="12.00">OutgoingPacket.execute</text>
</a>
</g>
</g>
<!-- Node21&#45;&gt;Node22 -->
<g id="edge24_Node000021_Node000022" class="edge">
<title>Node21&#45;&gt;Node22</title>
<g id="a_edge24_Node000021_Node000022"><a xlink:title=" ">
<path fill="none" stroke="#63b8ff" d="M617.24,-60.81C648.66,-60.81 680.69,-60.81 709.92,-60.81"/>
<polygon fill="#63b8ff" stroke="#63b8ff" points="709.89,-64.31 719.89,-60.81 709.89,-57.31 709.89,-64.31"/>
</a>
</g>
</g>
<!-- Node23 -->
<g id="Node000023" class="node">
<title>Node23</title>
<g id="a_Node000023"><a xlink:href="classcom_1_1runehive_1_1net_1_1packet_1_1_outgoing_packet.html#a74fc13c106ab76f87daec1e8bab6a2a1" target="_top" xlink:title=" ">
<ellipse fill="white" stroke="#666666" cx="1212.85" cy="-25.81" rx="105.18" ry="25.81"/>
<text xml:space="preserve" text-anchor="start" x="1146.48" y="-28.66" font-family="Helvetica,sans-Serif" font-size="12.00">com.runehive.net.packet.</text>
<text xml:space="preserve" text-anchor="middle" x="1212.85" y="-14.41" font-family="Helvetica,sans-Serif" font-size="12.00">OutgoingPacket.encode</text>
</a>
</g>
</g>
<!-- Node22&#45;&gt;Node23 -->
<g id="edge25_Node000022_Node000023" class="edge">
<title>Node22&#45;&gt;Node23</title>
<g id="a_edge25_Node000022_Node000023"><a xlink:title=" ">
<path fill="none" stroke="#63b8ff" d="M926.36,-51.84C980.19,-46.93 1047.01,-40.84 1102.47,-35.78"/>
<polygon fill="#63b8ff" stroke="#63b8ff" points="1102.61,-39.29 1112.25,-34.89 1101.98,-32.31 1102.61,-39.29"/>
</a>
</g>
</g>
<!-- Node24 -->
<g id="Node000024" class="node">
<title>Node24</title>
<g id="a_Node000024"><a xlink:href="classcom_1_1runehive_1_1game_1_1world_1_1entity_1_1mob_1_1player_1_1_player.html#a908fb61974719a74180d6300b838bfe1" target="_top" xlink:title=" ">
<ellipse fill="white" stroke="#666666" cx="1212.85" cy="-95.81" rx="175.72" ry="25.81"/>
<text xml:space="preserve" text-anchor="start" x="1096.6" y="-98.66" font-family="Helvetica,sans-Serif" font-size="12.00">com.runehive.game.world.entity.mob.player.</text>
<text xml:space="preserve" text-anchor="middle" x="1212.85" y="-84.41" font-family="Helvetica,sans-Serif" font-size="12.00">Player.getSession</text>
</a>
</g>
</g>
<!-- Node22&#45;&gt;Node24 -->
<g id="edge26_Node000022_Node000024" class="edge">
<title>Node22&#45;&gt;Node24</title>
<g id="a_edge26_Node000022_Node000024"><a xlink:title=" ">
<path fill="none" stroke="#63b8ff" d="M926.36,-69.78C964.29,-73.24 1008.67,-77.28 1050.98,-81.14"/>
<polygon fill="#63b8ff" stroke="#63b8ff" points="1050.48,-84.61 1060.76,-82.03 1051.12,-77.64 1050.48,-84.61"/>
</a>
</g>
</g>
<!-- Node26&#45;&gt;Node7 -->
<g id="edge29_Node000026_Node000007" class="edge">
<title>Node26&#45;&gt;Node7</title>
<g id="a_edge29_Node000026_Node000007"><a xlink:title=" ">
<path fill="none" stroke="#63b8ff" d="M546.25,-216.92C663.84,-238.71 857.52,-285.66 1001.14,-375.81 1076.56,-423.15 1147.06,-501.19 1184.31,-546.09"/>
<polygon fill="#63b8ff" stroke="#63b8ff" points="1181.51,-548.2 1190.56,-553.7 1186.92,-543.76 1181.51,-548.2"/>
</a>
</g>
</g>
<!-- Node27 -->
<g id="Node000027" class="node">
<title>Node27</title>
<g id="a_Node000027"><a xlink:href="classcom_1_1runehive_1_1game_1_1world_1_1items_1_1_item.html#afe3613653df532fc7418d767a450125d" target="_top" xlink:title="Creates a new Item.">
<ellipse fill="white" stroke="#666666" cx="827.01" cy="-200.81" rx="132.76" ry="25.81"/>
<text xml:space="preserve" text-anchor="start" x="741.14" y="-203.66" font-family="Helvetica,sans-Serif" font-size="12.00">com.runehive.game.world.items.</text>
<text xml:space="preserve" text-anchor="middle" x="827.01" y="-189.41" font-family="Helvetica,sans-Serif" font-size="12.00">Item.Item</text>
</a>
</g>
</g>
<!-- Node26&#45;&gt;Node27 -->
<g id="edge30_Node000026_Node000027" class="edge">
<title>Node26&#45;&gt;Node27</title>
<g id="a_edge30_Node000026_Node000027"><a xlink:title=" ">
<path fill="none" stroke="#63b8ff" d="M574.27,-200.81C609.2,-200.81 647.06,-200.81 682.56,-200.81"/>
<polygon fill="#63b8ff" stroke="#63b8ff" points="682.49,-204.31 692.49,-200.81 682.49,-197.31 682.49,-204.31"/>
</a>
</g>
</g>
</g>
</svg>
