<?xml version="1.0" encoding="UTF-8" standalone="no"?>
<!DOCTYPE svg PUBLIC "-//W3C//DTD SVG 1.1//EN"
 "http://www.w3.org/Graphics/SVG/1.1/DTD/svg11.dtd">
<!-- Generated by graphviz version 14.0.1 (20251006.0113)
 -->
<!-- Title: com.runehive.content.store.impl.PersonalStore.add Pages: 1 -->
<!--zoomable 620 -->

<svg id="main" version="1.1" xmlns="http://www.w3.org/2000/svg" xmlns:xlink="http://www.w3.org/1999/xlink" xml:space="preserve" onload="init(evt)">

<style type="text/css"><![CDATA[
.node, .edge {opacity: 0.7;}
.node.selected, .edge.selected {opacity: 1;}
.edge:hover path { stroke: red; }
.edge:hover polygon { stroke: red; fill: red; }
]]></style>

<defs>
  <circle id="rim" cx="0" cy="0" r="7"/>
  <circle id="rim2" cx="0" cy="0" r="3.5"/>
  <g id="zoomPlus">
    <use xlink:href="#rim" fill="#404040"><set attributeName="fill" to="#808080" begin="zoomplus.mouseover" end="zoomplus.mouseout"/></use>
    <path d="M-4,0h8M0,-4v8" fill="none" stroke="white" stroke-width="1.5" pointer-events="none"/>
  </g>
  <g id="zoomMin">
    <use xlink:href="#rim" fill="#404040"><set attributeName="fill" to="#808080" begin="zoomminus.mouseover" end="zoomminus.mouseout"/></use>
    <path d="M-4,0h8" fill="none" stroke="white" stroke-width="1.5" pointer-events="none"/>
  </g>
  <g id="arrowUp" transform="translate(30 24)">
    <use xlink:href="#rim"/>
    <path pointer-events="none" fill="none" stroke="white" stroke-width="1.5" d="M0,-3.0v7 M-2.5,-0.5L0,-3.0L2.5,-0.5"/>
  </g>
  <g id="arrowRight" transform="rotate(90) translate(36 -43)">
    <use xlink:href="#rim"/>
    <path pointer-events="none" fill="none" stroke="white" stroke-width="1.5" d="M0,-3.0v7 M-2.5,-0.5L0,-3.0L2.5,-0.5"/>
  </g>
  <g id="arrowDown" transform="rotate(180) translate(-30 -48)">
    <use xlink:href="#rim"/>
    <path pointer-events="none" fill="none" stroke="white" stroke-width="1.5" d="M0,-3.0v7 M-2.5,-0.5L0,-3.0L2.5,-0.5"/>
  </g>
  <g id="arrowLeft" transform="rotate(270) translate(-36 17)">
    <use xlink:href="#rim"/>
    <path pointer-events="none" fill="none" stroke="white" stroke-width="1.5" d="M0,-3.0v7 M-2.5,-0.5L0,-3.0L2.5,-0.5"/>
  </g>
  <g id="resetDef">
    <use xlink:href="#rim2" fill="#404040"><set attributeName="fill" to="#808080" begin="reset.mouseover" end="reset.mouseout"/></use>
  </g>
</defs>
<script type="application/ecmascript">
var viewWidth = 1651;
var viewHeight = 620;
var sectionId = 'dynsection-3';
</script>
<script type="application/ecmascript" xlink:href="svg.min.js"/>
<svg id="graph" class="graph">
<g id="viewport">
<title>com.runehive.content.store.impl.PersonalStore.add</title>
<!-- Node1 -->
<g id="Node000001" class="node">
<title>Node1</title>
<g id="a_Node000001"><a xlink:title="Handles adding an item to the player&#39;s personal shop.">
<ellipse fill="#999999" stroke="#666666" cx="132.76" cy="-305.81" rx="132.76" ry="25.81"/>
<text xml:space="preserve" text-anchor="start" x="46.88" y="-308.66" font-family="Helvetica,sans-Serif" font-size="12.00">com.runehive.content.store.impl.</text>
<text xml:space="preserve" text-anchor="middle" x="132.76" y="-294.41" font-family="Helvetica,sans-Serif" font-size="12.00">PersonalStore.add</text>
</a>
</g>
</g>
<!-- Node2 -->
<g id="Node000002" class="node">
<title>Node2</title>
<g id="a_Node000002"><a xlink:href="classcom_1_1runehive_1_1game_1_1world_1_1items_1_1containers_1_1_item_container.html#a2a021797c58d8e97bf41d1c07ec1fc9f" target="_top" xlink:title="Gets the Item located on index.">
<ellipse fill="white" stroke="#666666" cx="477.23" cy="-585.81" rx="174.13" ry="25.81"/>
<text xml:space="preserve" text-anchor="start" x="362.11" y="-588.66" font-family="Helvetica,sans-Serif" font-size="12.00">com.runehive.game.world.items.containers.</text>
<text xml:space="preserve" text-anchor="middle" x="477.23" y="-574.41" font-family="Helvetica,sans-Serif" font-size="12.00">ItemContainer.get</text>
</a>
</g>
</g>
<!-- Node1&#45;&gt;Node2 -->
<g id="edge1_Node000001_Node000002" class="edge">
<title>Node1&#45;&gt;Node2</title>
<g id="a_edge1_Node000001_Node000002"><a xlink:title=" ">
<path fill="none" stroke="#63b8ff" d="M143.67,-331.86C164.49,-382.82 217.87,-495.52 301.52,-550.81 310.33,-556.63 319.9,-561.53 329.86,-565.63"/>
<polygon fill="#63b8ff" stroke="#63b8ff" points="328.37,-568.81 338.97,-569.1 330.86,-562.27 328.37,-568.81"/>
</a>
</g>
</g>
<!-- Node3 -->
<g id="Node000003" class="node">
<title>Node3</title>
<g id="a_Node000003"><a xlink:href="classcom_1_1runehive_1_1game_1_1world_1_1items_1_1_item.html#a469ed0805255f62514005f11dc213676" target="_top" xlink:title="Gets the quantity of this item.">
<ellipse fill="white" stroke="#666666" cx="477.23" cy="-515.81" rx="132.76" ry="25.81"/>
<text xml:space="preserve" text-anchor="start" x="391.36" y="-518.66" font-family="Helvetica,sans-Serif" font-size="12.00">com.runehive.game.world.items.</text>
<text xml:space="preserve" text-anchor="middle" x="477.23" y="-504.41" font-family="Helvetica,sans-Serif" font-size="12.00">Item.getAmount</text>
</a>
</g>
</g>
<!-- Node1&#45;&gt;Node3 -->
<g id="edge2_Node000001_Node000003" class="edge">
<title>Node1&#45;&gt;Node3</title>
<g id="a_edge2_Node000001_Node000003"><a xlink:title=" ">
<path fill="none" stroke="#63b8ff" d="M150.65,-331.66C177.6,-370.65 234.19,-443.84 301.52,-480.81 316.42,-488.99 332.98,-495.27 349.79,-500.1"/>
<polygon fill="#63b8ff" stroke="#63b8ff" points="348.84,-503.46 359.4,-502.67 350.65,-496.7 348.84,-503.46"/>
</a>
</g>
</g>
<!-- Node4 -->
<g id="Node000004" class="node">
<title>Node4</title>
<g id="a_Node000004"><a xlink:href="classcom_1_1runehive_1_1game_1_1world_1_1items_1_1_item.html#a1cec21ca5ef1783808d4ca9de1051a29" target="_top" xlink:title="Gets the identification of this item.">
<ellipse fill="white" stroke="#666666" cx="477.23" cy="-445.81" rx="132.76" ry="25.81"/>
<text xml:space="preserve" text-anchor="start" x="391.36" y="-448.66" font-family="Helvetica,sans-Serif" font-size="12.00">com.runehive.game.world.items.</text>
<text xml:space="preserve" text-anchor="middle" x="477.23" y="-434.41" font-family="Helvetica,sans-Serif" font-size="12.00">Item.getId</text>
</a>
</g>
</g>
<!-- Node1&#45;&gt;Node4 -->
<g id="edge3_Node000001_Node000004" class="edge">
<title>Node1&#45;&gt;Node4</title>
<g id="a_edge3_Node000001_Node000004"><a xlink:title=" ">
<path fill="none" stroke="#63b8ff" d="M166.2,-331.14C198.66,-355.23 250.91,-390.69 301.52,-410.81 319.18,-417.83 338.43,-423.5 357.48,-428.06"/>
<polygon fill="#63b8ff" stroke="#63b8ff" points="356.66,-431.46 367.19,-430.28 358.22,-424.64 356.66,-431.46"/>
</a>
</g>
</g>
<!-- Node5 -->
<g id="Node000005" class="node">
<title>Node5</title>
<g id="a_Node000005"><a xlink:href="classcom_1_1runehive_1_1game_1_1world_1_1items_1_1_item.html#adc1c7b8e6620777606b083001f7d936a" target="_top" xlink:title=" ">
<ellipse fill="white" stroke="#666666" cx="477.23" cy="-375.81" rx="132.76" ry="25.81"/>
<text xml:space="preserve" text-anchor="start" x="391.36" y="-378.66" font-family="Helvetica,sans-Serif" font-size="12.00">com.runehive.game.world.items.</text>
<text xml:space="preserve" text-anchor="middle" x="477.23" y="-364.41" font-family="Helvetica,sans-Serif" font-size="12.00">Item.getName</text>
</a>
</g>
</g>
<!-- Node1&#45;&gt;Node5 -->
<g id="edge4_Node000001_Node000005" class="edge">
<title>Node1&#45;&gt;Node5</title>
<g id="a_edge4_Node000001_Node000005"><a xlink:title=" ">
<path fill="none" stroke="#63b8ff" d="M224.28,-324.83C249.29,-330.05 276.45,-335.68 301.52,-340.81 324.31,-345.47 348.78,-350.41 371.99,-355.07"/>
<polygon fill="#63b8ff" stroke="#63b8ff" points="371.29,-358.5 381.78,-357.03 372.67,-351.63 371.29,-358.5"/>
</a>
</g>
</g>
<!-- Node10 -->
<g id="Node000010" class="node">
<title>Node10</title>
<g id="a_Node000010"><a xlink:href="enumcom_1_1runehive_1_1content_1_1store_1_1currency_1_1_currency_type.html#a2075b903e47e650d6da6c000e8a06287" target="_top" xlink:title=" ">
<ellipse fill="white" stroke="#666666" cx="477.23" cy="-305.81" rx="148.67" ry="25.81"/>
<text xml:space="preserve" text-anchor="start" x="380.11" y="-308.66" font-family="Helvetica,sans-Serif" font-size="12.00">com.runehive.content.store.currency.</text>
<text xml:space="preserve" text-anchor="middle" x="477.23" y="-294.41" font-family="Helvetica,sans-Serif" font-size="12.00">CurrencyType.isCurrency</text>
</a>
</g>
</g>
<!-- Node1&#45;&gt;Node10 -->
<g id="edge9_Node000001_Node000010" class="edge">
<title>Node1&#45;&gt;Node10</title>
<g id="a_edge9_Node000001_Node000010"><a xlink:title=" ">
<path fill="none" stroke="#63b8ff" d="M265.68,-305.81C282.45,-305.81 299.75,-305.81 316.9,-305.81"/>
<polygon fill="#63b8ff" stroke="#63b8ff" points="316.62,-309.31 326.62,-305.81 316.62,-302.31 316.62,-309.31"/>
</a>
</g>
</g>
<!-- Node11 -->
<g id="Node000011" class="node">
<title>Node11</title>
<g id="a_Node000011"><a xlink:href="classcom_1_1runehive_1_1game_1_1world_1_1entity_1_1mob_1_1player_1_1_interface_manager.html#abeef1b9c5738fda1822c862657bb1383" target="_top" xlink:title="Checks if a certain interface is enter.">
<ellipse fill="white" stroke="#666666" cx="477.23" cy="-235.81" rx="175.72" ry="25.81"/>
<text xml:space="preserve" text-anchor="start" x="360.98" y="-238.66" font-family="Helvetica,sans-Serif" font-size="12.00">com.runehive.game.world.entity.mob.player.</text>
<text xml:space="preserve" text-anchor="middle" x="477.23" y="-224.41" font-family="Helvetica,sans-Serif" font-size="12.00">InterfaceManager.isInterfaceOpen</text>
</a>
</g>
</g>
<!-- Node1&#45;&gt;Node11 -->
<g id="edge10_Node000001_Node000011" class="edge">
<title>Node1&#45;&gt;Node11</title>
<g id="a_edge10_Node000001_Node000011"><a xlink:title=" ">
<path fill="none" stroke="#63b8ff" d="M224.28,-286.79C249.29,-281.57 276.45,-275.94 301.52,-270.81 320.35,-266.96 340.34,-262.91 359.81,-259"/>
<polygon fill="#63b8ff" stroke="#63b8ff" points="360.28,-262.47 369.4,-257.07 358.91,-255.61 360.28,-262.47"/>
</a>
</g>
</g>
<!-- Node12 -->
<g id="Node000012" class="node">
<title>Node12</title>
<g id="a_Node000012"><a xlink:href="classcom_1_1runehive_1_1game_1_1world_1_1items_1_1_item.html#a6cf8fb321f42b6b3830aa27258e2bf56" target="_top" xlink:title=" ">
<ellipse fill="white" stroke="#666666" cx="477.23" cy="-165.81" rx="132.76" ry="25.81"/>
<text xml:space="preserve" text-anchor="start" x="391.36" y="-168.66" font-family="Helvetica,sans-Serif" font-size="12.00">com.runehive.game.world.items.</text>
<text xml:space="preserve" text-anchor="middle" x="477.23" y="-154.41" font-family="Helvetica,sans-Serif" font-size="12.00">Item.isTradeable</text>
</a>
</g>
</g>
<!-- Node1&#45;&gt;Node12 -->
<g id="edge11_Node000001_Node000012" class="edge">
<title>Node1&#45;&gt;Node12</title>
<g id="a_edge11_Node000001_Node000012"><a xlink:title=" ">
<path fill="none" stroke="#63b8ff" d="M166.2,-280.48C198.66,-256.39 250.91,-220.93 301.52,-200.81 319.18,-193.79 338.43,-188.12 357.48,-183.56"/>
<polygon fill="#63b8ff" stroke="#63b8ff" points="358.22,-186.98 367.19,-181.34 356.66,-180.16 358.22,-186.98"/>
</a>
</g>
</g>
<!-- Node13 -->
<g id="Node000013" class="node">
<title>Node13</title>
<g id="a_Node000013"><a xlink:href="classcom_1_1runehive_1_1game_1_1world_1_1entity_1_1mob_1_1player_1_1_player.html#ab8309e5d532b7540f48bf25f8dea92a8" target="_top" xlink:title=" ">
<ellipse fill="white" stroke="#666666" cx="477.23" cy="-95.81" rx="175.72" ry="25.81"/>
<text xml:space="preserve" text-anchor="start" x="360.98" y="-98.66" font-family="Helvetica,sans-Serif" font-size="12.00">com.runehive.game.world.entity.mob.player.</text>
<text xml:space="preserve" text-anchor="middle" x="477.23" y="-84.41" font-family="Helvetica,sans-Serif" font-size="12.00">Player.send</text>
</a>
</g>
</g>
<!-- Node1&#45;&gt;Node13 -->
<g id="edge13_Node000001_Node000013" class="edge">
<title>Node1&#45;&gt;Node13</title>
<g id="a_edge13_Node000001_Node000013"><a xlink:title=" ">
<path fill="none" stroke="#63b8ff" d="M150.65,-279.96C177.6,-240.97 234.19,-167.78 301.52,-130.81 311.69,-125.22 322.63,-120.52 333.9,-116.57"/>
<polygon fill="#63b8ff" stroke="#63b8ff" points="334.94,-119.91 343.35,-113.47 332.76,-113.26 334.94,-119.91"/>
</a>
</g>
</g>
<!-- Node17 -->
<g id="Node000017" class="node">
<title>Node17</title>
<g id="a_Node000017"><a xlink:href="classcom_1_1runehive_1_1game_1_1world_1_1items_1_1_item.html#a05ea6fb3c13b43190ac60fddb90ab365" target="_top" xlink:title="Sets the quantity of this item.">
<ellipse fill="white" stroke="#666666" cx="477.23" cy="-25.81" rx="132.76" ry="25.81"/>
<text xml:space="preserve" text-anchor="start" x="391.36" y="-28.66" font-family="Helvetica,sans-Serif" font-size="12.00">com.runehive.game.world.items.</text>
<text xml:space="preserve" text-anchor="middle" x="477.23" y="-14.41" font-family="Helvetica,sans-Serif" font-size="12.00">Item.setAmount</text>
</a>
</g>
</g>
<!-- Node1&#45;&gt;Node17 -->
<g id="edge17_Node000001_Node000017" class="edge">
<title>Node1&#45;&gt;Node17</title>
<g id="a_edge17_Node000001_Node000017"><a xlink:title=" ">
<path fill="none" stroke="#63b8ff" d="M143.67,-279.76C164.49,-228.8 217.87,-116.1 301.52,-60.81 314.94,-51.94 330.12,-45.23 345.78,-40.17"/>
<polygon fill="#63b8ff" stroke="#63b8ff" points="346.65,-43.56 355.24,-37.35 344.66,-36.85 346.65,-43.56"/>
</a>
</g>
</g>
<!-- Node6 -->
<g id="Node000006" class="node">
<title>Node6</title>
<g id="a_Node000006"><a xlink:href="classcom_1_1runehive_1_1game_1_1world_1_1items_1_1_item.html#a5008cb760d4d688a1731e0406d29c335" target="_top" xlink:title="Gets the item definition for the item identifier.">
<ellipse fill="white" stroke="#666666" cx="821.71" cy="-252.81" rx="132.76" ry="25.81"/>
<text xml:space="preserve" text-anchor="start" x="735.83" y="-255.66" font-family="Helvetica,sans-Serif" font-size="12.00">com.runehive.game.world.items.</text>
<text xml:space="preserve" text-anchor="middle" x="821.71" y="-241.41" font-family="Helvetica,sans-Serif" font-size="12.00">Item.getDefinition</text>
</a>
</g>
</g>
<!-- Node5&#45;&gt;Node6 -->
<g id="edge5_Node000005_Node000006" class="edge">
<title>Node5&#45;&gt;Node6</title>
<g id="a_edge5_Node000005_Node000006"><a xlink:title=" ">
<path fill="none" stroke="#63b8ff" d="M583.03,-359.87C606.39,-354.93 630.79,-348.66 652.95,-340.81 694.67,-326.03 738.89,-302.47 771.45,-283.45"/>
<polygon fill="#63b8ff" stroke="#63b8ff" points="773.03,-286.58 779.86,-278.47 769.47,-280.55 773.03,-286.58"/>
</a>
</g>
</g>
<!-- Node9 -->
<g id="Node000009" class="node">
<title>Node9</title>
<g id="a_Node000009"><a xlink:href="classcom_1_1runehive_1_1game_1_1world_1_1items_1_1_item_definition.html#aa9479e24430ebdd5855705e1177346b4" target="_top" xlink:title="Gets the item name.">
<ellipse fill="white" stroke="#666666" cx="821.71" cy="-375.81" rx="132.76" ry="25.81"/>
<text xml:space="preserve" text-anchor="start" x="735.83" y="-378.66" font-family="Helvetica,sans-Serif" font-size="12.00">com.runehive.game.world.items.</text>
<text xml:space="preserve" text-anchor="middle" x="821.71" y="-364.41" font-family="Helvetica,sans-Serif" font-size="12.00">ItemDefinition.getName</text>
</a>
</g>
</g>
<!-- Node5&#45;&gt;Node9 -->
<g id="edge8_Node000005_Node000009" class="edge">
<title>Node5&#45;&gt;Node9</title>
<g id="a_edge8_Node000005_Node000009"><a xlink:title=" ">
<path fill="none" stroke="#63b8ff" d="M610.15,-375.81C632.16,-375.81 655.08,-375.81 677.35,-375.81"/>
<polygon fill="#63b8ff" stroke="#63b8ff" points="677.06,-379.31 687.06,-375.81 677.06,-372.31 677.06,-379.31"/>
</a>
</g>
</g>
<!-- Node7 -->
<g id="Node000007" class="node">
<title>Node7</title>
<g id="a_Node000007"><a xlink:href="classcom_1_1runehive_1_1game_1_1world_1_1items_1_1_item_definition.html#a50e4924075ee157cd3f75a8107a595fa" target="_top" xlink:title="Gets an item definition.">
<ellipse fill="white" stroke="#666666" cx="1166.19" cy="-252.81" rx="132.76" ry="25.81"/>
<text xml:space="preserve" text-anchor="start" x="1080.31" y="-255.66" font-family="Helvetica,sans-Serif" font-size="12.00">com.runehive.game.world.items.</text>
<text xml:space="preserve" text-anchor="middle" x="1166.19" y="-241.41" font-family="Helvetica,sans-Serif" font-size="12.00">ItemDefinition.get</text>
</a>
</g>
</g>
<!-- Node6&#45;&gt;Node7 -->
<g id="edge6_Node000006_Node000007" class="edge">
<title>Node6&#45;&gt;Node7</title>
<g id="a_edge6_Node000006_Node000007"><a xlink:title=" ">
<path fill="none" stroke="#63b8ff" d="M954.63,-252.81C976.63,-252.81 999.55,-252.81 1021.82,-252.81"/>
<polygon fill="#63b8ff" stroke="#63b8ff" points="1021.54,-256.31 1031.54,-252.81 1021.54,-249.31 1021.54,-256.31"/>
</a>
</g>
</g>
<!-- Node8 -->
<g id="Node000008" class="node">
<title>Node8</title>
<g id="a_Node000008"><a xlink:href="classcom_1_1runehive_1_1game_1_1world_1_1items_1_1_item_definition.html#a4fafaf641c0490165d697a73006e76bf" target="_top" xlink:title=" ">
<ellipse fill="white" stroke="#666666" cx="1510.66" cy="-252.81" rx="132.76" ry="25.81"/>
<text xml:space="preserve" text-anchor="start" x="1424.79" y="-255.66" font-family="Helvetica,sans-Serif" font-size="12.00">com.runehive.game.world.items.</text>
<text xml:space="preserve" text-anchor="middle" x="1510.66" y="-241.41" font-family="Helvetica,sans-Serif" font-size="12.00">ItemDefinition.ItemDefinition</text>
</a>
</g>
</g>
<!-- Node7&#45;&gt;Node8 -->
<g id="edge7_Node000007_Node000008" class="edge">
<title>Node7&#45;&gt;Node8</title>
<g id="a_edge7_Node000007_Node000008"><a xlink:title=" ">
<path fill="none" stroke="#63b8ff" d="M1299.11,-252.81C1321.11,-252.81 1344.03,-252.81 1366.3,-252.81"/>
<polygon fill="#63b8ff" stroke="#63b8ff" points="1366.01,-256.31 1376.01,-252.81 1366.01,-249.31 1366.01,-256.31"/>
</a>
</g>
</g>
<!-- Node12&#45;&gt;Node6 -->
<g id="edge12_Node000012_Node000006" class="edge">
<title>Node12&#45;&gt;Node6</title>
<g id="a_edge12_Node000012_Node000006"><a xlink:title=" ">
<path fill="none" stroke="#63b8ff" d="M575.67,-183.48C600.95,-188.57 628.07,-194.48 652.95,-200.81 682.69,-208.38 714.98,-218.03 743.21,-226.96"/>
<polygon fill="#63b8ff" stroke="#63b8ff" points="741.78,-230.18 752.37,-229.88 743.91,-223.51 741.78,-230.18"/>
</a>
</g>
</g>
<!-- Node14 -->
<g id="Node000014" class="node">
<title>Node14</title>
<g id="a_Node000014"><a xlink:href="classcom_1_1runehive_1_1net_1_1packet_1_1_outgoing_packet.html#a3dde4d77b8c8bbd686b8e121fd6514a7" target="_top" xlink:title=" ">
<ellipse fill="white" stroke="#666666" cx="821.71" cy="-95.81" rx="105.18" ry="25.81"/>
<text xml:space="preserve" text-anchor="start" x="755.33" y="-98.66" font-family="Helvetica,sans-Serif" font-size="12.00">com.runehive.net.packet.</text>
<text xml:space="preserve" text-anchor="middle" x="821.71" y="-84.41" font-family="Helvetica,sans-Serif" font-size="12.00">OutgoingPacket.execute</text>
</a>
</g>
</g>
<!-- Node13&#45;&gt;Node14 -->
<g id="edge14_Node000013_Node000014" class="edge">
<title>Node13&#45;&gt;Node14</title>
<g id="a_edge14_Node000013_Node000014"><a xlink:title=" ">
<path fill="none" stroke="#63b8ff" d="M653.23,-95.81C670.77,-95.81 688.25,-95.81 704.94,-95.81"/>
<polygon fill="#63b8ff" stroke="#63b8ff" points="704.85,-99.31 714.85,-95.81 704.85,-92.31 704.85,-99.31"/>
</a>
</g>
</g>
<!-- Node15 -->
<g id="Node000015" class="node">
<title>Node15</title>
<g id="a_Node000015"><a xlink:href="classcom_1_1runehive_1_1net_1_1packet_1_1_outgoing_packet.html#a74fc13c106ab76f87daec1e8bab6a2a1" target="_top" xlink:title=" ">
<ellipse fill="white" stroke="#666666" cx="1166.19" cy="-130.81" rx="105.18" ry="25.81"/>
<text xml:space="preserve" text-anchor="start" x="1099.81" y="-133.66" font-family="Helvetica,sans-Serif" font-size="12.00">com.runehive.net.packet.</text>
<text xml:space="preserve" text-anchor="middle" x="1166.19" y="-119.41" font-family="Helvetica,sans-Serif" font-size="12.00">OutgoingPacket.encode</text>
</a>
</g>
</g>
<!-- Node14&#45;&gt;Node15 -->
<g id="edge15_Node000014_Node000015" class="edge">
<title>Node14&#45;&gt;Node15</title>
<g id="a_edge15_Node000014_Node000015"><a xlink:title=" ">
<path fill="none" stroke="#63b8ff" d="M919.48,-105.7C962.33,-110.08 1012.91,-115.25 1057,-119.75"/>
<polygon fill="#63b8ff" stroke="#63b8ff" points="1056.55,-123.23 1066.86,-120.76 1057.26,-116.26 1056.55,-123.23"/>
</a>
</g>
</g>
<!-- Node16 -->
<g id="Node000016" class="node">
<title>Node16</title>
<g id="a_Node000016"><a xlink:href="classcom_1_1runehive_1_1game_1_1world_1_1entity_1_1mob_1_1player_1_1_player.html#a908fb61974719a74180d6300b838bfe1" target="_top" xlink:title=" ">
<ellipse fill="white" stroke="#666666" cx="1166.19" cy="-60.81" rx="175.72" ry="25.81"/>
<text xml:space="preserve" text-anchor="start" x="1049.94" y="-63.66" font-family="Helvetica,sans-Serif" font-size="12.00">com.runehive.game.world.entity.mob.player.</text>
<text xml:space="preserve" text-anchor="middle" x="1166.19" y="-49.41" font-family="Helvetica,sans-Serif" font-size="12.00">Player.getSession</text>
</a>
</g>
</g>
<!-- Node14&#45;&gt;Node16 -->
<g id="edge16_Node000014_Node000016" class="edge">
<title>Node14&#45;&gt;Node16</title>
<g id="a_edge16_Node000014_Node000016"><a xlink:title=" ">
<path fill="none" stroke="#63b8ff" d="M919.48,-85.92C947.49,-83.06 978.8,-79.86 1009.44,-76.73"/>
<polygon fill="#63b8ff" stroke="#63b8ff" points="1009.6,-80.23 1019.19,-75.73 1008.89,-73.26 1009.6,-80.23"/>
</a>
</g>
</g>
</g>
</svg>

<g id="navigator" transform="translate(0 0)" fill="#404254">
  <rect fill="#f2f5e9" fill-opacity="0.5" stroke="#606060" stroke-width=".5" x="0" y="0" width="60" height="60"/>
  <use id="zoomplus" xlink:href="#zoomPlus" x="17" y="9" onmousedown="handleZoom(evt,'in')"/>
  <use id="zoomminus" xlink:href="#zoomMin" x="42" y="9" onmousedown="handleZoom(evt,'out')"/>
  <use id="reset" xlink:href="#resetDef" x="30" y="36" onmousedown="handleReset()"/>
   <use id="arrowup" xlink:href="#arrowUp" x="0" y="0" onmousedown="handlePan(0,-1)"/>
  <use id="arrowright" xlink:href="#arrowRight" x="0" y="0" onmousedown="handlePan(1,0)"/>
  <use id="arrowdown" xlink:href="#arrowDown" x="0" y="0" onmousedown="handlePan(0,1)"/>
  <use id="arrowleft" xlink:href="#arrowLeft" x="0" y="0" onmousedown="handlePan(-1,0)"/>
</g>
<svg viewBox="0 0 15 15" width="100%" height="30px" preserveAspectRatio="xMaxYMin meet">
 <g id="arrow_out" transform="scale(0.3 0.3)">
  <a xlink:href="classcom_1_1runehive_1_1content_1_1store_1_1impl_1_1_personal_store_a21f6c54b0fa4d0ec93cb4d8332589bb6_cgraph_org.svg" target="_base">
   <rect id="button" ry="5" rx="5" y="6" x="6" height="38" width="38"
        fill="#f2f5e9" fill-opacity="0.5" stroke="#606060" stroke-width="1.0"/>
   <path id="arrow"
     d="M 11.500037,31.436501 C 11.940474,20.09759 22.043105,11.32322 32.158766,21.979434 L 37.068811,17.246167 C 37.068811,17.246167 37.088388,32 37.088388,32 L 22.160133,31.978069 C 22.160133,31.978069 26.997745,27.140456 26.997745,27.140456 C 18.528582,18.264221 13.291696,25.230495 11.500037,31.436501 z"
     style="fill:#404040;"/>
  </a>
 </g>
</svg>

<style type='text/css'>
<![CDATA[
[data-mouse-over-selected='false'] { opacity: 0.7; }
[data-mouse-over-selected='true']  { opacity: 1.0; }
]]>
</style>
<script type="application/ecmascript"><![CDATA[
document.addEventListener('DOMContentLoaded', (event) => {
  highlightEdges();
  highlightAdjacentNodes();
});
]]></script>
</svg>
