<?xml version="1.0" encoding="UTF-8" standalone="no"?>
<!DOCTYPE svg PUBLIC "-//W3C//DTD SVG 1.1//EN"
 "http://www.w3.org/Graphics/SVG/1.1/DTD/svg11.dtd">
<!-- Generated by graphviz version 14.0.1 (20251006.0113)
 -->
<!-- Title: com.runehive.game.world.entity.combat.magic.MagicRune.remove Pages: 1 -->
<!--zoomable 308 -->

<svg id="main" version="1.1" xmlns="http://www.w3.org/2000/svg" xmlns:xlink="http://www.w3.org/1999/xlink" xml:space="preserve" onload="init(evt)">

<style type="text/css"><![CDATA[
.node, .edge {opacity: 0.7;}
.node.selected, .edge.selected {opacity: 1;}
.edge:hover path { stroke: red; }
.edge:hover polygon { stroke: red; fill: red; }
]]></style>

<defs>
  <circle id="rim" cx="0" cy="0" r="7"/>
  <circle id="rim2" cx="0" cy="0" r="3.5"/>
  <g id="zoomPlus">
    <use xlink:href="#rim" fill="#404040"><set attributeName="fill" to="#808080" begin="zoomplus.mouseover" end="zoomplus.mouseout"/></use>
    <path d="M-4,0h8M0,-4v8" fill="none" stroke="white" stroke-width="1.5" pointer-events="none"/>
  </g>
  <g id="zoomMin">
    <use xlink:href="#rim" fill="#404040"><set attributeName="fill" to="#808080" begin="zoomminus.mouseover" end="zoomminus.mouseout"/></use>
    <path d="M-4,0h8" fill="none" stroke="white" stroke-width="1.5" pointer-events="none"/>
  </g>
  <g id="arrowUp" transform="translate(30 24)">
    <use xlink:href="#rim"/>
    <path pointer-events="none" fill="none" stroke="white" stroke-width="1.5" d="M0,-3.0v7 M-2.5,-0.5L0,-3.0L2.5,-0.5"/>
  </g>
  <g id="arrowRight" transform="rotate(90) translate(36 -43)">
    <use xlink:href="#rim"/>
    <path pointer-events="none" fill="none" stroke="white" stroke-width="1.5" d="M0,-3.0v7 M-2.5,-0.5L0,-3.0L2.5,-0.5"/>
  </g>
  <g id="arrowDown" transform="rotate(180) translate(-30 -48)">
    <use xlink:href="#rim"/>
    <path pointer-events="none" fill="none" stroke="white" stroke-width="1.5" d="M0,-3.0v7 M-2.5,-0.5L0,-3.0L2.5,-0.5"/>
  </g>
  <g id="arrowLeft" transform="rotate(270) translate(-36 17)">
    <use xlink:href="#rim"/>
    <path pointer-events="none" fill="none" stroke="white" stroke-width="1.5" d="M0,-3.0v7 M-2.5,-0.5L0,-3.0L2.5,-0.5"/>
  </g>
  <g id="resetDef">
    <use xlink:href="#rim2" fill="#404040"><set attributeName="fill" to="#808080" begin="reset.mouseover" end="reset.mouseout"/></use>
  </g>
</defs>
<script type="application/ecmascript">
var viewWidth = 1201;
var viewHeight = 308;
var sectionId = 'dynsection-9';
</script>
<script type="application/ecmascript" xlink:href="svg.min.js"/>
<svg id="graph" class="graph">
<g id="viewport">
<title>com.runehive.game.world.entity.combat.magic.MagicRune.remove</title>
<!-- Node1 -->
<g id="Node000001" class="node">
<title>Node1</title>
<g id="a_Node000001"><a xlink:title=" ">
<ellipse fill="#999999" stroke="#666666" cx="186.85" cy="-149.81" rx="186.85" ry="25.81"/>
<text xml:space="preserve" text-anchor="start" x="62.73" y="-152.66" font-family="Helvetica,sans-Serif" font-size="12.00">com.runehive.game.world.entity.combat.magic.</text>
<text xml:space="preserve" text-anchor="middle" x="186.85" y="-138.41" font-family="Helvetica,sans-Serif" font-size="12.00">MagicRune.remove</text>
</a>
</g>
</g>
<!-- Node2 -->
<g id="Node000002" class="node">
<title>Node2</title>
<g id="a_Node000002"><a xlink:href="enumcom_1_1runehive_1_1game_1_1world_1_1entity_1_1combat_1_1magic_1_1_magic_rune.html#ae8756643550af3a280518538594afd1d" target="_top" xlink:title=" ">
<ellipse fill="white" stroke="#666666" cx="596.56" cy="-273.81" rx="186.85" ry="25.81"/>
<text xml:space="preserve" text-anchor="start" x="472.43" y="-276.66" font-family="Helvetica,sans-Serif" font-size="12.00">com.runehive.game.world.entity.combat.magic.</text>
<text xml:space="preserve" text-anchor="middle" x="596.56" y="-262.41" font-family="Helvetica,sans-Serif" font-size="12.00">MagicRune.containsCombo</text>
</a>
</g>
</g>
<!-- Node1&#45;&gt;Node2 -->
<g id="edge1_Node000001_Node000002" class="edge">
<title>Node1&#45;&gt;Node2</title>
<g id="a_edge1_Node000001_Node000002"><a xlink:title=" ">
<path fill="none" stroke="#63b8ff" d="M241.51,-174.78C285.81,-194.55 350.74,-221.61 409.71,-238.81 426.41,-243.68 444.17,-248.04 461.82,-251.88"/>
<polygon fill="#63b8ff" stroke="#63b8ff" points="460.8,-255.24 471.31,-253.89 462.25,-248.39 460.8,-255.24"/>
</a>
</g>
</g>
<!-- Node4 -->
<g id="Node000004" class="node">
<title>Node4</title>
<g id="a_Node000004"><a xlink:href="enumcom_1_1runehive_1_1game_1_1world_1_1entity_1_1combat_1_1magic_1_1_magic_rune.html#ac2acea512687cf106fbbca361a58e01f" target="_top" xlink:title=" ">
<ellipse fill="white" stroke="#666666" cx="596.56" cy="-203.81" rx="186.85" ry="25.81"/>
<text xml:space="preserve" text-anchor="start" x="472.43" y="-206.66" font-family="Helvetica,sans-Serif" font-size="12.00">com.runehive.game.world.entity.combat.magic.</text>
<text xml:space="preserve" text-anchor="middle" x="596.56" y="-192.41" font-family="Helvetica,sans-Serif" font-size="12.00">MagicRune.forMainId</text>
</a>
</g>
</g>
<!-- Node1&#45;&gt;Node4 -->
<g id="edge3_Node000001_Node000004" class="edge">
<title>Node1&#45;&gt;Node4</title>
<g id="a_edge3_Node000001_Node000004"><a xlink:title=" ">
<path fill="none" stroke="#63b8ff" d="M323.61,-167.79C363.74,-173.11 407.84,-178.95 448.63,-184.35"/>
<polygon fill="#63b8ff" stroke="#63b8ff" points="448.17,-187.82 458.54,-185.66 449.09,-180.88 448.17,-187.82"/>
</a>
</g>
</g>
<!-- Node5 -->
<g id="Node000005" class="node">
<title>Node5</title>
<g id="a_Node000005"><a xlink:href="enumcom_1_1runehive_1_1game_1_1world_1_1entity_1_1combat_1_1magic_1_1_magic_rune.html#a779a75a6087abe18b40e0c9b2446bc51" target="_top" xlink:title=" ">
<ellipse fill="white" stroke="#666666" cx="1006.26" cy="-176.81" rx="186.85" ry="25.81"/>
<text xml:space="preserve" text-anchor="start" x="882.14" y="-179.66" font-family="Helvetica,sans-Serif" font-size="12.00">com.runehive.game.world.entity.combat.magic.</text>
<text xml:space="preserve" text-anchor="middle" x="1006.26" y="-165.41" font-family="Helvetica,sans-Serif" font-size="12.00">MagicRune.MagicRune</text>
</a>
</g>
</g>
<!-- Node1&#45;&gt;Node5 -->
<g id="edge7_Node000001_Node000005" class="edge">
<title>Node1&#45;&gt;Node5</title>
<g id="a_edge7_Node000001_Node000005"><a xlink:title=" ">
<path fill="none" stroke="#63b8ff" d="M369.66,-155.41C487.61,-159.1 644.61,-164.09 783.41,-168.81 793.21,-169.14 803.25,-169.49 813.38,-169.84"/>
<polygon fill="#63b8ff" stroke="#63b8ff" points="813.23,-173.34 823.35,-170.19 813.48,-166.34 813.23,-173.34"/>
</a>
</g>
</g>
<!-- Node6 -->
<g id="Node000006" class="node">
<title>Node6</title>
<g id="a_Node000006"><a xlink:href="classcom_1_1runehive_1_1game_1_1world_1_1items_1_1_item.html#a1cec21ca5ef1783808d4ca9de1051a29" target="_top" xlink:title="Gets the identification of this item.">
<ellipse fill="white" stroke="#666666" cx="596.56" cy="-95.81" rx="132.76" ry="25.81"/>
<text xml:space="preserve" text-anchor="start" x="510.68" y="-98.66" font-family="Helvetica,sans-Serif" font-size="12.00">com.runehive.game.world.items.</text>
<text xml:space="preserve" text-anchor="middle" x="596.56" y="-84.41" font-family="Helvetica,sans-Serif" font-size="12.00">Item.getId</text>
</a>
</g>
</g>
<!-- Node1&#45;&gt;Node6 -->
<g id="edge5_Node000001_Node000006" class="edge">
<title>Node1&#45;&gt;Node6</title>
<g id="a_edge5_Node000001_Node000006"><a xlink:title=" ">
<path fill="none" stroke="#63b8ff" d="M323.61,-131.83C372.4,-125.37 427.07,-118.13 474.52,-111.84"/>
<polygon fill="#63b8ff" stroke="#63b8ff" points="474.83,-115.33 484.29,-110.55 473.91,-108.39 474.83,-115.33"/>
</a>
</g>
</g>
<!-- Node7 -->
<g id="Node000007" class="node">
<title>Node7</title>
<g id="a_Node000007"><a xlink:href="enumcom_1_1runehive_1_1game_1_1world_1_1entity_1_1combat_1_1magic_1_1_magic_rune.html#a306cb948a5b010e0e681bef90a17062e" target="_top" xlink:title=" ">
<ellipse fill="white" stroke="#666666" cx="596.56" cy="-25.81" rx="186.85" ry="25.81"/>
<text xml:space="preserve" text-anchor="start" x="472.43" y="-28.66" font-family="Helvetica,sans-Serif" font-size="12.00">com.runehive.game.world.entity.combat.magic.</text>
<text xml:space="preserve" text-anchor="middle" x="596.56" y="-14.41" font-family="Helvetica,sans-Serif" font-size="12.00">MagicRune.isStaff</text>
</a>
</g>
</g>
<!-- Node1&#45;&gt;Node7 -->
<g id="edge6_Node000001_Node000007" class="edge">
<title>Node1&#45;&gt;Node7</title>
<g id="a_edge6_Node000001_Node000007"><a xlink:title=" ">
<path fill="none" stroke="#63b8ff" d="M241.51,-124.84C285.81,-105.07 350.74,-78.01 409.71,-60.81 426.41,-55.94 444.17,-51.58 461.82,-47.74"/>
<polygon fill="#63b8ff" stroke="#63b8ff" points="462.25,-51.22 471.31,-45.72 460.8,-44.38 462.25,-51.22"/>
</a>
</g>
</g>
<!-- Node3 -->
<g id="Node000003" class="node">
<title>Node3</title>
<g id="a_Node000003"><a xlink:href="classcom_1_1runehive_1_1game_1_1world_1_1items_1_1containers_1_1_item_container.html#a8acf6f1c920076daea6c80e5afbe3404" target="_top" xlink:title="Determines if this container contains id.">
<ellipse fill="white" stroke="#666666" cx="1006.26" cy="-273.81" rx="174.13" ry="25.81"/>
<text xml:space="preserve" text-anchor="start" x="891.14" y="-276.66" font-family="Helvetica,sans-Serif" font-size="12.00">com.runehive.game.world.items.containers.</text>
<text xml:space="preserve" text-anchor="middle" x="1006.26" y="-262.41" font-family="Helvetica,sans-Serif" font-size="12.00">ItemContainer.contains</text>
</a>
</g>
</g>
<!-- Node2&#45;&gt;Node3 -->
<g id="edge2_Node000002_Node000003" class="edge">
<title>Node2&#45;&gt;Node3</title>
<g id="a_edge2_Node000002_Node000003"><a xlink:title=" ">
<path fill="none" stroke="#63b8ff" d="M783.81,-273.81C796.02,-273.81 808.32,-273.81 820.52,-273.81"/>
<polygon fill="#63b8ff" stroke="#63b8ff" points="820.18,-277.31 830.18,-273.81 820.18,-270.31 820.18,-277.31"/>
</a>
</g>
</g>
<!-- Node4&#45;&gt;Node5 -->
<g id="edge4_Node000004_Node000005" class="edge">
<title>Node4&#45;&gt;Node5</title>
<g id="a_edge4_Node000004_Node000005"><a xlink:title=" ">
<path fill="none" stroke="#63b8ff" d="M766.04,-192.65C785.64,-191.35 805.7,-190.03 825.45,-188.72"/>
<polygon fill="#63b8ff" stroke="#63b8ff" points="825.46,-192.22 835.2,-188.07 824.99,-185.24 825.46,-192.22"/>
</a>
</g>
</g>
</g>
</svg>

<g id="navigator" transform="translate(0 0)" fill="#404254">
  <rect fill="#f2f5e9" fill-opacity="0.5" stroke="#606060" stroke-width=".5" x="0" y="0" width="60" height="60"/>
  <use id="zoomplus" xlink:href="#zoomPlus" x="17" y="9" onmousedown="handleZoom(evt,'in')"/>
  <use id="zoomminus" xlink:href="#zoomMin" x="42" y="9" onmousedown="handleZoom(evt,'out')"/>
  <use id="reset" xlink:href="#resetDef" x="30" y="36" onmousedown="handleReset()"/>
   <use id="arrowup" xlink:href="#arrowUp" x="0" y="0" onmousedown="handlePan(0,-1)"/>
  <use id="arrowright" xlink:href="#arrowRight" x="0" y="0" onmousedown="handlePan(1,0)"/>
  <use id="arrowdown" xlink:href="#arrowDown" x="0" y="0" onmousedown="handlePan(0,1)"/>
  <use id="arrowleft" xlink:href="#arrowLeft" x="0" y="0" onmousedown="handlePan(-1,0)"/>
</g>
<svg viewBox="0 0 15 15" width="100%" height="30px" preserveAspectRatio="xMaxYMin meet">
 <g id="arrow_out" transform="scale(0.3 0.3)">
  <a xlink:href="enumcom_1_1runehive_1_1game_1_1world_1_1entity_1_1combat_1_1magic_1_1_magic_rune_a4b100d265808584139196d4a4b33f892_cgraph_org.svg" target="_base">
   <rect id="button" ry="5" rx="5" y="6" x="6" height="38" width="38"
        fill="#f2f5e9" fill-opacity="0.5" stroke="#606060" stroke-width="1.0"/>
   <path id="arrow"
     d="M 11.500037,31.436501 C 11.940474,20.09759 22.043105,11.32322 32.158766,21.979434 L 37.068811,17.246167 C 37.068811,17.246167 37.088388,32 37.088388,32 L 22.160133,31.978069 C 22.160133,31.978069 26.997745,27.140456 26.997745,27.140456 C 18.528582,18.264221 13.291696,25.230495 11.500037,31.436501 z"
     style="fill:#404040;"/>
  </a>
 </g>
</svg>

<style type='text/css'>
<![CDATA[
[data-mouse-over-selected='false'] { opacity: 0.7; }
[data-mouse-over-selected='true']  { opacity: 1.0; }
]]>
</style>
<script type="application/ecmascript"><![CDATA[
document.addEventListener('DOMContentLoaded', (event) => {
  highlightEdges();
  highlightAdjacentNodes();
});
]]></script>
</svg>
