<?xml version="1.0" encoding="UTF-8" standalone="no"?>
<!DOCTYPE svg PUBLIC "-//W3C//DTD SVG 1.1//EN"
 "http://www.w3.org/Graphics/SVG/1.1/DTD/svg11.dtd">
<!-- Generated by graphviz version 14.0.1 (20251006.0113)
 -->
<!-- Title: com.runehive.game.world.entity.combat.weapon.WeaponInterface.WeaponInterface Pages: 1 -->
<!--zoomable 238 -->

<svg id="main" version="1.1" xmlns="http://www.w3.org/2000/svg" xmlns:xlink="http://www.w3.org/1999/xlink" xml:space="preserve" onload="init(evt)">

<style type="text/css"><![CDATA[
.node, .edge {opacity: 0.7;}
.node.selected, .edge.selected {opacity: 1;}
.edge:hover path { stroke: red; }
.edge:hover polygon { stroke: red; fill: red; }
]]></style>

<defs>
  <circle id="rim" cx="0" cy="0" r="7"/>
  <circle id="rim2" cx="0" cy="0" r="3.5"/>
  <g id="zoomPlus">
    <use xlink:href="#rim" fill="#404040"><set attributeName="fill" to="#808080" begin="zoomplus.mouseover" end="zoomplus.mouseout"/></use>
    <path d="M-4,0h8M0,-4v8" fill="none" stroke="white" stroke-width="1.5" pointer-events="none"/>
  </g>
  <g id="zoomMin">
    <use xlink:href="#rim" fill="#404040"><set attributeName="fill" to="#808080" begin="zoomminus.mouseover" end="zoomminus.mouseout"/></use>
    <path d="M-4,0h8" fill="none" stroke="white" stroke-width="1.5" pointer-events="none"/>
  </g>
  <g id="arrowUp" transform="translate(30 24)">
    <use xlink:href="#rim"/>
    <path pointer-events="none" fill="none" stroke="white" stroke-width="1.5" d="M0,-3.0v7 M-2.5,-0.5L0,-3.0L2.5,-0.5"/>
  </g>
  <g id="arrowRight" transform="rotate(90) translate(36 -43)">
    <use xlink:href="#rim"/>
    <path pointer-events="none" fill="none" stroke="white" stroke-width="1.5" d="M0,-3.0v7 M-2.5,-0.5L0,-3.0L2.5,-0.5"/>
  </g>
  <g id="arrowDown" transform="rotate(180) translate(-30 -48)">
    <use xlink:href="#rim"/>
    <path pointer-events="none" fill="none" stroke="white" stroke-width="1.5" d="M0,-3.0v7 M-2.5,-0.5L0,-3.0L2.5,-0.5"/>
  </g>
  <g id="arrowLeft" transform="rotate(270) translate(-36 17)">
    <use xlink:href="#rim"/>
    <path pointer-events="none" fill="none" stroke="white" stroke-width="1.5" d="M0,-3.0v7 M-2.5,-0.5L0,-3.0L2.5,-0.5"/>
  </g>
  <g id="resetDef">
    <use xlink:href="#rim2" fill="#404040"><set attributeName="fill" to="#808080" begin="reset.mouseover" end="reset.mouseout"/></use>
  </g>
</defs>
<script type="application/ecmascript">
var viewWidth = 1246;
var viewHeight = 238;
var sectionId = 'dynsection-1';
</script>
<script type="application/ecmascript" xlink:href="svg.min.js"/>
<svg id="graph" class="graph">
<g id="viewport">
<title>com.runehive.game.world.entity.combat.weapon.WeaponInterface.WeaponInterface</title>
<!-- Node1 -->
<g id="Node000001" class="node">
<title>Node1</title>
<g id="a_Node000001"><a xlink:title="Creates a new WeaponInterface.">
<ellipse fill="#999999" stroke="#666666" cx="1043.39" cy="-106.81" rx="194.28" ry="25.81"/>
<text xml:space="preserve" text-anchor="start" x="914.01" y="-109.66" font-family="Helvetica,sans-Serif" font-size="12.00">com.runehive.game.world.entity.combat.weapon.</text>
<text xml:space="preserve" text-anchor="middle" x="1043.39" y="-95.41" font-family="Helvetica,sans-Serif" font-size="12.00">WeaponInterface.WeaponInterface</text>
</a>
</g>
</g>
<!-- Node2 -->
<g id="Node000002" class="node">
<title>Node2</title>
<g id="a_Node000002"><a xlink:href="enumcom_1_1runehive_1_1game_1_1world_1_1entity_1_1combat_1_1weapon_1_1_weapon_interface.html#a96bd262500fa77818c469e4cf461ca47" target="_top" xlink:title=" ">
<ellipse fill="white" stroke="#666666" cx="618.83" cy="-203.81" rx="194.28" ry="25.81"/>
<text xml:space="preserve" text-anchor="start" x="489.46" y="-206.66" font-family="Helvetica,sans-Serif" font-size="12.00">com.runehive.game.world.entity.combat.weapon.</text>
<text xml:space="preserve" text-anchor="middle" x="618.83" y="-192.41" font-family="Helvetica,sans-Serif" font-size="12.00">WeaponInterface.[static initializer]</text>
</a>
</g>
</g>
<!-- Node1&#45;&gt;Node2 -->
<g id="edge1_Node000001_Node000002" class="edge">
<title>Node1&#45;&gt;Node2</title>
<g id="a_edge1_Node000001_Node000002"><a xlink:title=" ">
<path fill="none" stroke="#63b8ff" d="M950.14,-133.67C908.49,-145.31 858.53,-158.58 813.11,-168.81 790.07,-174 765.36,-178.94 741.55,-183.39"/>
<polygon fill="#63b8ff" stroke="#63b8ff" points="950.96,-137.08 959.64,-131.01 949.07,-130.34 950.96,-137.08"/>
</a>
</g>
</g>
<!-- Node3 -->
<g id="Node000003" class="node">
<title>Node3</title>
<g id="a_Node000003"><a xlink:href="enumcom_1_1runehive_1_1game_1_1world_1_1entity_1_1combat_1_1weapon_1_1_weapon_interface.html#a2419f55497157cf17025e5a20b5c1110" target="_top" xlink:title=" ">
<ellipse fill="white" stroke="#666666" cx="618.83" cy="-133.81" rx="194.28" ry="25.81"/>
<text xml:space="preserve" text-anchor="start" x="489.46" y="-136.66" font-family="Helvetica,sans-Serif" font-size="12.00">com.runehive.game.world.entity.combat.weapon.</text>
<text xml:space="preserve" text-anchor="middle" x="618.83" y="-122.41" font-family="Helvetica,sans-Serif" font-size="12.00">WeaponInterface.defaultWeaponInterface</text>
</a>
</g>
</g>
<!-- Node1&#45;&gt;Node3 -->
<g id="edge2_Node000001_Node000003" class="edge">
<title>Node1&#45;&gt;Node3</title>
<g id="a_edge2_Node000001_Node000003"><a xlink:title=" ">
<path fill="none" stroke="#63b8ff" d="M855.95,-118.72C835.71,-120.02 815.16,-121.33 795.06,-122.61"/>
<polygon fill="#63b8ff" stroke="#63b8ff" points="855.9,-122.23 865.65,-118.1 855.45,-115.25 855.9,-122.23"/>
</a>
</g>
</g>
<!-- Node4 -->
<g id="Node000004" class="node">
<title>Node4</title>
<g id="a_Node000004"><a xlink:href="enumcom_1_1runehive_1_1game_1_1world_1_1entity_1_1combat_1_1weapon_1_1_weapon_interface.html#a12d13b4db32462bb1341666435678108" target="_top" xlink:title=" ">
<ellipse fill="white" stroke="#666666" cx="194.28" cy="-106.81" rx="194.28" ry="25.81"/>
<text xml:space="preserve" text-anchor="start" x="64.9" y="-109.66" font-family="Helvetica,sans-Serif" font-size="12.00">com.runehive.game.world.entity.combat.weapon.</text>
<text xml:space="preserve" text-anchor="middle" x="194.28" y="-95.41" font-family="Helvetica,sans-Serif" font-size="12.00">WeaponInterface.execute</text>
</a>
</g>
</g>
<!-- Node1&#45;&gt;Node4 -->
<g id="edge4_Node000001_Node000004" class="edge">
<title>Node1&#45;&gt;Node4</title>
<g id="a_edge4_Node000001_Node000004"><a xlink:title=" ">
<path fill="none" stroke="#63b8ff" d="M844.77,-99.48C834.06,-99.22 823.46,-98.99 813.11,-98.81 640.45,-95.8 597.22,-95.8 424.56,-98.81 410.62,-99.05 396.2,-99.38 381.71,-99.76"/>
<polygon fill="#63b8ff" stroke="#63b8ff" points="844.36,-102.97 854.44,-99.72 844.54,-95.97 844.36,-102.97"/>
</a>
</g>
</g>
<!-- Node5 -->
<g id="Node000005" class="node">
<title>Node5</title>
<g id="a_Node000005"><a xlink:href="enumcom_1_1runehive_1_1game_1_1world_1_1entity_1_1combat_1_1weapon_1_1_weapon_interface.html#a221281111a172c430ca6197c0d5f2fc4" target="_top" xlink:title=" ">
<ellipse fill="white" stroke="#666666" cx="618.83" cy="-25.81" rx="194.28" ry="25.81"/>
<text xml:space="preserve" text-anchor="start" x="489.46" y="-28.66" font-family="Helvetica,sans-Serif" font-size="12.00">com.runehive.game.world.entity.combat.weapon.</text>
<text xml:space="preserve" text-anchor="middle" x="618.83" y="-14.41" font-family="Helvetica,sans-Serif" font-size="12.00">WeaponInterface.isSpecialButton</text>
</a>
</g>
</g>
<!-- Node1&#45;&gt;Node5 -->
<g id="edge5_Node000001_Node000005" class="edge">
<title>Node1&#45;&gt;Node5</title>
<g id="a_edge5_Node000001_Node000005"><a xlink:title=" ">
<path fill="none" stroke="#63b8ff" d="M919.58,-83.27C860.18,-71.88 789.39,-58.31 731.52,-47.22"/>
<polygon fill="#63b8ff" stroke="#63b8ff" points="918.57,-86.64 929.05,-85.08 919.89,-79.76 918.57,-86.64"/>
</a>
</g>
</g>
<!-- Node3&#45;&gt;Node4 -->
<g id="edge3_Node000003_Node000004" class="edge">
<title>Node3&#45;&gt;Node4</title>
<g id="a_edge3_Node000003_Node000004"><a xlink:title=" ">
<path fill="none" stroke="#63b8ff" d="M431.4,-121.9C411.16,-120.6 390.61,-119.29 370.5,-118.01"/>
<polygon fill="#63b8ff" stroke="#63b8ff" points="430.89,-125.37 441.1,-122.52 431.34,-118.39 430.89,-125.37"/>
</a>
</g>
</g>
</g>
</svg>

<g id="navigator" transform="translate(0 0)" fill="#404254">
  <rect fill="#f2f5e9" fill-opacity="0.5" stroke="#606060" stroke-width=".5" x="0" y="0" width="60" height="60"/>
  <use id="zoomplus" xlink:href="#zoomPlus" x="17" y="9" onmousedown="handleZoom(evt,'in')"/>
  <use id="zoomminus" xlink:href="#zoomMin" x="42" y="9" onmousedown="handleZoom(evt,'out')"/>
  <use id="reset" xlink:href="#resetDef" x="30" y="36" onmousedown="handleReset()"/>
   <use id="arrowup" xlink:href="#arrowUp" x="0" y="0" onmousedown="handlePan(0,-1)"/>
  <use id="arrowright" xlink:href="#arrowRight" x="0" y="0" onmousedown="handlePan(1,0)"/>
  <use id="arrowdown" xlink:href="#arrowDown" x="0" y="0" onmousedown="handlePan(0,1)"/>
  <use id="arrowleft" xlink:href="#arrowLeft" x="0" y="0" onmousedown="handlePan(-1,0)"/>
</g>
<svg viewBox="0 0 15 15" width="100%" height="30px" preserveAspectRatio="xMaxYMin meet">
 <g id="arrow_out" transform="scale(0.3 0.3)">
  <a xlink:href="enumcom_1_1runehive_1_1game_1_1world_1_1entity_1_1combat_1_1weapon_1_1_weapon_interface_a881b507c36137df405cd37aa7865ee5e_icgraph_org.svg" target="_base">
   <rect id="button" ry="5" rx="5" y="6" x="6" height="38" width="38"
        fill="#f2f5e9" fill-opacity="0.5" stroke="#606060" stroke-width="1.0"/>
   <path id="arrow"
     d="M 11.500037,31.436501 C 11.940474,20.09759 22.043105,11.32322 32.158766,21.979434 L 37.068811,17.246167 C 37.068811,17.246167 37.088388,32 37.088388,32 L 22.160133,31.978069 C 22.160133,31.978069 26.997745,27.140456 26.997745,27.140456 C 18.528582,18.264221 13.291696,25.230495 11.500037,31.436501 z"
     style="fill:#404040;"/>
  </a>
 </g>
</svg>

<style type='text/css'>
<![CDATA[
[data-mouse-over-selected='false'] { opacity: 0.7; }
[data-mouse-over-selected='true']  { opacity: 1.0; }
]]>
</style>
<script type="application/ecmascript"><![CDATA[
document.addEventListener('DOMContentLoaded', (event) => {
  highlightEdges();
  highlightAdjacentNodes();
});
]]></script>
</svg>
