<?xml version="1.0" encoding="UTF-8" standalone="no"?>
<!DOCTYPE svg PUBLIC "-//W3C//DTD SVG 1.1//EN"
 "http://www.w3.org/Graphics/SVG/1.1/DTD/svg11.dtd">
<!-- Generated by graphviz version 14.0.1 (20251006.0113)
 -->
<!-- Title: com.runehive.game.world.entity.mob.player.PlayerRight.isHelper Pages: 1 -->
<svg width="2413pt" height="961pt"
 viewBox="0.00 0.00 2413.00 961.00" xmlns="http://www.w3.org/2000/svg" xmlns:xlink="http://www.w3.org/1999/xlink">
<g id="graph0" class="graph" transform="scale(1 1) rotate(0) translate(4 956.62)">
<title>com.runehive.game.world.entity.mob.player.PlayerRight.isHelper</title>
<!-- Node1 -->
<g id="Node000001" class="node">
<title>Node1</title>
<g id="a_Node000001"><a xlink:title="Checks if the player is a HELPER member.">
<ellipse fill="#999999" stroke="#666666" cx="2229.55" cy="-340.81" rx="175.72" ry="25.81"/>
<text xml:space="preserve" text-anchor="start" x="2113.3" y="-343.66" font-family="Helvetica,sans-Serif" font-size="12.00">com.runehive.game.world.entity.mob.player.</text>
<text xml:space="preserve" text-anchor="middle" x="2229.55" y="-329.41" font-family="Helvetica,sans-Serif" font-size="12.00">PlayerRight.isHelper</text>
</a>
</g>
</g>
<!-- Node2 -->
<g id="Node000002" class="node">
<title>Node2</title>
<g id="a_Node000002"><a xlink:href="enumcom_1_1runehive_1_1game_1_1world_1_1entity_1_1mob_1_1player_1_1_player_right.html#a3a7723f4d7d111e6a5050381fd7b3824" target="_top" xlink:title="Checks if the player has donator status.">
<ellipse fill="white" stroke="#666666" cx="1842.12" cy="-425.81" rx="175.72" ry="25.81"/>
<text xml:space="preserve" text-anchor="start" x="1725.87" y="-428.66" font-family="Helvetica,sans-Serif" font-size="12.00">com.runehive.game.world.entity.mob.player.</text>
<text xml:space="preserve" text-anchor="middle" x="1842.12" y="-414.41" font-family="Helvetica,sans-Serif" font-size="12.00">PlayerRight.isDonator</text>
</a>
</g>
</g>
<!-- Node1&#45;&gt;Node2 -->
<g id="edge1_Node000001_Node000002" class="edge">
<title>Node1&#45;&gt;Node2</title>
<g id="a_edge1_Node000001_Node000002"><a xlink:title=" ">
<path fill="none" stroke="#63b8ff" d="M2119.27,-364.91C2063.35,-377.24 1995.82,-392.13 1941.53,-404.11"/>
<polygon fill="#63b8ff" stroke="#63b8ff" points="2119.8,-368.38 2128.81,-362.8 2118.29,-361.54 2119.8,-368.38"/>
</a>
</g>
</g>
<!-- Node31 -->
<g id="Node000031" class="node">
<title>Node31</title>
<g id="a_Node000031"><a xlink:href="classcom_1_1runehive_1_1content_1_1_yell.html#a4eec8df3bad95521ab2c090ff502a2f7" target="_top" xlink:title="Yells a message to the server.">
<ellipse fill="white" stroke="#666666" cx="1435.59" cy="-85.81" rx="123.21" ry="15.73"/>
<text xml:space="preserve" text-anchor="middle" x="1435.59" y="-81.53" font-family="Helvetica,sans-Serif" font-size="12.00">com.runehive.content.Yell.yell</text>
</a>
</g>
</g>
<!-- Node1&#45;&gt;Node31 -->
<g id="edge49_Node000001_Node000031" class="edge">
<title>Node1&#45;&gt;Node31</title>
<g id="a_edge49_Node000001_Node000031"><a xlink:title=" ">
<path fill="none" stroke="#63b8ff" d="M2109.54,-317.73C1990.42,-290.76 1805.36,-238.03 1666.4,-148.81 1646.82,-136.24 1651.14,-121.35 1630.4,-110.81 1608.1,-99.47 1582.56,-92.59 1557.5,-88.54"/>
<polygon fill="#63b8ff" stroke="#63b8ff" points="2108.5,-321.09 2119.02,-319.86 2110.03,-314.26 2108.5,-321.09"/>
</a>
</g>
</g>
<!-- Node32 -->
<g id="Node000032" class="node">
<title>Node32</title>
<g id="a_Node000032"><a xlink:href="enumcom_1_1runehive_1_1game_1_1world_1_1entity_1_1mob_1_1player_1_1_player_right.html#a8842e1252f291d6e6057c268f1371fba" target="_top" xlink:title="Checks if the player has super donator status.">
<ellipse fill="white" stroke="#666666" cx="1842.12" cy="-635.81" rx="175.72" ry="25.81"/>
<text xml:space="preserve" text-anchor="start" x="1725.87" y="-638.66" font-family="Helvetica,sans-Serif" font-size="12.00">com.runehive.game.world.entity.mob.player.</text>
<text xml:space="preserve" text-anchor="middle" x="1842.12" y="-624.41" font-family="Helvetica,sans-Serif" font-size="12.00">PlayerRight.isSuper</text>
</a>
</g>
</g>
<!-- Node1&#45;&gt;Node32 -->
<g id="edge38_Node000001_Node000032" class="edge">
<title>Node1&#45;&gt;Node32</title>
<g id="a_edge38_Node000001_Node000032"><a xlink:title=" ">
<path fill="none" stroke="#63b8ff" d="M2186.02,-373.36C2108.7,-432.54 1946.64,-556.58 1876.57,-610.21"/>
<polygon fill="#63b8ff" stroke="#63b8ff" points="2188,-376.25 2193.82,-367.39 2183.75,-370.69 2188,-376.25"/>
</a>
</g>
</g>
<!-- Node34 -->
<g id="Node000034" class="node">
<title>Node34</title>
<g id="a_Node000034"><a xlink:href="classcom_1_1runehive_1_1content_1_1donators_1_1_donation.html#a5b8e58bee9135ff5e00b3c1b04ad3310" target="_top" xlink:title=" ">
<ellipse fill="white" stroke="#666666" cx="1842.12" cy="-113.81" rx="129.05" ry="25.81"/>
<text xml:space="preserve" text-anchor="start" x="1758.87" y="-116.66" font-family="Helvetica,sans-Serif" font-size="12.00">com.runehive.content.donators.</text>
<text xml:space="preserve" text-anchor="middle" x="1842.12" y="-102.41" font-family="Helvetica,sans-Serif" font-size="12.00">Donation.updateRank</text>
</a>
</g>
</g>
<!-- Node1&#45;&gt;Node34 -->
<g id="edge47_Node000001_Node000034" class="edge">
<title>Node1&#45;&gt;Node34</title>
<g id="a_edge47_Node000001_Node000034"><a xlink:title=" ">
<path fill="none" stroke="#63b8ff" d="M2198.86,-306.33C2161.03,-264.61 2091.65,-195.2 2017.83,-156.81 1995.11,-144.99 1969.01,-136.33 1944.04,-130.02"/>
<polygon fill="#63b8ff" stroke="#63b8ff" points="2196.15,-308.55 2205.43,-313.66 2201.37,-303.88 2196.15,-308.55"/>
</a>
</g>
</g>
<!-- Node3 -->
<g id="Node000003" class="node">
<title>Node3</title>
<g id="a_Node000003"><a xlink:href="classcom_1_1runehive_1_1content_1_1skill_1_1impl_1_1slayer_1_1_slayer.html#a32462b96c1535933cb8e9c29240578d3" target="_top" xlink:title="Cancel&#39;s the current assigned slayer task.">
<ellipse fill="white" stroke="#666666" cx="1435.59" cy="-215.81" rx="153.44" ry="25.81"/>
<text xml:space="preserve" text-anchor="start" x="1335.09" y="-218.66" font-family="Helvetica,sans-Serif" font-size="12.00">com.runehive.content.skill.impl.slayer.</text>
<text xml:space="preserve" text-anchor="middle" x="1435.59" y="-204.41" font-family="Helvetica,sans-Serif" font-size="12.00">Slayer.cancel</text>
</a>
</g>
</g>
<!-- Node2&#45;&gt;Node3 -->
<g id="edge2_Node000002_Node000003" class="edge">
<title>Node2&#45;&gt;Node3</title>
<g id="a_edge2_Node000002_Node000003"><a xlink:title=" ">
<path fill="none" stroke="#63b8ff" d="M1810.82,-391.66C1772.87,-351.21 1703.85,-285.02 1630.4,-250.81 1610.41,-241.5 1588.19,-234.66 1566.13,-229.63"/>
<polygon fill="#63b8ff" stroke="#63b8ff" points="1808.04,-393.81 1817.41,-398.77 1813.18,-389.05 1808.04,-393.81"/>
</a>
</g>
</g>
<!-- Node4 -->
<g id="Node000004" class="node">
<title>Node4</title>
<g id="a_Node000004"><a xlink:href="classcom_1_1runehive_1_1content_1_1skill_1_1impl_1_1thieving_1_1_thieving.html#a89472c2915b9666942488102119e950d" target="_top" xlink:title=" ">
<ellipse fill="white" stroke="#666666" cx="1435.59" cy="-425.81" rx="160.87" ry="25.81"/>
<text xml:space="preserve" text-anchor="start" x="1329.84" y="-428.66" font-family="Helvetica,sans-Serif" font-size="12.00">com.runehive.content.skill.impl.thieving.</text>
<text xml:space="preserve" text-anchor="middle" x="1435.59" y="-414.41" font-family="Helvetica,sans-Serif" font-size="12.00">Thieving.clickObject</text>
</a>
</g>
</g>
<!-- Node2&#45;&gt;Node4 -->
<g id="edge3_Node000002_Node000004" class="edge">
<title>Node2&#45;&gt;Node4</title>
<g id="a_edge3_Node000002_Node000004"><a xlink:title=" ">
<path fill="none" stroke="#63b8ff" d="M1654.66,-425.81C1635.27,-425.81 1615.7,-425.81 1596.64,-425.81"/>
<polygon fill="#63b8ff" stroke="#63b8ff" points="1654.53,-429.31 1664.53,-425.81 1654.53,-422.31 1654.53,-429.31"/>
</a>
</g>
</g>
<!-- Node5 -->
<g id="Node000005" class="node">
<title>Node5</title>
<g id="a_Node000005"><a xlink:href="enumcom_1_1runehive_1_1game_1_1world_1_1entity_1_1mob_1_1player_1_1_player_right.html#aa4177954402d995cb3cc8d2ea5f7c330" target="_top" xlink:title=" ">
<ellipse fill="white" stroke="#666666" cx="1435.59" cy="-845.81" rx="175.72" ry="25.81"/>
<text xml:space="preserve" text-anchor="start" x="1319.34" y="-848.66" font-family="Helvetica,sans-Serif" font-size="12.00">com.runehive.game.world.entity.mob.player.</text>
<text xml:space="preserve" text-anchor="middle" x="1435.59" y="-834.41" font-family="Helvetica,sans-Serif" font-size="12.00">PlayerRight.dropRateIncrease</text>
</a>
</g>
</g>
<!-- Node2&#45;&gt;Node5 -->
<g id="edge4_Node000002_Node000005" class="edge">
<title>Node2&#45;&gt;Node5</title>
<g id="a_edge4_Node000002_Node000005"><a xlink:title=" ">
<path fill="none" stroke="#63b8ff" d="M1795.46,-458.27C1754.76,-489.84 1697.01,-541.6 1666.4,-600.81 1622.91,-684.93 1697.06,-743.55 1630.4,-810.81 1620.29,-821.01 1608.28,-828.8 1595.27,-834.71"/>
<polygon fill="#63b8ff" stroke="#63b8ff" points="1797.36,-461.23 1803.19,-452.38 1793.11,-455.67 1797.36,-461.23"/>
</a>
</g>
</g>
<!-- Node10 -->
<g id="Node000010" class="node">
<title>Node10</title>
<g id="a_Node000010"><a xlink:href="enumcom_1_1runehive_1_1game_1_1world_1_1entity_1_1mob_1_1player_1_1_player_right.html#a04c58a85af0ce2b76937e98f289cdf71" target="_top" xlink:title=" ">
<ellipse fill="white" stroke="#666666" cx="1435.59" cy="-705.81" rx="175.72" ry="25.81"/>
<text xml:space="preserve" text-anchor="start" x="1319.34" y="-708.66" font-family="Helvetica,sans-Serif" font-size="12.00">com.runehive.game.world.entity.mob.player.</text>
<text xml:space="preserve" text-anchor="middle" x="1435.59" y="-694.41" font-family="Helvetica,sans-Serif" font-size="12.00">PlayerRight.getBloodMoney</text>
</a>
</g>
</g>
<!-- Node2&#45;&gt;Node10 -->
<g id="edge11_Node000002_Node000010" class="edge">
<title>Node2&#45;&gt;Node10</title>
<g id="a_edge11_Node000002_Node000010"><a xlink:title=" ">
<path fill="none" stroke="#63b8ff" d="M1801.84,-458.69C1763.91,-491.83 1706.48,-545.81 1666.4,-600.81 1645.8,-629.08 1658.52,-649.99 1630.4,-670.81 1617.62,-680.27 1603.09,-687.45 1587.87,-692.86"/>
<polygon fill="#63b8ff" stroke="#63b8ff" points="1803.69,-461.72 1808.95,-452.53 1799.1,-456.43 1803.69,-461.72"/>
</a>
</g>
</g>
<!-- Node14 -->
<g id="Node000014" class="node">
<title>Node14</title>
<g id="a_Node000014"><a xlink:href="enumcom_1_1runehive_1_1game_1_1world_1_1entity_1_1mob_1_1player_1_1_player_right.html#ae052de6b694ad972ed339b8f4a1f7f12" target="_top" xlink:title="Gets the deposit amount.">
<ellipse fill="white" stroke="#666666" cx="1435.59" cy="-635.81" rx="175.72" ry="25.81"/>
<text xml:space="preserve" text-anchor="start" x="1319.34" y="-638.66" font-family="Helvetica,sans-Serif" font-size="12.00">com.runehive.game.world.entity.mob.player.</text>
<text xml:space="preserve" text-anchor="middle" x="1435.59" y="-624.41" font-family="Helvetica,sans-Serif" font-size="12.00">PlayerRight.getDepositAmount</text>
</a>
</g>
</g>
<!-- Node2&#45;&gt;Node14 -->
<g id="edge15_Node000002_Node000014" class="edge">
<title>Node2&#45;&gt;Node14</title>
<g id="a_edge15_Node000002_Node000014"><a xlink:title=" ">
<path fill="none" stroke="#63b8ff" d="M1810.82,-459.96C1772.87,-500.41 1703.85,-566.6 1630.4,-600.81 1613.12,-608.86 1594.18,-615.06 1575.11,-619.84"/>
<polygon fill="#63b8ff" stroke="#63b8ff" points="1813.18,-462.57 1817.41,-452.85 1808.04,-457.81 1813.18,-462.57"/>
</a>
</g>
</g>
<!-- Node16 -->
<g id="Node000016" class="node">
<title>Node16</title>
<g id="a_Node000016"><a xlink:href="enumcom_1_1runehive_1_1game_1_1world_1_1entity_1_1mob_1_1player_1_1_player_right.html#a8c7b4a7177cd02bb46f42df00e9a6f94" target="_top" xlink:title=" ">
<ellipse fill="white" stroke="#666666" cx="1435.59" cy="-775.81" rx="175.72" ry="25.81"/>
<text xml:space="preserve" text-anchor="start" x="1319.34" y="-778.66" font-family="Helvetica,sans-Serif" font-size="12.00">com.runehive.game.world.entity.mob.player.</text>
<text xml:space="preserve" text-anchor="middle" x="1435.59" y="-764.41" font-family="Helvetica,sans-Serif" font-size="12.00">PlayerRight.getDropRateBonus</text>
</a>
</g>
</g>
<!-- Node2&#45;&gt;Node16 -->
<g id="edge17_Node000002_Node000016" class="edge">
<title>Node2&#45;&gt;Node16</title>
<g id="a_edge17_Node000002_Node000016"><a xlink:title=" ">
<path fill="none" stroke="#63b8ff" d="M1797.04,-458.51C1757.09,-490.46 1699.54,-542.68 1666.4,-600.81 1634.58,-656.62 1677.46,-697.07 1630.4,-740.81 1619.63,-750.82 1607.01,-758.45 1593.47,-764.23"/>
<polygon fill="#63b8ff" stroke="#63b8ff" points="1799.16,-461.29 1804.85,-452.35 1794.83,-455.8 1799.16,-461.29"/>
</a>
</g>
</g>
<!-- Node17 -->
<g id="Node000017" class="node">
<title>Node17</title>
<g id="a_Node000017"><a xlink:href="enumcom_1_1runehive_1_1game_1_1world_1_1entity_1_1mob_1_1player_1_1_player_right.html#a9ff2f7dc24793deb6d30948697cac934" target="_top" xlink:title=" ">
<ellipse fill="white" stroke="#666666" cx="1435.59" cy="-565.81" rx="175.72" ry="25.81"/>
<text xml:space="preserve" text-anchor="start" x="1319.34" y="-568.66" font-family="Helvetica,sans-Serif" font-size="12.00">com.runehive.game.world.entity.mob.player.</text>
<text xml:space="preserve" text-anchor="middle" x="1435.59" y="-554.41" font-family="Helvetica,sans-Serif" font-size="12.00">PlayerRight.getPresetAmount</text>
</a>
</g>
</g>
<!-- Node2&#45;&gt;Node17 -->
<g id="edge19_Node000002_Node000017" class="edge">
<title>Node2&#45;&gt;Node17</title>
<g id="a_edge19_Node000002_Node000017"><a xlink:title=" ">
<path fill="none" stroke="#63b8ff" d="M1789.18,-456.91C1747.58,-480.52 1687.02,-512.02 1630.4,-530.81 1609.55,-537.73 1586.96,-543.38 1564.81,-547.96"/>
<polygon fill="#63b8ff" stroke="#63b8ff" points="1790.82,-460.01 1797.75,-452 1787.34,-453.93 1790.82,-460.01"/>
</a>
</g>
</g>
<!-- Node24 -->
<g id="Node000024" class="node">
<title>Node24</title>
<g id="a_Node000024"><a xlink:href="classcom_1_1runehive_1_1net_1_1packet_1_1in_1_1_appearance_change_packet_listener.html#ac14439e44ebf9b0d702d993f64c6b16b" target="_top" xlink:title=" ">
<ellipse fill="white" stroke="#666666" cx="1435.59" cy="-145.81" rx="170.41" ry="25.81"/>
<text xml:space="preserve" text-anchor="start" x="1323.09" y="-148.66" font-family="Helvetica,sans-Serif" font-size="12.00">com.runehive.net.packet.in.</text>
<text xml:space="preserve" text-anchor="middle" x="1435.59" y="-134.41" font-family="Helvetica,sans-Serif" font-size="12.00">AppearanceChangePacketListener.isValid</text>
</a>
</g>
</g>
<!-- Node2&#45;&gt;Node24 -->
<g id="edge30_Node000002_Node000024" class="edge">
<title>Node2&#45;&gt;Node24</title>
<g id="a_edge30_Node000002_Node000024"><a xlink:title=" ">
<path fill="none" stroke="#63b8ff" d="M1821.33,-390.01C1789.05,-335.3 1719.61,-231.84 1630.4,-180.81 1614.67,-171.81 1597.15,-165.04 1579.25,-159.96"/>
<polygon fill="#63b8ff" stroke="#63b8ff" points="1818.29,-391.76 1826.34,-398.65 1824.35,-388.24 1818.29,-391.76"/>
</a>
</g>
</g>
<!-- Node25 -->
<g id="Node000025" class="node">
<title>Node25</title>
<g id="a_Node000025"><a xlink:href="classcom_1_1runehive_1_1content_1_1dailyeffect_1_1impl_1_1_daily_slayer_task_teleport.html#aaf88b9513b5b40249a0c06061f17c6c4" target="_top" xlink:title=" ">
<ellipse fill="white" stroke="#666666" cx="1435.59" cy="-495.81" rx="152.38" ry="25.81"/>
<text xml:space="preserve" text-anchor="start" x="1335.84" y="-498.66" font-family="Helvetica,sans-Serif" font-size="12.00">com.runehive.content.dailyeffect.impl.</text>
<text xml:space="preserve" text-anchor="middle" x="1435.59" y="-484.41" font-family="Helvetica,sans-Serif" font-size="12.00">DailySlayerTaskTeleport.maxUses</text>
</a>
</g>
</g>
<!-- Node2&#45;&gt;Node25 -->
<g id="edge31_Node000002_Node000025" class="edge">
<title>Node2&#45;&gt;Node25</title>
<g id="a_edge31_Node000002_Node000025"><a xlink:title=" ">
<path fill="none" stroke="#63b8ff" d="M1715.32,-447.58C1660.35,-457.09 1596.55,-468.13 1543.87,-477.25"/>
<polygon fill="#63b8ff" stroke="#63b8ff" points="1715.8,-451.05 1725.06,-445.89 1714.61,-444.15 1715.8,-451.05"/>
</a>
</g>
</g>
<!-- Node26 -->
<g id="Node000026" class="node">
<title>Node26</title>
<g id="a_Node000026"><a xlink:href="classcom_1_1runehive_1_1game_1_1world_1_1entity_1_1mob_1_1player_1_1_player.html#a2e1535a9a3a8e0b7dc8e12195700e9cd" target="_top" xlink:title=" ">
<ellipse fill="white" stroke="#666666" cx="1435.59" cy="-355.81" rx="175.72" ry="25.81"/>
<text xml:space="preserve" text-anchor="start" x="1319.34" y="-358.66" font-family="Helvetica,sans-Serif" font-size="12.00">com.runehive.game.world.entity.mob.player.</text>
<text xml:space="preserve" text-anchor="middle" x="1435.59" y="-344.41" font-family="Helvetica,sans-Serif" font-size="12.00">Player.onStep</text>
</a>
</g>
</g>
<!-- Node2&#45;&gt;Node26 -->
<g id="edge32_Node000002_Node000026" class="edge">
<title>Node2&#45;&gt;Node26</title>
<g id="a_edge32_Node000002_Node000026"><a xlink:title=" ">
<path fill="none" stroke="#63b8ff" d="M1715.48,-404.07C1662.99,-394.99 1602.42,-384.5 1551.16,-375.64"/>
<polygon fill="#63b8ff" stroke="#63b8ff" points="1714.61,-407.47 1725.06,-405.73 1715.8,-400.57 1714.61,-407.47"/>
</a>
</g>
</g>
<!-- Node30 -->
<g id="Node000030" class="node">
<title>Node30</title>
<g id="a_Node000030"><a xlink:href="classcom_1_1runehive_1_1game_1_1world_1_1items_1_1containers_1_1bank_1_1_donator_deposit.html#abbb8da1537375d6e56d81d816844ccdf" target="_top" xlink:title="Handles opening the donator deposit box.">
<ellipse fill="white" stroke="#666666" cx="1435.59" cy="-285.81" rx="194.81" ry="25.81"/>
<text xml:space="preserve" text-anchor="start" x="1305.84" y="-288.66" font-family="Helvetica,sans-Serif" font-size="12.00">com.runehive.game.world.items.containers.bank.</text>
<text xml:space="preserve" text-anchor="middle" x="1435.59" y="-274.41" font-family="Helvetica,sans-Serif" font-size="12.00">DonatorDeposit.open</text>
</a>
</g>
</g>
<!-- Node2&#45;&gt;Node30 -->
<g id="edge36_Node000002_Node000030" class="edge">
<title>Node2&#45;&gt;Node30</title>
<g id="a_edge36_Node000002_Node000030"><a xlink:title=" ">
<path fill="none" stroke="#63b8ff" d="M1789.18,-394.71C1747.58,-371.1 1687.02,-339.6 1630.4,-320.81 1611.26,-314.45 1590.64,-309.17 1570.25,-304.8"/>
<polygon fill="#63b8ff" stroke="#63b8ff" points="1787.34,-397.69 1797.75,-399.62 1790.82,-391.61 1787.34,-397.69"/>
</a>
</g>
</g>
<!-- Node2&#45;&gt;Node31 -->
<g id="edge37_Node000002_Node000031" class="edge">
<title>Node2&#45;&gt;Node31</title>
<g id="a_edge37_Node000002_Node000031"><a xlink:title=" ">
<path fill="none" stroke="#63b8ff" d="M1812.77,-390.85C1776.4,-345.11 1712.51,-261.73 1666.4,-184.81 1647.6,-153.44 1660.1,-132.15 1630.4,-110.81 1609.26,-95.61 1583.37,-87.28 1557.49,-83.07"/>
<polygon fill="#63b8ff" stroke="#63b8ff" points="1809.96,-392.94 1818.93,-398.57 1815.43,-388.57 1809.96,-392.94"/>
</a>
</g>
</g>
<!-- Node6 -->
<g id="Node000006" class="node">
<title>Node6</title>
<g id="a_Node000006"><a xlink:href="classcom_1_1runehive_1_1game_1_1world_1_1entity_1_1mob_1_1npc_1_1drop_1_1_npc_drop_table.html#a8e87549907a046e8efb4dea40df31421" target="_top" xlink:title=" ">
<ellipse fill="white" stroke="#666666" cx="1009.98" cy="-883.81" rx="185.79" ry="25.81"/>
<text xml:space="preserve" text-anchor="start" x="886.6" y="-886.66" font-family="Helvetica,sans-Serif" font-size="12.00">com.runehive.game.world.entity.mob.npc.drop.</text>
<text xml:space="preserve" text-anchor="middle" x="1009.98" y="-872.41" font-family="Helvetica,sans-Serif" font-size="12.00">NpcDropTable.generate</text>
</a>
</g>
</g>
<!-- Node5&#45;&gt;Node6 -->
<g id="edge5_Node000005_Node000006" class="edge">
<title>Node5&#45;&gt;Node6</title>
<g id="a_edge5_Node000005_Node000006"><a xlink:title=" ">
<path fill="none" stroke="#63b8ff" d="M1273.15,-860.29C1238.45,-863.4 1201.83,-866.69 1167.33,-869.78"/>
<polygon fill="#63b8ff" stroke="#63b8ff" points="1273.19,-863.8 1282.84,-859.42 1272.57,-856.83 1273.19,-863.8"/>
</a>
</g>
</g>
<!-- Node7 -->
<g id="Node000007" class="node">
<title>Node7</title>
<g id="a_Node000007"><a xlink:href="classcom_1_1runehive_1_1game_1_1world_1_1entity_1_1mob_1_1npc_1_1drop_1_1_npc_drop_manager.html#a53f2b061352aedc7629babc7f42a6595" target="_top" xlink:title="Attempts to drop the drop table which belongs to npc#id.">
<ellipse fill="white" stroke="#666666" cx="593.38" cy="-883.81" rx="185.79" ry="25.81"/>
<text xml:space="preserve" text-anchor="start" x="470" y="-886.66" font-family="Helvetica,sans-Serif" font-size="12.00">com.runehive.game.world.entity.mob.npc.drop.</text>
<text xml:space="preserve" text-anchor="middle" x="593.38" y="-872.41" font-family="Helvetica,sans-Serif" font-size="12.00">NpcDropManager.drop</text>
</a>
</g>
</g>
<!-- Node6&#45;&gt;Node7 -->
<g id="edge6_Node000006_Node000007" class="edge">
<title>Node6&#45;&gt;Node7</title>
<g id="a_edge6_Node000006_Node000007"><a xlink:title=" ">
<path fill="none" stroke="#63b8ff" d="M812.43,-883.81C801.5,-883.81 790.53,-883.81 779.64,-883.81"/>
<polygon fill="#63b8ff" stroke="#63b8ff" points="812.29,-887.31 822.29,-883.81 812.29,-880.31 812.29,-887.31"/>
</a>
</g>
</g>
<!-- Node7&#45;&gt;Node7 -->
<g id="edge7_Node000007_Node000007" class="edge">
<title>Node7&#45;&gt;Node7</title>
<g id="a_edge7_Node000007_Node000007"><a xlink:title=" ">
<path fill="none" stroke="#63b8ff" d="M664.21,-918.09C654.15,-923.73 630.54,-927.62 593.38,-927.62 536.06,-927.62 510.98,-918.38 518.15,-907.69"/>
<polygon fill="#63b8ff" stroke="#63b8ff" points="667.34,-919.66 668.02,-909.09 660.9,-916.93 667.34,-919.66"/>
</a>
</g>
</g>
<!-- Node8 -->
<g id="Node000008" class="node">
<title>Node8</title>
<g id="a_Node000008"><a xlink:href="classcom_1_1runehive_1_1game_1_1world_1_1entity_1_1mob_1_1npc_1_1_npc_death.html#afce283afd4f9c9ebadcddee739eb19bb" target="_top" xlink:title="The last part of the death process where the character is reset.">
<ellipse fill="white" stroke="#666666" cx="185.79" cy="-926.81" rx="166.7" ry="25.81"/>
<text xml:space="preserve" text-anchor="start" x="75.92" y="-929.66" font-family="Helvetica,sans-Serif" font-size="12.00">com.runehive.game.world.entity.mob.npc.</text>
<text xml:space="preserve" text-anchor="middle" x="185.79" y="-915.41" font-family="Helvetica,sans-Serif" font-size="12.00">NpcDeath.postDeath</text>
</a>
</g>
</g>
<!-- Node7&#45;&gt;Node8 -->
<g id="edge8_Node000007_Node000008" class="edge">
<title>Node7&#45;&gt;Node8</title>
<g id="a_edge8_Node000007_Node000008"><a xlink:title=" ">
<path fill="none" stroke="#63b8ff" d="M433.18,-900.69C397.36,-904.49 359.63,-908.48 324.77,-912.18"/>
<polygon fill="#63b8ff" stroke="#63b8ff" points="433.15,-904.21 442.72,-899.68 432.41,-897.25 433.15,-904.21"/>
</a>
</g>
</g>
<!-- Node9 -->
<g id="Node000009" class="node">
<title>Node9</title>
<g id="a_Node000009"><a xlink:href="classcom_1_1runehive_1_1game_1_1world_1_1entity_1_1mob_1_1npc_1_1drop_1_1_npc_drop_manager.html#a02c35eab6c1903dfff91ff99758a230d" target="_top" xlink:title=" ">
<ellipse fill="white" stroke="#666666" cx="185.79" cy="-856.81" rx="185.79" ry="25.81"/>
<text xml:space="preserve" text-anchor="start" x="62.42" y="-859.66" font-family="Helvetica,sans-Serif" font-size="12.00">com.runehive.game.world.entity.mob.npc.drop.</text>
<text xml:space="preserve" text-anchor="middle" x="185.79" y="-845.41" font-family="Helvetica,sans-Serif" font-size="12.00">NpcDropManager.rollDrop</text>
</a>
</g>
</g>
<!-- Node7&#45;&gt;Node9 -->
<g id="edge9_Node000007_Node000009" class="edge">
<title>Node7&#45;&gt;Node9</title>
<g id="a_edge9_Node000007_Node000009"><a xlink:title=" ">
<path fill="none" stroke="#63b8ff" d="M435.35,-866.76C413.28,-865.14 390.45,-863.58 367.98,-862.16"/>
<polygon fill="#63b8ff" stroke="#63b8ff" points="435.07,-870.25 445.3,-867.5 435.59,-863.27 435.07,-870.25"/>
</a>
</g>
</g>
<!-- Node9&#45;&gt;Node7 -->
<g id="edge10_Node000009_Node000007" class="edge">
<title>Node9&#45;&gt;Node7</title>
<g id="a_edge10_Node000009_Node000007"><a xlink:title=" ">
<path fill="none" stroke="#63b8ff" d="M343.87,-873.86C365.94,-875.48 388.76,-877.04 411.23,-878.47"/>
<polygon fill="#63b8ff" stroke="#63b8ff" points="344.15,-870.37 333.92,-873.12 343.63,-877.35 344.15,-870.37"/>
</a>
</g>
</g>
<!-- Node11 -->
<g id="Node000011" class="node">
<title>Node11</title>
<g id="a_Node000011"><a xlink:href="classcom_1_1runehive_1_1content_1_1activity_1_1impl_1_1pestcontrol_1_1_pest_control_game_1_1_pest_control_node.html#a65790998b273d90e57dfd0d9d6d2cb2d" target="_top" xlink:title="Finishes the activity.">
<ellipse fill="white" stroke="#666666" cx="1009.98" cy="-705.81" rx="183.14" ry="25.81"/>
<text xml:space="preserve" text-anchor="start" x="888.48" y="-708.66" font-family="Helvetica,sans-Serif" font-size="12.00">com.runehive.content.activity.impl.pestcontrol.</text>
<text xml:space="preserve" text-anchor="middle" x="1009.98" y="-694.41" font-family="Helvetica,sans-Serif" font-size="12.00">PestControlGame.PestControlNode.finish</text>
</a>
</g>
</g>
<!-- Node10&#45;&gt;Node11 -->
<g id="edge12_Node000010_Node000011" class="edge">
<title>Node10&#45;&gt;Node11</title>
<g id="a_edge12_Node000010_Node000011"><a xlink:title=" ">
<path fill="none" stroke="#63b8ff" d="M1248.22,-705.81C1229.99,-705.81 1211.49,-705.81 1193.3,-705.81"/>
<polygon fill="#63b8ff" stroke="#63b8ff" points="1248.03,-709.31 1258.03,-705.81 1248.03,-702.31 1248.03,-709.31"/>
</a>
</g>
</g>
<!-- Node12 -->
<g id="Node000012" class="node">
<title>Node12</title>
<g id="a_Node000012"><a xlink:href="classcom_1_1runehive_1_1game_1_1world_1_1entity_1_1mob_1_1player_1_1_player_killing.html#ac473f926208962e90ebab8948e1a1d2e" target="_top" xlink:title=" ">
<ellipse fill="white" stroke="#666666" cx="1009.98" cy="-775.81" rx="175.72" ry="25.81"/>
<text xml:space="preserve" text-anchor="start" x="893.73" y="-778.66" font-family="Helvetica,sans-Serif" font-size="12.00">com.runehive.game.world.entity.mob.player.</text>
<text xml:space="preserve" text-anchor="middle" x="1009.98" y="-764.41" font-family="Helvetica,sans-Serif" font-size="12.00">PlayerKilling.handle</text>
</a>
</g>
</g>
<!-- Node10&#45;&gt;Node12 -->
<g id="edge13_Node000010_Node000012" class="edge">
<title>Node10&#45;&gt;Node12</title>
<g id="a_edge13_Node000010_Node000012"><a xlink:title=" ">
<path fill="none" stroke="#63b8ff" d="M1306,-727.06C1249.57,-736.38 1183.77,-747.26 1128.64,-756.37"/>
<polygon fill="#63b8ff" stroke="#63b8ff" points="1306.37,-730.55 1315.66,-725.46 1305.22,-723.64 1306.37,-730.55"/>
</a>
</g>
</g>
<!-- Node13 -->
<g id="Node000013" class="node">
<title>Node13</title>
<g id="a_Node000013"><a xlink:href="classcom_1_1runehive_1_1game_1_1world_1_1entity_1_1mob_1_1player_1_1_player_death.html#ad6c4804a8da435f521db971bcb2481c5" target="_top" xlink:title="The main part of the death process where the killer is found for the character.">
<ellipse fill="white" stroke="#666666" cx="593.38" cy="-775.81" rx="175.72" ry="25.81"/>
<text xml:space="preserve" text-anchor="start" x="477.13" y="-778.66" font-family="Helvetica,sans-Serif" font-size="12.00">com.runehive.game.world.entity.mob.player.</text>
<text xml:space="preserve" text-anchor="middle" x="593.38" y="-764.41" font-family="Helvetica,sans-Serif" font-size="12.00">PlayerDeath.death</text>
</a>
</g>
</g>
<!-- Node12&#45;&gt;Node13 -->
<g id="edge14_Node000012_Node000013" class="edge">
<title>Node12&#45;&gt;Node13</title>
<g id="a_edge14_Node000012_Node000013"><a xlink:title=" ">
<path fill="none" stroke="#63b8ff" d="M822.76,-775.81C805.06,-775.81 787.15,-775.81 769.55,-775.81"/>
<polygon fill="#63b8ff" stroke="#63b8ff" points="822.54,-779.31 832.54,-775.81 822.54,-772.31 822.54,-779.31"/>
</a>
</g>
</g>
<!-- Node15 -->
<g id="Node000015" class="node">
<title>Node15</title>
<g id="a_Node000015"><a xlink:href="classcom_1_1runehive_1_1game_1_1world_1_1items_1_1containers_1_1bank_1_1_donator_deposit.html#afd151826c44ce82e6faf83db80caeb83" target="_top" xlink:title="Handles deposting items into the container.">
<ellipse fill="white" stroke="#666666" cx="1009.98" cy="-635.81" rx="194.81" ry="25.81"/>
<text xml:space="preserve" text-anchor="start" x="880.23" y="-638.66" font-family="Helvetica,sans-Serif" font-size="12.00">com.runehive.game.world.items.containers.bank.</text>
<text xml:space="preserve" text-anchor="middle" x="1009.98" y="-624.41" font-family="Helvetica,sans-Serif" font-size="12.00">DonatorDeposit.deposit</text>
</a>
</g>
</g>
<!-- Node14&#45;&gt;Node15 -->
<g id="edge16_Node000014_Node000015" class="edge">
<title>Node14&#45;&gt;Node15</title>
<g id="a_edge16_Node000014_Node000015"><a xlink:title=" ">
<path fill="none" stroke="#63b8ff" d="M1248.11,-635.81C1233.81,-635.81 1219.35,-635.81 1205.01,-635.81"/>
<polygon fill="#63b8ff" stroke="#63b8ff" points="1248.03,-639.31 1258.03,-635.81 1248.03,-632.31 1248.03,-639.31"/>
</a>
</g>
</g>
<!-- Node16&#45;&gt;Node9 -->
<g id="edge18_Node000016_Node000009" class="edge">
<title>Node16&#45;&gt;Node9</title>
<g id="a_edge18_Node000016_Node000009"><a xlink:title=" ">
<path fill="none" stroke="#63b8ff" d="M1309.01,-797.4C1275.25,-802.52 1238.7,-807.47 1204.79,-810.81 1123.93,-818.77 635,-838.99 365.23,-849.78"/>
<polygon fill="#63b8ff" stroke="#63b8ff" points="1309.49,-800.86 1318.84,-795.88 1308.43,-793.94 1309.49,-800.86"/>
</a>
</g>
</g>
<!-- Node18 -->
<g id="Node000018" class="node">
<title>Node18</title>
<g id="a_Node000018"><a xlink:href="classcom_1_1runehive_1_1content_1_1preset_1_1_preset_manager.html#ae646d5f1a177858bd222a86fa400cfcf" target="_top" xlink:title="Gets the taken preset amount.">
<ellipse fill="white" stroke="#666666" cx="1009.98" cy="-565.81" rx="119.5" ry="25.81"/>
<text xml:space="preserve" text-anchor="start" x="933.48" y="-568.66" font-family="Helvetica,sans-Serif" font-size="12.00">com.runehive.content.preset.</text>
<text xml:space="preserve" text-anchor="middle" x="1009.98" y="-554.41" font-family="Helvetica,sans-Serif" font-size="12.00">PresetManager.getTaken</text>
</a>
</g>
</g>
<!-- Node17&#45;&gt;Node18 -->
<g id="edge20_Node000017_Node000018" class="edge">
<title>Node17&#45;&gt;Node18</title>
<g id="a_edge20_Node000017_Node000018"><a xlink:title=" ">
<path fill="none" stroke="#63b8ff" d="M1248.25,-565.81C1208.1,-565.81 1166.71,-565.81 1129.96,-565.81"/>
<polygon fill="#63b8ff" stroke="#63b8ff" points="1248.03,-569.31 1258.03,-565.81 1248.03,-562.31 1248.03,-569.31"/>
</a>
</g>
</g>
<!-- Node19 -->
<g id="Node000019" class="node">
<title>Node19</title>
<g id="a_Node000019"><a xlink:href="classcom_1_1runehive_1_1content_1_1preset_1_1_preset_manager.html#a050ec060b59e650bdb629f8171b7800c" target="_top" xlink:title="Refreshes all the components on the interface.">
<ellipse fill="white" stroke="#666666" cx="593.38" cy="-565.81" rx="119.5" ry="25.81"/>
<text xml:space="preserve" text-anchor="start" x="516.88" y="-568.66" font-family="Helvetica,sans-Serif" font-size="12.00">com.runehive.content.preset.</text>
<text xml:space="preserve" text-anchor="middle" x="593.38" y="-554.41" font-family="Helvetica,sans-Serif" font-size="12.00">PresetManager.refresh</text>
</a>
</g>
</g>
<!-- Node17&#45;&gt;Node19 -->
<g id="edge29_Node000017_Node000019" class="edge">
<title>Node17&#45;&gt;Node19</title>
<g id="a_edge29_Node000017_Node000019"><a xlink:title=" ">
<path fill="none" stroke="#63b8ff" d="M1312.77,-543.75C1278.01,-538.41 1240.01,-533.48 1204.79,-530.81 1032.12,-517.74 987.8,-517.21 815.17,-530.81 771.55,-534.25 723.52,-541.44 683.43,-548.42"/>
<polygon fill="#63b8ff" stroke="#63b8ff" points="1312.02,-547.18 1322.44,-545.26 1313.1,-540.26 1312.02,-547.18"/>
</a>
</g>
</g>
<!-- Node22 -->
<g id="Node000022" class="node">
<title>Node22</title>
<g id="a_Node000022"><a xlink:href="classcom_1_1runehive_1_1content_1_1preset_1_1_preset_manager.html#a54851ab5597e0565496a2ccb086ed4e7" target="_top" xlink:title="Opens the preset to a specific slot.">
<ellipse fill="white" stroke="#666666" cx="185.79" cy="-449.81" rx="119.5" ry="25.81"/>
<text xml:space="preserve" text-anchor="start" x="109.29" y="-452.66" font-family="Helvetica,sans-Serif" font-size="12.00">com.runehive.content.preset.</text>
<text xml:space="preserve" text-anchor="middle" x="185.79" y="-438.41" font-family="Helvetica,sans-Serif" font-size="12.00">PresetManager.open</text>
</a>
</g>
</g>
<!-- Node17&#45;&gt;Node22 -->
<g id="edge28_Node000017_Node000022" class="edge">
<title>Node17&#45;&gt;Node22</title>
<g id="a_edge28_Node000017_Node000022"><a xlink:title=" ">
<path fill="none" stroke="#63b8ff" d="M1300.16,-545C1280.12,-540.9 1259.81,-536.17 1240.79,-530.81 1224.26,-526.15 1221.54,-520.53 1204.79,-516.81 884.9,-445.84 495.72,-442.46 304.45,-446.04"/>
<polygon fill="#63b8ff" stroke="#63b8ff" points="1299.29,-548.39 1309.78,-546.92 1300.66,-541.53 1299.29,-548.39"/>
</a>
</g>
</g>
<!-- Node18&#45;&gt;Node19 -->
<g id="edge21_Node000018_Node000019" class="edge">
<title>Node18&#45;&gt;Node19</title>
<g id="a_edge21_Node000018_Node000019"><a xlink:title=" ">
<path fill="none" stroke="#63b8ff" d="M878.98,-565.81C825.94,-565.81 765.03,-565.81 713.2,-565.81"/>
<polygon fill="#63b8ff" stroke="#63b8ff" points="878.66,-569.31 888.66,-565.81 878.66,-562.31 878.66,-569.31"/>
</a>
</g>
</g>
<!-- Node20 -->
<g id="Node000020" class="node">
<title>Node20</title>
<g id="a_Node000020"><a xlink:href="classcom_1_1runehive_1_1content_1_1preset_1_1_preset_manager.html#a14e91ee95d005942a3705ffbd3191861" target="_top" xlink:title="Handles deleting the preset.">
<ellipse fill="white" stroke="#666666" cx="185.79" cy="-677.81" rx="119.5" ry="25.81"/>
<text xml:space="preserve" text-anchor="start" x="109.29" y="-680.66" font-family="Helvetica,sans-Serif" font-size="12.00">com.runehive.content.preset.</text>
<text xml:space="preserve" text-anchor="middle" x="185.79" y="-666.41" font-family="Helvetica,sans-Serif" font-size="12.00">PresetManager.delete</text>
</a>
</g>
</g>
<!-- Node19&#45;&gt;Node20 -->
<g id="edge22_Node000019_Node000020" class="edge">
<title>Node19&#45;&gt;Node20</title>
<g id="a_edge22_Node000019_Node000020"><a xlink:title=" ">
<path fill="none" stroke="#63b8ff" d="M523.87,-592.65C480.69,-608.84 423.46,-628.93 371.58,-642.81 343.04,-650.45 311.58,-657.06 282.84,-662.41"/>
<polygon fill="#63b8ff" stroke="#63b8ff" points="525,-595.97 533.12,-589.16 522.53,-589.42 525,-595.97"/>
</a>
</g>
</g>
<!-- Node21 -->
<g id="Node000021" class="node">
<title>Node21</title>
<g id="a_Node000021"><a xlink:href="classcom_1_1runehive_1_1content_1_1preset_1_1_preset_manager.html#a7a3edb3eee46d2bb84f42971b4033123" target="_top" xlink:title="Handles naming the preset.">
<ellipse fill="white" stroke="#666666" cx="185.79" cy="-589.81" rx="119.5" ry="25.81"/>
<text xml:space="preserve" text-anchor="start" x="109.29" y="-592.66" font-family="Helvetica,sans-Serif" font-size="12.00">com.runehive.content.preset.</text>
<text xml:space="preserve" text-anchor="middle" x="185.79" y="-578.41" font-family="Helvetica,sans-Serif" font-size="12.00">PresetManager.name</text>
</a>
</g>
</g>
<!-- Node19&#45;&gt;Node21 -->
<g id="edge23_Node000019_Node000021" class="edge">
<title>Node19&#45;&gt;Node21</title>
<g id="a_edge23_Node000019_Node000021"><a xlink:title=" ">
<path fill="none" stroke="#63b8ff" d="M462.43,-567.15C407.28,-569.78 343.84,-573.65 291.74,-577.6"/>
<polygon fill="#63b8ff" stroke="#63b8ff" points="462.36,-570.66 472.19,-566.7 462.04,-563.67 462.36,-570.66"/>
</a>
</g>
</g>
<!-- Node19&#45;&gt;Node22 -->
<g id="edge26_Node000019_Node000022" class="edge">
<title>Node19&#45;&gt;Node22</title>
<g id="a_edge26_Node000019_Node000022"><a xlink:title=" ">
<path fill="none" stroke="#63b8ff" d="M526.97,-538.59C483.51,-521.31 424.85,-499.52 371.58,-484.81 343.26,-476.99 312.01,-470.34 283.39,-465.01"/>
<polygon fill="#63b8ff" stroke="#63b8ff" points="525.41,-541.74 535.99,-542.2 528.01,-535.24 525.41,-541.74"/>
</a>
</g>
</g>
<!-- Node23 -->
<g id="Node000023" class="node">
<title>Node23</title>
<g id="a_Node000023"><a xlink:href="classcom_1_1runehive_1_1content_1_1preset_1_1_preset_manager.html#a591d0b3d9cf806f1746fdd0c2e51761d" target="_top" xlink:title="Handles uploading the preset content.">
<ellipse fill="white" stroke="#666666" cx="185.79" cy="-519.81" rx="119.5" ry="25.81"/>
<text xml:space="preserve" text-anchor="start" x="109.29" y="-522.66" font-family="Helvetica,sans-Serif" font-size="12.00">com.runehive.content.preset.</text>
<text xml:space="preserve" text-anchor="middle" x="185.79" y="-508.41" font-family="Helvetica,sans-Serif" font-size="12.00">PresetManager.upload</text>
</a>
</g>
</g>
<!-- Node19&#45;&gt;Node23 -->
<g id="edge27_Node000019_Node000023" class="edge">
<title>Node19&#45;&gt;Node23</title>
<g id="a_edge27_Node000019_Node000023"><a xlink:title=" ">
<path fill="none" stroke="#63b8ff" d="M475.22,-552.52C417.49,-545.97 348.42,-538.14 292.34,-531.78"/>
<polygon fill="#63b8ff" stroke="#63b8ff" points="474.77,-555.99 485.1,-553.64 475.56,-549.04 474.77,-555.99"/>
</a>
</g>
</g>
<!-- Node21&#45;&gt;Node19 -->
<g id="edge25_Node000021_Node000019" class="edge">
<title>Node21&#45;&gt;Node19</title>
<g id="a_edge25_Node000021_Node000019"><a xlink:title=" ">
<path fill="none" stroke="#63b8ff" d="M316.76,-588.47C371.8,-585.84 435.1,-581.98 487.14,-578.04"/>
<polygon fill="#63b8ff" stroke="#63b8ff" points="316.85,-584.96 307.02,-588.92 317.17,-591.95 316.85,-584.96"/>
</a>
</g>
</g>
<!-- Node21&#45;&gt;Node21 -->
<g id="edge24_Node000021_Node000021" class="edge">
<title>Node21&#45;&gt;Node21</title>
<g id="a_edge24_Node000021_Node000021"><a xlink:title=" ">
<path fill="none" stroke="#63b8ff" d="M259.59,-622.05C251.89,-628.77 227.29,-633.62 185.79,-633.62 123.3,-633.62 99.13,-622.63 113.29,-610.77"/>
<polygon fill="#63b8ff" stroke="#63b8ff" points="263.08,-621.81 258.46,-612.27 256.13,-622.61 263.08,-621.81"/>
</a>
</g>
</g>
<!-- Node27 -->
<g id="Node000027" class="node">
<title>Node27</title>
<g id="a_Node000027"><a xlink:href="classcom_1_1runehive_1_1game_1_1world_1_1entity_1_1mob_1_1player_1_1_player.html#aaf69d37529e326213e8620235b058ee6" target="_top" xlink:title=" ">
<ellipse fill="white" stroke="#666666" cx="1009.98" cy="-355.81" rx="175.72" ry="25.81"/>
<text xml:space="preserve" text-anchor="start" x="893.73" y="-358.66" font-family="Helvetica,sans-Serif" font-size="12.00">com.runehive.game.world.entity.mob.player.</text>
<text xml:space="preserve" text-anchor="middle" x="1009.98" y="-344.41" font-family="Helvetica,sans-Serif" font-size="12.00">Player.login</text>
</a>
</g>
</g>
<!-- Node26&#45;&gt;Node27 -->
<g id="edge33_Node000026_Node000027" class="edge">
<title>Node26&#45;&gt;Node27</title>
<g id="a_edge33_Node000026_Node000027"><a xlink:title=" ">
<path fill="none" stroke="#63b8ff" d="M1248.13,-355.81C1227.51,-355.81 1206.57,-355.81 1186.11,-355.81"/>
<polygon fill="#63b8ff" stroke="#63b8ff" points="1248.03,-359.31 1258.03,-355.81 1248.03,-352.31 1248.03,-359.31"/>
</a>
</g>
</g>
<!-- Node28 -->
<g id="Node000028" class="node">
<title>Node28</title>
<g id="a_Node000028"><a xlink:href="classcom_1_1runehive_1_1game_1_1world_1_1entity_1_1mob_1_1player_1_1_player.html#ac6294d9db17158e581dbd82c5ea345d1" target="_top" xlink:title="Registers an entity to the World.">
<ellipse fill="white" stroke="#666666" cx="593.38" cy="-355.81" rx="175.72" ry="25.81"/>
<text xml:space="preserve" text-anchor="start" x="477.13" y="-358.66" font-family="Helvetica,sans-Serif" font-size="12.00">com.runehive.game.world.entity.mob.player.</text>
<text xml:space="preserve" text-anchor="middle" x="593.38" y="-344.41" font-family="Helvetica,sans-Serif" font-size="12.00">Player.register</text>
</a>
</g>
</g>
<!-- Node27&#45;&gt;Node28 -->
<g id="edge34_Node000027_Node000028" class="edge">
<title>Node27&#45;&gt;Node28</title>
<g id="a_edge34_Node000027_Node000028"><a xlink:title=" ">
<path fill="none" stroke="#63b8ff" d="M822.76,-355.81C805.06,-355.81 787.15,-355.81 769.55,-355.81"/>
<polygon fill="#63b8ff" stroke="#63b8ff" points="822.54,-359.31 832.54,-355.81 822.54,-352.31 822.54,-359.31"/>
</a>
</g>
</g>
<!-- Node29 -->
<g id="Node000029" class="node">
<title>Node29</title>
<g id="a_Node000029"><a xlink:href="classcom_1_1runehive_1_1game_1_1world_1_1_world.html#a2068f52591c893f09a857cd98a5cebe8" target="_top" xlink:title=" ">
<ellipse fill="white" stroke="#666666" cx="185.79" cy="-355.81" rx="110.49" ry="25.81"/>
<text xml:space="preserve" text-anchor="start" x="115.67" y="-358.66" font-family="Helvetica,sans-Serif" font-size="12.00">com.runehive.game.world.</text>
<text xml:space="preserve" text-anchor="middle" x="185.79" y="-344.41" font-family="Helvetica,sans-Serif" font-size="12.00">World.dequeLogins</text>
</a>
</g>
</g>
<!-- Node28&#45;&gt;Node29 -->
<g id="edge35_Node000028_Node000029" class="edge">
<title>Node28&#45;&gt;Node29</title>
<g id="a_edge35_Node000028_Node000029"><a xlink:title=" ">
<path fill="none" stroke="#63b8ff" d="M406.33,-355.81C368.76,-355.81 330.42,-355.81 296.51,-355.81"/>
<polygon fill="#63b8ff" stroke="#63b8ff" points="405.92,-359.31 415.92,-355.81 405.92,-352.31 405.92,-359.31"/>
</a>
</g>
</g>
<!-- Node32&#45;&gt;Node4 -->
<g id="edge39_Node000032_Node000004" class="edge">
<title>Node32&#45;&gt;Node4</title>
<g id="a_edge39_Node000032_Node000004"><a xlink:title=" ">
<path fill="none" stroke="#63b8ff" d="M1810.82,-601.66C1772.87,-561.21 1703.85,-495.02 1630.4,-460.81 1611.42,-451.97 1590.42,-445.35 1569.47,-440.41"/>
<polygon fill="#63b8ff" stroke="#63b8ff" points="1808.04,-603.81 1817.41,-608.77 1813.18,-599.05 1808.04,-603.81"/>
</a>
</g>
</g>
<!-- Node32&#45;&gt;Node5 -->
<g id="edge40_Node000032_Node000005" class="edge">
<title>Node32&#45;&gt;Node5</title>
<g id="a_edge40_Node000032_Node000005"><a xlink:title=" ">
<path fill="none" stroke="#63b8ff" d="M1810.82,-669.96C1772.87,-710.41 1703.85,-776.6 1630.4,-810.81 1613.12,-818.86 1594.18,-825.06 1575.11,-829.84"/>
<polygon fill="#63b8ff" stroke="#63b8ff" points="1813.18,-672.57 1817.41,-662.85 1808.04,-667.81 1813.18,-672.57"/>
</a>
</g>
</g>
<!-- Node32&#45;&gt;Node10 -->
<g id="edge41_Node000032_Node000010" class="edge">
<title>Node32&#45;&gt;Node10</title>
<g id="a_edge41_Node000032_Node000010"><a xlink:title=" ">
<path fill="none" stroke="#63b8ff" d="M1715.48,-657.55C1662.99,-666.63 1602.42,-677.11 1551.16,-685.98"/>
<polygon fill="#63b8ff" stroke="#63b8ff" points="1715.8,-661.05 1725.06,-655.89 1714.61,-654.15 1715.8,-661.05"/>
</a>
</g>
</g>
<!-- Node32&#45;&gt;Node14 -->
<g id="edge42_Node000032_Node000014" class="edge">
<title>Node32&#45;&gt;Node14</title>
<g id="a_edge42_Node000032_Node000014"><a xlink:title=" ">
<path fill="none" stroke="#63b8ff" d="M1654.59,-635.81C1640.27,-635.81 1625.85,-635.81 1611.62,-635.81"/>
<polygon fill="#63b8ff" stroke="#63b8ff" points="1654.53,-639.31 1664.53,-635.81 1654.53,-632.31 1654.53,-639.31"/>
</a>
</g>
</g>
<!-- Node32&#45;&gt;Node16 -->
<g id="edge43_Node000032_Node000016" class="edge">
<title>Node32&#45;&gt;Node16</title>
<g id="a_edge43_Node000032_Node000016"><a xlink:title=" ">
<path fill="none" stroke="#63b8ff" d="M1789.18,-666.91C1747.58,-690.52 1687.02,-722.02 1630.4,-740.81 1609.55,-747.73 1586.96,-753.38 1564.81,-757.96"/>
<polygon fill="#63b8ff" stroke="#63b8ff" points="1790.82,-670.01 1797.75,-662 1787.34,-663.93 1790.82,-670.01"/>
</a>
</g>
</g>
<!-- Node32&#45;&gt;Node17 -->
<g id="edge44_Node000032_Node000017" class="edge">
<title>Node32&#45;&gt;Node17</title>
<g id="a_edge44_Node000032_Node000017"><a xlink:title=" ">
<path fill="none" stroke="#63b8ff" d="M1715.48,-614.07C1662.99,-604.99 1602.42,-594.5 1551.16,-585.64"/>
<polygon fill="#63b8ff" stroke="#63b8ff" points="1714.61,-617.47 1725.06,-615.73 1715.8,-610.57 1714.61,-617.47"/>
</a>
</g>
</g>
<!-- Node32&#45;&gt;Node25 -->
<g id="edge45_Node000032_Node000025" class="edge">
<title>Node32&#45;&gt;Node25</title>
<g id="a_edge45_Node000032_Node000025"><a xlink:title=" ">
<path fill="none" stroke="#63b8ff" d="M1789.18,-604.71C1747.58,-581.1 1687.02,-549.6 1630.4,-530.81 1606.87,-523 1581.13,-516.81 1556.31,-511.94"/>
<polygon fill="#63b8ff" stroke="#63b8ff" points="1787.34,-607.69 1797.75,-609.62 1790.82,-601.61 1787.34,-607.69"/>
</a>
</g>
</g>
<!-- Node33 -->
<g id="Node000033" class="node">
<title>Node33</title>
<g id="a_Node000033"><a xlink:href="classcom_1_1runehive_1_1content_1_1_obelisks.html#ae2da50ea42ecbfcdd5b440d8ab5b6b03" target="_top" xlink:title=" ">
<ellipse fill="white" stroke="#666666" cx="1435.59" cy="-905.81" rx="148.14" ry="15.73"/>
<text xml:space="preserve" text-anchor="middle" x="1435.59" y="-901.53" font-family="Helvetica,sans-Serif" font-size="12.00">com.runehive.content.Obelisks.open</text>
</a>
</g>
</g>
<!-- Node32&#45;&gt;Node33 -->
<g id="edge46_Node000032_Node000033" class="edge">
<title>Node32&#45;&gt;Node33</title>
<g id="a_edge46_Node000032_Node000033"><a xlink:title=" ">
<path fill="none" stroke="#63b8ff" d="M1822.08,-671.38C1790.4,-726.64 1721.29,-831.82 1630.4,-880.81 1613.6,-889.86 1594.83,-896.15 1575.76,-900.44"/>
<polygon fill="#63b8ff" stroke="#63b8ff" points="1824.94,-673.42 1826.81,-662.99 1818.85,-669.98 1824.94,-673.42"/>
</a>
</g>
</g>
<!-- Node35 -->
<g id="Node000035" class="node">
<title>Node35</title>
<g id="a_Node000035"><a xlink:href="classcom_1_1runehive_1_1content_1_1donators_1_1_donation.html#a008ceb86a26224e7b8bd51e42a71de64" target="_top" xlink:title=" ">
<ellipse fill="white" stroke="#666666" cx="1435.59" cy="-25.81" rx="129.05" ry="25.81"/>
<text xml:space="preserve" text-anchor="start" x="1352.34" y="-28.66" font-family="Helvetica,sans-Serif" font-size="12.00">com.runehive.content.donators.</text>
<text xml:space="preserve" text-anchor="middle" x="1435.59" y="-14.41" font-family="Helvetica,sans-Serif" font-size="12.00">Donation.redeem</text>
</a>
</g>
</g>
<!-- Node34&#45;&gt;Node35 -->
<g id="edge48_Node000034_Node000035" class="edge">
<title>Node34&#45;&gt;Node35</title>
<g id="a_edge48_Node000034_Node000035"><a xlink:title=" ">
<path fill="none" stroke="#63b8ff" d="M1752.92,-90.21C1715.31,-80.51 1670.84,-69.54 1630.4,-60.81 1599.82,-54.21 1566.34,-47.86 1535.94,-42.42"/>
<polygon fill="#63b8ff" stroke="#63b8ff" points="1751.83,-93.54 1762.39,-92.66 1753.59,-86.77 1751.83,-93.54"/>
</a>
</g>
</g>
</g>
</svg>
