<?xml version="1.0" encoding="UTF-8" standalone="no"?>
<!DOCTYPE svg PUBLIC "-//W3C//DTD SVG 1.1//EN"
 "http://www.w3.org/Graphics/SVG/1.1/DTD/svg11.dtd">
<!-- Generated by graphviz version 14.0.1 (20251006.0113)
 -->
<!-- Title: com.runehive.game.world.entity.mob.player.PlayerRight.getPresetAmount Pages: 1 -->
<!--zoomable 288 -->

<svg id="main" version="1.1" xmlns="http://www.w3.org/2000/svg" xmlns:xlink="http://www.w3.org/1999/xlink" xml:space="preserve" onload="init(evt)">

<style type="text/css"><![CDATA[
.node, .edge {opacity: 0.7;}
.node.selected, .edge.selected {opacity: 1;}
.edge:hover path { stroke: red; }
.edge:hover polygon { stroke: red; fill: red; }
]]></style>

<defs>
  <circle id="rim" cx="0" cy="0" r="7"/>
  <circle id="rim2" cx="0" cy="0" r="3.5"/>
  <g id="zoomPlus">
    <use xlink:href="#rim" fill="#404040"><set attributeName="fill" to="#808080" begin="zoomplus.mouseover" end="zoomplus.mouseout"/></use>
    <path d="M-4,0h8M0,-4v8" fill="none" stroke="white" stroke-width="1.5" pointer-events="none"/>
  </g>
  <g id="zoomMin">
    <use xlink:href="#rim" fill="#404040"><set attributeName="fill" to="#808080" begin="zoomminus.mouseover" end="zoomminus.mouseout"/></use>
    <path d="M-4,0h8" fill="none" stroke="white" stroke-width="1.5" pointer-events="none"/>
  </g>
  <g id="arrowUp" transform="translate(30 24)">
    <use xlink:href="#rim"/>
    <path pointer-events="none" fill="none" stroke="white" stroke-width="1.5" d="M0,-3.0v7 M-2.5,-0.5L0,-3.0L2.5,-0.5"/>
  </g>
  <g id="arrowRight" transform="rotate(90) translate(36 -43)">
    <use xlink:href="#rim"/>
    <path pointer-events="none" fill="none" stroke="white" stroke-width="1.5" d="M0,-3.0v7 M-2.5,-0.5L0,-3.0L2.5,-0.5"/>
  </g>
  <g id="arrowDown" transform="rotate(180) translate(-30 -48)">
    <use xlink:href="#rim"/>
    <path pointer-events="none" fill="none" stroke="white" stroke-width="1.5" d="M0,-3.0v7 M-2.5,-0.5L0,-3.0L2.5,-0.5"/>
  </g>
  <g id="arrowLeft" transform="rotate(270) translate(-36 17)">
    <use xlink:href="#rim"/>
    <path pointer-events="none" fill="none" stroke="white" stroke-width="1.5" d="M0,-3.0v7 M-2.5,-0.5L0,-3.0L2.5,-0.5"/>
  </g>
  <g id="resetDef">
    <use xlink:href="#rim2" fill="#404040"><set attributeName="fill" to="#808080" begin="reset.mouseover" end="reset.mouseout"/></use>
  </g>
</defs>
<script type="application/ecmascript">
var viewWidth = 1184;
var viewHeight = 288;
var sectionId = 'dynsection-20';
</script>
<script type="application/ecmascript" xlink:href="svg.min.js"/>
<svg id="graph" class="graph">
<g id="viewport">
<title>com.runehive.game.world.entity.mob.player.PlayerRight.getPresetAmount</title>
<!-- Node1 -->
<g id="Node000001" class="node">
<title>Node1</title>
<g id="a_Node000001"><a xlink:title=" ">
<ellipse fill="#999999" stroke="#666666" cx="1000.72" cy="-99.81" rx="175.72" ry="25.81"/>
<text xml:space="preserve" text-anchor="start" x="884.47" y="-102.66" font-family="Helvetica,sans-Serif" font-size="12.00">com.runehive.game.world.entity.mob.player.</text>
<text xml:space="preserve" text-anchor="middle" x="1000.72" y="-88.41" font-family="Helvetica,sans-Serif" font-size="12.00">PlayerRight.getPresetAmount</text>
</a>
</g>
</g>
<!-- Node2 -->
<g id="Node000002" class="node">
<title>Node2</title>
<g id="a_Node000002"><a xlink:href="classcom_1_1runehive_1_1content_1_1preset_1_1_preset_manager.html#ae646d5f1a177858bd222a86fa400cfcf" target="_top" xlink:title="Gets the taken preset amount.">
<ellipse fill="white" stroke="#666666" cx="669.51" cy="-153.81" rx="119.5" ry="25.81"/>
<text xml:space="preserve" text-anchor="start" x="593.01" y="-156.66" font-family="Helvetica,sans-Serif" font-size="12.00">com.runehive.content.preset.</text>
<text xml:space="preserve" text-anchor="middle" x="669.51" y="-142.41" font-family="Helvetica,sans-Serif" font-size="12.00">PresetManager.getTaken</text>
</a>
</g>
</g>
<!-- Node1&#45;&gt;Node2 -->
<g id="edge1_Node000001_Node000002" class="edge">
<title>Node1&#45;&gt;Node2</title>
<g id="a_edge1_Node000001_Node000002"><a xlink:title=" ">
<path fill="none" stroke="#63b8ff" d="M870.54,-121C835.6,-126.73 798.42,-132.83 765.72,-138.19"/>
<polygon fill="#63b8ff" stroke="#63b8ff" points="871,-124.47 880.3,-119.4 869.87,-117.56 871,-124.47"/>
</a>
</g>
</g>
<!-- Node3 -->
<g id="Node000003" class="node">
<title>Node3</title>
<g id="a_Node000003"><a xlink:href="classcom_1_1runehive_1_1content_1_1preset_1_1_preset_manager.html#a050ec060b59e650bdb629f8171b7800c" target="_top" xlink:title="Refreshes all the components on the interface.">
<ellipse fill="white" stroke="#666666" cx="394.5" cy="-153.81" rx="119.5" ry="25.81"/>
<text xml:space="preserve" text-anchor="start" x="318" y="-156.66" font-family="Helvetica,sans-Serif" font-size="12.00">com.runehive.content.preset.</text>
<text xml:space="preserve" text-anchor="middle" x="394.5" y="-142.41" font-family="Helvetica,sans-Serif" font-size="12.00">PresetManager.refresh</text>
</a>
</g>
</g>
<!-- Node1&#45;&gt;Node3 -->
<g id="edge10_Node000001_Node000003" class="edge">
<title>Node1&#45;&gt;Node3</title>
<g id="a_edge10_Node000001_Node000003"><a xlink:title=" ">
<path fill="none" stroke="#63b8ff" d="M813.41,-100.15C732.21,-102.24 636.1,-107.33 550,-118.81 524.24,-122.24 496.45,-127.91 471.63,-133.7"/>
<polygon fill="#63b8ff" stroke="#63b8ff" points="813.34,-103.66 823.25,-99.91 813.17,-96.66 813.34,-103.66"/>
</a>
</g>
</g>
<!-- Node6 -->
<g id="Node000006" class="node">
<title>Node6</title>
<g id="a_Node000006"><a xlink:href="classcom_1_1runehive_1_1content_1_1preset_1_1_preset_manager.html#a54851ab5597e0565496a2ccb086ed4e7" target="_top" xlink:title="Opens the preset to a specific slot.">
<ellipse fill="white" stroke="#666666" cx="119.5" cy="-25.81" rx="119.5" ry="25.81"/>
<text xml:space="preserve" text-anchor="start" x="43" y="-28.66" font-family="Helvetica,sans-Serif" font-size="12.00">com.runehive.content.preset.</text>
<text xml:space="preserve" text-anchor="middle" x="119.5" y="-14.41" font-family="Helvetica,sans-Serif" font-size="12.00">PresetManager.open</text>
</a>
</g>
</g>
<!-- Node1&#45;&gt;Node6 -->
<g id="edge9_Node000001_Node000006" class="edge">
<title>Node1&#45;&gt;Node6</title>
<g id="a_edge9_Node000001_Node000006"><a xlink:title=" ">
<path fill="none" stroke="#63b8ff" d="M835.6,-86C659.24,-71.15 383.79,-47.97 231.36,-35.14"/>
<polygon fill="#63b8ff" stroke="#63b8ff" points="835.31,-89.48 845.57,-86.83 835.9,-82.51 835.31,-89.48"/>
</a>
</g>
</g>
<!-- Node2&#45;&gt;Node3 -->
<g id="edge2_Node000002_Node000003" class="edge">
<title>Node2&#45;&gt;Node3</title>
<g id="a_edge2_Node000002_Node000003"><a xlink:title=" ">
<path fill="none" stroke="#63b8ff" d="M538.06,-153.81C530.19,-153.81 522.29,-153.81 514.47,-153.81"/>
<polygon fill="#63b8ff" stroke="#63b8ff" points="538.04,-157.31 548.04,-153.81 538.04,-150.31 538.04,-157.31"/>
</a>
</g>
</g>
<!-- Node4 -->
<g id="Node000004" class="node">
<title>Node4</title>
<g id="a_Node000004"><a xlink:href="classcom_1_1runehive_1_1content_1_1preset_1_1_preset_manager.html#a14e91ee95d005942a3705ffbd3191861" target="_top" xlink:title="Handles deleting the preset.">
<ellipse fill="white" stroke="#666666" cx="119.5" cy="-253.81" rx="119.5" ry="25.81"/>
<text xml:space="preserve" text-anchor="start" x="43" y="-256.66" font-family="Helvetica,sans-Serif" font-size="12.00">com.runehive.content.preset.</text>
<text xml:space="preserve" text-anchor="middle" x="119.5" y="-242.41" font-family="Helvetica,sans-Serif" font-size="12.00">PresetManager.delete</text>
</a>
</g>
</g>
<!-- Node3&#45;&gt;Node4 -->
<g id="edge3_Node000003_Node000004" class="edge">
<title>Node3&#45;&gt;Node4</title>
<g id="a_edge3_Node000003_Node000004"><a xlink:title=" ">
<path fill="none" stroke="#63b8ff" d="M331.11,-181.92C303.21,-194 269.75,-207.84 239,-218.81 224.76,-223.89 209.37,-228.83 194.55,-233.32"/>
<polygon fill="#63b8ff" stroke="#63b8ff" points="332.36,-185.19 340.12,-177.99 329.56,-178.78 332.36,-185.19"/>
</a>
</g>
</g>
<!-- Node5 -->
<g id="Node000005" class="node">
<title>Node5</title>
<g id="a_Node000005"><a xlink:href="classcom_1_1runehive_1_1content_1_1preset_1_1_preset_manager.html#a7a3edb3eee46d2bb84f42971b4033123" target="_top" xlink:title="Handles naming the preset.">
<ellipse fill="white" stroke="#666666" cx="119.5" cy="-165.81" rx="119.5" ry="25.81"/>
<text xml:space="preserve" text-anchor="start" x="43" y="-168.66" font-family="Helvetica,sans-Serif" font-size="12.00">com.runehive.content.preset.</text>
<text xml:space="preserve" text-anchor="middle" x="119.5" y="-154.41" font-family="Helvetica,sans-Serif" font-size="12.00">PresetManager.name</text>
</a>
</g>
</g>
<!-- Node3&#45;&gt;Node5 -->
<g id="edge4_Node000003_Node000005" class="edge">
<title>Node3&#45;&gt;Node5</title>
<g id="a_edge4_Node000003_Node000005"><a xlink:title=" ">
<path fill="none" stroke="#63b8ff" d="M263.51,-152.78C251.54,-153.28 239.51,-153.85 227.78,-154.48"/>
<polygon fill="#63b8ff" stroke="#63b8ff" points="263.59,-156.28 273.44,-152.38 263.31,-149.29 263.59,-156.28"/>
</a>
</g>
</g>
<!-- Node3&#45;&gt;Node6 -->
<g id="edge7_Node000003_Node000006" class="edge">
<title>Node3&#45;&gt;Node6</title>
<g id="a_edge7_Node000003_Node000006"><a xlink:title=" ">
<path fill="none" stroke="#63b8ff" d="M348.74,-122.68C318.75,-102.89 277.79,-77.88 239,-60.81 226.04,-55.11 211.89,-50.02 198.02,-45.61"/>
<polygon fill="#63b8ff" stroke="#63b8ff" points="346.56,-125.43 356.82,-128.07 350.44,-119.61 346.56,-125.43"/>
</a>
</g>
</g>
<!-- Node7 -->
<g id="Node000007" class="node">
<title>Node7</title>
<g id="a_Node000007"><a xlink:href="classcom_1_1runehive_1_1content_1_1preset_1_1_preset_manager.html#a591d0b3d9cf806f1746fdd0c2e51761d" target="_top" xlink:title="Handles uploading the preset content.">
<ellipse fill="white" stroke="#666666" cx="119.5" cy="-95.81" rx="119.5" ry="25.81"/>
<text xml:space="preserve" text-anchor="start" x="43" y="-98.66" font-family="Helvetica,sans-Serif" font-size="12.00">com.runehive.content.preset.</text>
<text xml:space="preserve" text-anchor="middle" x="119.5" y="-84.41" font-family="Helvetica,sans-Serif" font-size="12.00">PresetManager.upload</text>
</a>
</g>
</g>
<!-- Node3&#45;&gt;Node7 -->
<g id="edge8_Node000003_Node000007" class="edge">
<title>Node3&#45;&gt;Node7</title>
<g id="a_edge8_Node000003_Node000007"><a xlink:title=" ">
<path fill="none" stroke="#63b8ff" d="M296.66,-133.23C267.02,-126.94 234.64,-120.06 205.83,-113.94"/>
<polygon fill="#63b8ff" stroke="#63b8ff" points="295.88,-136.65 306.39,-135.3 297.34,-129.8 295.88,-136.65"/>
</a>
</g>
</g>
<!-- Node5&#45;&gt;Node3 -->
<g id="edge6_Node000005_Node000003" class="edge">
<title>Node5&#45;&gt;Node3</title>
<g id="a_edge6_Node000005_Node000003"><a xlink:title=" ">
<path fill="none" stroke="#63b8ff" d="M250.52,-166.84C262.54,-166.33 274.62,-165.76 286.39,-165.13"/>
<polygon fill="#63b8ff" stroke="#63b8ff" points="250.4,-163.34 240.55,-167.24 250.68,-170.33 250.4,-163.34"/>
</a>
</g>
</g>
<!-- Node5&#45;&gt;Node5 -->
<g id="edge5_Node000005_Node000005" class="edge">
<title>Node5&#45;&gt;Node5</title>
<g id="a_edge5_Node000005_Node000005"><a xlink:title=" ">
<path fill="none" stroke="#63b8ff" d="M167.32,-200.06C160.56,-205.72 144.62,-209.62 119.5,-209.62 80.29,-209.62 63.44,-200.12 68.96,-189.25"/>
<polygon fill="#63b8ff" stroke="#63b8ff" points="170.63,-201.27 169.68,-190.71 163.84,-199.56 170.63,-201.27"/>
</a>
</g>
</g>
</g>
</svg>

<g id="navigator" transform="translate(0 0)" fill="#404254">
  <rect fill="#f2f5e9" fill-opacity="0.5" stroke="#606060" stroke-width=".5" x="0" y="0" width="60" height="60"/>
  <use id="zoomplus" xlink:href="#zoomPlus" x="17" y="9" onmousedown="handleZoom(evt,'in')"/>
  <use id="zoomminus" xlink:href="#zoomMin" x="42" y="9" onmousedown="handleZoom(evt,'out')"/>
  <use id="reset" xlink:href="#resetDef" x="30" y="36" onmousedown="handleReset()"/>
   <use id="arrowup" xlink:href="#arrowUp" x="0" y="0" onmousedown="handlePan(0,-1)"/>
  <use id="arrowright" xlink:href="#arrowRight" x="0" y="0" onmousedown="handlePan(1,0)"/>
  <use id="arrowdown" xlink:href="#arrowDown" x="0" y="0" onmousedown="handlePan(0,1)"/>
  <use id="arrowleft" xlink:href="#arrowLeft" x="0" y="0" onmousedown="handlePan(-1,0)"/>
</g>
<svg viewBox="0 0 15 15" width="100%" height="30px" preserveAspectRatio="xMaxYMin meet">
 <g id="arrow_out" transform="scale(0.3 0.3)">
  <a xlink:href="enumcom_1_1runehive_1_1game_1_1world_1_1entity_1_1mob_1_1player_1_1_player_right_a9ff2f7dc24793deb6d30948697cac934_icgraph_org.svg" target="_base">
   <rect id="button" ry="5" rx="5" y="6" x="6" height="38" width="38"
        fill="#f2f5e9" fill-opacity="0.5" stroke="#606060" stroke-width="1.0"/>
   <path id="arrow"
     d="M 11.500037,31.436501 C 11.940474,20.09759 22.043105,11.32322 32.158766,21.979434 L 37.068811,17.246167 C 37.068811,17.246167 37.088388,32 37.088388,32 L 22.160133,31.978069 C 22.160133,31.978069 26.997745,27.140456 26.997745,27.140456 C 18.528582,18.264221 13.291696,25.230495 11.500037,31.436501 z"
     style="fill:#404040;"/>
  </a>
 </g>
</svg>

<style type='text/css'>
<![CDATA[
[data-mouse-over-selected='false'] { opacity: 0.7; }
[data-mouse-over-selected='true']  { opacity: 1.0; }
]]>
</style>
<script type="application/ecmascript"><![CDATA[
document.addEventListener('DOMContentLoaded', (event) => {
  highlightEdges();
  highlightAdjacentNodes();
});
]]></script>
</svg>
