<?xml version="1.0" encoding="UTF-8" standalone="no"?>
<!DOCTYPE svg PUBLIC "-//W3C//DTD SVG 1.1//EN"
 "http://www.w3.org/Graphics/SVG/1.1/DTD/svg11.dtd">
<!-- Generated by graphviz version 14.0.1 (20251006.0113)
 -->
<!-- Title: com.runehive.content.activity.impl.duelarena.DuelRule.DuelRule Pages: 1 -->
<!--zoomable 246 -->

<svg id="main" version="1.1" xmlns="http://www.w3.org/2000/svg" xmlns:xlink="http://www.w3.org/1999/xlink" xml:space="preserve" onload="init(evt)">

<style type="text/css"><![CDATA[
.node, .edge {opacity: 0.7;}
.node.selected, .edge.selected {opacity: 1;}
.edge:hover path { stroke: red; }
.edge:hover polygon { stroke: red; fill: red; }
]]></style>

<defs>
  <circle id="rim" cx="0" cy="0" r="7"/>
  <circle id="rim2" cx="0" cy="0" r="3.5"/>
  <g id="zoomPlus">
    <use xlink:href="#rim" fill="#404040"><set attributeName="fill" to="#808080" begin="zoomplus.mouseover" end="zoomplus.mouseout"/></use>
    <path d="M-4,0h8M0,-4v8" fill="none" stroke="white" stroke-width="1.5" pointer-events="none"/>
  </g>
  <g id="zoomMin">
    <use xlink:href="#rim" fill="#404040"><set attributeName="fill" to="#808080" begin="zoomminus.mouseover" end="zoomminus.mouseout"/></use>
    <path d="M-4,0h8" fill="none" stroke="white" stroke-width="1.5" pointer-events="none"/>
  </g>
  <g id="arrowUp" transform="translate(30 24)">
    <use xlink:href="#rim"/>
    <path pointer-events="none" fill="none" stroke="white" stroke-width="1.5" d="M0,-3.0v7 M-2.5,-0.5L0,-3.0L2.5,-0.5"/>
  </g>
  <g id="arrowRight" transform="rotate(90) translate(36 -43)">
    <use xlink:href="#rim"/>
    <path pointer-events="none" fill="none" stroke="white" stroke-width="1.5" d="M0,-3.0v7 M-2.5,-0.5L0,-3.0L2.5,-0.5"/>
  </g>
  <g id="arrowDown" transform="rotate(180) translate(-30 -48)">
    <use xlink:href="#rim"/>
    <path pointer-events="none" fill="none" stroke="white" stroke-width="1.5" d="M0,-3.0v7 M-2.5,-0.5L0,-3.0L2.5,-0.5"/>
  </g>
  <g id="arrowLeft" transform="rotate(270) translate(-36 17)">
    <use xlink:href="#rim"/>
    <path pointer-events="none" fill="none" stroke="white" stroke-width="1.5" d="M0,-3.0v7 M-2.5,-0.5L0,-3.0L2.5,-0.5"/>
  </g>
  <g id="resetDef">
    <use xlink:href="#rim2" fill="#404040"><set attributeName="fill" to="#808080" begin="reset.mouseover" end="reset.mouseout"/></use>
  </g>
</defs>
<script type="application/ecmascript">
var viewWidth = 1663;
var viewHeight = 246;
var sectionId = 'dynsection-1';
</script>
<script type="application/ecmascript" xlink:href="svg.min.js"/>
<svg id="graph" class="graph">
<g id="viewport">
<title>com.runehive.content.activity.impl.duelarena.DuelRule.DuelRule</title>
<!-- Node1 -->
<g id="Node000001" class="node">
<title>Node1</title>
<g id="a_Node000001"><a xlink:title="Creates a new DuelRule.">
<ellipse fill="#999999" stroke="#666666" cx="1474.84" cy="-107.42" rx="179.96" ry="25.81"/>
<text xml:space="preserve" text-anchor="start" x="1355.59" y="-110.27" font-family="Helvetica,sans-Serif" font-size="12.00">com.runehive.content.activity.impl.duelarena.</text>
<text xml:space="preserve" text-anchor="middle" x="1474.84" y="-96.02" font-family="Helvetica,sans-Serif" font-size="12.00">DuelRule.DuelRule</text>
</a>
</g>
</g>
<!-- Node2 -->
<g id="Node000002" class="node">
<title>Node2</title>
<g id="a_Node000002"><a xlink:href="enumcom_1_1runehive_1_1content_1_1activity_1_1impl_1_1duelarena_1_1_duel_rule.html#a3c9e69bcd0d70f6abd2ea482a80e25eb" target="_top" xlink:title=" ">
<ellipse fill="white" stroke="#666666" cx="1078.92" cy="-212.42" rx="179.96" ry="25.81"/>
<text xml:space="preserve" text-anchor="start" x="959.67" y="-215.27" font-family="Helvetica,sans-Serif" font-size="12.00">com.runehive.content.activity.impl.duelarena.</text>
<text xml:space="preserve" text-anchor="middle" x="1078.92" y="-201.02" font-family="Helvetica,sans-Serif" font-size="12.00">DuelRule.forButton</text>
</a>
</g>
</g>
<!-- Node1&#45;&gt;Node2 -->
<g id="edge1_Node000001_Node000002" class="edge">
<title>Node1&#45;&gt;Node2</title>
<g id="a_edge1_Node000001_Node000002"><a xlink:title=" ">
<path fill="none" stroke="#63b8ff" d="M1395.81,-135.36C1355.31,-149.22 1304.81,-165.49 1258.88,-177.42 1238.04,-182.83 1215.65,-187.83 1193.99,-192.27"/>
<polygon fill="#63b8ff" stroke="#63b8ff" points="1396.94,-138.67 1405.26,-132.11 1394.66,-132.06 1396.94,-138.67"/>
</a>
</g>
</g>
<!-- Node4 -->
<g id="Node000004" class="node">
<title>Node4</title>
<g id="a_Node000004"><a xlink:href="enumcom_1_1runehive_1_1content_1_1activity_1_1impl_1_1duelarena_1_1_duel_rule.html#a6beb3d5f46493acbcf392babb8baf462" target="_top" xlink:title=" ">
<ellipse fill="white" stroke="#666666" cx="1078.92" cy="-72.42" rx="179.96" ry="25.81"/>
<text xml:space="preserve" text-anchor="start" x="959.67" y="-75.27" font-family="Helvetica,sans-Serif" font-size="12.00">com.runehive.content.activity.impl.duelarena.</text>
<text xml:space="preserve" text-anchor="middle" x="1078.92" y="-61.02" font-family="Helvetica,sans-Serif" font-size="12.00">DuelRule.inventorySlotsRequired</text>
</a>
</g>
</g>
<!-- Node1&#45;&gt;Node4 -->
<g id="edge3_Node000001_Node000004" class="edge">
<title>Node1&#45;&gt;Node4</title>
<g id="a_edge3_Node000001_Node000004"><a xlink:title=" ">
<path fill="none" stroke="#63b8ff" d="M1309.52,-92.82C1284.22,-90.57 1258.18,-88.26 1233.14,-86.03"/>
<polygon fill="#63b8ff" stroke="#63b8ff" points="1308.91,-96.28 1319.19,-93.68 1309.53,-89.31 1308.91,-96.28"/>
</a>
</g>
</g>
<!-- Node6 -->
<g id="Node000006" class="node">
<title>Node6</title>
<g id="a_Node000006"><a xlink:href="enumcom_1_1runehive_1_1content_1_1activity_1_1impl_1_1duelarena_1_1_duel_rule.html#a5f8f7313f946d242ca25cf8d00ede8fb" target="_top" xlink:title=" ">
<ellipse fill="white" stroke="#666666" cx="179.96" cy="-80.42" rx="179.96" ry="25.81"/>
<text xml:space="preserve" text-anchor="start" x="60.71" y="-83.27" font-family="Helvetica,sans-Serif" font-size="12.00">com.runehive.content.activity.impl.duelarena.</text>
<text xml:space="preserve" text-anchor="middle" x="179.96" y="-69.02" font-family="Helvetica,sans-Serif" font-size="12.00">DuelRule.validateEquipmentRules</text>
</a>
</g>
</g>
<!-- Node1&#45;&gt;Node6 -->
<g id="edge9_Node000001_Node000006" class="edge">
<title>Node1&#45;&gt;Node6</title>
<g id="a_edge9_Node000001_Node000006"><a xlink:title=" ">
<path fill="none" stroke="#63b8ff" d="M1404.33,-78.61C1362.9,-63.01 1308.8,-45.34 1258.88,-37.42 880.08,22.7 777.59,0.38 395.92,-37.42 355.11,-41.46 310.57,-49.72 272.67,-57.93"/>
<polygon fill="#63b8ff" stroke="#63b8ff" points="1402.85,-81.79 1413.44,-82.09 1405.35,-75.25 1402.85,-81.79"/>
</a>
</g>
</g>
<!-- Node8 -->
<g id="Node000008" class="node">
<title>Node8</title>
<g id="a_Node000008"><a xlink:href="enumcom_1_1runehive_1_1content_1_1activity_1_1impl_1_1duelarena_1_1_duel_rule.html#a6639507973c039fe8a2cb958b82af582" target="_top" xlink:title=" ">
<ellipse fill="white" stroke="#666666" cx="1078.92" cy="-142.42" rx="179.96" ry="25.81"/>
<text xml:space="preserve" text-anchor="start" x="959.67" y="-145.27" font-family="Helvetica,sans-Serif" font-size="12.00">com.runehive.content.activity.impl.duelarena.</text>
<text xml:space="preserve" text-anchor="middle" x="1078.92" y="-131.02" font-family="Helvetica,sans-Serif" font-size="12.00">DuelRule.showRules</text>
</a>
</g>
</g>
<!-- Node1&#45;&gt;Node8 -->
<g id="edge7_Node000001_Node000008" class="edge">
<title>Node1&#45;&gt;Node8</title>
<g id="a_edge7_Node000001_Node000008"><a xlink:title=" ">
<path fill="none" stroke="#63b8ff" d="M1309.52,-122.02C1284.22,-124.27 1258.18,-126.58 1233.14,-128.81"/>
<polygon fill="#63b8ff" stroke="#63b8ff" points="1309.53,-125.53 1319.19,-121.16 1308.91,-118.56 1309.53,-125.53"/>
</a>
</g>
</g>
<!-- Node3 -->
<g id="Node000003" class="node">
<title>Node3</title>
<g id="a_Node000003"><a xlink:href="classcom_1_1runehive_1_1game_1_1world_1_1entity_1_1mob_1_1player_1_1exchange_1_1duel_1_1_stake_session.html#a50c46ce978d69be09b15b5898b193e8f" target="_top" xlink:title="The method invoked when a button is clicked.">
<ellipse fill="white" stroke="#666666" cx="629.44" cy="-212.42" rx="233.52" ry="25.81"/>
<text xml:space="preserve" text-anchor="start" x="472.31" y="-215.27" font-family="Helvetica,sans-Serif" font-size="12.00">com.runehive.game.world.entity.mob.player.exchange.duel.</text>
<text xml:space="preserve" text-anchor="middle" x="629.44" y="-201.02" font-family="Helvetica,sans-Serif" font-size="12.00">StakeSession.onButtonClick</text>
</a>
</g>
</g>
<!-- Node2&#45;&gt;Node3 -->
<g id="edge2_Node000002_Node000003" class="edge">
<title>Node2&#45;&gt;Node3</title>
<g id="a_edge2_Node000002_Node000003"><a xlink:title=" ">
<path fill="none" stroke="#63b8ff" d="M887.23,-212.42C879.23,-212.42 871.18,-212.42 863.11,-212.42"/>
<polygon fill="#63b8ff" stroke="#63b8ff" points="886.98,-215.92 896.98,-212.42 886.98,-208.92 886.98,-215.92"/>
</a>
</g>
</g>
<!-- Node5 -->
<g id="Node000005" class="node">
<title>Node5</title>
<g id="a_Node000005"><a xlink:href="enumcom_1_1runehive_1_1content_1_1activity_1_1impl_1_1duelarena_1_1_duel_rule.html#a0936868e10762f013017162c3605db61" target="_top" xlink:title=" ">
<ellipse fill="white" stroke="#666666" cx="629.44" cy="-142.42" rx="179.96" ry="25.81"/>
<text xml:space="preserve" text-anchor="start" x="510.19" y="-145.27" font-family="Helvetica,sans-Serif" font-size="12.00">com.runehive.content.activity.impl.duelarena.</text>
<text xml:space="preserve" text-anchor="middle" x="629.44" y="-131.02" font-family="Helvetica,sans-Serif" font-size="12.00">DuelRule.canSet</text>
</a>
</g>
</g>
<!-- Node4&#45;&gt;Node5 -->
<g id="edge4_Node000004_Node000005" class="edge">
<title>Node4&#45;&gt;Node5</title>
<g id="a_edge4_Node000004_Node000005"><a xlink:title=" ">
<path fill="none" stroke="#63b8ff" d="M948.05,-93.82C920,-98.37 890.5,-103.1 862.96,-107.42 828.38,-112.84 790.87,-118.55 756.29,-123.76"/>
<polygon fill="#63b8ff" stroke="#63b8ff" points="948.33,-97.32 957.64,-92.26 947.21,-90.41 948.33,-97.32"/>
</a>
</g>
</g>
<!-- Node7 -->
<g id="Node000007" class="node">
<title>Node7</title>
<g id="a_Node000007"><a xlink:href="enumcom_1_1runehive_1_1content_1_1activity_1_1impl_1_1duelarena_1_1_duel_rule.html#aeca22c369e04cbaa51f849aa8b9fe196" target="_top" xlink:title=" ">
<ellipse fill="white" stroke="#666666" cx="629.44" cy="-72.42" rx="179.96" ry="25.81"/>
<text xml:space="preserve" text-anchor="start" x="510.19" y="-75.27" font-family="Helvetica,sans-Serif" font-size="12.00">com.runehive.content.activity.impl.duelarena.</text>
<text xml:space="preserve" text-anchor="middle" x="629.44" y="-61.02" font-family="Helvetica,sans-Serif" font-size="12.00">DuelRule.set</text>
</a>
</g>
</g>
<!-- Node4&#45;&gt;Node7 -->
<g id="edge6_Node000004_Node000007" class="edge">
<title>Node4&#45;&gt;Node7</title>
<g id="a_edge6_Node000004_Node000007"><a xlink:title=" ">
<path fill="none" stroke="#63b8ff" d="M887.11,-72.42C861.38,-72.42 835.06,-72.42 809.54,-72.42"/>
<polygon fill="#63b8ff" stroke="#63b8ff" points="886.98,-75.92 896.98,-72.42 886.98,-68.92 886.98,-75.92"/>
</a>
</g>
</g>
<!-- Node5&#45;&gt;Node6 -->
<g id="edge5_Node000005_Node000006" class="edge">
<title>Node5&#45;&gt;Node6</title>
<g id="a_edge5_Node000005_Node000006"><a xlink:title=" ">
<path fill="none" stroke="#63b8ff" d="M487.23,-122.85C430.79,-115.03 366.2,-106.08 310.93,-98.43"/>
<polygon fill="#63b8ff" stroke="#63b8ff" points="486.52,-126.29 496.91,-124.19 487.48,-119.36 486.52,-126.29"/>
</a>
</g>
</g>
<!-- Node8&#45;&gt;Node3 -->
<g id="edge8_Node000008_Node000003" class="edge">
<title>Node8&#45;&gt;Node3</title>
<g id="a_edge8_Node000008_Node000003"><a xlink:title=" ">
<path fill="none" stroke="#63b8ff" d="M948.05,-163.82C920,-168.37 890.5,-173.1 862.96,-177.42 833.32,-182.06 801.53,-186.93 771.27,-191.5"/>
<polygon fill="#63b8ff" stroke="#63b8ff" points="948.33,-167.32 957.64,-162.26 947.21,-160.41 948.33,-167.32"/>
</a>
</g>
</g>
</g>
</svg>

<g id="navigator" transform="translate(0 0)" fill="#404254">
  <rect fill="#f2f5e9" fill-opacity="0.5" stroke="#606060" stroke-width=".5" x="0" y="0" width="60" height="60"/>
  <use id="zoomplus" xlink:href="#zoomPlus" x="17" y="9" onmousedown="handleZoom(evt,'in')"/>
  <use id="zoomminus" xlink:href="#zoomMin" x="42" y="9" onmousedown="handleZoom(evt,'out')"/>
  <use id="reset" xlink:href="#resetDef" x="30" y="36" onmousedown="handleReset()"/>
   <use id="arrowup" xlink:href="#arrowUp" x="0" y="0" onmousedown="handlePan(0,-1)"/>
  <use id="arrowright" xlink:href="#arrowRight" x="0" y="0" onmousedown="handlePan(1,0)"/>
  <use id="arrowdown" xlink:href="#arrowDown" x="0" y="0" onmousedown="handlePan(0,1)"/>
  <use id="arrowleft" xlink:href="#arrowLeft" x="0" y="0" onmousedown="handlePan(-1,0)"/>
</g>
<svg viewBox="0 0 15 15" width="100%" height="30px" preserveAspectRatio="xMaxYMin meet">
 <g id="arrow_out" transform="scale(0.3 0.3)">
  <a xlink:href="enumcom_1_1runehive_1_1content_1_1activity_1_1impl_1_1duelarena_1_1_duel_rule_a0f2276d407a090bfd869ffa784ee94d8_icgraph_org.svg" target="_base">
   <rect id="button" ry="5" rx="5" y="6" x="6" height="38" width="38"
        fill="#f2f5e9" fill-opacity="0.5" stroke="#606060" stroke-width="1.0"/>
   <path id="arrow"
     d="M 11.500037,31.436501 C 11.940474,20.09759 22.043105,11.32322 32.158766,21.979434 L 37.068811,17.246167 C 37.068811,17.246167 37.088388,32 37.088388,32 L 22.160133,31.978069 C 22.160133,31.978069 26.997745,27.140456 26.997745,27.140456 C 18.528582,18.264221 13.291696,25.230495 11.500037,31.436501 z"
     style="fill:#404040;"/>
  </a>
 </g>
</svg>

<style type='text/css'>
<![CDATA[
[data-mouse-over-selected='false'] { opacity: 0.7; }
[data-mouse-over-selected='true']  { opacity: 1.0; }
]]>
</style>
<script type="application/ecmascript"><![CDATA[
document.addEventListener('DOMContentLoaded', (event) => {
  highlightEdges();
  highlightAdjacentNodes();
});
]]></script>
</svg>
