<?xml version="1.0" encoding="UTF-8" standalone="no"?>
<!DOCTYPE svg PUBLIC "-//W3C//DTD SVG 1.1//EN"
 "http://www.w3.org/Graphics/SVG/1.1/DTD/svg11.dtd">
<!-- Generated by graphviz version 14.0.1 (20251006.0113)
 -->
<!-- Title: com.runehive.content.skill.impl.fletching.impl.Stringable Pages: 1 -->
<!--zoomable 200 -->

<svg id="main" version="1.1" xmlns="http://www.w3.org/2000/svg" xmlns:xlink="http://www.w3.org/1999/xlink" xml:space="preserve" onload="init(evt)">

<style type="text/css"><![CDATA[
.node, .edge {opacity: 0.7;}
.node.selected, .edge.selected {opacity: 1;}
.edge:hover path { stroke: red; }
.edge:hover polygon { stroke: red; fill: red; }
]]></style>

<defs>
  <circle id="rim" cx="0" cy="0" r="7"/>
  <circle id="rim2" cx="0" cy="0" r="3.5"/>
  <g id="zoomPlus">
    <use xlink:href="#rim" fill="#404040"><set attributeName="fill" to="#808080" begin="zoomplus.mouseover" end="zoomplus.mouseout"/></use>
    <path d="M-4,0h8M0,-4v8" fill="none" stroke="white" stroke-width="1.5" pointer-events="none"/>
  </g>
  <g id="zoomMin">
    <use xlink:href="#rim" fill="#404040"><set attributeName="fill" to="#808080" begin="zoomminus.mouseover" end="zoomminus.mouseout"/></use>
    <path d="M-4,0h8" fill="none" stroke="white" stroke-width="1.5" pointer-events="none"/>
  </g>
  <g id="arrowUp" transform="translate(30 24)">
    <use xlink:href="#rim"/>
    <path pointer-events="none" fill="none" stroke="white" stroke-width="1.5" d="M0,-3.0v7 M-2.5,-0.5L0,-3.0L2.5,-0.5"/>
  </g>
  <g id="arrowRight" transform="rotate(90) translate(36 -43)">
    <use xlink:href="#rim"/>
    <path pointer-events="none" fill="none" stroke="white" stroke-width="1.5" d="M0,-3.0v7 M-2.5,-0.5L0,-3.0L2.5,-0.5"/>
  </g>
  <g id="arrowDown" transform="rotate(180) translate(-30 -48)">
    <use xlink:href="#rim"/>
    <path pointer-events="none" fill="none" stroke="white" stroke-width="1.5" d="M0,-3.0v7 M-2.5,-0.5L0,-3.0L2.5,-0.5"/>
  </g>
  <g id="arrowLeft" transform="rotate(270) translate(-36 17)">
    <use xlink:href="#rim"/>
    <path pointer-events="none" fill="none" stroke="white" stroke-width="1.5" d="M0,-3.0v7 M-2.5,-0.5L0,-3.0L2.5,-0.5"/>
  </g>
  <g id="resetDef">
    <use xlink:href="#rim2" fill="#404040"><set attributeName="fill" to="#808080" begin="reset.mouseover" end="reset.mouseout"/></use>
  </g>
</defs>
<script type="application/ecmascript">
var viewWidth = 1272;
var viewHeight = 200;
var sectionId = 'dynsection-1';
</script>
<script type="application/ecmascript" xlink:href="svg.min.js"/>
<svg id="graph" class="graph">
<g id="viewport">
<title>com.runehive.content.skill.impl.fletching.impl.Stringable</title>
<!-- Node1 -->
<g id="Node000001" class="node">
<title>Node1</title>
<g id="a_Node000001"><a xlink:title=" ">
<ellipse fill="#999999" stroke="#666666" cx="1082.7" cy="-87.81" rx="181.02" ry="25.81"/>
<text xml:space="preserve" text-anchor="start" x="962.7" y="-90.66" font-family="Helvetica,sans-Serif" font-size="12.00">com.runehive.content.skill.impl.fletching.impl.</text>
<text xml:space="preserve" text-anchor="middle" x="1082.7" y="-76.41" font-family="Helvetica,sans-Serif" font-size="12.00">Stringable</text>
</a>
</g>
</g>
<!-- Node2 -->
<g id="Node000002" class="node">
<title>Node2</title>
<g id="a_Node000002"><a xlink:href="interfacecom_1_1runehive_1_1content_1_1skill_1_1impl_1_1fletching_1_1_fletchable.html" target="_top" xlink:title=" ">
<ellipse fill="white" stroke="#666666" cx="672.69" cy="-165.81" rx="162.99" ry="25.81"/>
<text xml:space="preserve" text-anchor="start" x="565.44" y="-168.66" font-family="Helvetica,sans-Serif" font-size="12.00">com.runehive.content.skill.impl.fletching.</text>
<text xml:space="preserve" text-anchor="middle" x="672.69" y="-154.41" font-family="Helvetica,sans-Serif" font-size="12.00">Fletchable</text>
</a>
</g>
</g>
<!-- Node2&#45;&gt;Node1 -->
<g id="edge1_Node000001_Node000002" class="edge">
<title>Node2&#45;&gt;Node1</title>
<g id="a_edge1_Node000001_Node000002"><a xlink:title=" ">
<path fill="none" stroke="#63b8ff" d="M789.46,-143.68C846.95,-132.69 916.02,-119.48 972.58,-108.67"/>
<polygon fill="#63b8ff" stroke="#63b8ff" points="789.15,-140.17 779.99,-145.49 790.47,-147.05 789.15,-140.17"/>
</a>
</g>
</g>
<!-- Node3 -->
<g id="Node000003" class="node">
<title>Node3</title>
<g id="a_Node000003"><a xlink:href="classcom_1_1runehive_1_1game_1_1world_1_1items_1_1_item.html" target="_top" xlink:title="The container class that represents an item that can be interacted with.">
<ellipse fill="white" stroke="#666666" cx="286.79" cy="-56.81" rx="148.67" ry="15.73"/>
<text xml:space="preserve" text-anchor="middle" x="286.79" y="-52.53" font-family="Helvetica,sans-Serif" font-size="12.00">com.runehive.game.world.items.Item</text>
</a>
</g>
</g>
<!-- Node3&#45;&gt;Node1 -->
<g id="edge2_Node000001_Node000003" class="edge">
<title>Node3&#45;&gt;Node1</title>
<g id="a_edge2_Node000001_Node000003"><a xlink:title=" ">
<path fill="none" stroke="#9a32cd" stroke-dasharray="5,2" d="M433.75,-63.95C440.41,-64.25 447,-64.54 453.45,-64.81 606.25,-71.3 780.01,-77.57 905.99,-81.93"/>
<polygon fill="#9a32cd" stroke="#9a32cd" points="434.16,-60.47 424.01,-63.51 433.84,-67.46 434.16,-60.47"/>
</a>
</g>
<text xml:space="preserve" text-anchor="start" x="663.69" y="-100.78" font-family="Helvetica,sans-Serif" font-size="10.00" fill="grey">use</text>
<text xml:space="preserve" text-anchor="start" x="663.69" y="-84.78" font-family="Helvetica,sans-Serif" font-size="10.00" fill="grey">with</text>
</g>
<!-- Node5 -->
<g id="Node000005" class="node">
<title>Node5</title>
<g id="a_Node000005"><a xlink:href="classcom_1_1runehive_1_1content_1_1skill_1_1impl_1_1fletching_1_1_fletchable_item.html" target="_top" xlink:title=" ">
<ellipse fill="white" stroke="#666666" cx="672.69" cy="-25.81" rx="162.99" ry="25.81"/>
<text xml:space="preserve" text-anchor="start" x="565.44" y="-28.66" font-family="Helvetica,sans-Serif" font-size="12.00">com.runehive.content.skill.impl.fletching.</text>
<text xml:space="preserve" text-anchor="middle" x="672.69" y="-14.41" font-family="Helvetica,sans-Serif" font-size="12.00">FletchableItem</text>
</a>
</g>
</g>
<!-- Node3&#45;&gt;Node5 -->
<g id="edge5_Node000005_Node000003" class="edge">
<title>Node3&#45;&gt;Node5</title>
<g id="a_edge5_Node000005_Node000003"><a xlink:title=" ">
<path fill="none" stroke="#9a32cd" stroke-dasharray="5,2" d="M418.1,-46.29C452.99,-43.47 490.92,-40.41 526.56,-37.53"/>
<polygon fill="#9a32cd" stroke="#9a32cd" points="418.08,-42.78 408.4,-47.07 418.65,-49.75 418.08,-42.78"/>
</a>
</g>
<text xml:space="preserve" text-anchor="start" x="456.45" y="-48.67" font-family="Helvetica,sans-Serif" font-size="10.00" fill="grey">product</text>
</g>
<!-- Node4 -->
<g id="Node000004" class="node">
<title>Node4</title>
<g id="a_Node000004"><a xlink:title=" ">
<ellipse fill="white" stroke="#666666" cx="50.56" cy="-56.81" rx="50.56" ry="15.73"/>
<text xml:space="preserve" text-anchor="middle" x="50.56" y="-52.53" font-family="Helvetica,sans-Serif" font-size="12.00">Cloneable</text>
</a>
</g>
</g>
<!-- Node4&#45;&gt;Node3 -->
<g id="edge3_Node000003_Node000004" class="edge">
<title>Node4&#45;&gt;Node3</title>
<g id="a_edge3_Node000003_Node000004"><a xlink:title=" ">
<path fill="none" stroke="#63b8ff" d="M112.87,-56.81C120.85,-56.81 129.29,-56.81 137.96,-56.81"/>
<polygon fill="#63b8ff" stroke="#63b8ff" points="113.03,-53.31 103.03,-56.81 113.03,-60.31 113.03,-53.31"/>
</a>
</g>
</g>
<!-- Node5&#45;&gt;Node1 -->
<g id="edge4_Node000001_Node000005" class="edge">
<title>Node5&#45;&gt;Node1</title>
<g id="a_edge4_Node000001_Node000005"><a xlink:title=" ">
<path fill="none" stroke="#9a32cd" stroke-dasharray="5,2" d="M807.6,-44.57C832.88,-48.21 859.1,-52.07 883.68,-55.81 909.16,-59.69 936.45,-64 962.38,-68.17"/>
<polygon fill="#9a32cd" stroke="#9a32cd" points="808.34,-41.14 797.94,-43.18 807.34,-48.07 808.34,-41.14"/>
</a>
</g>
<text xml:space="preserve" text-anchor="start" x="856.68" y="-61.31" font-family="Helvetica,sans-Serif" font-size="10.00" fill="grey">items</text>
</g>
</g>
</svg>

<g id="navigator" transform="translate(0 0)" fill="#404254">
  <rect fill="#f2f5e9" fill-opacity="0.5" stroke="#606060" stroke-width=".5" x="0" y="0" width="60" height="60"/>
  <use id="zoomplus" xlink:href="#zoomPlus" x="17" y="9" onmousedown="handleZoom(evt,'in')"/>
  <use id="zoomminus" xlink:href="#zoomMin" x="42" y="9" onmousedown="handleZoom(evt,'out')"/>
  <use id="reset" xlink:href="#resetDef" x="30" y="36" onmousedown="handleReset()"/>
   <use id="arrowup" xlink:href="#arrowUp" x="0" y="0" onmousedown="handlePan(0,-1)"/>
  <use id="arrowright" xlink:href="#arrowRight" x="0" y="0" onmousedown="handlePan(1,0)"/>
  <use id="arrowdown" xlink:href="#arrowDown" x="0" y="0" onmousedown="handlePan(0,1)"/>
  <use id="arrowleft" xlink:href="#arrowLeft" x="0" y="0" onmousedown="handlePan(-1,0)"/>
</g>
<svg viewBox="0 0 15 15" width="100%" height="30px" preserveAspectRatio="xMaxYMin meet">
 <g id="arrow_out" transform="scale(0.3 0.3)">
  <a xlink:href="enumcom_1_1runehive_1_1content_1_1skill_1_1impl_1_1fletching_1_1impl_1_1_stringable__coll__graph_org.svg" target="_base">
   <rect id="button" ry="5" rx="5" y="6" x="6" height="38" width="38"
        fill="#f2f5e9" fill-opacity="0.5" stroke="#606060" stroke-width="1.0"/>
   <path id="arrow"
     d="M 11.500037,31.436501 C 11.940474,20.09759 22.043105,11.32322 32.158766,21.979434 L 37.068811,17.246167 C 37.068811,17.246167 37.088388,32 37.088388,32 L 22.160133,31.978069 C 22.160133,31.978069 26.997745,27.140456 26.997745,27.140456 C 18.528582,18.264221 13.291696,25.230495 11.500037,31.436501 z"
     style="fill:#404040;"/>
  </a>
 </g>
</svg>

<style type='text/css'>
<![CDATA[
[data-mouse-over-selected='false'] { opacity: 0.7; }
[data-mouse-over-selected='true']  { opacity: 1.0; }
]]>
</style>
<script type="application/ecmascript"><![CDATA[
document.addEventListener('DOMContentLoaded', (event) => {
  highlightEdges();
  highlightAdjacentNodes();
});
]]></script>
</svg>
