<?xml version="1.0" encoding="UTF-8" standalone="no"?>
<!DOCTYPE svg PUBLIC "-//W3C//DTD SVG 1.1//EN"
 "http://www.w3.org/Graphics/SVG/1.1/DTD/svg11.dtd">
<!-- Generated by graphviz version 14.0.1 (20251006.0113)
 -->
<!-- Title: com.runehive.content.skill.impl.agility.obstacle.impl.WildernessDoorInteraction.canExecute Pages: 1 -->
<!--zoomable 491 -->

<svg id="main" version="1.1" xmlns="http://www.w3.org/2000/svg" xmlns:xlink="http://www.w3.org/1999/xlink" xml:space="preserve" onload="init(evt)">

<style type="text/css"><![CDATA[
.node, .edge {opacity: 0.7;}
.node.selected, .edge.selected {opacity: 1;}
.edge:hover path { stroke: red; }
.edge:hover polygon { stroke: red; fill: red; }
]]></style>

<defs>
  <circle id="rim" cx="0" cy="0" r="7"/>
  <circle id="rim2" cx="0" cy="0" r="3.5"/>
  <g id="zoomPlus">
    <use xlink:href="#rim" fill="#404040"><set attributeName="fill" to="#808080" begin="zoomplus.mouseover" end="zoomplus.mouseout"/></use>
    <path d="M-4,0h8M0,-4v8" fill="none" stroke="white" stroke-width="1.5" pointer-events="none"/>
  </g>
  <g id="zoomMin">
    <use xlink:href="#rim" fill="#404040"><set attributeName="fill" to="#808080" begin="zoomminus.mouseover" end="zoomminus.mouseout"/></use>
    <path d="M-4,0h8" fill="none" stroke="white" stroke-width="1.5" pointer-events="none"/>
  </g>
  <g id="arrowUp" transform="translate(30 24)">
    <use xlink:href="#rim"/>
    <path pointer-events="none" fill="none" stroke="white" stroke-width="1.5" d="M0,-3.0v7 M-2.5,-0.5L0,-3.0L2.5,-0.5"/>
  </g>
  <g id="arrowRight" transform="rotate(90) translate(36 -43)">
    <use xlink:href="#rim"/>
    <path pointer-events="none" fill="none" stroke="white" stroke-width="1.5" d="M0,-3.0v7 M-2.5,-0.5L0,-3.0L2.5,-0.5"/>
  </g>
  <g id="arrowDown" transform="rotate(180) translate(-30 -48)">
    <use xlink:href="#rim"/>
    <path pointer-events="none" fill="none" stroke="white" stroke-width="1.5" d="M0,-3.0v7 M-2.5,-0.5L0,-3.0L2.5,-0.5"/>
  </g>
  <g id="arrowLeft" transform="rotate(270) translate(-36 17)">
    <use xlink:href="#rim"/>
    <path pointer-events="none" fill="none" stroke="white" stroke-width="1.5" d="M0,-3.0v7 M-2.5,-0.5L0,-3.0L2.5,-0.5"/>
  </g>
  <g id="resetDef">
    <use xlink:href="#rim2" fill="#404040"><set attributeName="fill" to="#808080" begin="reset.mouseover" end="reset.mouseout"/></use>
  </g>
</defs>
<script type="application/ecmascript">
var viewWidth = 1363;
var viewHeight = 491;
var sectionId = 'dynsection-2';
</script>
<script type="application/ecmascript" xlink:href="svg.min.js"/>
<svg id="graph" class="graph">
<g id="viewport">
<title>com.runehive.content.skill.impl.agility.obstacle.impl.WildernessDoorInteraction.canExecute</title>
<!-- Node1 -->
<g id="Node000001" class="node">
<title>Node1</title>
<g id="a_Node000001"><a xlink:title=" ">
<ellipse fill="#999999" stroke="#666666" cx="204.88" cy="-210.81" rx="204.88" ry="25.81"/>
<text xml:space="preserve" text-anchor="start" x="68.01" y="-213.66" font-family="Helvetica,sans-Serif" font-size="12.00">com.runehive.content.skill.impl.agility.obstacle.impl.</text>
<text xml:space="preserve" text-anchor="middle" x="204.88" y="-199.41" font-family="Helvetica,sans-Serif" font-size="12.00">WildernessDoorInteraction.canExecute</text>
</a>
</g>
</g>
<!-- Node2 -->
<g id="Node000002" class="node">
<title>Node2</title>
<g id="a_Node000002"><a xlink:href="classcom_1_1runehive_1_1content_1_1dialogue_1_1_dialogue_factory.html#a2487170811b723c8a8e3759c94896bd9" target="_top" xlink:title="Retrieves the next dialogue in the chain and executes it.">
<ellipse fill="white" stroke="#666666" cx="594.97" cy="-342.81" rx="129.05" ry="25.81"/>
<text xml:space="preserve" text-anchor="start" x="511.72" y="-345.66" font-family="Helvetica,sans-Serif" font-size="12.00">com.runehive.content.dialogue.</text>
<text xml:space="preserve" text-anchor="middle" x="594.97" y="-331.41" font-family="Helvetica,sans-Serif" font-size="12.00">DialogueFactory.execute</text>
</a>
</g>
</g>
<!-- Node1&#45;&gt;Node2 -->
<g id="edge1_Node000001_Node000002" class="edge">
<title>Node1&#45;&gt;Node2</title>
<g id="a_edge1_Node000001_Node000002"><a xlink:title=" ">
<path fill="none" stroke="#63b8ff" d="M261.22,-236C309.28,-257.19 381.13,-287.24 445.77,-307.81 461.12,-312.69 477.56,-317.24 493.7,-321.32"/>
<polygon fill="#63b8ff" stroke="#63b8ff" points="492.79,-324.7 503.34,-323.71 494.48,-317.91 492.79,-324.7"/>
</a>
</g>
</g>
<!-- Node8 -->
<g id="Node000008" class="node">
<title>Node8</title>
<g id="a_Node000008"><a xlink:href="classcom_1_1runehive_1_1util_1_1generic_1_1_generic_attributes.html#a6fb78333b5fc3823ccaec2c528ceb57f" target="_top" xlink:title="Gets a generic attribute.">
<ellipse fill="white" stroke="#666666" cx="594.97" cy="-254.81" rx="107.83" ry="25.81"/>
<text xml:space="preserve" text-anchor="start" x="526.72" y="-257.66" font-family="Helvetica,sans-Serif" font-size="12.00">com.runehive.util.generic.</text>
<text xml:space="preserve" text-anchor="middle" x="594.97" y="-243.41" font-family="Helvetica,sans-Serif" font-size="12.00">GenericAttributes.get</text>
</a>
</g>
</g>
<!-- Node1&#45;&gt;Node8 -->
<g id="edge7_Node000001_Node000008" class="edge">
<title>Node1&#45;&gt;Node8</title>
<g id="a_edge7_Node000001_Node000008"><a xlink:title=" ">
<path fill="none" stroke="#63b8ff" d="M358.99,-228.17C401.24,-232.96 446.21,-238.06 485.37,-242.5"/>
<polygon fill="#63b8ff" stroke="#63b8ff" points="484.96,-245.97 495.29,-243.62 485.75,-239.02 484.96,-245.97"/>
</a>
</g>
</g>
<!-- Node9 -->
<g id="Node000009" class="node">
<title>Node9</title>
<g id="a_Node000009"><a xlink:href="classcom_1_1runehive_1_1game_1_1world_1_1entity_1_1skill_1_1_skill_manager.html#a413f91a2ac68dc4f5d610c7195caf347" target="_top" xlink:title="Gets the level of a skill.">
<ellipse fill="white" stroke="#666666" cx="594.97" cy="-166.81" rx="149.2" ry="25.81"/>
<text xml:space="preserve" text-anchor="start" x="497.47" y="-169.66" font-family="Helvetica,sans-Serif" font-size="12.00">com.runehive.game.world.entity.skill.</text>
<text xml:space="preserve" text-anchor="middle" x="594.97" y="-155.41" font-family="Helvetica,sans-Serif" font-size="12.00">SkillManager.getLevel</text>
</a>
</g>
</g>
<!-- Node1&#45;&gt;Node9 -->
<g id="edge9_Node000001_Node000009" class="edge">
<title>Node1&#45;&gt;Node9</title>
<g id="a_edge9_Node000001_Node000009"><a xlink:title=" ">
<path fill="none" stroke="#63b8ff" d="M358.99,-193.45C391.6,-189.75 425.84,-185.87 457.77,-182.25"/>
<polygon fill="#63b8ff" stroke="#63b8ff" points="457.92,-185.76 467.46,-181.15 457.13,-178.8 457.92,-185.76"/>
</a>
</g>
</g>
<!-- Node10 -->
<g id="Node000010" class="node">
<title>Node10</title>
<g id="a_Node000010"><a xlink:href="classcom_1_1runehive_1_1content_1_1dialogue_1_1_dialogue_factory.html#af92ab6d9ef2bae570cf81d843519e529" target="_top" xlink:title="Appends a StatementDialogue to the current dialogue chain.">
<ellipse fill="white" stroke="#666666" cx="594.97" cy="-96.81" rx="132.23" ry="25.81"/>
<text xml:space="preserve" text-anchor="start" x="509.47" y="-99.66" font-family="Helvetica,sans-Serif" font-size="12.00">com.runehive.content.dialogue.</text>
<text xml:space="preserve" text-anchor="middle" x="594.97" y="-85.41" font-family="Helvetica,sans-Serif" font-size="12.00">DialogueFactory.sendStatement</text>
</a>
</g>
</g>
<!-- Node1&#45;&gt;Node10 -->
<g id="edge11_Node000001_Node000010" class="edge">
<title>Node1&#45;&gt;Node10</title>
<g id="a_edge11_Node000001_Node000010"><a xlink:title=" ">
<path fill="none" stroke="#63b8ff" d="M275.46,-186.13C323.08,-169.68 387.85,-148.15 445.77,-131.81 461.63,-127.33 478.56,-122.96 495.09,-118.91"/>
<polygon fill="#63b8ff" stroke="#63b8ff" points="495.51,-122.41 504.41,-116.65 493.86,-115.6 495.51,-122.41"/>
</a>
</g>
</g>
<!-- Node3 -->
<g id="Node000003" class="node">
<title>Node3</title>
<g id="a_Node000003"><a xlink:href="classcom_1_1runehive_1_1content_1_1dialogue_1_1_dialogue_factory.html#aec64ffdeed4c31dfe340a41430f50892" target="_top" xlink:title="Creates a new DialogueFactory.">
<ellipse fill="white" stroke="#666666" cx="1216.57" cy="-149.81" rx="138.06" ry="25.81"/>
<text xml:space="preserve" text-anchor="start" x="1126.94" y="-152.66" font-family="Helvetica,sans-Serif" font-size="12.00">com.runehive.content.dialogue.</text>
<text xml:space="preserve" text-anchor="middle" x="1216.57" y="-138.41" font-family="Helvetica,sans-Serif" font-size="12.00">DialogueFactory.DialogueFactory</text>
</a>
</g>
</g>
<!-- Node2&#45;&gt;Node3 -->
<g id="edge2_Node000002_Node000003" class="edge">
<title>Node2&#45;&gt;Node3</title>
<g id="a_edge2_Node000002_Node000003"><a xlink:title=" ">
<path fill="none" stroke="#63b8ff" d="M627.91,-368.23C662.92,-394.32 721.89,-433.24 780.17,-448.81 892.81,-478.91 941.5,-507.05 1042.5,-448.81 1141.72,-391.6 1189.21,-253.38 1206.94,-186.83"/>
<polygon fill="#63b8ff" stroke="#63b8ff" points="1210.24,-188.05 1209.35,-177.5 1203.46,-186.31 1210.24,-188.05"/>
</a>
</g>
</g>
<!-- Node4 -->
<g id="Node000004" class="node">
<title>Node4</title>
<g id="a_Node000004"><a xlink:href="classcom_1_1runehive_1_1content_1_1dialogue_1_1_dialogue_factory.html#a5f56390c19e58a8e3390f46449e6c6cf" target="_top" xlink:title="Gets the current chain.">
<ellipse fill="white" stroke="#666666" cx="911.34" cy="-413.81" rx="129.05" ry="25.81"/>
<text xml:space="preserve" text-anchor="start" x="828.09" y="-416.66" font-family="Helvetica,sans-Serif" font-size="12.00">com.runehive.content.dialogue.</text>
<text xml:space="preserve" text-anchor="middle" x="911.34" y="-402.41" font-family="Helvetica,sans-Serif" font-size="12.00">DialogueFactory.getChain</text>
</a>
</g>
</g>
<!-- Node2&#45;&gt;Node4 -->
<g id="edge3_Node000002_Node000004" class="edge">
<title>Node2&#45;&gt;Node4</title>
<g id="a_edge3_Node000002_Node000004"><a xlink:title=" ">
<path fill="none" stroke="#63b8ff" d="M681.87,-362.21C722.51,-371.39 771.21,-382.39 813.18,-391.87"/>
<polygon fill="#63b8ff" stroke="#63b8ff" points="812.26,-395.25 822.79,-394.04 813.8,-388.42 812.26,-395.25"/>
</a>
</g>
</g>
<!-- Node5 -->
<g id="Node000005" class="node">
<title>Node5</title>
<g id="a_Node000005"><a xlink:href="classcom_1_1runehive_1_1content_1_1dialogue_1_1_dialogue_factory.html#a79b8587c2aac2f5cb6ef6f5e1069ab3f" target="_top" xlink:title="Gets the Optional describing the next action in the dialogue chain.">
<ellipse fill="white" stroke="#666666" cx="911.34" cy="-343.81" rx="129.05" ry="25.81"/>
<text xml:space="preserve" text-anchor="start" x="828.09" y="-346.66" font-family="Helvetica,sans-Serif" font-size="12.00">com.runehive.content.dialogue.</text>
<text xml:space="preserve" text-anchor="middle" x="911.34" y="-332.41" font-family="Helvetica,sans-Serif" font-size="12.00">DialogueFactory.getNextAction</text>
</a>
</g>
</g>
<!-- Node2&#45;&gt;Node5 -->
<g id="edge4_Node000002_Node000005" class="edge">
<title>Node2&#45;&gt;Node5</title>
<g id="a_edge4_Node000002_Node000005"><a xlink:title=" ">
<path fill="none" stroke="#63b8ff" d="M724.29,-343.22C739.59,-343.27 755.27,-343.32 770.72,-343.37"/>
<polygon fill="#63b8ff" stroke="#63b8ff" points="770.39,-346.86 780.4,-343.4 770.42,-339.86 770.39,-346.86"/>
</a>
</g>
</g>
<!-- Node6 -->
<g id="Node000006" class="node">
<title>Node6</title>
<g id="a_Node000006"><a xlink:href="classcom_1_1runehive_1_1content_1_1dialogue_1_1_dialogue_factory.html#a6ce434d7d06968060ccb0f0a624358ee" target="_top" xlink:title=" ">
<ellipse fill="white" stroke="#666666" cx="911.34" cy="-273.81" rx="129.05" ry="25.81"/>
<text xml:space="preserve" text-anchor="start" x="828.09" y="-276.66" font-family="Helvetica,sans-Serif" font-size="12.00">com.runehive.content.dialogue.</text>
<text xml:space="preserve" text-anchor="middle" x="911.34" y="-262.41" font-family="Helvetica,sans-Serif" font-size="12.00">DialogueFactory.setActive</text>
</a>
</g>
</g>
<!-- Node2&#45;&gt;Node6 -->
<g id="edge5_Node000002_Node000006" class="edge">
<title>Node2&#45;&gt;Node6</title>
<g id="a_edge5_Node000002_Node000006"><a xlink:title=" ">
<path fill="none" stroke="#63b8ff" d="M683.12,-323.68C723.07,-314.91 770.6,-304.48 811.84,-295.43"/>
<polygon fill="#63b8ff" stroke="#63b8ff" points="812.52,-298.86 821.54,-293.3 811.02,-292.03 812.52,-298.86"/>
</a>
</g>
</g>
<!-- Node7 -->
<g id="Node000007" class="node">
<title>Node7</title>
<g id="a_Node000007"><a xlink:href="classcom_1_1runehive_1_1content_1_1dialogue_1_1_dialogue_factory.html#a0b658967f161f2b4d870c947ae7851cb" target="_top" xlink:title="Sets the next action in the dialogue chain.">
<ellipse fill="white" stroke="#666666" cx="911.34" cy="-203.81" rx="129.05" ry="25.81"/>
<text xml:space="preserve" text-anchor="start" x="828.09" y="-206.66" font-family="Helvetica,sans-Serif" font-size="12.00">com.runehive.content.dialogue.</text>
<text xml:space="preserve" text-anchor="middle" x="911.34" y="-192.41" font-family="Helvetica,sans-Serif" font-size="12.00">DialogueFactory.setNextAction</text>
</a>
</g>
</g>
<!-- Node2&#45;&gt;Node7 -->
<g id="edge6_Node000002_Node000007" class="edge">
<title>Node2&#45;&gt;Node7</title>
<g id="a_edge6_Node000002_Node000007"><a xlink:title=" ">
<path fill="none" stroke="#63b8ff" d="M704.21,-328.88C718.57,-323.8 732.38,-316.98 744.17,-307.81 771.47,-286.58 753.19,-260.46 780.17,-238.81 786.77,-233.51 794.1,-229.02 801.82,-225.2"/>
<polygon fill="#63b8ff" stroke="#63b8ff" points="803.1,-228.46 810.8,-221.17 800.24,-222.07 803.1,-228.46"/>
</a>
</g>
</g>
<!-- Node8&#45;&gt;Node8 -->
<g id="edge8_Node000008_Node000008" class="edge">
<title>Node8&#45;&gt;Node8</title>
<g id="a_edge8_Node000008_Node000008"><a xlink:title=" ">
<path fill="none" stroke="#63b8ff" d="M537.73,-276.9C528.93,-288.32 548.01,-298.62 594.97,-298.62 625.42,-298.62 644.15,-294.29 651.15,-288.13"/>
<polygon fill="#63b8ff" stroke="#63b8ff" points="654.61,-288.69 652.06,-278.41 647.64,-288.04 654.61,-288.69"/>
</a>
</g>
</g>
<!-- Node9&#45;&gt;Node9 -->
<g id="edge10_Node000009_Node000009" class="edge">
<title>Node9&#45;&gt;Node9</title>
<g id="a_edge10_Node000009_Node000009"><a xlink:title=" ">
<path fill="none" stroke="#63b8ff" d="M536.58,-190.69C531.01,-201.38 550.48,-210.62 594.97,-210.62 623.47,-210.62 641.7,-206.83 649.66,-201.29"/>
<polygon fill="#63b8ff" stroke="#63b8ff" points="652.87,-202.72 652.86,-192.12 646.26,-200.41 652.87,-202.72"/>
</a>
</g>
</g>
<!-- Node10&#45;&gt;Node3 -->
<g id="edge14_Node000010_Node000003" class="edge">
<title>Node10&#45;&gt;Node3</title>
<g id="a_edge14_Node000010_Node000003"><a xlink:title=" ">
<path fill="none" stroke="#63b8ff" d="M685.53,-115.92C715.49,-121.63 749.15,-127.29 780.17,-130.81 875.22,-141.6 982.59,-146.37 1066.92,-148.43"/>
<polygon fill="#63b8ff" stroke="#63b8ff" points="1066.81,-151.93 1076.89,-148.66 1066.98,-144.93 1066.81,-151.93"/>
</a>
</g>
</g>
<!-- Node11 -->
<g id="Node000011" class="node">
<title>Node11</title>
<g id="a_Node000011"><a xlink:href="classcom_1_1runehive_1_1content_1_1dialogue_1_1_dialogue_factory.html#a8979431ba1fa2913a9ed65bbf8e4dd3f" target="_top" xlink:title="Appends a chain to this factory.">
<ellipse fill="white" stroke="#666666" cx="911.34" cy="-95.81" rx="129.05" ry="25.81"/>
<text xml:space="preserve" text-anchor="start" x="828.09" y="-98.66" font-family="Helvetica,sans-Serif" font-size="12.00">com.runehive.content.dialogue.</text>
<text xml:space="preserve" text-anchor="middle" x="911.34" y="-84.41" font-family="Helvetica,sans-Serif" font-size="12.00">DialogueFactory.append</text>
</a>
</g>
</g>
<!-- Node10&#45;&gt;Node11 -->
<g id="edge12_Node000010_Node000011" class="edge">
<title>Node10&#45;&gt;Node11</title>
<g id="a_edge12_Node000010_Node000011"><a xlink:title=" ">
<path fill="none" stroke="#63b8ff" d="M727.47,-96.39C741.67,-96.35 756.17,-96.3 770.46,-96.25"/>
<polygon fill="#63b8ff" stroke="#63b8ff" points="770.38,-99.75 780.37,-96.22 770.36,-92.75 770.38,-99.75"/>
</a>
</g>
</g>
<!-- Node12 -->
<g id="Node000012" class="node">
<title>Node12</title>
<g id="a_Node000012"><a xlink:href="classcom_1_1runehive_1_1content_1_1dialogue_1_1_dialogue_factory.html#ab2aefcffbd4c555eebf5439f4c437d25" target="_top" xlink:title="The method that validates the length of text.">
<ellipse fill="white" stroke="#666666" cx="911.34" cy="-25.81" rx="131.17" ry="25.81"/>
<text xml:space="preserve" text-anchor="start" x="826.59" y="-28.66" font-family="Helvetica,sans-Serif" font-size="12.00">com.runehive.content.dialogue.</text>
<text xml:space="preserve" text-anchor="middle" x="911.34" y="-14.41" font-family="Helvetica,sans-Serif" font-size="12.00">DialogueFactory.validateLength</text>
</a>
</g>
</g>
<!-- Node10&#45;&gt;Node12 -->
<g id="edge15_Node000010_Node000012" class="edge">
<title>Node10&#45;&gt;Node12</title>
<g id="a_edge15_Node000010_Node000012"><a xlink:title=" ">
<path fill="none" stroke="#63b8ff" d="M682.7,-77.22C722.99,-68.12 771.07,-57.26 812.63,-47.88"/>
<polygon fill="#63b8ff" stroke="#63b8ff" points="813.15,-51.35 822.14,-45.73 811.61,-44.52 813.15,-51.35"/>
</a>
</g>
</g>
<!-- Node11&#45;&gt;Node3 -->
<g id="edge13_Node000011_Node000003" class="edge">
<title>Node11&#45;&gt;Node3</title>
<g id="a_edge13_Node000011_Node000003"><a xlink:title=" ">
<path fill="none" stroke="#63b8ff" d="M1009.11,-113.04C1039.42,-118.44 1073.12,-124.44 1104.34,-130"/>
<polygon fill="#63b8ff" stroke="#63b8ff" points="1103.32,-133.38 1113.78,-131.68 1104.55,-126.48 1103.32,-133.38"/>
</a>
</g>
</g>
</g>
</svg>

<g id="navigator" transform="translate(0 0)" fill="#404254">
  <rect fill="#f2f5e9" fill-opacity="0.5" stroke="#606060" stroke-width=".5" x="0" y="0" width="60" height="60"/>
  <use id="zoomplus" xlink:href="#zoomPlus" x="17" y="9" onmousedown="handleZoom(evt,'in')"/>
  <use id="zoomminus" xlink:href="#zoomMin" x="42" y="9" onmousedown="handleZoom(evt,'out')"/>
  <use id="reset" xlink:href="#resetDef" x="30" y="36" onmousedown="handleReset()"/>
   <use id="arrowup" xlink:href="#arrowUp" x="0" y="0" onmousedown="handlePan(0,-1)"/>
  <use id="arrowright" xlink:href="#arrowRight" x="0" y="0" onmousedown="handlePan(1,0)"/>
  <use id="arrowdown" xlink:href="#arrowDown" x="0" y="0" onmousedown="handlePan(0,1)"/>
  <use id="arrowleft" xlink:href="#arrowLeft" x="0" y="0" onmousedown="handlePan(-1,0)"/>
</g>
<svg viewBox="0 0 15 15" width="100%" height="30px" preserveAspectRatio="xMaxYMin meet">
 <g id="arrow_out" transform="scale(0.3 0.3)">
  <a xlink:href="interfacecom_1_1runehive_1_1content_1_1skill_1_1impl_1_1agility_1_1obstacle_1_1impl_1_1_wilderness_door_interaction_a083649d4f5ae19ece3d2dd3b3abe0c1f_cgraph_org.svg" target="_base">
   <rect id="button" ry="5" rx="5" y="6" x="6" height="38" width="38"
        fill="#f2f5e9" fill-opacity="0.5" stroke="#606060" stroke-width="1.0"/>
   <path id="arrow"
     d="M 11.500037,31.436501 C 11.940474,20.09759 22.043105,11.32322 32.158766,21.979434 L 37.068811,17.246167 C 37.068811,17.246167 37.088388,32 37.088388,32 L 22.160133,31.978069 C 22.160133,31.978069 26.997745,27.140456 26.997745,27.140456 C 18.528582,18.264221 13.291696,25.230495 11.500037,31.436501 z"
     style="fill:#404040;"/>
  </a>
 </g>
</svg>

<style type='text/css'>
<![CDATA[
[data-mouse-over-selected='false'] { opacity: 0.7; }
[data-mouse-over-selected='true']  { opacity: 1.0; }
]]>
</style>
<script type="application/ecmascript"><![CDATA[
document.addEventListener('DOMContentLoaded', (event) => {
  highlightEdges();
  highlightAdjacentNodes();
});
]]></script>
</svg>
